<svg version="1.1" xmlns="http://www.w3.org/2000/svg" xmlns:xlink="http://www.w3.org/1999/xlink" width="114.58631" height="18.42524" viewBox="0,0,114.58631,18.42524"><g transform="translate(-240.26728,-166.91513)"><g data-paper-data="{&quot;isPaintingLayer&quot;:true}" fill="#83a837" fill-rule="nonzero" stroke="none" stroke-width="1" stroke-linecap="butt" stroke-linejoin="miter" stroke-miterlimit="10" stroke-dasharray="" stroke-dashoffset="0" style="mix-blend-mode: normal"><path d="M243.07792,177.67047c-0.34976,0 -0.68289,-0.0666 -0.99934,-0.19985c-0.30813,-0.1416 -0.57878,-0.32482 -0.81196,-0.54965c-0.23318,-0.23319 -0.41639,-0.50381 -0.54963,-0.81196c-0.13324,-0.31646 -0.19987,-0.64955 -0.19987,-0.99931v-5.12163c0,-0.34976 0.06663,-0.67872 0.19987,-0.98682c0.13324,-0.31646 0.31645,-0.58713 0.54963,-0.81197c0.23318,-0.23318 0.50383,-0.41639 0.81196,-0.54963c0.31646,-0.14157 0.64958,-0.21236 0.99934,-0.21236h8.69421c0.34976,0 0.67872,0.07079 0.98686,0.21236c0.31646,0.13324 0.59127,0.31646 0.82445,0.54963c0.23315,0.22484 0.41636,0.4955 0.54961,0.81197c0.13324,0.3081 0.19989,0.63706 0.19989,0.98682v2.311h-2.56081v-2.311h-8.69421v5.12163h8.69421c0.34976,0 0.67872,0.0666 0.98686,0.19985c0.31646,0.13324 0.59127,0.31646 0.82445,0.54965c0.23315,0.23315 0.41636,0.50799 0.54961,0.82445c0.13324,0.3081 0.19989,0.63706 0.19989,0.98682v5.10909c0,0.3498 -0.06664,0.6829 -0.19989,0.99936c-0.13324,0.3081 -0.31646,0.57877 -0.54961,0.81196c-0.23319,0.23319 -0.50799,0.41641 -0.82445,0.54961c-0.30815,0.13329 -0.6371,0.19989 -0.98686,0.19989h-8.94407c-0.34975,0 -0.68286,-0.0666 -0.99931,-0.19989c-0.30813,-0.1332 -0.57878,-0.31642 -0.81196,-0.54961c-0.23318,-0.23319 -0.41639,-0.50386 -0.54963,-0.81196c-0.13324,-0.31646 -0.19987,-0.64955 -0.19987,-0.99936v-2.29846h2.56078v2.29846h8.94407v-5.10909zM269.96005,179.94398h-8.80664v2.93552h8.80664v2.46087h-8.80664c-0.33313,0 -0.64959,-0.06247 -0.94938,-0.1874c-0.29979,-0.13324 -0.56214,-0.3081 -0.78698,-0.52462c-0.21652,-0.22487 -0.39142,-0.48719 -0.52466,-0.78698c-0.12489,-0.29983 -0.18735,-0.62043 -0.18735,-0.96188v-8.38192c0,-0.34145 0.06247,-0.66204 0.18735,-0.96183c0.13324,-0.29983 0.30815,-0.55796 0.52466,-0.77452c0.22483,-0.22483 0.48719,-0.39973 0.78698,-0.52462c0.29979,-0.13324 0.61625,-0.19989 0.94938,-0.19989h6.34577c0.34145,0 0.66204,0.06664 0.96183,0.19989c0.29983,0.12489 0.55796,0.29979 0.77448,0.52462c0.22487,0.21656 0.39973,0.47469 0.52466,0.77452c0.13324,0.29979 0.19989,0.62039 0.19989,0.96183zM261.1534,174.49758v2.98553h6.34577v-2.98553zM276.51816,174.49758v8.38192h6.34577v-2.24849h2.46108v2.24849c0,0.34145 -0.06694,0.66204 -0.19997,0.96188c-0.12493,0.29979 -0.29975,0.5621 -0.52488,0.78698c-0.2166,0.21652 -0.47456,0.39138 -0.77431,0.52462c-0.29975,0.12493 -0.62039,0.1874 -0.96192,0.1874h-6.34577c-0.33309,0 -0.64955,-0.06247 -0.94934,-0.1874c-0.29983,-0.13324 -0.56214,-0.3081 -0.78698,-0.52462c-0.21656,-0.22487 -0.39142,-0.48719 -0.52466,-0.78698c-0.12493,-0.29983 -0.1874,-0.62043 -0.1874,-0.96188v-8.38192c0,-0.34145 0.06247,-0.66204 0.1874,-0.96183c0.13324,-0.29983 0.3081,-0.55796 0.52466,-0.77452c0.22483,-0.22483 0.48714,-0.39973 0.78698,-0.52462c0.29979,-0.13324 0.61625,-0.19989 0.94934,-0.19989h6.34577c0.34153,0 0.66217,0.06664 0.96192,0.19989c0.29975,0.12489 0.55771,0.29979 0.77431,0.52462c0.22513,0.21656 0.39995,0.47469 0.52488,0.77452c0.13303,0.29979 0.19997,0.62039 0.19997,0.96183v2.24853h-2.46108v-2.24853zM300.93959,182.8795c0,0.34145 -0.06694,0.66204 -0.19997,0.96188c-0.12493,0.29979 -0.29975,0.5621 -0.52488,0.78698c-0.21618,0.21652 -0.47456,0.39138 -0.77431,0.52462c-0.29165,0.12493 -0.60802,0.1874 -0.94956,0.1874h-6.60808c-0.33301,0 -0.64938,-0.06247 -0.94913,-0.1874c-0.29975,-0.13324 -0.5624,-0.3081 -0.7871,-0.52462c-0.2166,-0.22487 -0.39142,-0.48719 -0.52445,-0.78698c-0.12493,-0.29983 -0.18761,-0.62043 -0.18761,-0.96188v-8.38192c0,-0.34145 0.06268,-0.66204 0.18761,-0.96183c0.13303,-0.29983 0.30785,-0.55796 0.52445,-0.77452c0.2247,-0.22483 0.48736,-0.39973 0.7871,-0.52462c0.29975,-0.13324 0.61612,-0.19989 0.94913,-0.19989h6.60808c0.34153,0 0.65791,0.06664 0.94956,0.19989c0.29975,0.12489 0.55814,0.29979 0.77431,0.52462c0.22513,0.21656 0.39995,0.47469 0.52488,0.77452c0.13303,0.29979 0.19997,0.62039 0.19997,0.96183zM291.88279,174.49758v8.38192h6.60808v-8.38192zM316.81639,185.34037h-2.46108v-10.84279h-6.85794v10.84279h-2.44829v-13.30366h2.44829v2.34843c0.01706,-0.32478 0.09167,-0.62874 0.22513,-0.91186c0.13303,-0.29148 0.30785,-0.54134 0.52445,-0.7495c0.22513,-0.21656 0.48309,-0.38311 0.77474,-0.49968c0.29122,-0.12493 0.60376,-0.1874 0.93676,-0.1874h4.39686c0.34153,0 0.66217,0.06664 0.96192,0.19989c0.29975,0.12489 0.55814,0.29979 0.77474,0.52462c0.2247,0.21656 0.39952,0.47469 0.52445,0.77452c0.13346,0.29979 0.19997,0.62039 0.19997,0.96183zM320.9135,174.49758c0,-0.34145 0.06268,-0.66204 0.18761,-0.96183c0.13303,-0.29983 0.30785,-0.55796 0.52445,-0.77452c0.22513,-0.22483 0.48736,-0.39973 0.7871,-0.52462c0.29975,-0.13324 0.61612,-0.19989 0.94956,-0.19989h6.85752v-5.12158h2.46108v18.42524h-2.46108v-2.24849c-0.02473,0.3081 -0.10787,0.59958 -0.24943,0.87438c-0.14156,0.27485 -0.3249,0.51635 -0.55003,0.72455c-0.21618,0.19985 -0.46604,0.35808 -0.74915,0.47465c-0.28312,0.11662 -0.58329,0.1749 -0.89967,0.1749h-4.40923c-0.33343,0 -0.64981,-0.06247 -0.94956,-0.1874c-0.29975,-0.13324 -0.56197,-0.3081 -0.7871,-0.52462c-0.2166,-0.22487 -0.39142,-0.48719 -0.52445,-0.78698c-0.12493,-0.29983 -0.18761,-0.62043 -0.18761,-0.96188zM323.36222,182.8795h6.85752v-8.38192h-6.85752zM344.81014,182.8795v-3.08544h-5.83335c-0.34153,0 -0.66217,-0.06247 -0.96192,-0.1874c-0.29975,-0.13324 -0.5624,-0.3081 -0.7871,-0.52462c-0.2166,-0.22487 -0.39142,-0.48719 -0.52445,-0.78698c-0.12493,-0.29983 -0.18761,-0.62043 -0.18761,-0.96188v-2.83562c0,-0.34145 0.06268,-0.66204 0.18761,-0.96183c0.13303,-0.29983 0.30785,-0.55796 0.52445,-0.77452c0.2247,-0.22483 0.48736,-0.39973 0.7871,-0.52462c0.29975,-0.13324 0.62039,-0.19989 0.96192,-0.19989h7.78234v2.46087h-7.78234v2.83562h5.83335c0.34153,0 0.65791,0.06664 0.94956,0.19989c0.29975,0.12489 0.56197,0.29979 0.78668,0.52462c0.22513,0.21652 0.39995,0.47469 0.52488,0.77448c0.13303,0.29983 0.19997,0.62043 0.19997,0.96188v3.08544c0,0.34145 -0.06694,0.66204 -0.19997,0.96188c-0.12493,0.29979 -0.29975,0.5621 -0.52488,0.78698c-0.2247,0.21652 -0.48693,0.39138 -0.78668,0.52462c-0.29165,0.12493 -0.60802,0.1874 -0.94956,0.1874h-8.29443v-2.46087zM351.11848,181.60534h3.73512v3.73503h-3.73512zM351.11848,172.03671h3.73512v3.73503h-3.73512z"/></g></g></svg>