<svg version="1.1" xmlns="http://www.w3.org/2000/svg" xmlns:xlink="http://www.w3.org/1999/xlink" width="87.05434" height="22.179" viewBox="0,0,87.05434,22.179"><g transform="translate(-196.47283,-168.9105)"><g data-paper-data="{&quot;isPaintingLayer&quot;:true}" fill="#000000" fill-rule="nonzero" stroke="#000000" stroke-width="0.5" stroke-linecap="butt" stroke-linejoin="miter" stroke-miterlimit="10" stroke-dasharray="" stroke-dashoffset="0" style="mix-blend-mode: normal"><path d="M196.72283,172.7761c0,-0.41152 0.07838,-0.79857 0.23516,-1.1611c0.15678,-0.37235 0.37235,-0.69079 0.6467,-0.95536c0.27435,-0.27435 0.5928,-0.48993 0.95536,-0.6467c0.37232,-0.16658 0.76426,-0.24985 1.1758,-0.24985h11.43475c0.41155,0 0.79857,0.08328 1.16112,0.24985c0.37235,0.15678 0.6957,0.37235 0.97004,0.6467c0.27435,0.26456 0.48993,0.58301 0.6467,0.95536c0.15678,0.36253 0.23516,0.74958 0.23516,1.1611v2.71907h-3.01302v-2.71907h-11.43475v15.05038h11.43475v-2.70437h3.01302v2.70437c0,0.41152 -0.07838,0.80348 -0.23516,1.1758c-0.15678,0.36255 -0.37235,0.68099 -0.6467,0.95536c-0.27434,0.27435 -0.59769,0.48993 -0.97004,0.6467c-0.36255,0.15678 -0.74958,0.23516 -1.16112,0.23516h-11.43475c-0.41155,0 -0.80348,-0.07838 -1.1758,-0.23516c-0.36255,-0.15678 -0.68099,-0.37234 -0.95536,-0.6467c-0.27435,-0.27435 -0.48993,-0.5928 -0.6467,-0.95536c-0.15678,-0.37232 -0.23516,-0.76428 -0.23516,-1.1758zM232.55577,190.8395h-2.89546v-12.75756h-8.06908v12.75756h-2.88074v-21.679h2.88074v8.78919c0.01969,-0.38214 0.1079,-0.73979 0.26466,-1.07293c0.15676,-0.34296 0.36236,-0.63691 0.6173,-0.88185c0.26442,-0.25477 0.56821,-0.45073 0.91112,-0.58792c0.34292,-0.14698 0.71038,-0.22045 1.10238,-0.22045h5.17363c0.40173,0 0.77891,0.07838 1.13156,0.23516c0.35288,0.14698 0.65666,0.35274 0.91136,0.6173c0.26442,0.25477 0.47026,0.55851 0.6173,0.91125c0.15676,0.35276 0.23525,0.72999 0.23525,1.13172zM250.61901,184.49011h-10.36184v3.45395h10.36184v2.89544h-10.36184c-0.39177,0 -0.76433,-0.07349 -1.11697,-0.22045c-0.35264,-0.15678 -0.66129,-0.36255 -0.92594,-0.61732c-0.2547,-0.26454 -0.46054,-0.57321 -0.6173,-0.92594c-0.14704,-0.35274 -0.22043,-0.72999 -0.22043,-1.13172v-9.86212c0,-0.40173 0.0734,-0.77896 0.22043,-1.13172c0.15676,-0.35274 0.3626,-0.65647 0.6173,-0.91125c0.26466,-0.26456 0.5733,-0.47032 0.92594,-0.6173c0.35264,-0.15678 0.7252,-0.23516 1.11697,-0.23516h7.46638c0.40173,0 0.77914,0.07838 1.13178,0.23516c0.35264,0.14698 0.65643,0.35274 0.91136,0.6173c0.26442,0.25477 0.47026,0.55851 0.6173,0.91125c0.15676,0.35276 0.23502,0.72999 0.23502,1.13172zM240.25716,178.08194v3.51274h7.46638v-3.51274zM264.90506,187.94404v-3.63031h-6.86367c-0.40173,0 -0.77891,-0.07349 -1.13179,-0.22045c-0.35264,-0.15678 -0.66129,-0.36255 -0.92594,-0.61732c-0.2547,-0.26454 -0.46054,-0.57319 -0.6173,-0.92595c-0.14703,-0.35274 -0.22043,-0.72999 -0.22043,-1.13172v-3.33637c0,-0.40173 0.0734,-0.77896 0.22043,-1.13172c0.15676,-0.35274 0.3626,-0.65647 0.6173,-0.91125c0.26466,-0.26456 0.5733,-0.47031 0.92594,-0.6173c0.35288,-0.15678 0.73006,-0.23516 1.13179,-0.23516h9.15665v2.89541h-9.15665v3.33637h6.86367c0.40173,0 0.77429,0.0784 1.1172,0.23516c0.35264,0.14698 0.66129,0.35276 0.92594,0.61732c0.26442,0.25474 0.47027,0.55851 0.6173,0.91124c0.15676,0.35274 0.23502,0.72999 0.23502,1.13172v3.63031c0,0.40173 -0.07826,0.77898 -0.23502,1.13172c-0.14703,0.35274 -0.35288,0.66141 -0.6173,0.92595c-0.26466,0.25477 -0.5733,0.46054 -0.92594,0.61732c-0.34291,0.14697 -0.71547,0.22045 -1.1172,0.22045h-9.75913v-2.89544zM271.41632,175.1865h3.82118v-4.82085h2.89546v4.82085h5.14421v2.89541h-5.14421v9.86212h5.14421v2.89544h-5.14421c-0.39177,0 -0.7641,-0.07349 -1.11697,-0.22045c-0.35264,-0.15678 -0.66129,-0.36255 -0.92594,-0.61732c-0.26442,-0.26454 -0.47513,-0.57321 -0.63189,-0.92595c-0.14703,-0.35274 -0.22067,-0.72999 -0.22067,-1.13172v-9.86212h-3.82118z"/></g></g></svg>