<svg version="1.1" xmlns="http://www.w3.org/2000/svg" xmlns:xlink="http://www.w3.org/1999/xlink" width="19.80097" height="26.1701" viewBox="0,0,19.80097,26.1701"><g transform="translate(-229.72379,-167.16251)"><g data-paper-data="{&quot;isPaintingLayer&quot;:true}" fill="#ffffff" fill-rule="nonzero" stroke="none" stroke-width="1" stroke-linecap="butt" stroke-linejoin="miter" stroke-miterlimit="10" stroke-dasharray="" stroke-dashoffset="0" style="mix-blend-mode: normal"><path d="M233.46498,170.90371v3.3762h-3.74118v-3.3762c0,-0.511 0.09733,-0.99157 0.29199,-1.44173c0.19467,-0.46232 0.46233,-0.85774 0.80299,-1.18622c0.34066,-0.34067 0.73608,-0.60833 1.18623,-0.803c0.46233,-0.20683 0.94899,-0.31025 1.45997,-0.31025h11.84414c0.511,0 0.9915,0.10342 1.44164,0.31025c0.46241,0.19467 0.85769,0.46233 1.1863,0.803c0.34056,0.32849 0.60832,0.7239 0.80297,1.18622c0.20676,0.45016 0.31022,0.93074 0.31022,1.44173v4.78142c0,0.511 -0.04874,0.96723 -0.14606,1.36873c-0.09733,0.40149 -0.2555,0.76648 -0.47437,1.09498c-0.20691,0.31633 -0.47452,0.60224 -0.80297,0.85774c-0.3286,0.2555 -0.73002,0.49883 -1.20454,0.72999l-12.95733,6.07715v3.77776h12.31851v-3.35796h3.74128v7.09909h-19.80097v-6.88022c0,-0.51085 0.04866,-0.96713 0.146,-1.36869c0.1095,-0.40141 0.26766,-0.76037 0.47449,-1.07671c0.20683,-0.31635 0.4745,-0.60219 0.80299,-0.85769c0.34067,-0.26776 0.73607,-0.511 1.18624,-0.73002l12.97561,-6.09541v-5.42017z"/></g></g></svg>