<svg version="1.1" xmlns="http://www.w3.org/2000/svg" xmlns:xlink="http://www.w3.org/1999/xlink" width="113.49" height="30" viewBox="0,0,113.49,30"><g transform="translate(-183,-165)"><g data-paper-data="{&quot;isPaintingLayer&quot;:true}" fill-rule="nonzero" stroke="none" stroke-width="1" stroke-linecap="butt" stroke-linejoin="miter" stroke-miterlimit="10" stroke-dasharray="" stroke-dashoffset="0" style="mix-blend-mode: normal"><path d="M296.49,168.11807v23.76383c0,1.7221 -0.672,3.1181 -1.5,3.1181h-110.49c-0.82843,0 -1.5,-1.396 -1.5,-3.1181v-23.76383c0,-1.72206 0.67157,-3.11807 1.5,-3.11807h110.49c0.828,0 1.5,1.39601 1.5,3.11807z" fill="#6fe868"/><path d="M184.59837,172.75219c0,-0.34179 0.0651,-0.66325 0.19531,-0.96435c0.13021,-0.30925 0.30925,-0.57373 0.53711,-0.79346c0.22786,-0.22786 0.49234,-0.40691 0.79345,-0.53711c0.30924,-0.13834 0.63476,-0.20752 0.97657,-0.20752h9.49706c0.34179,0 0.66325,0.06918 0.96435,0.20752c0.30925,0.13021 0.57779,0.30925 0.80567,0.53711c0.22787,0.21973 0.4069,0.48421 0.5371,0.79346c0.13021,0.3011 0.19531,0.62256 0.19531,0.96435v2.25829h-2.50244v-2.25829h-9.49706v12.5h9.49706v-2.2461h2.50244v2.2461c0,0.34179 -0.0651,0.66731 -0.19531,0.97656c-0.13021,0.3011 -0.30923,0.56558 -0.5371,0.79346c-0.22787,0.22785 -0.49642,0.4069 -0.80567,0.5371c-0.3011,0.13021 -0.62256,0.19531 -0.96435,0.19531h-9.49706c-0.34181,0 -0.66733,-0.0651 -0.97657,-0.19531c-0.3011,-0.13021 -0.56558,-0.30925 -0.79345,-0.5371c-0.22786,-0.22787 -0.40691,-0.49235 -0.53711,-0.79346c-0.13021,-0.30925 -0.19531,-0.63477 -0.19531,-0.97656zM214.10269,185.34984c0,0.33367 -0.065,0.64698 -0.19521,0.93996c-0.12208,0.29296 -0.29292,0.54931 -0.51271,0.76904c-0.21167,0.21158 -0.46396,0.38248 -0.75687,0.51269c-0.28479,0.12206 -0.59396,0.1831 -0.92771,0.1831h-6.45752c-0.32552,0 -0.63477,-0.06104 -0.92773,-0.1831c-0.29298,-0.13021 -0.54933,-0.3011 -0.76906,-0.51269c-0.21158,-0.21973 -0.38248,-0.47608 -0.51269,-0.76904c-0.12206,-0.29298 -0.1831,-0.60629 -0.1831,-0.93996v-8.19091c0,-0.33365 0.06104,-0.64696 0.1831,-0.93994c0.13021,-0.29296 0.3011,-0.54525 0.51269,-0.75683c0.21973,-0.21973 0.47608,-0.39062 0.76906,-0.51269c0.29296,-0.13021 0.60221,-0.19531 0.92773,-0.19531h6.45752c0.33375,0 0.64292,0.0651 0.92771,0.19531c0.29292,0.12206 0.54521,0.29296 0.75687,0.51269c0.21979,0.21158 0.39062,0.46387 0.51271,0.75683c0.13021,0.29298 0.19521,0.60629 0.19521,0.93994zM205.25267,177.15892v8.19091h6.45752v-8.19091zM229.61789,187.75463h-2.40479v-10.59571h-6.70166v10.59571h-2.3925v-13.00048h2.3925v2.29492c0.01625,-0.3174 0.08958,-0.61442 0.21979,-0.89112c0.13021,-0.28481 0.30104,-0.52896 0.51271,-0.73242c0.21958,-0.21158 0.47187,-0.37435 0.75667,-0.48827c0.285,-0.12208 0.59021,-0.1831 0.91562,-0.1831h4.29687c0.33375,0 0.64708,0.0651 0.94,0.19531c0.29292,0.12206 0.54521,0.29296 0.75687,0.51269c0.21958,0.21158 0.39062,0.46387 0.51271,0.75683c0.13,0.29298 0.19521,0.60629 0.19521,0.93994zM232.86498,174.75415h3.17375v-4.00392h2.40479v4.00392h4.2725v2.40477h-4.2725v8.19091h4.2725v2.40479h-4.2725c-0.32542,0 -0.63479,-0.06104 -0.92771,-0.1831c-0.29292,-0.13021 -0.54937,-0.3011 -0.76896,-0.51269c-0.21979,-0.21973 -0.39479,-0.47608 -0.525,-0.76904c-0.12208,-0.29298 -0.18312,-0.60629 -0.18312,-0.93996v-8.19091h-3.17375zM249.25893,174.75415v13.00048h-2.40479v-13.00048zM246.73206,169.74926h2.64896v2.50244h-2.64896zM264.89622,187.75463h-2.40479v-10.59571h-6.70166v10.59571h-2.3925v-13.00048h2.3925v2.29492c0.01625,-0.3174 0.08958,-0.61442 0.21979,-0.89112c0.13021,-0.28481 0.30104,-0.52896 0.51271,-0.73242c0.21958,-0.21158 0.47187,-0.37435 0.75667,-0.48827c0.285,-0.12208 0.59,-0.1831 0.91562,-0.1831h4.29687c0.33375,0 0.64687,0.0651 0.94,0.19531c0.29292,0.12206 0.54521,0.29296 0.75667,0.51269c0.21979,0.21158 0.39083,0.46387 0.51271,0.75683c0.13021,0.29298 0.19542,0.60629 0.19542,0.93994zM268.90017,174.75415h2.3925v10.59568h6.70166v-10.59568h2.40479v13.00048h-2.40479v-2.19727c-0.02437,0.3011 -0.10583,0.58594 -0.24417,0.8545c-0.13833,0.26856 -0.31729,0.50456 -0.53708,0.708c-0.21167,0.19531 -0.45562,0.34994 -0.7325,0.46387c-0.27667,0.11394 -0.56958,0.1709 -0.87875,0.1709h-4.30917c-0.32542,0 -0.63479,-0.06104 -0.92771,-0.1831c-0.29292,-0.13021 -0.54937,-0.3011 -0.76896,-0.51269c-0.21167,-0.21973 -0.3825,-0.47608 -0.51271,-0.76904c-0.12208,-0.29298 -0.18312,-0.60629 -0.18312,-0.93996zM295.40163,182.48119h-8.60604v2.86865h8.60604v2.40479h-8.60604c-0.32542,0 -0.63479,-0.06104 -0.92771,-0.1831c-0.29292,-0.13021 -0.54937,-0.3011 -0.76896,-0.51269c-0.21167,-0.21973 -0.3825,-0.47608 -0.51271,-0.76904c-0.12208,-0.29298 -0.18312,-0.60629 -0.18312,-0.93996v-8.19091c0,-0.33365 0.06104,-0.64696 0.18312,-0.93994c0.13021,-0.29296 0.30104,-0.54525 0.51271,-0.75683c0.21958,-0.21973 0.47604,-0.39062 0.76896,-0.51269c0.29292,-0.13021 0.60229,-0.19531 0.92771,-0.19531h6.20125c0.33354,0 0.64687,0.0651 0.93979,0.19531c0.29312,0.12206 0.54542,0.29296 0.75687,0.51269c0.21979,0.21158 0.39062,0.46387 0.51271,0.75683c0.13021,0.29298 0.19542,0.60629 0.19542,0.93994zM286.79559,177.15892v2.91748h6.20125v-2.91748z" fill="#000000"/></g></g></svg>