<svg version="1.1" xmlns="http://www.w3.org/2000/svg" xmlns:xlink="http://www.w3.org/1999/xlink" width="26.42374" height="26.68444" viewBox="0,0,26.42374,26.68444"><g transform="translate(-226.78813,-166.65778)"><g data-paper-data="{&quot;isPaintingLayer&quot;:true}" fill="#000000" fill-rule="nonzero" stroke="none" stroke-width="1" stroke-linecap="butt" stroke-linejoin="miter" stroke-miterlimit="10" stroke-dasharray="" stroke-dashoffset="0" style="mix-blend-mode: normal"><path d="M233.93821,175.32483l0.62603,0.15893zM243.38231,188.0541c-5.36202,0 -9.7078,-4.62275 -9.7078,-10.3252h1.28637c0,4.94678 3.76906,8.95704 8.42143,8.95704zM233.67451,177.7289c0,-0.82682 0.09004,-1.63197 0.2637,-2.40407l1.25207,0.31765c-0.15007,0.66857 -0.2294,1.36723 -0.2294,2.08643zM226.78814,183.01681c0,-4.41935 2.61133,-8.1886 6.27748,-9.66231l0.45452,1.2799c-3.18376,1.27921 -5.44563,4.55069 -5.44563,8.38242zM236.49594,193.34222c-5.36202,0 -9.70781,-4.62297 -9.70781,-10.32541h1.28637c0,4.94699 3.77121,8.95727 8.42144,8.95727zM244.53147,188.81319c-1.74517,2.73197 -4.69311,4.52903 -8.03552,4.52903v-1.36814c2.89862,0 5.45635,-1.55673 6.97212,-3.92978zM233.93821,175.32483c0.05146,-0.23144 -0.01286,-0.46061 -0.1222,-0.59651c-0.05146,-0.06408 -0.10291,-0.09485 -0.1415,-0.10739c-0.03216,-0.01049 -0.08147,-0.01574 -0.15437,0.01346l-0.45452,-1.2799c0.69464,-0.27865 1.33783,-0.00045 1.72803,0.48569c0.37519,0.46723 0.54242,1.14422 0.39663,1.80231zM243.38231,186.68594c0.49096,0 0.91976,0.27226 1.15988,0.66629c0.2487,0.40724 0.30229,0.97162 -0.01072,1.46095l-1.0634,-0.76891c0,-0.00227 -0.00214,0.00092 -0.00429,0.00911c-0.00215,0.00821 -0.00214,0.01732 -0.00214,0.02598c0,0.01756 0.00429,0.02234 0,0.01574c-0.00429,-0.00684 -0.01287,-0.01801 -0.02787,-0.02715c-0.01501,-0.00844 -0.03216,-0.01391 -0.05146,-0.01391z"/><path d="M236.02259,178.74789c0,-3.34881 2.5525,-6.06358 5.70114,-6.06358c3.14864,0 5.70115,2.71478 5.70115,6.06358c0,3.34881 -2.5525,6.06358 -5.70115,6.06358c-3.14864,0 -5.70114,-2.71477 -5.70114,-6.06358z"/><path d="M230.24503,177.05344c0.07933,-0.60359 0.61317,-1.02863 1.18561,-0.94403l2.0882,0.30738c0.57458,0.08436 0.97979,0.64758 0.90046,1.2514c-0.07933,0.60359 -0.61317,1.02839 -1.18561,0.94403l-2.0882,-0.30738c-0.57458,-0.08436 -0.97979,-0.64758 -0.90046,-1.2514zM249.02817,179.81892c0.07718,-0.60359 0.61102,-1.02863 1.1856,-0.94403l2.08821,0.30738c0.57244,0.08436 0.97764,0.64758 0.90046,1.2514c-0.07933,0.60359 -0.61317,1.02839 -1.18775,0.94403l-2.08606,-0.30738c-0.57458,-0.08436 -0.97978,-0.64758 -0.90045,-1.2514zM243.29525,166.66851c0.57458,0.08436 0.97978,0.64758 0.90046,1.2514l-0.28514,2.19543c-0.07933,0.6038 -0.61317,1.02863 -1.18775,0.94403c-0.57244,-0.08436 -0.97763,-0.64759 -0.90045,-1.25141l0.28729,-2.19543c0.07718,-0.6038 0.61102,-1.02862 1.1856,-0.94402zM240.72251,186.42775c0.57458,0.08436 0.97979,0.64758 0.90046,1.2514l-0.28514,2.19543c-0.07933,0.6038 -0.61317,1.02863 -1.18561,0.94403c-0.57458,-0.08436 -0.97978,-0.64758 -0.90045,-1.2514l0.28515,-2.19543c0.07933,-0.6038 0.61316,-1.02863 1.1856,-0.94403zM237.46799,171.00144c0.35161,0.47703 0.2487,1.17797 -0.20153,1.54782c-0.45237,0.36964 -1.12129,0.27136 -1.47289,-0.21663l-0.95405,-1.32642c-0.35161,-0.47703 -0.26157,-1.1798 0.20153,-1.54782c0.45237,-0.36985 1.11914,-0.27157 1.47075,0.21663zM248.60796,186.48088c0.35161,0.47703 0.26157,1.17958 -0.20153,1.54782c-0.45237,0.36985 -1.12129,0.27136 -1.47289,-0.21663l-0.95406,-1.32642c-0.35161,-0.47703 -0.26156,-1.17958 0.20153,-1.54782c0.45237,-0.36964 1.12129,-0.27136 1.47075,0.21663zM249.06676,174.2868c-0.45237,0.36985 -1.11914,0.2604 -1.47075,-0.21663c-0.35375,-0.47703 -0.26157,-1.17958 0.20153,-1.54782l1.25636,-1.00058c0.45237,-0.36985 1.12129,-0.27157 1.47289,0.21663c0.35161,0.47703 0.26157,1.17958 -0.20153,1.54782zM234.39143,185.96533c-0.45237,0.36985 -1.11914,0.2604 -1.47075,-0.21663c-0.35375,-0.47703 -0.26157,-1.17958 0.20153,-1.54782l1.25636,-1.00058c0.45237,-0.36985 1.12129,-0.27157 1.47289,0.21663c0.35161,0.47703 0.26156,1.17957 -0.20153,1.54782z"/></g></g></svg>