<svg version="1.1" xmlns="http://www.w3.org/2000/svg" xmlns:xlink="http://www.w3.org/1999/xlink" width="113.49" height="30" viewBox="0,0,113.49,30"><g transform="translate(-183,-165)"><g data-paper-data="{&quot;isPaintingLayer&quot;:true}" fill-rule="nonzero" stroke="none" stroke-width="1" stroke-linecap="butt" stroke-linejoin="miter" stroke-miterlimit="10" stroke-dasharray="" stroke-dashoffset="0" style="mix-blend-mode: normal"><path d="M296.49,168.11807v23.76383c0,1.7221 -0.672,3.1181 -1.5,3.1181h-110.49c-0.82843,0 -1.5,-1.396 -1.5,-3.1181v-23.76383c0,-1.72206 0.67157,-3.11807 1.5,-3.11807h110.49c0.828,0 1.5,1.39601 1.5,3.11807z" fill="#ff7e70"/><path d="M210.7485,169.49512v15.00248h8.9966v2.5024h-11.499v-17.50488zM225.0308,173.99951v13.00049h-2.4048v-13.00049zM222.5039,168.99463h2.6489v2.50244h-2.6489zM229.1689,176.4043c0,-0.3337 0.0611,-0.647 0.1832,-0.9399c0.1302,-0.293 0.3011,-0.54529 0.5126,-0.75688c0.2198,-0.21973 0.4761,-0.39063 0.7691,-0.5127c0.293,-0.1302 0.6022,-0.19531 0.9277,-0.19531h4.3091c0.3174,0 0.6185,0.06104 0.9033,0.18311c0.2849,0.11393 0.5331,0.27669 0.7447,0.48828c0.2197,0.20345 0.3946,0.4476 0.5249,0.7324c0.1383,0.2767 0.2115,0.5738 0.2197,0.8911v-2.29489h2.4048v15.84469c0,0.3337 -0.0651,0.647 -0.1953,0.94c-0.1221,0.2929 -0.293,0.5452 -0.5127,0.7568c-0.2116,0.2197 -0.4639,0.3906 -0.7569,0.5127c-0.2929,0.1302 -0.6063,0.1953 -0.9399,0.1953h-7.5928v-2.4048h7.5928v-3.3447h-6.7017c-0.3255,0 -0.6347,-0.061 -0.9277,-0.1831c-0.293,-0.1302 -0.5493,-0.3011 -0.7691,-0.5127c-0.2115,-0.2197 -0.3824,-0.4761 -0.5126,-0.769c-0.1221,-0.293 -0.1832,-0.6063 -0.1832,-0.94zM238.2632,184.0947v-7.6904h-6.7017v7.6904zM256.1709,187h-2.4048v-10.5957h-6.7016v10.5957h-2.3926v-18.00537h2.3926v7.29977c0.0162,-0.3173 0.0895,-0.6144 0.2197,-0.8911c0.1302,-0.2848 0.3011,-0.52895 0.5127,-0.7324c0.2197,-0.21159 0.472,-0.37435 0.7568,-0.48828c0.2848,-0.12207 0.59,-0.18311 0.9155,-0.18311h4.2969c0.3337,0 0.647,0.06511 0.94,0.19531c0.2929,0.12207 0.5452,0.29297 0.7568,0.5127c0.2197,0.21159 0.3906,0.46388 0.5127,0.75688c0.1302,0.2929 0.1953,0.6062 0.1953,0.9399zM259.418,173.99951h3.1738v-4.0039h2.4048v4.0039h4.2724v2.40479h-4.2724v8.1909h4.2724v2.4048h-4.2724c-0.3255,0 -0.6348,-0.061 -0.9278,-0.1831c-0.2929,-0.1302 -0.5493,-0.3011 -0.769,-0.5127c-0.2197,-0.2197 -0.3947,-0.4761 -0.5249,-0.769c-0.1221,-0.293 -0.1831,-0.6063 -0.1831,-0.94v-8.1909h-3.1738z" fill="#000000"/></g></g></svg>