<svg version="1.1" xmlns="http://www.w3.org/2000/svg" xmlns:xlink="http://www.w3.org/1999/xlink" width="5.33399" height="7.50195" viewBox="0,0,5.33399,7.50195"><g transform="translate(-237.333,-172.74805)"><g data-paper-data="{&quot;isPaintingLayer&quot;:true}" fill="#ffffff" fill-rule="nonzero" stroke="#ffffff" stroke-width="0.5" stroke-linecap="butt" stroke-linejoin="miter" stroke-miterlimit="10" stroke-dasharray="" stroke-dashoffset="0" style="mix-blend-mode: normal"><path d="M237.58301,177.79785h1.00098v1.20117h2.83203v-6.00097h1.00098v6.00097c0,0.13672 -0.02767,0.26693 -0.08301,0.39063c-0.05208,0.12044 -0.1237,0.22624 -0.21484,0.31738c-0.0879,0.09115 -0.19369,0.16276 -0.31739,0.21485c-0.12044,0.05208 -0.24902,0.07812 -0.38574,0.07812h-2.83203c-0.13672,0 -0.26693,-0.02604 -0.39063,-0.07812c-0.12044,-0.05209 -0.22623,-0.1237 -0.31738,-0.21485c-0.08789,-0.09114 -0.1595,-0.19694 -0.21484,-0.31738c-0.05208,-0.1237 -0.07812,-0.25391 -0.07812,-0.39063z"/></g></g></svg>