<svg version="1.1" xmlns="http://www.w3.org/2000/svg" xmlns:xlink="http://www.w3.org/1999/xlink" width="5.78222" height="7.25195" viewBox="0,0,5.78222,7.25195"><g transform="translate(-237.10889,-172.87305)"><g data-paper-data="{&quot;isPaintingLayer&quot;:true}" fill="#ffffff" fill-rule="nonzero" stroke="#ffffff" stroke-width="0.25" stroke-linecap="butt" stroke-linejoin="miter" stroke-miterlimit="10" stroke-dasharray="" stroke-dashoffset="0" style="mix-blend-mode: normal"><path d="M241.79443,176.34766c0.14649,0.04557 0.27995,0.11067 0.4004,0.19531c0.12044,0.08463 0.22298,0.19368 0.30761,0.32715c0.08464,0.13021 0.14974,0.28483 0.19531,0.46386c0.04558,0.17904 0.06836,0.38412 0.06836,0.61524v0.35156c0,1.13281 -0.5664,1.69922 -1.69921,1.69922h-3.83301v-7.00195h3.63281c1.13281,0 1.69922,0.56803 1.69922,1.7041v0.12695c0,0.39388 -0.06348,0.71615 -0.19043,0.9668c-0.1237,0.24739 -0.31738,0.43131 -0.58106,0.55176zM238.21533,176.94824v2.07031h2.82227c0.26367,0 0.4541,-0.06184 0.57129,-0.18554c0.11718,-0.1237 0.17578,-0.31739 0.17578,-0.58106v-0.54199c0,-0.26693 -0.0586,-0.46061 -0.17578,-0.58105c-0.11719,-0.12045 -0.30762,-0.18067 -0.57129,-0.18067zM238.21533,173.97949v1.99219h2.69043c0.24089,-0.00977 0.41341,-0.07487 0.51758,-0.19531c0.10742,-0.1237 0.16113,-0.3125 0.16113,-0.56641v-0.45898c0,-0.26693 -0.05859,-0.46224 -0.17578,-0.58594c-0.11719,-0.1237 -0.30762,-0.18555 -0.57129,-0.18555z"/></g></g></svg>