<svg version="1.1" xmlns="http://www.w3.org/2000/svg" xmlns:xlink="http://www.w3.org/1999/xlink" width="34.85794" height="11.00293" viewBox="0,0,34.85794,11.00293"><g transform="translate(-209.05259,-174.32494)"><g data-paper-data="{&quot;isPaintingLayer&quot;:true}" fill="#87bf3d" fill-rule="nonzero" stroke="#87bf3d" stroke-width="0.5" stroke-linecap="butt" stroke-linejoin="miter" stroke-miterlimit="10" stroke-dasharray="" stroke-dashoffset="0" style="mix-blend-mode: normal"><path d="M209.30259,176.07641c0,-0.20508 0.03906,-0.39795 0.11719,-0.57862c0.07813,-0.18554 0.18555,-0.34424 0.32226,-0.47607c0.13672,-0.13672 0.29541,-0.24414 0.47607,-0.32227c0.18555,-0.08301 0.38086,-0.12451 0.58594,-0.12451h5.69824c0.20508,0 0.39795,0.0415 0.57862,0.12451c0.18554,0.07813 0.34668,0.18555 0.4834,0.32227c0.13671,0.13183 0.24414,0.29053 0.32226,0.47607c0.07813,0.18067 0.11719,0.37354 0.11719,0.57862v1.35498h-1.50147v-1.35498h-5.69824v7.5h5.69824v-1.34766h1.50147v1.34766c0,0.20507 -0.03906,0.40039 -0.11719,0.58596c-0.07812,0.1806 -0.18555,0.3393 -0.32226,0.476c-0.13672,0.1368 -0.29786,0.2442 -0.4834,0.3223c-0.18067,0.0781 -0.37354,0.1172 -0.57862,0.1172h-5.69824c-0.20508,0 -0.40039,-0.0391 -0.58594,-0.1172c-0.18066,-0.0781 -0.33935,-0.1855 -0.47607,-0.3223c-0.13672,-0.1367 -0.24414,-0.2954 -0.32226,-0.476c-0.07812,-0.18557 -0.11719,-0.38089 -0.11719,-0.58596zM227.00523,183.635c0,0.20019 -0.0391,0.38818 -0.1172,0.56397c-0.0732,0.1758 -0.1758,0.3296 -0.3076,0.4614c-0.127,0.127 -0.2783,0.2295 -0.4541,0.3076c-0.1709,0.0733 -0.3565,0.1099 -0.5567,0.1099h-3.8745c-0.1953,0 -0.3808,-0.0366 -0.5566,-0.1099c-0.1758,-0.0781 -0.3296,-0.1806 -0.4614,-0.3076c-0.127,-0.1318 -0.2295,-0.2856 -0.3076,-0.4614c-0.0733,-0.17579 -0.1099,-0.36378 -0.1099,-0.56397v-4.91455c0,-0.2002 0.0366,-0.38819 0.1099,-0.56397c0.0781,-0.17578 0.1806,-0.32715 0.3076,-0.4541c0.1318,-0.13183 0.2856,-0.23437 0.4614,-0.30762c0.1758,-0.07812 0.3613,-0.11718 0.5566,-0.11718h3.8745c0.2002,0 0.3858,0.03906 0.5567,0.11718c0.1758,0.07325 0.3271,0.17579 0.4541,0.30762c0.1318,0.12695 0.2344,0.27832 0.3076,0.4541c0.0781,0.17578 0.1172,0.36377 0.1172,0.56397zM221.69513,178.72045v4.91455h3.8745v-4.91455zM230.85043,178.72045v6.35742h-1.4355v-7.80029h1.4355v1.37695c0.0098,-0.19043 0.0537,-0.36865 0.1318,-0.53467c0.0782,-0.1709 0.1807,-0.31738 0.3077,-0.43945c0.1318,-0.12695 0.2832,-0.22461 0.4541,-0.29297c0.1709,-0.07324 0.354,-0.10986 0.5493,-0.10986h1.5307c0.2002,0 0.3858,0.03906 0.5567,0.11718c0.1758,0.07325 0.3296,0.17579 0.4614,0.30762c0.1318,0.12695 0.2344,0.27832 0.3076,0.4541c0.0781,0.17578 0.1172,0.36377 0.1172,0.56397v1.31836h-1.4429v-1.31836zM243.66053,181.91381h-5.1636v1.72119h5.1636v1.44287h-5.1636c-0.1953,0 -0.3809,-0.0366 -0.5566,-0.1099c-0.1758,-0.0781 -0.3296,-0.1806 -0.4615,-0.3076c-0.1269,-0.1318 -0.2295,-0.2856 -0.3076,-0.4614c-0.0732,-0.17579 -0.1099,-0.36378 -0.1099,-0.56397v-4.91455c0,-0.2002 0.0367,-0.38819 0.1099,-0.56397c0.0781,-0.17578 0.1807,-0.32715 0.3076,-0.4541c0.1319,-0.13183 0.2857,-0.23437 0.4615,-0.30762c0.1757,-0.07812 0.3613,-0.11718 0.5566,-0.11718h3.7207c0.2002,0 0.3882,0.03906 0.564,0.11718c0.1757,0.07325 0.3271,0.17579 0.4541,0.30762c0.1318,0.12695 0.2343,0.27832 0.3076,0.4541c0.0781,0.17578 0.1172,0.36377 0.1172,0.56397zM238.49693,178.72045v1.75049h3.7207v-1.75049z"/></g></g></svg>