<svg version="1.1" xmlns="http://www.w3.org/2000/svg" xmlns:xlink="http://www.w3.org/1999/xlink" width="3.84743" height="6.51518" viewBox="0,0,3.84743,6.51518"><g transform="translate(-238.07628,-176.74241)"><g data-paper-data="{&quot;isPaintingLayer&quot;:true}" fill="#000000" fill-rule="nonzero" stroke="none" stroke-width="1" stroke-linecap="butt" stroke-linejoin="miter" stroke-miterlimit="10" stroke-dasharray="" stroke-dashoffset="0" style="mix-blend-mode: normal"><path d="M241.60314,176.74241c0.17722,0 0.32058,0.14587 0.32058,0.32577v1.62878h-0.00299l0.00299,0.00329l-1.28231,1.29978l1.28132,1.30205c0.0005,0.00056 0.0005,0.00142 0,0.00192l-0.0005,0.00066c-0.0005,0.00061 0,0.00167 0.0005,0.00167c0.0005,0 0.001,0.00041 0.001,0.00091v1.62459c0,0.17995 -0.14337,0.32577 -0.32058,0.32577h-3.20628c-0.17722,0 -0.32058,-0.14582 -0.32058,-0.32577v-1.62459c0,-0.00051 0.0005,-0.00091 0.001,-0.00091c0.001,0 0.001,-0.00106 0.0005,-0.00167l-0.0005,-0.00066c-0.0005,-0.00051 -0.0005,-0.00137 0,-0.00192l1.28132,-1.30205l-1.28231,-1.29978l0.00299,-0.00329c-0.0015,0 -0.00299,-0.00147 -0.00299,-0.00324v-1.62555c0,-0.1799 0.14337,-0.32577 0.32058,-0.32577zM240.00024,180.1629l-1.28281,1.30307v0.81439c0,0.1799 0.14386,0.32577 0.32058,0.32577h1.92397c0.17722,0 0.32058,-0.14587 0.32058,-0.32577v-0.81439zM241.28255,178.53411v-0.81439c0,-0.1799 -0.14337,-0.32577 -0.32058,-0.32577h-1.92397c-0.17672,0 -0.32058,0.14587 -0.32058,0.32577v0.81439l1.28281,1.30302z"/><path d="M238.53972,178.56934c0,0 0.84575,0.50567 1.43862,0.49247c0.66704,-0.01482 1.56356,-0.69898 1.56356,-0.69898l-1.21959,1.68391l-0.65659,-0.15886z"/><path d="M239.8748,181.69986c0.06422,-0.08183 0.18667,-0.08183 0.25039,0l0.80941,1.03187h-1.86921z"/><path d="M239.93653,180.09532h0.10454v1.59985h-0.10454z"/></g></g></svg>