<svg version="1.1" xmlns="http://www.w3.org/2000/svg" xmlns:xlink="http://www.w3.org/1999/xlink" width="235.74607" height="29.83998" viewBox="0,0,235.74607,29.83998"><g transform="translate(-122.21048,-165.09808)"><g data-paper-data="{&quot;isPaintingLayer&quot;:true}" fill="#000000" fill-rule="nonzero" stroke="none" stroke-width="1" stroke-linecap="butt" stroke-linejoin="miter" stroke-miterlimit="10" stroke-dasharray="" stroke-dashoffset="0" style="mix-blend-mode: normal"><path d="M126.35772,194.93806h-4.14725v-29.01053h4.14725l17.4388,22.49626v-22.49626h4.14712v29.01053h-4.14712l-17.4388,-22.49632zM173.6161,190.95275c0,0.55289 -0.10772,1.07217 -0.32363,1.55762c-0.20233,0.48545 -0.48545,0.91035 -0.84959,1.2745c-0.35079,0.35079 -0.76879,0.63391 -1.25447,0.84982c-0.47187,0.20233 -0.98447,0.30337 -1.53736,0.30337h-10.7019c-0.53954,0 -1.05214,-0.10105 -1.53759,-0.30337c-0.48545,-0.21591 -0.91035,-0.49903 -1.2745,-0.84982c-0.35079,-0.36414 -0.63391,-0.78905 -0.84982,-1.2745c-0.20233,-0.48545 -0.30337,-1.00473 -0.30337,-1.55762v-13.57478c0,-0.55296 0.10105,-1.07222 0.30337,-1.55773c0.21591,-0.48554 0.49903,-0.90363 0.84982,-1.25431c0.36414,-0.36414 0.78905,-0.64738 1.2745,-0.84968c0.48545,-0.21579 0.99805,-0.32368 1.53759,-0.32368h10.7019c0.55289,0 1.06549,0.10788 1.53736,0.32368c0.48568,0.2023 0.90368,0.48554 1.25447,0.84968c0.36414,0.35068 0.64726,0.76877 0.84959,1.25431c0.21591,0.48551 0.32363,1.00477 0.32363,1.55773zM158.94915,177.37798v13.57478h10.7019v-13.57478zM216.01928,176.28553c0,4.04612 -1.72634,6.35239 -5.17901,6.91883l5.46236,11.7337h-4.59251l-5.38133,-11.59207h-9.08329v11.59207h-4.14735v-29.01053h15.88091c4.69356,0 7.04023,2.35349 7.04023,7.06045zM197.24549,179.19873h11.51098c1.10601,0 1.90173,-0.24277 2.38718,-0.72831c0.48568,-0.48551 0.72828,-1.28126 0.72828,-2.3872v-2.89295c0,-1.10594 -0.24261,-1.90166 -0.72828,-2.3872c-0.48545,-0.48554 -1.28117,-0.72831 -2.38718,-0.72831h-11.51098zM240.78138,186.19847h-14.26253v4.75428h14.26253v3.9853h-14.26253c-0.53931,0 -1.05191,-0.10105 -1.53736,-0.30337c-0.48568,-0.21591 -0.91035,-0.49903 -1.2745,-0.84982c-0.35079,-0.36414 -0.63391,-0.78905 -0.84982,-1.2745c-0.20233,-0.48545 -0.30337,-1.00473 -0.30337,-1.55762v-13.57478c0,-0.55296 0.10105,-1.07222 0.30337,-1.55773c0.21591,-0.48554 0.49903,-0.90363 0.84982,-1.25431c0.36414,-0.36414 0.78882,-0.64738 1.2745,-0.84968c0.48545,-0.21579 0.99805,-0.32368 1.53736,-0.32368h10.27722c0.55289,0 1.07217,0.10788 1.55762,0.32368c0.48568,0.2023 0.90368,0.48554 1.25447,0.84968c0.36414,0.35068 0.64726,0.76877 0.84959,1.25431c0.21568,0.48551 0.32363,1.00477 0.32363,1.55773zM226.51886,177.37798v4.8351h10.27722v-4.8351zM260.4455,190.95275v-4.99703h-9.44766c-0.55289,0 -1.07217,-0.10116 -1.55785,-0.30347c-0.48545,-0.21579 -0.91035,-0.49903 -1.2745,-0.84968c-0.35056,-0.36414 -0.63391,-0.78898 -0.84959,-1.27452c-0.20233,-0.48554 -0.30337,-1.00477 -0.30337,-1.55775v-4.59233c0,-0.55296 0.10105,-1.07222 0.30337,-1.55773c0.21568,-0.48554 0.49903,-0.90363 0.84959,-1.25431c0.36414,-0.36414 0.78905,-0.64738 1.2745,-0.84968c0.48568,-0.21579 1.00496,-0.32368 1.55785,-0.32368h12.60363v3.9854h-12.60363v4.59233h9.44766c0.55289,0 1.06549,0.10791 1.53759,0.3237c0.48545,0.2023 0.91035,0.48551 1.2745,0.84968c0.36414,0.35065 0.64726,0.76875 0.84959,1.25429c0.21591,0.48554 0.32363,1.00477 0.32363,1.55775v4.99703c0,0.55289 -0.10772,1.07217 -0.32363,1.55762c-0.20233,0.48545 -0.48545,0.91035 -0.84959,1.2745c-0.36414,0.35079 -0.78905,0.63391 -1.2745,0.84982c-0.4721,0.20233 -0.9847,0.30337 -1.53759,0.30337h-13.43297v-3.9853zM270.66196,173.39258h3.96505v17.56017h11.10655v-17.56017h3.98553v21.54548h-3.98553v-3.64142c-0.04051,0.49903 -0.1754,0.97089 -0.40465,1.41606c-0.22926,0.44516 -0.52596,0.83624 -0.8901,1.17345c-0.35056,0.32363 -0.75521,0.57982 -1.21373,0.76879c-0.45851,0.18875 -0.94419,0.28312 -1.45657,0.28312h-7.14151c-0.53954,0 -1.05191,-0.10105 -1.53736,-0.30337c-0.48568,-0.21591 -0.91058,-0.49903 -1.27473,-0.84982c-0.35056,-0.36414 -0.63368,-0.78905 -0.84959,-1.2745c-0.20233,-0.48545 -0.30337,-1.00473 -0.30337,-1.55762zM300.31972,165.09808v29.83998h-3.96505v-29.83998zM305.70105,173.39258h5.26003v-6.63561h3.9853v6.63561h7.08074v3.9854h-7.08074v13.57478h7.08074v3.9853h-7.08074c-0.53954,0 -1.05191,-0.10105 -1.53736,-0.30337c-0.48568,-0.21591 -0.91058,-0.49903 -1.27473,-0.84982c-0.36414,-0.36414 -0.65394,-0.78905 -0.86984,-1.2745c-0.20233,-0.48545 -0.30337,-1.00473 -0.30337,-1.55762v-13.57478h-5.26003zM341.69124,190.95275v-4.99703h-9.44766c-0.55312,0 -1.0724,-0.10116 -1.55785,-0.30347c-0.48545,-0.21579 -0.91035,-0.49903 -1.2745,-0.84968c-0.35056,-0.36414 -0.63391,-0.78898 -0.84959,-1.27452c-0.20233,-0.48554 -0.3036,-1.00477 -0.3036,-1.55775v-4.59233c0,-0.55296 0.10128,-1.07222 0.3036,-1.55773c0.21568,-0.48554 0.49903,-0.90363 0.84959,-1.25431c0.36414,-0.36414 0.78905,-0.64738 1.2745,-0.84968c0.48545,-0.21579 1.00473,-0.32368 1.55785,-0.32368h12.60363v3.9854h-12.60363v4.59233h9.44766c0.55289,0 1.06549,0.10791 1.53736,0.3237c0.48568,0.2023 0.91035,0.48551 1.2745,0.84968c0.36414,0.35065 0.64749,0.76875 0.84982,1.25429c0.21568,0.48554 0.32363,1.00477 0.32363,1.55775v4.99703c0,0.55289 -0.10795,1.07217 -0.32363,1.55762c-0.20233,0.48545 -0.48568,0.91035 -0.84982,1.2745c-0.36414,0.35079 -0.78882,0.63391 -1.2745,0.84982c-0.47187,0.20233 -0.98447,0.30337 -1.53736,0.30337h-13.4332v-3.9853zM351.90747,188.88921h6.04908v6.04885h-6.04908z"/></g></g></svg>