<svg version="1.1" xmlns="http://www.w3.org/2000/svg" xmlns:xlink="http://www.w3.org/1999/xlink" width="113.49" height="28.40521" viewBox="0,0,113.49,28.40521"><g transform="translate(-183.255,-165.7974)"><g data-paper-data="{&quot;isPaintingLayer&quot;:true}" fill-rule="nonzero" stroke="none" stroke-width="1" stroke-linecap="butt" stroke-linejoin="miter" stroke-miterlimit="10" stroke-dasharray="" stroke-dashoffset="0" style="mix-blend-mode: normal"><path d="M296.745,168.74971v22.50059c0,1.63047 -0.672,2.95231 -1.5,2.95231h-110.49c-0.82843,0 -1.5,-1.32186 -1.5,-2.95231v-22.50059c0,-1.63053 0.67157,-2.95231 1.5,-2.95231h110.49c0.828,0 1.5,1.3218 1.5,2.95231z" fill="#ff5959"/><path d="M201.97098,174.38025c0,-0.32016 0.06112,-0.62124 0.18311,-0.90327c0.12176,-0.28966 0.28966,-0.53739 0.50298,-0.74319c0.21356,-0.21344 0.46107,-0.38113 0.74324,-0.50311c0.28966,-0.12956 0.59455,-0.19436 0.91465,-0.19436h8.89547c0.32034,0 0.62124,0.06479 0.90341,0.19436c0.28966,0.12197 0.54116,0.28966 0.75448,0.50311c0.21356,0.2058 0.38122,0.45353 0.50323,0.74319c0.122,0.28202 0.18288,0.58312 0.18288,0.90327v2.11526h-2.34399v-2.11526h-8.89547v11.70827h8.89547v-2.10381h2.34399v2.10381c0,0.32016 -0.06089,0.62506 -0.18288,0.91471c-0.122,0.28202 -0.28966,0.52978 -0.50323,0.74319c-0.21333,0.21344 -0.46482,0.38113 -0.75448,0.50311c-0.28217,0.12195 -0.58308,0.18293 -0.90341,0.18293h-8.89547c-0.3201,0 -0.62499,-0.06098 -0.91465,-0.18293c-0.28217,-0.12197 -0.52968,-0.28966 -0.74324,-0.50311c-0.21333,-0.21342 -0.38122,-0.46117 -0.50298,-0.74319c-0.122,-0.28966 -0.18311,-0.59457 -0.18311,-0.91471zM219.07605,183.11572c0,-0.31251 0.05714,-0.60218 0.17164,-0.86896c0.122,-0.27441 0.28194,-0.51453 0.48004,-0.72034c0.20583,-0.2058 0.44609,-0.36589 0.72052,-0.48023c0.2742,-0.12195 0.56387,-0.18293 0.86898,-0.18293h5.80823v-2.35538h-7.35185v-2.25249h7.35185c0.31261,0 0.60602,0.061 0.88046,0.18295c0.27445,0.11434 0.51072,0.27441 0.70882,0.48023c0.20583,0.19817 0.366,0.43447 0.48027,0.70889c0.122,0.27441 0.18288,0.5679 0.18288,0.88041v9.92458h-2.25243v-2.0581c-0.02271,0.28206 -0.09905,0.54884 -0.22855,0.80037c-0.12973,0.25154 -0.29739,0.4726 -0.50323,0.66316c-0.19811,0.18295 -0.42689,0.32779 -0.68587,0.4345c-0.25922,0.10671 -0.53366,0.16007 -0.82333,0.16007h-3.56727c-0.30512,0 -0.59478,-0.05716 -0.86898,-0.1715c-0.27445,-0.12197 -0.5147,-0.28202 -0.72052,-0.48023c-0.19811,-0.2058 -0.35804,-0.44592 -0.48004,-0.72034c-0.11451,-0.27439 -0.17164,-0.56788 -0.17164,-0.88039zM221.31724,186.18h5.80823v-3.06429h-5.80823zM243.91045,188.43246h-2.25243v-9.92458h-6.27726v9.92458h-2.24096v-12.17706h2.24096v2.14956c0.01522,-0.29727 0.08383,-0.57549 0.20583,-0.83466c0.122,-0.26678 0.28194,-0.49547 0.48027,-0.68603c0.20583,-0.19819 0.44211,-0.35064 0.70882,-0.45735c0.26695,-0.11434 0.55263,-0.17152 0.85751,-0.17152h4.02483c0.31238,0 0.60602,0.061 0.88046,0.18295c0.2742,0.11434 0.51072,0.27441 0.70882,0.48023c0.20583,0.19817 0.36577,0.43447 0.48027,0.70889c0.122,0.27441 0.18288,0.5679 0.18288,0.88041zM249.90179,178.50789v7.67212h5.80847v-2.0581h2.25243v2.0581c0,0.31251 -0.06112,0.606 -0.18311,0.88039c-0.11427,0.27441 -0.2742,0.51453 -0.48004,0.72034c-0.19834,0.19819 -0.43461,0.35824 -0.70905,0.48023c-0.27445,0.11434 -0.56785,0.1715 -0.88022,0.1715h-5.80847c-0.30488,0 -0.59455,-0.05716 -0.86898,-0.1715c-0.27445,-0.12197 -0.51446,-0.28202 -0.72029,-0.48023c-0.19834,-0.2058 -0.35828,-0.44592 -0.48027,-0.72034c-0.11427,-0.27439 -0.17141,-0.56788 -0.17141,-0.88039v-7.67212c0,-0.31251 0.05714,-0.606 0.17141,-0.88041c0.122,-0.27441 0.28194,-0.51072 0.48027,-0.70889c0.20583,-0.2058 0.44585,-0.36589 0.72029,-0.48023c0.27445,-0.12195 0.5641,-0.18295 0.86898,-0.18295h5.80847c0.31238,0 0.60579,0.061 0.88022,0.18295c0.27445,0.11434 0.51072,0.27441 0.70905,0.48023c0.20583,0.19817 0.36577,0.43447 0.48004,0.70889c0.122,0.27441 0.18311,0.5679 0.18311,0.88041v2.05808h-2.25243v-2.05808zM272.0262,183.49302h-8.06091v2.68697h8.06091v2.25245h-8.06091c-0.30488,0 -0.59455,-0.05716 -0.86875,-0.1715c-0.27445,-0.12197 -0.5147,-0.28202 -0.72052,-0.48023c-0.19811,-0.2058 -0.35828,-0.44592 -0.48004,-0.72034c-0.11451,-0.27439 -0.17164,-0.56788 -0.17164,-0.88039v-7.67212c0,-0.31251 0.05714,-0.606 0.17164,-0.88041c0.12176,-0.27441 0.28194,-0.51072 0.48004,-0.70889c0.20583,-0.2058 0.44609,-0.36589 0.72052,-0.48023c0.2742,-0.12195 0.56387,-0.18295 0.86875,-0.18295h5.80847c0.31261,0 0.60602,0.061 0.88046,0.18295c0.27445,0.11434 0.51072,0.27441 0.70882,0.48023c0.20583,0.19817 0.366,0.43447 0.48027,0.70889c0.122,0.27441 0.18288,0.5679 0.18288,0.88041zM263.9653,178.50789v2.73268h5.80847v-2.73268zM278.02902,171.56753v16.86494h-2.24096v-16.86494z" fill="#000000"/></g></g></svg>