<svg xmlns="http://www.w3.org/2000/svg" fill="none" viewBox="0 0 363 25" height="25" width="363">
<mask fill="black" height="25" width="363" y="0" x="0" maskUnits="userSpaceOnUse" id="path-1-outside-1_216_6">
<rect height="25" width="363" fill="white"></rect>
<path d="M15.4688 12.3125C15.9375 12.4583 16.3646 12.6667 16.75 12.9375C17.1354 13.2083 17.4635 13.5573 17.7344 13.9844C18.0052 14.401 18.2135 14.8958 18.3594 15.4688C18.5052 16.0417 18.5781 16.6979 18.5781 17.4375V18.5625C18.5781 22.1875 16.7656 24 13.1406 24H0.875V1.59375H12.5C16.125 1.59375 17.9375 3.41146 17.9375 7.04688V7.45312C17.9375 8.71354 17.7344 9.74479 17.3281 10.5469C16.9323 11.3385 16.3125 11.9271 15.4688 12.3125ZM4.01562 14.2344V20.8594H13.0469C13.8906 20.8594 14.5 20.6615 14.875 20.2656C15.25 19.8698 15.4375 19.25 15.4375 18.4062V16.6719C15.4375 15.8177 15.25 15.1979 14.875 14.8125C14.5 14.4271 13.8906 14.2344 13.0469 14.2344H4.01562ZM4.01562 4.73438V11.1094H12.625C13.3958 11.0781 13.9479 10.8698 14.2812 10.4844C14.625 10.0885 14.7969 9.48438 14.7969 8.67188V7.20312C14.7969 6.34896 14.6094 5.72396 14.2344 5.32812C13.8594 4.93229 13.25 4.73438 12.4062 4.73438H4.01562ZM23.375 1.59375H26.5781V20.7969H39.375V1.59375H42.5781V20.7969C42.5781 21.2344 42.4948 21.651 42.3281 22.0469C42.1615 22.4323 41.9323 22.7708 41.6406 23.0625C41.349 23.3542 41.0052 23.5833 40.6094 23.75C40.224 23.9167 39.8125 24 39.375 24H26.5781C26.1406 24 25.724 23.9167 25.3281 23.75C24.9427 23.5833 24.6042 23.3542 24.3125 23.0625C24.0208 22.7708 23.7917 22.4323 23.625 22.0469C23.4583 21.651 23.375 21.2344 23.375 20.7969V1.59375ZM66.0469 9.59375C66.0469 12.7188 64.7135 14.5 62.0469 14.9375L66.2656 24H62.7188L58.5625 15.0469H51.5469V24H48.3438V1.59375H60.6094C64.2344 1.59375 66.0469 3.41146 66.0469 7.04688V9.59375ZM51.5469 11.8438H60.4375C61.2917 11.8438 61.9062 11.6562 62.2812 11.2812C62.6562 10.9062 62.8438 10.2917 62.8438 9.4375V7.20312C62.8438 6.34896 62.6562 5.73438 62.2812 5.35938C61.9062 4.98438 61.2917 4.79688 60.4375 4.79688H51.5469V11.8438ZM74.6094 24H71.4062V1.59375H74.6094L88.0781 18.9688V1.59375H91.2812V24H88.0781L74.6094 6.625V24ZM106.625 4.79688C106.625 4.35938 106.708 3.94792 106.875 3.5625C107.042 3.16667 107.271 2.82812 107.562 2.54688C107.854 2.25521 108.193 2.02604 108.578 1.85938C108.974 1.68229 109.391 1.59375 109.828 1.59375H121.984C122.422 1.59375 122.833 1.68229 123.219 1.85938C123.615 2.02604 123.958 2.25521 124.25 2.54688C124.542 2.82812 124.771 3.16667 124.938 3.5625C125.104 3.94792 125.188 4.35938 125.188 4.79688V7.6875H121.984V4.79688H109.828V20.7969H121.984V15.3594H115.906V12.1562H125.188V20.7969C125.188 21.2344 125.104 21.651 124.938 22.0469C124.771 22.4323 124.542 22.7708 124.25 23.0625C123.958 23.3542 123.615 23.5833 123.219 23.75C122.833 23.9167 122.422 24 121.984 24H109.828C109.391 24 108.974 23.9167 108.578 23.75C108.193 23.5833 107.854 23.3542 107.562 23.0625C107.271 22.7708 107.042 22.4323 106.875 22.0469C106.708 21.651 106.625 21.2344 106.625 20.7969V4.79688ZM150.141 20.7969C150.141 21.2344 150.057 21.651 149.891 22.0469C149.724 22.4323 149.495 22.7708 149.203 23.0625C148.911 23.3542 148.568 23.5833 148.172 23.75C147.786 23.9167 147.375 24 146.938 24H134.141C133.703 24 133.286 23.9167 132.891 23.75C132.505 23.5833 132.167 23.3542 131.875 23.0625C131.583 22.7708 131.354 22.4323 131.188 22.0469C131.021 21.651 130.938 21.2344 130.938 20.7969V4.79688C130.938 4.35938 131.021 3.94792 131.188 3.5625C131.354 3.16667 131.583 2.82812 131.875 2.54688C132.167 2.25521 132.505 2.02604 132.891 1.85938C133.286 1.68229 133.703 1.59375 134.141 1.59375H146.938C147.375 1.59375 147.786 1.68229 148.172 1.85938C148.568 2.02604 148.911 2.25521 149.203 2.54688C149.495 2.82812 149.724 3.16667 149.891 3.5625C150.057 3.94792 150.141 4.35938 150.141 4.79688V20.7969ZM134.141 4.79688V20.7969H146.938V4.79688H134.141ZM165.828 1.59375L174.469 24H171.266L169.281 18.8438H159.172L157.188 24H153.984L162.625 1.59375H165.828ZM160.391 15.6406H168.047L164.234 5.76562L160.391 15.6406ZM181.516 1.59375V20.7969H193.031V24H178.312V1.59375H181.516ZM224.172 9.59375C224.172 12.7188 222.839 14.5 220.172 14.9375L224.391 24H220.844L216.688 15.0469H209.672V24H206.469V1.59375H218.734C222.359 1.59375 224.172 3.41146 224.172 7.04688V9.59375ZM209.672 11.8438H218.562C219.417 11.8438 220.031 11.6562 220.406 11.2812C220.781 10.9062 220.969 10.2917 220.969 9.4375V7.20312C220.969 6.34896 220.781 5.73438 220.406 5.35938C220.031 4.98438 219.417 4.79688 218.562 4.79688H209.672V11.8438ZM229.531 1.59375H245.859V4.79688H232.734V11.2031H243.938V14.4062H232.734V20.7969H245.859V24H229.531V1.59375ZM260.578 1.59375L269.219 24H266.016L264.031 18.8438H253.922L251.938 24H248.734L257.375 1.59375H260.578ZM255.141 15.6406H262.797L258.984 5.76562L255.141 15.6406ZM273.062 4.79688C273.062 4.35938 273.146 3.94792 273.312 3.5625C273.479 3.16667 273.708 2.82812 274 2.54688C274.292 2.25521 274.63 2.02604 275.016 1.85938C275.411 1.68229 275.828 1.59375 276.266 1.59375H288.422C288.859 1.59375 289.271 1.68229 289.656 1.85938C290.052 2.02604 290.396 2.25521 290.688 2.54688C290.979 2.82812 291.208 3.16667 291.375 3.5625C291.542 3.94792 291.625 4.35938 291.625 4.79688V7.6875H288.422V4.79688H276.266V20.7969H288.422V17.9219H291.625V20.7969C291.625 21.2344 291.542 21.651 291.375 22.0469C291.208 22.4323 290.979 22.7708 290.688 23.0625C290.396 23.3542 290.052 23.5833 289.656 23.75C289.271 23.9167 288.859 24 288.422 24H276.266C275.828 24 275.411 23.9167 275.016 23.75C274.63 23.5833 274.292 23.3542 274 23.0625C273.708 22.7708 273.479 22.4323 273.312 22.0469C273.146 21.651 273.062 21.2344 273.062 20.7969V4.79688ZM315.984 1.59375V24H312.781V14.4062H299.953V24H296.75V1.59375H299.953V11.2031H312.781V1.59375H315.984ZM321.75 1.59375H338.078V4.79688H324.953V11.2031H336.156V14.4062H324.953V20.7969H338.078V24H321.75V1.59375ZM354.266 20.7969C355.755 20.7969 356.901 20.3958 357.703 19.5938C358.505 18.7917 358.906 17.6458 358.906 16.1562V9.4375C358.906 8.70833 358.802 8.05729 358.594 7.48438C358.385 6.91146 358.078 6.42708 357.672 6.03125C357.276 5.625 356.792 5.31771 356.219 5.10938C355.646 4.90104 354.995 4.79688 354.266 4.79688H346.078V20.7969H354.266ZM342.875 24V1.59375H354.266C355.464 1.59375 356.542 1.78125 357.5 2.15625C358.469 2.52083 359.292 3.04688 359.969 3.73438C360.656 4.41146 361.182 5.23438 361.547 6.20312C361.922 7.17188 362.109 8.25 362.109 9.4375V16.1562C362.109 17.3438 361.922 18.4219 361.547 19.3906C361.182 20.3594 360.656 21.1875 359.969 21.875C359.292 22.5521 358.469 23.0781 357.5 23.4531C356.542 23.8177 355.464 24 354.266 24H342.875Z"></path>
</mask>
<path fill="#FF2424" d="M15.4688 12.3125C15.9375 12.4583 16.3646 12.6667 16.75 12.9375C17.1354 13.2083 17.4635 13.5573 17.7344 13.9844C18.0052 14.401 18.2135 14.8958 18.3594 15.4688C18.5052 16.0417 18.5781 16.6979 18.5781 17.4375V18.5625C18.5781 22.1875 16.7656 24 13.1406 24H0.875V1.59375H12.5C16.125 1.59375 17.9375 3.41146 17.9375 7.04688V7.45312C17.9375 8.71354 17.7344 9.74479 17.3281 10.5469C16.9323 11.3385 16.3125 11.9271 15.4688 12.3125ZM4.01562 14.2344V20.8594H13.0469C13.8906 20.8594 14.5 20.6615 14.875 20.2656C15.25 19.8698 15.4375 19.25 15.4375 18.4062V16.6719C15.4375 15.8177 15.25 15.1979 14.875 14.8125C14.5 14.4271 13.8906 14.2344 13.0469 14.2344H4.01562ZM4.01562 4.73438V11.1094H12.625C13.3958 11.0781 13.9479 10.8698 14.2812 10.4844C14.625 10.0885 14.7969 9.48438 14.7969 8.67188V7.20312C14.7969 6.34896 14.6094 5.72396 14.2344 5.32812C13.8594 4.93229 13.25 4.73438 12.4062 4.73438H4.01562ZM23.375 1.59375H26.5781V20.7969H39.375V1.59375H42.5781V20.7969C42.5781 21.2344 42.4948 21.651 42.3281 22.0469C42.1615 22.4323 41.9323 22.7708 41.6406 23.0625C41.349 23.3542 41.0052 23.5833 40.6094 23.75C40.224 23.9167 39.8125 24 39.375 24H26.5781C26.1406 24 25.724 23.9167 25.3281 23.75C24.9427 23.5833 24.6042 23.3542 24.3125 23.0625C24.0208 22.7708 23.7917 22.4323 23.625 22.0469C23.4583 21.651 23.375 21.2344 23.375 20.7969V1.59375ZM66.0469 9.59375C66.0469 12.7188 64.7135 14.5 62.0469 14.9375L66.2656 24H62.7188L58.5625 15.0469H51.5469V24H48.3438V1.59375H60.6094C64.2344 1.59375 66.0469 3.41146 66.0469 7.04688V9.59375ZM51.5469 11.8438H60.4375C61.2917 11.8438 61.9062 11.6562 62.2812 11.2812C62.6562 10.9062 62.8438 10.2917 62.8438 9.4375V7.20312C62.8438 6.34896 62.6562 5.73438 62.2812 5.35938C61.9062 4.98438 61.2917 4.79688 60.4375 4.79688H51.5469V11.8438ZM74.6094 24H71.4062V1.59375H74.6094L88.0781 18.9688V1.59375H91.2812V24H88.0781L74.6094 6.625V24ZM106.625 4.79688C106.625 4.35938 106.708 3.94792 106.875 3.5625C107.042 3.16667 107.271 2.82812 107.562 2.54688C107.854 2.25521 108.193 2.02604 108.578 1.85938C108.974 1.68229 109.391 1.59375 109.828 1.59375H121.984C122.422 1.59375 122.833 1.68229 123.219 1.85938C123.615 2.02604 123.958 2.25521 124.25 2.54688C124.542 2.82812 124.771 3.16667 124.938 3.5625C125.104 3.94792 125.188 4.35938 125.188 4.79688V7.6875H121.984V4.79688H109.828V20.7969H121.984V15.3594H115.906V12.1562H125.188V20.7969C125.188 21.2344 125.104 21.651 124.938 22.0469C124.771 22.4323 124.542 22.7708 124.25 23.0625C123.958 23.3542 123.615 23.5833 123.219 23.75C122.833 23.9167 122.422 24 121.984 24H109.828C109.391 24 108.974 23.9167 108.578 23.75C108.193 23.5833 107.854 23.3542 107.562 23.0625C107.271 22.7708 107.042 22.4323 106.875 22.0469C106.708 21.651 106.625 21.2344 106.625 20.7969V4.79688ZM150.141 20.7969C150.141 21.2344 150.057 21.651 149.891 22.0469C149.724 22.4323 149.495 22.7708 149.203 23.0625C148.911 23.3542 148.568 23.5833 148.172 23.75C147.786 23.9167 147.375 24 146.938 24H134.141C133.703 24 133.286 23.9167 132.891 23.75C132.505 23.5833 132.167 23.3542 131.875 23.0625C131.583 22.7708 131.354 22.4323 131.188 22.0469C131.021 21.651 130.938 21.2344 130.938 20.7969V4.79688C130.938 4.35938 131.021 3.94792 131.188 3.5625C131.354 3.16667 131.583 2.82812 131.875 2.54688C132.167 2.25521 132.505 2.02604 132.891 1.85938C133.286 1.68229 133.703 1.59375 134.141 1.59375H146.938C147.375 1.59375 147.786 1.68229 148.172 1.85938C148.568 2.02604 148.911 2.25521 149.203 2.54688C149.495 2.82812 149.724 3.16667 149.891 3.5625C150.057 3.94792 150.141 4.35938 150.141 4.79688V20.7969ZM134.141 4.79688V20.7969H146.938V4.79688H134.141ZM165.828 1.59375L174.469 24H171.266L169.281 18.8438H159.172L157.188 24H153.984L162.625 1.59375H165.828ZM160.391 15.6406H168.047L164.234 5.76562L160.391 15.6406ZM181.516 1.59375V20.7969H193.031V24H178.312V1.59375H181.516ZM224.172 9.59375C224.172 12.7188 222.839 14.5 220.172 14.9375L224.391 24H220.844L216.688 15.0469H209.672V24H206.469V1.59375H218.734C222.359 1.59375 224.172 3.41146 224.172 7.04688V9.59375ZM209.672 11.8438H218.562C219.417 11.8438 220.031 11.6562 220.406 11.2812C220.781 10.9062 220.969 10.2917 220.969 9.4375V7.20312C220.969 6.34896 220.781 5.73438 220.406 5.35938C220.031 4.98438 219.417 4.79688 218.562 4.79688H209.672V11.8438ZM229.531 1.59375H245.859V4.79688H232.734V11.2031H243.938V14.4062H232.734V20.7969H245.859V24H229.531V1.59375ZM260.578 1.59375L269.219 24H266.016L264.031 18.8438H253.922L251.938 24H248.734L257.375 1.59375H260.578ZM255.141 15.6406H262.797L258.984 5.76562L255.141 15.6406ZM273.062 4.79688C273.062 4.35938 273.146 3.94792 273.312 3.5625C273.479 3.16667 273.708 2.82812 274 2.54688C274.292 2.25521 274.63 2.02604 275.016 1.85938C275.411 1.68229 275.828 1.59375 276.266 1.59375H288.422C288.859 1.59375 289.271 1.68229 289.656 1.85938C290.052 2.02604 290.396 2.25521 290.688 2.54688C290.979 2.82812 291.208 3.16667 291.375 3.5625C291.542 3.94792 291.625 4.35938 291.625 4.79688V7.6875H288.422V4.79688H276.266V20.7969H288.422V17.9219H291.625V20.7969C291.625 21.2344 291.542 21.651 291.375 22.0469C291.208 22.4323 290.979 22.7708 290.688 23.0625C290.396 23.3542 290.052 23.5833 289.656 23.75C289.271 23.9167 288.859 24 288.422 24H276.266C275.828 24 275.411 23.9167 275.016 23.75C274.63 23.5833 274.292 23.3542 274 23.0625C273.708 22.7708 273.479 22.4323 273.312 22.0469C273.146 21.651 273.062 21.2344 273.062 20.7969V4.79688ZM315.984 1.59375V24H312.781V14.4062H299.953V24H296.75V1.59375H299.953V11.2031H312.781V1.59375H315.984ZM321.75 1.59375H338.078V4.79688H324.953V11.2031H336.156V14.4062H324.953V20.7969H338.078V24H321.75V1.59375ZM354.266 20.7969C355.755 20.7969 356.901 20.3958 357.703 19.5938C358.505 18.7917 358.906 17.6458 358.906 16.1562V9.4375C358.906 8.70833 358.802 8.05729 358.594 7.48438C358.385 6.91146 358.078 6.42708 357.672 6.03125C357.276 5.625 356.792 5.31771 356.219 5.10938C355.646 4.90104 354.995 4.79688 354.266 4.79688H346.078V20.7969H354.266ZM342.875 24V1.59375H354.266C355.464 1.59375 356.542 1.78125 357.5 2.15625C358.469 2.52083 359.292 3.04688 359.969 3.73438C360.656 4.41146 361.182 5.23438 361.547 6.20312C361.922 7.17188 362.109 8.25 362.109 9.4375V16.1562C362.109 17.3438 361.922 18.4219 361.547 19.3906C361.182 20.3594 360.656 21.1875 359.969 21.875C359.292 22.5521 358.469 23.0781 357.5 23.4531C356.542 23.8177 355.464 24 354.266 24H342.875Z"></path>
<path mask="url(#path-1-outside-1_216_6)" fill="#FF2424" d="M15.4688 12.3125L15.1779 11.6758L13.5119 12.4368L15.2608 12.9809L15.4688 12.3125ZM17.7344 13.9844L17.1432 14.3593L17.1475 14.3659L17.7344 13.9844ZM0.875 24H0.175V24.7H0.875V24ZM0.875 1.59375V0.89375H0.175V1.59375H0.875ZM17.3281 10.5469L16.7036 10.2306L16.702 10.2338L17.3281 10.5469ZM4.01562 14.2344V13.5344H3.31563V14.2344H4.01562ZM4.01562 20.8594H3.31563V21.5594H4.01562V20.8594ZM14.875 20.2656L14.3668 19.7842L14.875 20.2656ZM4.01562 4.73438V4.03438H3.31563V4.73438H4.01562ZM4.01562 11.1094H3.31563V11.8094H4.01562V11.1094ZM12.625 11.1094V11.8094H12.6392L12.6534 11.8088L12.625 11.1094ZM14.2812 10.4844L13.7527 10.0254L13.7518 10.0265L14.2812 10.4844ZM15.2608 12.9809C15.6631 13.1061 16.0241 13.2829 16.3475 13.5102L17.1525 12.3648C16.7051 12.0504 16.2119 11.8106 15.6767 11.6441L15.2608 12.9809ZM16.3475 13.5102C16.6523 13.7244 16.918 14.0041 17.1432 14.3593L18.3255 13.6095C18.0091 13.1105 17.6186 12.6923 17.1525 12.3648L16.3475 13.5102ZM17.1475 14.3659C17.3696 14.7075 17.5506 15.129 17.681 15.6414L19.0377 15.2961C18.8765 14.6627 18.6409 14.0945 18.3213 13.6029L17.1475 14.3659ZM17.681 15.6414C17.8094 16.1459 17.8781 16.7423 17.8781 17.4375H19.2781C19.2781 16.6536 19.201 15.9374 19.0377 15.2961L17.681 15.6414ZM17.8781 17.4375V18.5625H19.2781V17.4375H17.8781ZM17.8781 18.5625C17.8781 20.2671 17.4524 21.417 16.7238 22.1457C15.9951 22.8743 14.8452 23.3 13.1406 23.3V24.7C15.061 24.7 16.6299 24.2194 17.7137 23.1356C18.7976 22.0518 19.2781 20.4829 19.2781 18.5625H17.8781ZM13.1406 23.3H0.875V24.7H13.1406V23.3ZM1.575 24V1.59375H0.175V24H1.575ZM0.875 2.29375H12.5V0.89375H0.875V2.29375ZM12.5 2.29375C14.2041 2.29375 15.3537 2.72046 16.0824 3.4513C16.8116 4.1825 17.2375 5.33656 17.2375 7.04688H18.6375C18.6375 5.12177 18.1572 3.54927 17.0738 2.46277C15.9901 1.3759 14.4209 0.89375 12.5 0.89375V2.29375ZM17.2375 7.04688V7.45312H18.6375V7.04688H17.2375ZM17.2375 7.45312C17.2375 8.64516 17.0444 9.55786 16.7037 10.2306L17.9526 10.8632C18.4244 9.93172 18.6375 8.78193 18.6375 7.45312H17.2375ZM16.702 10.2338C16.3813 10.8752 15.8838 11.3534 15.1779 11.6758L15.7596 12.9492C16.7412 12.5008 17.4833 11.8018 17.9542 10.8599L16.702 10.2338ZM3.31563 14.2344V20.8594H4.71562V14.2344H3.31563ZM4.01562 21.5594H13.0469V20.1594H4.01562V21.5594ZM13.0469 21.5594C13.9793 21.5594 14.8186 21.343 15.3832 20.747L14.3668 19.7842C14.1814 19.9799 13.802 20.1594 13.0469 20.1594V21.5594ZM15.3832 20.747C15.934 20.1656 16.1375 19.3342 16.1375 18.4062H14.7375C14.7375 19.1658 14.566 19.5739 14.3668 19.7842L15.3832 20.747ZM16.1375 18.4062V16.6719H14.7375V18.4062H16.1375ZM16.1375 16.6719C16.1375 15.7385 15.9361 14.8993 15.3767 14.3244L14.3733 15.3006C14.5639 15.4965 14.7375 15.8969 14.7375 16.6719H16.1375ZM15.3767 14.3244C14.8114 13.7433 13.9748 13.5344 13.0469 13.5344V14.9344C13.8064 14.9344 14.1886 15.1108 14.3733 15.3006L15.3767 14.3244ZM13.0469 13.5344H4.01562V14.9344H13.0469V13.5344ZM3.31563 4.73438V11.1094H4.71562V4.73438H3.31563ZM4.01562 11.8094H12.625V10.4094H4.01562V11.8094ZM12.6534 11.8088C13.5187 11.7737 14.2982 11.5349 14.8107 10.9423L13.7518 10.0265C13.5976 10.2047 13.273 10.3825 12.5966 10.4099L12.6534 11.8088ZM14.8098 10.9434C15.3109 10.3663 15.4969 9.56441 15.4969 8.67188H14.0969C14.0969 9.40434 13.9391 9.81081 13.7527 10.0254L14.8098 10.9434ZM15.4969 8.67188V7.20312H14.0969V8.67188H15.4969ZM15.4969 7.20312C15.4969 6.26758 15.2946 5.42943 14.7425 4.8467L13.7262 5.80955C13.9242 6.01849 14.0969 6.43034 14.0969 7.20312H15.4969ZM14.7425 4.8467C14.1779 4.25072 13.3387 4.03438 12.4062 4.03438V5.43437C13.1613 5.43437 13.5408 5.61386 13.7262 5.80955L14.7425 4.8467ZM12.4062 4.03438H4.01562V5.43437H12.4062V4.03438ZM23.375 1.59375V0.89375H22.675V1.59375H23.375ZM26.5781 1.59375H27.2781V0.89375H26.5781V1.59375ZM26.5781 20.7969H25.8781V21.4969H26.5781V20.7969ZM39.375 20.7969V21.4969H40.075V20.7969H39.375ZM39.375 1.59375V0.89375H38.675V1.59375H39.375ZM42.5781 1.59375H43.2781V0.89375H42.5781V1.59375ZM42.3281 22.0469L42.9707 22.3247L42.9733 22.3185L42.3281 22.0469ZM40.6094 23.75L40.3377 23.1048L40.3315 23.1075L40.6094 23.75ZM25.3281 23.75L25.0503 24.3925L25.0565 24.3951L25.3281 23.75ZM24.3125 23.0625L23.8175 23.5575L24.3125 23.0625ZM23.625 22.0469L22.9798 22.3185L22.9825 22.3247L23.625 22.0469ZM23.375 2.29375H26.5781V0.89375H23.375V2.29375ZM25.8781 1.59375V20.7969H27.2781V1.59375H25.8781ZM26.5781 21.4969H39.375V20.0969H26.5781V21.4969ZM40.075 20.7969V1.59375H38.675V20.7969H40.075ZM39.375 2.29375H42.5781V0.89375H39.375V2.29375ZM41.8781 1.59375V20.7969H43.2781V1.59375H41.8781ZM41.8781 20.7969C41.8781 21.1429 41.8128 21.467 41.683 21.7752L42.9733 22.3185C43.1768 21.8351 43.2781 21.3259 43.2781 20.7969H41.8781ZM41.6856 21.769C41.5534 22.0749 41.3737 22.3394 41.1457 22.5675L42.1356 23.5575C42.4908 23.2022 42.7696 22.7897 42.9706 22.3247L41.6856 21.769ZM41.1457 22.5675C40.9206 22.7925 40.6536 22.9719 40.3377 23.1049L40.881 24.3951C41.3568 24.1948 41.7773 23.9158 42.1356 23.5575L41.1457 22.5675ZM40.3315 23.1075C40.0375 23.2346 39.721 23.3 39.375 23.3V24.7C39.904 24.7 40.4104 24.5987 40.8872 24.3925L40.3315 23.1075ZM39.375 23.3H26.5781V24.7H39.375V23.3ZM26.5781 23.3C26.2321 23.3 25.908 23.2346 25.5998 23.1049L25.0565 24.3951C25.5399 24.5987 26.0491 24.7 26.5781 24.7V23.3ZM25.606 23.1075C25.3001 22.9752 25.0356 22.7956 24.8075 22.5675L23.8175 23.5575C24.1728 23.9127 24.5853 24.1914 25.0503 24.3925L25.606 23.1075ZM24.8075 22.5675C24.5794 22.3394 24.3998 22.0749 24.2675 21.769L22.9825 22.3247C23.1836 22.7897 23.4623 23.2022 23.8175 23.5575L24.8075 22.5675ZM24.2701 21.7752C24.1404 21.467 24.075 21.1429 24.075 20.7969H22.675C22.675 21.3259 22.7763 21.8351 22.9799 22.3185L24.2701 21.7752ZM24.075 20.7969V1.59375H22.675V20.7969H24.075ZM62.0469 14.9375L61.9335 14.2467L61.0227 14.3962L61.4123 15.2329L62.0469 14.9375ZM66.2656 24V24.7H67.3636L66.9002 23.7046L66.2656 24ZM62.7188 24L62.0838 24.2947L62.272 24.7H62.7188V24ZM58.5625 15.0469L59.1974 14.7521L59.0093 14.3469H58.5625V15.0469ZM51.5469 15.0469V14.3469H50.8469V15.0469H51.5469ZM51.5469 24V24.7H52.2469V24H51.5469ZM48.3438 24H47.6438V24.7H48.3438V24ZM48.3438 1.59375V0.89375H47.6438V1.59375H48.3438ZM51.5469 11.8438H50.8469V12.5437H51.5469V11.8438ZM51.5469 4.79688V4.09688H50.8469V4.79688H51.5469ZM65.3469 9.59375C65.3469 11.0646 65.0323 12.1247 64.4865 12.854C63.9506 13.5699 63.129 14.0506 61.9335 14.2467L62.1602 15.6283C63.6314 15.3869 64.8099 14.7582 65.6073 13.6929C66.3947 12.6409 66.7469 11.2479 66.7469 9.59375H65.3469ZM61.4123 15.2329L65.631 24.2954L66.9002 23.7046L62.6815 14.6421L61.4123 15.2329ZM66.2656 23.3H62.7188V24.7H66.2656V23.3ZM63.3537 23.7053L59.1974 14.7521L57.9276 15.3416L62.0838 24.2947L63.3537 23.7053ZM58.5625 14.3469H51.5469V15.7469H58.5625V14.3469ZM50.8469 15.0469V24H52.2469V15.0469H50.8469ZM51.5469 23.3H48.3438V24.7H51.5469V23.3ZM49.0437 24V1.59375H47.6438V24H49.0437ZM48.3438 2.29375H60.6094V0.89375H48.3438V2.29375ZM60.6094 2.29375C62.3135 2.29375 63.4631 2.72046 64.1918 3.4513C64.9209 4.1825 65.3469 5.33656 65.3469 7.04688H66.7469C66.7469 5.12177 66.2666 3.54927 65.1832 2.46277C64.0994 1.3759 62.5303 0.89375 60.6094 0.89375V2.29375ZM65.3469 7.04688V9.59375H66.7469V7.04688H65.3469ZM51.5469 12.5437H60.4375V11.1438H51.5469V12.5437ZM60.4375 12.5437C61.3685 12.5437 62.2091 12.3433 62.7762 11.7762L61.7863 10.7863C61.6034 10.9692 61.2148 11.1438 60.4375 11.1438V12.5437ZM62.7762 11.7762C63.3433 11.2091 63.5437 10.3685 63.5437 9.4375H62.1438C62.1438 10.2148 61.9692 10.6034 61.7863 10.7863L62.7762 11.7762ZM63.5437 9.4375V7.20312H62.1438V9.4375H63.5437ZM63.5437 7.20312C63.5437 6.27209 63.3433 5.43152 62.7762 4.8644L61.7863 5.85435C61.9692 6.03723 62.1438 6.42582 62.1438 7.20312H63.5437ZM62.7762 4.8644C62.2091 4.29728 61.3685 4.09688 60.4375 4.09688V5.49687C61.2148 5.49687 61.6034 5.67147 61.7863 5.85435L62.7762 4.8644ZM60.4375 4.09688H51.5469V5.49687H60.4375V4.09688ZM50.8469 4.79688V11.8438H52.2469V4.79688H50.8469ZM74.6094 24V24.7H75.3094V24H74.6094ZM71.4062 24H70.7063V24.7H71.4062V24ZM71.4062 1.59375V0.89375H70.7063V1.59375H71.4062ZM74.6094 1.59375L75.1626 1.16489L74.9524 0.89375H74.6094V1.59375ZM88.0781 18.9688L87.5249 19.3976L88.7781 21.0143V18.9688H88.0781ZM88.0781 1.59375V0.89375H87.3781V1.59375H88.0781ZM91.2812 1.59375H91.9812V0.89375H91.2812V1.59375ZM91.2812 24V24.7H91.9812V24H91.2812ZM88.0781 24L87.5249 24.4289L87.7351 24.7H88.0781V24ZM74.6094 6.625L75.1626 6.19614L73.9094 4.57943V6.625H74.6094ZM74.6094 23.3H71.4062V24.7H74.6094V23.3ZM72.1062 24V1.59375H70.7063V24H72.1062ZM71.4062 2.29375H74.6094V0.89375H71.4062V2.29375ZM74.0561 2.02261L87.5249 19.3976L88.6314 18.5399L75.1626 1.16489L74.0561 2.02261ZM88.7781 18.9688V1.59375H87.3781V18.9688H88.7781ZM88.0781 2.29375H91.2812V0.89375H88.0781V2.29375ZM90.5813 1.59375V24H91.9812V1.59375H90.5813ZM91.2812 23.3H88.0781V24.7H91.2812V23.3ZM88.6314 23.5711L75.1626 6.19614L74.0561 7.05386L87.5249 24.4289L88.6314 23.5711ZM73.9094 6.625V24H75.3094V6.625H73.9094ZM106.875 3.5625L107.518 3.84035L107.52 3.83414L106.875 3.5625ZM107.562 2.54688L108.048 3.05085L108.057 3.04185L107.562 2.54688ZM108.578 1.85938L108.856 2.50193L108.864 2.49835L108.578 1.85938ZM123.219 1.85938L122.926 2.49545L122.937 2.50015L122.947 2.50452L123.219 1.85938ZM124.25 2.54688L123.755 3.04193L123.764 3.05077L124.25 2.54688ZM124.938 3.5625L124.292 3.83415L124.295 3.84034L124.938 3.5625ZM125.188 7.6875V8.3875H125.887V7.6875H125.188ZM121.984 7.6875H121.284V8.3875H121.984V7.6875ZM121.984 4.79688H122.684V4.09688H121.984V4.79688ZM109.828 4.79688V4.09688H109.128V4.79688H109.828ZM109.828 20.7969H109.128V21.4969H109.828V20.7969ZM121.984 20.7969V21.4969H122.684V20.7969H121.984ZM121.984 15.3594H122.684V14.6594H121.984V15.3594ZM115.906 15.3594H115.206V16.0594H115.906V15.3594ZM115.906 12.1562V11.4563H115.206V12.1562H115.906ZM125.188 12.1562H125.887V11.4563H125.188V12.1562ZM124.938 22.0469L125.58 22.3247L125.583 22.3185L124.938 22.0469ZM123.219 23.75L122.947 23.1048L122.941 23.1075L123.219 23.75ZM108.578 23.75L108.3 24.3925L108.306 24.3951L108.578 23.75ZM107.562 23.0625L107.068 23.5575L107.562 23.0625ZM106.875 22.0469L106.23 22.3185L106.233 22.3247L106.875 22.0469ZM107.325 4.79688C107.325 4.45085 107.39 4.13436 107.517 3.84034L106.233 3.28466C106.026 3.76147 105.925 4.2679 105.925 4.79688H107.325ZM107.52 3.83414C107.652 3.52038 107.829 3.26229 108.048 3.05077L107.077 2.04298C106.713 2.39396 106.431 2.81295 106.23 3.29086L107.52 3.83414ZM108.057 3.04185C108.286 2.81375 108.55 2.63415 108.856 2.50187L108.3 1.21688C107.835 1.41794 107.423 1.69667 107.068 2.0519L108.057 3.04185ZM108.864 2.49835C109.169 2.36186 109.488 2.29375 109.828 2.29375V0.89375C109.293 0.89375 108.779 1.00272 108.292 1.2204L108.864 2.49835ZM109.828 2.29375H121.984V0.89375H109.828V2.29375ZM121.984 2.29375C122.324 2.29375 122.636 2.36183 122.926 2.49545L123.511 1.2233C123.031 1.00276 122.519 0.89375 121.984 0.89375V2.29375ZM122.947 2.50452C123.263 2.63752 123.53 2.81685 123.755 3.04185L124.745 2.0519C124.387 1.69357 123.966 1.41456 123.49 1.21423L122.947 2.50452ZM123.764 3.05077C123.983 3.26229 124.16 3.52038 124.292 3.83414L125.583 3.29086C125.381 2.81295 125.1 2.39396 124.736 2.04298L123.764 3.05077ZM124.295 3.84034C124.422 4.13436 124.488 4.45085 124.488 4.79688H125.887C125.887 4.2679 125.786 3.76147 125.58 3.28466L124.295 3.84034ZM124.488 4.79688V7.6875H125.887V4.79688H124.488ZM125.188 6.9875H121.984V8.3875H125.188V6.9875ZM122.684 7.6875V4.79688H121.284V7.6875H122.684ZM121.984 4.09688H109.828V5.49687H121.984V4.09688ZM109.128 4.79688V20.7969H110.528V4.79688H109.128ZM109.828 21.4969H121.984V20.0969H109.828V21.4969ZM122.684 20.7969V15.3594H121.284V20.7969H122.684ZM121.984 14.6594H115.906V16.0594H121.984V14.6594ZM116.606 15.3594V12.1562H115.206V15.3594H116.606ZM115.906 12.8562H125.188V11.4563H115.906V12.8562ZM124.488 12.1562V20.7969H125.887V12.1562H124.488ZM124.488 20.7969C124.488 21.1429 124.422 21.467 124.292 21.7752L125.583 22.3185C125.786 21.8351 125.887 21.3259 125.887 20.7969H124.488ZM124.295 21.769C124.163 22.0749 123.983 22.3394 123.755 22.5675L124.745 23.5575C125.1 23.2022 125.379 22.7897 125.58 22.3247L124.295 21.769ZM123.755 22.5675C123.53 22.7925 123.263 22.9719 122.947 23.1049L123.49 24.3951C123.966 24.1948 124.387 23.9158 124.745 23.5575L123.755 22.5675ZM122.941 23.1075C122.647 23.2346 122.33 23.3 121.984 23.3V24.7C122.513 24.7 123.02 24.5987 123.497 24.3925L122.941 23.1075ZM121.984 23.3H109.828V24.7H121.984V23.3ZM109.828 23.3C109.482 23.3 109.158 23.2346 108.85 23.1049L108.306 24.3951C108.79 24.5987 109.299 24.7 109.828 24.7V23.3ZM108.856 23.1075C108.55 22.9752 108.286 22.7956 108.057 22.5675L107.068 23.5575C107.423 23.9127 107.835 24.1914 108.3 24.3925L108.856 23.1075ZM108.057 22.5675C107.829 22.3394 107.65 22.0749 107.517 21.769L106.233 22.3247C106.434 22.7897 106.712 23.2022 107.068 23.5575L108.057 22.5675ZM107.52 21.7752C107.39 21.467 107.325 21.1429 107.325 20.7969H105.925C105.925 21.3259 106.026 21.8351 106.23 22.3185L107.52 21.7752ZM107.325 20.7969V4.79688H105.925V20.7969H107.325ZM149.891 22.0469L150.533 22.3247L150.536 22.3185L149.891 22.0469ZM148.172 23.75L147.9 23.1048L147.894 23.1075L148.172 23.75ZM132.891 23.75L132.613 24.3925L132.619 24.3951L132.891 23.75ZM131.875 23.0625L131.38 23.5575L131.875 23.0625ZM131.188 22.0469L130.542 22.3185L130.545 22.3247L131.188 22.0469ZM131.188 3.5625L131.83 3.84035L131.833 3.83414L131.188 3.5625ZM131.875 2.54688L132.361 3.05085L132.37 3.04185L131.875 2.54688ZM132.891 1.85938L133.168 2.50193L133.176 2.49835L132.891 1.85938ZM148.172 1.85938L147.88 2.49545L147.89 2.50015L147.9 2.50452L148.172 1.85938ZM149.203 2.54688L148.708 3.04193L148.717 3.05077L149.203 2.54688ZM149.891 3.5625L149.245 3.83415L149.248 3.84034L149.891 3.5625ZM134.141 4.79688V4.09688H133.441V4.79688H134.141ZM134.141 20.7969H133.441V21.4969H134.141V20.7969ZM146.938 20.7969V21.4969H147.637V20.7969H146.938ZM146.938 4.79688H147.637V4.09688H146.938V4.79688ZM149.441 20.7969C149.441 21.1429 149.375 21.467 149.245 21.7752L150.536 22.3185C150.739 21.8351 150.841 21.3259 150.841 20.7969H149.441ZM149.248 21.769C149.116 22.0749 148.936 22.3394 148.708 22.5675L149.698 23.5575C150.053 23.2022 150.332 22.7897 150.533 22.3247L149.248 21.769ZM148.708 22.5675C148.483 22.7925 148.216 22.9719 147.9 23.1049L148.444 24.3951C148.919 24.1948 149.34 23.9158 149.698 23.5575L148.708 22.5675ZM147.894 23.1075C147.6 23.2346 147.284 23.3 146.938 23.3V24.7C147.466 24.7 147.973 24.5987 148.45 24.3925L147.894 23.1075ZM146.938 23.3H134.141V24.7H146.938V23.3ZM134.141 23.3C133.795 23.3 133.47 23.2346 133.162 23.1049L132.619 24.3951C133.102 24.5987 133.612 24.7 134.141 24.7V23.3ZM133.168 23.1075C132.863 22.9752 132.598 22.7956 132.37 22.5675L131.38 23.5575C131.735 23.9127 132.148 24.1914 132.613 24.3925L133.168 23.1075ZM132.37 22.5675C132.142 22.3394 131.962 22.0749 131.83 21.769L130.545 22.3247C130.746 22.7897 131.025 23.2022 131.38 23.5575L132.37 22.5675ZM131.833 21.7752C131.703 21.467 131.637 21.1429 131.637 20.7969H130.238C130.238 21.3259 130.339 21.8351 130.542 22.3185L131.833 21.7752ZM131.637 20.7969V4.79688H130.238V20.7969H131.637ZM131.637 4.79688C131.637 4.45085 131.703 4.13436 131.83 3.84034L130.545 3.28466C130.339 3.76147 130.238 4.2679 130.238 4.79688H131.637ZM131.833 3.83414C131.965 3.52038 132.142 3.26229 132.361 3.05077L131.389 2.04298C131.025 2.39396 130.744 2.81295 130.542 3.29086L131.833 3.83414ZM132.37 3.04185C132.598 2.81375 132.863 2.63415 133.168 2.50187L132.613 1.21688C132.148 1.41794 131.735 1.69667 131.38 2.0519L132.37 3.04185ZM133.176 2.49835C133.482 2.36186 133.801 2.29375 134.141 2.29375V0.89375C133.606 0.89375 133.091 1.00272 132.605 1.2204L133.176 2.49835ZM134.141 2.29375H146.938V0.89375H134.141V2.29375ZM146.938 2.29375C147.277 2.29375 147.589 2.36183 147.88 2.49545L148.464 1.2233C147.984 1.00276 147.473 0.89375 146.938 0.89375V2.29375ZM147.9 2.50452C148.216 2.63752 148.483 2.81685 148.708 3.04185L149.698 2.0519C149.34 1.69357 148.919 1.41456 148.444 1.21423L147.9 2.50452ZM148.717 3.05077C148.937 3.26229 149.113 3.52038 149.245 3.83414L150.536 3.29086C150.335 2.81295 150.053 2.39396 149.689 2.04298L148.717 3.05077ZM149.248 3.84034C149.375 4.13436 149.441 4.45085 149.441 4.79688H150.841C150.841 4.2679 150.739 3.76147 150.533 3.28466L149.248 3.84034ZM149.441 4.79688V20.7969H150.841V4.79688H149.441ZM133.441 4.79688V20.7969H134.841V4.79688H133.441ZM134.141 21.4969H146.938V20.0969H134.141V21.4969ZM147.637 20.7969V4.79688H146.238V20.7969H147.637ZM146.938 4.09688H134.141V5.49687H146.938V4.09688ZM165.828 1.59375L166.481 1.34188L166.308 0.89375H165.828V1.59375ZM174.469 24V24.7H175.489L175.122 23.7481L174.469 24ZM171.266 24L170.612 24.2514L170.785 24.7H171.266V24ZM169.281 18.8438L169.935 18.5923L169.762 18.1438H169.281V18.8438ZM159.172 18.8438V18.1438H158.691L158.519 18.5923L159.172 18.8438ZM157.188 24V24.7H157.668L157.841 24.2514L157.188 24ZM153.984 24L153.331 23.7481L152.964 24.7H153.984V24ZM162.625 1.59375V0.89375H162.145L161.972 1.34188L162.625 1.59375ZM160.391 15.6406L159.738 15.3867L159.367 16.3406H160.391V15.6406ZM168.047 15.6406V16.3406H169.067L168.7 15.3885L168.047 15.6406ZM164.234 5.76562L164.887 5.51351L164.237 3.82898L163.582 5.51171L164.234 5.76562ZM165.175 1.84562L173.816 24.2519L175.122 23.7481L166.481 1.34188L165.175 1.84562ZM174.469 23.3H171.266V24.7H174.469V23.3ZM171.919 23.7486L169.935 18.5923L168.628 19.0952L170.612 24.2514L171.919 23.7486ZM169.281 18.1438H159.172V19.5437H169.281V18.1438ZM158.519 18.5923L156.534 23.7486L157.841 24.2514L159.825 19.0952L158.519 18.5923ZM157.188 23.3H153.984V24.7H157.188V23.3ZM154.637 24.2519L163.278 1.84562L161.972 1.34188L153.331 23.7481L154.637 24.2519ZM162.625 2.29375H165.828V0.89375H162.625V2.29375ZM160.391 16.3406H168.047V14.9406H160.391V16.3406ZM168.7 15.3885L164.887 5.51351L163.581 6.01774L167.394 15.8927L168.7 15.3885ZM163.582 5.51171L159.738 15.3867L161.043 15.8945L164.887 6.01954L163.582 5.51171ZM181.516 1.59375H182.216V0.89375H181.516V1.59375ZM181.516 20.7969H180.816V21.4969H181.516V20.7969ZM193.031 20.7969H193.731V20.0969H193.031V20.7969ZM193.031 24V24.7H193.731V24H193.031ZM178.312 24H177.613V24.7H178.312V24ZM178.312 1.59375V0.89375H177.613V1.59375H178.312ZM180.816 1.59375V20.7969H182.216V1.59375H180.816ZM181.516 21.4969H193.031V20.0969H181.516V21.4969ZM192.331 20.7969V24H193.731V20.7969H192.331ZM193.031 23.3H178.312V24.7H193.031V23.3ZM179.012 24V1.59375H177.613V24H179.012ZM178.312 2.29375H181.516V0.89375H178.312V2.29375ZM220.172 14.9375L220.059 14.2467L219.148 14.3962L219.537 15.2329L220.172 14.9375ZM224.391 24V24.7H225.489L225.025 23.7046L224.391 24ZM220.844 24L220.209 24.2947L220.397 24.7H220.844V24ZM216.688 15.0469L217.322 14.7521L217.134 14.3469H216.688V15.0469ZM209.672 15.0469V14.3469H208.972V15.0469H209.672ZM209.672 24V24.7H210.372V24H209.672ZM206.469 24H205.769V24.7H206.469V24ZM206.469 1.59375V0.89375H205.769V1.59375H206.469ZM209.672 11.8438H208.972V12.5437H209.672V11.8438ZM209.672 4.79688V4.09688H208.972V4.79688H209.672ZM223.472 9.59375C223.472 11.0646 223.157 12.1247 222.611 12.854C222.076 13.5699 221.254 14.0506 220.059 14.2467L220.285 15.6283C221.756 15.3869 222.935 14.7582 223.732 13.6929C224.52 12.6409 224.872 11.2479 224.872 9.59375H223.472ZM219.537 15.2329L223.756 24.2954L225.025 23.7046L220.806 14.6421L219.537 15.2329ZM224.391 23.3H220.844V24.7H224.391V23.3ZM221.479 23.7053L217.322 14.7521L216.053 15.3416L220.209 24.2947L221.479 23.7053ZM216.688 14.3469H209.672V15.7469H216.688V14.3469ZM208.972 15.0469V24H210.372V15.0469H208.972ZM209.672 23.3H206.469V24.7H209.672V23.3ZM207.169 24V1.59375H205.769V24H207.169ZM206.469 2.29375H218.734V0.89375H206.469V2.29375ZM218.734 2.29375C220.438 2.29375 221.588 2.72046 222.317 3.4513C223.046 4.1825 223.472 5.33656 223.472 7.04688H224.872C224.872 5.12177 224.392 3.54927 223.308 2.46277C222.224 1.3759 220.655 0.89375 218.734 0.89375V2.29375ZM223.472 7.04688V9.59375H224.872V7.04688H223.472ZM209.672 12.5437H218.562V11.1438H209.672V12.5437ZM218.562 12.5437C219.494 12.5437 220.334 12.3433 220.901 11.7762L219.911 10.7863C219.728 10.9692 219.34 11.1438 218.562 11.1438V12.5437ZM220.901 11.7762C221.468 11.2091 221.669 10.3685 221.669 9.4375H220.269C220.269 10.2148 220.094 10.6034 219.911 10.7863L220.901 11.7762ZM221.669 9.4375V7.20312H220.269V9.4375H221.669ZM221.669 7.20312C221.669 6.27209 221.468 5.43152 220.901 4.8644L219.911 5.85435C220.094 6.03723 220.269 6.42582 220.269 7.20312H221.669ZM220.901 4.8644C220.334 4.29728 219.494 4.09688 218.562 4.09688V5.49687C219.34 5.49687 219.728 5.67147 219.911 5.85435L220.901 4.8644ZM218.562 4.09688H209.672V5.49687H218.562V4.09688ZM208.972 4.79688V11.8438H210.372V4.79688H208.972ZM229.531 1.59375V0.89375H228.831V1.59375H229.531ZM245.859 1.59375H246.559V0.89375H245.859V1.59375ZM245.859 4.79688V5.49687H246.559V4.79688H245.859ZM232.734 4.79688V4.09688H232.034V4.79688H232.734ZM232.734 11.2031H232.034V11.9031H232.734V11.2031ZM243.938 11.2031H244.637V10.5031H243.938V11.2031ZM243.938 14.4062V15.1062H244.637V14.4062H243.938ZM232.734 14.4062V13.7063H232.034V14.4062H232.734ZM232.734 20.7969H232.034V21.4969H232.734V20.7969ZM245.859 20.7969H246.559V20.0969H245.859V20.7969ZM245.859 24V24.7H246.559V24H245.859ZM229.531 24H228.831V24.7H229.531V24ZM229.531 2.29375H245.859V0.89375H229.531V2.29375ZM245.159 1.59375V4.79688H246.559V1.59375H245.159ZM245.859 4.09688H232.734V5.49687H245.859V4.09688ZM232.034 4.79688V11.2031H233.434V4.79688H232.034ZM232.734 11.9031H243.938V10.5031H232.734V11.9031ZM243.238 11.2031V14.4062H244.637V11.2031H243.238ZM243.938 13.7063H232.734V15.1062H243.938V13.7063ZM232.034 14.4062V20.7969H233.434V14.4062H232.034ZM232.734 21.4969H245.859V20.0969H232.734V21.4969ZM245.159 20.7969V24H246.559V20.7969H245.159ZM245.859 23.3H229.531V24.7H245.859V23.3ZM230.231 24V1.59375H228.831V24H230.231ZM260.578 1.59375L261.231 1.34188L261.058 0.89375H260.578V1.59375ZM269.219 24V24.7H270.239L269.872 23.7481L269.219 24ZM266.016 24L265.362 24.2514L265.535 24.7H266.016V24ZM264.031 18.8438L264.685 18.5923L264.512 18.1438H264.031V18.8438ZM253.922 18.8438V18.1438H253.441L253.269 18.5923L253.922 18.8438ZM251.938 24V24.7H252.418L252.591 24.2514L251.938 24ZM248.734 24L248.081 23.7481L247.714 24.7H248.734V24ZM257.375 1.59375V0.89375H256.895L256.722 1.34188L257.375 1.59375ZM255.141 15.6406L254.488 15.3867L254.117 16.3406H255.141V15.6406ZM262.797 15.6406V16.3406H263.817L263.45 15.3885L262.797 15.6406ZM258.984 5.76562L259.637 5.51351L258.987 3.82898L258.332 5.51171L258.984 5.76562ZM259.925 1.84562L268.566 24.2519L269.872 23.7481L261.231 1.34188L259.925 1.84562ZM269.219 23.3H266.016V24.7H269.219V23.3ZM266.669 23.7486L264.685 18.5923L263.378 19.0952L265.362 24.2514L266.669 23.7486ZM264.031 18.1438H253.922V19.5437H264.031V18.1438ZM253.269 18.5923L251.284 23.7486L252.591 24.2514L254.575 19.0952L253.269 18.5923ZM251.938 23.3H248.734V24.7H251.938V23.3ZM249.387 24.2519L258.028 1.84562L256.722 1.34188L248.081 23.7481L249.387 24.2519ZM257.375 2.29375H260.578V0.89375H257.375V2.29375ZM255.141 16.3406H262.797V14.9406H255.141V16.3406ZM263.45 15.3885L259.637 5.51351L258.331 6.01774L262.144 15.8927L263.45 15.3885ZM258.332 5.51171L254.488 15.3867L255.793 15.8945L259.637 6.01954L258.332 5.51171ZM273.312 3.5625L273.955 3.84035L273.958 3.83414L273.312 3.5625ZM274 2.54688L274.486 3.05085L274.495 3.04185L274 2.54688ZM275.016 1.85938L275.293 2.50193L275.301 2.49835L275.016 1.85938ZM289.656 1.85938L289.364 2.49545L289.374 2.50015L289.385 2.50452L289.656 1.85938ZM290.688 2.54688L290.192 3.04193L290.202 3.05077L290.688 2.54688ZM291.375 3.5625L290.73 3.83415L290.733 3.84034L291.375 3.5625ZM291.625 7.6875V8.3875H292.325V7.6875H291.625ZM288.422 7.6875H287.722V8.3875H288.422V7.6875ZM288.422 4.79688H289.122V4.09688H288.422V4.79688ZM276.266 4.79688V4.09688H275.566V4.79688H276.266ZM276.266 20.7969H275.566V21.4969H276.266V20.7969ZM288.422 20.7969V21.4969H289.122V20.7969H288.422ZM288.422 17.9219V17.2219H287.722V17.9219H288.422ZM291.625 17.9219H292.325V17.2219H291.625V17.9219ZM291.375 22.0469L292.018 22.3247L292.02 22.3185L291.375 22.0469ZM289.656 23.75L289.385 23.1048L289.378 23.1075L289.656 23.75ZM275.016 23.75L274.738 24.3925L274.744 24.3951L275.016 23.75ZM274 23.0625L273.505 23.5575L274 23.0625ZM273.312 22.0469L272.667 22.3185L272.67 22.3247L273.312 22.0469ZM273.762 4.79688C273.762 4.45085 273.828 4.13436 273.955 3.84034L272.67 3.28466C272.464 3.76147 272.363 4.2679 272.363 4.79688H273.762ZM273.958 3.83414C274.09 3.52038 274.267 3.26229 274.486 3.05077L273.514 2.04298C273.15 2.39396 272.869 2.81295 272.667 3.29086L273.958 3.83414ZM274.495 3.04185C274.723 2.81375 274.988 2.63415 275.293 2.50187L274.738 1.21688C274.273 1.41794 273.86 1.69667 273.505 2.0519L274.495 3.04185ZM275.301 2.49835C275.607 2.36186 275.926 2.29375 276.266 2.29375V0.89375C275.731 0.89375 275.216 1.00272 274.73 1.2204L275.301 2.49835ZM276.266 2.29375H288.422V0.89375H276.266V2.29375ZM288.422 2.29375C288.762 2.29375 289.073 2.36183 289.364 2.49545L289.949 1.2233C289.468 1.00276 288.957 0.89375 288.422 0.89375V2.29375ZM289.385 2.50452C289.7 2.63752 289.968 2.81685 290.193 3.04185L291.182 2.0519C290.824 1.69357 290.404 1.41456 289.928 1.21423L289.385 2.50452ZM290.202 3.05077C290.421 3.26229 290.598 3.52038 290.73 3.83414L292.02 3.29086C291.819 2.81295 291.537 2.39396 291.173 2.04298L290.202 3.05077ZM290.733 3.84034C290.86 4.13436 290.925 4.45085 290.925 4.79688H292.325C292.325 4.2679 292.224 3.76147 292.017 3.28466L290.733 3.84034ZM290.925 4.79688V7.6875H292.325V4.79688H290.925ZM291.625 6.9875H288.422V8.3875H291.625V6.9875ZM289.122 7.6875V4.79688H287.722V7.6875H289.122ZM288.422 4.09688H276.266V5.49687H288.422V4.09688ZM275.566 4.79688V20.7969H276.966V4.79688H275.566ZM276.266 21.4969H288.422V20.0969H276.266V21.4969ZM289.122 20.7969V17.9219H287.722V20.7969H289.122ZM288.422 18.6219H291.625V17.2219H288.422V18.6219ZM290.925 17.9219V20.7969H292.325V17.9219H290.925ZM290.925 20.7969C290.925 21.1429 290.86 21.467 290.73 21.7752L292.02 22.3185C292.224 21.8351 292.325 21.3259 292.325 20.7969H290.925ZM290.733 21.769C290.6 22.0749 290.421 22.3394 290.193 22.5675L291.182 23.5575C291.538 23.2022 291.816 22.7897 292.017 22.3247L290.733 21.769ZM290.193 22.5675C289.968 22.7925 289.7 22.9719 289.385 23.1049L289.928 24.3951C290.404 24.1948 290.824 23.9158 291.182 23.5575L290.193 22.5675ZM289.378 23.1075C289.084 23.2346 288.768 23.3 288.422 23.3V24.7C288.951 24.7 289.457 24.5987 289.934 24.3925L289.378 23.1075ZM288.422 23.3H276.266V24.7H288.422V23.3ZM276.266 23.3C275.92 23.3 275.595 23.2346 275.287 23.1049L274.744 24.3951C275.227 24.5987 275.737 24.7 276.266 24.7V23.3ZM275.293 23.1075C274.988 22.9752 274.723 22.7956 274.495 22.5675L273.505 23.5575C273.86 23.9127 274.273 24.1914 274.738 24.3925L275.293 23.1075ZM274.495 22.5675C274.267 22.3394 274.087 22.0749 273.955 21.769L272.67 22.3247C272.871 22.7897 273.15 23.2022 273.505 23.5575L274.495 22.5675ZM273.958 21.7752C273.828 21.467 273.762 21.1429 273.762 20.7969H272.363C272.363 21.3259 272.464 21.8351 272.667 22.3185L273.958 21.7752ZM273.762 20.7969V4.79688H272.363V20.7969H273.762ZM315.984 1.59375H316.684V0.89375H315.984V1.59375ZM315.984 24V24.7H316.684V24H315.984ZM312.781 24H312.081V24.7H312.781V24ZM312.781 14.4062H313.481V13.7063H312.781V14.4062ZM299.953 14.4062V13.7063H299.253V14.4062H299.953ZM299.953 24V24.7H300.653V24H299.953ZM296.75 24H296.05V24.7H296.75V24ZM296.75 1.59375V0.89375H296.05V1.59375H296.75ZM299.953 1.59375H300.653V0.89375H299.953V1.59375ZM299.953 11.2031H299.253V11.9031H299.953V11.2031ZM312.781 11.2031V11.9031H313.481V11.2031H312.781ZM312.781 1.59375V0.89375H312.081V1.59375H312.781ZM315.284 1.59375V24H316.684V1.59375H315.284ZM315.984 23.3H312.781V24.7H315.984V23.3ZM313.481 24V14.4062H312.081V24H313.481ZM312.781 13.7063H299.953V15.1062H312.781V13.7063ZM299.253 14.4062V24H300.653V14.4062H299.253ZM299.953 23.3H296.75V24.7H299.953V23.3ZM297.45 24V1.59375H296.05V24H297.45ZM296.75 2.29375H299.953V0.89375H296.75V2.29375ZM299.253 1.59375V11.2031H300.653V1.59375H299.253ZM299.953 11.9031H312.781V10.5031H299.953V11.9031ZM313.481 11.2031V1.59375H312.081V11.2031H313.481ZM312.781 2.29375H315.984V0.89375H312.781V2.29375ZM321.75 1.59375V0.89375H321.05V1.59375H321.75ZM338.078 1.59375H338.778V0.89375H338.078V1.59375ZM338.078 4.79688V5.49687H338.778V4.79688H338.078ZM324.953 4.79688V4.09688H324.253V4.79688H324.953ZM324.953 11.2031H324.253V11.9031H324.953V11.2031ZM336.156 11.2031H336.856V10.5031H336.156V11.2031ZM336.156 14.4062V15.1062H336.856V14.4062H336.156ZM324.953 14.4062V13.7063H324.253V14.4062H324.953ZM324.953 20.7969H324.253V21.4969H324.953V20.7969ZM338.078 20.7969H338.778V20.0969H338.078V20.7969ZM338.078 24V24.7H338.778V24H338.078ZM321.75 24H321.05V24.7H321.75V24ZM321.75 2.29375H338.078V0.89375H321.75V2.29375ZM337.378 1.59375V4.79688H338.778V1.59375H337.378ZM338.078 4.09688H324.953V5.49687H338.078V4.09688ZM324.253 4.79688V11.2031H325.653V4.79688H324.253ZM324.953 11.9031H336.156V10.5031H324.953V11.9031ZM335.456 11.2031V14.4062H336.856V11.2031H335.456ZM336.156 13.7063H324.953V15.1062H336.156V13.7063ZM324.253 14.4062V20.7969H325.653V14.4062H324.253ZM324.953 21.4969H338.078V20.0969H324.953V21.4969ZM337.378 20.7969V24H338.778V20.7969H337.378ZM338.078 23.3H321.75V24.7H338.078V23.3ZM322.45 24V1.59375H321.05V24H322.45ZM357.703 19.5938L357.208 19.0988L357.703 19.5938ZM358.594 7.48438L357.936 7.7236L358.594 7.48438ZM357.672 6.03125L357.171 6.51976L357.177 6.52627L357.183 6.53261L357.672 6.03125ZM356.219 5.10938L355.98 5.76723L356.219 5.10938ZM346.078 4.79688V4.09688H345.378V4.79688H346.078ZM346.078 20.7969H345.378V21.4969H346.078V20.7969ZM342.875 24H342.175V24.7H342.875V24ZM342.875 1.59375V0.89375H342.175V1.59375H342.875ZM357.5 2.15625L357.245 2.80818L357.253 2.81139L357.5 2.15625ZM359.969 3.73438L359.47 4.22561L359.478 4.23311L359.969 3.73438ZM361.547 6.20312L360.892 6.44969L360.894 6.45582L361.547 6.20312ZM361.547 19.3906L360.894 19.1379L360.892 19.1441L361.547 19.3906ZM359.969 21.875L359.474 21.38L359.969 21.875ZM357.5 23.4531L357.749 24.1074L357.753 24.1059L357.5 23.4531ZM354.266 21.4969C355.88 21.4969 357.227 21.0594 358.198 20.0887L357.208 19.0988C356.575 19.7323 355.63 20.0969 354.266 20.0969V21.4969ZM358.198 20.0887C359.169 19.1181 359.606 17.7711 359.606 16.1562H358.206C358.206 17.5206 357.842 18.4653 357.208 19.0988L358.198 20.0887ZM359.606 16.1562V9.4375H358.206V16.1562H359.606ZM359.606 9.4375C359.606 8.64232 359.493 7.90813 359.252 7.24515L357.936 7.7236C358.111 8.20645 358.206 8.77435 358.206 9.4375H359.606ZM359.252 7.24515C359.01 6.58078 358.648 6.00465 358.16 5.52989L357.183 6.53261C357.509 6.84951 357.761 7.24214 357.936 7.7236L359.252 7.24515ZM358.173 5.54274C357.698 5.05549 357.122 4.69311 356.458 4.45152L355.98 5.76723C356.461 5.9423 356.854 6.19451 357.171 6.51976L358.173 5.54274ZM356.458 4.45152C355.795 4.21044 355.061 4.09688 354.266 4.09688V5.49687C354.929 5.49687 355.497 5.59165 355.98 5.76723L356.458 4.45152ZM354.266 4.09688H346.078V5.49687H354.266V4.09688ZM345.378 4.79688V20.7969H346.778V4.79688H345.378ZM346.078 21.4969H354.266V20.0969H346.078V21.4969ZM343.575 24V1.59375H342.175V24H343.575ZM342.875 2.29375H354.266V0.89375H342.875V2.29375ZM354.266 2.29375C355.39 2.29375 356.38 2.46969 357.245 2.80812L357.755 1.50438C356.703 1.09281 355.537 0.89375 354.266 0.89375V2.29375ZM357.253 2.81139C358.134 3.14288 358.869 3.6155 359.47 4.22556L360.467 3.24319C359.714 2.47825 358.803 1.89878 357.747 1.50111L357.253 2.81139ZM359.478 4.23311C360.088 4.83393 360.56 5.56886 360.892 6.44968L362.202 5.95657C361.804 4.89989 361.225 3.98899 360.46 3.23564L359.478 4.23311ZM360.894 6.45582C361.234 7.3333 361.409 8.32418 361.409 9.4375H362.809C362.809 8.17582 362.61 7.01045 362.2 5.95043L360.894 6.45582ZM361.409 9.4375V16.1562H362.809V9.4375H361.409ZM361.409 16.1562C361.409 17.2696 361.234 18.2605 360.894 19.1379L362.2 19.6433C362.61 18.5833 362.809 17.4179 362.809 16.1562H361.409ZM360.892 19.1441C360.56 20.0257 360.086 20.7675 359.474 21.38L360.464 22.37C361.226 21.6075 361.805 20.6931 362.202 19.6372L360.892 19.1441ZM359.474 21.38C358.871 21.9825 358.133 22.4575 357.247 22.8003L357.753 24.1059C358.805 23.6988 359.712 23.1216 360.464 22.37L359.474 21.38ZM357.251 22.7989C356.384 23.1286 355.393 23.3 354.266 23.3V24.7C355.535 24.7 356.699 24.5068 357.749 24.1074L357.251 22.7989ZM354.266 23.3H342.875V24.7H354.266V23.3Z"></path>
</svg>
