<svg version="1.1" xmlns="http://www.w3.org/2000/svg" xmlns:xlink="http://www.w3.org/1999/xlink" width="481.89901" height="78.81839" viewBox="0,0,481.89901,78.81839"><g transform="translate(-1.25746,-296.31678)"><g stroke-miterlimit="10"><path d="M354.02735,362.83784v-66.52106h129.12913v66.52106z" fill-opacity="0.00784" fill="#00ffff" fill-rule="nonzero" stroke="none" stroke-width="0" stroke-linecap="butt"/><path d="M18.86858,346.91731c0.56573,0.17603 1.08109,0.42735 1.54626,0.75414c0.465,0.32679 0.86098,0.74803 1.18793,1.2634c0.32679,0.50282 0.57812,1.09992 0.75414,1.79131c0.17603,0.69123 0.26404,1.48319 0.26404,2.3757v1.35768c0,4.37442 -2.18729,6.56171 -6.56187,6.56171h-14.80161v-27.03895h14.02864c4.37442,0 6.56171,2.19356 6.56171,6.58069v0.4901c0,1.52116 -0.24505,2.76557 -0.73532,3.73355c-0.47772,0.95527 -1.22558,1.66549 -2.24393,2.13065zM5.04749,349.23654v7.99469h10.89847c1.01818,0 1.75366,-0.23878 2.20611,-0.71649c0.45261,-0.47772 0.67884,-1.22558 0.67884,-2.24377v-2.093c0,-1.03073 -0.22623,-1.77876 -0.67884,-2.24377c-0.45245,-0.46517 -1.18793,-0.69767 -2.20611,-0.69767zM5.04749,337.77233v7.693h10.38938c0.93017,-0.03765 1.59646,-0.28914 1.99871,-0.75414c0.4148,-0.47772 0.6222,-1.20676 0.6222,-2.18729v-1.77249c0,-1.03073 -0.22623,-1.78488 -0.67868,-2.26259c-0.45261,-0.47772 -1.18793,-0.71649 -2.20611,-0.71649zM28.03239,340.93999h3.69574v16.3667h10.35173v-16.3667h3.71408v20.08126h-3.71408v-3.39405c-0.03765,0.46517 -0.16331,0.90507 -0.37715,1.31987c-0.21368,0.41496 -0.4901,0.7794 -0.82961,1.09364c-0.32679,0.30169 -0.70394,0.54063 -1.1313,0.71649c-0.42735,0.17603 -0.87997,0.26404 -1.35768,0.26404h-6.656c-0.50282,0 -0.98037,-0.09429 -1.43299,-0.28286c-0.45261,-0.20113 -0.84843,-0.465 -1.18793,-0.79196c-0.32679,-0.33934 -0.59083,-0.73532 -0.79196,-1.18777c-0.18858,-0.45261 -0.28286,-0.93661 -0.28286,-1.45197zM55.88243,340.93999v20.08126h-3.71521v-20.08126zM51.97897,333.20918h4.09171v3.86549h-4.09171zM65.96931,333.20918v27.81208h-3.69429v-27.81208zM72.15437,344.65456c0,-0.51537 0.09493,-0.99936 0.28319,-1.45181c0.20113,-0.45261 0.465,-0.84232 0.79163,-1.16911c0.3395,-0.33934 0.73532,-0.60338 1.18745,-0.79196c0.45374,-0.20113 0.93001,-0.30169 1.43363,-0.30169h10.35238v-7.73082h3.7136v27.81208h-3.7136v-3.39405c-0.03862,0.46517 -0.16412,0.90507 -0.37812,1.31987c-0.214,0.41496 -0.48914,0.7794 -0.82864,1.09364c-0.32824,0.30169 -0.70475,0.54063 -1.13274,0.71649c-0.42639,0.17603 -0.87852,0.26404 -1.3564,0.26404h-6.65648c-0.50362,0 -0.97989,-0.09429 -1.43363,-0.28286c-0.45213,-0.20113 -0.84795,-0.465 -1.18745,-0.79196c-0.32663,-0.33934 -0.59051,-0.73532 -0.79163,-1.18777c-0.18825,-0.45261 -0.28319,-0.93661 -0.28319,-1.45197zM75.85026,357.30669h10.35238v-12.65214h-10.35238zM106.50997,352.83799h3.78922v1.43299c0,1.01818 0.22687,1.76605 0.679,2.24377c0.45213,0.47772 1.19389,0.71649 2.22526,0.71649h7.78761c1.02977,0 1.77152,-0.23878 2.22365,-0.71649c0.45374,-0.47772 0.679,-1.22558 0.679,-2.24377v-2.093c0,-1.03073 -0.22526,-1.77876 -0.679,-2.24377c-0.45213,-0.46517 -1.19389,-0.69767 -2.22365,-0.69767h-7.99518v-3.7712h7.88094c0.94288,-0.03765 1.61545,-0.28914 2.0177,-0.75414c0.41512,-0.47772 0.62269,-1.20676 0.62269,-2.18729v-1.77249c0,-1.03073 -0.23331,-1.78488 -0.69831,-2.26259c-0.45213,-0.47772 -1.18745,-0.71649 -2.20595,-0.71649h-7.03299c-1.0185,0 -1.75382,0.23878 -2.20595,0.71649c-0.45213,0.47772 -0.679,1.23186 -0.679,2.26259v1.43315h-3.78922v-1.62156c0,-4.38713 2.18665,-6.58069 6.56155,-6.58069h7.25986c2.22365,0 3.87128,0.54047 4.93966,1.62156c1.08126,1.08109 1.62188,2.73403 1.62188,4.95913v0.4901c0,1.52116 -0.27031,2.77812 -0.81094,3.7712c-0.52776,0.98053 -1.30169,1.70957 -2.32019,2.18729c1.14401,0.33934 2.0177,1.01818 2.62108,2.03636c0.60338,1.01818 0.90587,2.36943 0.90587,4.0539v1.35768c0,4.37442 -2.18825,6.56171 -6.56155,6.56171h-8.03218c-4.38777,0 -6.58085,-2.18729 -6.58085,-6.56171zM136.96049,337.8478v3.48817h-3.86484v-3.48817c0,-0.52808 0.10137,-1.02462 0.30249,-1.48962c0.20113,-0.47772 0.47788,-0.88624 0.82864,-1.22558c0.35237,-0.35205 0.76106,-0.62864 1.22607,-0.82977c0.47788,-0.21368 0.97989,-0.32051 1.50764,-0.32051h12.23814c0.52776,0 1.02494,0.10684 1.48994,0.32051c0.47788,0.20113 0.88657,0.47772 1.22446,0.82977c0.35237,0.33934 0.62912,0.74787 0.83025,1.22558c0.214,0.465 0.32019,0.96154 0.32019,1.48962v4.94015c0,0.52792 -0.04988,0.99936 -0.14964,1.41416c-0.10137,0.4148 -0.26549,0.79196 -0.49075,1.1313c-0.214,0.32679 -0.49075,0.6222 -0.83025,0.88624c-0.3395,0.26388 -0.75463,0.51537 -1.24377,0.75414l-13.38858,6.279v3.90314h12.72889v-3.46951h3.86484v7.33484h-20.45857v-7.10861c0,-0.52792 0.04988,-0.99936 0.15125,-1.41416c0.11263,-0.4148 0.27675,-0.78568 0.49075,-1.11247c0.21239,-0.32679 0.48914,-0.6222 0.82864,-0.88624c0.35237,-0.27643 0.76106,-0.52792 1.22607,-0.75414l13.40628,-6.29783v-5.6zM181.38529,357.15593c0,0.52792 -0.10137,1.03073 -0.30249,1.50845c-0.20113,0.465 -0.47788,0.87353 -0.82864,1.22558c-0.35237,0.35189 -0.7675,0.62848 -1.24537,0.82961c-0.465,0.20113 -0.96058,0.30169 -1.48994,0.30169h-13.51891c-0.52776,0 -1.02977,-0.10056 -1.50764,-0.30169c-0.465,-0.20113 -0.87369,-0.47772 -1.22607,-0.82961c-0.35237,-0.35205 -0.62912,-0.76058 -0.83025,-1.22558c-0.20113,-0.47772 -0.30089,-0.98053 -0.30089,-1.50845v-19.30813c0,-0.52808 0.09976,-1.02462 0.30089,-1.48962c0.20113,-0.47772 0.47788,-0.88624 0.83025,-1.22558c0.35237,-0.35205 0.76106,-0.62864 1.22607,-0.82977c0.47788,-0.21368 0.97989,-0.32051 1.50764,-0.32051h13.51891c0.52936,0 1.02494,0.10684 1.48994,0.32051c0.47788,0.20113 0.893,0.47772 1.24537,0.82977c0.35076,0.33934 0.62751,0.74787 0.82864,1.22558c0.20113,0.465 0.30249,0.96154 0.30249,1.48962zM163.99991,337.8478v19.30813h13.51891v-19.30813z" fill="#ffffff" fill-rule="nonzero" stroke="none" stroke-width="1" stroke-linecap="butt"/><path d="M394.73144,314.00714v18.75091c0,2.06423 -1.58884,3.75344 -3.52851,3.75344h-24.70252l-7.05992,7.50661l0.01739,-30.01096c0,-2.06423 1.57145,-3.75313 3.51112,-3.75313h28.23393c1.93967,0 3.52851,1.68894 3.52851,3.75313zM378.35879,329.21615c-0.71904,-0.78694 -1.92226,-0.78694 -2.6413,0c-0.70165,0.76537 -0.70165,1.96771 0,2.73276c0.71904,0.78727 1.92226,0.78727 2.6413,0c0.69874,-0.76505 0.69874,-1.96739 0,-2.73276zM378.61973,314.41328c-0.27543,-0.90475 -0.64364,-1.54585 -1.53955,-1.54306c-0.8901,0.00246 -1.44387,1.0244 -1.62944,1.54306c-0.32472,0.89828 0.66686,10.24861 1.20033,10.85423c0.20875,0.23682 0.49289,0.41568 0.91329,0c0.4465,-0.44097 1.28152,-10.10396 1.05535,-10.85423zM361.49615,316.75161h6.40467c0.40011,0 0.72483,-0.34505 0.72483,-0.7709c0,-0.42553 -0.32472,-0.77092 -0.72483,-0.77092h-6.40467c-0.40011,0 -0.72484,0.34505 -0.72484,0.77092c0,0.42553 0.32472,0.7709 0.72484,0.7709zM371.40614,318.06525c0.40011,0 0.72484,0.34505 0.72484,0.77092c0,0.42553 -0.32472,0.7709 -0.72484,0.7709h-9.90999c-0.40011,0 -0.72484,-0.34538 -0.72484,-0.7709c0,-0.42586 0.32472,-0.77092 0.72484,-0.77092zM361.49615,322.42957h9.60556c0.40011,0 0.72484,-0.34538 0.72484,-0.77092c0,-0.42586 -0.32474,-0.7709 -0.72484,-0.7709h-9.60556c-0.40011,0 -0.72484,0.34505 -0.72484,0.7709c0,0.42553 0.32472,0.77092 0.72484,0.77092zM362.89654,323.73089c0.40011,0 0.72483,0.34505 0.72483,0.7709c0,0.42586 -0.32472,0.77092 -0.72483,0.77092h-1.40039c-0.40011,0 -0.72484,-0.34505 -0.72484,-0.77092c0,-0.42586 0.32472,-0.7709 0.72484,-0.7709z" fill="#ffffff" fill-rule="evenodd" stroke="none" stroke-width="1" stroke-linecap="butt"/><path d="M36.50278,345.91758l2,10" fill="none" fill-rule="nonzero" stroke="#000000" stroke-width="0.5" stroke-linecap="round"/><path d="M99.67778,329.38516l82.75,40.25" fill="none" fill-rule="nonzero" stroke="#ff0000" stroke-width="5" stroke-linecap="round"/><path d="M190.92778,322.13516l-87.5,50.5" fill="none" fill-rule="nonzero" stroke="#ff0000" stroke-width="5" stroke-linecap="round"/><path d="M366.43652,340.80761h11.6611v2.28756h-9.37363v4.57493h8.00075v2.28757h-8.00075v6.85135h-2.28747zM391.13038,351.98852h-7.86706v2.62225h7.86706v2.19824c0,0 -3.23084,0 -4.63719,0c-1.1737,0 -3.22987,0 -3.22987,0c-0.29708,0 -0.5799,-0.05579 -0.84746,-0.16739c-0.26852,-0.11903 -0.50275,-0.27519 -0.70367,-0.46868c-0.19329,-0.20082 -0.34946,-0.43515 -0.46848,-0.70291c-0.11141,-0.26785 -0.16759,-0.55428 -0.16759,-0.85926v-7.48742c0,-0.30499 0.05618,-0.59141 0.16759,-0.85917c0.11903,-0.26785 0.27519,-0.49848 0.46848,-0.69187c0.20092,-0.20082 0.43516,-0.35708 0.70367,-0.46868c0.26756,-0.11903 0.55038,-0.17854 0.84746,-0.17854h5.66844c0.30566,0 0.59227,0.05951 0.85984,0.17854c0.26756,0.1116 0.498,0.26785 0.6913,0.46868c0.20092,0.19339 0.35708,0.42401 0.46944,0.69187c0.11903,0.26776 0.17806,0.55418 0.17806,0.85917zM383.26331,347.12336v2.66692h5.66844v-2.66692zM404.85536,351.98852h-7.86706v2.62225h7.86706v2.19824h-7.86706c-0.29708,0 -0.57989,-0.05579 -0.84746,-0.16739c-0.26756,-0.11903 -0.50276,-0.27519 -0.70367,-0.46868c-0.19329,-0.20082 -0.34945,-0.43515 -0.46848,-0.70291c-0.11141,-0.26785 -0.16664,-0.55428 -0.16664,-0.85926v-7.48742c0,-0.30499 0.05523,-0.59141 0.16664,-0.85917c0.11903,-0.26785 0.27519,-0.49848 0.46848,-0.69187c0.20092,-0.20082 0.43611,-0.35708 0.70367,-0.46868c0.26756,-0.11903 0.55037,-0.17854 0.84746,-0.17854h5.66939c0.30471,0 0.59132,0.05951 0.85889,0.17854c0.26756,0.1116 0.498,0.26785 0.6913,0.46868c0.20092,0.19339 0.35708,0.42401 0.46944,0.69187c0.11903,0.26776 0.17806,0.55418 0.17806,0.85917zM396.9883,347.12336v2.66692h5.66939v-2.66692zM408.52704,347.12336c0,-0.30499 0.05523,-0.59141 0.16663,-0.85917c0.11903,-0.26785 0.27518,-0.49848 0.46943,-0.69187c0.20092,-0.20082 0.43516,-0.35708 0.70272,-0.46868c0.26756,-0.11903 0.55038,-0.17854 0.84746,-0.17854h6.12644v-4.57503h2.19863v16.45894h-2.19863v-2.00857c-0.02191,0.27528 -0.09617,0.53562 -0.22281,0.78109c-0.12664,0.24557 -0.29042,0.46125 -0.49133,0.64721c-0.19329,0.17854 -0.41611,0.31994 -0.6694,0.42401c-0.25329,0.10417 -0.52085,0.15625 -0.80365,0.15625h-3.93925c-0.29708,0 -0.5799,-0.0558 -0.84746,-0.1674c-0.26756,-0.11903 -0.50181,-0.27519 -0.70272,-0.46868c-0.19425,-0.20082 -0.35041,-0.43515 -0.46943,-0.70291c-0.11141,-0.26785 -0.16663,-0.55428 -0.16663,-0.85926zM410.71329,354.61078h6.12644v-7.48742h-6.12644zM433.20898,354.61078c0,0.30499 -0.05904,0.59141 -0.17807,0.85926c-0.11141,0.26776 -0.26756,0.50209 -0.46848,0.70291c-0.19329,0.19349 -0.42468,0.34965 -0.69225,0.46868c-0.26756,0.1116 -0.55418,0.16739 -0.85888,0.16739h-6.12645c-0.29708,0 -0.57989,-0.05579 -0.84746,-0.16739c-0.26852,-0.11903 -0.50275,-0.27519 -0.70367,-0.46868c-0.19329,-0.20082 -0.34946,-0.43515 -0.46849,-0.70291c-0.11141,-0.26785 -0.16758,-0.55428 -0.16758,-0.85926v-14.26069h2.18721v6.67291c0.01524,-0.29014 0.08189,-0.56171 0.20092,-0.81461c0.11903,-0.26033 0.27519,-0.48352 0.46848,-0.66949c0.20092,-0.19349 0.43229,-0.34222 0.69224,-0.44639c0.25995,-0.1116 0.53895,-0.1674 0.83699,-0.1674h3.92782c0.30471,0 0.59132,0.05951 0.85888,0.17854c0.26756,0.1116 0.49896,0.26785 0.69225,0.46868c0.20092,0.19339 0.35707,0.42401 0.46848,0.69187c0.11903,0.26776 0.17807,0.55418 0.17807,0.85917zM424.88486,347.12336v7.48742h6.12645v-7.48742zM436.86923,351.6203c0,-0.30499 0.05619,-0.58769 0.16759,-0.84803c0.11903,-0.26785 0.27519,-0.50219 0.46848,-0.70301c0.20092,-0.20092 0.43516,-0.35707 0.70272,-0.46867c0.26852,-0.11903 0.55132,-0.17854 0.84841,-0.17854h5.66844v-2.2987h-7.17481v-2.19825h7.17481c0.30566,0 0.59132,0.05951 0.85984,0.17854c0.26756,0.1116 0.498,0.26785 0.6913,0.46868c0.20092,0.19339 0.35707,0.42401 0.46848,0.69187c0.11903,0.26776 0.17901,0.55418 0.17901,0.85917v9.68567h-2.19863v-2.00857c-0.02191,0.27528 -0.09617,0.53561 -0.22281,0.78109c-0.12664,0.24557 -0.29042,0.46124 -0.49133,0.64721c-0.19329,0.17854 -0.41611,0.31994 -0.6694,0.42401c-0.25329,0.10417 -0.52085,0.15625 -0.80366,0.15625h-3.48124c-0.29708,0 -0.57989,-0.05579 -0.84841,-0.16739c-0.26756,-0.11903 -0.50181,-0.27519 -0.70272,-0.46867c-0.19329,-0.20082 -0.34946,-0.43516 -0.46848,-0.70291c-0.11141,-0.26785 -0.16759,-0.55428 -0.16759,-0.85926zM439.05644,354.61078h5.66844v-2.99048h-5.66844zM452.78142,347.12336v7.48742h5.66844v-2.00857h2.19863v2.00857c0,0.30499 -0.05998,0.59141 -0.17901,0.85926c-0.11141,0.26776 -0.26757,0.50209 -0.46848,0.70291c-0.19329,0.19349 -0.42373,0.34965 -0.6913,0.46868c-0.26852,0.1116 -0.55418,0.16739 -0.85984,0.16739h-5.66844c-0.29708,0 -0.57989,-0.05579 -0.84745,-0.16739c-0.26852,-0.11903 -0.50276,-0.27519 -0.70368,-0.46868c-0.19329,-0.20082 -0.34945,-0.43515 -0.46848,-0.70291c-0.11141,-0.26785 -0.16758,-0.55428 -0.16758,-0.85926v-7.48742c0,-0.30499 0.05618,-0.59141 0.16758,-0.85917c0.11903,-0.26785 0.27519,-0.49848 0.46848,-0.69187c0.20092,-0.20082 0.43516,-0.35708 0.70368,-0.46868c0.26756,-0.11903 0.55037,-0.17854 0.84745,-0.17854h5.66844c0.30566,0 0.59132,0.05951 0.85984,0.17854c0.26756,0.1116 0.498,0.26785 0.6913,0.46868c0.20092,0.19339 0.35708,0.42401 0.46848,0.69187c0.11903,0.26776 0.17901,0.55418 0.17901,0.85917v2.00857h-2.19863v-2.00857zM472.17486,356.80902l-5.66844,-5.07712v5.07712h-2.1872v-16.45894h2.1872v9.26166l5.21139,-4.68663h3.09084l-6.38259,5.73557l6.83964,6.14835z" fill="#ffffff" fill-rule="nonzero" stroke="none" stroke-width="1" stroke-linecap="butt"/><path d="M414.86784,321.84882v16.00142h-2.28756v-6.85136h-9.16115v6.85136h-2.28751l-1,-16.00142h3.28751v6.86249h9.16115v-6.86249zM428.81602,333.02973h-7.86678v2.62226h7.86678v2.19825h-7.86678c-0.29756,0 -0.58026,-0.0558 -0.84803,-0.1674c-0.26785,-0.11902 -0.50219,-0.27518 -0.70301,-0.46867c-0.19339,-0.20082 -0.34965,-0.43516 -0.46868,-0.70292c-0.11159,-0.26785 -0.16739,-0.55428 -0.16739,-0.85926v-7.48742c0,-0.30499 0.05579,-0.59141 0.16739,-0.85917c0.11903,-0.26785 0.27529,-0.49848 0.46868,-0.69187c0.20082,-0.20082 0.43516,-0.35707 0.70301,-0.46867c0.26776,-0.11902 0.55046,-0.17854 0.84803,-0.17854h5.66853c0.30499,0 0.59141,0.05951 0.85927,0.17854c0.26776,0.1116 0.49838,0.26785 0.69178,0.46867c0.20092,0.19339 0.35707,0.42401 0.46867,0.69187c0.11902,0.26776 0.17854,0.55418 0.17854,0.85917zM420.94924,328.16456v2.66692h5.66853v-2.66692zM434.67433,321.39129v16.45895h-2.18711v-16.45895zM448.84571,335.65199c0,0.30499 -0.05951,0.59141 -0.17854,0.85926c-0.11159,0.26776 -0.26785,0.50209 -0.46867,0.70292c-0.19339,0.19349 -0.42402,0.34965 -0.69187,0.46867c-0.26776,0.11159 -0.55418,0.1674 -0.85917,0.1674h-6.12607v4.79822h-2.1871v-16.68214h2.1871v2.00857c0.02228,-0.28271 0.09675,-0.54303 0.2232,-0.78109c0.12645,-0.24547 0.28633,-0.45753 0.47981,-0.63606c0.19339,-0.18597 0.41658,-0.33098 0.66949,-0.43516c0.26033,-0.10417 0.53561,-0.15625 0.82574,-0.15625h3.92782c0.30499,0 0.59141,0.05952 0.85917,0.17854c0.26785,0.1116 0.49848,0.26785 0.69187,0.46867c0.20082,0.19339 0.35707,0.42401 0.46867,0.69187c0.11902,0.26776 0.17854,0.55418 0.17854,0.85917zM446.64747,335.65199v-7.48742h-6.12607v7.48742zM473.55079,337.85023h-0.71415c-1.53247,0 -2.6074,-0.44258 -3.22481,-1.32784c-0.63236,0.88526 -1.70358,1.32784 -3.21367,1.32784h-3.38107c-2.59627,0 -3.8944,-1.29442 -3.8944,-3.88317v-0.80347c0,-0.99685 0.17863,-1.79651 0.53571,-2.39906c0.35708,-0.60255 0.87402,-1.00428 1.55103,-1.2051c-0.60264,-0.28271 -1.0638,-0.71415 -1.38374,-1.29442c-0.31242,-0.58769 -0.46867,-1.33156 -0.46867,-2.23176v-0.29005c0,-2.59626 1.29442,-3.89439 3.88326,-3.89439h3.38097c1.3168,0 2.29128,0.31985 2.92363,0.95963c0.63968,0.63978 0.95963,1.61798 0.95963,2.93477v0.95963h-2.23176v-0.84812c0,-0.60998 -0.13387,-1.05627 -0.40164,-1.33898c-0.26785,-0.28271 -0.70672,-0.42401 -1.31679,-0.42401h-3.2471c-0.60255,0 -1.0378,0.1413 -1.30555,0.42401c-0.26786,0.28271 -0.40174,0.729 -0.40174,1.33898v1.04895c0,0.58027 0.11902,1.01171 0.35708,1.29442c0.24547,0.27518 0.64349,0.42401 1.19396,0.44629h10.39982v2.23177h-2.81194v2.97933c0,0.60255 0.13387,1.04514 0.40163,1.32784c0.26786,0.28271 0.70301,0.42401 1.30556,0.42401h1.10474zM466.77752,335.60733c0.60998,0 1.04894,-0.1413 1.3167,-0.42401c0.26785,-0.28271 0.40173,-0.72529 0.40173,-1.32784v-2.97933h-5.41192c-0.60998,0 -1.04894,0.13759 -1.3167,0.41287c-0.26785,0.27519 -0.40173,0.71786 -0.40173,1.32784v1.23862c0,0.60255 0.13388,1.04514 0.40173,1.32784c0.26776,0.28271 0.70672,0.42401 1.3167,0.42401z" fill="#ffffff" fill-rule="nonzero" stroke="none" stroke-width="1" stroke-linecap="butt"/></g></g></svg>