<svg version="1.1" xmlns="http://www.w3.org/2000/svg" xmlns:xlink="http://www.w3.org/1999/xlink" width="5.7832" height="7.50195" viewBox="0,0,5.7832,7.50195"><g transform="translate(-237.1084,-172.74805)"><g data-paper-data="{&quot;isPaintingLayer&quot;:true}" fill="#ffffff" fill-rule="nonzero" stroke="#ffffff" stroke-width="0.5" stroke-linecap="butt" stroke-linejoin="miter" stroke-miterlimit="10" stroke-dasharray="" stroke-dashoffset="0" style="mix-blend-mode: normal"><path d="M242.6416,178.30078c-0.00977,0.56966 -0.15299,0.9961 -0.42969,1.2793c-0.27669,0.27995 -0.69987,0.41992 -1.26953,0.41992h-1.87988c-1.13607,0 -1.7041,-0.56641 -1.7041,-1.69922v-0.41992h0.98144v0.37109c0,0.26367 0.0586,0.45736 0.17578,0.58106c0.11719,0.1237 0.30925,0.18554 0.57618,0.18554h1.8164c0.26693,0 0.45899,-0.06184 0.57617,-0.18554c0.11719,-0.1237 0.17578,-0.31739 0.17578,-0.58106v-0.94238c0,-0.26367 -0.05859,-0.45573 -0.17578,-0.57617c-0.11718,-0.1237 -0.30924,-0.18555 -0.57617,-0.18555h-3.34961v-3.5498h4.90235v1.00098h-3.90137v1.57227h2.38281c0.57292,0 0.99935,0.13997 1.2793,0.41992c0.27995,0.27669 0.41992,0.70313 0.41992,1.2793z"/></g></g></svg>