<svg version="1.1" xmlns="http://www.w3.org/2000/svg" xmlns:xlink="http://www.w3.org/1999/xlink" width="21.35562" height="27.26978" viewBox="0,0,21.35562,27.26978"><g transform="translate(-229.42204,-166.61267)"><g data-paper-data="{&quot;isPaintingLayer&quot;:true}" fill="#ffffff" fill-rule="nonzero" stroke="none" stroke-width="1" stroke-linecap="butt" stroke-linejoin="miter" stroke-miterlimit="10" stroke-dasharray="" stroke-dashoffset="0" style="mix-blend-mode: normal"><path d="M243.91274,178.19377c0.95075,-0.03803 1.62903,-0.2916 2.03469,-0.76066c0.40566,-0.48176 0.60849,-1.21706 0.60849,-2.20593v-1.78756c0,-1.03958 -0.22807,-1.80024 -0.68451,-2.28198c-0.45645,-0.48176 -1.19813,-0.72263 -2.22497,-0.72263h-7.09318c-1.0269,0 -1.76854,0.24087 -2.22494,0.72263c-0.4564,0.48175 -0.68459,1.24241 -0.68459,2.28198v1.78756c0,0.98887 0.20283,1.72417 0.60852,2.20593c0.41837,0.46907 1.09662,0.72263 2.03477,0.76066zM244.02677,190.06014c1.03955,0 1.78762,-0.24084 2.24391,-0.72268c0.45645,-0.48168 0.68467,-1.23599 0.68467,-2.26292v-2.11087c0,-1.03955 -0.22822,-1.79385 -0.68467,-2.26292c-0.45629,-0.46907 -1.20436,-0.70368 -2.24391,-0.70368h-7.85384c-1.03958,0 -1.78756,0.23461 -2.24396,0.70368c-0.4564,0.46907 -0.68459,1.22337 -0.68459,2.26292v2.11087c0,1.02693 0.22819,1.78123 0.68459,2.26292c0.4564,0.48184 1.20438,0.72268 2.24396,0.72268zM236.05883,193.88245c-4.42453,0 -6.63679,-2.2059 -6.63679,-6.6177v-1.36934c0,-1.69867 0.30427,-3.06162 0.91279,-4.08855c0.60854,-1.02683 1.48964,-1.71144 2.64331,-2.05373c-1.0269,-0.48176 -1.81292,-1.21706 -2.35805,-2.20593c-0.53247,-1.00153 -0.7987,-2.26932 -0.7987,-3.80332v-0.49443c0,-4.42453 2.20593,-6.63679 6.61778,-6.63679h7.32139c4.41178,0 6.61784,2.21226 6.61784,6.63679v0.49443c0,1.534 -0.27262,2.80179 -0.81771,3.80332c-0.53247,0.98887 -1.31217,1.72417 -2.33909,2.20593c1.15358,0.34229 2.03469,1.0269 2.64334,2.05373c0.60849,1.02693 0.91274,2.38988 0.91274,4.08855v1.36934c0,4.4118 -2.2059,6.6177 -6.6177,6.6177z"/></g></g></svg>