<svg version="1.1" xmlns="http://www.w3.org/2000/svg" xmlns:xlink="http://www.w3.org/1999/xlink" width="236.05407" height="20.63965" viewBox="0,0,236.05407,20.63965"><g transform="translate(-241.18707,-169.68018)"><g data-paper-data="{&quot;isPaintingLayer&quot;:true}" fill="#83a837" fill-rule="nonzero" stroke="none" stroke-width="1" stroke-linecap="butt" stroke-linejoin="miter" stroke-miterlimit="10" stroke-dasharray="" stroke-dashoffset="0" style="mix-blend-mode: normal"><path d="M250.99248,177.95283c0.31493,0.09799 0.60189,0.23796 0.86086,0.41993c0.25896,0.18197 0.47941,0.41644 0.66138,0.7034c0.18197,0.27994 0.32196,0.61238 0.41993,0.99734c0.09799,0.38493 0.14699,0.82586 0.14699,1.32278v0.75586c0,2.4356 -1.21781,3.65341 -3.65341,3.65341h-8.24116v-15.05455h7.81072c2.43563,0 3.65341,1.2213 3.65341,3.6639v0.27296c0,0.84686 -0.13648,1.53975 -0.40942,2.07867c-0.26596,0.5319 -0.6824,0.92734 -1.2493,1.1863zM243.29721,179.24413v4.45127h6.06802c0.56692,0 0.97634,-0.13297 1.2283,-0.39893c0.25196,-0.26596 0.37796,-0.6824 0.37796,-1.2493v-1.16533c0,-0.5739 -0.12599,-0.99034 -0.37796,-1.24927c-0.25196,-0.25896 -0.66138,-0.38844 -1.2283,-0.38844zM243.29721,172.86116v4.28331h5.78457c0.51792,-0.021 0.88885,-0.16097 1.11282,-0.41993c0.23096,-0.26596 0.34644,-0.67189 0.34644,-1.21781v-0.98683c0,-0.57392 -0.12597,-0.99385 -0.37793,-1.25979c-0.25196,-0.26596 -0.6614,-0.39895 -1.2283,-0.39895zM258.15231,176.69305v9.11251h-2.05767v-11.18069h2.05767v1.9737c0.014,-0.27296 0.07697,-0.52843 0.18897,-0.76637c0.11197,-0.24496 0.25896,-0.45493 0.44093,-0.62992c0.18897,-0.18197 0.40593,-0.32193 0.65089,-0.41993c0.24496,-0.10497 0.50741,-0.15748 0.78737,-0.15748h2.19415c0.28694,0 0.5529,0.056 0.79781,0.16799c0.25203,0.10497 0.47253,0.25196 0.6615,0.44093c0.18897,0.18197 0.33589,0.39893 0.44076,0.65089c0.11204,0.25196 0.16818,0.52141 0.16818,0.80837v1.88968h-2.06825v-1.88968zM276.51384,181.27029h-7.40143v2.46711h7.40143v2.06816h-7.40143c-0.27975,0 -0.54587,-0.05249 -0.79767,-0.15748c-0.25203,-0.11197 -0.47253,-0.25896 -0.6615,-0.44093c-0.18204,-0.18897 -0.32896,-0.40944 -0.441,-0.66138c-0.10487,-0.25196 -0.15743,-0.52144 -0.15743,-0.80837v-7.04435c0,-0.28696 0.05256,-0.55641 0.15743,-0.80837c0.11204,-0.25196 0.25896,-0.46893 0.441,-0.65089c0.18897,-0.18897 0.40947,-0.33596 0.6615,-0.44093c0.25179,-0.11199 0.51792,-0.16799 0.79767,-0.16799h5.33332c0.28691,0 0.55639,0.056 0.80818,0.16799c0.25203,0.10497 0.46895,0.25196 0.65099,0.44093c0.18897,0.18197 0.33589,0.39893 0.441,0.65089c0.11204,0.25196 0.16794,0.52141 0.16794,0.80837zM269.11241,176.69305v2.50909h5.33332v-2.50909zM279.96778,180.92385c0,-0.28694 0.05256,-0.5529 0.15743,-0.79786c0.11204,-0.25196 0.25896,-0.47244 0.441,-0.6614c0.18897,-0.18897 0.40947,-0.33593 0.66126,-0.44093c0.25203,-0.11197 0.51792,-0.16797 0.79791,-0.16797h5.33308v-2.16264h-6.7502v-2.06818h6.7502c0.28715,0 0.55662,0.056 0.80842,0.16799c0.25203,0.10497 0.46895,0.25196 0.65099,0.44093c0.18897,0.18197 0.33589,0.39893 0.441,0.65089c0.1118,0.25196 0.16794,0.52141 0.16794,0.80837v9.11251h-2.06835v-1.8897c-0.02078,0.25896 -0.09078,0.50392 -0.20975,0.73489c-0.11921,0.23096 -0.27306,0.43393 -0.46202,0.60889c-0.18204,0.16799 -0.39203,0.30096 -0.62996,0.39895c-0.23794,0.09797 -0.48997,0.14697 -0.75586,0.14697h-3.27548c-0.27998,0 -0.54587,-0.05249 -0.79791,-0.15748c-0.25179,-0.11197 -0.47229,-0.25896 -0.66126,-0.44093c-0.18204,-0.18897 -0.32896,-0.40944 -0.441,-0.66138c-0.10487,-0.25196 -0.15743,-0.52144 -0.15743,-0.80837zM282.02538,183.7374h5.33308v-2.81356h-5.33308zM300.27142,185.80556l-5.33308,-4.77672v4.77672h-2.0576v-15.48498h2.0576v8.71359l4.90259,-4.4093h2.90806l-6.00485,5.39613l6.43534,5.78457zM310.04531,170.75101h12.04172v2.15215h-4.94488v12.90241h-2.1522v-12.90241h-4.94464zM326.63271,174.62487v11.18069h-2.06811v-11.18069zM324.45949,170.32057h2.2781v2.15216h-2.2781zM339.05212,176.69305v9.11251h-2.06811v-9.11251h-4.73465v9.11251h-2.05784v-11.18069h2.05784v1.9737c0.01386,-0.27296 0.07692,-0.52843 0.18897,-0.76637c0.1118,-0.24496 0.25896,-0.45493 0.44076,-0.62992c0.18897,-0.18197 0.40612,-0.32193 0.65099,-0.41993c0.24487,-0.10497 0.50741,-0.15748 0.7874,-0.15748h2.66654c0.27282,0 0.53178,0.05251 0.77688,0.15748c0.24487,0.09799 0.46178,0.23796 0.65075,0.41993c0.18897,0.17499 0.33947,0.38495 0.45151,0.62992c0.11897,0.23794 0.18204,0.49341 0.18897,0.76637c0.01409,-0.27296 0.07358,-0.52843 0.17845,-0.76637c0.11204,-0.24496 0.25896,-0.45493 0.441,-0.62992c0.18897,-0.18197 0.40588,-0.32193 0.65099,-0.41993c0.24487,-0.10497 0.50741,-0.15748 0.78716,-0.15748h2.66678c0.28691,0 0.55639,0.056 0.80818,0.16799c0.25203,0.10497 0.46895,0.25196 0.65099,0.44093c0.18897,0.18197 0.33589,0.39893 0.441,0.65089c0.1118,0.25196 0.16794,0.52141 0.16794,0.80837v9.11251h-2.06811v-9.11251zM358.75734,181.27029h-7.40119v2.46711h7.40119v2.06816h-7.40119c-0.27998,0 -0.54587,-0.05249 -0.79791,-0.15748c-0.25179,-0.11197 -0.47229,-0.25896 -0.66126,-0.44093c-0.18204,-0.18897 -0.32896,-0.40944 -0.441,-0.66138c-0.10511,-0.25196 -0.15743,-0.52144 -0.15743,-0.80837v-7.04435c0,-0.28696 0.05232,-0.55641 0.15743,-0.80837c0.11204,-0.25196 0.25896,-0.46893 0.441,-0.65089c0.18897,-0.18897 0.40947,-0.33596 0.66126,-0.44093c0.25203,-0.11199 0.51792,-0.16799 0.79791,-0.16799h5.33308c0.28691,0 0.55639,0.056 0.80842,0.16799c0.25203,0.10497 0.46895,0.25196 0.65099,0.44093c0.18897,0.18197 0.33589,0.39893 0.44076,0.65089c0.11204,0.25196 0.16794,0.52141 0.16794,0.80837zM351.35615,176.69305v2.50909h5.33308v-2.50909zM374.01147,188.28316v2.03667h-0.30435c-0.79791,0 -1.52224,-0.12599 -2.17322,-0.37793c-0.65099,-0.24496 -1.20737,-0.59841 -1.66916,-1.06033c-0.45509,-0.45493 -0.80842,-1.00785 -1.06045,-1.65874c-0.24487,-0.65089 -0.36742,-1.37527 -0.36742,-2.17315v-10.09936c0,-0.79786 0.12255,-1.52224 0.36742,-2.17313c0.25203,-0.65089 0.60536,-1.20381 1.06045,-1.65874c0.46178,-0.46193 1.01817,-0.81537 1.66916,-1.06033c0.65099,-0.25196 1.37532,-0.37794 2.17322,-0.37794h0.30435v2.04716h-0.30435c-0.48997,0 -0.92739,0.07 -1.31249,0.20996c-0.38486,0.13999 -0.71023,0.34644 -0.97612,0.61941c-0.26613,0.26596 -0.47253,0.59141 -0.61945,0.97634c-0.13999,0.38495 -0.20999,0.82237 -0.20999,1.3123v10.31981c0,0.99385 0.26947,1.76022 0.80842,2.29914c0.54587,0.5459 1.31559,0.81886 2.30963,0.81886zM385.01376,185.80556l-5.61665,-11.0337v11.0337h-2.1522v-15.05455h2.35168l5.73204,11.33817l5.74255,-11.33817h2.34117v15.05455h-2.14169v-11.0337l-5.61665,11.0337zM399.25999,174.62487v11.18069h-2.06835v-11.18069zM397.08677,170.32057h2.2781v2.15216h-2.2781zM412.70808,185.80556h-2.06811v-9.11251h-5.76357v9.11251h-2.0576v-11.18069h2.0576v1.9737c0.01409,-0.27296 0.07716,-0.52843 0.18897,-0.76637c0.11204,-0.24496 0.25896,-0.45493 0.441,-0.62992c0.18897,-0.18197 0.40588,-0.32193 0.65099,-0.41993c0.24487,-0.10497 0.50741,-0.15748 0.78716,-0.15748h3.69546c0.28691,0 0.55639,0.056 0.80842,0.16799c0.25203,0.10497 0.46895,0.25196 0.65099,0.44093c0.18897,0.18197 0.33589,0.39893 0.44076,0.65089c0.11204,0.25196 0.16794,0.52141 0.16794,0.80837zM416.15175,174.62487h2.0576v9.11254h5.76357v-9.11254h2.06811v11.18069h-2.06811v-1.8897c-0.02102,0.25896 -0.09102,0.50392 -0.20999,0.73489c-0.11897,0.23096 -0.27306,0.43393 -0.46202,0.60889c-0.1818,0.16799 -0.39179,0.30096 -0.62973,0.39895c-0.23818,0.09797 -0.48997,0.14697 -0.7561,0.14697h-3.70573c-0.27998,0 -0.54587,-0.05249 -0.79791,-0.15748c-0.25203,-0.11197 -0.47253,-0.25896 -0.6615,-0.44093c-0.1818,-0.18897 -0.32896,-0.40944 -0.44076,-0.66138c-0.10511,-0.25196 -0.15743,-0.52144 -0.15743,-0.80837zM428.83346,174.62487h2.72961v-3.44343h2.06811v3.44343h3.67444v2.06818h-3.67444v7.04435h3.67444v2.06816h-3.67444c-0.27975,0 -0.54587,-0.05249 -0.79767,-0.15748c-0.25203,-0.11197 -0.47253,-0.25896 -0.6615,-0.44093c-0.18897,-0.18897 -0.33947,-0.40944 -0.45151,-0.66138c-0.10487,-0.25196 -0.15743,-0.52144 -0.15743,-0.80837v-7.04435h-2.72961zM450.21858,181.27029h-7.40119v2.46711h7.40119v2.06816h-7.40119c-0.27998,0 -0.54611,-0.05249 -0.79791,-0.15748c-0.25203,-0.11197 -0.47253,-0.25896 -0.6615,-0.44093c-0.18204,-0.18897 -0.32896,-0.40944 -0.44076,-0.66138c-0.10511,-0.25196 -0.15767,-0.52144 -0.15767,-0.80837v-7.04435c0,-0.28696 0.05256,-0.55641 0.15767,-0.80837c0.1118,-0.25196 0.25872,-0.46893 0.44076,-0.65089c0.18897,-0.18897 0.40947,-0.33596 0.6615,-0.44093c0.25179,-0.11199 0.51792,-0.16799 0.79791,-0.16799h5.33308c0.28691,0 0.55639,0.056 0.80842,0.16799c0.25179,0.10497 0.46895,0.25196 0.65075,0.44093c0.18897,0.18197 0.33589,0.39893 0.441,0.65089c0.11204,0.25196 0.16794,0.52141 0.16794,0.80837zM442.81739,176.69305v2.50909h5.33308v-2.50909zM460.42296,183.7374v-2.59308h-4.90283c-0.28691,0 -0.55639,-0.05249 -0.80818,-0.15748c-0.25203,-0.11197 -0.47253,-0.25896 -0.6615,-0.44093c-0.18204,-0.18897 -0.32896,-0.40944 -0.441,-0.6614c-0.10487,-0.25194 -0.15743,-0.52141 -0.15743,-0.80835v-2.38312c0,-0.28696 0.05256,-0.55641 0.15743,-0.80837c0.11204,-0.25196 0.25896,-0.46893 0.441,-0.65089c0.18897,-0.18897 0.40947,-0.33596 0.6615,-0.44093c0.25179,-0.11199 0.52127,-0.16799 0.80818,-0.16799h6.54045v2.06818h-6.54045v2.38312h4.90283c0.28691,0 0.5528,0.05597 0.79791,0.16797c0.25179,0.10497 0.47229,0.25196 0.66126,0.44093c0.18897,0.18197 0.33612,0.39893 0.441,0.65089c0.11204,0.25196 0.16794,0.52141 0.16794,0.80837v2.59308c0,0.28694 -0.0559,0.55641 -0.16794,0.80837c-0.10487,0.25194 -0.25203,0.47241 -0.441,0.66138c-0.18897,0.18197 -0.40947,0.32896 -0.66126,0.44093c-0.24511,0.10499 -0.511,0.15748 -0.79791,0.15748h-6.97094v-2.06816zM465.59861,188.28316c0.9938,0 1.76017,-0.27296 2.29912,-0.81886c0.54587,-0.53892 0.81893,-1.3053 0.81893,-2.29914v-10.31981c0,-0.48992 -0.07,-0.92734 -0.20999,-1.3123c-0.13999,-0.38493 -0.3464,-0.71038 -0.61945,-0.97634c-0.26589,-0.27296 -0.5915,-0.47941 -0.97636,-0.61941c-0.38486,-0.13997 -0.82227,-0.20996 -1.31225,-0.20996h-0.30435v-2.04716h0.30435c0.79791,0 1.52224,0.12598 2.17322,0.37794c0.65075,0.24496 1.20379,0.5984 1.65864,1.06033c0.45486,0.45492 0.80484,1.00785 1.04994,1.65874c0.25179,0.65089 0.37793,1.37527 0.37793,2.17313v10.09936c0,0.79788 -0.12614,1.52226 -0.37793,2.17315c-0.24511,0.65089 -0.59509,1.20381 -1.04994,1.65874c-0.45486,0.46193 -1.0079,0.81537 -1.65864,1.06033c-0.65099,0.25194 -1.37532,0.37793 -2.17322,0.37793h-0.30435v-2.03667zM474.1023,182.66658h3.13884v3.13898h-3.13884zM474.1023,174.62487h3.13884v3.139h-3.13884z"/></g></g></svg>