<svg version="1.1" xmlns="http://www.w3.org/2000/svg" xmlns:xlink="http://www.w3.org/1999/xlink" width="18.946" height="23.80625" viewBox="0,0,18.946,23.80625"><g transform="translate(-230.527,-155.72708)"><g data-paper-data="{&quot;isPaintingLayer&quot;:true}" fill="#24b0ff" fill-rule="nonzero" stroke="none" stroke-width="1" stroke-linecap="butt" stroke-linejoin="miter" stroke-miterlimit="10" stroke-dasharray="" stroke-dashoffset="0" style="mix-blend-mode: normal"><path d="M243.133,165.94273c0.781,-0.0313 1.338,-0.23961 1.672,-0.62502c0.333,-0.39584 0.5,-1 0.5,-1.8125v-1.46876c0,-0.85416 -0.188,-1.47916 -0.563,-1.875c-0.375,-0.39583 -0.984,-0.59374 -1.828,-0.59374h-5.828c-0.844,0 -1.453,0.19791 -1.828,0.59374c-0.375,0.39584 -0.563,1.02084 -0.563,1.875v1.46876c0,0.8125 0.167,1.41666 0.5,1.8125c0.344,0.38541 0.901,0.59372 1.672,0.62502zM243.227,175.69273c0.854,0 1.468,-0.1979 1.843,-0.5938c0.375,-0.3958 0.563,-1.0156 0.563,-1.8594v-1.7343c0,-0.8542 -0.188,-1.474 -0.563,-1.8594c-0.375,-0.3854 -0.989,-0.5781 -1.843,-0.5781h-6.454c-0.854,0 -1.468,0.1927 -1.843,0.5781c-0.375,0.3854 -0.563,1.0052 -0.563,1.8594v1.7343c0,0.8438 0.188,1.4636 0.563,1.8594c0.375,0.3959 0.989,0.5938 1.843,0.5938zM236.68,178.83333c-3.636,0 -5.453,-1.8125 -5.453,-5.4375v-1.125c0,-1.3958 0.25,-2.5156 0.75,-3.3594c0.5,-0.8437 1.224,-1.4062 2.172,-1.6875c-0.844,-0.3958 -1.49,-1 -1.938,-1.81248c-0.438,-0.82291 -0.656,-1.86458 -0.656,-3.125v-0.40624c0,-3.63542 1.812,-5.45313 5.437,-5.45313h6.016c3.625,0 5.437,1.81771 5.437,5.45313v0.40624c0,1.26042 -0.224,2.30209 -0.672,3.125c-0.437,0.81248 -1.078,1.41668 -1.921,1.81248c0.948,0.2813 1.671,0.8438 2.171,1.6875c0.5,0.8438 0.75,1.9636 0.75,3.3594v1.125c0,3.625 -1.812,5.4375 -5.437,5.4375z"/><path d="M243.161,166.64213l-0.014,0.0006h-0.014v-0.7zM245.34,165.7686l-0.006,0.00705l-0.529,-0.45794zM234.673,165.78364l-0.007,-0.00743l-0.006,-0.00761l0.535,-0.45089zM236.867,166.64273h-0.014l-0.014,-0.0006l0.028,-0.6994zM244.562,174.61753l0.508,0.4814zM234.446,166.59023l1.666,0.7814l-1.764,0.5234l-0.199,-0.6711zM231.598,165.7494l-0.005,-0.00931l0.618,-0.32864zM247.157,165.07959l0.002,-0.00279l0.614,0.33465zM245.653,167.89503l-1.764,-0.5234l1.665,-0.7814l0.298,0.6337zM243.105,165.24326c0.69,-0.0276 1.018,-0.20705 1.17,-0.38346l1.059,0.91581c-0.514,0.59442 -1.301,0.83162 -2.173,0.86652zM244.269,164.86681c0.181,-0.21509 0.336,-0.62505 0.336,-1.3616h1.4c0,0.88844 -0.179,1.68682 -0.665,2.26339zM244.605,163.50521v-1.46876h1.4v1.46876zM244.605,162.03645c0,-0.77278 -0.173,-1.18463 -0.371,-1.39357l1.016,-0.96285c0.552,0.58273 0.755,1.42088 0.755,2.35642zM244.234,160.64288c-0.185,-0.19569 -0.565,-0.37518 -1.32,-0.37518v-1.39999c0.933,0 1.772,0.21634 2.336,0.81232zM242.914,160.2677h-5.828v-1.39999h5.828zM237.086,160.2677c-0.755,0 -1.135,0.17949 -1.32,0.37518l-1.016,-0.96285c0.564,-0.59598 1.404,-0.81232 2.336,-0.81232zM235.766,160.64288c-0.198,0.20894 -0.371,0.62079 -0.371,1.39357h-1.4c0,-0.93554 0.203,-1.77369 0.755,-2.35642zM235.395,162.03645v1.46876h-1.4v-1.46876zM235.395,163.50521c0,0.73655 0.155,1.14651 0.336,1.3616l-1.071,0.90179c-0.486,-0.57657 -0.665,-1.37495 -0.665,-2.26339zM235.718,164.85177c0.166,0.18684 0.503,0.36417 1.178,0.39151l-0.057,1.39885c-0.867,-0.0352 -1.645,-0.2745 -2.166,-0.85849zM236.867,165.24271h6.266v1.40002h-6.266zM243.227,174.99273c0.768,0 1.151,-0.1809 1.335,-0.3752l1.017,0.9628c-0.566,0.5975 -1.413,0.8124 -2.352,0.8124zM244.562,174.61753c0.199,-0.2103 0.371,-0.6184 0.371,-1.378h1.4c0,0.928 -0.204,1.7594 -0.754,2.3408zM244.933,173.23953v-1.7343h1.4v1.7343zM244.933,171.50523c0,-0.775 -0.174,-1.1754 -0.364,-1.3713l1.003,-0.9762c0.56,0.5749 0.761,1.4141 0.761,2.3475zM244.569,170.13393c-0.184,-0.1884 -0.569,-0.3662 -1.342,-0.3662v-1.4c0.935,0 1.778,0.2076 2.345,0.79zM243.227,169.76773h-6.454v-1.4h6.454zM236.773,169.76773c-0.772,0 -1.158,0.1778 -1.342,0.3662l-1.003,-0.9762c0.567,-0.5824 1.41,-0.79 2.345,-0.79zM235.431,170.13393c-0.19,0.1959 -0.364,0.5963 -0.364,1.3713h-1.4c0,-0.9334 0.202,-1.7726 0.761,-2.3475zM235.067,171.50523v1.7343h-1.4v-1.7343zM235.067,173.23953c0,0.7596 0.172,1.1677 0.371,1.378l-1.016,0.9628c-0.551,-0.5814 -0.755,-1.4128 -0.755,-2.3408zM235.438,174.61753c0.184,0.1943 0.567,0.3752 1.335,0.3752v1.4c-0.939,0 -1.785,-0.2149 -2.351,-0.8124zM236.773,174.99273h6.454v1.4h-6.454zM236.68,179.53333c-1.925,0 -3.498,-0.4803 -4.584,-1.5637c-1.087,-1.0837 -1.569,-2.6529 -1.569,-4.5738h1.4c0,1.7041 0.426,2.8537 1.157,3.5824c0.731,0.7292 1.885,1.1551 3.596,1.1551zM230.527,173.39583v-1.125h1.4v1.125zM230.527,172.27083c0,-1.4711 0.262,-2.7281 0.847,-3.7162l1.205,0.7137c-0.415,0.6994 -0.652,1.6819 -0.652,3.0025zM231.374,168.55463c0.591,-0.997 1.46,-1.6708 2.575,-2.0018l0.399,1.3422c-0.781,0.2315 -1.36,0.6827 -1.769,1.3733zM233.851,167.85773c-0.977,-0.4584 -1.733,-1.1657 -2.253,-2.10833l1.226,-0.67589c0.376,0.68241 0.911,1.18332 1.622,1.51672zM231.593,165.74005c-0.507,-0.95341 -0.738,-2.11718 -0.738,-3.4536h1.4c0,1.18442 0.206,2.10399 0.574,2.79641zM230.855,162.28645v-0.40624h1.4v0.40624zM230.855,161.88021c0,-1.92511 0.48,-3.49761 1.563,-4.58411c1.084,-1.08687 2.653,-1.56902 4.574,-1.56902v1.4c-1.704,0 -2.853,0.42671 -3.582,1.15755c-0.729,0.7312 -1.155,1.88526 -1.155,3.59558zM236.992,155.72708h6.016v1.4h-6.016zM243.008,155.72708c1.921,0 3.49,0.48215 4.574,1.56902c1.083,1.0865 1.563,2.659 1.563,4.58411h-1.4c0,-1.71032 -0.426,-2.86438 -1.155,-3.59558c-0.728,-0.73084 -1.878,-1.15755 -3.582,-1.15755zM249.145,161.88021v0.40624h-1.4v-0.40624zM249.145,162.28645c0,1.33862 -0.237,2.50471 -0.757,3.45966l-1.229,-0.66931c0.376,-0.69088 0.586,-1.60812 0.586,-2.79035zM248.39,165.74332c-0.51,0.94611 -1.263,1.65541 -2.241,2.11441l-0.595,-1.2675c0.71,-0.3327 1.238,-0.8318 1.603,-1.51064zM246.051,166.55283c1.115,0.331 1.984,1.0048 2.575,2.0018l-1.205,0.7137c-0.409,-0.6906 -0.988,-1.1418 -1.768,-1.3733zM248.626,168.55463c0.585,0.9881 0.847,2.2451 0.847,3.7162h-1.399c0,-1.3206 -0.238,-2.3031 -0.653,-3.0025zM249.473,172.27083v1.125h-1.399v-1.125zM249.473,173.39583c0,1.9204 -0.48,3.4893 -1.564,4.5731c-1.084,1.0838 -2.653,1.5644 -4.573,1.5644v-1.4c1.705,0 2.854,-0.4257 3.583,-1.1543c0.729,-0.7287 1.155,-1.8786 1.155,-3.5832zM243.336,179.53333h-6.656v-1.4h6.656z"/></g></g></svg>