<svg version="1.1" xmlns="http://www.w3.org/2000/svg" xmlns:xlink="http://www.w3.org/1999/xlink" width="5.9834" height="7.50195" viewBox="0,0,5.9834,7.50195"><g transform="translate(-237.0083,-172.74805)"><g data-paper-data="{&quot;isPaintingLayer&quot;:true}" fill="#ffffff" fill-rule="nonzero" stroke="#ffffff" stroke-width="0.5" stroke-linecap="butt" stroke-linejoin="miter" stroke-miterlimit="10" stroke-dasharray="" stroke-dashoffset="0" style="mix-blend-mode: normal"><path d="M240.97901,175.97168c0.24414,-0.00977 0.41829,-0.07487 0.52246,-0.19531c0.10416,-0.1237 0.15625,-0.3125 0.15625,-0.56641v-0.45898c0,-0.26693 -0.0586,-0.46224 -0.17578,-0.58594c-0.11719,-0.1237 -0.30762,-0.18555 -0.57129,-0.18555h-1.82129c-0.26368,0 -0.4541,0.06185 -0.57129,0.18555c-0.11719,0.1237 -0.17578,0.31901 -0.17578,0.58594v0.45898c0,0.25391 0.05208,0.44271 0.15625,0.56641c0.10742,0.12044 0.28157,0.18554 0.52246,0.19531zM241.0083,179.01855c0.26693,0 0.45899,-0.06184 0.57617,-0.18554c0.11719,-0.1237 0.17579,-0.31739 0.17579,-0.58106v-0.54199c0,-0.26693 -0.0586,-0.46061 -0.17579,-0.58105c-0.11718,-0.12045 -0.30924,-0.18067 -0.57617,-0.18067h-2.0166c-0.26693,0 -0.45898,0.06022 -0.57617,0.18067c-0.11719,0.12044 -0.17578,0.31412 -0.17578,0.58105v0.54199c0,0.26367 0.05859,0.45736 0.17578,0.58106c0.11719,0.1237 0.30924,0.18554 0.57617,0.18554zM238.9624,180c-1.13606,0 -1.7041,-0.56641 -1.7041,-1.69922v-0.35156c0,-0.4362 0.07813,-0.78613 0.23438,-1.04981c0.15625,-0.26367 0.38248,-0.43945 0.67871,-0.52734c-0.26367,-0.1237 -0.4655,-0.3125 -0.60547,-0.56641c-0.13672,-0.25716 -0.20508,-0.58268 -0.20508,-0.97656v-0.12695c0,-1.13607 0.56641,-1.7041 1.69922,-1.7041h1.87988c1.13282,0 1.69922,0.56803 1.69922,1.7041v0.12695c0,0.39388 -0.06999,0.7194 -0.20996,0.97656c-0.13672,0.25391 -0.33691,0.44271 -0.60059,0.56641c0.29623,0.08789 0.52247,0.26367 0.67872,0.52734c0.15625,0.26368 0.23437,0.61361 0.23437,1.04981v0.35156c0,1.13281 -0.56641,1.69922 -1.69922,1.69922z"/></g></g></svg>