<svg version="1.1" xmlns="http://www.w3.org/2000/svg" xmlns:xlink="http://www.w3.org/1999/xlink" width="35.22646" height="40.13033" viewBox="0,0,35.22646,40.13033"><g transform="translate(-222.38677,-139.93484)"><g data-paper-data="{&quot;isPaintingLayer&quot;:true}" fill="#ffffff" fill-rule="nonzero" stroke="none" stroke-width="1" stroke-linecap="butt" stroke-linejoin="miter" stroke-miterlimit="10" stroke-dasharray="" stroke-dashoffset="0" style="mix-blend-mode: normal"><path d="M242.07681,169.09377l2.67671,-2.66186c1.2287,1.22633 1.76839,5.33963 1.76839,7.0786c0,3.61169 -2.96222,6.55466 -6.58238,6.55466c-3.6204,0 -6.58238,-2.94297 -6.58238,-6.55466c0,-1.73897 0.68017,-3.36653 1.90886,-4.61491l4.67351,-4.65958z"/><path d="M251.97159,157.63566c0.49851,0 0.94824,-1.10385 1.51118,-2.3384c0.87194,-1.91354 0,-5.25644 0,-5.91491c0,-0.55836 2.57236,4.11871 3.70277,9.27119c0.75193,3.42609 0.355,7.25471 0,9.19418c-0.92146,4.99408 -3.99309,9.25219 -8.14004,11.81624c1.18473,-1.76132 1.8649,-3.8571 1.8649,-6.13106c0,-2.96527 -4.07243,-10.06058 -6.15689,-12.13404l-1.36211,3.06002l-3.45163,-6.46532l-7.74513,7.71396c-2.08447,2.09554 -3.2255,4.8601 -3.2255,7.80304c0,2.31863 0.72414,4.48117 1.95283,6.24249c-5.11238,-3.09878 -8.5352,-8.78396 -8.5352,-15.29417c0,-4.22727 3.27704,-12.23571 3.27704,-12.23571c0,0 0.53261,1.5598 1.28782,2.20079c0.65718,0.55783 2.01751,0.87333 2.01751,0.87333c0,0 1.08318,-5.00538 3.2255,-8.00506c2.14207,-2.99969 7.74513,-7.35739 7.74513,-7.35739v7.35739c0,4.21368 2.54229,6.26917 5.13133,2.99198l1.36034,-4.29507c0,0 5.54014,5.67054 5.54014,11.64655z"/></g></g></svg>