<svg version="1.1" xmlns="http://www.w3.org/2000/svg" xmlns:xlink="http://www.w3.org/1999/xlink" width="79.00973" height="88.80385" viewBox="0,0,79.00973,88.80385"><g transform="translate(-210.19766,-136.35908)"><g data-paper-data="{&quot;isPaintingLayer&quot;:true}" fill="#a0a0a0" fill-rule="nonzero" stroke-linecap="butt" stroke-linejoin="miter" stroke-miterlimit="10" stroke-dasharray="" stroke-dashoffset="0" style="mix-blend-mode: normal"><path d="M216.81073,142.26801c-0.18402,0 -0.3593,-0.035 -0.5258,-0.10517c-0.16211,-0.07443 -0.30453,-0.17082 -0.42721,-0.28919c-0.12269,-0.1227 -0.21909,-0.26504 -0.28919,-0.42717c-0.07011,-0.16648 -0.10516,-0.34181 -0.10516,-0.52582v-2.69473c0,-0.18403 0.03505,-0.35711 0.10516,-0.51923c0.07011,-0.16651 0.1665,-0.30892 0.28919,-0.42722c0.12268,-0.12268 0.2651,-0.21909 0.42721,-0.28919c0.1665,-0.07448 0.34178,-0.11173 0.5258,-0.11173h4.5745c0.18402,0 0.3571,0.03725 0.51923,0.11173c0.16648,0.07011 0.31107,0.16651 0.43377,0.28919c0.1227,0.1183 0.21911,0.26071 0.28919,0.42722c0.07008,0.16211 0.10517,0.33519 0.10517,0.51923v1.21591h-1.34736v-1.21591h-4.5745v2.69473h4.5745c0.18402,0 0.3571,0.03506 0.51923,0.10517c0.16648,0.07007 0.31107,0.16647 0.43377,0.28918c0.1227,0.1227 0.21911,0.2673 0.28919,0.43377c0.07008,0.16213 0.10517,0.33521 0.10517,0.51923v2.6882c0,0.18402 -0.03508,0.35926 -0.10517,0.52583c-0.07008,0.16205 -0.16648,0.30447 -0.28919,0.42717c-0.1227,0.1227 -0.2673,0.21911 -0.43377,0.28919c-0.16213,0.07008 -0.33521,0.10517 -0.51923,0.10517h-4.70598c-0.184,0 -0.35926,-0.03508 -0.52578,-0.10517c-0.16211,-0.07008 -0.30453,-0.16648 -0.42721,-0.28919c-0.12269,-0.1227 -0.21909,-0.26513 -0.28919,-0.42717c-0.07011,-0.16656 -0.10516,-0.34181 -0.10516,-0.52583v-1.20937h1.34734v1.20937h4.70598v-2.6882zM224.62548,139.30382h1.70888v-2.15579h1.29473v2.15579h2.30036v1.29479h-2.30036v4.41014h2.30036v1.29481h-2.30036c-0.17525,0 -0.34172,-0.03283 -0.49951,-0.09857c-0.1577,-0.07017 -0.29578,-0.16213 -0.41406,-0.27607c-0.11828,-0.11828 -0.2125,-0.25636 -0.28259,-0.41406c-0.06574,-0.1577 -0.09857,-0.32644 -0.09857,-0.50611v-4.41014h-1.70888zM238.14516,145.00875c0,0.17968 -0.03508,0.34841 -0.10517,0.50611c-0.06574,0.1577 -0.1577,0.29578 -0.27607,0.41406c-0.11394,0.11394 -0.24976,0.2059 -0.40746,0.27607c-0.15337,0.06574 -0.31984,0.09857 -0.49951,0.09857h-3.4769c-0.17525,0 -0.34172,-0.03283 -0.49951,-0.09857c-0.1577,-0.07017 -0.2957,-0.16213 -0.41406,-0.27607c-0.11394,-0.11828 -0.2059,-0.25636 -0.27599,-0.41406c-0.06574,-0.1577 -0.09865,-0.32644 -0.09865,-0.50611v-4.41014c0,-0.17964 0.03291,-0.34834 0.09865,-0.50608c0.07008,-0.15774 0.16205,-0.29357 0.27599,-0.4075c0.11837,-0.1183 0.25636,-0.21032 0.41406,-0.27604c0.15779,-0.07011 0.32427,-0.10516 0.49951,-0.10516h3.4769c0.17968,0 0.34615,0.03505 0.49951,0.10516c0.1577,0.06572 0.29352,0.15774 0.40746,0.27604c0.11837,0.11393 0.21033,0.24976 0.27607,0.4075c0.07008,0.15774 0.10517,0.32644 0.10517,0.50608zM233.38004,140.59861v4.41014h3.4769v-4.41014zM246.49886,145.00875c0,0.17968 -0.03508,0.34841 -0.10517,0.50611c-0.06574,0.1577 -0.15779,0.29578 -0.27607,0.41406c-0.11394,0.11394 -0.24976,0.2059 -0.40746,0.27607c-0.15779,0.06574 -0.32644,0.09857 -0.50611,0.09857h-3.60829v2.8262h-1.28821v-9.82594h1.28821v1.18306c0.01312,-0.1665 0.05697,-0.31985 0.13148,-0.46007c0.07443,-0.1446 0.16865,-0.26948 0.28259,-0.37464c0.11394,-0.10954 0.24533,-0.19499 0.39436,-0.25633c0.15337,-0.06134 0.3155,-0.09201 0.4864,-0.09201h2.31347c0.17968,0 0.34833,0.03505 0.50611,0.10516c0.1577,0.06572 0.29352,0.15774 0.40746,0.27604c0.11828,0.11393 0.21033,0.24976 0.27607,0.4075c0.07008,0.15774 0.10517,0.32644 0.10517,0.50608zM245.20404,145.00875v-4.41014h-3.60829v4.41014zM250.10716,146.30356l-2.26094,-6.99974h1.30793l1.65626,5.27775l1.54457,-5.27775h1.32104l1.54457,5.27775l1.65626,-5.27775h1.30793l-2.26094,6.99974h-1.34736l-1.56428,-5.13975l-1.55769,5.13975zM259.53874,143.24732c0,-0.17968 0.03283,-0.34615 0.09857,-0.49951c0.07017,-0.1577 0.16213,-0.29578 0.27607,-0.41406c0.11828,-0.11828 0.25636,-0.21033 0.41406,-0.27607c0.1577,-0.07008 0.32427,-0.10517 0.49951,-0.10517h3.33882v-1.3539h-4.22609v-1.29479h4.22609c0.17968,0 0.34841,0.03505 0.50611,0.10516c0.1577,0.06572 0.29352,0.15774 0.40746,0.27604c0.11837,0.11393 0.21033,0.24976 0.27607,0.4075c0.07008,0.15774 0.10517,0.32644 0.10517,0.50608v5.70496h-1.29481v-1.18306c-0.01312,0.16213 -0.05697,0.3155 -0.13139,0.46009c-0.07451,0.14459 -0.1709,0.27164 -0.28919,0.38115c-0.11394,0.10517 -0.24542,0.18845 -0.39436,0.24976c-0.14902,0.06139 -0.30673,0.09205 -0.47329,0.09205h-2.0506c-0.17525,0 -0.34181,-0.03283 -0.49951,-0.09857c-0.1577,-0.07017 -0.29578,-0.16213 -0.41406,-0.27607c-0.11394,-0.11828 -0.2059,-0.25636 -0.27607,-0.41406c-0.06574,-0.1577 -0.09857,-0.32644 -0.09857,-0.50611zM260.82695,145.00875h3.33882v-1.76142h-3.33882zM267.21541,139.30382h1.70888v-2.15579h1.29481v2.15579h2.30036v1.29479h-2.30036v4.41014h2.30036v1.29481h-2.30036c-0.17525,0 -0.34181,-0.03283 -0.49951,-0.09857c-0.1577,-0.07017 -0.29578,-0.16213 -0.41406,-0.27607c-0.11828,-0.11828 -0.2125,-0.25636 -0.28267,-0.41406c-0.06565,-0.1577 -0.09857,-0.32644 -0.09857,-0.50611v-4.41014h-1.70888zM275.97006,140.59861v4.41014h3.33882v-1.18306h1.29481v1.18306c0,0.17968 -0.03508,0.34841 -0.10517,0.50611c-0.06574,0.1577 -0.1577,0.29578 -0.27607,0.41406c-0.11394,0.11394 -0.24976,0.2059 -0.40746,0.27607c-0.1577,0.06574 -0.32644,0.09857 -0.50611,0.09857h-3.33882c-0.17525,0 -0.34181,-0.03283 -0.49951,-0.09857c-0.1577,-0.07017 -0.29578,-0.16213 -0.41406,-0.27607c-0.11394,-0.11828 -0.2059,-0.25636 -0.27607,-0.41406c-0.06574,-0.1577 -0.09857,-0.32644 -0.09857,-0.50611v-4.41014c0,-0.17964 0.03283,-0.34834 0.09857,-0.50608c0.07017,-0.15774 0.16213,-0.29357 0.27607,-0.4075c0.11828,-0.1183 0.25636,-0.21032 0.41406,-0.27604c0.1577,-0.07011 0.32427,-0.10516 0.49951,-0.10516h3.33882c0.17968,0 0.34841,0.03505 0.50611,0.10516c0.1577,0.06572 0.29352,0.15774 0.40746,0.27604c0.11837,0.11393 0.21033,0.24976 0.27607,0.4075c0.07008,0.15774 0.10517,0.32644 0.10517,0.50608v1.18308h-1.29481v-1.18308zM288.95739,146.30356h-1.29481v-5.70496h-3.60829v5.70496h-1.28821v-9.69448h1.28821v3.93038c0.00877,-0.17089 0.0482,-0.33082 0.11828,-0.47979c0.07008,-0.15337 0.16213,-0.28481 0.27607,-0.39436c0.11828,-0.11393 0.2541,-0.20156 0.40746,-0.26291c0.15337,-0.06572 0.31767,-0.09858 0.49301,-0.09858h2.31347c0.17968,0 0.34833,0.03505 0.50611,0.10516c0.1577,0.06572 0.29352,0.15774 0.40746,0.27604c0.11828,0.11393 0.21033,0.24976 0.27607,0.4075c0.07008,0.15774 0.10517,0.32644 0.10517,0.50608z" stroke="#a0a0a0" stroke-width="0.5"/><g stroke="none" stroke-width="1"><path d="M253.59814,167.0222l-19.3079,-2.7886l0.9003,-6.2336l19.3079,2.7886z"/><path d="M268.40764,200.9796c-2.2373,15.4905 -16.9877,26.1829 -33.0133,23.8684c-16.0256,-2.3146 -27.1478,-16.7437 -24.9105,-32.2343c2.2373,-15.4905 17.0199,-26.1782 33.0133,-23.8683c6.8222,0.9853 12.7641,4.198 17.1938,8.7833l5.2088,-3.7659c1.4521,1.5461 2.7485,3.2606 3.9026,5.05l-5.2088,3.7659c3.2649,5.3716 4.7684,11.7933 3.8141,18.4009zM244.91454,181.6774l-6.436,-0.9296l-2.7009,18.7009l6.4359,0.9295z"/></g></g></g></svg>