<svg version="1.1" xmlns="http://www.w3.org/2000/svg" xmlns:xlink="http://www.w3.org/1999/xlink" width="154.41442" height="318.91636" viewBox="0,0,154.41442,318.91636"><g transform="translate(-162.79279,-20.54182)"><g stroke-miterlimit="10"><path d="M172.00262,337.95818c0,0 -3.40525,-1.29142 -4.9944,-4.33953c-1.58918,-3.04816 -2.71543,-10.44843 -2.71543,-10.44843c0,0 0,-228.25676 0,-280.43394c0,-8.66874 -0.01305,-9.6678 1.6886,-14.23537c1.70165,-4.56751 5.14039,-6.45909 9.3984,-6.45909h128.29332c0,0 6.00459,0.57331 8.79089,5.26304c2.7863,4.68972 3.24321,14.99215 3.24321,14.99215v271.04609c0,0 -0.53771,11.07762 -3.21339,16.55056c-2.67569,5.47294 -8.8207,8.06451 -8.8207,8.06451z" fill="#ffffff" fill-rule="nonzero" stroke="#4fa1ff" stroke-width="3"/><path d="M273.3222,215.09648c-9.0672,0 -17.21559,-5.30689 -20.58118,-13.38734l-8.42766,-20.29409c-0.86228,-2.10682 1.19584,-4.21367 3.44885,-3.52016l2.19733,0.69325c1.55751,0.48012 2.83715,1.6267 3.44914,3.09365l3.92219,9.41357h2.08681v-29.87854c0,-1.8401 1.55525,-3.33329 3.47613,-3.33329c1.91807,0 3.47614,1.49319 3.47614,3.33329v21.87826v-5.20019c0,-1.8401 1.55807,-3.33356 3.47613,-3.33356c1.92087,0 3.47614,1.49346 3.47614,3.33356v4.74059v-2.51136c0,-1.8401 1.55808,-3.33329 3.47895,-3.33329c1.91807,0 3.47614,1.49319 3.47614,3.33329v2.97097v-1.41472c0,-1.8401 1.55807,-3.33357 3.47614,-3.33357c1.92087,0 3.47613,1.49347 3.47613,3.33357c0,0 0.9056,7.11817 0.8859,11.69898c-0.01687,4.33234 -0.8859,11.06166 -0.8859,11.06166c0,7.83169 -12.75144,10.65543 -13.90735,10.65543z" fill="#ffc85e" fill-rule="nonzero" stroke="none" stroke-width="1"/><path d="M174.91098,137.61882h8.23015v3.06586h-5.05262v24.79364h5.05262v3.05014h-8.23015zM205.36701,158.545c0,0.44022 -0.08279,0.85934 -0.2481,1.25756c-0.16531,0.38795 -0.39259,0.72846 -0.68208,1.02212c-0.28923,0.2934 -0.63027,0.52395 -1.02286,0.69163c-0.38218,0.1677 -0.79052,0.25168 -1.2245,0.25168h-11.11285c-0.43399,0 -0.84713,-0.08399 -1.23999,-0.25168c-0.38218,-0.1677 -0.71814,-0.39822 -1.00737,-0.69163c-0.28923,-0.29366 -0.5165,-0.63418 -0.68207,-1.02212c-0.16531,-0.39822 -0.24784,-0.81733 -0.24784,-1.25756v-16.09944c0,-0.44022 0.08253,-0.85442 0.24784,-1.24211c0.16557,-0.39822 0.39284,-0.73904 0.68207,-1.02188c0.28923,-0.29366 0.6252,-0.52421 1.00737,-0.69188c0.39284,-0.17827 0.806,-0.26736 1.23999,-0.26736h11.11285c0.43399,0 0.84232,0.08912 1.2245,0.26736c0.39258,0.16769 0.73363,0.39822 1.02286,0.69188c0.28949,0.28284 0.51677,0.62363 0.68208,1.02188c0.16531,0.38766 0.2481,0.80189 0.2481,1.24211zM191.07662,142.44556v16.09944h11.11285v-16.09944zM216.16986,139.22233v22.54564h-3.17729v-19.32241h-3.81288v-3.22324zM239.68208,158.545c0,0.44022 -0.08254,0.85934 -0.24785,1.25756c-0.16531,0.38795 -0.39259,0.72846 -0.68208,1.02212c-0.28923,0.2934 -0.63027,0.52395 -1.02285,0.69163c-0.38243,0.1677 -0.79052,0.25168 -1.22449,0.25168h-11.11285c-0.43399,0 -0.84739,-0.08399 -1.23998,-0.25168c-0.38218,-0.1677 -0.71814,-0.39822 -1.00737,-0.69163c-0.28923,-0.29366 -0.51676,-0.63418 -0.68207,-1.02212c-0.16531,-0.39822 -0.24785,-0.81733 -0.24785,-1.25756v-16.09944c0,-0.44022 0.08254,-0.85442 0.24785,-1.24211c0.16531,-0.39822 0.39284,-0.73904 0.68207,-1.02188c0.28923,-0.29366 0.6252,-0.52421 1.00737,-0.69188c0.39258,-0.17827 0.80599,-0.26736 1.23998,-0.26736h11.11285c0.43399,0 0.84207,0.08912 1.22449,0.26736c0.39258,0.16769 0.73362,0.39822 1.02285,0.69188c0.28949,0.28284 0.51677,0.62363 0.68208,1.02188c0.16531,0.38766 0.24785,0.80189 0.24785,1.24211zM225.39195,142.44556v16.09944h11.11285v-16.09944zM250.48513,139.22233v22.54564h-3.17728v-19.32241h-3.81288v-3.22324zM280.64744,160.74046v-21.51811h-6.99093v3.22324h3.81162v17.83766c1.11988,0.14271 2.1991,0.29546 3.1793,0.45721zM291.77501,139.22233v22.54564h-3.17677v-19.32241h-3.81417v-3.22324zM301.9275,140.68466h-5.05338v-3.06585h8.21491v30.90962h-8.21491v-3.05014h5.05338z" fill="#4593ff" fill-rule="evenodd" stroke="none" stroke-width="1"/><path d="M181.29288,53.76611l-6.3819,-22.64178h3.19094l4.94969,18.01537l4.9342,-18.01537h3.19095l4.93421,18.01537l4.94969,-18.01537h3.19094l-6.38191,22.64178h-3.50197l-4.77847,-16.97327l-4.79394,16.97327zM220.18375,50.65538c0,0.4319 -0.08287,0.83705 -0.24908,1.21587c-0.15574,0.37926 -0.37343,0.71046 -0.6535,0.99504c-0.27005,0.27345 -0.59155,0.49429 -0.96498,0.66287c-0.3634,0.15797 -0.75779,0.23699 -1.18312,0.23699h-8.234c-0.41532,0 -0.80967,-0.07902 -1.18311,-0.23699c-0.37342,-0.16858 -0.70039,-0.38942 -0.98046,-0.66287c-0.27005,-0.28457 -0.48773,-0.61579 -0.65394,-0.99504c-0.15574,-0.37879 -0.23317,-0.78392 -0.23317,-1.21587v-10.59427c0,-0.43144 0.07743,-0.83706 0.23317,-1.21587c0.16621,-0.37879 0.38389,-0.70541 0.65394,-0.97888c0.28007,-0.28409 0.60704,-0.50536 0.98046,-0.66337c0.37342,-0.16813 0.76779,-0.2527 1.18311,-0.2527h8.234c0.42534,0 0.81972,0.08452 1.18312,0.2527c0.37342,0.15797 0.69493,0.37926 0.96498,0.66337c0.28007,0.27345 0.49775,0.60007 0.6535,0.97888c0.16621,0.37879 0.24908,0.78437 0.24908,1.21587zM208.89911,40.06114v10.59428h8.234v-10.59428zM227.39907,40.06114v13.70497h-3.05068v-16.81573h3.05068v2.96845c0.02095,-0.41022 0.11431,-0.79453 0.28052,-1.15257c0.16576,-0.36818 0.38388,-0.68414 0.65349,-0.94745c0.28007,-0.27345 0.60204,-0.48413 0.96499,-0.63149c0.3634,-0.15797 0.75231,-0.23699 1.16763,-0.23699h3.25289c0.42579,0 0.82018,0.08452 1.18312,0.25271c0.37342,0.15797 0.70039,0.37926 0.98046,0.66337c0.28052,0.27345 0.4982,0.60007 0.65394,0.97888c0.16576,0.37879 0.24909,0.78437 0.24909,1.21587v2.8419h-3.06663v-2.8419zM250.59996,53.76611l-7.90703,-7.18417v7.18417h-3.05068v-23.28895h3.05068v13.1049l7.26901,-6.6317h4.31169l-8.90342,8.11591l9.54145,8.69982zM270.5168,50.65538c0,0.4319 -0.08288,0.83705 -0.24909,1.21587c-0.15529,0.37926 -0.37342,0.71046 -0.65349,0.99504c-0.27005,0.27345 -0.59155,0.49429 -0.96499,0.66287c-0.3634,0.15797 -0.75779,0.23699 -1.18311,0.23699h-8.234c-0.41486,0 -0.80924,-0.07902 -1.18311,-0.23699c-0.37342,-0.16858 -0.70038,-0.38942 -0.98046,-0.66287c-0.26959,-0.28457 -0.48773,-0.61579 -0.65394,-0.99504c-0.15529,-0.37879 -0.23317,-0.78392 -0.23317,-1.21587v-10.59427c0,-0.43144 0.07788,-0.83706 0.23317,-1.21587c0.16621,-0.37879 0.38437,-0.70541 0.65394,-0.97888c0.28007,-0.28409 0.60703,-0.50536 0.98046,-0.66337c0.37387,-0.16813 0.76826,-0.2527 1.18311,-0.2527h8.234c0.42534,0 0.81971,0.08452 1.18311,0.2527c0.37342,0.15797 0.69493,0.37926 0.96499,0.66337c0.28007,0.27345 0.4982,0.60007 0.65349,0.97888c0.16621,0.37879 0.24909,0.78437 0.24909,1.21587zM259.23202,40.06114v10.59428h8.234v-10.59428zM274.68139,36.95038h3.05115v13.70497h8.54504v-13.70497h3.06663v16.81573h-3.06663v-2.84235c-0.03096,0.38987 -0.1348,0.75805 -0.31103,1.10544c-0.17671,0.34737 -0.40485,0.65271 -0.68491,0.91557c-0.27005,0.2527 -0.58109,0.45272 -0.93402,0.60007c-0.35293,0.14737 -0.72636,0.22127 -1.12072,0.22127h-5.49433c-0.41532,0 -0.80968,-0.07902 -1.18311,-0.23699c-0.37342,-0.16858 -0.70038,-0.38942 -0.98046,-0.66287c-0.27005,-0.28457 -0.48774,-0.61579 -0.65395,-0.99504c-0.15574,-0.37879 -0.23361,-0.78392 -0.23361,-1.21587zM292.52786,36.95038h4.0471v-5.17889h3.06663v5.17889h5.44744v3.11076h-5.44744v10.59428h5.44744v3.11076h-5.44744c-0.41532,0 -0.80968,-0.07902 -1.18312,-0.23699c-0.37342,-0.16858 -0.70039,-0.38943 -0.98046,-0.66287c-0.28052,-0.28457 -0.50367,-0.61579 -0.66942,-0.99503c-0.15574,-0.37879 -0.23361,-0.78392 -0.23361,-1.21587v-10.59428h-4.0471zM193.26333,68.28511c0,-0.44209 0.08197,-0.85783 0.25046,-1.24723c0.16395,-0.40007 0.39165,-0.74234 0.6831,-1.02647c0.29145,-0.29474 0.62843,-0.52616 1.01098,-0.69475c0.39621,-0.17879 0.81059,-0.26841 1.24779,-0.26841h12.10896c0.43718,0 0.84703,0.08962 1.22957,0.26841c0.39621,0.16858 0.73773,0.40006 1.02918,0.69475c0.28691,0.28409 0.51914,0.62638 0.68309,1.02647c0.16395,0.38942 0.25046,0.80519 0.25046,1.24723v2.92087h-3.19231v-2.92087h-12.10896v16.16808h12.10896v-2.90521h3.19231v2.90521c0,0.44209 -0.08652,0.86294 -0.25046,1.26294c-0.16395,0.38942 -0.3962,0.73173 -0.68309,1.02646c-0.29145,0.29474 -0.633,0.52616 -1.02918,0.69475c-0.38254,0.16814 -0.79239,0.25271 -1.22957,0.25271h-12.10896c-0.43718,0 -0.85158,-0.08453 -1.24779,-0.25271c-0.38254,-0.16858 -0.71953,-0.40006 -1.01098,-0.69475c-0.29145,-0.29474 -0.51915,-0.63702 -0.6831,-1.02646c-0.16849,-0.40007 -0.25046,-0.8209 -0.25046,-1.26294zM229.92738,84.57929c0,0.4319 -0.08197,0.83706 -0.24592,1.21587c-0.15483,0.37926 -0.37342,0.71045 -0.65577,0.99503c-0.26868,0.27345 -0.59201,0.49429 -0.96544,0.66287c-0.36431,0.15797 -0.75595,0.23699 -1.18403,0.23699h-8.23353c-0.41441,0 -0.80605,-0.07902 -1.17947,-0.23699c-0.37342,-0.16858 -0.70132,-0.38943 -0.98365,-0.66287c-0.26868,-0.28458 -0.48727,-0.61579 -0.65122,-0.99503c-0.15483,-0.37879 -0.23681,-0.78392 -0.23681,-1.21587v-10.59427c0,-0.43143 0.08197,-0.83706 0.23681,-1.21587c0.16395,-0.37879 0.38254,-0.7054 0.65122,-0.97888c0.28234,-0.28409 0.61023,-0.50536 0.98365,-0.66337c0.37342,-0.16814 0.76506,-0.25271 1.17947,-0.25271h8.23353c0.42808,0 0.81972,0.08453 1.18403,0.25271c0.37342,0.15797 0.69675,0.37926 0.96544,0.66337c0.28234,0.27345 0.50093,0.60007 0.65577,0.97888c0.16395,0.37879 0.24592,0.78437 0.24592,1.21587zM218.64269,73.98507v10.59428h8.23353v-10.59428zM234.09424,73.98507c0,-0.43143 0.07743,-0.83706 0.23226,-1.21587c0.16849,-0.37879 0.38254,-0.7054 0.65577,-0.97888c0.27779,-0.28409 0.60567,-0.50536 0.97911,-0.66337c0.37342,-0.16814 0.76961,-0.2527 1.18402,-0.2527h8.54322v-6.47326h3.06936v23.28895h-3.06936v-2.84236c-0.03187,0.38987 -0.13207,0.75804 -0.30967,1.10543c-0.1776,0.34737 -0.4053,0.65272 -0.68309,0.91558c-0.27325,0.25271 -0.58291,0.45272 -0.93812,0.60007c-0.35065,0.14737 -0.72408,0.22128 -1.12028,0.22128h-5.49206c-0.41441,0 -0.81059,-0.07902 -1.18402,-0.23699c-0.37342,-0.16858 -0.70132,-0.38943 -0.97911,-0.66287c-0.27325,-0.28458 -0.48728,-0.61579 -0.65577,-0.99503c-0.15483,-0.37879 -0.23226,-0.78392 -0.23226,-1.21587zM237.14524,84.57929h8.54322v-10.59427h-8.54322zM266.92823,80.86896h-10.97047v3.71033h10.97047v3.11077h-10.97047c-0.41896,0 -0.81059,-0.07902 -1.18402,-0.23699c-0.37342,-0.16858 -0.70132,-0.38943 -0.97911,-0.66287c-0.27325,-0.28458 -0.49183,-0.61579 -0.65577,-0.99503c-0.15483,-0.37879 -0.23226,-0.78392 -0.23226,-1.21587v-10.59427c0,-0.43143 0.07743,-0.83706 0.23226,-1.21587c0.16395,-0.37879 0.38254,-0.7054 0.65577,-0.97888c0.27779,-0.28409 0.60567,-0.50536 0.97911,-0.66337c0.37342,-0.16814 0.76506,-0.25271 1.18402,-0.25271h7.90566c0.42352,0 0.82426,0.08453 1.19769,0.25271c0.37342,0.15797 0.69676,0.37926 0.96545,0.66337c0.28235,0.27345 0.49638,0.60007 0.65576,0.97888c0.16395,0.37879 0.24592,0.78437 0.24592,1.21587zM255.95758,73.98507v3.77363h7.90567v-3.77363zM281.10467,84.57929v-3.89972h-7.27265c-0.42352,0 -0.82426,-0.07902 -1.19769,-0.23699c-0.37342,-0.16814 -0.70132,-0.38942 -0.97911,-0.66287c-0.26868,-0.28458 -0.48727,-0.61579 -0.65576,-0.99504c-0.15483,-0.37879 -0.23226,-0.78392 -0.23226,-1.21535v-3.58423c0,-0.43143 0.07743,-0.83706 0.23226,-1.21587c0.16849,-0.37879 0.38708,-0.7054 0.65576,-0.97888c0.27779,-0.28409 0.60568,-0.50536 0.97911,-0.66337c0.37342,-0.16814 0.77417,-0.25271 1.19769,-0.25271h9.69991v3.11076h-9.69991v3.58423h7.27265c0.42352,0 0.81972,0.08407 1.17948,0.25225c0.37342,0.15797 0.70132,0.37926 0.98365,0.66338c0.27779,0.27345 0.49638,0.60007 0.65122,0.97888c0.16849,0.37879 0.25047,0.78437 0.25047,1.21587v3.89973c0,0.4319 -0.08197,0.83705 -0.25047,1.21586c-0.15483,0.37926 -0.37342,0.71046 -0.65122,0.99504c-0.28235,0.27345 -0.61023,0.49429 -0.98365,0.66287c-0.35976,0.15797 -0.75596,0.23699 -1.17948,0.23699h-10.33746v-3.11076z" fill="#5267bf" fill-rule="nonzero" stroke="none" stroke-width="1"/><path d="M197.97722,249.96481h2.14342v12.8497h8.56296v-12.8497h2.14342v12.8497c0,0.29276 -0.05579,0.5716 -0.16738,0.83653c-0.11147,0.2579 -0.2648,0.4844 -0.46002,0.67962c-0.19521,0.19509 -0.42516,0.34843 -0.69009,0.46002c-0.2579,0.11147 -0.53318,0.16726 -0.82594,0.16726h-8.56296c-0.29276,0 -0.5716,-0.05579 -0.83653,-0.16726c-0.2579,-0.11158 -0.4844,-0.26492 -0.67962,-0.46002c-0.19509,-0.19521 -0.34843,-0.42171 -0.46002,-0.67962c-0.11147,-0.26492 -0.16726,-0.54377 -0.16726,-0.83653zM221.19876,262.89825v-2.58255h-4.88271c-0.28574,0 -0.55411,-0.05228 -0.80512,-0.15684c-0.25089,-0.11152 -0.47049,-0.2579 -0.65868,-0.43913c-0.18118,-0.18819 -0.32762,-0.40776 -0.43908,-0.65869c-0.10457,-0.25093 -0.15679,-0.51928 -0.15679,-0.80507v-2.37339c0,-0.28578 0.05222,-0.55414 0.15679,-0.80506c0.11147,-0.25093 0.2579,-0.46701 0.43908,-0.64825c0.18819,-0.18819 0.40779,-0.33457 0.65868,-0.43913c0.25101,-0.11152 0.51938,-0.16728 0.80512,-0.16728h6.51376v2.05972h-6.51376v2.37339h4.88271c0.28574,0 0.55066,0.05577 0.79465,0.16729c0.25089,0.10455 0.47049,0.25092 0.65868,0.43913c0.18819,0.18122 0.33451,0.3973 0.43908,0.64824c0.11158,0.25093 0.16726,0.51928 0.16726,0.80507v2.58255c0,0.28574 -0.05567,0.55411 -0.16726,0.805c-0.10457,0.25089 -0.25089,0.47049 -0.43908,0.65868c-0.18819,0.18129 -0.40779,0.32762 -0.65868,0.4392c-0.24399,0.10457 -0.50891,0.15679 -0.79465,0.15679h-6.94238v-2.05967zM235.8991,260.44116h-7.37111v2.45709h7.37111v2.05967h-7.37111c-0.27872,0 -0.54365,-0.05222 -0.79453,-0.15679c-0.25101,-0.11158 -0.47049,-0.2579 -0.65868,-0.4392c-0.18129,-0.18819 -0.32762,-0.40779 -0.4392,-0.65868c-0.10457,-0.25089 -0.15679,-0.51926 -0.15679,-0.805v-7.01567c0,-0.28578 0.05222,-0.55414 0.15679,-0.80506c0.11158,-0.25093 0.2579,-0.46701 0.4392,-0.64825c0.18819,-0.18819 0.40768,-0.33457 0.65868,-0.43913c0.25089,-0.11152 0.51581,-0.16728 0.79453,-0.16728h5.31144c0.28574,0 0.55411,0.05576 0.805,0.16728c0.25101,0.10455 0.46704,0.25093 0.64833,0.43913c0.18819,0.18124 0.33451,0.39731 0.43908,0.64825c0.11147,0.25092 0.16726,0.51928 0.16726,0.80506zM228.528,255.88259v2.49886h5.31144v-2.49886zM245.1104,253.82287h2.71835v-3.42939h2.05979v3.42939h3.65944v2.05972h-3.65944v7.01567h3.65944v2.05967h-3.65944c-0.27884,0 -0.54365,-0.05222 -0.79465,-0.15679c-0.25089,-0.11158 -0.47049,-0.2579 -0.65868,-0.4392c-0.18819,-0.18819 -0.33808,-0.40779 -0.44955,-0.65868c-0.10457,-0.25089 -0.15691,-0.51926 -0.15691,-0.805v-7.01567h-2.71835zM266.83686,264.95792h-2.05979v-9.07534h-5.74005v9.07534h-2.0492v-15.42179h2.0492v6.25235c0.01392,-0.27184 0.07673,-0.52625 0.18819,-0.76325c0.11158,-0.24396 0.2579,-0.45307 0.4392,-0.62732c0.18819,-0.18124 0.40423,-0.32063 0.64821,-0.41823c0.24399,-0.10455 0.50534,-0.15682 0.78418,-0.15682h3.68026c0.28574,0 0.55411,0.05576 0.80512,0.16728c0.25089,0.10455 0.46692,0.25093 0.64821,0.43913c0.18819,0.18124 0.33451,0.39731 0.43908,0.64825c0.11158,0.25092 0.16738,0.51928 0.16738,0.80506zM279.68654,260.44116h-7.37111v2.45709h7.37111v2.05967h-7.37111c-0.27872,0 -0.54365,-0.05222 -0.79453,-0.15679c-0.25101,-0.11158 -0.47049,-0.2579 -0.6588,-0.4392c-0.18118,-0.18819 -0.3275,-0.40779 -0.43908,-0.65868c-0.10457,-0.25089 -0.15679,-0.51926 -0.15679,-0.805v-7.01567c0,-0.28578 0.05222,-0.55414 0.15679,-0.80506c0.11158,-0.25093 0.2579,-0.46701 0.43908,-0.64825c0.18831,-0.18819 0.40779,-0.33457 0.6588,-0.43913c0.25089,-0.11152 0.51581,-0.16728 0.79453,-0.16728h5.31144c0.28574,0 0.55411,0.05576 0.805,0.16728c0.25101,0.10455 0.46704,0.25093 0.64833,0.43913c0.18819,0.18124 0.33451,0.39731 0.43908,0.64825c0.11147,0.25092 0.16726,0.51928 0.16726,0.80506zM272.31543,255.88259v2.49886h5.31144v-2.49886zM172.39272,277.29536v7.01565h5.31136v-1.88206h2.05973v1.88206c0,0.28574 -0.05577,0.55411 -0.16729,0.805c-0.10455,0.25089 -0.25093,0.47049 -0.43913,0.65868c-0.18122,0.18129 -0.3973,0.32762 -0.64824,0.4392c-0.25093,0.10457 -0.5193,0.15679 -0.80507,0.15679h-5.31136c-0.27882,0 -0.54369,-0.05222 -0.79462,-0.15679c-0.25093,-0.11158 -0.4705,-0.2579 -0.65869,-0.4392c-0.18124,-0.18819 -0.3276,-0.40779 -0.43913,-0.65868c-0.10455,-0.25089 -0.15683,-0.51926 -0.15683,-0.805v-7.01565c0,-0.28574 0.05228,-0.55411 0.15683,-0.80512c0.11153,-0.25089 0.2579,-0.46692 0.43913,-0.64821c0.18819,-0.18819 0.40776,-0.33451 0.65869,-0.43908c0.25092,-0.11158 0.5158,-0.16738 0.79462,-0.16738h5.31136c0.28578,0 0.55414,0.05579 0.80507,0.16738c0.25093,0.10457 0.46701,0.25089 0.64824,0.43908c0.18819,0.18129 0.33457,0.39733 0.43913,0.64821c0.11152,0.25101 0.16729,0.51938 0.16729,0.80512v1.88194h-2.05973v-1.88194zM192.83316,284.31102c0,0.28574 -0.05579,0.55411 -0.16738,0.805c-0.10445,0.25089 -0.25089,0.47049 -0.43908,0.65868c-0.18118,0.18129 -0.39733,0.32762 -0.64821,0.4392c-0.24399,0.10457 -0.50879,0.15679 -0.79465,0.15679h-5.53092c-0.27884,0 -0.54365,-0.05222 -0.79465,-0.15679c-0.25089,-0.11158 -0.47049,-0.2579 -0.65868,-0.4392c-0.18118,-0.18819 -0.32762,-0.40779 -0.43908,-0.65868c-0.10457,-0.25089 -0.15691,-0.51926 -0.15691,-0.805v-7.01565c0,-0.28574 0.05234,-0.55411 0.15691,-0.80512c0.11147,-0.25089 0.2579,-0.46692 0.43908,-0.64821c0.18819,-0.18819 0.40779,-0.33451 0.65868,-0.43908c0.25101,-0.11158 0.51581,-0.16738 0.79465,-0.16738h5.53092c0.28586,0 0.55066,0.05579 0.79465,0.16738c0.25089,0.10457 0.46704,0.25089 0.64821,0.43908c0.18819,0.18129 0.33463,0.39733 0.43908,0.64821c0.11158,0.25101 0.16738,0.51938 0.16738,0.80512zM185.25292,277.29536v7.01565h5.53092v-7.01565zM196.273,277.29536c0,-0.28574 0.05222,-0.55411 0.15679,-0.80512c0.11158,-0.25089 0.2579,-0.46692 0.4392,-0.64821c0.18819,-0.18819 0.40768,-0.33451 0.65868,-0.43908c0.25089,-0.11158 0.51581,-0.16738 0.79453,-0.16738h5.74005v-4.28672h2.05979v15.42183h-2.05979v-1.88194c-0.02094,0.2579 -0.09053,0.50177 -0.20913,0.73184c-0.11848,0.23007 -0.27182,0.43218 -0.46002,0.60646c-0.18118,0.16726 -0.39031,0.29966 -0.62728,0.39733c-0.23697,0.09755 -0.48797,0.14632 -0.75278,0.14632h-3.69085c-0.27872,0 -0.54365,-0.05222 -0.79453,-0.15679c-0.25101,-0.11158 -0.47049,-0.2579 -0.65868,-0.4392c-0.18129,-0.18819 -0.32762,-0.40779 -0.4392,-0.65868c-0.10457,-0.25089 -0.15679,-0.51926 -0.15679,-0.805zM198.3222,284.31102h5.74005v-7.01565h-5.74005zM218.97172,281.8539h-7.37111v2.45711h7.37111v2.05967h-7.37111c-0.27872,0 -0.54365,-0.05222 -0.79453,-0.15679c-0.25101,-0.11158 -0.47049,-0.2579 -0.65868,-0.4392c-0.18129,-0.18819 -0.32762,-0.40779 -0.4392,-0.65868c-0.10457,-0.25089 -0.15679,-0.51926 -0.15679,-0.805v-7.01565c0,-0.28574 0.05222,-0.55411 0.15679,-0.80512c0.11158,-0.25089 0.2579,-0.46692 0.4392,-0.64821c0.18819,-0.18819 0.40768,-0.33451 0.65868,-0.43908c0.25089,-0.11158 0.51581,-0.16738 0.79453,-0.16738h5.31144c0.28574,0 0.55411,0.05579 0.805,0.16738c0.25101,0.10457 0.46704,0.25089 0.64833,0.43908c0.18819,0.18129 0.33451,0.39733 0.43908,0.64821c0.11158,0.25101 0.16726,0.51938 0.16726,0.80512zM211.60061,277.29536v2.49887h5.31144v-2.49887zM238.46066,284.31102c0,0.28574 -0.05567,0.55411 -0.16726,0.805c-0.10457,0.25089 -0.25089,0.47049 -0.43908,0.65868c-0.18129,0.18129 -0.39733,0.32762 -0.64821,0.4392c-0.24399,0.10457 -0.50891,0.15679 -0.79465,0.15679h-5.53092c-0.27884,0 -0.54377,-0.05222 -0.79465,-0.15679c-0.25089,-0.11158 -0.47049,-0.2579 -0.65868,-0.4392c-0.18129,-0.18819 -0.32762,-0.40779 -0.43908,-0.65868c-0.10457,-0.25089 -0.15691,-0.51926 -0.15691,-0.805v-7.01565c0,-0.28574 0.05234,-0.55411 0.15691,-0.80512c0.11147,-0.25089 0.25779,-0.46692 0.43908,-0.64821c0.18819,-0.18819 0.40779,-0.33451 0.65868,-0.43908c0.25089,-0.11158 0.51581,-0.16738 0.79465,-0.16738h5.53092c0.28574,0 0.55066,0.05579 0.79465,0.16738c0.25089,0.10457 0.46692,0.25089 0.64821,0.43908c0.18819,0.18129 0.33451,0.39733 0.43908,0.64821c0.11158,0.25101 0.16726,0.51938 0.16726,0.80512zM230.88055,277.29536v7.01565h5.53092v-7.01565zM251.74954,286.37069h-2.05967v-9.07532h-5.74005v9.07532h-2.04932v-11.13511h2.04932v1.96569c0.01392,-0.27182 0.07673,-0.52628 0.18819,-0.76325c0.11158,-0.24399 0.2579,-0.45312 0.43908,-0.62739c0.18819,-0.18118 0.40434,-0.3206 0.64833,-0.41814c0.24387,-0.10457 0.50534,-0.15691 0.78406,-0.15691h3.68038c0.28574,0 0.55411,0.05579 0.80512,0.16738c0.25089,0.10457 0.46692,0.25089 0.64821,0.43908c0.18819,0.18129 0.33451,0.39733 0.43908,0.64821c0.11158,0.25101 0.16726,0.51938 0.16726,0.80512zM262.35136,290.86654l2.33161,-5.49963l-4.37035,-10.13133h2.16424l3.25165,7.66387l3.25165,-7.66387h2.16435l-6.74383,15.63096zM282.91725,284.31102c0,0.28574 -0.05567,0.55411 -0.16726,0.805c-0.10457,0.25089 -0.25089,0.47049 -0.43908,0.65868c-0.18129,0.18129 -0.39733,0.32762 -0.64833,0.4392c-0.24387,0.10457 -0.50879,0.15679 -0.79453,0.15679h-5.53092c-0.27884,0 -0.54377,-0.05222 -0.79465,-0.15679c-0.25089,-0.11158 -0.47049,-0.2579 -0.65868,-0.4392c-0.18129,-0.18819 -0.32762,-0.40779 -0.4392,-0.65868c-0.10445,-0.25089 -0.15679,-0.51926 -0.15679,-0.805v-7.01565c0,-0.28574 0.05234,-0.55411 0.15679,-0.80512c0.11158,-0.25089 0.2579,-0.46692 0.4392,-0.64821c0.18819,-0.18819 0.40779,-0.33451 0.65868,-0.43908c0.25089,-0.11158 0.51581,-0.16738 0.79465,-0.16738h5.53092c0.28574,0 0.55066,0.05579 0.79453,0.16738c0.25101,0.10457 0.46704,0.25089 0.64833,0.43908c0.18819,0.18129 0.33451,0.39733 0.43908,0.64821c0.11158,0.25101 0.16726,0.51938 0.16726,0.80512zM275.33713,277.29536v7.01565h5.53092v-7.01565zM286.35709,275.23557h2.0498v9.07544h5.73981v-9.07544h2.05919v11.13511h-2.05919v-1.88194c-0.02141,0.2579 -0.09041,0.50177 -0.20937,0.73184c-0.11896,0.23007 -0.27242,0.43218 -0.46037,0.60646c-0.18082,0.16726 -0.39019,0.29966 -0.62692,0.39733c-0.23673,0.09755 -0.48774,0.14632 -0.75302,0.14632h-3.69013c-0.27932,0 -0.54412,-0.05222 -0.79513,-0.15679c-0.25089,-0.11158 -0.47049,-0.2579 -0.65868,-0.4392c-0.18118,-0.18819 -0.32762,-0.40779 -0.43908,-0.65868c-0.10457,-0.25089 -0.15691,-0.51926 -0.15691,-0.805zM301.68518,277.29536v9.07532h-2.04968v-11.13511h2.04968v1.96569c0.01309,-0.27182 0.07613,-0.52628 0.18796,-0.76325c0.11182,-0.24399 0.25814,-0.45312 0.43896,-0.62739c0.18796,-0.18118 0.40446,-0.3206 0.64833,-0.41814c0.24387,-0.10457 0.50558,-0.15691 0.78395,-0.15691h2.18529c0.2855,0 0.55078,0.05579 0.79465,0.16738c0.25101,0.10457 0.47108,0.25089 0.65904,0.43908c0.18796,0.18129 0.33428,0.39733 0.43896,0.64821c0.11182,0.25101 0.16773,0.51938 0.16773,0.80512v1.88194h-2.06038v-1.88194zM188.72417,294.93365c0,-0.29276 0.05567,-0.56803 0.16726,-0.82594c0.11147,-0.26492 0.26492,-0.49142 0.46002,-0.67962c0.19521,-0.19509 0.42171,-0.34855 0.67962,-0.46002c0.26492,-0.11848 0.54365,-0.17773 0.83641,-0.17773h8.13435c0.29276,0 0.56815,0.05924 0.82606,0.17773c0.2648,0.11147 0.49487,0.26492 0.68997,0.46002c0.19521,0.18819 0.34855,0.41469 0.46014,0.67962c0.11147,0.2579 0.16726,0.53318 0.16726,0.82594v1.93429h-2.14342v-1.93429h-8.13435v10.70638h8.13435v-1.9237h2.14342v1.9237c0,0.29276 -0.05579,0.5716 -0.16726,0.83653c-0.11158,0.2579 -0.26492,0.4844 -0.46014,0.67962c-0.19509,0.19509 -0.42516,0.34843 -0.68997,0.46002c-0.2579,0.11147 -0.5333,0.16726 -0.82606,0.16726h-8.13435c-0.29276,0 -0.57148,-0.05579 -0.83641,-0.16726c-0.2579,-0.11158 -0.4844,-0.26492 -0.67962,-0.46002c-0.19509,-0.19521 -0.34855,-0.42171 -0.46002,-0.67962c-0.11158,-0.26492 -0.16726,-0.54377 -0.16726,-0.83653zM206.4148,292.36162v15.42183h-2.04932v-15.42183zM212.00841,296.64834v11.13511h-2.05967v-11.13511zM209.84417,292.36162h2.2688v2.14342h-2.2688zM225.40185,305.72378c0,0.28574 -0.05579,0.55411 -0.16726,0.805c-0.10457,0.25089 -0.25101,0.47049 -0.4392,0.65868c-0.18118,0.18129 -0.39721,0.32762 -0.64821,0.4392c-0.25089,0.10457 -0.51926,0.15679 -0.805,0.15679h-5.74005v4.49585h-2.04932v-15.63096h2.04932v1.88206c0.02082,-0.26492 0.09053,-0.50891 0.20901,-0.73196c0.1186,-0.22995 0.26837,-0.42861 0.44967,-0.59587c0.18118,-0.17428 0.39031,-0.31025 0.62728,-0.40779c0.24399,-0.09755 0.50189,-0.14644 0.77371,-0.14644h3.68038c0.28574,0 0.55411,0.05579 0.805,0.16738c0.25101,0.10457 0.46704,0.25089 0.64821,0.43908c0.18819,0.18129 0.33463,0.39733 0.4392,0.64821c0.11147,0.25101 0.16726,0.51938 0.16726,0.80512zM223.34218,305.72378v-7.01565h-5.74005v7.01565zM238.68026,305.72378c0,0.28574 -0.05579,0.55411 -0.16726,0.805c-0.10457,0.25089 -0.25101,0.47049 -0.4392,0.65868c-0.18118,0.18129 -0.39721,0.32762 -0.64821,0.4392c-0.25089,0.10457 -0.51926,0.15679 -0.805,0.15679h-5.74005c-0.27884,0 -0.54377,-0.05222 -0.79465,-0.15679c-0.25089,-0.11158 -0.47049,-0.2579 -0.65868,-0.4392c-0.18129,-0.18819 -0.32762,-0.40779 -0.43908,-0.65868c-0.10457,-0.25089 -0.15691,-0.51926 -0.15691,-0.805v-13.36216h2.04932v6.25241c0.01392,-0.27182 0.07661,-0.52628 0.18819,-0.76325c0.11147,-0.24399 0.2579,-0.45312 0.43908,-0.62739c0.18819,-0.18118 0.40434,-0.3206 0.64821,-0.41814c0.24399,-0.10457 0.50534,-0.15691 0.78418,-0.15691h3.68038c0.28574,0 0.55411,0.05579 0.805,0.16738c0.25101,0.10457 0.46704,0.25089 0.64821,0.43908c0.18819,0.18129 0.33463,0.39733 0.4392,0.64821c0.11147,0.25101 0.16726,0.51938 0.16726,0.80512zM230.88055,298.70813v7.01565h5.74005v-7.01565zM251.7392,305.72378c0,0.28574 -0.05579,0.55411 -0.16738,0.805c-0.10457,0.25089 -0.25089,0.47049 -0.43908,0.65868c-0.18129,0.18129 -0.39733,0.32762 -0.64821,0.4392c-0.24399,0.10457 -0.50891,0.15679 -0.79465,0.15679h-5.53092c-0.27884,0 -0.54377,-0.05222 -0.79465,-0.15679c-0.25089,-0.11158 -0.47049,-0.2579 -0.65868,-0.4392c-0.18118,-0.18819 -0.32762,-0.40779 -0.43908,-0.65868c-0.10457,-0.25089 -0.15691,-0.51926 -0.15691,-0.805v-7.01565c0,-0.28574 0.05234,-0.55411 0.15691,-0.80512c0.11147,-0.25089 0.2579,-0.46692 0.43908,-0.64821c0.18819,-0.18819 0.40779,-0.33451 0.65868,-0.43908c0.25089,-0.11158 0.51581,-0.16738 0.79465,-0.16738h5.53092c0.28574,0 0.55066,0.05579 0.79465,0.16738c0.25089,0.10457 0.46692,0.25089 0.64821,0.43908c0.18819,0.18129 0.33451,0.39733 0.43908,0.64821c0.11158,0.25101 0.16738,0.51938 0.16738,0.80512zM244.15896,298.70813v7.01565h5.53092v-7.01565zM255.17904,302.92168c0,-0.28574 0.05222,-0.55066 0.15679,-0.79465c0.11147,-0.25089 0.2579,-0.47049 0.43908,-0.65868c0.18819,-0.18819 0.40779,-0.33451 0.65868,-0.43908c0.25101,-0.11158 0.51581,-0.16738 0.79465,-0.16738h5.31144v-2.15377h-6.72289v-2.05979h6.72289c0.28574,0 0.55411,0.05579 0.805,0.16738c0.25089,0.10457 0.46704,0.25089 0.64821,0.43908c0.18819,0.18129 0.33463,0.39733 0.4392,0.64821c0.11147,0.25101 0.16726,0.51938 0.16726,0.80512v9.07532h-2.05967v-1.88194c-0.02094,0.2579 -0.09065,0.50177 -0.20913,0.73184c-0.11848,0.23007 -0.27182,0.43218 -0.46002,0.60646c-0.18129,0.16726 -0.39043,0.29966 -0.62739,0.39733c-0.23697,0.09755 -0.48785,0.14632 -0.75278,0.14632h-3.26212c-0.27884,0 -0.54365,-0.05222 -0.79465,-0.15679c-0.25089,-0.11158 -0.47049,-0.2579 -0.65868,-0.4392c-0.18118,-0.18819 -0.32762,-0.40779 -0.43908,-0.65868c-0.10457,-0.25089 -0.15679,-0.51926 -0.15679,-0.805zM257.22824,305.72378h5.31144v-2.8021h-5.31144zM270.08851,298.70813v9.07532h-2.04932v-11.13511h2.04932v1.96569c0.01392,-0.27182 0.07661,-0.52628 0.18819,-0.76325c0.11147,-0.24399 0.2579,-0.45312 0.43908,-0.62739c0.18819,-0.18118 0.40423,-0.3206 0.64821,-0.41814c0.24399,-0.10457 0.50534,-0.15691 0.78418,-0.15691h2.18517c0.28586,0 0.55066,0.05579 0.79465,0.16738c0.25089,0.10457 0.47049,0.25089 0.65868,0.43908c0.18819,0.18129 0.33451,0.39733 0.43908,0.64821c0.11158,0.25101 0.16738,0.51938 0.16738,0.80512v1.88194h-2.05979v-1.88194zM278.9547,298.70813c0,-0.28574 0.05222,-0.55411 0.15679,-0.80512c0.11158,-0.25089 0.2579,-0.46692 0.4392,-0.64821c0.18819,-0.18819 0.40768,-0.33451 0.65868,-0.43908c0.25089,-0.11158 0.51581,-0.16738 0.79453,-0.16738h5.74005v-4.28672h2.06026v15.42183h-2.06026v-1.88194c-0.02082,0.2579 -0.09053,0.50177 -0.20901,0.73184c-0.1186,0.23007 -0.27194,0.43218 -0.46014,0.60646c-0.18118,0.16726 -0.39031,0.29966 -0.62728,0.39733c-0.23697,0.09755 -0.48797,0.14632 -0.75278,0.14632h-3.69085c-0.27872,0 -0.54365,-0.05222 -0.79453,-0.15679c-0.25101,-0.11158 -0.47049,-0.2579 -0.65868,-0.4392c-0.18129,-0.18819 -0.32762,-0.40779 -0.4392,-0.65868c-0.10457,-0.25089 -0.15679,-0.51926 -0.15679,-0.805zM281.0039,305.72378h5.74005v-7.01565h-5.74005zM292.23264,304.65731h3.12626v3.12614h-3.12626z" fill="#000000" fill-rule="nonzero" stroke="#000000" stroke-width="0.25"/></g></g></svg>