<svg version="1.1" xmlns="http://www.w3.org/2000/svg" xmlns:xlink="http://www.w3.org/1999/xlink" width="186.66666" height="136.23311" viewBox="0,0,186.66666,136.23311"><g transform="translate(-145.86667,-136.88749)"><g data-paper-data="{&quot;isPaintingLayer&quot;:true}" fill-rule="nonzero" stroke-linecap="butt" stroke-linejoin="miter" stroke-miterlimit="10" stroke-dasharray="" stroke-dashoffset="0" style="mix-blend-mode: normal"><path d="M188,185v-12h104v12z" fill="#ff9b40" stroke="#ffc85e" stroke-width="0"/><path d="M160.03334,213.68726c0,-17.48294 0,-61.24675 0,-70.38176c0,-3.27129 1.34398,-6.30549 3.41667,-6.30549c5.96328,0 17.95852,0 21.33333,0c1.73045,0 3.58333,2.20705 3.58333,4.75133c0,8.48594 0,55.95996 0,73.04605c0,3.82566 -2.06427,6.3499 -4.25,6.3499c-3.2308,0 -12.77334,0.12432 -18.83179,0.05853c-3.07436,-0.03338 -5.25154,-3.03555 -5.25154,-7.51856z" fill="#ff9b40" stroke="none" stroke-width="0"/><path d="M290.03334,213.57474c0,-17.48293 0,-61.24675 0,-70.38176c0,-3.27129 1.34398,-6.30549 3.41667,-6.30549c5.96328,0 17.95852,0 21.33333,0c1.73045,0 3.58333,2.20705 3.58333,4.75133c0,8.48594 0,55.95996 0,73.04605c0,3.82566 -2.06427,6.34991 -4.25,6.34991c-3.2308,0 -12.77334,0.12431 -18.83179,0.05854c-3.07436,-0.03339 -5.25154,-3.03554 -5.25154,-7.51855z" fill="#ff9b40" stroke="none" stroke-width="0"/><path d="M145.86667,206.06666c0,-13.12388 0,-45.97597 0,-52.83333c0,-2.45565 1.34398,-4.73333 3.41667,-4.73333c5.96328,0 17.95852,0 21.33333,0c1.73045,0 3.58333,1.65676 3.58333,3.56667c0,6.37012 0,42.00735 0,54.83333c0,2.8718 -2.06427,4.76667 -4.25,4.76667c-3.2308,0 -12.77334,0.09332 -18.83179,0.04394c-3.07436,-0.02506 -5.25154,-2.27869 -5.25154,-5.64394z" fill="#ff9b40" stroke="none" stroke-width="0"/><path d="M304.2,204.81666c0,-13.12388 0,-45.97597 0,-52.83333c0,-2.45565 1.34398,-4.73333 3.41667,-4.73333c5.96328,0 17.95852,0 21.33333,0c1.73045,0 3.58333,1.65676 3.58333,3.56667c0,6.37012 0,42.00735 0,54.83333c0,2.8718 -2.06427,4.76667 -4.25,4.76667c-3.2308,0 -12.77334,0.09332 -18.83179,0.04394c-3.07436,-0.02506 -5.25154,-2.27869 -5.25154,-5.64394z" fill="#ff9b40" stroke="none" stroke-width="0"/><g fill="#ffae4e" stroke="none" stroke-width="1"><path d="M184.91472,255.29735c0.65492,0.20569 1.25171,0.49783 1.79038,0.87343c0.53836,0.37859 0.99684,0.86746 1.37542,1.46365c0.37799,0.58128 0.67012,1.27287 0.87283,2.07475c0.20569,0.80188 0.30705,1.71705 0.30705,2.75143v1.57098c0,5.06467 -2.53353,7.59851 -7.59881,7.59851h-17.13942v-31.30918h16.24423c5.06527,0 7.59671,2.5398 7.59671,7.61937v0.56937c0,1.75877 -0.2826,3.20157 -0.85047,4.32241c-0.55297,1.10594 -1.41894,1.9287 -2.59791,2.46526zM168.91075,257.98322v9.25891h12.61966c1.17897,0 2.03064,-0.27723 2.55439,-0.82871c0.52406,-0.55446 0.78608,-1.42193 0.78608,-2.59941v-2.42353c0,-1.19239 -0.26202,-2.05986 -0.78608,-2.59941c-0.52376,-0.53657 -1.37542,-0.80784 -2.55439,-0.80784zM168.91075,244.70894v8.91014h12.03032c1.07703,-0.04471 1.8485,-0.33685 2.31413,-0.87343c0.48054,-0.55446 0.7205,-1.39808 0.7205,-2.53382v-2.05389c0,-1.19239 -0.26202,-2.06582 -0.78578,-2.6173c-0.52406,-0.55446 -1.37572,-0.8317 -2.55469,-0.8317zM195.52638,261.47691c0,-0.5962 0.10732,-1.15066 0.3279,-1.65743c0.23251,-0.52465 0.53657,-0.98372 0.91516,-1.37721c0.39349,-0.39349 0.85255,-0.69755 1.37721,-0.91516c0.52167,-0.2355 1.07613,-0.35176 1.65743,-0.35176h11.0922v-4.4953h-14.03742v-4.30154h14.03742c0.5962,0 1.15662,0.11626 1.68127,0.34878c0.52465,0.21761 0.97478,0.52465 1.35336,0.91815c0.39349,0.3756 0.69755,0.82871 0.91815,1.35336c0.23251,0.52167 0.34878,1.08209 0.34878,1.68127v18.95006h-4.30154v-3.92892c-0.04471,0.53657 -0.1878,1.04632 -0.43522,1.52626c-0.2504,0.47994 -0.56937,0.90323 -0.96286,1.26692c-0.37859,0.34878 -0.81381,0.62601 -1.30865,0.82871c-0.49484,0.20569 -1.01949,0.30705 -1.57395,0.30705h-6.81154c-0.58128,0 -1.13575,-0.11029 -1.65743,-0.3279c-0.52465,-0.23251 -0.98372,-0.53956 -1.37721,-0.91516c-0.37859,-0.39349 -0.68265,-0.85255 -0.91516,-1.37721c-0.2206,-0.52465 -0.3279,-1.08508 -0.3279,-1.68127zM199.8041,267.32857h11.0922v-5.85166h-11.0922zM226.65968,252.68007v18.95006h-4.2777v-23.2516h4.2777v4.1048c0.02982,-0.56937 0.16098,-1.09998 0.39349,-1.59482c0.23251,-0.50975 0.53956,-0.94497 0.91815,-1.30865c0.3905,-0.37859 0.84361,-0.67072 1.35336,-0.87343c0.50975,-0.2206 1.05526,-0.3279 1.63656,-0.3279h4.56386c0.5962,0 1.14767,0.11626 1.65743,0.34878c0.52465,0.21761 0.98372,0.52465 1.37721,0.91815c0.39349,0.3756 0.69755,0.82871 0.91516,1.35336c0.2355,0.52167 0.35176,1.08209 0.35176,1.68127v3.92892h-4.30154v-3.92892zM265.74027,267.32857c0,0.5962 -0.11626,1.15662 -0.34878,1.68127c-0.21761,0.52465 -0.52465,0.98372 -0.91516,1.37721c-0.37859,0.3756 -0.8317,0.68265 -1.35336,0.91516c-0.52465,0.21761 -1.08508,0.3279 -1.68127,0.3279h-11.9865c-0.58427,0 -1.13575,-0.11029 -1.66041,-0.3279c-0.52465,-0.23251 -0.98372,-0.53956 -1.37721,-0.91516c-0.3756,-0.39349 -0.68265,-0.85255 -0.91516,-1.37721c-0.21761,-0.52465 -0.3279,-1.08508 -0.3279,-1.68127v-27.90193h4.28068v13.05667c0.02683,-0.56937 0.158,-1.09998 0.3905,-1.59482c0.2355,-0.50975 0.53956,-0.94497 0.91815,-1.30865c0.39349,-0.37859 0.84361,-0.67072 1.35336,-0.87343c0.50975,-0.2206 1.05526,-0.3279 1.63656,-0.3279h7.68793c0.5962,0 1.15662,0.11626 1.68127,0.34878c0.52167,0.21761 0.97478,0.52465 1.35336,0.91815c0.3905,0.3756 0.69755,0.82871 0.91516,1.35336c0.23251,0.52167 0.34878,1.08209 0.34878,1.68127zM249.4552,252.68007v14.6485h11.9865v-14.6485zM292.575,262.19832h-15.39376v5.13025h15.39376v4.30154h-15.39376c-0.58128,0 -1.13575,-0.11029 -1.65743,-0.3279c-0.52465,-0.23251 -0.98372,-0.53956 -1.37721,-0.91516c-0.37859,-0.39349 -0.68265,-0.85255 -0.91516,-1.37721c-0.2206,-0.52465 -0.3279,-1.08508 -0.3279,-1.68127v-14.6485c0,-0.59917 0.10732,-1.1596 0.3279,-1.68127c0.23251,-0.52465 0.53657,-0.97776 0.91516,-1.35336c0.39349,-0.39349 0.85255,-0.70053 1.37721,-0.91815c0.52167,-0.23251 1.07613,-0.34878 1.65743,-0.34878h11.0922c0.5962,0 1.15662,0.11626 1.68127,0.34878c0.52465,0.21761 0.97478,0.52465 1.35336,0.91815c0.39349,0.3756 0.69755,0.82871 0.91815,1.35336c0.23251,0.52167 0.34878,1.08209 0.34878,1.68127zM277.18124,252.68007v5.2167h11.0922v-5.2167zM304.03685,239.42665v32.20346h-4.2777v-32.20346zM315.47783,239.42665v32.20346h-4.28068v-32.20346z"/><path d="M184.47175,256.72227l-3.72384,-1.1596l3.54736,-1.61867l0.61944,1.35336zM186.83089,258.44825l-0.00923,-0.0149l1.25887,-0.7989zM164.52217,273.1206h-1.49049v-1.49049h1.49049zM163.03168,240.32094v-1.49049h1.49049v1.49049zM186.17954,252.16436l0.00358,-0.00596l1.32951,0.6737zM167.42026,257.98322v-1.49049h1.49049v1.49049zM168.91075,268.73261h-1.49049v-1.49049h1.49049zM183.00302,265.38796l1.08179,1.02546zM167.42026,244.70894v-1.49049h1.49049v1.49049zM168.91075,255.10956h-1.49049v-1.49049h1.49049zM181.00129,255.10657l-0.0301,0.00298h-0.0301v-1.49049zM182.1278,251.76788h0.00208l1.12531,0.97776zM185.3574,253.87542c0.79652,0.24743 1.53401,0.60514 2.20444,1.07613l-1.71376,2.44142c-0.4066,-0.28618 -0.86269,-0.50975 -1.37632,-0.67072zM187.56182,254.95157c0.71037,0.50081 1.30209,1.13575 1.77606,1.88397l-2.51625,1.59781c-0.2811,-0.44416 -0.60693,-0.78399 -0.97358,-1.04037zM189.32894,256.82362c0.48292,0.74226 0.8317,1.58887 1.07017,2.51893l-2.88975,0.73332c-0.1711,-0.67072 -0.40392,-1.20729 -0.67847,-1.62761zM190.39912,259.34254c0.23848,0.94497 0.35176,1.98831 0.35176,3.1181h-2.98186c0,-0.939 -0.093,-1.72897 -0.25964,-2.38478zM190.75087,262.46063v1.57098h-2.98186v-1.57098zM190.75087,264.03161c0,2.76336 -0.69159,5.1094 -2.33709,6.7519c-1.6443,1.6455 -3.99004,2.33709 -6.75221,2.33709v-2.98098c2.3028,0 3.75633,-0.57533 4.64435,-1.46365c0.88833,-0.88833 1.46306,-2.34007 1.46306,-4.64435zM181.66158,273.1206h-17.13942v-2.98098h17.13942zM163.03168,271.63011v-31.30918h2.98098v31.30918zM164.52217,238.83046h16.24423v2.98098h-16.24423zM180.7664,238.83046c2.76336,0 5.10968,0.69456 6.7537,2.34304c1.6449,1.64848 2.33351,3.99749 2.33351,6.76681h-2.97978c0,-2.31026 -0.57533,-3.77093 -1.46455,-4.66224c-0.88833,-0.89131 -2.34125,-1.46664 -4.64287,-1.46664zM189.85359,247.94031v0.56937h-2.97978v-0.56937zM189.85359,248.50968c0,1.90484 -0.30406,3.59804 -1.01055,4.99611l-2.65992,-1.3474c0.42807,-0.8466 0.69069,-2.03303 0.69069,-3.64871zM188.84602,253.49685c-0.71305,1.42789 -1.83955,2.48613 -3.31216,3.15685l-1.23859,-2.70971c0.88535,-0.40541 1.49109,-0.99266 1.88427,-1.77965zM170.40124,257.98322v9.25891h-2.98098v-9.25891zM168.91075,265.75163h12.61966v2.98098h-12.61966zM181.53042,265.75163c0.99028,0 1.35217,-0.23848 1.4726,-0.36367l2.16389,2.04793c-0.92768,0.98073 -2.26853,1.29672 -3.63649,1.29672zM183.00302,265.38796c0.14965,-0.158 0.37739,-0.57533 0.37739,-1.57395h2.98098c0,1.35933 -0.29601,2.67393 -1.19448,3.62188zM183.38041,263.814v-2.42353h2.98098v2.42353zM183.38041,261.39046c0,-1.02546 -0.23251,-1.42491 -0.36367,-1.55905l2.13646,-2.07775c0.91664,0.94199 1.20819,2.27448 1.20819,3.63679zM183.01672,259.83142c-0.11894,-0.12222 -0.48649,-0.35772 -1.48631,-0.35772v-2.98098c1.35844,0 2.69361,0.30406 3.62278,1.26095zM181.53042,259.4737h-12.61966v-2.98098h12.61966zM170.40124,244.70894v8.91014h-2.98098v-8.91014zM168.91075,252.12858h12.03032v2.98098h-12.03032zM180.88056,252.12858c0.87582,-0.03577 1.16318,-0.26232 1.24724,-0.3607l2.25481,1.95254c-0.84719,0.97776 -2.10308,1.33548 -3.38133,1.38615zM182.12988,251.76788c0.14518,-0.16694 0.35533,-0.59023 0.35533,-1.55607h2.98098c0,1.30567 -0.27008,2.5696 -1.08566,3.5086zM182.48522,250.21182v-2.05389h2.98098v2.05389zM182.48522,248.15792c0,-1.01949 -0.23043,-1.43981 -0.37739,-1.59482l2.16389,-2.04793c0.90115,0.95093 1.19448,2.27747 1.19448,3.64275zM182.10783,246.56309c-0.12043,-0.1252 -0.48233,-0.36367 -1.4726,-0.36367v-2.98098c1.36797,0 2.70882,0.31599 3.63649,1.29672zM180.63523,246.19942h-11.72446v-2.98098h11.72446zM194.48305,259.23225l0.00894,-0.01789l1.36231,0.60514zM195.6963,257.40788l0.02087,-0.01789l1.05228,1.05228zM198.7518,258.88646l-0.03278,0.0149l-0.57234,-1.37423zM212.38678,257.17537v1.49049h-1.49049v-1.49049zM210.8963,251.18958h1.49049v1.49049h-1.49049zM196.85888,254.17055h-1.49049v-1.49049h1.49049zM195.36839,248.37852v-1.49049h1.49049v1.49049zM212.00522,250.10151l-0.03278,-0.01193l0.60514,-1.36231zM212.89653,250.71858l-0.02087,-0.02087l-0.01789,-0.02087l1.07315,-1.03142zM213.48676,251.60393l-0.0149,-0.03278l1.37721,-0.57234zM216.68833,271.63011v1.49049h-1.49049v-1.49049zM210.8963,273.1206h-1.49049v-1.49049h1.49049zM209.41176,267.57897l2.97501,0.12222h-1.49049zM210.51175,271.58838l-0.00298,0.00298l-1.01055,-1.097zM197.57134,272.67942l-0.02982,-0.0149l0.60514,-1.36231zM195.73505,271.4602l-0.01789,-0.02087l-0.02087,-0.02087l1.07315,-1.03142zM194.49199,269.61498l-0.0149,-0.03278l1.37721,-0.57234zM199.8041,268.81906h-1.49049v-1.49049h1.49049zM212.38678,267.32857v1.49049h-1.49049v-1.49049zM210.8963,259.98643h1.49049v1.49049h-1.49049zM198.31361,261.47691v-1.49049h1.49049v1.49049zM194.03589,261.47691c0,-0.78101 0.14309,-1.53819 0.44715,-2.24467l2.73952,1.1745c-0.13116,0.31002 -0.20569,0.66177 -0.20569,1.07017zM194.49199,259.21436c0.2981,-0.67668 0.70053,-1.28182 1.20431,-1.80647l2.1463,2.0688c-0.2504,0.26232 -0.46205,0.57234 -0.62601,0.94795zM195.71716,257.39c0.53359,-0.53359 1.15662,-0.94795 1.85416,-1.24009l1.14767,2.75143c-0.34878,0.14607 -0.64389,0.34281 -0.89429,0.5962zM197.54153,256.16482c0.71543,-0.31896 1.47558,-0.47994 2.26255,-0.47994v2.98098c-0.3756,0 -0.72139,0.07452 -1.05228,0.2206zM199.8041,255.68489h11.0922v2.98098h-11.0922zM209.40581,257.17537v-4.4953h2.98098v4.4953zM210.8963,254.17055h-14.03742v-2.98098h14.03742zM195.36839,252.68007v-4.30154h2.98098v4.30154zM196.85888,246.88803h14.03742v2.98098h-14.03742zM210.8963,246.88803c0.79592,0 1.56501,0.15501 2.28641,0.47696l-1.21027,2.72461c-0.32493,-0.14607 -0.67966,-0.2206 -1.07613,-0.2206zM213.14991,247.35008c0.70649,0.29512 1.32951,0.71543 1.85416,1.26095l-2.1463,2.06582c-0.23251,-0.23848 -0.50975,-0.43223 -0.85255,-0.57533zM214.96532,248.5693c0.54552,0.52763 0.96584,1.15066 1.25798,1.85416l-2.75143,1.14767c-0.14309,-0.34281 -0.33387,-0.62303 -0.57533,-0.85255zM216.21137,250.39365c0.31896,0.72139 0.47696,1.4875 0.47696,2.28641h-2.98098c0,-0.39945 -0.07751,-0.75121 -0.2206,-1.07613zM216.68833,252.68007v18.95006h-2.98098v-18.95006zM215.19784,273.1206h-4.30154v-2.98098h4.30154zM209.40581,271.63011v-3.92892h2.98098v3.92892zM212.38082,267.82044c-0.05962,0.7363 -0.25934,1.43384 -0.5962,2.08966l-2.65009,-1.36529c0.158,-0.30406 0.24743,-0.62303 0.27723,-0.96584zM211.78462,269.9101c-0.32493,0.63495 -0.75121,1.19537 -1.27287,1.67828l-2.02408,-2.18804c0.26232,-0.24444 0.47696,-0.52763 0.64688,-0.85554zM210.50876,271.59137c-0.51272,0.47398 -1.09998,0.84361 -1.75281,1.1119l-1.13575,-2.75741c0.33983,-0.14011 0.62303,-0.32194 0.86746,-0.54552zM208.75596,272.70326c-0.67966,0.28021 -1.39808,0.41734 -2.14033,0.41734v-2.98098c0.36666,0 0.69755,-0.06558 1.00459,-0.19376zM206.61562,273.1206h-6.81154v-2.98098h6.81154zM199.8041,273.1206c-0.77206,0 -1.5203,-0.14607 -2.23275,-0.44118l1.14767,-2.75143c0.33685,0.14011 0.69456,0.21165 1.08508,0.21165zM197.54153,272.66452c-0.67668,-0.30107 -1.28182,-0.70053 -1.80647,-1.20431l2.0688,-2.14928c0.26232,0.25338 0.57234,0.46503 0.94795,0.62899zM195.6963,271.41847c-0.50378,-0.52465 -0.90622,-1.12978 -1.20431,-1.80349l2.72461,-1.21027c0.16395,0.37262 0.3756,0.68562 0.62601,0.94795zM194.47709,269.58218c-0.2981,-0.71245 -0.44118,-1.46962 -0.44118,-2.25361h2.98098c0,0.41138 0.07452,0.77505 0.21165,1.10893zM194.03589,267.32857v-5.85166h2.98098v5.85166zM199.8041,265.83809h11.0922v2.98098h-11.0922zM209.40581,267.32857v-5.85166h2.98098v5.85166zM210.8963,262.9674h-11.0922v-2.98098h11.0922zM201.29458,261.47691v5.85166h-2.98098v-5.85166zM225.16919,252.68007v-1.49049h1.49049v1.49049zM228.15017,271.63011v1.49049h-1.49049v-1.49049zM222.38199,273.1206h-1.49049v-1.49049h1.49049zM220.8915,248.37852v-1.49049h1.49049v1.49049zM226.65968,246.88803h1.49049v1.49049h-1.49049zM228.1472,252.55784l-2.97799,-0.07452h1.49049zM228.40952,251.50854l-0.00894,0.0149l-1.3474,-0.63495zM229.00274,250.653v0l-1.03142,-1.07315zM229.91192,250.07468l-0.03577,0.0149l-0.55148,-1.38317zM236.61019,250.10151l-0.02384,-0.00894l-0.02384,-0.00894l0.62004,-1.35634zM237.52534,250.71858l-0.02087,-0.02087l1.05526,-1.05228zM238.1126,251.60393l-0.01193,-0.03278l1.37423,-0.57234zM241.31714,256.60898v1.49049h-1.49049v-1.49049zM235.5251,258.09947h-1.49049v-1.49049h1.49049zM235.5251,251.18958h1.49049v1.49049h-1.49049zM228.15017,252.68007v18.95006h-2.98098v-18.95006zM226.65968,273.1206h-4.2777v-2.98098h4.2777zM220.8915,271.63011v-23.2516h2.98098v23.2516zM222.38199,246.88803h4.2777v2.98098h-4.2777zM228.15017,248.37852v4.1048h-2.98098v-4.1048zM225.17218,252.40581c0.03876,-0.75418 0.21463,-1.47558 0.53061,-2.15226l2.69778,1.26989c-0.14607,0.313 -0.23251,0.65283 -0.25338,1.03439zM225.69683,250.26845c0.30705,-0.66774 0.71842,-1.26095 1.24009,-1.76474l2.06582,2.14928c-0.2355,0.22656 -0.43522,0.50378 -0.59321,0.85554zM226.93692,248.50372c0.53061,-0.51272 1.14469,-0.90622 1.8333,-1.18344l1.10594,2.76932c-0.33089,0.13116 -0.62004,0.31896 -0.87343,0.5634zM228.73743,247.33517c0.7035,-0.30107 1.44876,-0.44715 2.22381,-0.44715v2.98098c-0.3905,0 -0.7363,0.07154 -1.04931,0.20569zM230.96123,246.88803h4.56386v2.98098h-4.56386zM235.5251,246.88803c0.79592,0 1.56203,0.15501 2.27747,0.48292l-1.24009,2.71269c-0.30107,-0.14011 -0.6409,-0.21463 -1.03738,-0.21463zM237.75786,247.35008c0.69755,0.29213 1.32056,0.70649 1.85416,1.24009l-2.10755,2.10755c-0.2504,-0.25338 -0.54552,-0.45012 -0.89429,-0.5962zM239.59414,248.5693c0.54552,0.52763 0.96286,1.15066 1.25798,1.85416l-2.75143,1.14767c-0.14309,-0.34281 -0.33685,-0.62303 -0.57533,-0.85255zM240.8372,250.39365c0.32194,0.72139 0.47994,1.4875 0.47994,2.28641h-2.98098c0,-0.39945 -0.07751,-0.75121 -0.22357,-1.07613zM241.31714,252.68007v3.92892h-2.98098v-3.92892zM239.82665,258.09947h-4.30154v-2.98098h4.30154zM234.03462,256.60898v-3.92892h2.98098v3.92892zM235.5251,254.17055h-8.86542v-2.98098h8.86542zM264.01727,268.4375l0.01193,-0.03278l1.36231,0.60514zM263.42107,269.33178l1.05526,1.05526zM263.72811,272.66452l-0.03278,0.0149l-0.57234,-1.37721zM247.22245,272.67942l-0.03278,-0.0149l0.60514,-1.36231zM245.38617,271.4602l-0.02087,-0.02087l-0.02087,-0.02087l1.07315,-1.03142zM244.14012,269.61498l-0.0149,-0.03278l1.37721,-0.57234zM243.68403,239.42665v-1.49049h1.49049v1.49049zM249.4552,237.93616h1.49049v1.49049h-1.49049zM250.94271,252.55784l-2.97799,-0.07452h1.49049zM251.20205,251.50854l-0.00596,0.0149l-1.35038,-0.63495zM251.79824,250.653v0l-1.03439,-1.07315zM252.70446,250.07468l-0.03278,0.0149l-0.55446,-1.38317zM262.54764,250.10151l-0.03278,-0.01193l0.60812,-1.36231zM263.44194,250.71858l-0.02087,-0.02087l-0.02087,-0.02087l1.07613,-1.03142zM264.02919,251.60393l-0.01193,-0.03278l1.37423,-0.57234zM247.96471,252.68007v-1.49049h1.49049v1.49049zM249.4552,268.81906h-1.49049v-1.49049h1.49049zM262.93219,267.32857v1.49049h-1.49049v-1.49049zM261.4417,251.18958h1.49049v1.49049h-1.49049zM267.23075,267.32857c0,0.79592 -0.15501,1.56501 -0.47696,2.28641l-2.72461,-1.21027c0.14607,-0.32493 0.2206,-0.67966 0.2206,-1.07613zM266.7687,269.58218c-0.29213,0.70053 -0.70649,1.32355 -1.24009,1.85715l-2.10755,-2.10755c0.25338,-0.25338 0.45012,-0.54552 0.5962,-0.89429zM265.52861,271.43933c-0.51571,0.51571 -1.12382,0.9241 -1.8005,1.22518l-1.21326,-2.72461c0.36965,-0.16395 0.66774,-0.36666 0.90622,-0.60812zM263.69531,272.67942c-0.71543,0.2981 -1.4726,0.44118 -2.25361,0.44118v-2.98098c0.40839,0 0.77206,-0.07452 1.10594,-0.21165zM261.4417,273.1206h-11.9865v-2.98098h11.9865zM249.4552,273.1206c-0.77505,0 -1.52327,-0.14607 -2.23275,-0.44118l1.14469,-2.75143c0.33685,0.14011 0.69755,0.21165 1.08806,0.21165zM247.18966,272.66452c-0.6737,-0.30107 -1.27884,-0.70053 -1.80349,-1.20431l2.06582,-2.14928c0.26232,0.25338 0.57533,0.46503 0.94795,0.62899zM245.34444,271.41847c-0.50378,-0.52465 -0.90323,-1.12978 -1.20431,-1.80349l2.72461,-1.21027c0.16395,0.37262 0.3756,0.68562 0.62899,0.94795zM244.12522,269.58218c-0.2981,-0.71245 -0.44118,-1.46962 -0.44118,-2.25361h2.98098c0,0.41138 0.07452,0.77505 0.21165,1.10893zM243.68403,267.32857v-27.90193h2.98098v27.90193zM245.17452,237.93616h4.28068v2.98098h-4.28068zM250.94569,239.42665v13.05667h-2.98098v-13.05667zM247.96471,252.40581c0.03876,-0.75418 0.21463,-1.47558 0.53359,-2.15226l2.69778,1.26989c-0.14905,0.313 -0.2355,0.65283 -0.25338,1.03439zM248.49235,250.26845c0.30406,-0.66774 0.71543,-1.26095 1.23711,-1.76474l2.0688,2.14928c-0.2355,0.22656 -0.43522,0.50378 -0.5962,0.85554zM249.72945,248.50372c0.53359,-0.51272 1.14767,-0.90622 1.8333,-1.18344l1.10893,2.76932c-0.33387,0.13116 -0.62004,0.31896 -0.87343,0.5634zM251.52996,247.33517c0.7035,-0.30107 1.45173,-0.44715 2.22381,-0.44715v2.98098c-0.3905,0 -0.73332,0.07154 -1.04931,0.20569zM253.75376,246.88803h7.68793v2.98098h-7.68793zM261.4417,246.88803c0.79592,0 1.56203,0.15501 2.28641,0.47696l-1.21326,2.72461c-0.32493,-0.14607 -0.67668,-0.2206 -1.07315,-0.2206zM263.69531,247.35008c0.7035,0.29512 1.32654,0.71543 1.85416,1.26095l-2.14928,2.06582c-0.22954,-0.23848 -0.50975,-0.43223 -0.85255,-0.57533zM265.50775,248.5693c0.5485,0.52763 0.96584,1.15066 1.26095,1.85416l-2.75143,1.14767c-0.14309,-0.34281 -0.33685,-0.62303 -0.57533,-0.85255zM266.75381,250.39365c0.32194,0.72139 0.47696,1.4875 0.47696,2.28641h-2.98098c0,-0.39945 -0.07452,-0.75121 -0.2206,-1.07613zM267.23075,252.68007v14.6485h-2.98098v-14.6485zM250.94569,252.68007v14.6485h-2.98098v-14.6485zM249.4552,265.83809h11.9865v2.98098h-11.9865zM259.95121,267.32857v-14.6485h2.98098v14.6485zM261.4417,254.17055h-11.9865v-2.98098h11.9865zM294.06549,262.19832v1.49049h-1.49049v-1.49049zM275.69075,262.19832v-1.49049h1.49049v1.49049zM277.18124,268.81906h-1.49049v-1.49049h1.49049zM292.575,265.83809h1.49049v1.49049h-1.49049zM294.06549,271.63011v1.49049h-1.49049v-1.49049zM274.94849,272.67942l-0.02982,-0.0149l0.60514,-1.36231zM273.11221,271.4602l-0.01789,-0.02087l-0.02087,-0.02087l1.07315,-1.03142zM271.86915,269.61498l-0.0149,-0.03278l1.37721,-0.57234zM271.85424,250.42346l0.0149,-0.03278l1.36231,0.60812zM276.12896,250.0896l-0.03278,0.0149l-0.57234,-1.37721zM289.38237,250.10151l-0.03278,-0.01193l0.60514,-1.36231zM290.27369,250.71858l-0.02087,-0.02087l-0.01789,-0.02087l1.07315,-1.03142zM290.86392,251.60393l-0.0149,-0.03278l1.37721,-0.57234zM275.69075,252.68007v-1.49049h1.49049v1.49049zM277.18124,259.38725h-1.49049v-1.49049h1.49049zM289.76395,257.89677v1.49049h-1.49049v-1.49049zM288.27346,251.18958h1.49049v1.49049h-1.49049zM292.575,263.68881h-15.39376v-2.98098h15.39376zM278.67173,262.19832v5.13025h-2.98098v-5.13025zM277.18124,265.83809h15.39376v2.98098h-15.39376zM294.06549,267.32857v4.30154h-2.98098v-4.30154zM292.575,273.1206h-15.39376v-2.98098h15.39376zM277.18124,273.1206c-0.77206,0 -1.5203,-0.14607 -2.23275,-0.44118l1.14767,-2.75143c0.33685,0.14011 0.69456,0.21165 1.08508,0.21165zM274.91869,272.66452c-0.67668,-0.30107 -1.28182,-0.70053 -1.80647,-1.20431l2.0688,-2.14928c0.26232,0.25338 0.57234,0.46503 0.94795,0.62899zM273.07347,271.41847c-0.50378,-0.52465 -0.90622,-1.12978 -1.20431,-1.80349l2.72461,-1.21027c0.16395,0.37262 0.3756,0.68562 0.62601,0.94795zM271.85424,269.58218c-0.2981,-0.71245 -0.44118,-1.46962 -0.44118,-2.25361h2.98098c0,0.41138 0.07452,0.77505 0.21165,1.10893zM271.41306,267.32857v-14.6485h2.98098v14.6485zM271.41306,252.68007c0,-0.78399 0.14309,-1.54116 0.44118,-2.2566l2.75143,1.14767c-0.13712,0.33387 -0.21165,0.69755 -0.21165,1.10893zM271.86915,250.39365c0.30107,-0.67966 0.70649,-1.28778 1.22518,-1.80349l2.10755,2.10755c-0.24145,0.24145 -0.44416,0.53657 -0.60812,0.90622zM273.09433,248.59017c0.53359,-0.53359 1.15662,-0.94795 1.85416,-1.24009l1.14767,2.75143c-0.34878,0.14607 -0.64389,0.34281 -0.89429,0.5962zM274.91869,247.36498c0.71543,-0.31896 1.47558,-0.47696 2.26255,-0.47696v2.98098c-0.3756,0 -0.72139,0.07452 -1.05228,0.2206zM277.18124,246.88803h11.0922v2.98098h-11.0922zM288.27346,246.88803c0.79592,0 1.56501,0.15501 2.28641,0.47696l-1.21027,2.72461c-0.32493,-0.14607 -0.67966,-0.2206 -1.07613,-0.2206zM290.52707,247.35008c0.70649,0.29512 1.32951,0.71543 1.85416,1.26095l-2.1463,2.06582c-0.23251,-0.23848 -0.50975,-0.43223 -0.85255,-0.57533zM292.34249,248.5693c0.54552,0.52763 0.96584,1.15066 1.25798,1.85416l-2.75143,1.14767c-0.14309,-0.34281 -0.33387,-0.62303 -0.57533,-0.85255zM293.58853,250.39365c0.31896,0.72139 0.47696,1.4875 0.47696,2.28641h-2.98098c0,-0.39945 -0.07751,-0.75121 -0.2206,-1.07613zM294.06549,252.68007v9.51825h-2.98098v-9.51825zM278.67173,252.68007v5.2167h-2.98098v-5.2167zM277.18124,256.40628h11.0922v2.98098h-11.0922zM286.78297,257.89677v-5.2167h2.98098v5.2167zM288.27346,254.17055h-11.0922v-2.98098h11.0922zM304.03685,237.93616h1.49049v1.49049h-1.49049zM305.52734,271.63011v1.49049h-1.49049v-1.49049zM299.75915,273.1206h-1.49049v-1.49049h1.49049zM298.26866,239.42665v-1.49049h1.49049v1.49049zM305.52734,239.42665v32.20346h-2.98098v-32.20346zM304.03685,273.1206h-4.2777v-2.98098h4.2777zM298.26866,271.63011v-32.20346h2.98098v32.20346zM299.75915,237.93616h4.2777v2.98098h-4.2777zM315.47783,237.93616h1.49049v1.49049h-1.49049zM316.96832,271.63011v1.49049h-1.49049v-1.49049zM311.19715,273.1206h-1.49049v-1.49049h1.49049zM309.70666,239.42665v-1.49049h1.49049v1.49049zM316.96832,239.42665v32.20346h-2.98098v-32.20346zM315.47783,273.1206h-4.28068v-2.98098h4.28068zM309.70666,271.63011v-32.20346h2.98098v32.20346zM311.19715,237.93616h4.28068v2.98098h-4.28068z"/></g></g></g></svg>