<svg version="1.1" xmlns="http://www.w3.org/2000/svg" xmlns:xlink="http://www.w3.org/1999/xlink" width="26.17653" height="29.63234" viewBox="0,0,26.17653,29.63234"><g transform="translate(-226.91935,-163.93795)"><g data-paper-data="{&quot;isPaintingLayer&quot;:true}" fill-rule="nonzero" stroke-linejoin="miter" stroke-miterlimit="10" stroke-dasharray="" stroke-dashoffset="0" style="mix-blend-mode: normal"><path d="M232.85802,183.83045l-0.98884,-3.76681c-0.08682,-0.32944 -0.24813,-0.63285 -0.45558,-0.90271c-0.8159,-1.06303 -2.81091,-4.00511 -1.62918,-6.02374c0.9922,-1.69492 0.81517,-6.4974 10.23887,-6.69924c10.27831,-0.22014 9.34259,4.03287 10.57259,6.19018c1.29566,2.2727 -1.21267,5.29681 -2.08154,6.2386c-0.18285,0.19832 -0.33847,0.41929 -0.44964,0.66611l-1.78947,3.96928" fill="none" stroke="#000000" stroke-width="5" stroke-linecap="round"/><path d="M250.79267,183.93702c0.69205,3.8386 -0.67444,7.89854 -3.82235,9.34593l-6.64594,0.13721l-7.25792,0.15012c-2.75104,-1.38777 -4.43724,-5.40252 -3.95204,-9.18514c0.65207,-5.07894 4.52162,-8.37159 10.50778,-8.49534c5.98616,-0.12375 10.25722,2.9843 11.17047,8.04723z" fill="#000000" stroke="none" stroke-width="1" stroke-linecap="butt"/></g></g></svg>