<svg version="1.1" xmlns="http://www.w3.org/2000/svg" xmlns:xlink="http://www.w3.org/1999/xlink" width="13.18847" height="17.58215" viewBox="0,0,13.18847,17.58215"><g transform="translate(-233.35914,-171.20894)"><g data-paper-data="{&quot;isPaintingLayer&quot;:true}" fill="#83a837" fill-rule="nonzero" stroke="#83a837" stroke-width="1" stroke-linecap="butt" stroke-linejoin="miter" stroke-miterlimit="10" stroke-dasharray="" stroke-dashoffset="0" style="mix-blend-mode: normal"><path d="M239.68299,171.70895c1.38185,0 2.54422,0.3414 3.48713,1.02419c0.95916,0.68279 1.67447,1.64196 2.14592,2.87749c0.48771,1.23553 0.73157,2.69053 0.73157,4.36501c0,1.8533 -0.25198,3.39771 -0.75595,4.63325c-0.50397,1.21928 -1.2274,2.1378 -2.17031,2.75556c-0.94291,0.61777 -2.0809,0.92665 -3.41397,0.92665c-1.36559,0 -2.53609,-0.30075 -3.51151,-0.90226c-0.97542,-0.60151 -1.70703,-1.50377 -2.19474,-2.70679l2.46298,-1.14612c0.2276,0.76408 0.60151,1.37372 1.12173,1.82891c0.53648,0.4552 1.25992,0.68279 2.17031,0.68279c0.74782,0 1.37372,-0.14631 1.87768,-0.43894c0.50397,-0.29263 0.90226,-0.71531 1.19489,-1.26805c0.30888,-0.55274 0.52835,-1.21928 0.65841,-1.99961c0.13006,-0.78034 0.19508,-1.65821 0.19508,-2.63363c0,-0.04877 0,-0.08941 0,-0.12193c0,-0.04877 0,-0.09754 0,-0.14631h-0.09754c-0.17883,0.65028 -0.50397,1.17863 -0.97542,1.58506c-0.4552,0.40643 -0.97542,0.70718 -1.56067,0.90226c-0.58525,0.17883 -1.1705,0.26824 -1.75576,0.26824c-1.04045,0 -1.9671,-0.20321 -2.77995,-0.60964c-0.79659,-0.42268 -1.42253,-1.00793 -1.87768,-1.75576c-0.4552,-0.74782 -0.68279,-1.63383 -0.68279,-2.65802c0,-1.12173 0.2276,-2.08903 0.68279,-2.90188c0.47145,-0.81285 1.12986,-1.43875 1.97523,-1.87768c0.86162,-0.4552 1.88581,-0.68279 3.07257,-0.68279zM239.70737,174.00119c-1.02419,0 -1.81266,0.27637 -2.36539,0.82911c-0.53648,0.55274 -0.80472,1.32495 -0.80472,2.31662c0,0.87788 0.2845,1.5688 0.85349,2.07277c0.58525,0.48771 1.35746,0.73157 2.31662,0.73157c0.61777,0 1.16238,-0.12193 1.63383,-0.36578c0.47145,-0.26011 0.83724,-0.60964 1.09735,-1.04858c0.27637,-0.43894 0.41455,-0.95103 0.41455,-1.53629c0,-0.61777 -0.13818,-1.14612 -0.41455,-1.58506c-0.26011,-0.4552 -0.62589,-0.80472 -1.09735,-1.04858c-0.47145,-0.24386 -1.01606,-0.36578 -1.63383,-0.36578z"/></g></g></svg>