<svg version="1.1" xmlns="http://www.w3.org/2000/svg" xmlns:xlink="http://www.w3.org/1999/xlink" width="36.75" height="15.25" viewBox="0,0,36.75,15.25"><g transform="translate(-221.45656,-172.69362)"><g data-paper-data="{&quot;isPaintingLayer&quot;:true}" fill-rule="nonzero" stroke-linecap="butt" stroke-linejoin="miter" stroke-miterlimit="10" stroke-dasharray="" stroke-dashoffset="0" style="mix-blend-mode: normal"><path d="M221.45656,187.94363v-15.25h36.75v15.25z" fill="#578aff" stroke="#898989" stroke-width="0"/><path d="M225.16797,177.19874c0,-0.17773 0.03385,-0.34489 0.10156,-0.50146c0.06771,-0.16081 0.16081,-0.29834 0.2793,-0.4126c0.11849,-0.11849 0.25602,-0.21159 0.4126,-0.2793c0.1608,-0.07194 0.33007,-0.10791 0.50781,-0.10791h4.93847c0.17774,0 0.34489,0.03597 0.50147,0.10791c0.16081,0.06771 0.30046,0.16081 0.41894,0.2793c0.11849,0.11426 0.21159,0.25179 0.2793,0.4126c0.06771,0.15657 0.10156,0.32373 0.10156,0.50146v1.17432h-1.30127v-1.17432h-4.93847v6.5h4.93847v-1.16797h1.30127v1.16797c0,0.17773 -0.03385,0.34701 -0.10156,0.50781c-0.06771,0.15658 -0.16081,0.29411 -0.2793,0.4126c-0.11848,0.11849 -0.25813,0.21159 -0.41894,0.2793c-0.15658,0.06771 -0.32373,0.10156 -0.50147,0.10156h-4.93847c-0.17774,0 -0.34701,-0.03385 -0.50781,-0.10156c-0.15658,-0.06771 -0.29411,-0.16081 -0.4126,-0.2793c-0.11849,-0.11849 -0.21159,-0.25602 -0.2793,-0.4126c-0.06771,-0.1608 -0.10156,-0.33008 -0.10156,-0.50781zM240.5103,183.74951c0,0.1735 -0.0339,0.33643 -0.1016,0.48877c-0.0635,0.15234 -0.1524,0.28565 -0.2666,0.3999c-0.11,0.11003 -0.2412,0.1989 -0.3936,0.26661c-0.1481,0.06347 -0.3089,0.09521 -0.4824,0.09521h-3.3579c-0.1693,0 -0.3301,-0.03174 -0.4824,-0.09521c-0.1524,-0.06771 -0.2857,-0.15658 -0.3999,-0.26661c-0.11005,-0.11425 -0.19891,-0.24756 -0.26662,-0.3999c-0.06348,-0.15234 -0.09522,-0.31527 -0.09522,-0.48877v-4.25928c0,-0.1735 0.03174,-0.33642 0.09522,-0.48877c0.06771,-0.15234 0.15657,-0.28352 0.26662,-0.39355c0.1142,-0.11426 0.2475,-0.20312 0.3999,-0.2666c0.1523,-0.06771 0.3131,-0.10156 0.4824,-0.10156h3.3579c0.1735,0 0.3343,0.03385 0.4824,0.10156c0.1524,0.06348 0.2836,0.15234 0.3936,0.2666c0.1142,0.11003 0.2031,0.24121 0.2666,0.39355c0.0677,0.15235 0.1016,0.31527 0.1016,0.48877zM235.9082,179.49024v4.25928h3.3579v-4.25928zM243.8428,179.49024v5.50977h-1.2442v-6.76025h1.2442v1.19336c0.0084,-0.16504 0.0465,-0.3195 0.1142,-0.46338c0.0677,-0.14812 0.1566,-0.27507 0.2666,-0.38086c0.1143,-0.11003 0.2455,-0.19466 0.3936,-0.25391c0.1481,-0.06348 0.3068,-0.09521 0.4761,-0.09521h1.3266c0.1735,0 0.3343,0.03385 0.4824,0.10156c0.1524,0.06348 0.2857,0.15234 0.3999,0.2666c0.1143,0.11003 0.2032,0.24121 0.2666,0.39355c0.0678,0.15235 0.1016,0.31527 0.1016,0.48877v1.14258h-1.2505v-1.14258zM254.9448,182.25782h-4.4751v1.4917h4.4751v1.25049h-4.4751c-0.1692,0 -0.3301,-0.03174 -0.4824,-0.09521c-0.1523,-0.06771 -0.2856,-0.15658 -0.3999,-0.26661c-0.11,-0.11425 -0.1989,-0.24756 -0.2666,-0.3999c-0.0635,-0.15234 -0.0952,-0.31527 -0.0952,-0.48877v-4.25928c0,-0.1735 0.0317,-0.33642 0.0952,-0.48877c0.0677,-0.15234 0.1566,-0.28352 0.2666,-0.39355c0.1143,-0.11426 0.2476,-0.20312 0.3999,-0.2666c0.1523,-0.06771 0.3132,-0.10156 0.4824,-0.10156h3.2246c0.1735,0 0.3365,0.03385 0.4888,0.10156c0.1523,0.06348 0.2835,0.15234 0.3936,0.2666c0.1142,0.11003 0.2031,0.24121 0.2666,0.39355c0.0677,0.15235 0.1015,0.31527 0.1015,0.48877zM250.4697,179.49024v1.51709h3.2246v-1.51709z" fill="#ffffff" stroke="none" stroke-width="1"/></g></g></svg>