<svg version="1.1" xmlns="http://www.w3.org/2000/svg" xmlns:xlink="http://www.w3.org/1999/xlink" width="278.90366" height="35.29977" viewBox="0,0,278.90366,35.29977"><g transform="translate(-100.54817,-168.01537)"><g data-paper-data="{&quot;isPaintingLayer&quot;:true}" fill-rule="nonzero" stroke-linecap="butt" stroke-linejoin="miter" stroke-miterlimit="10" stroke-dasharray="" stroke-dashoffset="0" style="mix-blend-mode: normal"><path d="M124.94125,168.63199v12.82303h-1.83313v-5.49047h-7.34149v5.49047h-1.83314v-12.82303h1.83314v5.49941h7.34149v-5.49941zM136.29781,179.69338c0,0.24442 -0.04774,0.47395 -0.14309,0.68859c-0.08949,0.21463 -0.21463,0.40241 -0.37555,0.56332c-0.15505,0.15505 -0.3399,0.2802 -0.55441,0.37555c-0.20865,0.08949 -0.43525,0.13418 -0.67967,0.13418h-4.73038c-0.23844,0 -0.46504,-0.04468 -0.67955,-0.13418c-0.21463,-0.09535 -0.40241,-0.22049 -0.56345,-0.37555c-0.15493,-0.16091 -0.2802,-0.34869 -0.37555,-0.56332c-0.08937,-0.21463 -0.13405,-0.44416 -0.13405,-0.68859v-6.00014c0,-0.24442 0.04468,-0.47394 0.13405,-0.68855c0.09535,-0.21461 0.22062,-0.39942 0.37555,-0.55441c0.16104,-0.16095 0.34881,-0.28614 0.56345,-0.37557c0.21451,-0.09538 0.44111,-0.14307 0.67955,-0.14307h4.73038c0.24442,0 0.47102,0.04769 0.67967,0.14307c0.21451,0.08943 0.39936,0.21462 0.55441,0.37557c0.16091,0.15499 0.28606,0.3398 0.37555,0.55441c0.09535,0.21461 0.14309,0.44413 0.14309,0.68855zM129.81471,173.69325v6.00014h4.73038v-6.00014zM141.21596,181.45502l-3.07606,-9.52337h1.77946l2.25341,7.18059l2.10141,-7.18059h1.79729l2.10141,7.18059l2.25341,-7.18059h1.77946l-3.07606,9.52337h-1.83306l-2.12827,-6.99275l-2.11936,6.99275zM159.53837,173.69325c0,-0.24442 0.04468,-0.47394 0.13418,-0.68855c0.09535,-0.21461 0.22049,-0.39942 0.37555,-0.55441c0.16091,-0.16095 0.34869,-0.28614 0.56332,-0.37557c0.21463,-0.09538 0.44111,-0.14307 0.67967,-0.14307h4.90912v-3.66628h1.76164v13.18965h-1.76164v-1.60963c-0.01783,0.22062 -0.07741,0.42927 -0.17874,0.62596c-0.10133,0.19681 -0.23258,0.36969 -0.3935,0.51864c-0.15505,0.14309 -0.33379,0.25639 -0.53659,0.3399c-0.20267,0.08339 -0.4173,0.12514 -0.64378,0.12514h-3.15651c-0.23856,0 -0.46504,-0.04468 -0.67967,-0.13418c-0.21463,-0.09535 -0.40241,-0.22049 -0.56332,-0.37555c-0.15505,-0.16091 -0.2802,-0.34869 -0.37555,-0.56332c-0.08949,-0.21463 -0.13418,-0.44416 -0.13418,-0.68859zM161.2911,179.69338h4.90912v-6.00014h-4.90912zM179.13064,179.69338c0,0.24442 -0.04774,0.47395 -0.14309,0.68859c-0.08949,0.21463 -0.21463,0.40241 -0.37555,0.56332c-0.15505,0.15505 -0.3399,0.2802 -0.55441,0.37555c-0.20865,0.08949 -0.43525,0.13418 -0.67967,0.13418h-4.73038c-0.23844,0 -0.46492,-0.04468 -0.67955,-0.13418c-0.21463,-0.09535 -0.40241,-0.22049 -0.56345,-0.37555c-0.15493,-0.16091 -0.28007,-0.34869 -0.37555,-0.56332c-0.08937,-0.21463 -0.13405,-0.44416 -0.13405,-0.68859v-6.00014c0,-0.24442 0.04468,-0.47394 0.13405,-0.68855c0.09547,-0.21461 0.22062,-0.39942 0.37555,-0.55441c0.16104,-0.16095 0.34881,-0.28614 0.56345,-0.37557c0.21463,-0.09538 0.44111,-0.14307 0.67955,-0.14307h4.73038c0.24442,0 0.47102,0.04769 0.67967,0.14307c0.21451,0.08943 0.39936,0.21462 0.55441,0.37557c0.16091,0.15499 0.28606,0.3398 0.37555,0.55441c0.09535,0.21461 0.14309,0.44413 0.14309,0.68855zM172.64754,173.69325v6.00014h4.73038v-6.00014zM188.20693,185.30012l1.9941,-4.70352l-3.73791,-8.66496h1.85101l2.78109,6.55458l2.78097,-6.55458h1.85101l-5.76765,13.36847zM205.79607,179.69338c0,0.24442 -0.04774,0.47395 -0.14309,0.68859c-0.08937,0.21463 -0.21463,0.40241 -0.37555,0.56332c-0.15505,0.15505 -0.33978,0.2802 -0.55441,0.37555c-0.20865,0.08949 -0.43525,0.13418 -0.67967,0.13418h-4.73038c-0.23844,0 -0.46492,-0.04468 -0.67955,-0.13418c-0.21463,-0.09535 -0.40241,-0.22049 -0.56332,-0.37555c-0.15505,-0.16091 -0.2802,-0.34869 -0.37567,-0.56332c-0.08937,-0.21463 -0.13405,-0.44416 -0.13405,-0.68859v-6.00014c0,-0.24442 0.04468,-0.47394 0.13405,-0.68855c0.09547,-0.21461 0.22062,-0.39942 0.37567,-0.55441c0.16091,-0.16095 0.34869,-0.28614 0.56332,-0.37557c0.21463,-0.09538 0.44111,-0.14307 0.67955,-0.14307h4.73038c0.24442,0 0.47102,0.04769 0.67967,0.14307c0.21463,0.08943 0.39936,0.21462 0.55441,0.37557c0.16091,0.15499 0.28618,0.3398 0.37555,0.55441c0.09535,0.21461 0.14309,0.44413 0.14309,0.68855zM199.31297,173.69325v6.00014h4.73038v-6.00014zM208.73807,171.93165h1.7526v7.76174h4.90924v-7.76174h1.76164v9.52337h-1.76164v-1.60963c-0.01783,0.22062 -0.07753,0.42927 -0.17886,0.62596c-0.10133,0.19681 -0.23246,0.36969 -0.39337,0.51864c-0.15505,0.14309 -0.33392,0.25639 -0.53659,0.3399c-0.20267,0.08339 -0.4173,0.12514 -0.64378,0.12514h-3.15664c-0.23844,0 -0.46504,-0.04468 -0.67955,-0.13418c-0.21463,-0.09535 -0.40241,-0.22049 -0.56345,-0.37555c-0.15493,-0.16091 -0.2802,-0.34869 -0.37555,-0.56332c-0.08937,-0.21463 -0.13405,-0.44416 -0.13405,-0.68859zM227.56117,181.45502l-3.07606,-9.52337h1.77946l2.25341,7.18059l2.10141,-7.18059h1.79741l2.10141,7.18059l2.25378,-7.18059h1.77885l-3.07545,9.52337h-1.83355l-2.12827,-6.99275l-2.11924,6.99275zM240.3932,177.29693c0,-0.24442 0.04517,-0.47095 0.1343,-0.6796c0.09523,-0.21461 0.22098,-0.4024 0.37482,-0.56336c0.16116,-0.16095 0.34918,-0.28614 0.56406,-0.37557c0.21488,-0.09538 0.44074,-0.14307 0.68004,-0.14307h4.54175v-1.84208h-5.74922v-1.7616h5.74922c0.24418,0 0.47371,0.04769 0.68859,0.14307c0.21488,0.08943 0.39923,0.21462 0.55429,0.37557c0.16116,0.15499 0.28691,0.3398 0.37604,0.55441c0.09523,0.21461 0.14285,0.44413 0.14285,0.68855v7.76177h-1.76176v-1.60963c-0.01709,0.22062 -0.07692,0.42927 -0.17825,0.62596c-0.10133,0.19681 -0.23319,0.36969 -0.39435,0.51864c-0.15383,0.14309 -0.33331,0.25639 -0.53598,0.3399c-0.20267,0.08339 -0.41755,0.12514 -0.64341,0.12514h-2.78976c-0.2393,0 -0.46516,-0.04468 -0.68004,-0.13418c-0.21488,-0.09535 -0.4029,-0.22049 -0.56406,-0.37555c-0.15383,-0.16091 -0.27959,-0.34869 -0.37482,-0.56332c-0.08913,-0.21463 -0.1343,-0.44416 -0.1343,-0.68859zM242.14641,179.69338h4.54175v-2.39646h-4.54175zM259.81527,181.45502h-1.76176v-7.76177h-4.90924v7.76177h-1.75199v-9.52337h1.75199v1.68112c0.01221,-0.2325 0.06593,-0.45008 0.16116,-0.65278c0.09523,-0.20865 0.22098,-0.38749 0.37604,-0.53652c0.16116,-0.15499 0.34551,-0.27423 0.55429,-0.35769c0.20877,-0.08942 0.4322,-0.13413 0.67027,-0.13413h3.14748c0.2454,0 0.47493,0.04769 0.68859,0.14307c0.21488,0.08943 0.39923,0.21462 0.55429,0.37557c0.16116,0.15499 0.28691,0.3398 0.37604,0.55441c0.09523,0.21461 0.14285,0.44413 0.14285,0.68855zM262.19358,171.93165h2.32581v-2.93303h1.76176v2.93303h3.12917v1.7616h-3.12917v6.00014h3.12917v1.76164h-3.12917c-0.2393,0 -0.46516,-0.04468 -0.68004,-0.13418c-0.21488,-0.09535 -0.4029,-0.22049 -0.56283,-0.37555c-0.16116,-0.16091 -0.28935,-0.34869 -0.38458,-0.56332c-0.09035,-0.21463 -0.1343,-0.44416 -0.1343,-0.68859v-6.00014h-2.32581zM277.28879,171.93165h2.32459v-2.93303h1.76176v2.93303h3.12917v1.7616h-3.12917v6.00014h3.12917v1.76164h-3.12917c-0.23808,0 -0.46516,-0.04468 -0.68004,-0.13418c-0.21488,-0.09535 -0.40168,-0.22049 -0.56283,-0.37555c-0.16116,-0.16091 -0.28935,-0.34869 -0.38458,-0.56332c-0.08913,-0.21463 -0.1343,-0.44416 -0.1343,-0.68859v-6.00014h-2.32459zM295.68287,179.69338c0,0.24442 -0.04762,0.47395 -0.14407,0.68859c-0.08913,0.21463 -0.21366,0.40241 -0.37482,0.56332c-0.15505,0.15505 -0.33941,0.2802 -0.55429,0.37555c-0.20877,0.08949 -0.43586,0.13418 -0.68004,0.13418h-4.72977c-0.2393,0 -0.46516,-0.04468 -0.68004,-0.13418c-0.21488,-0.09535 -0.4029,-0.22049 -0.56283,-0.37555c-0.15505,-0.16091 -0.28081,-0.34869 -0.37604,-0.56332c-0.08913,-0.21463 -0.1343,-0.44416 -0.1343,-0.68859v-6.00014c0,-0.24442 0.04517,-0.47394 0.1343,-0.68855c0.09523,-0.21461 0.22098,-0.39942 0.37604,-0.55441c0.15994,-0.16095 0.34796,-0.28614 0.56283,-0.37557c0.21488,-0.09538 0.44074,-0.14307 0.68004,-0.14307h4.72977c0.24418,0 0.47127,0.04769 0.68004,0.14307c0.21488,0.08943 0.39923,0.21462 0.55429,0.37557c0.16116,0.15499 0.28569,0.3398 0.37482,0.55441c0.09645,0.21461 0.14407,0.44413 0.14407,0.68855zM289.19989,173.69325v6.00014h4.72977v-6.00014zM312.64605,174.7663c0.26738,0.08346 0.51278,0.20269 0.73254,0.35769c0.22098,0.15501 0.409,0.35471 0.56406,0.59913c0.15505,0.23845 0.27348,0.52162 0.35772,0.8495c0.08302,0.32787 0.12453,0.70345 0.12453,1.12671v0.64383c0,2.07459 -1.03654,3.11187 -3.11207,3.11187h-7.01895v-12.82303h6.65268c2.07431,0 3.11207,1.04027 3.11207,3.1208v0.2325c0,0.72133 -0.11599,1.31152 -0.34918,1.77055c-0.22587,0.45306 -0.58115,0.78989 -1.0634,1.01045zM306.09104,175.86618v3.79143h5.16807c0.48348,0 0.83265,-0.11318 1.04631,-0.33978c0.21488,-0.22648 0.32232,-0.58122 0.32232,-1.0641v-0.99258c0,-0.48884 -0.10744,-0.84354 -0.32232,-1.06411c-0.21366,-0.22057 -0.56283,-0.33086 -1.04631,-0.33086zM306.09104,170.42937v3.64839h4.92755c0.44074,-0.01789 0.75696,-0.13712 0.94742,-0.35769c0.19656,-0.22654 0.29546,-0.5723 0.29546,-1.03729v-0.84057c0,-0.48884 -0.10744,-0.84651 -0.32232,-1.07305c-0.21488,-0.22654 -0.56283,-0.3398 -1.04631,-0.3398zM318.74444,173.69325v7.76177h-1.75321v-9.52337h1.75321v1.68112c0.01221,-0.2325 0.06593,-0.45008 0.16116,-0.65278c0.09523,-0.20865 0.21976,-0.38749 0.37482,-0.53652c0.16116,-0.15499 0.34551,-0.27423 0.55429,-0.35769c0.20877,-0.08942 0.4322,-0.13413 0.67149,-0.13413h1.86798c0.2454,0 0.47127,0.04769 0.68004,0.14307c0.21488,0.08943 0.4029,0.21462 0.56283,0.37557c0.16116,0.15499 0.28691,0.3398 0.37604,0.55441c0.09523,0.21461 0.14285,0.44413 0.14285,0.68855v1.60959h-1.76176v-1.60959zM334.38417,177.59202h-6.30473v2.10136h6.30473v1.76164h-6.30473c-0.23808,0 -0.46516,-0.04468 -0.67882,-0.13418c-0.21488,-0.09535 -0.4029,-0.22049 -0.56406,-0.37555c-0.15505,-0.16091 -0.27959,-0.34869 -0.37482,-0.56332c-0.09035,-0.21463 -0.1343,-0.44416 -0.1343,-0.68859v-6.00014c0,-0.24442 0.04395,-0.47394 0.1343,-0.68855c0.09523,-0.21461 0.21976,-0.39942 0.37482,-0.55441c0.16116,-0.16095 0.34918,-0.28614 0.56406,-0.37557c0.21366,-0.09538 0.44074,-0.14307 0.67882,-0.14307h4.54297c0.24418,0 0.47371,0.04769 0.68859,0.14307c0.21488,0.08943 0.39923,0.21462 0.55429,0.37557c0.16116,0.15499 0.28569,0.3398 0.37604,0.55441c0.09523,0.21461 0.14285,0.44413 0.14285,0.68855zM328.07944,173.69325v2.13717h4.54297v-2.13717zM337.32654,177.29693c0,-0.24442 0.04395,-0.47095 0.13308,-0.6796c0.09645,-0.21461 0.22098,-0.4024 0.37604,-0.56336c0.16116,-0.16095 0.34918,-0.28614 0.56283,-0.37557c0.21488,-0.09538 0.44197,-0.14307 0.68004,-0.14307h4.54297v-1.84208h-5.75044v-1.7616h5.75044c0.24418,0 0.47371,0.04769 0.68859,0.14307c0.21488,0.08943 0.39923,0.21462 0.55429,0.37557c0.16116,0.15499 0.28569,0.3398 0.37482,0.55441c0.09645,0.21461 0.14407,0.44413 0.14407,0.68855v7.76177h-1.76176v-1.60963c-0.01831,0.22062 -0.07814,0.42927 -0.17947,0.62596c-0.10133,0.19681 -0.23197,0.36969 -0.39313,0.51864c-0.15505,0.14309 -0.33331,0.25639 -0.53598,0.3399c-0.20267,0.08339 -0.41755,0.12514 -0.64464,0.12514h-2.78976c-0.23808,0 -0.46516,-0.04468 -0.68004,-0.13418c-0.21366,-0.09535 -0.40168,-0.22049 -0.56283,-0.37555c-0.15505,-0.16091 -0.27959,-0.34869 -0.37604,-0.56332c-0.08913,-0.21463 -0.13308,-0.44416 -0.13308,-0.68859zM339.07853,179.69338h4.54297v-2.39646h-4.54297zM354.62058,181.45502l-4.54297,-4.06867v4.06867h-1.75321v-13.18965h1.75321v7.42197l4.17548,-3.7557h2.47721l-5.11435,4.59626l5.48062,4.92711zM360.59323,175.48167c0,-0.25038 0.02442,-0.47393 0.07203,-0.67065c0.05372,-0.19674 0.13064,-0.37259 0.23197,-0.52759c0.10133,-0.15501 0.23319,-0.29509 0.39313,-0.42028c0.16726,-0.13115 0.36139,-0.25038 0.58237,-0.35769l2.36,-1.13566v-1.90466h-4.39036v1.65429h-1.83379v-1.65429c0,-0.25038 0.04884,-0.48586 0.14407,-0.70644c0.09523,-0.22653 0.22587,-0.42028 0.39313,-0.58123c0.16726,-0.16692 0.36017,-0.29807 0.58115,-0.39346c0.22709,-0.10135 0.46516,-0.15201 0.71545,-0.15201h4.39036c0.25028,0 0.48592,0.05067 0.7069,0.15201c0.22587,0.09539 0.42243,0.22654 0.58969,0.39346c0.16726,0.16095 0.2979,0.35471 0.39313,0.58123c0.09645,0.22058 0.14407,0.45605 0.14407,0.70644v1.57381c0,0.25038 -0.02442,0.47393 -0.07203,0.67065c-0.04762,0.19674 -0.12209,0.37557 -0.22342,0.53654c-0.10133,0.15499 -0.23563,0.29509 -0.4029,0.42028c-0.16116,0.12518 -0.35406,0.24441 -0.58115,0.35767l-2.36977,1.12672v1.54699h-1.82402zM360.22696,178.78132h2.67377v2.6737h-2.67377z" fill="#57a71a" stroke="#57a71a" stroke-width="0.5"/><path d="M124.94125,168.63199v12.82303h-1.83313v-5.49047h-7.34149v5.49047h-1.83314v-12.82303h1.83314v5.49941h7.34149v-5.49941zM136.29781,179.69338c0,0.24442 -0.04774,0.47395 -0.14309,0.68859c-0.08949,0.21463 -0.21463,0.40241 -0.37555,0.56332c-0.15505,0.15505 -0.3399,0.2802 -0.55441,0.37555c-0.20865,0.08949 -0.43525,0.13418 -0.67967,0.13418h-4.73038c-0.23844,0 -0.46504,-0.04468 -0.67955,-0.13418c-0.21463,-0.09535 -0.40241,-0.22049 -0.56345,-0.37555c-0.15493,-0.16091 -0.2802,-0.34869 -0.37555,-0.56332c-0.08937,-0.21463 -0.13405,-0.44416 -0.13405,-0.68859v-6.00014c0,-0.24442 0.04468,-0.47394 0.13405,-0.68855c0.09535,-0.21461 0.22062,-0.39942 0.37555,-0.55441c0.16104,-0.16095 0.34881,-0.28614 0.56345,-0.37557c0.21451,-0.09538 0.44111,-0.14307 0.67955,-0.14307h4.73038c0.24442,0 0.47102,0.04769 0.67967,0.14307c0.21451,0.08943 0.39936,0.21462 0.55441,0.37557c0.16091,0.15499 0.28606,0.3398 0.37555,0.55441c0.09535,0.21461 0.14309,0.44413 0.14309,0.68855zM129.81471,173.69325v6.00014h4.73038v-6.00014zM141.21596,181.45502l-3.07606,-9.52337h1.77946l2.25341,7.18059l2.10141,-7.18059h1.79729l2.10141,7.18059l2.25341,-7.18059h1.77946l-3.07606,9.52337h-1.83306l-2.12827,-6.99275l-2.11936,6.99275zM159.53837,173.69325c0,-0.24442 0.04468,-0.47394 0.13418,-0.68855c0.09535,-0.21461 0.22049,-0.39942 0.37555,-0.55441c0.16091,-0.16095 0.34869,-0.28614 0.56332,-0.37557c0.21463,-0.09538 0.44111,-0.14307 0.67967,-0.14307h4.90912v-3.66628h1.76164v13.18965h-1.76164v-1.60963c-0.01783,0.22062 -0.07741,0.42927 -0.17874,0.62596c-0.10133,0.19681 -0.23258,0.36969 -0.3935,0.51864c-0.15505,0.14309 -0.33379,0.25639 -0.53659,0.3399c-0.20267,0.08339 -0.4173,0.12514 -0.64378,0.12514h-3.15651c-0.23856,0 -0.46504,-0.04468 -0.67967,-0.13418c-0.21463,-0.09535 -0.40241,-0.22049 -0.56332,-0.37555c-0.15505,-0.16091 -0.2802,-0.34869 -0.37555,-0.56332c-0.08949,-0.21463 -0.13418,-0.44416 -0.13418,-0.68859zM161.2911,179.69338h4.90912v-6.00014h-4.90912zM179.13064,179.69338c0,0.24442 -0.04774,0.47395 -0.14309,0.68859c-0.08949,0.21463 -0.21463,0.40241 -0.37555,0.56332c-0.15505,0.15505 -0.3399,0.2802 -0.55441,0.37555c-0.20865,0.08949 -0.43525,0.13418 -0.67967,0.13418h-4.73038c-0.23844,0 -0.46492,-0.04468 -0.67955,-0.13418c-0.21463,-0.09535 -0.40241,-0.22049 -0.56345,-0.37555c-0.15493,-0.16091 -0.28007,-0.34869 -0.37555,-0.56332c-0.08937,-0.21463 -0.13405,-0.44416 -0.13405,-0.68859v-6.00014c0,-0.24442 0.04468,-0.47394 0.13405,-0.68855c0.09547,-0.21461 0.22062,-0.39942 0.37555,-0.55441c0.16104,-0.16095 0.34881,-0.28614 0.56345,-0.37557c0.21463,-0.09538 0.44111,-0.14307 0.67955,-0.14307h4.73038c0.24442,0 0.47102,0.04769 0.67967,0.14307c0.21451,0.08943 0.39936,0.21462 0.55441,0.37557c0.16091,0.15499 0.28606,0.3398 0.37555,0.55441c0.09535,0.21461 0.14309,0.44413 0.14309,0.68855zM172.64754,173.69325v6.00014h4.73038v-6.00014zM188.20693,185.30012l1.9941,-4.70352l-3.73791,-8.66496h1.85101l2.78109,6.55458l2.78097,-6.55458h1.85101l-5.76765,13.36847zM205.79607,179.69338c0,0.24442 -0.04774,0.47395 -0.14309,0.68859c-0.08937,0.21463 -0.21463,0.40241 -0.37555,0.56332c-0.15505,0.15505 -0.33978,0.2802 -0.55441,0.37555c-0.20865,0.08949 -0.43525,0.13418 -0.67967,0.13418h-4.73038c-0.23844,0 -0.46492,-0.04468 -0.67955,-0.13418c-0.21463,-0.09535 -0.40241,-0.22049 -0.56332,-0.37555c-0.15505,-0.16091 -0.2802,-0.34869 -0.37567,-0.56332c-0.08937,-0.21463 -0.13405,-0.44416 -0.13405,-0.68859v-6.00014c0,-0.24442 0.04468,-0.47394 0.13405,-0.68855c0.09547,-0.21461 0.22062,-0.39942 0.37567,-0.55441c0.16091,-0.16095 0.34869,-0.28614 0.56332,-0.37557c0.21463,-0.09538 0.44111,-0.14307 0.67955,-0.14307h4.73038c0.24442,0 0.47102,0.04769 0.67967,0.14307c0.21463,0.08943 0.39936,0.21462 0.55441,0.37557c0.16091,0.15499 0.28618,0.3398 0.37555,0.55441c0.09535,0.21461 0.14309,0.44413 0.14309,0.68855zM199.31297,173.69325v6.00014h4.73038v-6.00014zM208.73807,171.93165h1.7526v7.76174h4.90924v-7.76174h1.76164v9.52337h-1.76164v-1.60963c-0.01783,0.22062 -0.07753,0.42927 -0.17886,0.62596c-0.10133,0.19681 -0.23246,0.36969 -0.39337,0.51864c-0.15505,0.14309 -0.33392,0.25639 -0.53659,0.3399c-0.20267,0.08339 -0.4173,0.12514 -0.64378,0.12514h-3.15664c-0.23844,0 -0.46504,-0.04468 -0.67955,-0.13418c-0.21463,-0.09535 -0.40241,-0.22049 -0.56345,-0.37555c-0.15493,-0.16091 -0.2802,-0.34869 -0.37555,-0.56332c-0.08937,-0.21463 -0.13405,-0.44416 -0.13405,-0.68859zM227.56117,181.45502l-3.07606,-9.52337h1.77946l2.25341,7.18059l2.10141,-7.18059h1.79741l2.10141,7.18059l2.25378,-7.18059h1.77885l-3.07545,9.52337h-1.83355l-2.12827,-6.99275l-2.11924,6.99275zM240.3932,177.29693c0,-0.24442 0.04517,-0.47095 0.1343,-0.6796c0.09523,-0.21461 0.22098,-0.4024 0.37482,-0.56336c0.16116,-0.16095 0.34918,-0.28614 0.56406,-0.37557c0.21488,-0.09538 0.44074,-0.14307 0.68004,-0.14307h4.54175v-1.84208h-5.74922v-1.7616h5.74922c0.24418,0 0.47371,0.04769 0.68859,0.14307c0.21488,0.08943 0.39923,0.21462 0.55429,0.37557c0.16116,0.15499 0.28691,0.3398 0.37604,0.55441c0.09523,0.21461 0.14285,0.44413 0.14285,0.68855v7.76177h-1.76176v-1.60963c-0.01709,0.22062 -0.07692,0.42927 -0.17825,0.62596c-0.10133,0.19681 -0.23319,0.36969 -0.39435,0.51864c-0.15383,0.14309 -0.33331,0.25639 -0.53598,0.3399c-0.20267,0.08339 -0.41755,0.12514 -0.64341,0.12514h-2.78976c-0.2393,0 -0.46516,-0.04468 -0.68004,-0.13418c-0.21488,-0.09535 -0.4029,-0.22049 -0.56406,-0.37555c-0.15383,-0.16091 -0.27959,-0.34869 -0.37482,-0.56332c-0.08913,-0.21463 -0.1343,-0.44416 -0.1343,-0.68859zM242.14641,179.69338h4.54175v-2.39646h-4.54175zM259.81527,181.45502h-1.76176v-7.76177h-4.90924v7.76177h-1.75199v-9.52337h1.75199v1.68112c0.01221,-0.2325 0.06593,-0.45008 0.16116,-0.65278c0.09523,-0.20865 0.22098,-0.38749 0.37604,-0.53652c0.16116,-0.15499 0.34551,-0.27423 0.55429,-0.35769c0.20877,-0.08942 0.4322,-0.13413 0.67027,-0.13413h3.14748c0.2454,0 0.47493,0.04769 0.68859,0.14307c0.21488,0.08943 0.39923,0.21462 0.55429,0.37557c0.16116,0.15499 0.28691,0.3398 0.37604,0.55441c0.09523,0.21461 0.14285,0.44413 0.14285,0.68855zM262.19358,171.93165h2.32581v-2.93303h1.76176v2.93303h3.12917v1.7616h-3.12917v6.00014h3.12917v1.76164h-3.12917c-0.2393,0 -0.46516,-0.04468 -0.68004,-0.13418c-0.21488,-0.09535 -0.4029,-0.22049 -0.56283,-0.37555c-0.16116,-0.16091 -0.28935,-0.34869 -0.38458,-0.56332c-0.09035,-0.21463 -0.1343,-0.44416 -0.1343,-0.68859v-6.00014h-2.32581zM277.28879,171.93165h2.32459v-2.93303h1.76176v2.93303h3.12917v1.7616h-3.12917v6.00014h3.12917v1.76164h-3.12917c-0.23808,0 -0.46516,-0.04468 -0.68004,-0.13418c-0.21488,-0.09535 -0.40168,-0.22049 -0.56283,-0.37555c-0.16116,-0.16091 -0.28935,-0.34869 -0.38458,-0.56332c-0.08913,-0.21463 -0.1343,-0.44416 -0.1343,-0.68859v-6.00014h-2.32459zM295.68287,179.69338c0,0.24442 -0.04762,0.47395 -0.14407,0.68859c-0.08913,0.21463 -0.21366,0.40241 -0.37482,0.56332c-0.15505,0.15505 -0.33941,0.2802 -0.55429,0.37555c-0.20877,0.08949 -0.43586,0.13418 -0.68004,0.13418h-4.72977c-0.2393,0 -0.46516,-0.04468 -0.68004,-0.13418c-0.21488,-0.09535 -0.4029,-0.22049 -0.56283,-0.37555c-0.15505,-0.16091 -0.28081,-0.34869 -0.37604,-0.56332c-0.08913,-0.21463 -0.1343,-0.44416 -0.1343,-0.68859v-6.00014c0,-0.24442 0.04517,-0.47394 0.1343,-0.68855c0.09523,-0.21461 0.22098,-0.39942 0.37604,-0.55441c0.15994,-0.16095 0.34796,-0.28614 0.56283,-0.37557c0.21488,-0.09538 0.44074,-0.14307 0.68004,-0.14307h4.72977c0.24418,0 0.47127,0.04769 0.68004,0.14307c0.21488,0.08943 0.39923,0.21462 0.55429,0.37557c0.16116,0.15499 0.28569,0.3398 0.37482,0.55441c0.09645,0.21461 0.14407,0.44413 0.14407,0.68855zM289.19989,173.69325v6.00014h4.72977v-6.00014zM312.64605,174.7663c0.26738,0.08346 0.51278,0.20269 0.73254,0.35769c0.22098,0.15501 0.409,0.35471 0.56406,0.59913c0.15505,0.23845 0.27348,0.52162 0.35772,0.8495c0.08302,0.32787 0.12453,0.70345 0.12453,1.12671v0.64383c0,2.07459 -1.03654,3.11187 -3.11207,3.11187h-7.01895v-12.82303h6.65268c2.07431,0 3.11207,1.04027 3.11207,3.1208v0.2325c0,0.72133 -0.11599,1.31152 -0.34918,1.77055c-0.22587,0.45306 -0.58115,0.78989 -1.0634,1.01045zM306.09104,175.86618v3.79143h5.16807c0.48348,0 0.83265,-0.11318 1.04631,-0.33978c0.21488,-0.22648 0.32232,-0.58122 0.32232,-1.0641v-0.99258c0,-0.48884 -0.10744,-0.84354 -0.32232,-1.06411c-0.21366,-0.22057 -0.56283,-0.33086 -1.04631,-0.33086zM306.09104,170.42937v3.64839h4.92755c0.44074,-0.01789 0.75696,-0.13712 0.94742,-0.35769c0.19656,-0.22654 0.29546,-0.5723 0.29546,-1.03729v-0.84057c0,-0.48884 -0.10744,-0.84651 -0.32232,-1.07305c-0.21488,-0.22654 -0.56283,-0.3398 -1.04631,-0.3398zM318.74444,173.69325v7.76177h-1.75321v-9.52337h1.75321v1.68112c0.01221,-0.2325 0.06593,-0.45008 0.16116,-0.65278c0.09523,-0.20865 0.21976,-0.38749 0.37482,-0.53652c0.16116,-0.15499 0.34551,-0.27423 0.55429,-0.35769c0.20877,-0.08942 0.4322,-0.13413 0.67149,-0.13413h1.86798c0.2454,0 0.47127,0.04769 0.68004,0.14307c0.21488,0.08943 0.4029,0.21462 0.56283,0.37557c0.16116,0.15499 0.28691,0.3398 0.37604,0.55441c0.09523,0.21461 0.14285,0.44413 0.14285,0.68855v1.60959h-1.76176v-1.60959zM334.38417,177.59202h-6.30473v2.10136h6.30473v1.76164h-6.30473c-0.23808,0 -0.46516,-0.04468 -0.67882,-0.13418c-0.21488,-0.09535 -0.4029,-0.22049 -0.56406,-0.37555c-0.15505,-0.16091 -0.27959,-0.34869 -0.37482,-0.56332c-0.09035,-0.21463 -0.1343,-0.44416 -0.1343,-0.68859v-6.00014c0,-0.24442 0.04395,-0.47394 0.1343,-0.68855c0.09523,-0.21461 0.21976,-0.39942 0.37482,-0.55441c0.16116,-0.16095 0.34918,-0.28614 0.56406,-0.37557c0.21366,-0.09538 0.44074,-0.14307 0.67882,-0.14307h4.54297c0.24418,0 0.47371,0.04769 0.68859,0.14307c0.21488,0.08943 0.39923,0.21462 0.55429,0.37557c0.16116,0.15499 0.28569,0.3398 0.37604,0.55441c0.09523,0.21461 0.14285,0.44413 0.14285,0.68855zM328.07944,173.69325v2.13717h4.54297v-2.13717zM337.32654,177.29693c0,-0.24442 0.04395,-0.47095 0.13308,-0.6796c0.09645,-0.21461 0.22098,-0.4024 0.37604,-0.56336c0.16116,-0.16095 0.34918,-0.28614 0.56283,-0.37557c0.21488,-0.09538 0.44197,-0.14307 0.68004,-0.14307h4.54297v-1.84208h-5.75044v-1.7616h5.75044c0.24418,0 0.47371,0.04769 0.68859,0.14307c0.21488,0.08943 0.39923,0.21462 0.55429,0.37557c0.16116,0.15499 0.28569,0.3398 0.37482,0.55441c0.09645,0.21461 0.14407,0.44413 0.14407,0.68855v7.76177h-1.76176v-1.60963c-0.01831,0.22062 -0.07814,0.42927 -0.17947,0.62596c-0.10133,0.19681 -0.23197,0.36969 -0.39313,0.51864c-0.15505,0.14309 -0.33331,0.25639 -0.53598,0.3399c-0.20267,0.08339 -0.41755,0.12514 -0.64464,0.12514h-2.78976c-0.23808,0 -0.46516,-0.04468 -0.68004,-0.13418c-0.21366,-0.09535 -0.40168,-0.22049 -0.56283,-0.37555c-0.15505,-0.16091 -0.27959,-0.34869 -0.37604,-0.56332c-0.08913,-0.21463 -0.13308,-0.44416 -0.13308,-0.68859zM339.07853,179.69338h4.54297v-2.39646h-4.54297zM354.62058,181.45502l-4.54297,-4.06867v4.06867h-1.75321v-13.18965h1.75321v7.42197l4.17548,-3.7557h2.47721l-5.11435,4.59626l5.48062,4.92711zM360.59323,175.48167c0,-0.25038 0.02442,-0.47393 0.07203,-0.67065c0.05372,-0.19674 0.13064,-0.37259 0.23197,-0.52759c0.10133,-0.15501 0.23319,-0.29509 0.39313,-0.42028c0.16726,-0.13115 0.36139,-0.25038 0.58237,-0.35769l2.36,-1.13566v-1.90466h-4.39036v1.65429h-1.83379v-1.65429c0,-0.25038 0.04884,-0.48586 0.14407,-0.70644c0.09523,-0.22653 0.22587,-0.42028 0.39313,-0.58123c0.16726,-0.16692 0.36017,-0.29807 0.58115,-0.39346c0.22709,-0.10135 0.46516,-0.15201 0.71545,-0.15201h4.39036c0.25028,0 0.48592,0.05067 0.7069,0.15201c0.22587,0.09539 0.42243,0.22654 0.58969,0.39346c0.16726,0.16095 0.2979,0.35471 0.39313,0.58123c0.09645,0.22058 0.14407,0.45605 0.14407,0.70644v1.57381c0,0.25038 -0.02442,0.47393 -0.07203,0.67065c-0.04762,0.19674 -0.12209,0.37557 -0.22342,0.53654c-0.10133,0.15499 -0.23563,0.29509 -0.4029,0.42028c-0.16116,0.12518 -0.35406,0.24441 -0.58115,0.35767l-2.36977,1.12672v1.54699h-1.82402zM360.22696,178.78132h2.67377v2.6737h-2.67377z" fill="#57a71a" stroke="#57a71a" stroke-width="0.5"/><path d="M114.84218,186.45707h4.50324v0.88342h-3.61981v1.76682h3.0898v0.88342h-3.0898v2.64592h-0.88343zM124.46492,191.78771c0,0.11778 -0.02301,0.22839 -0.06896,0.33182c-0.04307,0.10343 -0.10344,0.19393 -0.18098,0.27147c-0.07472,0.07472 -0.16374,0.13503 -0.26718,0.18098c-0.10055,0.04313 -0.20969,0.06466 -0.32748,0.06466h-2.27969c-0.11491,0 -0.22405,-0.02153 -0.32749,-0.06466c-0.10343,-0.04595 -0.19393,-0.10626 -0.27147,-0.18098c-0.07472,-0.07754 -0.13503,-0.16804 -0.18098,-0.27147c-0.04313,-0.10343 -0.06466,-0.21404 -0.06466,-0.33182v-2.89156c0,-0.11779 0.02153,-0.2284 0.06466,-0.33182c0.04595,-0.10342 0.10626,-0.19248 0.18098,-0.26718c0.07754,-0.07757 0.16804,-0.13789 0.27147,-0.18099c0.10343,-0.04596 0.21258,-0.06895 0.32749,-0.06895h2.27969c0.11779,0 0.22693,0.02298 0.32748,0.06895c0.10343,0.0431 0.19245,0.10343 0.26718,0.18099c0.07754,0.07469 0.13791,0.16376 0.18098,0.26718c0.04595,0.10342 0.06896,0.21403 0.06896,0.33182zM121.34063,188.89615v2.89156h2.27969v-2.89156zM126.7273,188.89615v3.74049h-0.8446v-4.58943h0.8446v0.81015c0.00577,-0.11204 0.0316,-0.2169 0.07761,-0.31458c0.04595,-0.10055 0.10626,-0.18673 0.18098,-0.25856c0.07754,-0.07469 0.16663,-0.13215 0.26718,-0.17238c0.10055,-0.04309 0.20828,-0.06464 0.32319,-0.06464h0.90067c0.11773,0 0.22693,0.02298 0.32748,0.06895c0.10343,0.0431 0.19393,0.10343 0.27147,0.18099c0.0776,0.07469 0.13791,0.16376 0.18098,0.26718c0.04601,0.10342 0.06896,0.21403 0.06896,0.33182v0.77568h-0.84889v-0.77568zM133.99716,189.99072c-0.12067,0 -0.23558,-0.02298 -0.34479,-0.06895c-0.10626,-0.04884 -0.19963,-0.11204 -0.28006,-0.18961c-0.08049,-0.08044 -0.14368,-0.17381 -0.18963,-0.28011c-0.04595,-0.10916 -0.06895,-0.22409 -0.06895,-0.34475v-1.76682c0,-0.12066 0.023,-0.23414 0.06895,-0.34044c0.04595,-0.10916 0.10914,-0.20254 0.18963,-0.2801c0.08043,-0.08044 0.1738,-0.14365 0.28006,-0.18961c0.1092,-0.04884 0.22411,-0.07326 0.34479,-0.07326h2.99926c0.12067,0 0.23417,0.02442 0.34043,0.07326c0.1092,0.04596 0.20398,0.10917 0.28441,0.18961c0.08049,0.07757 0.14368,0.17094 0.18963,0.2801c0.04595,0.1063 0.06896,0.21978 0.06896,0.34044v0.79723h-0.88343v-0.79723h-2.99926v1.76682h2.99926c0.12067,0 0.23417,0.02299 0.34043,0.06895c0.1092,0.04597 0.20398,0.10917 0.28441,0.18962c0.08049,0.08044 0.14368,0.17524 0.18963,0.28441c0.04595,0.10629 0.06896,0.21978 0.06896,0.34044v1.76252c0,0.12066 -0.02301,0.23558 -0.06896,0.34476c-0.04595,0.10626 -0.10914,0.19963 -0.18963,0.28006c-0.08043,0.08049 -0.17521,0.14368 -0.28441,0.18963c-0.10626,0.04595 -0.21976,0.06895 -0.34043,0.06895h-3.08546c-0.12067,0 -0.23558,-0.023 -0.34472,-0.06895c-0.10632,-0.04595 -0.19969,-0.10914 -0.28012,-0.18963c-0.08043,-0.08043 -0.14368,-0.1738 -0.18963,-0.28006c-0.04595,-0.10918 -0.06896,-0.2241 -0.06896,-0.34476v-0.79292h0.88343v0.79292h3.08546v-1.76252zM139.38813,190.63281c0,-0.11779 0.02153,-0.22696 0.0646,-0.32751c0.04601,-0.10342 0.10632,-0.19392 0.18104,-0.27149c0.07754,-0.07757 0.16804,-0.13789 0.27147,-0.18099c0.10343,-0.04596 0.21258,-0.06895 0.32748,-0.06895h2.18914v-0.88772h-2.77085v-0.84894h2.77085c0.11779,0 0.2284,0.02298 0.33184,0.06895c0.10343,0.0431 0.19245,0.10343 0.26718,0.18099c0.07754,0.07469 0.13791,0.16376 0.18098,0.26718c0.04595,0.10342 0.06896,0.21403 0.06896,0.33182v3.74049h-0.84896v-0.77568c-0.00859,0.10629 -0.03736,0.20685 -0.08619,0.30163c-0.04883,0.09484 -0.11203,0.17816 -0.18957,0.24994c-0.07472,0.06895 -0.16092,0.12356 -0.25859,0.1638c-0.09767,0.04018 -0.2011,0.06031 -0.31025,0.06031h-1.34453c-0.11491,0 -0.22405,-0.02153 -0.32748,-0.06466c-0.10343,-0.04595 -0.19393,-0.10626 -0.27147,-0.18098c-0.07472,-0.07754 -0.13503,-0.16804 -0.18104,-0.27147c-0.04307,-0.10343 -0.0646,-0.21404 -0.0646,-0.33182zM140.23273,191.78771h2.18914v-1.1549h-2.18914zM146.39075,187.12933v0.91789h1.50828v0.84894h-1.50828v3.74049h-0.8489v-3.74049h-1.12042v-0.84894h1.12042v-0.91789c0,-0.11779 0.02153,-0.22696 0.0646,-0.32751c0.04595,-0.10343 0.10774,-0.19392 0.18534,-0.27149c0.07754,-0.07757 0.16804,-0.1379 0.27147,-0.18099c0.10343,-0.04596 0.21258,-0.06895 0.32749,-0.06895h1.50828v0.84894zM152.93233,190.77502h-3.03809v1.01269h3.03809v0.84894h-3.03809c-0.11491,0 -0.22405,-0.02153 -0.32748,-0.06466c-0.10343,-0.04595 -0.19393,-0.10626 -0.27147,-0.18098c-0.07472,-0.07754 -0.13503,-0.16804 -0.18104,-0.27147c-0.04307,-0.10343 -0.0646,-0.21404 -0.0646,-0.33182v-2.89156c0,-0.11779 0.02153,-0.2284 0.0646,-0.33182c0.04601,-0.10342 0.10632,-0.19248 0.18104,-0.26718c0.07754,-0.07757 0.16804,-0.13789 0.27147,-0.18099c0.10343,-0.04596 0.21258,-0.06895 0.32748,-0.06895h2.18914c0.11779,0 0.2284,0.02298 0.33184,0.06895c0.10343,0.0431 0.19245,0.10343 0.26718,0.18099c0.07754,0.07469 0.13791,0.16376 0.18098,0.26718c0.04595,0.10342 0.06896,0.21403 0.06896,0.33182zM149.89423,188.89615v1.02993h2.18914v-1.02993zM154.08293,188.04722h1.12042v-1.41346h0.8489v1.41346h1.50828v0.84894h-1.50828v2.89156h1.50828v0.84894h-1.50828c-0.11491,0 -0.22405,-0.02153 -0.32749,-0.06466c-0.10343,-0.04595 -0.19393,-0.10626 -0.27147,-0.18098c-0.0776,-0.07754 -0.13938,-0.16804 -0.18533,-0.27147c-0.04307,-0.10343 -0.06461,-0.21404 -0.06461,-0.33182v-2.89156h-1.12042zM159.28862,194.48965l0.9608,-2.26668l-1.80117,-4.17575h0.89214l1.3403,3.15873l1.33971,-3.15873h0.89255l-2.78003,6.44243zM166.44198,190.63281c0,-0.11779 0.02177,-0.22696 0.06472,-0.32751c0.04589,-0.10342 0.1065,-0.19392 0.18122,-0.27149c0.07708,-0.07757 0.16768,-0.13789 0.27123,-0.18099c0.10355,-0.04596 0.2124,-0.06895 0.32772,-0.06895h2.18872v-0.88772h-2.77062v-0.84894h2.77062c0.11826,0 0.22887,0.02298 0.33184,0.06895c0.10355,0.0431 0.1924,0.10343 0.26712,0.18099c0.07766,0.07469 0.13827,0.16376 0.18122,0.26718c0.04589,0.10342 0.06884,0.21403 0.06884,0.33182v3.74049h-0.84901v-0.77568c-0.00824,0.10629 -0.03707,0.20685 -0.0859,0.30163c-0.04883,0.09484 -0.11237,0.17816 -0.18945,0.24994c-0.07472,0.06895 -0.16121,0.12356 -0.25888,0.1638c-0.09767,0.04018 -0.20122,0.06031 -0.31007,0.06031h-1.34442c-0.11532,0 -0.22417,-0.02153 -0.32772,-0.06466c-0.10355,-0.04595 -0.19416,-0.10626 -0.27123,-0.18098c-0.07472,-0.07754 -0.13533,-0.16804 -0.18122,-0.27147c-0.04295,-0.10343 -0.06472,-0.21404 -0.06472,-0.33182zM167.28688,191.78771h2.18872v-1.1549h-2.18872zM175.80172,192.63664h-0.84901v-3.74049h-2.36582v3.74049h-0.84431v-4.58943h0.84431v0.81015c0.00589,-0.11204 0.03177,-0.2169 0.07766,-0.31458c0.04589,-0.10055 0.1065,-0.18673 0.18122,-0.25856c0.07766,-0.07469 0.16651,-0.13215 0.26712,-0.17238c0.10061,-0.04309 0.20828,-0.06464 0.32301,-0.06464h1.51681c0.11826,0 0.22887,0.02298 0.33184,0.06895c0.10355,0.0431 0.19299,0.10343 0.26771,0.18099c0.07708,0.07469 0.13768,0.16376 0.18063,0.26718c0.04589,0.10342 0.06884,0.21403 0.06884,0.33182zM177.21556,188.89615c0,-0.11779 0.02118,-0.2284 0.06472,-0.33182c0.04589,-0.10342 0.10591,-0.19248 0.18063,-0.26718c0.07766,-0.07757 0.16827,-0.13789 0.27182,-0.18099c0.10297,-0.04596 0.2124,-0.06895 0.32713,-0.06895h2.36582v-1.76682h0.84901v6.35625h-0.84901v-0.77568c-0.00824,0.10629 -0.03707,0.20685 -0.0859,0.30163c-0.04883,0.09484 -0.11238,0.17816 -0.19004,0.24994c-0.07413,0.06895 -0.16062,0.12356 -0.25829,0.1638c-0.09767,0.04018 -0.20122,0.06031 -0.31007,0.06031h-1.52152c-0.11473,0 -0.22417,-0.02153 -0.32713,-0.06466c-0.10355,-0.04595 -0.19416,-0.10626 -0.27182,-0.18098c-0.07472,-0.07754 -0.13474,-0.16804 -0.18063,-0.27147c-0.04354,-0.10343 -0.06472,-0.21404 -0.06472,-0.33182zM178.05987,191.78771h2.36582v-2.89156h-2.36582zM185.42033,186.45707h4.50336v0.88342h-3.62022v1.76682h3.0901v0.88342h-3.0901v1.76252h3.62022v0.88341h-4.50336zM192.86258,187.12933v0.91789h1.50798v0.84894h-1.50798v3.74049h-0.84902v-3.74049h-1.12025v-0.84894h1.12025v-0.91789c0,-0.11779 0.02177,-0.22696 0.06472,-0.32751c0.04589,-0.10343 0.10768,-0.19392 0.18534,-0.27149c0.07766,-0.07757 0.16768,-0.1379 0.27123,-0.18099c0.10355,-0.04596 0.21299,-0.06895 0.32772,-0.06895h1.50798v0.84894zM197.22355,187.12933v0.91789h1.50798v0.84894h-1.50798v3.74049h-0.84901v-3.74049h-1.12025v-0.84894h1.12025v-0.91789c0,-0.11779 0.02176,-0.22696 0.06472,-0.32751c0.04589,-0.10343 0.10768,-0.19392 0.18534,-0.27149c0.07766,-0.07757 0.16827,-0.1379 0.27123,-0.18099c0.10355,-0.04596 0.21299,-0.06895 0.32772,-0.06895h1.50798v0.84894zM203.76501,190.77502h-3.03774v1.01269h3.03774v0.84894h-3.03774c-0.11532,0 -0.22417,-0.02153 -0.32772,-0.06466c-0.10355,-0.04595 -0.19416,-0.10626 -0.27124,-0.18098c-0.07472,-0.07754 -0.13532,-0.16804 -0.18121,-0.27147c-0.04295,-0.10343 -0.06472,-0.21404 -0.06472,-0.33182v-2.89156c0,-0.11779 0.02177,-0.2284 0.06472,-0.33182c0.04589,-0.10342 0.10649,-0.19248 0.18121,-0.26718c0.07708,-0.07757 0.16769,-0.13789 0.27124,-0.18099c0.10355,-0.04596 0.2124,-0.06895 0.32772,-0.06895h2.18873c0.11826,0 0.22829,0.02298 0.33184,0.06895c0.10355,0.0431 0.1924,0.10343 0.26712,0.18099c0.07766,0.07469 0.13826,0.16376 0.18121,0.26718c0.04589,0.10342 0.06884,0.21403 0.06884,0.33182zM200.72727,188.89615v1.02993h2.18873v-1.02993zM206.02728,188.89615v2.89156h2.18931v-0.77568h0.84901v0.77568c0,0.11778 -0.02295,0.22839 -0.06884,0.33182c-0.04295,0.10343 -0.10355,0.19393 -0.18121,0.27147c-0.07472,0.07472 -0.16357,0.13503 -0.26712,0.18098c-0.10355,0.04313 -0.21416,0.06466 -0.33184,0.06466h-2.18931c-0.11473,0 -0.22358,-0.02153 -0.32713,-0.06466c-0.10355,-0.04595 -0.19416,-0.10626 -0.27182,-0.18098c-0.07472,-0.07754 -0.13474,-0.16804 -0.18063,-0.27147c-0.04354,-0.10343 -0.06472,-0.21404 -0.06472,-0.33182v-2.89156c0,-0.11779 0.02118,-0.2284 0.06472,-0.33182c0.04589,-0.10342 0.10591,-0.19248 0.18063,-0.26718c0.07766,-0.07757 0.16827,-0.13789 0.27182,-0.18099c0.10355,-0.04596 0.2124,-0.06895 0.32713,-0.06895h2.18931c0.11767,0 0.22829,0.02298 0.33184,0.06895c0.10355,0.0431 0.1924,0.10343 0.26712,0.18099c0.07766,0.07469 0.13826,0.16376 0.18121,0.26718c0.04589,0.10342 0.06884,0.21403 0.06884,0.33182v0.77568h-0.84901v-0.77568zM210.21645,188.04722h1.12025v-1.41346h0.84901v1.41346h1.50798v0.84894h-1.50798v2.89156h1.50798v0.84894h-1.50798c-0.11532,0 -0.22417,-0.02153 -0.32772,-0.06466c-0.10355,-0.04595 -0.19416,-0.10626 -0.27123,-0.18098c-0.07766,-0.07754 -0.13944,-0.16804 -0.18533,-0.27147c-0.04354,-0.10343 -0.06472,-0.21404 -0.06472,-0.33182v-2.89156h-1.12025zM216.00362,188.04722v4.58943h-0.84901v-4.58943zM215.11166,186.28039h0.93492v0.88341h-0.93492zM218.77012,192.63664l-1.83571,-4.58943h0.88314l1.39207,3.57243l1.39619,-3.57243h0.88373l-1.8357,4.58943zM226.26003,190.77502h-3.03832v1.01269h3.03832v0.84894h-3.03832c-0.11473,0 -0.22417,-0.02153 -0.32772,-0.06466c-0.10297,-0.04595 -0.19358,-0.10626 -0.27124,-0.18098c-0.07472,-0.07754 -0.13532,-0.16804 -0.18121,-0.27147c-0.04295,-0.10343 -0.06472,-0.21404 -0.06472,-0.33182v-2.89156c0,-0.11779 0.02177,-0.2284 0.06472,-0.33182c0.04589,-0.10342 0.10649,-0.19248 0.18121,-0.26718c0.07766,-0.07757 0.16827,-0.13789 0.27124,-0.18099c0.10355,-0.04596 0.21299,-0.06895 0.32772,-0.06895h2.18931c0.11767,0 0.22829,0.02298 0.33184,0.06895c0.10297,0.0431 0.1924,0.10343 0.26712,0.18099c0.07766,0.07469 0.13768,0.16376 0.18063,0.26718c0.04648,0.10342 0.06943,0.21403 0.06943,0.33182zM223.2217,188.89615v1.02993h2.18931v-1.02993zM231.73713,192.63664h-0.84901v-3.74049h-2.36582v3.74049h-0.8449v-4.58943h0.8449v0.81015c0.00589,-0.11204 0.03177,-0.2169 0.07766,-0.31458c0.04589,-0.10055 0.10591,-0.18673 0.18063,-0.25856c0.07766,-0.07469 0.16651,-0.13215 0.26712,-0.17238c0.10061,-0.04309 0.20828,-0.06464 0.3236,-0.06464h1.51681c0.11767,0 0.22829,0.02298 0.33184,0.06895c0.10355,0.0431 0.1924,0.10343 0.26712,0.18099c0.07766,0.07469 0.13768,0.16376 0.18063,0.26718c0.04648,0.10342 0.06943,0.21403 0.06943,0.33182zM237.03302,190.77502h-3.03774v1.01269h3.03774v0.84894h-3.03774c-0.11532,0 -0.22417,-0.02153 -0.32772,-0.06466c-0.10355,-0.04595 -0.19416,-0.10626 -0.27124,-0.18098c-0.07472,-0.07754 -0.13532,-0.16804 -0.18121,-0.27147c-0.04295,-0.10343 -0.06472,-0.21404 -0.06472,-0.33182v-2.89156c0,-0.11779 0.02177,-0.2284 0.06472,-0.33182c0.04589,-0.10342 0.10649,-0.19248 0.18121,-0.26718c0.07708,-0.07757 0.16769,-0.13789 0.27124,-0.18099c0.10355,-0.04596 0.2124,-0.06895 0.32772,-0.06895h2.18872c0.11767,0 0.22829,0.02298 0.33184,0.06895c0.10355,0.0431 0.1924,0.10343 0.26712,0.18099c0.07766,0.07469 0.13826,0.16376 0.18121,0.26718c0.04589,0.10342 0.06884,0.21403 0.06884,0.33182zM233.99528,188.89615v1.02993h2.18872v-1.02993zM241.2216,191.78771v-1.0644h-2.01221c-0.11767,0 -0.22829,-0.02155 -0.33184,-0.06464c-0.10355,-0.04596 -0.19416,-0.10629 -0.27182,-0.18099c-0.07413,-0.07757 -0.13474,-0.16807 -0.18063,-0.27149c-0.04295,-0.10342 -0.06472,-0.21403 -0.06472,-0.33182v-0.97822c0,-0.11779 0.02177,-0.2284 0.06472,-0.33182c0.04589,-0.10342 0.1065,-0.19248 0.18063,-0.26718c0.07766,-0.07757 0.16827,-0.13789 0.27182,-0.18099c0.10355,-0.04596 0.21416,-0.06895 0.33184,-0.06895h2.68472v0.84894h-2.68472v0.97822h2.01221c0.11767,0 0.22711,0.02298 0.32772,0.06895c0.10355,0.0431 0.19416,0.10342 0.27123,0.18099c0.07766,0.07469 0.13827,0.16376 0.18122,0.26718c0.04589,0.10342 0.06884,0.21403 0.06884,0.33182v1.0644c0,0.11778 -0.02294,0.22839 -0.06884,0.33182c-0.04295,0.10343 -0.10356,0.19393 -0.18122,0.27147c-0.07708,0.07472 -0.16768,0.13503 -0.27123,0.18098c-0.10061,0.04313 -0.21005,0.06466 -0.32772,0.06466h-2.86123v-0.84894zM246.16859,191.78771v-1.0644h-2.01221c-0.11767,0 -0.22829,-0.02155 -0.33184,-0.06464c-0.10355,-0.04596 -0.19358,-0.10629 -0.27124,-0.18099c-0.07472,-0.07757 -0.13532,-0.16807 -0.18121,-0.27149c-0.04295,-0.10342 -0.06472,-0.21403 -0.06472,-0.33182v-0.97822c0,-0.11779 0.02177,-0.2284 0.06472,-0.33182c0.04589,-0.10342 0.10649,-0.19248 0.18121,-0.26718c0.07766,-0.07757 0.16769,-0.13789 0.27124,-0.18099c0.10355,-0.04596 0.21416,-0.06895 0.33184,-0.06895h2.68472v0.84894h-2.68472v0.97822h2.01221c0.11826,0 0.22711,0.02298 0.32772,0.06895c0.10355,0.0431 0.19417,0.10342 0.27183,0.18099c0.07708,0.07469 0.13767,0.16376 0.18062,0.26718c0.04589,0.10342 0.06884,0.21403 0.06884,0.33182v1.0644c0,0.11778 -0.02295,0.22839 -0.06884,0.33182c-0.04295,0.10343 -0.10355,0.19393 -0.18062,0.27147c-0.07766,0.07472 -0.16828,0.13503 -0.27183,0.18098c-0.10061,0.04313 -0.20945,0.06466 -0.32772,0.06466h-2.86123v-0.84894zM254.95996,191.78771c0,0.11778 -0.02294,0.22839 -0.06884,0.33182c-0.04354,0.10343 -0.10356,0.19393 -0.18122,0.27147c-0.07472,0.07472 -0.16357,0.13503 -0.26712,0.18098c-0.10061,0.04313 -0.20946,0.06466 -0.32772,0.06466h-2.27933c-0.11473,0 -0.22417,-0.02153 -0.32772,-0.06466c-0.10355,-0.04595 -0.19358,-0.10626 -0.27124,-0.18098c-0.07472,-0.07754 -0.13532,-0.16804 -0.18121,-0.27147c-0.04295,-0.10343 -0.06472,-0.21404 -0.06472,-0.33182v-2.89156c0,-0.11779 0.02177,-0.2284 0.06472,-0.33182c0.04589,-0.10342 0.10649,-0.19248 0.18121,-0.26718c0.07766,-0.07757 0.16769,-0.13789 0.27124,-0.18099c0.10355,-0.04596 0.21299,-0.06895 0.32772,-0.06895h2.27933c0.11826,0 0.22711,0.02298 0.32772,0.06895c0.10355,0.0431 0.1924,0.10343 0.26712,0.18099c0.07766,0.07469 0.13768,0.16376 0.18122,0.26718c0.04589,0.10342 0.06884,0.21403 0.06884,0.33182zM251.83573,188.89615v2.89156h2.27933v-2.89156zM258.08006,187.12933v0.91789h1.50798v0.84894h-1.50798v3.74049h-0.84901v-3.74049h-1.12084v-0.84894h1.12084v-0.91789c0,-0.11779 0.02118,-0.22696 0.06472,-0.32751c0.04589,-0.10343 0.10767,-0.19392 0.18533,-0.27149c0.07708,-0.07757 0.16769,-0.1379 0.27124,-0.18099c0.10355,-0.04596 0.2124,-0.06895 0.32772,-0.06895h1.50798v0.84894zM263.38478,190.63281c0,-0.11779 0.02118,-0.22696 0.06472,-0.32751c0.04589,-0.10342 0.10591,-0.19392 0.18063,-0.27149c0.07766,-0.07757 0.16827,-0.13789 0.27182,-0.18099c0.10297,-0.04596 0.2124,-0.06895 0.32713,-0.06895h2.18931v-0.88772h-2.77062v-0.84894h2.77062c0.11767,0 0.22829,0.02298 0.33184,0.06895c0.10355,0.0431 0.1924,0.10343 0.26712,0.18099c0.07766,0.07469 0.13768,0.16376 0.18121,0.26718c0.04589,0.10342 0.06884,0.21403 0.06884,0.33182v3.74049h-0.84901v-0.77568c-0.00883,0.10629 -0.03707,0.20685 -0.0859,0.30163c-0.04883,0.09484 -0.11238,0.17816 -0.19004,0.24994c-0.07472,0.06895 -0.16063,0.12356 -0.2583,0.1638c-0.09767,0.04018 -0.20122,0.06031 -0.31066,0.06031h-1.34442c-0.11473,0 -0.22417,-0.02153 -0.32713,-0.06466c-0.10355,-0.04595 -0.19416,-0.10626 -0.27182,-0.18098c-0.07472,-0.07754 -0.13474,-0.16804 -0.18063,-0.27147c-0.04354,-0.10343 -0.06472,-0.21404 -0.06472,-0.33182zM264.22908,191.78771h2.18931v-1.1549h-2.18931zM272.28323,192.63664l-1.48209,-4.58943h0.85725l1.08612,3.46038l1.01258,-3.46038h0.86608l1.01258,3.46038l1.08612,-3.46038h0.85784l-1.48268,4.58943h-0.88314l-1.02552,-3.36989l-1.0214,3.36989zM282.43608,191.78771c0,0.11778 -0.02295,0.22839 -0.06884,0.33182c-0.04295,0.10343 -0.10355,0.19393 -0.18121,0.27147c-0.07472,0.07472 -0.16357,0.13503 -0.26712,0.18098c-0.10061,0.04313 -0.20945,0.06466 -0.32713,0.06466h-2.27992c-0.11473,0 -0.22417,-0.02153 -0.32772,-0.06466c-0.10297,-0.04595 -0.19358,-0.10626 -0.27124,-0.18098c-0.07472,-0.07754 -0.13533,-0.16804 -0.18122,-0.27147c-0.04295,-0.10343 -0.06413,-0.21404 -0.06413,-0.33182v-2.89156c0,-0.11779 0.02118,-0.2284 0.06413,-0.33182c0.04589,-0.10342 0.1065,-0.19248 0.18122,-0.26718c0.07766,-0.07757 0.16827,-0.13789 0.27124,-0.18099c0.10355,-0.04596 0.21298,-0.06895 0.32772,-0.06895h2.27992c0.11767,0 0.22652,0.02298 0.32713,0.06895c0.10355,0.0431 0.1924,0.10343 0.26712,0.18099c0.07766,0.07469 0.13826,0.16376 0.18121,0.26718c0.04589,0.10342 0.06884,0.21403 0.06884,0.33182zM279.31186,188.89615v2.89156h2.27992v-2.89156zM284.69835,188.89615v3.74049h-0.84431v-4.58943h0.84431v0.81015c0.00589,-0.11204 0.03177,-0.2169 0.07766,-0.31458c0.04589,-0.10055 0.1065,-0.18673 0.18122,-0.25856c0.07766,-0.07469 0.16651,-0.13215 0.26712,-0.17238c0.10061,-0.04309 0.20828,-0.06464 0.32301,-0.06464h0.90079c0.11767,0 0.22711,0.02298 0.32772,0.06895c0.10297,0.0431 0.19358,0.10343 0.27124,0.18099c0.07766,0.07469 0.13768,0.16376 0.18121,0.26718c0.04589,0.10342 0.06884,0.21403 0.06884,0.33182v0.77568h-0.84901v-0.77568zM291.3869,192.63664l-2.18931,-1.96074v1.96074h-0.84489v-6.35625h0.84489v3.57674l2.01221,-1.80991h1.1938l-2.46467,2.21499l2.64118,2.37443zM297.16525,191.78771c0,0.11778 -0.02295,0.22839 -0.06884,0.33182c-0.04295,0.10343 -0.10355,0.19393 -0.18121,0.27147c-0.07413,0.07472 -0.16357,0.13503 -0.26712,0.18098c-0.10061,0.04313 -0.20945,0.06466 -0.32713,0.06466h-2.27992c-0.11473,0 -0.22417,-0.02153 -0.32713,-0.06466c-0.10355,-0.04595 -0.19416,-0.10626 -0.27182,-0.18098c-0.07472,-0.07754 -0.13474,-0.16804 -0.18063,-0.27147c-0.04354,-0.10343 -0.06472,-0.21404 -0.06472,-0.33182v-2.89156c0,-0.11779 0.02118,-0.2284 0.06472,-0.33182c0.04589,-0.10342 0.10591,-0.19248 0.18063,-0.26718c0.07766,-0.07757 0.16827,-0.13789 0.27182,-0.18099c0.10297,-0.04596 0.2124,-0.06895 0.32713,-0.06895h2.27992c0.11767,0 0.22652,0.02298 0.32713,0.06895c0.10355,0.0431 0.19299,0.10343 0.26712,0.18099c0.07766,0.07469 0.13826,0.16376 0.18121,0.26718c0.04589,0.10342 0.06884,0.21403 0.06884,0.33182zM294.04102,188.89615v2.89156h2.27992v-2.89156zM298.58321,188.04722h0.84489v3.74049h2.36582v-3.74049h0.84843v4.58943h-0.84843v-0.77568c-0.00883,0.10629 -0.03766,0.20685 -0.08649,0.30163c-0.04883,0.09484 -0.11179,0.17816 -0.18945,0.24994c-0.07472,0.06895 -0.16121,0.12356 -0.25888,0.1638c-0.09767,0.04018 -0.20063,0.06031 -0.31007,0.06031h-1.52093c-0.11532,0 -0.22417,-0.02153 -0.32772,-0.06466c-0.10355,-0.04595 -0.19417,-0.10626 -0.27183,-0.18098c-0.07472,-0.07754 -0.13473,-0.16804 -0.18062,-0.27147c-0.04295,-0.10343 -0.06472,-0.21404 -0.06472,-0.33182zM303.78908,188.04722h1.12025v-1.41346h0.84901v1.41346h1.50799v0.84894h-1.50799v2.89156h1.50799v0.84894h-1.50799c-0.11532,0 -0.22417,-0.02153 -0.32772,-0.06466c-0.10355,-0.04595 -0.19358,-0.10626 -0.27124,-0.18098c-0.07766,-0.07754 -0.13944,-0.16804 -0.18533,-0.27147c-0.04295,-0.10343 -0.06472,-0.21404 -0.06472,-0.33182v-2.89156h-1.12025zM309.30913,193.951h-0.62485l0.63367,-1.31435h-0.63367v-1.28848h1.28853v1.28848zM316.99261,194.48965l0.9608,-2.26668l-1.80099,-4.17575h0.89196l1.3403,3.15873l1.3403,-3.15873h0.89196l-2.77944,6.44243zM325.46921,191.78771c0,0.11778 -0.02295,0.22839 -0.06884,0.33182c-0.04354,0.10343 -0.10355,0.19393 -0.18121,0.27147c-0.07472,0.07472 -0.16357,0.13503 -0.26712,0.18098c-0.10061,0.04313 -0.21005,0.06466 -0.32772,0.06466h-2.27933c-0.11532,0 -0.22417,-0.02153 -0.32772,-0.06466c-0.10355,-0.04595 -0.19416,-0.10626 -0.27124,-0.18098c-0.07472,-0.07754 -0.13532,-0.16804 -0.18121,-0.27147c-0.04295,-0.10343 -0.06472,-0.21404 -0.06472,-0.33182v-2.89156c0,-0.11779 0.02177,-0.2284 0.06472,-0.33182c0.04589,-0.10342 0.10649,-0.19248 0.18121,-0.26718c0.07708,-0.07757 0.16769,-0.13789 0.27124,-0.18099c0.10355,-0.04596 0.2124,-0.06895 0.32772,-0.06895h2.27933c0.11767,0 0.22711,0.02298 0.32772,0.06895c0.10355,0.0431 0.1924,0.10343 0.26712,0.18099c0.07766,0.07469 0.13768,0.16376 0.18121,0.26718c0.04589,0.10342 0.06884,0.21403 0.06884,0.33182zM322.34498,188.89615v2.89156h2.27933v-2.89156zM326.88658,188.04722h0.8449v3.74049h2.36582v-3.74049h0.84901v4.58943h-0.84901v-0.77568c-0.00883,0.10629 -0.03766,0.20685 -0.08649,0.30163c-0.04883,0.09484 -0.11179,0.17816 -0.18946,0.24994c-0.07472,0.06895 -0.16062,0.12356 -0.25829,0.1638c-0.09767,0.04018 -0.20122,0.06031 -0.31066,0.06031h-1.52093c-0.11473,0 -0.22417,-0.02153 -0.32772,-0.06466c-0.10297,-0.04595 -0.19357,-0.10626 -0.27123,-0.18098c-0.07472,-0.07754 -0.13533,-0.16804 -0.18122,-0.27147c-0.04295,-0.10343 -0.06472,-0.21404 -0.06472,-0.33182zM337.77666,191.78771v-1.0644h-2.0128c-0.11767,0 -0.22829,-0.02155 -0.33184,-0.06464c-0.10297,-0.04596 -0.19358,-0.10629 -0.27124,-0.18099c-0.07472,-0.07757 -0.13532,-0.16807 -0.18121,-0.27149c-0.04295,-0.10342 -0.06472,-0.21403 -0.06472,-0.33182v-0.97822c0,-0.11779 0.02177,-0.2284 0.06472,-0.33182c0.04589,-0.10342 0.10649,-0.19248 0.18121,-0.26718c0.07766,-0.07757 0.16827,-0.13789 0.27124,-0.18099c0.10355,-0.04596 0.21416,-0.06895 0.33184,-0.06895h2.68472v0.84894h-2.68472v0.97822h2.0128c0.11767,0 0.22652,0.02298 0.32713,0.06895c0.10355,0.0431 0.19417,0.10342 0.27183,0.18099c0.07766,0.07469 0.13768,0.16376 0.18063,0.26718c0.04648,0.10342 0.06943,0.21403 0.06943,0.33182v1.0644c0,0.11778 -0.02294,0.22839 -0.06943,0.33182c-0.04295,0.10343 -0.10297,0.19393 -0.18063,0.27147c-0.07766,0.07472 -0.16828,0.13503 -0.27183,0.18098c-0.10061,0.04313 -0.20945,0.06466 -0.32713,0.06466h-2.86182v-0.84894zM344.01217,192.63664h-0.84901v-3.74049h-2.36582v3.74049h-0.8449v-6.35625h0.8449v2.57697c0.00589,-0.11204 0.03177,-0.2169 0.07766,-0.31458c0.04589,-0.10055 0.1065,-0.18673 0.18063,-0.25856c0.07766,-0.07469 0.1671,-0.13215 0.26771,-0.17238c0.10002,-0.04309 0.20828,-0.06464 0.32301,-0.06464h1.51681c0.11767,0 0.22829,0.02298 0.33184,0.06895c0.10355,0.0431 0.1924,0.10343 0.26712,0.18099c0.07766,0.07469 0.13768,0.16376 0.18122,0.26718c0.04589,0.10342 0.06884,0.21403 0.06884,0.33182zM349.39454,191.78771c0,0.11778 -0.02294,0.22839 -0.06884,0.33182c-0.04354,0.10343 -0.10356,0.19393 -0.18122,0.27147c-0.07472,0.07472 -0.16357,0.13503 -0.26712,0.18098c-0.10061,0.04313 -0.21004,0.06466 -0.32772,0.06466h-2.27933c-0.11532,0 -0.22417,-0.02153 -0.32772,-0.06466c-0.10355,-0.04595 -0.19357,-0.10626 -0.27123,-0.18098c-0.07472,-0.07754 -0.13533,-0.16804 -0.18122,-0.27147c-0.04295,-0.10343 -0.06472,-0.21404 -0.06472,-0.33182v-2.89156c0,-0.11779 0.02177,-0.2284 0.06472,-0.33182c0.04589,-0.10342 0.1065,-0.19248 0.18122,-0.26718c0.07766,-0.07757 0.16768,-0.13789 0.27123,-0.18099c0.10355,-0.04596 0.2124,-0.06895 0.32772,-0.06895h2.27933c0.11767,0 0.22711,0.02298 0.32772,0.06895c0.10355,0.0431 0.1924,0.10343 0.26712,0.18099c0.07766,0.07469 0.13768,0.16376 0.18122,0.26718c0.04589,0.10342 0.06884,0.21403 0.06884,0.33182zM346.27032,188.89615v2.89156h2.27933v-2.89156zM350.81192,188.04722h0.84489v3.74049h2.36582v-3.74049h0.84902v4.58943h-0.84902v-0.77568c-0.00883,0.10629 -0.03707,0.20685 -0.0859,0.30163c-0.04883,0.09484 -0.11238,0.17816 -0.19004,0.24994c-0.07472,0.06895 -0.16063,0.12356 -0.2583,0.1638c-0.09767,0.04018 -0.20122,0.06031 -0.31066,0.06031h-1.52093c-0.11473,0 -0.22417,-0.02153 -0.32772,-0.06466c-0.10297,-0.04595 -0.19358,-0.10626 -0.27124,-0.18098c-0.07472,-0.07754 -0.13532,-0.16804 -0.18121,-0.27147c-0.04295,-0.10343 -0.06472,-0.21404 -0.06472,-0.33182zM357.1298,186.28039v6.35625h-0.8449v-6.35625zM358.54305,188.89615c0,-0.11779 0.02177,-0.2284 0.06472,-0.33182c0.04589,-0.10342 0.10649,-0.19248 0.18121,-0.26718c0.07708,-0.07757 0.16769,-0.13789 0.27124,-0.18099c0.10355,-0.04596 0.2124,-0.06895 0.32772,-0.06895h2.36583v-1.76682h0.84901v6.35625h-0.84901v-0.77568c-0.00883,0.10629 -0.03766,0.20685 -0.08649,0.30163c-0.04883,0.09484 -0.11179,0.17816 -0.18945,0.24994c-0.07472,0.06895 -0.16063,0.12356 -0.25888,0.1638c-0.09767,0.04018 -0.20063,0.06031 -0.31007,0.06031h-1.52093c-0.11532,0 -0.22417,-0.02153 -0.32772,-0.06466c-0.10355,-0.04595 -0.19416,-0.10626 -0.27124,-0.18098c-0.07472,-0.07754 -0.13532,-0.16804 -0.18121,-0.27147c-0.04295,-0.10343 -0.06472,-0.21404 -0.06472,-0.33182zM359.38795,191.78771h2.36583v-2.89156h-2.36583zM104.60756,200.61319c0,0.11779 -0.02299,0.2284 -0.06895,0.33184c-0.04309,0.10343 -0.10342,0.19393 -0.18099,0.27147c-0.07469,0.07472 -0.16376,0.13503 -0.26718,0.18098c-0.10342,0.04313 -0.21403,0.06466 -0.33181,0.06466h-2.36583c-0.11491,0 -0.22409,-0.02153 -0.32751,-0.06466c-0.10342,-0.04595 -0.19392,-0.10626 -0.27149,-0.18098c-0.07469,-0.07754 -0.13502,-0.16804 -0.18099,-0.27147c-0.04309,-0.10343 -0.06464,-0.21405 -0.06464,-0.33184v-5.50728h0.84463v2.57699c0.00574,-0.11208 0.0316,-0.21693 0.07757,-0.3146c0.04596,-0.10055 0.10629,-0.18675 0.18099,-0.25859c0.07757,-0.07466 0.16663,-0.13215 0.26718,-0.17233c0.10055,-0.04313 0.20828,-0.06466 0.3232,-0.06466h1.51689c0.11778,0 0.22839,0.023 0.33181,0.06895c0.10342,0.04307 0.19248,0.10344 0.26718,0.18098c0.07757,0.07472 0.1379,0.16374 0.18099,0.26718c0.04596,0.10343 0.06895,0.21405 0.06895,0.33184zM101.39279,197.72166v2.89153h2.36583v-2.89153zM109.90373,199.60049h-3.03809v1.0127h3.03809v0.84896h-3.03809c-0.11491,0 -0.22411,-0.02153 -0.32749,-0.06466c-0.10343,-0.04595 -0.19393,-0.10626 -0.27153,-0.18098c-0.07466,-0.07754 -0.13503,-0.16804 -0.18098,-0.27147c-0.04307,-0.10343 -0.06466,-0.21405 -0.06466,-0.33184v-2.89153c0,-0.11779 0.02159,-0.2284 0.06466,-0.33184c0.04595,-0.10343 0.10632,-0.19245 0.18098,-0.26718c0.0776,-0.07754 0.1681,-0.13791 0.27153,-0.18098c0.10337,-0.04595 0.21258,-0.06895 0.32749,-0.06895h2.18914c0.11779,0 0.2284,0.023 0.33184,0.06895c0.10337,0.04307 0.19245,0.10344 0.26718,0.18098c0.07754,0.07472 0.13785,0.16374 0.18098,0.26718c0.04595,0.10343 0.06896,0.21405 0.06896,0.33184zM106.86564,197.72166v1.02994h2.18914v-1.02994zM113.70022,196.87271h1.12043v-1.41343h0.84896v1.41343h1.50827v0.84895h-1.50827v2.89153h1.50827v0.84896h-1.50827c-0.11491,0 -0.22411,-0.02153 -0.32755,-0.06466c-0.10337,-0.04595 -0.19393,-0.10626 -0.27147,-0.18098c-0.07754,-0.07754 -0.13932,-0.16804 -0.18528,-0.27147c-0.04313,-0.10343 -0.06466,-0.21405 -0.06466,-0.33184v-2.89153h-1.12043zM118.59561,199.45828c0,-0.11779 0.02153,-0.22693 0.06466,-0.32749c0.04595,-0.10343 0.10626,-0.19393 0.18098,-0.27147c0.07754,-0.0776 0.16804,-0.13791 0.27147,-0.18098c0.10343,-0.04601 0.21264,-0.06896 0.32754,-0.06896h2.18914v-0.88773h-2.77091v-0.84895h2.77091c0.11779,0 0.2284,0.023 0.33178,0.06895c0.10343,0.04307 0.19251,0.10344 0.26718,0.18098c0.0776,0.07472 0.13791,0.16374 0.18104,0.26718c0.04595,0.10343 0.0689,0.21405 0.0689,0.33184v3.74048h-0.8489v-0.77571c-0.00865,0.10632 -0.03736,0.20687 -0.08619,0.30166c-0.04883,0.09484 -0.11203,0.17816 -0.18963,0.24994c-0.07466,0.06895 -0.16086,0.12356 -0.25853,0.1638c-0.09767,0.04018 -0.2011,0.06031 -0.3103,0.06031h-1.34448c-0.11491,0 -0.22411,-0.02153 -0.32754,-0.06466c-0.10343,-0.04595 -0.19393,-0.10626 -0.27147,-0.18098c-0.07472,-0.07754 -0.13503,-0.16804 -0.18098,-0.27147c-0.04313,-0.10343 -0.06466,-0.21405 -0.06466,-0.33184zM119.44027,200.61319h2.18914v-1.1549h-2.18914zM126.92988,201.46214l-2.18914,-1.96074v1.96074h-0.84466v-6.35624h0.84466v3.57674l2.01245,-1.80993h1.19368l-2.46496,2.21502l2.64165,2.37442zM129.63177,196.87271v4.58944h-0.84889v-4.58944zM128.73975,195.1059h0.93515v0.88337h-0.93515zM135.15206,201.46214h-0.84895v-3.74048h-2.36582v3.74048h-0.8446v-4.58944h0.8446v0.81018c0.00577,-0.11208 0.03159,-0.21693 0.07754,-0.3146c0.04601,-0.10055 0.10632,-0.18675 0.18104,-0.25859c0.07754,-0.07466 0.16662,-0.13215 0.26718,-0.17233c0.10055,-0.04313 0.20828,-0.06466 0.32319,-0.06466h1.51687c0.11779,0 0.2284,0.023 0.33184,0.06895c0.10337,0.04307 0.19245,0.10344 0.26718,0.18098c0.07754,0.07472 0.13785,0.16374 0.18098,0.26718c0.04595,0.10343 0.06895,0.21405 0.06895,0.33184zM136.5655,197.72166c0,-0.11779 0.02153,-0.2284 0.06466,-0.33184c0.04595,-0.10343 0.10626,-0.19245 0.18098,-0.26718c0.07754,-0.07754 0.16804,-0.13791 0.27147,-0.18098c0.10343,-0.04595 0.21258,-0.06895 0.32755,-0.06895h1.52116c0.11202,0 0.21834,0.02153 0.3189,0.06466c0.10055,0.04018 0.18816,0.09767 0.26288,0.17233c0.07754,0.07184 0.13932,0.15804 0.18528,0.25859c0.04883,0.09767 0.07473,0.20252 0.07761,0.3146v-0.81018h0.84889v5.59348c0,0.11779 -0.02295,0.2284 -0.06896,0.33184c-0.04307,0.10343 -0.10337,0.19251 -0.18098,0.26718c-0.07466,0.07754 -0.16374,0.13791 -0.26718,0.18098c-0.10343,0.04601 -0.21399,0.06896 -0.33178,0.06896h-2.68042v-0.84895h2.68042v-1.18074h-2.36582c-0.11496,0 -0.22411,-0.02153 -0.32755,-0.06466c-0.10343,-0.04595 -0.19393,-0.10626 -0.27147,-0.18098c-0.07472,-0.07754 -0.13503,-0.16804 -0.18098,-0.27147c-0.04313,-0.10343 -0.06466,-0.21405 -0.06466,-0.33184zM139.77598,200.4365v-2.71484h-2.36582v2.71484zM144.68425,199.45828c0,-0.11779 0.02159,-0.22693 0.06466,-0.32749c0.04595,-0.10343 0.10632,-0.19393 0.18098,-0.27147c0.0776,-0.0776 0.1681,-0.13791 0.27147,-0.18098c0.10343,-0.04601 0.21264,-0.06896 0.32755,-0.06896h2.18914v-0.88773h-2.77091v-0.84895h2.77091c0.11779,0 0.2284,0.023 0.33184,0.06895c0.10337,0.04307 0.19245,0.10344 0.26718,0.18098c0.07754,0.07472 0.13785,0.16374 0.18098,0.26718c0.04595,0.10343 0.06895,0.21405 0.06895,0.33184v3.74048h-0.84895v-0.77571c-0.00865,0.10632 -0.03736,0.20687 -0.08619,0.30166c-0.04883,0.09484 -0.11203,0.17816 -0.18963,0.24994c-0.07466,0.06895 -0.16086,0.12356 -0.25853,0.1638c-0.09767,0.04018 -0.2011,0.06031 -0.31031,0.06031h-1.34448c-0.11491,0 -0.22411,-0.02153 -0.32755,-0.06466c-0.10337,-0.04595 -0.19387,-0.10626 -0.27147,-0.18098c-0.07466,-0.07754 -0.13503,-0.16804 -0.18098,-0.27147c-0.04307,-0.10343 -0.06466,-0.21405 -0.06466,-0.33184zM145.52891,200.61319h2.18914v-1.1549h-2.18914zM156.69004,200.61319c0,0.11779 -0.02294,0.2284 -0.06895,0.33184c-0.04307,0.10343 -0.10344,0.19393 -0.18098,0.27147c-0.07466,0.07472 -0.16374,0.13503 -0.26718,0.18098c-0.10343,0.04313 -0.21405,0.06466 -0.33184,0.06466h-2.36582c-0.11491,0 -0.22405,-0.02153 -0.32749,-0.06466c-0.10343,-0.04595 -0.19393,-0.10626 -0.27147,-0.18098c-0.07472,-0.07754 -0.13503,-0.16804 -0.18098,-0.27147c-0.04313,-0.10343 -0.06466,-0.21405 -0.06466,-0.33184v-5.50728h0.8446v2.57699c0.00577,-0.11208 0.03165,-0.21693 0.0776,-0.3146c0.04595,-0.10055 0.10626,-0.18675 0.18098,-0.25859c0.07754,-0.07466 0.16662,-0.13215 0.26718,-0.17233c0.10055,-0.04313 0.20828,-0.06466 0.32319,-0.06466h1.51687c0.11779,0 0.2284,0.023 0.33184,0.06895c0.10343,0.04307 0.19251,0.10344 0.26718,0.18098c0.07754,0.07472 0.13791,0.16374 0.18098,0.26718c0.04601,0.10343 0.06895,0.21405 0.06895,0.33184zM153.47527,197.72166v2.89153h2.36582v-2.89153zM158.94814,197.72166v3.74048h-0.8446v-4.58944h0.8446v0.81018c0.00577,-0.11208 0.03159,-0.21693 0.07749,-0.3146c0.04589,-0.10055 0.1065,-0.18675 0.18122,-0.25859c0.07766,-0.07466 0.16651,-0.13215 0.26712,-0.17233c0.10061,-0.04313 0.20828,-0.06466 0.32301,-0.06466h0.90079c0.11767,0 0.22711,0.023 0.32772,0.06895c0.10297,0.04307 0.19358,0.10344 0.27124,0.18098c0.07766,0.07472 0.13768,0.16374 0.18121,0.26718c0.04589,0.10343 0.06884,0.21405 0.06884,0.33184v0.77564h-0.84901v-0.77564zM166.48493,199.60049h-3.03774v1.0127h3.03774v0.84896h-3.03774c-0.11532,0 -0.22417,-0.02153 -0.32772,-0.06466c-0.10355,-0.04595 -0.19358,-0.10626 -0.27124,-0.18098c-0.07472,-0.07754 -0.13532,-0.16804 -0.18121,-0.27147c-0.04295,-0.10343 -0.06472,-0.21405 -0.06472,-0.33184v-2.89153c0,-0.11779 0.02177,-0.2284 0.06472,-0.33184c0.04589,-0.10343 0.10649,-0.19245 0.18121,-0.26718c0.07766,-0.07754 0.16769,-0.13791 0.27124,-0.18098c0.10355,-0.04595 0.2124,-0.06895 0.32772,-0.06895h2.18873c0.11826,0 0.22887,0.023 0.33184,0.06895c0.10355,0.04307 0.19298,0.10344 0.2677,0.18098c0.07708,0.07472 0.13768,0.16374 0.18063,0.26718c0.04589,0.10343 0.06884,0.21405 0.06884,0.33184zM163.4472,197.72166v1.02994h2.18873v-1.02994zM167.9029,199.45828c0,-0.11779 0.02177,-0.22693 0.06472,-0.32749c0.04589,-0.10343 0.10649,-0.19393 0.18121,-0.27147c0.07708,-0.0776 0.16769,-0.13791 0.27124,-0.18098c0.10355,-0.04601 0.2124,-0.06896 0.32772,-0.06896h2.18873v-0.88773h-2.77062v-0.84895h2.77062c0.11767,0 0.22829,0.023 0.33184,0.06895c0.10355,0.04307 0.1924,0.10344 0.26712,0.18098c0.07766,0.07472 0.13826,0.16374 0.18121,0.26718c0.04589,0.10343 0.06884,0.21405 0.06884,0.33184v3.74048h-0.84901v-0.77571c-0.00824,0.10632 -0.03707,0.20687 -0.0859,0.30166c-0.04883,0.09484 -0.11238,0.17816 -0.18946,0.24994c-0.07472,0.06895 -0.16121,0.12356 -0.25888,0.1638c-0.09767,0.04018 -0.20122,0.06031 -0.31007,0.06031h-1.34442c-0.11532,0 -0.22417,-0.02153 -0.32772,-0.06466c-0.10355,-0.04595 -0.19416,-0.10626 -0.27124,-0.18098c-0.07472,-0.07754 -0.13532,-0.16804 -0.18121,-0.27147c-0.04295,-0.10343 -0.06472,-0.21405 -0.06472,-0.33184zM168.74779,200.61319h2.18873v-1.1549h-2.18873zM176.23711,201.46214l-2.18931,-1.96074v1.96074h-0.84431v-6.35624h0.84431v3.57674l2.0128,-1.80993h1.1938l-2.46526,2.21502l2.64177,2.37442zM181.5377,197.72166v3.74048h-0.8449v-4.58944h0.8449v0.81018c0.00589,-0.11208 0.03177,-0.21693 0.07766,-0.3146c0.04589,-0.10055 0.10591,-0.18675 0.18063,-0.25859c0.07766,-0.07466 0.1671,-0.13215 0.26712,-0.17233c0.10061,-0.04313 0.20828,-0.06466 0.3236,-0.06466h0.9002c0.11826,0 0.22711,0.023 0.32772,0.06895c0.10355,0.04307 0.19416,0.10344 0.27182,0.18098c0.07708,0.07472 0.13768,0.16374 0.18063,0.26718c0.04589,0.10343 0.06884,0.21405 0.06884,0.33184v0.77564h-0.84901v-0.77564zM189.07468,199.60049h-3.03832v1.0127h3.03832v0.84896h-3.03832c-0.11473,0 -0.22417,-0.02153 -0.32713,-0.06466c-0.10355,-0.04595 -0.19416,-0.10626 -0.27182,-0.18098c-0.07472,-0.07754 -0.13474,-0.16804 -0.18063,-0.27147c-0.04354,-0.10343 -0.06472,-0.21405 -0.06472,-0.33184v-2.89153c0,-0.11779 0.02118,-0.2284 0.06472,-0.33184c0.04589,-0.10343 0.10591,-0.19245 0.18063,-0.26718c0.07766,-0.07754 0.16827,-0.13791 0.27182,-0.18098c0.10297,-0.04595 0.2124,-0.06895 0.32713,-0.06895h2.18931c0.11767,0 0.22829,0.023 0.33184,0.06895c0.10355,0.04307 0.1924,0.10344 0.26712,0.18098c0.07766,0.07472 0.13768,0.16374 0.18121,0.26718c0.04589,0.10343 0.06884,0.21405 0.06884,0.33184zM186.03635,197.72166v1.02994h2.18931v-1.02994zM190.49264,197.72166c0,-0.11779 0.02118,-0.2284 0.06413,-0.33184c0.04648,-0.10343 0.1065,-0.19245 0.18122,-0.26718c0.07766,-0.07754 0.16827,-0.13791 0.27123,-0.18098c0.10355,-0.04595 0.21299,-0.06895 0.32772,-0.06895h1.52152c0.11179,0 0.21828,0.02153 0.3189,0.06466c0.10002,0.04018 0.18769,0.09767 0.26241,0.17233c0.07766,0.07184 0.13944,0.15804 0.18533,0.25859c0.04883,0.09767 0.07472,0.20252 0.07766,0.3146v-0.81018h0.84901v5.59348c0,0.11779 -0.02294,0.2284 -0.06884,0.33184c-0.04295,0.10343 -0.10356,0.19251 -0.18122,0.26718c-0.07472,0.07754 -0.16357,0.13791 -0.26712,0.18098c-0.10355,0.04601 -0.21416,0.06896 -0.33184,0.06896h-2.6806v-0.84895h2.6806v-1.18074h-2.36582c-0.11473,0 -0.22417,-0.02153 -0.32772,-0.06466c-0.10297,-0.04595 -0.19357,-0.10626 -0.27123,-0.18098c-0.07472,-0.07754 -0.13474,-0.16804 -0.18122,-0.27147c-0.04295,-0.10343 -0.06413,-0.21405 -0.06413,-0.33184zM193.70277,200.4365v-2.71484h-2.36582v2.71484zM195.96504,199.45828c0,-0.11779 0.02177,-0.22693 0.06472,-0.32749c0.04589,-0.10343 0.1065,-0.19393 0.18122,-0.27147c0.07766,-0.0776 0.16768,-0.13791 0.27123,-0.18098c0.10355,-0.04601 0.21299,-0.06896 0.32772,-0.06896h2.18931v-0.88773h-2.77121v-0.84895h2.77121c0.11767,0 0.22829,0.023 0.33184,0.06895c0.10297,0.04307 0.1924,0.10344 0.26712,0.18098c0.07708,0.07472 0.13768,0.16374 0.18063,0.26718c0.04589,0.10343 0.06884,0.21405 0.06884,0.33184v3.74048h-0.84842v-0.77571c-0.00883,0.10632 -0.03766,0.20687 -0.08649,0.30166c-0.04883,0.09484 -0.11179,0.17816 -0.18945,0.24994c-0.07472,0.06895 -0.16121,0.12356 -0.25888,0.1638c-0.09767,0.04018 -0.20063,0.06031 -0.31007,0.06031h-1.34442c-0.11473,0 -0.22417,-0.02153 -0.32772,-0.06466c-0.10355,-0.04595 -0.19357,-0.10626 -0.27123,-0.18098c-0.07472,-0.07754 -0.13533,-0.16804 -0.18122,-0.27147c-0.04295,-0.10343 -0.06472,-0.21405 -0.06472,-0.33184zM196.80993,200.61319h2.18931v-1.1549h-2.18931zM202.11053,197.72166v3.74048h-0.8449v-4.58944h0.8449v0.81018c0.0053,-0.11208 0.03118,-0.21693 0.07766,-0.3146c0.04589,-0.10055 0.10591,-0.18675 0.18063,-0.25859c0.07766,-0.07466 0.16651,-0.13215 0.26712,-0.17233c0.10061,-0.04313 0.20828,-0.06466 0.3236,-0.06466h0.9002c0.11826,0 0.22711,0.023 0.32772,0.06895c0.10355,0.04307 0.19416,0.10344 0.27123,0.18098c0.07766,0.07472 0.13827,0.16374 0.18122,0.26718c0.04589,0.10343 0.06884,0.21405 0.06884,0.33184v0.77564h-0.84901v-0.77564zM205.76487,197.72166c0,-0.11779 0.02118,-0.2284 0.06413,-0.33184c0.04648,-0.10343 0.1065,-0.19245 0.18122,-0.26718c0.07766,-0.07754 0.16827,-0.13791 0.27182,-0.18098c0.10297,-0.04595 0.2124,-0.06895 0.32713,-0.06895h2.36582v-1.76681h0.84901v6.35624h-0.84901v-0.77571c-0.00824,0.10632 -0.03707,0.20687 -0.0859,0.30166c-0.04883,0.09484 -0.11238,0.17816 -0.19005,0.24994c-0.07472,0.06895 -0.16062,0.12356 -0.25829,0.1638c-0.09767,0.04018 -0.20122,0.06031 -0.31007,0.06031h-1.52152c-0.11473,0 -0.22417,-0.02153 -0.32713,-0.06466c-0.10355,-0.04595 -0.19416,-0.10626 -0.27182,-0.18098c-0.07472,-0.07754 -0.13474,-0.16804 -0.18122,-0.27147c-0.04295,-0.10343 -0.06413,-0.21405 -0.06413,-0.33184zM206.60918,200.61319h2.36582v-2.89153h-2.36582zM212.08216,195.1059v6.35624h-0.8449v-6.35624zM217.37804,199.60049h-3.03773v1.0127h3.03773v0.84896h-3.03773c-0.11473,0 -0.22417,-0.02153 -0.32772,-0.06466c-0.10355,-0.04595 -0.19358,-0.10626 -0.27124,-0.18098c-0.07472,-0.07754 -0.13533,-0.16804 -0.18122,-0.27147c-0.04295,-0.10343 -0.06472,-0.21405 -0.06472,-0.33184v-2.89153c0,-0.11779 0.02177,-0.2284 0.06472,-0.33184c0.04589,-0.10343 0.1065,-0.19245 0.18122,-0.26718c0.07766,-0.07754 0.16769,-0.13791 0.27124,-0.18098c0.10355,-0.04595 0.21298,-0.06895 0.32772,-0.06895h2.18931c0.11767,0 0.22828,0.023 0.33125,0.06895c0.10355,0.04307 0.19299,0.10344 0.26771,0.18098c0.07708,0.07472 0.13768,0.16374 0.18063,0.26718c0.04589,0.10343 0.06884,0.21405 0.06884,0.33184zM214.34031,197.72166v1.02994h2.18931v-1.02994zM221.56721,200.61319v-1.06441h-2.0128c-0.11767,0 -0.22829,-0.02153 -0.33184,-0.0646c-0.10355,-0.04595 -0.19358,-0.10632 -0.27124,-0.18098c-0.07472,-0.0776 -0.13532,-0.1681 -0.18121,-0.27153c-0.04295,-0.10337 -0.06472,-0.21399 -0.06472,-0.33178v-0.97822c0,-0.11779 0.02177,-0.2284 0.06472,-0.33184c0.04589,-0.10343 0.10649,-0.19245 0.18121,-0.26718c0.07766,-0.07754 0.16769,-0.13791 0.27124,-0.18098c0.10355,-0.04595 0.21416,-0.06895 0.33184,-0.06895h2.68472v0.84895h-2.68472v0.97822h2.0128c0.11767,0 0.22652,0.02295 0.32713,0.06896c0.10355,0.04307 0.19417,0.10337 0.27183,0.18098c0.07708,0.07466 0.13767,0.16374 0.18062,0.26718c0.04589,0.10343 0.06884,0.21405 0.06884,0.33178v1.06441c0,0.11779 -0.02295,0.2284 -0.06884,0.33184c-0.04295,0.10343 -0.10355,0.19393 -0.18062,0.27147c-0.07766,0.07472 -0.16828,0.13503 -0.27183,0.18098c-0.10061,0.04313 -0.20946,0.06466 -0.32713,0.06466h-2.86181v-0.84896zM226.5142,200.61319v-1.06441h-2.0128c-0.11767,0 -0.22829,-0.02153 -0.33184,-0.0646c-0.10297,-0.04595 -0.19358,-0.10632 -0.27124,-0.18098c-0.07472,-0.0776 -0.13533,-0.1681 -0.18122,-0.27153c-0.04295,-0.10337 -0.06472,-0.21399 -0.06472,-0.33178v-0.97822c0,-0.11779 0.02177,-0.2284 0.06472,-0.33184c0.04589,-0.10343 0.1065,-0.19245 0.18122,-0.26718c0.07766,-0.07754 0.16827,-0.13791 0.27124,-0.18098c0.10355,-0.04595 0.21416,-0.06895 0.33184,-0.06895h2.68472v0.84895h-2.68472v0.97822h2.0128c0.11767,0 0.22652,0.02295 0.32713,0.06896c0.10355,0.04307 0.19416,0.10337 0.27182,0.18098c0.07766,0.07466 0.13768,0.16374 0.18063,0.26718c0.04648,0.10343 0.06943,0.21405 0.06943,0.33178v1.06441c0,0.11779 -0.02294,0.2284 -0.06943,0.33184c-0.04295,0.10343 -0.10297,0.19393 -0.18063,0.27147c-0.07766,0.07472 -0.16827,0.13503 -0.27182,0.18098c-0.10061,0.04313 -0.20946,0.06466 -0.32713,0.06466h-2.86182v-0.84896zM235.30499,200.61319c0,0.11779 -0.02295,0.2284 -0.06884,0.33184c-0.04295,0.10343 -0.10355,0.19393 -0.18121,0.27147c-0.07472,0.07472 -0.16357,0.13503 -0.26712,0.18098c-0.10061,0.04313 -0.20946,0.06466 -0.32713,0.06466h-2.27992c-0.11473,0 -0.22417,-0.02153 -0.32772,-0.06466c-0.10297,-0.04595 -0.19358,-0.10626 -0.27124,-0.18098c-0.07472,-0.07754 -0.13473,-0.16804 -0.18121,-0.27147c-0.04295,-0.10343 -0.06413,-0.21405 -0.06413,-0.33184v-2.89153c0,-0.11779 0.02118,-0.2284 0.06413,-0.33184c0.04648,-0.10343 0.10649,-0.19245 0.18121,-0.26718c0.07766,-0.07754 0.16827,-0.13791 0.27124,-0.18098c0.10355,-0.04595 0.21298,-0.06895 0.32772,-0.06895h2.27992c0.11767,0 0.22652,0.023 0.32713,0.06895c0.10355,0.04307 0.1924,0.10344 0.26712,0.18098c0.07766,0.07472 0.13826,0.16374 0.18121,0.26718c0.04589,0.10343 0.06884,0.21405 0.06884,0.33184zM232.18076,197.72166v2.89153h2.27992v-2.89153zM238.42509,195.9548v0.91791h1.50798v0.84895h-1.50798v3.74048h-0.84901v-3.74048h-1.12025v-0.84895h1.12025v-0.91791c0,-0.11773 0.02177,-0.22693 0.06472,-0.32749c0.04589,-0.10343 0.10767,-0.19393 0.18533,-0.27147c0.07766,-0.0776 0.16768,-0.13791 0.27123,-0.18098c0.10355,-0.04601 0.21299,-0.06895 0.32772,-0.06895h1.50798v0.84889zM244.68237,201.46214l-1.48268,-4.58944h0.85784l1.08554,3.46042l1.01317,-3.46042h0.86607l1.01258,3.46042l1.08612,-3.46042h0.85725l-1.4821,4.58944h-0.88372l-1.02552,-3.36987l-1.0214,3.36987zM254.92524,201.46214h-0.84902v-3.74048h-2.36582v3.74048h-0.84431v-6.35624h0.84431v2.57699c0.00589,-0.11208 0.03177,-0.21693 0.07767,-0.3146c0.04589,-0.10055 0.10649,-0.18675 0.18121,-0.25859c0.07766,-0.07466 0.16651,-0.13215 0.26712,-0.17233c0.10061,-0.04313 0.20828,-0.06466 0.32301,-0.06466h1.51681c0.11826,0 0.22887,0.023 0.33184,0.06895c0.10355,0.04307 0.19299,0.10344 0.26771,0.18098c0.07708,0.07472 0.13768,0.16374 0.18063,0.26718c0.04589,0.10343 0.06884,0.21405 0.06884,0.33184zM260.22172,199.60049h-3.03832v1.0127h3.03832v0.84896h-3.03832c-0.11473,0 -0.22417,-0.02153 -0.32713,-0.06466c-0.10355,-0.04595 -0.19416,-0.10626 -0.27182,-0.18098c-0.07472,-0.07754 -0.13474,-0.16804 -0.18063,-0.27147c-0.04354,-0.10343 -0.06472,-0.21405 -0.06472,-0.33184v-2.89153c0,-0.11779 0.02118,-0.2284 0.06472,-0.33184c0.04589,-0.10343 0.10591,-0.19245 0.18063,-0.26718c0.07766,-0.07754 0.16827,-0.13791 0.27182,-0.18098c0.10297,-0.04595 0.2124,-0.06895 0.32713,-0.06895h2.18931c0.11767,0 0.22829,0.023 0.33184,0.06895c0.10355,0.04307 0.1924,0.10344 0.26712,0.18098c0.07766,0.07472 0.13768,0.16374 0.18121,0.26718c0.04589,0.10343 0.06884,0.21405 0.06884,0.33184zM257.18339,197.72166v1.02994h2.18931v-1.02994zM261.37197,196.87271h1.12084v-1.41343h0.84901v1.41343h1.50798v0.84895h-1.50798v2.89153h1.50798v0.84896h-1.50798c-0.11532,0 -0.22417,-0.02153 -0.32772,-0.06466c-0.10355,-0.04595 -0.19417,-0.10626 -0.27183,-0.18098c-0.07708,-0.07754 -0.13885,-0.16804 -0.18533,-0.27147c-0.04295,-0.10343 -0.06413,-0.21405 -0.06413,-0.33184v-2.89153h-1.12084zM270.32691,201.46214h-0.84901v-3.74048h-2.36582v3.74048h-0.84431v-6.35624h0.84431v2.57699c0.00589,-0.11208 0.03177,-0.21693 0.07766,-0.3146c0.04589,-0.10055 0.1065,-0.18675 0.18122,-0.25859c0.07708,-0.07466 0.16651,-0.13215 0.26712,-0.17233c0.10061,-0.04313 0.20828,-0.06466 0.32301,-0.06466h1.51681c0.11767,0 0.22829,0.023 0.33184,0.06895c0.10355,0.04307 0.1924,0.10344 0.26712,0.18098c0.07766,0.07472 0.13827,0.16374 0.18122,0.26718c0.04589,0.10343 0.06884,0.21405 0.06884,0.33184zM275.62339,199.60049h-3.03832v1.0127h3.03832v0.84896h-3.03832c-0.11473,0 -0.22417,-0.02153 -0.32772,-0.06466c-0.10297,-0.04595 -0.19357,-0.10626 -0.27123,-0.18098c-0.07472,-0.07754 -0.13533,-0.16804 -0.18122,-0.27147c-0.04295,-0.10343 -0.06472,-0.21405 -0.06472,-0.33184v-2.89153c0,-0.11779 0.02177,-0.2284 0.06472,-0.33184c0.04589,-0.10343 0.1065,-0.19245 0.18122,-0.26718c0.07766,-0.07754 0.16827,-0.13791 0.27123,-0.18098c0.10355,-0.04595 0.21299,-0.06895 0.32772,-0.06895h2.18931c0.11767,0 0.22829,0.023 0.33184,0.06895c0.10297,0.04307 0.1924,0.10344 0.26712,0.18098c0.07766,0.07472 0.13768,0.16374 0.18063,0.26718c0.04589,0.10343 0.06943,0.21405 0.06943,0.33184zM272.58506,197.72166v1.02994h2.18931v-1.02994zM277.88566,197.72166v3.74048h-0.8449v-4.58944h0.8449v0.81018c0.00589,-0.11208 0.03118,-0.21693 0.07766,-0.3146c0.04589,-0.10055 0.10591,-0.18675 0.18063,-0.25859c0.07766,-0.07466 0.16651,-0.13215 0.26712,-0.17233c0.10061,-0.04313 0.20828,-0.06466 0.3236,-0.06466h0.9002c0.11826,0 0.22711,0.023 0.32772,0.06895c0.10355,0.04307 0.19416,0.10344 0.27123,0.18098c0.07766,0.07472 0.13827,0.16374 0.18122,0.26718c0.04589,0.10343 0.06884,0.21405 0.06884,0.33184v0.77564h-0.84901v-0.77564zM285.07785,196.87271v4.58944h-0.84902v-4.58944zM284.18589,195.1059h0.93491v0.88337h-0.93491zM286.27164,196.87271h1.12025v-1.41343h0.84901v1.41343h1.50799v0.84895h-1.50799v2.89153h1.50799v0.84896h-1.50799c-0.11473,0 -0.22417,-0.02153 -0.32772,-0.06466c-0.10355,-0.04595 -0.19358,-0.10626 -0.27124,-0.18098c-0.07766,-0.07754 -0.13944,-0.16804 -0.18533,-0.27147c-0.04295,-0.10343 -0.06472,-0.21405 -0.06472,-0.33184v-2.89153h-1.12025zM291.7917,197.8897h-0.62484l0.63367,-1.31865h-0.63367v-1.28846h1.28852v1.28846zM296.46274,200.61319v-1.06441h-2.01221c-0.11767,0 -0.22829,-0.02153 -0.33184,-0.0646c-0.10355,-0.04595 -0.19416,-0.10632 -0.27123,-0.18098c-0.07472,-0.0776 -0.13533,-0.1681 -0.18122,-0.27153c-0.04295,-0.10337 -0.06472,-0.21399 -0.06472,-0.33178v-0.97822c0,-0.11779 0.02177,-0.2284 0.06472,-0.33184c0.04589,-0.10343 0.1065,-0.19245 0.18122,-0.26718c0.07708,-0.07754 0.16768,-0.13791 0.27123,-0.18098c0.10355,-0.04595 0.21416,-0.06895 0.33184,-0.06895h2.68472v0.84895h-2.68472v0.97822h2.01221c0.11826,0 0.22711,0.02295 0.32772,0.06896c0.10355,0.04307 0.19416,0.10337 0.27182,0.18098c0.07708,0.07466 0.13768,0.16374 0.18063,0.26718c0.04589,0.10343 0.06884,0.21405 0.06884,0.33178v1.06441c0,0.11779 -0.02295,0.2284 -0.06884,0.33184c-0.04295,0.10343 -0.10355,0.19393 -0.18063,0.27147c-0.07766,0.07472 -0.16827,0.13503 -0.27182,0.18098c-0.10061,0.04313 -0.20946,0.06466 -0.32772,0.06466h-2.86123v-0.84896zM301.28499,199.45828c0,-0.11779 0.02177,-0.22693 0.06472,-0.32749c0.04589,-0.10343 0.1065,-0.19393 0.18122,-0.27147c0.07766,-0.0776 0.16769,-0.13791 0.27124,-0.18098c0.10355,-0.04601 0.2124,-0.06896 0.32772,-0.06896h2.18872v-0.88773h-2.77062v-0.84895h2.77062c0.11826,0 0.22887,0.023 0.33184,0.06895c0.10355,0.04307 0.19299,0.10344 0.26771,0.18098c0.07708,0.07472 0.13768,0.16374 0.18063,0.26718c0.04589,0.10343 0.06884,0.21405 0.06884,0.33184v3.74048h-0.84901v-0.77571c-0.00824,0.10632 -0.03707,0.20687 -0.0859,0.30166c-0.04883,0.09484 -0.11179,0.17816 -0.18946,0.24994c-0.07472,0.06895 -0.16121,0.12356 -0.25888,0.1638c-0.09767,0.04018 -0.20122,0.06031 -0.31007,0.06031h-1.34442c-0.11532,0 -0.22417,-0.02153 -0.32772,-0.06466c-0.10355,-0.04595 -0.19358,-0.10626 -0.27124,-0.18098c-0.07472,-0.07754 -0.13533,-0.16804 -0.18122,-0.27147c-0.04295,-0.10343 -0.06472,-0.21405 -0.06472,-0.33184zM302.12989,200.61319h2.18872v-1.1549h-2.18872zM306.58558,196.87271h0.8449v3.74048h2.36582v-3.74048h0.84843v4.58944h-0.84843v-0.77571c-0.00883,0.10632 -0.03766,0.20687 -0.08649,0.30166c-0.04883,0.09484 -0.11179,0.17816 -0.18946,0.24994c-0.07472,0.06895 -0.16121,0.12356 -0.25888,0.1638c-0.09767,0.04018 -0.20063,0.06031 -0.31007,0.06031h-1.52093c-0.11532,0 -0.22417,-0.02153 -0.32772,-0.06466c-0.10355,-0.04595 -0.19416,-0.10626 -0.27124,-0.18098c-0.07472,-0.07754 -0.13533,-0.16804 -0.18122,-0.27147c-0.04295,-0.10343 -0.06472,-0.21405 -0.06472,-0.33184zM311.79145,196.87271h1.12025v-1.41343h0.84901v1.41343h1.50798v0.84895h-1.50798v2.89153h1.50798v0.84896h-1.50798c-0.11473,0 -0.22417,-0.02153 -0.32772,-0.06466c-0.10355,-0.04595 -0.19358,-0.10626 -0.27124,-0.18098c-0.07766,-0.07754 -0.13944,-0.16804 -0.18533,-0.27147c-0.04295,-0.10343 -0.06472,-0.21405 -0.06472,-0.33184v-2.89153h-1.12025zM320.65578,200.61319c0,0.11779 -0.02295,0.2284 -0.06943,0.33184c-0.04295,0.10343 -0.10297,0.19393 -0.18063,0.27147c-0.07472,0.07472 -0.16415,0.13503 -0.26712,0.18098c-0.10061,0.04313 -0.21004,0.06466 -0.32772,0.06466h-2.27933c-0.11532,0 -0.22417,-0.02153 -0.32772,-0.06466c-0.10355,-0.04595 -0.19416,-0.10626 -0.27182,-0.18098c-0.07413,-0.07754 -0.13474,-0.16804 -0.18063,-0.27147c-0.04295,-0.10343 -0.06472,-0.21405 -0.06472,-0.33184v-2.89153c0,-0.11779 0.02177,-0.2284 0.06472,-0.33184c0.04589,-0.10343 0.1065,-0.19245 0.18063,-0.26718c0.07766,-0.07754 0.16827,-0.13791 0.27182,-0.18098c0.10355,-0.04595 0.2124,-0.06895 0.32772,-0.06895h2.27933c0.11767,0 0.22711,0.023 0.32772,0.06895c0.10297,0.04307 0.1924,0.10344 0.26712,0.18098c0.07766,0.07472 0.13768,0.16374 0.18063,0.26718c0.04648,0.10343 0.06943,0.21405 0.06943,0.33184zM317.53156,197.72166v2.89153h2.27933v-2.89153zM325.71044,197.72166v3.74048h-0.84901v-3.74048h-1.94337v3.74048h-0.8449v-4.58944h0.8449v0.81018c0.00589,-0.11208 0.03177,-0.21693 0.07766,-0.3146c0.04589,-0.10055 0.10591,-0.18675 0.18063,-0.25859c0.07766,-0.07466 0.16651,-0.13215 0.26712,-0.17233c0.10061,-0.04313 0.20828,-0.06466 0.3236,-0.06466h1.09436c0.11179,0 0.21828,0.02153 0.3189,0.06466c0.10061,0.04018 0.18946,0.09767 0.26712,0.17233c0.07766,0.07184 0.13944,0.15804 0.18533,0.25859c0.04883,0.09767 0.07472,0.20252 0.07766,0.3146c0.00589,-0.11208 0.03001,-0.21693 0.07296,-0.3146c0.04648,-0.10055 0.1065,-0.18675 0.18122,-0.25859c0.07766,-0.07466 0.16651,-0.13215 0.26712,-0.17233c0.10061,-0.04313 0.20828,-0.06466 0.32301,-0.06466h1.09495c0.11767,0 0.22829,0.023 0.33184,0.06895c0.10355,0.04307 0.1924,0.10344 0.26712,0.18098c0.07766,0.07472 0.13768,0.16374 0.18121,0.26718c0.04589,0.10343 0.06884,0.21405 0.06884,0.33184v3.74048h-0.84901v-3.74048zM329.91608,199.45828c0,-0.11779 0.02177,-0.22693 0.06472,-0.32749c0.04589,-0.10343 0.1065,-0.19393 0.18122,-0.27147c0.07766,-0.0776 0.16769,-0.13791 0.27124,-0.18098c0.10355,-0.04601 0.21298,-0.06896 0.32772,-0.06896h2.18931v-0.88773h-2.77121v-0.84895h2.77121c0.11767,0 0.22829,0.023 0.33184,0.06895c0.10297,0.04307 0.1924,0.10344 0.26712,0.18098c0.07766,0.07472 0.13768,0.16374 0.18063,0.26718c0.04589,0.10343 0.06884,0.21405 0.06884,0.33184v3.74048h-0.84842v-0.77571c-0.00883,0.10632 -0.03766,0.20687 -0.08649,0.30166c-0.04883,0.09484 -0.11179,0.17816 -0.18946,0.24994c-0.07472,0.06895 -0.16121,0.12356 -0.25888,0.1638c-0.09767,0.04018 -0.20063,0.06031 -0.31007,0.06031h-1.34442c-0.11473,0 -0.22417,-0.02153 -0.32772,-0.06466c-0.10355,-0.04595 -0.19358,-0.10626 -0.27124,-0.18098c-0.07472,-0.07754 -0.13533,-0.16804 -0.18122,-0.27147c-0.04295,-0.10343 -0.06472,-0.21405 -0.06472,-0.33184zM330.76098,200.61319h2.18931v-1.1549h-2.18931zM334.94956,196.87271h1.12025v-1.41343h0.84901v1.41343h1.50857v0.84895h-1.50857v2.89153h1.50857v0.84896h-1.50857c-0.11473,0 -0.22416,-0.02153 -0.32713,-0.06466c-0.10355,-0.04595 -0.19417,-0.10626 -0.27183,-0.18098c-0.07766,-0.07754 -0.13944,-0.16804 -0.18533,-0.27147c-0.04295,-0.10343 -0.06472,-0.21405 -0.06472,-0.33184v-2.89153h-1.12025zM340.73673,196.87271v4.58944h-0.84843v-4.58944zM339.84477,195.1059h0.9355v0.88337h-0.9355zM343.04254,197.72166v2.89153h2.18931v-0.77564h0.84901v0.77564c0,0.11779 -0.02353,0.2284 -0.06943,0.33184c-0.04295,0.10343 -0.10297,0.19393 -0.18063,0.27147c-0.07472,0.07472 -0.16415,0.13503 -0.26712,0.18098c-0.10355,0.04313 -0.21416,0.06466 -0.33184,0.06466h-2.18931c-0.11473,0 -0.22417,-0.02153 -0.32772,-0.06466c-0.10297,-0.04595 -0.19357,-0.10626 -0.27123,-0.18098c-0.07472,-0.07754 -0.13533,-0.16804 -0.18122,-0.27147c-0.04295,-0.10343 -0.06472,-0.21405 -0.06472,-0.33184v-2.89153c0,-0.11779 0.02177,-0.2284 0.06472,-0.33184c0.04589,-0.10343 0.1065,-0.19245 0.18122,-0.26718c0.07766,-0.07754 0.16827,-0.13791 0.27123,-0.18098c0.10355,-0.04595 0.21299,-0.06895 0.32772,-0.06895h2.18931c0.11767,0 0.22829,0.023 0.33184,0.06895c0.10297,0.04307 0.1924,0.10344 0.26712,0.18098c0.07766,0.07472 0.13768,0.16374 0.18063,0.26718c0.04589,0.10343 0.06943,0.21405 0.06943,0.33184v0.77564h-0.84901v-0.77564zM354.11324,200.61319c0,0.11779 -0.02294,0.2284 -0.06884,0.33184c-0.04354,0.10343 -0.10356,0.19393 -0.18122,0.27147c-0.07472,0.07472 -0.16357,0.13503 -0.26712,0.18098c-0.10061,0.04313 -0.21004,0.06466 -0.32772,0.06466h-2.27933c-0.11532,0 -0.22417,-0.02153 -0.32772,-0.06466c-0.10355,-0.04595 -0.19358,-0.10626 -0.27124,-0.18098c-0.07472,-0.07754 -0.13532,-0.16804 -0.18121,-0.27147c-0.04295,-0.10343 -0.06472,-0.21405 -0.06472,-0.33184v-2.89153c0,-0.11779 0.02177,-0.2284 0.06472,-0.33184c0.04589,-0.10343 0.10649,-0.19245 0.18121,-0.26718c0.07766,-0.07754 0.16769,-0.13791 0.27124,-0.18098c0.10355,-0.04595 0.2124,-0.06895 0.32772,-0.06895h2.27933c0.11767,0 0.22711,0.023 0.32772,0.06895c0.10355,0.04307 0.1924,0.10344 0.26712,0.18098c0.07766,0.07472 0.13768,0.16374 0.18122,0.26718c0.04589,0.10343 0.06884,0.21405 0.06884,0.33184zM350.98902,197.72166v2.89153h2.27933v-2.89153zM356.37551,197.72166v3.74048h-0.84431v-4.58944h0.84431v0.81018c0.00589,-0.11208 0.03177,-0.21693 0.07767,-0.3146c0.04589,-0.10055 0.10649,-0.18675 0.18121,-0.25859c0.07708,-0.07466 0.16651,-0.13215 0.26712,-0.17233c0.10061,-0.04313 0.20828,-0.06466 0.32301,-0.06466h0.90079c0.11767,0 0.22652,0.023 0.32713,0.06895c0.10355,0.04307 0.19416,0.10344 0.27182,0.18098c0.07766,0.07472 0.13768,0.16374 0.18063,0.26718c0.04648,0.10343 0.06943,0.21405 0.06943,0.33184v0.77564h-0.84901v-0.77564zM366.73488,201.46214h-0.84842v-3.74048h-2.36582v3.74048h-0.8449v-4.58944h0.8449v0.81018c0.0053,-0.11208 0.03118,-0.21693 0.07707,-0.3146c0.04648,-0.10055 0.1065,-0.18675 0.18122,-0.25859c0.07766,-0.07466 0.16651,-0.13215 0.26712,-0.17233c0.10061,-0.04313 0.20828,-0.06466 0.32301,-0.06466h1.5174c0.11767,0 0.22829,0.023 0.33184,0.06895c0.10297,0.04307 0.1924,0.10344 0.26712,0.18098c0.07766,0.07472 0.13768,0.16374 0.18063,0.26718c0.04589,0.10343 0.06884,0.21405 0.06884,0.33184zM372.11726,200.61319c0,0.11779 -0.02294,0.2284 -0.06884,0.33184c-0.04295,0.10343 -0.10355,0.19393 -0.18063,0.27147c-0.07472,0.07472 -0.16415,0.13503 -0.26712,0.18098c-0.10061,0.04313 -0.21005,0.06466 -0.32772,0.06466h-2.27992c-0.11473,0 -0.22358,-0.02153 -0.32713,-0.06466c-0.10355,-0.04595 -0.19416,-0.10626 -0.27182,-0.18098c-0.07472,-0.07754 -0.13474,-0.16804 -0.18063,-0.27147c-0.04354,-0.10343 -0.06472,-0.21405 -0.06472,-0.33184v-2.89153c0,-0.11779 0.02118,-0.2284 0.06472,-0.33184c0.04589,-0.10343 0.10591,-0.19245 0.18063,-0.26718c0.07766,-0.07754 0.16827,-0.13791 0.27182,-0.18098c0.10355,-0.04595 0.2124,-0.06895 0.32713,-0.06895h2.27992c0.11767,0 0.22711,0.023 0.32772,0.06895c0.10297,0.04307 0.1924,0.10344 0.26712,0.18098c0.07708,0.07472 0.13768,0.16374 0.18063,0.26718c0.04589,0.10343 0.06884,0.21405 0.06884,0.33184zM368.99303,197.72166v2.89153h2.27992v-2.89153zM373.2681,196.87271h1.12025v-1.41343h0.84901v1.41343h1.50857v0.84895h-1.50857v2.89153h1.50857v0.84896h-1.50857c-0.11473,0 -0.22416,-0.02153 -0.32713,-0.06466c-0.10355,-0.04595 -0.19417,-0.10626 -0.27183,-0.18098c-0.07766,-0.07754 -0.13944,-0.16804 -0.18533,-0.27147c-0.04295,-0.10343 -0.06472,-0.21405 -0.06472,-0.33184v-2.89153h-1.12025zM378.16331,200.17368h1.28852v1.28847h-1.28852z" fill="#808080" stroke="none" stroke-width="1"/></g></g></svg>