<svg version="1.1" xmlns="http://www.w3.org/2000/svg" xmlns:xlink="http://www.w3.org/1999/xlink" width="104" height="18" viewBox="0,0,104,18"><g transform="translate(-188,-171)"><g data-paper-data="{&quot;isPaintingLayer&quot;:true}" fill-rule="nonzero" stroke="none" stroke-width="1" stroke-linecap="butt" stroke-linejoin="miter" stroke-miterlimit="10" stroke-dasharray="" stroke-dashoffset="0" style="mix-blend-mode: normal"><path d="M292,173.00752v13.98498c0,1.1087 -1.118,2.0075 -2.498,2.0075h-99.0041c-1.37955,0 -2.4979,-0.8988 -2.4979,-2.0075v-13.98498c0,-1.10872 1.11835,-2.00752 2.4979,-2.00752h99.0041c1.38,0 2.498,0.8988 2.498,2.00752z" fill="#ffa755"/><path d="M197.08301,178.19666c0,0.8789 -0.375,1.37988 -1.125,1.50292l1.18652,2.54882h-0.99756l-1.16894,-2.51805h-1.97315v2.51805h-0.90088v-6.30174h3.44971c1.01953,0 1.5293,0.51123 1.5293,1.53369zM193.00488,178.82947h2.50049c0.24024,0 0.41309,-0.05274 0.51856,-0.15821c0.10546,-0.10546 0.1582,-0.27832 0.1582,-0.51855v-0.62842c0,-0.24023 -0.05274,-0.41308 -0.1582,-0.51855c-0.10547,-0.10547 -0.27832,-0.15821 -0.51856,-0.15821h-2.50049zM202.4619,180.34998h-3.0981v1.03272h3.0981v0.8657h-3.0981c-0.1172,0 -0.2285,-0.022 -0.334,-0.0659c-0.1055,-0.0469 -0.1978,-0.1084 -0.2769,-0.1846c-0.0761,-0.0791 -0.1377,-0.1714 -0.1845,-0.2768c-0.044,-0.1055 -0.066,-0.2183 -0.066,-0.3384v-2.94874c0,-0.12012 0.022,-0.23291 0.066,-0.33838c0.0468,-0.10547 0.1084,-0.19629 0.1845,-0.27246c0.0791,-0.0791 0.1714,-0.14062 0.2769,-0.18457c0.1055,-0.04688 0.2168,-0.07031 0.334,-0.07031h2.2324c0.1201,0 0.2329,0.02343 0.3384,0.07031c0.1054,0.04395 0.1963,0.10547 0.2724,0.18457c0.0791,0.07617 0.1407,0.16699 0.1846,0.27246c0.0469,0.10547 0.0703,0.21826 0.0703,0.33838zM199.3638,178.43396v1.05029h2.2324v-1.05029zM203.6353,177.56824h1.1425v-1.44141h0.8658v1.44141h1.538v0.86572h-1.538v2.94874h1.538v0.8657h-1.538c-0.1172,0 -0.2286,-0.022 -0.334,-0.0659c-0.1055,-0.0469 -0.1978,-0.1084 -0.2769,-0.1846c-0.0791,-0.0791 -0.1421,-0.1714 -0.1889,-0.2768c-0.044,-0.1055 -0.066,-0.2183 -0.066,-0.3384v-2.94874h-1.1425zM208.6274,177.56824h0.8614v3.81446h2.4126v-3.81446h0.8657v4.68016h-0.8657v-0.791c-0.0088,0.1084 -0.0381,0.2109 -0.0879,0.3076c-0.0498,0.0967 -0.1143,0.1817 -0.1934,0.2549c-0.0762,0.0703 -0.164,0.126 -0.2637,0.167c-0.0996,0.041 -0.205,0.0615 -0.3164,0.0615h-1.5512c-0.1172,0 -0.2285,-0.022 -0.334,-0.0659c-0.1055,-0.0469 -0.1978,-0.1084 -0.2769,-0.1846c-0.0761,-0.0791 -0.1377,-0.1714 -0.1845,-0.2768c-0.044,-0.1055 -0.066,-0.2183 -0.066,-0.3384zM215.0698,178.43396v3.81444h-0.8613v-4.68016h0.8613v0.82617c0.0059,-0.11426 0.0323,-0.22119 0.0791,-0.3208c0.0469,-0.10254 0.1084,-0.19043 0.1846,-0.26367c0.0791,-0.07618 0.1699,-0.13477 0.2725,-0.17578c0.1025,-0.04395 0.2124,-0.06592 0.3295,-0.06592h0.9185c0.1201,0 0.2314,0.02343 0.334,0.07031c0.1055,0.04395 0.1977,0.10547 0.2768,0.18457c0.0791,0.07617 0.1407,0.16699 0.1846,0.27246c0.0469,0.10547 0.0703,0.21826 0.0703,0.33838v0.79102h-0.8657v-0.79102zM222.936,182.2484h-0.8657v-3.81444h-2.4126v3.81444h-0.8613v-4.68016h0.8613v0.82617c0.0059,-0.11426 0.0322,-0.22119 0.0791,-0.3208c0.0469,-0.10254 0.1084,-0.19043 0.1846,-0.26367c0.0791,-0.07618 0.1699,-0.13477 0.2724,-0.17578c0.1026,-0.04395 0.2124,-0.06592 0.3296,-0.06592h1.5469c0.1201,0 0.2329,0.02343 0.3384,0.07031c0.1055,0.04395 0.1963,0.10547 0.2725,0.18457c0.0791,0.07617 0.1406,0.16699 0.1845,0.27246c0.0469,0.10547 0.0703,0.21826 0.0703,0.33838zM226.8032,177.56824h1.1426v-1.44141h0.8657v1.44141h1.5381v0.86572h-1.5381v2.94874h1.5381v0.8657h-1.5381c-0.1172,0 -0.2285,-0.022 -0.334,-0.0659c-0.1054,-0.0469 -0.1977,-0.1084 -0.2768,-0.1846c-0.0791,-0.0791 -0.1421,-0.1714 -0.189,-0.2768c-0.0439,-0.1055 -0.0659,-0.2183 -0.0659,-0.3384v-2.94874h-1.1426zM235.8428,181.3827c0,0.1201 -0.0235,0.2329 -0.0703,0.3384c-0.044,0.1054 -0.1055,0.1977 -0.1846,0.2768c-0.0762,0.0762 -0.167,0.1377 -0.2725,0.1846c-0.1025,0.0439 -0.2138,0.0659 -0.334,0.0659h-2.3247c-0.1171,0 -0.2285,-0.022 -0.3339,-0.0659c-0.1055,-0.0469 -0.1978,-0.1084 -0.2769,-0.1846c-0.0762,-0.0791 -0.1377,-0.1714 -0.1846,-0.2768c-0.0439,-0.1055 -0.0659,-0.2183 -0.0659,-0.3384v-2.94874c0,-0.12012 0.022,-0.23291 0.0659,-0.33838c0.0469,-0.10547 0.1084,-0.19629 0.1846,-0.27246c0.0791,-0.0791 0.1714,-0.14062 0.2769,-0.18457c0.1054,-0.04688 0.2168,-0.07031 0.3339,-0.07031h2.3247c0.1202,0 0.2315,0.02343 0.334,0.07031c0.1055,0.04395 0.1963,0.10547 0.2725,0.18457c0.0791,0.07617 0.1406,0.16699 0.1846,0.27246c0.0468,0.10547 0.0703,0.21826 0.0703,0.33838zM232.6567,178.43396v2.94874h2.3247v-2.94874zM243.3267,182.2484l-2.3511,-4.61864v4.61864h-0.9009v-6.30174h0.9844l2.3994,4.74609l2.4038,-4.74609h0.98v6.30174h-0.8965v-4.61864l-2.3511,4.61864zM248.3804,180.20496c0,-0.12012 0.0219,-0.23145 0.0659,-0.33399c0.0469,-0.10547 0.1084,-0.19775 0.1846,-0.27685c0.0791,-0.07911 0.1713,-0.14063 0.2768,-0.18457c0.1055,-0.04688 0.2168,-0.07032 0.334,-0.07032h2.2324v-0.90527h-2.8257v-0.86572h2.8257c0.1201,0 0.2329,0.02343 0.3384,0.07031c0.1055,0.04395 0.1963,0.10547 0.2725,0.18457c0.0791,0.07617 0.1406,0.16699 0.1845,0.27246c0.0469,0.10547 0.0703,0.21826 0.0703,0.33838v3.81444h-0.8657v-0.791c-0.0088,0.1084 -0.0381,0.2109 -0.0879,0.3076c-0.0498,0.0967 -0.1142,0.1817 -0.1933,0.2549c-0.0762,0.0703 -0.1641,0.126 -0.2637,0.167c-0.0996,0.041 -0.2051,0.0615 -0.3164,0.0615h-1.3711c-0.1172,0 -0.2285,-0.022 -0.334,-0.0659c-0.1055,-0.0469 -0.1977,-0.1084 -0.2768,-0.1846c-0.0762,-0.0791 -0.1377,-0.1714 -0.1846,-0.2768c-0.044,-0.1055 -0.0659,-0.2183 -0.0659,-0.3384zM249.2417,181.3827h2.2324v-1.17774h-2.2324zM254.6953,177.56824v4.68016h-0.8657v-4.68016zM253.7856,175.76648h0.9537v0.90088h-0.9537zM260.3247,182.2484h-0.8657v-3.81444h-2.4126v3.81444h-0.8613v-4.68016h0.8613v0.82617c0.0058,-0.11426 0.0322,-0.22119 0.0791,-0.3208c0.0469,-0.10254 0.1084,-0.19043 0.1846,-0.26367c0.0791,-0.07618 0.1699,-0.13477 0.2724,-0.17578c0.1026,-0.04395 0.2124,-0.06592 0.3296,-0.06592h1.5469c0.1201,0 0.2329,0.02343 0.3384,0.07031c0.1054,0.04395 0.1963,0.10547 0.2724,0.18457c0.0791,0.07617 0.1406,0.16699 0.1846,0.27246c0.0469,0.10547 0.0703,0.21826 0.0703,0.33838zM267.8042,182.2484l-2.3511,-4.61864v4.61864h-0.9009v-6.30174h0.9844l2.3994,4.74609l2.4038,-4.74609h0.98v6.30174h-0.8965v-4.61864l-2.351,4.61864zM276.8174,180.34998h-3.0982v1.03272h3.0982v0.8657h-3.0982c-0.1171,0 -0.2285,-0.022 -0.3339,-0.0659c-0.1055,-0.0469 -0.1978,-0.1084 -0.2769,-0.1846c-0.0762,-0.0791 -0.1377,-0.1714 -0.1846,-0.2768c-0.0439,-0.1055 -0.0659,-0.2183 -0.0659,-0.3384v-2.94874c0,-0.12012 0.022,-0.23291 0.0659,-0.33838c0.0469,-0.10547 0.1084,-0.19629 0.1846,-0.27246c0.0791,-0.0791 0.1714,-0.14062 0.2769,-0.18457c0.1054,-0.04688 0.2168,-0.07031 0.3339,-0.07031h2.2325c0.1201,0 0.2329,0.02343 0.3383,0.07031c0.1055,0.04395 0.1963,0.10547 0.2725,0.18457c0.0791,0.07617 0.1406,0.16699 0.1846,0.27246c0.0468,0.10547 0.0703,0.21826 0.0703,0.33838zM273.7192,178.43396v1.05029h2.2325v-1.05029zM282.4028,182.2484h-0.8657v-3.81444h-2.4126v3.81444h-0.8613v-4.68016h0.8613v0.82617c0.0059,-0.11426 0.0322,-0.22119 0.0791,-0.3208c0.0469,-0.10254 0.1084,-0.19043 0.1846,-0.26367c0.0791,-0.07618 0.1699,-0.13477 0.2724,-0.17578c0.1026,-0.04395 0.2124,-0.06592 0.3296,-0.06592h1.5469c0.1201,0 0.2329,0.02343 0.3384,0.07031c0.1055,0.04395 0.1963,0.10547 0.2724,0.18457c0.0792,0.07617 0.1407,0.16699 0.1846,0.27246c0.0469,0.10547 0.0703,0.21826 0.0703,0.33838zM283.8442,177.56824h0.8614v3.81446h2.4126v-3.81446h0.8657v4.68016h-0.8657v-0.791c-0.0088,0.1084 -0.0381,0.2109 -0.0879,0.3076c-0.0498,0.0967 -0.1143,0.1817 -0.1934,0.2549c-0.0762,0.0703 -0.164,0.126 -0.2637,0.167c-0.0996,0.041 -0.205,0.0615 -0.3164,0.0615h-1.5512c-0.1172,0 -0.2285,-0.022 -0.334,-0.0659c-0.1055,-0.0469 -0.1978,-0.1084 -0.2769,-0.1846c-0.0761,-0.0791 -0.1377,-0.1714 -0.1845,-0.2768c-0.044,-0.1055 -0.066,-0.2183 -0.066,-0.3384z" fill="#000000"/><path d="M195.8673,179.74179l-0.05565,-0.11954l0.13012,-0.02135l0.01619,0.09868zM197.23514,182.2062l0.0662,0.1422h-0.15686v-0.1zM196.14692,182.3484h-0.06382l-0.02688,-0.0579l0.0907,-0.0421zM194.97798,179.63035h0.06382l0.02688,0.05789l-0.0907,0.04211zM192.90483,179.73035v-0.1h0.1v0.1zM193.10483,182.2484v0.1h-0.1v-0.1zM192.10395,182.3484h-0.1v-0.1h0.1zM192.00395,175.94666v-0.1h0.1v0.1zM193.00483,178.92947h-0.1v-0.1h0.1zM192.90483,176.84753v-0.1h0.1v0.1zM197.18296,178.19666c0,0.45254 -0.09644,0.82129 -0.3012,1.09483c-0.20617,0.27544 -0.51291,0.44202 -0.90761,0.50678l-0.03238,-0.19737c0.3553,-0.05829 0.61106,-0.20372 0.77988,-0.42926c0.17024,-0.22743 0.26131,-0.54862 0.26131,-0.97498zM196.04862,179.65738l1.18652,2.54882l-0.18132,0.0844l-1.18652,-2.54881zM197.14448,182.3484h-0.99756v-0.2h0.99756zM196.05622,182.2905l-1.16895,-2.51805l0.18141,-0.08421l1.16895,2.51806zM194.97798,179.83035h-1.97315v-0.2h1.97315zM193.10483,179.73035v2.51805h-0.2v-2.51805zM193.00483,182.3484h-0.90088v-0.2h0.90088zM192.00395,182.2484v-6.30174h0.2v6.30174zM192.10395,175.84666h3.44971v0.2h-3.44971zM195.55366,175.84666c0.52525,0 0.93755,0.13176 1.21779,0.41281c0.28018,0.28099 0.41151,0.6943 0.41151,1.22088h-0.2c0,-0.49589 -0.12356,-0.84943 -0.35314,-1.07966c-0.22952,-0.23019 -0.58188,-0.35403 -1.07616,-0.35403zM197.18296,177.48035v0.71631h-0.2v-0.71631zM193.00483,178.72947h2.50049v0.2h-2.50049zM195.50532,178.72947c0.22925,0 0.36982,-0.05089 0.44785,-0.12892l0.14142,0.14143c-0.13292,0.13291 -0.33805,0.18749 -0.58927,0.18749zM195.95317,178.60055c0.07802,-0.07802 0.12891,-0.21859 0.12891,-0.44784h0.2c0,0.25121 -0.05458,0.45635 -0.18749,0.58927zM196.08208,178.15271v-0.62842h0.2v0.62842zM196.08208,177.52429c0,-0.22925 -0.05089,-0.36982 -0.12891,-0.44784l0.14142,-0.14142c0.13291,0.13291 0.18749,0.33805 0.18749,0.58926zM195.95317,177.07645c-0.07803,-0.07802 -0.2186,-0.12892 -0.44785,-0.12892v-0.2c0.25122,0 0.45635,0.05458 0.58927,0.1875zM195.50532,176.94753h-2.50049v-0.2h2.50049zM193.10483,176.84753v1.98194h-0.2v-1.98194zM202.56185,180.34998v0.1h-0.1v-0.1zM199.26375,180.34998v-0.1h0.1v0.1zM199.36375,181.4827h-0.1v-0.1h0.1zM202.46185,181.2827h0.1v0.1h-0.1zM202.56185,182.2484v0.1h-0.1v-0.1zM198.99125,182.2748l-0.0021,-0.0009l0.0406,-0.0914zM198.68355,182.07l-0.0028,-0.0027l0.0721,-0.0694zM198.47695,181.7617l-0.001,-0.0022l0.0924,-0.0384zM198.47605,178.05712l0.0009,-0.00216l0.0914,0.04062zM199.07035,177.72993l-0.0021,0.00095l-0.0385,-0.09233zM201.89605,177.73086l-0.0022,-0.0009l0.0407,-0.09141zM202.13765,177.89515l-0.0028,-0.00262l0.0721,-0.06941zM202.30015,178.13619l-0.0009,-0.00214l0.0923,-0.03847zM199.26375,178.43396v-0.1h0.1v0.1zM199.36375,179.58425h-0.1v-0.1h0.1zM201.69615,179.48425v0.1h-0.1v-0.1zM201.59615,178.33396h0.1v0.1h-0.1zM202.46185,180.44998h-3.0981v-0.2h3.0981zM199.46375,180.34998v1.03272h-0.2v-1.03272zM199.36375,181.2827h3.0981v0.2h-3.0981zM202.56185,181.3827v0.8657h-0.2v-0.8657zM202.46185,182.3484h-3.0981v-0.2h3.0981zM199.36375,182.3484c-0.1301,0 -0.2545,-0.0244 -0.3725,-0.0736l0.0769,-0.1846c0.093,0.0387 0.1912,0.0582 0.2956,0.0582zM198.98915,182.2739c-0.1156,-0.0514 -0.2177,-0.1193 -0.3056,-0.2039l0.1387,-0.1441c0.0703,0.0677 0.1527,0.1228 0.2481,0.1652zM198.68085,182.0673c-0.0847,-0.0879 -0.1526,-0.1901 -0.2039,-0.3056l0.1827,-0.0812c0.0424,0.0953 0.0976,0.1778 0.1653,0.2481zM198.47605,181.7595c-0.0493,-0.1182 -0.0737,-0.2442 -0.0737,-0.3768h0.2c0,0.1076 0.0197,0.2072 0.0583,0.2999zM198.40235,181.3827v-2.94874h0.2v2.94874zM198.40235,178.43396c0,-0.13263 0.0244,-0.25856 0.0737,-0.37684l0.1846,0.07692c-0.0386,0.09266 -0.0583,0.19232 -0.0583,0.29992zM198.47695,178.05497c0.0515,-0.11588 0.1198,-0.21711 0.2052,-0.30256l0.1414,0.14142c-0.0668,0.06689 -0.1216,0.1473 -0.1639,0.24236zM198.68215,177.75241c0.0886,-0.08854 0.1919,-0.15731 0.3091,-0.20617l0.0769,0.18462c-0.0936,0.03903 -0.1749,0.09331 -0.2446,0.16297zM198.98915,177.54717c0.1184,-0.05265 0.2436,-0.07893 0.3746,-0.07893v0.2c-0.1034,0 -0.2009,0.02059 -0.2934,0.06169zM199.36375,177.46824h2.2324v0.2h-2.2324zM201.59615,177.46824c0.1335,0 0.2602,0.02614 0.379,0.07893l-0.0812,0.18276c-0.0922,-0.04096 -0.1911,-0.06169 -0.2978,-0.06169zM201.97295,177.54624c0.1176,0.049 0.22,0.11815 0.3061,0.20752l-0.1441,0.13872c-0.0663,-0.06883 -0.1455,-0.12273 -0.2389,-0.16162zM202.27635,177.75109c0.0894,0.08606 0.1585,0.18844 0.2075,0.30603l-0.1846,0.07692c-0.0389,-0.09335 -0.0928,-0.1726 -0.1616,-0.23889zM202.48295,178.05497c0.0528,0.11877 0.0789,0.24546 0.0789,0.37899h-0.2c0,-0.10671 -0.0207,-0.2056 -0.0617,-0.29777zM202.56185,178.43396v1.91602h-0.2v-1.91602zM199.46375,178.43396v1.05029h-0.2v-1.05029zM199.36375,179.38425h2.2324v0.2h-2.2324zM201.49615,179.48425v-1.05029h0.2v1.05029zM201.59615,178.53396h-2.2324v-0.2h2.2324zM203.53525,177.56824v-0.1h0.1v0.1zM204.87775,177.56824v0.1h-0.1v-0.1zM204.67775,176.12683v-0.1h0.1v0.1zM205.64355,176.02683h0.1v0.1h-0.1zM205.64355,177.66824h-0.1v-0.1h0.1zM207.18155,177.46824h0.1v0.1h-0.1zM207.28155,178.43396v0.1h-0.1v-0.1zM205.54355,178.43396v-0.1h0.1v0.1zM205.64355,181.4827h-0.1v-0.1h0.1zM207.18155,181.2827h0.1v0.1h-0.1zM207.28155,182.2484v0.1h-0.1v-0.1zM205.27105,182.2748l-0.0022,-0.0009l0.0407,-0.0914zM204.96335,182.07l-0.0014,-0.0014l0.0707,-0.0707zM204.75235,181.7617l-0.001,-0.0022l0.0924,-0.0384zM204.77775,178.33396h0.1v0.1h-0.1zM203.63525,178.53396h-0.1v-0.1h0.1zM203.63525,177.46824h1.1425v0.2h-1.1425zM204.67775,177.56824v-1.44141h0.2v1.44141zM204.77775,176.02683h0.8658v0.2h-0.8658zM205.74355,176.12683v1.44141h-0.2v-1.44141zM205.64355,177.46824h1.538v0.2h-1.538zM207.28155,177.56824v0.86572h-0.2v-0.86572zM207.18155,178.53396h-1.538v-0.2h1.538zM205.74355,178.43396v2.94874h-0.2v-2.94874zM205.64355,181.2827h1.538v0.2h-1.538zM207.28155,181.3827v0.8657h-0.2v-0.8657zM207.18155,182.3484h-1.538v-0.2h1.538zM205.64355,182.3484c-0.1301,0 -0.2545,-0.0244 -0.3725,-0.0736l0.0769,-0.1846c0.093,0.0387 0.1912,0.0582 0.2956,0.0582zM205.26895,182.2739c-0.1156,-0.0514 -0.2177,-0.1193 -0.3056,-0.2039l0.1387,-0.1441c0.0703,0.0677 0.1527,0.1228 0.2481,0.1652zM204.96195,182.0686c-0.0881,-0.088 -0.1579,-0.1906 -0.2096,-0.3069l0.1827,-0.0812c0.0421,0.0946 0.0982,0.1766 0.1683,0.2467zM204.75135,181.7595c-0.0492,-0.1182 -0.0736,-0.2442 -0.0736,-0.3768h0.2c0,0.1076 0.0196,0.2072 0.0583,0.2999zM204.67775,181.3827v-2.94874h0.2v2.94874zM204.77775,178.53396h-1.1425v-0.2h1.1425zM203.53525,178.43396v-0.86572h0.2v0.86572zM208.52735,177.56824v-0.1h0.1v0.1zM209.48875,177.46824h0.1v0.1h-0.1zM209.48875,181.4827h-0.1v-0.1h0.1zM212.00135,181.3827v0.1h-0.1v-0.1zM211.80135,177.56824v-0.1h0.1v0.1zM212.76705,177.46824h0.1v0.1h-0.1zM212.86705,182.2484v0.1h-0.1v-0.1zM211.90135,182.3484h-0.1v-0.1h0.1zM211.80165,181.4493l0.1997,0.0081h-0.1zM211.68805,182.0933l-0.0002,0.0001l-0.0678,-0.0735zM209.11625,182.2748l-0.0021,-0.0009l0.0406,-0.0914zM208.80855,182.07l-0.0028,-0.0027l0.0721,-0.0694zM208.60195,181.7617l-0.001,-0.0022l0.0924,-0.0384zM208.62735,177.46824h0.8614v0.2h-0.8614zM209.58875,177.56824v3.81446h-0.2v-3.81446zM209.48875,181.2827h2.4126v0.2h-2.4126zM211.80135,181.3827v-3.81446h0.2v3.81446zM211.90135,177.46824h0.8657v0.2h-0.8657zM212.86705,177.56824v4.68016h-0.2v-4.68016zM212.76705,182.3484h-0.8657v-0.2h0.8657zM211.80135,182.2484v-0.791h0.2v0.791zM212.00095,181.4655c-0.0098,0.1215 -0.0428,0.2369 -0.0986,0.3453l-0.1778,-0.0916c0.0437,-0.0849 0.0694,-0.1746 0.0771,-0.2699zM211.90235,181.8108c-0.0551,0.1069 -0.1266,0.2013 -0.2143,0.2825l-0.1359,-0.1468c0.0705,-0.0652 0.1279,-0.1409 0.1724,-0.2273zM211.68785,182.0934c-0.0852,0.0786 -0.1832,0.1406 -0.2934,0.186l-0.0761,-0.185c0.0891,-0.0367 0.1668,-0.086 0.2339,-0.148zM211.39445,182.2794c-0.1121,0.0461 -0.2305,0.069 -0.3545,0.069v-0.2c0.0988,0 0.1912,-0.0181 0.2784,-0.054zM211.03995,182.3484h-1.5512v-0.2h1.5512zM209.48875,182.3484c-0.1301,0 -0.2545,-0.0244 -0.3725,-0.0736l0.0769,-0.1846c0.093,0.0387 0.1912,0.0582 0.2956,0.0582zM209.11415,182.2739c-0.1156,-0.0514 -0.2177,-0.1193 -0.3056,-0.2039l0.1387,-0.1441c0.0703,0.0677 0.1527,0.1228 0.2481,0.1652zM208.80585,182.0673c-0.0847,-0.0879 -0.1526,-0.1901 -0.2039,-0.3056l0.1827,-0.0812c0.0424,0.0953 0.0976,0.1778 0.1653,0.2481zM208.60105,181.7595c-0.0493,-0.1182 -0.0737,-0.2442 -0.0737,-0.3768h0.2c0,0.1076 0.0197,0.2072 0.0583,0.2999zM208.52735,181.3827v-3.81446h0.2v3.81446zM214.96975,178.43396v-0.1h0.1v0.1zM215.16975,182.2484v0.1h-0.1v-0.1zM214.20845,182.3484h-0.1v-0.1h0.1zM214.10845,177.56824v-0.1h0.1v0.1zM215.06975,177.46824h0.1v0.1h-0.1zM215.16965,178.39953l-0.1999,-0.00512h0.1zM215.23985,178.11518l-0.0005,0.00101l-0.0905,-0.04258zM215.40285,177.88197l-0.0001,0.00005l-0.0693,-0.07208zM215.64525,177.72607l-0.0022,0.00096l-0.0371,-0.09287zM217.14945,177.73086l-0.0031,-0.00131l0.0416,-0.091zM217.39545,177.89515l-0.0014,-0.00131l0.0707,-0.07072zM217.55795,178.13619l-0.0009,-0.00214l0.0923,-0.03847zM217.81965,179.22498v0.1h-0.1v-0.1zM216.85395,179.32498h-0.1v-0.1h0.1zM216.85395,178.33396h0.1v0.1h-0.1zM215.16975,178.43396v3.81444h-0.2v-3.81444zM215.06975,182.3484h-0.8613v-0.2h0.8613zM214.10845,182.2484v-4.68016h0.2v4.68016zM214.20845,177.46824h0.8613v0.2h-0.8613zM215.16975,177.56824v0.82617h-0.2v-0.82617zM214.96995,178.38929c0.0065,-0.12672 0.0358,-0.24643 0.0884,-0.35826l0.181,0.08516c-0.0411,0.08739 -0.0645,0.18154 -0.0697,0.28334zM215.05795,178.03203c0.0517,-0.1132 0.1204,-0.21165 0.2062,-0.29418l0.1386,0.14417c-0.0665,0.06395 -0.1209,0.14129 -0.1629,0.23316zM215.26405,177.7379c0.0885,-0.08517 0.1903,-0.15081 0.3047,-0.19659l0.0743,0.18569c-0.0906,0.03625 -0.1705,0.0878 -0.2402,0.15497zM215.56655,177.54224c0.1156,-0.04955 0.2389,-0.074 0.3689,-0.074v0.2c-0.1043,0 -0.2007,0.01949 -0.2902,0.05783zM215.93545,177.46824h0.9185v0.2h-0.9185zM216.85395,177.46824c0.1335,0 0.2591,0.02614 0.3756,0.07936l-0.0832,0.1819c-0.0886,-0.04053 -0.1857,-0.06126 -0.2924,-0.06126zM217.22635,177.54624c0.1173,0.04886 0.2206,0.11763 0.3092,0.20617l-0.1415,0.14142c-0.0696,-0.06966 -0.1509,-0.12394 -0.2446,-0.16297zM217.53415,177.75109c0.0894,0.08606 0.1585,0.18844 0.2075,0.30603l-0.1846,0.07692c-0.0389,-0.09335 -0.0928,-0.1726 -0.1616,-0.23889zM217.74075,178.05497c0.0528,0.11877 0.0789,0.24546 0.0789,0.37899h-0.2c0,-0.10671 -0.0207,-0.2056 -0.0617,-0.29777zM217.81965,178.43396v0.79102h-0.2v-0.79102zM217.71965,179.32498h-0.8657v-0.2h0.8657zM216.75395,179.22498v-0.79102h0.2v0.79102zM216.85395,178.53396h-1.7842v-0.2h1.7842zM223.03595,182.2484v0.1h-0.1v-0.1zM222.07025,182.3484h-0.1v-0.1h0.1zM222.07025,178.33396h0.1v0.1h-0.1zM219.55765,178.43396v-0.1h0.1v0.1zM219.75765,182.2484v0.1h-0.1v-0.1zM218.79635,182.3484h-0.1v-0.1h0.1zM218.69635,177.56824v-0.1h0.1v0.1zM219.65765,177.46824h0.1v0.1h-0.1zM219.75755,178.39953l-0.1999,-0.00512h0.1zM219.82775,178.11518l-0.0005,0.00101l-0.0905,-0.04258zM219.99075,177.88197l-0.0001,0.00005l-0.0693,-0.07208zM220.23315,177.72607l-0.0022,0.00096l-0.0372,-0.09287zM222.37015,177.73086l-0.0021,-0.0009l0.0406,-0.09141zM222.61175,177.89515l-0.0027,-0.00262l0.0721,-0.06941zM222.77425,178.13619l-0.0009,-0.00214l0.0923,-0.03847zM222.93595,182.3484h-0.8657v-0.2h0.8657zM221.97025,182.2484v-3.81444h0.2v3.81444zM222.07025,178.53396h-2.4126v-0.2h2.4126zM219.75765,178.43396v3.81444h-0.2v-3.81444zM219.65765,182.3484h-0.8613v-0.2h0.8613zM218.69635,182.2484v-4.68016h0.2v4.68016zM218.79635,177.46824h0.8613v0.2h-0.8613zM219.75765,177.56824v0.82617h-0.2v-0.82617zM219.55775,178.38929c0.0065,-0.12672 0.0359,-0.24643 0.0885,-0.35826l0.181,0.08516c-0.0411,0.08739 -0.0645,0.18154 -0.0697,0.28334zM219.64585,178.03203c0.0517,-0.1132 0.1203,-0.21165 0.2062,-0.29418l0.1386,0.14417c-0.0665,0.06395 -0.1209,0.14129 -0.1629,0.23316zM219.85195,177.7379c0.0885,-0.08517 0.1903,-0.15081 0.3047,-0.19659l0.0743,0.18569c-0.0906,0.03625 -0.1705,0.0878 -0.2402,0.15497zM220.15445,177.54224c0.1156,-0.04955 0.2389,-0.074 0.3689,-0.074v0.2c-0.1043,0 -0.2007,0.01949 -0.2902,0.05783zM220.52335,177.46824h1.5469v0.2h-1.5469zM222.07025,177.46824c0.1335,0 0.2602,0.02614 0.379,0.07893l-0.0812,0.18276c-0.0922,-0.04096 -0.1911,-0.06169 -0.2978,-0.06169zM222.44715,177.54624c0.1175,0.049 0.2199,0.11815 0.306,0.20752l-0.1441,0.13872c-0.0663,-0.06883 -0.1455,-0.12273 -0.2389,-0.16162zM222.75045,177.75109c0.0894,0.08606 0.1585,0.18844 0.2075,0.30603l-0.1846,0.07692c-0.0389,-0.09335 -0.0928,-0.1726 -0.1616,-0.23889zM222.95705,178.05497c0.0528,0.11877 0.0789,0.24546 0.0789,0.37899h-0.2c0,-0.10671 -0.0207,-0.2056 -0.0617,-0.29777zM223.03595,178.43396v3.81444h-0.2v-3.81444zM226.70315,177.56824v-0.1h0.1v0.1zM228.04575,177.56824v0.1h-0.1v-0.1zM227.84575,176.12683v-0.1h0.1v0.1zM228.81145,176.02683h0.1v0.1h-0.1zM228.81145,177.66824h-0.1v-0.1h0.1zM230.34955,177.46824h0.1v0.1h-0.1zM230.44955,178.43396v0.1h-0.1v-0.1zM228.71145,178.43396v-0.1h0.1v0.1zM228.81145,181.4827h-0.1v-0.1h0.1zM230.34955,181.2827h0.1v0.1h-0.1zM230.44955,182.2484v0.1h-0.1v-0.1zM228.43905,182.2748l-0.0022,-0.0009l0.0406,-0.0914zM228.13125,182.07l-0.0013,-0.0014l0.0707,-0.0707zM227.92025,181.7617l-0.0009,-0.0022l0.0923,-0.0384zM227.94575,178.33396h0.1v0.1h-0.1zM226.80315,178.53396h-0.1v-0.1h0.1zM226.80315,177.46824h1.1426v0.2h-1.1426zM227.84575,177.56824v-1.44141h0.2v1.44141zM227.94575,176.02683h0.8657v0.2h-0.8657zM228.91145,176.12683v1.44141h-0.2v-1.44141zM228.81145,177.46824h1.5381v0.2h-1.5381zM230.44955,177.56824v0.86572h-0.2v-0.86572zM230.34955,178.53396h-1.5381v-0.2h1.5381zM228.91145,178.43396v2.94874h-0.2v-2.94874zM228.81145,181.2827h1.5381v0.2h-1.5381zM230.44955,181.3827v0.8657h-0.2v-0.8657zM230.34955,182.3484h-1.5381v-0.2h1.5381zM228.81145,182.3484c-0.13,0 -0.2545,-0.0244 -0.3724,-0.0736l0.0769,-0.1846c0.093,0.0387 0.1912,0.0582 0.2955,0.0582zM228.43685,182.2739c-0.1155,-0.0514 -0.2177,-0.1193 -0.3056,-0.2039l0.1387,-0.1441c0.0703,0.0677 0.1528,0.1228 0.2482,0.1652zM228.12995,182.0686c-0.0881,-0.088 -0.158,-0.1906 -0.2097,-0.3069l0.1828,-0.0812c0.0421,0.0946 0.0981,0.1766 0.1683,0.2467zM227.91935,181.7595c-0.0493,-0.1182 -0.0736,-0.2442 -0.0736,-0.3768h0.2c0,0.1076 0.0196,0.2072 0.0582,0.2999zM227.84575,181.3827v-2.94874h0.2v2.94874zM227.94575,178.53396h-1.1426v-0.2h1.1426zM226.70315,178.43396v-0.86572h0.2v0.86572zM235.68015,181.6826l0.0009,-0.0022l0.0914,0.0407zM235.35595,182.2739l-0.0012,0.0005l-0.0394,-0.0919zM232.28425,182.2748l-0.0022,-0.0009l0.0407,-0.0914zM231.97645,182.07l-0.0027,-0.0027l0.0721,-0.0694zM231.76985,181.7617l-0.0009,-0.0022l0.0923,-0.0384zM231.76895,178.05712l0.0009,-0.00216l0.0914,0.04062zM232.36335,177.72993l-0.0022,0.00095l-0.0384,-0.09233zM235.27695,177.73086l-0.0032,-0.00131l0.0416,-0.091zM235.51845,177.89515l-0.0027,-0.00262l0.0721,-0.06941zM235.68105,178.13619l-0.001,-0.00214l0.0924,-0.03847zM232.55665,178.43396v-0.1h0.1v0.1zM232.65665,181.4827h-0.1v-0.1h0.1zM235.08135,181.3827v0.1h-0.1v-0.1zM234.98135,178.33396h0.1v0.1h-0.1zM235.94275,181.3827c0,0.1335 -0.0262,0.2602 -0.079,0.379l-0.1827,-0.0812c0.0409,-0.0922 0.0617,-0.1911 0.0617,-0.2978zM235.86475,181.7595c-0.0489,0.1173 -0.1177,0.2206 -0.2062,0.3091l-0.1414,-0.1414c0.0696,-0.0697 0.1239,-0.1509 0.163,-0.2446zM235.65855,182.0686c-0.0855,0.0855 -0.1867,0.1538 -0.3026,0.2053l-0.0812,-0.1828c0.0951,-0.0422 0.1755,-0.097 0.2424,-0.1639zM235.35475,182.2744c-0.1159,0.0497 -0.2407,0.074 -0.3734,0.074v-0.2c0.1077,0 0.2055,-0.0196 0.2946,-0.0578zM234.98135,182.3484h-2.3247v-0.2h2.3247zM232.65665,182.3484c-0.13,0 -0.2544,-0.0244 -0.3724,-0.0736l0.0769,-0.1846c0.093,0.0387 0.1912,0.0582 0.2955,0.0582zM232.28205,182.2739c-0.1155,-0.0514 -0.2177,-0.1193 -0.3056,-0.2039l0.1388,-0.1441c0.0703,0.0677 0.1527,0.1228 0.2481,0.1652zM231.97385,182.0673c-0.0847,-0.0879 -0.1526,-0.1901 -0.204,-0.3056l0.1828,-0.0812c0.0424,0.0953 0.0975,0.1778 0.1652,0.2481zM231.76895,181.7595c-0.0493,-0.1182 -0.0736,-0.2442 -0.0736,-0.3768h0.2c0,0.1076 0.0196,0.2072 0.0582,0.2999zM231.69535,181.3827v-2.94874h0.2v2.94874zM231.69535,178.43396c0,-0.13263 0.0243,-0.25856 0.0736,-0.37684l0.1846,0.07692c-0.0386,0.09266 -0.0582,0.19232 -0.0582,0.29992zM231.76985,178.05497c0.0515,-0.11588 0.1198,-0.21711 0.2053,-0.30256l0.1414,0.14142c-0.0669,0.06689 -0.1216,0.1473 -0.1639,0.24236zM231.97515,177.75241c0.0885,-0.08854 0.1918,-0.15731 0.3091,-0.20617l0.0769,0.18462c-0.0937,0.03903 -0.1749,0.09331 -0.2446,0.16297zM232.28205,177.54717c0.1185,-0.05265 0.2437,-0.07893 0.3746,-0.07893v0.2c-0.1034,0 -0.2008,0.02059 -0.2933,0.06169zM232.65665,177.46824h2.3247v0.2h-2.3247zM234.98135,177.46824c0.1336,0 0.2592,0.02614 0.3756,0.07936l-0.0831,0.1819c-0.0887,-0.04053 -0.1857,-0.06126 -0.2925,-0.06126zM235.35385,177.54624c0.1176,0.049 0.22,0.11815 0.306,0.20752l-0.144,0.13872c-0.0663,-0.06883 -0.1456,-0.12273 -0.2389,-0.16162zM235.65725,177.75109c0.0893,0.08606 0.1585,0.18844 0.2075,0.30603l-0.1846,0.07692c-0.0389,-0.09335 -0.0928,-0.1726 -0.1617,-0.23889zM235.86375,178.05497c0.0528,0.11877 0.079,0.24546 0.079,0.37899h-0.2c0,-0.10671 -0.0208,-0.2056 -0.0617,-0.29777zM235.94275,178.43396v2.94874h-0.2v-2.94874zM232.75665,178.43396v2.94874h-0.2v-2.94874zM232.65665,181.2827h2.3247v0.2h-2.3247zM234.88135,181.3827v-2.94874h0.2v2.94874zM234.98135,178.53396h-2.3247v-0.2h2.3247zM243.32665,182.3484h-0.0613l-0.0279,-0.0546l0.0892,-0.0454zM240.87555,177.62976l0.1891,-0.04536l-0.0891,0.04536zM241.07555,182.2484v0.1h-0.1v-0.1zM240.07465,182.3484h-0.1v-0.1h0.1zM239.97465,175.94666v-0.1h0.1v0.1zM241.05905,175.84666h0.0615l0.0277,0.05488l-0.0892,0.04512zM243.54765,180.73793l-0.0893,0.1763l-0.0891,-0.17636l0.0892,-0.04512zM245.77305,175.90147l0.0278,-0.05481h0.0614v0.1zM246.84225,175.84666h0.1v0.1h-0.1zM246.94225,182.2484v0.1h-0.1v-0.1zM245.94575,182.3484h-0.1v-0.1h0.1zM245.85665,177.5844l0.1891,0.04536h-0.1zM243.68375,182.2938l-0.0278,0.0546h-0.0613v-0.1zM243.23745,182.2938l-2.351,-4.61867l0.1782,-0.09073l2.3511,4.6186zM241.07555,177.62976v4.61864h-0.2v-4.61864zM240.97555,182.3484h-0.9009v-0.2h0.9009zM239.97465,182.2484v-6.30174h0.2v6.30174zM240.07465,175.84666h0.9844v0.2h-0.9844zM241.14825,175.90154l2.3994,4.74609l-0.1784,0.09024l-2.3995,-4.7461zM243.36925,180.64757l2.4038,-4.7461l0.1784,0.09037l-2.4038,4.74609zM245.86225,175.84666h0.98v0.2h-0.98zM246.94225,175.94666v6.30174h-0.2v-6.30174zM246.84225,182.3484h-0.8965v-0.2h0.8965zM245.84575,182.2484v-4.61864h0.2v4.61864zM246.03485,177.67513l-2.3511,4.61867l-0.1782,-0.0908l2.3511,-4.6186zM243.59465,182.3484h-0.268v-0.2h0.268zM248.35435,179.83158l0.0005,-0.00123l0.0914,0.04062zM248.55875,179.52475l0.0013,-0.00136l0.0708,0.07073zM248.94825,179.50093l-0.0021,0.00095l-0.0385,-0.09233zM251.57405,179.33923v0.1h-0.1v-0.1zM251.47405,178.33396h0.1v0.1h-0.1zM248.64835,178.53396h-0.1v-0.1h0.1zM248.54835,177.56824v-0.1h0.1v0.1zM251.77395,177.73086l-0.0021,-0.0009l0.0406,-0.09141zM252.01555,177.89515l-0.0027,-0.00262l0.0721,-0.06941zM252.17815,178.13619l-0.001,-0.00214l0.0923,-0.03847zM252.43975,182.2484v0.1h-0.1v-0.1zM251.47405,182.3484h-0.1v-0.1h0.1zM251.37435,181.4493l0.1997,0.0081h-0.1zM251.26075,182.0933l-0.0001,0.0001l-0.0678,-0.0735zM248.86925,182.2748l-0.0022,-0.0009l0.0406,-0.0914zM248.56145,182.07l-0.0027,-0.0027l0.0721,-0.0694zM248.35485,181.7617l-0.0009,-0.0022l0.0923,-0.0384zM249.24165,181.4827h-0.1v-0.1h0.1zM251.57405,181.3827v0.1h-0.1v-0.1zM251.47405,180.10496h0.1v0.1h-0.1zM249.14165,180.20496v-0.1h0.1v0.1zM248.28035,180.20496c0,-0.13261 0.0243,-0.25746 0.074,-0.37338l0.1838,0.07878c-0.0382,0.08916 -0.0578,0.18697 -0.0578,0.2946zM248.35485,179.83036c0.0514,-0.11556 0.1193,-0.2177 0.2039,-0.30561l0.1441,0.13873c-0.0677,0.0703 -0.1228,0.15273 -0.1652,0.24811zM248.56005,179.52341c0.0886,-0.08854 0.1919,-0.15731 0.3092,-0.20617l0.0769,0.18461c-0.0937,0.03904 -0.175,0.09331 -0.2446,0.16298zM248.86705,179.31816c0.1185,-0.05264 0.2436,-0.07893 0.3746,-0.07893v0.2c-0.1034,0 -0.2009,0.02059 -0.2934,0.0617zM249.24165,179.23923h2.2324v0.2h-2.2324zM251.37405,179.33923v-0.90527h0.2v0.90527zM251.47405,178.53396h-2.8257v-0.2h2.8257zM248.54835,178.43396v-0.86572h0.2v0.86572zM248.64835,177.46824h2.8257v0.2h-2.8257zM251.47405,177.46824c0.1335,0 0.2602,0.02614 0.379,0.07893l-0.0812,0.18276c-0.0922,-0.04096 -0.1911,-0.06169 -0.2978,-0.06169zM251.85095,177.54624c0.1176,0.049 0.2199,0.11815 0.306,0.20752l-0.1441,0.13872c-0.0663,-0.06883 -0.1455,-0.12273 -0.2389,-0.16162zM252.15425,177.75109c0.0894,0.08606 0.1585,0.18844 0.2075,0.30603l-0.1846,0.07692c-0.0389,-0.09335 -0.0928,-0.1726 -0.1616,-0.23889zM252.36085,178.05497c0.0528,0.11877 0.0789,0.24546 0.0789,0.37899h-0.2c0,-0.10671 -0.0207,-0.2056 -0.0616,-0.29777zM252.43975,178.43396v3.81444h-0.2v-3.81444zM252.33975,182.3484h-0.8657v-0.2h0.8657zM251.37405,182.2484v-0.791h0.2v0.791zM251.57375,181.4655c-0.0099,0.1215 -0.0428,0.2369 -0.0987,0.3453l-0.1778,-0.0916c0.0438,-0.0849 0.0694,-0.1746 0.0771,-0.2699zM251.47505,181.8108c-0.0551,0.1069 -0.1266,0.2013 -0.2143,0.2825l-0.1359,-0.1468c0.0705,-0.0652 0.1279,-0.1409 0.1724,-0.2273zM251.26065,182.0934c-0.0852,0.0786 -0.1833,0.1406 -0.2934,0.186l-0.0762,-0.185c0.0891,-0.0367 0.1668,-0.086 0.2339,-0.148zM250.96725,182.2794c-0.1121,0.0461 -0.2306,0.069 -0.3545,0.069v-0.2c0.0987,0 0.1912,-0.0181 0.2783,-0.054zM250.61275,182.3484h-1.3711v-0.2h1.3711zM249.24165,182.3484c-0.13,0 -0.2545,-0.0244 -0.3724,-0.0736l0.0769,-0.1846c0.0929,0.0387 0.1912,0.0582 0.2955,0.0582zM248.86705,182.2739c-0.1156,-0.0514 -0.2177,-0.1193 -0.3056,-0.2039l0.1387,-0.1441c0.0703,0.0677 0.1527,0.1228 0.2481,0.1652zM248.55875,182.0673c-0.0846,-0.0879 -0.1525,-0.1901 -0.2039,-0.3056l0.1828,-0.0812c0.0424,0.0953 0.0975,0.1778 0.1652,0.2481zM248.35395,181.7595c-0.0493,-0.1182 -0.0736,-0.2442 -0.0736,-0.3768h0.2c0,0.1076 0.0196,0.2072 0.0582,0.2999zM248.28035,181.3827v-1.17774h0.2v1.17774zM249.24165,181.2827h2.2324v0.2h-2.2324zM251.37405,181.3827v-1.17774h0.2v1.17774zM251.47405,180.30496h-2.2324v-0.2h2.2324zM249.34165,180.20496v1.17774h-0.2v-1.17774zM254.69525,177.46824h0.1v0.1h-0.1zM254.79525,182.2484v0.1h-0.1v-0.1zM253.82955,182.3484h-0.1v-0.1h0.1zM253.72955,177.56824v-0.1h0.1v0.1zM253.68555,175.76648v-0.1h0.1v0.1zM254.73925,175.66648h0.1v0.1h-0.1zM254.83925,176.66736v0.1h-0.1v-0.1zM253.78555,176.76736h-0.1v-0.1h0.1zM254.79525,177.56824v4.68016h-0.2v-4.68016zM254.69525,182.3484h-0.8657v-0.2h0.8657zM253.72955,182.2484v-4.68016h0.2v4.68016zM253.82955,177.46824h0.8657v0.2h-0.8657zM253.78555,175.66648h0.9537v0.2h-0.9537zM254.83925,175.76648v0.90088h-0.2v-0.90088zM254.73925,176.76736h-0.9537v-0.2h0.9537zM253.68555,176.66736v-0.90088h0.2v0.90088zM260.42465,182.2484v0.1h-0.1v-0.1zM259.45895,182.3484h-0.1v-0.1h0.1zM259.45895,178.33396h0.1v0.1h-0.1zM256.94635,178.43396v-0.1h0.1v0.1zM257.14635,182.2484v0.1h-0.1v-0.1zM256.18505,182.3484h-0.1v-0.1h0.1zM256.08505,177.56824v-0.1h0.1v0.1zM257.04635,177.46824h0.1v0.1h-0.1zM257.14625,178.39953l-0.1999,-0.00512h0.1zM257.21635,178.11518l-0.0004,0.00101l-0.0905,-0.04258zM257.37935,177.88197v0.00005l-0.0693,-0.07208zM257.62185,177.72607l-0.0022,0.00096l-0.0372,-0.09287zM259.75885,177.73086l-0.0022,-0.0009l0.0407,-0.09141zM260.00045,177.89515l-0.0028,-0.00262l0.0721,-0.06941zM260.16295,178.13619l-0.0009,-0.00214l0.0923,-0.03847zM260.32465,182.3484h-0.8657v-0.2h0.8657zM259.35895,182.2484v-3.81444h0.2v3.81444zM259.45895,178.53396h-2.4126v-0.2h2.4126zM257.14635,178.43396v3.81444h-0.2v-3.81444zM257.04635,182.3484h-0.8613v-0.2h0.8613zM256.08505,182.2484v-4.68016h0.2v4.68016zM256.18505,177.46824h0.8613v0.2h-0.8613zM257.14635,177.56824v0.82617h-0.2v-0.82617zM256.94645,178.38929c0.0065,-0.12672 0.0359,-0.24643 0.0885,-0.35826l0.181,0.08516c-0.0412,0.08739 -0.0645,0.18154 -0.0697,0.28334zM257.03445,178.03203c0.0518,-0.1132 0.1204,-0.21165 0.2062,-0.29418l0.1387,0.14417c-0.0665,0.06395 -0.121,0.14129 -0.163,0.23316zM257.24065,177.7379c0.0884,-0.08517 0.1902,-0.15081 0.3047,-0.19659l0.0743,0.18569c-0.0907,0.03625 -0.1705,0.0878 -0.2403,0.15497zM257.54305,177.54224c0.1156,-0.04955 0.239,-0.074 0.369,-0.074v0.2c-0.1043,0 -0.2007,0.01949 -0.2902,0.05783zM257.91205,177.46824h1.5469v0.2h-1.5469zM259.45895,177.46824c0.1335,0 0.2602,0.02614 0.379,0.07893l-0.0813,0.18276c-0.0921,-0.04096 -0.191,-0.06169 -0.2977,-0.06169zM259.83575,177.54624c0.1176,0.049 0.22,0.11815 0.3061,0.20752l-0.1441,0.13872c-0.0663,-0.06883 -0.1456,-0.12273 -0.2389,-0.16162zM260.13915,177.75109c0.0894,0.08606 0.1585,0.18844 0.2075,0.30603l-0.1846,0.07692c-0.0389,-0.09335 -0.0928,-0.1726 -0.1616,-0.23889zM260.34575,178.05497c0.0528,0.11877 0.0789,0.24546 0.0789,0.37899h-0.2c0,-0.10671 -0.0207,-0.2056 -0.0617,-0.29777zM260.42465,178.43396v3.81444h-0.2v-3.81444zM267.80415,182.3484h-0.0613l-0.0278,-0.0546l0.0891,-0.0454zM265.35305,177.62976l0.1891,-0.04536l-0.0891,0.04536zM265.55305,182.2484v0.1h-0.1v-0.1zM264.55215,182.3484h-0.1v-0.1h0.1zM264.45215,175.94666v-0.1h0.1v0.1zM265.53655,175.84666h0.0615l0.0278,0.05488l-0.0893,0.04512zM268.02515,180.73793l-0.0892,0.1763l-0.0892,-0.17636l0.0892,-0.04512zM270.25055,175.90147l0.0278,-0.05481h0.0614v0.1zM271.31975,175.84666h0.1v0.1h-0.1zM271.41975,182.2484v0.1h-0.1v-0.1zM270.42325,182.3484h-0.1v-0.1h0.1zM270.33415,177.5844l0.1891,0.04536h-0.1zM268.16135,182.2938l-0.0278,0.0546h-0.0613v-0.1zM267.71505,182.2938l-2.3511,-4.61867l0.1782,-0.09073l2.3511,4.6186zM265.55305,177.62976v4.61864h-0.2v-4.61864zM265.45305,182.3484h-0.9009v-0.2h0.9009zM264.45215,182.2484v-6.30174h0.2v6.30174zM264.55215,175.84666h0.9844v0.2h-0.9844zM265.62585,175.90154l2.3994,4.74609l-0.1785,0.09024l-2.3994,-4.7461zM267.84675,180.64757l2.4038,-4.7461l0.1785,0.09037l-2.4039,4.74609zM270.33975,175.84666h0.98v0.2h-0.98zM271.41975,175.94666v6.30174h-0.2v-6.30174zM271.31975,182.3484h-0.8965v-0.2h0.8965zM270.32325,182.2484v-4.61864h0.2v4.61864zM270.51245,177.67513l-2.3511,4.61867l-0.1783,-0.0908l2.3511,-4.6186zM268.07225,182.3484h-0.2681v-0.2h0.2681zM276.91735,180.34998v0.1h-0.1v-0.1zM273.61915,180.34998v-0.1h0.1v0.1zM273.71915,181.4827h-0.1v-0.1h0.1zM276.81735,181.2827h0.1v0.1h-0.1zM276.91735,182.2484v0.1h-0.1v-0.1zM273.34675,182.2748l-0.0022,-0.0009l0.0407,-0.0914zM273.03895,182.07l-0.0027,-0.0027l0.0721,-0.0694zM272.83235,181.7617l-0.0009,-0.0022l0.0923,-0.0384zM272.83145,178.05712l0.0009,-0.00216l0.0914,0.04062zM273.42585,177.72993l-0.0022,0.00095l-0.0384,-0.09233zM276.25155,177.73086l-0.0022,-0.0009l0.0406,-0.09141zM276.49305,177.89515l-0.0027,-0.00262l0.0721,-0.06941zM276.65565,178.13619l-0.001,-0.00214l0.0924,-0.03847zM273.61915,178.43396v-0.1h0.1v0.1zM273.71915,179.58425h-0.1v-0.1h0.1zM276.05165,179.48425v0.1h-0.1v-0.1zM275.95165,178.33396h0.1v0.1h-0.1zM276.81735,180.44998h-3.0982v-0.2h3.0982zM273.81915,180.34998v1.03272h-0.2v-1.03272zM273.71915,181.2827h3.0982v0.2h-3.0982zM276.91735,181.3827v0.8657h-0.2v-0.8657zM276.81735,182.3484h-3.0982v-0.2h3.0982zM273.71915,182.3484c-0.13,0 -0.2544,-0.0244 -0.3724,-0.0736l0.0769,-0.1846c0.093,0.0387 0.1912,0.0582 0.2955,0.0582zM273.34455,182.2739c-0.1155,-0.0514 -0.2177,-0.1193 -0.3056,-0.2039l0.1388,-0.1441c0.0703,0.0677 0.1527,0.1228 0.2481,0.1652zM273.03635,182.0673c-0.0847,-0.0879 -0.1526,-0.1901 -0.204,-0.3056l0.1828,-0.0812c0.0424,0.0953 0.0975,0.1778 0.1652,0.2481zM272.83145,181.7595c-0.0493,-0.1182 -0.0736,-0.2442 -0.0736,-0.3768h0.2c0,0.1076 0.0196,0.2072 0.0582,0.2999zM272.75785,181.3827v-2.94874h0.2v2.94874zM272.75785,178.43396c0,-0.13263 0.0243,-0.25856 0.0736,-0.37684l0.1846,0.07692c-0.0386,0.09266 -0.0582,0.19232 -0.0582,0.29992zM272.83235,178.05497c0.0515,-0.11588 0.1198,-0.21711 0.2053,-0.30256l0.1414,0.14142c-0.0669,0.06689 -0.1216,0.1473 -0.1639,0.24236zM273.03765,177.75241c0.0885,-0.08854 0.1918,-0.15731 0.3091,-0.20617l0.0769,0.18462c-0.0937,0.03903 -0.1749,0.09331 -0.2446,0.16297zM273.34455,177.54717c0.1185,-0.05265 0.2437,-0.07893 0.3746,-0.07893v0.2c-0.1034,0 -0.2008,0.02059 -0.2933,0.06169zM273.71915,177.46824h2.2325v0.2h-2.2325zM275.95165,177.46824c0.1335,0 0.2602,0.02614 0.379,0.07893l-0.0813,0.18276c-0.0921,-0.04096 -0.191,-0.06169 -0.2977,-0.06169zM276.32845,177.54624c0.1176,0.049 0.22,0.11815 0.306,0.20752l-0.144,0.13872c-0.0663,-0.06883 -0.1456,-0.12273 -0.2389,-0.16162zM276.63185,177.75109c0.0893,0.08606 0.1585,0.18844 0.2075,0.30603l-0.1846,0.07692c-0.0389,-0.09335 -0.0928,-0.1726 -0.1617,-0.23889zM276.83845,178.05497c0.0527,0.11877 0.0789,0.24546 0.0789,0.37899h-0.2c0,-0.10671 -0.0208,-0.2056 -0.0617,-0.29777zM276.91735,178.43396v1.91602h-0.2v-1.91602zM273.81915,178.43396v1.05029h-0.2v-1.05029zM273.71915,179.38425h2.2325v0.2h-2.2325zM275.85165,179.48425v-1.05029h0.2v1.05029zM275.95165,178.53396h-2.2325v-0.2h2.2325zM282.50275,182.2484v0.1h-0.1v-0.1zM281.53705,182.3484h-0.1v-0.1h0.1zM281.53705,178.33396h0.1v0.1h-0.1zM279.02445,178.43396v-0.1h0.1v0.1zM279.22445,182.2484v0.1h-0.1v-0.1zM278.26315,182.3484h-0.1v-0.1h0.1zM278.16315,177.56824v-0.1h0.1v0.1zM279.12445,177.46824h0.1v0.1h-0.1zM279.22435,178.39953l-0.1999,-0.00512h0.1zM279.29455,178.11518l-0.0005,0.00101l-0.0905,-0.04258zM279.45745,177.88197v0.00005l-0.0693,-0.07208zM279.69995,177.72607l-0.0022,0.00096l-0.0372,-0.09287zM281.83695,177.73086l-0.0021,-0.0009l0.0406,-0.09141zM282.07855,177.89515l-0.0027,-0.00262l0.072,-0.06941zM282.24105,178.13619l-0.0009,-0.00214l0.0923,-0.03847zM282.40275,182.3484h-0.8657v-0.2h0.8657zM281.43705,182.2484v-3.81444h0.2v3.81444zM281.53705,178.53396h-2.4126v-0.2h2.4126zM279.22445,178.43396v3.81444h-0.2v-3.81444zM279.12445,182.3484h-0.8613v-0.2h0.8613zM278.16315,182.2484v-4.68016h0.2v4.68016zM278.26315,177.46824h0.8613v0.2h-0.8613zM279.22445,177.56824v0.82617h-0.2v-0.82617zM279.02455,178.38929c0.0065,-0.12672 0.0359,-0.24643 0.0885,-0.35826l0.181,0.08516c-0.0411,0.08739 -0.0645,0.18154 -0.0697,0.28334zM279.11265,178.03203c0.0517,-0.1132 0.1203,-0.21165 0.2062,-0.29418l0.1386,0.14417c-0.0665,0.06395 -0.1209,0.14129 -0.1629,0.23316zM279.31875,177.7379c0.0885,-0.08517 0.1903,-0.15081 0.3047,-0.19659l0.0743,0.18569c-0.0906,0.03625 -0.1705,0.0878 -0.2403,0.15497zM279.62125,177.54224c0.1156,-0.04955 0.2389,-0.074 0.3689,-0.074v0.2c-0.1043,0 -0.2007,0.01949 -0.2902,0.05783zM279.99015,177.46824h1.5469v0.2h-1.5469zM281.53705,177.46824c0.1335,0 0.2602,0.02614 0.379,0.07893l-0.0812,0.18276c-0.0922,-0.04096 -0.1911,-0.06169 -0.2978,-0.06169zM281.91385,177.54624c0.1176,0.049 0.22,0.11815 0.3061,0.20752l-0.1441,0.13872c-0.0663,-0.06883 -0.1455,-0.12273 -0.2389,-0.16162zM282.21725,177.75109c0.0894,0.08606 0.1585,0.18844 0.2075,0.30603l-0.1846,0.07692c-0.0389,-0.09335 -0.0928,-0.1726 -0.1616,-0.23889zM282.42385,178.05497c0.0528,0.11877 0.0789,0.24546 0.0789,0.37899h-0.2c0,-0.10671 -0.0207,-0.2056 -0.0617,-0.29777zM282.50275,178.43396v3.81444h-0.2v-3.81444zM283.74415,177.56824v-0.1h0.1v0.1zM284.70555,177.46824h0.1v0.1h-0.1zM284.70555,181.4827h-0.1v-0.1h0.1zM287.21815,181.3827v0.1h-0.1v-0.1zM287.01815,177.56824v-0.1h0.1v0.1zM287.98385,177.46824h0.1001v0.1h-0.1001zM288.08395,182.2484v0.1h-0.1001v-0.1zM287.11815,182.3484h-0.1v-0.1h0.1zM287.01845,181.4493l0.1997,0.0081h-0.1zM286.90485,182.0933l-0.0002,0.0001l-0.0678,-0.0735zM284.33305,182.2748l-0.0021,-0.0009l0.0406,-0.0914zM284.02535,182.07l-0.0028,-0.0027l0.0721,-0.0694zM283.81875,181.7617l-0.001,-0.0022l0.0924,-0.0384zM283.84415,177.46824h0.8614v0.2h-0.8614zM284.80555,177.56824v3.81446h-0.2v-3.81446zM284.70555,181.2827h2.4126v0.2h-2.4126zM287.01815,181.3827v-3.81446h0.2v3.81446zM287.11815,177.46824h0.8657v0.2h-0.8657zM288.08395,177.56824v4.68016h-0.2001v-4.68016zM287.98385,182.3484h-0.8657v-0.2h0.8657zM287.01815,182.2484v-0.791h0.2v0.791zM287.21775,181.4655c-0.0098,0.1215 -0.0428,0.2369 -0.0986,0.3453l-0.1778,-0.0916c0.0437,-0.0849 0.0694,-0.1746 0.0771,-0.2699zM287.11915,181.8108c-0.0551,0.1069 -0.1266,0.2013 -0.2143,0.2825l-0.1359,-0.1468c0.0705,-0.0652 0.1279,-0.1409 0.1724,-0.2273zM286.90465,182.0934c-0.0852,0.0786 -0.1832,0.1406 -0.2934,0.186l-0.0761,-0.185c0.089,-0.0367 0.1668,-0.086 0.2339,-0.148zM286.61125,182.2794c-0.1121,0.0461 -0.2305,0.069 -0.3545,0.069v-0.2c0.0987,0 0.1912,-0.0181 0.2784,-0.054zM286.25675,182.3484h-1.5512v-0.2h1.5512zM284.70555,182.3484c-0.1301,0 -0.2545,-0.0244 -0.3725,-0.0736l0.0769,-0.1846c0.093,0.0387 0.1912,0.0582 0.2956,0.0582zM284.33095,182.2739c-0.1156,-0.0514 -0.2177,-0.1193 -0.3056,-0.2039l0.1387,-0.1441c0.0703,0.0677 0.1527,0.1228 0.2481,0.1652zM284.02265,182.0673c-0.0847,-0.0879 -0.1526,-0.1901 -0.2039,-0.3056l0.1827,-0.0812c0.0424,0.0953 0.0976,0.1778 0.1653,0.2481zM283.81775,181.7595c-0.0492,-0.1182 -0.0736,-0.2442 -0.0736,-0.3768h0.2c0,0.1076 0.0197,0.2072 0.0583,0.2999zM283.74415,181.3827v-3.81446h0.2v3.81446z" fill="#000000"/></g></g></svg>