<svg version="1.1" xmlns="http://www.w3.org/2000/svg" xmlns:xlink="http://www.w3.org/1999/xlink" width="103.74796" height="17.19141" viewBox="0,0,103.74796,17.19141"><g transform="translate(-242.15167,-171.4043)"><g data-paper-data="{&quot;isPaintingLayer&quot;:true}" fill="#83a837" fill-rule="nonzero" stroke="none" stroke-width="1" stroke-linecap="butt" stroke-linejoin="miter" stroke-miterlimit="10" stroke-dasharray="" stroke-dashoffset="0" style="mix-blend-mode: normal"><path d="M252.60118,176.1264c0,1.84458 -0.78702,2.89597 -2.36105,3.15422l2.49016,5.34926h-2.09359l-2.45327,-5.2847h-4.14107v5.2847h-1.89069v-13.22558h7.23995c2.1397,0 3.20956,1.07292 3.20956,3.21877zM244.04236,177.45448h5.24781c0.50419,0 0.86696,-0.11067 1.08831,-0.33202c0.22133,-0.22135 0.33202,-0.58411 0.33202,-1.08829v-1.31887c0,-0.50419 -0.11069,-0.86696 -0.33202,-1.08831c-0.22135,-0.22133 -0.58411,-0.33202 -1.08831,-0.33202h-5.24781zM263.88994,180.6456h-6.5021v2.16738h6.5021v1.8169h-6.5021c-0.24595,0 -0.4796,-0.04611 -0.70093,-0.13835c-0.22135,-0.09837 -0.41504,-0.2275 -0.58105,-0.38736c-0.15986,-0.16601 -0.28899,-0.3597 -0.38736,-0.58103c-0.09224,-0.22135 -0.13835,-0.45809 -0.13835,-0.71016v-6.18853c0,-0.2521 0.04611,-0.48881 0.13835,-0.71016c0.09837,-0.22135 0.2275,-0.41196 0.38736,-0.57182c0.16601,-0.16601 0.3597,-0.29514 0.58105,-0.38736c0.22133,-0.09839 0.45498,-0.14758 0.70093,-0.14758h4.68525c0.25206,0 0.48879,0.04919 0.7102,0.14758c0.2212,0.09222 0.41177,0.22135 0.57169,0.38736c0.16601,0.15986 0.29508,0.35046 0.38742,0.57182c0.09843,0.22135 0.14754,0.45806 0.14754,0.71016zM257.38784,176.62444v2.20426h4.68525v-2.20426zM275.6123,182.81298c0,0.25208 -0.04932,0.48881 -0.14775,0.71016c-0.09213,0.22133 -0.2212,0.41502 -0.38721,0.58103c-0.15992,0.15986 -0.35048,0.28899 -0.5719,0.38736c-0.22141,0.09224 -0.45815,0.13835 -0.7102,0.13835h-5.06335v3.96583h-1.80762v-13.78818h1.80762v1.66012c0.01847,-0.23365 0.07996,-0.44885 0.18448,-0.64561c0.10452,-0.2029 0.23673,-0.37812 0.39666,-0.52571c0.15992,-0.15371 0.3444,-0.27361 0.55343,-0.35968c0.21512,-0.08609 0.44262,-0.12913 0.6825,-0.12913h3.24629c0.25206,0 0.48879,0.04919 0.7102,0.14758c0.22141,0.09222 0.41198,0.22135 0.5719,0.38736c0.16601,0.15986 0.29508,0.35046 0.38721,0.57182c0.09843,0.22135 0.14775,0.45806 0.14775,0.71016zM273.79523,182.81298v-6.18853h-5.06335v6.18853zM284.4846,173.29498c0,-0.25825 0.04911,-0.50111 0.14754,-0.72861c0.09843,-0.23363 0.23359,-0.43347 0.40589,-0.59948c0.17209,-0.17216 0.37189,-0.30742 0.59939,-0.40581c0.23359,-0.10452 0.47956,-0.15679 0.73791,-0.15679h7.17529c0.25835,0 0.50117,0.05226 0.72867,0.15679c0.23359,0.09839 0.43653,0.23365 0.60863,0.40581c0.1723,0.16601 0.30746,0.36585 0.40589,0.59948c0.09843,0.2275 0.14754,0.47036 0.14754,0.72861v1.70623h-1.89073v-1.70623h-7.17529v9.4442h7.17529v-1.697h1.89073v1.697c0,0.25825 -0.04911,0.50419 -0.14754,0.73782c-0.09843,0.2275 -0.23359,0.42734 -0.40589,0.5995c-0.17209,0.17216 -0.37504,0.30742 -0.60863,0.40581c-0.2275,0.09837 -0.47032,0.14756 -0.72867,0.14756h-7.17529c-0.25835,0 -0.50432,-0.04919 -0.73791,-0.14756c-0.2275,-0.09839 -0.4273,-0.23365 -0.59939,-0.40581c-0.1723,-0.17216 -0.30746,-0.372 -0.40589,-0.5995c-0.09843,-0.23363 -0.14754,-0.47958 -0.14754,-0.73782zM306.77628,182.81298c0,0.25208 -0.04932,0.48881 -0.14754,0.71016c-0.09234,0.22133 -0.22141,0.41502 -0.38742,0.58103c-0.15992,0.15986 -0.35048,0.28899 -0.5719,0.38736c-0.21512,0.09224 -0.4487,0.13835 -0.70097,0.13835h-4.87888c-0.24576,0 -0.47956,-0.04611 -0.70076,-0.13835c-0.22141,-0.09837 -0.41513,-0.2275 -0.58113,-0.38736c-0.15992,-0.16601 -0.28899,-0.3597 -0.38742,-0.58103c-0.09213,-0.22135 -0.13831,-0.45809 -0.13831,-0.71016v-6.18853c0,-0.2521 0.04617,-0.48881 0.13831,-0.71016c0.09843,-0.22135 0.2275,-0.41196 0.38742,-0.57182c0.16601,-0.16601 0.35972,-0.29514 0.58113,-0.38736c0.2212,-0.09839 0.455,-0.14758 0.70076,-0.14758h4.87888c0.25227,0 0.48585,0.04919 0.70097,0.14758c0.22141,0.09222 0.41198,0.22135 0.5719,0.38736c0.16601,0.15986 0.29508,0.35046 0.38742,0.57182c0.09822,0.22135 0.14754,0.45806 0.14754,0.71016zM300.08957,176.62444v6.18853h4.87888v-6.18853zM309.8106,174.80752h1.80762v8.00545h5.06335v-8.00545h1.81685v9.82235h-1.81685v-1.66012c-0.01847,0.2275 -0.07996,0.4427 -0.18448,0.64561c-0.10452,0.2029 -0.23967,0.38121 -0.40568,0.53492c-0.15992,0.14758 -0.3444,0.2644 -0.55343,0.35048c-0.20903,0.08607 -0.43045,0.12911 -0.66403,0.12911h-3.25573c-0.24597,0 -0.47956,-0.04611 -0.70097,-0.13835c-0.2212,-0.09837 -0.41492,-0.2275 -0.58092,-0.38736c-0.15992,-0.16601 -0.28899,-0.3597 -0.38742,-0.58103c-0.09234,-0.22135 -0.13831,-0.45809 -0.13831,-0.71016zM330.21155,184.62987h-1.81685v-8.00543h-5.06335v8.00543h-1.80783v-9.82235h1.80783v1.73391c0.01217,-0.2398 0.06758,-0.46424 0.16601,-0.67327c0.09822,-0.2152 0.2275,-0.39966 0.38721,-0.55339c0.16601,-0.15986 0.35678,-0.28282 0.5719,-0.36891c0.21512,-0.09222 0.44577,-0.13835 0.69174,-0.13835h3.2465c0.25206,0 0.48879,0.04919 0.70999,0.14758c0.22141,0.09222 0.41198,0.22135 0.5719,0.38736c0.16601,0.15986 0.29508,0.35046 0.38742,0.57182c0.09822,0.22135 0.14754,0.45806 0.14754,0.71016zM332.66473,174.80752h2.39799v-3.02508h1.81685v3.02508h3.22803v1.81692h-3.22803v6.18853h3.22803v1.8169h-3.22803c-0.24597,0 -0.47956,-0.04611 -0.70097,-0.13835c-0.2212,-0.09837 -0.41492,-0.2275 -0.58092,-0.38736c-0.16601,-0.16601 -0.29823,-0.3597 -0.39666,-0.58103c-0.09213,-0.22135 -0.13831,-0.45809 -0.13831,-0.71016v-6.18853h-2.39799zM343.14192,181.87225h2.75771v2.75762h-2.75771zM343.14192,174.80752h2.75771v2.75764h-2.75771z"/></g></g></svg>