<svg version="1.1" xmlns="http://www.w3.org/2000/svg" xmlns:xlink="http://www.w3.org/1999/xlink" width="5.09961" height="7.79981" viewBox="0,0,5.09961,7.79981"><g transform="translate(-237.45019,-174.70876)"><g data-paper-data="{&quot;isPaintingLayer&quot;:true}" fill="#ffffff" fill-rule="nonzero" stroke="#ffffff" stroke-width="0.5" stroke-linecap="butt" stroke-linejoin="miter" stroke-miterlimit="10" stroke-dasharray="" stroke-dashoffset="0" style="mix-blend-mode: normal"><path d="M237.7002,175.92068c0,-0.13346 0.02441,-0.25879 0.07324,-0.37598c0.05208,-0.11719 0.12044,-0.2181 0.20508,-0.30273c0.08789,-0.08789 0.19043,-0.15625 0.30762,-0.20508c0.11719,-0.05208 0.24088,-0.07812 0.37109,-0.07812h1.72364c0.12695,0 0.24739,0.02441 0.36132,0.07324c0.11394,0.04557 0.21322,0.11068 0.29785,0.19531c0.0879,0.08138 0.15788,0.17904 0.20997,0.29297c0.05533,0.11068 0.08463,0.22949 0.08789,0.35644v-0.91797h0.96191v6.3379c0,0.13346 -0.02604,0.25878 -0.07812,0.37597c-0.04883,0.11719 -0.11719,0.2181 -0.20508,0.30274c-0.08464,0.08789 -0.18555,0.15625 -0.30274,0.20507c-0.11718,0.05209 -0.24251,0.07813 -0.37597,0.07813h-3.03711v-0.96191h3.03711v-1.3379h-2.68067c-0.13021,0 -0.2539,-0.02441 -0.37109,-0.07324c-0.11719,-0.05208 -0.21973,-0.12044 -0.30762,-0.20508c-0.08463,-0.08789 -0.15299,-0.19043 -0.20508,-0.30761c-0.04883,-0.11719 -0.07324,-0.24252 -0.07324,-0.37598zM241.3379,178.99685v-3.07617h-2.68067v3.07617z"/></g></g></svg>