<svg version="1.1" xmlns="http://www.w3.org/2000/svg" xmlns:xlink="http://www.w3.org/1999/xlink" width="137.80201" height="21.31495" viewBox="0,0,137.80201,21.31495"><g transform="translate(-177.14402,-169.34254)"><g data-paper-data="{&quot;isPaintingLayer&quot;:true}" fill-rule="nonzero" stroke-linecap="butt" stroke-linejoin="miter" stroke-miterlimit="10" stroke-dasharray="" stroke-dashoffset="0" style="mix-blend-mode: normal"><path d="M314.57267,177.86852c0.2842,0.78155 0.4263,1.56309 0.35525,2.48675c0,2.06045 -0.78155,3.97879 -2.20255,5.39979c-1.42099,1.42099 -3.33934,2.20255 -5.32873,2.20255h-8.31282v2.69989l-8.24177,-4.83138l8.24177,-4.68928v2.69989h8.31282c1.8473,0 3.41039,-1.56309 3.41039,-3.48144v-0.2842l3.76564,-2.20255" fill="#acacac" stroke="none" stroke-width="1"/><path d="M293.54195,179.64476c0,0.1421 0,0.21315 0.07105,0.2842l-3.76564,2.20255c-0.2842,-0.78155 -0.4263,-1.63414 -0.4263,-2.48675c0,-2.06045 0.78155,-3.97879 2.20255,-5.39979c1.42099,-1.42099 3.33934,-2.20255 5.32873,-2.20255h8.38387v-2.69989l8.24177,4.83138l-8.24177,4.68928v-2.69989h-8.38387c-1.8473,0 -3.41039,1.56309 -3.41039,3.48144" fill="#acacac" stroke="none" stroke-width="1"/><path d="M177.39402,173.22283c0,-0.13672 0.02604,-0.2653 0.07812,-0.38574c0.05208,-0.1237 0.1237,-0.22949 0.21484,-0.31738c0.09115,-0.09115 0.19694,-0.16276 0.31739,-0.21485c0.1237,-0.05533 0.2539,-0.083 0.39062,-0.083h3.79883c0.13672,0 0.2653,0.02767 0.38574,0.083c0.1237,0.05209 0.23112,0.1237 0.32227,0.21485c0.09114,0.08789 0.16276,0.19368 0.21484,0.31738c0.05209,0.12044 0.07813,0.24902 0.07813,0.38574v0.90332h-1.00098v-0.90332h-3.79883v5h3.79883v-0.89843h1.00098v0.89843c0,0.13672 -0.02604,0.26693 -0.07813,0.39063c-0.05208,0.12044 -0.1237,0.22624 -0.21484,0.31738c-0.09115,0.09115 -0.19857,0.16276 -0.32227,0.21485c-0.12044,0.05208 -0.24902,0.07812 -0.38574,0.07812h-3.79883c-0.13672,0 -0.26692,-0.02604 -0.39062,-0.07812c-0.12045,-0.05209 -0.22624,-0.1237 -0.31739,-0.21485c-0.09114,-0.09114 -0.16276,-0.19694 -0.21484,-0.31738c-0.05208,-0.1237 -0.07812,-0.25391 -0.07812,-0.39063zM185.70945,174.02361v5.2002h-0.96192v-5.2002zM184.6987,172.02165h1.05957v1.00098h-1.05957zM188.32178,174.98553v4.23828h-0.9571v-5.2002h0.9571v0.91797c0.0065,-0.12695 0.0358,-0.24576 0.0879,-0.35644c0.052,-0.11393 0.1204,-0.21159 0.205,-0.29297c0.0879,-0.08464 0.1888,-0.14974 0.3028,-0.19531c0.1139,-0.04883 0.236,-0.07325 0.3662,-0.07325h1.0205c0.1335,0 0.2572,0.02605 0.3711,0.07813c0.1172,0.04883 0.2197,0.11719 0.3076,0.20508c0.0879,0.08463 0.1563,0.18554 0.2051,0.30273c0.0521,0.11719 0.0781,0.24252 0.0781,0.37598v0.8789h-0.9619v-0.8789zM193.41938,174.98553v3.27637h2.4805v-0.87891h0.9619v0.87891c0,0.13346 -0.026,0.25879 -0.0781,0.37597c-0.0488,0.11719 -0.1172,0.21973 -0.2051,0.30762c-0.0846,0.08464 -0.1855,0.15299 -0.3027,0.20508c-0.1172,0.04883 -0.2425,0.07324 -0.376,0.07324h-2.4805c-0.1302,0 -0.2539,-0.02441 -0.3711,-0.07324c-0.1172,-0.05209 -0.2197,-0.12044 -0.3076,-0.20508c-0.0846,-0.08789 -0.153,-0.19043 -0.2051,-0.30762c-0.0488,-0.11718 -0.0732,-0.24251 -0.0732,-0.37597v-3.27637c0,-0.13346 0.0244,-0.25879 0.0732,-0.37598c0.0521,-0.11719 0.1205,-0.2181 0.2051,-0.30273c0.0879,-0.08789 0.1904,-0.15625 0.3076,-0.20508c0.1172,-0.05208 0.2409,-0.07813 0.3711,-0.07813h2.4805c0.1335,0 0.2588,0.02605 0.376,0.07813c0.1172,0.04883 0.2181,0.11719 0.3027,0.20508c0.0879,0.08463 0.1563,0.18554 0.2051,0.30273c0.0521,0.11719 0.0781,0.24252 0.0781,0.37598v0.8789h-0.9619v-0.8789zM198.46828,174.02361h0.957v4.23829h2.6807v-4.23829h0.9619v5.2002h-0.9619v-0.87891c-0.0098,0.12045 -0.0424,0.23438 -0.0977,0.3418c-0.0553,0.10742 -0.127,0.20182 -0.2149,0.2832c-0.0846,0.07813 -0.1822,0.13998 -0.2929,0.18555c-0.1107,0.04557 -0.2279,0.06836 -0.3516,0.06836h-1.7236c-0.1302,0 -0.2539,-0.02441 -0.3711,-0.07324c-0.1172,-0.05209 -0.2197,-0.12044 -0.3076,-0.20508c-0.0847,-0.08789 -0.153,-0.19043 -0.2051,-0.30762c-0.0488,-0.11718 -0.0732,-0.24251 -0.0732,-0.37597zM205.68018,174.02361v5.2002h-0.9619v-5.2002zM204.66938,172.02165h1.0596v1.00098h-1.0596zM207.03268,174.02361h1.2695v-1.60156h0.962v1.60156h1.7089v0.96192h-1.7089v3.27637h1.7089v0.96191h-1.7089c-0.1303,0 -0.254,-0.02441 -0.3711,-0.07324c-0.1172,-0.05209 -0.2198,-0.12044 -0.3077,-0.20508c-0.0878,-0.08789 -0.1578,-0.19043 -0.2099,-0.30762c-0.0488,-0.11718 -0.0733,-0.24251 -0.0733,-0.37597v-3.27637h-1.2695z" fill="#87bf3d" stroke="#87bf3d" stroke-width="0.5"/><path d="M181.68396,183.27298c0,0.75614 -0.32262,1.1872 -0.96785,1.29305l1.02078,2.19277h-0.85821l-1.00566,-2.16633h-1.69752v2.16633h-0.77503v-5.42152h2.96783c0.87712,0 1.31567,0.4399 1.31567,1.31949zM178.17548,183.8174h2.15121c0.20668,0 0.35538,-0.04535 0.44612,-0.13605c0.09073,-0.09081 0.13611,-0.23947 0.13611,-0.4461v-0.54067c0,-0.20673 -0.04537,-0.3554 -0.13611,-0.4461c-0.09073,-0.09081 -0.23944,-0.13616 -0.44612,-0.13616h-2.15121zM186.3115,185.12551h-2.66537v0.88854h2.66537v0.74475h-2.66537c-0.10082,0 -0.1966,-0.01891 -0.28734,-0.05674c-0.09073,-0.04026 -0.17013,-0.09325 -0.23818,-0.15873c-0.06554,-0.06803 -0.11847,-0.14745 -0.15879,-0.23826c-0.03781,-0.0907 -0.05671,-0.18771 -0.05671,-0.29102v-2.53688c0,-0.10331 0.0189,-0.20032 0.05671,-0.29113c0.04033,-0.0907 0.09326,-0.16879 0.15879,-0.23439c0.06805,-0.06803 0.14745,-0.12101 0.23818,-0.15873c0.09073,-0.04037 0.18651,-0.0605 0.28734,-0.0605h1.92057c0.10334,0 0.20038,0.02013 0.29112,0.0605c0.09073,0.03772 0.16887,0.0907 0.2344,0.15873c0.06805,0.06559 0.12099,0.14368 0.15879,0.23439c0.04032,0.09081 0.06048,0.18782 0.06048,0.29113zM183.64613,183.47717v0.90359h1.92057v-0.90359zM191.11671,186.01404c0,0.10331 -0.02013,0.20032 -0.0605,0.29102c-0.03772,0.09081 -0.0907,0.17023 -0.15873,0.23826c-0.06559,0.06548 -0.14368,0.11847 -0.23439,0.15873c-0.09081,0.03783 -0.18782,0.05674 -0.29113,0.05674h-2.07563v1.62566h-0.74099v-5.65204h0.74099v0.68048c0.00763,-0.09579 0.03274,-0.18395 0.07566,-0.26469c0.04281,-0.08318 0.09701,-0.15497 0.16249,-0.21547c0.06559,-0.06305 0.14125,-0.11216 0.22686,-0.14745c0.08827,-0.03529 0.18151,-0.05287 0.27985,-0.05287h1.33077c0.10331,0 0.20032,0.02013 0.29113,0.0605c0.0907,0.03772 0.16879,0.0907 0.23439,0.15873c0.06803,0.06559 0.12101,0.14368 0.15873,0.23439c0.04037,0.09081 0.0605,0.18782 0.0605,0.29113zM190.37196,186.01404v-2.53688h-2.07563v2.53688zM195.76318,185.12551h-2.66541v0.88854h2.66541v0.74475h-2.66541c-0.10077,0 -0.19656,-0.01891 -0.28726,-0.05674c-0.09081,-0.04026 -0.17012,-0.09325 -0.23826,-0.15873c-0.06548,-0.06803 -0.11847,-0.14745 -0.15873,-0.23826c-0.03783,-0.0907 -0.05674,-0.18771 -0.05674,-0.29102v-2.53688c0,-0.10331 0.01891,-0.20032 0.05674,-0.29113c0.04026,-0.0907 0.09325,-0.16879 0.15873,-0.23439c0.06814,-0.06803 0.14745,-0.12101 0.23826,-0.15873c0.0907,-0.04037 0.18649,-0.0605 0.28726,-0.0605h1.92066c0.10331,0 0.20032,0.02013 0.29102,0.0605c0.09081,0.03772 0.1689,0.0907 0.2345,0.15873c0.06803,0.06559 0.1209,0.14368 0.15873,0.23439c0.04037,0.09081 0.0605,0.18782 0.0605,0.29113zM193.09777,183.47717v0.90359h1.92066v-0.90359zM197.00701,185.00074c0,-0.10331 0.01891,-0.1991 0.05674,-0.28726c0.04026,-0.09081 0.09325,-0.17012 0.15873,-0.23826c0.06814,-0.06803 0.14745,-0.1209 0.23826,-0.15873c0.0907,-0.04037 0.18649,-0.0605 0.28726,-0.0605h1.92066v-0.77882h-2.43102v-0.74475h2.43102c0.10331,0 0.20032,0.02013 0.29113,0.0605c0.0907,0.03772 0.16879,0.0907 0.23439,0.15873c0.06803,0.06559 0.1209,0.14368 0.15873,0.23439c0.04037,0.09081 0.0605,0.18782 0.0605,0.29113v3.28163h-0.74475v-0.68048c-0.00763,0.09325 -0.03285,0.1814 -0.07566,0.26458c-0.04281,0.08318 -0.09833,0.15629 -0.16636,0.21934c-0.06548,0.0605 -0.14114,0.10829 -0.22686,0.14357c-0.08561,0.03529 -0.17643,0.05298 -0.27222,0.05298h-1.17956c-0.10077,0 -0.19656,-0.01891 -0.28726,-0.05674c-0.09081,-0.04026 -0.17012,-0.09325 -0.23826,-0.15873c-0.06548,-0.06803 -0.11847,-0.14745 -0.15873,-0.23826c-0.03783,-0.0907 -0.05674,-0.18771 -0.05674,-0.29102zM197.74799,186.01404h1.92066v-1.01331h-1.92066zM201.42285,182.73242h0.98301v-1.24007h0.74475v1.24007h1.32325v0.74475h-1.32325v2.53688h1.32325v0.74475h-1.32325c-0.10077,0 -0.19656,-0.01891 -0.28726,-0.05674c-0.09081,-0.04026 -0.17023,-0.09325 -0.23826,-0.15873c-0.06803,-0.06803 -0.12223,-0.14745 -0.1626,-0.23826c-0.03772,-0.0907 -0.05663,-0.18771 -0.05663,-0.29102v-2.53688h-0.98301zM209.19974,186.7588l-1.55011,-5.42152h0.77506l1.20224,4.31375l1.19848,-4.31375h0.77506l1.19848,4.31375l1.20224,-4.31375h0.77506l-1.55011,5.42152h-0.8506l-1.16076,-4.06421l-1.16441,4.06421zM218.87826,186.01404c0,0.10331 -0.02024,0.20032 -0.0605,0.29102c-0.03783,0.09081 -0.09081,0.17023 -0.15884,0.23826c-0.06548,0.06548 -0.14368,0.11847 -0.23439,0.15873c-0.08816,0.03783 -0.18395,0.05674 -0.28737,0.05674h-1.99997c-0.10077,0 -0.19656,-0.01891 -0.28726,-0.05674c-0.09081,-0.04026 -0.17012,-0.09325 -0.23826,-0.15873c-0.06548,-0.06803 -0.11847,-0.14745 -0.15873,-0.23826c-0.03783,-0.0907 -0.05674,-0.18771 -0.05674,-0.29102v-2.53688c0,-0.10331 0.01891,-0.20032 0.05674,-0.29113c0.04026,-0.0907 0.09325,-0.16879 0.15873,-0.23439c0.06814,-0.06803 0.14745,-0.12101 0.23826,-0.15873c0.0907,-0.04037 0.18649,-0.0605 0.28726,-0.0605h1.99997c0.10342,0 0.19921,0.02013 0.28737,0.0605c0.0907,0.03772 0.1689,0.0907 0.23439,0.15873c0.06803,0.06559 0.12101,0.14368 0.15884,0.23439c0.04026,0.09081 0.0605,0.18782 0.0605,0.29113zM216.13719,183.47717v2.53688h1.99997v-2.53688zM220.86308,183.47717v3.28163h-0.74099v-4.02638h0.74099v0.71068c0.00509,-0.09822 0.02776,-0.19025 0.06803,-0.27598c0.04037,-0.08816 0.09325,-0.16382 0.15884,-0.22675c0.06803,-0.06559 0.14612,-0.11603 0.23439,-0.15132c0.08816,-0.03772 0.18273,-0.05663 0.2835,-0.05663h0.79021c0.10331,0 0.1991,0.02013 0.28737,0.0605c0.0907,0.03772 0.17012,0.0907 0.23815,0.15873c0.06803,0.06559 0.12101,0.14368 0.15873,0.23439c0.04037,0.09081 0.0605,0.18782 0.0605,0.29113v0.68048h-0.74475v-0.68048zM226.7307,186.7588l-1.92055,-1.72023v1.72023h-0.7411v-5.57649h0.7411v3.13794l1.76558,-1.58783h1.04716l-2.16246,1.94323l2.31754,2.08315zM231.80059,186.01404c0,0.10331 -0.02013,0.20032 -0.0605,0.29102c-0.03783,0.09081 -0.0907,0.17023 -0.15884,0.23826c-0.06548,0.06548 -0.14357,0.11847 -0.23439,0.15873c-0.08816,0.03783 -0.18395,0.05674 -0.28726,0.05674h-1.99997c-0.10088,0 -0.19667,-0.01891 -0.28737,-0.05674c-0.0907,-0.04026 -0.17012,-0.09325 -0.23815,-0.15873c-0.06559,-0.06803 -0.11847,-0.14745 -0.15884,-0.23826c-0.03783,-0.0907 -0.05674,-0.18771 -0.05674,-0.29102v-2.53688c0,-0.10331 0.01891,-0.20032 0.05674,-0.29113c0.04037,-0.0907 0.09325,-0.16879 0.15884,-0.23439c0.06803,-0.06803 0.14745,-0.12101 0.23815,-0.15873c0.0907,-0.04037 0.18649,-0.0605 0.28737,-0.0605h1.99997c0.10331,0 0.1991,0.02013 0.28726,0.0605c0.09081,0.03772 0.1689,0.0907 0.23439,0.15873c0.06814,0.06559 0.12101,0.14368 0.15884,0.23439c0.04037,0.09081 0.0605,0.18782 0.0605,0.29113zM229.05963,183.47717v2.53688h1.99997v-2.53688zM233.04441,182.73242h0.74099v3.28163h2.07563v-3.28163h0.74475v4.02638h-0.74475v-0.68048c-0.00763,0.09325 -0.03274,0.1814 -0.07566,0.26458c-0.04281,0.08318 -0.09822,0.15629 -0.16636,0.21934c-0.06548,0.0605 -0.14114,0.10829 -0.22675,0.14357c-0.08572,0.03529 -0.17654,0.05298 -0.27222,0.05298h-1.33464c-0.10077,0 -0.19656,-0.01891 -0.28726,-0.05674c-0.09081,-0.04026 -0.17023,-0.09325 -0.23826,-0.15873c-0.06548,-0.06803 -0.11847,-0.14745 -0.15873,-0.23826c-0.03783,-0.0907 -0.05674,-0.18771 -0.05674,-0.29102zM237.61146,182.73242h0.98301v-1.24007h0.74475v1.24007h1.32325v0.74475h-1.32325v2.53688h1.32325v0.74475h-1.32325c-0.10077,0 -0.19656,-0.01891 -0.28737,-0.05674c-0.0907,-0.04026 -0.17012,-0.09325 -0.23815,-0.15873c-0.06803,-0.06803 -0.12223,-0.14745 -0.1626,-0.23826c-0.03772,-0.0907 -0.05663,-0.18771 -0.05663,-0.29102v-2.53688h-0.98301zM244.33732,186.01404v-0.93389h-1.76558c-0.10331,0 -0.20043,-0.01891 -0.29113,-0.05663c-0.0907,-0.04037 -0.17012,-0.09336 -0.23815,-0.15884c-0.06559,-0.06803 -0.11847,-0.14745 -0.15884,-0.23815c-0.03783,-0.09081 -0.05674,-0.18782 -0.05674,-0.29113v-0.85824c0,-0.10331 0.01891,-0.20032 0.05674,-0.29113c0.04037,-0.0907 0.09325,-0.16879 0.15884,-0.23439c0.06803,-0.06803 0.14745,-0.12101 0.23815,-0.15873c0.0907,-0.04037 0.18782,-0.0605 0.29113,-0.0605h2.35537v0.74475h-2.35537v0.85824h1.76558c0.10331,0 0.1991,0.02013 0.28726,0.0605c0.09081,0.03772 0.17012,0.0907 0.23826,0.15873c0.06803,0.06559 0.1209,0.14368 0.15873,0.23439c0.04037,0.09081 0.0605,0.18782 0.0605,0.29113v0.93389c0,0.10331 -0.02013,0.20032 -0.0605,0.29102c-0.03783,0.09081 -0.0907,0.17023 -0.15873,0.23826c-0.06814,0.06548 -0.14745,0.11847 -0.23826,0.15873c-0.08816,0.03783 -0.18395,0.05674 -0.28726,0.05674h-2.51044v-0.74475zM249.35046,182.73242v4.02638h-0.74475v-4.02638zM248.56788,181.18231h0.82041v0.77506h-0.82041zM254.19348,186.7588h-0.74475v-3.28163h-2.07563v3.28163h-0.74099v-4.02638h0.74099v0.71068c0.00509,-0.09822 0.02776,-0.19025 0.06803,-0.27598c0.04037,-0.08816 0.09325,-0.16382 0.15884,-0.22675c0.06803,-0.06559 0.14612,-0.11603 0.23439,-0.15132c0.08827,-0.03772 0.18273,-0.05663 0.2835,-0.05663h1.33088c0.10331,0 0.20032,0.02013 0.29113,0.0605c0.0907,0.03772 0.16879,0.0907 0.23439,0.15873c0.06803,0.06559 0.1209,0.14368 0.15873,0.23439c0.04037,0.09081 0.0605,0.18782 0.0605,0.29113zM257.75485,185.00074c0,-0.10331 0.01891,-0.1991 0.05674,-0.28726c0.04037,-0.09081 0.09325,-0.17012 0.15884,-0.23826c0.06803,-0.06803 0.14745,-0.1209 0.23815,-0.15873c0.0907,-0.04037 0.18649,-0.0605 0.28737,-0.0605h1.92055v-0.77882h-2.43102v-0.74475h2.43102c0.10331,0 0.20032,0.02013 0.29113,0.0605c0.0907,0.03772 0.16879,0.0907 0.23439,0.15873c0.06803,0.06559 0.12101,0.14368 0.15873,0.23439c0.04037,0.09081 0.0605,0.18782 0.0605,0.29113v3.28163h-0.74475v-0.68048c-0.00752,0.09325 -0.03274,0.1814 -0.07566,0.26458c-0.04281,0.08318 -0.09822,0.15629 -0.16636,0.21934c-0.06548,0.0605 -0.14114,0.10829 -0.22675,0.14357c-0.08572,0.03529 -0.17643,0.05298 -0.27222,0.05298h-1.17956c-0.10088,0 -0.19667,-0.01891 -0.28737,-0.05674c-0.0907,-0.04026 -0.17012,-0.09325 -0.23815,-0.15873c-0.06559,-0.06803 -0.11847,-0.14745 -0.15884,-0.23826c-0.03783,-0.0907 -0.05674,-0.18771 -0.05674,-0.29102zM258.49595,186.01404h1.92055v-1.01331h-1.92055zM264.80203,182.11233c0,-0.10586 0.02024,-0.20541 0.0605,-0.29865c0.04037,-0.09579 0.09579,-0.17764 0.16636,-0.24578c0.07057,-0.07057 0.15253,-0.12599 0.24578,-0.16636c0.09579,-0.04281 0.19656,-0.06427 0.30241,-0.06427h2.94139c0.10586,0 0.20541,0.02146 0.29865,0.06427c0.09579,0.04037 0.17897,0.09579 0.24954,0.16636c0.07057,0.06814 0.12599,0.14999 0.16636,0.24578c0.04037,0.09325 0.0605,0.1928 0.0605,0.29865v0.6994h-0.77506v-0.6994h-2.94139v3.87141h2.94139v-0.69564h0.77506v0.69564c0,0.10586 -0.02013,0.20673 -0.0605,0.30252c-0.04037,0.09325 -0.09579,0.1751 -0.16636,0.24567c-0.07057,0.07057 -0.15375,0.1261 -0.24954,0.16636c-0.09325,0.04037 -0.1928,0.0605 -0.29865,0.0605h-2.94139c-0.10586,0 -0.20662,-0.02013 -0.30241,-0.0605c-0.09325,-0.04026 -0.17521,-0.09579 -0.24578,-0.16636c-0.07057,-0.07057 -0.12599,-0.15242 -0.16636,-0.24567c-0.04026,-0.09579 -0.0605,-0.19667 -0.0605,-0.30252zM270.73016,188.38446l0.84308,-1.98858l-1.58031,-3.66346h0.78258l1.1758,2.77116l1.1758,-2.77116h0.78258l-2.43855,5.65204zM275.42574,183.47717v2.53688h1.92066v-0.68059h0.74475v0.68059c0,0.10331 -0.02013,0.20032 -0.0605,0.29102c-0.03783,0.09081 -0.0907,0.17023 -0.15873,0.23826c-0.06559,0.06548 -0.14368,0.11847 -0.2345,0.15873c-0.0907,0.03783 -0.18771,0.05674 -0.29102,0.05674h-1.92066c-0.10077,0 -0.19656,-0.01891 -0.28726,-0.05674c-0.09081,-0.04026 -0.17012,-0.09325 -0.23826,-0.15873c-0.06548,-0.06803 -0.11847,-0.14745 -0.15873,-0.23826c-0.03783,-0.0907 -0.05674,-0.18771 -0.05674,-0.29102v-2.53688c0,-0.10331 0.01891,-0.20032 0.05674,-0.29113c0.04026,-0.0907 0.09325,-0.16879 0.15873,-0.23439c0.06814,-0.06803 0.14745,-0.12101 0.23826,-0.15873c0.0907,-0.04037 0.18649,-0.0605 0.28726,-0.0605h1.92066c0.10331,0 0.20032,0.02013 0.29102,0.0605c0.09081,0.03772 0.1689,0.0907 0.2345,0.15873c0.06803,0.06559 0.1209,0.14368 0.15873,0.23439c0.04037,0.09081 0.0605,0.18782 0.0605,0.29113v0.68048h-0.74475v-0.68048zM280.07596,181.18231v5.57649h-0.74099v-5.57649zM284.72243,185.12551h-2.66541v0.88854h2.66541v0.74475h-2.66541c-0.10077,0 -0.19656,-0.01891 -0.28726,-0.05674c-0.09081,-0.04026 -0.17012,-0.09325 -0.23826,-0.15873c-0.06548,-0.06803 -0.11847,-0.14745 -0.15873,-0.23826c-0.03783,-0.0907 -0.05674,-0.18771 -0.05674,-0.29102v-2.53688c0,-0.10331 0.01891,-0.20032 0.05674,-0.29113c0.04026,-0.0907 0.09325,-0.16879 0.15873,-0.23439c0.06814,-0.06803 0.14745,-0.12101 0.23826,-0.15873c0.0907,-0.04037 0.18649,-0.0605 0.28726,-0.0605h1.92066c0.10331,0 0.20032,0.02013 0.29113,0.0605c0.0907,0.03772 0.16879,0.0907 0.23439,0.15873c0.06803,0.06559 0.1209,0.14368 0.15873,0.23439c0.04037,0.09081 0.0605,0.18782 0.0605,0.29113zM282.05702,183.47717v0.90359h1.92066v-0.90359z" fill="#86ca47" stroke="none" stroke-width="1"/></g></g></svg>