<svg version="1.1" xmlns="http://www.w3.org/2000/svg" xmlns:xlink="http://www.w3.org/1999/xlink" width="193.22504" height="96.89251" viewBox="0,0,193.22504,96.89251"><defs><linearGradient x1="240.00886" y1="176.63486" x2="240.00886" y2="195.66819" gradientUnits="userSpaceOnUse" id="color-1"><stop offset="0" stop-color="#b56e2e"/><stop offset="1" stop-color="#ff9b40"/></linearGradient></defs><g transform="translate(-143.38749,-176.63484)"><g data-paper-data="{&quot;isPaintingLayer&quot;:true}" fill-rule="nonzero" stroke-linecap="butt" stroke-linejoin="miter" stroke-miterlimit="10" stroke-dasharray="" stroke-dashoffset="0" style="mix-blend-mode: normal"><g fill="#ffae4e" stroke="none" stroke-width="1"><path d="M191.93391,254.95032c0.68267,0.21223 1.30476,0.51581 1.86625,0.91044c0.56118,0.39432 1.03908,0.90267 1.43371,1.52475c0.39432,0.60686 0.6979,1.32744 0.91044,2.16206c0.21223,0.83431 0.3185,1.79012 0.3185,2.86742v1.63879c0,5.27993 -2.63996,7.9199 -7.9199,7.9199h-17.86544v-32.63569h16.93232c5.27993,0 7.9199,2.64742 7.9199,7.94258v0.59194c0,1.8358 -0.29582,3.33786 -0.88745,4.5059c-0.57672,1.15312 -1.47938,2.01042 -2.70832,2.57191zM175.25172,257.74969v9.64942h13.15446c1.22894,0 2.1167,-0.28804 2.66296,-0.86476c0.54595,-0.57641 0.81908,-1.47938 0.81908,-2.70832v-2.52623c0,-1.24385 -0.27313,-2.14684 -0.81908,-2.70801c-0.54626,-0.56149 -1.43402,-0.84208 -2.66296,-0.84208zM175.25172,243.91224v9.28555h12.54015c1.12267,-0.04537 1.92684,-0.34895 2.4122,-0.91013c0.5009,-0.57672 0.75103,-1.4567 0.75103,-2.64027v-2.13907c0,-1.24416 -0.27313,-2.1546 -0.81908,-2.73101c-0.54626,-0.57672 -1.43402,-0.86507 -2.66296,-0.86507zM223.50006,262.14186h-16.04487v5.34829h16.04487v4.48353h-16.04487c-0.60686,0 -1.18357,-0.11373 -1.72952,-0.3415c-0.54626,-0.24268 -1.02417,-0.56118 -1.43402,-0.95581c-0.39432,-0.40955 -0.71313,-0.88745 -0.95581,-1.43371c-0.22746,-0.54626 -0.3415,-1.13044 -0.3415,-1.75252v-15.27084c0,-0.62209 0.11404,-1.20626 0.3415,-1.75252c0.24268,-0.54626 0.56149,-1.0164 0.95581,-1.41103c0.40986,-0.40955 0.88776,-0.72835 1.43402,-0.95581c0.54595,-0.24268 1.12267,-0.36418 1.72952,-0.36418h11.56135c0.62209,0 1.20626,0.12149 1.75252,0.36418c0.54595,0.22746 1.0164,0.54626 1.41103,0.95581c0.40955,0.39463 0.72804,0.86476 0.95581,1.41103c0.24268,0.54626 0.36418,1.13044 0.36418,1.75252zM207.45519,252.21931v5.43933h11.56135v-5.43933zM252.42596,271.97369h-4.48322v-19.75437h-12.49447v19.75437h-4.46084v-24.23789h4.46084v4.27876c0.03014,-0.59194 0.16686,-1.14566 0.40955,-1.66147c0.24268,-0.53104 0.56149,-0.98626 0.95581,-1.36566c0.40986,-0.39432 0.87999,-0.6979 1.41103,-0.91013c0.53104,-0.22777 1.09998,-0.3415 1.70715,-0.3415h8.01094c0.62209,0 1.20626,0.12149 1.75221,0.36418c0.54626,0.22746 1.01671,0.54626 1.41103,0.95581c0.40986,0.39463 0.72835,0.86476 0.95612,1.41103c0.24268,0.54626 0.36387,1.13044 0.36387,1.75252zM264.35147,252.21931v15.27084h11.56135v-4.09636h4.48353v4.09636c0,0.62209 -0.12118,1.20626 -0.36418,1.75252c-0.22746,0.54626 -0.54626,1.02417 -0.95581,1.43371c-0.39432,0.39463 -0.86476,0.71313 -1.41103,0.95581c-0.54626,0.22777 -1.13044,0.3415 -1.75252,0.3415h-11.56135c-0.60686,0 -1.18326,-0.11373 -1.72952,-0.3415c-0.54626,-0.24268 -1.02417,-0.56118 -1.43371,-0.95581c-0.39463,-0.40955 -0.71313,-0.88745 -0.95581,-1.43371c-0.22777,-0.54626 -0.3415,-1.13044 -0.3415,-1.75252v-15.27084c0,-0.62209 0.11373,-1.20626 0.3415,-1.75252c0.24268,-0.54626 0.56118,-1.0164 0.95581,-1.41103c0.40955,-0.40955 0.88745,-0.72835 1.43371,-0.95581c0.54626,-0.24268 1.12267,-0.36418 1.72952,-0.36418h11.56135c0.62209,0 1.20626,0.12149 1.75252,0.36418c0.54626,0.22746 1.01671,0.54626 1.41103,0.95581c0.40955,0.39463 0.72835,0.86476 0.95581,1.41103c0.24299,0.54626 0.36418,1.13044 0.36418,1.75252v4.09636h-4.48353v-4.09636zM309.32254,271.97369h-4.48353v-19.75437h-12.49447v19.75437h-4.46053v-33.56882h4.46053v13.60968c0.03045,-0.59194 0.16686,-1.14566 0.40986,-1.66147c0.24268,-0.53104 0.56118,-0.98626 0.95581,-1.36566c0.40955,-0.39432 0.87999,-0.6979 1.41103,-0.91013c0.53104,-0.22777 1.09998,-0.3415 1.70684,-0.3415h8.01094c0.62209,0 1.20626,0.12149 1.75252,0.36418c0.54626,0.22746 1.0164,0.54626 1.41103,0.95581c0.40955,0.39463 0.72835,0.86476 0.95581,1.41103c0.24268,0.54626 0.36418,1.13044 0.36418,1.75252z"/><path d="M191.47216,256.43375l-3.88164,-1.2075l3.69769,-1.68913l0.6457,1.4132zM193.93128,258.23226l-0.00964,-0.01461l1.31221,-0.83213zM170.67746,273.52734h-1.55365v-1.55365h1.55365zM169.12381,239.33799v-1.55365h1.55365v1.55365zM193.25233,251.68362l0.00373,-0.00714l1.38617,0.70194zM173.69807,257.74969v-1.55365h1.55365v1.55365zM175.25172,268.95277h-1.55365v-1.55365h1.55365zM189.9412,265.46575l1.12795,1.0686zM173.69807,243.91224v-1.55365h1.55365v1.55365zM175.25172,254.75146h-1.55365v-1.55365h1.55365zM187.85464,254.75021l-0.03138,0.00124h-0.03138v-1.55365zM189.02919,251.27128l0.00186,-0.00248l1.17301,1.01888zM192.39534,253.4669c0.83027,0.25822 1.59901,0.6314 2.29785,1.12267l-1.78639,2.54208c-0.42384,-0.29768 -0.89925,-0.53135 -1.43465,-0.6979zM194.69319,254.58957c0.74047,0.52016 1.35696,1.18202 1.85258,1.96381l-2.62411,1.66396c-0.29302,-0.46237 -0.63265,-0.81691 -1.01484,-1.0857zM196.53644,256.53878c0.50276,0.77341 0.86693,1.65681 1.11335,2.62536l-3.01129,0.76657c-0.17836,-0.70007 -0.42104,-1.25815 -0.70723,-1.69845zM197.64979,259.16414c0.25107,0.98657 0.36666,2.07537 0.36666,3.25086h-3.1073c0,-0.9788 -0.09695,-1.80162 -0.27064,-2.48429zM198.01645,262.415v1.63879h-3.1073v-1.63879zM198.01645,264.0538c0,2.87954 -0.72089,5.32436 -2.43519,7.03836c-1.71398,1.7143 -4.15913,2.43519 -7.03836,2.43519v-3.1073c2.40039,0 3.91551,-0.59909 4.84118,-1.52506c0.92598,-0.92567 1.52506,-2.44078 1.52506,-4.84118zM188.5429,273.52734h-17.86544v-3.1073h17.86544zM169.12381,271.97369v-32.63569h3.1073v32.63569zM170.67746,237.78434h16.93232v3.1073h-16.93232zM187.60978,237.78434c2.88047,0 5.32623,0.72338 7.04022,2.44234c1.71305,1.71803 2.43333,4.16814 2.43333,7.05389h-3.1073c0,-2.40909 -0.59971,-3.93043 -1.52662,-4.85982c-0.92598,-0.92877 -2.44047,-1.5291 -4.83962,-1.5291zM197.08332,247.28057v0.59194h-3.1073v-0.59194zM197.08332,247.87251c0,1.98743 -0.31819,3.75269 -1.05524,5.20815l-2.77202,-1.40419c0.44621,-0.88123 0.71996,-2.12011 0.71996,-3.80396zM196.03182,253.07351c-0.74327,1.48654 -1.91752,2.58869 -3.45252,3.29002l-1.29109,-2.82641c0.92287,-0.42166 1.55459,-1.0338 1.96413,-1.85351zM176.80538,257.74969v9.64942h-3.1073v-9.64942zM175.25172,265.84547h13.15446v3.1073h-13.15446zM188.40618,265.84547c1.03224,0 1.40947,-0.24734 1.53501,-0.37971l2.25559,2.1372c-0.96699,1.02075 -2.36466,1.34981 -3.7906,1.34981zM189.9412,265.46575c0.15598,-0.16469 0.39339,-0.59753 0.39339,-1.63972h3.1073c0,1.41599 -0.30856,2.78849 -1.2451,3.77693zM190.33457,263.82603v-2.52623h3.1073v2.52623zM190.33457,261.2998c0,-1.06829 -0.24237,-1.48405 -0.37909,-1.62481l2.227,-2.16672c0.9555,0.98191 1.25939,2.3718 1.25939,3.79153zM189.95548,259.67498c-0.12398,-0.12709 -0.50712,-0.37163 -1.5493,-0.37163v-3.1073c1.41599,0 2.80776,0.31663 3.77631,1.31221zM188.40618,259.30334h-13.15446v-3.1073h13.15446zM176.80538,243.91224v9.28555h-3.1073v-9.28555zM175.25172,251.64415h12.54015v3.1073h-12.54015zM187.72879,251.6454c0.91324,-0.03697 1.21247,-0.27251 1.3004,-0.37412l2.35006,2.03249c-0.88309,1.02137 -2.1922,1.39238 -3.52462,1.44645zM189.03107,251.26879c0.15132,-0.17432 0.37039,-0.61556 0.37039,-1.62139h3.1073c0,1.36131 -0.28152,2.68005 -1.13137,3.65885zM189.40145,249.6474v-2.13907h3.1073v2.13907zM189.40145,247.50832c0,-1.06363 -0.24019,-1.50083 -0.39339,-1.66272l2.25559,-2.13689c0.93934,0.99123 1.2451,2.3746 1.2451,3.79961zM189.00807,245.84562c-0.12554,-0.13237 -0.50276,-0.37971 -1.53501,-0.37971v-3.1073c1.42594,0 2.8236,0.32938 3.7906,1.35012zM187.47306,245.4659h-12.22133v-3.1073h12.22133zM225.05372,262.14186v1.55365h-1.55365v-1.55365zM205.90155,262.14186v-1.55365h1.55365v1.55365zM207.45519,269.04381h-1.55365v-1.55365h1.55365zM223.50006,265.93651h1.55365v1.55365h-1.55365zM225.05372,271.97369v1.55365h-1.55365v-1.55365zM205.12783,273.06651l-0.03356,-0.01398l0.6314,-1.42035zM203.21403,271.79564l-0.02113,-0.02051l-0.0202,-0.02113l1.11894,-1.07761zM201.91612,269.87377l-0.01492,-0.03325l1.43465,-0.59784zM201.90182,249.86926l0.01398,-0.03356l1.42004,0.63109zM206.35645,249.5197l-0.03325,0.01492l-0.59753,-1.43465zM220.17153,249.53398l-0.03387,-0.01398l0.6314,-1.42004zM221.10216,250.17502l-0.02113,-0.02051l-0.0202,-0.02113l1.11925,-1.07761zM221.71617,251.09789l-0.01492,-0.03325l1.43465,-0.59784zM205.90155,252.21931v-1.55365h1.55365v1.55365zM207.45519,259.2123h-1.55365v-1.55365h1.55365zM220.57019,257.65865v1.55365h-1.55365v-1.55365zM219.01654,250.66567h1.55365v1.55365h-1.55365zM223.50006,263.69551h-16.04487v-3.1073h16.04487zM209.00885,262.14186v5.34829h-3.1073v-5.34829zM207.45519,265.93651h16.04487v3.1073h-16.04487zM225.05372,267.49016v4.48353h-3.1073v-4.48353zM223.50006,273.52734h-16.04487v-3.1073h16.04487zM207.45519,273.52734c-0.80666,0 -1.5869,-0.15226 -2.32737,-0.46081l1.19538,-2.86835c0.35174,0.14667 0.72494,0.22186 1.13199,0.22186zM205.09458,273.05193c-0.70287,-0.31229 -1.33396,-0.73022 -1.88054,-1.25628l2.15523,-2.23819c0.27313,0.26257 0.59784,0.48194 0.98719,0.65502zM203.17271,271.754c-0.52638,-0.54626 -0.94431,-1.17736 -1.2566,-1.88023l2.83945,-1.26219c0.17307,0.38966 0.39246,0.71437 0.65533,0.98719zM201.90182,269.84021c-0.31073,-0.74513 -0.46113,-1.53346 -0.46113,-2.35006h3.1073c0,0.42788 0.07737,0.80759 0.22186,1.15499zM201.4407,267.49016v-15.27084h3.1073v15.27084zM201.4407,252.21931c0,-0.8166 0.15039,-1.60492 0.46113,-2.35006l2.86804,1.19507c-0.14449,0.3474 -0.22186,0.72742 -0.22186,1.15499zM201.91612,249.83571c0.31477,-0.70785 0.7383,-1.33987 1.2771,-1.87836l2.19718,2.19718c-0.25045,0.25014 -0.46392,0.5587 -0.63482,0.94338zM203.19322,247.95733c0.55621,-0.55652 1.20533,-0.9875 1.93461,-1.2914l1.19538,2.86804c-0.36324,0.15132 -0.66993,0.35734 -0.93281,0.62052zM205.09458,246.68024c0.74793,-0.33248 1.53967,-0.4981 2.36061,-0.4981v3.1073c-0.39308,0 -0.75415,0.07706 -1.09874,0.23025zM207.45519,246.18214h11.56135v3.1073h-11.56135zM219.01654,246.18214c0.83027,0 1.6304,0.16345 2.3833,0.4981l-1.26187,2.83945c-0.33931,-0.15101 -0.70785,-0.23025 -1.12143,-0.23025zM221.3666,246.66595c0.73456,0.30575 1.38431,0.74296 1.93244,1.31221l-2.23819,2.15523c-0.24082,-0.25014 -0.53166,-0.45025 -0.88931,-0.5994zM223.2577,247.93682c0.56925,0.54782 1.00615,1.19786 1.31221,1.93244l-2.86835,1.19507c-0.14884,-0.35796 -0.34926,-0.64849 -0.5994,-0.88931zM224.55562,249.83571c0.33465,0.75321 0.4981,1.55303 0.4981,2.38361h-3.1073c0,-0.41389 -0.07955,-0.78211 -0.23025,-1.12143zM225.05372,252.21931v9.92255h-3.1073v-9.92255zM209.00885,252.21931v5.43933h-3.1073v-5.43933zM207.45519,256.105h11.56135v3.1073h-11.56135zM217.46289,257.65865v-5.43933h3.1073v5.43933zM219.01654,253.77297h-11.56135v-3.1073h11.56135zM253.97961,271.97369v1.55365h-1.55365v-1.55365zM247.94273,273.52734h-1.55365v-1.55365h1.55365zM247.94273,250.66567h1.55365v1.55365h-1.55365zM233.89462,252.21931v-1.55365h1.55365v1.55365zM237.00192,271.97369v1.55365h-1.55365v-1.55365zM230.98742,273.52734h-1.55365v-1.55365h1.55365zM229.43377,247.73579v-1.55365h1.55365v1.55365zM235.44827,246.18214h1.55365v1.55365h-1.55365zM236.99975,252.09408l-3.10513,-0.07955h1.55365zM237.27101,250.99907l-0.00714,0.01554l-1.40606,-0.66155zM237.89154,250.10666l-0.00093,0.00093l-1.07699,-1.12019zM238.83679,249.50509l-0.0348,0.01492l-0.57734,-1.44272zM249.09741,249.53398l-0.03356,-0.01398l0.63109,-1.42004zM250.02836,250.17502l-0.02113,-0.02051l-0.0202,-0.02113l1.11894,-1.07761zM250.64236,251.09789l-0.01492,-0.03325l1.43465,-0.59784zM252.42596,273.52734h-4.48322v-3.1073h4.48322zM246.38909,271.97369v-19.75437h3.1073v19.75437zM247.94273,253.77297h-12.49447v-3.1073h12.49447zM237.00192,252.21931v19.75437h-3.1073v-19.75437zM235.44827,273.52734h-4.46084v-3.1073h4.46084zM229.43377,271.97369v-24.23789h3.1073v24.23789zM230.98742,246.18214h4.46084v3.1073h-4.46084zM237.00192,247.73579v4.27876h-3.1073v-4.27876zM233.89649,251.935c0.04039,-0.78552 0.22341,-1.53781 0.55559,-2.24347l2.81149,1.32309c-0.15319,0.32596 -0.2433,0.68112 -0.26381,1.07948zM234.44492,249.70706c0.3185,-0.69666 0.74731,-1.31594 1.29202,-1.83952l2.15367,2.24005c-0.24455,0.23491 -0.45273,0.52607 -0.61959,0.89149zM235.73601,247.86847c0.55496,-0.53445 1.19569,-0.94742 1.91161,-1.23391l1.15406,2.88513c-0.34584,0.13827 -0.64601,0.33248 -0.91013,0.58697zM237.61282,246.64916c0.73394,-0.31477 1.51232,-0.46703 2.31898,-0.46703v3.1073c-0.40737,0 -0.76719,0.0752 -1.09501,0.21565zM239.9318,246.18214h8.01094v3.1073h-8.01094zM247.94273,246.18214c0.83027,0 1.6304,0.16345 2.3833,0.4981l-1.26187,2.83945c-0.33962,-0.15101 -0.70785,-0.23025 -1.12143,-0.23025zM250.29279,246.66595c0.73425,0.30575 1.38431,0.74296 1.93244,1.31221l-2.23819,2.15523c-0.24082,-0.25014 -0.53166,-0.45025 -0.88962,-0.5994zM252.18389,247.93682c0.56894,0.54782 1.00615,1.19786 1.31221,1.93244l-2.86835,1.19507c-0.14915,-0.35796 -0.34926,-0.64849 -0.5994,-0.88931zM253.48182,249.83571c0.33465,0.75321 0.49779,1.55303 0.49779,2.38361h-3.1073c0,-0.41389 -0.07924,-0.78211 -0.22994,-1.12143zM253.97961,252.21931v19.75437h-3.1073v-19.75437zM262.79783,252.21931v-1.55365h1.55365v1.55365zM264.35147,269.04381h-1.55365v-1.55365h1.55365zM277.46647,267.49016v1.55365h-1.55365v-1.55365zM274.35916,263.39379v-1.55365h1.55365v1.55365zM280.39634,261.84015h1.55365v1.55365h-1.55365zM278.59815,268.64515l0.01398,-0.03356l1.42004,0.63109zM278.29643,273.05193l-0.03325,0.01492l-0.59784,-1.43465zM262.02441,273.06651l-0.03356,-0.01398l0.63109,-1.42035zM260.11062,271.79564l-0.02113,-0.02051l-0.02051,-0.02113l1.11925,-1.07761zM258.8127,269.87377l-0.01492,-0.03325l1.43465,-0.59784zM258.7981,249.86926l0.01398,-0.03356l1.42035,0.63109zM263.25304,249.5197l-0.03325,0.01492l-0.59784,-1.43465zM277.06781,249.53398l-0.03356,-0.01398l0.63109,-1.42004zM277.99875,250.17502l-0.02113,-0.02051l-0.0202,-0.02113l1.11894,-1.07761zM278.61244,251.09789l-0.01461,-0.03325l1.43434,-0.59784zM281.95,256.31568v1.55365h-1.55365v-1.55365zM275.91282,257.86933h-1.55365v-1.55365h1.55365zM275.91282,250.66567h1.55365v1.55365h-1.55365zM265.90512,252.21931v15.27084h-3.1073v-15.27084zM264.35147,265.93651h11.56135v3.1073h-11.56135zM274.35916,267.49016v-4.09636h3.1073v4.09636zM275.91282,261.84015h4.48353v3.1073h-4.48353zM281.95,263.39379v4.09636h-3.1073v-4.09636zM281.95,267.49016c0,0.83058 -0.16345,1.6304 -0.4981,2.38361l-2.83945,-1.26219c0.15101,-0.33931 0.23025,-0.70754 0.23025,-1.12143zM281.4665,269.84021c-0.30389,0.72928 -0.73518,1.37871 -1.2914,1.93492l-2.19718,-2.19718c0.26288,-0.26319 0.46889,-0.56988 0.62021,-0.93281zM280.1751,271.77514c-0.53881,0.53849 -1.17084,0.96233 -1.87867,1.27679l-1.26219,-2.83945c0.38468,-0.1709 0.69324,-0.38437 0.94369,-0.63451zM278.26286,273.06651c-0.74513,0.31042 -1.53346,0.46081 -2.35006,0.46081v-3.1073c0.42788,0 0.8079,-0.07706 1.15499,-0.22186zM275.91282,273.52734h-11.56135v-3.1073h11.56135zM264.35147,273.52734c-0.80666,0 -1.58659,-0.15226 -2.32706,-0.46081l1.19507,-2.86835c0.35206,0.14667 0.72494,0.22186 1.13199,0.22186zM261.99086,273.05193c-0.70287,-0.31229 -1.33396,-0.73022 -1.88023,-1.25628l2.15523,-2.23819c0.27282,0.26257 0.59753,0.48194 0.98719,0.65502zM260.06899,271.754c-0.52607,-0.54626 -0.944,-1.17736 -1.25628,-1.88023l2.83945,-1.26219c0.17307,0.38966 0.39246,0.71437 0.65502,0.98719zM258.7981,269.84021c-0.31042,-0.74513 -0.46081,-1.53346 -0.46081,-2.35006h3.1073c0,0.42788 0.07706,0.80759 0.22186,1.15499zM258.33728,267.49016v-15.27084h3.1073v15.27084zM258.33728,252.21931c0,-0.8166 0.15039,-1.60492 0.46081,-2.35006l2.86835,1.19507c-0.1448,0.3474 -0.22186,0.72742 -0.22186,1.15499zM258.8127,249.83571c0.31446,-0.70785 0.7383,-1.33987 1.27679,-1.87836l2.19718,2.19718c-0.25014,0.25014 -0.46361,0.5587 -0.63451,0.94338zM260.08949,247.95733c0.55621,-0.55652 1.20533,-0.9875 1.93492,-1.2914l1.19507,2.86804c-0.36293,0.15132 -0.66962,0.35734 -0.93281,0.62052zM261.99086,246.68024c0.74793,-0.33248 1.53998,-0.4981 2.36061,-0.4981v3.1073c-0.39277,0 -0.75415,0.07706 -1.09843,0.23025zM264.35147,246.18214h11.56135v3.1073h-11.56135zM275.91282,246.18214c0.83058,0 1.63071,0.16345 2.38361,0.4981l-1.26219,2.83945c-0.33931,-0.15101 -0.70754,-0.23025 -1.12143,-0.23025zM278.26286,246.66595c0.73456,0.30575 1.38462,0.74296 1.93275,1.31221l-2.23819,2.15523c-0.24113,-0.25014 -0.53166,-0.45025 -0.88962,-0.5994zM280.15398,247.93682c0.56925,0.54782 1.00646,1.19786 1.31252,1.93244l-2.86835,1.19507c-0.14915,-0.35796 -0.34926,-0.64849 -0.5994,-0.88931zM281.45189,249.83571c0.33465,0.75321 0.4981,1.55303 0.4981,2.38361h-3.1073c0,-0.41389 -0.07924,-0.78211 -0.23025,-1.12143zM281.95,252.21931v4.09636h-3.1073v-4.09636zM280.39634,257.86933h-4.48353v-3.1073h4.48353zM274.35916,256.31568v-4.09636h3.1073v4.09636zM275.91282,253.77297h-11.56135v-3.1073h11.56135zM310.8762,271.97369v1.55365h-1.55365v-1.55365zM304.839,273.52734h-1.55365v-1.55365h1.55365zM304.839,250.66567h1.55365v1.55365h-1.55365zM290.7909,252.21931v-1.55365h1.55365v1.55365zM293.8982,271.97369v1.55365h-1.55365v-1.55365zM287.884,273.52734h-1.55365v-1.55365h1.55365zM286.33037,238.40487v-1.55365h1.55365v1.55365zM292.34454,236.85121h1.55365v1.55365h-1.55365zM293.89634,252.09408l-3.10544,-0.07955h1.55365zM294.16728,250.99907l-0.00714,0.01554l-1.40575,-0.66155zM294.78782,250.10666l-0.00093,0.00093l-1.07668,-1.12019zM295.73306,249.50509l-0.0348,0.01492l-0.57703,-1.44272zM305.994,249.53398l-0.03356,-0.01398l0.63109,-1.42004zM306.92495,250.17502l-0.02113,-0.02051l-0.02051,-0.02113l1.11925,-1.07761zM307.53864,251.09789l-0.01492,-0.03325l1.43465,-0.59784zM309.32254,273.52734h-4.48353v-3.1073h4.48353zM303.28537,271.97369v-19.75437h3.1073v19.75437zM304.839,253.77297h-12.49447v-3.1073h12.49447zM293.8982,252.21931v19.75437h-3.1073v-19.75437zM292.34454,273.52734h-4.46053v-3.1073h4.46053zM286.33037,271.97369v-33.56882h3.1073v33.56882zM287.884,236.85121h4.46053v3.1073h-4.46053zM293.8982,238.40487v13.60968h-3.1073v-13.60968zM290.79306,251.935c0.04008,-0.78552 0.22341,-1.53781 0.55559,-2.24347l2.81149,1.32309c-0.1535,0.32596 -0.24362,0.68112 -0.26381,1.07948zM291.3412,249.70706c0.3185,-0.69666 0.74762,-1.31594 1.29202,-1.83952l2.15367,2.24005c-0.24424,0.23491 -0.45273,0.52607 -0.61959,0.89149zM292.6326,247.86847c0.55496,-0.53445 1.19538,-0.94742 1.91161,-1.23391l1.15406,2.88513c-0.34584,0.13827 -0.64601,0.33248 -0.91044,0.58697zM294.5091,246.64916c0.73425,-0.31477 1.51263,-0.46703 2.31898,-0.46703v3.1073c-0.40737,0 -0.76688,0.0752 -1.09501,0.21565zM296.82808,246.18214h8.01094v3.1073h-8.01094zM304.839,246.18214c0.83058,0 1.6304,0.16345 2.38361,0.4981l-1.26219,2.83945c-0.33931,-0.15101 -0.70754,-0.23025 -1.12143,-0.23025zM307.18907,246.66595c0.73456,0.30575 1.38462,0.74296 1.93275,1.31221l-2.2385,2.15523c-0.24082,-0.25014 -0.53135,-0.45025 -0.88931,-0.5994zM309.08017,247.93682c0.56925,0.54782 1.00646,1.19786 1.31221,1.93244l-2.86804,1.19507c-0.14915,-0.35796 -0.34926,-0.64849 -0.5994,-0.88931zM310.3781,249.83571c0.33465,0.75321 0.4981,1.55303 0.4981,2.38361h-3.1073c0,-0.41389 -0.07924,-0.78211 -0.23025,-1.12143zM310.8762,252.21931v19.75437h-3.1073v-19.75437z"/></g><g stroke-width="0"><path d="M312.8327,218.53862v-41.33334h14.73514v41.33334z" data-paper-data="{&quot;index&quot;:null}" fill="#b56e2e" stroke="#ffc85e"/><path d="M307.2535,222.30422v-41.33333h14.73516v41.33333z" fill="#ff9b40" stroke="#ffc85e"/><path d="M162.77922,218.53862v-41.33334h14.73514v41.33334z" data-paper-data="{&quot;index&quot;:null}" fill="#b56e2e" stroke="#ffc85e"/><path d="M157.20002,222.30422v-41.33333h14.73515v41.33333z" fill="#ff9b40" stroke="#ffc85e"/><path d="M332.04116,176.78855c4.31726,0.13175 4.57136,1.74074 4.57136,3.03718c0,4.00592 0,10.27252 0,12.5396c0,1.16245 -0.16514,3.30284 -3.54289,3.30284c-19.46803,0 -146.43842,-0.3074 -185.63651,-0.3074c-3.39711,0 -3.86729,-1.97499 -3.86729,-3.44329c0,-2.17033 -0.2852,-6.56538 -0.13429,-10.63523c0.07658,-2.06525 0.32328,-4.49371 5.84324,-4.64741z" fill="url(#color-1)" stroke="none"/></g></g></g></svg>