<svg version="1.1" xmlns="http://www.w3.org/2000/svg" xmlns:xlink="http://www.w3.org/1999/xlink" width="15.67962" height="22.83226" viewBox="0,0,15.67962,22.83226"><g transform="translate(-232.16019,-168.58387)"><g fill="#ffad4e" stroke="none" stroke-miterlimit="10"><path d="M236.13293,169.57633v17.86707h10.71443v2.98027h-13.6947v-20.84735z"/><path d="M236.13293,168.58387h0.99246v0.99246h-0.99246zM236.13293,188.43585h-0.99246v-0.99246h0.99246zM246.84735,186.45094h0.99246v0.99246h-0.99246zM247.8398,190.42367v0.99246h-0.99246v-0.99246zM233.15265,191.41612h-0.99246v-0.99246h0.99246zM232.1602,169.57633v-0.99246h0.99246v0.99246zM237.12538,169.57633v17.86707h-1.98491v-17.86707zM236.13293,186.45094h10.71443v1.98491h-10.71443zM247.8398,187.4434v2.98027h-1.98491v-2.98027zM246.84735,191.41612h-13.6947v-1.98491h13.6947zM232.1602,190.42367v-20.84735h1.98491v20.84735zM233.15265,168.58387h2.98027v1.98491h-2.98027z"/></g></g></svg>