<svg version="1.1" xmlns="http://www.w3.org/2000/svg" xmlns:xlink="http://www.w3.org/1999/xlink" width="242.10878" height="46.45777" viewBox="0,0,242.10878,46.45777"><g transform="translate(-94.22482,-155.84777)"><g data-paper-data="{&quot;isPaintingLayer&quot;:true}" fill-rule="nonzero" stroke-linecap="butt" stroke-linejoin="miter" stroke-miterlimit="10" stroke-dasharray="" stroke-dashoffset="0" style="mix-blend-mode: normal"><path d="M131.72553,157.84777h202.60807v42.45777h-235.992z" fill="#ff914d" stroke="#ffc8a6" stroke-width="4"/><path d="M138.0949,181.61855l-5.08494,-17.15695h2.54236l3.94404,13.65136l3.93156,-13.65136h2.54257l3.93156,13.65136l3.94405,-13.65136h2.54257l-5.08495,17.15695h-2.79065l-3.80751,-12.86173l-3.82001,12.86173zM169.84537,179.26156c0,0.32711 -0.06604,0.63422 -0.19833,0.92131c-0.12404,0.28709 -0.29782,0.53845 -0.52092,0.75367c-0.21506,0.20746 -0.47139,0.3749 -0.769,0.50252c-0.28935,0.11965 -0.60368,0.17948 -0.94257,0.17948h-6.56092c-0.33084,0 -0.64495,-0.05983 -0.94257,-0.17948c-0.29782,-0.12762 -0.55817,-0.29506 -0.78148,-0.50252c-0.21485,-0.21522 -0.38862,-0.46658 -0.52092,-0.75367c-0.12404,-0.28709 -0.18606,-0.5942 -0.18606,-0.92131v-8.0281c0,-0.32701 0.06202,-0.6341 0.18606,-0.92125c0.13229,-0.28714 0.30607,-0.53441 0.52092,-0.74179c0.22332,-0.21536 0.48366,-0.38287 0.78148,-0.5025c0.29761,-0.12762 0.61172,-0.19143 0.94257,-0.19143h6.56092c0.33889,0 0.65321,0.06381 0.94257,0.19143c0.29761,0.11963 0.55394,0.28714 0.769,0.5025c0.2231,0.20738 0.39688,0.45466 0.52092,0.74179c0.13229,0.28716 0.19833,0.59424 0.19833,0.92125zM160.85364,171.23345v8.0281h6.56092v-8.0281zM176.35675,171.23345v10.3851h-2.43082v-12.74207h2.43082v2.24931c0.01651,-0.31108 0.09101,-0.6022 0.22331,-0.87341c0.13229,-0.27916 0.30586,-0.51845 0.52092,-0.71786c0.2231,-0.20738 0.47944,-0.36691 0.76879,-0.47857c0.28956,-0.11965 0.59945,-0.17946 0.93029,-0.17946h2.59211c0.33909,0 0.65321,0.06381 0.94257,0.19143c0.29761,0.11963 0.55818,0.28714 0.78127,0.5025c0.22332,0.20738 0.39688,0.45466 0.52092,0.74179c0.13229,0.28716 0.19854,0.59424 0.19854,0.92125v2.1536h-2.44331v-2.1536zM195.60536,181.61855l-6.30035,-5.44378v5.44378h-2.43102v-17.6475h2.43102v9.93048l5.79192,-5.02505h3.43561l-7.09432,6.1497l7.60276,6.59237zM212.23731,179.26156c0,0.32711 -0.06625,0.63422 -0.19855,0.92131c-0.12404,0.28709 -0.2976,0.53845 -0.52092,0.75367c-0.21485,0.20746 -0.47118,0.3749 -0.769,0.50252c-0.28935,0.11965 -0.60347,0.17948 -0.94257,0.17948h-6.56091c-0.33063,0 -0.64495,-0.05983 -0.94257,-0.17948c-0.29761,-0.12762 -0.55818,-0.29506 -0.78128,-0.50252c-0.21506,-0.21522 -0.38862,-0.46658 -0.52092,-0.75367c-0.12404,-0.28709 -0.18606,-0.5942 -0.18606,-0.92131v-8.0281c0,-0.32701 0.06202,-0.6341 0.18606,-0.92125c0.13229,-0.28714 0.30586,-0.53441 0.52092,-0.74179c0.2231,-0.21536 0.48367,-0.38287 0.78128,-0.5025c0.29761,-0.12762 0.61194,-0.19143 0.94257,-0.19143h6.56091c0.33909,0 0.65321,0.06381 0.94257,0.19143c0.29782,0.11963 0.55415,0.28714 0.769,0.5025c0.22332,0.20738 0.39688,0.45466 0.52092,0.74179c0.13229,0.28716 0.19855,0.59424 0.19855,0.92125zM203.24537,171.23345v8.0281h6.56091v-8.0281zM216.31767,168.87648h2.43082v10.38508h6.80899v-10.38507h2.44331v12.74207h-2.44331v-2.15362c-0.02477,0.29527 -0.10753,0.57439 -0.24808,0.8376c-0.14055,0.2632 -0.32237,0.49455 -0.54569,0.69385c-0.21485,0.19153 -0.46292,0.34304 -0.74401,0.45473c-0.28109,0.11169 -0.57892,0.16744 -0.89303,0.16744h-4.37817c-0.33063,0 -0.64496,-0.05983 -0.94257,-0.17948c-0.29761,-0.12762 -0.55817,-0.29506 -0.78127,-0.50252c-0.21506,-0.21522 -0.38862,-0.46658 -0.52092,-0.75367c-0.12404,-0.28709 -0.18606,-0.5942 -0.18606,-0.92131zM231.29986,168.87648h3.22479v-3.92435h2.44331v3.92435h4.34071v2.35697h-4.34071v8.0281h4.34071v2.35699h-4.34071c-0.33084,0 -0.64497,-0.05983 -0.94279,-0.17948c-0.29761,-0.12762 -0.55795,-0.29506 -0.78127,-0.50252c-0.22332,-0.21522 -0.40111,-0.46658 -0.5334,-0.75367c-0.12383,-0.28709 -0.18585,-0.5942 -0.18585,-0.92131v-8.0281h-3.22479z" fill="#ffffff" stroke="#000000" stroke-width="0"/><path d="M133.05198,187.06561h4.12374v0.76756h-3.15218v1.97924h2.23248v0.76776h-2.23248v3.65404h-0.97156zM138.92772,187.04069c0.15833,0 0.29613,0.05309 0.41339,0.15947c0.11367,0.11619 0.17039,0.25259 0.17039,0.40879c0,0.15947 -0.05673,0.29404 -0.17039,0.40369c-0.11726,0.11312 -0.25506,0.16948 -0.41339,0.16948c-0.16553,0 -0.30671,-0.05636 -0.42377,-0.16948c-0.11726,-0.10638 -0.17569,-0.24095 -0.17569,-0.40369c0,-0.15947 0.05843,-0.29587 0.17569,-0.40879c0.11705,-0.10638 0.25824,-0.15947 0.42377,-0.15947zM138.47284,189.04954h0.8888v5.18467h-0.8888zM141.04632,189.13939l0.8579,-0.18438c0.0654,0.1993 0.11198,0.39205 0.13949,0.57827c0.01376,0.08964 0.03111,0.26749 0.05185,0.53336h0.10838c0.18944,-0.33569 0.42376,-0.60319 0.70295,-0.80269c0.3065,-0.2193 0.63035,-0.32895 0.97135,-0.32895c0.5133,0 0.90446,0.11965 1.17307,0.35897c0.23093,0.20276 0.39117,0.51334 0.4807,0.93214c0.05863,0.28587 0.08784,0.7112 0.08784,1.27621v2.7319h-0.8888v-2.97122c0,-0.49517 -0.04995,-0.84903 -0.14986,-1.0618c-0.14817,-0.31569 -0.44621,-0.47352 -0.89409,-0.47352c-0.31687,0 -0.62696,0.14621 -0.93007,0.43861c-0.20342,0.19602 -0.42038,0.48352 -0.65131,0.86251v3.20542h-0.8888v-3.19052c0,-0.44861 -0.01207,-0.83576 -0.0362,-1.16145c-0.01376,-0.20276 -0.05842,-0.45045 -0.13441,-0.74285zM150.29142,187.0556h0.8888v5.21938c0,0.58501 0.00868,0.96889 0.02582,1.15165c0.01736,0.22604 0.05694,0.46863 0.11895,0.72774l-0.85789,0.18459c-0.05842,-0.18622 -0.10161,-0.37387 -0.12912,-0.56337c-0.0345,-0.23257 -0.05334,-0.41206 -0.05694,-0.53845h-0.07747c-0.17908,0.35897 -0.37719,0.62319 -0.59416,0.79267c-0.26184,0.21604 -0.58569,0.32406 -0.97156,0.32406c-0.33762,0 -0.62887,-0.06984 -0.87335,-0.2093c-0.24469,-0.14293 -0.43582,-0.34079 -0.57362,-0.59338c-0.13441,-0.25259 -0.23432,-0.53009 -0.29972,-0.8325c-0.06201,-0.30241 -0.09313,-0.63647 -0.09313,-1.00197c0,-0.41207 0.04318,-0.78267 0.12933,-1.11163c0.08954,-0.32915 0.22564,-0.61993 0.4081,-0.87252c0.18268,-0.25585 0.42735,-0.45188 0.73386,-0.58828c0.30671,-0.13946 0.66676,-0.20929 1.08015,-0.20929c0.32385,0 0.70444,0.04145 1.14196,0.12456zM150.29142,192.13551v-2.31821c-0.38927,-0.09965 -0.74762,-0.14946 -1.07486,-0.14946c-0.27898,0 -0.52029,0.04982 -0.72348,0.14946c-0.19982,0.09638 -0.35646,0.23442 -0.47034,0.4139c-0.11367,0.17602 -0.19621,0.37387 -0.24786,0.59318c-0.05186,0.2193 -0.07768,0.46516 -0.07768,0.73775c0,0.18622 0.0036,0.3506 0.01038,0.49353c0.01038,0.13967 0.02582,0.29241 0.04656,0.45862c0.02413,0.16295 0.06032,0.30241 0.10859,0.4188c0.04805,0.11639 0.10838,0.2244 0.18077,0.32405c0.07239,0.09965 0.16531,0.17622 0.27898,0.22931c0.11726,0.04982 0.25168,0.07474 0.40323,0.07474c0.36513,0 0.68199,-0.1413 0.95082,-0.4237c0.19283,-0.20603 0.39794,-0.54009 0.6149,-1.00197zM153.14916,193.35189c0.13103,-0.08984 0.243,-0.15131 0.33592,-0.18459c0.09652,-0.03308 0.19304,-0.04982 0.28936,-0.04982c0.16892,0 0.30502,0.03329 0.40831,0.09985c0.10329,0.0631 0.17738,0.1462 0.22226,0.24911c0.04826,0.09985 0.06879,0.2144 0.06202,0.34407c-0.00698,0.12966 -0.03789,0.25912 -0.09313,0.38878c-0.03789,0.08638 -0.08785,0.18786 -0.14986,0.30404c-0.06201,0.11639 -0.12743,0.23605 -0.19621,0.35897c-0.06901,0.1264 -0.1397,0.24932 -0.21188,0.36898c-0.06901,0.11965 -0.12933,0.22257 -0.18098,0.30915h-0.63035l0.4081,-1.30622zM159.56233,194.23421v-3.20542c0,-0.51191 -0.01207,-0.89743 -0.0362,-1.15655c-0.01376,-0.20276 -0.05863,-0.45045 -0.13441,-0.74286l0.84753,-0.18438c0.06561,0.1993 0.11198,0.39205 0.1395,0.57827c0.01397,0.06984 0.03111,0.25096 0.05185,0.54336h0.10838c0.17568,-0.33896 0.39625,-0.60483 0.66147,-0.79758c0.28596,-0.22278 0.61151,-0.33406 0.97686,-0.33406c0.20659,0 0.40641,0.03655 0.59945,0.10965c0.19283,0.06984 0.35475,0.16948 0.48578,0.29914c0.19621,0.18602 0.33571,0.46188 0.41848,0.8276h0.06202c0.2068,-0.38551 0.44959,-0.68139 0.72857,-0.88742c0.29973,-0.23257 0.63564,-0.34896 1.00775,-0.34896c0.45128,0 0.79758,0.12129 1.03867,0.36387c0.21019,0.20276 0.35836,0.51191 0.44451,0.92724c0.06201,0.30241 0.09292,0.72447 0.09292,1.2662v2.74191h-0.8888v-2.98122c0,-0.26239 -0.01545,-0.47843 -0.04656,-0.64791c-0.04805,-0.2626 -0.1342,-0.46699 -0.25824,-0.61319c-0.15515,-0.17622 -0.37212,-0.26423 -0.65109,-0.26423c-0.31708,0 -0.60982,0.14621 -0.87865,0.43861c-0.16192,0.17622 -0.35476,0.44861 -0.57871,0.81758c0.00678,0.05656 0.01038,0.13967 0.01038,0.24932v3.00102h-0.88901v-2.98122c0,-0.42207 -0.04297,-0.74613 -0.12912,-0.97196c-0.14457,-0.36898 -0.41847,-0.55337 -0.8217,-0.55337c-0.3101,0 -0.60453,0.14947 -0.88372,0.44861c-0.16192,0.17275 -0.35815,0.46025 -0.58908,0.86251v3.19542zM168.87982,189.96698l-0.22754,-0.69793c0.57891,-0.22278 1.18514,-0.33406 1.81909,-0.33406c0.55479,0 0.97854,0.08964 1.27128,0.26913c0.33423,0.20603 0.50124,0.55663 0.50124,1.052v2.03887c0,0.27259 0.00339,0.55173 0.01037,0.8376c0.00338,0.16948 0.02074,0.34549 0.05165,0.52824c0.02751,0.17296 0.06372,0.33733 0.10859,0.49354l-0.84753,0.17948c-0.07916,-0.22257 -0.12912,-0.47189 -0.14986,-0.74776l-0.1033,-0.01001c-0.42737,0.51845 -0.97156,0.77778 -1.63303,0.77778c-0.48239,0 -0.86996,-0.12803 -1.1627,-0.38389c-0.29295,-0.25912 -0.43943,-0.62319 -0.43943,-1.09182c0,-0.34896 0.07938,-0.63463 0.23771,-0.8574c0.16192,-0.22257 0.38947,-0.41043 0.68221,-0.56337c0.46165,-0.24258 1.10767,-0.36387 1.93784,-0.36387c0.11028,0 0.25844,0.00326 0.4445,0.01v-0.75776c0,-0.23932 -0.07578,-0.41206 -0.22734,-0.51844c-0.15155,-0.10638 -0.38926,-0.15947 -0.71311,-0.15947c-0.47202,0 -0.99231,0.09964 -1.56064,0.29914zM171.38093,192.77852v-1.0469c-0.09292,-0.00654 -0.22903,-0.01 -0.40831,-0.01c-0.30311,0 -0.58209,0.02491 -0.83715,0.07493c-0.37889,0.0731 -0.67353,0.18929 -0.88372,0.34897c-0.20659,0.15621 -0.30988,0.38205 -0.30988,0.67792c0,0.53172 0.29972,0.79758 0.89917,0.79758c0.30989,0 0.59945,-0.07984 0.86806,-0.23932c0.22056,-0.13293 0.44451,-0.33406 0.67184,-0.60318zM173.9544,187.0556h0.8888v4.31705l2.41854,-2.43766l0.584,0.54826l-2.093,2.07889l2.6408,2.67207h-1.10598l-2.44436,-2.49259v2.49259h-0.8888zM183.33391,193.94507c-0.38249,0.1462 -0.74253,0.25096 -1.08015,0.31405c-0.33423,0.0631 -0.63394,0.09475 -0.89917,0.09475c-0.40641,0 -0.76137,-0.06147 -1.06449,-0.18439c-0.30311,-0.1264 -0.55649,-0.30241 -0.75968,-0.52845c-0.19982,-0.22604 -0.35138,-0.49517 -0.45467,-0.80758c-0.09991,-0.31589 -0.14986,-0.66301 -0.14986,-1.042c0,-0.23257 0.01715,-0.46516 0.05165,-0.69794c0.03429,-0.23257 0.08954,-0.45372 0.16532,-0.66302c0.07578,-0.21277 0.17399,-0.41043 0.29465,-0.59318c0.12383,-0.18275 0.27369,-0.34059 0.44959,-0.47373c0.17568,-0.13293 0.38058,-0.23748 0.6149,-0.31405c0.23431,-0.07637 0.50124,-0.11455 0.80096,-0.11455c0.76836,0 1.34706,0.23258 1.73632,0.69794c0.38927,0.46188 0.584,1.1249 0.584,1.98904v0.27423h-3.78276c0,0.27913 0.03091,0.52682 0.09293,0.74285c0.06201,0.21257 0.15685,0.39368 0.28427,0.54336c0.13103,0.1462 0.29465,0.25749 0.49086,0.33386c0.19982,0.07657 0.43583,0.11476 0.70803,0.11476c0.15155,0 0.30142,-0.01 0.44959,-0.03001c0.15155,-0.02308 0.29803,-0.05146 0.43921,-0.08474c0.14139,-0.03655 0.2756,-0.07636 0.40323,-0.11965c0.13081,-0.04308 0.25315,-0.08474 0.36682,-0.12456zM182.72918,191.20827c-0.02751,-0.53845 -0.16194,-0.93071 -0.40303,-1.17656c-0.23771,-0.24932 -0.5787,-0.37388 -1.02321,-0.37388c-0.4445,0 -0.78382,0.12456 -1.01813,0.37388c-0.23072,0.24585 -0.37021,0.6381 -0.41847,1.17656zM190.00532,188.93499c0.16892,0 0.34459,0.01327 0.52726,0.03982c0.18246,0.02328 0.36153,0.06983 0.53743,0.13967c0.17568,0.0731 0.341,0.17274 0.49595,0.29914c0.15854,0.12292 0.29803,0.28403 0.41868,0.48353c0.12065,0.20276 0.21527,0.44698 0.28427,0.73285c0.06879,0.2824 0.1033,0.61972 0.1033,1.01198c0,0.39205 -0.03451,0.73101 -0.1033,1.01688c-0.06901,0.2826 -0.16362,0.52355 -0.28427,0.72284c-0.12065,0.20276 -0.26014,0.36734 -0.41868,0.49354c-0.15494,0.1264 -0.32026,0.2244 -0.49595,0.29424c-0.1759,0.0731 -0.35497,0.12129 -0.53743,0.14457c-0.18268,0.02654 -0.35835,0.03982 -0.52726,0.03982c-0.16532,0 -0.3393,-0.01328 -0.52198,-0.03982c-0.17908,-0.02328 -0.35645,-0.07147 -0.53214,-0.14457c-0.17568,-0.06984 -0.34121,-0.16784 -0.49615,-0.29424c-0.15494,-0.12619 -0.29275,-0.29077 -0.4134,-0.49354c-0.12065,-0.1993 -0.21526,-0.44024 -0.28427,-0.72284c-0.06879,-0.28587 -0.10329,-0.62483 -0.10329,-1.01688c0,-0.39226 0.0345,-0.72958 0.10329,-1.01198c0.06901,-0.28587 0.16362,-0.53009 0.28427,-0.73285c0.12065,-0.1995 0.25846,-0.36061 0.4134,-0.48353c0.15494,-0.1264 0.32047,-0.22604 0.49615,-0.29914c0.17568,-0.06984 0.35306,-0.11639 0.53214,-0.13967c0.17928,-0.02654 0.35328,-0.03982 0.52198,-0.03982zM190.00532,189.63782c-0.19621,0 -0.38228,0.03001 -0.55796,0.08984c-0.1723,0.05983 -0.32385,0.16438 -0.45488,0.31405c-0.13441,0.15294 -0.24109,0.35713 -0.32047,0.61319c-0.07916,0.25585 -0.11874,0.58481 -0.11874,0.98707c0,0.39879 0.03958,0.72774 0.11874,0.98707c0.07938,0.25585 0.18606,0.45862 0.32047,0.60809c0.13103,0.15294 0.28258,0.25932 0.45488,0.31915c0.17568,0.05636 0.36175,0.08474 0.55796,0.08474c0.19982,0 0.38757,-0.02838 0.56325,-0.08474c0.17928,-0.05983 0.33592,-0.16621 0.47033,-0.31915c0.13441,-0.14947 0.2394,-0.35224 0.31518,-0.60809c0.07938,-0.25932 0.11896,-0.58828 0.11896,-0.98707c0,-0.40226 -0.03958,-0.73121 -0.11896,-0.98707c-0.07578,-0.25606 -0.18077,-0.46025 -0.31518,-0.61319c-0.13441,-0.14968 -0.29104,-0.25422 -0.47033,-0.31405c-0.17568,-0.05983 -0.36344,-0.08984 -0.56325,-0.08984zM194.72873,190.25102c0.10668,-0.20603 0.22035,-0.39205 0.341,-0.55826c0.12404,-0.16621 0.26015,-0.30752 0.40831,-0.4237c0.13441,-0.11312 0.28237,-0.19623 0.4443,-0.24932c0.16192,-0.05656 0.34629,-0.08474 0.55309,-0.08474c0.06879,0 0.14817,0.00326 0.23771,0.01001c0.09292,0.00654 0.18076,0.01817 0.26352,0.03492c-0.01376,0.16601 -0.03111,0.32222 -0.05164,0.46862c-0.01736,0.1462 -0.04149,0.29404 -0.0724,0.44351c-0.1723,-0.02982 -0.33083,-0.05145 -0.4754,-0.06473c-0.14119,-0.01327 -0.2756,-0.01001 -0.40302,0.01001c-0.15177,0.02654 -0.28427,0.07636 -0.39794,0.14946c-0.11028,0.06984 -0.21357,0.16459 -0.31009,0.28424c-0.09314,0.11639 -0.18437,0.25749 -0.27391,0.4237c-0.08954,0.16295 -0.18775,0.35059 -0.29464,0.56337v2.97612h-0.8888v-3.19542c0,-0.2095 -0.00338,-0.39389 -0.01037,-0.55337c-0.00338,-0.15968 -0.01376,-0.31078 -0.03091,-0.45371c-0.01376,-0.1462 -0.0362,-0.28914 -0.06731,-0.42881c-0.03091,-0.14273 -0.07218,-0.30077 -0.12403,-0.47352c0.14479,-0.03655 0.28596,-0.06983 0.42376,-0.09964c0.14139,-0.03001 0.28427,-0.0582 0.42906,-0.08474c0.04826,0.13293 0.08615,0.25095 0.11366,0.35386c0.03091,0.10312 0.05504,0.2044 0.0724,0.30405c0.01715,0.09638 0.02921,0.19623 0.0362,0.29914c0.01016,0.09985 0.02052,0.21604 0.0309,0.34897zM201.81353,192.22025c0,0.27239 0.00359,0.50171 0.01036,0.68793c0.00698,0.18275 0.01546,0.34387 0.02583,0.48354c0.01038,0.13967 0.02582,0.26586 0.04656,0.37898c0.02413,0.11292 0.05334,0.23747 0.08784,0.37387c-0.14479,0.03655 -0.28934,0.06963 -0.43413,0.09965c-0.14457,0.03328 -0.28936,0.06146 -0.43393,0.08474c-0.06901,-0.21604 -0.11896,-0.41369 -0.14986,-0.59318c-0.02772,-0.17948 -0.04148,-0.3557 -0.04148,-0.52845v-6.14172h0.8888zM205.52918,188.93499c0.16892,0 0.3446,0.01327 0.52706,0.03982c0.18268,0.02328 0.36174,0.06983 0.53743,0.13967c0.17568,0.0731 0.34121,0.17274 0.49615,0.29914c0.15854,0.12292 0.29804,0.28403 0.41869,0.48353c0.12044,0.20276 0.21527,0.44698 0.28406,0.73285c0.06901,0.2824 0.10351,0.61972 0.10351,1.01198c0,0.39205 -0.0345,0.73101 -0.10351,1.01688c-0.06879,0.2826 -0.16362,0.52355 -0.28406,0.72284c-0.12065,0.20276 -0.26015,0.36734 -0.41869,0.49354c-0.15494,0.1264 -0.32047,0.2244 -0.49615,0.29424c-0.17568,0.0731 -0.35475,0.12129 -0.53743,0.14457c-0.18246,0.02654 -0.35814,0.03982 -0.52706,0.03982c-0.16532,0 -0.33931,-0.01328 -0.52198,-0.03982c-0.17908,-0.02328 -0.35645,-0.07147 -0.53214,-0.14457c-0.17568,-0.06984 -0.34121,-0.16784 -0.49615,-0.29424c-0.15515,-0.12619 -0.29295,-0.29077 -0.41339,-0.49354c-0.12065,-0.1993 -0.21526,-0.44024 -0.28427,-0.72284c-0.06901,-0.28587 -0.1033,-0.62483 -0.1033,-1.01688c0,-0.39226 0.03429,-0.72958 0.1033,-1.01198c0.06901,-0.28587 0.16362,-0.53009 0.28427,-0.73285c0.12044,-0.1995 0.25824,-0.36061 0.41339,-0.48353c0.15494,-0.1264 0.32047,-0.22604 0.49615,-0.29914c0.17568,-0.06984 0.35306,-0.11639 0.53214,-0.13967c0.17928,-0.02654 0.35328,-0.03982 0.52198,-0.03982zM205.52918,189.63782c-0.19643,0 -0.3825,0.03001 -0.55818,0.08984c-0.17209,0.05983 -0.32385,0.16438 -0.45466,0.31405c-0.13441,0.15294 -0.24109,0.35713 -0.32047,0.61319c-0.07916,0.25585 -0.11874,0.58481 -0.11874,0.98707c0,0.39879 0.03958,0.72774 0.11874,0.98707c0.07938,0.25585 0.18606,0.45862 0.32047,0.60809c0.13081,0.15294 0.28257,0.25932 0.45466,0.31915c0.17568,0.05636 0.36175,0.08474 0.55818,0.08474c0.19982,0 0.38757,-0.02838 0.56325,-0.08474c0.17928,-0.05983 0.33592,-0.16621 0.47033,-0.31915c0.13441,-0.14947 0.2394,-0.35224 0.31518,-0.60809c0.07938,-0.25932 0.11896,-0.58828 0.11896,-0.98707c0,-0.40226 -0.03958,-0.73121 -0.11896,-0.98707c-0.07578,-0.25606 -0.18077,-0.46025 -0.31518,-0.61319c-0.13441,-0.14968 -0.29104,-0.25422 -0.47033,-0.31405c-0.17568,-0.05983 -0.36344,-0.08984 -0.56325,-0.08984zM209.60128,189.96698l-0.22733,-0.69793c0.57891,-0.22278 1.18514,-0.33406 1.81909,-0.33406c0.55457,0 0.97834,0.08964 1.27129,0.26913c0.33423,0.20603 0.50123,0.55663 0.50123,1.052v2.03887c0,0.27259 0.00339,0.55173 0.01038,0.8376c0.00338,0.16948 0.02053,0.34549 0.05165,0.52824c0.02751,0.17296 0.06371,0.33733 0.10859,0.49354l-0.84753,0.17948c-0.07938,-0.22257 -0.12933,-0.47189 -0.14986,-0.74776l-0.1035,-0.01001c-0.42715,0.51845 -0.97135,0.77778 -1.63282,0.77778c-0.48239,0 -0.86996,-0.12803 -1.16291,-0.38389c-0.29274,-0.25912 -0.43921,-0.62319 -0.43921,-1.09182c0,-0.34896 0.07938,-0.63463 0.23771,-0.8574c0.16192,-0.22257 0.38926,-0.41043 0.68221,-0.56337c0.46165,-0.24258 1.10766,-0.36387 1.93784,-0.36387c0.11028,0 0.25844,0.00326 0.4445,0.01v-0.75776c0,-0.23932 -0.07578,-0.41206 -0.22733,-0.51844c-0.15177,-0.10638 -0.38948,-0.15947 -0.71333,-0.15947c-0.47181,0 -0.9921,0.09964 -1.56065,0.29914zM212.10258,192.77852v-1.0469c-0.09314,-0.00654 -0.22923,-0.01 -0.40831,-0.01c-0.30311,0 -0.58231,0.02491 -0.83715,0.07493c-0.37889,0.0731 -0.67354,0.18929 -0.88373,0.34897c-0.20659,0.15621 -0.31009,0.38205 -0.31009,0.67792c0,0.53172 0.29972,0.79758 0.89917,0.79758c0.3101,0 0.59945,-0.07984 0.86827,-0.23932c0.22056,-0.13293 0.4445,-0.33406 0.67184,-0.60318zM217.8128,187.0556h0.88902v5.21938c0,0.58501 0.00846,0.96889 0.02582,1.15165c0.01715,0.22604 0.05674,0.46863 0.11875,0.72774l-0.8579,0.18459c-0.05842,-0.18622 -0.1016,-0.37387 -0.12911,-0.56337c-0.0345,-0.23257 -0.05335,-0.41206 -0.05673,-0.53845h-0.07768c-0.17908,0.35897 -0.37719,0.62319 -0.59416,0.79267c-0.26184,0.21604 -0.58569,0.32406 -0.97156,0.32406c-0.33762,0 -0.62887,-0.06984 -0.87335,-0.2093c-0.24469,-0.14293 -0.43582,-0.34079 -0.57362,-0.59338c-0.13441,-0.25259 -0.23432,-0.53009 -0.29973,-0.8325c-0.06201,-0.30241 -0.09314,-0.63647 -0.09314,-1.00197c0,-0.41207 0.04318,-0.78267 0.12933,-1.11163c0.08954,-0.32915 0.22563,-0.61993 0.40831,-0.87252c0.18246,-0.25585 0.42715,-0.45188 0.73365,-0.58828c0.30671,-0.13946 0.66676,-0.20929 1.08015,-0.20929c0.32385,0 0.70443,0.04145 1.14195,0.12456zM217.8128,192.13551v-2.31821c-0.38927,-0.09965 -0.74762,-0.14946 -1.07486,-0.14946c-0.27898,0 -0.52007,0.04982 -0.72348,0.14946c-0.19982,0.09638 -0.35645,0.23442 -0.47012,0.4139c-0.11388,0.17602 -0.19642,0.37387 -0.24807,0.59318c-0.05165,0.2193 -0.07769,0.46516 -0.07769,0.73775c0,0.18622 0.0036,0.3506 0.01037,0.49353c0.01038,0.13967 0.02583,0.29241 0.04657,0.45862c0.02413,0.16295 0.06033,0.30241 0.10859,0.4188c0.04826,0.11639 0.10837,0.2244 0.18076,0.32405c0.07239,0.09965 0.16532,0.17622 0.2792,0.22931c0.11705,0.04982 0.25146,0.07474 0.40302,0.07474c0.36513,0 0.68221,-0.1413 0.95082,-0.4237c0.19304,-0.20603 0.39793,-0.54009 0.6149,-1.00197zM223.79183,189.96698l-0.22733,-0.69793c0.57891,-0.22278 1.18514,-0.33406 1.81909,-0.33406c0.55457,0 0.97834,0.08964 1.27129,0.26913c0.33423,0.20603 0.50123,0.55663 0.50123,1.052v2.03887c0,0.27259 0.00339,0.55173 0.01038,0.8376c0.00338,0.16948 0.02053,0.34549 0.05165,0.52824c0.02751,0.17296 0.06371,0.33733 0.10859,0.49354l-0.84753,0.17948c-0.07938,-0.22257 -0.12933,-0.47189 -0.14987,-0.74776l-0.1035,-0.01001c-0.42715,0.51845 -0.97135,0.77778 -1.63282,0.77778c-0.48239,0 -0.86996,-0.12803 -1.16291,-0.38389c-0.29274,-0.25912 -0.43921,-0.62319 -0.43921,-1.09182c0,-0.34896 0.07938,-0.63463 0.23771,-0.8574c0.16192,-0.22257 0.38926,-0.41043 0.68221,-0.56337c0.46165,-0.24258 1.10766,-0.36387 1.93784,-0.36387c0.11028,0 0.25844,0.00326 0.4445,0.01v-0.75776c0,-0.23932 -0.07578,-0.41206 -0.22733,-0.51844c-0.15177,-0.10638 -0.38948,-0.15947 -0.71333,-0.15947c-0.47181,0 -0.9921,0.09964 -1.56064,0.29914zM226.29313,192.77852v-1.0469c-0.09314,-0.00654 -0.22924,-0.01 -0.40831,-0.01c-0.30311,0 -0.58231,0.02491 -0.83715,0.07493c-0.37889,0.0731 -0.67353,0.18929 -0.88372,0.34897c-0.20659,0.15621 -0.31009,0.38205 -0.31009,0.67792c0,0.53172 0.29972,0.79758 0.89917,0.79758c0.3101,0 0.59945,-0.07984 0.86827,-0.23932c0.22056,-0.13293 0.44451,-0.33406 0.67184,-0.60318zM236.73713,194.23421h-1.18345l-0.64601,-2.40785l-1.03866,2.40785h-1.168l-1.37457,-5.18957h0.8888l1.1318,4.56637l1.25054,-2.99102l-0.41847,-1.57535h0.8888l1.1627,4.56637c0.37212,-0.83086 0.63226,-1.45569 0.78043,-1.87429c0.17908,-0.50865 0.26862,-0.94561 0.26862,-1.31112c0,-0.31915 -0.08086,-0.74959 -0.24279,-1.29132c0.31348,-0.07637 0.59776,-0.13782 0.8526,-0.18438c0.14479,0.34243 0.23601,0.7112 0.2739,1.10672c0.01038,0.09965 0.01545,0.20113 0.01545,0.30405c0,0.5452 -0.15854,1.17982 -0.47541,1.9043c-0.08615,0.19276 -0.18436,0.40063 -0.29464,0.6232c-0.10668,0.2193 -0.23412,0.47536 -0.38228,0.76776c-0.14479,0.28913 -0.24109,0.4819 -0.28935,0.57828zM241.56891,188.93499c0.1687,0 0.34438,0.01327 0.52706,0.03982c0.18268,0.02328 0.36174,0.06983 0.53743,0.13967c0.17568,0.0731 0.341,0.17274 0.49615,0.29914c0.15854,0.12292 0.29804,0.28403 0.41848,0.48353c0.12065,0.20276 0.21548,0.44698 0.28427,0.73285c0.06901,0.2824 0.1033,0.61972 0.1033,1.01198c0,0.39205 -0.03429,0.73101 -0.1033,1.01688c-0.06879,0.2826 -0.16362,0.52355 -0.28427,0.72284c-0.12044,0.20276 -0.25993,0.36734 -0.41848,0.49354c-0.15515,0.1264 -0.32047,0.2244 -0.49615,0.29424c-0.17568,0.0731 -0.35475,0.12129 -0.53743,0.14457c-0.18268,0.02654 -0.35836,0.03982 -0.52706,0.03982c-0.16532,0 -0.3393,-0.01328 -0.52197,-0.03982c-0.17908,-0.02328 -0.35666,-0.07147 -0.53235,-0.14457c-0.17568,-0.06984 -0.341,-0.16784 -0.49595,-0.29424c-0.15515,-0.12619 -0.29295,-0.29077 -0.4136,-0.49354c-0.12044,-0.1993 -0.21528,-0.44024 -0.28406,-0.72284c-0.06901,-0.28587 -0.1035,-0.62483 -0.1035,-1.01688c0,-0.39226 0.0345,-0.72958 0.1035,-1.01198c0.06879,-0.28587 0.16363,-0.53009 0.28406,-0.73285c0.12065,-0.1995 0.25844,-0.36061 0.4136,-0.48353c0.15494,-0.1264 0.32026,-0.22604 0.49595,-0.29914c0.17568,-0.06984 0.35327,-0.11639 0.53235,-0.13967c0.17908,-0.02654 0.35306,-0.03982 0.52197,-0.03982zM241.56891,189.63782c-0.19643,0 -0.38249,0.03001 -0.55817,0.08984c-0.1723,0.05983 -0.32385,0.16438 -0.45466,0.31405c-0.13441,0.15294 -0.24131,0.35713 -0.32047,0.61319c-0.07916,0.25585 -0.11896,0.58481 -0.11896,0.98707c0,0.39879 0.0398,0.72774 0.11896,0.98707c0.07916,0.25585 0.18606,0.45862 0.32047,0.60809c0.13081,0.15294 0.28236,0.25932 0.45466,0.31915c0.17568,0.05636 0.36174,0.08474 0.55817,0.08474c0.19982,0 0.38758,-0.02838 0.56326,-0.08474c0.17908,-0.05983 0.33592,-0.16621 0.47033,-0.31915c0.1342,-0.14947 0.2394,-0.35224 0.31518,-0.60809c0.07916,-0.25932 0.11874,-0.58828 0.11874,-0.98707c0,-0.40226 -0.03958,-0.73121 -0.11874,-0.98707c-0.07578,-0.25606 -0.18098,-0.46025 -0.31518,-0.61319c-0.13441,-0.14968 -0.29125,-0.25422 -0.47033,-0.31405c-0.17568,-0.05983 -0.36345,-0.08984 -0.56326,-0.08984zM246.29211,190.25102c0.10689,-0.20603 0.22056,-0.39205 0.34121,-0.55826c0.12404,-0.16621 0.25993,-0.30752 0.4081,-0.4237c0.13441,-0.11312 0.28258,-0.19623 0.4445,-0.24932c0.16192,-0.05656 0.34629,-0.08474 0.55288,-0.08474c0.06901,0 0.14817,0.00326 0.23771,0.01001c0.09314,0.00654 0.18098,0.01817 0.26353,0.03492c-0.01376,0.16601 -0.03091,0.32222 -0.05165,0.46862c-0.01715,0.1462 -0.04128,0.29404 -0.07239,0.44351c-0.17209,-0.02982 -0.33062,-0.05145 -0.47541,-0.06473c-0.14119,-0.01327 -0.2756,-0.01001 -0.40302,0.01001c-0.15155,0.02654 -0.28427,0.07636 -0.39794,0.14946c-0.11028,0.06984 -0.21357,0.16459 -0.3101,0.28424c-0.09292,0.11639 -0.18415,0.25749 -0.2739,0.4237c-0.08954,0.16295 -0.18775,0.35059 -0.29443,0.56337v2.97612h-0.8888v-3.19542c0,-0.2095 -0.0036,-0.39389 -0.01037,-0.55337c-0.0036,-0.15968 -0.01376,-0.31078 -0.03111,-0.45371c-0.01376,-0.1462 -0.03619,-0.28914 -0.0671,-0.42881c-0.03111,-0.14273 -0.07239,-0.30077 -0.12404,-0.47352c0.14479,-0.03655 0.28596,-0.06983 0.42377,-0.09964c0.14119,-0.03001 0.28427,-0.0582 0.42884,-0.08474c0.04826,0.13293 0.08616,0.25095 0.11367,0.35386c0.03111,0.10312 0.05524,0.2044 0.07239,0.30405c0.01736,0.09638 0.02921,0.19623 0.0362,0.29914c0.01038,0.09985 0.02074,0.21604 0.03111,0.34897zM249.64094,187.0556h0.8888v4.31705l2.41854,-2.43766l0.58378,0.54826l-2.09278,2.07889l2.64058,2.67207h-1.10576l-2.44437,-2.49259v2.49259h-0.8888zM256.99964,188.93499c0.16892,0 0.3446,0.01327 0.52706,0.03982c0.18268,0.02328 0.36174,0.06983 0.53743,0.13967c0.1759,0.0731 0.34122,0.17274 0.49616,0.29914c0.15854,0.12292 0.29803,0.28403 0.41868,0.48353c0.12044,0.20276 0.21526,0.44698 0.28427,0.73285c0.06879,0.2824 0.10329,0.61972 0.10329,1.01198c0,0.39205 -0.0345,0.73101 -0.10329,1.01688c-0.06901,0.2826 -0.16383,0.52355 -0.28427,0.72284c-0.12065,0.20276 -0.26014,0.36734 -0.41868,0.49354c-0.15494,0.1264 -0.32026,0.2244 -0.49616,0.29424c-0.17568,0.0731 -0.35475,0.12129 -0.53743,0.14457c-0.18246,0.02654 -0.35814,0.03982 -0.52706,0.03982c-0.16532,0 -0.3393,-0.01328 -0.52197,-0.03982c-0.17908,-0.02328 -0.35646,-0.07147 -0.53214,-0.14457c-0.17568,-0.06984 -0.34121,-0.16784 -0.49615,-0.29424c-0.15494,-0.12619 -0.29274,-0.29077 -0.41339,-0.49354c-0.12065,-0.1993 -0.21526,-0.44024 -0.28427,-0.72284c-0.06879,-0.28587 -0.1033,-0.62483 -0.1033,-1.01688c0,-0.39226 0.03451,-0.72958 0.1033,-1.01198c0.06901,-0.28587 0.16362,-0.53009 0.28427,-0.73285c0.12065,-0.1995 0.25845,-0.36061 0.41339,-0.48353c0.15494,-0.1264 0.32047,-0.22604 0.49615,-0.29914c0.17568,-0.06984 0.35307,-0.11639 0.53214,-0.13967c0.17928,-0.02654 0.35327,-0.03982 0.52197,-0.03982zM256.99964,189.63782c-0.19643,0 -0.38227,0.03001 -0.55817,0.08984c-0.17209,0.05983 -0.32364,0.16438 -0.45466,0.31405c-0.13441,0.15294 -0.24109,0.35713 -0.32047,0.61319c-0.07916,0.25585 -0.11875,0.58481 -0.11875,0.98707c0,0.39879 0.03959,0.72774 0.11875,0.98707c0.07938,0.25585 0.18606,0.45862 0.32047,0.60809c0.13103,0.15294 0.28257,0.25932 0.45466,0.31915c0.1759,0.05636 0.36174,0.08474 0.55817,0.08474c0.19982,0 0.38757,-0.02838 0.56325,-0.08474c0.17928,-0.05983 0.33592,-0.16621 0.47033,-0.31915c0.13441,-0.14947 0.2394,-0.35224 0.31517,-0.60809c0.07938,-0.25932 0.11896,-0.58828 0.11896,-0.98707c0,-0.40226 -0.03958,-0.73121 -0.11896,-0.98707c-0.07578,-0.25606 -0.18076,-0.46025 -0.31517,-0.61319c-0.13441,-0.14968 -0.29105,-0.25422 -0.47033,-0.31405c-0.17568,-0.05983 -0.36344,-0.08984 -0.56325,-0.08984zM265.20078,194.14457l-0.85769,0.18438c-0.06561,-0.1995 -0.11198,-0.39225 -0.1397,-0.57827c-0.01376,-0.08638 -0.03091,-0.2626 -0.05165,-0.52846h-0.10838c-0.18966,0.33569 -0.42376,0.60318 -0.70295,0.80268c-0.3065,0.2193 -0.63035,0.32896 -0.97156,0.32896c-0.5133,0 -0.90425,-0.11965 -1.17307,-0.35897c-0.23072,-0.20276 -0.39096,-0.51335 -0.48049,-0.93215c-0.05863,-0.28587 -0.08784,-0.7112 -0.08784,-1.2762v-2.73701h0.8888v2.97632c0,0.49517 0.04995,0.84904 0.14986,1.06181c0.14817,0.31569 0.4462,0.47352 0.89409,0.47352c0.31687,0 0.62696,-0.1462 0.93008,-0.4386c0.20342,-0.19623 0.42037,-0.48353 0.65109,-0.86252v-3.21052h0.88901v3.20052c0,0.44207 0.01206,0.82595 0.03619,1.15165c0.01376,0.20276 0.05842,0.45024 0.1342,0.74285zM267.21629,187.86319h0.8888v1.18635h1.80872v0.72285h-1.80872v2.97632c0,0.1993 0.00508,0.35223 0.01546,0.45862c0.01376,0.10291 0.04487,0.18438 0.09313,0.24421c0.08954,0.11965 0.27031,0.17948 0.54251,0.17948c0.15155,0 0.29804,-0.01491 0.43922,-0.04493c0.14479,-0.02982 0.27749,-0.06309 0.39793,-0.09965c0.09652,0.20276 0.18437,0.42534 0.26353,0.66792c-0.40641,0.13293 -0.81642,0.1995 -1.2298,0.1995c-0.29973,0 -0.54102,-0.03329 -0.72348,-0.09965c-0.17908,-0.0633 -0.32047,-0.16785 -0.42376,-0.31405c-0.10689,-0.15294 -0.17739,-0.33568 -0.21188,-0.54845c-0.0345,-0.21277 -0.05165,-0.50681 -0.05165,-0.88232v-2.737h-0.77513v-0.72285h0.77513z" fill="#ffffff" stroke="#000000" stroke-width="0"/></g></g></svg>