<svg version="1.1" xmlns="http://www.w3.org/2000/svg" xmlns:xlink="http://www.w3.org/1999/xlink" width="32.82708" height="32.82708" viewBox="0,0,32.82708,32.82708"><g transform="translate(-223.58646,-163.58646)"><g data-paper-data="{&quot;isPaintingLayer&quot;:true}" fill-rule="nonzero" stroke-linecap="butt" stroke-linejoin="miter" stroke-miterlimit="10" stroke-dasharray="" stroke-dashoffset="0" style="mix-blend-mode: normal"><path d="M223.58646,180c0,-9.06495 7.34859,-16.41354 16.41354,-16.41354c9.06495,0 16.41354,7.34859 16.41354,16.41354c0,9.06495 -7.34859,16.41354 -16.41354,16.41354c-9.06495,0 -16.41354,-7.34859 -16.41354,-16.41354z" fill="#00bfdf" stroke="#000000" stroke-width="0"/><path d="M248.91851,178.79479c0.66561,0 1.2052,0.53959 1.2052,1.2052c0,0.66561 -0.53959,1.2052 -1.2052,1.2052zM230.22928,180.85222c-0.47066,-0.47066 -0.47066,-1.23379 0,-1.70445l7.66986,-7.66986c0.47066,-0.47066 1.23379,-0.47066 1.70445,0c0.47066,0.47066 0.47066,1.23375 0,1.70443l-6.81769,6.81765l6.81769,6.81765c0.47066,0.47066 0.47066,1.23379 0,1.70445c-0.47066,0.47066 -1.23379,0.47066 -1.70445,0zM248.91851,181.2052h-17.83702v-2.41041h17.83702z" fill="#ffffff" stroke="#ffffff" stroke-width="1.5"/></g></g></svg>