<svg version="1.1" xmlns="http://www.w3.org/2000/svg" xmlns:xlink="http://www.w3.org/1999/xlink" width="3.08789" height="10.0996" viewBox="0,0,3.08789,10.0996"><g transform="translate(-238.45606,-171.7754)"><g data-paper-data="{&quot;isPaintingLayer&quot;:true}" fill="#ffffff" fill-rule="nonzero" stroke="#ffffff" stroke-width="0.5" stroke-linecap="butt" stroke-linejoin="miter" stroke-miterlimit="10" stroke-dasharray="" stroke-dashoffset="0" style="mix-blend-mode: normal"><path d="M238.84766,180.67774c0.46224,0 0.81868,-0.12695 1.06933,-0.38086c0.25391,-0.25065 0.38086,-0.60709 0.38086,-1.06933v-4.79981c0,-0.22786 -0.03255,-0.43131 -0.09765,-0.61035c-0.06511,-0.17903 -0.16114,-0.3304 -0.28809,-0.4541c-0.1237,-0.12695 -0.27506,-0.22298 -0.4541,-0.28809c-0.17904,-0.0651 -0.38249,-0.09765 -0.61035,-0.09765h-0.1416v-0.95215h0.1416c0.37109,0 0.70801,0.05859 1.01074,0.17578c0.30273,0.11393 0.5599,0.27832 0.77148,0.49317c0.21159,0.21158 0.37435,0.46875 0.48829,0.77148c0.11718,0.30273 0.17578,0.63965 0.17578,1.01074v4.69727c0,0.37109 -0.0586,0.70801 -0.17578,1.01074c-0.11394,0.30273 -0.2767,0.5599 -0.48829,0.77148c-0.21158,0.21485 -0.46875,0.37924 -0.77148,0.49317c-0.30273,0.11717 -0.63965,0.17577 -1.01074,0.17577h-0.1416v-0.94726z"/></g></g></svg>