<svg xmlns="http://www.w3.org/2000/svg" fill="none" viewBox="0 0 14 18" height="18" width="14">
<path fill="black" d="M2.50439 2.99756V5.25586H0.00195312V2.99756C0.00195312 2.65576 0.0670573 2.33431 0.197266 2.0332C0.327474 1.72396 0.50651 1.45947 0.734375 1.23975C0.96224 1.01188 1.22673 0.832845 1.52783 0.702637C1.83708 0.56429 2.1626 0.495117 2.50439 0.495117H10.4268C10.7686 0.495117 11.09 0.56429 11.3911 0.702637C11.7004 0.832845 11.9648 1.01188 12.1846 1.23975C12.4124 1.45947 12.5915 1.72396 12.7217 2.0332C12.86 2.33431 12.9292 2.65576 12.9292 2.99756V6.1958C12.9292 6.5376 12.8966 6.84277 12.8315 7.11133C12.7664 7.37988 12.6606 7.62402 12.5142 7.84375C12.3758 8.05534 12.1968 8.24658 11.9771 8.41748C11.7573 8.58838 11.4888 8.75114 11.1714 8.90576L2.50439 12.9707V15.4976H10.7441V13.2515H13.2466V18H0.00195312V13.3979C0.00195312 13.0562 0.0345052 12.751 0.0996094 12.4824C0.172852 12.2139 0.278646 11.9738 0.416992 11.7622C0.555339 11.5506 0.734375 11.3594 0.954102 11.1885C1.18197 11.0094 1.44645 10.8467 1.74756 10.7002L10.4268 6.62305V2.99756H2.50439Z"></path>
</svg>
