<svg version="1.1" xmlns="http://www.w3.org/2000/svg" xmlns:xlink="http://www.w3.org/1999/xlink" width="17.16" height="23.10555" viewBox="0,0,17.16,23.10555"><g transform="translate(-231.16635,-168.69478)"><g data-paper-data="{&quot;isPaintingLayer&quot;:true}" fill="#ffffff" fill-rule="nonzero" stroke="none" stroke-width="1" stroke-linecap="butt" stroke-linejoin="miter" stroke-miterlimit="10" stroke-dasharray="" stroke-dashoffset="0" style="mix-blend-mode: normal"><path d="M248.32635,188.49729c0,0.45116 -0.08593,0.8808 -0.25779,1.28893c-0.17186,0.39744 -0.40826,0.74656 -0.70894,1.04738c-0.30082,0.30068 -0.65535,0.53709 -1.06348,0.70894c-0.39744,0.17186 -0.8218,0.25779 -1.27296,0.25779h-10.55373c-0.45116,0 -0.88083,-0.08593 -1.28902,-0.25779c-0.39744,-0.17186 -0.74655,-0.40826 -1.04732,-0.70894c-0.30077,-0.30082 -0.53709,-0.64994 -0.70896,-1.04738c-0.17187,-0.40813 -0.2578,-0.83777 -0.2578,-1.28893v-2.96474h3.3031v2.96474h10.55373v-6.59011h-10.55373c-0.45116,0 -0.88083,-0.08593 -1.28902,-0.25779c-0.39744,-0.18268 -0.74655,-0.41896 -1.04732,-0.709c-0.30077,-0.30076 -0.53709,-0.64988 -0.70896,-1.04733c-0.17187,-0.40818 -0.2578,-0.83785 -0.2578,-1.28901v-6.60618c0,-0.45116 0.08593,-0.87546 0.2578,-1.27291c0.17187,-0.40818 0.40819,-0.75729 0.70896,-1.04731c0.30077,-0.30078 0.64988,-0.53709 1.04732,-0.70896c0.40819,-0.18261 0.83786,-0.27392 1.28902,-0.27392h10.55373c0.45116,0 0.87552,0.09131 1.27296,0.27392c0.40813,0.17187 0.76267,0.40819 1.06348,0.70896c0.30068,0.29002 0.53709,0.63913 0.70894,1.04731c0.17186,0.39745 0.25779,0.82175 0.25779,1.27291zM245.02318,178.60407v-6.60618h-10.55373v6.60618z"/></g></g></svg>