<svg version="1.1" xmlns="http://www.w3.org/2000/svg" xmlns:xlink="http://www.w3.org/1999/xlink" width="13.03923" height="17.60655" viewBox="0,0,13.03923,17.60655"><g transform="translate(-233.42301,-171.19674)"><g data-paper-data="{&quot;isPaintingLayer&quot;:true}" fill="#83a837" fill-rule="nonzero" stroke="#83a837" stroke-width="1" stroke-linecap="butt" stroke-linejoin="miter" stroke-miterlimit="10" stroke-dasharray="" stroke-dashoffset="0" style="mix-blend-mode: normal"><path d="M240.25605,188.30329c-1.5119,0 -2.82872,-0.33327 -3.95045,-0.99981c-1.10548,-0.68279 -1.86143,-1.63383 -2.26785,-2.8531l2.53613,-1.19489c0.14631,0.58525 0.37391,1.08922 0.68279,1.5119c0.30888,0.42268 0.71531,0.74782 1.21928,0.97542c0.50397,0.21134 1.12986,0.31701 1.87768,0.31701c0.63402,0 1.1705,-0.1138 1.60944,-0.3414c0.43894,-0.2276 0.77221,-0.54461 0.99981,-0.95103c0.24386,-0.40643 0.36578,-0.86975 0.36578,-1.38997c0,-0.53648 -0.10567,-0.98355 -0.31701,-1.3412c-0.19508,-0.35765 -0.5121,-0.61777 -0.95103,-0.78034c-0.42268,-0.16257 -0.96729,-0.24386 -1.63383,-0.24386c-0.19508,0 -0.3983,0.00813 -0.60964,0.02439c-0.19508,0 -0.40643,0.01626 -0.63402,0.04877v-2.1947c0.14631,0.01626 0.2845,0.03251 0.41455,0.04877c0.14631,0 0.2845,0 0.41455,0c1.05671,0 1.81266,-0.21134 2.26785,-0.63402c0.4552,-0.42268 0.68279,-1.08109 0.68279,-1.97523c0,-0.76408 -0.23573,-1.34933 -0.70718,-1.75576c-0.4552,-0.40643 -1.1136,-0.60964 -1.97523,-0.60964c-0.89414,0 -1.59319,0.21134 -2.09715,0.63402c-0.48771,0.40643 -0.86162,0.99981 -1.12173,1.78014l-2.38982,-0.99981c0.2276,-0.74782 0.60964,-1.3981 1.14612,-1.95084c0.53648,-0.55274 1.19489,-0.97542 1.97523,-1.26805c0.79659,-0.30888 1.66634,-0.46332 2.60925,-0.46332c1.15425,0 2.11341,0.18696 2.87749,0.56087c0.78034,0.37391 1.35746,0.88601 1.73137,1.53629c0.39017,0.65028 0.58525,1.37372 0.58525,2.17031c0,0.61777 -0.08941,1.16238 -0.26824,1.63383c-0.17883,0.4552 -0.42268,0.85349 -0.73157,1.19489c-0.29263,0.32514 -0.61777,0.57712 -0.97542,0.75595c-0.3414,0.17883 -0.69092,0.30075 -1.04858,0.36578v0.04877c0.47145,0.01626 0.90226,0.1138 1.29243,0.29263c0.40643,0.16257 0.76408,0.3983 1.07296,0.70718c0.32514,0.29263 0.57712,0.65028 0.75595,1.07296c0.17883,0.42268 0.26824,0.88601 0.26824,1.38997c0,0.97542 -0.24386,1.82891 -0.73157,2.56048c-0.48771,0.73157 -1.16238,1.30056 -2.024,1.70699c-0.84536,0.40643 -1.82891,0.60964 -2.95065,0.60964z"/></g></g></svg>