<svg version="1.1" xmlns="http://www.w3.org/2000/svg" xmlns:xlink="http://www.w3.org/1999/xlink" width="35.75" height="35.75" viewBox="0,0,35.75,35.75"><defs><radialGradient cx="235.68118" cy="183.57989" r="17.875" gradientUnits="userSpaceOnUse" id="color-1"><stop offset="0" stop-color="#ffffff" stop-opacity="0.13992"/><stop offset="1" stop-color="#ffffff" stop-opacity="0"/></radialGradient></defs><g transform="translate(-217.80618,-165.70489)"><g data-paper-data="{&quot;isPaintingLayer&quot;:true}" fill-rule="nonzero" stroke-linecap="butt" stroke-linejoin="miter" stroke-miterlimit="10" stroke-dasharray="" stroke-dashoffset="0" style="mix-blend-mode: normal"><path d="M217.80618,183.57989c0,-9.87209 8.00291,-17.875 17.875,-17.875c9.87209,0 17.875,8.00291 17.875,17.875c0,9.87209 -8.00291,17.875 -17.875,17.875c-9.87209,0 -17.875,-8.00291 -17.875,-17.875z" fill="url(#color-1)" stroke="#ffffff" stroke-width="0"/><path d="M236.14759,178.4979c0,-3.34881 2.5525,-6.06358 5.70114,-6.06358c3.14864,0 5.70115,2.71478 5.70115,6.06358c0,3.34881 -2.5525,6.06358 -5.70115,6.06358c-3.14864,0 -5.70114,-2.71477 -5.70114,-6.06358z" fill="none" stroke-opacity="0.70101" stroke="#ffffff" stroke-width="1"/><path d="M233.85144,175.61177l0.62603,0.15893zM243.29554,188.34104c-4.36517,0 -9.55683,-0.74551 -10.77859,-4.9613c-0.27901,-0.96274 1.07079,-4.30375 1.07079,-5.3639h1.28637c0,4.94678 3.76906,8.95704 8.42143,8.95704zM233.58774,178.01584c0,-0.82682 0.09004,-1.63197 0.2637,-2.40407l1.25207,0.31765c-0.15007,0.66857 -0.2294,1.36723 -0.2294,2.08643zM226.70137,183.30375c0,-4.41935 2.61133,-8.1886 6.27748,-9.66231l1.51702,1.4049c-1.2467,0.50091 0.39796,4.93232 -0.48557,5.95822c-0.43952,0.51035 6.16005,6.4406 5.30885,6.52635c-0.21499,0.02166 5.08049,-0.19837 4.69715,1.2176c-0.11845,0.43751 -1.20733,1.88908 -2.77803,2.70641c-1.48484,0.77265 -3.45342,0.91868 -3.64817,1.12104c-1.25992,1.30915 -6.88162,-1.97819 -7.71225,-2.31149c-2.16084,-0.86704 -1.89011,-7.88751 -1.89011,-6.96071zM236.40917,193.62916c-5.36202,0 -9.70781,-4.62297 -9.70781,-10.32541h1.28637c0,4.94699 3.77121,8.95727 8.42144,8.95727zM244.4447,189.10013c-1.74517,2.73197 -4.69311,4.52903 -8.03552,4.52903v-1.36814c2.89862,0 5.45635,-1.55673 6.97212,-3.92978zM233.85144,175.61177c0.05146,-0.23144 -0.01286,-0.46061 -0.1222,-0.59651c-0.05146,-0.06408 -0.10291,-0.09485 -0.1415,-0.10739c-0.03216,-0.01049 -0.08147,-0.01574 -0.15437,0.01346l-0.45452,-1.2799c0.69464,-0.27865 1.33783,-0.00045 1.72803,0.48569c0.37519,0.46723 0.54242,1.14422 0.39663,1.80231zM243.29554,186.97288c0.49096,0 0.91976,0.27226 1.15988,0.66629c0.2487,0.40724 0.30229,0.97162 -0.01072,1.46095l-1.0634,-0.76891c0,-0.00227 -0.00214,0.00092 -0.00429,0.00911c-0.00215,0.00821 -0.00214,0.01732 -0.00214,0.02598c0,0.01756 0.00429,0.02234 0,0.01574c-0.00429,-0.00684 -0.01287,-0.01801 -0.02787,-0.02715c-0.01501,-0.00844 -0.03216,-0.01391 -0.05146,-0.01391z" fill="#ffffff" stroke="#000000" stroke-width="0"/><path d="M233.81321,175.57484l0.62603,0.15893zM240.30079,189.39107c-4.36517,0 -9.55683,-0.74551 -10.77859,-4.9613c-0.27901,-0.96274 1.07079,-4.30375 1.07079,-5.3639h1.28637c0,4.94678 3.76906,8.95704 8.42143,8.95704zM227.96749,183.13639c0,-4.41935 1.35046,-6.53642 5.01661,-8.01013l0.51702,-0.16032c0.29165,0.04012 0.52358,-0.3202 0.31249,0.48666c-0.45717,1.7474 -0.36181,4.37163 0.15847,5.47156c0.43005,2.29296 3.55136,5.96234 5.30885,6.4394c0.57103,0.22448 2.71263,1.10989 4.13193,0.95673c-0.98801,1.35055 -1.33777,1.88908 -2.90847,2.70641c-1.48484,0.77265 -2.23603,1.09259 -3.47426,1.20799c-2.21644,0.09176 -5.44683,-0.97819 -6.79921,-3.00714c-2.11736,-1.56269 -2.28142,-6.88751 -2.28142,-5.96071z" fill="#ffffff" stroke="none" stroke-width="1"/></g></g></svg>