<svg version="1.1" xmlns="http://www.w3.org/2000/svg" xmlns:xlink="http://www.w3.org/1999/xlink" width="124.53418" height="17.53249" viewBox="0,0,124.53418,17.53249"><g transform="translate(-240.25584,-167.47308)"><g data-paper-data="{&quot;isPaintingLayer&quot;:true}" fill="#83a837" fill-rule="nonzero" stroke="none" stroke-width="1" stroke-linecap="butt" stroke-linejoin="miter" stroke-miterlimit="10" stroke-dasharray="" stroke-dashoffset="0" style="mix-blend-mode: normal"><path d="M251.35777,176.1145c0.35659,0.11097 0.68149,0.26944 0.97467,0.47547c0.29322,0.20603 0.54282,0.47149 0.74888,0.79639c0.20603,0.31699 0.3645,0.69338 0.47543,1.12921c0.11097,0.43583 0.16643,0.93507 0.16643,1.49769v0.85583c0,2.75766 -1.37885,4.13647 -4.13647,4.13647h-9.33086v-17.04515h8.84351c2.75766,0 4.13647,1.3828 4.13647,4.14837v0.30904c0,0.95885 -0.1545,1.74335 -0.46358,2.35352c-0.30113,0.60226 -0.77262,1.04997 -1.41447,1.34315zM242.64501,177.57657v5.03982h6.87036c0.64185,0 1.10543,-0.15056 1.3907,-0.45169c0.2853,-0.30109 0.42792,-0.77258 0.42792,-1.41447v-1.31937c0,-0.64981 -0.14261,-1.1213 -0.42792,-1.41451c-0.28526,-0.29318 -0.74884,-0.43976 -1.3907,-0.43976zM242.64501,170.34962v4.84966h6.54943c0.58639,-0.02378 1.00636,-0.18225 1.25993,-0.47547c0.26153,-0.30113 0.39225,-0.76073 0.39225,-1.37881v-1.11732c0,-0.64981 -0.14261,-1.12527 -0.42788,-1.4264c-0.2853,-0.30113 -0.74884,-0.45165 -1.39074,-0.45165zM257.13458,172.34651h2.32975v10.31743h6.52566v-10.31743h2.34159v12.65906h-2.34159v-2.13954c-0.02378,0.29318 -0.10301,0.57053 -0.23775,0.83202c-0.1347,0.26153 -0.30904,0.49133 -0.52298,0.68945c-0.20607,0.19016 -0.44378,0.34073 -0.71322,0.45165c-0.2694,0.11097 -0.55466,0.16643 -0.85579,0.16643h-4.19591c-0.31699,0 -0.61812,-0.05944 -0.90338,-0.17832c-0.28526,-0.12679 -0.53487,-0.29318 -0.74884,-0.4992c-0.20603,-0.21398 -0.37245,-0.46358 -0.49924,-0.74884c-0.11884,-0.2853 -0.17827,-0.59037 -0.17827,-0.91527zM274.56009,174.68814v10.31743h-2.32975v-12.65906h2.32975v2.23464c0.01586,-0.30904 0.08715,-0.59828 0.21398,-0.86768c0.12675,-0.27735 0.29318,-0.51511 0.4992,-0.71318c0.21398,-0.20607 0.4596,-0.36454 0.73696,-0.47547c0.27735,-0.11888 0.5745,-0.17832 0.8915,-0.17832h2.48429c0.32498,0 0.62603,0.06341 0.90314,0.1902c0.28563,0.11884 0.53515,0.28526 0.74897,0.4992c0.21422,0.20607 0.38057,0.45169 0.49945,0.737c0.12659,0.28526 0.18988,0.59033 0.18988,0.91523v2.13958h-2.34143v-2.13958zM295.83688,185.00557h-2.34184v-10.31743h-6.52566v10.31743h-2.32967v-12.65906h2.32967v2.23464c0.01582,-0.30904 0.08723,-0.59828 0.21422,-0.86768c0.12659,-0.27735 0.29293,-0.51511 0.49904,-0.71318c0.21382,-0.20607 0.45968,-0.36454 0.7372,-0.47547c0.27711,-0.11888 0.5745,-0.17832 0.89137,-0.17832h4.18382c0.32498,0 0.63009,0.06341 0.91531,0.1902c0.28522,0.11884 0.53109,0.28526 0.7372,0.4992c0.21382,0.20607 0.38016,0.45169 0.49904,0.737c0.12699,0.28526 0.19028,0.59033 0.19028,0.91523zM307.27139,170.39713c0,-0.33282 0.0637,-0.64583 0.19028,-0.93901c0.12699,-0.30113 0.30105,-0.55868 0.52298,-0.77262c0.22193,-0.22188 0.47957,-0.39621 0.7729,-0.523c0.30105,-0.13471 0.61792,-0.20207 0.95061,-0.20207h9.24766c0.3331,0 0.64591,0.06736 0.93925,0.20207c0.30105,0.12679 0.56233,0.30112 0.78426,0.523c0.22193,0.21394 0.39639,0.4715 0.52298,0.77262c0.12699,0.29318 0.19028,0.60619 0.19028,0.93901v2.19902h-2.43678v-2.19902h-9.24766v12.17171h9.24766v-4.13647h-4.62363v-2.43669h7.0604v6.57317c0,0.33286 -0.06329,0.64981 -0.19028,0.95094c-0.12659,0.29318 -0.30105,0.55073 -0.52298,0.77262c-0.22193,0.22189 -0.48322,0.39623 -0.78426,0.52298c-0.29334,0.12683 -0.60615,0.1902 -0.93925,0.1902h-9.24766c-0.33269,0 -0.64956,-0.06337 -0.95061,-0.1902c-0.29334,-0.12675 -0.55097,-0.30109 -0.7729,-0.52298c-0.22193,-0.22189 -0.39599,-0.47944 -0.52298,-0.77262c-0.12659,-0.30113 -0.19028,-0.61808 -0.19028,-0.95094zM336.4766,182.66394c0,0.3249 -0.06329,0.62997 -0.19028,0.91527c-0.11888,0.28526 -0.28522,0.53487 -0.49904,0.74884c-0.20611,0.20603 -0.45198,0.37241 -0.7372,0.4992c-0.27711,0.11888 -0.57856,0.17832 -0.90314,0.17832h-6.2879c-0.31728,0 -0.61832,-0.05944 -0.90355,-0.17832c-0.28522,-0.12679 -0.53474,-0.29318 -0.74897,-0.4992c-0.2057,-0.21398 -0.37245,-0.46358 -0.49904,-0.74884c-0.11888,-0.2853 -0.17852,-0.59037 -0.17852,-0.91527v-7.9758c0,-0.3249 0.05964,-0.62997 0.17852,-0.91523c0.12659,-0.2853 0.29334,-0.53093 0.49904,-0.737c0.21422,-0.21394 0.46374,-0.38037 0.74897,-0.4992c0.28522,-0.12679 0.58627,-0.1902 0.90355,-0.1902h6.2879c0.32458,0 0.62603,0.06341 0.90314,0.1902c0.28522,0.11884 0.53109,0.28526 0.7372,0.4992c0.21382,0.20607 0.38016,0.45169 0.49904,0.737c0.12699,0.28526 0.19028,0.59033 0.19028,0.91523zM327.85903,174.68814v7.9758h6.2879v-7.9758zM340.38737,179.4784c0,-0.3249 0.05924,-0.62603 0.17811,-0.90338c0.12659,-0.28526 0.29334,-0.53491 0.49904,-0.74884c0.21422,-0.21398 0.46374,-0.38037 0.74897,-0.49924c0.28522,-0.12679 0.58627,-0.19016 0.90355,-0.19016h6.03798v-2.44862h-7.64262v-2.34163h7.64262c0.32498,0 0.63009,0.06341 0.91531,0.1902c0.28522,0.11884 0.53109,0.28526 0.7372,0.4992c0.21382,0.20607 0.38016,0.45169 0.49904,0.737c0.12699,0.28526 0.19028,0.59033 0.19028,0.91523v10.31743h-2.34184v-2.13954c-0.02353,0.29318 -0.10265,0.57053 -0.23735,0.83202c-0.1347,0.26153 -0.30916,0.49133 -0.52298,0.68945c-0.20611,0.19016 -0.44386,0.34073 -0.71326,0.45165c-0.2694,0.11097 -0.55503,0.16643 -0.85608,0.16643h-3.70831c-0.31728,0 -0.61832,-0.05944 -0.90355,-0.17832c-0.28522,-0.12679 -0.53474,-0.29318 -0.74897,-0.4992c-0.2057,-0.21398 -0.37245,-0.46358 -0.49904,-0.74884c-0.11888,-0.2853 -0.17811,-0.59037 -0.17811,-0.91527zM342.71703,182.66394h6.03798v-3.18554h-6.03798zM357.33728,167.47308v17.53249h-2.32967v-17.53249zM361.23588,181.45151h3.55414v3.55406h-3.55414zM361.23588,172.34651h3.55414v3.55406h-3.55414z"/></g></g></svg>