<svg version="1.1" xmlns="http://www.w3.org/2000/svg" xmlns:xlink="http://www.w3.org/1999/xlink" width="142.87818" height="44.79644" viewBox="0,0,142.87818,44.79644"><g transform="translate(-176.31736,-156.77617)"><g data-paper-data="{&quot;isPaintingLayer&quot;:true}" fill-rule="nonzero" stroke-linecap="butt" stroke-linejoin="miter" stroke-miterlimit="10" stroke-dasharray="" stroke-dashoffset="0" style="mix-blend-mode: normal"><text transform="translate(295.0671,191.46511) scale(0.88221,0.8086)" font-size="40" xml:space="preserve" fill="#acacac" fill-rule="nonzero" stroke="none" stroke-width="1" stroke-linecap="butt" stroke-linejoin="miter" stroke-miterlimit="10" stroke-dasharray="" stroke-dashoffset="0" font-family="Sans Serif" font-weight="normal" text-anchor="start" style="mix-blend-mode: normal"><tspan x="0" dy="0">#</tspan></text><path d="M176.31736,182.12274c0,-0.10069 0.01704,-0.19531 0.05108,-0.28404c0.03405,-0.09103 0.08087,-0.16899 0.14046,-0.2337c0.05958,-0.0671 0.12876,-0.11984 0.2075,-0.15822c0.08087,-0.04068 0.166,-0.06112 0.25539,-0.06112h2.48367c0.08939,0 0.17345,0.02043 0.2522,0.06112c0.08087,0.03838 0.1511,0.09112 0.21069,0.15822c0.05959,0.06471 0.10642,0.14267 0.14047,0.2337c0.03404,0.08873 0.05108,0.18335 0.05108,0.28404v0.66519h-0.65444v-0.66519h-2.48367v3.68171h2.48367v-0.66151h0.65444v0.66151c0,0.10069 -0.01704,0.1966 -0.05108,0.28763c-0.03405,0.08873 -0.08088,0.1666 -0.14047,0.2337c-0.05959,0.0671 -0.12982,0.11984 -0.21069,0.15822c-0.07874,0.03838 -0.16281,0.05753 -0.2522,0.05753h-2.48367c-0.08938,0 -0.17452,-0.01914 -0.25539,-0.05753c-0.07874,-0.03838 -0.14791,-0.09112 -0.2075,-0.15822c-0.05959,-0.0671 -0.10641,-0.14497 -0.14046,-0.2337c-0.03404,-0.09103 -0.05108,-0.18694 -0.05108,-0.28763zM184.03336,185.83326c0,0.09821 -0.01699,0.19053 -0.05107,0.27677c-0.03196,0.08634 -0.07666,0.16181 -0.13412,0.22652c-0.05533,0.06241 -0.12129,0.11266 -0.19791,0.15104c-0.0745,0.03599 -0.15537,0.05394 -0.24262,0.05394h-1.68876c-0.08513,0 -0.16601,-0.01795 -0.24263,-0.05394c-0.07662,-0.03838 -0.14365,-0.08864 -0.20111,-0.15104c-0.05534,-0.06471 -0.10003,-0.14018 -0.13408,-0.22652c-0.03192,-0.08624 -0.04789,-0.17856 -0.04789,-0.27677v-2.41253c0,-0.0983 0.01596,-0.19062 0.04789,-0.27686c0.03405,-0.08634 0.07874,-0.16061 0.13408,-0.22293c0.05746,-0.06471 0.1245,-0.11505 0.20111,-0.15104c0.07662,-0.03829 0.1575,-0.05753 0.24263,-0.05753h1.68876c0.08726,0 0.16813,0.01924 0.24262,0.05753c0.07662,0.03599 0.14258,0.08634 0.19791,0.15104c0.05745,0.06231 0.10216,0.13659 0.13412,0.22293c0.03408,0.08624 0.05107,0.17856 0.05107,0.27686zM181.71887,183.42073v2.41253h1.68876v-2.41253zM187.77799,183.42073v3.1208h-0.62888v-3.1208h-1.43975v3.1208h-0.62577v-3.82916h0.62577v0.67596c0.00425,-0.09342 0.02337,-0.18096 0.05745,-0.26241c0.034,-0.08394 0.0787,-0.15583 0.13403,-0.21575c0.05753,-0.06231 0.12348,-0.11027 0.19794,-0.14386c0.07453,-0.0359 0.15429,-0.05394 0.23945,-0.05394h0.81087c0.08296,0 0.16174,0.01804 0.23627,0.05394c0.07445,0.0336 0.1404,0.08155 0.19785,0.14386c0.05745,0.05992 0.10322,0.13181 0.1373,0.21575c0.0362,0.08146 0.05533,0.16899 0.05745,0.26241c0.00425,-0.09342 0.02239,-0.18096 0.05427,-0.26241c0.03408,-0.08394 0.07878,-0.15583 0.13412,-0.21575c0.05745,-0.06231 0.1234,-0.11027 0.19794,-0.14386c0.07445,-0.0359 0.15429,-0.05394 0.23938,-0.05394h0.81087c0.08728,0 0.16925,0.01924 0.24583,0.05753c0.07666,0.03599 0.14261,0.08634 0.19794,0.15104c0.05745,0.06231 0.10216,0.13659 0.13412,0.22293c0.034,0.08624 0.05108,0.17856 0.05108,0.27686v3.1208h-0.62896v-3.1208zM193.90099,185.83326c0,0.09821 -0.017,0.19053 -0.05108,0.27677c-0.03196,0.08634 -0.07658,0.16181 -0.13411,0.22652c-0.05533,0.06241 -0.12128,0.11266 -0.19786,0.15104c-0.07666,0.03599 -0.15862,0.05394 -0.24583,0.05394h-1.75267v1.54604h-0.62569v-5.37521h0.62569v0.64724c0.00645,-0.09112 0.02771,-0.17497 0.06391,-0.25174c0.03612,-0.07906 0.08189,-0.14736 0.13721,-0.20489c0.05533,-0.05992 0.11924,-0.10668 0.19156,-0.14027c0.07453,-0.0335 0.15323,-0.05035 0.23627,-0.05035h1.12372c0.08721,0 0.16917,0.01924 0.24583,0.05753c0.07658,0.03599 0.14253,0.08634 0.19786,0.15104c0.05753,0.06231 0.10215,0.13659 0.13411,0.22293c0.03408,0.08624 0.05108,0.17856 0.05108,0.27686zM193.27211,185.83326v-2.41253h-1.75267v2.41253zM195.57381,181.2383v5.30323h-0.62569v-5.30323zM199.49726,184.98831h-2.25062v0.84495h2.25062v0.70827h-2.25062c-0.08516,0 -0.16606,-0.01795 -0.24264,-0.05394c-0.07666,-0.03838 -0.14367,-0.08864 -0.20113,-0.15104c-0.05533,-0.06471 -0.10004,-0.14018 -0.13412,-0.22652c-0.03188,-0.08624 -0.04789,-0.17856 -0.04789,-0.27677v-2.41253c0,-0.0983 0.01602,-0.19062 0.04789,-0.27686c0.03408,-0.08634 0.07878,-0.16061 0.13412,-0.22293c0.05745,-0.06471 0.12446,-0.11505 0.20113,-0.15104c0.07658,-0.03829 0.15749,-0.05753 0.24264,-0.05753h1.62166c0.08728,0 0.16926,0.01924 0.24584,0.05753c0.07666,0.03599 0.14261,0.08634 0.19794,0.15104c0.05745,0.06231 0.10216,0.13659 0.13412,0.22293c0.034,0.08624 0.05107,0.17856 0.05107,0.27686zM197.24664,183.42073v0.85931h1.62166v-0.85931zM200.34957,182.71237h0.83007v-1.17925h0.62888v1.17925h1.11734v0.70836h-1.11734v2.41253h1.11734v0.70827h-1.11734c-0.08516,0 -0.16598,-0.01795 -0.24265,-0.05394c-0.07658,-0.03838 -0.14367,-0.08864 -0.20112,-0.15104c-0.05745,-0.06471 -0.10321,-0.14018 -0.13729,-0.22652c-0.03188,-0.08624 -0.04782,-0.17856 -0.04782,-0.27677v-2.41253h-0.83007zM206.8525,184.98831h-2.25063v0.84495h2.25063v0.70827h-2.25063c-0.08516,0 -0.16606,-0.01795 -0.24264,-0.05394c-0.07666,-0.03838 -0.14367,-0.08864 -0.20113,-0.15104c-0.05533,-0.06471 -0.10003,-0.14018 -0.13411,-0.22652c-0.03188,-0.08624 -0.04789,-0.17856 -0.04789,-0.27677v-2.41253c0,-0.0983 0.01602,-0.19062 0.04789,-0.27686c0.03408,-0.08634 0.07878,-0.16061 0.13411,-0.22293c0.05745,-0.06471 0.12447,-0.11505 0.20113,-0.15104c0.07658,-0.03829 0.15748,-0.05753 0.24264,-0.05753h1.62167c0.08728,0 0.16925,0.01924 0.24583,0.05753c0.07666,0.03599 0.14261,0.08634 0.19794,0.15104c0.05745,0.06231 0.10216,0.13659 0.13412,0.22293c0.034,0.08624 0.05108,0.17856 0.05108,0.27686zM204.60188,183.42073v0.85931h1.62167v-0.85931zM210.5812,184.33397c-0.08941,0 -0.17456,-0.01924 -0.25538,-0.05753c-0.07878,-0.04077 -0.14792,-0.09352 -0.2075,-0.15822c-0.05966,-0.0671 -0.10649,-0.14506 -0.14049,-0.2337c-0.03408,-0.09112 -0.05108,-0.18694 -0.05108,-0.28763v-1.47416c0,-0.10069 0.017,-0.19531 0.05108,-0.28404c0.034,-0.09103 0.08083,-0.16899 0.14049,-0.2337c0.05958,-0.0671 0.12872,-0.11984 0.2075,-0.15822c0.08082,-0.04068 0.16598,-0.06112 0.25538,-0.06112h2.22186c0.08941,0 0.1735,0.02043 0.2522,0.06112c0.08091,0.03838 0.15112,0.09112 0.21069,0.15822c0.05958,0.06471 0.10641,0.14267 0.14049,0.2337c0.03408,0.08873 0.05107,0.18335 0.05107,0.28404v0.66519h-0.65445v-0.66519h-2.22186v1.47416h2.22186c0.08941,0 0.1735,0.01914 0.2522,0.05753c0.08091,0.03829 0.15112,0.09103 0.21069,0.15822c0.05958,0.0671 0.10641,0.14616 0.14049,0.23729c0.03408,0.08864 0.05107,0.18335 0.05107,0.28404v1.47048c0,0.10069 -0.01699,0.1966 -0.05107,0.28763c-0.03408,0.08873 -0.08091,0.1666 -0.14049,0.2337c-0.05958,0.0671 -0.12978,0.11984 -0.21069,0.15822c-0.0787,0.03838 -0.16279,0.05753 -0.2522,0.05753h-2.28576c-0.08933,0 -0.17448,-0.01914 -0.25539,-0.05753c-0.0787,-0.03838 -0.14792,-0.09112 -0.2075,-0.15822c-0.05958,-0.0671 -0.1064,-0.14497 -0.1404,-0.2337c-0.03408,-0.09103 -0.05108,-0.18694 -0.05108,-0.28763v-0.66151h0.65437v0.66151h2.28576v-1.47048zM217.45116,184.98831h-2.25062v0.84495h2.25062v0.70827h-2.25062c-0.08516,0 -0.16598,-0.01795 -0.24264,-0.05394c-0.07658,-0.03838 -0.14367,-0.08864 -0.20113,-0.15104c-0.05533,-0.06471 -0.10003,-0.14018 -0.13403,-0.22652c-0.03196,-0.08624 -0.04789,-0.17856 -0.04789,-0.27677v-2.41253c0,-0.0983 0.01594,-0.19062 0.04789,-0.27686c0.034,-0.08634 0.0787,-0.16061 0.13403,-0.22293c0.05745,-0.06471 0.12455,-0.11505 0.20113,-0.15104c0.07666,-0.03829 0.15749,-0.05753 0.24264,-0.05753h1.62175c0.08728,0 0.16917,0.01924 0.24583,0.05753c0.07658,0.03599 0.14253,0.08634 0.19786,0.15104c0.05753,0.06231 0.10216,0.13659 0.13412,0.22293c0.03408,0.08624 0.05108,0.17856 0.05108,0.27686zM215.20054,183.42073v0.85931h1.62175v-0.85931zM218.30355,182.71237h0.83v-1.17925h0.62887v1.17925h1.11734v0.70836h-1.11734v2.41253h1.11734v0.70827h-1.11734c-0.08508,0 -0.16598,-0.01795 -0.24256,-0.05394c-0.07666,-0.03838 -0.14367,-0.08864 -0.20112,-0.15104c-0.05745,-0.06471 -0.10321,-0.14018 -0.13729,-0.22652c-0.03196,-0.08624 -0.04789,-0.17856 -0.04789,-0.27677v-2.41253h-0.83zM223.98278,185.83326v-0.88812h-1.49083c-0.08728,0 -0.16917,-0.01795 -0.24583,-0.05394c-0.07666,-0.03829 -0.14367,-0.08864 -0.20112,-0.15095c-0.05533,-0.06471 -0.10004,-0.14027 -0.13412,-0.22652c-0.03188,-0.08634 -0.04789,-0.17856 -0.04789,-0.27686v-0.81614c0,-0.0983 0.01602,-0.19062 0.04789,-0.27686c0.03408,-0.08634 0.07878,-0.16061 0.13412,-0.22293c0.05745,-0.06471 0.12446,-0.11505 0.20112,-0.15104c0.07666,-0.03829 0.15854,-0.05753 0.24583,-0.05753h1.98885v0.70836h-1.98885v0.81614h1.49083c0.08728,0 0.16811,0.01914 0.24265,0.05753c0.07658,0.03599 0.14367,0.08624 0.20112,0.15104c0.05745,0.06231 0.10215,0.13659 0.13403,0.22284c0.03408,0.08634 0.05108,0.17866 0.05108,0.27686v0.88812c0,0.09821 -0.017,0.19053 -0.05108,0.27677c-0.03188,0.08634 -0.07658,0.16181 -0.13403,0.22652c-0.05745,0.06241 -0.12454,0.11266 -0.20112,0.15104c-0.07453,0.03599 -0.15537,0.05394 -0.24265,0.05394h-2.11978v-0.70827zM230.49527,185.83326c0,0.09821 -0.01708,0.19053 -0.05116,0.27677c-0.03188,0.08634 -0.07658,0.16181 -0.13403,0.22652c-0.05533,0.06241 -0.12128,0.11266 -0.19794,0.15104c-0.07445,0.03599 -0.15537,0.05394 -0.24265,0.05394h-1.68877c-0.08508,0 -0.16598,-0.01795 -0.24264,-0.05394c-0.07658,-0.03838 -0.1436,-0.08864 -0.20105,-0.15104c-0.05541,-0.06471 -0.10003,-0.14018 -0.13411,-0.22652c-0.03196,-0.08624 -0.04789,-0.17856 -0.04789,-0.27677v-2.41253c0,-0.0983 0.01594,-0.19062 0.04789,-0.27686c0.03408,-0.08634 0.07869,-0.16061 0.13411,-0.22293c0.05745,-0.06471 0.12447,-0.11505 0.20105,-0.15104c0.07666,-0.03829 0.15756,-0.05753 0.24264,-0.05753h1.68877c0.08728,0 0.16819,0.01924 0.24265,0.05753c0.07666,0.03599 0.14261,0.08634 0.19794,0.15104c0.05745,0.06231 0.10215,0.13659 0.13403,0.22293c0.03408,0.08624 0.05116,0.17856 0.05116,0.27686zM228.18074,183.42073v2.41253h1.68877v-2.41253zM232.80654,181.94657v0.7658h1.11734v0.70836h-1.11734v3.1208h-0.62896v-3.1208h-0.82999v-0.70836h0.82999v-0.7658c0,-0.0983 0.01602,-0.18933 0.04789,-0.27328c0.03408,-0.08624 0.07984,-0.16172 0.13729,-0.22652c0.05745,-0.06471 0.12446,-0.11505 0.20112,-0.15095c0.07666,-0.03838 0.15749,-0.05753 0.24264,-0.05753h1.11734v0.70827zM238.17292,186.54153l-1.76542,-5.15587h0.70235l1.42381,4.24262l1.427,-4.24262h0.69907l-1.76534,5.15587zM241.11624,184.86966c0,-0.0983 0.01602,-0.18933 0.04789,-0.27328c0.03408,-0.08624 0.07878,-0.16181 0.13412,-0.22652c0.05745,-0.06471 0.12446,-0.11505 0.20112,-0.15095c0.07658,-0.03838 0.15748,-0.05753 0.24264,-0.05753h1.62167v-0.74067h-2.05268v-0.70836h2.05268c0.08728,0 0.16925,0.01924 0.24583,0.05753c0.07666,0.03599 0.14261,0.08634 0.19794,0.15104c0.05745,0.06231 0.10216,0.13659 0.13412,0.22293c0.034,0.08624 0.05108,0.17856 0.05108,0.27686v3.1208h-0.62896v-0.64715c-0.00637,0.08864 -0.02763,0.17258 -0.06382,0.25164c-0.0362,0.07906 -0.08295,0.14865 -0.14049,0.20857c-0.05533,0.05753 -0.11915,0.10309 -0.19148,0.13659c-0.07241,0.0336 -0.14898,0.05035 -0.2299,0.05035h-0.99598c-0.08516,0 -0.16606,-0.01795 -0.24264,-0.05394c-0.07666,-0.03838 -0.14367,-0.08864 -0.20112,-0.15104c-0.05533,-0.06471 -0.10004,-0.14018 -0.13412,-0.22652c-0.03188,-0.08624 -0.04789,-0.17856 -0.04789,-0.27677zM241.74201,185.83326h1.62167v-0.9636h-1.62167zM245.66864,183.42073v3.1208h-0.62577v-3.82916h0.62577v0.67596c0.00425,-0.09342 0.02337,-0.18096 0.05745,-0.26241c0.034,-0.08394 0.0787,-0.15583 0.13403,-0.21575c0.05745,-0.06231 0.12349,-0.11027 0.19794,-0.14386c0.07453,-0.0359 0.15429,-0.05394 0.23945,-0.05394h0.6672c0.08728,0 0.16811,0.01924 0.24264,0.05753c0.07658,0.03599 0.14367,0.08634 0.20113,0.15104c0.05745,0.06231 0.10216,0.13659 0.13403,0.22293c0.03408,0.08624 0.05108,0.17856 0.05108,0.27686v0.64715h-0.62887v-0.64715zM249.03653,182.71237v3.82916h-0.62887v-3.82916zM248.37579,181.2383h0.69269v0.73708h-0.69269zM253.05895,185.83326c0,0.09821 -0.01699,0.19053 -0.05108,0.27677c-0.03188,0.08634 -0.07658,0.16181 -0.13403,0.22652c-0.05533,0.06241 -0.12136,0.11266 -0.19794,0.15104c-0.07453,0.03599 -0.15536,0.05394 -0.24264,0.05394h-1.68877c-0.08515,0 -0.16598,-0.01795 -0.24264,-0.05394c-0.07658,-0.03838 -0.14367,-0.08864 -0.20113,-0.15104c-0.05533,-0.06471 -0.10004,-0.14018 -0.13403,-0.22652c-0.03196,-0.08624 -0.04789,-0.17856 -0.04789,-0.27677v-2.41253c0,-0.0983 0.01593,-0.19062 0.04789,-0.27686c0.03399,-0.08634 0.0787,-0.16061 0.13403,-0.22293c0.05745,-0.06471 0.12455,-0.11505 0.20113,-0.15104c0.07666,-0.03829 0.15749,-0.05753 0.24264,-0.05753h1.68877c0.08728,0 0.16811,0.01924 0.24264,0.05753c0.07658,0.03599 0.14261,0.08634 0.19794,0.15104c0.05745,0.06231 0.10216,0.13659 0.13403,0.22293c0.03408,0.08624 0.05108,0.17856 0.05108,0.27686zM250.7445,183.42073v2.41253h1.68877v-2.41253zM254.10927,182.71237h0.62569v3.12089h1.75259v-3.12089h0.62895v3.82916h-0.62895v-0.64715c-0.00638,0.08864 -0.02763,0.17258 -0.06382,0.25164c-0.0362,0.07906 -0.08295,0.14865 -0.14048,0.20857c-0.05533,0.05753 -0.11916,0.10309 -0.19148,0.13659c-0.07241,0.0336 -0.14898,0.05035 -0.22989,0.05035h-1.1269c-0.08515,0 -0.16598,-0.01795 -0.24264,-0.05394c-0.07658,-0.03838 -0.14367,-0.08864 -0.20113,-0.15104c-0.05533,-0.06471 -0.10004,-0.14018 -0.13403,-0.22652c-0.03196,-0.08624 -0.04789,-0.17856 -0.04789,-0.27677zM260.21633,185.83326v-0.88812h-1.49067c-0.08744,0 -0.16917,-0.01795 -0.24599,-0.05394c-0.07682,-0.03829 -0.14383,-0.08864 -0.20104,-0.15095c-0.05557,-0.06471 -0.10052,-0.14027 -0.13403,-0.22652c-0.03188,-0.08634 -0.04822,-0.17856 -0.04822,-0.27686v-0.81614c0,-0.0983 0.01634,-0.19062 0.04822,-0.27686c0.03351,-0.08634 0.07845,-0.16061 0.13403,-0.22293c0.05721,-0.06471 0.12422,-0.11505 0.20104,-0.15104c0.07682,-0.03829 0.15854,-0.05753 0.24599,-0.05753h1.98837v0.70836h-1.98837v0.81614h1.49067c0.08744,0 0.16835,0.01914 0.24272,0.05753c0.07682,0.03599 0.14383,0.08624 0.20104,0.15104c0.05721,0.06231 0.10216,0.13659 0.13403,0.22284c0.03433,0.08634 0.05067,0.17866 0.05067,0.27686v0.88812c0,0.09821 -0.01634,0.19053 -0.05067,0.27677c-0.03188,0.08634 -0.07682,0.16181 -0.13403,0.22652c-0.05721,0.06241 -0.12422,0.11266 -0.20104,0.15104c-0.07437,0.03599 -0.15528,0.05394 -0.24272,0.05394h-2.11995v-0.70827zM264.76841,186.54153l-1.30841,-5.15587h0.65379l1.01584,4.10244l1.01175,-4.10244h0.65462l1.01175,4.10244l1.01502,-4.10244h0.65462l-1.30923,5.15587h-0.71755l-0.9807,-3.86506l-0.98315,3.86506zM272.9409,185.83326c0,0.09821 -0.01717,0.19053 -0.05067,0.27677c-0.03188,0.08634 -0.07682,0.16181 -0.13403,0.22652c-0.05557,0.06241 -0.12177,0.11266 -0.19777,0.15104c-0.07519,0.03599 -0.15609,0.05394 -0.24272,0.05394h-1.68926c-0.08499,0 -0.16591,-0.01795 -0.24273,-0.05394c-0.07601,-0.03838 -0.14303,-0.08864 -0.20104,-0.15104c-0.05476,-0.06471 -0.0997,-0.14018 -0.13403,-0.22652c-0.03188,-0.08624 -0.04739,-0.17856 -0.04739,-0.27677v-2.41253c0,-0.0983 0.01553,-0.19062 0.04739,-0.27686c0.03433,-0.08634 0.07927,-0.16061 0.13403,-0.22293c0.05802,-0.06471 0.12504,-0.11505 0.20104,-0.15104c0.07682,-0.03829 0.15773,-0.05753 0.24273,-0.05753h1.68926c0.08663,0 0.16754,0.01924 0.24272,0.05753c0.07601,0.03599 0.1422,0.08634 0.19777,0.15104c0.05721,0.06231 0.10215,0.13659 0.13403,0.22293c0.03351,0.08624 0.05067,0.17856 0.05067,0.27686zM270.62645,183.42073v2.41253h1.68926v-2.41253zM274.61708,183.42073v3.1208h-0.62602v-3.82916h0.62602v0.67596c0.00409,-0.09342 0.0237,-0.18096 0.05721,-0.26241c0.03433,-0.08394 0.07927,-0.15583 0.13403,-0.21575c0.05802,-0.06231 0.1234,-0.11027 0.19859,-0.14386c0.07437,-0.0359 0.15364,-0.05394 0.23945,-0.05394h0.66688c0.08744,0 0.16835,0.01924 0.24272,0.05753c0.07682,0.03599 0.14383,0.08634 0.20104,0.15104c0.05721,0.06231 0.10216,0.13659 0.13403,0.22293c0.03433,0.08624 0.05067,0.17856 0.05067,0.27686v0.64715h-0.62846v-0.64715zM279.57206,186.54153l-1.62224,-1.63588v1.63588h-0.62519v-5.30323h0.62519v2.98421l1.49066,-1.51015h0.88427l-1.82574,1.84813l1.95732,1.98104zM283.85281,185.83326c0,0.09821 -0.01716,0.19053 -0.05148,0.27677c-0.03188,0.08634 -0.07601,0.16181 -0.13403,0.22652c-0.05476,0.06241 -0.12095,0.11266 -0.19777,0.15104c-0.07437,0.03599 -0.15528,0.05394 -0.24273,0.05394h-1.68843c-0.08499,0 -0.1659,-0.01795 -0.24272,-0.05394c-0.07682,-0.03838 -0.14383,-0.08864 -0.20104,-0.15104c-0.05557,-0.06471 -0.10052,-0.14018 -0.13403,-0.22652c-0.03188,-0.08624 -0.04822,-0.17856 -0.04822,-0.27677v-2.41253c0,-0.0983 0.01634,-0.19062 0.04822,-0.27686c0.03351,-0.08634 0.07845,-0.16061 0.13403,-0.22293c0.05721,-0.06471 0.12422,-0.11505 0.20104,-0.15104c0.07682,-0.03829 0.15773,-0.05753 0.24272,-0.05753h1.68843c0.08744,0 0.16835,0.01924 0.24273,0.05753c0.07682,0.03599 0.14302,0.08634 0.19777,0.15104c0.05802,0.06231 0.10215,0.13659 0.13403,0.22293c0.03433,0.08624 0.05148,0.17856 0.05148,0.27686zM281.53836,183.42073v2.41253h1.68843v-2.41253zM284.90298,182.71237h0.62602v3.12089h1.75218v-3.12089h0.62928v3.82916h-0.62928v-0.64715c-0.00654,0.08864 -0.02779,0.17258 -0.06375,0.25164c-0.03596,0.07906 -0.08336,0.14865 -0.14057,0.20857c-0.05557,0.05753 -0.11932,0.10309 -0.19124,0.13659c-0.07274,0.0336 -0.14955,0.05035 -0.22965,0.05035h-1.12699c-0.08581,0 -0.16671,-0.01795 -0.24272,-0.05394c-0.07682,-0.03838 -0.14383,-0.08864 -0.20104,-0.15104c-0.05557,-0.06471 -0.10052,-0.14018 -0.13403,-0.22652c-0.03268,-0.08624 -0.04822,-0.17856 -0.04822,-0.27677zM288.75958,182.71237h0.82951v-1.17925h0.62928v1.17925h1.11719v0.70836h-1.11719v2.41253h1.11719v0.70827h-1.11719c-0.08499,0 -0.1659,-0.01795 -0.24272,-0.05394c-0.07682,-0.03838 -0.14383,-0.08864 -0.20104,-0.15104c-0.05721,-0.06471 -0.10297,-0.14018 -0.13729,-0.22652c-0.03188,-0.08624 -0.04822,-0.17856 -0.04822,-0.27677v-2.41253h-0.82951zM294.43864,185.83326v-0.88812h-1.49066c-0.08744,0 -0.16917,-0.01795 -0.24599,-0.05394c-0.07682,-0.03829 -0.14384,-0.08864 -0.20105,-0.15095c-0.05557,-0.06471 -0.10052,-0.14027 -0.13403,-0.22652c-0.03188,-0.08634 -0.04822,-0.17856 -0.04822,-0.27686v-0.81614c0,-0.0983 0.01634,-0.19062 0.04822,-0.27686c0.03351,-0.08634 0.07845,-0.16061 0.13403,-0.22293c0.05721,-0.06471 0.12423,-0.11505 0.20105,-0.15104c0.07682,-0.03829 0.15855,-0.05753 0.24599,-0.05753h1.98836v0.70836h-1.98836v0.81614h1.49066c0.08744,0 0.16835,0.01914 0.24272,0.05753c0.07682,0.03599 0.14384,0.08624 0.20105,0.15104c0.05721,0.06231 0.10215,0.13659 0.13403,0.22284c0.03433,0.08634 0.05067,0.17866 0.05067,0.27686v0.88812c0,0.09821 -0.01634,0.19053 -0.05067,0.27677c-0.03188,0.08634 -0.07682,0.16181 -0.13403,0.22652c-0.05721,0.06241 -0.12423,0.11266 -0.20105,0.15104c-0.07437,0.03599 -0.15528,0.05394 -0.24272,0.05394h-2.11994v-0.70827z" fill="#86ca47" stroke="none" stroke-width="1"/><path d="M182.18357,174.49805c0,0.97656 -0.41666,1.5332 -1.25,1.66992l1.31836,2.83203h-1.1084l-1.29883,-2.79785h-2.19238v2.79785h-1.00097v-7.00196h3.833c1.13282,0 1.69922,0.56804 1.69922,1.7041zM177.65232,175.20117h2.77832c0.26693,0 0.45899,-0.05859 0.57617,-0.17578c0.11719,-0.11719 0.17579,-0.30924 0.17579,-0.57617v-0.69824c0,-0.26693 -0.0586,-0.45899 -0.17579,-0.57618c-0.11718,-0.11718 -0.30924,-0.17578 -0.57617,-0.17578h-2.77832zM188.16018,176.89062h-3.44243v1.14747h3.44243v0.96191h-3.44243c-0.13021,0 -0.2539,-0.02441 -0.37109,-0.07324c-0.11719,-0.05209 -0.21973,-0.12044 -0.30762,-0.20508c-0.08463,-0.08789 -0.15299,-0.19043 -0.20508,-0.30762c-0.04883,-0.11718 -0.07324,-0.24251 -0.07324,-0.37597v-3.27637c0,-0.13346 0.02441,-0.25879 0.07324,-0.37598c0.05209,-0.11719 0.12045,-0.2181 0.20508,-0.30273c0.08789,-0.08789 0.19043,-0.15625 0.30762,-0.20508c0.11719,-0.05208 0.24088,-0.07813 0.37109,-0.07813h2.48043c0.1335,0 0.2588,0.02605 0.376,0.07813c0.1172,0.04883 0.2181,0.11719 0.3028,0.20508c0.0878,0.08463 0.1562,0.18554 0.205,0.30273c0.0521,0.11719 0.0782,0.24252 0.0782,0.37598zM184.71775,174.76172v1.16699h2.48043v-1.16699zM189.76658,174.76172c0,-0.13346 0.0244,-0.25879 0.0732,-0.37598c0.0521,-0.11719 0.1205,-0.2181 0.2051,-0.30273c0.0879,-0.08789 0.1905,-0.15625 0.3076,-0.20508c0.1172,-0.05208 0.2409,-0.07813 0.3711,-0.07813h1.7237c0.1269,0 0.2474,0.02442 0.3613,0.07325c0.1139,0.04557 0.2132,0.11067 0.2978,0.19531c0.0879,0.08138 0.1579,0.17904 0.21,0.29297c0.0553,0.11068 0.0846,0.22949 0.0879,0.35644v-0.91797h0.9619v6.3379c0,0.13346 -0.026,0.25878 -0.0781,0.37597c-0.0488,0.11719 -0.1172,0.2181 -0.2051,0.30274c-0.0846,0.08789 -0.1855,0.15625 -0.3027,0.20509c-0.1172,0.0521 -0.2425,0.0781 -0.376,0.0781h-3.0371v-0.9619h3.0371v-1.3379h-2.6807c-0.1302,0 -0.2539,-0.02441 -0.3711,-0.07324c-0.1171,-0.05208 -0.2197,-0.12044 -0.3076,-0.20508c-0.0846,-0.08789 -0.153,-0.19043 -0.2051,-0.30761c-0.0488,-0.11719 -0.0732,-0.24252 -0.0732,-0.37598zM193.40428,177.83789v-3.07617h-2.6807v3.07617zM195.96778,173.7998h0.957v4.23829h2.6807v-4.23829h0.9619v5.2002h-0.9619v-0.87891c-0.0098,0.12045 -0.0424,0.23438 -0.0977,0.3418c-0.0553,0.10742 -0.1269,0.20182 -0.2148,0.2832c-0.0847,0.07813 -0.1823,0.13998 -0.293,0.18555c-0.1107,0.04557 -0.2279,0.06836 -0.3516,0.06836h-1.7236c-0.1302,0 -0.2539,-0.02441 -0.3711,-0.07324c-0.1172,-0.05209 -0.2197,-0.12044 -0.3076,-0.20508c-0.0846,-0.08789 -0.153,-0.19043 -0.2051,-0.30762c-0.0488,-0.11718 -0.0732,-0.24251 -0.0732,-0.37597zM203.12598,171.79785v7.20215h-0.9571v-7.20215zM204.72748,176.72949c0,-0.13346 0.0245,-0.25716 0.0733,-0.37109c0.0521,-0.11719 0.1204,-0.21973 0.2051,-0.30762c0.0878,-0.08789 0.1904,-0.15625 0.3076,-0.20508c0.1172,-0.05208 0.2409,-0.07812 0.3711,-0.07812h2.4804v-1.00586h-3.1396v-0.96192h3.1396c0.1335,0 0.2588,0.02605 0.376,0.07813c0.1172,0.04883 0.2181,0.11719 0.3027,0.20508c0.0879,0.08463 0.1563,0.18554 0.2051,0.30273c0.0521,0.11719 0.0782,0.24252 0.0782,0.37598v4.23828h-0.962v-0.87891c-0.0097,0.12045 -0.0423,0.23438 -0.0976,0.3418c-0.0554,0.10742 -0.127,0.20182 -0.2149,0.2832c-0.0846,0.07813 -0.1823,0.13998 -0.2929,0.18555c-0.1107,0.04557 -0.2279,0.06836 -0.3516,0.06836h-1.5234c-0.1302,0 -0.2539,-0.02441 -0.3711,-0.07324c-0.1172,-0.05209 -0.2198,-0.12044 -0.3076,-0.20508c-0.0847,-0.08789 -0.153,-0.19043 -0.2051,-0.30762c-0.0488,-0.11718 -0.0733,-0.24251 -0.0733,-0.37597zM205.68458,178.03809h2.4804v-1.3086h-2.4804zM211.69038,174.76172v4.23828h-0.957v-5.2002h0.957v0.91797c0.0065,-0.12695 0.0358,-0.24576 0.0879,-0.35644c0.0521,-0.11393 0.1205,-0.21159 0.2051,-0.29297c0.0879,-0.08464 0.1888,-0.14974 0.3027,-0.19531c0.114,-0.04883 0.236,-0.07325 0.3662,-0.07325h1.0205c0.1335,0 0.2572,0.02605 0.3711,0.07813c0.1172,0.04883 0.2198,0.11719 0.3077,0.20508c0.0879,0.08463 0.1562,0.18554 0.205,0.30273c0.0521,0.11719 0.0782,0.24252 0.0782,0.37598v0.8789h-0.962v-0.8789z" fill="#87bf3d" stroke="#87bf3d" stroke-width="0.5"/></g></g></svg>