<svg version="1.1" xmlns="http://www.w3.org/2000/svg" xmlns:xlink="http://www.w3.org/1999/xlink" width="33.51754" height="14.15233" viewBox="0,0,33.51754,14.15233"><g transform="translate(-210.73042,-172.92384)"><g data-paper-data="{&quot;isPaintingLayer&quot;:true}" fill="#87bf3d" fill-rule="nonzero" stroke="#87bf3d" stroke-width="0.5" stroke-linecap="butt" stroke-linejoin="miter" stroke-miterlimit="10" stroke-dasharray="" stroke-dashoffset="0" style="mix-blend-mode: normal"><path d="M212.48188,173.17384v9.00147h5.39795v1.50146h-6.89941v-10.50293zM226.13426,180.51271h-5.1636v1.72119h5.1636v1.44287h-5.1636c-0.1953,0 -0.38087,-0.0366 -0.55665,-0.1099c-0.17578,-0.0781 -0.32959,-0.1806 -0.46143,-0.3076c-0.12695,-0.1318 -0.22949,-0.2856 -0.30761,-0.4614c-0.07325,-0.17579 -0.10987,-0.36378 -0.10987,-0.56397v-4.91455c0,-0.2002 0.03662,-0.38819 0.10987,-0.56397c0.07812,-0.17578 0.18066,-0.32715 0.30761,-0.4541c0.13184,-0.13183 0.28565,-0.23437 0.46143,-0.30762c0.17578,-0.07812 0.36135,-0.11718 0.55665,-0.11718h3.7207c0.2002,0 0.3882,0.03906 0.564,0.11718c0.1757,0.07325 0.3271,0.17579 0.4541,0.30762c0.1318,0.12695 0.2343,0.27832 0.3076,0.4541c0.0781,0.17578 0.1172,0.36377 0.1172,0.56397zM220.97066,177.31935v1.75049h3.7207v-1.75049zM228.54386,177.31935c0,-0.2002 0.0367,-0.38819 0.1099,-0.56397c0.0781,-0.17578 0.1807,-0.32715 0.3076,-0.4541c0.1318,-0.13183 0.2857,-0.23437 0.4614,-0.30762c0.1758,-0.07812 0.3614,-0.11718 0.5567,-0.11718h2.5854c0.1905,0 0.3711,0.03662 0.542,0.10986c0.1709,0.06836 0.3198,0.16602 0.4468,0.29297c0.1318,0.12207 0.2368,0.26855 0.3149,0.43945c0.083,0.16602 0.127,0.34424 0.1319,0.53467v-1.37695h1.4428v9.50679c0,0.2002 -0.039,0.3882 -0.1171,0.564c-0.0733,0.1758 -0.1758,0.3272 -0.3077,0.4541c-0.1269,0.1318 -0.2783,0.2344 -0.4541,0.3076c-0.1757,0.0782 -0.3637,0.1172 -0.5639,0.1172h-4.5557v-1.4429h4.5557v-2.0068h-4.021c-0.1953,0 -0.3809,-0.0366 -0.5567,-0.1099c-0.1757,-0.0781 -0.3296,-0.1806 -0.4614,-0.3076c-0.1269,-0.1318 -0.2295,-0.28562 -0.3076,-0.4614c-0.0732,-0.17578 -0.1099,-0.36377 -0.1099,-0.56396zM234.00046,181.93361v-4.61426h-4.021v4.61426zM242.55516,182.2339v-1.80908h-3.4204c-0.2002,0 -0.3882,-0.03662 -0.564,-0.10987c-0.1758,-0.07812 -0.3296,-0.18066 -0.4614,-0.30761c-0.127,-0.13184 -0.2295,-0.28565 -0.3077,-0.46143c-0.0732,-0.17578 -0.1098,-0.36377 -0.1098,-0.56396v-1.6626c0,-0.2002 0.0366,-0.38819 0.1098,-0.56397c0.0782,-0.17578 0.1807,-0.32715 0.3077,-0.4541c0.1318,-0.13183 0.2856,-0.23437 0.4614,-0.30762c0.1758,-0.07812 0.3638,-0.11718 0.564,-0.11718h4.5629v1.44287h-4.5629v1.6626h3.4204c0.2002,0 0.3857,0.03906 0.5566,0.11718c0.1758,0.07325 0.3296,0.17578 0.4614,0.30762c0.1319,0.12695 0.2344,0.27832 0.3076,0.4541c0.0782,0.17578 0.1172,0.36377 0.1172,0.56397v1.80908c0,0.20019 -0.039,0.38818 -0.1172,0.56397c-0.0732,0.1758 -0.1757,0.3296 -0.3076,0.4614c-0.1318,0.127 -0.2856,0.2295 -0.4614,0.3076c-0.1709,0.0733 -0.3564,0.1099 -0.5566,0.1099h-4.8633v-1.44287z"/></g></g></svg>