<svg version="1.1" xmlns="http://www.w3.org/2000/svg" xmlns:xlink="http://www.w3.org/1999/xlink" width="538.69704" height="388.83332" viewBox="0,0,538.69704,388.83332"><g transform="translate(29.37817,9.76306)"><g data-paper-data="{&quot;isPaintingLayer&quot;:true}" fill-rule="nonzero" stroke-linejoin="miter" stroke-miterlimit="10" stroke-dasharray="" stroke-dashoffset="0" style="mix-blend-mode: normal"><path d="M-13.8242,369.26306v-378.52612h507.6484v378.52612z" fill="#ffffff" stroke="#d5d5d5" stroke-width="1" stroke-linecap="butt"/><g stroke="none" stroke-width="1" stroke-linecap="butt" opacity="0.7"><path d="M21.81535,180.34288l18.61965,14.57133l-4.78469,10.08419l-5.43801,7.14625l-5.38292,7.0736l-7.19325,5.65751l-18.61965,-14.57249l2.4412,-7.32164l5.60734,-8.18326l7.08149,-8.49153z" fill-opacity="0.7" fill="#d9d9d9"/><path d="M107.35973,259.25293l-6.30463,9.10121l-6.38397,7.57476l-6.36538,4.25059l-18.61965,-14.5702l3.57214,-8.49201l5.38269,-7.0736l5.43801,-7.14487l8.40602,-7.25062l18.61965,14.5702z" fill-opacity="0.7" fill="#d9d9d9"/><path d="M22.61955,216.96202l10.59161,-13.91879l53.15256,41.59638l-10.59161,13.91879z" fill-opacity="0.7" fill="#e7e7e7"/></g><g stroke="none" stroke-width="1" stroke-linecap="butt" opacity="0.7"><path d="M40.1557,240.76089l-32.58632,91.69933c-0.66669,1.87586 -3.28787,2.63449 -5.85466,1.69655l-7.34195,-2.68278c-2.56678,-0.93794 -4.10712,-3.21842 -3.44066,-5.09428l32.58655,-91.69933c0.66669,-1.87586 3.28765,-2.63681 5.85443,-1.69886l7.34195,2.68507c2.56678,0.93794 4.10735,3.21842 3.44066,5.09428z" fill="#e7e7e7"/><path d="M15.24888,243.17702l-12.66888,35.65077l-12.66888,35.65077c-0.66669,1.87586 -3.28765,2.63681 -5.85443,1.69886l-7.34218,-2.68278c-2.56656,-0.93794 -4.10712,-3.22071 -3.44044,-5.09657l25.33776,-71.30152c0.66669,-1.87586 3.28787,-2.63449 5.85443,-1.69655l7.34218,2.68278c2.56678,0.93794 4.10712,3.21842 3.44044,5.09428z" fill="#e7e7e7"/><path d="M161.33668,276.78867l7.4154,2.46899c2.5933,0.86207 4.19598,3.09657 3.58393,4.99084l-29.96763,92.61429c-0.61296,1.89427 -3.21148,2.73104 -5.80365,1.86668l-7.4154,-2.46668c-2.59217,-0.86207 -4.19689,-3.09886 -3.58393,-4.99313l29.96763,-92.61198c0.61296,-1.89427 3.21148,-2.73104 5.80365,-1.86897z" fill="#e7e7e7"/><path d="M179.50165,294.23934l7.41495,2.46668c2.59104,0.86438 4.19598,3.09886 3.58393,4.99313l-23.30188,72.01187c-0.61296,1.89427 -3.21148,2.73104 -5.80388,1.86897l-7.41517,-2.46899c-2.5924,-0.86207 -4.19689,-3.09657 -3.58393,-4.99084l11.65083,-36.00708l11.64969,-36.00479c0.61432,-1.89656 3.21216,-2.73104 5.80547,-1.86897z" fill="#e7e7e7"/><path d="M25.3013,299.46353l8.68691,-26.14846l106.32729,36.32743l-8.68691,26.14846z" fill="#d9d9d9"/><path d="M-29.37816,280.5022l8.8805,-26.25848l6.82891,2.37514l-8.8805,26.25848z" fill="#d9d9d9"/><path d="M179.61495,349.86535l8.04516,-26.5339l6.90055,2.15174l-8.04516,26.5339z" fill="#d9d9d9"/></g><g opacity="0.7"><path d="M398.34342,277.3404l2.86986,-20.31045c0.24936,-1.77703 0.08387,-3.57933 -0.37403,-5.31267c-1.79763,-6.82533 -5.4949,-25.17944 4.35693,-32.57718c8.27182,-6.21153 21.78013,-7.76096 21.78013,-7.76096l67.9677,26.57026c0,0 10.79486,8.12647 12.37487,21.11045c1.66389,13.67823 -16.67966,23.25759 -22.81836,26.06221c-1.29212,0.59082 -2.4981,1.34714 -3.54086,2.31956l-16.77714,15.63457" fill="none" stroke="#d9d9d9" stroke-width="4" stroke-linecap="round"/><path d="M481.02316,328.32227c-5.88481,23.45759 -22.30151,43.99332 -41.07803,45.89448l-32.61126,-12.74949l-35.61486,-13.92192c-10.01959,-13.57479 -8.53932,-40.06918 2.9288,-60.80721c15.40115,-27.84381 42.12759,-38.87377 71.50175,-27.39094c29.37416,11.48283 42.63311,38.03469 34.8736,68.97507z" fill="#eeeeee" stroke="none" stroke-width="1" stroke-linecap="butt"/><path d="M403.2671,293.06233l-1.47347,3.87359l-4.23452,-1.65518l1.47347,-3.87359c0.22215,-0.58621 0.54178,-1.09656 0.95889,-1.52645c0.42164,-0.44367 0.89768,-0.77931 1.42813,-1.0069c0.53272,-0.23909 1.09717,-0.37242 1.69109,-0.39541c0.61432,-0.03448 1.21051,0.06207 1.78856,0.28966l13.4063,5.23911c0.57805,0.22759 1.07677,0.55863 1.49614,0.99541c0.43751,0.42758 0.76847,0.91035 0.99289,1.44599c0.24256,0.52875 0.37177,1.09887 0.3899,1.71725c0.03854,0.60691 -0.0544,1.20459 -0.27656,1.79081l-2.08779,5.48969c-0.22215,0.58621 -0.47604,1.08735 -0.76167,1.50575c-0.28563,0.4184 -0.62339,0.76781 -1.01556,1.04598c-0.37177,0.27357 -0.79794,0.48275 -1.28305,0.6299c-0.48284,0.14712 -1.04276,0.25058 -1.67975,0.30576l-17.31892,1.24139l-1.64802,4.33565l13.94354,5.45061l1.4644,-3.85289l4.23452,1.65518l-3.09655,8.14717l-22.41259,-8.76097l3.00134,-7.89659c0.22442,-0.58621 0.47831,-1.08735 0.76394,-1.50575c0.29923,-0.4138 0.63472,-0.75403 1.00649,-1.02528c0.37177,-0.27357 0.80021,-0.48275 1.28305,-0.6299c0.50098,-0.15632 1.05636,-0.26207 1.66162,-0.31265l17.34612,-1.25517l2.36435,-6.22302zM442.29359,329.51539c-0.97022,2.4276 -2.27141,4.02071 -3.90356,4.77703c-1.62762,0.74254 -3.64513,0.64368 -6.05482,-0.29884l-7.9522,-3.10807c-4.80577,-1.87817 -6.28604,-5.24831 -4.43854,-10.10811l0.6846,-1.80001l4.15291,1.62299l-0.60526,1.5908c-0.43071,1.13103 -0.49871,2.05977 -0.20402,2.78393c0.29243,0.72415 1.00423,1.30805 2.1354,1.74944l7.68244,3.00232c1.1289,0.44138 2.04245,0.49425 2.74065,0.15632c0.6982,-0.33563 1.26038,-1.06897 1.69109,-2.2l1.53694,-4.0437c0.43071,-1.13103 0.49418,-2.05288 0.19495,-2.76323c-0.29243,-0.72415 -1.00423,-1.30577 -2.13313,-1.74713l-14.17023,-5.54026l5.78733,-15.22766l20.73963,8.1058l-1.63215,4.29428l-16.50511,-6.45062l-2.56384,6.74486l10.08079,3.94026c2.42329,0.94712 3.99877,2.25289 4.72643,3.91727c0.7322,1.64829 0.63019,3.71037 -0.31056,6.18163z" fill="#d9d9d9" stroke="none" stroke-width="1" stroke-linecap="butt"/></g><path d="M12.67914,37.4793h20.16214v3.60351h-8.2793v21.60352h-3.60354v-21.60352h-8.27929zM53.37248,62.68633h-3.4629v-15.2578h-9.6504v15.2578h-3.4453v-25.92774h3.4453v10.51174c0.0235,-0.457 0.1289,-0.88478 0.3165,-1.28322c0.1874,-0.41016 0.4335,-0.76172 0.7382,-1.05469c0.3164,-0.30468 0.6797,-0.53906 1.0899,-0.70312c0.4101,-0.17578 0.8496,-0.26367 1.3183,-0.26367h6.1875c0.4805,0 0.9317,0.09375 1.3535,0.28125c0.4219,0.17578 0.7852,0.42187 1.0899,0.73828c0.3164,0.30469 0.5625,0.66797 0.7383,1.08984c0.1875,0.42188 0.2812,0.87303 0.2812,1.35353zM59.13808,54.51253c0,-0.4805 0.0879,-0.9258 0.2637,-1.336c0.1875,-0.4218 0.4336,-0.791 0.7383,-1.1074c0.3164,-0.3164 0.6856,-0.5625 1.1074,-0.7383c0.4219,-0.1875 0.8672,-0.2812 1.336,-0.2812h8.9296v-3.6211h-11.3027v-3.4629h11.3027c0.4805,0 0.9317,0.09375 1.3536,0.28125c0.4218,0.17578 0.7851,0.42187 1.0898,0.73828c0.3164,0.30469 0.5625,0.66797 0.7383,1.08984c0.1875,0.42188 0.2812,0.87303 0.2812,1.35353v15.2578h-3.4629v-3.1641c-0.0351,0.4336 -0.1523,0.8438 -0.3515,1.2305c-0.1992,0.3867 -0.457,0.7266 -0.7735,1.0195c-0.3046,0.2813 -0.6562,0.5039 -1.0546,0.668c-0.3985,0.1641 -0.8204,0.2461 -1.2657,0.2461h-5.4843c-0.4688,0 -0.9141,-0.0879 -1.336,-0.2637c-0.4218,-0.1875 -0.791,-0.4336 -1.1074,-0.7383c-0.3047,-0.3164 -0.5508,-0.6855 -0.7383,-1.1074c-0.1758,-0.4218 -0.2637,-0.873 -0.2637,-1.3535zM62.58348,59.22343h8.9296v-4.7109h-8.9296zM97.31778,62.68633h-3.4629v-15.2578h-9.6503v15.2578h-3.4454v-18.7207h3.4454v3.3047c0.0234,-0.457 0.1289,-0.88478 0.3164,-1.28322c0.1875,-0.41016 0.4336,-0.76172 0.7382,-1.05469c0.3165,-0.30468 0.6797,-0.53906 1.0899,-0.70312c0.4101,-0.17578 0.8496,-0.26367 1.3183,-0.26367h6.1875c0.4805,0 0.9317,0.09375 1.3536,0.28125c0.4218,0.17578 0.7851,0.42187 1.0898,0.73828c0.3164,0.30469 0.5625,0.66797 0.7383,1.08984c0.1875,0.42188 0.2812,0.87303 0.2812,1.35353zM115.45888,62.68633l-8.9301,-7.998v7.998h-3.4453v-25.92774h3.4453v14.58984l8.2091,-7.3828h4.869l-10.0547,9.0352l10.7757,9.6855zM134.14388,59.22343v-4.3418h-8.209c-0.48,0 -0.932,-0.0879 -1.353,-0.2637c-0.422,-0.1875 -0.791,-0.4336 -1.108,-0.7382c-0.305,-0.3164 -0.551,-0.6856 -0.738,-1.1075c-0.176,-0.4218 -0.264,-0.873 -0.264,-1.3535v-3.9902c0,-0.4805 0.088,-0.93165 0.264,-1.35353c0.187,-0.42187 0.433,-0.78515 0.738,-1.08984c0.317,-0.31641 0.686,-0.5625 1.108,-0.73828c0.421,-0.1875 0.873,-0.28125 1.353,-0.28125h10.951v3.4629h-10.951v3.9902h8.209c0.481,0 0.926,0.0938 1.336,0.2813c0.422,0.1758 0.791,0.4218 1.107,0.7383c0.317,0.3046 0.563,0.6679 0.739,1.0898c0.187,0.4219 0.281,0.873 0.281,1.3535v4.3418c0,0.4805 -0.094,0.9317 -0.281,1.3535c-0.176,0.4219 -0.422,0.791 -0.739,1.1074c-0.316,0.3047 -0.685,0.5508 -1.107,0.7383c-0.41,0.1758 -0.855,0.2637 -1.336,0.2637h-11.672v-3.4629zM160.75688,40.22149v3.74414h6.153v3.4629h-6.153v15.2578h-3.462v-15.2578h-4.571v-3.4629h4.571v-3.74414c0,-0.48047 0.087,-0.92579 0.263,-1.33594c0.188,-0.42188 0.44,-0.79102 0.756,-1.10742c0.316,-0.31641 0.686,-0.56251 1.107,-0.73829c0.422,-0.1875 0.868,-0.28125 1.336,-0.28125h6.153v3.4629zM187.79288,59.22343c0,0.4805 -0.094,0.9317 -0.282,1.3535c-0.175,0.4219 -0.422,0.791 -0.738,1.1074c-0.305,0.3047 -0.668,0.5508 -1.09,0.7383c-0.41,0.1758 -0.855,0.2637 -1.336,0.2637h-9.299c-0.468,0 -0.914,-0.0879 -1.336,-0.2637c-0.421,-0.1875 -0.791,-0.4336 -1.107,-0.7383c-0.305,-0.3164 -0.551,-0.6855 -0.738,-1.1074c-0.176,-0.4218 -0.264,-0.873 -0.264,-1.3535v-11.7949c0,-0.4805 0.088,-0.93165 0.264,-1.35353c0.187,-0.42187 0.433,-0.78515 0.738,-1.08984c0.316,-0.31641 0.686,-0.5625 1.107,-0.73828c0.422,-0.1875 0.868,-0.28125 1.336,-0.28125h9.299c0.481,0 0.926,0.09375 1.336,0.28125c0.422,0.17578 0.785,0.42187 1.09,0.73828c0.316,0.30469 0.563,0.66797 0.738,1.08984c0.188,0.42188 0.282,0.87303 0.282,1.35353zM175.04788,47.42853v11.7949h9.299v-11.7949zM197.02088,47.42853v15.2578h-3.445v-18.7207h3.445v3.3047c0.024,-0.457 0.129,-0.88478 0.316,-1.28322c0.188,-0.41016 0.434,-0.76172 0.739,-1.05469c0.316,-0.30468 0.679,-0.53906 1.09,-0.70312c0.41,-0.17578 0.849,-0.26367 1.318,-0.26367h3.674c0.48,0 0.926,0.09375 1.336,0.28125c0.422,0.17578 0.791,0.42187 1.107,0.73828c0.317,0.30469 0.563,0.66797 0.738,1.08984c0.188,0.42188 0.282,0.87303 0.282,1.35353v3.164h-3.463v-3.164zM223.07188,37.4793h3.603v21.60353h14.397v-21.60353h3.603v21.60353c0,0.4922 -0.093,0.9609 -0.281,1.4062c-0.187,0.4336 -0.445,0.8145 -0.773,1.1426c-0.328,0.3281 -0.715,0.5859 -1.16,0.7735c-0.434,0.1874 -0.897,0.2812 -1.389,0.2812h-14.397c-0.492,0 -0.961,-0.0938 -1.406,-0.2812c-0.433,-0.1876 -0.814,-0.4454 -1.142,-0.7735c-0.329,-0.3281 -0.586,-0.709 -0.774,-1.1426c-0.187,-0.4453 -0.281,-0.914 -0.281,-1.4062zM262.11288,59.22343v-4.3418h-8.209c-0.481,0 -0.932,-0.0879 -1.354,-0.2637c-0.422,-0.1875 -0.791,-0.4336 -1.107,-0.7382c-0.305,-0.3164 -0.551,-0.6856 -0.738,-1.1075c-0.176,-0.4218 -0.264,-0.873 -0.264,-1.3535v-3.9902c0,-0.4805 0.088,-0.93165 0.264,-1.35353c0.187,-0.42187 0.433,-0.78515 0.738,-1.08984c0.316,-0.31641 0.685,-0.5625 1.107,-0.73828c0.422,-0.1875 0.873,-0.28125 1.354,-0.28125h10.951v3.4629h-10.951v3.9902h8.209c0.48,0 0.926,0.0938 1.336,0.2813c0.422,0.1758 0.791,0.4218 1.107,0.7383c0.317,0.3046 0.563,0.6679 0.739,1.0898c0.187,0.4219 0.281,0.873 0.281,1.3535v4.3418c0,0.4805 -0.094,0.9317 -0.281,1.3535c-0.176,0.4219 -0.422,0.791 -0.739,1.1074c-0.316,0.3047 -0.685,0.5508 -1.107,0.7383c-0.41,0.1758 -0.856,0.2637 -1.336,0.2637h-11.672v-3.4629zM274.62788,43.96563v18.7207h-3.462v-18.7207zM270.98988,36.75859h3.814v3.60352h-3.814zM297.14588,62.68633h-3.463v-15.2578h-9.65v15.2578h-3.446v-18.7207h3.446v3.3047c0.023,-0.457 0.129,-0.88478 0.316,-1.28322c0.188,-0.41016 0.434,-0.76172 0.738,-1.05469c0.317,-0.30468 0.68,-0.53906 1.09,-0.70312c0.41,-0.17578 0.85,-0.26367 1.319,-0.26367h6.187c0.481,0 0.932,0.09375 1.354,0.28125c0.422,0.17578 0.785,0.42187 1.09,0.73828c0.316,0.30469 0.562,0.66797 0.738,1.08984c0.187,0.42188 0.281,0.87303 0.281,1.35353zM302.91188,47.42853c0,-0.4805 0.088,-0.93165 0.263,-1.35353c0.188,-0.42187 0.434,-0.78515 0.739,-1.08984c0.316,-0.31641 0.685,-0.5625 1.107,-0.73828c0.422,-0.1875 0.867,-0.28125 1.336,-0.28125h6.205c0.457,0 0.891,0.08789 1.301,0.26367c0.41,0.16406 0.767,0.39844 1.072,0.70312c0.317,0.29297 0.568,0.64453 0.756,1.05469c0.199,0.39844 0.305,0.82622 0.316,1.28322v-3.3047h3.463v22.8164c0,0.4805 -0.093,0.9316 -0.281,1.3535c-0.176,0.4219 -0.422,0.7852 -0.738,1.0899c-0.305,0.3164 -0.668,0.5625 -1.09,0.7382c-0.422,0.1875 -0.873,0.2813 -1.354,0.2813h-10.933v-3.4629h10.933v-4.8164h-9.65c-0.469,0 -0.914,-0.0879 -1.336,-0.2637c-0.422,-0.1875 -0.791,-0.4336 -1.107,-0.7383c-0.305,-0.3164 -0.551,-0.6855 -0.739,-1.1074c-0.175,-0.4219 -0.263,-0.873 -0.263,-1.3535zM316.00688,58.50273v-11.0742h-9.65v11.0742zM339.98388,51.89333c-0.492,0 -0.961,-0.0937 -1.406,-0.2812c-0.434,-0.1992 -0.815,-0.457 -1.143,-0.7735c-0.328,-0.3281 -0.586,-0.7089 -0.773,-1.1425c-0.188,-0.4453 -0.282,-0.9141 -0.282,-1.4063v-7.20702c0,-0.49218 0.094,-0.95507 0.282,-1.38867c0.187,-0.44531 0.445,-0.82617 0.773,-1.14258c0.328,-0.32812 0.709,-0.58593 1.143,-0.77343c0.445,-0.19922 0.914,-0.29883 1.406,-0.29883h12.234c0.493,0 0.955,0.09961 1.389,0.29883c0.445,0.1875 0.832,0.44531 1.16,0.77343c0.328,0.31641 0.586,0.69727 0.774,1.14258c0.187,0.4336 0.281,0.89649 0.281,1.38867v3.25196h-3.604v-3.25196h-12.234v7.20702h12.234c0.493,0 0.955,0.0938 1.389,0.2813c0.445,0.1875 0.832,0.4453 1.16,0.7734c0.328,0.3281 0.586,0.7148 0.774,1.1602c0.187,0.4336 0.281,0.8964 0.281,1.3886v7.1895c0,0.4922 -0.094,0.9609 -0.281,1.4062c-0.188,0.4336 -0.446,0.8145 -0.774,1.1426c-0.328,0.3281 -0.715,0.5859 -1.16,0.7735c-0.434,0.1874 -0.896,0.2812 -1.389,0.2812h-12.586c-0.492,0 -0.961,-0.0938 -1.406,-0.2812c-0.433,-0.1876 -0.814,-0.4454 -1.142,-0.7735c-0.329,-0.3281 -0.586,-0.709 -0.774,-1.1426c-0.187,-0.4453 -0.281,-0.914 -0.281,-1.4062v-3.2344h3.603v3.2344h12.586v-7.1895zM367.37088,62.68633l-7.207,-25.20703h3.603l5.59,20.05663l5.572,-20.05663h3.604l5.572,20.05663l5.59,-20.05663h3.603l-7.207,25.20703h-3.955l-5.396,-18.89648l-5.414,18.89648zM397.62288,37.4793h18.369v3.60351h-14.766v7.20702h12.604v3.6035h-12.604v7.1895h14.766v3.6035h-18.369zM432.54988,37.4793l9.721,25.20703h-3.603l-2.233,-5.8008h-11.373l-2.232,5.8008h-3.604l9.721,-25.20703zM426.43288,53.28203h8.613l-4.289,-11.10937zM441.54988,37.4793h20.162v3.60351h-8.279v21.60352h-3.603v-21.60352h-8.28zM462.06388,57.43043h5.256v5.2559h-5.256z" fill="#000000" stroke="#000000" stroke-width="1" stroke-linecap="butt"/><path d="M33.4618,319.72167c0,-1.1238 -0.31891,-2.11094 -0.95675,-2.96138c-0.63783,-0.88082 -1.45791,-1.7009 -2.46022,-2.46022c-1.00231,-0.75932 -2.08055,-1.53383 -3.23473,-2.32354c-1.1238,-0.78971 -2.18686,-1.65534 -3.18917,-2.59691c-1.00231,-0.94157 -1.82239,-2.00462 -2.46023,-3.18917c-0.63783,-1.21493 -0.95675,-2.61208 -0.95675,-4.19148h4.14592c0,1.09343 0.31892,2.08055 0.95675,2.96137c0.63783,0.85044 1.45791,1.67052 2.46023,2.46023c1.00231,0.75932 2.06537,1.53383 3.18917,2.32353c1.15418,0.78971 2.23242,1.65534 3.23473,2.59691c1.00231,0.9112 1.82239,1.97425 2.46023,3.18918c0.63784,1.18455 0.95675,2.58171 0.95675,4.19149zM20.20395,302.09009c0,-1.67052 0.37965,-3.09805 1.13898,-4.2826c0.75933,-1.18455 1.82239,-2.09575 3.18917,-2.73359c1.36679,-0.63783 2.93101,-0.95675 4.69264,-0.95675v3.55365c-1.51865,0 -2.71838,0.39485 -3.5992,1.18455c-0.85044,0.78971 -1.27567,1.86795 -1.27567,3.23474zM37.60773,319.63056c0,1.64015 -0.37967,3.06767 -1.139,4.2826c-0.75932,1.18455 -1.82239,2.09574 -3.18917,2.73358c-1.33642,0.63783 -2.90063,0.95676 -4.69265,0.95676v-3.59921c1.51865,0 2.70323,-0.37967 3.55366,-1.139c0.88082,-0.78971 1.32122,-1.86794 1.32122,-3.23473zM33.50736,301.68005c-0.15187,-1.36678 -0.63784,-2.36911 -1.45791,-3.00694c-0.78971,-0.66821 -1.73127,-1.00231 -2.8247,-1.00231v-3.55365c1.42753,0 2.7184,0.28855 3.87258,0.86563c1.15418,0.57709 2.11094,1.36678 2.87026,2.3691c0.75932,1.00231 1.23009,2.18687 1.41234,3.55365zM23.11976,317.89928c0.18225,1.9135 0.74413,3.41699 1.6857,4.51042c0.97193,1.06306 2.23242,1.59458 3.78145,1.59458v3.59921c-2.58171,0 -4.69264,-0.78969 -6.33279,-2.3691c-1.60977,-1.57941 -2.58172,-3.76627 -2.91582,-6.56059zM60.83392,326.9201l-6.24168,-32.11955h3.7359l6.33279,32.11955zM46.75598,326.9201l-5.92276,-32.11955h4.10037l5.92276,32.11955zM47.98609,326.9201l6.37835,-32.11955h3.73589l-6.24168,32.11955zM61.83623,326.9201l5.92275,-32.11955h4.05481l-5.92274,32.11955zM78.46019,326.9201v-3.5992h12.62002v3.5992zM79.14358,312.75104v-3.69034h9.20305v3.69034zM76.13664,294.80054h4.14593v32.11955h-4.14593zM78.91578,294.80054h11.70883v3.59921h-11.70883zM98.63627,320.49619v-3.55367h11.66327v3.55367zM105.97137,294.80054l-7.83625,32.11955h-4.10037l7.83625,-32.11955zM106.0625,294.80054l7.83626,32.11955h-4.05481l-7.88182,-32.11955zM114.66834,298.39975v-3.59921h18.90726v3.59921zM122.04899,326.9201v-32.11955h4.14593v32.11955zM164.90013,326.9201l-6.24168,-32.11955h3.73589l6.33279,32.11955zM150.82219,326.9201l-5.92251,-32.11955h4.10011l5.92275,32.11955zM152.0523,326.9201l6.37835,-32.11955h3.73589l-6.24167,32.11955zM165.90244,326.9201l5.92275,-32.11955h4.05481l-5.92275,32.11955zM190.9767,318.76491v-6.69726h4.14593v6.69726zM178.17443,318.76491v-6.69726h4.14593v6.69726zM186.51184,306.82829v-3.5992h0.27336v3.5992zM186.51184,327.60349v-3.59921h0.27336v3.59921zM178.17443,312.11321c0,-1.7009 0.36449,-3.21954 1.09344,-4.55596c0.75932,-1.33642 1.76164,-2.38429 3.00693,-3.14362c1.27567,-0.78971 2.7184,-1.18455 4.32817,-1.18455v3.5992c-1.33642,0 -2.38429,0.4556 -3.14362,1.3668c-0.75932,0.9112 -1.13899,2.21723 -1.13899,3.91812zM195.12263,312.11321h-4.14593c0,-1.7009 -0.37967,-3.00693 -1.13899,-3.91812c-0.72895,-0.9112 -1.77684,-1.3668 -3.14362,-1.3668v-3.5992c1.60977,0 3.03732,0.39485 4.28261,1.18455c1.27567,0.75932 2.27798,1.8072 3.00693,3.14362c0.75932,1.33642 1.13899,2.85506 1.13899,4.55596zM178.17443,318.71936h4.14593c0,1.67052 0.37967,2.97656 1.13899,3.91813c0.75932,0.9112 1.8072,1.36679 3.14362,1.36679v3.59921c-1.60977,0 -3.0525,-0.37968 -4.32817,-1.139c-1.24529,-0.78971 -2.24761,-1.85275 -3.00693,-3.18917c-0.72895,-1.33642 -1.09344,-2.85507 -1.09344,-4.55596zM195.12263,318.71936c0,1.7009 -0.37967,3.21954 -1.13899,4.55596c-0.72895,1.33642 -1.73126,2.39946 -3.00693,3.18917c-1.24529,0.75932 -2.67284,1.139 -4.28261,1.139v-3.59921c1.36678,0 2.41467,-0.4556 3.14362,-1.36679c0.75932,-0.94157 1.13899,-2.24761 1.13899,-3.91813zM199.33437,326.9201v-23.00763h4.14593v23.00763zM201.61235,311.52093c0,-1.54903 0.25816,-2.931 0.77451,-4.14593c0.51635,-1.24529 1.21493,-2.21723 2.09575,-2.91582c0.91119,-0.69858 1.91351,-1.04788 3.00693,-1.04788l-0.36447,3.87258c-1.06306,0 -1.94387,0.41003 -2.64246,1.23011c-0.66821,0.78971 -1.00231,1.792 -1.00231,3.00693zM209.85864,308.33176c-0.36447,-0.30374 -0.80489,-0.54671 -1.32123,-0.72895c-0.48596,-0.2126 -0.95676,-0.31892 -1.41235,-0.31892l0.36447,-3.87258c0.69859,0 1.38198,0.13668 2.05019,0.41004c0.66821,0.24298 1.2453,0.59228 1.73126,1.04787zM226.07787,326.9201l-8.15517,-12.71114l3.96368,-1.32124l8.51966,14.03238zM218.05938,318.71936l-3.18917,-2.14131l9.97757,-12.66558h5.01155zM214.50573,326.9201v-32.80295h4.14592v32.80295zM244.9902,318.76491v-6.69726h4.14593v6.69726zM232.18793,318.76491v-6.69726h4.14593v6.69726zM240.52534,306.82829v-3.5992h0.27336v3.5992zM240.52534,327.60349v-3.59921h0.27336v3.59921zM232.18793,312.11321c0,-1.7009 0.36447,-3.21954 1.09342,-4.55596c0.75932,-1.33642 1.76165,-2.38429 3.00695,-3.14362c1.27567,-0.78971 2.7184,-1.18455 4.32817,-1.18455v3.5992c-1.33642,0 -2.3843,0.4556 -3.14362,1.3668c-0.75932,0.9112 -1.13899,2.21723 -1.13899,3.91812zM249.13613,312.11321h-4.14593c0,-1.7009 -0.37967,-3.00693 -1.13899,-3.91812c-0.72895,-0.9112 -1.77683,-1.3668 -3.14362,-1.3668v-3.5992c1.60977,0 3.03732,0.39485 4.28261,1.18455c1.27567,0.75932 2.27798,1.8072 3.00693,3.14362c0.75932,1.33642 1.139,2.85506 1.139,4.55596zM232.18793,318.71936h4.14593c0,1.67052 0.37967,2.97656 1.13899,3.91813c0.75932,0.9112 1.8072,1.36679 3.14362,1.36679v3.59921c-1.60977,0 -3.0525,-0.37968 -4.32817,-1.139c-1.24529,-0.78971 -2.24762,-1.85275 -3.00695,-3.18917c-0.72895,-1.33642 -1.09342,-2.85507 -1.09342,-4.55596zM249.13613,318.71936c0,1.7009 -0.37967,3.21954 -1.139,4.55596c-0.72895,1.33642 -1.73126,2.39946 -3.00693,3.18917c-1.24529,0.75932 -2.67284,1.139 -4.28261,1.139v-3.59921c1.36678,0 2.41467,-0.4556 3.14362,-1.36679c0.75932,-0.94157 1.13899,-2.24761 1.13899,-3.91813zM269.61265,303.91247v23.00763h-4.14592v-23.00763zM256.81039,303.91247v15.67253h-4.14593v-15.67253zM256.81039,319.585c0,1.27567 0.39484,2.32353 1.18455,3.14362c0.82008,0.78971 1.85276,1.18455 3.09806,1.18455l-1.04787,3.69034c-1.42753,0 -2.7032,-0.34929 -3.827,-1.04787c-1.09342,-0.69858 -1.95908,-1.65533 -2.59691,-2.87025c-0.63783,-1.21493 -0.95675,-2.58171 -0.95675,-4.10037zM267.28911,319.44831c0,1.54903 -0.31892,2.9462 -0.95675,4.1915c-0.60746,1.21493 -1.47311,2.18686 -2.59691,2.91581c-1.09343,0.69858 -2.32354,1.04787 -3.69033,1.04787l1.04787,-3.69034c1.27567,0 2.32353,-0.41003 3.14362,-1.23012c0.82008,-0.82008 1.23012,-1.89831 1.23012,-3.23473zM276.56303,319.94947v-25.19449l4.14593,0.04556v25.14893zM273.92057,307.32945v-3.41698h12.52891v3.41698zM276.56303,319.90391h4.14593c0,0.88082 0.12149,1.62496 0.36448,2.23242c0.24298,0.60746 0.59228,1.07824 1.04787,1.41234c0.45559,0.30374 1.00231,0.4556 1.64014,0.4556l-0.36447,3.59921c-2.12611,0 -3.79663,-0.6682 -5.01156,-2.00462c-1.21493,-1.36678 -1.82238,-3.26511 -1.82238,-5.69496zM285.90275,323.22976l1.64014,2.96139c-0.60746,0.45559 -1.27567,0.80489 -2.00462,1.04787c-0.69858,0.24298 -1.41235,0.36448 -2.1413,0.36448l0.36447,-3.59921c0.39485,0 0.75934,-0.06075 1.09344,-0.18224c0.36448,-0.15187 0.71377,-0.34929 1.04787,-0.59228zM302.98762,320.49619v-3.55367h11.66327v3.55367zM310.32273,294.80054l-7.83626,32.11955h-4.10037l7.83627,-32.11955zM310.41384,294.80054l7.83627,32.11955h-4.05481l-7.88182,-32.11955zM333.24303,320.99734c0,-0.75932 -0.27335,-1.38198 -0.82007,-1.86795c-0.54672,-0.51635 -1.26049,-0.97193 -2.14131,-1.36678c-0.85044,-0.42523 -1.76164,-0.85044 -2.73357,-1.27567c-0.94157,-0.42523 -1.85276,-0.91119 -2.73358,-1.45791c-0.85044,-0.57709 -1.54903,-1.29087 -2.09575,-2.14131c-0.54672,-0.88082 -0.82006,-1.94387 -0.82006,-3.18917c0,0 0.12149,0 0.36447,0c0.27336,0 0.60746,0 1.00231,0c0.42523,0 0.83526,0 1.23011,0c0.39485,0 0.72895,0 1.00231,0c0.27336,0 0.41003,0 0.41003,0c0,0.75932 0.27336,1.39715 0.82008,1.9135c0.54672,0.48597 1.2453,0.92639 2.09574,1.32124c0.88082,0.39485 1.80721,0.82008 2.77914,1.27567c0.97193,0.42523 1.88313,0.92638 2.73357,1.50346c0.85044,0.57709 1.54903,1.29086 2.09575,2.1413c0.57709,0.82008 0.86563,1.86795 0.86563,3.14362c0,0 -0.13668,0 -0.41005,0c-0.27336,0 -0.62264,0 -1.04787,0c-0.39485,0 -0.7897,0 -1.18455,0c-0.39485,0 -0.72895,0 -1.00231,0c-0.27336,0 -0.41004,0 -0.41004,0zM329.37045,327.60349v-3.59921c1.1238,0 2.05019,-0.27336 2.77914,-0.82008c0.72895,-0.57709 1.09343,-1.30604 1.09343,-2.18686h4.05481c0,1.27567 -0.3493,2.41466 -1.04788,3.41697c-0.66821,1.00231 -1.59458,1.79201 -2.77914,2.3691c-1.18455,0.54672 -2.55134,0.82008 -4.10037,0.82008zM321.89868,309.69855c0,-1.24529 0.30373,-2.35392 0.91119,-3.32585c0.63783,-1.00231 1.51866,-1.77683 2.64246,-2.32355c1.1238,-0.57709 2.3691,-0.86563 3.73589,-0.86563v3.59921c-0.94157,0 -1.73127,0.27335 -2.3691,0.82007c-0.60746,0.54672 -0.9112,1.2453 -0.9112,2.09574zM325.0423,320.04059c0.15187,1.33642 0.63782,2.33873 1.4579,3.00694c0.82008,0.63783 1.77683,0.95675 2.87025,0.95675v3.59921c-1.39716,0 -2.68801,-0.28856 -3.87257,-0.86564c-1.18455,-0.57709 -2.15649,-1.38196 -2.91582,-2.41465c-0.72895,-1.03269 -1.18454,-2.20205 -1.36678,-3.50809zM333.47082,310.74643c-0.15187,-1.36678 -0.63782,-2.36911 -1.4579,-3.00694c-0.78971,-0.63783 -1.73127,-0.95675 -2.8247,-0.95675v-3.59921c1.42753,0 2.71839,0.28854 3.87257,0.86563c1.15418,0.57709 2.11093,1.38198 2.87025,2.41467c0.75932,1.00231 1.23011,2.17167 1.41235,3.50809zM352.41984,320.99734c0,-0.75932 -0.27335,-1.38198 -0.82006,-1.86795c-0.54672,-0.51635 -1.26049,-0.97193 -2.14131,-1.36678c-0.85044,-0.42523 -1.76165,-0.85044 -2.73359,-1.27567c-0.94157,-0.42523 -1.85276,-0.91119 -2.73358,-1.45791c-0.85044,-0.57709 -1.54902,-1.29087 -2.09574,-2.14131c-0.54672,-0.88082 -0.82007,-1.94387 -0.82007,-3.18917c0,0 0.12149,0 0.36447,0c0.27336,0 0.60747,0 1.00232,0c0.42523,0 0.83525,0 1.2301,0c0.39485,0 0.72896,0 1.00232,0c0.27336,0 0.41003,0 0.41003,0c0,0.75932 0.27336,1.39715 0.82008,1.9135c0.54672,0.48597 1.2453,0.92639 2.09574,1.32124c0.88082,0.39485 1.80721,0.82008 2.77914,1.27567c0.97193,0.42523 1.88315,0.92638 2.73359,1.50346c0.85044,0.57709 1.54901,1.29086 2.09573,2.1413c0.57709,0.82008 0.86563,1.86795 0.86563,3.14362c0,0 -0.13667,0 -0.41003,0c-0.27336,0 -0.62265,0 -1.04788,0c-0.39485,0 -0.78969,0 -1.18455,0c-0.39485,0 -0.72896,0 -1.00232,0c-0.27336,0 -0.41003,0 -0.41003,0zM348.54728,327.60349v-3.59921c1.1238,0 2.05019,-0.27336 2.77914,-0.82008c0.72895,-0.57709 1.09343,-1.30604 1.09343,-2.18686h4.05481c0,1.27567 -0.34928,2.41466 -1.04787,3.41697c-0.66821,1.00231 -1.59458,1.79201 -2.77914,2.3691c-1.18455,0.54672 -2.55134,0.82008 -4.10037,0.82008zM341.07549,309.69855c0,-1.24529 0.30374,-2.35392 0.9112,-3.32585c0.63783,-1.00231 1.51865,-1.77683 2.64245,-2.32355c1.1238,-0.57709 2.3691,-0.86563 3.73589,-0.86563v3.59921c-0.94157,0 -1.73126,0.27335 -2.3691,0.82007c-0.60746,0.54672 -0.91119,1.2453 -0.91119,2.09574zM344.21911,320.04059c0.15187,1.33642 0.63783,2.33873 1.45792,3.00694c0.82008,0.63783 1.77683,0.95675 2.87025,0.95675v3.59921c-1.39716,0 -2.68801,-0.28856 -3.87257,-0.86564c-1.18455,-0.57709 -2.15651,-1.38196 -2.91583,-2.41465c-0.72895,-1.03269 -1.18454,-2.20205 -1.36678,-3.50809zM352.64765,310.74643c-0.15187,-1.36678 -0.63783,-2.36911 -1.45792,-3.00694c-0.78971,-0.63783 -1.73127,-0.95675 -2.8247,-0.95675v-3.59921c1.42753,0 2.7184,0.28854 3.87258,0.86563c1.15418,0.57709 2.11093,1.38198 2.87025,2.41467c0.75932,1.00231 1.2301,2.17167 1.41235,3.50809zM361.16224,326.9201v-23.00763h4.14593v23.00763zM363.21242,300.85997c-0.75932,0 -1.39716,-0.25816 -1.91351,-0.7745c-0.51635,-0.51635 -0.77451,-1.15418 -0.77451,-1.9135c0,-0.75932 0.25816,-1.39716 0.77451,-1.9135c0.51635,-0.54672 1.15418,-0.82008 1.91351,-0.82008c0.75932,0 1.39716,0.27336 1.9135,0.82008c0.54672,0.51635 0.82008,1.15418 0.82008,1.9135c0,0.75932 -0.27336,1.39716 -0.82008,1.9135c-0.51635,0.51635 -1.15418,0.7745 -1.9135,0.7745zM382.00578,320.99734c0,-0.75932 -0.27336,-1.38198 -0.82008,-1.86795c-0.54672,-0.51635 -1.26047,-0.97193 -2.14129,-1.36678c-0.85044,-0.42523 -1.76165,-0.85044 -2.73359,-1.27567c-0.94157,-0.42523 -1.85276,-0.91119 -2.73359,-1.45791c-0.85044,-0.57709 -1.54901,-1.29087 -2.09573,-2.14131c-0.54672,-0.88082 -0.82008,-1.94387 -0.82008,-3.18917c0,0 0.12149,0 0.36448,0c0.27336,0 0.60746,0 1.00231,0c0.42523,0 0.83526,0 1.23011,0c0.39485,0 0.72895,0 1.00231,0c0.27336,0 0.41005,0 0.41005,0c0,0.75932 0.27335,1.39715 0.82006,1.9135c0.54672,0.48597 1.24531,0.92639 2.09575,1.32124c0.88082,0.39485 1.80721,0.82008 2.77914,1.27567c0.97193,0.42523 1.88313,0.92638 2.73357,1.50346c0.85044,0.57709 1.54903,1.29086 2.09575,2.1413c0.57709,0.82008 0.86563,1.86795 0.86563,3.14362c0,0 -0.13668,0 -0.41005,0c-0.27336,0 -0.62264,0 -1.04787,0c-0.39485,0 -0.7897,0 -1.18455,0c-0.39485,0 -0.72895,0 -1.00231,0c-0.27336,0 -0.41003,0 -0.41003,0zM378.13321,327.60349v-3.59921c1.1238,0 2.05017,-0.27336 2.77912,-0.82008c0.72895,-0.57709 1.09344,-1.30604 1.09344,-2.18686h4.05481c0,1.27567 -0.3493,2.41466 -1.04788,3.41697c-0.66821,1.00231 -1.59458,1.79201 -2.77913,2.3691c-1.18455,0.54672 -2.55133,0.82008 -4.10036,0.82008zM370.66142,309.69855c0,-1.24529 0.30373,-2.35392 0.91119,-3.32585c0.63783,-1.00231 1.51866,-1.77683 2.64246,-2.32355c1.1238,-0.57709 2.36911,-0.86563 3.73589,-0.86563v3.59921c-0.94157,0 -1.73126,0.27335 -2.3691,0.82007c-0.60746,0.54672 -0.91119,1.2453 -0.91119,2.09574zM373.80504,320.04059c0.15187,1.33642 0.63783,2.33873 1.45791,3.00694c0.82008,0.63783 1.77684,0.95675 2.87026,0.95675v3.59921c-1.39716,0 -2.68803,-0.28856 -3.87258,-0.86564c-1.18455,-0.57709 -2.15649,-1.38196 -2.91582,-2.41465c-0.72895,-1.03269 -1.18454,-2.20205 -1.36678,-3.50809zM382.23358,310.74643c-0.15187,-1.36678 -0.63783,-2.36911 -1.45791,-3.00694c-0.78971,-0.63783 -1.73127,-0.95675 -2.8247,-0.95675v-3.59921c1.42753,0 2.71839,0.28854 3.87257,0.86563c1.15418,0.57709 2.11093,1.38198 2.87026,2.41467c0.75932,1.00231 1.23011,2.17167 1.41236,3.50809zM391.79731,319.94947v-25.19449l4.14593,0.04556v25.14893zM389.15484,307.32945v-3.41698h12.52891v3.41698zM391.79731,319.90391h4.14593c0,0.88082 0.12149,1.62496 0.36447,2.23242c0.24298,0.60746 0.59228,1.07824 1.04787,1.41234c0.45559,0.30374 1.00231,0.4556 1.64015,0.4556l-0.36448,3.59921c-2.12611,0 -3.79663,-0.6682 -5.01156,-2.00462c-1.21493,-1.36678 -1.82238,-3.26511 -1.82238,-5.69496zM401.13703,323.22976l1.64015,2.96139c-0.60746,0.45559 -1.27567,0.80489 -2.00462,1.04787c-0.69858,0.24298 -1.41236,0.36448 -2.14131,0.36448l0.36448,-3.59921c0.39485,0 0.75934,-0.06075 1.09344,-0.18224c0.36448,-0.15187 0.71377,-0.34929 1.04787,-0.59228zM417.81059,326.9201v-15.67253h4.14593v15.67253zM412.25233,327.60349l0.31892,-3.41698c1.09343,0 2.01981,-0.27335 2.77914,-0.82006c0.78971,-0.54672 1.39715,-1.35161 1.82238,-2.41467c0.42523,-1.06306 0.63783,-2.32353 0.63783,-3.78145l2.0502,-0.09112c0,2.06537 -0.3341,3.88774 -1.00231,5.46715c-0.66821,1.57941 -1.57941,2.8247 -2.73359,3.7359c-1.1238,0.88082 -2.41465,1.32123 -3.87257,1.32123zM412.25233,327.60349c-1.36678,0 -2.61209,-0.31892 -3.73589,-0.95676c-1.1238,-0.63783 -2.01982,-1.50347 -2.68803,-2.59689c-0.66821,-1.1238 -1.00231,-2.36911 -1.00231,-3.7359l3.91814,-0.13667c0,1.15418 0.37966,2.11093 1.13898,2.87026c0.78971,0.75932 1.68571,1.13898 2.68802,1.13898zM404.8261,320.31395c0,-1.42753 0.34928,-2.67283 1.04787,-3.73589c0.72895,-1.09343 1.7009,-1.95906 2.91583,-2.5969c1.21493,-0.63783 2.5969,-0.95675 4.14593,-0.95675l0.2278,3.18917c-1.27567,0 -2.33875,0.37968 -3.18919,1.139c-0.82008,0.72895 -1.2301,1.67052 -1.2301,2.8247zM413.16352,316.21358l-0.2278,-3.18917h7.01619v3.18917zM417.81059,317.17033v-5.8772h2.0502v5.78608zM421.95652,311.3387h-4.14593c0,-1.33642 -0.41003,-2.42986 -1.23011,-3.2803c-0.78971,-0.85044 -1.82238,-1.27567 -3.09805,-1.27567v-3.55365c1.64015,0 3.08286,0.34928 4.32815,1.04787c1.27567,0.69858 2.278,1.67052 3.00695,2.91582c0.75932,1.21493 1.13898,2.59691 1.13898,4.14594zM409.19982,310.79198l-3.827,-0.77452c0.18225,-1.36678 0.63783,-2.55134 1.36678,-3.55365c0.75932,-1.00231 1.71607,-1.79201 2.87025,-2.3691c1.18455,-0.57709 2.49061,-0.86563 3.91814,-0.86563v3.55365c-1.1238,0 -2.09573,0.3341 -2.91581,1.00231c-0.78971,0.63783 -1.26049,1.64016 -1.41236,3.00694zM426.59855,326.9201v-23.00763h4.14592v23.00763zM439.40081,326.9201v-15.67253h4.14593v15.67253zM439.40081,311.24757c0,-1.27567 -0.39484,-2.30835 -1.18455,-3.09805c-0.78971,-0.82008 -1.8072,-1.2301 -3.0525,-1.2301l1.04788,-3.69034c1.39716,0 2.64245,0.34928 3.73588,1.04787c1.1238,0.69858 2.00463,1.65533 2.64247,2.87026c0.63783,1.21493 0.95675,2.58171 0.95675,4.10037zM428.92209,311.3387c0,-1.54903 0.31892,-2.93101 0.95675,-4.14594c0.63783,-1.24529 1.50349,-2.21723 2.59691,-2.91582c1.09343,-0.69858 2.33873,-1.04787 3.73589,-1.04787l-1.04788,3.69034c-1.30604,0 -2.3691,0.41002 -3.18918,1.2301c-0.82008,0.82008 -1.23012,1.88314 -1.23012,3.18919zM449.68084,319.94947v-25.19449l4.14592,0.04556v25.14893zM447.03838,307.32945v-3.41698h12.52891v3.41698zM449.68084,319.90391h4.14592c0,0.88082 0.12149,1.62496 0.36448,2.23242c0.24298,0.60746 0.59229,1.07824 1.04788,1.41234c0.45559,0.30374 1.00231,0.4556 1.64014,0.4556l-0.36447,3.59921c-2.12611,0 -3.79663,-0.6682 -5.01156,-2.00462c-1.21493,-1.36678 -1.82239,-3.26511 -1.82239,-5.69496zM459.02057,323.22976l1.64014,2.96139c-0.60746,0.45559 -1.27567,0.80489 -2.00462,1.04787c-0.69858,0.24298 -1.41236,0.36448 -2.14131,0.36448l0.36447,-3.59921c0.39485,0 0.75933,-0.06075 1.09343,-0.18224c0.36448,-0.15187 0.71379,-0.34929 1.04789,-0.59228z" fill="#d66d2b" stroke="#d66d2b" stroke-width="1" stroke-linecap="butt"/><g fill="#ff914d" stroke-width="0" stroke-linecap="butt"><path d="M191.07089,92.69641l78.79784,0.00015c5.69872,0.00002 10.80506,3.51763 12.8319,8.83961l17.7578,46.62773c-13.5254,-11.14223 -39.36964,-13.64407 -46.83011,-13.64407c-21.51584,0 -20.82255,0 -46.68239,0z" stroke="#da7329"/><path d="M310.51676,289.91253l-69.84561,0.72287c-5.1399,0.05318 -9.87896,-2.76671 -12.28078,-7.30768l-23.97045,-45.31763c13.52561,11.14223 34.94204,14.92189 42.40252,14.92189c21.51584,0 23.83748,0.12517 49.69753,0.12517z" stroke="#da7329"/><path d="M162.31425,159.88779c-3.78326,-13.52594 6.39331,-26.92626 20.44852,-26.92626h22.73673c0,0 10.41255,11.51968 13.25603,20.48478c2.7041,8.52612 6.5128,26.9081 6.5128,26.9081c0,0 -6.70798,-2.39993 -8.56935,-3.44834c-5.86846,-3.30586 -17.47177,-2.59901 -27.87599,-0.9918c-11.60225,1.79221 -23.3487,-4.72852 -26.50874,-16.02648z" stroke="#da7329"/><path d="M174.36787,221.19815c-10.14779,-2.16368 -15.16187,-12.9432 -10.18249,-21.89099l0.69179,-1.24301c3.44584,-6.19219 9.58519,-10.94079 16.83081,-11.17c2.10316,-0.06644 4.20312,0.00747 6.00871,0.33495c7.50879,1.36242 25.58684,3.76235 17.37257,8.46118c-3.86001,2.20811 -7.61375,8.66925 -10.50897,14.89839c-3.50876,7.54991 -11.92933,12.37542 -20.21243,10.60949z" stroke="#da7329"/><path d="M173.81354,282.62151c-5.24249,-8.61113 -0.83265,-19.531 8.8695,-21.96297l3.30546,-0.82861c6.84522,-1.71595 14.41814,-0.68078 19.58796,4.26712c1.45477,1.39211 2.79602,2.87372 3.74734,4.32437c3.99939,6.09948 14.32195,20.18957 5.06914,17.69864c-4.71897,-1.27035 -13.30093,0.93007 -20.57841,3.39131c-7.37732,2.4952 -15.90819,-0.16726 -20.00099,-6.88986z" stroke="#ff914d"/><path d="M225.49302,180.4845h76.66026c4.60887,0 8.76774,2.76329 10.55066,7.01011l14.40318,34.30806l-53.46561,-4.8834h-34.36784z" stroke="#da7329"/><path d="M283.53882,217.04681l43.13942,4.15411l7.07632,18.45631l-21.64817,2.39631c-1.86822,0.20699 -3.62741,0.98347 -5.03857,2.22413l-10.71741,9.42287z" stroke="#da7329"/></g></g></g></svg>