<svg version="1.1" xmlns="http://www.w3.org/2000/svg" xmlns:xlink="http://www.w3.org/1999/xlink" width="125.09463" height="24.98731" viewBox="0,0,125.09463,24.98731"><g transform="translate(-177.0181,-167.68506)"><g data-paper-data="{&quot;isPaintingLayer&quot;:true}" fill="#000000" fill-rule="nonzero" stroke="#000000" stroke-width="0.5" stroke-linecap="butt" stroke-linejoin="miter" stroke-miterlimit="10" stroke-dasharray="" stroke-dashoffset="0" style="mix-blend-mode: normal"><path d="M177.2681,172.01905c0,-0.46484 0.08854,-0.90202 0.26562,-1.31152c0.17708,-0.42058 0.42057,-0.78027 0.73047,-1.07911c0.30989,-0.3099 0.6696,-0.55338 1.0791,-0.73047c0.42057,-0.18815 0.86327,-0.28223 1.32813,-0.28223h12.916c0.46484,0 0.90202,0.09408 1.31152,0.28223c0.42058,0.17708 0.7858,0.42057 1.09571,0.73047c0.30991,0.29884 0.55338,0.65853 0.73046,1.07911c0.17708,0.4095 0.26563,0.84669 0.26563,1.31152v3.07128h-3.40332v-3.07128h-12.916v17h12.916v-3.0547h3.40332v3.0547c0,0.46484 -0.08854,0.90754 -0.26563,1.32813c-0.17708,0.4095 -0.42055,0.76919 -0.73046,1.0791c-0.30991,0.30988 -0.67513,0.55338 -1.09571,0.73046c-0.4095,0.17708 -0.84668,0.26563 -1.31152,0.26563h-12.916c-0.46487,0 -0.90756,-0.08854 -1.32813,-0.26562c-0.4095,-0.17708 -0.76921,-0.42058 -1.0791,-0.73046c-0.3099,-0.30991 -0.55339,-0.6696 -0.73047,-1.0791c-0.17708,-0.42058 -0.26562,-0.86329 -0.26562,-1.32812zM205.54044,174.74171v17.68065h-3.2704v-17.68065zM202.10404,167.93506h3.60244v3.40331h-3.60244zM214.42238,178.0122v14.41016h-3.2538v-17.68065h3.2538v3.12109c0.0221,-0.43166 0.12183,-0.83561 0.29892,-1.21193c0.17708,-0.38735 0.40942,-0.71938 0.69728,-0.99609c0.29863,-0.28775 0.64175,-0.50912 1.02907,-0.66405c0.3876,-0.16603 0.80268,-0.24902 1.24525,-0.24902h3.4697c0.4539,0 0.87437,0.08854 1.26168,0.26563c0.39837,0.166 0.74715,0.39842 1.04607,0.69725c0.29863,0.28775 0.53125,0.63087 0.69728,1.02929c0.17708,0.39845 0.26548,0.82456 0.26548,1.27832v2.98829h-3.27052v-2.98829zM231.75444,178.0122v11.13965h8.4337v-2.98826h3.27052v2.98826c0,0.45379 -0.08868,0.87989 -0.26577,1.27834c-0.16603,0.39842 -0.39837,0.74707 -0.69728,1.0459c-0.28787,0.28775 -0.6307,0.52017 -1.02935,0.69726c-0.39837,0.166 -0.8245,0.24902 -1.27812,0.24902h-8.4337c-0.44285,0 -0.86332,-0.08302 -1.26168,-0.24902c-0.39837,-0.17708 -0.74715,-0.4095 -1.04607,-0.69726c-0.28758,-0.29883 -0.5202,-0.64747 -0.69728,-1.0459c-0.16575,-0.39845 -0.24877,-0.82456 -0.24877,-1.27834v-11.13965c0,-0.45376 0.08302,-0.87986 0.24877,-1.27832c0.17708,-0.39842 0.4097,-0.74154 0.69728,-1.02929c0.29892,-0.29883 0.6477,-0.53125 1.04607,-0.69725c0.39837,-0.17708 0.81883,-0.26563 1.26168,-0.26563h8.4337c0.45362,0 0.87975,0.08854 1.27812,0.26563c0.39865,0.166 0.74148,0.39842 1.02935,0.69725c0.29892,0.28775 0.53125,0.63087 0.69728,1.02929c0.17708,0.39845 0.26577,0.82456 0.26577,1.27832v2.98829h-3.27052v-2.98829zM248.92048,174.74171h3.2538v14.41014h9.11427v-14.41014h3.27052v17.68065h-3.27052v-2.98829c-0.03315,0.4095 -0.14393,0.79688 -0.33207,1.16212c-0.18813,0.36525 -0.43152,0.68621 -0.73043,0.96288c-0.28758,0.26562 -0.61965,0.47591 -0.99592,0.63087c-0.37655,0.15496 -0.77492,0.23242 -1.19538,0.23242h-5.86047c-0.44257,0 -0.86332,-0.08302 -1.26168,-0.24902c-0.39837,-0.17708 -0.74715,-0.4095 -1.04578,-0.69726c-0.28787,-0.29883 -0.5202,-0.64747 -0.69728,-1.0459c-0.16603,-0.39845 -0.24905,-0.82456 -0.24905,-1.27834zM273.44099,174.74171v17.68065h-3.27052v-17.68065zM270.00444,167.93506h3.60258v3.40331h-3.60258zM278.03949,174.74171h4.31658v-5.44532h3.27052v5.44532h5.81032v3.27049h-5.81032v11.13965h5.81032v3.27052h-5.81032c-0.44285,0 -0.86332,-0.08302 -1.26168,-0.24902c-0.39865,-0.17708 -0.74715,-0.4095 -1.04607,-0.69726c-0.29892,-0.29883 -0.53663,-0.64747 -0.71372,-1.0459c-0.16603,-0.39845 -0.24905,-0.82456 -0.24905,-1.27834v-11.13965h-4.31658zM296.89901,187.4585h4.96372v4.96386h-4.96372zM296.89901,174.74171h4.96372v4.96386h-4.96372z"/></g></g></svg>