<svg version="1.1" xmlns="http://www.w3.org/2000/svg" xmlns:xlink="http://www.w3.org/1999/xlink" width="154.41442" height="320.25087" viewBox="0,0,154.41442,320.25087"><g transform="translate(-162.79279,-19.87398)"><g data-paper-data="{&quot;isPaintingLayer&quot;:true}" stroke-linejoin="miter" stroke-miterlimit="10" stroke-dasharray="" stroke-dashoffset="0" style="mix-blend-mode: normal"><path d="M172.00262,338.62485c0,0 -3.40525,-1.29142 -4.9944,-4.33953c-1.58918,-3.04816 -2.71543,-10.44843 -2.71543,-10.44843c0,0 0,-228.25676 0,-280.43394c0,-8.66874 -0.01305,-9.6678 1.6886,-14.23537c1.70165,-4.56751 5.14039,-6.45909 9.3984,-6.45909l120.95999,-1.33333c0,0 13.33792,1.90664 16.12422,6.59637c2.7863,4.68972 3.24321,14.99215 3.24321,14.99215v271.04609c0,0 -0.53771,11.07762 -3.21339,16.55056c-2.67569,5.47294 -8.8207,8.06451 -8.8207,8.06451z" fill="#ffffff" fill-rule="nonzero" stroke="#4fa1ff" stroke-width="3" stroke-linecap="butt"/><path d="M207.65872,100.72611c12.69513,-10.3722 29.77526,-13.88932 45.4701,-7.73438c24.15144,9.46851 35.87341,38.26477 26.18603,64.30925c-9.68738,26.04854 -37.11624,39.486 -61.26648,30.01342c-16.52674,-6.4806 -27.23423,-22.01038 -29.24313,-39.51449" fill="none" fill-rule="nonzero" stroke="#5578d4" stroke-width="5.5" stroke-linecap="round"/><path d="M260.18455,161.09019l9.19239,-17.10579l10.77653,2.4745l10.6584,5.62603v42.44693h-40.2429l-8.13895,-20.09856z" fill="#ffffff" fill-rule="nonzero" stroke="none" stroke-width="1" stroke-linecap="butt"/><path d="M178.71115,165.63394l11.87929,-21.33545l20.43982,12.81053" fill="none" fill-rule="nonzero" stroke="#5578d4" stroke-width="5.5" stroke-linecap="round"/><path d="M306.90569,178.71189c0,2.59714 -2.13492,4.75865 -4.55074,4.75865h-20.47433v20.76881c0,2.45463 -2.13492,4.47373 -4.55074,4.47373c-2.56029,0 -4.55074,-2.01905 -4.55074,-4.47373v-20.76881h-20.47433c-2.55949,0 -4.54994,-2.16157 -4.54994,-4.75865c0,-2.45058 1.99045,-4.46964 4.54994,-4.46964h20.47433v-20.7729c0,-2.59304 1.99045,-4.75865 4.55074,-4.75865c2.41583,0 4.55074,2.16562 4.55074,4.75865v20.7729h20.47433c2.41583,-0.14655 4.55074,2.01905 4.55074,4.46964z" fill="#5578d4" fill-rule="nonzero" stroke="none" stroke-width="1" stroke-linecap="butt"/><path d="M245.7435,107.16617c1.2645,4.11958 -1.00204,8.49965 -5.06241,9.78193c-4.06076,1.28227 -8.37754,-1.01769 -9.64203,-5.13724c-1.26489,-4.11958 1.00165,-8.49561 5.06241,-9.77788c4.06035,-1.28636 8.37754,1.0136 9.64203,5.13319z" fill="#5f9db4" fill-rule="nonzero" stroke="none" stroke-width="1" stroke-linecap="butt"/><path d="M227.38114,121.14502h20.40771l0.00481,30.76651h-20.40771z" fill="#5f9db4" fill-rule="nonzero" stroke="none" stroke-width="1" stroke-linecap="butt"/><path d="M244.32074,121.68546c1.49565,-1.20085 3.66708,-0.94032 4.84971,0.57398c1.04579,1.34335 3.78827,4.15213 5.83531,6.19563c0.90132,-0.70424 1.93587,-1.5428 2.89096,-2.39359c1.18906,-1.05839 2.04302,-1.94988 2.4403,-2.52791c1.09233,-1.58354 3.24491,-1.97022 4.80798,-0.86299c1.56386,1.10723 1.94511,3.28914 0.85356,4.87672c-0.90494,1.31077 -2.29624,2.66227 -3.54548,3.77763c-1.30623,1.16422 -2.69432,2.26738 -3.76539,3.08969c-2.49368,1.91324 -5.9264,1.61608 -8.09823,-0.5414c-1.95113,-1.94174 -5.38344,-5.40592 -6.83535,-7.26622c-1.18263,-1.51835 -0.929,-3.72066 0.56663,-4.92151z" fill="#5f9db4" fill-rule="evenodd" stroke="none" stroke-width="1" stroke-linecap="butt"/><path d="M231.36613,124.39594c-0.08748,1.93358 -1.70231,3.42755 -3.60729,3.34206c-2.00169,-0.09362 -7.03398,0.28496 -9.76644,0.51699l-6.83334,9.68016c-1.11,1.57538 -3.26658,1.93767 -4.81721,0.81006c-1.55063,-1.12352 -1.90737,-3.31357 -0.79739,-4.88486l6.99265,-9.90813c1.06626,-1.51025 2.73406,-2.49127 4.58926,-2.65412c2.44793,-0.20759 8.31494,-0.67981 10.94826,-0.55769c1.90497,0.08547 3.37855,1.726 3.29146,3.65552z" fill="#5f9db4" fill-rule="evenodd" stroke="none" stroke-width="1" stroke-linecap="butt"/><path d="M231.86775,146.79385c1.88812,0.27273 3.20077,2.04755 2.93229,3.96079l-1.73522,12.37907c-0.23756,1.69341 -1.13126,3.21995 -2.48285,4.2417l-13.95842,10.55945c-1.52856,1.15606 -3.69196,0.83856 -4.83165,-0.71239c-1.1401,-1.55094 -0.82507,-3.74505 0.70348,-4.90115l13.7662,-10.41699l1.70192,-12.13483c0.26846,-1.91729 2.01653,-3.24844 3.90425,-2.97568z" fill="#5f9db4" fill-rule="evenodd" stroke="none" stroke-width="1" stroke-linecap="butt"/><path d="M239.07147,148.84955c0.61961,-1.83181 2.58357,-2.80473 4.38701,-2.17786c4.23332,1.47767 10.64167,3.29323 13.3344,4.02187c0.97596,0.26458 1.9431,0.91593 2.51735,2.01905c0.50483,0.96882 0.50845,1.91729 0.45146,2.49127c-0.10875,1.10318 -0.57587,2.14121 -0.93703,2.85356c-0.79217,1.55909 -2.06349,3.38685 -3.28344,5.01513c-1.25205,1.67306 -2.58036,3.30948 -3.58722,4.51442c-0.50524,0.60653 -0.93422,1.10723 -1.23801,1.46138c-0.15169,0.17504 -0.27288,0.3175 -0.35635,0.41113c-0.04214,0.04884 -0.07464,0.08547 -0.09712,0.11396l-0.02648,0.02849l-0.01003,0.0122c-0.00041,0 -0.00041,0 -2.57755,-2.32846l2.57715,2.32846c-1.26931,1.44513 -3.45198,1.57129 -4.875,0.28496c-1.42341,-1.29042 -1.54822,-3.50081 -0.27931,-4.94594l0.00522,-0.00815l0.02046,-0.02034c0.01886,-0.02445 0.04736,-0.05699 0.08508,-0.09771c0.07544,-0.08957 0.18741,-0.21574 0.33028,-0.38265c0.28492,-0.3338 0.69144,-0.81006 1.1718,-1.38405c0.96432,-1.15606 2.20716,-2.68666 3.35728,-4.22136c0.6168,-0.82636 1.17299,-1.60793 1.6357,-2.30812c-3.15703,-0.89964 -7.33095,-2.14121 -10.46149,-3.23215c-1.80344,-0.63096 -2.76335,-2.62153 -2.14415,-4.44929z" fill="#5f9db4" fill-rule="evenodd" stroke="none" stroke-width="1" stroke-linecap="butt"/><path d="M215.21005,230.13683c0.31924,0.09935 0.61026,0.24126 0.87282,0.42577c0.26255,0.18451 0.48601,0.42222 0.67057,0.71316c0.18446,0.28385 0.32638,0.62092 0.42569,1.0112c0.09943,0.39029 0.14908,0.83734 0.14908,1.34116v0.76639c0,2.46948 -1.23469,3.70416 -3.70418,3.70416h-8.35566v-15.26373h7.91931c2.46938,0 3.70406,1.23828 3.70406,3.71482v0.27674c0,0.85862 -0.13831,1.56115 -0.41504,2.10755c-0.2697,0.5393 -0.69188,0.94023 -1.26666,1.20279zM207.40786,231.44607v4.51313h6.15236c0.57478,0 0.98992,-0.13479 1.24533,-0.40449c0.25541,-0.26959 0.38318,-0.69188 0.38318,-1.26664v-1.18151c0,-0.58188 -0.12777,-1.0041 -0.38318,-1.26665c-0.25541,-0.26255 -0.67056,-0.39382 -1.24533,-0.39382zM207.40786,224.97441v4.34281h5.86497c0.52512,-0.02128 0.90115,-0.16321 1.12823,-0.42577c0.23423,-0.26966 0.35121,-0.68122 0.35121,-1.23472v-1.00055c0,-0.58188 -0.12766,-1.00765 -0.38318,-1.27731c-0.25541,-0.26966 -0.67056,-0.40448 -1.24534,-0.40448zM220.38313,226.76263h2.0862v9.2392h5.84364v-9.2392h2.09697v11.33603h-2.09697v-1.91591c-0.02132,0.26255 -0.09227,0.51083 -0.2129,0.74506c-0.12063,0.23423 -0.27674,0.43998 -0.46832,0.6174c-0.18446,0.17028 -0.39735,0.30506 -0.63859,0.40449c-0.24137,0.09931 -0.49678,0.14896 -0.76637,0.14896h-3.75746c-0.28387,0 -0.55346,-0.05316 -0.80899,-0.15961c-0.25541,-0.1136 -0.47899,-0.26255 -0.67057,-0.44712c-0.18446,-0.1916 -0.33353,-0.41517 -0.44701,-0.67057c-0.10645,-0.25541 -0.15961,-0.52862 -0.15961,-0.81952zM236.10452,226.76263v11.33603h-2.09685v-11.33603zM233.90122,222.39852h2.30975v2.18204h-2.30975zM241.7992,222.39852v15.70013h-2.08631v-15.70013zM245.29048,228.85952c0,-0.29093 0.05316,-0.56414 0.15961,-0.81959c0.1136,-0.25546 0.26255,-0.47543 0.44701,-0.65994c0.1916,-0.1916 0.41516,-0.34061 0.6707,-0.44705c0.25541,-0.11354 0.525,-0.1703 0.80888,-0.1703h5.84366v-4.3641h2.09696v15.70013h-2.09696v-1.91591c-0.02132,0.26255 -0.09229,0.51083 -0.21292,0.74506c-0.12063,0.23423 -0.27671,0.43998 -0.46831,0.6174c-0.18446,0.17028 -0.39735,0.30506 -0.6386,0.40449c-0.24124,0.09931 -0.49677,0.14896 -0.76636,0.14896h-3.75747c-0.28387,0 -0.55346,-0.05316 -0.80888,-0.15961c-0.25553,-0.1136 -0.4791,-0.26255 -0.67068,-0.44712c-0.18446,-0.1916 -0.33342,-0.41517 -0.44701,-0.67057c-0.10645,-0.25541 -0.15962,-0.52862 -0.15962,-0.81952zM247.37667,236.00182h5.84366v-7.1423h-5.84366zM265.3441,233.14913c0,-0.29095 0.05316,-0.56059 0.15961,-0.80897c0.11347,-0.25546 0.26255,-0.47899 0.44701,-0.67058c0.1916,-0.1916 0.41517,-0.34062 0.67057,-0.44705c0.25553,-0.11354 0.52513,-0.17031 0.80899,-0.17031h5.4073v-2.19269h-6.84423v-2.0969h6.84423c0.29089,0 0.56412,0.05676 0.81953,0.1703c0.25554,0.10644 0.47546,0.25545 0.65992,0.44705c0.19158,0.18451 0.34067,0.40447 0.44712,0.65994c0.11347,0.25545 0.17028,0.52866 0.17028,0.81959v9.23915h-2.09685v-1.91591c-0.02132,0.26255 -0.09227,0.51083 -0.2129,0.74506c-0.12063,0.23423 -0.27673,0.43998 -0.46833,0.6174c-0.18456,0.17028 -0.39747,0.30506 -0.63871,0.40449c-0.24124,0.09931 -0.49666,0.14896 -0.76637,0.14896h-3.32101c-0.28387,0 -0.55346,-0.05316 -0.80899,-0.15961c-0.25541,-0.1136 -0.47898,-0.26255 -0.67056,-0.44712c-0.18446,-0.1916 -0.33354,-0.41517 -0.44701,-0.67057c-0.10645,-0.25541 -0.15961,-0.52862 -0.15961,-0.81952zM267.43028,236.00182h5.4073v-2.85269h-5.4073zM197.96648,259.89793l-3.66155,-11.3361h2.11817l2.68228,8.54736l2.50146,-8.54736h2.13947l2.50135,8.54736l2.68227,-8.54736h2.11828l-3.66166,11.3361h-2.182l-2.5333,-8.3237l-2.52266,8.3237zM223.04409,257.80108c0,0.29091 -0.05679,0.56413 -0.17027,0.81954c-0.10645,0.25541 -0.25541,0.47897 -0.44701,0.67057c-0.18457,0.18457 -0.4045,0.33353 -0.66003,0.44712c-0.24827,0.10645 -0.51797,0.15962 -0.80888,0.15962h-5.63074c-0.28387,0 -0.55358,-0.05317 -0.809,-0.15962c-0.25553,-0.11359 -0.47896,-0.26255 -0.67056,-0.44712c-0.18457,-0.1916 -0.33353,-0.41516 -0.44712,-0.67057c-0.10645,-0.25541 -0.15963,-0.52863 -0.15963,-0.81954v-7.14228c0,-0.29091 0.05318,-0.56411 0.15963,-0.81964c0.1136,-0.25541 0.26255,-0.47534 0.44712,-0.65991c0.1916,-0.1916 0.41502,-0.34056 0.67056,-0.44701c0.25541,-0.1136 0.52513,-0.1704 0.809,-0.1704h5.63074c0.29091,0 0.56061,0.0568 0.80888,0.1704c0.25553,0.10645 0.47545,0.25541 0.66003,0.44701c0.1916,0.18457 0.34056,0.4045 0.44701,0.65991c0.11347,0.25553 0.17027,0.52874 0.17027,0.81964zM215.32715,250.65879v7.14228h5.63075v-7.14228zM228.63234,250.65879v9.23912h-2.08631v-11.3361h2.08631v2.00118c0.01418,-0.27673 0.07799,-0.53578 0.19159,-0.77702c0.11347,-0.24839 0.26255,-0.4613 0.44701,-0.63872c0.1916,-0.18446 0.41163,-0.32638 0.6599,-0.42569c0.24839,-0.10645 0.5146,-0.15974 0.79834,-0.15974h2.22462c0.29102,0 0.5606,0.0568 0.80899,0.1704c0.25541,0.10645 0.47898,0.25541 0.67057,0.44701c0.1916,0.18457 0.34068,0.4045 0.44713,0.65991c0.11347,0.25553 0.17028,0.52875 0.17028,0.81965v1.91592h-2.09697v-1.91592zM245.15205,259.89793l-5.40718,-4.84306v4.84306h-2.08632v-15.70019h2.08632v8.83476l4.97083,-4.47067h2.94834l-6.08841,5.47113l6.52489,5.86497zM259.42584,257.80108c0,0.29091 -0.05667,0.56413 -0.17028,0.81954c-0.10645,0.25541 -0.25541,0.47897 -0.44701,0.67057c-0.18457,0.18457 -0.40449,0.33353 -0.6599,0.44712c-0.24839,0.10645 -0.5181,0.15962 -0.80901,0.15962h-5.63074c-0.28387,0 -0.5536,-0.05317 -0.80901,-0.15962c-0.25541,-0.11359 -0.47897,-0.26255 -0.67056,-0.44712c-0.18457,-0.1916 -0.33353,-0.41516 -0.44712,-0.67057c-0.10634,-0.25541 -0.15963,-0.52863 -0.15963,-0.81954v-7.14228c0,-0.29091 0.05329,-0.56411 0.15963,-0.81964c0.1136,-0.25541 0.26255,-0.47534 0.44712,-0.65991c0.1916,-0.1916 0.41514,-0.34056 0.67056,-0.44701c0.25541,-0.1136 0.52514,-0.1704 0.80901,-0.1704h5.63074c0.29091,0 0.56061,0.0568 0.80901,0.1704c0.25541,0.10645 0.47534,0.25541 0.6599,0.44701c0.1916,0.18457 0.34056,0.4045 0.44701,0.65991c0.11359,0.25553 0.17028,0.52874 0.17028,0.81964zM251.70891,250.65879v7.14228h5.63074v-7.14228zM262.92777,248.56183h2.08631v9.23925h5.84366v-9.23925h2.09683v11.3361h-2.09683v-1.91592c-0.02132,0.26256 -0.09227,0.51082 -0.2129,0.74505c-0.12063,0.23422 -0.27673,0.43999 -0.46833,0.61741c-0.18456,0.17028 -0.39736,0.30506 -0.63873,0.40449c-0.24124,0.09931 -0.49667,0.14896 -0.76637,0.14896h-3.75734c-0.28387,0 -0.55346,-0.05316 -0.80899,-0.15961c-0.25541,-0.11359 -0.47897,-0.26255 -0.67057,-0.44713c-0.18446,-0.1916 -0.33353,-0.41516 -0.447,-0.67057c-0.10645,-0.25541 -0.15974,-0.52863 -0.15974,-0.81954zM275.78594,248.56183h2.76753v-3.49127h2.09685v3.49127h3.7255v2.09696h-3.7255v7.14228h3.7255v2.09684h-3.7255c-0.28374,0 -0.55346,-0.05316 -0.80887,-0.15961c-0.25554,-0.11359 -0.47898,-0.26255 -0.67057,-0.44713c-0.19172,-0.1916 -0.34419,-0.41516 -0.4578,-0.67057c-0.10645,-0.25541 -0.15962,-0.52863 -0.15962,-0.81954v-7.14228h-2.76753zM180.78678,286.27418l2.37365,-5.5989l-4.44926,-10.31419h2.20334l3.31033,7.80219l3.31034,-7.80219h2.20335l-6.86549,15.91309zM201.72381,279.60034c0,0.29089 -0.05668,0.56412 -0.17028,0.81952c-0.10645,0.25541 -0.25541,0.47899 -0.44701,0.67057c-0.18457,0.18456 -0.4045,0.33353 -0.66003,0.44712c-0.24827,0.10645 -0.51797,0.15962 -0.80888,0.15962h-5.63075c-0.28387,0 -0.55358,-0.05317 -0.80899,-0.15962c-0.25541,-0.11359 -0.47896,-0.26256 -0.67056,-0.44712c-0.18457,-0.19158 -0.33354,-0.41516 -0.44713,-0.67057c-0.10634,-0.25541 -0.15963,-0.52863 -0.15963,-0.81952v-7.14229c0,-0.29089 0.05329,-0.56411 0.15963,-0.81964c0.1136,-0.25541 0.26256,-0.47536 0.44713,-0.65992c0.1916,-0.19158 0.41515,-0.34056 0.67056,-0.44701c0.25541,-0.11359 0.52512,-0.17038 0.80899,-0.17038h5.63075c0.29091,0 0.56061,0.05679 0.80888,0.17038c0.25553,0.10645 0.47545,0.25543 0.66003,0.44701c0.1916,0.18456 0.34056,0.40451 0.44701,0.65992c0.1136,0.25554 0.17028,0.52875 0.17028,0.81964zM194.00689,272.45804v7.14229h5.63074v-7.14229zM205.22575,270.36109h2.08632v9.23925h5.84365v-9.23925h2.09685v11.33609h-2.09685v-1.91591c-0.02132,0.26256 -0.09228,0.51083 -0.21291,0.74505c-0.12063,0.23422 -0.27673,0.43997 -0.46831,0.61741c-0.18457,0.17026 -0.39736,0.30506 -0.63873,0.40449c-0.24124,0.09931 -0.49666,0.14896 -0.76636,0.14896h-3.75734c-0.28387,0 -0.55347,-0.05317 -0.809,-0.15962c-0.25541,-0.11359 -0.47898,-0.26256 -0.67056,-0.44712c-0.18446,-0.19158 -0.33354,-0.41516 -0.44701,-0.67057c-0.10645,-0.25541 -0.15975,-0.52863 -0.15975,-0.81952zM220.83014,272.45804v9.23914h-2.08631v-11.33609h2.08631v2.00117c0.01418,-0.27672 0.07811,-0.53578 0.19159,-0.77702c0.1136,-0.24839 0.26255,-0.46129 0.44701,-0.63871c0.1916,-0.18444 0.41164,-0.32638 0.66003,-0.42569c0.24827,-0.10645 0.51447,-0.15973 0.79821,-0.15973h2.22473c0.29091,0 0.56048,0.05679 0.80888,0.17038c0.25553,0.10645 0.47898,0.25543 0.67057,0.44701c0.1916,0.18456 0.34068,0.40451 0.44712,0.65992c0.11347,0.25554 0.17028,0.52875 0.17028,0.81964v1.91591h-2.09685v-1.91591zM236.7006,279.60034v-2.6291h-4.97083c-0.29091,0 -0.56411,-0.0533 -0.81964,-0.15975c-0.25541,-0.11347 -0.47898,-0.26255 -0.67057,-0.44701c-0.18446,-0.19158 -0.33354,-0.41516 -0.44701,-0.67057c-0.10645,-0.25554 -0.15961,-0.52875 -0.15961,-0.81966v-2.4162c0,-0.29089 0.05316,-0.56411 0.15961,-0.81964c0.11347,-0.25541 0.26255,-0.47536 0.44701,-0.65992c0.1916,-0.19158 0.41517,-0.34056 0.67057,-0.44701c0.25553,-0.11359 0.52874,-0.17038 0.81964,-0.17038h6.63134v2.09696h-6.63134v2.4162h4.97083c0.29091,0 0.56061,0.0568 0.809,0.17028c0.25541,0.10645 0.47897,0.25554 0.67057,0.44712c0.1916,0.18444 0.34056,0.40451 0.44701,0.65992c0.1136,0.25541 0.17028,0.52863 0.17028,0.81965v2.6291c0,0.29089 -0.05667,0.56412 -0.17028,0.81952c-0.10645,0.25541 -0.25541,0.47899 -0.44701,0.67057c-0.1916,0.18456 -0.41515,0.33353 -0.67057,0.44712c-0.24839,0.10645 -0.51809,0.15962 -0.809,0.15962h-7.06769v-2.09685zM251.66627,277.09886h-7.50415v2.50146h7.50415v2.09685h-7.50415c-0.28387,0 -0.55346,-0.05317 -0.80888,-0.15962c-0.25553,-0.11359 -0.4791,-0.26256 -0.67068,-0.44712c-0.18446,-0.19158 -0.33342,-0.41516 -0.44701,-0.67057c-0.10645,-0.25541 -0.15961,-0.52863 -0.15961,-0.81952v-7.14229c0,-0.29089 0.05316,-0.56411 0.15961,-0.81964c0.1136,-0.25541 0.26255,-0.47536 0.44701,-0.65992c0.1916,-0.19158 0.41516,-0.34056 0.6707,-0.44701c0.25541,-0.11359 0.525,-0.17038 0.80887,-0.17038h5.40731c0.29091,0 0.56412,0.05679 0.81953,0.17038c0.25553,0.10645 0.47545,0.25543 0.65991,0.44701c0.1916,0.18456 0.34068,0.40451 0.44713,0.65992c0.11347,0.25554 0.17028,0.52875 0.17028,0.81964zM244.16213,272.45804v2.54398h5.40731v-2.54398zM257.25452,265.99698v15.70019h-2.08631v-15.70019zM264.95025,268.09396v2.26712h3.72537v2.09697h-3.72537v9.23913h-2.09697v-9.23913h-2.76743v-2.09697h2.76743v-2.26712c0,-0.29102 0.05328,-0.5606 0.15973,-0.80899c0.11347,-0.25541 0.26607,-0.47899 0.45767,-0.67057c0.1916,-0.19158 0.41517,-0.34068 0.67057,-0.44701c0.25541,-0.11359 0.52512,-0.17041 0.80899,-0.17041h3.72538v2.09697zM288.07999,279.60034c0,0.29089 -0.05679,0.56412 -0.17026,0.81952c-0.10645,0.25541 -0.25554,0.47899 -0.44713,0.67057c-0.18444,0.18456 -0.4045,0.33353 -0.65991,0.44712c-0.25541,0.10645 -0.52863,0.15962 -0.81952,0.15962h-5.84366c-0.28389,0 -0.55358,-0.05317 -0.80901,-0.15962c-0.25554,-0.11359 -0.47898,-0.26256 -0.67057,-0.44712c-0.18456,-0.19158 -0.33353,-0.41516 -0.44713,-0.67057c-0.10645,-0.25541 -0.15961,-0.52863 -0.15961,-0.81952v-13.60334h2.08631v6.36527c0.01418,-0.27672 0.07799,-0.53578 0.19158,-0.77702c0.11347,-0.24839 0.26256,-0.4613 0.44701,-0.63872c0.19158,-0.18444 0.41151,-0.32638 0.65991,-0.42569c0.24839,-0.10645 0.51446,-0.15973 0.79835,-0.15973h3.74681c0.29089,0 0.56412,0.05679 0.81952,0.17039c0.25541,0.10645 0.47547,0.25543 0.65991,0.44701c0.19159,0.18456 0.34068,0.4045 0.44713,0.65991c0.11347,0.25554 0.17026,0.52875 0.17026,0.81964zM280.1395,272.45804v7.14229h5.84366v-7.14229zM292.33762,286.27418l2.3737,-5.5989l-4.44922,-10.31419h2.2033l3.31034,7.80219l3.31022,-7.80219h2.20294l-6.86495,15.91309zM188.09932,294.2573v7.14229h5.40726v-1.91603h2.09685v1.91603c0,0.29089 -0.0568,0.56412 -0.17028,0.81953c-0.10645,0.25541 -0.25541,0.47898 -0.44701,0.67057c-0.18457,0.18456 -0.4045,0.33354 -0.66003,0.44713c-0.25541,0.10645 -0.52863,0.15963 -0.81952,0.15963h-5.40726c-0.28384,0 -0.55349,-0.05318 -0.80897,-0.15963c-0.25546,-0.11359 -0.47898,-0.26257 -0.67058,-0.44713c-0.18449,-0.19158 -0.33352,-0.41516 -0.44705,-0.67057c-0.10644,-0.25541 -0.15965,-0.52864 -0.15965,-0.81953v-7.14229c0,-0.29089 0.05321,-0.56411 0.15965,-0.81964c0.11354,-0.25541 0.26255,-0.47534 0.44705,-0.65992c0.1916,-0.19158 0.41512,-0.34056 0.67058,-0.44701c0.25546,-0.11359 0.52512,-0.17039 0.80897,-0.17039h5.40726c0.29091,0 0.56412,0.0568 0.81952,0.17039c0.25553,0.10645 0.47546,0.25543 0.66003,0.44701c0.1916,0.18456 0.34056,0.40449 0.44701,0.65992c0.11347,0.25554 0.17028,0.52875 0.17028,0.81964v1.91592h-2.09685v-1.91592zM208.90861,301.39958c0,0.29089 -0.05668,0.56412 -0.17028,0.81953c-0.10645,0.25541 -0.25541,0.47898 -0.44701,0.67057c-0.18457,0.18456 -0.40449,0.33354 -0.6599,0.44713c-0.24839,0.10645 -0.5181,0.15963 -0.80901,0.15963h-5.63074c-0.28387,0 -0.55359,-0.05318 -0.809,-0.15963c-0.25541,-0.11359 -0.47897,-0.26257 -0.67057,-0.44713c-0.18446,-0.19158 -0.33354,-0.41516 -0.44701,-0.67057c-0.10645,-0.25541 -0.15974,-0.52864 -0.15974,-0.81953v-7.14229c0,-0.29089 0.05329,-0.56411 0.15974,-0.81964c0.11347,-0.25541 0.26255,-0.47534 0.44701,-0.65992c0.1916,-0.19158 0.41516,-0.34056 0.67057,-0.44701c0.25541,-0.11359 0.52511,-0.17039 0.809,-0.17039h5.63074c0.29091,0 0.56062,0.0568 0.80901,0.17039c0.25541,0.10645 0.47534,0.25543 0.6599,0.44701c0.1916,0.18456 0.34056,0.40449 0.44701,0.65992c0.1136,0.25554 0.17028,0.52875 0.17028,0.81964zM201.19167,294.2573v7.14229h5.63074v-7.14229zM221.39425,294.2573v9.23914h-2.09685v-9.23914h-4.80057v9.23914h-2.0862v-11.3361h2.0862v2.00118c0.01418,-0.27672 0.07811,-0.53578 0.19159,-0.77702c0.1136,-0.24839 0.26255,-0.46129 0.44712,-0.63871c0.1916,-0.18444 0.41153,-0.32639 0.65992,-0.4257c0.24839,-0.10645 0.51447,-0.15974 0.79834,-0.15974h2.70359c0.27673,0 0.53929,0.05329 0.78768,0.15974c0.24827,0.09931 0.46832,0.24124 0.65992,0.4257c0.1916,0.17744 0.34419,0.39032 0.45766,0.63871c0.12063,0.24124 0.18457,0.5003 0.1916,0.77702c0.01418,-0.27672 0.07448,-0.53578 0.18093,-0.77702c0.1136,-0.24839 0.26256,-0.46129 0.44713,-0.63871c0.1916,-0.18444 0.41152,-0.32639 0.65991,-0.4257c0.24839,-0.10645 0.51445,-0.15974 0.79833,-0.15974h2.7036c0.29091,0 0.56413,0.0568 0.81966,0.1704c0.25541,0.10645 0.47534,0.25543 0.6599,0.44701c0.1916,0.18456 0.34056,0.40449 0.44701,0.65992c0.1136,0.25554 0.17028,0.52875 0.17028,0.81964v9.23913h-2.09685v-9.23913zM241.80974,301.39958c0,0.29089 -0.05668,0.56412 -0.17028,0.81953c-0.10645,0.25541 -0.25541,0.47898 -0.44701,0.67057c-0.18457,0.18456 -0.40451,0.33354 -0.65992,0.44713c-0.25553,0.10645 -0.52874,0.15963 -0.81965,0.15963h-5.84365c-0.28387,0 -0.55346,-0.05318 -0.80899,-0.15963c-0.25541,-0.11359 -0.47896,-0.26257 -0.67056,-0.44713c-0.18446,-0.19158 -0.33354,-0.41516 -0.44701,-0.67057c-0.10645,-0.25541 -0.15973,-0.52864 -0.15973,-0.81953v-13.60334h2.08631v6.36527c0.01418,-0.27672 0.07812,-0.53578 0.1916,-0.77702c0.1136,-0.24839 0.26255,-0.46129 0.447,-0.63871c0.1916,-0.18444 0.41164,-0.32639 0.66003,-0.4257c0.24827,-0.10645 0.51448,-0.15974 0.79822,-0.15974h3.7468c0.29091,0 0.56413,0.0568 0.81966,0.1704c0.25541,0.10645 0.47534,0.25543 0.65991,0.44701c0.1916,0.18456 0.34056,0.40449 0.44701,0.65992c0.1136,0.25554 0.17028,0.52875 0.17028,0.81964zM233.86923,294.2573v7.14229h5.84365v-7.14229zM247.50443,292.16033v11.3361h-2.09696v-11.3361zM245.30113,287.79624h2.30975v2.1821h-2.30975zM261.13962,303.49643h-2.09697v-9.23914h-5.84364v9.23914h-2.0862v-11.3361h2.0862v2.00118c0.0143,-0.27672 0.07812,-0.53578 0.19159,-0.77702c0.1136,-0.24839 0.26256,-0.46129 0.44713,-0.63871c0.1916,-0.18444 0.41151,-0.32639 0.6599,-0.4257c0.24839,-0.10645 0.51447,-0.15974 0.79834,-0.15974h3.74668c0.29102,0 0.56424,0.0568 0.81964,0.1704c0.25541,0.10645 0.47546,0.25543 0.65992,0.44701c0.1916,0.18456 0.34067,0.40449 0.44712,0.65992c0.11347,0.25554 0.17028,0.52875 0.17028,0.81964zM266.83419,292.16033v11.3361h-2.09685v-11.3361zM264.6309,287.79624h2.30975v2.1821h-2.30975zM280.46939,303.49643h-2.09685v-9.23914h-5.84366v9.23914h-2.08631v-11.3361h2.08631v2.00118c0.01418,-0.27672 0.07799,-0.53578 0.19159,-0.77702c0.11347,-0.24839 0.26256,-0.46129 0.44701,-0.63871c0.19158,-0.18444 0.41165,-0.32639 0.65991,-0.4257c0.24839,-0.10645 0.51445,-0.15974 0.79832,-0.15974h3.74681c0.29089,0 0.56412,0.0568 0.81952,0.1704c0.25554,0.10645 0.47546,0.25543 0.65992,0.44701c0.19171,0.18456 0.34068,0.40449 0.44713,0.65992c0.11347,0.25554 0.17028,0.52875 0.17028,0.81964zM283.96066,294.2573c0,-0.29089 0.05329,-0.56411 0.15974,-0.81964c0.11347,-0.25541 0.26256,-0.47534 0.447,-0.65992c0.19158,-0.19158 0.41515,-0.34056 0.67056,-0.44701c0.25554,-0.11359 0.52512,-0.17039 0.80899,-0.17039h3.75735c0.27672,0 0.53928,0.05329 0.78769,0.15974c0.24839,0.09931 0.46479,0.24123 0.64925,0.42569c0.19172,0.17744 0.34419,0.39032 0.45779,0.63871c0.12063,0.24124 0.18444,0.5003 0.1916,0.77702v-2.00117h2.09685v13.81625c0,0.29089 -0.0568,0.56413 -0.17028,0.81954c-0.10645,0.25541 -0.25541,0.47547 -0.44701,0.65991c-0.18456,0.19158 -0.4045,0.34068 -0.66003,0.44713c-0.25541,0.11347 -0.52863,0.17026 -0.81952,0.17026h-6.62068v-2.09684h6.62068v-2.91661h-5.84366c-0.28389,0 -0.55346,-0.05318 -0.80899,-0.15963c-0.25541,-0.11347 -0.47899,-0.26255 -0.67057,-0.44701c-0.18444,-0.19158 -0.33352,-0.41516 -0.447,-0.67057c-0.10645,-0.25554 -0.15975,-0.52876 -0.15975,-0.81966zM291.89062,300.96311v-6.70582h-5.84366v6.70582zM194.89036,320.69738h-7.50419v2.50146h7.5042v2.09685h-7.50419c-0.28384,0 -0.55348,-0.05318 -0.80895,-0.15963c-0.25546,-0.11359 -0.479,-0.26257 -0.67061,-0.44713c-0.18449,-0.19158 -0.33351,-0.41516 -0.44705,-0.67057c-0.10644,-0.25541 -0.15965,-0.52864 -0.15965,-0.81953v-7.14229c0,-0.29089 0.05321,-0.56411 0.15965,-0.81964c0.11354,-0.25541 0.26255,-0.47536 0.44705,-0.65992c0.1916,-0.19158 0.41514,-0.34056 0.67061,-0.44701c0.25545,-0.11359 0.5251,-0.17039 0.80895,-0.17039h5.40723c0.29091,0 0.56412,0.0568 0.81965,0.17039c0.25541,0.10645 0.47534,0.25543 0.65991,0.44701c0.1916,0.18456 0.34056,0.40451 0.44701,0.65992c0.1136,0.25554 0.17039,0.52875 0.17039,0.81964zM187.38616,316.05656v2.54398h5.40723v-2.54398zM208.27001,313.95959l-4.11932,5.53507l4.31091,5.80103h-2.53332l-3.04427,-4.09803l-3.05479,4.09803h-2.53332l4.32146,-5.80103l-4.1192,-5.53507h2.52266l2.8632,3.83195l2.85269,-3.83195zM220.45761,320.69738h-7.50415v2.50146h7.50415v2.09685h-7.50415c-0.28387,0 -0.55346,-0.05318 -0.80899,-0.15963c-0.25541,-0.11359 -0.47898,-0.26257 -0.67057,-0.44713c-0.18446,-0.19158 -0.33354,-0.41516 -0.44701,-0.67057c-0.10645,-0.25541 -0.15974,-0.52864 -0.15974,-0.81953v-7.14229c0,-0.29089 0.05329,-0.56411 0.15974,-0.81964c0.11347,-0.25541 0.26255,-0.47536 0.44701,-0.65992c0.1916,-0.19158 0.41517,-0.34056 0.67057,-0.44701c0.25553,-0.11359 0.52512,-0.17039 0.80899,-0.17039h5.40718c0.29102,0 0.56424,0.0568 0.81965,0.17039c0.25541,0.10645 0.47546,0.25543 0.65992,0.44701c0.1916,0.18456 0.34068,0.40451 0.44712,0.65992c0.11347,0.25554 0.17028,0.52875 0.17028,0.81964zM212.95346,316.05656v2.54398h5.40718v-2.54398zM226.04573,316.05656v9.23914h-2.0862v-11.3361h2.0862v2.00118c0.0143,-0.27672 0.07811,-0.53578 0.19159,-0.77702c0.1136,-0.24839 0.26255,-0.46128 0.44712,-0.63871c0.1916,-0.18444 0.41152,-0.32639 0.65991,-0.4257c0.24839,-0.10645 0.51447,-0.15974 0.79835,-0.15974h2.22461c0.29091,0 0.5606,0.0568 0.80899,0.17039c0.25541,0.10645 0.47897,0.25543 0.67057,0.44701c0.1916,0.18456 0.34054,0.40451 0.44699,0.65992c0.1136,0.25554 0.17028,0.52875 0.17028,0.81964v1.91591h-2.09685v-1.91591zM237.15827,316.05656v7.14229h5.40731v-1.91604h2.09685v1.91604c0,0.29089 -0.05681,0.56412 -0.17028,0.81953c-0.10645,0.25541 -0.25553,0.47897 -0.44712,0.67057c-0.18446,0.18456 -0.40438,0.33353 -0.65991,0.44713c-0.25541,0.10645 -0.52863,0.15963 -0.81952,0.15963h-5.40731c-0.28387,0 -0.55346,-0.05318 -0.80888,-0.15963c-0.25553,-0.11359 -0.4791,-0.26257 -0.67068,-0.44713c-0.18446,-0.19158 -0.33354,-0.41516 -0.44701,-0.67057c-0.10645,-0.25541 -0.15961,-0.52864 -0.15961,-0.81953v-7.14229c0,-0.29089 0.05316,-0.56411 0.15961,-0.81964c0.11347,-0.25541 0.26255,-0.47536 0.44701,-0.65992c0.1916,-0.19158 0.41516,-0.34056 0.6707,-0.44701c0.25541,-0.11359 0.525,-0.17039 0.80887,-0.17039h5.40731c0.29091,0 0.56412,0.0568 0.81953,0.17039c0.25553,0.10645 0.47545,0.25543 0.65991,0.44701c0.1916,0.18456 0.34068,0.40451 0.44713,0.65992c0.11347,0.25554 0.17028,0.52875 0.17028,0.81964v1.91592h-2.09685v-1.91592zM250.36764,313.95959v11.3361h-2.09685v-11.3361zM248.16434,309.5955h2.30975v2.1821h-2.30975zM260.82027,323.19884v-2.62912h-4.97085c-0.29091,0 -0.56411,-0.05329 -0.81952,-0.15974c-0.25553,-0.11347 -0.4791,-0.26256 -0.67069,-0.447c-0.18446,-0.19158 -0.33341,-0.41516 -0.44701,-0.67057c-0.10645,-0.25554 -0.15961,-0.52874 -0.15961,-0.81965v-2.41621c0,-0.29089 0.05316,-0.56411 0.15961,-0.81964c0.1136,-0.25541 0.26255,-0.47536 0.44701,-0.65992c0.1916,-0.19158 0.41516,-0.34056 0.6707,-0.44701c0.25541,-0.11359 0.52862,-0.17039 0.81952,-0.17039h6.63133v2.09696h-6.63133v2.41621h4.97084c0.29091,0 0.5606,0.0568 0.80899,0.17027c0.25541,0.10645 0.47897,0.25555 0.67057,0.44713c0.1916,0.18444 0.34056,0.40449 0.44701,0.6599c0.1136,0.25541 0.17039,0.52863 0.17039,0.81966v2.62912c0,0.29089 -0.0568,0.56412 -0.17039,0.81953c-0.10645,0.25541 -0.25541,0.47897 -0.44701,0.67057c-0.1916,0.18456 -0.41516,0.33353 -0.67057,0.44713c-0.24839,0.10645 -0.51808,0.15963 -0.80899,0.15963h-7.06769v-2.09685zM275.78594,320.69738h-7.50415v2.50146h7.50415v2.09685h-7.50415c-0.28374,0 -0.55346,-0.05318 -0.80887,-0.15963c-0.25553,-0.11359 -0.47897,-0.26257 -0.67057,-0.44713c-0.18457,-0.19158 -0.33353,-0.41516 -0.44713,-0.67057c-0.10645,-0.25541 -0.15963,-0.52864 -0.15963,-0.81953v-7.14229c0,-0.29089 0.05318,-0.56411 0.15963,-0.81964c0.1136,-0.25541 0.26255,-0.47536 0.44713,-0.65992c0.1916,-0.19158 0.41503,-0.34056 0.67057,-0.44701c0.25541,-0.11359 0.52513,-0.17039 0.80887,-0.17039h5.40731c0.29089,0 0.56411,0.0568 0.81952,0.17039c0.25554,0.10645 0.47547,0.25543 0.66003,0.44701c0.19158,0.18456 0.34056,0.40451 0.44701,0.65992c0.1136,0.25554 0.17028,0.52875 0.17028,0.81964zM268.28179,316.05656v2.54398h5.40731v-2.54398zM286.1321,323.19884v-2.62912h-4.97082c-0.29089,0 -0.56412,-0.05329 -0.81966,-0.15974c-0.25541,-0.11347 -0.47898,-0.26256 -0.67057,-0.447c-0.18444,-0.19158 -0.33353,-0.41516 -0.44701,-0.67057c-0.10645,-0.25554 -0.15961,-0.52874 -0.15961,-0.81965v-2.41621c0,-0.29089 0.05316,-0.56411 0.15961,-0.81964c0.11347,-0.25541 0.26256,-0.47536 0.44701,-0.65992c0.19159,-0.19158 0.41516,-0.34056 0.67057,-0.44701c0.25554,-0.11359 0.52875,-0.17039 0.81966,-0.17039h6.63133v2.09696h-6.63133v2.41621h4.97082c0.29089,0 0.56061,0.0568 0.809,0.17027c0.25541,0.10645 0.47898,0.25555 0.67057,0.44713c0.19158,0.18444 0.34054,0.40449 0.44699,0.6599c0.1136,0.25541 0.17028,0.52863 0.17028,0.81966v2.62912c0,0.29089 -0.05669,0.56412 -0.17028,0.81953c-0.10645,0.25541 -0.25541,0.47897 -0.44699,0.67057c-0.19159,0.18456 -0.41516,0.33353 -0.67057,0.44713c-0.24839,0.10645 -0.5181,0.15963 -0.809,0.15963h-7.06767v-2.09685zM291.50744,322.11312h3.18257v3.18257h-3.18257z" fill="#000000" fill-rule="nonzero" stroke="#000000" stroke-width="0.25" stroke-linecap="butt"/><path d="M190.80507,30.24921c0,-0.41912 0.07833,-0.81208 0.23542,-1.17876c0.15666,-0.37983 0.3723,-0.70293 0.6469,-0.96921c0.2746,-0.27942 0.59352,-0.49772 0.95635,-0.65751c0.37271,-0.1694 0.76482,-0.25368 1.17671,-0.25368h11.44517c0.41189,0 0.79924,0.08428 1.16208,0.25368c0.37271,0.15982 0.69638,0.37811 0.97098,0.65751c0.2746,0.26633 0.49065,0.58938 0.64731,0.96921c0.15709,0.36674 0.23542,0.75965 0.23542,1.17876v2.75925h-3.01579v-2.75925h-11.44517v15.28063h11.44517v-2.74616h3.01579v2.74616c0,0.41912 -0.07833,0.81642 -0.23542,1.1919c-0.15666,0.37109 -0.37271,0.69418 -0.64731,0.9736c-0.2746,0.27507 -0.59826,0.49336 -0.97098,0.6549c-0.36282,0.15718 -0.75018,0.24012 -1.16208,0.24012h-11.44517c-0.41189,0 -0.80399,-0.08294 -1.17671,-0.24012c-0.36282,-0.16154 -0.68175,-0.37983 -0.95635,-0.6549c-0.2746,-0.27942 -0.49022,-0.60247 -0.6469,-0.9736c-0.15709,-0.37548 -0.23542,-0.77278 -0.23542,-1.1919zM214.79202,35.63672v12.95362h-2.88367v-15.89622h2.88367v2.80728c0.01937,-0.38855 0.1076,-0.75092 0.26471,-1.0871c0.15666,-0.34927 0.36282,-0.65051 0.61762,-0.89936c0.26512,-0.25759 0.56898,-0.45407 0.91245,-0.59377c0.34304,-0.14845 0.71102,-0.22704 1.10311,-0.22704h3.07477c0.402,0 0.77471,0.08294 1.11775,0.24012c0.35335,0.14845 0.66195,0.358 0.92709,0.6287c0.26471,0.25759 0.47042,0.56757 0.61762,0.92557c0.15709,0.358 0.23542,0.73783 0.23542,1.14823v2.68505h-2.89787v-2.68505zM239.61747,42.1419h-10.37131v3.50582h10.37131v2.9426h-10.37131c-0.39208,0 -0.76482,-0.07419 -1.11775,-0.22704c-0.35335,-0.15718 -0.66195,-0.36674 -0.92709,-0.62433c-0.25479,-0.27068 -0.46096,-0.58504 -0.61762,-0.94304c-0.1472,-0.358 -0.22078,-0.73783 -0.22078,-1.14823v-10.011c0,-0.41039 0.0736,-0.79021 0.22078,-1.14823c0.15666,-0.358 0.36282,-0.66798 0.61762,-0.92557c0.26512,-0.27068 0.57371,-0.48024 0.92709,-0.6287c0.35293,-0.15718 0.72564,-0.24012 1.11775,-0.24012h7.47345c0.402,0 0.77946,0.08294 1.13239,0.24012c0.35335,0.14845 0.65723,0.358 0.91245,0.6287c0.26471,0.25759 0.47042,0.56757 0.61762,0.92557c0.15709,0.358 0.23542,0.73783 0.23542,1.14823zM229.246,35.63672v3.56693h7.47345v-3.56693zM243.55336,41.64852c0,-0.40603 0.0736,-0.78586 0.22078,-1.13514c0.15666,-0.358 0.36282,-0.66798 0.61762,-0.93865c0.26512,-0.26633 0.57371,-0.47588 0.92709,-0.62433c0.35293,-0.16154 0.72564,-0.24012 1.11775,-0.24012h7.47345v-3.07361h-9.45931v-2.9426h9.45931c0.402,0 0.77946,0.08294 1.13239,0.24012c0.35335,0.14845 0.65723,0.358 0.91245,0.6287c0.26471,0.25759 0.47042,0.56757 0.61762,0.92557c0.15709,0.358 0.23542,0.73783 0.23542,1.14823v12.95362h-2.89787v-2.6894c-0.0297,0.37109 -0.12783,0.71601 -0.29438,1.04781c-0.16657,0.32745 -0.38263,0.61561 -0.64731,0.86446c-0.25479,0.24012 -0.54919,0.42787 -0.88275,0.56757c-0.33312,0.1397 -0.68649,0.20957 -1.0592,0.20957h-4.58977c-0.39208,0 -0.76482,-0.07419 -1.11775,-0.22704c-0.35335,-0.15718 -0.66195,-0.36674 -0.92709,-0.62433c-0.25479,-0.27068 -0.46096,-0.58504 -0.61762,-0.94304c-0.1472,-0.358 -0.22078,-0.73783 -0.22078,-1.14823zM246.43672,45.64771h7.47345v-3.99917h-7.47345zM259.83203,32.69409h3.82495v-4.89416h2.89787v4.89416h5.14886v2.9426h-5.14886v10.011h5.14886v2.9426h-5.14886c-0.39208,0 -0.76482,-0.07419 -1.11817,-0.22704c-0.35293,-0.15718 -0.66195,-0.36674 -0.92664,-0.62433c-0.26471,-0.27068 -0.4756,-0.58504 -0.63268,-0.94304c-0.14677,-0.358 -0.22037,-0.73783 -0.22037,-1.14823v-10.011h-3.82495zM288.89427,42.1419h-10.37131v3.50582h10.37131v2.9426h-10.37131c-0.39208,0 -0.76482,-0.07419 -1.11775,-0.22704c-0.35335,-0.15718 -0.66195,-0.36674 -0.92709,-0.62433c-0.25479,-0.27068 -0.46096,-0.58504 -0.61762,-0.94304c-0.1472,-0.358 -0.22078,-0.73783 -0.22078,-1.14823v-10.011c0,-0.41039 0.0736,-0.79021 0.22078,-1.14823c0.15666,-0.358 0.36282,-0.66798 0.61762,-0.92557c0.26512,-0.27068 0.57371,-0.48024 0.92709,-0.6287c0.35293,-0.15718 0.72564,-0.24012 1.11775,-0.24012h7.47345c0.402,0 0.77946,0.08294 1.13239,0.24012c0.35335,0.14845 0.65723,0.358 0.91245,0.6287c0.26471,0.25759 0.47042,0.56757 0.61762,0.92557c0.15709,0.358 0.23542,0.73783 0.23542,1.14823zM278.52284,35.63672v3.56693h7.47345v-3.56693zM184.51451,77.73746l-6.03161,-21.4003h3.01579l4.678,17.02567l4.66337,-17.02567h3.01579l4.66337,17.02567l4.678,-17.02567h3.01579l-6.03161,21.4003h-3.30976l-4.5166,-16.04466l-4.53081,16.04466zM221.26947,74.79486c0,0.41039 -0.07747,0.79021 -0.23242,1.14823c-0.15063,0.358 -0.35293,0.67237 -0.61977,0.94304c-0.25393,0.25759 -0.55952,0.46716 -0.91245,0.62433c-0.34431,0.15279 -0.71446,0.22704 -1.11903,0.22704h-7.78161c-0.39166,0 -0.7661,-0.07419 -1.11903,-0.22704c-0.35293,-0.15718 -0.65851,-0.36674 -0.92492,-0.62433c-0.25479,-0.27068 -0.46096,-0.58504 -0.61762,-0.94304c-0.1472,-0.358 -0.22078,-0.73783 -0.22078,-1.14823v-10.011c0,-0.41039 0.0736,-0.79021 0.22078,-1.14823c0.15666,-0.358 0.36282,-0.66798 0.61762,-0.92557c0.26641,-0.27068 0.57199,-0.48024 0.92492,-0.6287c0.35293,-0.15718 0.72736,-0.24012 1.11903,-0.24012h7.78161c0.40458,0 0.77471,0.08294 1.11903,0.24012c0.35293,0.14845 0.65851,0.358 0.91245,0.6287c0.26684,0.25759 0.46913,0.56757 0.61977,0.92557c0.15494,0.358 0.23242,0.73783 0.23242,1.14823zM210.60407,64.78387v10.011h7.78161v-10.011zM228.09125,64.78387v12.95362h-2.88367v-15.89622h2.88367v2.80728c0.01722,-0.38855 0.1076,-0.75092 0.26254,-1.0871c0.15924,-0.34927 0.36584,-0.65051 0.61977,-0.89936c0.26254,-0.25759 0.56812,-0.45407 0.91245,-0.59377c0.34001,-0.14845 0.71016,-0.22704 1.10182,-0.22704h3.07305c0.40458,0 0.77471,0.08294 1.11903,0.24012c0.35293,0.14845 0.66282,0.358 0.92536,0.6287c0.26684,0.25759 0.47344,0.56757 0.61977,0.92557c0.15494,0.358 0.23672,0.73783 0.23672,1.14823v2.68505h-2.90089v-2.68505zM250.01581,77.73746l-7.47173,-6.79332v6.79332h-2.88367v-22.0124h2.88367v12.38558l6.86917,-6.2694h4.07588l-8.41431,7.67087l9.01686,8.22535zM268.84145,74.79486c0,0.41039 -0.07747,0.79021 -0.23672,1.14823c-0.14634,0.358 -0.35293,0.67237 -0.61547,0.94304c-0.25824,0.25759 -0.55952,0.46716 -0.91245,0.62433c-0.34431,0.15279 -0.71877,0.22704 -1.11903,0.22704h-7.78161c-0.39166,0 -0.7661,-0.07419 -1.11903,-0.22704c-0.35293,-0.15718 -0.66282,-0.36674 -0.92536,-0.62433c-0.25393,-0.27068 -0.46052,-0.58504 -0.61977,-0.94304c-0.14634,-0.358 -0.21951,-0.73783 -0.21951,-1.14823v-10.011c0,-0.41039 0.07317,-0.79021 0.21951,-1.14823c0.15924,-0.358 0.36584,-0.66798 0.61977,-0.92557c0.26254,-0.27068 0.57244,-0.48024 0.92536,-0.6287c0.35293,-0.15718 0.72736,-0.24012 1.11903,-0.24012h7.78161c0.40028,0 0.77471,0.08294 1.11903,0.24012c0.35293,0.14845 0.65421,0.358 0.91245,0.6287c0.26254,0.25759 0.46913,0.56757 0.61547,0.92557c0.15924,0.358 0.23672,0.73783 0.23672,1.14823zM258.17604,64.78387v10.011h7.78161v-10.011zM272.77525,61.84124h2.88367v12.95362h8.07858v-12.95362h2.89659v15.89622h-2.89659v-2.6894c-0.03012,0.37109 -0.12912,0.71601 -0.29698,1.04781c-0.16354,0.32745 -0.37875,0.61561 -0.64559,0.86446c-0.25393,0.24012 -0.55091,0.42787 -0.88232,0.56757c-0.33571,0.1397 -0.68864,0.20957 -1.05879,0.20957h-5.19491c-0.39166,0 -0.76181,-0.07419 -1.11474,-0.22704c-0.35293,-0.15718 -0.66282,-0.36674 -0.92967,-0.62433c-0.25393,-0.27068 -0.46052,-0.58504 -0.61547,-0.94304c-0.15063,-0.358 -0.22381,-0.73783 -0.22381,-1.14823zM289.64244,61.84124h3.82625v-4.89416h2.89659v4.89416h5.15187v2.9426h-5.15187v10.011h5.15187v2.9426h-5.15187c-0.39166,0 -0.76181,-0.07419 -1.11474,-0.22704c-0.35293,-0.15718 -0.66282,-0.36674 -0.92967,-0.62433c-0.26254,-0.27068 -0.47344,-0.58504 -0.63268,-0.94304c-0.14634,-0.358 -0.21951,-0.73783 -0.21951,-1.14823v-10.011h-3.82625z" fill="#5267bf" fill-rule="nonzero" stroke="none" stroke-width="1" stroke-linecap="butt"/></g></g></svg>