<svg xmlns="http://www.w3.org/2000/svg" fill="none" viewBox="0 0 117 53" height="53" width="117">
<path fill="black" d="M24.042 0.396484H25.8438V11.1982H33.042V0.396484H34.8438V11.1982C34.8438 11.4443 34.7969 11.6787 34.7031 11.9014C34.6094 12.1182 34.4805 12.3086 34.3164 12.4727C34.1523 12.6367 33.959 12.7656 33.7363 12.8594C33.5195 12.9531 33.2881 13 33.042 13H25.8438C25.5977 13 25.3633 12.9531 25.1406 12.8594C24.9238 12.7656 24.7334 12.6367 24.5693 12.4727C24.4053 12.3086 24.2764 12.1182 24.1826 11.9014C24.0889 11.6787 24.042 11.4443 24.042 11.1982V0.396484ZM43.5625 11.2686V9.09766H39.458C39.2178 9.09766 38.9922 9.05371 38.7812 8.96582C38.5703 8.87207 38.3857 8.74902 38.2275 8.59668C38.0752 8.43848 37.9521 8.25391 37.8584 8.04297C37.7705 7.83203 37.7266 7.60645 37.7266 7.36621V5.37109C37.7266 5.13086 37.7705 4.90527 37.8584 4.69434C37.9521 4.4834 38.0752 4.30176 38.2275 4.14941C38.3857 3.99121 38.5703 3.86816 38.7812 3.78027C38.9922 3.68652 39.2178 3.63965 39.458 3.63965H44.9336V5.37109H39.458V7.36621H43.5625C43.8027 7.36621 44.0254 7.41309 44.2305 7.50684C44.4414 7.59473 44.626 7.71777 44.7842 7.87598C44.9424 8.02832 45.0654 8.20996 45.1533 8.4209C45.2471 8.63184 45.2939 8.85742 45.2939 9.09766V11.2686C45.2939 11.5088 45.2471 11.7344 45.1533 11.9453C45.0654 12.1562 44.9424 12.3408 44.7842 12.499C44.626 12.6514 44.4414 12.7744 44.2305 12.8682C44.0254 12.9561 43.8027 13 43.5625 13H37.7266V11.2686H43.5625ZM55.9199 9.20312H49.7236V11.2686H55.9199V13H49.7236C49.4893 13 49.2666 12.9561 49.0557 12.8682C48.8447 12.7744 48.6602 12.6514 48.502 12.499C48.3496 12.3408 48.2266 12.1562 48.1328 11.9453C48.0449 11.7344 48.001 11.5088 48.001 11.2686V5.37109C48.001 5.13086 48.0449 4.90527 48.1328 4.69434C48.2266 4.4834 48.3496 4.30176 48.502 4.14941C48.6602 3.99121 48.8447 3.86816 49.0557 3.78027C49.2666 3.68652 49.4893 3.63965 49.7236 3.63965H54.1885C54.4287 3.63965 54.6543 3.68652 54.8652 3.78027C55.0762 3.86816 55.2578 3.99121 55.4102 4.14941C55.5684 4.30176 55.6914 4.4834 55.7793 4.69434C55.873 4.90527 55.9199 5.13086 55.9199 5.37109V9.20312ZM49.7236 5.37109V7.47168H54.1885V5.37109H49.7236ZM63.6631 3.63965H65.9482V0.756836H67.6797V3.63965H70.7559V5.37109H67.6797V11.2686H70.7559V13H67.6797C67.4453 13 67.2227 12.9561 67.0117 12.8682C66.8008 12.7744 66.6162 12.6514 66.458 12.499C66.2998 12.3408 66.1738 12.1562 66.0801 11.9453C65.9922 11.7344 65.9482 11.5088 65.9482 11.2686V5.37109H63.6631V3.63965ZM81.9268 13H80.1953V5.37109H75.3701V13H73.6475V0.0361328H75.3701V5.29199C75.3818 5.06348 75.4346 4.84961 75.5283 4.65039C75.6221 4.44531 75.7451 4.26953 75.8975 4.12305C76.0557 3.9707 76.2373 3.85352 76.4424 3.77148C76.6475 3.68359 76.8672 3.63965 77.1016 3.63965H80.1953C80.4355 3.63965 80.6611 3.68652 80.8721 3.78027C81.083 3.86816 81.2646 3.99121 81.417 4.14941C81.5752 4.30176 81.6982 4.4834 81.7861 4.69434C81.8799 4.90527 81.9268 5.13086 81.9268 5.37109V13ZM92.7285 9.20312H86.5322V11.2686H92.7285V13H86.5322C86.2979 13 86.0752 12.9561 85.8643 12.8682C85.6533 12.7744 85.4688 12.6514 85.3105 12.499C85.1582 12.3408 85.0352 12.1562 84.9414 11.9453C84.8535 11.7344 84.8096 11.5088 84.8096 11.2686V5.37109C84.8096 5.13086 84.8535 4.90527 84.9414 4.69434C85.0352 4.4834 85.1582 4.30176 85.3105 4.14941C85.4688 3.99121 85.6533 3.86816 85.8643 3.78027C86.0752 3.68652 86.2979 3.63965 86.5322 3.63965H90.9971C91.2373 3.63965 91.4629 3.68652 91.6738 3.78027C91.8848 3.86816 92.0664 3.99121 92.2188 4.14941C92.377 4.30176 92.5 4.4834 92.5879 4.69434C92.6816 4.90527 92.7285 5.13086 92.7285 5.37109V9.20312ZM86.5322 5.37109V7.47168H90.9971V5.37109H86.5322ZM2.53516 23.3711V29.2686H7V27.6865H8.73145V29.2686C8.73145 29.5088 8.68457 29.7344 8.59082 29.9453C8.50293 30.1562 8.37988 30.3408 8.22168 30.499C8.06934 30.6514 7.8877 30.7744 7.67676 30.8682C7.46582 30.9561 7.24023 31 7 31H2.53516C2.30078 31 2.07812 30.9561 1.86719 30.8682C1.65625 30.7744 1.47168 30.6514 1.31348 30.499C1.16113 30.3408 1.03809 30.1562 0.944336 29.9453C0.856445 29.7344 0.8125 29.5088 0.8125 29.2686V23.3711C0.8125 23.1309 0.856445 22.9053 0.944336 22.6943C1.03809 22.4834 1.16113 22.3018 1.31348 22.1494C1.47168 21.9912 1.65625 21.8682 1.86719 21.7803C2.07812 21.6865 2.30078 21.6396 2.53516 21.6396H7C7.24023 21.6396 7.46582 21.6865 7.67676 21.7803C7.8877 21.8682 8.06934 21.9912 8.22168 22.1494C8.37988 22.3018 8.50293 22.4834 8.59082 22.6943C8.68457 22.9053 8.73145 23.1309 8.73145 23.3711V24.9531H7V23.3711H2.53516ZM19.7178 29.2686C19.7178 29.5088 19.6709 29.7344 19.5771 29.9453C19.4893 30.1562 19.3662 30.3408 19.208 30.499C19.0557 30.6514 18.874 30.7744 18.6631 30.8682C18.458 30.9561 18.2354 31 17.9951 31H13.3457C13.1113 31 12.8887 30.9561 12.6777 30.8682C12.4668 30.7744 12.2822 30.6514 12.124 30.499C11.9717 30.3408 11.8486 30.1562 11.7549 29.9453C11.667 29.7344 11.623 29.5088 11.623 29.2686V23.3711C11.623 23.1309 11.667 22.9053 11.7549 22.6943C11.8486 22.4834 11.9717 22.3018 12.124 22.1494C12.2822 21.9912 12.4668 21.8682 12.6777 21.7803C12.8887 21.6865 13.1113 21.6396 13.3457 21.6396H17.9951C18.2354 21.6396 18.458 21.6865 18.6631 21.7803C18.874 21.8682 19.0557 21.9912 19.208 22.1494C19.3662 22.3018 19.4893 22.4834 19.5771 22.6943C19.6709 22.9053 19.7178 23.1309 19.7178 23.3711V29.2686ZM13.3457 23.3711V29.2686H17.9951V23.3711H13.3457ZM22.6094 23.3711C22.6094 23.1309 22.6533 22.9053 22.7412 22.6943C22.835 22.4834 22.958 22.3018 23.1104 22.1494C23.2686 21.9912 23.4531 21.8682 23.6641 21.7803C23.875 21.6865 24.0977 21.6396 24.332 21.6396H29.1572V18.0361H30.8887V31H29.1572V29.418C29.1396 29.6348 29.0811 29.8398 28.9814 30.0332C28.8818 30.2266 28.7529 30.3965 28.5947 30.543C28.4424 30.6836 28.2666 30.7949 28.0674 30.877C27.8682 30.959 27.6572 31 27.4346 31H24.332C24.0977 31 23.875 30.9561 23.6641 30.8682C23.4531 30.7744 23.2686 30.6514 23.1104 30.499C22.958 30.3408 22.835 30.1562 22.7412 29.9453C22.6533 29.7344 22.6094 29.5088 22.6094 29.2686V23.3711ZM24.332 29.2686H29.1572V23.3711H24.332V29.2686ZM41.6904 27.2031H35.4941V29.2686H41.6904V31H35.4941C35.2598 31 35.0371 30.9561 34.8262 30.8682C34.6152 30.7744 34.4307 30.6514 34.2725 30.499C34.1201 30.3408 33.9971 30.1562 33.9033 29.9453C33.8154 29.7344 33.7715 29.5088 33.7715 29.2686V23.3711C33.7715 23.1309 33.8154 22.9053 33.9033 22.6943C33.9971 22.4834 34.1201 22.3018 34.2725 22.1494C34.4307 21.9912 34.6152 21.8682 34.8262 21.7803C35.0371 21.6865 35.2598 21.6396 35.4941 21.6396H39.959C40.1992 21.6396 40.4248 21.6865 40.6357 21.7803C40.8467 21.8682 41.0283 21.9912 41.1807 22.1494C41.3389 22.3018 41.4619 22.4834 41.5498 22.6943C41.6436 22.9053 41.6904 23.1309 41.6904 23.3711V27.2031ZM35.4941 23.3711V25.4717H39.959V23.3711H35.4941ZM58.0732 29.2686C58.0732 29.5088 58.0264 29.7344 57.9326 29.9453C57.8447 30.1562 57.7217 30.3408 57.5635 30.499C57.4111 30.6514 57.2295 30.7744 57.0186 30.8682C56.8135 30.9561 56.5908 31 56.3506 31H51.7012C51.4668 31 51.2441 30.9561 51.0332 30.8682C50.8223 30.7744 50.6377 30.6514 50.4795 30.499C50.3271 30.3408 50.2041 30.1562 50.1104 29.9453C50.0225 29.7344 49.9785 29.5088 49.9785 29.2686V23.3711C49.9785 23.1309 50.0225 22.9053 50.1104 22.6943C50.2041 22.4834 50.3271 22.3018 50.4795 22.1494C50.6377 21.9912 50.8223 21.8682 51.0332 21.7803C51.2441 21.6865 51.4668 21.6396 51.7012 21.6396H56.3506C56.5908 21.6396 56.8135 21.6865 57.0186 21.7803C57.2295 21.8682 57.4111 21.9912 57.5635 22.1494C57.7217 22.3018 57.8447 22.4834 57.9326 22.6943C58.0264 22.9053 58.0732 23.1309 58.0732 23.3711V29.2686ZM51.7012 23.3711V29.2686H56.3506V23.3711H51.7012ZM69.2441 31H67.5127V23.3711H62.6875V31H60.9648V21.6396H62.6875V23.292C62.6992 23.0635 62.752 22.8496 62.8457 22.6504C62.9395 22.4453 63.0625 22.2695 63.2148 22.123C63.373 21.9707 63.5547 21.8535 63.7598 21.7715C63.9648 21.6836 64.1846 21.6396 64.4189 21.6396H67.5127C67.7529 21.6396 67.9785 21.6865 68.1895 21.7803C68.4004 21.8682 68.582 21.9912 68.7344 22.1494C68.8926 22.3018 69.0156 22.4834 69.1035 22.6943C69.1973 22.9053 69.2441 23.1309 69.2441 23.3711V31ZM78.1562 34.7793L80.1162 30.1562L76.4424 21.6396H78.2617L80.9951 28.082L83.7285 21.6396H85.5479L79.8789 34.7793H78.1562ZM95.4443 29.2686C95.4443 29.5088 95.3975 29.7344 95.3037 29.9453C95.2158 30.1562 95.0928 30.3408 94.9346 30.499C94.7822 30.6514 94.6006 30.7744 94.3896 30.8682C94.1846 30.9561 93.9619 31 93.7217 31H89.0723C88.8379 31 88.6152 30.9561 88.4043 30.8682C88.1934 30.7744 88.0088 30.6514 87.8506 30.499C87.6982 30.3408 87.5752 30.1562 87.4814 29.9453C87.3936 29.7344 87.3496 29.5088 87.3496 29.2686V23.3711C87.3496 23.1309 87.3936 22.9053 87.4814 22.6943C87.5752 22.4834 87.6982 22.3018 87.8506 22.1494C88.0088 21.9912 88.1934 21.8682 88.4043 21.7803C88.6152 21.6865 88.8379 21.6396 89.0723 21.6396H93.7217C93.9619 21.6396 94.1846 21.6865 94.3896 21.7803C94.6006 21.8682 94.7822 21.9912 94.9346 22.1494C95.0928 22.3018 95.2158 22.4834 95.3037 22.6943C95.3975 22.9053 95.4443 23.1309 95.4443 23.3711V29.2686ZM89.0723 23.3711V29.2686H93.7217V23.3711H89.0723ZM98.3359 21.6396H100.059V29.2686H104.884V21.6396H106.615V31H104.884V29.418C104.866 29.6348 104.808 29.8398 104.708 30.0332C104.608 30.2266 104.479 30.3965 104.321 30.543C104.169 30.6836 103.993 30.7949 103.794 30.877C103.595 30.959 103.384 31 103.161 31H100.059C99.8242 31 99.6016 30.9561 99.3906 30.8682C99.1797 30.7744 98.9951 30.6514 98.8369 30.499C98.6846 30.3408 98.5615 30.1562 98.4678 29.9453C98.3799 29.7344 98.3359 29.5088 98.3359 29.2686V21.6396ZM111.221 23.3711V31H109.498V21.6396H111.221V23.292C111.232 23.0635 111.285 22.8496 111.379 22.6504C111.473 22.4453 111.596 22.2695 111.748 22.123C111.906 21.9707 112.088 21.8535 112.293 21.7715C112.498 21.6836 112.718 21.6396 112.952 21.6396H114.789C115.029 21.6396 115.252 21.6865 115.457 21.7803C115.668 21.8682 115.853 21.9912 116.011 22.1494C116.169 22.3018 116.292 22.4834 116.38 22.6943C116.474 22.9053 116.521 23.1309 116.521 23.3711V24.9531H114.789V23.3711H111.221ZM16.2637 38.1982C16.2637 37.9521 16.3105 37.7207 16.4043 37.5039C16.498 37.2812 16.627 37.0908 16.791 36.9326C16.9551 36.7686 17.1455 36.6396 17.3623 36.5459C17.585 36.4463 17.8193 36.3965 18.0654 36.3965H24.9033C25.1494 36.3965 25.3809 36.4463 25.5977 36.5459C25.8203 36.6396 26.0137 36.7686 26.1777 36.9326C26.3418 37.0908 26.4707 37.2812 26.5645 37.5039C26.6582 37.7207 26.7051 37.9521 26.7051 38.1982V39.8242H24.9033V38.1982H18.0654V47.1982H24.9033V45.5811H26.7051V47.1982C26.7051 47.4443 26.6582 47.6787 26.5645 47.9014C26.4707 48.1182 26.3418 48.3086 26.1777 48.4727C26.0137 48.6367 25.8203 48.7656 25.5977 48.8594C25.3809 48.9531 25.1494 49 24.9033 49H18.0654C17.8193 49 17.585 48.9531 17.3623 48.8594C17.1455 48.7656 16.9551 48.6367 16.791 48.4727C16.627 48.3086 16.498 48.1182 16.4043 47.9014C16.3105 47.6787 16.2637 47.4443 16.2637 47.1982V38.1982ZM31.1348 36.0361V49H29.4121V36.0361H31.1348ZM35.8369 39.6396V49H34.1055V39.6396H35.8369ZM34.0176 36.0361H35.9248V37.8379H34.0176V36.0361ZM47.0957 47.2686C47.0957 47.5088 47.0488 47.7344 46.9551 47.9453C46.8672 48.1562 46.7441 48.3408 46.5859 48.499C46.4336 48.6514 46.252 48.7744 46.041 48.8682C45.8301 48.9561 45.6045 49 45.3643 49H40.5391V52.7793H38.8164V39.6396H40.5391V41.2217C40.5566 40.999 40.6152 40.7939 40.7148 40.6064C40.8145 40.4131 40.9404 40.2461 41.0928 40.1055C41.2451 39.959 41.4209 39.8447 41.6201 39.7627C41.8252 39.6807 42.042 39.6396 42.2705 39.6396H45.3643C45.6045 39.6396 45.8301 39.6865 46.041 39.7803C46.252 39.8682 46.4336 39.9912 46.5859 40.1494C46.7441 40.3018 46.8672 40.4834 46.9551 40.6943C47.0488 40.9053 47.0957 41.1309 47.0957 41.3711V47.2686ZM45.3643 47.2686V41.3711H40.5391V47.2686H45.3643ZM58.2578 47.2686C58.2578 47.5088 58.2109 47.7344 58.1172 47.9453C58.0293 48.1562 57.9062 48.3408 57.748 48.499C57.5957 48.6514 57.4141 48.7744 57.2031 48.8682C56.9922 48.9561 56.7666 49 56.5264 49H51.7012C51.4668 49 51.2441 48.9561 51.0332 48.8682C50.8223 48.7744 50.6377 48.6514 50.4795 48.499C50.3271 48.3408 50.2041 48.1562 50.1104 47.9453C50.0225 47.7344 49.9785 47.5088 49.9785 47.2686V36.0361H51.7012V41.292C51.7129 41.0635 51.7656 40.8496 51.8594 40.6504C51.9531 40.4453 52.0762 40.2695 52.2285 40.123C52.3867 39.9707 52.5684 39.8535 52.7734 39.7715C52.9785 39.6836 53.1982 39.6396 53.4326 39.6396H56.5264C56.7666 39.6396 56.9922 39.6865 57.2031 39.7803C57.4141 39.8682 57.5957 39.9912 57.748 40.1494C57.9062 40.3018 58.0293 40.4834 58.1172 40.6943C58.2109 40.9053 58.2578 41.1309 58.2578 41.3711V47.2686ZM51.7012 41.3711V47.2686H56.5264V41.3711H51.7012ZM69.2354 47.2686C69.2354 47.5088 69.1885 47.7344 69.0947 47.9453C69.0068 48.1562 68.8838 48.3408 68.7256 48.499C68.5732 48.6514 68.3916 48.7744 68.1807 48.8682C67.9756 48.9561 67.7529 49 67.5127 49H62.8633C62.6289 49 62.4062 48.9561 62.1953 48.8682C61.9844 48.7744 61.7998 48.6514 61.6416 48.499C61.4893 48.3408 61.3662 48.1562 61.2725 47.9453C61.1846 47.7344 61.1406 47.5088 61.1406 47.2686V41.3711C61.1406 41.1309 61.1846 40.9053 61.2725 40.6943C61.3662 40.4834 61.4893 40.3018 61.6416 40.1494C61.7998 39.9912 61.9844 39.8682 62.1953 39.7803C62.4062 39.6865 62.6289 39.6396 62.8633 39.6396H67.5127C67.7529 39.6396 67.9756 39.6865 68.1807 39.7803C68.3916 39.8682 68.5732 39.9912 68.7256 40.1494C68.8838 40.3018 69.0068 40.4834 69.0947 40.6943C69.1885 40.9053 69.2354 41.1309 69.2354 41.3711V47.2686ZM62.8633 41.3711V47.2686H67.5127V41.3711H62.8633ZM72.127 44.9131C72.127 44.6729 72.1709 44.4502 72.2588 44.2451C72.3525 44.0342 72.4756 43.8496 72.6279 43.6914C72.7861 43.5332 72.9707 43.4102 73.1816 43.3223C73.3926 43.2285 73.6152 43.1816 73.8496 43.1816H78.3145V41.3711H72.6631V39.6396H78.3145C78.5547 39.6396 78.7803 39.6865 78.9912 39.7803C79.2021 39.8682 79.3838 39.9912 79.5361 40.1494C79.6943 40.3018 79.8174 40.4834 79.9053 40.6943C79.999 40.9053 80.0459 41.1309 80.0459 41.3711V49H78.3145V47.418C78.2969 47.6348 78.2383 47.8398 78.1387 48.0332C78.0391 48.2266 77.9102 48.3965 77.752 48.543C77.5996 48.6836 77.4238 48.7949 77.2246 48.877C77.0254 48.959 76.8145 49 76.5918 49H73.8496C73.6152 49 73.3926 48.9561 73.1816 48.8682C72.9707 48.7744 72.7861 48.6514 72.6279 48.499C72.4756 48.3408 72.3525 48.1562 72.2588 47.9453C72.1709 47.7344 72.127 47.5088 72.127 47.2686V44.9131ZM73.8496 47.2686H78.3145V44.9131H73.8496V47.2686ZM84.6602 41.3711V49H82.9375V39.6396H84.6602V41.292C84.6719 41.0635 84.7246 40.8496 84.8184 40.6504C84.9121 40.4453 85.0352 40.2695 85.1875 40.123C85.3457 39.9707 85.5273 39.8535 85.7324 39.7715C85.9375 39.6836 86.1572 39.6396 86.3916 39.6396H88.2285C88.4688 39.6396 88.6914 39.6865 88.8965 39.7803C89.1074 39.8682 89.292 39.9912 89.4502 40.1494C89.6084 40.3018 89.7314 40.4834 89.8193 40.6943C89.9131 40.9053 89.96 41.1309 89.96 41.3711V42.9531H88.2285V41.3711H84.6602ZM92.1133 41.3711C92.1133 41.1309 92.1572 40.9053 92.2451 40.6943C92.3389 40.4834 92.4619 40.3018 92.6143 40.1494C92.7725 39.9912 92.957 39.8682 93.168 39.7803C93.3789 39.6865 93.6016 39.6396 93.8359 39.6396H98.6611V36.0361H100.393V49H98.6611V47.418C98.6436 47.6348 98.585 47.8398 98.4854 48.0332C98.3857 48.2266 98.2568 48.3965 98.0986 48.543C97.9463 48.6836 97.7705 48.7949 97.5713 48.877C97.3721 48.959 97.1611 49 96.9385 49H93.8359C93.6016 49 93.3789 48.9561 93.168 48.8682C92.957 48.7744 92.7725 48.6514 92.6143 48.499C92.4619 48.3408 92.3389 48.1562 92.2451 47.9453C92.1572 47.7344 92.1133 47.5088 92.1133 47.2686V41.3711ZM93.8359 47.2686H98.6611V41.3711H93.8359V47.2686ZM103.275 46.3721H105.903V49H103.275V46.3721Z"></path>
</svg>
