<svg version="1.1" xmlns="http://www.w3.org/2000/svg" xmlns:xlink="http://www.w3.org/1999/xlink" width="440.28028" height="309.25918" viewBox="0,0,440.28028,309.25918"><g transform="translate(-19.85987,-24.12042)"><g data-paper-data="{&quot;isPaintingLayer&quot;:true}" fill-rule="nonzero" stroke-linejoin="miter" stroke-miterlimit="10" stroke-dasharray="" stroke-dashoffset="0" style="mix-blend-mode: normal"><path d="M459.86822,37.95663v288.08727c0,4.05117 -3.24607,7.3357 -7.25362,7.3357h-425.50061c-4.0063,0 -7.25411,-3.28453 -7.25411,-7.3357v-288.08727c0,-4.05167 3.24781,-7.33621 7.25411,-7.33621h425.50063c4.00754,0 7.25362,3.28453 7.25362,7.33621z" fill="#2f2f2f" stroke="none" stroke-width="1" stroke-linecap="butt"/><path d="M19.87789,33.08565c0,-4.95104 3.24806,-8.96523 7.25411,-8.96523h425.46205c4.00754,0 7.25608,4.01417 7.25608,8.96523v21.30379h-439.97224z" fill="#585858" stroke="none" stroke-width="1" stroke-linecap="butt"/><path d="M460.14015,55.38943h-440.24173" fill="none" stroke="#ffffff" stroke-width="1" stroke-linecap="butt"/><g fill="none" stroke="#ffffff" stroke-width="2"><path d="M437.94418,44.73871l9.3425,-9.46758" stroke-linecap="round"/><path d="M447.28667,44.73871l-9.3425,-9.46758" stroke-linecap="round"/><path d="M432.47072,40.00492c0,-5.67779 4.54194,-10.28053 10.1447,-10.28053c5.60277,0 10.1447,4.60275 10.1447,10.28053c0,5.67779 -4.54194,10.28053 -10.1447,10.28053c-5.60277,0 -10.1447,-4.60275 -10.1447,-10.28053z" stroke-linecap="butt"/></g></g></g></svg>