<svg version="1.1" xmlns="http://www.w3.org/2000/svg" xmlns:xlink="http://www.w3.org/1999/xlink" width="18.04" height="23.80625" viewBox="0,0,18.04,23.80625"><g transform="translate(-230.98,-155.72708)"><g data-paper-data="{&quot;isPaintingLayer&quot;:true}" fill="#24b0ff" fill-rule="nonzero" stroke="none" stroke-width="1" stroke-linecap="butt" stroke-linejoin="miter" stroke-miterlimit="10" stroke-dasharray="" stroke-dashoffset="0" style="mix-blend-mode: normal"><path d="M248.32,175.63023c0,0.4375 -0.083,0.8541 -0.25,1.25c-0.167,0.3854 -0.396,0.7239 -0.687,1.0156c-0.292,0.2917 -0.636,0.5208 -1.032,0.6875c-0.385,0.1667 -0.797,0.25 -1.234,0.25h-10.234c-0.438,0 -0.855,-0.0833 -1.25,-0.25c-0.386,-0.1667 -0.724,-0.3958 -1.016,-0.6875c-0.292,-0.2917 -0.521,-0.6302 -0.687,-1.0156c-0.167,-0.3959 -0.25,-0.8125 -0.25,-1.25v-2.875h3.203v2.875h10.234v-6.3907h-10.234c-0.438,0 -0.855,-0.0833 -1.25,-0.25c-0.386,-0.177 -0.724,-0.4062 -1.016,-0.6874c-0.292,-0.2917 -0.521,-0.6303 -0.687,-1.0157c-0.167,-0.3958 -0.25,-0.8125 -0.25,-1.25v-6.40622c0,-0.4375 0.083,-0.84896 0.25,-1.23438c0.166,-0.39583 0.395,-0.73438 0.687,-1.01562c0.292,-0.29167 0.63,-0.52084 1.016,-0.6875c0.395,-0.17708 0.812,-0.26562 1.25,-0.26562h10.234c0.437,0 0.849,0.08854 1.234,0.26563c0.396,0.16666 0.74,0.39584 1.032,0.6875c0.291,0.28124 0.52,0.61979 0.687,1.01562c0.167,0.38542 0.25,0.79688 0.25,1.23438zM245.117,166.03643v-6.40622h-10.234v6.40622z"/><path d="M248.715,177.15183l-0.002,0.0062l-0.643,-0.2778zM246.074,177.94083l0.006,-0.0027l0.271,0.6452zM233.361,179.22843l-0.006,-0.0026l0.278,-0.6425zM232.122,178.39083l0.495,-0.495zM231.287,177.15803l-0.003,-0.0062l0.646,-0.2716zM230.98,172.75523v-0.7h0.7v0.7zM234.883,172.05523h0.7v0.7h-0.7zM234.883,176.33023h-0.7v-0.7h0.7zM245.817,175.63023v0.7h-0.7v-0.7zM245.117,168.53963h0.7v0.6999h-0.7zM233.361,169.63473l-0.01,-0.0044l-0.011,-0.0047l0.293,-0.6361zM232.131,168.80593l-0.009,-0.0088l0.495,-0.495zM231.287,167.56433l-0.003,-0.0062l0.646,-0.2717zM232.575,158.66747l-0.003,0.00621l-0.642,-0.27785zM233.112,157.87518l-0.009,0.009l-0.486,-0.50397zM233.918,157.33168l-0.008,0.00358l-0.277,-0.64255zM246.08,157.33785l-0.011,-0.00437l-0.01,-0.0047l0.292,-0.63608zM246.897,157.8841l-0.009,-0.00884l0.495,-0.49505zM247.428,158.67367l-0.003,-0.00619l0.645,-0.27165zM245.817,166.03643v0.7h-0.7v-0.7zM245.117,158.93021h0.7v0.7h-0.7zM234.183,159.63021v-0.7h0.7v0.7zM234.883,166.73643h-0.7v-0.7h0.7zM249.02,175.63023c0,0.529 -0.101,1.0382 -0.305,1.5216l-1.29,-0.5433c0.13,-0.3082 0.195,-0.6323 0.195,-0.9783zM248.713,177.15803c-0.201,0.465 -0.48,0.8775 -0.835,1.2328l-0.99,-0.99c0.228,-0.2281 0.407,-0.4926 0.54,-0.7985zM247.878,178.39083c-0.359,0.3583 -0.779,0.6373 -1.255,0.8376l-0.543,-1.2902c0.316,-0.133 0.583,-0.3124 0.808,-0.5374zM246.629,179.22583c-0.477,0.2062 -0.983,0.3075 -1.512,0.3075v-1.4c0.346,0 0.663,-0.0654 0.957,-0.1925zM245.117,179.53333h-10.234v-1.4h10.234zM234.883,179.53333c-0.529,0 -1.039,-0.1013 -1.522,-0.3049l0.543,-1.2902c0.308,0.1297 0.633,0.1951 0.979,0.1951zM233.355,179.22583c-0.465,-0.2011 -0.878,-0.4798 -1.233,-0.835l0.99,-0.99c0.228,0.2281 0.493,0.4077 0.798,0.54zM232.122,178.39083c-0.355,-0.3553 -0.634,-0.7678 -0.835,-1.2328l1.285,-0.5557c0.132,0.3059 0.312,0.5704 0.54,0.7985zM231.284,177.15183c-0.203,-0.4834 -0.304,-0.9926 -0.304,-1.5216h1.399c0,0.346 0.066,0.6701 0.196,0.9783zM230.98,175.63023v-2.875h1.399v2.875zM231.68,172.05523h3.203v1.4h-3.203zM235.583,172.75523v2.875h-1.4v-2.875zM234.883,174.93023h10.234v1.4h-10.234zM244.417,175.63023v-6.3907h1.4v6.3907zM245.117,169.93953h-10.234v-1.3999h10.234zM234.883,169.93953c-0.529,0 -1.039,-0.1012 -1.522,-0.3048l0.543,-1.2903c0.308,0.1298 0.633,0.1952 0.979,0.1952zM233.34,169.62563c-0.453,-0.2084 -0.858,-0.4813 -1.209,-0.8197l0.972,-1.0077c0.232,0.2241 0.505,0.4095 0.822,0.5553zM232.122,168.79703c-0.355,-0.3552 -0.634,-0.7678 -0.835,-1.2327l1.285,-0.5557c0.132,0.3059 0.312,0.5704 0.54,0.7985zM231.284,167.55813c-0.203,-0.4835 -0.304,-0.9927 -0.304,-1.5217h1.399c0,0.346 0.066,0.6702 0.196,0.9784zM230.98,166.03643v-6.40622h1.399v6.40622zM230.98,159.63021c0,-0.52898 0.101,-1.03541 0.307,-1.51222l1.285,0.55568c-0.127,0.29402 -0.193,0.61051 -0.193,0.95654zM231.284,158.12419c0.202,-0.47791 0.483,-0.8969 0.847,-1.24788l0.972,1.00779c-0.219,0.21152 -0.396,0.46961 -0.528,0.78337zM232.122,156.88523c0.355,-0.35523 0.768,-0.63396 1.233,-0.83503l0.555,1.285c-0.305,0.13228 -0.57,0.31188 -0.798,0.53998zM233.347,156.05373c0.486,-0.21768 1.001,-0.32665 1.536,-0.32665v1.4c-0.34,0 -0.659,0.06811 -0.965,0.2046zM234.883,155.72708h10.234v1.4h-10.234zM245.117,155.72708c0.535,0 1.047,0.10901 1.527,0.32955l-0.585,1.27215c-0.291,-0.13362 -0.602,-0.2017 -0.942,-0.2017zM246.623,156.04756c0.476,0.20033 0.896,0.47934 1.255,0.83767l-0.99,0.98995c-0.225,-0.225 -0.492,-0.40433 -0.808,-0.53733zM247.869,156.87631c0.363,0.35098 0.645,0.76997 0.846,1.24788l-1.29,0.54328c-0.132,-0.31376 -0.309,-0.57185 -0.528,-0.78337zM248.713,158.11799c0.206,0.47681 0.307,0.98324 0.307,1.51222h-1.4c0,-0.34603 -0.065,-0.66252 -0.192,-0.95654zM249.02,159.63021v16.00002h-1.4v-16.00002zM244.417,166.03643v-6.40622h1.4v6.40622zM245.117,160.3302h-10.234v-1.39999h10.234zM235.583,159.63021v6.40622h-1.4v-6.40622zM234.883,165.33646h10.234v1.39997h-10.234z"/></g></g></svg>