<svg version="1.1" xmlns="http://www.w3.org/2000/svg" xmlns:xlink="http://www.w3.org/1999/xlink" width="469.21878" height="187.91346" viewBox="0,0,469.21878,187.91346"><g transform="translate(-5.39061,-44.72635)"><g data-paper-data="{&quot;isPaintingLayer&quot;:true}" stroke-linecap="butt" stroke-linejoin="miter" stroke-miterlimit="10" stroke-dasharray="" stroke-dashoffset="0" style="mix-blend-mode: normal"><path d="M62.86792,187.96361h14.35232v2.81182h-11.53795v5.62408h9.84795v2.80972h-9.84795v5.61019h11.53795v2.81204h-14.35232zM94.09946,207.63145h-2.70541v-11.90425h-7.54128v11.90425h-2.6915v-14.60733h2.6915v2.57791c0.01854,-0.35468 0.10199,-0.68852 0.24805,-0.99917c0.14606,-0.32223 0.33846,-0.59579 0.57724,-0.82298c0.24805,-0.23878 0.53088,-0.42191 0.8508,-0.54943c0.31992,-0.13679 0.66533,-0.20633 1.03162,-0.20633h4.83356c0.37557,0 0.72794,0.07419 1.05713,0.22024c0.3315,0.13679 0.61433,0.32919 0.85311,0.57493c0.24573,0.23878 0.43815,0.52161 0.57724,0.8508c0.14606,0.32919 0.21792,0.68156 0.21792,1.05712zM97.75303,193.02412h3.57243v-4.49833h2.70541v4.49833h4.80807v2.70308h-4.80807v9.20116h4.80807v2.70308h-4.80807c-0.36629,0 -0.71402,-0.06954 -1.04321,-0.20631c-0.3315,-0.14606 -0.61897,-0.33846 -0.86702,-0.57493c-0.24573,-0.24805 -0.44278,-0.53552 -0.58884,-0.86471c-0.1391,-0.32919 -0.20633,-0.68158 -0.20633,-1.05713v-9.20116h-3.57243zM125.73205,201.706h-9.68334v3.22237h9.68334v2.70308h-9.68334c-0.36629,0 -0.71403,-0.06954 -1.04322,-0.20631c-0.32919,-0.14606 -0.61897,-0.33846 -0.86702,-0.57493c-0.23646,-0.24805 -0.42887,-0.53552 -0.57493,-0.86471c-0.1391,-0.32919 -0.20631,-0.68158 -0.20631,-1.05713v-9.20116c0,-0.37557 0.06722,-0.72792 0.20631,-1.05712c0.14606,-0.32919 0.33846,-0.61202 0.57493,-0.8508c0.24805,-0.24573 0.53783,-0.43815 0.86702,-0.57493c0.32919,-0.14606 0.67694,-0.22024 1.04322,-0.22024h6.97793c0.37557,0 0.72794,0.07419 1.05713,0.22024c0.32919,0.13679 0.61433,0.32919 0.8508,0.57493c0.24805,0.23878 0.44047,0.52161 0.57726,0.8508c0.14606,0.32919 0.22024,0.68156 0.22024,1.05712zM116.04869,195.72722v3.27802h6.97793v-3.27802zM132.94182,195.72722v11.90425h-2.6915v-14.60733h2.6915v2.57791c0.01854,-0.35468 0.10199,-0.68852 0.24805,-0.99917c0.14606,-0.32223 0.33846,-0.59579 0.57724,-0.82298c0.24805,-0.23878 0.53088,-0.42191 0.8508,-0.54943c0.32223,-0.13679 0.66533,-0.20633 1.03162,-0.20633h2.87001c0.37557,0 0.72329,0.07419 1.04321,0.22024c0.3315,0.13679 0.61898,0.32919 0.86471,0.57493c0.24805,0.23878 0.44046,0.52161 0.57724,0.8508c0.14837,0.32919 0.22256,0.68156 0.22256,1.05712v2.46895h-2.70772v-2.46895zM154.83723,213.52909l2.23763,-7.2144l-5.74,-13.29057h2.84218l4.27254,10.05427l4.27254,-10.05427h2.83987l-8.03326,20.50497zM181.02938,204.92837c0,0.37557 -0.07419,0.72794 -0.22024,1.05713c-0.1391,0.32919 -0.32919,0.61666 -0.57724,0.86471c-0.23646,0.23646 -0.52161,0.42887 -0.8508,0.57493c-0.31992,0.13679 -0.66765,0.20631 -1.04553,0.20631h-7.26309c-0.36629,0 -0.71403,-0.06954 -1.04555,-0.20631c-0.32919,-0.14606 -0.61897,-0.33846 -0.86471,-0.57493c-0.23878,-0.24805 -0.43119,-0.53552 -0.57724,-0.86471c-0.13679,-0.32919 -0.20633,-0.68158 -0.20633,-1.05713v-9.20116c0,-0.37557 0.06954,-0.72792 0.20633,-1.05712c0.14606,-0.32919 0.33846,-0.61202 0.57724,-0.8508c0.24573,-0.24573 0.53552,-0.43815 0.86471,-0.57493c0.3315,-0.14606 0.67925,-0.22024 1.04555,-0.22024h7.26309c0.37788,0 0.72561,0.07419 1.04553,0.22024c0.32919,0.13679 0.61433,0.32919 0.8508,0.57493c0.24805,0.23878 0.43815,0.52161 0.57724,0.8508c0.14606,0.32919 0.22024,0.68156 0.22024,1.05712zM171.07248,195.72722v9.20116h7.26309v-9.20116zM185.54766,193.02412h2.69381v11.90425h7.53896v-11.90425h2.70772v14.60733h-2.70772v-2.46894c-0.02782,0.33846 -0.12055,0.65838 -0.27588,0.95976c-0.15301,0.30137 -0.35701,0.56797 -0.60274,0.79515c-0.24109,0.22024 -0.51466,0.3941 -0.82298,0.52161c-0.31296,0.12751 -0.64447,0.19241 -0.9899,0.19241h-4.84747c-0.36861,0 -0.71403,-0.06954 -1.04553,-0.20631c-0.32919,-0.14606 -0.61666,-0.33846 -0.86471,-0.57493c-0.23878,-0.24805 -0.4312,-0.53552 -0.57493,-0.86471c-0.1391,-0.32919 -0.20864,-0.68158 -0.20864,-1.05713zM205.68402,195.72722v11.90425h-2.69149v-14.60733h2.69149v2.57791c0.01854,-0.35468 0.09968,-0.68852 0.24805,-0.99917c0.14606,-0.32223 0.33614,-0.59579 0.57492,-0.82298c0.24573,-0.23878 0.53088,-0.42191 0.8508,-0.54943c0.31992,-0.13679 0.66533,-0.20633 1.03162,-0.20633h2.87232c0.37324,0 0.72098,0.07419 1.0409,0.22024c0.32919,0.13679 0.61898,0.32919 0.86471,0.57493c0.25036,0.23878 0.44046,0.52161 0.57955,0.8508c0.14373,0.32919 0.21792,0.68156 0.21792,1.05712v2.46895h-2.70308v-2.46895zM228.79934,207.63145l-4.72461,-14.60733h2.7309l3.46348,11.01403l3.22933,-11.01403h2.75873l3.22932,11.01403l3.45884,-11.01403h2.73554l-4.72461,14.60733h-2.81668l-3.27106,-10.72656l-3.25251,10.72656zM261.15986,204.92837c0,0.37557 -0.07419,0.72794 -0.22256,1.05713c-0.13679,0.32919 -0.32687,0.61666 -0.57492,0.86471c-0.23646,0.23646 -0.52161,0.42887 -0.85313,0.57493c-0.31992,0.13679 -0.66765,0.20631 -1.04321,0.20631h-7.2654c-0.36397,0 -0.7117,-0.06954 -1.04322,-0.20631c-0.3315,-0.14606 -0.61897,-0.33846 -0.86471,-0.57493c-0.23878,-0.24805 -0.42889,-0.53552 -0.57726,-0.86471c-0.13679,-0.32919 -0.20631,-0.68158 -0.20631,-1.05713v-9.20116c0,-0.37557 0.06954,-0.72792 0.20631,-1.05712c0.14837,-0.32919 0.33848,-0.61202 0.57726,-0.8508c0.24573,-0.24573 0.53319,-0.43815 0.86471,-0.57493c0.3315,-0.14606 0.67925,-0.22024 1.04322,-0.22024h7.2654c0.37557,0 0.72329,0.07419 1.04321,0.22024c0.3315,0.13679 0.61666,0.32919 0.85313,0.57493c0.24805,0.23878 0.43815,0.52161 0.57492,0.8508c0.14837,0.32919 0.22256,0.68156 0.22256,1.05712zM251.20064,195.72722v9.20116h7.2654v-9.20116zM268.37195,195.72722v11.90425h-2.69381v-14.60733h2.69381v2.57791c0.01623,-0.35468 0.09737,-0.68852 0.24574,-0.99917c0.14837,-0.32223 0.33614,-0.59579 0.57724,-0.82298c0.24574,-0.23878 0.53088,-0.42191 0.8508,-0.54943c0.31992,-0.13679 0.66302,-0.20633 1.0293,-0.20633h2.87232c0.37324,0 0.72098,0.07419 1.04553,0.22024c0.32688,0.13679 0.61433,0.32919 0.86471,0.57493c0.24574,0.23878 0.43815,0.52161 0.57724,0.8508c0.14373,0.32919 0.21791,0.68156 0.21791,1.05712v2.46895h-2.70541v-2.46895zM289.68598,207.63145l-6.97562,-6.24074v6.24074h-2.69381v-20.23025h2.69381v11.3838l6.41229,-5.76087h3.80425l-7.85424,7.04981l8.41759,7.5575zM308.10453,204.92837c0,0.37557 -0.07187,0.72794 -0.21791,1.05713c-0.13677,0.32919 -0.33152,0.61666 -0.57726,0.86471c-0.23878,0.23646 -0.52392,0.42887 -0.8508,0.57493c-0.31992,0.13679 -0.66765,0.20631 -1.04553,0.20631h-7.26773c-0.36397,0 -0.71402,-0.06954 -1.0409,-0.20631c-0.32919,-0.14606 -0.61898,-0.33846 -0.86703,-0.57493c-0.23647,-0.24805 -0.42887,-0.53552 -0.57724,-0.86471c-0.13677,-0.32919 -0.20402,-0.68158 -0.20402,-1.05713v-9.20116c0,-0.37557 0.06723,-0.72792 0.20402,-1.05712c0.14837,-0.32919 0.34077,-0.61202 0.57724,-0.8508c0.24805,-0.24573 0.53784,-0.43815 0.86703,-0.57493c0.32688,-0.14606 0.67693,-0.22024 1.0409,-0.22024h7.26773c0.37788,0 0.72561,0.07419 1.04553,0.22024c0.32688,0.13679 0.61202,0.32919 0.8508,0.57493c0.24574,0.23878 0.44047,0.52161 0.57726,0.8508c0.14604,0.32919 0.21791,0.68156 0.21791,1.05712zM298.1453,195.72722v9.20116h7.26773v-9.20116zM312.62512,193.02412h2.68918v11.90425h7.54361v-11.90425h2.70308v14.60733h-2.70308v-2.46894c-0.02782,0.33846 -0.12054,0.65838 -0.27354,0.95976c-0.15997,0.30137 -0.35933,0.56797 -0.60507,0.79515c-0.23878,0.22024 -0.51465,0.3941 -0.82762,0.52161c-0.30834,0.12751 -0.63984,0.19241 -0.98757,0.19241h-4.8498c-0.36397,0 -0.7117,-0.06954 -1.04321,-0.20631c-0.32688,-0.14606 -0.61433,-0.33846 -0.86471,-0.57493c-0.23647,-0.24805 -0.42887,-0.53552 -0.57724,-0.86471c-0.13677,-0.32919 -0.20402,-0.68158 -0.20402,-1.05713zM329.21456,193.02412h3.57243v-4.49833h2.70772v4.49833h4.80575v2.70308h-4.80575v9.20116h4.80575v2.70308h-4.80575c-0.36861,0 -0.71634,-0.06954 -1.04321,-0.20631c-0.33152,-0.14606 -0.61898,-0.33846 -0.86703,-0.57493c-0.24805,-0.24805 -0.44511,-0.53552 -0.58884,-0.86471c-0.1391,-0.32919 -0.20864,-0.68158 -0.20864,-1.05713v-9.20116h-3.57243zM355.94403,195.72722v9.20116h6.97562v-2.46663h2.70772v2.46663c0,0.37557 -0.07187,0.72794 -0.22024,1.05713c-0.13677,0.32919 -0.32687,0.61666 -0.57724,0.86471c-0.23647,0.23646 -0.51929,0.42887 -0.8508,0.57493c-0.33152,0.13679 -0.68156,0.20631 -1.05944,0.20631h-6.97562c-0.36397,0 -0.71403,-0.06954 -1.04322,-0.20631c-0.33152,-0.14606 -0.61897,-0.33846 -0.86471,-0.57493c-0.23878,-0.24805 -0.42887,-0.53552 -0.57724,-0.86471c-0.13677,-0.32919 -0.20865,-0.68158 -0.20865,-1.05713v-9.20116c0,-0.37557 0.07187,-0.72792 0.20865,-1.05712c0.14837,-0.32919 0.33846,-0.61202 0.57724,-0.8508c0.24574,-0.24573 0.53319,-0.43815 0.86471,-0.57493c0.32919,-0.14606 0.67925,-0.22024 1.04322,-0.22024h6.97562c0.37788,0 0.72794,0.07419 1.05944,0.22024c0.33152,0.13679 0.61433,0.32919 0.8508,0.57493c0.25038,0.23878 0.44047,0.52161 0.57724,0.8508c0.14837,0.32919 0.22024,0.68156 0.22024,1.05712v2.46895h-2.70772v-2.46895zM382.79869,204.92837c0,0.37557 -0.07418,0.72794 -0.22255,1.05713c-0.13677,0.32919 -0.33152,0.61666 -0.57724,0.86471c-0.23878,0.23646 -0.51929,0.42887 -0.8508,0.57493c-0.31992,0.13679 -0.66765,0.20631 -1.04321,0.20631h-7.26541c-0.36861,0 -0.71403,-0.06954 -1.04322,-0.20631c-0.33152,-0.14606 -0.61897,-0.33846 -0.86471,-0.57493c-0.24111,-0.24805 -0.43351,-0.53552 -0.57724,-0.86471c-0.13677,-0.32919 -0.20864,-0.68158 -0.20864,-1.05713v-9.20116c0,-0.37557 0.07187,-0.72792 0.20864,-1.05712c0.14373,-0.32919 0.33615,-0.61202 0.57724,-0.8508c0.24574,-0.24573 0.53319,-0.43815 0.86471,-0.57493c0.32919,-0.14606 0.67462,-0.22024 1.04322,-0.22024h7.26541c0.37555,0 0.72329,0.07419 1.04321,0.22024c0.33152,0.13679 0.61202,0.32919 0.8508,0.57493c0.24574,0.23878 0.44047,0.52161 0.57724,0.8508c0.14837,0.32919 0.22255,0.68156 0.22255,1.05712zM372.83948,195.72722v9.20116h7.26541v-9.20116zM387.31697,195.72722c0,-0.37557 0.06491,-0.72792 0.204,-1.05712c0.14604,-0.32919 0.34079,-0.61202 0.57493,-0.8508c0.25038,-0.24573 0.53783,-0.43815 0.86935,-0.57493c0.32688,-0.14606 0.67462,-0.22024 1.0409,-0.22024h7.54128v-5.62292h2.70772v20.23025h-2.70772v-2.46894c-0.02782,0.33846 -0.11823,0.65838 -0.27356,0.95976c-0.15533,0.30137 -0.35932,0.56797 -0.60506,0.79515c-0.23878,0.22024 -0.51234,0.3941 -0.82298,0.52161c-0.31297,0.12751 -0.64215,0.19241 -0.99221,0.19241h-4.84747c-0.36628,0 -0.71402,-0.06954 -1.0409,-0.20631c-0.33152,-0.14606 -0.61897,-0.33846 -0.86935,-0.57493c-0.23414,-0.24805 -0.42887,-0.53552 -0.57493,-0.86471c-0.1391,-0.32919 -0.204,-0.68158 -0.204,-1.05713zM390.00615,204.92837h7.54128v-9.20116h-7.54128zM417.13206,201.706h-9.68334v3.22237h9.68334v2.70308h-9.68334c-0.36397,0 -0.71403,-0.06954 -1.04091,-0.20631c-0.32919,-0.14606 -0.61897,-0.33846 -0.86702,-0.57493c-0.23647,-0.24805 -0.42887,-0.53552 -0.57724,-0.86471c-0.13677,-0.32919 -0.204,-0.68158 -0.204,-1.05713v-9.20116c0,-0.37557 0.06723,-0.72792 0.204,-1.05712c0.14837,-0.32919 0.34079,-0.61202 0.57724,-0.8508c0.24805,-0.24573 0.53783,-0.43815 0.86702,-0.57493c0.32688,-0.14606 0.67694,-0.22024 1.04091,-0.22024h6.98026c0.37555,0 0.72794,0.07419 1.05945,0.22024c0.32688,0.13679 0.6097,0.32919 0.8508,0.57493c0.24574,0.23878 0.43815,0.52161 0.57492,0.8508c0.14604,0.32919 0.21792,0.68156 0.21792,1.05712zM407.4487,195.72722v3.27802h6.98026v-3.27802z" fill="#6e91f4" fill-rule="nonzero" stroke="none" stroke-width="1"/><g fill="#576d8f" fill-rule="nonzero"><path d="M6.8685,216.49916v12.17492h-1.47789v-12.17492zM13.59103,215.11552c0.32033,0 0.6219,0.03653 0.9052,0.11204c0.2833,0.07309 0.50497,0.17782 0.66502,0.3118l-0.38806,1.20093c-0.14762,-0.09987 -0.30767,-0.16809 -0.48013,-0.20462c-0.17271,-0.04873 -0.3632,-0.07309 -0.57269,-0.07309c-0.52958,0 -0.94223,0.12912 -1.23771,0.38732c-0.29573,0.24603 -0.44335,0.64552 -0.44335,1.19849v1.40311v0.47988v8.74265h-1.47789v-10.77181c0,-0.40681 0.06162,-0.78194 0.18465,-1.12542c0.12301,-0.34591 0.3079,-0.64065 0.55419,-0.88668c0.2587,-0.24603 0.57903,-0.43604 0.96074,-0.57245c0.38148,-0.13399 0.82506,-0.20217 1.33003,-0.20217zM15.12422,219.45153v1.27158h-6.41023v-1.27158zM28.29594,219.45153l-4.3421,10.77181c-0.23386,0.60411 -0.49255,1.0767 -0.77586,1.42016c-0.27088,0.35808 -0.57854,0.60898 -0.92371,0.75758c-0.33251,0.15835 -0.72032,0.23873 -1.1639,0.23873c-0.41851,0 -0.80655,-0.0609 -1.16365,-0.18269c-0.3447,-0.11204 -0.6526,-0.26553 -0.92371,-0.46284l0.40632,-1.29106c0.24652,0.22167 0.50522,0.38245 0.77585,0.47988c0.28355,0.10962 0.56052,0.16565 0.83139,0.16565c0.32033,0 0.62214,-0.09744 0.9052,-0.29475c0.2833,-0.1973 0.542,-0.59681 0.77585,-1.19849l0.48036,-1.19849l-0.92371,-2.19723l-2.93727,-7.00825h1.68105l2.30929,6.01195l0.5727,1.64184l0.66501,-1.82453l2.16022,-5.82926zM33.31402,219.2664c0.8745,0 1.64427,0.19 2.30928,0.57245c0.6772,0.38002 1.20579,0.93297 1.58825,1.65888c0.38245,0.71374 0.57245,1.56877 0.57245,2.56507c0,0.9963 -0.19,1.8562 -0.57245,2.58211c-0.38245,0.71374 -0.91104,1.26183 -1.58825,1.64184c-0.66501,0.38245 -1.43478,0.57245 -2.30928,0.57245c-0.86233,0 -1.6321,-0.19 -2.30929,-0.57245c-0.6772,-0.38002 -1.20823,-0.9281 -1.58825,-1.64184c-0.38245,-0.72591 -0.57488,-1.58581 -0.57488,-2.58211c0,-0.9963 0.19243,-1.85133 0.57488,-2.56507c0.38002,-0.72591 0.91104,-1.27886 1.58825,-1.65888c0.6772,-0.38245 1.44697,-0.57245 2.30929,-0.57245zM33.31402,220.5404c-0.62848,0 -1.16439,0.14129 -1.60774,0.42386c-0.44335,0.28256 -0.78926,0.68695 -1.03527,1.21555c-0.23386,0.51885 -0.35078,1.1449 -0.35078,1.883c0,0.72591 0.11693,1.35196 0.35078,1.88056c0.24603,0.52859 0.59194,0.93541 1.03527,1.21798c0.44335,0.28256 0.97926,0.42385 1.60774,0.42385c0.62848,0 1.16195,-0.14129 1.6053,-0.42385c0.44335,-0.28256 0.78194,-0.68938 1.01823,-1.21798c0.24603,-0.52859 0.36783,-1.15465 0.36783,-1.88056c0,-0.7381 -0.1218,-1.36414 -0.36783,-1.883c-0.23629,-0.52859 -0.57488,-0.93299 -1.01823,-1.21555c-0.44335,-0.28256 -0.97681,-0.42386 -1.6053,-0.42386zM43.16991,228.85922c-0.58949,0 -1.14977,-0.11204 -1.68081,-0.33129c-0.51642,-0.22167 -0.94273,-0.57975 -1.27402,-1.07182c-0.32155,-0.50424 -0.47988,-1.15465 -0.47988,-1.95364v-6.05092h1.47618v5.66362c0,0.93297 0.20463,1.5785 0.61144,1.93659c0.40681,0.34346 0.97926,0.51642 1.71736,0.51642c0.34346,0 0.68451,-0.05603 1.0158,-0.16565c0.33372,-0.12423 0.62848,-0.30936 0.88668,-0.55539c0.27039,-0.2582 0.47988,-0.58219 0.62848,-0.97681c0.16077,-0.39463 0.24116,-0.8599 0.24116,-1.40068v-5.01808h1.47618v9.22254h-1.29349l-0.09256,-1.40068c-0.31912,0.55297 -0.75515,0.95733 -1.31055,1.21555c-0.54078,0.24603 -1.18145,0.37028 -1.92197,0.37028zM59.64918,228.85922c-0.76245,0 -1.46645,-0.19 -2.1071,-0.57245c-0.63822,-0.38002 -1.14976,-0.9281 -1.53221,-1.64184c-0.38245,-0.72591 -0.57245,-1.58581 -0.57245,-2.58211c0,-1.02066 0.20219,-1.88787 0.609,-2.60161c0.40681,-0.71374 0.94271,-1.25452 1.60772,-1.62235c0.66501,-0.38245 1.37875,-0.57245 2.14365,-0.57245c0.76245,0 1.42261,0.1973 1.97557,0.58949c0.56758,0.39463 0.94271,0.91593 1.12785,1.56877l-0.18513,0.1291v-6.34568h1.47864v13.46598h-1.29351l-0.1291,-2.23133l0.20217,-0.11206c-0.08526,0.54322 -0.29475,1.00362 -0.62848,1.38364c-0.31912,0.37026 -0.72104,0.65284 -1.20093,0.85014c-0.46771,0.19487 -0.96707,0.29476 -1.49568,0.29476zM59.79778,227.56815c0.58949,0 1.10106,-0.14859 1.53222,-0.44335c0.44335,-0.29476 0.78194,-0.71374 1.01579,-1.25452c0.24603,-0.55297 0.37026,-1.19849 0.37026,-1.93659c0,-0.70155 -0.12423,-1.30323 -0.37026,-1.80748c-0.23386,-0.50424 -0.56514,-0.89156 -0.9963,-1.16195c-0.41898,-0.27039 -0.91106,-0.40681 -1.47864,-0.40681c-0.93541,0 -1.66375,0.31912 -2.18018,0.95977c-0.51642,0.63822 -0.77464,1.48837 -0.77464,2.54557c0,1.0572 0.2509,1.90491 0.75515,2.54558c0.50668,0.63822 1.21553,0.95977 2.12659,0.95977zM70.71332,219.2664c0.87451,0 1.64428,0.19 2.30929,0.57245c0.6772,0.38002 1.20823,0.93297 1.58824,1.65888c0.38245,0.71374 0.57245,1.56877 0.57245,2.56507c0,0.9963 -0.19,1.8562 -0.57245,2.58211c-0.38002,0.71374 -0.91104,1.26183 -1.58824,1.64184c-0.66501,0.38245 -1.43479,0.57245 -2.30929,0.57245c-0.86233,0 -1.6321,-0.19 -2.30929,-0.57245c-0.6772,-0.38002 -1.20579,-0.9281 -1.58825,-1.64184c-0.38245,-0.72591 -0.57245,-1.58581 -0.57245,-2.58211c0,-0.9963 0.19,-1.85133 0.57245,-2.56507c0.38245,-0.72591 0.91104,-1.27886 1.58825,-1.65888c0.6772,-0.38245 1.44697,-0.57245 2.30929,-0.57245zM70.71332,220.5404c-0.62848,0 -1.16439,0.14129 -1.60772,0.42386c-0.44335,0.28256 -0.78681,0.68695 -1.03284,1.21555c-0.23386,0.51885 -0.35078,1.1449 -0.35078,1.883c0,0.72591 0.11693,1.35196 0.35078,1.88056c0.24603,0.52859 0.58951,0.93541 1.03284,1.21798c0.44335,0.28256 0.97924,0.42385 1.60772,0.42385c0.62848,0 1.16439,-0.14129 1.60774,-0.42385c0.44334,-0.28256 0.78194,-0.68938 1.01579,-1.21798c0.24603,-0.52859 0.37028,-1.15465 0.37028,-1.88056c0,-0.7381 -0.12425,-1.36414 -0.37028,-1.883c-0.23386,-0.52859 -0.57245,-0.93299 -1.01579,-1.21555c-0.44334,-0.28256 -0.97926,-0.42386 -1.60774,-0.42386zM77.22708,228.67407v-9.22254h1.29349l0.1291,2.0657l-0.23873,-0.20219c0.1973,-0.49206 0.46041,-0.88668 0.79413,-1.18145c0.33129,-0.30693 0.71374,-0.52859 1.1449,-0.66501c0.44334,-0.13399 0.89887,-0.20217 1.36658,-0.20217c0.66501,0 1.26915,0.1291 1.80991,0.38731c0.54322,0.24603 0.97439,0.62605 1.29349,1.1449c0.33372,0.51642 0.49936,1.17413 0.49936,1.97313v5.90232h-1.47864v-5.38591c0,-1.02066 -0.22167,-1.7271 -0.66501,-2.12172c-0.43116,-0.40681 -0.96707,-0.60898 -1.6053,-0.60898c-0.44334,0 -0.8867,0.10474 -1.33248,0.31425c-0.44334,0.2095 -0.81117,0.54565 -1.10836,1.01336c-0.28256,0.46771 -0.42385,1.09619 -0.42385,1.883v4.90602zM89.97933,216.83045v9.29806c0,0.45552 0.12912,0.79413 0.38976,1.0158c0.2582,0.21925 0.58949,0.33129 0.9963,0.33129c0.35808,0 0.66502,-0.0609 0.92323,-0.18513c0.2582,-0.12179 0.49205,-0.28743 0.70155,-0.49694l0.51885,1.23503c-0.28256,0.2582 -0.62359,0.46039 -1.01579,0.60898c-0.38245,0.1486 -0.82578,0.22167 -1.33003,0.22167c-0.46771,0 -0.90619,-0.08039 -1.31299,-0.24116c-0.40681,-0.17052 -0.73321,-0.43605 -0.97924,-0.7917c-0.23386,-0.37026 -0.35566,-0.85016 -0.36783,-1.43965v-9.14947zM93.34338,219.45153v1.27158h-6.68915v-1.27158zM100.35894,228.67407v-13.46598h1.47619v5.62707c0.32155,-0.55541 0.7454,-0.9549 1.27643,-1.20093c0.52859,-0.24603 1.10836,-0.36782 1.73441,-0.36782c0.66501,0 1.26913,0.1291 1.81236,0.38731c0.54078,0.24603 0.97194,0.62605 1.29106,1.1449c0.33372,0.51642 0.49936,1.17413 0.49936,1.97313v5.90232h-1.47862v-5.38591c0,-1.02066 -0.22167,-1.7271 -0.66501,-2.12172c-0.43116,-0.40681 -0.96464,-0.60898 -1.6053,-0.60898c-0.44334,0 -0.8867,0.10474 -1.33003,0.31425c-0.44334,0.2095 -0.8136,0.55295 -1.10836,1.03284c-0.285,0.46771 -0.42629,1.09376 -0.42629,1.88056v4.88898zM116.45091,222.71572c0,-0.68937 -0.18513,-1.21798 -0.55539,-1.58581c-0.36782,-0.38245 -0.89157,-0.57245 -1.56877,-0.57245c-0.64065,0 -1.18389,0.14129 -1.62723,0.42385c-0.44334,0.27039 -0.76733,0.71374 -0.97681,1.32759l-1.20093,-0.73565c0.24603,-0.68937 0.70157,-1.24233 1.36658,-1.66133c0.66501,-0.43116 1.48837,-0.64552 2.47494,-0.64552c0.66501,0 1.26915,0.11692 1.80991,0.35078c0.54322,0.22167 0.96707,0.56514 1.27401,1.03284c0.32155,0.45552 0.48232,1.04503 0.48232,1.77094v4.46511c0,0.44091 0.23385,0.66258 0.70155,0.66258c0.23386,0 0.46041,-0.02923 0.68208,-0.09256l-0.07309,1.16195c-0.24603,0.12423 -0.56514,0.18513 -0.95977,0.18513c-0.35808,0 -0.6772,-0.0682 -0.9622,-0.20217c-0.28256,-0.13642 -0.50424,-0.33861 -0.66501,-0.609c-0.15835,-0.28256 -0.23873,-0.63335 -0.23873,-1.05233v-0.1827l0.36782,0.05359c-0.14616,0.47988 -0.39949,0.87451 -0.75514,1.18145c-0.35808,0.29476 -0.75758,0.51642 -1.20093,0.66501c-0.44334,0.13399 -0.88181,0.20219 -1.31298,0.20219c-0.54078,0 -1.04746,-0.09257 -1.51517,-0.2777c-0.46771,-0.18269 -0.84286,-0.46041 -1.12542,-0.83066c-0.27039,-0.38002 -0.40681,-0.84771 -0.40681,-1.40068c0,-0.68937 0.22655,-1.25453 0.68207,-1.69787c0.47015,-0.45308 1.11567,-0.76245 1.94146,-0.92079l3.65638,-0.72104v1.21798l-2.97432,0.60898c-0.60168,0.12179 -1.05233,0.29476 -1.34708,0.51644c-0.29719,0.22167 -0.44334,0.52859 -0.44334,0.92323c0,0.38002 0.14614,0.69425 0.44334,0.94029c0.30693,0.23386 0.7381,0.35078 1.29349,0.35078c0.35565,0 0.69425,-0.04384 1.0158,-0.1291c0.33129,-0.09987 0.62848,-0.24116 0.88668,-0.42385c0.2582,-0.1973 0.46041,-0.43848 0.609,-0.72104c0.1486,-0.29476 0.22166,-0.63821 0.22166,-1.03284zM126.58938,219.45153h1.55171l-3.84394,9.22254h-1.47619l-3.84396,-9.22254h1.68325l2.91829,7.7293zM133.19326,228.85922c-0.87451,0 -1.65645,-0.19 -2.34584,-0.57245c-0.6772,-0.38002 -1.20579,-0.9281 -1.58824,-1.64184c-0.38245,-0.72591 -0.57245,-1.58581 -0.57245,-2.58211c0,-0.9963 0.19,-1.85133 0.57245,-2.56507c0.38245,-0.72591 0.90617,-1.27886 1.5712,-1.65888c0.66501,-0.38245 1.42261,-0.57245 2.27032,-0.57245c0.86233,0 1.59555,0.18513 2.19968,0.55295c0.6163,0.37026 1.084,0.87451 1.40311,1.51274c0.32155,0.62848 0.47988,1.33492 0.47988,2.12172c0,0.2095 -0.00487,0.39949 -0.01704,0.57245c-0.01217,0.17295 -0.03167,0.32642 -0.05603,0.46039h-7.46379v-1.31055h6.81826l-0.75758,0.14859c0,-0.88426 -0.24603,-1.56875 -0.74053,-2.04865c-0.47988,-0.47745 -1.11325,-0.71861 -1.90249,-0.71861c-0.60168,0 -1.12542,0.14129 -1.56875,0.42385c-0.43116,0.27039 -0.76977,0.6699 -1.0158,1.19849c-0.23386,0.51885 -0.35322,1.1449 -0.35322,1.883c0,0.72591 0.12425,1.35196 0.37028,1.88056c0.24603,0.52859 0.59194,0.93541 1.03529,1.21798c0.45552,0.27039 0.9963,0.40681 1.62478,0.40681c0.6772,0 1.22529,-0.1291 1.64428,-0.38732c0.43116,-0.2582 0.77708,-0.609 1.03529,-1.05233l1.16439,0.68207c-0.23386,0.41898 -0.53592,0.78194 -0.90617,1.08887c-0.35808,0.30693 -0.78196,0.54809 -1.27402,0.71861c-0.47988,0.16077 -1.0231,0.24116 -1.62723,0.24116zM148.63724,219.2664c0.87451,0 1.64427,0.19 2.30929,0.57245c0.67475,0.38002 1.20823,0.93297 1.58825,1.65888c0.38002,0.71374 0.57245,1.56877 0.57245,2.56507c0,0.9963 -0.19243,1.8562 -0.57245,2.58211c-0.38002,0.71374 -0.91349,1.26183 -1.58825,1.64184c-0.66501,0.38245 -1.43478,0.57245 -2.30929,0.57245c-0.86233,0 -1.6321,-0.19 -2.30929,-0.57245c-0.6772,-0.38002 -1.20579,-0.9281 -1.58824,-1.64184c-0.38245,-0.72591 -0.57245,-1.58581 -0.57245,-2.58211c0,-0.9963 0.19,-1.85133 0.57245,-2.56507c0.38245,-0.72591 0.91104,-1.27886 1.58824,-1.65888c0.6772,-0.38245 1.44697,-0.57245 2.30929,-0.57245zM148.63724,220.5404c-0.62848,0 -1.16439,0.14129 -1.60774,0.42386c-0.44334,0.28256 -0.78683,0.68695 -1.03529,1.21555c-0.23386,0.51885 -0.35078,1.1449 -0.35078,1.883c0,0.72591 0.11692,1.35196 0.35078,1.88056c0.24846,0.52859 0.59195,0.93541 1.03529,1.21798c0.44334,0.28256 0.97926,0.42385 1.60774,0.42385c0.62848,0 1.16439,-0.14129 1.60772,-0.42385c0.44334,-0.28256 0.78194,-0.68938 1.0158,-1.21798c0.24603,-0.52859 0.36783,-1.15465 0.36783,-1.88056c0,-0.7381 -0.1218,-1.36414 -0.36783,-1.883c-0.23386,-0.52859 -0.57245,-0.93299 -1.0158,-1.21555c-0.44334,-0.28256 -0.97924,-0.42386 -1.60772,-0.42386zM155.151,228.67407v-9.22254h1.29349l0.1291,2.0657l-0.24116,-0.20219c0.19975,-0.49206 0.46284,-0.88668 0.79413,-1.18145c0.33372,-0.30693 0.71617,-0.52859 1.1449,-0.66501c0.44334,-0.13399 0.9013,-0.20217 1.36901,-0.20217c0.66501,0 1.26915,0.1291 1.80991,0.38731c0.54322,0.24603 0.97439,0.62605 1.29349,1.1449c0.33129,0.51642 0.49694,1.17413 0.49694,1.97313v5.90232h-1.47619v-5.38591c0,-1.02066 -0.22167,-1.7271 -0.66501,-2.12172c-0.42872,-0.40681 -0.96464,-0.60898 -1.60774,-0.60898c-0.44334,0 -0.88668,0.10474 -1.33003,0.31425c-0.44334,0.2095 -0.81361,0.54565 -1.10836,1.01336c-0.28013,0.46771 -0.42629,1.09619 -0.42629,1.883v4.90602zM169.71074,228.85922c-0.87451,0 -1.65403,-0.19 -2.34584,-0.57245c-0.67475,-0.38002 -1.20823,-0.9281 -1.58825,-1.64184c-0.38002,-0.72591 -0.57245,-1.58581 -0.57245,-2.58211c0,-0.9963 0.19243,-1.85133 0.57245,-2.56507c0.38002,-0.72591 0.90374,-1.27886 1.5712,-1.65888c0.66501,-0.38245 1.42016,-0.57245 2.27031,-0.57245c0.86233,0 1.598,0.18513 2.19968,0.55295c0.6163,0.37026 1.08156,0.87451 1.40311,1.51274c0.32155,0.62848 0.47988,1.33492 0.47988,2.12172c0,0.2095 -0.0073,0.39949 -0.01704,0.57245c-0.01217,0.17295 -0.02923,0.32642 -0.05601,0.46039h-7.46379v-1.31055h6.81826l-0.75758,0.14859c0,-0.88426 -0.24846,-1.56875 -0.74053,-2.04865c-0.47988,-0.47745 -1.11567,-0.71861 -1.90249,-0.71861c-0.60168,0 -1.12542,0.14129 -1.56875,0.42385c-0.43359,0.27039 -0.76977,0.6699 -1.01823,1.19849c-0.23142,0.51885 -0.35078,1.1449 -0.35078,1.883c0,0.72591 0.12179,1.35196 0.37026,1.88056c0.24846,0.52859 0.59195,0.93541 1.03529,1.21798c0.45308,0.27039 0.9963,0.40681 1.62478,0.40681c0.6772,0 1.22772,-0.1291 1.64427,-0.38732c0.43116,-0.2582 0.77464,-0.609 1.03529,-1.05233l1.16195,0.68207c-0.23142,0.41898 -0.53348,0.78194 -0.90374,1.08887c-0.35808,0.30693 -0.78437,0.54809 -1.27401,0.71861c-0.48232,0.16077 -1.02554,0.24116 -1.62723,0.24116zM191.04924,219.45153l-4.34332,10.77181c-0.23629,0.60411 -0.49449,1.0767 -0.77463,1.42016c-0.27282,0.35808 -0.57975,0.60898 -0.92323,0.75758c-0.33372,0.15835 -0.72105,0.23873 -1.16439,0.23873c-0.42142,0 -0.80874,-0.0609 -1.16439,-0.18269c-0.34591,-0.11204 -0.65284,-0.26553 -0.92323,-0.46284l0.40681,-1.29106c0.24359,0.22167 0.50181,0.38245 0.77463,0.47988c0.28256,0.10962 0.55784,0.16565 0.8331,0.16565c0.31668,0 0.61874,-0.09744 0.90374,-0.29475c0.28013,-0.1973 0.54078,-0.59681 0.77707,-1.19849l0.47988,-1.19849l-0.92323,-2.19723l-2.93776,-7.00825h1.68081l2.30928,6.01195l0.57245,1.64184l0.66501,-1.82453l2.1607,-5.82926zM196.06487,219.2664c0.87696,0 1.64428,0.19 2.30929,0.57245c0.6772,0.38002 1.20823,0.93297 1.58824,1.65888c0.38245,0.71374 0.57488,1.56877 0.57488,2.56507c0,0.9963 -0.19243,1.8562 -0.57488,2.58211c-0.38002,0.71374 -0.91104,1.26183 -1.58824,1.64184c-0.66501,0.38245 -1.43235,0.57245 -2.30929,0.57245c-0.85988,0 -1.6321,-0.19 -2.30928,-0.57245c-0.67475,-0.38002 -1.20823,-0.9281 -1.58824,-1.64184c-0.38002,-0.72591 -0.57245,-1.58581 -0.57245,-2.58211c0,-0.9963 0.19245,-1.85133 0.57245,-2.56507c0.38002,-0.72591 0.91349,-1.27886 1.58824,-1.65888c0.6772,-0.38245 1.44939,-0.57245 2.30928,-0.57245zM196.06487,220.5404c-0.62848,0 -1.16195,0.14129 -1.6053,0.42386c-0.44334,0.28256 -0.78926,0.68695 -1.03529,1.21555c-0.23386,0.51885 -0.35078,1.1449 -0.35078,1.883c0,0.72591 0.11692,1.35196 0.35078,1.88056c0.24603,0.52859 0.59194,0.93541 1.03529,1.21798c0.44334,0.28256 0.97681,0.42385 1.6053,0.42385c0.62848,0 1.1644,-0.14129 1.60774,-0.42385c0.44334,-0.28256 0.78438,-0.68938 1.0158,-1.21798c0.24846,-0.52859 0.37026,-1.15465 0.37026,-1.88056c0,-0.7381 -0.12179,-1.36414 -0.37026,-1.883c-0.23142,-0.52859 -0.57245,-0.93299 -1.0158,-1.21555c-0.44334,-0.28256 -0.97926,-0.42386 -1.60774,-0.42386zM205.92321,228.85922c-0.59194,0 -1.15222,-0.11204 -1.68081,-0.33129c-0.51885,-0.22167 -0.94271,-0.57975 -1.27401,-1.07182c-0.32155,-0.50424 -0.48232,-1.15465 -0.48232,-1.95364v-6.05092h1.47862v5.66362c0,0.93297 0.20219,1.5785 0.609,1.93659c0.40681,0.34346 0.97926,0.51642 1.71978,0.51642c0.34346,0 0.68207,-0.05603 1.01579,-0.16565c0.33129,-0.12423 0.62848,-0.30936 0.88668,-0.55539c0.26795,-0.2582 0.47988,-0.58219 0.62848,-0.97681c0.15835,-0.39463 0.23873,-0.8599 0.23873,-1.40068v-5.01808h1.47862v9.22254h-1.29349l-0.09256,-1.40068c-0.32155,0.55297 -0.75758,0.95733 -1.31055,1.21555c-0.54322,0.24603 -1.18388,0.37028 -1.92197,0.37028zM222.62415,219.2664c0.63822,0 1.19849,0.09743 1.68081,0.29475c0.48962,0.1973 0.91593,0.47989 1.27401,0.84771c0.35808,0.37026 0.64552,0.8063 0.86721,1.31055l-1.40312,0.66501c-0.19487,-0.59194 -0.49936,-1.04014 -0.90617,-1.34708c-0.39463,-0.31912 -0.91104,-0.47988 -1.55171,-0.47988c-0.6163,0 -1.1449,0.14129 -1.58824,0.42385c-0.44334,0.27039 -0.78194,0.6699 -1.0158,1.19849c-0.23142,0.51885 -0.35078,1.1449 -0.35078,1.883c0,0.72591 0.11936,1.35196 0.35078,1.88056c0.23386,0.52859 0.57245,0.93541 1.0158,1.21798c0.44334,0.27039 0.97194,0.40681 1.58824,0.40681c0.48232,0 0.894,-0.07552 1.23746,-0.22167c0.36052,-0.1486 0.64797,-0.36296 0.86964,-0.64552c0.23142,-0.28256 0.39462,-0.62848 0.47988,-1.03286l1.36658,0.47988c-0.2095,0.56514 -0.49695,1.0499 -0.86721,1.45671c-0.35808,0.40681 -0.79413,0.71861 -1.31298,0.94029c-0.50424,0.2095 -1.08156,0.31425 -1.7344,0.31425c-0.86233,0 -1.63454,-0.19 -2.30929,-0.57245c-0.6772,-0.38002 -1.20823,-0.9281 -1.59068,-1.64184c-0.38002,-0.72591 -0.57245,-1.58581 -0.57245,-2.58211c0,-0.9963 0.19243,-1.85133 0.57245,-2.56507c0.38245,-0.72591 0.91349,-1.27886 1.59068,-1.65888c0.67475,-0.38245 1.44697,-0.57245 2.30929,-0.57245zM233.79304,222.71572c0,-0.68937 -0.18515,-1.21798 -0.55541,-1.58581c-0.37026,-0.38245 -0.894,-0.57245 -1.5712,-0.57245c-0.63822,0 -1.18145,0.14129 -1.62478,0.42385c-0.44334,0.27039 -0.76733,0.71374 -0.97926,1.32759l-1.20093,-0.73565c0.24846,-0.68937 0.70157,-1.24233 1.36658,-1.66133c0.66501,-0.43116 1.49081,-0.64552 2.47737,-0.64552c0.66501,0 1.26669,0.11692 1.80991,0.35078c0.54322,0.22167 0.96707,0.56514 1.27402,1.03284c0.32155,0.45552 0.47988,1.04503 0.47988,1.77094v4.46511c0,0.44091 0.23386,0.66258 0.70157,0.66258c0.23386,0 0.46282,-0.02923 0.6845,-0.09256l-0.07309,1.16195c-0.24846,0.12423 -0.56514,0.18513 -0.9622,0.18513c-0.35808,0 -0.67475,-0.0682 -0.95976,-0.20217c-0.285,-0.13642 -0.50668,-0.33861 -0.66502,-0.609c-0.15835,-0.28256 -0.24116,-0.63335 -0.24116,-1.05233v-0.1827l0.37028,0.05359c-0.1486,0.47988 -0.39951,0.87451 -0.7576,1.18145c-0.35808,0.29476 -0.75758,0.51642 -1.20092,0.66501c-0.44334,0.13399 -0.87939,0.20219 -1.31055,0.20219c-0.54322,0 -1.04503,-0.09257 -1.51517,-0.2777c-0.47015,-0.18269 -0.84284,-0.46041 -1.12785,-0.83066c-0.26795,-0.38002 -0.40436,-0.84771 -0.40436,-1.40068c0,-0.68937 0.22899,-1.25453 0.68207,-1.69787c0.47015,-0.45308 1.11566,-0.76245 1.93902,-0.92079l3.65881,-0.72104v1.21798l-2.9743,0.60898c-0.60168,0.12179 -1.05233,0.29476 -1.34952,0.51644c-0.29476,0.22167 -0.44334,0.52859 -0.44334,0.92323c0,0.38002 0.14859,0.69425 0.44334,0.94029c0.30693,0.23386 0.74053,0.35078 1.29349,0.35078c0.35808,0 0.69425,-0.04384 1.0158,-0.1291c0.33372,-0.09987 0.62848,-0.24116 0.88668,-0.42385c0.26065,-0.1973 0.46282,-0.43848 0.61142,-0.72104c0.14616,-0.29476 0.22167,-0.63821 0.22167,-1.03284zM238.12173,228.67407v-9.22254h1.29349l0.12912,2.0657l-0.23873,-0.20219c0.19487,-0.49206 0.46039,-0.88668 0.79411,-1.18145c0.33129,-0.30693 0.71131,-0.52859 1.1449,-0.66501c0.44334,-0.13399 0.89643,-0.20217 1.36658,-0.20217c0.66501,0 1.26669,0.1291 1.80991,0.38731c0.54322,0.24603 0.97194,0.62605 1.29349,1.1449c0.33372,0.51642 0.49936,1.17413 0.49936,1.97313v5.90232h-1.47862v-5.38591c0,-1.02066 -0.22167,-1.7271 -0.66501,-2.12172c-0.43116,-0.40681 -0.96707,-0.60898 -1.60774,-0.60898c-0.44334,0 -0.88668,0.10474 -1.33003,0.31425c-0.44334,0.2095 -0.81117,0.54565 -1.10837,1.01336c-0.28256,0.46771 -0.42385,1.09619 -0.42385,1.883v4.90602zM318.80317,215.11552c0.32155,0 0.62117,0.03653 0.90617,0.11204c0.28258,0.07309 0.50424,0.17782 0.66501,0.3118l-0.38975,1.20093c-0.14616,-0.09987 -0.30693,-0.16809 -0.47988,-0.20462c-0.17296,-0.04873 -0.36052,-0.07309 -0.57245,-0.07309c-0.52861,0 -0.94271,0.12912 -1.23748,0.38732c-0.29475,0.24603 -0.44335,0.64552 -0.44335,1.19849v1.40311v0.47988v8.74265h-1.47864v-10.77181c0,-0.40681 0.06334,-0.78194 0.18513,-1.12542c0.1218,-0.34591 0.30693,-0.64065 0.55541,-0.88668c0.2582,-0.24603 0.57975,-0.43604 0.95977,-0.57245c0.38001,-0.13399 0.82336,-0.20217 1.33003,-0.20217zM320.33538,219.45153v1.27158h-6.40901v-1.27158zM325.13665,219.2664c0.87451,0 1.64427,0.19 2.30929,0.57245c0.67964,0.38002 1.20823,0.93297 1.58825,1.65888c0.38489,0.71374 0.57245,1.56877 0.57245,2.56507c0,0.9963 -0.18756,1.8562 -0.57245,2.58211c-0.38001,0.71374 -0.90861,1.26183 -1.58825,1.64184c-0.66502,0.38245 -1.43478,0.57245 -2.30929,0.57245c-0.86233,0 -1.62965,-0.19 -2.30928,-0.57245c-0.6772,-0.38002 -1.2058,-0.9281 -1.58825,-1.64184c-0.38245,-0.72591 -0.57488,-1.58581 -0.57488,-2.58211c0,-0.9963 0.19243,-1.85133 0.57488,-2.56507c0.38245,-0.72591 0.91106,-1.27886 1.58825,-1.65888c0.67964,-0.38245 1.44697,-0.57245 2.30928,-0.57245zM325.13665,220.5404c-0.62848,0 -1.16439,0.14129 -1.60774,0.42386c-0.44335,0.28256 -0.78681,0.68695 -1.03529,1.21555c-0.23142,0.51885 -0.35078,1.1449 -0.35078,1.883c0,0.72591 0.11936,1.35196 0.35078,1.88056c0.24848,0.52859 0.59194,0.93541 1.03529,1.21798c0.44335,0.28256 0.97926,0.42385 1.60774,0.42385c0.62848,0 1.16196,-0.14129 1.6053,-0.42385c0.44335,-0.28256 0.78438,-0.68938 1.01823,-1.21798c0.24603,-0.52859 0.36782,-1.15465 0.36782,-1.88056c0,-0.7381 -0.12179,-1.36414 -0.36782,-1.883c-0.23385,-0.52859 -0.57489,-0.93299 -1.01823,-1.21555c-0.44335,-0.28256 -0.97681,-0.42386 -1.6053,-0.42386zM331.65285,228.67407v-9.22254h1.20092l0.20462,1.51274c0.2582,-0.56514 0.63091,-0.99144 1.12542,-1.27401c0.50181,-0.28256 1.11323,-0.42385 1.8294,-0.42385c0.15833,0 0.33129,0.01217 0.51642,0.03653c0.19732,0.02436 0.36296,0.07309 0.49936,0.1486l-0.2582,1.34709c-0.13642,-0.05116 -0.285,-0.0877 -0.44335,-0.11206c-0.16322,-0.02436 -0.38732,-0.03654 -0.68451,-0.03654c-0.38245,0 -0.7722,0.10962 -1.16439,0.33129c-0.38245,0.22167 -0.70155,0.56027 -0.95976,1.01579c-0.25822,0.44334 -0.38732,1.0085 -0.38732,1.69543v4.98153zM347.39889,219.2664c0.87694,0 1.64427,0.19 2.30929,0.57245c0.68207,0.38002 1.20823,0.93297 1.59068,1.65888c0.38245,0.71374 0.57245,1.56877 0.57245,2.56507c0,0.9963 -0.19,1.8562 -0.57245,2.58211c-0.38245,0.71374 -0.90861,1.26183 -1.59068,1.64184c-0.66502,0.38245 -1.43235,0.57245 -2.30929,0.57245c-0.8599,0 -1.62723,-0.19 -2.30685,-0.57245c-0.6772,-0.38002 -1.2058,-0.9281 -1.59068,-1.64184c-0.38001,-0.72591 -0.57245,-1.58581 -0.57245,-2.58211c0,-0.9963 0.19245,-1.85133 0.57245,-2.56507c0.38488,-0.72591 0.91349,-1.27886 1.59068,-1.65888c0.67962,-0.38245 1.44695,-0.57245 2.30685,-0.57245zM347.39889,220.5404c-0.62605,0 -1.16195,0.14129 -1.6053,0.42386c-0.44335,0.28256 -0.78681,0.68695 -1.03529,1.21555c-0.23386,0.51885 -0.35078,1.1449 -0.35078,1.883c0,0.72591 0.11693,1.35196 0.35078,1.88056c0.24846,0.52859 0.59194,0.93541 1.03529,1.21798c0.44335,0.28256 0.97924,0.42385 1.6053,0.42385c0.62848,0 1.16439,-0.14129 1.60774,-0.42385c0.44335,-0.28256 0.78438,-0.68938 1.0158,-1.21798c0.24846,-0.52859 0.37026,-1.15465 0.37026,-1.88056c0,-0.7381 -0.1218,-1.36414 -0.37026,-1.883c-0.23142,-0.52859 -0.57245,-0.93299 -1.0158,-1.21555c-0.44335,-0.28256 -0.97926,-0.42386 -1.60774,-0.42386zM353.91265,228.67407v-9.22254h1.29351l0.1291,2.0657l-0.23872,-0.20219c0.19975,-0.49206 0.46039,-0.88668 0.79411,-1.18145c0.33129,-0.30693 0.71618,-0.52859 1.1449,-0.66501c0.44335,-0.13399 0.9013,-0.20217 1.36656,-0.20217c0.66502,0 1.27158,0.1291 1.81236,0.38731c0.54078,0.24603 0.97439,0.62605 1.29105,1.1449c0.33373,0.51642 0.49938,1.17413 0.49938,1.97313v5.90232h-1.47862v-5.38591c0,-1.02066 -0.22167,-1.7271 -0.66502,-2.12172c-0.42872,-0.40681 -0.9622,-0.60898 -1.6053,-0.60898c-0.44335,0 -0.8867,0.10474 -1.33003,0.31425c-0.44335,0.2095 -0.81361,0.54565 -1.10836,1.01336c-0.28258,0.46771 -0.42629,1.09619 -0.42629,1.883v4.90602zM368.47483,228.85922c-0.87207,0 -1.65645,-0.19 -2.34584,-0.57245c-0.6772,-0.38002 -1.2058,-0.9281 -1.58825,-1.64184c-0.38245,-0.72591 -0.57488,-1.58581 -0.57488,-2.58211c0,-0.9963 0.19243,-1.85133 0.57488,-2.56507c0.38245,-0.72591 0.90374,-1.27886 1.56877,-1.65888c0.66502,-0.38245 1.42259,-0.57245 2.27275,-0.57245c0.86477,0 1.59555,0.18513 2.19723,0.55295c0.61874,0.37026 1.08645,0.87451 1.40555,1.51274c0.32155,0.62848 0.47988,1.33492 0.47988,2.12172c0,0.2095 -0.00487,0.39949 -0.01949,0.57245c-0.00974,0.17295 -0.02923,0.32642 -0.05359,0.46039h-7.46379v-1.31055h6.81582l-0.75758,0.14859c0,-0.88426 -0.2436,-1.56875 -0.7381,-2.04865c-0.47988,-0.47745 -1.11323,-0.71861 -1.90249,-0.71861c-0.60168,0 -1.12785,0.14129 -1.5712,0.42385c-0.42874,0.27039 -0.76733,0.6699 -1.0158,1.19849c-0.23142,0.51885 -0.35078,1.1449 -0.35078,1.883c0,0.72591 0.12667,1.35196 0.37026,1.88056c0.24603,0.52859 0.58949,0.93541 1.03284,1.21798c0.45796,0.27039 0.99874,0.40681 1.62723,0.40681c0.67964,0 1.22529,-0.1291 1.64428,-0.38732c0.43116,-0.2582 0.77464,-0.609 1.03284,-1.05233l1.16439,0.68207c-0.23142,0.41898 -0.53591,0.78194 -0.90374,1.08887c-0.35565,0.30693 -0.77951,0.54809 -1.27645,0.71861c-0.47989,0.16077 -1.01823,0.24116 -1.62478,0.24116zM383.91881,219.2664c0.87451,0 1.64427,0.19 2.30929,0.57245c0.67477,0.38002 1.20823,0.93297 1.58825,1.65888c0.38001,0.71374 0.57245,1.56877 0.57245,2.56507c0,0.9963 -0.19245,1.8562 -0.57245,2.58211c-0.38001,0.71374 -0.91349,1.26183 -1.58825,1.64184c-0.66502,0.38245 -1.43478,0.57245 -2.30929,0.57245c-0.86233,0 -1.63452,-0.19 -2.30929,-0.57245c-0.6772,-0.38002 -1.20823,-0.9281 -1.58825,-1.64184c-0.38245,-0.72591 -0.57245,-1.58581 -0.57245,-2.58211c0,-0.9963 0.19,-1.85133 0.57245,-2.56507c0.38001,-0.72591 0.91104,-1.27886 1.58825,-1.65888c0.67477,-0.38245 1.44697,-0.57245 2.30929,-0.57245zM383.91881,220.5404c-0.62848,0 -1.16439,0.14129 -1.60774,0.42386c-0.44335,0.28256 -0.78681,0.68695 -1.03529,1.21555c-0.23142,0.51885 -0.35078,1.1449 -0.35078,1.883c0,0.72591 0.11936,1.35196 0.35078,1.88056c0.24848,0.52859 0.59194,0.93541 1.03529,1.21798c0.44335,0.28256 0.97926,0.42385 1.60774,0.42385c0.62848,0 1.16439,-0.14129 1.60774,-0.42385c0.44335,-0.28256 0.78194,-0.68938 1.0158,-1.21798c0.24603,-0.52859 0.36783,-1.15465 0.36783,-1.88056c0,-0.7381 -0.1218,-1.36414 -0.36783,-1.883c-0.23386,-0.52859 -0.57245,-0.93299 -1.0158,-1.21555c-0.44335,-0.28256 -0.97924,-0.42386 -1.60774,-0.42386zM390.43258,228.67407v-9.22254h1.20092l0.20219,1.51274c0.2582,-0.56514 0.63578,-0.99144 1.12785,-1.27401c0.50668,-0.28256 1.11566,-0.42385 1.8294,-0.42385c0.15833,0 0.33131,0.01217 0.51644,0.03653c0.19487,0.02436 0.36295,0.07309 0.49936,0.1486l-0.26065,1.34709c-0.13642,-0.05116 -0.28258,-0.0877 -0.44335,-0.11206c-0.15833,-0.02436 -0.38731,-0.03654 -0.68207,-0.03654c-0.38001,0 -0.76975,0.10962 -1.16439,0.33129c-0.38001,0.22167 -0.70155,0.56027 -0.95977,1.01579c-0.25822,0.44334 -0.38732,1.0085 -0.38732,1.69543v4.98153zM406.1835,219.2664c0.63822,0 1.20093,0.09743 1.68081,0.29475c0.48964,0.1973 0.91593,0.47989 1.27401,0.84771c0.35809,0.37026 0.64554,0.8063 0.86721,1.31055l-1.40311,0.66501c-0.19487,-0.59194 -0.49938,-1.04014 -0.90619,-1.34708c-0.39463,-0.31912 -0.91104,-0.47988 -1.55171,-0.47988c-0.6163,0 -1.1449,0.14129 -1.58825,0.42385c-0.44335,0.27039 -0.78194,0.6699 -1.01579,1.19849c-0.23142,0.51885 -0.35078,1.1449 -0.35078,1.883c0,0.72591 0.11936,1.35196 0.35078,1.88056c0.23385,0.52859 0.57245,0.93541 1.01579,1.21798c0.44335,0.27039 0.97196,0.40681 1.58825,0.40681c0.48232,0 0.89644,-0.07552 1.2399,-0.22167c0.35808,-0.1486 0.64554,-0.36296 0.86721,-0.64552c0.23385,-0.28256 0.39462,-0.62848 0.47988,-1.03286l1.36658,0.47988c-0.20949,0.56514 -0.49695,1.0499 -0.86721,1.45671c-0.35808,0.40681 -0.79413,0.71861 -1.31298,0.94029c-0.50425,0.2095 -1.08157,0.31425 -1.73441,0.31425c-0.86233,0 -1.63452,-0.19 -2.30929,-0.57245c-0.6772,-0.38002 -1.20823,-0.9281 -1.59068,-1.64184c-0.38001,-0.72591 -0.57245,-1.58581 -0.57245,-2.58211c0,-0.9963 0.19245,-1.85133 0.57245,-2.56507c0.38245,-0.72591 0.91349,-1.27886 1.59068,-1.65888c0.67477,-0.38245 1.44697,-0.57245 2.30929,-0.57245zM411.95673,228.67407v-9.22254h1.20092l0.20463,1.51274c0.2582,-0.56514 0.63578,-0.99144 1.12542,-1.27401c0.50668,-0.28256 1.11567,-0.42385 1.82941,-0.42385c0.15833,0 0.33372,0.01217 0.51642,0.03653c0.19732,0.02436 0.36296,0.07309 0.49936,0.1486l-0.2582,1.34709c-0.13642,-0.05116 -0.285,-0.0877 -0.44335,-0.11206c-0.15833,-0.02436 -0.38731,-0.03654 -0.68451,-0.03654c-0.38001,0 -0.76733,0.10962 -1.16195,0.33129c-0.38245,0.22167 -0.704,0.56027 -0.9622,1.01579c-0.25822,0.44334 -0.38731,1.0085 -0.38731,1.69543v4.98153zM422.33147,228.85922c-0.87451,0 -1.6589,-0.19 -2.34584,-0.57245c-0.67962,-0.38002 -1.20823,-0.9281 -1.58825,-1.64184c-0.38488,-0.72591 -0.57245,-1.58581 -0.57245,-2.58211c0,-0.9963 0.18757,-1.85133 0.57245,-2.56507c0.38001,-0.72591 0.90619,-1.27886 1.5712,-1.65888c0.66502,-0.38245 1.42016,-0.57245 2.27032,-0.57245c0.86233,0 1.59312,0.18513 2.19968,0.55295c0.61387,0.37026 1.08156,0.87451 1.40311,1.51274c0.3191,0.62848 0.47989,1.33492 0.47989,2.12172c0,0.2095 -0.00731,0.39949 -0.01706,0.57245c-0.01461,0.17295 -0.0341,0.32642 -0.05603,0.46039h-7.46379v-1.31055h6.81825l-0.75758,0.14859c0,-0.88426 -0.24848,-1.56875 -0.74054,-2.04865c-0.47988,-0.47745 -1.11567,-0.71861 -1.90249,-0.71861c-0.60655,0 -1.12542,0.14129 -1.56877,0.42385c-0.43361,0.27039 -0.7722,0.6699 -1.01823,1.19849c-0.23629,0.51885 -0.35078,1.1449 -0.35078,1.883c0,0.72591 0.1218,1.35196 0.37026,1.88056c0.2436,0.52859 0.59194,0.93541 1.03529,1.21798c0.45309,0.27039 0.99632,0.40681 1.62478,0.40681c0.6772,0 1.22286,-0.1291 1.64428,-0.38732c0.42872,-0.2582 0.77707,-0.609 1.03529,-1.05233l1.16439,0.68207c-0.23872,0.41898 -0.53592,0.78194 -0.90619,1.08887c-0.35809,0.30693 -0.78438,0.54809 -1.27401,0.71861c-0.48232,0.16077 -1.02554,0.24116 -1.62723,0.24116zM433.79024,222.71572c0,-0.68937 -0.18515,-1.21798 -0.55541,-1.58581c-0.37026,-0.38245 -0.894,-0.57245 -1.56877,-0.57245c-0.6431,0 -1.18388,0.14129 -1.62721,0.42385c-0.44335,0.27039 -0.77221,0.71374 -0.97926,1.32759l-1.20092,-0.73565c0.2436,-0.68937 0.70155,-1.24233 1.36656,-1.66133c0.66502,-0.43116 1.49081,-0.64552 2.47738,-0.64552c0.66502,0 1.26669,0.11692 1.80991,0.35078c0.53834,0.22167 0.96464,0.56514 1.27401,1.03284c0.3191,0.45552 0.47988,1.04503 0.47988,1.77094v4.46511c0,0.44091 0.23386,0.66258 0.704,0.66258c0.23142,0 0.46039,-0.02923 0.68207,-0.09256l-0.07309,1.16195c-0.24846,0.12423 -0.57001,0.18513 -0.9622,0.18513c-0.35808,0 -0.67964,-0.0682 -0.95977,-0.20217c-0.285,-0.13642 -0.50668,-0.33861 -0.66502,-0.609c-0.16322,-0.28256 -0.24116,-0.63335 -0.24116,-1.05233v-0.1827l0.37026,0.05359c-0.14859,0.47988 -0.40193,0.87451 -0.75758,1.18145c-0.35808,0.29476 -0.75758,0.51642 -1.20093,0.66501c-0.44335,0.13399 -0.88181,0.20219 -1.31053,0.20219c-0.54322,0 -1.0499,-0.09257 -1.51518,-0.2777c-0.47014,-0.18269 -0.84527,-0.46041 -1.12785,-0.83066c-0.27283,-0.38002 -0.40438,-0.84771 -0.40438,-1.40068c0,-0.68937 0.2241,-1.25453 0.68207,-1.69787c0.46526,-0.45308 1.11323,-0.76245 1.93903,-0.92079l3.65881,-0.72104v1.21798l-2.9743,0.60898c-0.60655,0.12179 -1.05233,0.29476 -1.34954,0.51644c-0.29475,0.22167 -0.44335,0.52859 -0.44335,0.92323c0,0.38002 0.14859,0.69425 0.44335,0.94029c0.30693,0.23386 0.74053,0.35078 1.29349,0.35078c0.35565,0 0.69425,-0.04384 1.0158,-0.1291c0.33373,-0.09987 0.62848,-0.24116 0.8867,-0.42385c0.26065,-0.1973 0.46284,-0.43848 0.61142,-0.72104c0.14616,-0.29476 0.22167,-0.63821 0.22167,-1.03284zM439.93616,216.83045v9.29806c0,0.45552 0.13154,0.79413 0.38975,1.0158c0.25822,0.21925 0.58951,0.33129 0.99632,0.33129c0.35809,0 0.66502,-0.0609 0.92323,-0.18513c0.26065,-0.12179 0.49206,-0.28743 0.704,-0.49694l0.51642,1.23503c-0.285,0.2582 -0.62117,0.46039 -1.0158,0.60898c-0.38001,0.1486 -0.82336,0.22167 -1.33003,0.22167c-0.47014,0 -0.90617,-0.08039 -1.31298,-0.24116c-0.40438,-0.17052 -0.73078,-0.43605 -0.97926,-0.7917c-0.23142,-0.37026 -0.35808,-0.85016 -0.36782,-1.43965v-9.14947zM443.30023,219.45153v1.27158h-6.68915v-1.27158zM448.62036,228.85922c-0.87696,0 -1.6589,-0.19 -2.34584,-0.57245c-0.67962,-0.38002 -1.20823,-0.9281 -1.59068,-1.64184c-0.38245,-0.72591 -0.57245,-1.58581 -0.57245,-2.58211c0,-0.9963 0.19,-1.85133 0.57245,-2.56507c0.38245,-0.72591 0.90619,-1.27886 1.5712,-1.65888c0.66502,-0.38245 1.42259,-0.57245 2.27275,-0.57245c0.85988,0 1.59312,0.18513 2.19723,0.55295c0.61387,0.37026 1.084,0.87451 1.40555,1.51274c0.31668,0.62848 0.47988,1.33492 0.47988,2.12172c0,0.2095 -0.0073,0.39949 -0.01949,0.57245c-0.01461,0.17295 -0.03167,0.32642 -0.05359,0.46039h-7.46379v-1.31055h6.81582l-0.75758,0.14859c0,-0.88426 -0.24603,-1.56875 -0.7381,-2.04865c-0.47988,-0.47745 -1.11567,-0.71861 -1.90249,-0.71861c-0.60655,0 -1.12785,0.14129 -1.5712,0.42385c-0.43116,0.27039 -0.7722,0.6699 -1.0158,1.19849c-0.23629,0.51885 -0.35078,1.1449 -0.35078,1.883c0,0.72591 0.1218,1.35196 0.37026,1.88056c0.2436,0.52859 0.58951,0.93541 1.03284,1.21798c0.45552,0.27039 0.99874,0.40681 1.62723,0.40681c0.67477,0 1.22286,-0.1291 1.64428,-0.38732c0.42629,-0.2582 0.77463,-0.609 1.03284,-1.05233l1.16439,0.68207c-0.23629,0.41898 -0.53592,0.78194 -0.90619,1.08887c-0.35809,0.30693 -0.78194,0.54809 -1.27401,0.71861c-0.47989,0.16077 -1.0231,0.24116 -1.62478,0.24116zM460.97555,217.68059c-0.33373,0 -0.60168,-0.09987 -0.81361,-0.29475c-0.19487,-0.2095 -0.29476,-0.47988 -0.29476,-0.81361c0,-0.33129 0.09987,-0.59681 0.29476,-0.79168c0.21193,-0.2095 0.47988,-0.31425 0.81361,-0.31425c0.33129,0 0.59681,0.10474 0.79411,0.31425c0.20949,0.19487 0.31425,0.46039 0.31425,0.79168c0,0.33372 -0.10474,0.60411 -0.31425,0.81361c-0.1973,0.19487 -0.46282,0.29475 -0.79411,0.29475zM461.71364,219.45153v9.22254h-1.47862v-9.22254zM466.588,216.83045v9.29806c0,0.45552 0.1291,0.79413 0.38731,1.0158c0.25822,0.21925 0.59194,0.33129 0.99632,0.33129c0.35565,0 0.66502,-0.0609 0.92567,-0.18513c0.2582,-0.12179 0.48962,-0.28743 0.70155,-0.49694l0.51642,1.23503c-0.285,0.2582 -0.62361,0.46039 -1.0158,0.60898c-0.38489,0.1486 -0.82823,0.22167 -1.33003,0.22167c-0.47014,0 -0.90617,-0.08039 -1.31055,-0.24116c-0.40681,-0.17052 -0.73565,-0.43605 -0.97926,-0.7917c-0.23629,-0.37026 -0.36052,-0.85016 -0.37026,-1.43965v-9.14947zM469.94962,219.45153v1.27158h-6.6867v-1.27158z" stroke="none" stroke-width="1"/><path d="M257.70442,228.85922c-0.90374,0 -1.73441,-0.19 -2.49442,-0.57245c-0.75514,-0.38002 -1.33003,-0.9208 -1.73684,-1.62235l1.25696,-0.90374c0.26795,0.56514 0.66502,1.00849 1.18145,1.32759c0.52859,0.31912 1.16439,0.47988 1.90247,0.47988c0.65041,0 1.16439,-0.12423 1.53222,-0.37026c0.37026,-0.2582 0.55539,-0.58949 0.55539,-0.9963c0,-0.2582 -0.0877,-0.48962 -0.25822,-0.69913c-0.16322,-0.22167 -0.47745,-0.38243 -0.94271,-0.47988l-2.21672,-0.46284c-0.9013,-0.18269 -1.54927,-0.48964 -1.93903,-0.9208c-0.38489,-0.43116 -0.57245,-0.96707 -0.57245,-1.6053c0,-0.50424 0.13886,-0.96464 0.42386,-1.38362c0.29476,-0.41898 0.70643,-0.75028 1.23746,-0.99632c0.54078,-0.2582 1.17413,-0.38731 1.90249,-0.38731c0.90861,0 1.68081,0.17782 2.30929,0.53591c0.62848,0.35565 1.09375,0.8599 1.40555,1.51274l-1.2399,0.81117c-0.20949,-0.54078 -0.55052,-0.9354 -1.0158,-1.18143c-0.46771,-0.2582 -0.9549,-0.38732 -1.45915,-0.38732c-0.44334,0 -0.82578,0.0609 -1.1449,0.18513c-0.30938,0.12179 -0.55052,0.29475 -0.72104,0.51642c-0.16077,0.2095 -0.23873,0.44822 -0.23873,0.71861c0,0.27039 0.09256,0.52372 0.27526,0.75758c0.18513,0.22167 0.52861,0.38002 1.03529,0.47988l2.30929,0.47988c0.86233,0.17052 1.46401,0.45309 1.80991,0.84771c0.34348,0.39463 0.51887,0.87207 0.51887,1.43965c0,0.57732 -0.1559,1.08645 -0.46284,1.52978c-0.30936,0.43116 -0.7381,0.76245 -1.29349,0.9963c-0.55297,0.23386 -1.19606,0.35079 -1.91954,0.35079zM267.23875,228.85922c-0.87207,0 -1.65401,-0.19 -2.34582,-0.57245c-0.67477,-0.38002 -1.20336,-0.9281 -1.58824,-1.64184c-0.38001,-0.72591 -0.57245,-1.58581 -0.57245,-2.58211c0,-0.9963 0.19245,-1.85133 0.57245,-2.56507c0.38488,-0.72591 0.90374,-1.27886 1.5712,-1.65888c0.66502,-0.38245 1.42016,-0.57245 2.27032,-0.57245c0.86477,0 1.598,0.18513 2.19968,0.55295c0.6163,0.37026 1.08645,0.87451 1.40311,1.51274c0.32155,0.62848 0.47988,1.33492 0.47988,2.12172c0,0.2095 -0.00244,0.39949 -0.01704,0.57245c-0.01219,0.17295 -0.02923,0.32642 -0.05603,0.46039h-7.46377v-1.30811h6.81825l-0.75758,0.14616c0,-0.88426 -0.24603,-1.56875 -0.74053,-2.0462c-0.47989,-0.47988 -1.1108,-0.72104 -1.90249,-0.72104c-0.60168,0 -1.12542,0.14129 -1.56877,0.42385c-0.42872,0.27039 -0.76975,0.67234 -1.01823,1.20093c-0.23142,0.51642 -0.35078,1.14246 -0.35078,1.88056c0,0.72591 0.12666,1.35196 0.37026,1.88056c0.24846,0.52859 0.59194,0.93541 1.03529,1.21798c0.45795,0.27039 0.9963,0.40681 1.62478,0.40681c0.67964,0 1.22773,-0.1291 1.64427,-0.38732c0.43116,-0.2582 0.77464,-0.609 1.03529,-1.05233l1.16196,0.68207c-0.23142,0.41898 -0.53348,0.78194 -0.90374,1.08887c-0.35565,0.30693 -0.77951,0.54809 -1.27401,0.71861c-0.48232,0.16077 -1.02067,0.24116 -1.62723,0.24116zM278.69751,222.71572c0,-0.68937 -0.18515,-1.21798 -0.55541,-1.58581c-0.37026,-0.38245 -0.894,-0.57245 -1.5712,-0.57245c-0.63822,0 -1.18143,0.14129 -1.62478,0.42385c-0.44335,0.27039 -0.76733,0.71374 -0.97926,1.33003l-1.20093,-0.7381c0.24848,-0.68937 0.70155,-1.24233 1.36658,-1.66133c0.66502,-0.43116 1.49081,-0.64552 2.47737,-0.64552c0.66502,0 1.26669,0.11692 1.80991,0.35078c0.54322,0.22167 0.96709,0.56514 1.27401,1.03284c0.32155,0.45552 0.47988,1.04503 0.47988,1.77094v4.46511c0,0.44091 0.23385,0.66258 0.70155,0.66258c0.23385,0 0.46284,-0.02923 0.68451,-0.09256l-0.07309,1.16195c-0.24848,0.12423 -0.56514,0.18513 -0.9622,0.18513c-0.35809,0 -0.67477,-0.06576 -0.95977,-0.20217c-0.285,-0.13642 -0.50668,-0.33861 -0.66502,-0.609c-0.15833,-0.28256 -0.24116,-0.63335 -0.24116,-1.05233v-0.1827l0.37028,0.05359c-0.14859,0.47988 -0.39949,0.87451 -0.75758,1.18145c-0.35808,0.29476 -0.75758,0.51642 -1.20093,0.66501c-0.44335,0.13399 -0.87939,0.20219 -1.31055,0.20219c-0.54322,0 -1.04503,-0.09257 -1.51517,-0.2777c-0.47014,-0.18269 -0.84284,-0.46041 -1.12785,-0.82823c-0.26795,-0.38245 -0.40681,-0.85014 -0.40681,-1.40311c0,-0.68937 0.23142,-1.25453 0.68451,-1.69787c0.47014,-0.45308 1.11566,-0.76245 1.93902,-0.92079l3.65881,-0.72104v1.21798l-2.9743,0.60898c-0.60168,0.12423 -1.05233,0.29476 -1.34952,0.51644c-0.29476,0.22167 -0.44335,0.52859 -0.44335,0.92323c0,0.38002 0.14859,0.69425 0.44335,0.94029c0.30693,0.23386 0.74053,0.35078 1.29349,0.35078c0.35808,0 0.69425,-0.04384 1.0158,-0.1291c0.33373,-0.09987 0.62848,-0.24116 0.8867,-0.42385c0.2582,-0.1973 0.46284,-0.43848 0.61142,-0.72104c0.14616,-0.29476 0.22167,-0.63821 0.22167,-1.03284zM283.02622,228.67407v-9.22254h1.20092l0.20463,1.51274c0.2582,-0.56514 0.63335,-0.99144 1.12542,-1.27401c0.50668,-0.28256 1.11567,-0.42385 1.82941,-0.42385c0.15833,0 0.33129,0.01217 0.51642,0.03653c0.19732,0.02436 0.36296,0.07552 0.49936,0.1486l-0.2582,1.34709c-0.13642,-0.05116 -0.285,-0.0877 -0.44335,-0.11206c-0.15833,-0.02436 -0.38731,-0.03654 -0.68451,-0.03654c-0.38001,0 -0.76733,0.10962 -1.16439,0.33129c-0.38001,0.22167 -0.70155,0.56027 -0.95977,1.01579c-0.25822,0.44334 -0.38732,1.0085 -0.38732,1.69787v4.97911zM293.36444,219.2664c0.63822,0 1.20093,0.09987 1.68081,0.29475c0.49206,0.1973 0.91593,0.47989 1.27401,0.85016c0.36052,0.36782 0.64797,0.80387 0.86964,1.30811l-1.40555,0.66501c-0.19487,-0.58949 -0.49694,-1.04014 -0.90374,-1.34708c-0.39463,-0.31912 -0.91349,-0.47988 -1.55171,-0.47988c-0.6163,0 -1.1449,0.14129 -1.58825,0.42385c-0.44335,0.27039 -0.78438,0.67234 -1.0158,1.20093c-0.23385,0.51642 -0.35321,1.14246 -0.35321,1.88056c0,0.72591 0.11936,1.35196 0.35321,1.88056c0.23142,0.52859 0.57245,0.93541 1.0158,1.21798c0.44335,0.27039 0.97196,0.40681 1.58825,0.40681c0.47989,0 0.894,-0.07307 1.23748,-0.22167c0.35808,-0.1486 0.64552,-0.36296 0.8672,-0.64552c0.23386,-0.28256 0.39706,-0.62848 0.48232,-1.03286l1.36658,0.47988c-0.21193,0.56514 -0.49938,1.0499 -0.86964,1.45671c-0.35808,0.40681 -0.79413,0.71861 -1.31055,0.94029c-0.50668,0.2095 -1.084,0.31425 -1.73684,0.31425c-0.85988,0 -1.6321,-0.19 -2.30929,-0.57245c-0.6772,-0.38002 -1.20823,-0.9281 -1.58825,-1.64184c-0.38001,-0.72591 -0.57245,-1.58581 -0.57245,-2.58211c0,-0.9963 0.19245,-1.85133 0.57245,-2.56507c0.38001,-0.72591 0.91106,-1.27886 1.58825,-1.65888c0.6772,-0.38245 1.44941,-0.57245 2.30929,-0.57245zM299.1401,228.67407v-13.46598h1.47619v5.62707c0.32155,-0.55297 0.74784,-0.95247 1.27643,-1.19849c0.52617,-0.24603 1.10836,-0.37026 1.73441,-0.37026c0.66502,0 1.26912,0.1291 1.81234,0.38731c0.54322,0.24603 0.97196,0.62848 1.29351,1.1449c0.33129,0.51642 0.49694,1.17413 0.49694,1.97313v5.90232h-1.47619v-5.38591c0,-1.02066 -0.22167,-1.7271 -0.66502,-2.12172c-0.43361,-0.40681 -0.9695,-0.60898 -1.60774,-0.60898c-0.44335,0 -0.88668,0.10474 -1.33003,0.31425c-0.44335,0.2095 -0.81361,0.55295 -1.10836,1.03284c-0.285,0.46771 -0.42629,1.09376 -0.42629,1.88056v4.88898z" stroke="none" stroke-width="1"/><path d="M177.61955,227.6097c0,0.9299 -2.39043,3.57791 -3.26221,3.57791c-0.87178,0 0.73664,-2.01662 0.73664,-2.94652c0,-0.9299 0.07531,-2.31512 0.94709,-2.31512c0.87178,0 1.5785,0.75382 1.5785,1.68371z" stroke="#4fa1ff" stroke-width="0"/><path d="M471.83333,227.26895c0,-0.76658 0.62145,-1.38804 1.38804,-1.38804c0.76658,0 1.38802,0.62145 1.38802,1.38804c0,0.76658 -0.62145,1.38802 -1.38802,1.38802c-0.76659,0 -1.38804,-0.62145 -1.38804,-1.38802z" stroke="#4fa1ff" stroke-width="0"/></g><g fill="#63b5cf" stroke="none" stroke-width="1"><path d="M258.28697,54.6259c2.31572,7.42621 -1.8314,15.3216 -9.27046,17.63469c-7.43906,2.31307 -15.34732,-1.83213 -17.65926,-9.25872c-2.3195,-7.42621 1.8314,-15.3216 9.27046,-17.63469c7.43528,-2.31307 15.34354,1.83289 17.65926,9.25872z" fill-rule="nonzero"/><path d="M224.65605,79.83321l37.37694,-0.00606l0.01136,55.47023l-37.37694,0.00604z" fill-rule="nonzero"/><path d="M255.6799,81.23853c2.74329,-2.16322 6.72012,-1.69895 8.88071,1.03641c1.91841,2.4179 6.9396,7.48031 10.68941,11.16654c1.64977,-1.26759 3.54547,-2.78115 5.2974,-4.31549c2.17193,-1.90895 3.73843,-3.51634 4.46874,-4.55613c1.99788,-2.85832 5.94065,-3.55571 8.80505,-1.55743c2.86438,1.99788 3.5644,5.93499 1.55895,8.79331c-1.65356,2.36302 -4.20008,4.80437 -6.48931,6.81058c-2.39518,2.09777 -4.93794,4.09034 -6.89797,5.5721c-4.56333,3.45126 -10.8521,2.91509 -14.82893,-0.9785c-3.57576,-3.49705 -9.86075,-9.7438 -12.517,-13.10085c-2.17193,-2.7361 -1.70652,-6.7069 1.033,-8.87051z" fill-rule="evenodd"/><path d="M231.95512,86.77508c-0.1627,3.48418 -3.1179,6.17903 -6.60662,6.01974c-3.66656,-0.16801 -12.88404,0.51915 -17.89008,0.93612l-12.517,17.45569c-2.03193,2.83563 -5.97849,3.4887 -8.82017,1.45866c-2.84168,-2.03042 -3.49629,-5.97508 -1.46434,-8.81071l12.81214,-17.86246c1.94868,-2.72476 5.00226,-4.49484 8.40017,-4.78128c4.48767,-0.37951 15.23381,-1.23278 20.05444,-1.01294c3.48872,0.16006 6.1904,3.11335 6.03147,6.59717z" fill-rule="evenodd"/><path d="M232.87081,123.62457c3.46224,0.49038 5.86497,3.68774 5.37308,7.14051l-3.17843,22.31719c-0.43136,3.05358 -2.07356,5.80709 -4.54442,7.65058l-25.56375,19.03772c-2.80006,2.08416 -6.76555,1.50824 -8.85046,-1.28726c-2.08868,-2.79589 -1.51356,-6.75267 1.28652,-8.83681l25.21186,-18.77589l3.1179,-21.88396c0.49191,-3.45277 3.69304,-5.85325 7.14771,-5.3621z" fill-rule="evenodd"/><path d="M246.06512,127.32707c1.13516,-3.29801 4.73361,-5.0541 8.03692,-3.92121c7.75314,2.65854 19.48687,5.93726 24.41723,7.251c1.78977,0.47563 3.5644,1.64939 4.61631,3.63856c0.92325,1.74815 0.92704,3.45429 0.82488,4.4941c-0.20055,1.9869 -1.0557,3.85916 -1.71409,5.14036c-1.453,2.8095 -3.78386,6.10753 -6.01635,9.04569c-2.28924,3.01611 -4.72226,5.96261 -6.57256,8.13681c-0.92325,1.09164 -1.71031,1.99901 -2.26654,2.63547c-0.27621,0.31898 -0.49946,0.5706 -0.65461,0.7439c-0.07189,0.08666 -0.13243,0.15439 -0.17784,0.20093l-0.04541,0.05412l-0.01514,0.0208c0,0.00038 0,0.00114 -4.72604,-4.20121l4.72604,4.20121c-2.32707,2.60291 -6.32662,2.8326 -8.92991,0.51158c-2.60708,-2.32102 -2.83788,-6.31261 -0.5108,-8.91552l0.00379,-0.0106l0.04163,-0.042c0.03405,-0.03898 0.08702,-0.09801 0.15514,-0.17595c0.13621,-0.15628 0.34434,-0.38973 0.60164,-0.68828c0.52218,-0.59824 1.26759,-1.45791 2.14545,-2.49507c1.76707,-2.0834 4.04874,-4.84221 6.15256,-7.61238c1.13138,-1.48554 2.14545,-2.8954 2.99681,-4.15656c-5.78553,-1.62441 -13.42891,-3.8656 -19.16146,-5.83245c-3.30331,-1.13251 -5.06281,-4.72529 -3.92765,-8.02329z" fill-rule="evenodd"/></g></g></g></svg>