<svg version="1.1" xmlns="http://www.w3.org/2000/svg" xmlns:xlink="http://www.w3.org/1999/xlink" width="53.75" height="15.25" viewBox="0,0,53.75,15.25"><g transform="translate(-213.0271,-172.55836)"><g data-paper-data="{&quot;isPaintingLayer&quot;:true}" fill-rule="nonzero" stroke-linecap="butt" stroke-linejoin="miter" stroke-miterlimit="10" stroke-dasharray="" stroke-dashoffset="0" style="mix-blend-mode: normal"><path d="M213.0271,187.80836v-15.25h53.75v15.25z" fill="#2ded2f" stroke="#898989" stroke-width="0"/><path d="M216.38721,174.39747h7.28076v1.30127h-2.98975v7.80127h-1.30127v-7.80127h-2.98974zM225.55957,177.99024v5.50977h-1.24414v-6.76025h1.24414v1.19336c0.00846,-0.16504 0.04655,-0.3195 0.11426,-0.46338c0.06771,-0.14812 0.15657,-0.27507 0.2666,-0.38086c0.11427,-0.11003 0.24547,-0.19466 0.39357,-0.25391c0.1481,-0.06348 0.3068,-0.09521 0.4761,-0.09521h1.3266c0.1735,0 0.3343,0.03385 0.4824,0.10156c0.1524,0.06348 0.2857,0.15234 0.3999,0.2666c0.1143,0.11003 0.2032,0.24121 0.2666,0.39355c0.0678,0.15235 0.1016,0.31527 0.1016,0.48877v1.14258h-1.2505v-1.14258zM232.2563,176.73975v6.76025h-1.2504v-6.76025zM230.9424,174.13722h1.3774v1.30127h-1.3774zM235.6523,177.99024v4.25928h3.2247v-1.14258h1.2504v1.14258c0,0.1735 -0.0338,0.33643 -0.1015,0.48877c-0.0635,0.15234 -0.1524,0.28565 -0.2666,0.3999c-0.11,0.11003 -0.2412,0.1989 -0.3936,0.26661c-0.1523,0.06347 -0.3152,0.09521 -0.4887,0.09521h-3.2247c-0.1692,0 -0.33,-0.03174 -0.4824,-0.09521c-0.1523,-0.06771 -0.2856,-0.15658 -0.3999,-0.26661c-0.11,-0.11425 -0.1989,-0.24756 -0.2666,-0.3999c-0.0635,-0.15234 -0.0952,-0.31527 -0.0952,-0.48877v-4.25928c0,-0.1735 0.0317,-0.33642 0.0952,-0.48877c0.0677,-0.15234 0.1566,-0.28352 0.2666,-0.39355c0.1143,-0.11426 0.2476,-0.20312 0.3999,-0.2666c0.1524,-0.06771 0.3132,-0.10156 0.4824,-0.10156h3.2247c0.1735,0 0.3364,0.03385 0.4887,0.10156c0.1524,0.06348 0.2836,0.15234 0.3936,0.2666c0.1142,0.11003 0.2031,0.24121 0.2666,0.39355c0.0677,0.15235 0.1015,0.31527 0.1015,0.48877v1.14258h-1.2504v-1.14258zM247.9351,180.75782h-4.4751v1.4917h4.4751v1.25049h-4.4751c-0.1693,0 -0.3301,-0.03174 -0.4825,-0.09521c-0.1523,-0.06771 -0.2856,-0.15658 -0.3999,-0.26661c-0.11,-0.11425 -0.1989,-0.24756 -0.2666,-0.3999c-0.0634,-0.15234 -0.0952,-0.31527 -0.0952,-0.48877v-4.25928c0,-0.1735 0.0318,-0.33642 0.0952,-0.48877c0.0677,-0.15234 0.1566,-0.28352 0.2666,-0.39355c0.1143,-0.11426 0.2476,-0.20312 0.3999,-0.2666c0.1524,-0.06771 0.3132,-0.10156 0.4825,-0.10156h3.2246c0.1735,0 0.3364,0.03385 0.4887,0.10156c0.1524,0.06348 0.2836,0.15234 0.3936,0.2666c0.1143,0.11003 0.2031,0.24121 0.2666,0.39355c0.0677,0.15235 0.1016,0.31527 0.1016,0.48877zM243.46,177.99024v1.51709h3.2246v-1.51709zM256.0029,182.24951c0,0.1735 -0.0338,0.33643 -0.1015,0.48877c-0.0635,0.15234 -0.1524,0.28565 -0.2666,0.3999c-0.1101,0.11003 -0.2412,0.1989 -0.3936,0.26661c-0.1523,0.06347 -0.3153,0.09521 -0.4888,0.09521h-3.4848v2.7295h-1.2442v-9.48975h1.2442v1.14257c0.0127,-0.1608 0.055,-0.30892 0.1269,-0.44433c0.072,-0.13965 0.163,-0.26026 0.273,-0.36182c0.11,-0.10579 0.237,-0.18831 0.3808,-0.24756c0.1482,-0.05924 0.3047,-0.08886 0.4698,-0.08886h2.2343c0.1735,0 0.3365,0.03385 0.4888,0.10156c0.1524,0.06348 0.2835,0.15234 0.3936,0.2666c0.1142,0.11003 0.2031,0.24121 0.2666,0.39355c0.0677,0.15235 0.1015,0.31527 0.1015,0.48877zM254.7524,182.24951v-4.25928h-3.4848v4.25928zM262.1665,182.24951v-1.56787h-2.9644c-0.1735,0 -0.3364,-0.03174 -0.4887,-0.09521c-0.1524,-0.06771 -0.2857,-0.15658 -0.3999,-0.26661c-0.11,-0.11425 -0.1989,-0.24755 -0.2666,-0.3999c-0.0635,-0.15234 -0.0952,-0.31527 -0.0952,-0.48877v-1.44092c0,-0.1735 0.0317,-0.33642 0.0952,-0.48877c0.0677,-0.15234 0.1566,-0.28352 0.2666,-0.39355c0.1142,-0.11426 0.2475,-0.20312 0.3999,-0.2666c0.1523,-0.06771 0.3152,-0.10156 0.4887,-0.10156h3.9546v1.25048h-3.9546v1.44092h2.9644c0.1735,0 0.3343,0.03386 0.4824,0.10156c0.1524,0.06348 0.2857,0.15235 0.3999,0.26661c0.1143,0.11002 0.2032,0.24121 0.2666,0.39355c0.0677,0.15234 0.1016,0.31527 0.1016,0.48877v1.56787c0,0.1735 -0.0339,0.33643 -0.1016,0.48877c-0.0634,0.15234 -0.1523,0.28565 -0.2666,0.3999c-0.1142,0.11003 -0.2475,0.1989 -0.3999,0.26661c-0.1481,0.06347 -0.3089,0.09521 -0.4824,0.09521h-4.2148v-1.25049z" fill="#ffffff" stroke="none" stroke-width="1"/></g></g></svg>