<svg version="1.1" xmlns="http://www.w3.org/2000/svg" xmlns:xlink="http://www.w3.org/1999/xlink" width="44.6683" height="20.01867" viewBox="0,0,44.6683,20.01867"><g transform="translate(-217.66585,-169.99067)"><g data-paper-data="{&quot;isPaintingLayer&quot;:true}" fill="#000000" fill-rule="nonzero" stroke-width="0" stroke-linecap="butt" stroke-linejoin="miter" stroke-miterlimit="10" stroke-dasharray="" stroke-dashoffset="0" style="mix-blend-mode: normal"><path d="M227.2341,183.77499v-7.58553h25.57568v7.58553z" stroke="#ffc85e"/><path d="M217.66585,188.22095c0,-4.14798 0,-14.53131 0,-16.69868c0,-0.77615 0.42478,-1.49604 1.07988,-1.49604c1.88477,0 5.67603,0 6.74269,0c0.54693,0 1.13256,0.52364 1.13256,1.12729c0,2.01335 0,13.27699 0,17.3308c0,0.90767 -0.65244,1.50657 -1.34327,1.50657c-1.02114,0 -4.03718,0.02949 -5.95203,0.01388c-0.97169,-0.00791 -1.65982,-0.72021 -1.65982,-1.78384z" stroke="none"/><path d="M253.37902,188.18539c0,-4.14798 0,-14.53131 0,-16.69868c0,-0.77615 0.42478,-1.49604 1.07988,-1.49604c1.88477,0 5.67603,0 6.74269,0c0.54693,0 1.13256,0.52364 1.13256,1.12729c0,2.01335 0,13.27699 0,17.3308c0,0.90767 -0.65244,1.50657 -1.34327,1.50657c-1.02114,0 -4.03718,0.0295 -5.95203,0.0139c-0.97169,-0.00791 -1.65982,-0.72021 -1.65982,-1.78384z" stroke="none"/></g></g></svg>