<svg version="1.1" xmlns="http://www.w3.org/2000/svg" xmlns:xlink="http://www.w3.org/1999/xlink" width="68.76412" height="71.01145" viewBox="0,0,68.76412,71.01145"><g transform="translate(-196.22722,-140.96982)"><g data-paper-data="{&quot;isPaintingLayer&quot;:true}" fill="#a8d54a" stroke="none" stroke-width="1" stroke-linecap="butt" stroke-linejoin="miter" stroke-miterlimit="10" stroke-dasharray="" stroke-dashoffset="0" style="mix-blend-mode: normal"><path d="M242.31435,146.74642v8.45496h-2.57077v-8.45496z" fill-rule="evenodd"/><path d="M231.89465,146.74642v8.45496h-2.56849v-8.45496z" fill-rule="evenodd"/><path d="M221.47729,146.74642v8.45496h-2.57077v-8.45496z" fill-rule="evenodd"/><path d="M218.90652,205.93065v-8.45473h2.57077v8.45473z" fill-rule="evenodd"/><path d="M239.74358,205.93065v-8.45473h2.57077v8.45473z" fill-rule="evenodd"/><path d="M229.32621,205.93065v-8.45473h2.56849v8.45473z" fill-rule="evenodd"/><path d="M259.78148,167.07319l-8.33393,0.00023v-2.60658h8.33393z" fill-rule="evenodd"/><path d="M259.78148,177.64184h-8.33393v-2.60636h8.33393z" fill-rule="evenodd"/><path d="M259.78148,188.21047h-8.33393v-2.60636h8.33393z" fill-rule="evenodd"/><path d="M201.43712,185.60412h8.33621v2.60636h-8.33621z" fill-rule="evenodd"/><path d="M201.43712,164.46683h8.33621v2.60658l-8.33621,-0.00023z" fill-rule="evenodd"/><path d="M201.43712,175.03547h8.33621v2.60636h-8.33621z" fill-rule="evenodd"/><path d="M230.61269,141.40416c1.72599,0 3.12408,1.41937 3.12408,3.1704c0,1.75103 -1.3981,3.17063 -3.12408,3.17063c-1.72599,0 -3.12637,-1.41959 -3.12637,-3.17063c0,-1.75103 1.40037,-3.1704 3.12637,-3.1704z" fill-rule="nonzero"/><path d="M241.03013,146.15998c-0.41442,0 -0.8129,-0.16699 -1.10664,-0.46449c-0.29146,-0.29727 -0.45768,-0.70032 -0.45768,-1.12094c0,-0.42038 0.16622,-0.82367 0.45768,-1.12094c0.29373,-0.29727 0.69222,-0.46426 1.10664,-0.46426c0.41442,0 0.81062,0.16699 1.10436,0.46426c0.29373,0.29727 0.45768,0.70055 0.45768,1.12094c0,0.42061 -0.16395,0.82367 -0.45768,1.12094c-0.29373,0.2975 -0.68994,0.46449 -1.10436,0.46449zM241.03013,147.74519c-0.82884,0 -1.6258,-0.334 -2.211,-0.92853c-0.58519,-0.59476 -0.91537,-1.4011 -0.91537,-2.2421c0,-0.84077 0.33017,-1.64734 0.91537,-2.24187c0.58519,-0.59453 1.38216,-0.92853 2.211,-0.92853c0.82884,0 1.62352,0.334 2.20872,0.92853c0.58748,0.59453 0.91537,1.4011 0.91537,2.24187c0,0.841 -0.32789,1.64734 -0.91537,2.2421c-0.58519,0.59453 -1.37988,0.92853 -2.20872,0.92853z" fill-rule="evenodd"/><path d="M221.29625,207.41617c0.29373,0.29727 0.45768,0.70055 0.45768,1.12094c0,0.42038 -0.16395,0.82367 -0.45768,1.12094c-0.29146,0.29727 -0.68994,0.46426 -1.10436,0.46426c-0.41442,0 -0.8129,-0.16699 -1.10436,-0.46426c-0.29373,-0.29727 -0.45768,-0.70055 -0.45768,-1.12094c0,-0.42038 0.16395,-0.82367 0.45768,-1.12094c0.29146,-0.29727 0.68994,-0.46426 1.10436,-0.46426c0.41442,0 0.8129,0.16699 1.10436,0.46426zM222.4029,206.29523c0.58519,0.59453 0.91537,1.40088 0.91537,2.24187c0,0.84077 -0.33017,1.64734 -0.91537,2.24187c-0.58748,0.59453 -1.38216,0.92875 -2.211,0.92875c-0.82884,0 -1.62352,-0.33422 -2.211,-0.92875c-0.58519,-0.59453 -0.91537,-1.4011 -0.91537,-2.24187c0,-0.841 0.33017,-1.64734 0.91537,-2.24187c0.58748,-0.59476 1.38216,-0.92875 2.211,-0.92875c0.82884,0 1.62352,0.334 2.211,0.92875z" fill-rule="evenodd"/><path d="M242.1345,206.92364c0.29146,0.29727 0.45768,0.70055 0.45768,1.12094c0,0.42038 -0.16622,0.82367 -0.45768,1.12094c-0.29373,0.29727 -0.69222,0.46426 -1.10664,0.46426c-0.41442,0 -0.81062,-0.16699 -1.10436,-0.46426c-0.29373,-0.29727 -0.45768,-0.70055 -0.45768,-1.12094c0,-0.42038 0.16395,-0.82367 0.45768,-1.12094c0.29373,-0.29727 0.68994,-0.46449 1.10436,-0.46449c0.41442,0 0.8129,0.16723 1.10664,0.46449zM243.23878,205.8027c0.58519,0.59453 0.91537,1.40088 0.91537,2.24187c0,0.84077 -0.33017,1.64734 -0.91537,2.24187c-0.58519,0.59453 -1.38216,0.92875 -2.211,0.92875c-0.82884,0 -1.62352,-0.33422 -2.20872,-0.92875c-0.58748,-0.59453 -0.91537,-1.4011 -0.91537,-2.24187c0,-0.841 0.32789,-1.64734 0.91537,-2.24187c0.58519,-0.59476 1.37988,-0.92875 2.20872,-0.92875c0.82884,0 1.6258,0.334 2.211,0.92875z" fill-rule="evenodd"/><path d="M227.48633,208.81064c0,-1.75103 1.3981,-3.17063 3.12408,-3.17063c1.72827,0 3.12637,1.41959 3.12637,3.17063c0,1.75103 -1.3981,3.17063 -3.12637,3.17063c-1.72599,0 -3.12408,-1.41959 -3.12408,-3.17063z" fill-rule="nonzero"/><path d="M260.76063,185.86556c0.29373,-0.29727 0.68994,-0.46426 1.10436,-0.46426c0.41442,0 0.8129,0.16699 1.10664,0.46426c0.29146,0.29727 0.45768,0.70055 0.45768,1.12094c0,0.42061 -0.16622,0.82367 -0.45768,1.12117c-0.29373,0.29727 -0.69222,0.46426 -1.10664,0.46426c-0.41442,0 -0.81062,-0.16699 -1.10436,-0.46426c-0.29373,-0.2975 -0.45768,-0.70055 -0.45768,-1.12117c0,-0.42038 0.16395,-0.82367 0.45768,-1.12094zM259.65626,184.74462c0.58519,-0.59453 1.37988,-0.92853 2.20872,-0.92853c0.82884,0 1.62352,0.334 2.211,0.92853c0.58519,0.59453 0.91537,1.4011 0.91537,2.24187c0,0.841 -0.33017,1.64734 -0.91537,2.2421c-0.58748,0.59453 -1.38216,0.92853 -2.211,0.92853c-0.82884,0 -1.62352,-0.334 -2.20872,-0.92853c-0.58748,-0.59476 -0.91537,-1.4011 -0.91537,-2.2421c0,-0.84077 0.32789,-1.64734 0.91537,-2.24187z" fill-rule="evenodd"/><path d="M261.86498,179.53473c-1.72599,0 -3.12408,-1.41959 -3.12408,-3.17063c0,-1.75103 1.3981,-3.17063 3.12408,-3.17063c1.72827,0 3.12637,1.41959 3.12637,3.17063c0,1.75103 -1.3981,3.17063 -3.12637,3.17063z" fill-rule="nonzero"/><path d="M200.9157,186.90729c0,0.42038 -0.16395,0.82367 -0.45768,1.12094c-0.29146,0.29727 -0.68994,0.46426 -1.10436,0.46426c-0.41442,0 -0.81062,-0.16699 -1.10436,-0.46426c-0.29373,-0.29727 -0.45768,-0.70055 -0.45768,-1.12094c0,-0.42038 0.16395,-0.82367 0.45768,-1.12094c0.29373,-0.29727 0.68994,-0.46426 1.10436,-0.46426c0.20494,0 0.40759,0.04087 0.59886,0.12057c0.18899,0.07969 0.36205,0.19632 0.5055,0.3437c0.14573,0.14714 0.26186,0.32199 0.33928,0.51415c0.07969,0.19241 0.11841,0.39866 0.11841,0.60678zM202.47998,186.90729c0,0.841 -0.33017,1.64734 -0.91537,2.24187c-0.58748,0.59476 -1.38216,0.92875 -2.211,0.92875c-0.82884,0 -1.62352,-0.334 -2.211,-0.92875c-0.58519,-0.59453 -0.91537,-1.40088 -0.91537,-2.24187c0,-0.841 0.33017,-1.64734 0.91537,-2.24187c0.58748,-0.59476 1.38216,-0.92875 2.211,-0.92875c0.82884,0 1.62352,0.334 2.211,0.92875c0.58519,0.59453 0.91537,1.40088 0.91537,2.24187z" fill-rule="evenodd"/><path d="M200.9157,166.01629c0,0.20812 -0.03871,0.41438 -0.11841,0.60678c-0.07742,0.19218 -0.19355,0.36703 -0.33928,0.51415c-0.14346,0.14737 -0.31651,0.264 -0.5055,0.3437c-0.19127,0.07969 -0.39393,0.1208 -0.59886,0.1208c-0.41442,0 -0.81062,-0.16723 -1.10436,-0.46449c-0.29373,-0.29727 -0.45768,-0.70055 -0.45768,-1.12094c0,-0.20812 0.04099,-0.41438 0.11841,-0.60656c0.07969,-0.19241 0.19355,-0.36726 0.33928,-0.51438c0.14573,-0.14714 0.31651,-0.264 0.5055,-0.3437c0.19127,-0.07969 0.39393,-0.12057 0.59886,-0.12057c0.41442,0 0.8129,0.16699 1.10436,0.46426c0.29373,0.29727 0.45768,0.70055 0.45768,1.12094zM202.47998,166.01629c0,0.841 -0.33017,1.64734 -0.91537,2.24187c-0.58748,0.59476 -1.38216,0.92875 -2.211,0.92875c-0.82884,0 -1.62352,-0.334 -2.211,-0.92875c-0.58519,-0.59453 -0.91537,-1.40088 -0.91537,-2.24187c0,-0.84077 0.33017,-1.64734 0.91537,-2.24187c0.58748,-0.59453 1.38216,-0.92875 2.211,-0.92875c0.82884,0 1.62352,0.33422 2.211,0.92875c0.58519,0.59453 0.91537,1.4011 0.91537,2.24187z" fill-rule="evenodd"/><path d="M196.22722,176.33866c0,-1.75103 1.40037,-3.1704 3.12637,-3.1704c1.72599,0 3.12637,1.41937 3.12637,3.1704c0,1.75103 -1.40037,3.17063 -3.12637,3.17063c-1.72599,0 -3.12637,-1.41959 -3.12637,-3.17063z" fill-rule="nonzero"/><path d="M216.02373,156.50478c-2.74154,0 -4.96621,2.25551 -4.96621,5.03786v29.59223c0,2.78237 2.22466,5.03786 4.96621,5.03786h29.17332c2.74382,0 4.96621,-2.25551 4.96621,-5.03786v-29.59223c0,-2.78237 -2.22238,-5.03786 -4.96621,-5.03786zM208.48904,161.54265c0,-4.22182 3.37228,-7.64445 7.53469,-7.64445h29.17332c4.16241,0 7.53697,3.42263 7.53697,7.64445v29.59223c0,4.22182 -3.37456,7.64422 -7.53697,7.64422h-29.17332c-4.16241,0 -7.53469,-3.4224 -7.53469,-7.64422z" fill-rule="evenodd"/><path d="M248.38723,178.89651c-0.11841,0.81028 -0.42353,1.58106 -0.89032,2.2518c-0.46451,0.67099 -1.07703,1.22304 -1.78747,1.61268c-0.19811,0.11087 -0.40531,0.20373 -0.61708,0.27787c0.27097,3.63653 -5.43527,4.95887 -8.50927,4.09271l1.14307,4.04651l-2.93737,0.10579l-5.14153,-7.45504c-1.73282,0.49592 -3.77987,0.73405 -5.10055,-1.41497c-0.12068,-0.19726 -0.22998,-0.40167 -0.32789,-0.61141c-0.33472,0.06929 -0.67627,0.10463 -1.02011,0.10579c-0.97912,0 -2.61175,-0.29772 -3.44059,-0.87957c-0.65806,-0.44118 -1.1795,-1.06112 -1.50512,-1.78847c-1.7647,0.2446 -3.26298,-0.17508 -4.2421,-1.21334c-1.24098,-1.29256 -1.59392,-3.42818 -0.94725,-5.71924c0.85161,-3.05791 3.44287,-6.50272 8.59352,-7.79527c0.4463,-0.56266 0.9814,-1.04725 1.58254,-1.43482c3.23566,-2.09936 8.48649,-2.28113 12.4713,-0.28757c1.5461,-0.29173 3.14003,-0.13696 4.60188,0.44625c2.86678,1.08767 4.94799,3.36213 5.33964,5.67307c0.77647,0.40722 1.41176,1.04356 1.82163,1.82472c0.85844,1.63325 0.97912,3.26972 0.40076,4.59208c0.54421,1.10383 0.72409,2.35552 0.51233,3.57045zM246.27414,177.17733c-0.45768,0.24392 -0.96546,0.37164 -1.48007,0.37164c-0.51689,0 -1.02467,-0.12774 -1.48007,-0.37164l0.23681,-1.60344c1.00645,0.09932 1.8239,-0.21805 2.25199,-0.86939c0.48045,-0.72412 0.40531,-1.7984 -0.20265,-2.95212c-0.67856,-1.29279 -2.14269,-1.49767 -2.95559,-1.5076h-0.05238c-2.03794,0 -4.11232,1.1736 -4.95254,2.7043l-1.22049,-0.59178c0.24137,-0.78856 0.64896,-1.51407 1.19544,-2.1257c-0.47135,-0.4049 -0.82656,-0.92946 -1.0315,-1.51983c-0.20265,-0.59039 -0.2482,-1.22511 -0.12979,-1.83905l1.20455,-0.11248c0.05465,0.4966 0.2573,0.96457 0.58065,1.34176c0.32334,0.37719 0.75142,0.64604 1.22959,0.77078c1.00417,-0.45411 2.09487,-0.67976 3.19467,-0.66107c0.15712,0 0.3074,0.01639 0.45996,0.02632c-0.77874,-1.40135 -2.01517,-2.48463 -3.49752,-3.06461c-3.61592,-1.42144 -6.05463,0.78348 -6.6125,1.54385c-1.34573,1.82495 -0.48273,3.55059 0.17305,4.67131l-1.07703,0.99183c-0.93813,-0.82183 -1.56887,-1.94622 -1.78292,-3.18356c-1.37988,0.4199 -3.23338,0.33053 -4.27171,-1.46463l0.97912,-0.68092c1.09981,0.83315 2.84629,0.76037 3.67513,-0.26794c0.19811,-0.45456 0.4463,-0.88394 0.74459,-1.27939c0.47135,-0.63035 1.03833,-1.17962 1.68273,-1.62655c-2.70511,-0.74698 -6.52597,-0.62479 -8.83716,0.87611c-0.62391,0.36749 -1.13851,0.89988 -1.4869,1.54039c-0.34838,0.64073 -0.51916,1.36531 -0.49184,2.09612c0,1.1803 0.91537,3.04499 2.14496,3.33578l-0.71499,1.40504c-0.78557,-0.1841 -1.49829,-0.60216 -2.04705,-1.20016l-1.0611,1.36877l-1.05882,-0.52224l1.03605,-2.75072c-0.1685,-0.53426 -0.25503,-1.09184 -0.2573,-1.65288c0.00227,-0.44441 0.05009,-0.88718 0.13662,-1.32234c-3.26298,1.36531 -4.87512,3.63653 -5.46488,5.71255c-0.45541,1.59675 -0.2778,3.03828 0.46679,3.81184c0.58975,0.61486 1.49373,0.76037 2.34534,0.70426l2.28386,-1.80186l0.75142,0.64142l-0.67856,2.25458c0.35522,1.14726 1.52105,1.73904 3.64552,1.32234c0.1093,-0.91259 0.46679,-1.77716 1.02922,-2.49917c0.41214,-0.601 0.95635,-1.09552 1.59164,-1.44478l1.11575,-3.04475l1.11575,-0.04966l-0.12068,2.49594c1.87855,-0.19494 3.9757,0.19195 5.93166,-0.10579l0.3575,1.32259c-2.86451,1.34222 -5.7996,-0.84631 -8.45917,2.03976c-0.95635,1.038 -0.58975,1.94044 0,2.84957c0.85161,1.29925 2.45236,0.519 4.08727,0c2.47741,-0.76686 4.27399,-1.32234 7.66676,-1.04124c-0.81062,-1.55726 -0.73092,-3.43834 0.35294,-5.50768l1.59392,0.63795c-1.11802,2.6149 -0.07059,4.12919 0.65351,4.79695c1.1203,1.03131 2.80302,1.34222 3.9165,0.72065c0.4258,-0.23836 0.7924,-0.57283 1.07248,-0.9775c0.2778,-0.40468 0.45996,-0.86894 0.53283,-1.35654c0.07514,-0.44926 0.06831,-0.90822 -0.01594,-1.35538z" fill-rule="evenodd"/><path d="M261.86724,167.39752c-0.41442,0 -0.8129,-0.16699 -1.10664,-0.46449c-0.29146,-0.29727 -0.45768,-0.70032 -0.45768,-1.12094c0,-0.42038 0.16622,-0.82367 0.45768,-1.12094c0.29373,-0.29727 0.69222,-0.46426 1.10664,-0.46426c0.41442,0 0.81062,0.16699 1.10436,0.46426c0.29373,0.29727 0.45768,0.70055 0.45768,1.12094c0,0.42061 -0.16395,0.82367 -0.45768,1.12094c-0.29373,0.2975 -0.68994,0.46449 -1.10436,0.46449zM261.86724,168.98273c-0.82884,0 -1.6258,-0.334 -2.211,-0.92853c-0.58519,-0.59476 -0.91537,-1.4011 -0.91537,-2.2421c0,-0.84077 0.33017,-1.64734 0.91537,-2.24187c0.58519,-0.59453 1.38216,-0.92853 2.211,-0.92853c0.82884,0 1.62352,0.334 2.20872,0.92853c0.58748,0.59453 0.91537,1.4011 0.91537,2.24187c0,0.841 -0.32789,1.64734 -0.91537,2.2421c-0.58519,0.59453 -1.37988,0.92853 -2.20872,0.92853z" fill-rule="evenodd"/><path d="M220.19303,145.72564c-0.41442,0 -0.8129,-0.16699 -1.10664,-0.46449c-0.29146,-0.29727 -0.45768,-0.70032 -0.45768,-1.12094c0,-0.42038 0.16622,-0.82367 0.45768,-1.12094c0.29373,-0.29727 0.69222,-0.46426 1.10664,-0.46426c0.41442,0 0.81062,0.16699 1.10436,0.46426c0.29373,0.29727 0.45768,0.70055 0.45768,1.12094c0,0.42061 -0.16395,0.82367 -0.45768,1.12094c-0.29373,0.2975 -0.68994,0.46449 -1.10436,0.46449zM220.19303,147.31085c-0.82884,0 -1.6258,-0.334 -2.211,-0.92853c-0.58519,-0.59476 -0.91537,-1.4011 -0.91537,-2.2421c0,-0.84077 0.33017,-1.64734 0.91537,-2.24187c0.58519,-0.59453 1.38216,-0.92853 2.211,-0.92853c0.82884,0 1.62352,0.334 2.20872,0.92853c0.58748,0.59453 0.91537,1.4011 0.91537,2.24187c0,0.841 -0.32789,1.64734 -0.91537,2.2421c-0.58519,0.59453 -1.37988,0.92853 -2.20872,0.92853z" fill-rule="evenodd"/></g></g></svg>