<svg version="1.1" xmlns="http://www.w3.org/2000/svg" xmlns:xlink="http://www.w3.org/1999/xlink" width="252.60242" height="42.39585" viewBox="0,0,252.60242,42.39585"><g transform="translate(-121.73997,-171.54785)"><g data-paper-data="{&quot;isPaintingLayer&quot;:true}" fill-rule="nonzero" stroke-linecap="butt" stroke-linejoin="miter" stroke-miterlimit="10" stroke-dasharray="" stroke-dashoffset="0" style="mix-blend-mode: normal"><path d="M180.57927,185.99291c0,0.08754 -0.01583,0.17092 -0.04749,0.25006c-0.03166,0.07714 -0.07519,0.14484 -0.13058,0.20317c-0.0554,0.05833 -0.1207,0.10419 -0.19589,0.13755c-0.0732,0.03337 -0.15136,0.05001 -0.23446,0.05001h-2.43071c-0.0831,0 -0.16224,-0.01664 -0.23743,-0.05001c-0.0732,-0.03337 -0.13751,-0.07922 -0.19291,-0.13755c-0.0554,-0.05833 -0.09893,-0.12603 -0.13059,-0.20317c-0.03166,-0.07914 -0.04749,-0.16252 -0.04749,-0.25006v-3.20078c0,-0.08754 0.01583,-0.1698 0.04749,-0.24694c0.03166,-0.07914 0.07519,-0.14692 0.13059,-0.20317c0.0554,-0.05833 0.11971,-0.10419 0.19291,-0.13755c0.07519,-0.03537 0.15433,-0.05313 0.23743,-0.05313h2.43071c0.0831,0 0.16126,0.01776 0.23446,0.05313c0.07519,0.03337 0.14048,0.07922 0.19589,0.13755c0.0554,0.05625 0.09892,0.12403 0.13058,0.20317c0.03166,0.07714 0.04749,0.1594 0.04749,0.24694zM177.54014,182.79212v3.20078h2.43071v-3.20078zM184.41082,186.6337h-0.58468v-2.71314h-1.62938v2.71314h-0.58171v-3.32897h0.58171v0.58766c0.00396,-0.08122 0.02176,-0.15732 0.05342,-0.22814c0.03166,-0.07298 0.0732,-0.13547 0.12465,-0.18757c0.05342,-0.05417 0.11476,-0.09586 0.18401,-0.12507c0.06925,-0.03121 0.14345,-0.04689 0.22259,-0.04689h1.0447c0.08112,0 0.1573,0.01672 0.22857,0.05001c0.07119,0.03129 0.13251,0.07506 0.18394,0.13131c0.05341,0.05417 0.09497,0.11875 0.12468,0.19381c0.03168,0.07498 0.04749,0.15524 0.04749,0.2407zM188.05839,185.28337h-2.09236v0.73458h2.09236v0.61575h-2.09236c-0.07917,0 -0.15439,-0.0156 -0.22558,-0.04689c-0.07119,-0.03337 -0.13357,-0.07706 -0.18698,-0.13131c-0.05144,-0.05625 -0.093,-0.12187 -0.12468,-0.19693c-0.02963,-0.07498 -0.04445,-0.15524 -0.04445,-0.24062v-2.09739c0,-0.08546 0.01482,-0.16572 0.04445,-0.2407c0.03168,-0.07506 0.07324,-0.13963 0.12468,-0.19381c0.05341,-0.05625 0.11579,-0.10002 0.18698,-0.13131c0.07119,-0.03329 0.14641,-0.05001 0.22558,-0.05001h1.50771c0.08107,0 0.15727,0.01672 0.22847,0.05001c0.07127,0.03129 0.13258,0.07506 0.18402,0.13131c0.05341,0.05417 0.09497,0.11875 0.12468,0.19381c0.03161,0.07498 0.04749,0.15524 0.04749,0.2407zM185.96602,183.92056v0.74706h1.50771v-0.74706zM193.11268,186.6337l-1.58779,-3.2852v3.2852h-0.60843v-4.48237h0.66481l1.62046,3.37586l1.62343,-3.37586h0.66185v4.48237h-0.60539v-3.2852l-1.58787,3.2852zM197.14014,183.30473v3.32897h-0.58465v-3.32897zM196.52578,182.02322h0.64407v0.6408h-0.64407zM200.94201,186.6337h-0.58465v-2.71314h-1.62943v2.71314h-0.58169v-3.32897h0.58169v0.58766c0.00403,-0.08122 0.02181,-0.15732 0.05349,-0.22814c0.03161,-0.07298 0.07317,-0.13547 0.1246,-0.18757c0.05341,-0.05417 0.1148,-0.09586 0.18402,-0.12507c0.06929,-0.03121 0.14345,-0.04689 0.22262,-0.04689h1.0447c0.08114,0 0.15727,0.01672 0.22854,0.05001c0.07119,0.03129 0.13251,0.07506 0.18402,0.13131c0.05341,0.05417 0.09497,0.11875 0.1246,0.19381c0.03168,0.07498 0.04749,0.15524 0.04749,0.2407zM201.91552,183.30473h0.58169v2.71322h1.62935v-2.71322h0.58465v3.32897h-0.58465v-0.56262c-0.00593,0.07706 -0.02568,0.15004 -0.05934,0.21877c-0.03366,0.06874 -0.07719,0.12923 -0.13061,0.18132c-0.05144,0.05001 -0.11078,0.08962 -0.17809,0.11875c-0.06724,0.02921 -0.13843,0.04377 -0.21365,0.04377h-1.04766c-0.07917,0 -0.15431,-0.0156 -0.22558,-0.04689c-0.07119,-0.03337 -0.13357,-0.07706 -0.18698,-0.13131c-0.05144,-0.05625 -0.093,-0.12187 -0.1246,-0.19693c-0.02971,-0.07498 -0.04452,-0.15524 -0.04452,-0.24062zM205.5007,183.30473h0.77163v-1.02521h0.58473v1.02521h1.03877v0.61583h-1.03877v2.09739h1.03877v0.61575h-1.03877c-0.07917,0 -0.15439,-0.0156 -0.22558,-0.04689c-0.07127,-0.03337 -0.13357,-0.07706 -0.18698,-0.13131c-0.05341,-0.05625 -0.09596,-0.12187 -0.12764,-0.19693c-0.02963,-0.07498 -0.04452,-0.15524 -0.04452,-0.24062v-2.09739h-0.77163zM211.54629,185.28337h-2.09236v0.73458h2.09236v0.61575h-2.09236c-0.07909,0 -0.15431,-0.0156 -0.2255,-0.04689c-0.07127,-0.03337 -0.13357,-0.07706 -0.18698,-0.13131c-0.05144,-0.05625 -0.093,-0.12187 -0.12468,-0.19693c-0.02971,-0.07498 -0.04452,-0.15524 -0.04452,-0.24062v-2.09739c0,-0.08546 0.01482,-0.16572 0.04452,-0.2407c0.03168,-0.07506 0.07324,-0.13963 0.12468,-0.19381c0.05341,-0.05625 0.11571,-0.10002 0.18698,-0.13131c0.07119,-0.03329 0.14641,-0.05001 0.2255,-0.05001h1.50771c0.08114,0 0.15727,0.01672 0.22854,0.05001c0.07119,0.03129 0.13258,0.07506 0.18402,0.13131c0.05341,0.05417 0.09497,0.11875 0.1246,0.19381c0.03168,0.07498 0.04749,0.15524 0.04749,0.2407zM209.45392,183.92056v0.74706h1.50771v-0.74706zM217.17642,184.29561c0.08905,0.02921 0.17019,0.0709 0.24336,0.12507c0.07324,0.05417 0.13555,0.12395 0.18698,0.20941c0.05144,0.08338 0.09102,0.18236 0.11875,0.29695c0.02766,0.11459 0.04148,0.2459 0.04148,0.39386v0.22501c0,0.72522 -0.34426,1.08779 -1.03277,1.08779h-2.3298v-4.48237h2.20808c0.68859,0 1.03285,0.36369 1.03285,1.09091v0.0813c0,0.25214 -0.0386,0.45843 -0.11579,0.61887c-0.07514,0.15836 -0.19291,0.27615 -0.35315,0.35321zM215.00094,184.68011v1.32528h1.71544c0.16031,0 0.27603,-0.03953 0.3473,-0.11875c0.07119,-0.07922 0.10683,-0.20317 0.10683,-0.37193v-0.34696c0,-0.17092 -0.03563,-0.29487 -0.10683,-0.37201c-0.07127,-0.07706 -0.18698,-0.11563 -0.3473,-0.11563zM215.00094,182.77964v1.27527h1.63535c0.14641,-0.00624 0.25126,-0.04793 0.31455,-0.12499c0.06534,-0.07922 0.09794,-0.20005 0.09794,-0.36257v-0.29383c0,-0.17092 -0.03556,-0.29591 -0.10683,-0.37513c-0.07119,-0.07914 -0.18698,-0.11875 -0.34722,-0.11875zM219.20056,183.92056v2.71314h-0.58177v-3.32897h0.58177v0.58766c0.00395,-0.08122 0.02173,-0.15732 0.05341,-0.22814c0.03161,-0.07298 0.07317,-0.13547 0.1246,-0.18757c0.05341,-0.05417 0.1148,-0.09586 0.18402,-0.12507c0.06929,-0.03121 0.14345,-0.04689 0.22262,-0.04689h0.62029c0.08114,0 0.15629,0.01672 0.22558,0.05001c0.07119,0.03129 0.13357,0.07506 0.18698,0.13131c0.05341,0.05417 0.09497,0.11875 0.1246,0.19381c0.03168,0.07498 0.04749,0.15524 0.04749,0.2407v0.56262h-0.58465v-0.56262zM224.39139,185.28337h-2.09236v0.73458h2.09236v0.61575h-2.09236c-0.07917,0 -0.15431,-0.0156 -0.22558,-0.04689c-0.07119,-0.03337 -0.13357,-0.07706 -0.18698,-0.13131c-0.05144,-0.05625 -0.093,-0.12187 -0.1246,-0.19693c-0.02971,-0.07498 -0.04452,-0.15524 -0.04452,-0.24062v-2.09739c0,-0.08546 0.01482,-0.16572 0.04452,-0.2407c0.03161,-0.07506 0.07317,-0.13963 0.1246,-0.19381c0.05341,-0.05625 0.11579,-0.10002 0.18698,-0.13131c0.07127,-0.03329 0.14641,-0.05001 0.22558,-0.05001h1.50771c0.08107,0 0.15727,0.01672 0.22847,0.05001c0.07127,0.03129 0.13258,0.07506 0.18402,0.13131c0.05341,0.05417 0.09497,0.11875 0.12468,0.19381c0.03168,0.07498 0.04749,0.15524 0.04749,0.2407zM222.29903,183.92056v0.74706h1.50771v-0.74706zM225.36786,185.18023c0,-0.08546 0.01482,-0.1646 0.04445,-0.23758c0.03168,-0.07498 0.07324,-0.14067 0.12468,-0.19693c0.05341,-0.05625 0.11579,-0.10002 0.18698,-0.13123c0.07119,-0.03337 0.14641,-0.05001 0.22558,-0.05001h1.50771v-0.64392h-1.90842v-0.61583h1.90842c0.08107,0 0.15727,0.01672 0.22847,0.05001c0.07127,0.03129 0.13258,0.07506 0.18402,0.13131c0.05341,0.05417 0.09497,0.11875 0.12468,0.19381c0.03161,0.07498 0.04749,0.15524 0.04749,0.2407v2.71314h-0.58465v-0.56262c-0.006,0.07706 -0.02576,0.15004 -0.05941,0.21877c-0.03358,0.06874 -0.07712,0.12923 -0.13053,0.18132c-0.05151,0.05001 -0.11085,0.08962 -0.17809,0.11875c-0.06732,0.02921 -0.13851,0.04377 -0.21373,0.04377h-0.92595c-0.07917,0 -0.15439,-0.0156 -0.22558,-0.04689c-0.07119,-0.03337 -0.13357,-0.07706 -0.18698,-0.13131c-0.05144,-0.05625 -0.093,-0.12187 -0.12468,-0.19693c-0.02963,-0.07498 -0.04445,-0.15524 -0.04445,-0.24062zM225.94955,186.01795h1.50771v-0.83772h-1.50771zM231.10771,186.6337l-1.50764,-1.42219v1.42219h-0.58177v-4.61049h0.58177v2.59439l1.38599,-1.31288h0.82208l-1.69766,1.60671l1.81937,1.72226zM234.26263,186.01795v-0.77211h-1.38599c-0.08114,0 -0.15735,-0.0156 -0.22854,-0.04689c-0.07127,-0.03329 -0.13357,-0.07706 -0.18698,-0.13123c-0.05144,-0.05625 -0.093,-0.12195 -0.12468,-0.19693c-0.02963,-0.07506 -0.04452,-0.15524 -0.04452,-0.2407v-0.70953c0,-0.08546 0.01489,-0.16572 0.04452,-0.2407c0.03168,-0.07506 0.07324,-0.13963 0.12468,-0.19381c0.05341,-0.05625 0.11571,-0.10002 0.18698,-0.13131c0.07119,-0.03329 0.1474,-0.05001 0.22854,-0.05001h1.84901v0.61583h-1.84901v0.70953h1.38599c0.08114,0 0.15629,0.01664 0.22558,0.05001c0.07119,0.03129 0.13349,0.07498 0.18698,0.13131c0.05341,0.05417 0.09497,0.11875 0.1246,0.19373c0.03168,0.07506 0.04749,0.15532 0.04749,0.2407v0.77211c0,0.08538 -0.0158,0.16564 -0.04749,0.24062c-0.02963,0.07506 -0.07119,0.14067 -0.1246,0.19693c-0.05349,0.05425 -0.11579,0.09794 -0.18698,0.13131c-0.06929,0.03129 -0.14443,0.04689 -0.22558,0.04689h-1.97072v-0.61575zM238.23963,186.6337l-1.021,-3.32897h0.59065l0.74785,2.51005l0.69748,-2.51005h0.5965l0.69748,2.51005l0.74793,-2.51005h0.59058l-1.02092,3.32897h-0.60843l-0.70637,-2.44436l-0.70341,2.44436zM243.11287,183.30473v3.32897h-0.58465v-3.32897zM242.49851,182.02322h0.64407v0.6408h-0.64407zM244.70074,182.02322v4.61049h-0.58177v-4.61049zM246.25586,182.02322v4.61049h-0.58169v-4.61049zM250.95998,186.01795v-0.77211h-1.38599c-0.08107,0 -0.15727,-0.0156 -0.22854,-0.04689c-0.07119,-0.03329 -0.13349,-0.07706 -0.18698,-0.13123c-0.05144,-0.05625 -0.09292,-0.12195 -0.1246,-0.19693c-0.02971,-0.07506 -0.04452,-0.15524 -0.04452,-0.2407v-0.70953c0,-0.08546 0.01482,-0.16572 0.04452,-0.2407c0.03168,-0.07506 0.07317,-0.13963 0.1246,-0.19381c0.05349,-0.05625 0.11579,-0.10002 0.18698,-0.13131c0.07127,-0.03329 0.14747,-0.05001 0.22854,-0.05001h1.84901v0.61583h-1.84901v0.70953h1.38599c0.08114,0 0.15636,0.01664 0.22558,0.05001c0.07127,0.03129 0.13357,0.07498 0.18698,0.13131c0.05341,0.05417 0.09497,0.11875 0.12468,0.19373c0.03161,0.07506 0.04749,0.15532 0.04749,0.2407v0.77211c0,0.08538 -0.01588,0.16564 -0.04749,0.24062c-0.02971,0.07506 -0.07127,0.14067 -0.12468,0.19693c-0.05341,0.05425 -0.11571,0.09794 -0.18698,0.13131c-0.06922,0.03129 -0.14443,0.04689 -0.22558,0.04689h-1.97065v-0.61575zM252.27478,183.30473h0.77133v-1.02521h0.58503v1.02521h1.03862v0.61583h-1.03862v2.09739h1.03862v0.61575h-1.03862c-0.07902,0 -0.15424,-0.0156 -0.22566,-0.04689c-0.07142,-0.03337 -0.13372,-0.07706 -0.18691,-0.13131c-0.05318,-0.05625 -0.09573,-0.12187 -0.12764,-0.19693c-0.02963,-0.07498 -0.04483,-0.15524 -0.04483,-0.24062v-2.09739h-0.77133zM255.64609,185.18023c0,-0.08546 0.0152,-0.1646 0.04483,-0.23758c0.03191,-0.07498 0.07294,-0.14067 0.1246,-0.19693c0.05318,-0.05625 0.11549,-0.10002 0.18691,-0.13123c0.07142,-0.03337 0.14664,-0.05001 0.22566,-0.05001h1.50741v-0.64392h-1.90781v-0.61583h1.90781c0.0813,0 0.15727,0.01672 0.22869,0.05001c0.07142,0.03129 0.13296,0.07506 0.18387,0.13131c0.05394,0.05417 0.09497,0.11875 0.1246,0.19381c0.03191,0.07498 0.04787,0.15524 0.04787,0.2407v2.71314h-0.58503v-0.56262c-0.00608,0.07706 -0.02583,0.15004 -0.05926,0.21877c-0.03343,0.06874 -0.07674,0.12923 -0.13068,0.18132c-0.05091,0.05001 -0.11093,0.08962 -0.17779,0.11875c-0.06762,0.02921 -0.13828,0.04377 -0.2135,0.04377h-0.92617c-0.07902,0 -0.15424,-0.0156 -0.22566,-0.04689c-0.07142,-0.03337 -0.13372,-0.07706 -0.18691,-0.13131c-0.05167,-0.05625 -0.09269,-0.12187 -0.1246,-0.19693c-0.02963,-0.07498 -0.04483,-0.15524 -0.04483,-0.24062zM256.22808,186.01795h1.50741v-0.83772h-1.50741zM259.87883,183.92056v2.71314h-0.58199v-3.32897h0.58199v0.58766c0.0038,-0.08122 0.02127,-0.15732 0.05318,-0.22814c0.03191,-0.07298 0.07294,-0.13547 0.1246,-0.18757c0.05318,-0.05417 0.11473,-0.09586 0.18387,-0.12507c0.06914,-0.03121 0.1436,-0.04689 0.22262,-0.04689h0.62074c0.08054,0 0.15576,0.01672 0.2249,0.05001c0.07142,0.03129 0.13372,0.07506 0.18767,0.13131c0.05318,0.05417 0.09497,0.11875 0.1246,0.19381c0.03115,0.07498 0.04711,0.15524 0.04711,0.2407v0.56262h-0.58427v-0.56262zM262.21136,183.30473h0.77194v-1.02521h0.58427v1.02521h1.03862v0.61583h-1.03862v2.09739h1.03862v0.61575h-1.03862c-0.07902,0 -0.15424,-0.0156 -0.22566,-0.04689c-0.07142,-0.03337 -0.13372,-0.07706 -0.18691,-0.13131c-0.05318,-0.05625 -0.09573,-0.12187 -0.12764,-0.19693c-0.02963,-0.07498 -0.04407,-0.15524 -0.04407,-0.24062v-2.09739h-0.77194zM267.40523,185.18023c0,-0.08546 0.01444,-0.1646 0.04407,-0.23758c0.03191,-0.07498 0.0737,-0.14067 0.12536,-0.19693c0.05318,-0.05625 0.11549,-0.10002 0.18691,-0.13123c0.07066,-0.03337 0.14588,-0.05001 0.2249,-0.05001h1.50817v-0.64392h-1.90857v-0.61583h1.90857c0.0813,0 0.15727,0.01672 0.22869,0.05001c0.07066,0.03129 0.1322,0.07506 0.18387,0.13131c0.05318,0.05417 0.09497,0.11875 0.1246,0.19381c0.03191,0.07498 0.04711,0.15524 0.04711,0.2407v2.71314h-0.58427v-0.56262c-0.00608,0.07706 -0.02583,0.15004 -0.05926,0.21877c-0.03419,0.06874 -0.0775,0.12923 -0.13068,0.18132c-0.05167,0.05001 -0.11093,0.08962 -0.17855,0.11875c-0.06686,0.02921 -0.13828,0.04377 -0.2135,0.04377h-0.92617c-0.07902,0 -0.15424,-0.0156 -0.2249,-0.04689c-0.07142,-0.03337 -0.13372,-0.07706 -0.18691,-0.13131c-0.05167,-0.05625 -0.09345,-0.12187 -0.12536,-0.19693c-0.02963,-0.07498 -0.04407,-0.15524 -0.04407,-0.24062zM267.98647,186.01795h1.50817v-0.83772h-1.50817zM272.22833,182.63897v0.66576h1.03862v0.61583h-1.03862v2.71314h-0.58503v-2.71314h-0.77194v-0.61583h0.77194v-0.66576c0,-0.08546 0.0152,-0.1646 0.04483,-0.23758c0.03115,-0.07498 0.0737,-0.14059 0.12764,-0.19693c0.05318,-0.05625 0.11549,-0.10002 0.18691,-0.13123c0.07066,-0.03337 0.14588,-0.05001 0.22566,-0.05001h1.03862v0.61575zM273.87478,183.30473h0.77194v-1.02521h0.58503v1.02521h1.03862v0.61583h-1.03862v2.09739h1.03862v0.61575h-1.03862c-0.07978,0 -0.15424,-0.0156 -0.22566,-0.04689c-0.07142,-0.03337 -0.13372,-0.07706 -0.18691,-0.13131c-0.05394,-0.05625 -0.09649,-0.12187 -0.12764,-0.19693c-0.02963,-0.07498 -0.04483,-0.15524 -0.04483,-0.24062v-2.09739h-0.77194zM279.92112,185.28337h-2.09244v0.73458h2.09244v0.61575h-2.09244c-0.07978,0 -0.155,-0.0156 -0.22566,-0.04689c-0.07142,-0.03337 -0.13372,-0.07706 -0.18691,-0.13131c-0.05167,-0.05625 -0.09345,-0.12187 -0.1246,-0.19693c-0.02963,-0.07498 -0.04483,-0.15524 -0.04483,-0.24062v-2.09739c0,-0.08546 0.0152,-0.16572 0.04483,-0.2407c0.03115,-0.07506 0.07294,-0.13963 0.1246,-0.19381c0.05318,-0.05625 0.11549,-0.10002 0.18691,-0.13131c0.07066,-0.03329 0.14588,-0.05001 0.22566,-0.05001h1.50741c0.0813,0 0.15727,0.01672 0.22869,0.05001c0.07142,0.03129 0.1322,0.07506 0.18387,0.13131c0.05318,0.05417 0.09497,0.11875 0.1246,0.19381c0.03191,0.07498 0.04787,0.15524 0.04787,0.2407zM277.82868,183.92056v0.74706h1.50741v-0.74706zM281.47867,183.92056v2.71314h-0.58123v-3.32897h0.58123v0.58766c0.00456,-0.08122 0.02203,-0.15732 0.05394,-0.22814c0.03115,-0.07298 0.07294,-0.13547 0.1246,-0.18757c0.05318,-0.05417 0.11473,-0.09586 0.18387,-0.12507c0.06914,-0.03121 0.1436,-0.04689 0.22262,-0.04689h0.61998c0.0813,0 0.15652,0.01672 0.22566,0.05001c0.07142,0.03129 0.13372,0.07506 0.18691,0.13131c0.05394,0.05417 0.09497,0.11875 0.1246,0.19381c0.03191,0.07498 0.04787,0.15524 0.04787,0.2407v0.56262h-0.58503v-0.56262zM288.49222,185.28337h-2.09244v0.73458h2.09244v0.61575h-2.09244c-0.07902,0 -0.15424,-0.0156 -0.22566,-0.04689c-0.07142,-0.03337 -0.13372,-0.07706 -0.18691,-0.13131c-0.05167,-0.05625 -0.09269,-0.12187 -0.1246,-0.19693c-0.02963,-0.07498 -0.04483,-0.15524 -0.04483,-0.24062v-2.09739c0,-0.08546 0.0152,-0.16572 0.04483,-0.2407c0.03191,-0.07506 0.07294,-0.13963 0.1246,-0.19381c0.05318,-0.05625 0.11549,-0.10002 0.18691,-0.13131c0.07142,-0.03329 0.14664,-0.05001 0.22566,-0.05001h1.50741c0.0813,0 0.15727,0.01672 0.22869,0.05001c0.07142,0.03129 0.13296,0.07506 0.18387,0.13131c0.05394,0.05417 0.09497,0.11875 0.1246,0.19381c0.03191,0.07498 0.04787,0.15524 0.04787,0.2407zM286.39978,183.92056v0.74706h1.50741v-0.74706zM289.46854,185.18023c0,-0.08546 0.01444,-0.1646 0.04483,-0.23758c0.03115,-0.07498 0.07294,-0.14067 0.1246,-0.19693c0.05318,-0.05625 0.11549,-0.10002 0.18691,-0.13123c0.07066,-0.03337 0.14588,-0.05001 0.22566,-0.05001h1.50741v-0.64392h-1.90857v-0.61583h1.90857c0.0813,0 0.15727,0.01672 0.22869,0.05001c0.07066,0.03129 0.1322,0.07506 0.18387,0.13131c0.05318,0.05417 0.09497,0.11875 0.1246,0.19381c0.03191,0.07498 0.04711,0.15524 0.04711,0.2407v2.71314h-0.58427v-0.56262c-0.00608,0.07706 -0.02583,0.15004 -0.05926,0.21877c-0.03343,0.06874 -0.0775,0.12923 -0.13068,0.18132c-0.05167,0.05001 -0.11093,0.08962 -0.17779,0.11875c-0.06762,0.02921 -0.13904,0.04377 -0.21426,0.04377h-0.92541c-0.07978,0 -0.155,-0.0156 -0.22566,-0.04689c-0.07142,-0.03337 -0.13372,-0.07706 -0.18691,-0.13131c-0.05167,-0.05625 -0.09345,-0.12187 -0.1246,-0.19693c-0.03039,-0.07498 -0.04483,-0.15524 -0.04483,-0.24062zM290.05053,186.01795h1.50741v-0.83772h-1.50741zM293.70053,183.92056v2.09739h1.50817v-0.5627h0.58427v0.5627c0,0.08538 -0.01596,0.16564 -0.04711,0.24062c-0.02963,0.07506 -0.07142,0.14067 -0.1246,0.19693c-0.05167,0.05425 -0.11321,0.09794 -0.18463,0.13131c-0.07066,0.03129 -0.1474,0.04689 -0.22793,0.04689h-1.50817c-0.07902,0 -0.15424,-0.0156 -0.22566,-0.04689c-0.07066,-0.03337 -0.13296,-0.07706 -0.18691,-0.13131c-0.05091,-0.05625 -0.09269,-0.12187 -0.1246,-0.19693c-0.02963,-0.07498 -0.04407,-0.15524 -0.04407,-0.24062v-2.09739c0,-0.08546 0.01444,-0.16572 0.04407,-0.2407c0.03191,-0.07506 0.0737,-0.13963 0.1246,-0.19381c0.05394,-0.05625 0.11625,-0.10002 0.18691,-0.13131c0.07142,-0.03329 0.14664,-0.05001 0.22566,-0.05001h1.50817c0.08054,0 0.15727,0.01672 0.22793,0.05001c0.07142,0.03129 0.13296,0.07506 0.18463,0.13131c0.05318,0.05417 0.09497,0.11875 0.1246,0.19381c0.03115,0.07498 0.04711,0.15524 0.04711,0.2407v0.56262h-0.58427v-0.56262zM299.56528,186.6337h-0.58503v-2.71314h-1.62897v2.71314h-0.58199v-4.61049h0.58199v1.86918c0.0038,-0.08122 0.02203,-0.15732 0.05318,-0.22814c0.03191,-0.07298 0.0737,-0.13547 0.1246,-0.18757c0.05394,-0.05417 0.11473,-0.09586 0.18463,-0.12507c0.06914,-0.03121 0.14284,-0.04689 0.22186,-0.04689h1.0447c0.0813,0 0.15727,0.01672 0.22869,0.05001c0.07142,0.03129 0.13296,0.07506 0.18387,0.13131c0.05394,0.05417 0.09497,0.11875 0.1246,0.19381c0.03191,0.07498 0.04787,0.15524 0.04787,0.2407zM304.2691,186.01795v-0.77211h-1.38584c-0.0813,0 -0.15727,-0.0156 -0.22869,-0.04689c-0.07066,-0.03329 -0.13296,-0.07706 -0.18691,-0.13123c-0.05091,-0.05625 -0.09269,-0.12195 -0.1246,-0.19693c-0.02963,-0.07506 -0.04407,-0.15524 -0.04407,-0.2407v-0.70953c0,-0.08546 0.01444,-0.16572 0.04407,-0.2407c0.03191,-0.07506 0.0737,-0.13963 0.1246,-0.19381c0.05394,-0.05625 0.11625,-0.10002 0.18691,-0.13131c0.07142,-0.03329 0.1474,-0.05001 0.22869,-0.05001h1.84931v0.61583h-1.84931v0.70953h1.38584c0.0813,0 0.15652,0.01664 0.22566,0.05001c0.07142,0.03129 0.13372,0.07498 0.18691,0.13131c0.05394,0.05417 0.09497,0.11875 0.1246,0.19373c0.03191,0.07506 0.04787,0.15532 0.04787,0.2407v0.77211c0,0.08538 -0.01596,0.16564 -0.04787,0.24062c-0.02963,0.07506 -0.07066,0.14067 -0.1246,0.19693c-0.05318,0.05425 -0.11549,0.09794 -0.18691,0.13131c-0.06914,0.03129 -0.14436,0.04689 -0.22566,0.04689h-1.97011v-0.61575zM308.44258,185.28337h-2.09244v0.73458h2.09244v0.61575h-2.09244c-0.07902,0 -0.15424,-0.0156 -0.22566,-0.04689c-0.07142,-0.03337 -0.13372,-0.07706 -0.18691,-0.13131c-0.05167,-0.05625 -0.09345,-0.12187 -0.1246,-0.19693c-0.02963,-0.07498 -0.04483,-0.15524 -0.04483,-0.24062v-2.09739c0,-0.08546 0.0152,-0.16572 0.04483,-0.2407c0.03115,-0.07506 0.07294,-0.13963 0.1246,-0.19381c0.05318,-0.05625 0.11549,-0.10002 0.18691,-0.13131c0.07142,-0.03329 0.14664,-0.05001 0.22566,-0.05001h1.50741c0.0813,0 0.15727,0.01672 0.22869,0.05001c0.07142,0.03129 0.1322,0.07506 0.18387,0.13131c0.05318,0.05417 0.09497,0.11875 0.1246,0.19381c0.03191,0.07498 0.04787,0.15524 0.04787,0.2407zM306.35014,183.92056v0.74706h1.50741v-0.74706zM309.23503,183.30473h0.77118v-1.02521h0.58503v1.02521h1.03862v0.61583h-1.03862v2.09739h1.03862v0.61575h-1.03862c-0.07902,0 -0.15424,-0.0156 -0.22566,-0.04689c-0.07142,-0.03337 -0.13372,-0.07706 -0.18691,-0.13131c-0.05394,-0.05625 -0.09649,-0.12187 -0.12764,-0.19693c-0.02963,-0.07498 -0.04483,-0.15524 -0.04483,-0.24062v-2.09739h-0.77118z" fill="#99d26e" stroke="none" stroke-width="1"/><path d="M180.21199,171.99805l2.7002,7.00195h-1.00098l-0.62012,-1.61133h-3.15917l-0.62012,1.61133h-1.00098l2.7002,-7.00195zM178.51277,176.3877h2.39258l-1.1914,-3.08594zM184.0157,173.7998h0.95704v4.23829h2.68063v-4.23829h0.9619v5.2002h-0.9619v-0.87891c-0.0097,0.12045 -0.0423,0.23438 -0.0976,0.3418c-0.0554,0.10742 -0.127,0.20182 -0.2149,0.2832c-0.0846,0.07813 -0.1823,0.13998 -0.2929,0.18555c-0.1107,0.04557 -0.2279,0.06836 -0.3516,0.06836h-1.72363c-0.13021,0 -0.25391,-0.02441 -0.3711,-0.07324c-0.11719,-0.05209 -0.21972,-0.12044 -0.30762,-0.20508c-0.08463,-0.08789 -0.15299,-0.19043 -0.20507,-0.30762c-0.04883,-0.11718 -0.07325,-0.24251 -0.07325,-0.37597zM189.91417,173.7998h1.2695v-1.60156h0.9619v1.60156h1.709v0.96192h-1.709v3.27637h1.709v0.96191h-1.709c-0.1302,0 -0.2539,-0.02441 -0.3711,-0.07324c-0.1172,-0.05209 -0.2197,-0.12044 -0.3076,-0.20508c-0.0879,-0.08789 -0.1579,-0.19043 -0.21,-0.30762c-0.0488,-0.11718 -0.0732,-0.24251 -0.0732,-0.37597v-3.27637h-1.2695zM199.95807,178.03809c0,0.13346 -0.026,0.25879 -0.0781,0.37597c-0.0488,0.11719 -0.1172,0.21973 -0.2051,0.30762c-0.0846,0.08464 -0.1855,0.15299 -0.3027,0.20508c-0.114,0.04883 -0.2377,0.07324 -0.3711,0.07324h-2.583c-0.1302,0 -0.2539,-0.02441 -0.3711,-0.07324c-0.1172,-0.05209 -0.2197,-0.12044 -0.3076,-0.20508c-0.0847,-0.08789 -0.153,-0.19043 -0.2051,-0.30762c-0.0488,-0.11718 -0.0733,-0.24251 -0.0733,-0.37597v-3.27637c0,-0.13346 0.0245,-0.25879 0.0733,-0.37598c0.0521,-0.11719 0.1204,-0.2181 0.2051,-0.30273c0.0879,-0.08789 0.1904,-0.15625 0.3076,-0.20508c0.1172,-0.05208 0.2409,-0.07813 0.3711,-0.07813h2.583c0.1334,0 0.2571,0.02605 0.3711,0.07813c0.1172,0.04883 0.2181,0.11719 0.3027,0.20508c0.0879,0.08463 0.1563,0.18554 0.2051,0.30273c0.0521,0.11719 0.0781,0.24252 0.0781,0.37598zM196.41807,174.76172v3.27637h2.583v-3.27637zM205.68567,174.76172v4.23828h-0.962v-4.23828h-2.2021v4.23828h-0.957v-5.2002h0.957v0.91797c0.0065,-0.12695 0.0358,-0.24576 0.0879,-0.35644c0.0521,-0.11393 0.1204,-0.21159 0.2051,-0.29297c0.0879,-0.08464 0.1888,-0.14974 0.3027,-0.19531c0.1139,-0.04883 0.236,-0.07325 0.3662,-0.07325h1.2402c0.127,0 0.2474,0.02442 0.3614,0.07325c0.1139,0.04557 0.2148,0.11067 0.3027,0.19531c0.0879,0.08138 0.1579,0.17904 0.21,0.29297c0.0553,0.11068 0.0846,0.22949 0.0879,0.35644c0.0065,-0.12695 0.0341,-0.24576 0.083,-0.35644c0.052,-0.11393 0.1204,-0.21159 0.205,-0.29297c0.0879,-0.08464 0.1888,-0.14974 0.3028,-0.19531c0.1139,-0.04883 0.236,-0.07325 0.3662,-0.07325h1.2402c0.1335,0 0.2588,0.02605 0.376,0.07813c0.1172,0.04883 0.2181,0.11719 0.3027,0.20508c0.0879,0.08463 0.1563,0.18554 0.2051,0.30273c0.0521,0.11719 0.0781,0.24252 0.0781,0.37598v4.23828h-0.9619v-4.23828zM210.45127,176.72949c0,-0.13346 0.0244,-0.25716 0.0732,-0.37109c0.0521,-0.11719 0.1205,-0.21973 0.2051,-0.30762c0.0879,-0.08789 0.1904,-0.15625 0.3076,-0.20508c0.1172,-0.05208 0.2409,-0.07812 0.3711,-0.07812h2.4805v-1.00586h-3.1397v-0.96192h3.1397c0.1334,0 0.2588,0.02605 0.376,0.07813c0.1171,0.04883 0.2181,0.11719 0.3027,0.20508c0.0879,0.08463 0.1562,0.18554 0.2051,0.30273c0.0521,0.11719 0.0781,0.24252 0.0781,0.37598v4.23828h-0.9619v-0.87891c-0.0098,0.12045 -0.0423,0.23438 -0.0977,0.3418c-0.0553,0.10742 -0.1269,0.20182 -0.2148,0.2832c-0.0847,0.07813 -0.1823,0.13998 -0.293,0.18555c-0.1107,0.04557 -0.2279,0.06836 -0.3515,0.06836h-1.5235c-0.1302,0 -0.2539,-0.02441 -0.3711,-0.07324c-0.1172,-0.05209 -0.2197,-0.12044 -0.3076,-0.20508c-0.0846,-0.08789 -0.153,-0.19043 -0.2051,-0.30762c-0.0488,-0.11718 -0.0732,-0.24251 -0.0732,-0.37597zM211.40827,178.03809h2.4805v-1.3086h-2.4805zM216.15437,173.7998h1.2695v-1.60156h0.962v1.60156h1.7089v0.96192h-1.7089v3.27637h1.7089v0.96191h-1.7089c-0.1303,0 -0.254,-0.02441 -0.3711,-0.07324c-0.1172,-0.05209 -0.2198,-0.12044 -0.3077,-0.20508c-0.0879,-0.08789 -0.1578,-0.19043 -0.2099,-0.30762c-0.0488,-0.11718 -0.0733,-0.24251 -0.0733,-0.37597v-3.27637h-1.2695zM222.71197,173.7998v5.2002h-0.9619v-5.2002zM221.70127,171.79785h1.0596v1.00098h-1.0596zM225.32427,174.76172v3.27637h2.4805v-0.87891h0.9619v0.87891c0,0.13346 -0.026,0.25879 -0.0781,0.37597c-0.0488,0.11719 -0.1172,0.21973 -0.2051,0.30762c-0.0846,0.08464 -0.1855,0.15299 -0.3027,0.20508c-0.1172,0.04883 -0.2425,0.07324 -0.376,0.07324h-2.4805c-0.1302,0 -0.2539,-0.02441 -0.3711,-0.07324c-0.1172,-0.05209 -0.2197,-0.12044 -0.3076,-0.20508c-0.0846,-0.08789 -0.153,-0.19043 -0.2051,-0.30762c-0.0488,-0.11718 -0.0732,-0.24251 -0.0732,-0.37597v-3.27637c0,-0.13346 0.0244,-0.25879 0.0732,-0.37598c0.0521,-0.11719 0.1205,-0.2181 0.2051,-0.30273c0.0879,-0.08789 0.1904,-0.15625 0.3076,-0.20508c0.1172,-0.05208 0.2409,-0.07813 0.3711,-0.07813h2.4805c0.1335,0 0.2588,0.02605 0.376,0.07813c0.1172,0.04883 0.2181,0.11719 0.3027,0.20508c0.0879,0.08463 0.1563,0.18554 0.2051,0.30273c0.0521,0.11719 0.0781,0.24252 0.0781,0.37598v0.8789h-0.9619v-0.8789z" fill="#57a71a" stroke="#57a71a" stroke-width="0.5"/><path d="M374.34172,198.79119c0.03964,1.72868 -1.68904,1.76832 -1.68904,1.76832l-0.10867,0.00249c-14.90078,0.3417 -29.78093,0.47616 -44.68554,0.47616c-24.0947,0 -48.23908,-0.44168 -72.32585,0.16812c-24.11054,0.6104 -48.0937,1.87357 -72.16349,3.38826c-13.64365,1.99884 -27.34848,3.74738 -40.95496,5.9832c-6.24338,1.02591 -12.41691,2.38868 -18.67475,3.35143c0,0 -1.70902,0.26293 -1.97195,-1.4461c-0.26293,-1.70903 1.4461,-1.97195 1.4461,-1.97195c6.24091,-0.96014 12.39754,-2.3193 18.624,-3.34323c13.67768,-2.24926 27.45506,-4.01501 41.17202,-6.01287c24.15904,-1.54058 48.2347,-2.79322 72.43552,-3.40589c24.11597,-0.61053 48.28945,-0.16922 72.41337,-0.16922c14.87821,0 29.73188,-0.13415 44.60625,-0.47525l0.10867,-0.00249c0,0 1.72868,-0.03964 1.76833,1.68904z" fill="none" stroke="none" stroke-width="0.5"/></g></g></svg>