<svg version="1.1" xmlns="http://www.w3.org/2000/svg" xmlns:xlink="http://www.w3.org/1999/xlink" width="5.70019" height="7.50195" viewBox="0,0,5.70019,7.50195"><g transform="translate(-237.1499,-172.74805)"><g data-paper-data="{&quot;isPaintingLayer&quot;:true}" fill="#ffffff" fill-rule="nonzero" stroke="#ffffff" stroke-width="0.5" stroke-linecap="butt" stroke-linejoin="miter" stroke-miterlimit="10" stroke-dasharray="" stroke-dashoffset="0" style="mix-blend-mode: normal"><path d="M242.6001,178.99902c0,0.13672 -0.02604,0.26693 -0.07812,0.39063c-0.05209,0.12044 -0.1237,0.22624 -0.21485,0.31738c-0.09114,0.09115 -0.19856,0.16276 -0.32226,0.21485c-0.12044,0.05208 -0.24902,0.07812 -0.38574,0.07812h-3.19825c-0.13671,0 -0.26692,-0.02604 -0.39062,-0.07812c-0.12044,-0.05209 -0.22624,-0.1237 -0.31738,-0.21485c-0.09115,-0.09114 -0.16276,-0.19694 -0.21485,-0.31738c-0.05208,-0.1237 -0.07812,-0.25391 -0.07812,-0.39063v-0.89843h1.00097v0.89843h3.19825v-1.99707h-3.19825c-0.13671,0 -0.26692,-0.02604 -0.39062,-0.07812c-0.12044,-0.05534 -0.22624,-0.12695 -0.31738,-0.21485c-0.09115,-0.09114 -0.16276,-0.19694 -0.21485,-0.31738c-0.05208,-0.1237 -0.07812,-0.2539 -0.07812,-0.39062v-2.00196c0,-0.13672 0.02604,-0.2653 0.07812,-0.38574c0.05209,-0.1237 0.1237,-0.22949 0.21485,-0.31738c0.09114,-0.09114 0.19694,-0.16276 0.31738,-0.21484c0.1237,-0.05534 0.25391,-0.08301 0.39062,-0.08301h3.19825c0.13672,0 0.2653,0.02767 0.38574,0.08301c0.1237,0.05208 0.23112,0.1237 0.32226,0.21484c0.09115,0.08789 0.16276,0.19369 0.21485,0.31738c0.05208,0.12044 0.07812,0.24902 0.07812,0.38574zM241.59913,176.00098v-2.00196h-3.19825v2.00196z"/></g></g></svg>