<svg version="1.1" xmlns="http://www.w3.org/2000/svg" xmlns:xlink="http://www.w3.org/1999/xlink" width="130.32462" height="39.69499" viewBox="0,0,130.32462,39.69499"><g transform="translate(-174.83769,-160.1525)"><g data-paper-data="{&quot;isPaintingLayer&quot;:true}" fill-rule="nonzero" stroke-linecap="butt" stroke-linejoin="miter" stroke-miterlimit="10" stroke-dasharray="" stroke-dashoffset="0" style="mix-blend-mode: normal"><path d="M305.16231,164.57965v30.84067c0,2.44501 -1.40144,4.42718 -3.13016,4.42718h-124.06429c-1.72875,0 -3.13017,-1.98217 -3.13017,-4.42718v-30.84067c0,-2.44505 1.40143,-4.42714 3.13017,-4.42714h124.06429c1.72873,0 3.13016,1.98209 3.13016,4.42714z" fill="#74ed79" stroke="none" stroke-width="1"/><path d="M199.46034,170.20268h14.69951v2.88364h-11.81586v5.76726h10.08569v2.88364h-10.08569v8.63684h-2.88364zM220.82734,175.39321v14.98082h-2.77097v-14.98082zM217.91559,169.62594h3.05251v2.88363h-3.05251zM238.84648,190.37406h-2.77097v-12.20972h-7.72252v12.20972h-2.75714v-14.98082h2.75714v2.64449c0.01864,-0.36572 0.10313,-0.70801 0.25313,-1.02685c0.15,-0.32822 0.34705,-0.60953 0.59075,-0.84399c0.25332,-0.24381 0.54389,-0.43137 0.87211,-0.56267c0.32822,-0.14067 0.67987,-0.21099 1.05495,-0.21099h4.95155c0.38449,0 0.74555,0.07502 1.083,0.22504c0.33764,0.14068 0.62842,0.33761 0.87211,0.5908c0.25332,0.24381 0.45017,0.53453 0.59094,0.87211c0.15,0.33759 0.2249,0.69863 0.2249,1.08314zM246.37216,175.39321v14.98082h-2.77115v-14.98082zM243.46041,169.62594h3.05232v2.88363h-3.05232zM260.18551,187.60295v-3.47443h-6.56904c-0.38449,0 -0.74555,-0.07034 -1.08319,-0.21101c-0.33764,-0.15002 -0.63302,-0.34698 -0.88615,-0.59079c-0.24391,-0.2532 -0.44077,-0.54861 -0.59075,-0.8862c-0.14077,-0.33759 -0.21107,-0.69863 -0.21107,-1.08313v-3.1931c0,-0.38449 0.07029,-0.74554 0.21107,-1.08314c0.15,-0.33759 0.34685,-0.6283 0.59075,-0.87211c0.25313,-0.25319 0.54851,-0.45012 0.88615,-0.5908c0.33764,-0.15002 0.69871,-0.22504 1.08319,-0.22504h8.76347v2.77111h-8.76347v3.1931h6.56904c0.38449,0 0.74075,0.07502 1.06897,0.22504c0.33764,0.14068 0.63302,0.33759 0.88635,0.5908c0.25313,0.24381 0.44998,0.53453 0.59075,0.87211c0.15,0.33759 0.22509,0.69863 0.22509,1.08314v3.47443c0,0.38448 -0.07509,0.74551 -0.22509,1.08314c-0.14077,0.33764 -0.33764,0.63302 -0.59075,0.88615c-0.25332,0.24391 -0.5487,0.44077 -0.88635,0.59075c-0.32822,0.14077 -0.68448,0.21107 -1.06897,0.21107h-9.3402v-2.77111zM280.53966,190.37406h-2.77097v-12.20972h-7.72252v12.20972h-2.75714v-20.7481h2.75714v8.41176c0.01864,-0.36572 0.10313,-0.70801 0.25313,-1.02685c0.15,-0.32822 0.34705,-0.60953 0.59075,-0.84399c0.25332,-0.24381 0.54389,-0.43137 0.87211,-0.56267c0.32822,-0.14067 0.67987,-0.21099 1.05495,-0.21099h4.95155c0.38449,0 0.74536,0.07502 1.083,0.22504c0.33764,0.14068 0.62842,0.33761 0.87211,0.5908c0.25332,0.24381 0.45017,0.53453 0.59075,0.87211c0.1502,0.33759 0.22509,0.69863 0.22509,1.08314z" fill="#000000" stroke="#000000" stroke-width="0.5"/></g></g></svg>