<svg version="1.1" xmlns="http://www.w3.org/2000/svg" xmlns:xlink="http://www.w3.org/1999/xlink" width="5.79785" height="7.50195" viewBox="0,0,5.79785,7.50195"><g transform="translate(-237.10107,-172.74805)"><g data-paper-data="{&quot;isPaintingLayer&quot;:true}" fill="#ffffff" fill-rule="nonzero" stroke="#ffffff" stroke-width="0.5" stroke-linecap="butt" stroke-linejoin="miter" stroke-miterlimit="10" stroke-dasharray="" stroke-dashoffset="0" style="mix-blend-mode: normal"><path d="M238.35206,173.99902v0.90332h-1.00098v-0.90332c0,-0.13672 0.02604,-0.2653 0.07813,-0.38574c0.05208,-0.1237 0.12369,-0.22949 0.21484,-0.31738c0.09115,-0.09114 0.19694,-0.16276 0.31738,-0.21484c0.1237,-0.05534 0.25391,-0.08301 0.39063,-0.08301h3.16894c0.13672,0 0.2653,0.02767 0.38575,0.08301c0.12369,0.05208 0.22949,0.1237 0.31738,0.21484c0.09114,0.08789 0.16276,0.19369 0.21484,0.31738c0.05534,0.12044 0.08301,0.24902 0.08301,0.38574v1.2793c0,0.13672 -0.01302,0.25879 -0.03906,0.36621c-0.02604,0.10742 -0.06836,0.20508 -0.12696,0.29297c-0.05533,0.08464 -0.12695,0.16113 -0.21484,0.22949c-0.08789,0.06836 -0.19531,0.13347 -0.32227,0.19531l-3.46679,1.62598v1.01074h3.2959v-0.89843h1.00097v1.89941h-5.29785v-1.84082c0,-0.13672 0.01302,-0.25879 0.03906,-0.36621c0.0293,-0.10742 0.07161,-0.20345 0.12695,-0.28809c0.05534,-0.08463 0.12695,-0.16113 0.21484,-0.22949c0.09115,-0.07161 0.19694,-0.13672 0.31738,-0.19531l3.47168,-1.63086v-1.4502z"/></g></g></svg>