<svg version="1.1" xmlns="http://www.w3.org/2000/svg" xmlns:xlink="http://www.w3.org/1999/xlink" width="10.16583" height="8.4891" viewBox="0,0,10.16583,8.4891"><g transform="translate(-234.91708,-175.75545)"><g data-paper-data="{&quot;isPaintingLayer&quot;:true}" fill="#000000" fill-rule="nonzero" stroke="none" stroke-width="1" stroke-linecap="butt" stroke-linejoin="miter" stroke-miterlimit="10" stroke-dasharray="" stroke-dashoffset="0" style="mix-blend-mode: normal"><path d="M244.93422,179.15109c0.11319,0.31127 0.16978,0.62253 0.14149,0.9904c0,0.82061 -0.31127,1.58463 -0.87721,2.15057c-0.56594,0.56594 -1.32996,0.87721 -2.12227,0.87721h-3.31075v1.07529l-3.28245,-1.9242l3.28245,-1.8676v1.07529h3.31075c0.73572,0 1.35826,-0.62253 1.35826,-1.38655v-0.11319l1.49974,-0.87721"/><path d="M236.55831,179.85851c0,0.05659 0,0.08489 0.0283,0.11319l-1.49974,0.87721c-0.11319,-0.31127 -0.16978,-0.65083 -0.16978,-0.9904c0,-0.82061 0.31127,-1.58463 0.87721,-2.15057c0.56594,-0.56594 1.32996,-0.87721 2.12227,-0.87721h3.33905v-1.07529l3.28245,1.9242l-3.28245,1.8676v-1.07529h-3.33905c-0.73572,0 -1.35826,0.62253 -1.35826,1.38655"/></g></g></svg>