<svg version="1.1" xmlns="http://www.w3.org/2000/svg" xmlns:xlink="http://www.w3.org/1999/xlink" width="92.96447" height="22.44879" viewBox="0,0,92.96447,22.44879"><g transform="translate(-191.01003,-168.7756)"><g data-paper-data="{&quot;isPaintingLayer&quot;:true}" fill-rule="nonzero" stroke-linejoin="miter" stroke-miterlimit="10" stroke-dasharray="" stroke-dashoffset="0" style="mix-blend-mode: normal"><path d="M225.5,189.64876c-4.41828,0 -8,-4.78211 -8,-9.55008c0,-4.92009 3.58172,-9.74745 8,-9.74745h29c4.41828,0 8,4.8355 8,9.96674c0,4.69627 -3.58172,9.33079 -8,9.33079z" fill="none" stroke="#ffffff" stroke-width="2" stroke-linecap="butt"/><path d="M206.06422,184.07639l-0.00032,0.00006l-0.00019,0.00006l-0.00039,0.00006l-0.00026,0.00006l-0.01809,0.004l-0.0186,0.00659l-1.44839,0.51204l-1.50452,0.10341l-3.28428,0.07868v-0.00006l-0.00484,0.00019h-0.00006h-0.00032l-0.00149,0.00006l-0.00607,0.00026l-0.02422,0.00084c-0.02132,0.00078 -0.05284,0.00187 -0.09302,0.0031c-0.08048,0.00258 -0.19591,0.00588 -0.33524,0.00885c-0.27885,0.00607 -0.65201,0.01098 -1.03131,0.00665c-0.38104,-0.00439 -0.76066,-0.01809 -1.05527,-0.04812c-0.14844,-0.01511 -0.26496,-0.0334 -0.34558,-0.05361c-0.01899,-0.00472 -0.03398,-0.00911 -0.04547,-0.01285c-0.0332,-0.06091 -0.0686,-0.15748 -0.09864,-0.26929c-0.01686,-0.06279 -0.02945,-0.12021 -0.03785,-0.16194c-0.00233,-0.01169 -0.00433,-0.02209 -0.00594,-0.03088l0.00065,-0.01111l0.00788,-0.13474l0.02681,-0.45681c0.02132,-0.36431 0.04767,-0.81718 0.06808,-1.1709c0.01273,-0.22059 0.02138,-0.41547 0.02945,-0.59653c0.02461,-0.55305 0.04347,-0.97679 0.1536,-1.60794c0.09864,-0.56552 0.24119,-0.98286 0.40513,-1.40724c0.03462,-0.08972 0.0706,-0.18054 0.10742,-0.27368c0.1372,-0.34655 0.28686,-0.72462 0.42722,-1.1915c0.12635,-0.42012 0.27129,-0.95987 0.38401,-1.392c0.05652,-0.21658 0.10522,-0.4072 0.13978,-0.54369c0.01731,-0.06821 0.03107,-0.12299 0.0405,-0.16071l0.01085,-0.04334l0.00284,-0.0113l0.00071,-0.00297l0.00019,-0.00071l0.00006,-0.00019v-0.00006l-0.31341,-0.0779l0.31341,0.07784l0.01318,-0.0529l-0.00497,-0.05381v-0.00013v-0.00019v-0.00006v-0.00013v-0.00019l-0.00039,-0.00472c-0.00039,-0.00465 -0.0009,-0.01227 -0.00155,-0.02248c-0.00123,-0.02048 -0.00278,-0.05142 -0.00375,-0.09069c-0.00187,-0.07887 -0.00129,-0.18952 0.00859,-0.31503c0.02041,-0.26016 0.0779,-0.54466 0.20257,-0.74951l0.0126,-0.02066c0.19075,-0.31337 0.39674,-0.65173 0.58677,-0.92517c0.09721,-0.1399 0.18493,-0.25502 0.2596,-0.33785c0.07202,-0.07983 0.10664,-0.10064 0.106,-0.10172c0,-0.00007 -0.00026,-0.00005 -0.00058,0.00005c0.05135,-0.0169 0.15961,-0.023 0.3346,0.00936c0.16878,0.03121 0.35876,0.09011 0.54259,0.15846c0.18228,0.06777 0.35023,0.14167 0.47302,0.19895c0.06117,0.02853 0.11065,0.05268 0.14443,0.06951c0.01692,0.00841 0.02984,0.01498 0.03837,0.01934l0.00937,0.00483l0.00213,0.00108l0.00026,0.00015l0.00006,0.00003v0.00001v0.00001l0.03708,0.01938l0.04024,0.00919l0.00019,0.00003l0.00013,0.00004l0.00013,0.00003l0.00013,0.00003l0.00446,0.00108c0.00439,0.00107 0.0115,0.00285 0.02099,0.00535c0.01906,0.00501 0.04728,0.01283 0.08165,0.02349c0.06976,0.02162 0.16045,0.05359 0.24985,0.09561c0.09172,0.04312 0.16794,0.09027 0.21891,0.13709c0.05129,0.04706 0.05355,0.07133 0.05355,0.07139c0.0031,0.02929 -0.01731,0.11415 -0.08623,0.23716c-0.02907,0.052 -0.05956,0.09798 -0.08287,0.13106c-0.0115,0.01635 -0.02093,0.02905 -0.02713,0.03723l-0.00665,0.00862l-0.00071,0.00092l-0.00006,0.00009l-0.00006,0.00009l-0.00013,0.00015l-0.00013,0.0002l-0.00006,0.00002l-0.54201,0.67424l0.80277,-0.14576c0.01137,0.02767 0.02551,0.08368 0.02551,0.18802c0,0.03555 -0.01499,0.09782 -0.07842,0.19717c-0.06259,0.09815 -0.1558,0.20699 -0.27523,0.33166c-0.06111,0.06375 -0.13119,0.13326 -0.20528,0.2067c-0.18416,0.18267 -0.39293,0.38963 -0.54892,0.59304c-0.26781,0.23874 -0.49182,0.32129 -0.6338,0.34991c-0.07428,0.01492 -0.13016,0.01589 -0.16297,0.01434c-0.01647,-0.00084 -0.02719,-0.00226 -0.03159,-0.00297c-0.00006,0 -0.00006,0 -0.00006,0l-0.34093,-0.08597l-0.05103,0.35488l-0.08191,0.56959l-0.00252,0.01738l-0.00058,0.01757l-0.13416,3.93138l-0.00013,0.00549v0.00549v1.17367v1.13776l0.59775,-0.96807l1.00754,-1.63171c0.00833,-0.00937 0.0197,-0.02203 0.03398,-0.03766c0.0343,-0.03753 0.08501,-0.09205 0.14947,-0.15832c0.12912,-0.13281 0.31192,-0.31141 0.52657,-0.49498c0.44376,-0.37949 0.96975,-0.7325 1.41919,-0.80917c0.60441,-0.10303 0.95961,-0.02048 1.60665,0.17176c0.22343,0.06634 0.50919,0.19611 0.75,0.31651c0.11801,0.05897 0.22085,0.11349 0.29416,0.15322c0.03662,0.01983 0.06569,0.03591 0.08546,0.0469l0.02196,0.01234l0.0115,0.00749c0.01266,0.00833 0.03184,0.02119 0.05665,0.03818c0.04961,0.03398 0.12144,0.08462 0.20773,0.14954c0.17324,0.13029 0.40203,0.31593 0.62721,0.53871c0.22634,0.22395 0.44105,0.47754 0.59349,0.74277c0.15283,0.26593 0.23215,0.52431 0.21833,0.76628c-0.04528,0.79108 -0.44479,1.2621 -0.83966,1.54483c-0.20018,0.14327 -0.3988,0.23732 -0.54756,0.29526c-0.07402,0.02881 -0.13461,0.04832 -0.17531,0.06027c-0.02035,0.00594 -0.03566,0.01001 -0.04509,0.01247l-0.00962,0.00239zM196.81585,184.67479c0.00006,0 0.00123,0.00052 0.00317,0.00168c-0.0022,-0.0011 -0.00323,-0.00161 -0.00317,-0.00168zM201.98201,174.28876c0.00019,-0.00023 0.00187,0.00116 0.00439,0.00484c-0.00329,-0.00277 -0.00459,-0.00461 -0.00439,-0.00484z" fill="#ffffff" stroke="#ffffff" stroke-width="0" stroke-linecap="butt"/><path d="M210.12434,185.68601c-1.90326,2.63569 -5.08439,4.25713 -8.56613,4.01445c-5.35743,-0.37348 -9.39769,-5.01928 -9.02424,-10.37664c0.37344,-5.35744 5.01922,-9.39773 10.37664,-9.02428c3.66629,0.25557 6.71571,2.51192 8.1559,5.62793" fill="none" stroke="#ffffff" stroke-width="3" stroke-linecap="round"/><path d="M212.5782,172.21913l-1.00812,4.86329l-4.81949,-1.20054" fill="none" stroke="#ffffff" stroke-width="3" stroke-linecap="round"/><path d="M276.22687,184.40722l1.33475,-1.29002c0.61276,0.59425 0.88185,2.58776 0.88185,3.43058c0,1.75039 -1.4771,3.17662 -3.28245,3.17662c-1.80541,0 -3.28252,-1.42622 -3.28252,-3.17662c0,-0.84282 0.33922,-1.63157 0.95192,-2.23661l2.33059,-2.25826z" fill="#ffffff" stroke="none" stroke-width="1" stroke-linecap="butt"/><path d="M281.16122,178.85415c0.24857,0 0.47286,-0.53497 0.75348,-1.13336c0.43484,-0.92733 0,-2.54745 0,-2.86651c0,-0.27061 1.2828,1.99602 1.84663,4.49318c0.3748,1.66036 0.17692,3.51597 0,4.45584c-0.45956,2.42031 -1.99143,4.48408 -4.0594,5.7266c0.59087,-0.85355 0.93009,-1.86922 0.93009,-2.97134c0,-1.43708 -2.03096,-4.87575 -3.0704,-5.88062l-0.67926,1.48306l-1.72116,-3.13345l-3.8624,3.7385c-1.03944,1.01567 -1.60842,2.35544 -1.60842,3.78172c0,1.1237 0.36106,2.1718 0.97376,3.02535c-2.54938,-1.50189 -4.25627,-4.25715 -4.25627,-7.41212c0,-2.04877 1.63421,-5.93 1.63421,-5.93c0,0 0.26549,0.75593 0.64211,1.06661c0.32781,0.27034 1.0062,0.42317 1.0062,0.42317c0,0 0.54017,-2.42583 1.60842,-3.87957c1.06824,-1.45377 3.8624,-3.56562 3.8624,-3.56562v3.56562c0,2.0421 1.26775,3.03832 2.55883,1.45003l0.67839,-2.08146c0,0 2.7628,2.74813 2.7628,5.64437z" fill="#ffffff" stroke="none" stroke-width="1" stroke-linecap="butt"/></g></g></svg>