<svg version="1.1" xmlns="http://www.w3.org/2000/svg" xmlns:xlink="http://www.w3.org/1999/xlink" width="34.25" height="15.25" viewBox="0,0,34.25,15.25"><g transform="translate(-222.69509,-172.69362)"><g data-paper-data="{&quot;isPaintingLayer&quot;:true}" fill-rule="nonzero" stroke-linecap="butt" stroke-linejoin="miter" stroke-miterlimit="10" stroke-dasharray="" stroke-dashoffset="0" style="mix-blend-mode: normal"><path d="M222.69509,187.94362v-15.25h34.25v15.25z" fill="#17e6a1" stroke="#898989" stroke-width="0"/><path d="M226.96924,174.39746v7.80127h4.67822v1.30127h-5.97949v-9.10254zM238.8013,180.75781h-4.47513v1.4917h4.47513v1.25049h-4.47513c-0.16927,0 -0.33008,-0.03174 -0.48242,-0.09521c-0.15234,-0.06771 -0.28564,-0.15658 -0.3999,-0.26661c-0.11003,-0.11425 -0.1989,-0.24756 -0.2666,-0.3999c-0.06348,-0.15234 -0.09522,-0.31527 -0.09522,-0.48877v-4.25928c0,-0.1735 0.03174,-0.33642 0.09522,-0.48877c0.0677,-0.15234 0.15657,-0.28352 0.2666,-0.39355c0.11426,-0.11426 0.24756,-0.20312 0.3999,-0.2666c0.15234,-0.06771 0.31315,-0.10156 0.48242,-0.10156h3.22463c0.1735,0 0.3364,0.03385 0.4888,0.10156c0.1523,0.06348 0.2835,0.15234 0.3935,0.2666c0.1143,0.11003 0.2031,0.24121 0.2666,0.39355c0.0677,0.15235 0.1016,0.31527 0.1016,0.48877zM234.32617,177.99023v1.51709h3.22463v-1.51709zM240.8896,177.99023c0,-0.1735 0.0318,-0.33642 0.0953,-0.48877c0.0677,-0.15234 0.1565,-0.28352 0.2666,-0.39355c0.1142,-0.11426 0.2475,-0.20312 0.3999,-0.2666c0.1523,-0.06771 0.3131,-0.10156 0.4824,-0.10156h2.2407c0.1651,0 0.3216,0.03173 0.4697,0.09521c0.1482,0.05925 0.2772,0.14388 0.3872,0.25391c0.1143,0.10579 0.2053,0.23274 0.273,0.38086c0.0719,0.14388 0.11,0.29834 0.1143,0.46338v-1.19336h1.2504v8.23925c0,0.1735 -0.0338,0.3364 -0.1015,0.4888c-0.0635,0.1523 -0.1524,0.2835 -0.2666,0.3935c-0.11,0.1143 -0.2412,0.2032 -0.3936,0.2666c-0.1523,0.0677 -0.3152,0.1016 -0.4887,0.1016h-3.9483v-1.2505h3.9483v-1.73925h-3.4849c-0.1693,0 -0.3301,-0.03174 -0.4824,-0.09522c-0.1524,-0.06771 -0.2857,-0.15657 -0.3999,-0.2666c-0.1101,-0.11426 -0.1989,-0.24756 -0.2666,-0.3999c-0.0635,-0.15235 -0.0953,-0.31527 -0.0953,-0.48877zM245.6187,181.98926v-3.99903h-3.4849v3.99903zM253.0327,182.24951v-1.56787h-2.9643c-0.1735,0 -0.3365,-0.03174 -0.4888,-0.09521c-0.1524,-0.06771 -0.2857,-0.15658 -0.3999,-0.26661c-0.11,-0.11425 -0.1989,-0.24755 -0.2666,-0.3999c-0.0635,-0.15234 -0.0952,-0.31527 -0.0952,-0.48877v-1.44092c0,-0.1735 0.0317,-0.33642 0.0952,-0.48877c0.0677,-0.15234 0.1566,-0.28352 0.2666,-0.39355c0.1142,-0.11426 0.2475,-0.20312 0.3999,-0.2666c0.1523,-0.06771 0.3153,-0.10156 0.4888,-0.10156h3.9545v1.25048h-3.9545v1.44092h2.9643c0.1735,0 0.3343,0.03386 0.4824,0.10156c0.1524,0.06348 0.2857,0.15235 0.3999,0.26661c0.1143,0.11002 0.2032,0.24121 0.2666,0.39355c0.0677,0.15234 0.1016,0.31527 0.1016,0.48877v1.56787c0,0.1735 -0.0339,0.33643 -0.1016,0.48877c-0.0634,0.15234 -0.1523,0.28565 -0.2666,0.3999c-0.1142,0.11003 -0.2475,0.1989 -0.3999,0.26661c-0.1481,0.06347 -0.3089,0.09521 -0.4824,0.09521h-4.2148v-1.25049z" fill="#ffffff" stroke="none" stroke-width="1"/></g></g></svg>