<svg version="1.1" xmlns="http://www.w3.org/2000/svg" xmlns:xlink="http://www.w3.org/1999/xlink" width="261.29492" height="59.72073" viewBox="0,0,261.29492,59.72073"><g transform="translate(-109.35254,-280.03347)"><g data-paper-data="{&quot;isPaintingLayer&quot;:true}" fill-rule="nonzero" stroke="none" stroke-width="1" stroke-linecap="butt" stroke-linejoin="miter" stroke-miterlimit="10" stroke-dasharray="" stroke-dashoffset="0" style="mix-blend-mode: normal"><path d="M370.64746,286.24058v47.30651c0,3.42798 -1.54719,6.20711 -3.45354,6.20711h-254.38784c-1.90734,0 -3.45354,-2.77913 -3.45354,-6.20711v-47.30651c0,-3.4281 1.5462,-6.20711 3.45354,-6.20711h254.38784c1.90635,0 3.45354,2.77901 3.45354,6.20711z" fill="#ffad4e"/><path d="M140.56117,325.46082l-11.29232,-22.18429v22.18429h-4.32768v-30.26856h4.72875l11.52528,22.79598l11.54569,-22.79598h4.70713v30.26856h-4.30607v-22.18429l-11.29352,22.18429zM164.83534,315.64548c0,-0.57638 0.10567,-1.11194 0.31701,-1.60427c0.22455,-0.50674 0.51995,-0.94959 0.88619,-1.32953c0.37945,-0.37993 0.82375,-0.67545 1.32929,-0.88655c0.50674,-0.22515 1.04229,-0.33766 1.60427,-0.33766h10.72314v-4.34822h-13.57264v-4.15825h13.57264c0.57638,0 1.11915,0.11251 1.62588,0.33766c0.50554,0.2111 0.94263,0.50662 1.30767,0.88655c0.38065,0.36588 0.67605,0.80213 0.88739,1.30875c0.22455,0.5065 0.33742,1.0483 0.33742,1.62528v18.32156h-4.15837v-3.79933c-0.04203,0.52115 -0.18252,1.01347 -0.42268,1.47698c-0.23896,0.46471 -0.54877,0.87298 -0.92822,1.22482c-0.36624,0.33742 -0.78772,0.6052 -1.26684,0.80213c-0.47792,0.19693 -0.98466,0.2954 -1.51901,0.2954h-6.58639c-0.56197,0 -1.09753,-0.10567 -1.60427,-0.31701c-0.50554,-0.22455 -0.94983,-0.51995 -1.32929,-0.88619c-0.36624,-0.37945 -0.66164,-0.82375 -0.88619,-1.32929c-0.21134,-0.50674 -0.31701,-1.0483 -0.31701,-1.62588zM168.9721,321.30245h10.72314v-5.65697h-10.72314zM195.16754,302.98101v22.47981h-4.15837v-22.47981zM190.79783,294.32684h4.58105v4.32708h-4.58105zM222.20595,325.46082h-4.15837v-18.32156h-11.58772v18.32156h-4.13676v-22.47981h4.13676v3.96828c0.02882,-0.54877 0.1549,-1.06247 0.38065,-1.54087c0.22455,-0.49257 0.51995,-0.91465 0.88619,-1.26648c0.37945,-0.36588 0.81534,-0.64735 1.30887,-0.84428c0.49233,-0.2111 1.01948,-0.31665 1.58265,-0.31665h7.42935c0.57758,0 1.11915,0.11251 1.62588,0.33766c0.50674,0.2111 0.94263,0.50662 1.30887,0.88655c0.37945,0.36588 0.67485,0.80213 0.88619,1.30875c0.22575,0.5065 0.33742,1.0483 0.33742,1.62528zM258.13148,325.46082l-11.29232,-22.18429v22.18429h-4.32648v-30.26856h4.72755l11.52528,22.79598l11.54569,-22.79598h4.70713v30.26856h-4.30607v-22.18429l-11.29232,22.18429zM301.42391,316.34194h-14.88151v4.9605h14.88151v4.15837h-14.88151c-0.56197,0 -1.09753,-0.10567 -1.60307,-0.31701c-0.50674,-0.22455 -0.94983,-0.51995 -1.33049,-0.88619c-0.36624,-0.37945 -0.66164,-0.82375 -0.88619,-1.32929c-0.21134,-0.50674 -0.31701,-1.0483 -0.31701,-1.62588v-14.16319c0,-0.57698 0.10567,-1.11879 0.31701,-1.62528c0.22455,-0.50662 0.51995,-0.94287 0.88619,-1.30875c0.38065,-0.37993 0.82375,-0.67545 1.33049,-0.88655c0.50554,-0.22515 1.04109,-0.33766 1.60307,-0.33766h10.72314c0.57758,0 1.11915,0.11251 1.62588,0.33766c0.50674,0.2111 0.94263,0.50662 1.30887,0.88655c0.37945,0.36588 0.67485,0.80213 0.88619,1.30875c0.22455,0.5065 0.33742,1.0483 0.33742,1.62528zM286.5424,307.13926v5.0448h10.72314v-5.0448zM328.25218,325.46082h-4.15837v-18.32156h-11.58772v18.32156h-4.13796v-22.47981h4.13796v3.96828c0.02762,-0.54877 0.1537,-1.06247 0.37945,-1.54087c0.22575,-0.49257 0.52115,-0.91465 0.88619,-1.26648c0.38065,-0.36588 0.81654,-0.64735 1.30887,-0.84428c0.49233,-0.2111 1.02068,-0.31665 1.58265,-0.31665h7.43055c0.57638,0 1.11915,0.11251 1.62588,0.33766c0.50554,0.2111 0.94263,0.50662 1.30767,0.88655c0.38065,0.36588 0.67605,0.80213 0.88739,1.30875c0.22455,0.5065 0.33742,1.0483 0.33742,1.62528zM335.17479,302.98101h4.13796v18.32144h11.58772v-18.32144h4.15837v22.47981h-4.15837v-3.79933c-0.04203,0.52115 -0.18252,1.01347 -0.42148,1.47698c-0.24016,0.46471 -0.54877,0.87298 -0.92942,1.22482c-0.36504,0.33742 -0.78772,0.6052 -1.26564,0.80213c-0.47912,0.19693 -0.98586,0.2954 -1.52021,0.2954h-7.45096c-0.56318,0 -1.09753,-0.10567 -1.60427,-0.31701c-0.50674,-0.22455 -0.94983,-0.51995 -1.33049,-0.88619c-0.36504,-0.37945 -0.66044,-0.82375 -0.88619,-1.32929c-0.21134,-0.50674 -0.31701,-1.0483 -0.31701,-1.62588z" fill="#000000"/></g></g></svg>