<svg version="1.1" xmlns="http://www.w3.org/2000/svg" xmlns:xlink="http://www.w3.org/1999/xlink" width="87.62291" height="34.25" viewBox="0,0,87.62291,34.25"><g transform="translate(-196.18854,-162.875)"><g data-paper-data="{&quot;isPaintingLayer&quot;:true}" fill-rule="nonzero" stroke="none" stroke-width="1" stroke-linecap="butt" stroke-linejoin="miter" stroke-miterlimit="10" stroke-dasharray="" stroke-dashoffset="0" style="mix-blend-mode: normal"><path d="M283.81146,166.69488v26.61022c0,2.10962 -1.62055,3.8199 -3.61954,3.8199h-80.38382c-1.99904,0 -3.61955,-1.71028 -3.61955,-3.8199v-26.61022c0,-2.10966 1.62052,-3.81988 3.61955,-3.81988h80.38382c1.99899,0 3.61954,1.71021 3.61954,3.81988z" fill="#27e3cd"/><path d="M222.26525,168.62052c0,-0.21117 0.04016,-0.40977 0.12062,-0.5958c0.08046,-0.19107 0.1911,-0.35446 0.33179,-0.49021c0.14083,-0.14077 0.30428,-0.2514 0.49018,-0.33184c0.1911,-0.08547 0.39218,-0.12821 0.60335,-0.12821h5.86747c0.21118,0 0.40986,0.04274 0.59592,0.12821c0.19096,0.08045 0.35693,0.19107 0.49777,0.33184c0.14069,0.13575 0.25134,0.29915 0.33179,0.49021c0.08046,0.18603 0.12062,0.38464 0.12062,0.5958v1.39522h-1.5461v-1.39522h-5.86747v7.72271h5.86747v-1.3877h1.5461v1.3877c0,0.21118 -0.04016,0.41225 -0.12062,0.60335c-0.08046,0.18604 -0.1911,0.34949 -0.33179,0.49018c-0.14083,0.14083 -0.30681,0.25148 -0.49777,0.33194c-0.18604,0.08046 -0.38473,0.12062 -0.59592,0.12062h-5.86747c-0.21118,0 -0.41225,-0.04016 -0.60335,-0.12062c-0.18591,-0.08046 -0.34935,-0.1911 -0.49018,-0.33194c-0.14069,-0.14069 -0.25134,-0.30414 -0.33179,-0.49018c-0.08046,-0.1911 -0.12062,-0.39218 -0.12062,-0.60335c0,0 0,-2.10301 0,-3.27888c0,-1.3689 0,-4.44383 0,-4.44383zM240.4936,176.40359c0,0.20613 -0.04029,0.39976 -0.12062,0.58075c-0.07554,0.181 -0.18114,0.33938 -0.31677,0.47501c-0.13073,0.13073 -0.28658,0.23631 -0.46758,0.31677c-0.17608,0.0754 -0.36704,0.11317 -0.57317,0.11317h-3.98971c-0.20108,0 -0.39204,-0.03778 -0.57317,-0.11317c-0.181,-0.08046 -0.33938,-0.18604 -0.47501,-0.31677c-0.13073,-0.13564 -0.23631,-0.29403 -0.31677,-0.47501c-0.0754,-0.181 -0.11317,-0.37463 -0.11317,-0.58075v-5.06053c0,-0.20614 0.03778,-0.39971 0.11317,-0.58071c0.08046,-0.18101 0.18604,-0.33686 0.31677,-0.46759c0.13564,-0.13575 0.29403,-0.24135 0.47501,-0.31676c0.18114,-0.08045 0.3721,-0.12066 0.57317,-0.12066h3.98971c0.20613,0 0.39709,0.04021 0.57317,0.12066c0.181,0.07541 0.33685,0.18101 0.46758,0.31676c0.13564,0.13073 0.24123,0.28658 0.31677,0.46759c0.08032,0.181 0.12062,0.37457 0.12062,0.58071zM235.02576,171.34308v5.06053h3.98971v-5.06053zM250.07922,176.40359c0,0.20613 -0.04029,0.39976 -0.12075,0.58075c-0.0754,0.181 -0.181,0.33938 -0.31677,0.47501c-0.13073,0.13073 -0.28658,0.23631 -0.46758,0.31677c-0.181,0.0754 -0.37449,0.11317 -0.58075,0.11317h-4.14038v3.243h-1.47814v-11.27495h1.47814v1.3575c0.01517,-0.19107 0.06543,-0.36703 0.15081,-0.52791c0.08552,-0.16593 0.19363,-0.30922 0.32436,-0.42989c0.13073,-0.1257 0.28152,-0.22374 0.45256,-0.29412c0.17594,-0.07039 0.36198,-0.10557 0.558,-0.10557h2.65466c0.20627,0 0.39976,0.04021 0.58075,0.12066c0.181,0.07541 0.33685,0.18101 0.46758,0.31676c0.13579,0.13073 0.24137,0.28658 0.31677,0.46759c0.08046,0.181 0.12075,0.37457 0.12075,0.58071zM248.59337,176.40359v-5.06053h-4.14038c0,0 0,1.80409 0,2.66942c0,0.81897 0,2.3911 0,2.3911zM253.09587,181.13231l1.68173,-3.96696c0,0 -0.99239,-2.30058 -1.50549,-3.49003c-0.53665,-1.24408 -1.64694,-3.81795 -1.64694,-3.81795h1.56112l2.34562,5.5281c0,0 0.84141,-1.98313 1.24337,-2.93052c0.37844,-0.89196 1.1021,-2.59758 1.1021,-2.59758h1.56112l-4.8645,11.27495zM220.56152,183.65674c0,-0.21117 0.04029,-0.40977 0.12075,-0.5958c0.08046,-0.19107 0.19096,-0.35446 0.33179,-0.49021c0.14083,-0.14077 0.30414,-0.2514 0.49018,-0.33184c0.1911,-0.08547 0.39218,-0.12821 0.60335,-0.12821h5.86747c0.21118,0 0.40972,0.04274 0.59578,0.12821c0.1911,0.08045 0.35708,0.19107 0.49777,0.33184c0.14083,0.13575 0.25148,0.29915 0.33179,0.49021c0.08046,0.18603 0.12075,0.38464 0.12075,0.5958v1.39522h-1.5461v-1.39522h-5.86747v7.72271h5.86747v-1.3877h1.5461v1.3877c0,0.21118 -0.04029,0.41225 -0.12075,0.60335c-0.08032,0.18604 -0.19096,0.34949 -0.33179,0.49018c-0.14069,0.14083 -0.30666,0.25148 -0.49777,0.33194c-0.18604,0.08046 -0.38459,0.12062 -0.59578,0.12062h-5.86747c-0.21118,0 -0.41225,-0.04016 -0.60335,-0.12062c-0.18604,-0.08046 -0.34935,-0.1911 -0.49018,-0.33194c-0.14083,-0.14069 -0.25134,-0.30414 -0.33179,-0.49018c-0.08046,-0.1911 -0.12075,-0.39218 -0.12075,-0.60335zM238.79001,191.43982c0,0.20613 -0.04029,0.39976 -0.12075,0.58075c-0.0754,0.181 -0.181,0.33938 -0.31677,0.47501c-0.13073,0.13073 -0.28658,0.23631 -0.46758,0.31677c-0.17594,0.0754 -0.36704,0.11317 -0.57317,0.11317h-3.98957c-0.20108,0 -0.39218,-0.03778 -0.57317,-0.11317c-0.181,-0.08046 -0.33938,-0.18604 -0.47516,-0.31677c-0.13073,-0.13564 -0.23631,-0.29403 -0.31677,-0.47501c-0.0754,-0.181 -0.11303,-0.37463 -0.11303,-0.58075v-5.06053c0,-0.20614 0.03763,-0.39971 0.11303,-0.58071c0.08046,-0.18101 0.18604,-0.33686 0.31677,-0.46759c0.13579,-0.13575 0.29417,-0.24135 0.47516,-0.31676c0.181,-0.08045 0.3721,-0.12066 0.57317,-0.12066h3.98957c0.20613,0 0.39723,0.04021 0.57317,0.12066c0.181,0.07541 0.33685,0.18101 0.46758,0.31676c0.13579,0.13073 0.24137,0.28658 0.31677,0.46759c0.08046,0.181 0.12075,0.37457 0.12075,0.58071zM233.32217,186.37931v5.06053h3.98957v-5.06053zM241.27113,186.37931c0,-0.20614 0.03778,-0.39971 0.11317,-0.58071c0.08046,-0.18101 0.18604,-0.33686 0.31677,-0.46759c0.13579,-0.13575 0.29417,-0.24135 0.47516,-0.31676c0.181,-0.08045 0.3721,-0.12066 0.57317,-0.12066h4.14038v-3.09212h1.48571v11.12407h-1.48571v-1.35752c-0.01502,0.18604 -0.06529,0.36198 -0.15081,0.52796c-0.08552,0.16583 -0.19616,0.31172 -0.33179,0.43739c-0.13073,0.12062 -0.28167,0.21623 -0.45256,0.28658c-0.17088,0.07035 -0.35202,0.10559 -0.54298,0.10559h-2.66224c-0.20108,0 -0.39218,-0.03778 -0.57317,-0.11317c-0.181,-0.08046 -0.33938,-0.18604 -0.47516,-0.31677c-0.13073,-0.13564 -0.23631,-0.29403 -0.31677,-0.47501c-0.0754,-0.181 -0.11317,-0.37463 -0.11317,-0.58075zM242.7494,191.43982h4.14038v-5.06053h-4.14038zM257.64434,189.66753h-5.3169v1.7723h5.3169v1.48571h-5.3169c-0.20121,0 -0.39218,-0.03778 -0.57317,-0.11317c-0.181,-0.08046 -0.33938,-0.18604 -0.47516,-0.31677c-0.13073,-0.13564 -0.23631,-0.29403 -0.31677,-0.47501c-0.0754,-0.181 -0.11317,-0.37463 -0.11317,-0.58075v-5.06053c0,-0.20614 0.03778,-0.39971 0.11317,-0.58071c0.08046,-0.18101 0.18604,-0.33686 0.31677,-0.46759c0.13579,-0.13575 0.29417,-0.24135 0.47516,-0.31676c0.181,-0.08045 0.37196,-0.12066 0.57317,-0.12066h3.83119c0.20613,0 0.39976,0.04021 0.58075,0.12066c0.181,0.07541 0.33685,0.18101 0.46758,0.31676c0.13564,0.13073 0.24123,0.28658 0.31677,0.46759c0.08032,0.181 0.12062,0.37457 0.12062,0.58071zM252.32744,186.37931v1.80247h3.83119v-1.80247z" fill="#ffffff"/></g></g></svg>