<svg version="1.1" xmlns="http://www.w3.org/2000/svg" xmlns:xlink="http://www.w3.org/1999/xlink" width="113.49" height="30" viewBox="0,0,113.49,30"><g transform="translate(-183,-165)"><g data-paper-data="{&quot;isPaintingLayer&quot;:true}" fill-rule="nonzero" stroke="none" stroke-width="1" stroke-linecap="butt" stroke-linejoin="miter" stroke-miterlimit="10" stroke-dasharray="" stroke-dashoffset="0" style="mix-blend-mode: normal"><path d="M296.49,168.11807v23.76383c0,1.7221 -0.672,3.1181 -1.5,3.1181h-110.49c-0.82843,0 -1.5,-1.396 -1.5,-3.1181v-23.76383c0,-1.72206 0.67157,-3.11807 1.5,-3.11807h110.49c0.828,0 1.5,1.39601 1.5,3.11807z" fill="#4fa1ff"/><path d="M216.7485,180.5049c-0.3418,0 -0.6673,-0.0651 -0.9765,-0.1953c-0.3011,-0.1384 -0.5656,-0.3174 -0.7935,-0.5371c-0.2278,-0.2279 -0.4069,-0.4924 -0.5371,-0.7935c-0.1302,-0.3092 -0.1953,-0.6348 -0.1953,-0.9766v-5.00484c0,-0.3418 0.0651,-0.66325 0.1953,-0.96436c0.1302,-0.30924 0.3093,-0.57373 0.5371,-0.79345c0.2279,-0.22787 0.4924,-0.4069 0.7935,-0.53711c0.3092,-0.13835 0.6347,-0.20752 0.9765,-0.20752h8.4961c0.3418,0 0.6633,0.06917 0.9644,0.20752c0.3092,0.13021 0.5778,0.30924 0.8056,0.53711c0.2279,0.21972 0.4069,0.48421 0.5372,0.79345c0.1302,0.30111 0.1953,0.62256 0.1953,0.96436v2.25834h-2.5025v-2.25834h-8.4961v5.00484h8.4961c0.3418,0 0.6633,0.0651 0.9644,0.1954c0.3092,0.1302 0.5778,0.3092 0.8056,0.5371c0.2279,0.2278 0.4069,0.4964 0.5372,0.8056c0.1302,0.3011 0.1953,0.6226 0.1953,0.9644v4.9927c0,0.3418 -0.0651,0.6673 -0.1953,0.9765c-0.1303,0.3011 -0.3093,0.5656 -0.5372,0.7935c-0.2278,0.2278 -0.4964,0.4069 -0.8056,0.5371c-0.3011,0.1302 -0.6226,0.1953 -0.9644,0.1953h-8.7402c-0.3418,0 -0.6673,-0.0651 -0.9766,-0.1953c-0.3011,-0.1302 -0.5656,-0.3093 -0.7934,-0.5371c-0.2279,-0.2279 -0.4069,-0.4924 -0.5371,-0.7935c-0.1302,-0.3092 -0.1953,-0.6347 -0.1953,-0.9765v-2.2461h2.5024v2.2461h8.7402v-4.9927zM240.6133,188l-6.2012,-5.5542v5.5542h-2.3926v-18.00537h2.3926v10.13187l5.7007,-5.12699h3.3813l-6.9824,6.27439l7.4829,6.7261zM248.2671,174.99951v13.00049h-2.4048v-13.00049zM245.7402,169.99463h2.649v2.50244h-2.649zM263.9043,185.5952c0,0.3337 -0.0651,0.647 -0.1953,0.94c-0.1221,0.2929 -0.293,0.5493 -0.5127,0.769c-0.2116,0.2116 -0.4639,0.3825 -0.7568,0.5127c-0.293,0.1221 -0.6063,0.1831 -0.94,0.1831h-6.7016v5.249h-2.3926v-18.24949h2.3926v2.19729c0.0244,-0.3093 0.1057,-0.5941 0.2441,-0.8545c0.1383,-0.2686 0.3133,-0.5005 0.5249,-0.6958c0.2116,-0.2035 0.4557,-0.3622 0.7324,-0.4761c0.2848,-0.1139 0.586,-0.17089 0.9033,-0.17089h4.2969c0.3337,0 0.647,0.06509 0.94,0.19529c0.2929,0.1221 0.5452,0.293 0.7568,0.5127c0.2197,0.2116 0.3906,0.4639 0.5127,0.7569c0.1302,0.2929 0.1953,0.6062 0.1953,0.9399zM261.4995,185.5952v-8.1909h-6.7016v8.1909z" fill="#ffffff"/></g></g></svg>