<svg version="1.1" xmlns="http://www.w3.org/2000/svg" xmlns:xlink="http://www.w3.org/1999/xlink" width="135.25783" height="17.98805" viewBox="0,0,135.25783,17.98805"><g transform="translate(-239.93917,-166.78974)"><g data-paper-data="{&quot;isPaintingLayer&quot;:true}" fill="#83a837" fill-rule="nonzero" stroke="none" stroke-width="1" stroke-linecap="butt" stroke-linejoin="miter" stroke-miterlimit="10" stroke-dasharray="" stroke-dashoffset="0" style="mix-blend-mode: normal"><path d="M251.32957,175.6557c0.36586,0.11385 0.6992,0.27644 1,0.48782c0.30084,0.21138 0.55692,0.48374 0.76834,0.81709c0.21138,0.32523 0.37397,0.7114 0.48778,1.15855c0.11385,0.44715 0.17075,0.95937 0.17075,1.5366v0.87807c0,2.82932 -1.41468,4.24395 -4.24395,4.24395h-9.57331v-17.48804h9.0733c2.82932,0 4.24395,1.41873 4.24395,4.25616v0.31707c0,0.98376 -0.15851,1.78865 -0.47563,2.41467c-0.30895,0.6179 -0.7927,1.07725 -1.45123,1.37805zM242.39043,177.15576v5.17077h7.04888c0.65853,0 1.13416,-0.15448 1.42683,-0.46343c0.29272,-0.30891 0.43904,-0.79265 0.43904,-1.45123v-1.35365c0,-0.66669 -0.14632,-1.15043 -0.43904,-1.45127c-0.29268,-0.30079 -0.7683,-0.45119 -1.42683,-0.45119zM242.39043,169.74102v4.97567h6.71961c0.60163,-0.02439 1.03251,-0.18699 1.29267,-0.48782c0.26832,-0.30895 0.40245,-0.7805 0.40245,-1.41464v-1.14635c0,-0.66669 -0.14632,-1.15451 -0.43899,-1.46347c-0.29272,-0.30895 -0.7683,-0.46339 -1.42688,-0.46339zM257.25649,171.7898h2.39028v10.58552h6.69522v-10.58552h2.40244v12.98799h-2.40244v-2.19514c-0.02439,0.30079 -0.10569,0.58535 -0.24393,0.85364c-0.1382,0.26832 -0.31707,0.5041 -0.53657,0.70736c-0.21142,0.1951 -0.45531,0.34958 -0.73175,0.46339c-0.2764,0.11385 -0.56908,0.17075 -0.87803,0.17075h-4.30494c-0.32523,0 -0.63418,-0.06098 -0.92686,-0.18295c-0.29268,-0.13008 -0.54876,-0.30079 -0.7683,-0.51217c-0.21138,-0.21954 -0.38213,-0.47563 -0.51222,-0.7683c-0.12192,-0.29272 -0.18291,-0.60571 -0.18291,-0.93905zM275.13477,174.19228v10.58552h-2.39028v-12.98799h2.39028v2.29271c0.01628,-0.31707 0.08941,-0.61383 0.21954,-0.89023c0.13004,-0.28456 0.30079,-0.52849 0.51217,-0.73171c0.21954,-0.21142 0.47155,-0.37401 0.75611,-0.48782c0.28456,-0.12197 0.58943,-0.18295 0.91466,-0.18295h2.54884c0.33343,0 0.6423,0.06506 0.92661,0.19515c0.29305,0.12192 0.54905,0.29268 0.76843,0.51217c0.21979,0.21142 0.39046,0.46343 0.51242,0.75615c0.12987,0.29268 0.19481,0.60567 0.19481,0.93901v2.19518h-2.40227v-2.19518zM296.96442,184.77779h-2.40269v-10.58552h-6.69522v10.58552h-2.3902v-12.98799h2.3902v2.29271c0.01623,-0.31707 0.0895,-0.61383 0.21979,-0.89023c0.12987,-0.28456 0.30054,-0.52849 0.51201,-0.73171c0.21937,-0.21142 0.47163,-0.37401 0.75636,-0.48782c0.28431,-0.12197 0.58943,-0.18295 0.91454,-0.18295h4.29253c0.33343,0 0.64646,0.06506 0.9391,0.19515c0.29263,0.12192 0.54489,0.29268 0.75636,0.51217c0.21937,0.21142 0.39004,0.46343 0.51201,0.75615c0.13029,0.29268 0.19523,0.60567 0.19523,0.93901zM311.19613,167.28975v14.98799h8.98801v2.50005h-11.4881v-17.48804zM325.46489,171.7898v12.98799h-2.40269v-12.98799zM322.94024,166.78974h2.64662v2.50005h-2.64662zM339.89183,174.19228v10.58552h-2.40269v-10.58552h-5.50012v10.58552h-2.3902v-12.98799h2.3902v2.29271c0.01623,-0.31707 0.0895,-0.61383 0.21979,-0.89023c0.12987,-0.28456 0.30054,-0.52849 0.51201,-0.73171c0.21979,-0.21142 0.47163,-0.37401 0.75636,-0.48782c0.28431,-0.12197 0.58943,-0.18295 0.91454,-0.18295h3.09743c0.31719,0 0.61815,0.06098 0.90246,0.18295c0.28473,0.11381 0.53657,0.2764 0.75636,0.48782c0.21937,0.20322 0.3942,0.44715 0.52408,0.73171c0.1382,0.2764 0.21146,0.57316 0.21979,0.89023c0.01623,-0.31707 0.08533,-0.61383 0.2073,-0.89023c0.12987,-0.28456 0.30096,-0.52849 0.51201,-0.73171c0.21979,-0.21142 0.47163,-0.37401 0.75636,-0.48782c0.28431,-0.12197 0.58943,-0.18295 0.91454,-0.18295h3.09743c0.33343,0 0.64646,0.06506 0.9391,0.19515c0.29263,0.12192 0.54489,0.29268 0.75636,0.51217c0.21937,0.21142 0.39004,0.46343 0.51201,0.75615c0.13029,0.29268 0.19523,0.60567 0.19523,0.93901v10.58552h-2.40269v-10.58552zM354.31877,171.7898v12.98799h-2.40227v-12.98799zM351.79454,166.78974h2.6462v2.50005h-2.6462zM357.69677,171.7898h3.1707v-4.00004h2.40269v4.00004h4.26839v2.40248h-4.26839v8.18304h4.26839v2.40248h-4.26839c-0.3251,0 -0.63439,-0.06098 -0.92702,-0.18295c-0.29263,-0.13008 -0.54864,-0.30079 -0.76801,-0.51217c-0.21979,-0.21954 -0.39462,-0.47563 -0.52449,-0.7683c-0.12197,-0.29272 -0.18316,-0.60571 -0.18316,-0.93905v-8.18304h-3.1707zM371.55051,181.13139h3.64649v3.64641h-3.64649zM371.55051,171.7898h3.64649v3.64641h-3.64649z"/></g></g></svg>