<svg version="1.1" xmlns="http://www.w3.org/2000/svg" xmlns:xlink="http://www.w3.org/1999/xlink" width="167.69039" height="14.45262" viewBox="0,0,167.69039,14.45262"><g transform="translate(-156.1548,-172.77369)"><g data-paper-data="{&quot;isPaintingLayer&quot;:true}" fill="#57a71a" fill-rule="nonzero" stroke="#57a71a" stroke-width="0.5" stroke-linecap="butt" stroke-linejoin="miter" stroke-miterlimit="10" stroke-dasharray="" stroke-dashoffset="0" style="mix-blend-mode: normal"><path d="M156.4048,174.82545c0,-0.20508 0.03906,-0.39795 0.11719,-0.57862c0.07812,-0.18554 0.18554,-0.34424 0.32226,-0.47607c0.13672,-0.13672 0.29541,-0.24414 0.47608,-0.32227c0.18554,-0.08301 0.38086,-0.12451 0.58593,-0.12451h5.69825c0.20507,0 0.39795,0.0415 0.57861,0.12451c0.18555,0.07813 0.34668,0.18555 0.4834,0.32227c0.13672,0.13183 0.24414,0.29053 0.32227,0.47607c0.0781,0.18067 0.1172,0.37354 0.1172,0.57862v1.35498h-1.50148v-1.35498h-5.69825v7.49996h5.69825v-2.54879h-2.84912v-1.50147h4.3506v4.05026c0,0.2051 -0.0391,0.4004 -0.1172,0.586c-0.07813,0.1806 -0.18555,0.3393 -0.32227,0.476c-0.13672,0.1368 -0.29785,0.2442 -0.4834,0.3223c-0.18066,0.0781 -0.37354,0.1172 -0.57861,0.1172h-5.69825c-0.20507,0 -0.40039,-0.0391 -0.58593,-0.1172c-0.18067,-0.0781 -0.33936,-0.1855 -0.47608,-0.3223c-0.13672,-0.1367 -0.24414,-0.2954 -0.32226,-0.476c-0.07813,-0.1856 -0.11719,-0.3809 -0.11719,-0.586zM174.25389,180.66285h-5.1635v1.72116h5.1635v1.4429h-5.1635c-0.1954,0 -0.3809,-0.0366 -0.5567,-0.1099c-0.1758,-0.0781 -0.3296,-0.1806 -0.4614,-0.3076c-0.127,-0.1318 -0.2295,-0.2856 -0.3076,-0.4614c-0.0733,-0.1758 -0.1099,-0.3638 -0.1099,-0.564v-4.91452c0,-0.2002 0.0366,-0.38819 0.1099,-0.56397c0.0781,-0.17578 0.1806,-0.32715 0.3076,-0.4541c0.1318,-0.13183 0.2856,-0.23437 0.4614,-0.30762c0.1758,-0.07812 0.3613,-0.11718 0.5567,-0.11718h3.7207c0.2002,0 0.3881,0.03906 0.5639,0.11718c0.1758,0.07325 0.3272,0.17579 0.4541,0.30762c0.1319,0.12695 0.2344,0.27832 0.3076,0.4541c0.0782,0.17578 0.1172,0.36377 0.1172,0.56397zM169.09039,177.46949v1.75049h3.7207v-1.75049zM183.56299,183.82691h-1.4429v-6.35742h-4.021v6.35742h-1.4355v-7.80029h1.4355v1.37695c0.0098,-0.19043 0.0538,-0.36865 0.1319,-0.53467c0.0781,-0.1709 0.1806,-0.31738 0.3076,-0.43945c0.1318,-0.12695 0.2832,-0.22461 0.4541,-0.29297c0.1709,-0.07324 0.354,-0.10986 0.5493,-0.10986h2.5781c0.2002,0 0.3882,0.03906 0.564,0.11718c0.1758,0.07325 0.3272,0.17579 0.4541,0.30762c0.1318,0.12695 0.2344,0.27832 0.3076,0.4541c0.0782,0.17578 0.1172,0.36377 0.1172,0.56397zM192.56451,180.66285h-5.1636v1.72116h5.1636v1.4429h-5.1636c-0.1953,0 -0.3809,-0.0366 -0.5566,-0.1099c-0.1758,-0.0781 -0.3296,-0.1806 -0.4615,-0.3076c-0.1269,-0.1318 -0.2295,-0.2856 -0.3076,-0.4614c-0.0732,-0.1758 -0.1098,-0.3638 -0.1098,-0.564v-4.91452c0,-0.2002 0.0366,-0.38819 0.1098,-0.56397c0.0781,-0.17578 0.1807,-0.32715 0.3076,-0.4541c0.1319,-0.13183 0.2857,-0.23437 0.4615,-0.30762c0.1757,-0.07812 0.3613,-0.11718 0.5566,-0.11718h3.7207c0.2002,0 0.3882,0.03906 0.564,0.11718c0.1758,0.07325 0.3271,0.17579 0.4541,0.30762c0.1318,0.12695 0.2343,0.27832 0.3076,0.4541c0.0781,0.17578 0.1172,0.36377 0.1172,0.56397zM187.4009,177.46949v1.75049h3.7207v-1.75049zM196.40969,177.46949v6.35742h-1.4356v-7.80029h1.4356v1.37695c0.0098,-0.19043 0.0537,-0.36865 0.1318,-0.53467c0.0782,-0.1709 0.1807,-0.31738 0.3076,-0.43945c0.1319,-0.12695 0.2832,-0.22461 0.4541,-0.29297c0.1709,-0.07324 0.3541,-0.10986 0.5494,-0.10986h1.5307c0.2002,0 0.3858,0.03906 0.5567,0.11718c0.1757,0.07325 0.3296,0.17579 0.4614,0.30762c0.1318,0.12695 0.2344,0.27832 0.3076,0.4541c0.0781,0.17578 0.1172,0.36377 0.1172,0.56397v1.31836h-1.4429v-1.31836zM202.62059,180.42115c0,-0.2002 0.0367,-0.38574 0.1099,-0.55664c0.0781,-0.17578 0.1807,-0.32959 0.3076,-0.46143c0.1318,-0.13183 0.2857,-0.23437 0.4614,-0.30762c0.1758,-0.07812 0.3614,-0.11718 0.5567,-0.11718h3.7207v-1.50879h-4.7095v-1.44287h4.7095c0.2002,0 0.3882,0.03906 0.5639,0.11718c0.1758,0.07325 0.3272,0.17579 0.4541,0.30762c0.1319,0.12695 0.2344,0.27832 0.3077,0.4541c0.0781,0.17578 0.1172,0.36377 0.1172,0.56397v6.35742h-1.4429v-1.3184c-0.0147,0.1807 -0.0635,0.3516 -0.1465,0.5127c-0.083,0.1612 -0.1904,0.3028 -0.3223,0.4248c-0.1269,0.1172 -0.2734,0.21 -0.4394,0.2784c-0.166,0.0683 -0.3418,0.1025 -0.5274,0.1025h-2.2851c-0.1953,0 -0.3809,-0.0366 -0.5567,-0.1099c-0.1757,-0.0781 -0.3296,-0.1806 -0.4614,-0.3076c-0.1269,-0.1318 -0.2295,-0.2856 -0.3076,-0.4614c-0.0732,-0.1758 -0.1099,-0.3638 -0.1099,-0.564zM204.05619,182.38401h3.7207v-1.96286h-3.7207zM211.17529,176.02662h1.9043v-2.40235h1.4429v2.40235h2.5635v1.44287h-2.5635v4.91452h2.5635v1.4429h-2.5635c-0.1953,0 -0.3809,-0.0366 -0.5567,-0.1099c-0.1757,-0.0781 -0.3295,-0.1806 -0.4614,-0.3076c-0.1318,-0.1318 -0.2368,-0.2856 -0.3149,-0.4614c-0.0733,-0.1758 -0.1099,-0.3638 -0.1099,-0.564v-4.91452h-1.9043zM221.01169,176.02662v7.80029h-1.4428v-7.80029zM219.49559,173.02369h1.5894v1.50146h-1.5894zM230.3941,183.82691h-1.4429v-6.35742h-4.021v6.35742h-1.4355v-7.80029h1.4355v1.37695c0.0098,-0.19043 0.0537,-0.36865 0.1318,-0.53467c0.0782,-0.1709 0.1807,-0.31738 0.3077,-0.43945c0.1318,-0.12695 0.2832,-0.22461 0.4541,-0.29297c0.1709,-0.07324 0.354,-0.10986 0.5493,-0.10986h2.5781c0.2002,0 0.3882,0.03906 0.564,0.11718c0.1757,0.07325 0.3271,0.17579 0.4541,0.30762c0.1318,0.12695 0.2343,0.27832 0.3076,0.4541c0.0781,0.17578 0.1172,0.36377 0.1172,0.56397zM232.7964,177.46949c0,-0.2002 0.0366,-0.38819 0.1099,-0.56397c0.0781,-0.17578 0.1806,-0.32715 0.3076,-0.4541c0.1318,-0.13183 0.2856,-0.23437 0.4614,-0.30762c0.1758,-0.07812 0.3613,-0.11718 0.5567,-0.11718h2.5854c0.1904,0 0.3711,0.03662 0.542,0.10986c0.1709,0.06836 0.3198,0.16602 0.4468,0.29297c0.1318,0.12207 0.2368,0.26855 0.3149,0.43945c0.083,0.16602 0.127,0.34424 0.1319,0.53467v-1.37695h1.4428v9.50679c0,0.2002 -0.039,0.3882 -0.1172,0.564c-0.0732,0.1758 -0.1757,0.3272 -0.3076,0.4541c-0.1269,0.1318 -0.2783,0.2344 -0.4541,0.3076c-0.1758,0.0782 -0.3638,0.1172 -0.5639,0.1172h-4.5557v-1.4429h4.5557v-2.0068h-4.021c-0.1954,0 -0.3809,-0.0366 -0.5567,-0.1099c-0.1758,-0.0781 -0.3296,-0.1806 -0.4614,-0.3076c-0.127,-0.1318 -0.2295,-0.2856 -0.3076,-0.4614c-0.0733,-0.1758 -0.1099,-0.3638 -0.1099,-0.564zM238.253,182.08371v-4.61422h-4.021v4.61422zM248.84379,183.82691l-3.003,-10.50293h1.5015l2.3291,8.35693l2.3218,-8.35693h1.5015l2.3215,8.35693l2.329,-8.35693h1.502l-3.003,10.50293h-1.648l-2.2486,-7.87354l-2.2559,7.87354zM267.59421,182.38401c0,0.2002 -0.039,0.3882 -0.118,0.564c-0.073,0.1758 -0.175,0.3296 -0.307,0.4614c-0.127,0.127 -0.279,0.2295 -0.454,0.3076c-0.171,0.0733 -0.357,0.1099 -0.557,0.1099h-3.874c-0.196,0 -0.381,-0.0366 -0.557,-0.1099c-0.176,-0.0781 -0.33,-0.1806 -0.462,-0.3076c-0.127,-0.1318 -0.229,-0.2856 -0.307,-0.4614c-0.073,-0.1758 -0.11,-0.3638 -0.11,-0.564v-4.91452c0,-0.2002 0.037,-0.38819 0.11,-0.56397c0.078,-0.17578 0.18,-0.32715 0.307,-0.4541c0.132,-0.13183 0.286,-0.23437 0.462,-0.30762c0.176,-0.07812 0.361,-0.11718 0.557,-0.11718h3.874c0.2,0 0.386,0.03906 0.557,0.11718c0.175,0.07325 0.327,0.17579 0.454,0.30762c0.132,0.12695 0.234,0.27832 0.307,0.4541c0.079,0.17578 0.118,0.36377 0.118,0.56397zM262.28421,177.46949v4.91452h3.874v-4.91452zM271.4392,177.46949v6.35742h-1.436v-7.80029h1.436v1.37695c0.01,-0.19043 0.053,-0.36865 0.132,-0.53467c0.078,-0.1709 0.18,-0.31738 0.307,-0.43945c0.132,-0.12695 0.283,-0.22461 0.454,-0.29297c0.171,-0.07324 0.354,-0.10986 0.55,-0.10986h1.53c0.201,0 0.386,0.03906 0.557,0.11718c0.176,0.07325 0.33,0.17579 0.461,0.30762c0.132,0.12695 0.235,0.27832 0.308,0.4541c0.078,0.17578 0.117,0.36377 0.117,0.56397v1.31836h-1.443v-1.31836zM282.80622,183.82691l-3.721,-3.33252v3.33252h-1.435v-10.80322h1.435v6.0791l3.421,-3.07617h2.028l-4.189,3.76465l4.49,4.03564zM292.62822,182.38401c0,0.2002 -0.039,0.3882 -0.117,0.564c-0.074,0.1758 -0.176,0.3296 -0.308,0.4614c-0.127,0.127 -0.278,0.2295 -0.454,0.3076c-0.171,0.0733 -0.357,0.1099 -0.557,0.1099h-3.874c-0.196,0 -0.381,-0.0366 -0.557,-0.1099c-0.176,-0.0781 -0.33,-0.1806 -0.461,-0.3076c-0.127,-0.1318 -0.23,-0.2856 -0.308,-0.4614c-0.073,-0.1758 -0.11,-0.3638 -0.11,-0.564v-4.91452c0,-0.2002 0.037,-0.38819 0.11,-0.56397c0.078,-0.17578 0.181,-0.32715 0.308,-0.4541c0.131,-0.13183 0.285,-0.23437 0.461,-0.30762c0.176,-0.07812 0.361,-0.11718 0.557,-0.11718h3.874c0.2,0 0.386,0.03906 0.557,0.11718c0.176,0.07325 0.327,0.17579 0.454,0.30762c0.132,0.12695 0.234,0.27832 0.308,0.4541c0.078,0.17578 0.117,0.36377 0.117,0.56397zM287.3182,177.46949v4.91452h3.874v-4.91452zM295.03722,176.02662h1.436v6.35739h4.021v-6.35739h1.443v7.80029h-1.443v-1.3184c-0.015,0.1807 -0.064,0.3516 -0.147,0.5127c-0.083,0.1612 -0.19,0.3028 -0.322,0.4248c-0.127,0.1172 -0.273,0.21 -0.439,0.2784c-0.166,0.0683 -0.342,0.1025 -0.528,0.1025h-2.585c-0.195,0 -0.381,-0.0366 -0.557,-0.1099c-0.175,-0.0781 -0.329,-0.1806 -0.461,-0.3076c-0.127,-0.1318 -0.23,-0.2856 -0.308,-0.4614c-0.073,-0.1758 -0.11,-0.3638 -0.11,-0.564zM303.8852,176.02662h1.904v-2.40235h1.443v2.40235h2.564v1.44287h-2.564v4.91452h2.564v1.4429h-2.564c-0.195,0 -0.381,-0.0366 -0.556,-0.1099c-0.176,-0.0781 -0.33,-0.1806 -0.462,-0.3076c-0.132,-0.1318 -0.237,-0.2856 -0.315,-0.4614c-0.073,-0.1758 -0.11,-0.3638 -0.11,-0.564v-4.91452h-1.904zM312.20522,181.63697h2.19v2.18994h-2.19zM316.80521,181.63697h2.19v2.18994h-2.19zM321.4052,181.63697h2.19v2.18994h-2.19z"/></g></g></svg>