<svg version="1.1" xmlns="http://www.w3.org/2000/svg" xmlns:xlink="http://www.w3.org/1999/xlink" width="72.05764" height="11.00293" viewBox="0,0,72.05764,11.00293"><g transform="translate(-209.98682,-174.49854)"><g data-paper-data="{&quot;isPaintingLayer&quot;:true}" fill="#87bf3d" fill-rule="nonzero" stroke="#87bf3d" stroke-width="0.5" stroke-linecap="butt" stroke-linejoin="miter" stroke-miterlimit="10" stroke-dasharray="" stroke-dashoffset="0" style="mix-blend-mode: normal"><path d="M210.23682,174.74854h7.6538v1.50147h-6.15234v3.00292h5.25147v1.50147h-5.25147v4.49707h-1.50146zM226.59176,183.8086c0,0.20019 -0.039,0.38818 -0.1172,0.56397c-0.0732,0.1758 -0.1757,0.3296 -0.3076,0.4614c-0.1269,0.127 -0.2783,0.2295 -0.4541,0.3076c-0.1709,0.0733 -0.3564,0.1099 -0.5566,0.1099h-3.8745c-0.1953,0 -0.3809,-0.0366 -0.5567,-0.1099c-0.1757,-0.0781 -0.3296,-0.1806 -0.4614,-0.3076c-0.1269,-0.1318 -0.2295,-0.2856 -0.3076,-0.4614c-0.07325,-0.17579 -0.10987,-0.36378 -0.10987,-0.56397v-4.91455c0,-0.2002 0.03662,-0.38819 0.10987,-0.56397c0.0781,-0.17578 0.1807,-0.32715 0.3076,-0.4541c0.1318,-0.13183 0.2857,-0.23437 0.4614,-0.30762c0.1758,-0.07812 0.3614,-0.11718 0.5567,-0.11718h3.8745c0.2002,0 0.3857,0.03906 0.5566,0.11718c0.1758,0.07325 0.3272,0.17579 0.4541,0.30762c0.1319,0.12695 0.2344,0.27832 0.3076,0.4541c0.0782,0.17578 0.1172,0.36377 0.1172,0.56397zM221.28176,178.89405v4.91455h3.8745v-4.91455zM230.43706,178.89405v6.35742h-1.4356v-7.80029h1.4356v1.37695c0.0097,-0.19043 0.0537,-0.36865 0.1318,-0.53467c0.0781,-0.1709 0.1807,-0.31738 0.3076,-0.43945c0.1318,-0.12695 0.2832,-0.22461 0.4541,-0.29297c0.1709,-0.07324 0.354,-0.10986 0.5493,-0.10986h1.5308c0.2002,0 0.3857,0.03906 0.5566,0.11718c0.1758,0.07325 0.3296,0.17579 0.4615,0.30762c0.1318,0.12695 0.2343,0.27832 0.3076,0.4541c0.0781,0.17578 0.1172,0.36377 0.1172,0.56397v1.31836h-1.4429v-1.31836zM243.24706,182.08741h-5.1636v1.72119h5.1636v1.44287h-5.1636c-0.1953,0 -0.3808,-0.0366 -0.5566,-0.1099c-0.1758,-0.0781 -0.3296,-0.1806 -0.4614,-0.3076c-0.127,-0.1318 -0.2295,-0.2856 -0.3076,-0.4614c-0.0733,-0.17579 -0.1099,-0.36378 -0.1099,-0.56397v-4.91455c0,-0.2002 0.0366,-0.38819 0.1099,-0.56397c0.0781,-0.17578 0.1806,-0.32715 0.3076,-0.4541c0.1318,-0.13183 0.2856,-0.23437 0.4614,-0.30762c0.1758,-0.07812 0.3613,-0.11718 0.5566,-0.11718h3.7207c0.2002,0 0.3882,0.03906 0.564,0.11718c0.1758,0.07325 0.3272,0.17579 0.4541,0.30762c0.1318,0.12695 0.2344,0.27832 0.3076,0.4541c0.0781,0.17578 0.1172,0.36377 0.1172,0.56397zM238.08346,178.89405v1.75049h3.7207v-1.75049zM245.65676,181.84571c0,-0.2002 0.0366,-0.38574 0.1098,-0.55664c0.0782,-0.17578 0.1807,-0.32959 0.3077,-0.46143c0.1318,-0.13183 0.2856,-0.23437 0.4614,-0.30762c0.1758,-0.07812 0.3613,-0.11718 0.5566,-0.11718h3.7207v-1.50879h-4.7094v-1.44287h4.7094c0.2002,0 0.3882,0.03906 0.564,0.11718c0.1758,0.07325 0.3271,0.17579 0.4541,0.30762c0.1318,0.12695 0.2344,0.27832 0.3076,0.4541c0.0781,0.17578 0.1172,0.36377 0.1172,0.56397v6.35742h-1.4429v-1.31836c-0.0146,0.18066 -0.0634,0.35156 -0.1465,0.51266c-0.083,0.1612 -0.1904,0.3028 -0.3222,0.4248c-0.127,0.1172 -0.2735,0.21 -0.4395,0.2784c-0.166,0.0683 -0.3418,0.1025 -0.5273,0.1025h-2.2852c-0.1953,0 -0.3808,-0.0366 -0.5566,-0.1099c-0.1758,-0.0781 -0.3296,-0.1806 -0.4614,-0.3076c-0.127,-0.1318 -0.2295,-0.2856 -0.3077,-0.4614c-0.0732,-0.17579 -0.1098,-0.36378 -0.1098,-0.56397zM247.09226,183.8086h3.7207v-1.96289h-3.7207zM256.10106,178.89405v6.35742h-1.4355v-7.80029h1.4355v1.37695c0.0098,-0.19043 0.0537,-0.36865 0.1319,-0.53467c0.0781,-0.1709 0.1806,-0.31738 0.3076,-0.43945c0.1318,-0.12695 0.2832,-0.22461 0.4541,-0.29297c0.1709,-0.07324 0.354,-0.10986 0.5493,-0.10986h1.5307c0.2002,0 0.3858,0.03906 0.5567,0.11718c0.1758,0.07325 0.3296,0.17579 0.4614,0.30762c0.1318,0.12695 0.2344,0.27832 0.3076,0.4541c0.0782,0.17578 0.1172,0.36377 0.1172,0.56397v1.31836h-1.4429v-1.31836zM268.49366,178.89405v6.35742h-1.4429v-6.35742h-3.3032v6.35742h-1.4355v-7.80029h1.4355v1.37695c0.0098,-0.19043 0.0537,-0.36865 0.1318,-0.53467c0.0782,-0.1709 0.1807,-0.31738 0.3077,-0.43945c0.1318,-0.12695 0.2832,-0.22461 0.4541,-0.29297c0.1709,-0.07324 0.354,-0.10986 0.5493,-0.10986h1.8603c0.1905,0 0.3711,0.03662 0.542,0.10986c0.1709,0.06836 0.3223,0.16602 0.4541,0.29297c0.1319,0.12207 0.2368,0.26855 0.315,0.43945c0.083,0.16602 0.1269,0.34424 0.1318,0.53467c0.0098,-0.19043 0.0513,-0.36865 0.1245,-0.53467c0.0781,-0.1709 0.1807,-0.31738 0.3076,-0.43945c0.1319,-0.12695 0.2832,-0.22461 0.4541,-0.29297c0.1709,-0.07324 0.354,-0.10986 0.5493,-0.10986h1.8604c0.2002,0 0.3882,0.03906 0.564,0.11718c0.1757,0.07325 0.3271,0.17579 0.4541,0.30762c0.1318,0.12695 0.2343,0.27832 0.3076,0.4541c0.0781,0.17578 0.1172,0.36377 0.1172,0.56397v6.35742h-1.4429v-6.35742zM280.35156,183.8086v-1.80908h-3.4204c-0.2002,0 -0.3882,-0.03662 -0.564,-0.10987c-0.1758,-0.07812 -0.3296,-0.18066 -0.4614,-0.30761c-0.127,-0.13184 -0.2295,-0.28565 -0.3076,-0.46143c-0.0733,-0.17578 -0.1099,-0.36377 -0.1099,-0.56396v-1.6626c0,-0.2002 0.0366,-0.38819 0.1099,-0.56397c0.0781,-0.17578 0.1806,-0.32715 0.3076,-0.4541c0.1318,-0.13183 0.2856,-0.23437 0.4614,-0.30762c0.1758,-0.07812 0.3638,-0.11718 0.564,-0.11718h4.563v1.44287h-4.563v1.6626h3.4204c0.2002,0 0.3857,0.03906 0.5566,0.11718c0.1758,0.07325 0.3296,0.17578 0.4615,0.30762c0.1318,0.12695 0.2343,0.27832 0.3076,0.4541c0.0781,0.17578 0.1172,0.36377 0.1172,0.56397v1.80908c0,0.20019 -0.0391,0.38818 -0.1172,0.56397c-0.0733,0.1758 -0.1758,0.3296 -0.3076,0.4614c-0.1319,0.127 -0.2857,0.2295 -0.4615,0.3076c-0.1709,0.0733 -0.3564,0.1099 -0.5566,0.1099h-4.8633v-1.44287z"/></g></g></svg>