<svg version="1.1" xmlns="http://www.w3.org/2000/svg" xmlns:xlink="http://www.w3.org/1999/xlink" width="254.4117" height="58.8916" viewBox="0,0,254.4117,58.8916"><g transform="translate(-132.59228,-153.77354)"><g data-paper-data="{&quot;isPaintingLayer&quot;:true}" fill-rule="nonzero" stroke-linecap="butt" stroke-linejoin="miter" stroke-miterlimit="10" stroke-dasharray="" stroke-dashoffset="0" style="mix-blend-mode: normal"><path d="M214.92026,183.40962c0.69824,0 1.23535,-0.18799 1.61133,-0.56397c0.37598,-0.37598 0.56396,-0.91309 0.56396,-1.61133v-3.14941c0,-0.3418 -0.04882,-0.64697 -0.14648,-0.91553c-0.09766,-0.26855 -0.2417,-0.4956 -0.43213,-0.68115c-0.18555,-0.19043 -0.4126,-0.33447 -0.68115,-0.43213c-0.26856,-0.09766 -0.57373,-0.14648 -0.91553,-0.14648h-3.83789v7.5zM209.58091,184.91108v-10.50293h5.33935c0.56153,0 1.0669,0.08789 1.51611,0.26367c0.45411,0.1709 0.83985,0.41748 1.15723,0.73975c0.32227,0.31738 0.56885,0.70312 0.73975,1.15722c0.17578,0.45411 0.26367,0.95948 0.26367,1.51612v3.14941c0,0.55664 -0.08789,1.06201 -0.26367,1.51612c-0.1709,0.4541 -0.41748,0.84228 -0.73975,1.16454c-0.31738,0.3174 -0.70312,0.564 -1.15723,0.7398c-0.44921,0.1709 -0.95458,0.2563 -1.51611,0.2563zM220.86025,177.11079h1.4355v6.35742h4.021v-6.35742h1.4429v7.80029h-1.4429v-1.31836c-0.0147,0.18066 -0.0635,0.35156 -0.1465,0.51266c-0.083,0.1612 -0.1904,0.3028 -0.3223,0.4248c-0.1269,0.1172 -0.2734,0.21 -0.4394,0.2784c-0.166,0.0683 -0.3418,0.1025 -0.5274,0.1025h-2.5854c-0.1953,0 -0.3809,-0.0366 -0.5566,-0.1099c-0.1758,-0.0781 -0.3296,-0.1806 -0.4615,-0.3076c-0.1269,-0.1318 -0.2295,-0.2856 -0.3076,-0.4614c-0.0732,-0.17579 -0.1098,-0.36378 -0.1098,-0.56397zM236.34365,178.55366v6.35742h-1.4429v-6.35742h-3.3032v6.35742h-1.4356v-7.80029h1.4356v1.37695c0.0097,-0.19043 0.0537,-0.36865 0.1318,-0.53467c0.0781,-0.1709 0.1807,-0.31738 0.3076,-0.43945c0.1318,-0.12695 0.2832,-0.22461 0.4541,-0.29297c0.1709,-0.07324 0.354,-0.10986 0.5493,-0.10986h1.8604c0.1904,0 0.3711,0.03662 0.542,0.10986c0.1709,0.06836 0.3222,0.16602 0.4541,0.29297c0.1318,0.12207 0.2368,0.26855 0.3149,0.43945c0.083,0.16602 0.127,0.34424 0.1319,0.53467c0.0097,-0.19043 0.0512,-0.36865 0.1245,-0.53467c0.0781,-0.1709 0.1806,-0.31738 0.3076,-0.43945c0.1318,-0.12695 0.2832,-0.22461 0.4541,-0.29297c0.1709,-0.07324 0.354,-0.10986 0.5493,-0.10986h1.8603c0.2002,0 0.3882,0.03906 0.564,0.11718c0.1758,0.07325 0.3272,0.17579 0.4541,0.30762c0.1319,0.12695 0.2344,0.27832 0.3076,0.4541c0.0782,0.17578 0.1172,0.36377 0.1172,0.56397v6.35742h-1.4429v-6.35742zM250.39145,183.46821c0,0.20019 -0.0391,0.38818 -0.1172,0.56397c-0.0732,0.1758 -0.1758,0.3296 -0.3076,0.4614c-0.127,0.127 -0.2783,0.2295 -0.4541,0.3076c-0.1758,0.0733 -0.3638,0.1099 -0.564,0.1099h-4.021c-0.1953,0 -0.3808,-0.0366 -0.5566,-0.1099c-0.1758,-0.0781 -0.3296,-0.1806 -0.4614,-0.3076c-0.127,-0.1318 -0.2295,-0.2856 -0.3076,-0.4614c-0.0733,-0.17579 -0.1099,-0.36378 -0.1099,-0.56397v-9.36035h1.4355v4.37988c0.0098,-0.19043 0.0537,-0.36865 0.1319,-0.53467c0.0781,-0.1709 0.1806,-0.31738 0.3076,-0.43945c0.1318,-0.12695 0.2832,-0.22461 0.4541,-0.29297c0.1709,-0.07324 0.354,-0.10986 0.5493,-0.10986h2.5781c0.2002,0 0.3882,0.03906 0.564,0.11718c0.1758,0.07325 0.3271,0.17579 0.4541,0.30762c0.1318,0.12695 0.2344,0.27832 0.3076,0.4541c0.0781,0.17578 0.1172,0.36377 0.1172,0.56397zM244.92755,178.55366v4.91455h4.021v-4.91455zM259.39295,181.74702h-5.1636v1.72119h5.1636v1.44287h-5.1636c-0.1953,0 -0.3809,-0.0366 -0.5566,-0.1099c-0.1758,-0.0781 -0.3296,-0.1806 -0.4615,-0.3076c-0.1269,-0.1318 -0.2295,-0.2856 -0.3076,-0.4614c-0.0732,-0.17579 -0.1099,-0.36378 -0.1099,-0.56397v-4.91455c0,-0.2002 0.0367,-0.38819 0.1099,-0.56397c0.0781,-0.17578 0.1807,-0.32715 0.3076,-0.4541c0.1319,-0.13183 0.2857,-0.23437 0.4615,-0.30762c0.1757,-0.07812 0.3613,-0.11718 0.5566,-0.11718h3.7207c0.2002,0 0.3882,0.03906 0.564,0.11718c0.1757,0.07325 0.3271,0.17579 0.4541,0.30762c0.1318,0.12695 0.2343,0.27832 0.3076,0.4541c0.0781,0.17578 0.1172,0.36377 0.1172,0.56397zM254.22935,178.55366v1.75049h3.7207v-1.75049zM263.23815,174.10786v10.80322h-1.4356v-10.80322zM267.07605,174.10786v10.80322h-1.4356v-10.80322z" fill="#87bf3d" stroke="#87bf3d" stroke-width="0.5"/><path d="M387.00398,183.21934c0,16.26247 -21.22517,29.4458 -47.40774,29.4458c-26.18257,0 -47.40774,-13.18333 -47.40774,-29.4458c0,-16.26247 21.22517,-29.4458 47.40774,-29.4458c26.18257,0 47.40774,13.18333 47.40774,29.4458z" fill="none" stroke="#aeaeae" stroke-width="0"/><path d="M132.59228,156.71811v0v0z" fill="none" stroke="none" stroke-width="0"/></g></g></svg>