<svg version="1.1" xmlns="http://www.w3.org/2000/svg" xmlns:xlink="http://www.w3.org/1999/xlink" width="5.99804" height="7.50195" viewBox="0,0,5.99804,7.50195"><g transform="translate(-237.00098,-172.74805)"><g data-paper-data="{&quot;isPaintingLayer&quot;:true}" fill="#ffffff" fill-rule="nonzero" stroke="#ffffff" stroke-width="0.5" stroke-linecap="butt" stroke-linejoin="miter" stroke-miterlimit="10" stroke-dasharray="" stroke-dashoffset="0" style="mix-blend-mode: normal"><path d="M238.3496,177.00195c-0.13671,0 -0.26692,-0.02604 -0.39062,-0.07812c-0.12044,-0.05534 -0.22624,-0.12695 -0.31738,-0.21485c-0.09115,-0.09114 -0.16276,-0.19694 -0.21485,-0.31738c-0.05208,-0.1237 -0.07812,-0.2539 -0.07812,-0.39062v-2.00196c0,-0.13672 0.02604,-0.2653 0.07812,-0.38574c0.05209,-0.1237 0.1237,-0.22949 0.21485,-0.31738c0.09114,-0.09114 0.19694,-0.16276 0.31738,-0.21484c0.1237,-0.05534 0.25391,-0.08301 0.39062,-0.08301h3.39844c0.13672,0 0.2653,0.02767 0.38574,0.08301c0.1237,0.05208 0.23112,0.1237 0.32227,0.21484c0.09115,0.08789 0.16276,0.19369 0.21484,0.31738c0.05209,0.12044 0.07813,0.24902 0.07813,0.38574v0.90332h-1.00098v-0.90332h-3.39844v2.00196h3.39844c0.13672,0 0.2653,0.02604 0.38574,0.07812c0.1237,0.05208 0.23112,0.1237 0.32227,0.21485c0.09115,0.09114 0.16276,0.19856 0.21484,0.32226c0.05209,0.12044 0.07813,0.24902 0.07813,0.38574v1.99707c0,0.13672 -0.02604,0.26693 -0.07813,0.39063c-0.05208,0.12044 -0.12369,0.22624 -0.21484,0.31738c-0.09115,0.09115 -0.19857,0.16276 -0.32227,0.21485c-0.12044,0.05208 -0.24902,0.07812 -0.38574,0.07812h-3.49609c-0.13672,0 -0.26693,-0.02604 -0.39063,-0.07812c-0.12044,-0.05209 -0.22623,-0.1237 -0.31738,-0.21485c-0.09115,-0.09114 -0.16276,-0.19694 -0.21484,-0.31738c-0.05208,-0.1237 -0.07812,-0.25391 -0.07812,-0.39063v-0.89843h1.00098v0.89843h3.49609v-1.99707z"/></g></g></svg>