<svg version="1.1" xmlns="http://www.w3.org/2000/svg" xmlns:xlink="http://www.w3.org/1999/xlink" width="25.37363" height="26.9867" viewBox="0,0,25.37363,26.9867"><g transform="translate(-227.31319,-166.50665)"><g data-paper-data="{&quot;isPaintingLayer&quot;:true}" fill="#000000" fill-rule="nonzero" stroke="none" stroke-width="1" stroke-linecap="butt" stroke-linejoin="miter" stroke-miterlimit="10" stroke-dasharray="" stroke-dashoffset="0" style="mix-blend-mode: normal"><path d="M252.63728,185.90332c0,2.31924 -2.13109,4.21663 -4.70811,4.21663c-2.62656,0 -4.75743,-1.8974 -4.75743,-4.21663c0,-2.31924 2.13087,-4.16396 4.75743,-4.16396c0.54521,0 1.04067,0.10536 1.58588,0.2636v-7.64271l-12.68682,3.95304l-0.04952,11.0161c0,2.31901 -2.08135,4.16396 -4.75743,4.16396c-2.6762,0 -4.70809,-1.84495 -4.70809,-4.21663c0,-2.31924 2.08143,-4.16396 4.70809,-4.16396c0.54499,0 1.09021,0.10536 1.58567,0.26337v-12.17562c0,-0.6852 0.49568,-1.42311 1.09041,-1.63379l15.80884,-4.95476c0.19832,-0.05268 0.44595,-0.10531 0.59474,-0.10531c0.84236,0 1.53635,0.79051 1.58588,1.68664z"/></g></g></svg>