<svg version="1.1" xmlns="http://www.w3.org/2000/svg" xmlns:xlink="http://www.w3.org/1999/xlink" width="69.25" height="15.25" viewBox="0,0,69.25,15.25"><g transform="translate(-205.05129,-172.82373)"><g data-paper-data="{&quot;isPaintingLayer&quot;:true}" fill-rule="nonzero" stroke-linecap="butt" stroke-linejoin="miter" stroke-miterlimit="10" stroke-dasharray="" stroke-dashoffset="0" style="mix-blend-mode: normal"><path d="M205.05129,188.07374v-15.25h69.25v15.25z" fill="#ff9c57" stroke="#898989" stroke-width="0"/><path d="M208.66797,175.89747h6.6333v1.30127h-5.33203v2.60254h4.55127v1.30127h-4.55127v3.89746h-1.30127zM222.8423,183.74951c0,0.1735 -0.0339,0.33643 -0.1016,0.48877c-0.0635,0.15234 -0.1523,0.28565 -0.2666,0.3999c-0.11,0.11003 -0.2412,0.1989 -0.3935,0.26661c-0.1481,0.06347 -0.309,0.09521 -0.4825,0.09521h-3.35787c-0.16927,0 -0.33007,-0.03174 -0.48242,-0.09521c-0.15234,-0.06771 -0.28564,-0.15658 -0.3999,-0.26661c-0.11003,-0.11425 -0.19889,-0.24756 -0.2666,-0.3999c-0.06348,-0.15234 -0.09522,-0.31527 -0.09522,-0.48877v-4.25928c0,-0.1735 0.03174,-0.33642 0.09522,-0.48877c0.06771,-0.15234 0.15657,-0.28352 0.2666,-0.39355c0.11426,-0.11426 0.24756,-0.20312 0.3999,-0.2666c0.15235,-0.06771 0.31315,-0.10156 0.48242,-0.10156h3.35787c0.1735,0 0.3344,0.03385 0.4825,0.10156c0.1523,0.06348 0.2835,0.15234 0.3935,0.2666c0.1143,0.11003 0.2031,0.24121 0.2666,0.39355c0.0677,0.15235 0.1016,0.31527 0.1016,0.48877zM218.24023,179.49024v4.25928h3.35787v-4.25928zM226.1748,179.49024v5.50977h-1.2441v-6.76025h1.2441v1.19336c0.0085,-0.16504 0.0466,-0.3195 0.1143,-0.46338c0.0677,-0.14812 0.1565,-0.27507 0.2666,-0.38086c0.1142,-0.11003 0.2454,-0.19466 0.3935,-0.25391c0.1481,-0.06348 0.3068,-0.09521 0.4761,-0.09521h1.3267c0.1735,0 0.3343,0.03385 0.4824,0.10156c0.1523,0.06348 0.2856,0.15234 0.3999,0.2666c0.1142,0.11003 0.2031,0.24121 0.2666,0.39355c0.0677,0.15235 0.1015,0.31527 0.1015,0.48877v1.14258h-1.2504v-1.14258zM237.2769,182.25782h-4.4751v1.4917h4.4751v1.25049h-4.4751c-0.1693,0 -0.3301,-0.03174 -0.4825,-0.09521c-0.1523,-0.06771 -0.2856,-0.15658 -0.3999,-0.26661c-0.11,-0.11425 -0.1989,-0.24756 -0.2666,-0.3999c-0.0634,-0.15234 -0.0952,-0.31527 -0.0952,-0.48877v-4.25928c0,-0.1735 0.0318,-0.33642 0.0952,-0.48877c0.0677,-0.15234 0.1566,-0.28352 0.2666,-0.39355c0.1143,-0.11426 0.2476,-0.20312 0.3999,-0.2666c0.1524,-0.06771 0.3132,-0.10156 0.4825,-0.10156h3.2246c0.1735,0 0.3364,0.03385 0.4887,0.10156c0.1524,0.06348 0.2836,0.15234 0.3936,0.2666c0.1142,0.11003 0.2031,0.24121 0.2666,0.39355c0.0677,0.15235 0.1016,0.31527 0.1016,0.48877zM232.8018,179.49024v1.51709h3.2246v-1.51709zM239.3652,182.04835c0,-0.1735 0.0318,-0.33431 0.0952,-0.48242c0.0678,-0.15235 0.1566,-0.28565 0.2667,-0.3999c0.1142,-0.11426 0.2475,-0.20313 0.3999,-0.26661c0.1523,-0.0677 0.3131,-0.10156 0.4824,-0.10156h3.2246v-1.30762h-4.0816v-1.25048h4.0816c0.1735,0 0.3364,0.03385 0.4888,0.10156c0.1523,0.06348 0.2835,0.15234 0.3935,0.2666c0.1143,0.11003 0.2031,0.24121 0.2666,0.39355c0.0677,0.15235 0.1016,0.31527 0.1016,0.48877v5.50977h-1.2505v-1.14258c-0.0127,0.15658 -0.055,0.30469 -0.127,0.44434c-0.0719,0.13965 -0.165,0.26237 -0.2793,0.36816c-0.11,0.10156 -0.2369,0.18197 -0.3808,0.24121c-0.1439,0.05925 -0.2962,0.08887 -0.4571,0.08887h-1.9804c-0.1693,0 -0.3301,-0.03174 -0.4824,-0.09521c-0.1524,-0.06771 -0.2857,-0.15658 -0.3999,-0.26661c-0.1101,-0.11425 -0.1989,-0.24756 -0.2667,-0.3999c-0.0634,-0.15234 -0.0952,-0.31527 -0.0952,-0.48877zM240.6094,183.74951h3.2246v-1.70117h-3.2246zM248.417,179.49024v5.50977h-1.2441v-6.76025h1.2441v1.19336c0.0085,-0.16504 0.0465,-0.3195 0.1142,-0.46338c0.0678,-0.14812 0.1566,-0.27507 0.2667,-0.38086c0.1142,-0.11003 0.2454,-0.19466 0.3935,-0.25391c0.1481,-0.06348 0.3068,-0.09521 0.4761,-0.09521h1.3266c0.1735,0 0.3344,0.03385 0.4825,0.10156c0.1523,0.06348 0.2856,0.15234 0.3999,0.2666c0.1142,0.11003 0.2031,0.24121 0.2666,0.39355c0.0677,0.15235 0.1015,0.31527 0.1015,0.48877v1.14258h-1.2505v-1.14258zM259.1572,179.49024v5.50977h-1.2505v-5.50977h-2.8628v5.50977h-1.2441v-6.76025h1.2441v1.19336c0.0085,-0.16504 0.0466,-0.3195 0.1143,-0.46338c0.0677,-0.14812 0.1566,-0.27507 0.2666,-0.38086c0.1143,-0.11003 0.2454,-0.19466 0.3936,-0.25391c0.1481,-0.06348 0.3068,-0.09521 0.476,-0.09521h1.6123c0.1651,0 0.3217,0.03173 0.4698,0.09521c0.1481,0.05925 0.2793,0.14388 0.3935,0.25391c0.1143,0.10579 0.2053,0.23274 0.273,0.38086c0.0719,0.14388 0.11,0.29834 0.1142,0.46338c0.0085,-0.16504 0.0445,-0.3195 0.1079,-0.46338c0.0677,-0.14812 0.1566,-0.27507 0.2666,-0.38086c0.1143,-0.11003 0.2455,-0.19466 0.3936,-0.25391c0.1481,-0.06348 0.3068,-0.09521 0.4761,-0.09521h1.6123c0.1735,0 0.3364,0.03385 0.4887,0.10156c0.1524,0.06348 0.2836,0.15234 0.3936,0.2666c0.1143,0.11003 0.2031,0.24121 0.2666,0.39355c0.0677,0.15235 0.1016,0.31527 0.1016,0.48877v5.50977h-1.2505v-5.50977zM269.4341,183.74951v-1.56787h-2.9644c-0.1735,0 -0.3364,-0.03174 -0.4887,-0.09521c-0.1524,-0.06771 -0.2857,-0.15658 -0.3999,-0.26661c-0.1101,-0.11425 -0.1989,-0.24755 -0.2666,-0.3999c-0.0635,-0.15234 -0.0953,-0.31527 -0.0953,-0.48877v-1.44092c0,-0.1735 0.0318,-0.33642 0.0953,-0.48877c0.0677,-0.15234 0.1565,-0.28352 0.2666,-0.39355c0.1142,-0.11426 0.2475,-0.20312 0.3999,-0.2666c0.1523,-0.06771 0.3152,-0.10156 0.4887,-0.10156h3.9546v1.25048h-3.9546v1.44092h2.9644c0.1735,0 0.3343,0.03386 0.4824,0.10156c0.1523,0.06348 0.2856,0.15235 0.3999,0.26661c0.1143,0.11002 0.2031,0.24121 0.2666,0.39355c0.0677,0.15234 0.1016,0.31527 0.1016,0.48877v1.56787c0,0.1735 -0.0339,0.33643 -0.1016,0.48877c-0.0635,0.15234 -0.1523,0.28565 -0.2666,0.3999c-0.1143,0.11003 -0.2476,0.1989 -0.3999,0.26661c-0.1481,0.06347 -0.3089,0.09521 -0.4824,0.09521h-4.2149v-1.25049z" fill="#ffffff" stroke="none" stroke-width="1"/></g></g></svg>