<svg version="1.1" xmlns="http://www.w3.org/2000/svg" xmlns:xlink="http://www.w3.org/1999/xlink" width="129.80001" height="38.5" viewBox="0,0,129.80001,38.5"><g transform="translate(-175.1,-160.75)"><g data-paper-data="{&quot;isPaintingLayer&quot;:true}" fill-rule="nonzero" stroke="none" stroke-width="1" stroke-linecap="butt" stroke-linejoin="miter" stroke-miterlimit="10" stroke-dasharray="" stroke-dashoffset="0" style="mix-blend-mode: normal"><path d="M304.9,165.04387v29.91223c0,2.37141 -1.39579,4.2939 -3.11756,4.2939h-123.56486c-1.72179,0 -3.11758,-1.92249 -3.11758,-4.2939v-29.91223c0,-2.37144 1.39578,-4.29387 3.11758,-4.29387h123.56487c1.72177,0 3.11756,1.92242 3.11756,4.29387z" fill="#1be0eb"/><path d="M214.44134,186.98462c1.3567,0 2.40022,-0.36191 3.13054,-1.08551c0.73052,-0.7238 1.09577,-1.75772 1.09577,-3.10195v-6.06253c0,-0.65796 -0.09481,-1.24542 -0.28463,-1.7624c-0.18963,-0.51696 -0.46959,-0.95403 -0.83951,-1.31121c-0.36059,-0.36658 -0.80162,-0.64386 -1.32348,-0.83185c-0.52166,-0.188 -1.11462,-0.28197 -1.77869,-0.28197h-7.45651v14.43742zM204.06782,189.875v-20.21814h10.37353c1.09092,0 2.07284,0.16919 2.94558,0.50756c0.88225,0.32898 1.63181,0.80365 2.24848,1.42402c0.62599,0.61095 1.1051,1.3535 1.43713,2.22764c0.34156,0.87416 0.51233,1.847 0.51233,2.91853v6.06253c0,1.07164 -0.17078,2.04454 -0.51233,2.91869c-0.33203,0.87414 -0.81114,1.62124 -1.43713,2.24167c-0.61666,0.611 -1.36622,1.08569 -2.24848,1.42411c-0.87274,0.32898 -1.85466,0.49338 -2.94558,0.49338zM239.08773,187.09742c0,0.38539 -0.07597,0.74729 -0.22771,1.0857c-0.14241,0.33841 -0.34156,0.63448 -0.59762,0.88819c-0.24674,0.24447 -0.54089,0.44179 -0.88225,0.59213c-0.33203,0.14111 -0.69263,0.21156 -1.08159,0.21156h-7.52762c-0.37944,0 -0.74004,-0.07045 -1.0814,-0.21156c-0.34156,-0.15034 -0.64037,-0.34765 -0.89663,-0.59213c-0.24655,-0.25371 -0.44589,-0.54978 -0.59762,-0.88819c-0.14222,-0.33841 -0.21333,-0.70031 -0.21333,-1.0857v-9.46045c0,-0.38539 0.07111,-0.74726 0.21333,-1.08564c0.15174,-0.33838 0.35108,-0.62976 0.59762,-0.87414c0.25626,-0.25377 0.55507,-0.45116 0.89663,-0.59216c0.34136,-0.15038 0.70196,-0.22557 1.0814,-0.22557h7.52762c0.38896,0 0.74956,0.07519 1.08159,0.22557c0.34136,0.14101 0.63551,0.33839 0.88225,0.59216c0.25607,0.24438 0.45521,0.53577 0.59762,0.87414c0.15174,0.33838 0.22771,0.70025 0.22771,1.08564zM228.77093,177.63697v9.46045h7.52762v-9.46045zM257.17384,189.875h-2.80316v-12.23803h-7.81225v12.23803h-2.78918v-15.01556h2.78918v2.65063c0.01885,-0.36658 0.10433,-0.70965 0.25607,-1.02924c0.15174,-0.32898 0.35108,-0.61095 0.59762,-0.84594c0.25626,-0.24438 0.55022,-0.43238 0.88225,-0.56397c0.33203,-0.14099 0.68777,-0.21148 1.06721,-0.21148h5.00909c0.38896,0 0.75422,0.07519 1.09558,0.22557c0.34156,0.14101 0.63571,0.33839 0.88226,0.59216c0.25626,0.24438 0.4554,0.53577 0.59782,0.87414c0.15174,0.33838 0.22751,0.70025 0.22751,1.08564zM274.66252,183.78411h-10.03217v3.31331h10.03217v2.77758h-10.03217c-0.37944,0 -0.73984,-0.07045 -1.0814,-0.21156c-0.34156,-0.15034 -0.64037,-0.34766 -0.89644,-0.59213c-0.24674,-0.25371 -0.44589,-0.54978 -0.59782,-0.88819c-0.14222,-0.33841 -0.21333,-0.70031 -0.21333,-1.0857v-9.46045c0,-0.38539 0.07111,-0.74726 0.21333,-1.08564c0.15193,-0.33838 0.35108,-0.62976 0.59782,-0.87414c0.25607,-0.25377 0.55488,-0.45116 0.89644,-0.59216c0.34156,-0.15038 0.70196,-0.22557 1.0814,-0.22557h7.22881c0.38896,0 0.75422,0.07519 1.09578,0.22557c0.34156,0.14101 0.63551,0.33839 0.88225,0.59216c0.25607,0.24438 0.45541,0.53577 0.59762,0.87414c0.15174,0.33838 0.22771,0.70025 0.22771,1.08564zM264.63037,177.63697v3.36975h7.22881v-3.36975z" fill="#ffffff"/><path d="M214.44134,186.98462c1.3567,0 2.40022,-0.36191 3.13054,-1.08551c0.73052,-0.7238 1.09577,-1.75772 1.09577,-3.10195v-6.06253c0,-0.65796 -0.09481,-1.24542 -0.28463,-1.7624c-0.18963,-0.51696 -0.46959,-0.95403 -0.83951,-1.31121c-0.36059,-0.36658 -0.80162,-0.64386 -1.32348,-0.83185c-0.52166,-0.188 -1.11462,-0.28197 -1.77869,-0.28197h-7.45651v14.43742zM204.06782,189.875v-20.21814h10.37353c1.09092,0 2.07284,0.16919 2.94558,0.50756c0.88225,0.32898 1.63181,0.80365 2.24848,1.42402c0.62599,0.61095 1.1051,1.3535 1.43713,2.22764c0.34156,0.87416 0.51233,1.847 0.51233,2.91853v6.06253c0,1.07164 -0.17078,2.04454 -0.51233,2.91869c-0.33203,0.87414 -0.81114,1.62124 -1.43713,2.24167c-0.61666,0.611 -1.36622,1.08569 -2.24848,1.42411c-0.87274,0.32898 -1.85466,0.49338 -2.94558,0.49338zM239.08773,187.09742c0,0.38539 -0.07597,0.74729 -0.22771,1.0857c-0.14241,0.33841 -0.34156,0.63448 -0.59762,0.88819c-0.24674,0.24447 -0.54089,0.44179 -0.88225,0.59213c-0.33203,0.14111 -0.69263,0.21156 -1.08159,0.21156h-7.52762c-0.37944,0 -0.74004,-0.07045 -1.0814,-0.21156c-0.34156,-0.15034 -0.64037,-0.34765 -0.89663,-0.59213c-0.24655,-0.25371 -0.44589,-0.54978 -0.59762,-0.88819c-0.14222,-0.33841 -0.21333,-0.70031 -0.21333,-1.0857v-9.46045c0,-0.38539 0.07111,-0.74726 0.21333,-1.08564c0.15174,-0.33838 0.35108,-0.62976 0.59762,-0.87414c0.25626,-0.25377 0.55507,-0.45116 0.89663,-0.59216c0.34136,-0.15038 0.70196,-0.22557 1.0814,-0.22557h7.52762c0.38896,0 0.74956,0.07519 1.08159,0.22557c0.34136,0.14101 0.63551,0.33839 0.88225,0.59216c0.25607,0.24438 0.45521,0.53577 0.59762,0.87414c0.15174,0.33838 0.22771,0.70025 0.22771,1.08564zM228.77093,177.63697v9.46045h7.52762v-9.46045zM257.17384,189.875h-2.80316v-12.23803h-7.81225v12.23803h-2.78918v-15.01556h2.78918v2.65063c0.01885,-0.36658 0.10433,-0.70965 0.25607,-1.02924c0.15174,-0.32898 0.35108,-0.61095 0.59762,-0.84594c0.25626,-0.24438 0.55022,-0.43238 0.88225,-0.56397c0.33203,-0.14099 0.68777,-0.21148 1.06721,-0.21148h5.00909c0.38896,0 0.75422,0.07519 1.09558,0.22557c0.34156,0.14101 0.63571,0.33839 0.88226,0.59216c0.25626,0.24438 0.4554,0.53577 0.59782,0.87414c0.15174,0.33838 0.22751,0.70025 0.22751,1.08564zM274.66252,183.78411h-10.03217v3.31331h10.03217v2.77758h-10.03217c-0.37944,0 -0.73984,-0.07045 -1.0814,-0.21156c-0.34156,-0.15034 -0.64037,-0.34766 -0.89644,-0.59213c-0.24674,-0.25371 -0.44589,-0.54978 -0.59782,-0.88819c-0.14222,-0.33841 -0.21333,-0.70031 -0.21333,-1.0857v-9.46045c0,-0.38539 0.07111,-0.74726 0.21333,-1.08564c0.15193,-0.33838 0.35108,-0.62976 0.59782,-0.87414c0.25607,-0.25377 0.55488,-0.45116 0.89644,-0.59216c0.34156,-0.15038 0.70196,-0.22557 1.0814,-0.22557h7.22881c0.38896,0 0.75422,0.07519 1.09578,0.22557c0.34156,0.14101 0.63551,0.33839 0.88225,0.59216c0.25607,0.24438 0.45541,0.53577 0.59762,0.87414c0.15174,0.33838 0.22771,0.70025 0.22771,1.08564zM264.63037,177.63697v3.36975h7.22881v-3.36975z" fill="#ffffff"/></g></g></svg>