<svg version="1.1" xmlns="http://www.w3.org/2000/svg" xmlns:xlink="http://www.w3.org/1999/xlink" width="104.75" height="27.4028" viewBox="0,0,104.75,27.4028"><g transform="translate(-187.625,-166.125)"><g data-paper-data="{&quot;isPaintingLayer&quot;:true}" fill-rule="nonzero" stroke-linecap="butt" stroke-linejoin="miter" stroke-miterlimit="10" stroke-dasharray="" stroke-dashoffset="0" style="mix-blend-mode: normal"><path d="M291.5,192.6528h-103v-25.6528h103z" fill="#616161" stroke="#77b6ff" stroke-width="1.75"/><path d="M195.5,186.5c-1.933,0 -3.5,0 -3.5,0v-14c0,0 1.567,0 3.5,0h7c1.933,0 3.5,0 3.5,0v14c0,0 -1.567,0 -3.5,0z" fill="#616161" stroke="#6eb1ff" stroke-width="2"/><path d="M196.5,184c-1.10457,0 -2,0 -2,0v-9c0,0 0.89543,0 2,0h5c1.10457,0 2,0 2,0v9c0,0 -0.89543,0 -2,0z" fill="#6eb1ff" stroke="none" stroke-width="1"/></g></g></svg>