<svg version="1.1" xmlns="http://www.w3.org/2000/svg" xmlns:xlink="http://www.w3.org/1999/xlink" width="74.91804" height="8.8056" viewBox="0,0,74.91804,8.8056"><g transform="translate(-210.53188,-175.62461)"><g data-paper-data="{&quot;isPaintingLayer&quot;:true}" fill="#87bf3d" fill-rule="nonzero" stroke="#87bf3d" stroke-width="0.5" stroke-linecap="butt" stroke-linejoin="miter" stroke-miterlimit="10" stroke-dasharray="" stroke-dashoffset="0" style="mix-blend-mode: normal"><path d="M214.94876,184.1802l-3.01254,-5.91808v5.91808h-1.15434v-8.07472h1.26132l3.07447,6.08138l3.08011,-6.08138h1.25573v8.07472h-1.14875v-5.91808l-3.01252,5.91808zM226.49778,181.74765h-3.96981v1.32326h3.96981v1.10929h-3.96981c-0.15015,0 -0.29284,-0.02814 -0.42799,-0.08449c-0.13508,-0.06004 -0.2534,-0.13885 -0.35473,-0.23648c-0.09756,-0.10133 -0.17644,-0.21957 -0.23648,-0.35473c-0.05628,-0.13515 -0.08449,-0.27968 -0.08449,-0.43358v-3.77834c0,-0.15392 0.02822,-0.29844 0.08449,-0.43358c0.06004,-0.13514 0.13892,-0.25152 0.23648,-0.34912c0.10133,-0.10135 0.21965,-0.18019 0.35473,-0.2365c0.13516,-0.06006 0.27785,-0.09009 0.42799,-0.09009h2.8605c0.15392,0 0.29845,0.03003 0.43353,0.09009c0.13516,0.05632 0.25155,0.13515 0.34912,0.2365c0.10141,0.0976 0.18021,0.21397 0.23656,0.34912c0.06004,0.13514 0.0901,0.27967 0.0901,0.43358zM222.52797,179.29257v1.34579h2.8605v-1.34579zM228.3503,179.29257c0,-0.15392 0.02814,-0.29844 0.08449,-0.43358c0.06004,-0.13514 0.13885,-0.25152 0.23648,-0.34912c0.10133,-0.10135 0.21957,-0.18019 0.35473,-0.2365c0.13516,-0.06006 0.27785,-0.09009 0.42799,-0.09009h3.09137v-2.30867h1.10923v8.30559h-1.10923v-1.01356c-0.0113,0.13889 -0.04882,0.27028 -0.11263,0.39414c-0.06381,0.12393 -0.14646,0.23279 -0.24779,0.32659c-0.09756,0.0901 -0.21019,0.16145 -0.33781,0.21404c-0.1277,0.05251 -0.26278,0.0788 -0.40547,0.0788h-1.98767c-0.15015,0 -0.29284,-0.02814 -0.42799,-0.08449c-0.13516,-0.06004 -0.2534,-0.13885 -0.35473,-0.23648c-0.09764,-0.10133 -0.17644,-0.21957 -0.23648,-0.35473c-0.05635,-0.13515 -0.08449,-0.27968 -0.08449,-0.43358zM229.454,183.07091h3.09137v-3.77834h-3.09137zM236.66717,178.18328v5.99691h-1.10931v-5.99691zM235.50158,175.87461h1.22186v1.15433h-1.22186zM239.67966,179.29257v3.77834h2.8605v-1.01356h1.10931v1.01356c0,0.15391 -0.02998,0.29844 -0.0901,0.43358c-0.05628,0.13516 -0.13508,0.2534 -0.23648,0.35473c-0.09756,0.09764 -0.21396,0.17644 -0.34912,0.23648c-0.13516,0.05635 -0.27969,0.08449 -0.43361,0.08449h-2.8605c-0.15015,0 -0.29276,-0.02814 -0.42792,-0.08449c-0.13516,-0.06004 -0.2534,-0.13885 -0.35473,-0.23648c-0.09764,-0.10133 -0.17644,-0.21957 -0.23648,-0.35473c-0.05635,-0.13515 -0.08449,-0.27968 -0.08449,-0.43358v-3.77834c0,-0.15392 0.02814,-0.29844 0.08449,-0.43358c0.06004,-0.13514 0.13885,-0.25152 0.23648,-0.34912c0.10133,-0.10135 0.21957,-0.18019 0.35473,-0.2365c0.13516,-0.06006 0.27777,-0.09009 0.42792,-0.09009h2.8605c0.15392,0 0.29845,0.03003 0.43361,0.09009c0.13516,0.05632 0.25155,0.13515 0.34912,0.2365c0.10141,0.0976 0.18021,0.21397 0.23648,0.34912c0.06012,0.13514 0.0901,0.27967 0.0901,0.43358v1.01356h-1.10931v-1.01356zM246.66765,178.18328v5.99691h-1.10931v-5.99691zM245.50206,175.87461h1.22186v1.15433h-1.22186zM253.88082,184.1802h-1.10923v-4.88763h-3.09137v4.88763h-1.1037v-5.99691h1.1037v1.05861c0.00746,-0.1464 0.04128,-0.28342 0.10133,-0.41106c0.06004,-0.13139 0.13892,-0.244 0.23648,-0.33785c0.10133,-0.0976 0.21773,-0.17268 0.34912,-0.22524c0.13139,-0.05631 0.27216,-0.08446 0.42231,-0.08446h1.98214c0.15392,0 0.29837,0.03003 0.43353,0.09009c0.13516,0.05632 0.25155,0.13515 0.34912,0.2365c0.10141,0.0976 0.18021,0.21397 0.23648,0.34912c0.06012,0.13514 0.0901,0.27967 0.0901,0.43358zM260.80123,181.74765h-3.96981v1.32326h3.96981v1.10929h-3.96981c-0.15015,0 -0.29276,-0.02814 -0.42792,-0.08449c-0.13516,-0.06004 -0.2534,-0.13885 -0.35473,-0.23648c-0.09764,-0.10133 -0.17644,-0.21957 -0.23656,-0.35473c-0.05628,-0.13515 -0.08441,-0.27968 -0.08441,-0.43358v-3.77834c0,-0.15392 0.02814,-0.29844 0.08441,-0.43358c0.06012,-0.13514 0.13892,-0.25152 0.23656,-0.34912c0.10133,-0.10135 0.21957,-0.18019 0.35473,-0.2365c0.13516,-0.06006 0.27777,-0.09009 0.42792,-0.09009h2.8605c0.15392,0 0.29845,0.03003 0.43361,0.09009c0.13516,0.05632 0.25148,0.13515 0.34912,0.2365c0.10133,0.0976 0.18021,0.21397 0.23648,0.34912c0.06004,0.13514 0.0901,0.27967 0.0901,0.43358zM256.83142,179.29257v1.34579h2.8605v-1.34579zM271.48303,179.96827c0.16898,0.05256 0.3229,0.12764 0.46175,0.22524c0.13892,0.09761 0.25717,0.22336 0.35473,0.37728c0.09764,0.15016 0.17275,0.32846 0.22526,0.53494c0.05259,0.20646 0.07888,0.44296 0.07888,0.70949v0.40542c0,1.30638 -0.65325,1.95956 -1.95961,1.95956h-4.42025v-8.07472h4.18938c1.30643,0 1.95961,0.65506 1.95961,1.96518v0.1464c0,0.45423 -0.07327,0.82587 -0.21965,1.11492c-0.14261,0.2853 -0.36603,0.49739 -0.67009,0.63629zM267.35562,180.66088v2.38751h3.25467c0.30406,0 0.52363,-0.07132 0.65879,-0.21397c0.13516,-0.14265 0.20273,-0.36601 0.20273,-0.67008v-0.62503c0,-0.30782 -0.06758,-0.53118 -0.20273,-0.67008c-0.13516,-0.13889 -0.35473,-0.20835 -0.65879,-0.20835zM267.35562,177.23729v2.29741h3.1026c0.27785,-0.01126 0.47674,-0.08634 0.5969,-0.22524c0.12385,-0.14265 0.18582,-0.36038 0.18582,-0.65319v-0.52931c0,-0.30782 -0.06758,-0.53305 -0.20273,-0.6757c-0.13516,-0.14265 -0.35473,-0.21397 -0.65879,-0.21397zM274.21967,181.56183c0,-0.15392 0.02814,-0.29656 0.08449,-0.42795c0.06004,-0.13514 0.13885,-0.25339 0.23648,-0.35475c0.10133,-0.10135 0.21957,-0.18019 0.35473,-0.2365c0.13516,-0.06006 0.27777,-0.09009 0.42799,-0.09009h2.8605v-1.15997h-3.62069v-1.10929h3.62069c0.15392,0 0.29837,0.03003 0.43353,0.09009c0.13516,0.05632 0.25155,0.13515 0.34912,0.2365c0.10141,0.0976 0.18021,0.21397 0.23648,0.34912c0.06012,0.13514 0.0901,0.27967 0.0901,0.43358v4.88763h-1.10923v-1.01356c-0.0113,0.13889 -0.04882,0.27028 -0.11263,0.39414c-0.06381,0.12393 -0.14646,0.23279 -0.24779,0.32659c-0.09756,0.0901 -0.21019,0.16145 -0.33781,0.21404c-0.1277,0.05251 -0.26278,0.0788 -0.40547,0.0788h-1.7568c-0.15022,0 -0.29284,-0.02814 -0.42799,-0.08449c-0.13516,-0.06004 -0.2534,-0.13885 -0.35473,-0.23648c-0.09764,-0.10133 -0.17644,-0.21957 -0.23648,-0.35473c-0.05635,-0.13515 -0.08449,-0.27968 -0.08449,-0.43358zM275.32337,183.07091h2.8605v-1.50908h-2.8605zM282.24932,175.87461v8.30559h-1.10362v-8.30559zM285.19992,175.87461v8.30559h-1.10362v-8.30559z"/></g></g></svg>