<svg version="1.1" xmlns="http://www.w3.org/2000/svg" xmlns:xlink="http://www.w3.org/1999/xlink" width="149.30256" height="22.07301" viewBox="0,0,149.30256,22.07301"><g transform="translate(-165.34872,-168.96349)"><g data-paper-data="{&quot;isPaintingLayer&quot;:true}" fill="#000000" fill-rule="nonzero" stroke="#000000" stroke-width="0.5" stroke-linecap="butt" stroke-linejoin="miter" stroke-miterlimit="10" stroke-dasharray="" stroke-dashoffset="0" style="mix-blend-mode: normal"><path d="M168.88951,181.80628c-0.40953,0 -0.79956,-0.07802 -1.17006,-0.23401c-0.36078,-0.16576 -0.67766,-0.38027 -0.95068,-0.64354c-0.27302,-0.27302 -0.48753,-0.5899 -0.64355,-0.95068c-0.15602,-0.37053 -0.234,-0.76055 -0.234,-1.17006v-5.99656c0,-0.40951 0.07799,-0.79467 0.234,-1.15543c0.15602,-0.37053 0.37053,-0.68741 0.64355,-0.95068c0.27302,-0.27302 0.5899,-0.48753 0.95068,-0.64355c0.3705,-0.16576 0.76052,-0.24864 1.17006,-0.24864h10.17954c0.40951,0 0.79467,0.08287 1.15543,0.24864c0.37053,0.15602 0.69229,0.37053 0.96532,0.64355c0.27302,0.26327 0.48753,0.58016 0.64351,0.95068c0.15602,0.36076 0.23403,0.74592 0.23403,1.15543v2.70577h-2.99828v-2.70577h-10.17954v5.99656h10.17954c0.40951,0 0.79467,0.07799 1.15543,0.234c0.37053,0.15602 0.69229,0.37053 0.96532,0.64355c0.27302,0.27302 0.48753,0.59479 0.64351,0.96529c0.15602,0.36078 0.23403,0.74592 0.23403,1.15545v5.98193c0,0.40951 -0.07801,0.79956 -0.23403,1.17006c-0.15599,0.36078 -0.3705,0.67766 -0.64351,0.95068c-0.27302,0.27302 -0.59479,0.48753 -0.96532,0.64355c-0.36076,0.15602 -0.74592,0.23401 -1.15543,0.23401h-10.47204c-0.40953,0 -0.79956,-0.07799 -1.17008,-0.23401c-0.36078,-0.15602 -0.67767,-0.37053 -0.95068,-0.64355c-0.27302,-0.27302 -0.48753,-0.58989 -0.64354,-0.95068c-0.15602,-0.3705 -0.234,-0.76055 -0.234,-1.17006v-2.69114h2.99828v2.69114h10.47204v-5.98193zM200.9637,190.78649h-2.88107v-12.69517h-8.02963v12.69517h-2.86665v-21.57299h2.86665v8.74621c0.01958,-0.38027 0.10714,-0.73616 0.26336,-1.06768c0.15599,-0.34129 0.3606,-0.6338 0.61427,-0.87755c0.26314,-0.25352 0.56543,-0.44852 0.90668,-0.58504c0.34123,-0.14626 0.7069,-0.21938 1.09699,-0.21938h5.14833c0.39977,0 0.77511,0.07799 1.12602,0.23401c0.35115,0.14626 0.65344,0.351 0.9069,0.61427c0.26314,0.25352 0.46797,0.55577 0.61427,0.90679c0.15599,0.35103 0.23387,0.72642 0.23387,1.12619zM219.23146,187.90521c0,0.39977 -0.07812,0.77517 -0.2341,1.12619c-0.14631,0.351 -0.35092,0.65817 -0.61428,0.92142c-0.25346,0.25352 -0.55576,0.45829 -0.90667,0.6143c-0.34147,0.14624 -0.71197,0.21938 -1.11174,0.21938h-7.73701c-0.39009,0 -0.76059,-0.07314 -1.1115,-0.21938c-0.35091,-0.15602 -0.65806,-0.36078 -0.92142,-0.6143c-0.25346,-0.26325 -0.45829,-0.5704 -0.61427,-0.92142c-0.14631,-0.351 -0.21935,-0.72642 -0.21935,-1.12619v-9.81389c0,-0.39977 0.07304,-0.77516 0.21935,-1.12619c0.15599,-0.351 0.36082,-0.65326 0.61427,-0.90679c0.26336,-0.26327 0.57051,-0.46801 0.92142,-0.61427c0.35091,-0.15602 0.72142,-0.23401 1.1115,-0.23401h7.73701c0.39977,0 0.77027,0.07799 1.11174,0.23401c0.35091,0.14626 0.65322,0.351 0.90667,0.61427c0.26336,0.25352 0.46797,0.55577 0.61428,0.90679c0.15599,0.35103 0.2341,0.72642 0.2341,1.12619zM208.62766,178.09132v9.81389h7.73701v-9.81389zM224.04315,175.21006h2.86679v12.69515h8.02963v-12.69515h2.88107v15.57643h-2.88107v-2.63264c-0.02926,0.36078 -0.12696,0.70204 -0.29263,1.0238c-0.16566,0.32177 -0.38018,0.60454 -0.64354,0.84829c-0.25346,0.234 -0.54608,0.41928 -0.87764,0.55577c-0.33134,0.13652 -0.68249,0.20477 -1.05299,0.20477h-5.16284c-0.39009,0 -0.76059,-0.07314 -1.11151,-0.21938c-0.35115,-0.15602 -0.65829,-0.36078 -0.92142,-0.6143c-0.25368,-0.26325 -0.45829,-0.5704 -0.61427,-0.92142c-0.14631,-0.351 -0.21958,-0.72642 -0.21958,-1.12619zM245.4846,169.2135v21.57299h-2.86656v-21.57299zM250.28178,178.09132c0,-0.39977 0.07327,-0.77516 0.21958,-1.12619c0.15599,-0.351 0.3606,-0.65326 0.61427,-0.90679c0.26314,-0.26327 0.57027,-0.46801 0.92142,-0.61427c0.35091,-0.15602 0.72142,-0.23401 1.11151,-0.23401h8.0294v-5.99656h2.8813v21.57299h-2.8813v-2.63264c-0.02903,0.36078 -0.12673,0.70204 -0.29239,1.0238c-0.16566,0.32177 -0.38018,0.60454 -0.64354,0.84829c-0.25345,0.234 -0.54608,0.41928 -0.87764,0.55577c-0.33134,0.13652 -0.68248,0.20477 -1.05298,0.20477h-5.16284c-0.39009,0 -0.76059,-0.07314 -1.11151,-0.21938c-0.35115,-0.15602 -0.65829,-0.36078 -0.92142,-0.6143c-0.25368,-0.26325 -0.45829,-0.5704 -0.61427,-0.92142c-0.14631,-0.351 -0.21958,-0.72642 -0.21958,-1.12619zM253.14857,187.90521h8.0294v-9.81389h-8.0294zM282.0344,184.46816h-10.31117v3.43705h10.31117v2.88128h-10.31117c-0.39009,0 -0.76059,-0.07314 -1.1115,-0.21938c-0.35115,-0.15602 -0.65829,-0.36078 -0.92142,-0.6143c-0.25345,-0.26325 -0.45829,-0.5704 -0.61428,-0.92142c-0.14631,-0.351 -0.21935,-0.72642 -0.21935,-1.12619v-9.81389c0,-0.39977 0.07304,-0.77516 0.21935,-1.12619c0.15599,-0.351 0.36082,-0.65326 0.61428,-0.90679c0.26314,-0.26327 0.57027,-0.46801 0.92142,-0.61427c0.35092,-0.15602 0.72142,-0.23401 1.1115,-0.23401h7.42987c0.39976,0 0.77511,0.07799 1.12625,0.23401c0.35092,0.14626 0.65322,0.351 0.90668,0.61427c0.26336,0.25352 0.4682,0.55577 0.61427,0.90679c0.15622,0.35103 0.23409,0.72642 0.23409,1.12619zM271.72323,178.09132v3.49556h7.42987v-3.49556zM289.71288,178.09132v12.69517h-2.86656v-15.57643h2.86656v2.74964c0.01958,-0.38027 0.10737,-0.73616 0.26336,-1.06768c0.15599,-0.34129 0.36082,-0.6338 0.61427,-0.87755c0.26314,-0.25352 0.56543,-0.44852 0.90667,-0.58504c0.34147,-0.14626 0.7069,-0.21938 1.097,-0.21938h3.05688c0.39976,0 0.77027,0.07799 1.11151,0.23401c0.35092,0.14626 0.65806,0.351 0.92142,0.61427c0.26336,0.25352 0.46796,0.55577 0.61427,0.90679c0.15599,0.35103 0.23409,0.72642 0.23409,1.12619v2.63264h-2.8813v-2.63264zM311.51999,187.90521v-3.61256h-6.83033c-0.39976,0 -0.77511,-0.07314 -1.12602,-0.21938c-0.35115,-0.15602 -0.65829,-0.36078 -0.92142,-0.6143c-0.25368,-0.26325 -0.45829,-0.57039 -0.61428,-0.92142c-0.14631,-0.351 -0.21958,-0.72642 -0.21958,-1.12618v-3.32006c0,-0.39977 0.07327,-0.77516 0.21958,-1.12619c0.15599,-0.351 0.3606,-0.65326 0.61428,-0.90679c0.26314,-0.26327 0.57027,-0.46801 0.92142,-0.61427c0.35092,-0.15602 0.72626,-0.23401 1.12602,-0.23401h9.11187v2.88126h-9.11187v3.32006h6.83033c0.39976,0 0.77027,0.07802 1.11151,0.234c0.35092,0.14626 0.65806,0.35103 0.92142,0.6143c0.26336,0.2535 0.46796,0.55577 0.61427,0.90679c0.15599,0.351 0.23409,0.72643 0.23409,1.12619v3.61256c0,0.39977 -0.07811,0.77517 -0.23409,1.12619c-0.14631,0.351 -0.35091,0.65817 -0.61427,0.92142c-0.26336,0.25352 -0.5705,0.45829 -0.92142,0.6143c-0.34123,0.14624 -0.71174,0.21938 -1.11151,0.21938h-9.71164v-2.88128z"/></g></g></svg>