<svg version="1.1" xmlns="http://www.w3.org/2000/svg" xmlns:xlink="http://www.w3.org/1999/xlink" width="362.30662" height="109.40215" viewBox="0,0,362.30662,109.40215"><g transform="translate(-62.97697,-30.79785)"><g data-paper-data="{&quot;isPaintingLayer&quot;:true}" fill-rule="nonzero" stroke-linejoin="miter" stroke-miterlimit="10" stroke-dasharray="" stroke-dashoffset="0" style="mix-blend-mode: normal"><path d="M177.8891,31.25035v15.82634h-2.26253v-15.82634zM192.13719,47.07668h-2.17416v-9.57968h-6.05912v9.57968h-2.16308v-11.75388h2.16308v2.07486c0.01492,-0.28694 0.08092,-0.55549 0.19868,-0.80565c0.11776,-0.25751 0.27236,-0.47825 0.46358,-0.66219c0.19868,-0.19131 0.42674,-0.33845 0.68419,-0.44145c0.25767,-0.11037 0.53342,-0.16557 0.82794,-0.16557h3.88473c0.30175,0 0.58496,0.05888 0.84986,0.1766c0.2649,0.11037 0.49297,0.26488 0.68419,0.46354c0.19868,0.19129 0.35328,0.41937 0.46358,0.68425c0.11776,0.26488 0.17653,0.54816 0.17653,0.84982zM200.11664,32.97205v2.35075h3.86281v2.1742h-3.86281v9.57968h-2.17416v-9.57968h-2.86964v-2.1742h2.86964v-2.35075c0,-0.30168 0.05515,-0.58127 0.16545,-0.83879c0.11776,-0.26488 0.27598,-0.49663 0.47466,-0.69531c0.19868,-0.19865 0.43036,-0.35316 0.69526,-0.46352c0.2649,-0.11772 0.5445,-0.17658 0.83879,-0.17658h3.86281v2.1742zM217.09085,44.9025c0,0.30166 -0.05899,0.58494 -0.17675,0.8498c-0.1103,0.26488 -0.2649,0.49665 -0.46336,0.69531c-0.19145,0.19131 -0.41951,0.3458 -0.68441,0.46354c-0.25745,0.11037 -0.53704,0.16554 -0.83879,0.16554h-5.83829c-0.29429,0 -0.57388,-0.05517 -0.83879,-0.16554c-0.2649,-0.11774 -0.49658,-0.27223 -0.69526,-0.46354c-0.19122,-0.19866 -0.34582,-0.43042 -0.46358,-0.69531c-0.1103,-0.26486 -0.16545,-0.54814 -0.16545,-0.8498v-7.4055c0,-0.30166 0.05515,-0.58494 0.16545,-0.84982c0.11776,-0.26488 0.27236,-0.49297 0.46358,-0.68425c0.19868,-0.19866 0.43036,-0.35317 0.69526,-0.46354c0.2649,-0.11772 0.5445,-0.1766 0.83879,-0.1766h5.83829c0.30175,0 0.58134,0.05888 0.83879,0.1766c0.2649,0.11037 0.49297,0.26488 0.68441,0.46354c0.19845,0.19129 0.35305,0.41937 0.46336,0.68425c0.11776,0.26488 0.17675,0.54816 0.17675,0.84982zM209.08925,37.49701v7.4055h5.83829v-7.4055zM222.88484,37.49701v9.57968h-2.16308v-11.75388h2.16308v2.07486c0.01469,-0.28694 0.08092,-0.55549 0.19868,-0.80565c0.11776,-0.25751 0.27236,-0.47825 0.46358,-0.66219c0.19868,-0.19131 0.42674,-0.33845 0.68419,-0.44145c0.25767,-0.11037 0.53342,-0.16557 0.82771,-0.16557h2.30684c0.30152,0 0.58112,0.05888 0.83856,0.1766c0.2649,0.11037 0.49681,0.26488 0.69549,0.46354c0.19868,0.19129 0.35305,0.41937 0.46336,0.68425c0.11776,0.26488 0.17675,0.54816 0.17675,0.84982v1.98656h-2.17416v-1.98656zM241.55878,37.49701v9.57968h-2.17438v-9.57968h-4.97735v9.57968h-2.16308v-11.75388h2.16308v2.07486c0.01469,-0.28694 0.08092,-0.55549 0.19868,-0.80565c0.11776,-0.25751 0.27214,-0.47825 0.46358,-0.66219c0.19845,-0.19131 0.42674,-0.33845 0.68419,-0.44145c0.25745,-0.11037 0.53342,-0.16557 0.82771,-0.16557h2.80319c0.28705,0 0.55919,0.0552 0.81686,0.16557c0.25745,0.103 0.48551,0.25014 0.68419,0.44145c0.19868,0.18394 0.3569,0.40468 0.47466,0.66219c0.12499,0.25017 0.19122,0.51871 0.19868,0.80565c0.01469,-0.28694 0.07708,-0.55549 0.1876,-0.80565c0.11753,-0.25751 0.27214,-0.47825 0.46336,-0.66219c0.19868,-0.19131 0.42674,-0.33845 0.68441,-0.44145c0.25745,-0.11037 0.53342,-0.16557 0.82771,-0.16557h2.80319c0.30175,0 0.58496,0.05888 0.84986,0.1766c0.2649,0.11037 0.49297,0.26488 0.68419,0.46354c0.19868,0.19129 0.35328,0.41937 0.46358,0.68425c0.11776,0.26488 0.17653,0.54816 0.17653,0.84982v9.57968h-2.17416v-9.57968zM252.33034,41.94471c0,-0.30166 0.05515,-0.58125 0.16545,-0.83877c0.11776,-0.26488 0.27236,-0.49665 0.46358,-0.69531c0.19868,-0.19866 0.43036,-0.35317 0.69526,-0.46354c0.2649,-0.11772 0.5445,-0.17657 0.83879,-0.17657h5.60661v-2.27352h-7.09658v-2.1742h7.09658c0.30152,0 0.58496,0.05888 0.84986,0.1766c0.26468,0.11037 0.49297,0.26488 0.68419,0.46354c0.19868,0.19129 0.35305,0.41937 0.46358,0.68425c0.11776,0.26488 0.17653,0.54816 0.17653,0.84982v9.57968h-2.17416v-1.98658c-0.02215,0.27225 -0.09561,0.52976 -0.22083,0.77256c-0.12499,0.2428 -0.28683,0.45617 -0.48551,0.64011c-0.19145,0.1766 -0.41205,0.31639 -0.66226,0.41939c-0.25021,0.103 -0.51512,0.15451 -0.79471,0.15451h-3.4433c-0.29429,0 -0.57388,-0.05517 -0.83879,-0.16554c-0.2649,-0.11774 -0.49658,-0.27223 -0.69526,-0.46354c-0.19122,-0.19866 -0.34582,-0.43042 -0.46358,-0.69531c-0.1103,-0.26486 -0.16545,-0.54814 -0.16545,-0.8498zM254.49342,44.9025h5.60661v-2.9578h-5.60661zM265.22091,35.3228h2.86942v-3.61997h2.17416v3.61997h3.86281v2.1742h-3.86281v7.4055h3.86281v2.17418h-3.86281c-0.29429,0 -0.57388,-0.05517 -0.83856,-0.16554c-0.2649,-0.11774 -0.49681,-0.27223 -0.69549,-0.46354c-0.19868,-0.19866 -0.35667,-0.43042 -0.47443,-0.69531c-0.11053,-0.26486 -0.16568,-0.54814 -0.16568,-0.8498v-7.4055h-2.86942zM280.04289,35.3228v11.75388h-2.17416v-11.75388zM277.75843,30.79785h2.39476v2.26249h-2.39476zM293.949,44.9025c0,0.30166 -0.05899,0.58494 -0.17675,0.8498c-0.1103,0.26488 -0.26468,0.49665 -0.46336,0.69531c-0.19145,0.19131 -0.41951,0.3458 -0.68441,0.46354c-0.25745,0.11037 -0.53704,0.16554 -0.83879,0.16554h-5.83829c-0.29429,0 -0.57388,-0.05517 -0.83879,-0.16554c-0.2649,-0.11774 -0.49658,-0.27223 -0.69526,-0.46354c-0.19122,-0.19866 -0.34582,-0.43042 -0.46358,-0.69531c-0.1103,-0.26486 -0.16545,-0.54814 -0.16545,-0.8498v-7.4055c0,-0.30166 0.05515,-0.58494 0.16545,-0.84982c0.11776,-0.26488 0.27236,-0.49297 0.46358,-0.68425c0.19868,-0.19866 0.43036,-0.35317 0.69526,-0.46354c0.2649,-0.11772 0.5445,-0.1766 0.83879,-0.1766h5.83829c0.30175,0 0.58134,0.05888 0.83879,0.1766c0.2649,0.11037 0.49297,0.26488 0.68441,0.46354c0.19868,0.19129 0.35305,0.41937 0.46336,0.68425c0.11776,0.26488 0.17675,0.54816 0.17675,0.84982zM285.94741,37.49701v7.4055h5.83829v-7.4055zM307.97627,47.07668h-2.17416v-9.57968h-6.05912v9.57968h-2.16308v-11.75388h2.16308v2.07486c0.01492,-0.28694 0.08092,-0.55549 0.19868,-0.80565c0.11776,-0.25751 0.27236,-0.47825 0.46358,-0.66219c0.19868,-0.19131 0.42674,-0.33845 0.68419,-0.44145c0.25767,-0.11037 0.53342,-0.16557 0.82794,-0.16557h3.88473c0.30175,0 0.58496,0.05888 0.84986,0.1766c0.2649,0.11037 0.49297,0.26488 0.68419,0.46354c0.19868,0.19129 0.35328,0.41937 0.46358,0.68425c0.11776,0.26488 0.17653,0.54816 0.17653,0.84982z" fill="#ce8b4e" stroke="none" stroke-width="1" stroke-linecap="butt"/><path d="M154.52003,126.52534c0,-1.30938 0.2154,-2.5028 0.64644,-3.58028c0.43081,-1.09397 1.03588,-2.0304 1.815,-2.80952c0.79562,-0.79562 1.70719,-1.40883 2.73493,-1.83986c1.04425,-0.43103 2.17958,-0.64644 3.40623,-0.64644c1.79014,0 3.35651,0.41431 4.69911,1.24315c1.3591,0.82884 2.38685,2.00554 3.08301,3.53055l-1.6161,0.59671c-0.38131,-0.81212 -0.88693,-1.47528 -1.51664,-1.98904c-0.62994,-0.53049 -1.3426,-0.92829 -2.13822,-1.19343c-0.79562,-0.26513 -1.63282,-0.39781 -2.51117,-0.39781c-1.24315,0 -2.36199,0.28186 -3.35651,0.84534c-0.99452,0.56349 -1.782,1.37583 -2.36199,2.43658c-0.56371,1.06075 -0.84534,2.32876 -0.84534,3.80404c0,1.45856 0.28163,2.71843 0.84534,3.77918c0.57999,1.06075 1.36747,1.88123 2.36199,2.46144c0.99452,0.56349 2.11336,0.84534 3.35651,0.84534c0.89507,0 1.74855,-0.14082 2.56089,-0.42267c0.81212,-0.28186 1.54151,-0.72103 2.18795,-1.31774c0.66294,-0.59671 1.19343,-1.3426 1.59123,-2.23767l1.6161,0.59671c-0.71289,1.70719 -1.75714,3.00006 -3.13274,3.87863c-1.37583,0.86184 -2.98356,1.29288 -4.82343,1.29288c-1.22665,0 -2.36199,-0.2154 -3.40623,-0.64644c-1.02775,-0.43103 -1.93932,-1.04425 -2.73493,-1.83986c-0.77912,-0.79562 -1.38419,-1.73205 -1.815,-2.80952c-0.43103,-1.09397 -0.64644,-2.2874 -0.64644,-3.58028zM179.74718,135.40144c-1.17693,0 -2.22931,-0.25699 -3.1576,-0.77075c-0.92829,-0.51376 -1.65746,-1.24315 -2.18795,-2.18795c-0.53049,-0.96129 -0.79562,-2.09686 -0.79562,-3.40623c0,-1.3261 0.26513,-2.4698 0.79562,-3.4311c0.54699,-0.96129 1.28451,-1.69905 2.21281,-2.21281c0.94479,-0.51376 2.00554,-0.77075 3.18247,-0.77075c1.17693,0 2.22931,0.25699 3.1576,0.77075c0.94479,0.51376 1.68232,1.25151 2.21281,2.21281c0.54699,0.94479 0.82048,2.07199 0.82048,3.38137c0,1.3261 -0.27349,2.4698 -0.82048,3.4311c-0.54699,0.96129 -1.29288,1.69905 -2.23767,2.21281c-0.94479,0.51376 -2.00554,0.77075 -3.18247,0.77075zM179.72232,133.63616c0.72939,0 1.41719,-0.15754 2.06363,-0.4724c0.64644,-0.33158 1.16856,-0.83698 1.56637,-1.51664c0.41431,-0.69616 0.62158,-1.57473 0.62158,-2.63548c0,-1.07747 -0.1989,-1.95582 -0.59671,-2.63548c-0.39781,-0.67966 -0.91993,-1.17693 -1.56637,-1.49178c-0.62994,-0.33158 -1.30938,-0.49726 -2.03877,-0.49726c-0.72939,0 -1.40883,0.16568 -2.03877,0.49726c-0.62994,0.31486 -1.1437,0.82048 -1.54151,1.51664c-0.38131,0.67966 -0.57185,1.54987 -0.57185,2.61062c0,1.07747 0.19054,1.95582 0.57185,2.63548c0.38131,0.67966 0.87857,1.18506 1.49178,1.51664c0.62994,0.31486 1.30938,0.4724 2.03877,0.4724zM189.04211,122.79589h1.71555l0.12432,1.79014c0.36458,-0.59671 0.85371,-1.06911 1.46692,-1.41719c0.62994,-0.36458 1.37583,-0.54699 2.23767,-0.54699c0.87857,0 1.67419,0.2154 2.38685,0.64644c0.72939,0.41431 1.29288,1.03588 1.69069,1.86473c0.38131,-0.84534 0.96129,-1.47528 1.74041,-1.88959c0.77912,-0.41431 1.64096,-0.62158 2.58575,-0.62158c0.92829,0 1.74877,0.20727 2.46144,0.62158c0.71266,0.39781 1.26801,1.00288 1.66582,1.815c0.39781,0.79562 0.59671,1.7985 0.59671,3.00843v7.16055h-1.86473v-6.93678c0,-1.29288 -0.28186,-2.2709 -0.84534,-2.93384c-0.54699,-0.67966 -1.33424,-1.01938 -2.36199,-1.01938c-1.04425,0 -1.87309,0.36458 -2.4863,1.09397c-0.61321,0.71266 -0.91993,1.77364 -0.91993,3.18247v6.61356h-1.86473v-6.93678c0,-1.29288 -0.26513,-2.2709 -0.79562,-2.93384c-0.53049,-0.67966 -1.30938,-1.01938 -2.33712,-1.01938c-1.04425,0 -1.86473,0.36458 -2.46144,1.09397c-0.58021,0.71266 -0.87021,1.77364 -0.87021,3.18247v6.61356h-1.86473zM211.7043,122.79589h1.83986v12.43151h-1.83986zM212.64909,120.30958c-0.38108,0 -0.69616,-0.12432 -0.94479,-0.37295c-0.24863,-0.24863 -0.37295,-0.55535 -0.37295,-0.91993c0,-0.38131 0.12432,-0.69616 0.37295,-0.94479c0.24863,-0.24863 0.56371,-0.37295 0.94479,-0.37295c0.34808,0 0.64644,0.12432 0.89507,0.37295c0.26536,0.24863 0.39781,0.56349 0.39781,0.94479c0,0.36458 -0.13245,0.6713 -0.39781,0.91993c-0.24863,0.24863 -0.54699,0.37295 -0.89507,0.37295zM217.74149,122.79589h1.71555l0.09945,1.76527c0.39781,-0.61321 0.91993,-1.08561 1.56637,-1.41719c0.64644,-0.34808 1.40047,-0.52212 2.26253,-0.52212c0.94479,0 1.77341,0.20727 2.4863,0.62158c0.71266,0.39781 1.26801,1.00288 1.66582,1.815c0.39781,0.79562 0.59671,1.7985 0.59671,3.00843v7.16055h-1.86473v-6.93678c0,-1.29288 -0.28186,-2.2709 -0.84534,-2.93384c-0.54699,-0.67966 -1.3426,-1.01938 -2.38685,-1.01938c-1.07747,0 -1.92282,0.35645 -2.53603,1.06911c-0.59671,0.71266 -0.89507,1.76527 -0.89507,3.1576v6.66329h-1.86473zM241.29853,122.79589h1.71555v10.14411c0,1.52501 -0.33972,2.82602 -1.01938,3.90349c-0.67966,1.09397 -1.66582,1.92282 -2.9587,2.4863c-1.29288,0.58021 -2.86761,0.87021 -4.72397,0.87021l-0.29836,-1.71555c2.33712,-0.03323 4.11076,-0.52212 5.32069,-1.46692c1.20993,-0.92829 1.815,-2.2874 1.815,-4.07754v-0.27349l0.1989,0.04973c-0.38131,0.72939 -0.95316,1.3591 -1.71555,1.88959c-0.76239,0.51376 -1.74877,0.77912 -2.9587,0.79562c-1.1437,0 -2.14658,-0.25699 -3.00843,-0.77075c-0.84534,-0.53049 -1.50828,-1.27638 -1.98904,-2.23767c-0.46403,-0.96129 -0.69616,-2.08849 -0.69616,-3.38137c0,-1.29288 0.23213,-2.41171 0.69616,-3.35651c0.48076,-0.96129 1.1437,-1.70719 1.98904,-2.23767c0.86184,-0.53049 1.86473,-0.79562 3.00843,-0.79562c0.74589,0 1.40883,0.11595 1.98904,0.34808c0.58021,0.2154 1.07747,0.51376 1.49178,0.89507c0.41431,0.36458 0.75425,0.77912 1.01938,1.24315zM232.99428,129.01164c0,1.42556 0.36458,2.56089 1.09397,3.40623c0.74589,0.82884 1.74877,1.24315 3.00843,1.24315c0.76239,0 1.45042,-0.1824 2.06363,-0.54699c0.61321,-0.36458 1.09397,-0.89507 1.44206,-1.59123c0.36458,-0.69616 0.54699,-1.53314 0.54699,-2.51117c0,-0.97802 -0.1824,-1.80664 -0.54699,-2.4863c-0.34808,-0.69616 -0.82884,-1.22665 -1.44206,-1.59123c-0.61321,-0.38131 -1.30124,-0.57185 -2.06363,-0.57185c-1.24315,0 -2.23767,0.42267 -2.98356,1.26801c-0.74589,0.84534 -1.11884,1.97254 -1.11884,3.38137zM254.96618,130.80178c0.09945,0.44753 0.30672,0.89507 0.62158,1.3426c0.33158,0.43103 0.77912,0.79562 1.3426,1.09397c0.58021,0.28186 1.31774,0.42267 2.21281,0.42267c1.27638,0 2.22117,-0.29836 2.83438,-0.89507c0.61321,-0.59671 0.91993,-1.30124 0.91993,-2.11336c0,-0.64644 -0.17404,-1.17693 -0.52212,-1.59123c-0.34808,-0.41431 -0.82048,-0.75425 -1.41719,-1.01938c-0.59671,-0.28186 -1.26801,-0.53049 -2.0139,-0.74589c-0.66294,-0.1824 -1.3261,-0.38131 -1.98904,-0.59671c-0.64644,-0.23213 -1.23479,-0.51376 -1.76527,-0.84534c-0.53049,-0.34808 -0.95316,-0.79562 -1.26801,-1.3426c-0.31486,-0.54699 -0.4724,-1.22665 -0.4724,-2.03877c0,-0.97802 0.23213,-1.82336 0.69616,-2.53603c0.46403,-0.72939 1.11884,-1.29288 1.96418,-1.69069c0.84534,-0.39781 1.8315,-0.59671 2.9587,-0.59671c0.97802,0 1.8315,0.14082 2.56089,0.42267c0.72939,0.28186 1.33424,0.67966 1.815,1.19343c0.49726,0.49726 0.86184,1.07747 1.09397,1.74041l-1.76527,0.6713c-0.11595,-0.38131 -0.33972,-0.74589 -0.6713,-1.09397c-0.33158,-0.36458 -0.76239,-0.66294 -1.29288,-0.89507c-0.53049,-0.23213 -1.13534,-0.34808 -1.815,-0.34808c-0.66294,0 -1.26801,0.11595 -1.815,0.34808c-0.53049,0.23213 -0.95316,0.56349 -1.26801,0.99452c-0.31486,0.43103 -0.4724,0.95316 -0.4724,1.56637c0,0.66294 0.1824,1.19343 0.54699,1.59123c0.38131,0.38131 0.87857,0.69616 1.49178,0.94479c0.62994,0.23213 1.31774,0.4559 2.06363,0.6713c0.67966,0.2154 1.33424,0.44753 1.96418,0.69616c0.64644,0.24863 1.21829,0.55535 1.71555,0.91993c0.51376,0.36458 0.91993,0.82048 1.21829,1.36747c0.29836,0.54699 0.44753,1.21829 0.44753,2.0139c0,0.87857 -0.20727,1.69905 -0.62158,2.46144c-0.41431,0.74589 -1.04425,1.35097 -1.88959,1.815c-0.82884,0.44753 -1.89795,0.6713 -3.20733,0.6713c-1.09397,0 -2.05527,-0.16568 -2.88411,-0.49726c-0.82884,-0.34808 -1.50828,-0.81212 -2.03877,-1.39233c-0.53049,-0.58021 -0.89507,-1.24315 -1.09397,-1.98904zM273.44483,135.40144c-1.17693,0 -2.22931,-0.25699 -3.1576,-0.77075c-0.92829,-0.51376 -1.65746,-1.24315 -2.18795,-2.18795c-0.53049,-0.96129 -0.79562,-2.09686 -0.79562,-3.40623c0,-1.3261 0.26513,-2.4698 0.79562,-3.4311c0.54699,-0.96129 1.28451,-1.69905 2.21281,-2.21281c0.94479,-0.51376 2.00554,-0.77075 3.18247,-0.77075c1.17693,0 2.22931,0.25699 3.1576,0.77075c0.94479,0.51376 1.68232,1.25151 2.21281,2.21281c0.54699,0.94479 0.82048,2.07199 0.82048,3.38137c0,1.3261 -0.27349,2.4698 -0.82048,3.4311c-0.54699,0.96129 -1.29288,1.69905 -2.23767,2.21281c-0.94479,0.51376 -2.00554,0.77075 -3.18247,0.77075zM273.41997,133.63616c0.72939,0 1.41719,-0.15754 2.06363,-0.4724c0.64644,-0.33158 1.16856,-0.83698 1.56637,-1.51664c0.41431,-0.69616 0.62158,-1.57473 0.62158,-2.63548c0,-1.07747 -0.1989,-1.95582 -0.59671,-2.63548c-0.39781,-0.67966 -0.91993,-1.17693 -1.56637,-1.49178c-0.62994,-0.33158 -1.30938,-0.49726 -2.03877,-0.49726c-0.72939,0 -1.40883,0.16568 -2.03877,0.49726c-0.62994,0.31486 -1.1437,0.82048 -1.54151,1.51664c-0.38131,0.67966 -0.57185,1.54987 -0.57185,2.61062c0,1.07747 0.19054,1.95582 0.57185,2.63548c0.38131,0.67966 0.87857,1.18506 1.49178,1.51664c0.62994,0.31486 1.30938,0.4724 2.03877,0.4724zM288.11017,135.40144c-1.17693,0 -2.22931,-0.25699 -3.1576,-0.77075c-0.92829,-0.51376 -1.65746,-1.24315 -2.18795,-2.18795c-0.53049,-0.96129 -0.79562,-2.09686 -0.79562,-3.40623c0,-1.3261 0.26513,-2.4698 0.79562,-3.4311c0.54699,-0.96129 1.28451,-1.69905 2.21281,-2.21281c0.94479,-0.51376 2.00554,-0.77075 3.18247,-0.77075c1.17693,0 2.22931,0.25699 3.1576,0.77075c0.94479,0.51376 1.68232,1.25151 2.21281,2.21281c0.54699,0.94479 0.82048,2.07199 0.82048,3.38137c0,1.3261 -0.27349,2.4698 -0.82048,3.4311c-0.54699,0.96129 -1.29288,1.69905 -2.23767,2.21281c-0.94479,0.51376 -2.00554,0.77075 -3.18247,0.77075zM288.08531,133.63616c0.72939,0 1.41719,-0.15754 2.06363,-0.4724c0.64644,-0.33158 1.16856,-0.83698 1.56637,-1.51664c0.41431,-0.69616 0.62158,-1.57473 0.62158,-2.63548c0,-1.07747 -0.1989,-1.95582 -0.59671,-2.63548c-0.39781,-0.67966 -0.91993,-1.17693 -1.56637,-1.49178c-0.62994,-0.33158 -1.30938,-0.49726 -2.03877,-0.49726c-0.72939,0 -1.40883,0.16568 -2.03877,0.49726c-0.62994,0.31486 -1.1437,0.82048 -1.54151,1.51664c-0.38131,0.67966 -0.57185,1.54987 -0.57185,2.61062c0,1.07747 0.19054,1.95582 0.57185,2.63548c0.38131,0.67966 0.87857,1.18506 1.49178,1.51664c0.62994,0.31486 1.30938,0.4724 2.03877,0.4724zM297.4051,122.79589h1.71555l0.09945,1.76527c0.39781,-0.61321 0.91993,-1.08561 1.56637,-1.41719c0.64644,-0.34808 1.40047,-0.52212 2.26253,-0.52212c0.94479,0 1.77341,0.20727 2.4863,0.62158c0.71266,0.39781 1.26801,1.00288 1.66582,1.815c0.39781,0.79562 0.59671,1.7985 0.59671,3.00843v7.16055h-1.86473v-6.93678c0,-1.29288 -0.28186,-2.2709 -0.84534,-2.93384c-0.54699,-0.67966 -1.3426,-1.01938 -2.38685,-1.01938c-1.07747,0 -1.92282,0.35645 -2.53603,1.06911c-0.59671,0.71266 -0.89507,1.76527 -0.89507,3.1576v6.66329h-1.86473zM312.43412,135.35171c-0.38108,0 -0.7043,-0.13268 -0.96966,-0.39781c-0.24863,-0.26513 -0.37295,-0.58835 -0.37295,-0.96966c0,-0.38131 0.12432,-0.70453 0.37295,-0.96966c0.26536,-0.26513 0.58858,-0.39781 0.96966,-0.39781c0.36481,0 0.67966,0.13268 0.94479,0.39781c0.26536,0.26513 0.39781,0.58835 0.39781,0.96966c0,0.38131 -0.13245,0.70453 -0.39781,0.96966c-0.26513,0.26513 -0.57999,0.39781 -0.94479,0.39781zM318.28574,135.35171c-0.38131,0 -0.70453,-0.13268 -0.96966,-0.39781c-0.24863,-0.26513 -0.37295,-0.58835 -0.37295,-0.96966c0,-0.38131 0.12432,-0.70453 0.37295,-0.96966c0.26513,-0.26513 0.58835,-0.39781 0.96966,-0.39781c0.36458,0 0.67966,0.13268 0.94479,0.39781c0.26513,0.26513 0.39781,0.58835 0.39781,0.96966c0,0.38131 -0.13268,0.70453 -0.39781,0.96966c-0.26513,0.26513 -0.58021,0.39781 -0.94479,0.39781zM324.13737,135.35171c-0.38131,0 -0.70453,-0.13268 -0.96966,-0.39781c-0.24863,-0.26513 -0.37295,-0.58835 -0.37295,-0.96966c0,-0.38131 0.12432,-0.70453 0.37295,-0.96966c0.26513,-0.26513 0.58835,-0.39781 0.96966,-0.39781c0.36458,0 0.67944,0.13268 0.94479,0.39781c0.26513,0.26513 0.39781,0.58835 0.39781,0.96966c0,0.38131 -0.13268,0.70453 -0.39781,0.96966c-0.26536,0.26513 -0.58021,0.39781 -0.94479,0.39781z" fill="#cdbc80" stroke="none" stroke-width="1" stroke-linecap="butt"/><path d="M105.25793,62.78052h27.6795v5.42986h-22.24956v10.85994h18.9916v5.43008h-18.9916v16.26335h-5.42995zM163.87494,89.32112h-18.67371v6.22457h18.67371v5.21807h-18.67371c-0.70634,0 -1.37741,-0.13245 -2.013,-0.39736c-0.63582,-0.28253 -1.19207,-0.65345 -1.66876,-1.11251c-0.45906,-0.47669 -0.82997,-1.03295 -1.11251,-1.66876c-0.2649,-0.63559 -0.39736,-1.31548 -0.39736,-2.03945v-17.77322c0,-0.72397 0.13245,-1.40386 0.39736,-2.03945c0.28253,-0.63582 0.65345,-1.18325 1.11251,-1.64232c0.47669,-0.47669 1.03295,-0.8476 1.66876,-1.11251c0.63559,-0.28253 1.30666,-0.4238 2.013,-0.4238h13.45564c0.72397,0 1.40386,0.14127 2.03967,0.4238c0.63559,0.2649 1.18303,0.63582 1.64209,1.11251c0.47692,0.45906 0.8476,1.0065 1.11251,1.64232c0.28253,0.63559 0.4238,1.31548 0.4238,2.03945zM145.20123,77.77247v6.33058h13.45564v-6.33058zM196.45477,89.32112h-18.67371v6.22457h18.67371v5.21807h-18.67371c-0.70634,0 -1.37741,-0.13245 -2.01323,-0.39736c-0.63559,-0.28253 -1.19184,-0.65345 -1.66853,-1.11251c-0.45929,-0.47669 -0.82997,-1.03295 -1.11251,-1.66876c-0.2649,-0.63559 -0.39736,-1.31548 -0.39736,-2.03945v-17.77322c0,-0.72397 0.13245,-1.40386 0.39736,-2.03945c0.28253,-0.63582 0.65322,-1.18325 1.11251,-1.64232c0.47669,-0.47669 1.03295,-0.8476 1.66853,-1.11251c0.63582,-0.28253 1.30689,-0.4238 2.01323,-0.4238h13.45564c0.72397,0 1.40386,0.14127 2.03945,0.4238c0.63582,0.2649 1.18325,0.63582 1.64232,1.11251c0.47669,0.45906 0.8476,1.0065 1.11251,1.64232c0.28253,0.63559 0.4238,1.31548 0.4238,2.03945zM177.78106,77.77247v6.33058h13.45564v-6.33058zM205.16903,77.77247c0,-0.72397 0.13245,-1.40386 0.39736,-2.03945c0.28253,-0.63582 0.65345,-1.18325 1.11251,-1.64232c0.47692,-0.47669 1.03295,-0.8476 1.66876,-1.11251c0.63559,-0.28253 1.30666,-0.4238 2.013,-0.4238h14.5417v-10.85994h5.21807v39.0693h-5.21807v-4.76782c-0.05289,0.65345 -0.22942,1.2714 -0.52981,1.8541c-0.30016,0.5827 -0.68871,1.09488 -1.1654,1.53631c-0.45906,0.4238 -0.98887,0.75923 -1.5892,1.0065c-0.60033,0.24727 -1.23614,0.37091 -1.90722,0.37091h-9.35008c-0.70634,0 -1.37741,-0.13245 -2.013,-0.39736c-0.63582,-0.28253 -1.19184,-0.65345 -1.66876,-1.11251c-0.45906,-0.47669 -0.82997,-1.03295 -1.11251,-1.66876c-0.2649,-0.63559 -0.39736,-1.31548 -0.39736,-2.03945zM210.36066,95.54569h14.5417v-17.77322h-14.5417zM263.75965,95.54569c0,0.72397 -0.14127,1.40386 -0.4238,2.03945c-0.2649,0.63582 -0.63559,1.19207 -1.11251,1.66876c-0.45906,0.45906 -1.0065,0.82997 -1.64209,1.11251c-0.63582,0.2649 -1.31571,0.39736 -2.03967,0.39736h-14.5417c-0.70634,0 -1.37719,-0.13245 -2.013,-0.39736c-0.63559,-0.28253 -1.19184,-0.65345 -1.66876,-1.11251c-0.45906,-0.47669 -0.82997,-1.03295 -1.11251,-1.66876c-0.2649,-0.63559 -0.39713,-1.31548 -0.39713,-2.03945v-33.85123h5.1914v15.83955c0.03549,-0.68848 0.19438,-1.33311 0.47692,-1.93344c0.28253,-0.61819 0.65322,-1.14777 1.11251,-1.58943c0.47669,-0.45906 1.02413,-0.81212 1.64209,-1.05939c0.61819,-0.2649 1.28022,-0.39736 1.98656,-0.39736h9.32363c0.72397,0 1.40386,0.14127 2.03967,0.4238c0.63559,0.2649 1.18303,0.63582 1.64209,1.11251c0.47692,0.45906 0.8476,1.0065 1.11251,1.64232c0.28253,0.63559 0.4238,1.31548 0.4238,2.03945zM243.99987,77.77247v17.77322h14.5417v-17.77322zM272.44769,88.44707c0,-0.72397 0.13245,-1.39504 0.39713,-2.01323c0.28253,-0.63559 0.65345,-1.19184 1.11251,-1.66853c0.47692,-0.47692 1.03317,-0.8476 1.66876,-1.11251c0.63582,-0.28253 1.30666,-0.4238 2.013,-0.4238h13.45587v-5.45653h-17.03162v-5.21807h17.03162c0.72397,0 1.40386,0.14127 2.03945,0.4238c0.63582,0.2649 1.18303,0.63582 1.64232,1.11251c0.47669,0.45906 0.8476,1.0065 1.11251,1.64232c0.28253,0.63559 0.4238,1.31548 0.4238,2.03945v22.99129h-5.21807v-4.76782c-0.05312,0.65345 -0.22964,1.2714 -0.52981,1.8541c-0.30016,0.5827 -0.68871,1.09488 -1.1654,1.53631c-0.45929,0.4238 -0.98887,0.75923 -1.58943,1.0065c-0.60033,0.24727 -1.23592,0.37091 -1.90699,0.37091h-8.26424c-0.70634,0 -1.37719,-0.13245 -2.013,-0.39736c-0.63559,-0.28253 -1.19184,-0.65345 -1.66876,-1.11251c-0.45906,-0.47669 -0.82997,-1.03295 -1.11251,-1.66876c-0.26468,-0.63559 -0.39713,-1.31548 -0.39713,-2.03945zM277.63909,95.54569h13.45587v-7.09862h-13.45587zM310.21891,77.77247v17.77322h13.45677v-4.76782h5.21671v4.76782c0,0.72397 -0.14014,1.40386 -0.42267,2.03945c-0.26671,0.63582 -0.6374,1.19207 -1.11432,1.66876c-0.45884,0.45906 -1.00582,0.82997 -1.64096,1.11251c-0.63514,0.2649 -1.31548,0.39736 -2.03877,0.39736h-13.45677c-0.70634,0 -1.37741,-0.13245 -2.013,-0.39736c-0.63582,-0.28253 -1.19207,-0.65345 -1.66876,-1.11251c-0.45906,-0.47669 -0.82997,-1.03295 -1.11251,-1.66876c-0.2649,-0.63559 -0.39736,-1.31548 -0.39736,-2.03945v-17.77322c0,-0.72397 0.13245,-1.40386 0.39736,-2.03945c0.28253,-0.63582 0.65345,-1.18325 1.11251,-1.64232c0.47669,-0.47669 1.03295,-0.8476 1.66876,-1.11251c0.63559,-0.28253 1.30666,-0.4238 2.013,-0.4238h13.45677c0.72329,0 1.40363,0.14127 2.03877,0.4238c0.63514,0.2649 1.18212,0.63582 1.64096,1.11251c0.47692,0.45906 0.8476,1.0065 1.11432,1.64232c0.28253,0.63559 0.42267,1.31548 0.42267,2.03945v4.76782h-5.21671v-4.76782zM356.25528,100.76376l-13.45768,-12.05178v12.05178h-5.18959v-39.0693h5.18959v21.98479l12.37048,-11.12485h7.33685l-15.15062,13.61476l16.23781,14.59459zM369.28577,86.6723l-2.17212,-23.89178h7.36397l-2.17212,23.89178zM366.82207,92.84398h7.92v7.91978h-7.92z" fill="#ff9b40" stroke="none" stroke-width="1" stroke-linecap="butt"/><path d="M425.03359,110.36608h-361.80662" fill="none" stroke="#ffc85e" stroke-width="0.5" stroke-linecap="round"/></g></g></svg>