<svg version="1.1" xmlns="http://www.w3.org/2000/svg" xmlns:xlink="http://www.w3.org/1999/xlink" width="4.84961" height="7.54981" viewBox="-0.125,-0.125,4.84961,7.54981"><g transform="translate(-237.7002,-174.8263)"><g data-paper-data="{&quot;isPaintingLayer&quot;:true}" fill="#ffffff" fill-rule="nonzero" stroke="#ffffff" stroke-width="0.25" stroke-linecap="butt" stroke-linejoin="miter" stroke-miterlimit="10" stroke-dasharray="" stroke-dashoffset="0" style="mix-blend-mode: normal"><path d="M237.70021,175.78821c0,-0.13346 0.02441,-0.25879 0.07324,-0.37598c0.05208,-0.11719 0.12044,-0.2181 0.20508,-0.30273c0.08789,-0.08789 0.19043,-0.15625 0.30762,-0.20508c0.11719,-0.05208 0.24088,-0.07812 0.37109,-0.07812h2.68067c0.13346,0 0.25879,0.02604 0.37597,0.07813c0.11719,0.04883 0.2181,0.11719 0.30274,0.20508c0.08789,0.08463 0.15625,0.18554 0.20508,0.30273c0.05208,0.11719 0.07812,0.24252 0.07812,0.37598v6.33789h-0.96191v-3.01758c-0.00326,0.12695 -0.03256,0.24577 -0.08789,0.35645c-0.05209,0.11067 -0.12207,0.20833 -0.20997,0.29297c-0.08463,0.08138 -0.18391,0.14648 -0.29785,0.19531c-0.11393,0.04883 -0.23437,0.07324 -0.36132,0.07324h-1.72364c-0.13021,0 -0.2539,-0.02441 -0.37109,-0.07324c-0.11719,-0.05209 -0.21973,-0.12044 -0.30762,-0.20508c-0.08463,-0.08789 -0.15299,-0.19043 -0.20508,-0.30762c-0.04883,-0.11718 -0.07324,-0.24251 -0.07324,-0.37597zM241.3379,179.06458v-3.27637h-2.68067v3.27637z"/></g></g></svg>