<svg version="1.1" xmlns="http://www.w3.org/2000/svg" xmlns:xlink="http://www.w3.org/1999/xlink" width="48.37114" height="14.45262" viewBox="0,0,48.37114,14.45262"><g transform="translate(-208.53067,-172.77369)"><g data-paper-data="{&quot;isPaintingLayer&quot;:true}" fill="#87bf3d" fill-rule="nonzero" stroke="#87bf3d" stroke-width="0.5" stroke-linecap="butt" stroke-linejoin="miter" stroke-miterlimit="10" stroke-dasharray="" stroke-dashoffset="0" style="mix-blend-mode: normal"><path d="M215.62149,178.34839c0.21972,0.06836 0.41992,0.16602 0.60058,0.29297c0.18067,0.12696 0.33448,0.29053 0.46143,0.49073c0.12695,0.19531 0.22461,0.42724 0.29297,0.6958c0.06836,0.26855 0.10254,0.57617 0.10254,0.92285v0.52734c0,1.69923 -0.84961,2.54883 -2.54883,2.54883h-5.74951v-10.50293h5.44922c1.69921,0 2.54882,0.85205 2.54882,2.55615v0.19043c0,0.59082 -0.09521,1.07422 -0.28564,1.4502c-0.18555,0.37109 -0.47608,0.64697 -0.87158,0.82763zM210.25283,179.24927v3.10547h4.2334c0.39551,0 0.68116,-0.09277 0.85694,-0.27832c0.17578,-0.18555 0.26367,-0.47607 0.26367,-0.87158v-0.81299c0,-0.40039 -0.08789,-0.69092 -0.26367,-0.87158c-0.17578,-0.18066 -0.46143,-0.271 -0.85694,-0.271zM210.25283,174.79615v2.98828h4.03565c0.36133,-0.01465 0.62012,-0.11231 0.77637,-0.29297c0.16113,-0.18555 0.2417,-0.46875 0.2417,-0.84961v-0.68848c0,-0.40039 -0.0879,-0.69335 -0.26368,-0.8789c-0.17578,-0.18555 -0.46142,-0.27832 -0.85693,-0.27832zM220.69721,176.02662v7.80029h-1.4429v-7.80029zM219.18101,173.02369h1.5894v1.50146h-1.5894zM224.61561,177.46949v4.91455h3.7207v-1.31836h1.4429v1.31836c0,0.20019 -0.0391,0.38818 -0.1172,0.56397c-0.0732,0.1758 -0.1758,0.3296 -0.3076,0.4614c-0.127,0.127 -0.2783,0.2295 -0.4541,0.3076c-0.1758,0.0733 -0.3638,0.1099 -0.564,0.1099h-3.7207c-0.1953,0 -0.3808,-0.0366 -0.5566,-0.1099c-0.1758,-0.0781 -0.3296,-0.1806 -0.4614,-0.3076c-0.127,-0.1318 -0.2295,-0.2856 -0.3077,-0.4614c-0.0732,-0.17579 -0.1098,-0.36378 -0.1098,-0.56397v-4.91455c0,-0.2002 0.0366,-0.38819 0.1098,-0.56397c0.0782,-0.17578 0.1807,-0.32715 0.3077,-0.4541c0.1318,-0.13183 0.2856,-0.23437 0.4614,-0.30762c0.1758,-0.07812 0.3613,-0.11718 0.5566,-0.11718h3.7207c0.2002,0 0.3882,0.03906 0.564,0.11718c0.1758,0.07325 0.3271,0.17579 0.4541,0.30762c0.1318,0.12695 0.2344,0.27832 0.3076,0.4541c0.0781,0.17578 0.1172,0.36377 0.1172,0.56397v1.31836h-1.4429v-1.31836zM238.78801,180.66285h-5.1636v1.72119h5.1636v1.44287h-5.1636c-0.1953,0 -0.3809,-0.0366 -0.5566,-0.1099c-0.1758,-0.0781 -0.3296,-0.1806 -0.4615,-0.3076c-0.1269,-0.1318 -0.2295,-0.2856 -0.3076,-0.4614c-0.0732,-0.17579 -0.1098,-0.36378 -0.1098,-0.56397v-4.91455c0,-0.2002 0.0366,-0.38819 0.1098,-0.56397c0.0781,-0.17578 0.1807,-0.32715 0.3076,-0.4541c0.1319,-0.13183 0.2857,-0.23437 0.4615,-0.30762c0.1757,-0.07812 0.3613,-0.11718 0.5566,-0.11718h3.7207c0.2002,0 0.3882,0.03906 0.564,0.11718c0.1758,0.07325 0.3271,0.17579 0.4541,0.30762c0.1318,0.12695 0.2344,0.27832 0.3076,0.4541c0.0781,0.17578 0.1172,0.36377 0.1172,0.56397zM233.62441,177.46949v1.75049h3.7207v-1.75049zM248.09711,182.38404c0,0.20019 -0.0391,0.38818 -0.1172,0.56397c-0.0733,0.1758 -0.1758,0.3296 -0.3076,0.4614c-0.127,0.127 -0.2784,0.2295 -0.4541,0.3076c-0.1758,0.0733 -0.3638,0.1099 -0.564,0.1099h-4.021v3.1494h-1.4356v-10.94969h1.4356v1.31836c0.0146,-0.18555 0.0635,-0.35645 0.1465,-0.5127c0.083,-0.16113 0.188,-0.30029 0.3149,-0.41748c0.127,-0.12207 0.2735,-0.21728 0.4395,-0.28564c0.1709,-0.06836 0.3515,-0.10254 0.542,-0.10254h2.5781c0.2002,0 0.3882,0.03906 0.564,0.11718c0.1757,0.07325 0.3271,0.17579 0.4541,0.30762c0.1318,0.12695 0.2343,0.27832 0.3076,0.4541c0.0781,0.17578 0.1172,0.36377 0.1172,0.56397zM246.65421,182.38404v-4.91455h-4.021v4.91455zM255.20891,182.38404v-1.80908h-3.4204c-0.2002,0 -0.3882,-0.03662 -0.564,-0.10987c-0.1758,-0.07812 -0.3296,-0.18066 -0.4614,-0.30761c-0.127,-0.13184 -0.2295,-0.28565 -0.3076,-0.46143c-0.0733,-0.17578 -0.1099,-0.36377 -0.1099,-0.56396v-1.6626c0,-0.2002 0.0366,-0.38819 0.1099,-0.56397c0.0781,-0.17578 0.1806,-0.32715 0.3076,-0.4541c0.1318,-0.13183 0.2856,-0.23437 0.4614,-0.30762c0.1758,-0.07812 0.3638,-0.11718 0.564,-0.11718h4.563v1.44287h-4.563v1.6626h3.4204c0.2002,0 0.3857,0.03906 0.5566,0.11718c0.1758,0.07325 0.3296,0.17578 0.4614,0.30762c0.1319,0.12695 0.2344,0.27832 0.3077,0.4541c0.0781,0.17578 0.1172,0.36377 0.1172,0.56397v1.80908c0,0.20019 -0.0391,0.38818 -0.1172,0.56397c-0.0733,0.1758 -0.1758,0.3296 -0.3077,0.4614c-0.1318,0.127 -0.2856,0.2295 -0.4614,0.3076c-0.1709,0.0733 -0.3564,0.1099 -0.5566,0.1099h-4.8633v-1.44287z"/></g></g></svg>