<svg version="1.1" xmlns="http://www.w3.org/2000/svg" xmlns:xlink="http://www.w3.org/1999/xlink" width="22.46665" height="25.80179" viewBox="0,0,22.46665,25.80179"><g transform="translate(-228.76667,-167.09912)"><g fill="#ffa059" stroke="none" stroke-miterlimit="10"><path d="M250.1118,168.22066v23.55873h-3.36786v-10.08698h-13.48786v10.08698h-3.36786v-23.55873h3.36786v10.1038h13.48786v-10.1038z"/><path d="M250.1118,167.09912h1.12153v1.12153h-1.12153zM251.23332,191.77939v1.12153h-1.12153v-1.12153zM246.74393,192.90091h-1.12153v-1.12153h1.12153zM246.74393,180.57088h1.12153v1.12153h-1.12153zM232.13456,181.69239v-1.12153h1.12153v1.12153zM234.3776,191.77939v1.12153h-1.12153v-1.12153zM229.88821,192.90091h-1.12153v-1.12153h1.12153zM228.76669,168.22066v-1.12153h1.12153v1.12153zM233.25608,167.09912h1.12153v1.12153h-1.12153zM233.25608,179.44597h-1.12153v-1.12153h1.12153zM247.86545,178.32446v1.12153h-1.12153v-1.12153zM245.62241,168.22066v-1.12153h1.12153v1.12153zM251.23332,168.22066v23.55873h-2.24305v-23.55873zM250.1118,192.90091h-3.36786v-2.24305h3.36786zM245.62241,191.77939v-10.08698h2.24305v10.08698zM246.74393,182.81391h-13.48786v-2.24305h13.48786zM234.3776,181.69239v10.08698h-2.24305v-10.08698zM233.25608,192.90091h-3.36786v-2.24305h3.36786zM228.76669,191.77939v-23.55873h2.24305v23.55873zM229.88821,167.09912h3.36786v2.24305h-3.36786zM234.3776,168.22066v10.1038h-2.24305v-10.1038zM233.25608,177.20295h13.48786v2.24305h-13.48786zM245.62241,178.32446v-10.1038h2.24305v10.1038zM246.74393,167.09912h3.36786v2.24305h-3.36786z"/></g></g></svg>