<svg version="1.1" xmlns="http://www.w3.org/2000/svg" xmlns:xlink="http://www.w3.org/1999/xlink" width="5.09961" height="7.70215" viewBox="0,0,5.09961,7.70215"><g transform="translate(-237.45019,-172.54785)"><g data-paper-data="{&quot;isPaintingLayer&quot;:true}" fill="#ffffff" fill-rule="nonzero" stroke="#ffffff" stroke-width="0.5" stroke-linecap="butt" stroke-linejoin="miter" stroke-miterlimit="10" stroke-dasharray="" stroke-dashoffset="0" style="mix-blend-mode: normal"><path d="M237.7002,175.76172c0,-0.13346 0.02441,-0.25879 0.07324,-0.37598c0.05208,-0.11719 0.12044,-0.2181 0.20508,-0.30273c0.08789,-0.08789 0.19043,-0.15625 0.30762,-0.20508c0.11719,-0.05208 0.24088,-0.07813 0.37109,-0.07813h2.68067v-2.00195h0.96191v7.20215h-0.96191v-0.87891c-0.00977,0.12045 -0.04232,0.23438 -0.09766,0.3418c-0.05534,0.10742 -0.12695,0.20182 -0.21484,0.2832c-0.08464,0.07813 -0.1823,0.13998 -0.29297,0.18555c-0.11068,0.04557 -0.22787,0.06836 -0.35156,0.06836h-1.72364c-0.13021,0 -0.2539,-0.02441 -0.37109,-0.07324c-0.11719,-0.05209 -0.21973,-0.12044 -0.30762,-0.20508c-0.08463,-0.08789 -0.15299,-0.19043 -0.20508,-0.30762c-0.04883,-0.11718 -0.07324,-0.24251 -0.07324,-0.37597zM238.65722,179.03809h2.68067v-3.27637h-2.68067z"/></g></g></svg>