<svg version="1.1" xmlns="http://www.w3.org/2000/svg" xmlns:xlink="http://www.w3.org/1999/xlink" width="130" height="37.5" viewBox="0,0,130,37.5"><g transform="translate(-175,-161.25)"><g data-paper-data="{&quot;isPaintingLayer&quot;:true}" fill-rule="nonzero" stroke="none" stroke-width="1" stroke-linecap="butt" stroke-linejoin="miter" stroke-miterlimit="10" stroke-dasharray="" stroke-dashoffset="0" style="mix-blend-mode: normal"><path d="M305,165.43234v29.13529c0,2.30981 -1.39794,4.18238 -3.12236,4.18238h-123.75526c-1.72445,0 -3.12238,-1.87256 -3.12238,-4.18238v-29.13529c0,-2.30985 1.39793,-4.18234 3.12238,-4.18234h123.75526c1.72442,0 3.12236,1.87249 3.12236,4.18234z" fill="#47fffe"/><path d="M214.34678,187.49889c1.39641,0 2.47046,-0.37595 3.22215,-1.12764c0.7519,-0.7519 1.12784,-1.82595 1.12784,-3.22235v-6.29786c0,-0.6835 -0.09759,-1.29376 -0.29296,-1.8308c-0.19517,-0.53703 -0.48333,-0.99106 -0.86408,-1.36211c-0.37115,-0.38081 -0.82508,-0.66885 -1.36221,-0.86414c-0.53693,-0.19529 -1.14724,-0.29292 -1.83074,-0.29292h-7.67473v14.99783zM203.66967,190.50147v-21.00293h10.67711c1.12284,0 2.1335,0.17576 3.03178,0.52727c0.90807,0.34175 1.67957,0.83484 2.31428,1.47929c0.64431,0.63467 1.13744,1.40604 1.47919,2.31412c0.35155,0.90809 0.52733,1.91869 0.52733,3.03182v6.29786c0,1.11324 -0.17578,2.1239 -0.52733,3.03198c-0.34175,0.90807 -0.83488,1.68417 -1.47919,2.32868c-0.63471,0.63471 -1.4062,1.12784 -2.31428,1.47939c-0.89827,0.34175 -1.90893,0.51253 -3.03178,0.51253zM239.71444,187.61607c0,0.40034 -0.07819,0.77629 -0.23437,1.12784c-0.14658,0.35155 -0.35155,0.65911 -0.61511,0.92267c-0.25396,0.25396 -0.55672,0.45894 -0.90807,0.61511c-0.34175,0.14658 -0.7129,0.21977 -1.11324,0.21977h-7.74792c-0.39055,0 -0.76169,-0.07319 -1.11304,-0.21977c-0.35155,-0.15618 -0.65911,-0.36115 -0.92287,-0.61511c-0.25376,-0.26356 -0.45894,-0.57112 -0.61511,-0.92267c-0.14638,-0.35155 -0.21957,-0.7275 -0.21957,-1.12784v-9.82767c0,-0.40034 0.07319,-0.77627 0.21957,-1.12778c0.15618,-0.35151 0.36135,-0.65421 0.61511,-0.90807c0.26376,-0.26362 0.57132,-0.46867 0.92287,-0.61515c0.35135,-0.15622 0.7225,-0.23433 1.11304,-0.23433h7.74792c0.40034,0 0.77149,0.07811 1.11324,0.23433c0.35135,0.14648 0.65411,0.35153 0.90807,0.61515c0.26356,0.25386 0.46853,0.55656 0.61511,0.90807c0.15618,0.35151 0.23437,0.72744 0.23437,1.12778zM229.09572,177.7884v9.82767h7.74792v-9.82767zM258.32984,190.50147h-2.8852v-12.71307h-8.04088v12.71307h-2.8708v-15.5984h2.8708v2.75352c0.0194,-0.38081 0.10739,-0.7372 0.26356,-1.06919c0.15618,-0.34175 0.36135,-0.63467 0.61511,-0.87878c0.26376,-0.25386 0.56632,-0.44916 0.90807,-0.58586c0.34175,-0.14646 0.7079,-0.21969 1.09845,-0.21969h5.15568c0.40034,0 0.77629,0.07811 1.12764,0.23433c0.35155,0.14648 0.65431,0.35153 0.90807,0.61515c0.26376,0.25386 0.46873,0.55656 0.61531,0.90807c0.15618,0.35151 0.23417,0.72744 0.23417,1.12778zM276.33033,184.17415h-10.32576v3.44192h10.32576v2.8854h-10.32576c-0.39055,0 -0.76149,-0.07319 -1.11304,-0.21977c-0.35155,-0.15618 -0.65911,-0.36115 -0.92267,-0.61511c-0.25396,-0.26356 -0.45894,-0.57112 -0.61531,-0.92267c-0.14638,-0.35155 -0.21957,-0.7275 -0.21957,-1.12784v-9.82767c0,-0.40034 0.07319,-0.77627 0.21957,-1.12778c0.15638,-0.35151 0.36135,-0.65421 0.61531,-0.90807c0.26356,-0.26362 0.57112,-0.46867 0.92267,-0.61515c0.35155,-0.15622 0.7225,-0.23433 1.11304,-0.23433h7.44036c0.40034,0 0.77629,0.07811 1.12784,0.23433c0.35155,0.14648 0.65411,0.35153 0.90807,0.61515c0.26356,0.25386 0.46873,0.55656 0.61511,0.90807c0.15618,0.35151 0.23437,0.72744 0.23437,1.12778zM266.00457,177.7884v3.50055h7.44036v-3.50055z" fill="#000000"/></g></g></svg>