<svg xmlns="http://www.w3.org/2000/svg" fill="none" viewBox="0 0 14 18" height="18" width="14">
<path fill="black" d="M13.2466 15.4976C13.2466 15.8394 13.1815 16.1649 13.0513 16.4741C12.9211 16.7752 12.742 17.0397 12.5142 17.2676C12.2863 17.4954 12.0177 17.6745 11.7085 17.8047C11.4074 17.9349 11.0859 18 10.7441 18H2.74854C2.40674 18 2.08122 17.9349 1.77197 17.8047C1.47087 17.6745 1.20638 17.4954 0.978516 17.2676C0.750651 17.0397 0.571615 16.7752 0.441406 16.4741C0.311198 16.1649 0.246094 15.8394 0.246094 15.4976V13.2515H2.74854V15.4976H10.7441V10.5049H2.74854C2.40674 10.5049 2.08122 10.4398 1.77197 10.3096C1.47087 10.1712 1.20638 9.99219 0.978516 9.77246C0.750651 9.5446 0.571615 9.28011 0.441406 8.979C0.311198 8.66976 0.246094 8.34424 0.246094 8.00244V2.99756C0.246094 2.65576 0.311198 2.33431 0.441406 2.0332C0.571615 1.72396 0.750651 1.45947 0.978516 1.23975C1.20638 1.01188 1.47087 0.832845 1.77197 0.702637C2.08122 0.56429 2.40674 0.495117 2.74854 0.495117H10.7441C11.0859 0.495117 11.4074 0.56429 11.7085 0.702637C12.0177 0.832845 12.2863 1.01188 12.5142 1.23975C12.742 1.45947 12.9211 1.72396 13.0513 2.0332C13.1815 2.33431 13.2466 2.65576 13.2466 2.99756V15.4976ZM10.7441 8.00244V2.99756H2.74854V8.00244H10.7441Z"></path>
</svg>
