<svg version="1.1" xmlns="http://www.w3.org/2000/svg" xmlns:xlink="http://www.w3.org/1999/xlink" width="64.54746" height="26.98283" viewBox="0,0,64.54746,26.98283"><g transform="translate(-207.81808,-170.64271)"><g data-paper-data="{&quot;isPaintingLayer&quot;:true}" fill="#000000" fill-rule="nonzero" stroke="#000000" stroke-width="0.5" stroke-linecap="butt" stroke-linejoin="miter" stroke-miterlimit="10" stroke-dasharray="" stroke-dashoffset="0" style="mix-blend-mode: normal"><path d="M210.98063,170.89271v17.46104h10.47093v2.91254h-13.38348v-20.37357zM237.4635,185.12864h-10.01637v3.33877h10.01637v2.79888h-10.01637c-0.37886,0 -0.7388,-0.07104 -1.07977,-0.2131c-0.34097,-0.15155 -0.63933,-0.35046 -0.89507,-0.59674c-0.24627,-0.25572 -0.44519,-0.55409 -0.59671,-0.89507c-0.14208,-0.34097 -0.21313,-0.70565 -0.21313,-1.09399v-9.53325c0,-0.38833 0.07104,-0.75299 0.21313,-1.09398c0.15153,-0.34097 0.35044,-0.63459 0.59671,-0.88086c0.25574,-0.25574 0.5541,-0.45463 0.89507,-0.59671c0.34097,-0.15155 0.7009,-0.22731 1.07977,-0.22731h7.21746c0.38833,0 0.75294,0.07576 1.09405,0.22731c0.34088,0.14208 0.63454,0.34097 0.88074,0.59671c0.25583,0.24627 0.45459,0.53989 0.59671,0.88086c0.15153,0.34099 0.2274,0.70564 0.2274,1.09398zM227.44713,178.93416v3.3956h7.21746v-3.3956zM242.13758,178.93416c0,-0.38833 0.07118,-0.75299 0.2133,-1.09398c0.15153,-0.34097 0.35028,-0.63459 0.59671,-0.88086c0.2556,-0.25574 0.55395,-0.45463 0.89507,-0.59671c0.34088,-0.15155 0.70079,-0.22731 1.07973,-0.22731h5.0152c0.36953,0 0.71981,0.07102 1.0513,0.2131c0.33171,0.13261 0.62044,0.32204 0.86664,0.56831c0.25583,0.23679 0.45951,0.52093 0.61104,0.85245c0.16093,0.32204 0.24621,0.66775 0.25584,1.03714v-2.67101h2.79868v18.44134c0,0.38833 -0.07565,0.75294 -0.22718,1.09405c-0.14213,0.34088 -0.3411,0.63454 -0.59671,0.88075c-0.2462,0.25583 -0.53986,0.4548 -0.88097,0.59671c-0.34088,0.15153 -0.70549,0.2274 -1.09382,0.2274h-8.8372v-2.79891h8.8372v-3.89284h-7.80001c-0.37893,0 -0.73884,-0.07104 -1.07973,-0.21313c-0.34111,-0.15155 -0.63946,-0.35043 -0.89507,-0.59671c-0.24643,-0.25574 -0.44519,-0.5541 -0.59671,-0.89507c-0.14213,-0.34099 -0.2133,-0.70564 -0.2133,-1.09398zM252.7224,187.8849v-8.95075h-7.80001v8.95075zM269.31663,188.4674v-3.50926h-6.63478c-0.38834,0 -0.75316,-0.07104 -1.09405,-0.2131c-0.3411,-0.15155 -0.63946,-0.35046 -0.89507,-0.59674c-0.2462,-0.25572 -0.44519,-0.55408 -0.59671,-0.89507c-0.14213,-0.34097 -0.21308,-0.70564 -0.21308,-1.09398v-3.22512c0,-0.38833 0.07095,-0.75299 0.21308,-1.09398c0.15153,-0.34097 0.3505,-0.63459 0.59671,-0.88086c0.25561,-0.25574 0.55396,-0.45463 0.89507,-0.59671c0.34088,-0.15155 0.70571,-0.22731 1.09405,-0.22731h8.85108v2.79886h-8.85108v3.22512h6.63478c0.38834,0 0.74824,0.07579 1.07973,0.22731c0.3411,0.14208 0.63946,0.34099 0.89507,0.59673c0.25583,0.24625 0.4548,0.53989 0.59671,0.88086c0.15153,0.34097 0.2274,0.70564 0.2274,1.09398v3.50926c0,0.38833 -0.07588,0.75301 -0.2274,1.09399c-0.1419,0.34097 -0.34088,0.63934 -0.59671,0.89507c-0.25561,0.24627 -0.55396,0.44519 -0.89507,0.59674c-0.33148,0.14206 -0.69139,0.2131 -1.07973,0.2131h-9.43369v-2.79888z"/></g></g></svg>