<svg version="1.1" xmlns="http://www.w3.org/2000/svg" xmlns:xlink="http://www.w3.org/1999/xlink" width="54.76512" height="14.45262" viewBox="0,0,54.76512,14.45262"><g transform="translate(-208.57437,-172.77369)"><g data-paper-data="{&quot;isPaintingLayer&quot;:true}" fill="#87bf3d" fill-rule="nonzero" stroke="#87bf3d" stroke-width="0.5" stroke-linecap="butt" stroke-linejoin="miter" stroke-miterlimit="10" stroke-dasharray="" stroke-dashoffset="0" style="mix-blend-mode: normal"><path d="M208.82437,173.32398h8.40088v1.50147h-3.44971v9.00146h-1.50147v-9.00146h-3.4497zM219.40789,177.46949v6.35742h-1.43557v-7.80029h1.43557v1.37695c0.0097,-0.19043 0.0537,-0.36865 0.1318,-0.53467c0.0781,-0.1709 0.1807,-0.31738 0.3076,-0.43945c0.1319,-0.12695 0.2832,-0.22461 0.4541,-0.29297c0.1709,-0.07324 0.354,-0.10986 0.5493,-0.10986h1.5308c0.2002,0 0.3857,0.03906 0.5566,0.11718c0.1758,0.07325 0.3296,0.17579 0.4615,0.30762c0.1318,0.12695 0.2343,0.27832 0.3076,0.4541c0.0781,0.17578 0.1172,0.36377 0.1172,0.56397v1.31836h-1.4429v-1.31836zM227.13489,176.02662v7.80029h-1.4428v-7.80029zM225.61879,173.02369h1.5894v1.50146h-1.5894zM231.05339,177.46949v4.91455h3.7207v-1.31836h1.4429v1.31836c0,0.20019 -0.0391,0.38818 -0.1172,0.56397c-0.0733,0.1758 -0.1758,0.3296 -0.3076,0.4614c-0.127,0.127 -0.2784,0.2295 -0.4542,0.3076c-0.1757,0.0733 -0.3637,0.1099 -0.5639,0.1099h-3.7207c-0.1953,0 -0.3809,-0.0366 -0.5567,-0.1099c-0.1757,-0.0781 -0.3295,-0.1806 -0.4614,-0.3076c-0.1269,-0.1318 -0.2295,-0.2856 -0.3076,-0.4614c-0.0732,-0.17579 -0.1099,-0.36378 -0.1099,-0.56397v-4.91455c0,-0.2002 0.0367,-0.38819 0.1099,-0.56397c0.0781,-0.17578 0.1807,-0.32715 0.3076,-0.4541c0.1319,-0.13183 0.2857,-0.23437 0.4614,-0.30762c0.1758,-0.07812 0.3614,-0.11718 0.5567,-0.11718h3.7207c0.2002,0 0.3882,0.03906 0.5639,0.11718c0.1758,0.07325 0.3272,0.17579 0.4542,0.30762c0.1318,0.12695 0.2343,0.27832 0.3076,0.4541c0.0781,0.17578 0.1172,0.36377 0.1172,0.56397v1.31836h-1.4429v-1.31836zM245.22569,180.66285h-5.1635v1.72119h5.1635v1.44287h-5.1635c-0.1953,0 -0.3809,-0.0366 -0.5567,-0.1099c-0.1758,-0.0781 -0.3296,-0.1806 -0.4614,-0.3076c-0.1269,-0.1318 -0.2295,-0.2856 -0.3076,-0.4614c-0.0733,-0.17579 -0.1099,-0.36378 -0.1099,-0.56397v-4.91455c0,-0.2002 0.0366,-0.38819 0.1099,-0.56397c0.0781,-0.17578 0.1807,-0.32715 0.3076,-0.4541c0.1318,-0.13183 0.2856,-0.23437 0.4614,-0.30762c0.1758,-0.07812 0.3614,-0.11718 0.5567,-0.11718h3.7207c0.2002,0 0.3882,0.03906 0.5639,0.11718c0.1758,0.07325 0.3272,0.17579 0.4541,0.30762c0.1319,0.12695 0.2344,0.27832 0.3077,0.4541c0.0781,0.17578 0.1171,0.36377 0.1171,0.56397zM240.06219,177.46949v1.75049h3.7207v-1.75049zM254.53479,182.38404c0,0.20019 -0.039,0.38818 -0.1172,0.56397c-0.0732,0.1758 -0.1757,0.3296 -0.3076,0.4614c-0.1269,0.127 -0.2783,0.2295 -0.4541,0.3076c-0.1758,0.0733 -0.3637,0.1099 -0.5639,0.1099h-4.021v3.1494h-1.4356v-10.94969h1.4356v1.31836c0.0146,-0.18555 0.0634,-0.35645 0.1464,-0.5127c0.0831,-0.16113 0.188,-0.30029 0.315,-0.41748c0.1269,-0.12207 0.2734,-0.21728 0.4394,-0.28564c0.1709,-0.06836 0.3516,-0.10254 0.542,-0.10254h2.5782c0.2002,0 0.3881,0.03906 0.5639,0.11718c0.1758,0.07325 0.3272,0.17579 0.4541,0.30762c0.1319,0.12695 0.2344,0.27832 0.3076,0.4541c0.0782,0.17578 0.1172,0.36377 0.1172,0.56397zM253.09199,182.38404v-4.91455h-4.021v4.91455zM261.64659,182.38404v-1.80908h-3.4204c-0.2002,0 -0.3882,-0.03662 -0.5639,-0.10987c-0.1758,-0.07812 -0.3296,-0.18066 -0.4615,-0.30761c-0.1269,-0.13184 -0.2294,-0.28565 -0.3076,-0.46143c-0.0732,-0.17578 -0.1098,-0.36377 -0.1098,-0.56396v-1.6626c0,-0.2002 0.0366,-0.38819 0.1098,-0.56397c0.0782,-0.17578 0.1807,-0.32715 0.3076,-0.4541c0.1319,-0.13183 0.2857,-0.23437 0.4615,-0.30762c0.1757,-0.07812 0.3637,-0.11718 0.5639,-0.11718h4.563v1.44287h-4.563v1.6626h3.4204c0.2002,0 0.3858,0.03906 0.5567,0.11718c0.1758,0.07325 0.3296,0.17578 0.4614,0.30762c0.1318,0.12695 0.2344,0.27832 0.3076,0.4541c0.0782,0.17578 0.1172,0.36377 0.1172,0.56397v1.80908c0,0.20019 -0.039,0.38818 -0.1172,0.56397c-0.0732,0.1758 -0.1758,0.3296 -0.3076,0.4614c-0.1318,0.127 -0.2856,0.2295 -0.4614,0.3076c-0.1709,0.0733 -0.3565,0.1099 -0.5567,0.1099h-4.8632v-1.44287z"/></g></g></svg>