<svg version="1.1" xmlns="http://www.w3.org/2000/svg" xmlns:xlink="http://www.w3.org/1999/xlink" width="21.69486" height="36.73769" viewBox="0,0,21.69486,36.73769"><g transform="translate(-229.15257,-161.63116)"><g data-paper-data="{&quot;isPaintingLayer&quot;:true}" fill="#ffad4e" fill-rule="nonzero" stroke="none" stroke-width="1" stroke-linecap="butt" stroke-linejoin="miter" stroke-miterlimit="10" stroke-dasharray="" stroke-dashoffset="0" style="mix-blend-mode: normal"><path d="M249.03976,161.63117c0.99927,0 1.80767,0.82249 1.80767,1.83692v9.18436h-0.01684l0.01684,0.01853l-7.23068,7.32917l7.22506,7.342c0.00281,0.00314 0.00281,0.00797 0,0.01083l-0.00281,0.00371c-0.00281,0.00342 0,0.0094 0.00281,0.0094c0.00281,0 0.00561,0.00227 0.00561,0.00514v9.1607c0,1.01471 -0.8084,1.83692 -1.80767,1.83692h-18.0795c-0.99927,0 -1.80767,-0.82221 -1.80767,-1.83692v-9.1607c0,-0.00286 0.00281,-0.00514 0.00561,-0.00514c0.00561,0 0.00561,-0.00598 0.00281,-0.0094l-0.00281,-0.00371c-0.00281,-0.00286 -0.00281,-0.00769 0,-0.01083l7.22506,-7.342l-7.23068,-7.32917l0.01684,-0.01853c-0.00842,0 -0.01684,-0.00828 -0.01684,-0.01825v-9.16612c0,-1.01443 0.8084,-1.83692 1.80767,-1.83692zM240.00139,180.91851l-7.23348,7.34773v4.59218c0,1.01443 0.81121,1.83692 1.80767,1.83692h10.84882c0.99927,0 1.80767,-0.82249 1.80767,-1.83692v-4.59218zM247.23205,171.73413v-4.59218c0,-1.01443 -0.8084,-1.83692 -1.80767,-1.83692h-10.84882c-0.99646,0 -1.80767,0.82249 -1.80767,1.83692v4.59218l7.23348,7.34742z"/><path d="M231.76582,171.93279c0,0 4.76899,2.85137 8.11206,2.77693c3.7613,-0.08356 8.8166,-3.94137 8.8166,-3.94137l-6.877,9.49523l-3.70235,-0.89578z"/><path d="M239.29406,189.5851c0.3621,-0.46143 1.0526,-0.46143 1.41189,0l4.56408,5.81851h-10.54006z"/><path d="M239.64212,180.53747h0.58946v9.02123h-0.58946z"/></g></g></svg>