<svg version="1.1" xmlns="http://www.w3.org/2000/svg" xmlns:xlink="http://www.w3.org/1999/xlink" width="18.9468" height="23.80625" viewBox="0,0,18.9468,23.80625"><g transform="translate(-230.5266,-155.72708)"><g data-paper-data="{&quot;isPaintingLayer&quot;:true}" fill="#2675f0" fill-rule="nonzero" stroke="none" stroke-width="1" stroke-linecap="butt" stroke-linejoin="miter" stroke-miterlimit="10" stroke-dasharray="" stroke-dashoffset="0" style="mix-blend-mode: normal"><path d="M231.2265,172.05213h3.1407v1.1874c0,0.8438 0.1875,1.4636 0.5625,1.8594c0.375,0.3959 0.9896,0.5938 1.8437,0.5938h6.4531c0.8542,0 1.4688,-0.1979 1.8438,-0.5938c0.375,-0.3958 0.5625,-1.0156 0.5625,-1.8594v-1.7343c0,-0.8542 -0.1875,-1.474 -0.5625,-1.8594c-0.375,-0.3854 -0.9896,-0.5781 -1.8438,-0.5781h-6.625v-3.125h6.5313c0.7813,-0.0313 1.3385,-0.23961 1.6719,-0.62502c0.3437,-0.39584 0.5156,-1 0.5156,-1.8125v-1.46876c0,-0.85416 -0.1927,-1.47916 -0.5781,-1.875c-0.375,-0.39583 -0.9844,-0.59374 -1.8281,-0.59374h-5.8282c-0.8437,0 -1.4531,0.19791 -1.8281,0.59374c-0.375,0.39584 -0.5625,1.02084 -0.5625,1.875v1.1875h-3.1406v-1.34374c0,-3.63542 1.8125,-5.45313 5.4375,-5.45313h6.0156c1.8437,0 3.2083,0.44792 4.0937,1.34375c0.8959,0.89583 1.3438,2.26562 1.3438,4.10938v0.40624c0,1.26042 -0.224,2.30209 -0.6719,3.125c-0.4375,0.81248 -1.0781,1.41668 -1.9219,1.81248c0.948,0.2813 1.6719,0.8438 2.1719,1.6875c0.5,0.8438 0.75,1.9636 0.75,3.3594v1.125c0,3.625 -1.8125,5.4375 -5.4375,5.4375h-6.6562c-3.6354,0 -5.4532,-1.8125 -5.4532,-5.4375z"/><path d="M230.5266,172.05213v-0.7h0.6999v0.7zM234.3672,171.35213h0.7v0.7h-0.7zM244.5621,174.61753l0.5082,0.4814zM236.6015,169.76773h-0.6999v-0.7h0.6999zM235.9016,165.94273v-0.70002h0.6999v0.70002zM243.1608,166.64213l-0.014,0.0006h-0.014v-0.7zM244.2752,164.8598l0.001,-0.00108l0.5285,0.45899zM244.2406,160.64979l-0.0066,-0.00687l0.5082,-0.48147zM235.3953,163.22395v0.7h-0.7v-0.7zM231.5547,163.92395h-0.7v-0.7h0.7zM246.6066,158.2658l-0.0029,-0.00289l0.4978,-0.49208zM247.1571,165.07959l0.0015,-0.00279l0.6148,0.33465zM245.6524,167.89503l-1.7639,-0.5234l1.6657,-0.7814l0.2973,0.6337zM231.2265,171.35213h3.1407v1.3999h-3.1407zM235.0672,172.05213v1.1874h-1.4v-1.1874zM235.0672,173.23953c0,0.7596 0.1715,1.1677 0.3706,1.378l-1.0163,0.9628c-0.5508,-0.5814 -0.7543,-1.4128 -0.7543,-2.3408zM235.4378,174.61753c0.1841,0.1943 0.5671,0.3752 1.3356,0.3752v1.4c-0.9397,0 -1.7859,-0.2149 -2.3519,-0.8124zM236.7734,174.99273h6.4531v1.4h-6.4531zM243.2265,174.99273c0.7686,0 1.1516,-0.1809 1.3356,-0.3752l1.0164,0.9628c-0.566,0.5975 -1.4122,0.8124 -2.352,0.8124zM244.5621,174.61753c0.1992,-0.2103 0.3707,-0.6184 0.3707,-1.378h1.4c0,0.928 -0.2035,1.7594 -0.7543,2.3408zM244.9328,173.23953v-1.7343h1.4v1.7343zM244.9328,171.50523c0,-0.775 -0.1736,-1.1754 -0.3642,-1.3713l1.0034,-0.9762c0.5594,0.5749 0.7608,1.4141 0.7608,2.3475zM244.5686,170.13393c-0.1834,-0.1884 -0.5691,-0.3662 -1.3421,-0.3662v-1.4c0.9354,0 1.7789,0.2076 2.3455,0.79zM243.2265,169.76773h-6.625v-1.4h6.625zM235.9016,169.06773v-3.125h1.3999v3.125zM236.6015,165.24271h6.5313v1.40002h-6.5313zM243.1048,165.24326c0.6901,-0.0276 1.0178,-0.20705 1.1704,-0.38346l1.0589,0.91581c-0.5141,0.59442 -1.3009,0.83162 -2.1733,0.86652zM244.2762,164.85872c0.1863,-0.21458 0.3441,-0.62105 0.3441,-1.35351h1.4c0,0.89253 -0.186,1.6944 -0.6871,2.27148zM244.6203,163.50521v-1.46876h1.4v1.46876zM244.6203,162.03645c0,-0.76859 -0.176,-1.1775 -0.3797,-1.38666l1.0031,-0.97667c0.5672,0.58251 0.7766,1.4236 0.7766,2.36333zM244.234,160.64288c-0.1854,-0.19569 -0.5649,-0.37518 -1.3199,-0.37518v-1.39999c0.9324,0 1.7716,0.21634 2.3362,0.81232zM242.9141,160.2677h-5.8282v-1.39999h5.8282zM237.0859,160.2677c-0.7551,0 -1.1345,0.17949 -1.3199,0.37518l-1.0164,-0.96285c0.5646,-0.59598 1.4039,-0.81232 2.3363,-0.81232zM235.766,160.64288c-0.198,0.20894 -0.3707,0.62079 -0.3707,1.39357h-1.4c0,-0.93554 0.2023,-1.77369 0.7543,-2.35642zM235.3953,162.03645v1.1875h-1.4v-1.1875zM234.6953,163.92395h-3.1406v-1.39999h3.1406zM230.8547,163.22395v-1.34374h1.4v1.34374zM230.8547,161.88021c0,-1.92511 0.4803,-3.49761 1.5637,-4.58411c1.0837,-1.08687 2.6529,-1.56902 4.5738,-1.56902v1.4c-1.7041,0 -2.8537,0.42671 -3.5825,1.15755c-0.7291,0.7312 -1.155,1.88526 -1.155,3.59558zM236.9922,155.72708h6.0156v1.4h-6.0156zM243.0078,155.72708c1.9441,0 3.5242,0.47171 4.5916,1.55168l-0.9957,0.98414c-0.7034,-0.7117 -1.8525,-1.13582 -3.5959,-1.13582zM247.5965,157.27586c1.0768,1.07675 1.5488,2.65948 1.5488,4.60435h-1.4c0,-1.74264 -0.4238,-2.89949 -1.1387,-3.61441zM249.1453,161.88021v0.40624h-1.4v-0.40624zM249.1453,162.28645c0,1.33862 -0.2373,2.50471 -0.7571,3.45966l-1.2296,-0.66931c0.3761,-0.69088 0.5867,-1.60812 0.5867,-2.79035zM248.3898,165.74332c-0.5095,0.94611 -1.2627,1.65541 -2.2409,2.11441l-0.5947,-1.2675c0.7093,-0.3327 1.2374,-0.8318 1.6029,-1.51064zM246.0507,166.55283c1.1155,0.331 1.9842,1.0048 2.5749,2.0018l-1.2044,0.7137c-0.4092,-0.6906 -0.9885,-1.1418 -1.7688,-1.3733zM248.6256,168.55463c0.5856,0.9881 0.8478,2.2451 0.8478,3.7162h-1.4c0,-1.3206 -0.2377,-2.3031 -0.6522,-3.0025zM249.4734,172.27083v1.125h-1.4v-1.125zM249.4734,173.39583c0,1.9204 -0.4805,3.4893 -1.5644,4.5731c-1.0838,1.0838 -2.6527,1.5644 -4.5731,1.5644v-1.4c1.7046,0 2.8545,-0.4257 3.5832,-1.1543c0.7286,-0.7287 1.1543,-1.8786 1.1543,-3.5832zM243.3359,179.53333h-6.6562v-1.4h6.6562zM236.6797,179.53333c-1.9251,0 -3.4976,-0.4803 -4.5841,-1.5637c-1.0869,-1.0837 -1.569,-2.6529 -1.569,-4.5738h1.3999c0,1.7041 0.4268,2.8537 1.1576,3.5824c0.7312,0.7292 1.8853,1.1551 3.5956,1.1551zM230.5266,173.39583v-1.3437h1.3999v1.3437z"/></g></g></svg>