<svg version="1.1" xmlns="http://www.w3.org/2000/svg" xmlns:xlink="http://www.w3.org/1999/xlink" width="14.04625" height="17.09444" viewBox="0,0,14.04625,17.09444"><g transform="translate(-233.22689,-171.70278)"><g data-paper-data="{&quot;isPaintingLayer&quot;:true}" fill="#83a837" fill-rule="nonzero" stroke="#83a837" stroke-width="1" stroke-linecap="butt" stroke-linejoin="miter" stroke-miterlimit="10" stroke-dasharray="" stroke-dashoffset="0" style="mix-blend-mode: normal"><path d="M241.57907,188.29722v-4.02361h-7.85217v-1.78014c0.03251,-0.08129 0.08129,-0.17883 0.14631,-0.29263c0.08129,-0.1138 0.1707,-0.24386 0.26824,-0.39017l6.70602,-9.60789h3.1945v10.04683h2.73118v2.024h-2.73118v4.02361zM236.16549,182.24962h5.41358v-5.68182c0,-0.39017 0.00813,-0.78846 0.02439,-1.19489c0.03251,-0.42268 0.0569,-0.83724 0.07316,-1.24366h-0.04877c-0.17883,0.39017 -0.41455,0.82098 -0.70718,1.29243c-0.27637,0.4552 -0.53648,0.85349 -0.78034,1.19489l-3.80414,5.41358c-0.03251,0.03251 -0.06503,0.06503 -0.09754,0.09754c-0.01626,0.03251 -0.04064,0.07316 -0.07316,0.12193z"/></g></g></svg>