<svg xmlns="http://www.w3.org/2000/svg" fill="none" viewBox="0 0 15 18" height="18" width="15">
<path fill="black" d="M10.0474 7.9292C10.6577 7.90479 11.0931 7.74202 11.3535 7.44092C11.6139 7.13167 11.7441 6.65967 11.7441 6.0249V4.87744C11.7441 4.21012 11.5977 3.72184 11.3047 3.4126C11.0117 3.10335 10.5356 2.94873 9.87646 2.94873H5.32324C4.66406 2.94873 4.18799 3.10335 3.89502 3.4126C3.60205 3.72184 3.45557 4.21012 3.45557 4.87744V6.0249C3.45557 6.65967 3.58577 7.13167 3.84619 7.44092C4.11475 7.74202 4.55013 7.90479 5.15234 7.9292H10.0474ZM10.1206 15.5464C10.7879 15.5464 11.2681 15.3918 11.561 15.0825C11.854 14.7733 12.0005 14.2891 12.0005 13.6299V12.2749C12.0005 11.6076 11.854 11.1234 11.561 10.8223C11.2681 10.5212 10.7879 10.3706 10.1206 10.3706H5.0791C4.41178 10.3706 3.93164 10.5212 3.63867 10.8223C3.3457 11.1234 3.19922 11.6076 3.19922 12.2749V13.6299C3.19922 14.2891 3.3457 14.7733 3.63867 15.0825C3.93164 15.3918 4.41178 15.5464 5.0791 15.5464H10.1206ZM5.00586 18C2.16569 18 0.745605 16.584 0.745605 13.752V12.873C0.745605 11.7826 0.940918 10.9077 1.33154 10.2485C1.72217 9.58936 2.28776 9.1499 3.02832 8.93018C2.36914 8.62093 1.86458 8.14893 1.51465 7.51416C1.17285 6.87126 1.00195 6.05745 1.00195 5.07275V4.75537C1.00195 1.9152 2.41797 0.495117 5.25 0.495117H9.94971C12.7817 0.495117 14.1978 1.9152 14.1978 4.75537V5.07275C14.1978 6.05745 14.0228 6.87126 13.6729 7.51416C13.3311 8.14893 12.8306 8.62093 12.1714 8.93018C12.9119 9.1499 13.4775 9.58936 13.8682 10.2485C14.2588 10.9077 14.4541 11.7826 14.4541 12.873V13.752C14.4541 16.584 13.0381 18 10.2061 18H5.00586Z"></path>
</svg>
