<svg version="1.1" xmlns="http://www.w3.org/2000/svg" xmlns:xlink="http://www.w3.org/1999/xlink" width="19.009" height="23.80625" viewBox="0,0,19.009,23.80625"><g transform="translate(-230.4955,-156.06042)"><g data-paper-data="{&quot;isPaintingLayer&quot;:true}" fill="#24b0ff" fill-rule="nonzero" stroke="none" stroke-width="1" stroke-linecap="butt" stroke-linejoin="miter" stroke-miterlimit="10" stroke-dasharray="" stroke-dashoffset="0" style="mix-blend-mode: normal"><path d="M248.8045,175.96357c0,0.4375 -0.083,0.8541 -0.25,1.25c-0.167,0.3854 -0.396,0.7239 -0.687,1.0156c-0.292,0.2917 -0.636,0.5208 -1.032,0.6875c-0.385,0.1667 -0.796,0.25 -1.234,0.25h-11.203c-0.438,0 -0.854,-0.0833 -1.25,-0.25c-0.386,-0.1667 -0.724,-0.3958 -1.016,-0.6875c-0.291,-0.2917 -0.521,-0.6302 -0.687,-1.0156c-0.167,-0.3959 -0.25,-0.8125 -0.25,-1.25v-16.00002c0,-0.4375 0.083,-0.84896 0.25,-1.23438c0.166,-0.39583 0.396,-0.73438 0.687,-1.01562c0.292,-0.29167 0.63,-0.52084 1.016,-0.6875c0.396,-0.17708 0.812,-0.26562 1.25,-0.26562h11.203c0.438,0 0.849,0.08854 1.234,0.26563c0.396,0.16666 0.74,0.39584 1.032,0.6875c0.291,0.28124 0.52,0.61979 0.687,1.01562c0.167,0.38542 0.25,0.79688 0.25,1.23438zM234.3985,159.96355v16.00002h11.203v-16.00002z"/><path d="M249.1995,177.48517l-0.002,0.0062l-0.643,-0.2778zM246.5585,178.27417l0.006,-0.0027l0.271,0.6452zM232.8765,179.56177l-0.006,-0.0026l0.278,-0.6425zM231.6375,178.72417l0.495,-0.495zM230.8025,177.49137l-0.002,-0.0062l0.645,-0.2716zM232.0905,159.00081l-0.003,0.00621l-0.642,-0.27785zM232.6275,158.20852l-0.009,0.009l-0.486,-0.50397zM233.4345,157.66502l-0.008,0.00358l-0.278,-0.64255zM246.5645,157.67119l-0.011,-0.00437l-0.01,-0.0047l0.292,-0.63608zM247.3815,158.21744l-0.009,-0.00884l0.495,-0.49505zM247.9125,159.00701l-0.003,-0.00619l0.645,-0.27165zM233.6985,159.96355v-0.7h0.7v0.7zM234.3985,176.66357h-0.7v-0.7h0.7zM246.3015,175.96357v0.7h-0.7v-0.7zM245.6015,159.26355h0.7v0.7h-0.7zM249.5045,175.96357c0,0.529 -0.101,1.0382 -0.305,1.5216l-1.29,-0.5433c0.13,-0.3082 0.195,-0.6323 0.195,-0.9783zM249.1975,177.49137c-0.201,0.465 -0.48,0.8775 -0.835,1.2328l-0.99,-0.99c0.228,-0.2281 0.407,-0.4926 0.54,-0.7985zM248.3625,178.72417c-0.359,0.3583 -0.779,0.6373 -1.255,0.8376l-0.543,-1.2902c0.316,-0.133 0.583,-0.3124 0.808,-0.5374zM247.1135,179.55917c-0.477,0.2062 -0.983,0.3075 -1.512,0.3075v-1.4c0.346,0 0.663,-0.0654 0.957,-0.1925zM245.6015,179.86667h-11.203v-1.4h11.203zM234.3985,179.86667c-0.529,0 -1.038,-0.1013 -1.522,-0.3049l0.544,-1.2902c0.308,0.1297 0.632,0.1951 0.978,0.1951zM232.8705,179.55917c-0.465,-0.2011 -0.877,-0.4798 -1.233,-0.835l0.99,-0.99c0.228,0.2281 0.493,0.4077 0.799,0.54zM231.6375,178.72417c-0.355,-0.3553 -0.634,-0.7678 -0.835,-1.2328l1.285,-0.5557c0.133,0.3059 0.312,0.5704 0.54,0.7985zM230.8005,177.48517c-0.204,-0.4834 -0.305,-0.9926 -0.305,-1.5216h1.4c0,0.346 0.065,0.6701 0.195,0.9783zM230.4955,175.96357v-16.00002h1.4v16.00002zM230.4955,159.96355c0,-0.52898 0.101,-1.03541 0.307,-1.51222l1.285,0.55568c-0.127,0.29402 -0.192,0.61051 -0.192,0.95654zM230.8005,158.45753c0.201,-0.47791 0.482,-0.8969 0.846,-1.24788l0.972,1.00779c-0.219,0.21152 -0.396,0.46961 -0.528,0.78337zM231.6375,157.21857c0.356,-0.35523 0.768,-0.63396 1.233,-0.83503l0.556,1.285c-0.306,0.13228 -0.571,0.31188 -0.799,0.53998zM232.8625,156.38707c0.487,-0.21768 1.001,-0.32665 1.536,-0.32665v1.4c-0.34,0 -0.659,0.06811 -0.964,0.2046zM234.3985,156.06042h11.203v1.4h-11.203zM245.6015,156.06042c0.535,0 1.047,0.10901 1.527,0.32955l-0.585,1.27215c-0.291,-0.13362 -0.602,-0.2017 -0.942,-0.2017zM247.1075,156.3809c0.476,0.20033 0.896,0.47934 1.255,0.83767l-0.99,0.98995c-0.225,-0.225 -0.492,-0.40433 -0.808,-0.53733zM248.3535,157.20965c0.363,0.35098 0.645,0.76997 0.846,1.24788l-1.29,0.54328c-0.132,-0.31376 -0.309,-0.57185 -0.528,-0.78337zM249.1975,158.45133c0.206,0.47681 0.307,0.98324 0.307,1.51222h-1.4c0,-0.34603 -0.065,-0.66252 -0.192,-0.95654zM249.5045,159.96355v16.00002h-1.4v-16.00002zM235.0985,159.96355v16.00002h-1.4v-16.00002zM234.3985,175.26357h11.203v1.4h-11.203zM244.9015,175.96357v-16.00002h1.4v16.00002zM245.6015,160.66354h-11.203v-1.39999h11.203z"/></g></g></svg>