<svg version="1.1" xmlns="http://www.w3.org/2000/svg" xmlns:xlink="http://www.w3.org/1999/xlink" width="9.19836" height="8.79676" viewBox="0,0,9.19836,8.79676"><g transform="translate(-235.40082,-172.24447)"><g data-paper-data="{&quot;isPaintingLayer&quot;:true}" fill="#ddbf00" fill-rule="nonzero" stroke="none" stroke-width="1" stroke-linecap="butt" stroke-linejoin="miter" stroke-miterlimit="10" stroke-dasharray="" stroke-dashoffset="0" style="mix-blend-mode: normal"><path d="M240.4441,172.52064l1.03745,2.10217l0.373,0.27093l2.31994,0.33712c0.40639,0.0591 0.56852,0.55835 0.27457,0.84482l-1.6787,1.63629l-0.14237,0.43843l0.39622,2.31054c0.06946,0.40466 -0.35535,0.71319 -0.71876,0.52228l-2.07492,-1.0908h-0.46107l-2.07492,1.0908c-0.36341,0.1911 -0.78822,-0.11762 -0.71876,-0.52228l0.39622,-2.31054l-0.09475,-0.48605l-1.72631,-1.58868c-0.29395,-0.28666 -0.13182,-0.78591 0.27457,-0.84482l2.31994,-0.33712l0.373,-0.27093l1.03745,-2.10217c0.18151,-0.36821 0.70648,-0.36821 0.88818,0z"/></g></g></svg>