<svg version="1.1" xmlns="http://www.w3.org/2000/svg" xmlns:xlink="http://www.w3.org/1999/xlink" width="267.11656" height="78.13191" viewBox="0,0,267.11656,78.13191"><g transform="translate(-106.67998,-161.91781)"><g data-paper-data="{&quot;isPaintingLayer&quot;:true}" fill-rule="nonzero" stroke-linejoin="miter" stroke-miterlimit="10" stroke-dasharray="" stroke-dashoffset="0" style="mix-blend-mode: normal"><path d="M110.78999,175.81517l-3.64285,-12.74109h1.82143l2.82543,10.13778l2.81655,-10.13778h1.82142l2.81654,10.13778l2.82543,-10.13778h1.82147l-3.64294,12.74109h-1.99907l-2.7277,-9.55138l-2.73658,9.55138zM134.27309,175.81517h-1.75038v-7.71218h-4.87787v7.71218h-1.74152v-13.10537h1.74152v5.31323c0.01189,-0.23101 0.06514,-0.44721 0.15989,-0.64861c0.09486,-0.20732 0.21921,-0.38501 0.37315,-0.5331c0.16001,-0.154 0.34367,-0.27247 0.55087,-0.3554c0.20732,-0.08885 0.42956,-0.13327 0.66648,-0.13327h3.12749c0.24286,0 0.47092,0.04738 0.68419,0.14215c0.21314,0.08886 0.3968,0.21325 0.55087,0.37317c0.15989,0.154 0.28423,0.33763 0.37315,0.55087c0.09474,0.21324 0.14218,0.44129 0.14218,0.68415zM137.18732,171.68365c0,-0.24286 0.0444,-0.46794 0.13332,-0.67526c0.09474,-0.21324 0.21909,-0.39983 0.37315,-0.55976c0.15989,-0.15992 0.34646,-0.28431 0.55972,-0.37317c0.21326,-0.09477 0.43829,-0.14215 0.67533,-0.14215h4.51358v-1.83031h-5.71309v-1.75034h5.71309c0.24286,0 0.4708,0.04738 0.68407,0.14215c0.21326,0.08886 0.39693,0.21325 0.55087,0.37317c0.16001,0.154 0.28435,0.33763 0.37315,0.55087c0.09486,0.21324 0.14218,0.44129 0.14218,0.68415v7.71218h-1.75026v-1.59935c-0.01783,0.21921 -0.07703,0.42653 -0.17772,0.62196c-0.10069,0.19555 -0.2311,0.36733 -0.39098,0.51532c-0.15394,0.14218 -0.33166,0.25475 -0.53304,0.33773c-0.2015,0.08285 -0.41464,0.12434 -0.63979,0.12434h-2.77205c-0.23704,0 -0.46207,-0.0444 -0.67533,-0.13332c-0.21326,-0.09474 -0.39984,-0.21909 -0.55972,-0.37315c-0.15406,-0.15989 -0.27841,-0.34646 -0.37315,-0.55972c-0.08892,-0.21326 -0.13332,-0.44133 -0.13332,-0.68419zM138.92884,174.06479h4.51358v-2.38114h-4.51358zM147.56501,166.35265h2.3101v-2.91429h1.75038v2.91429h3.10966v1.75034h-3.10966v5.9618h3.10966v1.75038h-3.10966c-0.23704,0 -0.46207,-0.0444 -0.67533,-0.13332c-0.21326,-0.09474 -0.39984,-0.21909 -0.55972,-0.37315c-0.15989,-0.15989 -0.28726,-0.34646 -0.382,-0.55972c-0.08892,-0.21326 -0.13332,-0.44133 -0.13332,-0.68419v-5.9618h-2.3101zM169.86638,175.81517l-4.75353,-9.33813v9.33813h-1.82135v-12.74109h1.99021l4.85118,9.59581l4.86016,-9.59581h1.98135v12.74109h-1.81261v-9.33813l-4.75341,9.33813zM180.08407,166.35265h1.74152v7.71214h4.87787v-7.71214h1.75026v9.46252h-1.75026v-1.59935c-0.01783,0.21921 -0.07703,0.42653 -0.17772,0.62196c-0.10069,0.19555 -0.23097,0.36733 -0.39098,0.51532c-0.15394,0.14218 -0.33166,0.25475 -0.53304,0.33773c-0.20137,0.08285 -0.41464,0.12434 -0.63979,0.12434h-3.13635c-0.23692,0 -0.46207,-0.0444 -0.67533,-0.13332c-0.21314,-0.09474 -0.39984,-0.21909 -0.55972,-0.37315c-0.15394,-0.15989 -0.27841,-0.34646 -0.37315,-0.55972c-0.0888,-0.21326 -0.13332,-0.44133 -0.13332,-0.68419zM197.08116,174.06479v-2.19456h-4.14928c-0.24286,0 -0.47092,-0.04442 -0.68419,-0.13328c-0.21326,-0.09477 -0.39984,-0.21916 -0.55972,-0.37316c-0.15406,-0.15993 -0.27841,-0.34652 -0.37327,-0.55976c-0.0888,-0.21324 -0.1332,-0.44129 -0.1332,-0.68414v-2.0169c0,-0.24286 0.0444,-0.47091 0.1332,-0.68415c0.09486,-0.21324 0.21921,-0.39687 0.37327,-0.55087c0.15989,-0.15992 0.34646,-0.28431 0.55972,-0.37317c0.21326,-0.09477 0.44133,-0.14215 0.68419,-0.14215h5.53525v1.75034h-5.53525v2.0169h4.14928c0.24286,0 0.46789,0.04738 0.67521,0.14215c0.21326,0.08886 0.39984,0.21324 0.55972,0.37317c0.16001,0.154 0.28435,0.33763 0.37315,0.55087c0.09486,0.21324 0.14218,0.44129 0.14218,0.68415v2.19456c0,0.24286 -0.04731,0.47092 -0.14218,0.68419c-0.0888,0.21326 -0.21314,0.39984 -0.37315,0.55972c-0.15989,0.15406 -0.34646,0.27841 -0.55972,0.37315c-0.20732,0.08892 -0.43235,0.13332 -0.67521,0.13332h-5.89966v-1.75038zM203.30945,168.10299v5.9618h4.51358v-1.59926h1.75038v1.59926c0,0.24286 -0.04731,0.47092 -0.14218,0.68419c-0.0888,0.21326 -0.21326,0.39984 -0.37315,0.55972c-0.15394,0.15406 -0.33761,0.27841 -0.55087,0.37315c-0.21326,0.08892 -0.44133,0.13332 -0.68419,0.13332h-4.51358c-0.23692,0 -0.46195,-0.0444 -0.67521,-0.13332c-0.21326,-0.09474 -0.39984,-0.21909 -0.55972,-0.37315c-0.15406,-0.15989 -0.27841,-0.34646 -0.37315,-0.55972c-0.08892,-0.21326 -0.13332,-0.44133 -0.13332,-0.68419v-5.9618c0,-0.24286 0.0444,-0.47091 0.13332,-0.68415c0.09474,-0.21324 0.21909,-0.39687 0.37315,-0.55087c0.15989,-0.15992 0.34646,-0.28431 0.55972,-0.37317c0.21326,-0.09477 0.43829,-0.14215 0.67521,-0.14215h4.51358c0.24286,0 0.47092,0.04738 0.68419,0.14215c0.21326,0.08886 0.39693,0.21325 0.55087,0.37317c0.15989,0.154 0.28435,0.33763 0.37315,0.55087c0.09486,0.21324 0.14218,0.44129 0.14218,0.68415v1.5993h-1.75038v-1.5993zM214.23802,162.7098v13.10537h-1.7414v-13.10537zM225.15773,171.97686h-6.26396v2.08794h6.26396v1.75038h-6.26396c-0.23692,0 -0.46195,-0.0444 -0.67521,-0.13332c-0.21326,-0.09474 -0.39984,-0.21909 -0.55972,-0.37315c-0.15406,-0.15989 -0.27841,-0.34646 -0.37327,-0.55972c-0.0888,-0.21326 -0.1332,-0.44133 -0.1332,-0.68419v-5.9618c0,-0.24286 0.0444,-0.47091 0.1332,-0.68415c0.09486,-0.21324 0.21921,-0.39687 0.37327,-0.55087c0.15989,-0.15992 0.34646,-0.28431 0.55972,-0.37317c0.21326,-0.09477 0.43829,-0.14215 0.67521,-0.14215h4.51358c0.24286,0 0.47092,0.04738 0.68419,0.14215c0.21326,0.08886 0.3968,0.21325 0.55087,0.37317c0.15989,0.154 0.28435,0.33763 0.37315,0.55087c0.09474,0.21324 0.14218,0.44129 0.14218,0.68415zM218.89377,168.10299v2.12352h4.51358v-2.12352zM233.71408,164.89551c0,-0.24878 0.04731,-0.48275 0.14193,-0.70192c0.09462,-0.22508 0.22564,-0.4176 0.39062,-0.57752c0.16619,-0.16585 0.35908,-0.29617 0.57744,-0.39095c0.22564,-0.1007 0.46219,-0.15104 0.71088,-0.15104h6.91345c0.24869,0 0.48281,0.05034 0.70117,0.15104c0.22564,0.09478 0.42095,0.22509 0.58714,0.39095c0.16498,0.15992 0.296,0.35244 0.39062,0.57752c0.09462,0.21917 0.14193,0.45314 0.14193,0.70192v1.64372h-1.82086v-1.64372h-6.91345v9.09819h6.91345v-3.09193h-3.45612v-1.82143h5.27698v4.91337c0,0.24881 -0.04731,0.48572 -0.14193,0.71088c-0.09462,0.21909 -0.22564,0.4116 -0.39062,0.57744c-0.16619,0.16595 -0.3615,0.29624 -0.58714,0.39098c-0.21836,0.09474 -0.45249,0.14218 -0.70117,0.14218h-6.91345c-0.24869,0 -0.48524,-0.04743 -0.71088,-0.14218c-0.21836,-0.09474 -0.41124,-0.22503 -0.57744,-0.39098c-0.16498,-0.16583 -0.296,-0.35835 -0.39062,-0.57744c-0.09462,-0.22515 -0.14193,-0.46207 -0.14193,-0.71088zM249.10223,168.10299v7.71218h-1.7408v-9.46252h1.7408v1.67038c0.01213,-0.23101 0.06551,-0.44721 0.16013,-0.64861c0.09462,-0.20732 0.21957,-0.38501 0.37363,-0.5331c0.16013,-0.154 0.34331,-0.27247 0.55075,-0.3554c0.20744,-0.08885 0.42944,-0.13327 0.66599,-0.13327h1.85725c0.24262,0 0.46826,0.04738 0.6757,0.14215c0.21351,0.08886 0.39911,0.21325 0.55924,0.37317c0.16013,0.154 0.28508,0.33763 0.37363,0.55087c0.09462,0.21324 0.14193,0.44129 0.14193,0.68415v1.5993h-1.7505v-1.5993zM264.82035,174.06479c0,0.24286 -0.04731,0.47092 -0.14193,0.68419c-0.08856,0.21326 -0.21351,0.39984 -0.37363,0.55972c-0.15406,0.15406 -0.33724,0.27841 -0.55075,0.37315c-0.20744,0.08892 -0.43186,0.13332 -0.6757,0.13332h-4.69954c-0.23655,0 -0.46219,-0.0444 -0.6757,-0.13332c-0.21229,-0.09474 -0.39911,-0.21909 -0.55924,-0.37315c-0.15406,-0.15989 -0.27901,-0.34646 -0.37363,-0.55972c-0.08856,-0.21326 -0.13344,-0.44133 -0.13344,-0.68419v-5.9618c0,-0.24286 0.04488,-0.47091 0.13344,-0.68415c0.09462,-0.21324 0.21957,-0.39687 0.37363,-0.55087c0.16013,-0.15992 0.34695,-0.28431 0.55924,-0.37317c0.21351,-0.09477 0.43914,-0.14215 0.6757,-0.14215h4.69954c0.24383,0 0.46826,0.04738 0.6757,0.14215c0.21351,0.08886 0.39668,0.21325 0.55075,0.37317c0.16013,0.154 0.28508,0.33763 0.37363,0.55087c0.09462,0.21324 0.14193,0.44129 0.14193,0.68415zM258.3788,168.10299v5.9618h4.69954v-5.9618zM267.74392,166.35265h1.7408v7.71214h4.87787v-7.71214h1.7505v9.46252h-1.7505v-1.59935c-0.01698,0.21921 -0.07643,0.42653 -0.17711,0.62196c-0.10069,0.19555 -0.2317,0.36733 -0.39183,0.51532c-0.15285,0.14218 -0.33118,0.25475 -0.53255,0.33773c-0.20137,0.08285 -0.41488,0.12434 -0.6393,0.12434h-3.13707c-0.23655,0 -0.46219,-0.0444 -0.67448,-0.13332c-0.21351,-0.09474 -0.40032,-0.21909 -0.56045,-0.37315c-0.15406,-0.15989 -0.2778,-0.34646 -0.37242,-0.55972c-0.08977,-0.21326 -0.13344,-0.44133 -0.13344,-0.68419zM287.39734,174.06479c0,0.24286 -0.04731,0.47092 -0.14193,0.68419c-0.08977,0.21326 -0.21351,0.39984 -0.37363,0.55972c-0.15406,0.15406 -0.33724,0.27841 -0.55075,0.37315c-0.21351,0.08892 -0.44157,0.13332 -0.68419,0.13332h-4.87787v3.82053h-1.74201v-13.28306h1.74201v1.5993c0.0182,-0.22509 0.07643,-0.43241 0.17711,-0.62196c0.10069,-0.19547 0.22806,-0.36428 0.38213,-0.50644c0.15406,-0.14808 0.33239,-0.26358 0.53376,-0.34651c0.20744,-0.08293 0.4258,-0.12439 0.6575,-0.12439h3.12737c0.24262,0 0.47068,0.04738 0.68419,0.14215c0.21351,0.08886 0.39668,0.21325 0.55075,0.37317c0.16013,0.154 0.28387,0.33763 0.37363,0.55087c0.09462,0.21324 0.14193,0.44129 0.14193,0.68415zM285.64683,174.06479v-5.9618h-4.87787v5.9618zM294.84334,177.91201v1.72369h-0.25839c-0.6757,0 -1.28831,-0.10663 -1.83906,-0.31989c-0.55075,-0.20732 -1.02143,-0.50635 -1.41326,-0.89733c-0.38455,-0.38504 -0.68297,-0.85293 -0.89648,-1.4038c-0.20744,-0.55087 -0.31177,-1.16397 -0.31177,-1.83918v-8.54742c0,-0.67526 0.10433,-1.28832 0.31177,-1.8392c0.21351,-0.55087 0.51193,-1.01881 0.89648,-1.40382c0.39183,-0.39095 0.86251,-0.69007 1.41326,-0.89739c0.55075,-0.21324 1.16336,-0.31986 1.83906,-0.31986h0.25839v1.73257h-0.25839c-0.41488,0 -0.78487,0.05924 -1.10999,0.17771c-0.32632,0.11846 -0.6017,0.29321 -0.82733,0.52422c-0.22442,0.22508 -0.39911,0.50051 -0.52406,0.8263c-0.11767,0.32578 -0.17711,0.69599 -0.17711,1.11063v8.73392c0,0.84116 0.22806,1.48969 0.68419,1.94581c0.46219,0.46207 1.11362,0.69304 1.9543,0.69304zM303.11424,174.06479v-2.19456h-4.1488c-0.24262,0 -0.47068,-0.04442 -0.68419,-0.13328c-0.21351,-0.09477 -0.40032,-0.21916 -0.55924,-0.37316c-0.15406,-0.15993 -0.27901,-0.34652 -0.37363,-0.55976c-0.08856,-0.21324 -0.13344,-0.44129 -0.13344,-0.68414v-2.0169c0,-0.24286 0.04488,-0.47091 0.13344,-0.68415c0.09462,-0.21324 0.21957,-0.39687 0.37363,-0.55087c0.15892,-0.15992 0.34573,-0.28431 0.55924,-0.37317c0.21351,-0.09477 0.44157,-0.14215 0.68419,-0.14215h5.53537v1.75034h-5.53537v2.0169h4.1488c0.24383,0 0.46826,0.04738 0.6757,0.14215c0.21351,0.08886 0.40032,0.21324 0.55924,0.37317c0.16013,0.154 0.28508,0.33763 0.37363,0.55087c0.09462,0.21324 0.14193,0.44129 0.14193,0.68415v2.19456c0,0.24286 -0.04731,0.47092 -0.14193,0.68419c-0.08856,0.21326 -0.21351,0.39984 -0.37363,0.55972c-0.15892,0.15406 -0.34573,0.27841 -0.55924,0.37315c-0.20744,0.08892 -0.43186,0.13332 -0.6757,0.13332h-5.8993v-1.75038zM307.49474,177.91201c0.84189,0 1.48969,-0.23097 1.94581,-0.69304c0.46219,-0.45613 0.69389,-1.10465 0.69389,-1.94581v-8.73392c0,-0.41464 -0.05944,-0.78485 -0.17833,-1.11063c-0.11888,-0.32579 -0.29357,-0.60122 -0.52406,-0.8263c-0.22564,-0.23101 -0.50101,-0.40576 -0.82612,-0.52422c-0.32632,-0.11847 -0.69632,-0.17771 -1.1112,-0.17771h-0.25718v-1.73257h0.25718c0.6757,0 1.28831,0.10662 1.83906,0.31986c0.55075,0.20732 1.019,0.50644 1.40477,0.89739c0.38455,0.38501 0.68055,0.85295 0.88799,1.40382c0.21351,0.55088 0.32026,1.16394 0.32026,1.8392v8.54742c0,0.67521 -0.10675,1.28831 -0.32026,1.83918c-0.20744,0.55087 -0.50344,1.01876 -0.88799,1.4038c-0.38577,0.39098 -0.85402,0.69001 -1.40477,0.89733c-0.55075,0.21326 -1.16336,0.31989 -1.83906,0.31989h-0.25718v-1.72369zM322.87441,175.81517l-3.64172,-12.74109h1.82086l2.82531,10.13778l2.81682,-10.13778h1.82086l2.81682,10.13778l2.82531,-10.13778h1.82207l-3.64294,12.74109h-1.99919l-2.72826,-9.55138l-2.73675,9.55138zM345.62001,174.06479c0,0.24286 -0.04731,0.47092 -0.14193,0.68419c-0.08856,0.21326 -0.21351,0.39984 -0.37242,0.55972c-0.15406,0.15406 -0.33845,0.27841 -0.55075,0.37315c-0.20744,0.08892 -0.43308,0.13332 -0.6757,0.13332h-4.70076c-0.23655,0 -0.46098,-0.0444 -0.67448,-0.13332c-0.21351,-0.09474 -0.40032,-0.21909 -0.56045,-0.37315c-0.15406,-0.15989 -0.2778,-0.34646 -0.37242,-0.55972c-0.08977,-0.21326 -0.13344,-0.44133 -0.13344,-0.68419v-5.9618c0,-0.24286 0.04367,-0.47091 0.13344,-0.68415c0.09462,-0.21324 0.21836,-0.39687 0.37242,-0.55087c0.16013,-0.15992 0.34695,-0.28431 0.56045,-0.37317c0.21351,-0.09477 0.43793,-0.14215 0.67448,-0.14215h4.70076c0.24262,0 0.46826,0.04738 0.6757,0.14215c0.21229,0.08886 0.39668,0.21325 0.55075,0.37317c0.15892,0.154 0.28387,0.33763 0.37242,0.55087c0.09462,0.21324 0.14193,0.44129 0.14193,0.68415zM339.17846,168.10299v5.9618h4.70076v-5.9618zM348.54358,166.35265h1.74201v7.71214h4.87787v-7.71214h1.7505v9.46252h-1.7505v-1.59935c-0.0182,0.21921 -0.07764,0.42653 -0.17833,0.62196c-0.10069,0.19555 -0.23049,0.36733 -0.39062,0.51532c-0.15406,0.14218 -0.33239,0.25475 -0.53376,0.33773c-0.20137,0.08285 -0.41367,0.12434 -0.6393,0.12434h-3.13586c-0.23777,0 -0.46219,-0.0444 -0.6757,-0.13332c-0.21351,-0.09474 -0.40032,-0.21909 -0.55924,-0.37315c-0.15406,-0.15989 -0.27901,-0.34646 -0.37363,-0.55972c-0.08856,-0.21326 -0.13344,-0.44133 -0.13344,-0.68419zM361.56862,162.7098v13.10537h-1.7408v-13.10537zM364.4837,168.10299c0,-0.24286 0.04367,-0.47091 0.13344,-0.68415c0.09462,-0.21324 0.21836,-0.39687 0.37242,-0.55087c0.16013,-0.15992 0.34695,-0.28431 0.56045,-0.37317c0.21229,-0.09477 0.43793,-0.14215 0.67448,-0.14215h4.87787v-3.64285h1.7505v13.10537h-1.7505v-1.59935c-0.01698,0.21921 -0.07643,0.42653 -0.17711,0.62196c-0.10069,0.19555 -0.2317,0.36733 -0.39062,0.51532c-0.15406,0.14218 -0.33239,0.25475 -0.53376,0.33773c-0.20137,0.08285 -0.41488,0.12434 -0.6393,0.12434h-3.13707c-0.23655,0 -0.46219,-0.0444 -0.67448,-0.13332c-0.21351,-0.09474 -0.40032,-0.21909 -0.56045,-0.37315c-0.15406,-0.15989 -0.2778,-0.34646 -0.37242,-0.55972c-0.08977,-0.21326 -0.13344,-0.44133 -0.13344,-0.68419zM366.2245,174.06479h4.87787v-5.9618h-4.87787zM167.04095,197.83219l1.98135,-4.67346l-3.7139,-8.6096h1.83918l2.7632,6.51276l2.7632,-6.51276h1.83918l-5.7308,13.28307zM184.5177,192.26127c0,0.24286 -0.04731,0.47092 -0.14218,0.68419c-0.0888,0.21326 -0.21314,0.39984 -0.37315,0.55972c-0.15394,0.15406 -0.33761,0.27841 -0.55087,0.37315c-0.20732,0.08892 -0.43235,0.13332 -0.67521,0.13332h-4.70015c-0.23704,0 -0.46207,-0.0444 -0.67533,-0.13332c-0.21326,-0.09474 -0.39984,-0.21909 -0.55972,-0.37315c-0.15406,-0.15989 -0.27841,-0.34646 -0.37315,-0.55972c-0.08892,-0.21326 -0.13332,-0.44133 -0.13332,-0.68419v-5.96177c0,-0.24286 0.0444,-0.47092 0.13332,-0.68419c0.09474,-0.21326 0.21909,-0.3968 0.37315,-0.55087c0.15989,-0.15989 0.34646,-0.28435 0.55972,-0.37315c0.21326,-0.09474 0.43829,-0.14218 0.67533,-0.14218h4.70015c0.24286,0 0.46789,0.04743 0.67521,0.14218c0.21326,0.0888 0.39693,0.21326 0.55087,0.37315c0.16001,0.15406 0.28435,0.33761 0.37315,0.55087c0.09486,0.21326 0.14218,0.44133 0.14218,0.68419zM178.07615,186.2995v5.96177h4.70015v-5.96177zM187.44091,184.54912h1.7414v7.71215h4.87787v-7.71215h1.75038v9.46253h-1.75038v-1.59935c-0.01771,0.21921 -0.07691,0.42653 -0.17772,0.62196c-0.10069,0.19555 -0.23097,0.36733 -0.39086,0.51532c-0.15406,0.14218 -0.33178,0.25475 -0.53316,0.33773c-0.20137,0.08285 -0.41464,0.12434 -0.63967,0.12434h-3.13647c-0.23692,0 -0.46195,-0.0444 -0.67521,-0.13332c-0.21326,-0.09474 -0.39984,-0.21909 -0.55972,-0.37315c-0.15406,-0.15989 -0.27841,-0.34646 -0.37327,-0.55972c-0.0888,-0.21326 -0.1332,-0.44133 -0.1332,-0.68419zM205.92174,180.90631v13.10535h-1.74152v-13.10535zM210.67515,184.54912v9.46253h-1.75038v-9.46253zM208.83597,180.90631h1.9281v1.82135h-1.9281zM219.94225,194.01166l-4.51358,-4.04265v4.04265h-1.74152v-13.10535h1.74152v7.37455l4.14928,-3.73173h2.46113l-5.08228,4.56695l5.44657,4.89558zM231.67971,190.17329h-6.26432v2.08799h6.26432v1.75038h-6.26432c-0.23692,0 -0.46207,-0.0444 -0.67521,-0.13332c-0.21326,-0.09474 -0.39984,-0.21909 -0.55985,-0.37315c-0.15394,-0.15989 -0.27841,-0.34646 -0.37315,-0.55972c-0.0888,-0.21326 -0.1332,-0.44133 -0.1332,-0.68419v-5.96177c0,-0.24286 0.0444,-0.47092 0.1332,-0.68419c0.09474,-0.21326 0.21921,-0.3968 0.37315,-0.55087c0.16001,-0.15989 0.34658,-0.28435 0.55985,-0.37315c0.21314,-0.09474 0.43829,-0.14218 0.67521,-0.14218h4.51382c0.24262,0 0.47068,0.04743 0.68419,0.14218c0.21351,0.0888 0.39668,0.21326 0.55075,0.37315c0.16013,0.15406 0.28387,0.33761 0.37242,0.55087c0.09583,0.21326 0.14315,0.44133 0.14315,0.68419zM225.41539,186.2995v2.12353h4.51382v-2.12353zM239.50662,184.54912h2.31095v-2.91423h1.74929v2.91423h3.11039v1.75038h-3.11039v5.96177h3.11039v1.75038h-3.11039c-0.23655,0 -0.46098,-0.0444 -0.67448,-0.13332c-0.21351,-0.09474 -0.40032,-0.21909 -0.56045,-0.37315c-0.15892,-0.15989 -0.28629,-0.34646 -0.38213,-0.55972c-0.08856,-0.21326 -0.13223,-0.44133 -0.13223,-0.68419v-5.96177h-2.31095zM257.78317,192.26127c0,0.24286 -0.04731,0.47092 -0.14193,0.68419c-0.08856,0.21326 -0.21351,0.39984 -0.37363,0.55972c-0.15406,0.15406 -0.33724,0.27841 -0.55075,0.37315c-0.20744,0.08892 -0.43186,0.13332 -0.67448,0.13332h-4.70076c-0.23655,0 -0.46219,-0.0444 -0.67448,-0.13332c-0.21351,-0.09474 -0.40032,-0.21909 -0.56045,-0.37315c-0.15406,-0.15989 -0.2778,-0.34646 -0.37363,-0.55972c-0.08856,-0.21326 -0.13223,-0.44133 -0.13223,-0.68419v-5.96177c0,-0.24286 0.04367,-0.47092 0.13223,-0.68419c0.09583,-0.21326 0.21957,-0.3968 0.37363,-0.55087c0.16013,-0.15989 0.34695,-0.28435 0.56045,-0.37315c0.21229,-0.09474 0.43793,-0.14218 0.67448,-0.14218h4.70076c0.24262,0 0.46704,0.04743 0.67448,0.14218c0.21351,0.0888 0.39668,0.21326 0.55075,0.37315c0.16013,0.15406 0.28508,0.33761 0.37363,0.55087c0.09462,0.21326 0.14193,0.44133 0.14193,0.68419zM251.34161,186.2995v5.96177h4.70076v-5.96177zM265.24737,181.2706h10.19003v1.82135h-4.18398v10.91971h-1.82207v-10.91971h-4.18398zM278.08559,186.2995v7.71215h-1.7408v-9.46253h1.7408v1.67044c0.01213,-0.2311 0.06551,-0.44727 0.16013,-0.64864c0.09462,-0.20732 0.21957,-0.38504 0.37363,-0.53316c0.15892,-0.15394 0.34331,-0.27246 0.55075,-0.35532c0.20744,-0.08892 0.42944,-0.13332 0.66599,-0.13332h1.85725c0.24262,0 0.46704,0.04743 0.67448,0.14218c0.21351,0.0888 0.40032,0.21326 0.56045,0.37315c0.16013,0.15406 0.28387,0.33761 0.37242,0.55087c0.09583,0.21326 0.14315,0.44133 0.14315,0.68419v1.59923h-1.7505v-1.59923zM285.62015,189.88008c0,-0.24286 0.04488,-0.46789 0.13344,-0.67521c0.09462,-0.21326 0.21957,-0.39984 0.37242,-0.55972c0.16013,-0.16001 0.34695,-0.28435 0.56045,-0.37315c0.21351,-0.09486 0.43793,-0.14218 0.6757,-0.14218h4.51273v-1.83032h-5.71248v-1.75038h5.71248c0.24262,0 0.47068,0.04743 0.68419,0.14218c0.21351,0.0888 0.39668,0.21326 0.55075,0.37315c0.16013,0.15406 0.28508,0.33761 0.37363,0.55087c0.09462,0.21326 0.14193,0.44133 0.14193,0.68419v7.71215h-1.7505v-1.59935c-0.01698,0.21921 -0.07643,0.42653 -0.17711,0.62196c-0.10069,0.19555 -0.2317,0.36733 -0.39062,0.51532c-0.15406,0.14218 -0.33239,0.25475 -0.53376,0.33773c-0.20137,0.08285 -0.41488,0.12434 -0.6393,0.12434h-2.77193c-0.23777,0 -0.46219,-0.0444 -0.6757,-0.13332c-0.21351,-0.09474 -0.40032,-0.21909 -0.56045,-0.37315c-0.15285,-0.15989 -0.2778,-0.34646 -0.37242,-0.55972c-0.08856,-0.21326 -0.13344,-0.44133 -0.13344,-0.68419zM287.36216,192.26127h4.51273v-2.38119h-4.51273zM298.38801,184.54912v9.46253h-1.7505v-9.46253zM296.54895,180.90631h1.92761v1.82135h-1.92761zM309.7693,194.01166h-1.7505v-7.71215h-4.87787v7.71215h-1.7408v-9.46253h1.7408v1.67044c0.01213,-0.2311 0.06551,-0.44727 0.16013,-0.64864c0.09462,-0.20732 0.21957,-0.38504 0.37363,-0.53316c0.16013,-0.15394 0.34331,-0.27246 0.55075,-0.35532c0.20744,-0.08892 0.42944,-0.13332 0.66599,-0.13332h3.12737c0.24383,0 0.4719,0.04743 0.68419,0.14218c0.21351,0.0888 0.39668,0.21326 0.55075,0.37315c0.16013,0.15406 0.28508,0.33761 0.37363,0.55087c0.09462,0.21326 0.14193,0.44133 0.14193,0.68419zM314.88737,188.07645c0,-0.24881 0.02426,-0.47092 0.07157,-0.66636c0.05338,-0.19543 0.1298,-0.37024 0.23049,-0.52418c0.10069,-0.15406 0.23049,-0.29321 0.39062,-0.41767c0.16619,-0.13029 0.35908,-0.24869 0.57744,-0.35532l2.34613,-1.12842v-1.89256h-4.3623v1.64375h-1.82207v-1.64375c0,-0.24869 0.04731,-0.48269 0.14193,-0.7019c0.09583,-0.22503 0.22564,-0.41755 0.39183,-0.57756c0.16498,-0.16583 0.35786,-0.29612 0.57744,-0.39086c0.22442,-0.10069 0.46219,-0.15103 0.71088,-0.15103h4.3623c0.24869,0 0.48281,0.05034 0.70238,0.15103c0.22442,0.09474 0.41973,0.22503 0.58593,0.39086c0.16619,0.16001 0.296,0.35253 0.39062,0.57756c0.09462,0.21921 0.14193,0.45321 0.14193,0.7019v1.56381c0,0.24881 -0.02305,0.47092 -0.07036,0.66636c-0.04731,0.19543 -0.12131,0.37315 -0.222,0.53316c-0.10069,0.15394 -0.23413,0.29321 -0.40032,0.41755c-0.16013,0.12434 -0.3518,0.24286 -0.57744,0.35544l-2.35462,1.11945v1.53712h-1.81237zM314.52344,191.35509h2.65669v2.65657h-2.65669z" fill="#57a71a" stroke="#57a71a" stroke-width="0.5" stroke-linecap="butt"/><path d="M373.79654,163.59962l-132.85349,76.4501l-134.26307,-76.85354" fill="none" stroke="#eaeaea" stroke-width="0" stroke-linecap="round"/><path d="M176.52294,202.19862c-0.18426,0 -0.35977,-0.0351 -0.52648,-0.1053c-0.16234,-0.07459 -0.30493,-0.17111 -0.42778,-0.28956c-0.12284,-0.12285 -0.21937,-0.26544 -0.28957,-0.42778c-0.0702,-0.16672 -0.1053,-0.34222 -0.1053,-0.52649v-2.69825c0,-0.18427 0.0351,-0.35758 0.1053,-0.51992c0.0702,-0.16672 0.16672,-0.30931 0.28957,-0.42777c0.12285,-0.12285 0.26544,-0.21937 0.42778,-0.28957c0.16672,-0.07459 0.34222,-0.11188 0.52648,-0.11188h4.58047c0.18427,0 0.35758,0.03729 0.51991,0.11188c0.16672,0.0702 0.31151,0.16672 0.43436,0.28957c0.12285,0.11845 0.21937,0.26105 0.28957,0.42777c0.07019,0.16234 0.1053,0.33564 0.1053,0.51992v1.21751h-1.34914v-1.21751h-4.58047v2.69825h4.58047c0.18427,0 0.35758,0.03511 0.51991,0.1053c0.16672,0.0702 0.31151,0.16672 0.43436,0.28957c0.12285,0.12285 0.21937,0.26763 0.28957,0.43436c0.07019,0.16233 0.1053,0.33563 0.1053,0.51991v2.69169c0,0.18426 -0.03511,0.35977 -0.1053,0.52651c-0.0702,0.16228 -0.16672,0.30488 -0.28957,0.42771c-0.12285,0.12292 -0.26763,0.21942 -0.43436,0.2896c-0.16233,0.07018 -0.33563,0.10531 -0.51991,0.10531h-4.71209c-0.18427,0 -0.35977,-0.03513 -0.52649,-0.10531c-0.16233,-0.07018 -0.30492,-0.16668 -0.42777,-0.2896c-0.12285,-0.12283 -0.21937,-0.26543 -0.28957,-0.42771c-0.0702,-0.16674 -0.1053,-0.34225 -0.1053,-0.52651v-1.21093h1.34913v1.21093h4.71209v-2.69169zM190.6855,203.39638h-4.63963v1.54656h4.63963v1.29648h-4.63963c-0.17558,0 -0.34226,-0.03289 -0.50022,-0.09875c-0.15796,-0.07018 -0.29616,-0.16228 -0.41459,-0.27639c-0.11411,-0.11843 -0.20622,-0.25662 -0.27639,-0.41459c-0.06586,-0.15795 -0.09875,-0.32687 -0.09875,-0.50675v-4.41594c0,-0.17989 0.03289,-0.34881 0.09875,-0.50675c0.07018,-0.15795 0.16228,-0.29396 0.27639,-0.40803c0.11843,-0.11845 0.25662,-0.21059 0.41459,-0.27641c0.15796,-0.07019 0.32464,-0.10529 0.50022,-0.10529h3.34321c0.17989,0 0.34872,0.0351 0.50669,0.10529c0.15796,0.06582 0.294,0.15795 0.40803,0.27641c0.11852,0.11407 0.21062,0.25008 0.27639,0.40803c0.07027,0.15795 0.10531,0.32686 0.10531,0.50675zM186.04587,200.52701v1.57289h3.34321v-1.57289zM194.14058,196.53226v9.70716h-1.28986v-9.70716zM202.22882,203.39638h-4.63972v1.54656h4.63972v1.29648h-4.63972c-0.17549,0 -0.34217,-0.03289 -0.50013,-0.09875c-0.15796,-0.07018 -0.29616,-0.16228 -0.41459,-0.27639c-0.11411,-0.11843 -0.20622,-0.25662 -0.27639,-0.41459c-0.06586,-0.15795 -0.09875,-0.32687 -0.09875,-0.50675v-4.41594c0,-0.17989 0.03289,-0.34881 0.09875,-0.50675c0.07018,-0.15795 0.16228,-0.29396 0.27639,-0.40803c0.11843,-0.11845 0.25662,-0.21059 0.41459,-0.27641c0.15796,-0.07019 0.32464,-0.10529 0.50013,-0.10529h3.34321c0.17989,0 0.34881,0.0351 0.50678,0.10529c0.15796,0.06582 0.294,0.15795 0.40803,0.27641c0.11843,0.11407 0.21062,0.25008 0.27639,0.40803c0.07018,0.15795 0.10531,0.32686 0.10531,0.50675zM197.5891,200.52701v1.57289h3.34321v-1.57289zM205.6839,200.52701v4.41594h3.34321v-1.1846h1.29651v1.1846c0,0.17988 -0.03513,0.3488 -0.10531,0.50675c-0.06577,0.15796 -0.15796,0.29616 -0.27639,0.41459c-0.11411,0.11411 -0.25006,0.20622 -0.40803,0.27639c-0.15796,0.06586 -0.32689,0.09875 -0.50678,0.09875h-3.34321c-0.17549,0 -0.34217,-0.03289 -0.50013,-0.09875c-0.15796,-0.07018 -0.29616,-0.16228 -0.41459,-0.27639c-0.11411,-0.11843 -0.20622,-0.25662 -0.27648,-0.41459c-0.06577,-0.15795 -0.09866,-0.32687 -0.09866,-0.50675v-4.41594c0,-0.17989 0.03289,-0.34881 0.09866,-0.50675c0.07027,-0.15795 0.16237,-0.29396 0.27648,-0.40803c0.11843,-0.11845 0.25662,-0.21059 0.41459,-0.27641c0.15796,-0.07019 0.32464,-0.10529 0.50013,-0.10529h3.34321c0.17989,0 0.34881,0.0351 0.50678,0.10529c0.15796,0.06582 0.29391,0.15795 0.40803,0.27641c0.11843,0.11407 0.21062,0.25008 0.27639,0.40803c0.07018,0.15795 0.10531,0.32686 0.10531,0.50675v1.1846h-1.29651v-1.1846zM212.08081,199.23053h1.7111v-2.15861h1.29642v2.15861h2.30342v1.29648h-2.30342v4.41594h2.30342v1.29648h-2.30342c-0.17549,0 -0.34217,-0.03289 -0.50013,-0.09875c-0.15796,-0.07018 -0.29616,-0.16228 -0.41459,-0.27639c-0.11852,-0.11843 -0.21278,-0.25662 -0.28304,-0.41459c-0.06577,-0.15795 -0.09866,-0.32687 -0.09866,-0.50675v-4.41594h-1.7111zM223.59779,199.23053h1.28986v5.71242h3.61304v-5.71242h1.29651v7.0089h-1.29651v-1.1846c-0.01321,0.16233 -0.05706,0.31589 -0.13164,0.46065c-0.07458,0.14485 -0.17108,0.27208 -0.2896,0.3817c-0.11403,0.10531 -0.24566,0.18869 -0.39482,0.25015c-0.14916,0.06137 -0.30712,0.0921 -0.47389,0.0921h-2.32309c-0.17549,0 -0.34226,-0.03289 -0.50013,-0.09875c-0.15796,-0.07018 -0.29616,-0.16228 -0.41468,-0.27639c-0.11403,-0.11843 -0.20622,-0.25662 -0.27639,-0.41459c-0.06577,-0.15795 -0.09866,-0.32687 -0.09866,-0.50675zM238.15518,204.94295c0,0.17988 -0.03504,0.3488 -0.10531,0.50675c-0.06577,0.15796 -0.15787,0.29616 -0.27639,0.41459c-0.11403,0.11411 -0.25006,0.20622 -0.40803,0.27639c-0.15796,0.06586 -0.32689,0.09875 -0.50669,0.09875h-3.61304v2.82987h-1.28995v-9.83877h1.28995v1.1846c0.01312,-0.16672 0.05697,-0.32029 0.13155,-0.46068c0.07458,-0.14478 0.16893,-0.26982 0.28304,-0.37512c0.11403,-0.10969 0.24566,-0.19524 0.39482,-0.25666c0.15356,-0.06142 0.31593,-0.09214 0.48701,-0.09214h2.31662c0.1798,0 0.34872,0.0351 0.50669,0.10529c0.15796,0.06582 0.294,0.15795 0.40803,0.27641c0.11852,0.11407 0.21062,0.25008 0.27639,0.40803c0.07027,0.15795 0.10531,0.32686 0.10531,0.50675zM236.85876,204.94295v-4.41594h-3.61304v4.41594zM243.94656,199.23053h1.7111v-2.15861h1.29651v2.15861h2.30342v1.29648h-2.30342v4.41594h2.30342v1.29648h-2.30342c-0.17549,0 -0.34226,-0.03289 -0.50013,-0.09875c-0.15796,-0.07018 -0.29616,-0.16228 -0.41468,-0.27639c-0.11843,-0.11843 -0.21278,-0.25662 -0.28295,-0.41459c-0.06577,-0.15795 -0.09875,-0.32687 -0.09875,-0.50675v-4.41594h-1.7111zM257.48402,204.94295c0,0.17988 -0.03513,0.3488 -0.10531,0.50675c-0.06586,0.15796 -0.15796,0.29616 -0.27648,0.41459c-0.11403,0.11411 -0.25006,0.20622 -0.40803,0.27639c-0.15356,0.06586 -0.32024,0.09875 -0.50013,0.09875h-3.48141c-0.17549,0 -0.34226,-0.03289 -0.50013,-0.09875c-0.15796,-0.07018 -0.29616,-0.16228 -0.41468,-0.27639c-0.11403,-0.11843 -0.20622,-0.25662 -0.27639,-0.41459c-0.06577,-0.15795 -0.09875,-0.32687 -0.09875,-0.50675v-4.41594c0,-0.17989 0.03298,-0.34881 0.09875,-0.50675c0.07018,-0.15795 0.16237,-0.29396 0.27639,-0.40803c0.11852,-0.11845 0.25671,-0.21059 0.41468,-0.27641c0.15787,-0.07019 0.32464,-0.10529 0.50013,-0.10529h3.48141c0.17989,0 0.34657,0.0351 0.50013,0.10529c0.15796,0.06582 0.294,0.15795 0.40803,0.27641c0.11852,0.11407 0.21062,0.25008 0.27648,0.40803c0.07018,0.15795 0.10531,0.32686 0.10531,0.50675zM252.71266,200.52701v4.41594h3.48141v-4.41594zM263.01212,196.80209h7.54884v1.34914h-3.09997v8.0882h-1.34871v-8.0882h-3.10015zM278.2471,206.23943h-1.2966v-5.71242h-3.61304v5.71242h-1.28941v-9.70716h1.28941v3.93552c0.00899,-0.17111 0.04852,-0.33125 0.11861,-0.48042c0.07009,-0.15356 0.16264,-0.28518 0.27675,-0.39486c0.11861,-0.11407 0.25429,-0.20182 0.40794,-0.26325c0.15365,-0.06581 0.31808,-0.09871 0.4933,-0.09871h2.31644c0.18061,0 0.34953,0.0351 0.50678,0.10529c0.15814,0.06582 0.29472,0.15795 0.40884,0.27641c0.11771,0.11407 0.21026,0.25008 0.27585,0.40803c0.07009,0.15795 0.10513,0.32686 0.10513,0.50675zM281.69571,200.52701v5.71242h-1.28941v-7.0089h1.28941v1.23725c0.00899,-0.17111 0.04852,-0.33125 0.11861,-0.48042c0.07009,-0.15356 0.16264,-0.28518 0.27675,-0.39486c0.11861,-0.11407 0.25429,-0.20182 0.40794,-0.26325c0.15365,-0.06581 0.31808,-0.09871 0.4933,-0.09871h1.37567c0.17971,0 0.34684,0.0351 0.50049,0.10529c0.15725,0.06582 0.29562,0.15795 0.41423,0.27641c0.11861,0.11407 0.21026,0.25008 0.27675,0.40803c0.07009,0.15795 0.10513,0.32686 0.10513,0.50675v1.1846h-1.2966v-1.1846zM293.20605,203.39638h-4.63918v1.54656h4.63918v1.29648h-4.63918c-0.17611,0 -0.34234,-0.03289 -0.50049,-0.09875c-0.15814,-0.07018 -0.29562,-0.16228 -0.41423,-0.27639c-0.11411,-0.11843 -0.20666,-0.25662 -0.27675,-0.41459c-0.06559,-0.15795 -0.09884,-0.32687 -0.09884,-0.50675v-4.41594c0,-0.17989 0.03325,-0.34881 0.09884,-0.50675c0.07009,-0.15795 0.16264,-0.29396 0.27675,-0.40803c0.11861,-0.11845 0.25608,-0.21059 0.41423,-0.27641c0.15814,-0.07019 0.32437,-0.10529 0.50049,-0.10529h3.34258c0.18061,0 0.34953,0.0351 0.50678,0.10529c0.15814,0.06582 0.29472,0.15795 0.40884,0.27641c0.11771,0.11407 0.21026,0.25008 0.27585,0.40803c0.07009,0.15795 0.10513,0.32686 0.10513,0.50675zM288.56687,200.52701v1.57289h3.34258v-1.57289zM301.30103,203.39638h-4.63918v1.54656h4.63918v1.29648h-4.63918c-0.17611,0 -0.34234,-0.03289 -0.50049,-0.09875c-0.15814,-0.07018 -0.29652,-0.16228 -0.41513,-0.27639c-0.11322,-0.11843 -0.20577,-0.25662 -0.27585,-0.41459c-0.06559,-0.15795 -0.09884,-0.32687 -0.09884,-0.50675v-4.41594c0,-0.17989 0.03325,-0.34881 0.09884,-0.50675c0.07009,-0.15795 0.16264,-0.29396 0.27585,-0.40803c0.11861,-0.11845 0.25698,-0.21059 0.41513,-0.27641c0.15814,-0.07019 0.32437,-0.10529 0.50049,-0.10529h3.34258c0.17971,0 0.34863,0.0351 0.50678,0.10529c0.15814,0.06582 0.29382,0.15795 0.40794,0.27641c0.11861,0.11407 0.21116,0.25008 0.27675,0.40803c0.07009,0.15795 0.10513,0.32686 0.10513,0.50675zM296.66185,200.52701v1.57289h3.34258v-1.57289zM303.46652,204.27167h1.96781v1.96776h-1.96781z" fill="#7f7f7f" stroke="none" stroke-width="1" stroke-linecap="butt"/></g></g></svg>