<svg version="1.1" xmlns="http://www.w3.org/2000/svg" xmlns:xlink="http://www.w3.org/1999/xlink" width="272.5491" height="17.97554" viewBox="0,0,272.5491,17.97554"><g transform="translate(-103.47464,-165.88509)"><g data-paper-data="{&quot;isPaintingLayer&quot;:true}" fill="#57a71a" fill-rule="nonzero" stroke="#57a71a" stroke-width="0.5" stroke-linecap="butt" stroke-linejoin="miter" stroke-miterlimit="10" stroke-dasharray="" stroke-dashoffset="0" style="mix-blend-mode: normal"><path d="M107.56728,179.66604l-3.76114,-13.15483h1.88058l2.91718,10.46698l2.908,-10.46698h1.88058l2.90798,10.46698l2.91718,-10.46698h1.88062l-3.76111,13.15483h-2.06411l-2.81626,-9.86154l-2.82545,9.86154zM131.81294,179.66604h-1.80722v-7.96262h-5.03627v7.96262h-1.79795v-13.53094h1.79795v5.48576c0.01227,-0.23851 0.06726,-0.46173 0.16508,-0.66967c0.09794,-0.21405 0.22633,-0.39752 0.38539,-0.55041c0.16508,-0.159 0.35471,-0.28132 0.56876,-0.36694c0.21405,-0.09173 0.44338,-0.1376 0.68799,-0.1376h3.22905c0.25075,0 0.48622,0.04892 0.70641,0.14677c0.22006,0.09175 0.40969,0.22018 0.56876,0.38529c0.16508,0.159 0.29346,0.34859 0.38527,0.56876c0.09782,0.22016 0.14679,0.45562 0.14679,0.70637zM134.8218,175.40035c0,-0.25075 0.04584,-0.48314 0.13765,-0.69719c0.09782,-0.22016 0.2262,-0.41281 0.38527,-0.57794c0.16508,-0.16512 0.35771,-0.29355 0.5779,-0.38529c0.22019,-0.09784 0.45253,-0.14677 0.69726,-0.14677h4.66015v-1.88975h-5.89861v-1.80718h5.89861c0.25075,0 0.48609,0.04892 0.70628,0.14677c0.22019,0.09175 0.40982,0.22018 0.56876,0.38529c0.1652,0.159 0.29358,0.34859 0.38527,0.56876c0.09794,0.22016 0.14679,0.45562 0.14679,0.70637v7.96262h-1.80709v-1.65128c-0.01841,0.22633 -0.07953,0.44038 -0.18349,0.64215c-0.10396,0.2019 -0.2386,0.37925 -0.40368,0.53206c-0.15894,0.14679 -0.34243,0.26302 -0.55034,0.34869c-0.20804,0.08555 -0.4281,0.12838 -0.66056,0.12838h-2.86207c-0.24474,0 -0.47707,-0.04584 -0.69726,-0.13765c-0.22019,-0.09782 -0.41282,-0.2262 -0.5779,-0.38527c-0.15907,-0.16508 -0.28745,-0.35771 -0.38527,-0.5779c-0.09181,-0.22019 -0.13765,-0.45566 -0.13765,-0.70641zM136.61987,177.85882h4.66015v-2.45847h-4.66015zM145.53649,169.89624h2.38512v-3.00892h1.80722v3.00892h3.21064v1.80718h-3.21064v6.1554h3.21064v1.80722h-3.21064c-0.24461,0 -0.47707,-0.04584 -0.69726,-0.13765c-0.22019,-0.09782 -0.41282,-0.2262 -0.5779,-0.38527c-0.16508,-0.16508 -0.29659,-0.35771 -0.39441,-0.5779c-0.09181,-0.22019 -0.13765,-0.45566 -0.13765,-0.70641v-6.1554h-2.38512zM163.48907,169.89624v9.7698h-1.80722v-9.7698zM161.59017,166.1351h1.99058v1.88057h-1.99058zM172.49749,177.85882v-2.26582h-4.28402c-0.25075,0 -0.48622,-0.04587 -0.70641,-0.13761c-0.22019,-0.09784 -0.41282,-0.22628 -0.5779,-0.38528c-0.15907,-0.16513 -0.28745,-0.35777 -0.38527,-0.57794c-0.09181,-0.22016 -0.13765,-0.45562 -0.13765,-0.70636v-2.08239c0,-0.25075 0.04584,-0.4862 0.13765,-0.70637c0.09782,-0.22016 0.2262,-0.40975 0.38527,-0.56876c0.16508,-0.16512 0.35771,-0.29355 0.5779,-0.38529c0.22019,-0.09784 0.45566,-0.14677 0.70641,-0.14677h5.71512v1.80718h-5.71512v2.08239h4.28402c0.25075,0 0.48309,0.04892 0.69714,0.14677c0.22019,0.09175 0.41282,0.22016 0.5779,0.38529c0.1652,0.159 0.29358,0.34859 0.38539,0.56876c0.09782,0.22016 0.14679,0.45562 0.14679,0.70637v2.26582c0,0.25075 -0.04897,0.48622 -0.14679,0.70641c-0.09181,0.22019 -0.22019,0.41282 -0.38539,0.5779c-0.16508,0.15907 -0.35771,0.28745 -0.5779,0.38527c-0.21405,0.09181 -0.44639,0.13765 -0.69714,0.13765h-6.09124v-1.80722zM183.4231,183.61064l2.04569,-4.82522l-3.8345,-8.88917h1.8989l2.85293,6.72419l2.85305,-6.72419h1.8989l-5.9169,13.71439zM201.4675,177.85882c0,0.25075 -0.04897,0.48622 -0.14679,0.70641c-0.09181,0.22019 -0.22019,0.41282 -0.38527,0.5779c-0.15907,0.15907 -0.34869,0.28745 -0.56876,0.38527c-0.21405,0.09181 -0.44651,0.13765 -0.69726,0.13765h-4.85278c-0.24461,0 -0.47707,-0.04584 -0.69714,-0.13765c-0.22019,-0.09782 -0.41282,-0.2262 -0.57802,-0.38527c-0.15894,-0.16508 -0.28745,-0.35771 -0.38527,-0.5779c-0.09168,-0.22019 -0.13752,-0.45566 -0.13752,-0.70641v-6.1554c0,-0.25075 0.04584,-0.4862 0.13752,-0.70637c0.09782,-0.22016 0.22633,-0.40975 0.38527,-0.56876c0.1652,-0.16512 0.35784,-0.29355 0.57802,-0.38529c0.22006,-0.09784 0.45253,-0.14677 0.69714,-0.14677h4.85278c0.25075,0 0.48321,0.04892 0.69726,0.14677c0.22006,0.09175 0.40969,0.22018 0.56876,0.38529c0.16508,0.159 0.29346,0.34859 0.38527,0.56876c0.09782,0.22016 0.14679,0.45562 0.14679,0.70637zM194.81664,171.70342v6.1554h4.85278v-6.1554zM204.4855,169.89624h1.79808v7.96258h5.03627v-7.96258h1.80709v9.7698h-1.80709v-1.65128c-0.01841,0.22633 -0.07953,0.44038 -0.18349,0.64215c-0.10396,0.2019 -0.23847,0.37925 -0.40368,0.53206c-0.15894,0.14679 -0.34243,0.26302 -0.55034,0.34869c-0.20791,0.08555 -0.4281,0.12838 -0.66056,0.12838h-3.23819c-0.24461,0 -0.47707,-0.04584 -0.69726,-0.13765c-0.22006,-0.09782 -0.41282,-0.2262 -0.5779,-0.38527c-0.15894,-0.16508 -0.28745,-0.35771 -0.38527,-0.5779c-0.09168,-0.22019 -0.13765,-0.45566 -0.13765,-0.70641zM217.93388,171.70342v7.96262h-1.79795v-9.7698h1.79795v1.72462c0.01227,-0.23851 0.06726,-0.46173 0.1652,-0.66967c0.09782,-0.21405 0.2262,-0.39752 0.38527,-0.55041c0.16508,-0.159 0.35471,-0.28132 0.56876,-0.36694c0.21405,-0.09173 0.44338,-0.1376 0.68799,-0.1376h1.91731c0.25075,0 0.48309,0.04892 0.69714,0.14677c0.22019,0.09175 0.41282,0.22018 0.5779,0.38529c0.1652,0.159 0.29358,0.34859 0.38539,0.56876c0.09782,0.22016 0.14667,0.45562 0.14667,0.70637v1.65123h-1.80709v-1.65123zM234.16204,179.66604l-3.76123,-13.15483h1.87999l2.91831,10.46698l2.90703,-10.46698h1.88124l2.90829,10.46698l2.91705,-10.46698h1.87999l-3.76123,13.15483h-2.06411l-2.8156,-9.86154l-2.82562,9.86154zM257.64626,177.85882c0,0.25075 -0.04885,0.48622 -0.14654,0.70641c-0.09268,0.22019 -0.22044,0.41282 -0.38577,0.5779c-0.15907,0.15907 -0.34819,0.28745 -0.56863,0.38527c-0.21418,0.09181 -0.44589,0.13765 -0.69764,0.13765h-4.85215c-0.24424,0 -0.4772,-0.04584 -0.69764,-0.13765c-0.22044,-0.09782 -0.41207,-0.2262 -0.5774,-0.38527c-0.15907,-0.16508 -0.28807,-0.35771 -0.38577,-0.5779c-0.09143,-0.22019 -0.13777,-0.45566 -0.13777,-0.70641v-6.1554c0,-0.25075 0.04634,-0.4862 0.13777,-0.70637c0.09769,-0.22016 0.2267,-0.40975 0.38577,-0.56876c0.16533,-0.16512 0.35696,-0.29355 0.5774,-0.38529c0.22044,-0.09784 0.4534,-0.14677 0.69764,-0.14677h4.85215c0.25175,0 0.48346,0.04892 0.69764,0.14677c0.22044,0.09175 0.40956,0.22018 0.56863,0.38529c0.16533,0.159 0.29308,0.34859 0.38577,0.56876c0.09769,0.22016 0.14654,0.45562 0.14654,0.70637zM250.99553,171.70342v6.1554h4.85215v-6.1554zM262.46209,171.70342v7.96262h-1.79733v-9.7698h1.79733v1.72462c0.01252,-0.23851 0.06763,-0.46173 0.16533,-0.66967c0.09769,-0.21405 0.2267,-0.39752 0.38577,-0.55041c0.16408,-0.159 0.35446,-0.28132 0.56863,-0.36694c0.21418,-0.09173 0.44338,-0.1376 0.68762,-0.1376h1.91756c0.2505,0 0.48221,0.04892 0.69639,0.14677c0.22044,0.09175 0.41332,0.22018 0.57865,0.38529c0.16533,0.159 0.29308,0.34859 0.38451,0.56876c0.09895,0.22016 0.14779,0.45562 0.14779,0.70637v1.65123h-1.80735v-1.65123zM276.69916,179.66604l-4.65927,-4.17395v4.17395h-1.79858v-13.53094h1.79858v7.61402l4.28352,-3.85288h2.54131l-5.24794,4.71519l5.62369,5.05461zM289.00113,177.85882c0,0.25075 -0.04885,0.48622 -0.14654,0.70641c-0.09143,0.22019 -0.22044,0.41282 -0.38577,0.5779c-0.15907,0.15907 -0.34819,0.28745 -0.56863,0.38527c-0.21418,0.09181 -0.44589,0.13765 -0.69639,0.13765h-4.8534c-0.24424,0 -0.4772,-0.04584 -0.69764,-0.13765c-0.21919,-0.09782 -0.41207,-0.2262 -0.5774,-0.38527c-0.15907,-0.16508 -0.28807,-0.35771 -0.38577,-0.5779c-0.09143,-0.22019 -0.13777,-0.45566 -0.13777,-0.70641v-6.1554c0,-0.25075 0.04634,-0.4862 0.13777,-0.70637c0.09769,-0.22016 0.2267,-0.40975 0.38577,-0.56876c0.16533,-0.16512 0.35821,-0.29355 0.5774,-0.38529c0.22044,-0.09784 0.4534,-0.14677 0.69764,-0.14677h4.8534c0.2505,0 0.48221,0.04892 0.69639,0.14677c0.22044,0.09175 0.40956,0.22018 0.56863,0.38529c0.16533,0.159 0.29434,0.34859 0.38577,0.56876c0.09769,0.22016 0.14654,0.45562 0.14654,0.70637zM282.3504,171.70342v6.1554h4.8534v-6.1554zM292.01964,169.89624h1.79733v7.96258h5.03627v-7.96258h1.80735v9.7698h-1.80735v-1.65128c-0.01753,0.22633 -0.07891,0.44038 -0.18286,0.64215c-0.10396,0.2019 -0.23923,0.37925 -0.4033,0.53206c-0.15907,0.14679 -0.34318,0.26302 -0.5511,0.34869c-0.20791,0.08555 -0.42835,0.12838 -0.66006,0.12838h-3.23894c-0.24424,0 -0.4772,-0.04584 -0.69639,-0.13765c-0.22044,-0.09782 -0.41332,-0.2262 -0.57865,-0.38527c-0.15907,-0.16508 -0.28682,-0.35771 -0.38451,-0.5779c-0.09268,-0.22019 -0.13777,-0.45566 -0.13777,-0.70641zM303.10043,169.89624h2.386v-3.00892h1.80735v3.00892h3.21014v1.80718h-3.21014v6.1554h3.21014v1.80722h-3.21014c-0.24549,0 -0.4772,-0.04584 -0.69764,-0.13765c-0.22044,-0.09782 -0.41332,-0.2262 -0.57865,-0.38527c-0.16408,-0.16508 -0.29559,-0.35771 -0.39328,-0.5779c-0.09268,-0.22019 -0.13777,-0.45566 -0.13777,-0.70641v-6.1554h-2.386zM321.21897,166.5112v11.27422h6.76095v1.88062h-8.64219v-13.15483zM338.31799,175.70308h-6.46787v2.15574h6.46787v1.80722h-6.46787c-0.24424,0 -0.47595,-0.04584 -0.69639,-0.13765c-0.22044,-0.09782 -0.41332,-0.2262 -0.57865,-0.38527c-0.15907,-0.16508 -0.28682,-0.35771 -0.38451,-0.5779c-0.09143,-0.22019 -0.13777,-0.45566 -0.13777,-0.70641v-6.1554c0,-0.25075 0.04634,-0.4862 0.13777,-0.70637c0.09769,-0.22016 0.22545,-0.40975 0.38451,-0.56876c0.16533,-0.16512 0.35821,-0.29355 0.57865,-0.38529c0.22044,-0.09784 0.45215,-0.14677 0.69639,-0.14677h4.66052c0.2505,0 0.48597,0.04892 0.70641,0.14677c0.22044,0.09175 0.40956,0.22018 0.56863,0.38529c0.16533,0.159 0.29434,0.34859 0.38577,0.56876c0.09769,0.22016 0.14654,0.45562 0.14654,0.70637zM331.85012,171.70342v2.19247h4.66052v-2.19247zM344.11577,179.66604l-3.90777,-9.7698h1.87999l2.9634,7.60487l2.97216,-7.60487h1.88124l-3.90903,9.7698zM360.05874,175.70308h-6.46661v2.15574h6.46661v1.80722h-6.46661c-0.24424,0 -0.4772,-0.04584 -0.69764,-0.13765c-0.22044,-0.09782 -0.41207,-0.2262 -0.5774,-0.38527c-0.15907,-0.16508 -0.28807,-0.35771 -0.38577,-0.5779c-0.09143,-0.22019 -0.13777,-0.45566 -0.13777,-0.70641v-6.1554c0,-0.25075 0.04634,-0.4862 0.13777,-0.70637c0.09769,-0.22016 0.2267,-0.40975 0.38577,-0.56876c0.16533,-0.16512 0.35696,-0.29355 0.5774,-0.38529c0.22044,-0.09784 0.4534,-0.14677 0.69764,-0.14677h4.66052c0.2505,0 0.48597,0.04892 0.70641,0.14677c0.21919,0.09175 0.40956,0.22018 0.56863,0.38529c0.16408,0.159 0.29308,0.34859 0.38451,0.56876c0.09769,0.22016 0.14654,0.45562 0.14654,0.70637zM353.59212,171.70342v2.19247h4.66052v-2.19247zM364.87582,166.1351v13.53094h-1.79858v-13.53094zM370.15883,173.53812c0,-0.25686 0.02505,-0.48619 0.0739,-0.68801c0.05511,-0.20183 0.13402,-0.38224 0.23797,-0.54124c0.10396,-0.15902 0.23923,-0.30273 0.40455,-0.43116c0.17034,-0.13454 0.36949,-0.25686 0.59619,-0.36694l2.42107,-1.16504v-1.95395h-4.50396v1.6971h-1.87999v-1.6971c0,-0.25686 0.04885,-0.49843 0.14654,-0.72472c0.09769,-0.23239 0.23171,-0.43116 0.4033,-0.59627c0.17159,-0.17124 0.37074,-0.30578 0.59619,-0.40364c0.23296,-0.10397 0.4772,-0.15595 0.73396,-0.15595h4.50396c0.25676,0 0.49849,0.05198 0.72519,0.15595c0.23296,0.09786 0.43461,0.2324 0.60495,0.40364c0.17159,0.16512 0.30686,0.36389 0.40455,0.59627c0.09769,0.22629 0.14654,0.46786 0.14654,0.72472v1.61454c0,0.25686 -0.02505,0.48619 -0.0739,0.68801c-0.04885,0.20183 -0.12525,0.38529 -0.22921,0.55042c-0.10396,0.159 -0.24173,0.30273 -0.41207,0.43116c-0.16533,0.12842 -0.36448,0.25074 -0.59744,0.36693l-2.42983,1.15587v1.58702h-1.87247zM369.78308,176.92316h2.74296v2.74288h-2.74296z"/></g></g></svg>