<svg version="1.1" xmlns="http://www.w3.org/2000/svg" xmlns:xlink="http://www.w3.org/1999/xlink" width="105" height="105" viewBox="0,0,105,105"><g transform="translate(-187.5,-127.5)"><g data-paper-data="{&quot;isPaintingLayer&quot;:true}" fill-rule="nonzero" stroke-linecap="butt" stroke-linejoin="miter" stroke-miterlimit="10" stroke-dasharray="" stroke-dashoffset="0" style="mix-blend-mode: normal"><path d="M291.5,231.5h-103v-103h103z" fill="#616161" stroke="#6eb1ff" stroke-width="2"/><path d="M198.21459,152.03716c-2.56275,0 -4.64026,0 -4.64026,0v-18.56105c0,0 2.07751,0 4.64026,0h9.28053c2.56275,0 4.64026,0 4.64026,0v18.56105c0,0 -2.07751,0 -4.64026,0z" fill="#616161" stroke="#6eb1ff" stroke-width="2"/><path d="M199.54038,148.72269c-1.46443,0 -2.65158,0 -2.65158,0v-11.9321c0,0 1.18715,0 2.65158,0h6.62895c1.46443,0 2.65158,0 2.65158,0v11.9321c0,0 -1.18715,0 -2.65158,0z" fill="#6eb1ff" stroke="none" stroke-width="1"/></g></g></svg>