<svg version="1.1" xmlns="http://www.w3.org/2000/svg" xmlns:xlink="http://www.w3.org/1999/xlink" width="5.03009" height="5.73033" viewBox="0,0,5.03009,5.73033"><g transform="translate(-237.48495,-177.13484)"><g data-paper-data="{&quot;isPaintingLayer&quot;:true}" fill="#000000" fill-rule="nonzero" stroke="none" stroke-width="1" stroke-linecap="butt" stroke-linejoin="miter" stroke-miterlimit="10" stroke-dasharray="" stroke-dashoffset="0" style="mix-blend-mode: normal"><path d="M240.29655,181.29853l0.38222,-0.38009c0.17545,0.17511 0.25251,0.76246 0.25251,1.01077c0,0.51572 -0.42298,0.93596 -0.93992,0.93596c-0.51697,0 -0.93992,-0.42024 -0.93992,-0.93596c0,-0.24831 0.09712,-0.48072 0.27257,-0.65898l0.66734,-0.66536z"/><path d="M241.70946,179.66239c0.07118,0 0.1354,-0.15762 0.21579,-0.33391c0.12451,-0.27324 0,-0.75058 0,-0.84461c0,-0.07973 0.36731,0.58812 0.52873,1.32386c0.10737,0.48922 0.05069,1.03592 0,1.31286c-0.13158,0.71312 -0.57019,1.32115 -1.16234,1.68728c0.16917,-0.2515 0.26629,-0.55077 0.26629,-0.87547c0,-0.42342 -0.58151,-1.43658 -0.87916,-1.73266l-0.1945,0.43695l-0.49287,-0.9232l-1.10595,1.1015c-0.29765,0.29923 -0.46058,0.69399 -0.46058,1.11422c0,0.33108 0.1034,0.63988 0.27885,0.89138c-0.73001,-0.44248 -1.21877,-1.25429 -1.21877,-2.1839c0,-0.60362 0.46794,-1.74717 0.46794,-1.74717c0,0 0.07605,0.22273 0.18389,0.31426c0.09384,0.07965 0.28809,0.12471 0.28809,0.12471c0,0 0.15467,-0.71473 0.46058,-1.14307c0.30587,-0.42833 1.10595,-1.05058 1.10595,-1.05058v1.05058c0,0.60168 0.36302,0.89519 0.73272,0.42723l0.19425,-0.61331c0,0 0.79109,0.80971 0.79109,1.66305z"/></g></g></svg>