<svg version="1.1" xmlns="http://www.w3.org/2000/svg" xmlns:xlink="http://www.w3.org/1999/xlink" width="132.03249" height="75.407" viewBox="0,0,132.03249,75.407"><g transform="translate(-173.98378,-142.29652)"><g data-paper-data="{&quot;isPaintingLayer&quot;:true}" fill-rule="nonzero" stroke-linecap="butt" stroke-linejoin="miter" stroke-miterlimit="10" stroke-dasharray="" stroke-dashoffset="0" style="mix-blend-mode: normal"><path d="M181.28207,217.70351c-4.03073,0 -5.87254,-3.47005 -5.87254,-3.47005c0,0 -1.42575,-1.23843 -1.42575,-8.2396c0,-18.00205 0,-50.00567 0,-57.25564c0,-2.76442 1.71089,-4.70669 1.71089,-4.70669c0,0 1.55668,-1.73502 5.5874,-1.73502h117.4359c4.03073,0 5.01712,1.15671 5.01712,1.15671c0,0 2.28118,1.99584 2.28118,5.28504c0,8.14329 0,43.44706 0,60.14732c0,5.37113 -1.71089,6.50458 -1.71089,6.50458c0,0 -1.55669,2.31335 -5.58741,2.31335z" fill="#a0ed00" stroke="#b5e74e" stroke-width="0"/><path d="M204.57863,172.66389v8.05236h7.9403v3.4411h-7.9403v8.05236h-3.37596v-8.05236h-7.9403v-3.4411h7.9403v-8.05236zM238.0279,176.41927c0,3.4934 -1.46987,5.48459 -4.40938,5.97383l4.65047,10.13087h-3.90994l-4.58163,-10.00852h-7.73351v10.00852h-3.53091v-25.04792h13.52082c3.99605,0 5.99409,2.03213 5.99409,6.09619zM222.04385,178.93447h9.80039c0.94172,0 1.61925,-0.20946 2.03258,-0.62862c0.41333,-0.4194 0.62011,-1.10649 0.62011,-2.06126v-2.49769c0,-0.95501 -0.20677,-1.6421 -0.62011,-2.06125c-0.41333,-0.41918 -1.09086,-0.62887 -2.03258,-0.62887h-9.80039zM243.93562,167.47612h17.99931v3.58074h-14.46814v7.16172h12.3497v3.58074h-12.3497v7.14396h14.46814v3.58074h-17.99931zM267.22276,192.524v-25.04792h13.52107c3.99605,0 5.99384,2.03213 5.99384,6.09619v3.56322c0,4.06406 -1.99779,6.09596 -5.99384,6.09596h-9.99015v9.29254zM270.75366,179.65067h9.80064c0.94148,0 1.61901,-0.20947 2.03233,-0.62887c0.41356,-0.41918 0.62012,-1.10626 0.62012,-2.06101v-3.21388c0,-0.95501 -0.20655,-1.6421 -0.62012,-2.06125c-0.41332,-0.41918 -1.09086,-0.62887 -2.03233,-0.62887h-9.80064z" fill="#ffffff" stroke="none" stroke-width="1"/></g></g></svg>