<svg version="1.1" xmlns="http://www.w3.org/2000/svg" xmlns:xlink="http://www.w3.org/1999/xlink" width="42.61974" height="40.47822" viewBox="0,0,42.61974,40.47822"><g transform="translate(-217.1068,-159.76089)"><g data-paper-data="{&quot;isPaintingLayer&quot;:true}" fill="#ffffff" fill-rule="nonzero" stroke="none" stroke-width="1" stroke-linecap="butt" stroke-linejoin="miter" stroke-miterlimit="10" stroke-dasharray="" stroke-dashoffset="0" style="mix-blend-mode: normal"><path d="M259.02113,179.35219c0.50141,1.27643 0.75211,2.55284 0.62676,4.06135c0,3.36512 -1.37888,6.49816 -3.88592,8.81892c-2.50704,2.32077 -5.89155,3.59719 -9.40141,3.59719h-14.66621v4.40946l-14.54085,-7.89062l14.54085,-7.65854v4.40946h14.66621c3.25915,0 6.0169,-2.55284 6.0169,-5.68588v-0.46415l6.64367,-3.59719"/><path d="M224.37722,176.58647c0,0.23208 0,0.34812 0.12536,0.46415l-6.64367,3.59719c-0.50141,-1.27643 -0.75211,-2.66889 -0.75211,-4.06135c0,-3.36512 1.37888,-6.49816 3.88592,-8.81892c2.50704,-2.32077 5.89155,-3.59719 9.40141,-3.59719h14.79156v-4.40946l14.54085,7.89062l-14.54085,7.65854v-4.40946h-14.79156c-3.25915,0 -6.0169,2.55284 -6.0169,5.68588"/></g></g></svg>