<svg version="1.1" xmlns="http://www.w3.org/2000/svg" xmlns:xlink="http://www.w3.org/1999/xlink" width="175.16396" height="39.80999" viewBox="0,0,175.16396,39.80999"><g transform="translate(-152.41802,-160.095)"><g data-paper-data="{&quot;isPaintingLayer&quot;:true}" fill-rule="nonzero" stroke-linecap="butt" stroke-linejoin="miter" stroke-miterlimit="10" stroke-dasharray="" stroke-dashoffset="0" style="mix-blend-mode: normal"><path d="M327.58198,164.53497v30.93002c0,2.4521 -1.88361,4.44001 -4.20712,4.44001h-166.74971c-2.32354,0 -4.20714,-1.98791 -4.20714,-4.44001v-30.93002c0,-2.45214 1.8836,-4.43997 4.20714,-4.43997h166.74971c2.32351,0 4.20712,1.98783 4.20712,4.43997z" fill="#ff6845" stroke="none" stroke-width="1"/><path d="M170.96195,171.85275l6.46868,16.77408h-2.39798l-1.48558,-3.86014h-7.56822l-1.48556,3.86014h-2.39798l6.46868,-16.77408zM166.89125,182.36872h5.73173l-2.85417,-7.39275zM180.07428,178.47349c0,-0.31974 0.05845,-0.61997 0.17536,-0.90071c0.1249,-0.28074 0.28859,-0.52249 0.49126,-0.72524c0.21065,-0.21055 0.45629,-0.37431 0.73706,-0.4913c0.28077,-0.12476 0.57703,-0.18715 0.88894,-0.18715h6.42188v-4.79593h2.30443v17.25367h-2.30443v-2.10553c-0.02331,0.28853 -0.10142,0.56147 -0.23397,0.81876c-0.13256,0.25745 -0.30408,0.4836 -0.51458,0.67845c-0.20283,0.18718 -0.43681,0.33539 -0.70192,0.44463c-0.26512,0.10908 -0.54589,0.1637 -0.84215,0.1637h-4.12927c-0.31191,0 -0.60817,-0.05845 -0.88894,-0.17552c-0.28077,-0.12473 -0.5264,-0.28843 -0.73706,-0.49126c-0.20267,-0.2105 -0.36637,-0.45613 -0.49126,-0.73689c-0.11691,-0.28075 -0.17536,-0.58099 -0.17536,-0.90071zM182.3669,186.32245h6.42188v-7.84895h-6.42188zM194.92989,178.47349c0,-0.31974 0.05845,-0.61997 0.17552,-0.90071c0.12473,-0.28074 0.28859,-0.52249 0.49126,-0.72524c0.2105,-0.21055 0.45629,-0.37431 0.73689,-0.4913c0.28077,-0.12476 0.57719,-0.18715 0.8891,-0.18715h6.42188v-4.79593h2.30428v17.25367h-2.30428v-2.10553c-0.02348,0.28853 -0.10142,0.56147 -0.23397,0.81876c-0.13256,0.25745 -0.30408,0.4836 -0.51474,0.67845c-0.20267,0.18718 -0.43664,0.33539 -0.70176,0.44463c-0.26528,0.10908 -0.54589,0.1637 -0.8423,0.1637h-4.12911c-0.31191,0 -0.60833,-0.05845 -0.8891,-0.17552c-0.28061,-0.12473 -0.5264,-0.28843 -0.73689,-0.49126c-0.20267,-0.2105 -0.36653,-0.45613 -0.49126,-0.73689c-0.11707,-0.28075 -0.17552,-0.58099 -0.17552,-0.90071zM197.22267,186.32245h6.42188v-7.84895h-6.42188zM220.55896,188.62683l-4.79588,-16.77408h2.39786l3.71977,13.34673l3.70811,-13.34673h2.39802l3.70795,13.34673l3.71977,-13.34673h2.39802l-4.79588,16.77408h-2.632l-3.59104,-12.57472l-3.60286,12.57472zM250.50432,186.32245c0,0.31972 -0.06244,0.61996 -0.18718,0.90071c-0.11691,0.28077 -0.28077,0.5264 -0.49126,0.73689c-0.20283,0.20283 -0.44447,0.36653 -0.72524,0.49126c-0.27294,0.11707 -0.56936,0.17552 -0.8891,0.17552h-6.18791c-0.31191,0 -0.60817,-0.05845 -0.88894,-0.17552c-0.28077,-0.12473 -0.5264,-0.28843 -0.73689,-0.49126c-0.20283,-0.2105 -0.36653,-0.45613 -0.49142,-0.73689c-0.11691,-0.28075 -0.17536,-0.58099 -0.17536,-0.90071v-7.84895c0,-0.31974 0.05845,-0.61997 0.17536,-0.90071c0.1249,-0.28074 0.28859,-0.52249 0.49142,-0.72524c0.2105,-0.21055 0.45613,-0.37431 0.73689,-0.4913c0.28077,-0.12476 0.57703,-0.18715 0.88894,-0.18715h6.18791c0.31974,0 0.61616,0.06239 0.8891,0.18715c0.28077,0.11698 0.52241,0.28075 0.72524,0.4913c0.2105,0.20275 0.37435,0.4445 0.49126,0.72524c0.12473,0.28074 0.18718,0.58097 0.18718,0.90071zM242.02363,178.47349v7.84895h6.18791v-7.84895zM256.64544,178.47349v10.15335h-2.29262v-12.45773h2.29262v2.1991c0.01565,-0.30413 0.08577,-0.58876 0.2105,-0.85392c0.1249,-0.27294 0.28859,-0.50688 0.49142,-0.70184c0.2105,-0.20275 0.45229,-0.35872 0.72524,-0.4679c0.27294,-0.11697 0.56537,-0.17545 0.87728,-0.17545h2.44466c0.31974,0 0.61616,0.06239 0.8891,0.18715c0.28077,0.11698 0.5264,0.28075 0.73689,0.4913c0.2105,0.20275 0.37435,0.4445 0.49126,0.72524c0.12473,0.28074 0.18718,0.58097 0.18718,0.90071v2.10553h-2.30443v-2.10553zM274.79982,188.62683l-5.94228,-5.32232v5.32232h-2.29277v-17.25367h2.29277v9.70884l5.46267,-4.91291h3.24017l-6.69083,6.01247l7.17043,6.44526zM290.48608,186.32245c0,0.31972 -0.06244,0.61996 -0.18718,0.90071c-0.11707,0.28077 -0.28077,0.5264 -0.49126,0.73689c-0.20283,0.20283 -0.44463,0.36653 -0.72524,0.49126c-0.27294,0.11707 -0.56936,0.17552 -0.8891,0.17552h-6.18791c-0.31191,0 -0.60817,-0.05845 -0.88894,-0.17552c-0.28077,-0.12473 -0.5264,-0.28843 -0.73706,-0.49126c-0.20267,-0.2105 -0.36637,-0.45613 -0.49126,-0.73689c-0.11691,-0.28075 -0.17536,-0.58099 -0.17536,-0.90071v-7.84895c0,-0.31974 0.05845,-0.61997 0.17536,-0.90071c0.1249,-0.28074 0.28859,-0.52249 0.49126,-0.72524c0.21065,-0.21055 0.45629,-0.37431 0.73706,-0.4913c0.28077,-0.12476 0.57703,-0.18715 0.88894,-0.18715h6.18791c0.31974,0 0.61616,0.06239 0.8891,0.18715c0.28061,0.11698 0.52241,0.28075 0.72524,0.4913c0.2105,0.20275 0.3742,0.4445 0.49126,0.72524c0.12473,0.28074 0.18718,0.58097 0.18718,0.90071zM282.0054,178.47349v7.84895h6.18791v-7.84895zM294.33442,176.1691h2.29277v10.15335h6.42188v-10.15335h2.30443v12.45773h-2.30443v-2.10553c-0.02348,0.28853 -0.10142,0.56147 -0.23397,0.81876c-0.13256,0.25745 -0.30408,0.4836 -0.51474,0.67845c-0.20267,0.18718 -0.43664,0.33539 -0.70176,0.44463c-0.26512,0.10908 -0.54589,0.1637 -0.8423,0.1637h-4.12911c-0.31191,0 -0.60833,-0.05845 -0.8891,-0.17552c-0.28061,-0.12473 -0.52624,-0.28843 -0.73689,-0.49126c-0.20267,-0.2105 -0.36653,-0.45613 -0.49126,-0.73689c-0.11691,-0.28075 -0.17552,-0.58099 -0.17552,-0.90071zM308.46495,176.1691h3.04133v-3.83676h2.30443v3.83676h4.09397v2.30438h-4.09397v7.84895h4.09397v2.30438h-4.09397c-0.31207,0 -0.60833,-0.05845 -0.8891,-0.17552c-0.28077,-0.12473 -0.5264,-0.28843 -0.73689,-0.49126c-0.2105,-0.2105 -0.37819,-0.45613 -0.50292,-0.73689c-0.11707,-0.28075 -0.17552,-0.58099 -0.17552,-0.90071v-7.84895h-3.04133z" fill="#ffffff" stroke="#ffffff" stroke-width="0.5"/></g></g></svg>