<svg version="1.1" xmlns="http://www.w3.org/2000/svg" xmlns:xlink="http://www.w3.org/1999/xlink" width="52.43431" height="42.42247" viewBox="0,0,52.43431,42.42247"><g transform="translate(-213.78284,-149.085)"><g data-paper-data="{&quot;isPaintingLayer&quot;:true}" fill="#ffffff" fill-rule="nonzero" stroke="none" stroke-width="1" stroke-linecap="butt" stroke-linejoin="miter" stroke-miterlimit="10" stroke-dasharray="" stroke-dashoffset="0" style="mix-blend-mode: normal"><path d="M239.90908,183.25459c-2.61777,0 -4.65452,-2.218 -4.65452,-4.9518v-8.25266c0,-2.73379 2.03675,-4.9518 4.65452,-4.9518c2.5706,0 4.65666,2.218 4.65666,4.9518v8.25266c0,2.78531 -2.08606,4.9518 -4.65666,4.9518zM247.27997,175.00169c0.63032,0 1.16416,0.56733 1.16416,1.23793v2.06317c0,4.59082 -3.24809,8.40774 -7.3709,9.02659v1.70221h1.94027c0.87259,0 1.55221,0.82523 1.5029,1.75373c0,0.41249 -0.33874,0.72215 -0.72679,0.72215h-7.7611c-0.43522,0 -0.77396,-0.30966 -0.77396,-0.72215c-0.04931,-0.92852 0.63032,-1.75373 1.55007,-1.75373h1.94027v-1.80527c-4.31577,-0.61908 -7.3709,-4.74541 -7.3709,-9.33602v-1.65067c0,-0.67062 0.48454,-1.23793 1.16417,-1.23793c0.63032,0 1.16416,0.56733 1.16416,1.23793v1.80527c0,3.45594 2.5706,6.65399 5.77152,6.86013c3.63614,0.25813 6.6441,-2.78532 6.6441,-6.60223v-2.06317c0,-0.67062 0.48453,-1.23793 1.16202,-1.23793z"/><g><path d="M214.21974,159.15537v-9.63348h2.3199c0.86505,0 1.59903,0.09612 2.20194,0.28835c0.61165,0.19223 1.11408,0.45 1.50728,0.7733c0.3932,0.31456 0.69903,0.67718 0.91747,1.08786c0.22718,0.40194 0.38447,0.82136 0.47184,1.25825c0.08738,0.42815 0.13107,0.8432 0.13107,1.24514c0,0.60291 -0.08738,1.20145 -0.26214,1.79563c-0.16602,0.58544 -0.44563,1.11844 -0.83883,1.59903c-0.3932,0.48058 -0.92184,0.86505 -1.58592,1.1534c-0.65534,0.28835 -1.4767,0.43252 -2.46407,0.43252zM215.68769,157.8578h1.08786c0.6466,0 1.18835,-0.10049 1.62524,-0.30146c0.44563,-0.20097 0.79951,-0.47184 1.06165,-0.81262c0.27087,-0.34951 0.46311,-0.73835 0.5767,-1.1665c0.12233,-0.43689 0.18349,-0.88252 0.18349,-1.33689c0,-0.62039 -0.10922,-1.18835 -0.32767,-1.70388c-0.21845,-0.52427 -0.58107,-0.94369 -1.08786,-1.25825c-0.49806,-0.31456 -1.17524,-0.47184 -2.03155,-0.47184h-1.08786zM223.25655,159.15537v-6.01601h1.46796v6.01601zM223.99053,152.01218c-0.27087,0 -0.49806,-0.09175 -0.68155,-0.27524c-0.17476,-0.18349 -0.26214,-0.41068 -0.26214,-0.68155c0,-0.24466 0.08738,-0.45437 0.26214,-0.62913c0.18349,-0.17476 0.41068,-0.26214 0.68155,-0.26214c0.27087,0 0.49369,0.08738 0.66845,0.26214c0.18349,0.17476 0.27524,0.38447 0.27524,0.62913c0,0.27087 -0.09175,0.49806 -0.27524,0.68155c-0.17476,0.18349 -0.39757,0.27524 -0.66845,0.27524zM229.31008,159.28644c-0.58544,0 -1.11844,-0.1267 -1.59903,-0.3801c-0.47184,-0.2534 -0.85194,-0.62039 -1.14029,-1.10097c-0.27961,-0.48058 -0.41942,-1.05728 -0.41942,-1.73009c0,-0.62913 0.1267,-1.17524 0.3801,-1.63835c0.26214,-0.46311 0.62476,-0.82136 1.08786,-1.07476c0.47184,-0.2534 1.01359,-0.3801 1.62524,-0.3801c0.5068,0 0.92184,0.06553 1.24514,0.1966c0.33204,0.13107 0.58107,0.27087 0.74709,0.41942l-0.62913,1.14029c-0.03495,-0.04369 -0.10485,-0.10922 -0.20971,-0.1966c-0.10485,-0.08738 -0.24466,-0.16602 -0.41942,-0.23592c-0.16602,-0.07864 -0.37136,-0.11796 -0.61602,-0.11796c-0.5767,0 -1.00922,0.17476 -1.29757,0.52427c-0.27961,0.34951 -0.41942,0.79951 -0.41942,1.35c0,0.63786 0.14854,1.14029 0.44563,1.50728c0.30582,0.35825 0.72961,0.53738 1.27136,0.53738c0.28835,0 0.55922,-0.03932 0.81262,-0.11796c0.2534,-0.08738 0.44563,-0.17913 0.5767,-0.27524l0.51116,0.99611c-0.15728,0.12233 -0.40631,0.24903 -0.74709,0.3801c-0.34078,0.13107 -0.74272,0.1966 -1.20582,0.1966zM233.13493,159.15537v-4.86261h-1.06165v-1.1534h1.06165v-2.45097l1.42864,-0.31456v2.76553h1.38932v1.1534h-1.38932v4.86261zM239.6487,159.28644c-0.53301,0 -1.03107,-0.1267 -1.49417,-0.3801c-0.45437,-0.2534 -0.82136,-0.61602 -1.10097,-1.08786c-0.27961,-0.47184 -0.41942,-1.03544 -0.41942,-1.69077c0,-0.62913 0.11796,-1.17961 0.35388,-1.65145c0.24466,-0.47184 0.58544,-0.83883 1.02233,-1.10097c0.44563,-0.26214 0.97427,-0.3932 1.58592,-0.3932c0.36699,0 0.69903,0.06553 0.99611,0.1966c0.30582,0.12233 0.55922,0.27524 0.76019,0.45874c0.20971,0.17476 0.34951,0.34515 0.41942,0.51116l0.02621,-1.00922h1.35v6.01601h-1.33689l-0.02621,-1.06165c-0.08738,0.19223 -0.23592,0.3801 -0.44563,0.56359c-0.20097,0.18349 -0.44563,0.33641 -0.73398,0.45874c-0.28835,0.11359 -0.60728,0.17039 -0.95679,0.17039zM239.88462,158.10683c0.3233,0 0.61602,-0.07427 0.87815,-0.22282c0.27087,-0.15728 0.48495,-0.37573 0.64223,-0.65534c0.16602,-0.27961 0.24903,-0.61165 0.24903,-0.99611v-0.09175c0,-0.3932 -0.08301,-0.73398 -0.24903,-1.02233c-0.15728,-0.29709 -0.37136,-0.52427 -0.64223,-0.68155c-0.26214,-0.16602 -0.55485,-0.24903 -0.87815,-0.24903c-0.58544,0 -1.0267,0.18786 -1.32378,0.56359c-0.28835,0.37573 -0.43252,0.83883 -0.43252,1.38932c0,0.55922 0.14417,1.0267 0.43252,1.40243c0.29709,0.37573 0.73835,0.56359 1.32378,0.56359zM245.44801,159.15537v-4.86261h-1.06165v-1.1534h1.06165v-2.45097l1.42864,-0.31456v2.76553h1.38932v1.1534h-1.38932v4.86261zM249.49568,159.15537v-6.01601h1.46796v6.01601zM250.22966,152.01218c-0.27087,0 -0.49806,-0.09175 -0.68155,-0.27524c-0.17476,-0.18349 -0.26214,-0.41068 -0.26214,-0.68155c0,-0.24466 0.08738,-0.45437 0.26214,-0.62913c0.18349,-0.17476 0.41068,-0.26214 0.68155,-0.26214c0.27087,0 0.49369,0.08738 0.66845,0.26214c0.18349,0.17476 0.27524,0.38447 0.27524,0.62913c0,0.27087 -0.09175,0.49806 -0.27524,0.68155c-0.17476,0.18349 -0.39757,0.27524 -0.66845,0.27524zM255.53644,159.28644c-0.62913,0 -1.18398,-0.13981 -1.66456,-0.41942c-0.47184,-0.27961 -0.83883,-0.65971 -1.10097,-1.14029c-0.26214,-0.48058 -0.3932,-1.01359 -0.3932,-1.59903c0,-0.5767 0.1267,-1.10097 0.3801,-1.57281c0.26214,-0.48058 0.62913,-0.86068 1.10097,-1.14029c0.47184,-0.28835 1.03107,-0.43252 1.67767,-0.43252c0.6466,0 1.20582,0.14417 1.67767,0.43252c0.47184,0.27961 0.83446,0.65971 1.08786,1.14029c0.2534,0.47184 0.3801,0.99611 0.3801,1.57281c0,0.58544 -0.13107,1.11844 -0.3932,1.59903c-0.2534,0.48058 -0.61602,0.86068 -1.08786,1.14029c-0.47184,0.27961 -1.0267,0.41942 -1.66456,0.41942zM255.57577,158.13304c0.52427,0 0.92621,-0.19223 1.20582,-0.5767c0.28835,-0.38447 0.43252,-0.85194 0.43252,-1.40243c0,-0.37573 -0.0699,-0.71213 -0.20971,-1.00922c-0.13981,-0.30582 -0.34078,-0.55048 -0.60291,-0.73398c-0.2534,-0.18349 -0.55485,-0.27524 -0.90437,-0.27524c-0.34078,0 -0.63349,0.09175 -0.87815,0.27524c-0.24466,0.18349 -0.43689,0.42815 -0.5767,0.73398c-0.13107,0.29709 -0.1966,0.63349 -0.1966,1.00922c0,0.36699 0.07427,0.7034 0.22282,1.00922c0.14854,0.29709 0.34951,0.53301 0.60291,0.70777c0.26214,0.17476 0.56359,0.26214 0.90437,0.26214zM260.06571,159.15537v-6.01601h1.38932l0.01311,1.10097c0.15728,-0.35825 0.41068,-0.65534 0.76019,-0.89126c0.35825,-0.24466 0.78641,-0.36699 1.28446,-0.36699c0.6466,0 1.13155,0.13544 1.45485,0.40631c0.3233,0.26214 0.53738,0.63786 0.64223,1.12718c0.11359,0.48932 0.17039,1.07039 0.17039,1.7432v2.8966h-1.41553v-2.85728c0,-0.69903 -0.0699,-1.23204 -0.20971,-1.59903c-0.13107,-0.36699 -0.44126,-0.55048 -0.93058,-0.55048c-0.2534,0 -0.51553,0.07864 -0.78641,0.23592c-0.27087,0.15728 -0.49806,0.38447 -0.68155,0.68155c-0.18349,0.29709 -0.27524,0.66408 -0.27524,1.10097v2.98834z"/><path d="M214.21974,159.59227h-0.43689v-0.43689h0.43689zM213.78284,149.52189v-0.43689h0.43689v0.43689zM218.61058,150.22704l-0.00172,-0.00058l0.13271,-0.41621zM219.97593,150.92475l-0.00457,-0.00379l0.2775,-0.33743zM220.78598,151.88635l-0.0055,-0.00976l0.38585,-0.20519zM221.2101,153.01703l-0.00035,-0.00175l0.42842,-0.08563zM221.08678,155.8513l0.00117,-0.00422l0.41915,0.12335zM221.00641,157.84615v0l-0.33814,-0.2767zM218.9064,158.32295l0.00194,-0.00087l0.17401,0.40078zM215.68769,158.29469h-0.43689v-0.43689h0.43689zM218.21822,157.1595l0.00296,-0.00146l0.17962,0.3983zM219.11615,156.47737l0.00096,-0.00131l0.34533,0.26767zM219.61686,155.46523l0.00153,-0.00583l0.42076,0.11782zM219.49269,152.70684l-0.00102,-0.00233l0.4033,-0.16806zM218.5767,151.64941l-0.0029,-0.00175l0.2333,-0.36947zM215.2508,150.80636v-0.43689h0.43689v0.43689zM213.78284,159.15537v-9.63348h0.87379v9.63348zM214.21974,149.085h2.3199v0.87379h-2.3199zM216.53964,149.085c0.89477,0 1.67634,0.09903 2.33465,0.30903l-0.26543,0.83243c-0.54751,-0.17447 -1.2339,-0.26767 -2.06923,-0.26767zM218.87257,149.39345c0.65176,0.2049 1.20763,0.48582 1.65375,0.85267l-0.55494,0.67485c-0.34028,-0.27976 -0.78926,-0.51437 -1.3608,-0.69393zM220.52178,150.24233c0.43579,0.34864 0.78163,0.75641 1.03027,1.22388l-0.77144,0.41039c-0.18827,-0.35388 -0.45408,-0.67136 -0.80468,-0.95184zM221.54667,151.45645c0.24912,0.44068 0.42313,0.90364 0.5199,1.38757l-0.85682,0.17126c-0.07797,-0.38985 -0.21852,-0.76573 -0.42377,-1.12893zM222.06624,152.84228c0.09274,0.45451 0.13989,0.89883 0.13989,1.33252h-0.87379c0,-0.37019 -0.04024,-0.75597 -0.12224,-1.15777zM222.20613,154.1748c0,0.64573 -0.09368,1.28577 -0.27989,1.91883l-0.83828,-0.24655c0.16331,-0.55514 0.24438,-1.11218 0.24438,-1.67228zM221.92742,156.08955c-0.18268,0.64427 -0.49072,1.23058 -0.92101,1.7566l-0.67628,-0.5534c0.35611,-0.43514 0.6073,-0.91485 0.75665,-1.44145zM221.00641,157.84615c-0.44403,0.54262 -1.03277,0.96597 -1.75006,1.27747l-0.34801,-0.80155c0.61086,-0.26519 1.07942,-0.61078 1.42179,-1.02932zM219.2583,159.12275c-0.72759,0.3201 -1.61359,0.46951 -2.64003,0.46951v-0.87379c0.94832,0 1.70502,-0.13893 2.28812,-0.39553zM216.61828,159.59227h-2.39854v-0.87379h2.39854zM215.68769,157.42091h1.08786v0.87379h-1.08786zM216.77556,157.42091c0.60415,0 1.07917,-0.09422 1.44266,-0.26141l0.36515,0.79369c-0.51031,0.23476 -1.11878,0.3415 -1.80782,0.3415zM218.22119,157.15805c0.38914,-0.17549 0.68238,-0.40427 0.89496,-0.68068l0.69259,0.53272c-0.31169,0.40515 -0.72622,0.71811 -1.22834,0.94456zM219.11711,156.47606c0.23502,-0.3032 0.40111,-0.63917 0.49975,-1.01082l0.84457,0.22398c-0.12856,0.48451 -0.34692,0.92636 -0.65366,1.32218zM219.61843,155.45941c0.11158,-0.39845 0.16732,-0.80446 0.16732,-1.21908h0.87379c0,0.49413 -0.0666,0.97937 -0.19967,1.45471zM219.78575,154.24033c0,-0.56811 -0.0998,-1.07738 -0.29305,-1.53349l0.80454,-0.34078c0.24365,0.57495 0.3623,1.2016 0.3623,1.87427zM219.49169,152.70451c-0.18159,-0.43587 -0.48146,-0.78597 -0.91498,-1.0551l0.46081,-0.74243c0.58006,0.36 1.00544,0.84874 1.26074,1.46141zM218.57381,151.64752c-0.40337,-0.25471 -0.98914,-0.40427 -1.79825,-0.40427v-0.87379c0.90351,0 1.6721,0.165 2.26485,0.53942zM216.77556,151.24325h-1.08786v-0.87379h1.08786zM216.12459,150.80636v7.05145h-0.87379v-7.05145zM223.25655,159.59227h-0.43689v-0.43689h0.43689zM222.81966,153.13936v-0.43689h0.43689v0.43689zM224.72451,152.70247h0.43689v0.43689h-0.43689zM225.1614,159.15537v0.43689h-0.43689v-0.43689zM223.00005,152.04582l-0.00754,-0.00743l0.31647,-0.30146zM223.00005,150.11738l0.00753,-0.00757l0.3014,0.31646zM224.35767,150.74257l-0.00772,-0.00728l0.30903,-0.30903zM224.34261,151.43563l0.00734,-0.00772l0.30903,0.30903zM222.81966,159.15537v-6.01601h0.87379v6.01601zM223.25655,152.70247h1.46796v0.87379h-1.46796zM225.1614,153.13936v6.01601h-0.87379v-6.01601zM224.72451,159.59227h-1.46796v-0.87379h1.46796zM223.99053,152.44907c-0.38109,0 -0.72113,-0.13383 -0.99048,-0.40325l0.61785,-0.61777c0.09765,0.09757 0.21197,0.14723 0.37263,0.14723zM222.99261,152.03825c-0.25781,-0.27073 -0.38266,-0.6083 -0.38266,-0.98286h0.87379c0,0.16718 0.04989,0.28398 0.14161,0.38024zM222.60995,151.05539c0,-0.36189 0.13434,-0.68228 0.3901,-0.93801l0.61785,0.61777c-0.09376,0.09379 -0.13417,0.19282 -0.13417,0.32024zM223.00767,150.10995c0.27068,-0.25791 0.6083,-0.38272 0.98286,-0.38272v0.87379c-0.1672,0 -0.28395,0.04995 -0.38026,0.14155zM223.99053,149.72723c0.3745,0 0.71241,0.1251 0.97737,0.39015l-0.61785,0.61777c-0.08457,-0.08447 -0.19229,-0.13413 -0.35952,-0.13413zM224.96027,150.10995c0.26661,0.25383 0.41084,0.57655 0.41084,0.94544h-0.87379c0,-0.12044 -0.03926,-0.21714 -0.13966,-0.31282zM225.37111,151.05539c0,0.38112 -0.13386,0.72116 -0.40321,0.99044l-0.61785,-0.61777c0.09763,-0.09772 0.14728,-0.21204 0.14728,-0.37267zM224.97535,152.03825c-0.26336,0.27655 -0.60358,0.41082 -0.98481,0.41082v-0.87379c0.1605,0 0.26591,-0.04922 0.35208,-0.13966zM227.50717,159.29285l-0.00291,-0.0016l0.2068,-0.3849zM226.19605,158.03008l-0.00306,-0.00495l0.37777,-0.21976zM226.14814,154.22723l0.00306,-0.00553l0.38024,0.21524zM227.40959,152.97888l0.00291,-0.0016l0.2068,0.3849zM230.3292,153.58499l-0.00364,-0.00146l0.16413,-0.40485zM231.52803,153.27247l0.25937,0.23199l-0.1682,0.30466l-0.38243,-0.21102zM230.99007,154.94941l-0.31558,0.57204l-0.40806,-0.51014l0.34121,-0.27291zM230.67755,154.20611v0l-0.27961,0.33568zM229.81629,154.71145l-0.01267,-0.00495l-0.01223,-0.00583l0.18714,-0.39481zM227.72372,154.43926l0.00408,-0.0051l0.33714,0.27801zM227.75882,157.85314l-0.00743,-0.00874l0.33976,-0.27495zM230.31755,158.40188l-0.01296,0.00451l-0.12947,-0.41752zM230.49347,157.36135l0.41315,-0.30306l0.23388,0.45582l-0.38869,0.19951zM231.65168,158.51023l0.16529,0.32214l-0.28573,0.22223l-0.26825,-0.34485zM230.35906,158.68207v0l0.15684,0.40777zM229.31008,159.72333c-0.65082,0 -1.25461,-0.14141 -1.80291,-0.43048l0.40762,-0.77301c0.41301,0.21772 0.87524,0.32971 1.39529,0.32971zM227.50425,159.29125c-0.54451,-0.29243 -0.98126,-0.71621 -1.3082,-1.26116l0.74927,-0.44942c0.24976,0.41621 0.5732,0.72641 0.97238,0.94078zM226.19314,158.02513c-0.32588,-0.5601 -0.47873,-1.21602 -0.47873,-1.94985h0.87383c0,0.6118 0.1267,1.10927 0.36015,1.51034zM225.71441,156.07528c0,-0.6884 0.13898,-1.30937 0.43373,-1.84806l0.7666,0.41942c-0.21218,0.38752 -0.3265,0.85879 -0.3265,1.42864zM226.1512,154.22169c0.30189,-0.5333 0.7232,-0.94995 1.2584,-1.24281l0.41942,0.7666c-0.39116,0.21393 -0.69495,0.51379 -0.91747,0.9067zM227.41251,152.97728c0.54393,-0.29214 1.15849,-0.43209 1.83204,-0.43209v0.87379c-0.5499,0 -1.01883,0.11345 -1.41859,0.32811zM229.24454,152.54519c0.53971,0 1.01578,0.06917 1.40927,0.22864l-0.32825,0.80971c-0.25325,-0.10267 -0.60728,-0.16456 -1.08102,-0.16456zM230.65003,152.77237c0.35476,0.13995 0.65738,0.30277 0.87801,0.5001l-0.58267,0.65126c-0.11126,-0.09976 -0.3067,-0.21655 -0.61616,-0.33874zM231.6192,153.80912l-0.62913,1.14029l-0.765,-0.42204l0.62913,-1.14029zM230.26643,155.0113c0.00146,0.00189 -0.00743,-0.00903 -0.03626,-0.03612c-0.0268,-0.02505 -0.06364,-0.05738 -0.11199,-0.09772l0.55937,-0.67136c0.10442,0.08709 0.20578,0.17752 0.27116,0.25937zM230.11818,154.87747c-0.05913,-0.04937 -0.15481,-0.10718 -0.30189,-0.16602l0.32447,-0.81116c0.20243,0.08097 0.38621,0.18044 0.5368,0.30582zM229.79139,154.70067c-0.09146,-0.04325 -0.22849,-0.07587 -0.42888,-0.07587v-0.87379c0.28879,0 0.56243,0.04602 0.80301,0.16005zM229.3625,154.6248c-0.48495,0 -0.77694,0.14286 -0.96058,0.36539l-0.67398,-0.55602c0.39306,-0.4765 0.96597,-0.68315 1.63456,-0.68315zM228.406,154.98509c-0.20432,0.25558 -0.32359,0.60233 -0.32359,1.07709h-0.87379c0,-0.62621 0.16034,-1.17946 0.5151,-1.62291zM228.08241,156.06217c0,0.57277 0.13311,0.9667 0.3482,1.23233l-0.67908,0.5499c-0.37908,-0.46835 -0.54291,-1.07927 -0.54291,-1.78223zM228.42333,157.28576c0.21,0.24582 0.50388,0.38417 0.93917,0.38417v0.87379c-0.6482,0 -1.20189,-0.2199 -1.60369,-0.69058zM229.3625,157.66994c0.24815,0 0.47505,-0.03379 0.68315,-0.0983l0.25893,0.83446c-0.29883,0.09277 -0.61369,0.13762 -0.94209,0.13762zM230.0327,157.57586c0.23505,-0.08112 0.38053,-0.15568 0.46078,-0.21451l0.5167,0.70456c-0.18189,0.1334 -0.42102,0.24233 -0.69262,0.33597zM231.14051,157.51411l0.51116,0.99611l-0.77738,0.39903l-0.51116,-0.99611zM231.53124,159.0546c-0.2084,0.16209 -0.50519,0.30714 -0.85849,0.44301l-0.31369,-0.81553c0.32811,-0.12626 0.52951,-0.23461 0.63568,-0.31718zM230.67274,159.49761c-0.40223,0.15466 -0.8598,0.22573 -1.36267,0.22573v-0.87379c0.4232,0 0.76966,-0.06 1.04898,-0.16748zM233.13493,159.59227h-0.43689v-0.43689h0.43689zM233.13493,153.85587h0.43689v0.43689h-0.43689zM232.07328,154.72965h-0.43689v-0.43689h0.43689zM231.63638,153.13936v-0.43689h0.43689v0.43689zM233.57182,153.13936v0.43689h-0.43689v-0.43689zM232.69803,150.6884v-0.35112l0.34282,-0.07558l0.09408,0.4267zM234.46949,149.94713l0.53097,-0.1168v0.54349h-0.43689zM234.56356,153.57626h-0.43689v-0.43689h0.43689zM235.95288,152.70247h0.43689v0.43689h-0.43689zM236.38977,154.29276v0.43689h-0.43689v-0.43689zM234.12667,154.29276v-0.43689h0.43689v0.43689zM235.00046,159.15537v0.43689h-0.43689v-0.43689zM232.69803,159.15537v-4.86261h0.87379v4.86261zM233.13493,154.72965h-1.06165v-0.87379h1.06165zM231.63638,154.29276v-1.1534h0.87379v1.1534zM232.07328,152.70247h1.06165v0.87379h-1.06165zM232.69803,153.13936v-2.45097h0.87379v2.45097zM233.04085,150.2617l1.42864,-0.31456l0.18801,0.8534l-1.42864,0.31456zM235.00046,150.37383v2.76553h-0.87379v-2.76553zM234.56356,152.70247h1.38932v0.87379h-1.38932zM236.38977,153.13936v1.1534h-0.87379v-1.1534zM235.95288,154.72965h-1.38932v-0.87379h1.38932zM235.00046,154.29276v4.86261h-0.87379v-4.86261zM234.56356,159.59227h-1.42864v-0.87379h1.42864zM237.94482,159.28964l-0.00306,-0.00175l0.21277,-0.38155zM237.42943,157.59581v0l-0.37587,0.22267zM236.5973,154.28082l0.00291,-0.00568l0.38781,0.20112zM237.78565,153.00072l0.0032,-0.00204l0.2215,0.3766zM240.43016,153.58427l-0.01427,-0.00568l0.1765,-0.3999zM241.07297,153.9731l-0.01529,-0.01267l0.2949,-0.32301zM242.20875,154.15994l-0.83942,0.15816l0.40267,-0.16951zM241.36147,153.128l0.01107,-0.42553h0.42568v0.43689zM243.14821,152.70247h0.43689v0.43689h-0.43689zM243.5851,159.15537v0.43689h-0.43689v-0.43689zM241.81132,159.59227h-0.42626l-0.01049,-0.42612l0.43675,-0.01078zM241.38739,157.913l0.83446,0.16995l-0.43675,0.01078zM241.04486,158.33474l0.00684,-0.00626l0.28777,0.32883zM240.77618,159.51829l-0.01049,0.00437l-0.16019,-0.4066zM240.98224,158.26178l-0.00408,0.00233l-0.21539,-0.3801zM241.02419,157.01445l0.0051,-0.00888l0.37573,0.22311zM241.02637,155.3365l-0.00772,-0.0134l0.38636,-0.20461zM240.54346,154.8147l-0.01456,-0.00845l0.23388,-0.36932zM238.21424,154.48557l0.00393,-0.0051l0.34267,0.27102zM238.21817,157.81426l-0.00393,-0.00495l0.3466,-0.26607zM239.6487,159.72333c-0.60553,0 -1.17582,-0.14476 -1.70388,-0.43369l0.41942,-0.7666c0.39815,0.21786 0.82398,0.3265 1.28446,0.3265zM237.94176,159.2879c-0.52558,-0.29301 -0.94733,-0.71213 -1.26408,-1.24675l0.75175,-0.44534c0.24248,0.40908 0.55471,0.71519 0.93786,0.92898zM236.67769,158.04115c-0.32665,-0.55136 -0.48044,-1.19505 -0.48044,-1.91344h0.87379c0,0.59228 0.12597,1.07578 0.3584,1.4681zM236.19725,156.12771c0,-0.68403 0.12845,-1.30369 0.40005,-1.84689l0.78146,0.39087c-0.20024,0.40048 -0.30772,0.88179 -0.30772,1.45602zM236.60021,154.27514c0.28019,-0.54044 0.67602,-0.96888 1.18544,-1.27442l0.44956,0.74913c-0.36451,0.21874 -0.65024,0.52427 -0.85937,0.92752zM237.78885,152.99868c0.52413,-0.3083 1.13228,-0.45349 1.80742,-0.45349v0.87379c-0.54815,0 -0.99728,0.11694 -1.36442,0.33291zM239.59627,152.54519c0.41985,0 0.81306,0.07515 1.17247,0.23374l-0.35272,0.79951c-0.23476,-0.10354 -0.50563,-0.15947 -0.81976,-0.15947zM240.75462,152.7731c0.34471,0.13777 0.64558,0.31616 0.89257,0.54175l-0.58922,0.64514c-0.15495,-0.14141 -0.36073,-0.26883 -0.62781,-0.37573zM241.63234,153.30174c0.23811,0.19849 0.43485,0.42218 0.54233,0.67733l-0.80534,0.33903c-0.03233,-0.07689 -0.11505,-0.19398 -0.29636,-0.345zM241.33525,154.13723l0.02621,-1.00922l0.87349,0.02272l-0.02621,1.00922zM241.79821,152.70247h1.35v0.87379h-1.35zM243.5851,153.13936v6.01601h-0.87379v-6.01601zM243.14821,159.59227h-1.33689v-0.87379h1.33689zM241.37457,159.16615l-0.02621,-1.06165l0.87349,-0.02155l0.02621,1.06165zM242.18282,158.27445c-0.11985,0.26388 -0.3134,0.49966 -0.55558,0.7117l-0.57539,-0.65767c0.17709,-0.15495 0.28078,-0.2949 0.33553,-0.41548zM241.63409,158.97989c-0.24262,0.2215 -0.53082,0.39961 -0.85791,0.5384l-0.34136,-0.80446c0.24961,-0.10587 0.45073,-0.23359 0.61005,-0.37908zM240.76569,159.52251c-0.34544,0.13616 -0.71956,0.20082 -1.11699,0.20082v-0.87379c0.30175,0 0.56548,-0.04893 0.79675,-0.13995zM239.88462,157.66994c0.25354,0 0.47112,-0.05738 0.66277,-0.16602l0.43078,0.76019c-0.33262,0.18845 -0.70048,0.27961 -1.09354,0.27961zM240.54346,157.50625c0.2017,-0.11723 0.36073,-0.27845 0.48073,-0.4918l0.76165,0.42845c-0.19456,0.34587 -0.46369,0.62155 -0.80359,0.81888zM241.02943,157.00557c0.11913,-0.20068 0.18772,-0.45262 0.18772,-0.77301h0.87379c0,0.44854 -0.09743,0.86068 -0.31019,1.21922zM241.21715,156.23256v-0.09175h0.87379v0.09175zM241.21715,156.14081c0,-0.33073 -0.06932,-0.59345 -0.19078,-0.80432l0.75728,-0.43602c0.21058,0.36582 0.30728,0.78466 0.30728,1.24034zM241.01894,155.32295c-0.12204,-0.23039 -0.28063,-0.39495 -0.47548,-0.50825l0.43879,-0.75553c0.34675,0.20126 0.61631,0.49107 0.80898,0.85485zM240.52904,154.80596c-0.18917,-0.11971 -0.40019,-0.18116 -0.64442,-0.18116v-0.87379c0.40238,0 0.77679,0.10456 1.11189,0.31689zM239.88462,154.6248c-0.48466,0 -0.78524,0.15 -0.98112,0.39772l-0.68534,-0.54204c0.39845,-0.50374 0.98024,-0.72946 1.66645,-0.72946zM238.90744,155.01742c-0.22063,0.28748 -0.34223,0.65286 -0.34223,1.1234h-0.87379c0,-0.63044 0.16675,-1.19126 0.52281,-1.65524zM238.56521,156.14081c0,0.48102 0.12262,0.85019 0.34223,1.1365l-0.6932,0.53184c-0.35694,-0.46514 -0.52281,-1.03092 -0.52281,-1.66835zM238.90351,157.27222c0.19587,0.24772 0.49646,0.39772 0.98112,0.39772v0.87379c-0.68621,0 -1.26801,-0.22573 -1.66645,-0.72946zM245.44801,159.59227h-0.43689v-0.43689h0.43689zM245.44801,153.85587h0.43689v0.43689h-0.43689zM244.38636,154.72965h-0.43689v-0.43689h0.43689zM243.94947,153.13936v-0.43689h0.43689v0.43689zM245.88491,153.13936v0.43689h-0.43689v-0.43689zM245.01112,150.6884v-0.35112l0.34296,-0.07558l0.09393,0.4267zM246.78272,149.94713l0.53082,-0.1168v0.54349h-0.43689zM246.87665,153.57626h-0.43689v-0.43689h0.43689zM248.26597,152.70247h0.43689v0.43689h-0.43689zM248.70286,154.29276v0.43689h-0.43689v-0.43689zM246.43976,154.29276v-0.43689h0.43689v0.43689zM247.31354,159.15537v0.43689h-0.43689v-0.43689zM245.01112,159.15537v-4.86261h0.87379v4.86261zM245.44801,154.72965h-1.06165v-0.87379h1.06165zM243.94947,154.29276v-1.1534h0.87379v1.1534zM244.38636,152.70247h1.06165v0.87379h-1.06165zM245.01112,153.13936v-2.45097h0.87379v2.45097zM245.35408,150.2617l1.42864,-0.31456l0.18786,0.8534l-1.42864,0.31456zM247.31354,150.37383v2.76553h-0.87379v-2.76553zM246.87665,152.70247h1.38932v0.87379h-1.38932zM248.70286,153.13936v1.1534h-0.87379v-1.1534zM248.26597,154.72965h-1.38932v-0.87379h1.38932zM247.31354,154.29276v4.86261h-0.87379v-4.86261zM246.87665,159.59227h-1.42864v-0.87379h1.42864zM249.49568,159.59227h-0.43689v-0.43689h0.43689zM249.05878,153.13936v-0.43689h0.43689v0.43689zM250.96364,152.70247h0.43689v0.43689h-0.43689zM251.40053,159.15537v0.43689h-0.43689v-0.43689zM249.23922,152.04582l-0.00757,-0.00743l0.31646,-0.30146zM249.23922,150.11738l0.00757,-0.00757l0.30131,0.31646zM250.59679,150.74257l-0.00772,-0.00728l0.30903,-0.30903zM250.58179,151.43563l0.00728,-0.00772l0.30903,0.30903zM249.05878,159.15537v-6.01601h0.87379v6.01601zM249.49568,152.70247h1.46796v0.87379h-1.46796zM251.40053,153.13936v6.01601h-0.87379v-6.01601zM250.96364,159.59227h-1.46796v-0.87379h1.46796zM250.22966,152.44907c-0.38112,0 -0.72116,-0.13383 -0.99044,-0.40325l0.61777,-0.61777c0.09772,0.09757 0.21204,0.14723 0.37267,0.14723zM249.23179,152.03825c-0.25777,-0.27073 -0.38272,-0.6083 -0.38272,-0.98286h0.87379c0,0.16718 0.04995,0.28398 0.1417,0.38024zM248.84908,151.05539c0,-0.36189 0.13442,-0.68228 0.39015,-0.93801l0.61777,0.61777c-0.09364,0.09379 -0.13413,0.19282 -0.13413,0.32024zM249.24679,150.10995c0.27073,-0.25791 0.6083,-0.38272 0.98286,-0.38272v0.87379c-0.16718,0 -0.28398,0.04995 -0.38024,0.14155zM250.22966,149.72723c0.37456,0 0.71243,0.1251 0.97733,0.39015l-0.61777,0.61777c-0.08461,-0.08447 -0.19223,-0.13413 -0.35956,-0.13413zM251.19941,150.10995c0.26665,0.25383 0.41082,0.57655 0.41082,0.94544h-0.87379c0,-0.12044 -0.03917,-0.21714 -0.13966,-0.31282zM251.61024,151.05539c0,0.38112 -0.13383,0.72116 -0.40325,0.99044l-0.61777,-0.61777c0.09757,-0.09772 0.14723,-0.21204 0.14723,-0.37267zM251.21456,152.03825c-0.26345,0.27655 -0.60364,0.41082 -0.9849,0.41082v-0.87379c0.16049,0 0.26592,-0.04922 0.35214,-0.13966zM253.65213,159.24464l-0.00306,-0.00175l0.22282,-0.37587zM252.38732,157.93601v0l0.38359,-0.20927zM252.37291,154.34824l0.00131,-0.00262l0.38359,0.20927zM254.08654,153.78742l-0.0051,0.00306l-0.22267,-0.37587zM256.9913,153.79048l-0.0051,-0.00306l0.22791,-0.37281zM257.91707,154.76154l-0.0016,-0.00291l0.3865,-0.20374zM257.90236,157.523l0.00291,-0.00553l0.38359,0.20927zM257.42367,159.2429v0l-0.22267,-0.37587zM256.42814,157.29931l0.00379,-0.0051l0.34966,0.26214zM256.60902,155.33067l-0.00204,-0.00437l0.39743,-0.1816zM256.15086,154.76868l-0.00568,-0.00408l0.25631,-0.35388zM254.35683,154.06121v0l0.26214,0.34951zM253.64252,154.96834l0.00233,-0.00524l0.39743,0.1816zM253.67761,157.35858l-0.00218,-0.00451l0.39306,-0.19092zM254.42907,158.2344l-0.00583,-0.00379l0.24815,-0.35971zM255.53644,159.72333c-0.69597,0 -1.32859,-0.15539 -1.88432,-0.47869l0.43937,-0.75524c0.40544,0.23592 0.88267,0.36015 1.44495,0.36015zM253.64907,159.2429c-0.53927,-0.31966 -0.96189,-0.75728 -1.26175,-1.30689l0.76704,-0.41854c0.22442,0.41155 0.53578,0.73413 0.94019,0.97369zM252.38732,157.93601c-0.29956,-0.54932 -0.4465,-1.155 -0.4465,-1.8083h0.87379c0,0.51757 0.11505,0.97791 0.33976,1.38976zM251.94082,156.12771c0,-0.64311 0.14184,-1.23932 0.43209,-1.77946l0.7698,0.4133c-0.2167,0.40354 -0.32811,0.85587 -0.32811,1.36616zM252.37422,154.34562c0.29985,-0.54961 0.72247,-0.98723 1.26175,-1.30689l0.44548,0.75175c-0.40442,0.23956 -0.71578,0.56214 -0.94019,0.97369zM253.63087,153.04179c0.55136,-0.33684 1.19228,-0.4966 1.90558,-0.4966v0.87379c-0.58005,0 -1.05757,0.12859 -1.4499,0.36845zM255.53644,152.54519c0.71315,0 1.35408,0.15976 1.90543,0.4966l-0.45568,0.74563c-0.39233,-0.23985 -0.86985,-0.36845 -1.44976,-0.36845zM257.43678,153.03873c0.54058,0.32039 0.96014,0.75976 1.25155,1.31243l-0.77286,0.40748c-0.21539,-0.40849 -0.52107,-0.72932 -0.92417,-0.96815zM258.68688,154.34824c0.2901,0.54014 0.43209,1.13636 0.43209,1.77946h-0.87379c0,-0.51029 -0.11155,-0.96262 -0.32811,-1.36616zM259.11896,156.12771c0,0.6533 -0.14709,1.25898 -0.44665,1.8083l-0.76704,-0.41854c0.22471,-0.41184 0.3399,-0.87218 0.3399,-1.38976zM258.67523,157.93047c-0.29141,0.55267 -0.71097,0.99204 -1.25155,1.31243l-0.44548,-0.75175c0.40311,-0.23883 0.70879,-0.55966 0.92417,-0.96815zM257.42367,159.2429c-0.54961,0.32563 -1.18398,0.48044 -1.88723,0.48044v-0.87379c0.57233,0 1.04767,-0.12481 1.44175,-0.3584zM255.57577,157.69615c0.40107,0 0.66437,-0.1382 0.85238,-0.39684l0.70675,0.51408c-0.37121,0.51029 -0.91179,0.75655 -1.55912,0.75655zM256.43207,157.29421c0.22354,-0.29811 0.34515,-0.67005 0.34515,-1.14029h0.87379c0,0.63073 -0.16689,1.19374 -0.5199,1.66456zM256.77722,156.15392c0,-0.32068 -0.05942,-0.59214 -0.1682,-0.82325l0.79063,-0.37194c0.17082,0.36306 0.25136,0.76442 0.25136,1.19519zM256.60698,155.3263c-0.10908,-0.23869 -0.26097,-0.42116 -0.45612,-0.55762l0.50112,-0.71592c0.32913,0.23053 0.57932,0.53738 0.74971,0.91034zM256.14518,154.7646c-0.17024,-0.12335 -0.37937,-0.19223 -0.64806,-0.19223v-0.87379c0.43019,0 0.82398,0.11461 1.16053,0.35825zM255.49712,154.57237c-0.25762,0 -0.45568,0.06757 -0.61602,0.18786l-0.52427,-0.69903c0.32883,-0.2467 0.71636,-0.36262 1.14029,-0.36262zM254.88111,154.76023c-0.18073,0.13544 -0.32898,0.31995 -0.44155,0.56607l-0.79471,-0.3632c0.16704,-0.36553 0.40325,-0.67034 0.71199,-0.90189zM254.44188,155.32106c-0.10296,0.23345 -0.15932,0.5084 -0.15932,0.83286h-0.87379c0,-0.42699 0.07456,-0.82485 0.23374,-1.18558zM254.28256,156.15392c0,0.30626 0.06146,0.5767 0.17883,0.8183l-0.78597,0.38184c-0.17971,-0.37005 -0.26665,-0.77243 -0.26665,-1.20014zM254.45921,156.96771c0.11825,0.23665 0.27218,0.41388 0.46019,0.54349l-0.49616,0.71942c-0.31879,-0.2199 -0.5668,-0.51451 -0.74563,-0.87204zM254.91373,157.50741c0.18437,0.12291 0.40005,0.18874 0.66204,0.18874v0.87379c-0.41971,0 -0.80694,-0.10893 -1.1467,-0.33553zM260.06571,159.59227h-0.43689v-0.43689h0.43689zM259.62882,153.13936v-0.43689h0.43689v0.43689zM261.45503,152.70247h0.43165l0.00524,0.43165l-0.43689,0.00524zM261.86818,154.41596l-0.83694,-0.17039l0.43689,-0.00524zM262.47474,153.7098l-0.00204,0.00146l-0.24437,-0.36218zM264.69255,153.72771l-0.00553,-0.00437l0.28063,-0.33495zM265.18434,154.61431l-0.00175,-0.00714l0.42728,-0.0916zM266.21716,159.15537v0.43689h-0.43689v-0.43689zM264.36473,159.59227h-0.43689v-0.43689h0.43689zM263.74668,154.8546l-0.0032,-0.00859l0.41155,-0.14694zM262.21872,154.00674v0l0.21932,0.37777zM262.12813,155.29557v0l-0.37165,-0.22951zM261.91813,159.15537v0.43689h-0.43689v-0.43689zM259.62882,159.15537v-6.01601h0.87379v6.01601zM260.06571,152.70247h1.38932v0.87379h-1.38932zM261.89192,153.13412l0.01311,1.10097l-0.87379,0.01049l-0.01311,-1.10097zM261.06809,154.0647c0.19311,-0.43981 0.50345,-0.79937 0.91587,-1.07781l0.48874,0.72437c-0.2866,0.1934 -0.48306,0.42801 -0.60451,0.70471zM261.98192,152.98834c0.44126,-0.30131 0.95825,-0.44315 1.53087,-0.44315v0.87379c-0.42364,0 -0.76281,0.10282 -1.03806,0.29082zM263.51279,152.54519c0.69699,0 1.30107,0.14432 1.73548,0.50825l-0.56126,0.6699c-0.21218,-0.17782 -0.57801,-0.30437 -1.17422,-0.30437zM265.24274,153.04907c0.41563,0.33699 0.67296,0.80854 0.79427,1.3749l-0.85427,0.1832c-0.0884,-0.41228 -0.25922,-0.69218 -0.49019,-0.87946zM266.03541,154.41684c0.1232,0.53039 0.18175,1.14626 0.18175,1.84194h-0.87379c0,-0.64995 -0.05505,-1.19621 -0.15903,-1.64446zM266.21716,156.25878v2.8966h-0.87379v-2.8966zM265.78026,159.59227h-1.41553v-0.87379h1.41553zM263.92784,159.15537v-2.85728h0.87379v2.85728zM263.92784,156.2981c0,-0.68068 -0.06961,-1.15077 -0.18116,-1.44349l0.81655,-0.31107c0.1682,0.44126 0.2384,1.03718 0.2384,1.75456zM263.74362,154.84601c-0.03422,-0.09583 -0.08214,-0.1484 -0.14199,-0.18379c-0.06786,-0.04005 -0.18379,-0.07675 -0.37718,-0.07675v-0.87379c0.29592,0 0.57976,0.05505 0.82209,0.19849c0.25034,0.14811 0.42306,0.37078 0.5199,0.64194zM263.22444,154.58548c-0.16005,0 -0.34718,0.04922 -0.56709,0.1768l-0.43864,-0.75553c0.32184,-0.18699 0.65898,-0.29505 1.00573,-0.29505zM262.65736,154.76227c-0.2017,0.11723 -0.37908,0.29039 -0.52922,0.5333l-0.7433,-0.45903c0.21684,-0.35126 0.49383,-0.63247 0.83388,-0.8298zM262.12813,155.29557c-0.13136,0.21277 -0.21,0.49544 -0.21,0.87145h-0.87379c0,-0.49777 0.10485,-0.94908 0.34048,-1.33048zM261.91813,156.16703v2.98834h-0.87379v-2.98834zM261.48124,159.59227h-1.41553v-0.87379h1.41553z"/></g></g></g></svg>