<svg version="1.1" xmlns="http://www.w3.org/2000/svg" xmlns:xlink="http://www.w3.org/1999/xlink" width="79.76225" height="14.10923" viewBox="0,0,79.76225,14.10923"><g transform="translate(-208.59765,-173.69678)"><g data-paper-data="{&quot;isPaintingLayer&quot;:true}" fill="#87bf3d" fill-rule="nonzero" stroke="#87bf3d" stroke-width="0.5" stroke-linecap="butt" stroke-linejoin="miter" stroke-miterlimit="10" stroke-dasharray="" stroke-dashoffset="0" style="mix-blend-mode: normal"><path d="M208.84766,175.7042c0,-0.20003 0.0381,-0.38816 0.1143,-0.56438c0.0762,-0.18097 0.18098,-0.33577 0.31433,-0.46436c0.13335,-0.13335 0.28814,-0.23813 0.46435,-0.31433c0.18098,-0.08097 0.37149,-0.12145 0.57152,-0.12145h5.558c0.20003,0 0.38816,0.04048 0.56438,0.12145c0.18097,0.0762 0.33815,0.18098 0.4715,0.31433c0.13335,0.12859 0.23813,0.28338 0.31433,0.46436c0.07621,0.17622 0.11431,0.36435 0.11431,0.56438v1.32163h-1.46452v-1.32163h-5.558v7.31541h5.558v-2.4861h-2.779v-1.46452h4.24351v3.95062c0,0.20002 -0.0381,0.39054 -0.11431,0.57154c-0.0762,0.17616 -0.18098,0.33095 -0.31433,0.46428c-0.13336,0.13343 -0.29053,0.23819 -0.4715,0.31437c-0.17622,0.07618 -0.36435,0.11432 -0.56438,0.11432h-5.558c-0.20003,0 -0.39054,-0.03814 -0.57152,-0.11432c-0.17621,-0.07618 -0.331,-0.18093 -0.46435,-0.31437c-0.13335,-0.13334 -0.23813,-0.28813 -0.31433,-0.46428c-0.0762,-0.181 -0.1143,-0.37152 -0.1143,-0.57154zM220.33514,187.556l1.5931,-3.75768l-2.98615,-6.92252h1.47879l2.22174,5.23652l2.22184,-5.23652h1.47879l-4.60793,10.6802zM233.83725,178.28316v6.20095h-1.40739v-6.20095h-3.2219v6.20095h-1.40027v-7.60831h1.40027v1.34306c0.00946,-0.18574 0.05238,-0.35958 0.12856,-0.52151c0.07618,-0.16669 0.17625,-0.30957 0.30003,-0.42863c0.12865,-0.12383 0.27623,-0.21908 0.44292,-0.28576c0.16669,-0.07144 0.34529,-0.10716 0.53588,-0.10716h1.81451c0.18571,0 0.36197,0.03572 0.52866,0.10716c0.16669,0.06668 0.31437,0.16193 0.44292,0.28576c0.12856,0.11907 0.23097,0.26194 0.30715,0.42863c0.08096,0.16193 0.12387,0.33577 0.12865,0.52151c0.00946,-0.18574 0.04994,-0.35958 0.12144,-0.52151c0.07618,-0.16669 0.17616,-0.30957 0.30003,-0.42863c0.12856,-0.12383 0.27623,-0.21908 0.44292,-0.28576c0.16669,-0.07144 0.34529,-0.10716 0.53578,-0.10716h1.81461c0.19527,0 0.37865,0.0381 0.55002,0.1143c0.17147,0.07145 0.31915,0.17146 0.44292,0.30005c0.12865,0.12383 0.22863,0.27147 0.30013,0.44292c0.07618,0.17145 0.11422,0.35482 0.11422,0.55009v6.20095h-1.40729v-6.20095zM245.33902,174.23968h7.46543v1.46452h-6.00098v2.92901h5.12225v1.46452h-5.12225v2.92188h6.00098v1.46451h-7.46543zM254.85472,178.28316c0,-0.19527 0.0357,-0.37864 0.1072,-0.55009c0.07618,-0.17145 0.17625,-0.3191 0.30003,-0.44292c0.12856,-0.12859 0.27867,-0.2286 0.45004,-0.30005c0.17147,-0.0762 0.35251,-0.1143 0.543,-0.1143h3.92204c0.19527,0 0.37865,0.0381 0.55002,0.1143c0.17147,0.07145 0.31915,0.17146 0.44292,0.30005c0.12865,0.12383 0.22863,0.27147 0.30013,0.44292c0.07618,0.17145 0.11422,0.35482 0.11422,0.55009v9.27284h-1.40729v-4.41495c-0.00478,0.18574 -0.0477,0.35958 -0.12865,0.52149c-0.07618,0.16191 -0.17859,0.30481 -0.30715,0.42868c-0.12387,0.119 -0.26911,0.21429 -0.4358,0.28569c-0.16669,0.0715 -0.34285,0.1072 -0.52866,0.1072h-2.52177c-0.19049,0 -0.37153,-0.0357 -0.543,-0.1072c-0.17138,-0.07618 -0.32149,-0.17616 -0.45004,-0.30003c-0.12378,-0.12856 -0.22385,-0.27857 -0.30003,-0.45004c-0.0715,-0.17146 -0.1072,-0.35483 -0.1072,-0.55009zM260.17702,183.07676v-4.79359h-3.92204v4.79359zM263.92758,176.8758h1.40017v6.20095h3.92204v-6.20095h1.40739v7.60831h-1.40739v-1.28591c-0.01424,0.17621 -0.06194,0.34291 -0.14289,0.50004c-0.08096,0.15723 -0.18571,0.29535 -0.31427,0.41434c-0.12387,0.11432 -0.26677,0.20483 -0.42868,0.27155c-0.16191,0.06662 -0.33339,0.09998 -0.51432,0.09998h-2.52187c-0.19049,0 -0.37143,-0.0357 -0.5429,-0.1072c-0.17147,-0.07618 -0.32149,-0.17616 -0.45004,-0.30003c-0.12387,-0.12856 -0.22385,-0.27857 -0.30013,-0.45004c-0.0714,-0.17146 -0.1071,-0.35483 -0.1071,-0.55009zM274.47924,176.8758v7.60831h-1.40739v-7.60831zM273.00035,173.94678h1.55028v1.46451h-1.55028zM283.63062,183.07676c0,0.19526 -0.03814,0.37863 -0.11432,0.55009c-0.0715,0.17147 -0.17147,0.32149 -0.30003,0.45004c-0.12387,0.12387 -0.27145,0.22385 -0.44292,0.30003c-0.17147,0.0715 -0.35485,0.1072 -0.55012,0.1072h-3.92204v3.07189h-1.40017v-10.6802h1.40017v1.28591c0.01434,-0.18098 0.06194,-0.34768 0.14289,-0.50008c0.08096,-0.15716 0.18337,-0.2929 0.30715,-0.40721c0.12387,-0.11907 0.26677,-0.21193 0.42868,-0.27861c0.16669,-0.06668 0.34295,-0.10002 0.52866,-0.10002h2.51465c0.19527,0 0.37865,0.0381 0.55012,0.1143c0.17147,0.07145 0.31905,0.17146 0.44292,0.30005c0.12856,0.12383 0.22853,0.27147 0.30003,0.44292c0.07618,0.17145 0.11432,0.35482 0.11432,0.55009zM282.22324,183.07676v-4.79359h-3.92204v4.79359zM285.9738,182.34807h2.1361v2.13604h-2.1361z"/></g></g></svg>