<svg version="1.1" xmlns="http://www.w3.org/2000/svg" xmlns:xlink="http://www.w3.org/1999/xlink" width="3.09278" height="10.0996" viewBox="0,0,3.09278,10.0996"><g transform="translate(-238.45361,-171.2754)"><g data-paper-data="{&quot;isPaintingLayer&quot;:true}" fill="#ffffff" fill-rule="nonzero" stroke="#ffffff" stroke-width="0.5" stroke-linecap="butt" stroke-linejoin="miter" stroke-miterlimit="10" stroke-dasharray="" stroke-dashoffset="0" style="mix-blend-mode: normal"><path d="M241.29639,180.17774v0.94726h-0.14161c-0.37109,0 -0.708,-0.0586 -1.01074,-0.17577c-0.30273,-0.11393 -0.56152,-0.27832 -0.77637,-0.49317c-0.21158,-0.21158 -0.37597,-0.46875 -0.49316,-0.77148c-0.11393,-0.30273 -0.1709,-0.63965 -0.1709,-1.01074v-4.69727c0,-0.37109 0.05697,-0.70801 0.1709,-1.01074c0.11719,-0.30273 0.28158,-0.5599 0.49316,-0.77148c0.21485,-0.21485 0.47364,-0.37924 0.77637,-0.49317c0.30274,-0.11719 0.63965,-0.17578 1.01074,-0.17578h0.14161v0.95215h-0.14161c-0.22786,0 -0.43131,0.03255 -0.61035,0.09765c-0.17903,0.06511 -0.3304,0.16114 -0.4541,0.28809c-0.1237,0.1237 -0.21973,0.27507 -0.28808,0.4541c-0.06511,0.17904 -0.09766,0.38249 -0.09766,0.61035v4.79981c0,0.46224 0.12532,0.81868 0.37598,1.06933c0.2539,0.25391 0.61197,0.38086 1.07421,0.38086z"/></g></g></svg>