<svg version="1.1" xmlns="http://www.w3.org/2000/svg" xmlns:xlink="http://www.w3.org/1999/xlink" width="133.07522" height="76.00253" viewBox="0,0,133.07522,76.00253"><g transform="translate(-173.46239,-141.99874)"><g data-paper-data="{&quot;isPaintingLayer&quot;:true}" fill-rule="nonzero" stroke="none" stroke-width="1" stroke-linecap="butt" stroke-linejoin="miter" stroke-miterlimit="10" stroke-dasharray="" stroke-dashoffset="0" style="mix-blend-mode: normal"><path d="M180.81832,218.00127c-4.06256,0 -5.91895,-3.49746 -5.91895,-3.49746c0,0 -1.43698,-1.2482 -1.43698,-8.30468c0,-18.14422 0,-50.4006 0,-57.70782c0,-2.78626 1.72438,-4.74386 1.72438,-4.74386c0,0 1.56897,-1.74871 5.63155,-1.74871h118.36336c4.06256,0 5.05674,1.16582 5.05674,1.16582c0,0 2.29919,2.01158 2.29919,5.32677c0,8.20763 0,43.79019 0,60.62234c0,5.41355 -1.7244,6.55595 -1.7244,6.55595c0,0 -1.56897,2.33164 -5.63153,2.33164z" fill="#ff5911"/><path d="M206.30975,176.56082c0,3.3994 -1.43195,5.33719 -4.29096,5.81337l4.52635,9.85879h-3.80547l-4.46015,-9.73992h-7.52512v9.73992h-3.43523v-24.37519h13.15732c3.88884,0 5.83325,1.97733 5.83325,5.93222zM190.75435,179.00836h9.5382c0.91459,0 1.57417,-0.2039 1.9763,-0.61194c0.40213,-0.40779 0.60318,-1.07645 0.60318,-2.00567v-2.43062c0,-0.92923 -0.20106,-1.59788 -0.60318,-2.00591c-0.40213,-0.40779 -1.06171,-0.61194 -1.9763,-0.61194h-9.5382zM211.02976,167.85779h17.51448v3.48444h-14.07925v6.96938h12.01714v3.48443h-12.01714v6.95222h14.07925v3.4847h-17.51448zM236.09628,181.79606c-0.46833,0 -0.91705,-0.0905 -1.34124,-0.27178c-0.41193,-0.1927 -0.77728,-0.44212 -1.08867,-0.74795c-0.31385,-0.31728 -0.55905,-0.68555 -0.73804,-1.10503c-0.17899,-0.43042 -0.26727,-0.88374 -0.26727,-1.35967v-6.96938c0,-0.47593 0.08827,-0.92352 0.26727,-1.34276c0.17899,-0.43067 0.42419,-0.79892 0.73804,-1.10478c0.3114,-0.31753 0.67674,-0.5667 1.08867,-0.74795c0.42419,-0.1927 0.87291,-0.28895 1.34124,-0.28895h11.66651c0.46833,0 0.90968,0.09625 1.32407,0.28895c0.42419,0.18127 0.79444,0.43042 1.10584,0.74795c0.31385,0.30586 0.55905,0.67412 0.73804,1.10478c0.17899,0.41924 0.26727,0.86683 0.26727,1.34276v3.14478h-3.43522v-3.14478h-11.66651v6.96938h11.66651c0.46833,0 0.90968,0.0905 1.32407,0.27177c0.42419,0.18152 0.79444,0.43067 1.10584,0.74795c0.31385,0.31728 0.55905,0.69126 0.73804,1.12195c0.17899,0.41924 0.26727,0.86682 0.26727,1.34275v6.95222c0,0.47593 -0.08827,0.92923 -0.26727,1.35992c-0.17899,0.41924 -0.42419,0.7875 -0.73804,1.10478c-0.3114,0.31728 -0.68165,0.56671 -1.10584,0.74796c-0.41439,0.18127 -0.85574,0.27202 -1.32407,0.27202h-12.00243c-0.46833,0 -0.91459,-0.09077 -1.33878,-0.27202c-0.41439,-0.18127 -0.77728,-0.43067 -1.09113,-0.74796c-0.3114,-0.31728 -0.55905,-0.68554 -0.73804,-1.10478c-0.17899,-0.43067 -0.26727,-0.88398 -0.26727,-1.35992v-3.12762h3.43523v3.12762h12.00243v-6.95222zM256.37169,167.85779h17.51448v3.48444h-14.07926v6.96938h12.01715v3.48443h-12.01715v6.95222h14.07926v3.4847h-17.51448zM275.94092,167.85779h19.22596v3.48444h-7.89537v20.89073h-3.43522v-20.89073h-7.89537z" fill="#ffffff"/></g></g></svg>