<svg version="1.1" xmlns="http://www.w3.org/2000/svg" xmlns:xlink="http://www.w3.org/1999/xlink" width="132.6207" height="15.45215" viewBox="0,0,132.6207,15.45215"><g transform="translate(-177.5273,-171.54785)"><g data-paper-data="{&quot;isPaintingLayer&quot;:true}" fill-rule="nonzero" stroke-linecap="butt" stroke-linejoin="miter" stroke-miterlimit="10" stroke-dasharray="" stroke-dashoffset="0" style="mix-blend-mode: normal"><path d="M180.4883,181.3984l2.1601,5.6016h-0.8007l-0.4961,-1.2891h-2.5274l-0.4961,1.2891h-0.8008l2.1602,-5.6016zM179.1289,184.9102h1.9141l-0.9532,-2.4688zM184.2969,183.6094v2.6211h1.9843v-0.7032h0.7696v0.7032c0,0.1067 -0.0209,0.207 -0.0625,0.3007c-0.0391,0.0938 -0.0938,0.1758 -0.1641,0.2461c-0.0677,0.0678 -0.1484,0.1224 -0.2422,0.1641c-0.0937,0.0391 -0.194,0.0586 -0.3008,0.0586h-1.9843c-0.1042,0 -0.2031,-0.0195 -0.2969,-0.0586c-0.0938,-0.0417 -0.1758,-0.0963 -0.2461,-0.1641c-0.0677,-0.0703 -0.1224,-0.1523 -0.1641,-0.2461c-0.039,-0.0937 -0.0586,-0.194 -0.0586,-0.3007v-2.6211c0,-0.1068 0.0196,-0.2071 0.0586,-0.3008c0.0417,-0.0938 0.0964,-0.1745 0.1641,-0.2422c0.0703,-0.0703 0.1523,-0.125 0.2461,-0.1641c0.0938,-0.0416 0.1927,-0.0625 0.2969,-0.0625h1.9843c0.1068,0 0.2071,0.0209 0.3008,0.0625c0.0938,0.0391 0.1745,0.0938 0.2422,0.1641c0.0703,0.0677 0.125,0.1484 0.1641,0.2422c0.0416,0.0937 0.0625,0.194 0.0625,0.3008v0.7031h-0.7696v-0.7031zM189.1016,183.6094v2.6211h1.9843v-0.7032h0.7696v0.7032c0,0.1067 -0.0209,0.207 -0.0625,0.3007c-0.0391,0.0938 -0.0938,0.1758 -0.1641,0.2461c-0.0677,0.0678 -0.1484,0.1224 -0.2422,0.1641c-0.0937,0.0391 -0.194,0.0586 -0.3008,0.0586h-1.9843c-0.1042,0 -0.2032,-0.0195 -0.2969,-0.0586c-0.0938,-0.0417 -0.1758,-0.0963 -0.2461,-0.1641c-0.0677,-0.0703 -0.1224,-0.1523 -0.1641,-0.2461c-0.039,-0.0937 -0.0586,-0.194 -0.0586,-0.3007v-2.6211c0,-0.1068 0.0196,-0.2071 0.0586,-0.3008c0.0417,-0.0938 0.0964,-0.1745 0.1641,-0.2422c0.0703,-0.0703 0.1523,-0.125 0.2461,-0.1641c0.0937,-0.0416 0.1927,-0.0625 0.2969,-0.0625h1.9843c0.1068,0 0.2071,0.0209 0.3008,0.0625c0.0938,0.0391 0.1745,0.0938 0.2422,0.1641c0.0703,0.0677 0.125,0.1484 0.1641,0.2422c0.0416,0.0937 0.0625,0.194 0.0625,0.3008v0.7031h-0.7696v-0.7031zM196.6602,185.3125h-2.754v0.918h2.754v0.7695h-2.754c-0.1041,0 -0.2031,-0.0195 -0.2968,-0.0586c-0.0938,-0.0417 -0.1758,-0.0963 -0.2461,-0.1641c-0.0677,-0.0703 -0.1224,-0.1523 -0.1641,-0.2461c-0.039,-0.0937 -0.0586,-0.194 -0.0586,-0.3007v-2.6211c0,-0.1068 0.0196,-0.2071 0.0586,-0.3008c0.0417,-0.0938 0.0964,-0.1745 0.1641,-0.2422c0.0703,-0.0703 0.1523,-0.125 0.2461,-0.1641c0.0937,-0.0416 0.1927,-0.0625 0.2968,-0.0625h1.9844c0.1068,0 0.2071,0.0209 0.3008,0.0625c0.0938,0.0391 0.1745,0.0938 0.2422,0.1641c0.0703,0.0677 0.125,0.1484 0.1641,0.2422c0.0416,0.0937 0.0625,0.194 0.0625,0.3008zM193.9062,183.6094v0.9336h1.9844v-0.9336zM200.457,186.2305v-0.9649h-1.8242c-0.1068,0 -0.207,-0.0195 -0.3008,-0.0586c-0.0937,-0.0416 -0.1758,-0.0963 -0.2461,-0.164c-0.0677,-0.0703 -0.1224,-0.1524 -0.164,-0.2461c-0.0391,-0.0938 -0.0586,-0.194 -0.0586,-0.3008v-0.8867c0,-0.1068 0.0195,-0.2071 0.0586,-0.3008c0.0416,-0.0938 0.0963,-0.1745 0.164,-0.2422c0.0703,-0.0703 0.1524,-0.125 0.2461,-0.1641c0.0938,-0.0416 0.194,-0.0625 0.3008,-0.0625h2.4336v0.7696h-2.4336v0.8867h1.8242c0.1068,0 0.2058,0.0208 0.2969,0.0625c0.0938,0.0391 0.1758,0.0937 0.2461,0.1641c0.0703,0.0677 0.125,0.1484 0.1641,0.2421c0.0416,0.0938 0.0625,0.1941 0.0625,0.3008v0.9649c0,0.1067 -0.0209,0.207 -0.0625,0.3007c-0.0391,0.0938 -0.0938,0.1758 -0.1641,0.2461c-0.0703,0.0678 -0.1523,0.1224 -0.2461,0.1641c-0.0911,0.0391 -0.1901,0.0586 -0.2969,0.0586h-2.5937v-0.7695zM204.9414,186.2305v-0.9649h-1.8242c-0.1068,0 -0.207,-0.0195 -0.3008,-0.0586c-0.0937,-0.0416 -0.1758,-0.0963 -0.2461,-0.164c-0.0677,-0.0703 -0.1224,-0.1524 -0.1641,-0.2461c-0.039,-0.0938 -0.0585,-0.194 -0.0585,-0.3008v-0.8867c0,-0.1068 0.0195,-0.2071 0.0585,-0.3008c0.0417,-0.0938 0.0964,-0.1745 0.1641,-0.2422c0.0703,-0.0703 0.1524,-0.125 0.2461,-0.1641c0.0938,-0.0416 0.194,-0.0625 0.3008,-0.0625h2.4336v0.7696h-2.4336v0.8867h1.8242c0.1068,0 0.2057,0.0208 0.2969,0.0625c0.0937,0.0391 0.1758,0.0937 0.2461,0.1641c0.0703,0.0677 0.125,0.1484 0.164,0.2421c0.0417,0.0938 0.0625,0.1941 0.0625,0.3008v0.9649c0,0.1067 -0.0208,0.207 -0.0625,0.3007c-0.039,0.0938 -0.0937,0.1758 -0.164,0.2461c-0.0703,0.0678 -0.1524,0.1224 -0.2461,0.1641c-0.0912,0.0391 -0.1901,0.0586 -0.2969,0.0586h-2.5937v-0.7695zM209.0703,182.8398h1.0156v-1.2812h0.7696v1.2812h1.3672v0.7696h-1.3672v2.6211h1.3672v0.7695h-1.3672c-0.1042,0 -0.2032,-0.0195 -0.2969,-0.0586c-0.0938,-0.0417 -0.1758,-0.0963 -0.2461,-0.1641c-0.0703,-0.0703 -0.1263,-0.1523 -0.168,-0.2461c-0.039,-0.0937 -0.0586,-0.194 -0.0586,-0.3007v-2.6211h-1.0156zM217.1055,186.2305c0,0.1067 -0.0209,0.207 -0.0625,0.3007c-0.0391,0.0938 -0.0938,0.1758 -0.1641,0.2461c-0.0677,0.0678 -0.1484,0.1224 -0.2422,0.1641c-0.0911,0.0391 -0.1901,0.0586 -0.2969,0.0586h-2.0664c-0.1041,0 -0.2031,-0.0195 -0.2968,-0.0586c-0.0938,-0.0417 -0.1758,-0.0963 -0.2461,-0.1641c-0.0677,-0.0703 -0.1224,-0.1523 -0.1641,-0.2461c-0.0391,-0.0937 -0.0586,-0.194 -0.0586,-0.3007v-2.6211c0,-0.1068 0.0195,-0.2071 0.0586,-0.3008c0.0417,-0.0938 0.0964,-0.1745 0.1641,-0.2422c0.0703,-0.0703 0.1523,-0.125 0.2461,-0.1641c0.0937,-0.0416 0.1927,-0.0625 0.2968,-0.0625h2.0664c0.1068,0 0.2058,0.0209 0.2969,0.0625c0.0938,0.0391 0.1745,0.0938 0.2422,0.1641c0.0703,0.0677 0.125,0.1484 0.1641,0.2422c0.0416,0.0937 0.0625,0.194 0.0625,0.3008zM214.2734,183.6094v2.6211h2.0664v-2.6211zM220.3086,185.0703l2.7617,-3.6719h0.9414v3.6719h0.7539v0.7695h-0.7539v1.1602h-0.8008v-1.1602h-2.9023zM223.2109,185.0703v-2.7031l-2.0312,2.7031zM230.1289,186.1992c0,0.1094 -0.0208,0.2136 -0.0625,0.3125c-0.0417,0.0964 -0.099,0.181 -0.1719,0.2539c-0.0729,0.0729 -0.1588,0.1302 -0.2578,0.1719c-0.0963,0.0417 -0.1992,0.0625 -0.3086,0.0625h-2.8008c-0.1093,0 -0.2135,-0.0208 -0.3125,-0.0625c-0.0963,-0.0417 -0.1809,-0.099 -0.2539,-0.1719c-0.0729,-0.0729 -0.1302,-0.1575 -0.1718,-0.2539c-0.0417,-0.0989 -0.0625,-0.2031 -0.0625,-0.3125v-4c0,-0.1094 0.0208,-0.2122 0.0625,-0.3086c0.0416,-0.0989 0.0989,-0.1836 0.1718,-0.2539c0.073,-0.0729 0.1576,-0.1302 0.2539,-0.1719c0.099,-0.0442 0.2032,-0.0664 0.3125,-0.0664h2.8008c0.1094,0 0.2123,0.0222 0.3086,0.0664c0.099,0.0417 0.1849,0.099 0.2578,0.1719c0.0729,0.0703 0.1302,0.155 0.1719,0.2539c0.0417,0.0964 0.0625,0.1992 0.0625,0.3086zM226.5273,182.1992v4h2.8008v-4zM237.4102,185.3125h-2.754v0.918h2.754v0.7695h-2.754c-0.1041,0 -0.2031,-0.0195 -0.2968,-0.0586c-0.0938,-0.0417 -0.1758,-0.0963 -0.2461,-0.1641c-0.0677,-0.0703 -0.1224,-0.1523 -0.1641,-0.2461c-0.039,-0.0937 -0.0586,-0.194 -0.0586,-0.3007v-2.6211c0,-0.1068 0.0196,-0.2071 0.0586,-0.3008c0.0417,-0.0938 0.0964,-0.1745 0.1641,-0.2422c0.0703,-0.0703 0.1523,-0.125 0.2461,-0.1641c0.0937,-0.0416 0.1927,-0.0625 0.2968,-0.0625h1.9844c0.1068,0 0.2071,0.0209 0.3008,0.0625c0.0938,0.0391 0.1745,0.0938 0.2422,0.1641c0.0703,0.0677 0.125,0.1484 0.1641,0.2422c0.0416,0.0937 0.0625,0.194 0.0625,0.3008zM234.6562,183.6094v0.9336h1.9844v-0.9336zM241.207,186.2305v-0.9649h-1.8242c-0.1068,0 -0.207,-0.0195 -0.3008,-0.0586c-0.0937,-0.0416 -0.1758,-0.0963 -0.2461,-0.164c-0.0677,-0.0703 -0.1224,-0.1524 -0.164,-0.2461c-0.0391,-0.0938 -0.0586,-0.194 -0.0586,-0.3008v-0.8867c0,-0.1068 0.0195,-0.2071 0.0586,-0.3008c0.0416,-0.0938 0.0963,-0.1745 0.164,-0.2422c0.0703,-0.0703 0.1524,-0.125 0.2461,-0.1641c0.0938,-0.0416 0.194,-0.0625 0.3008,-0.0625h2.4336v0.7696h-2.4336v0.8867h1.8242c0.1068,0 0.2058,0.0208 0.2969,0.0625c0.0938,0.0391 0.1758,0.0937 0.2461,0.1641c0.0703,0.0677 0.125,0.1484 0.1641,0.2421c0.0416,0.0938 0.0625,0.1941 0.0625,0.3008v0.9649c0,0.1067 -0.0209,0.207 -0.0625,0.3007c-0.0391,0.0938 -0.0938,0.1758 -0.1641,0.2461c-0.0703,0.0678 -0.1523,0.1224 -0.2461,0.1641c-0.0911,0.0391 -0.1901,0.0586 -0.2969,0.0586h-2.5937v-0.7695zM245.6914,186.2305v-0.9649h-1.8242c-0.1068,0 -0.207,-0.0195 -0.3008,-0.0586c-0.0937,-0.0416 -0.1758,-0.0963 -0.2461,-0.164c-0.0677,-0.0703 -0.1224,-0.1524 -0.1641,-0.2461c-0.039,-0.0938 -0.0585,-0.194 -0.0585,-0.3008v-0.8867c0,-0.1068 0.0195,-0.2071 0.0585,-0.3008c0.0417,-0.0938 0.0964,-0.1745 0.1641,-0.2422c0.0703,-0.0703 0.1524,-0.125 0.2461,-0.1641c0.0938,-0.0416 0.194,-0.0625 0.3008,-0.0625h2.4336v0.7696h-2.4336v0.8867h1.8242c0.1068,0 0.2057,0.0208 0.2969,0.0625c0.0937,0.0391 0.1758,0.0937 0.2461,0.1641c0.0703,0.0677 0.125,0.1484 0.164,0.2421c0.0417,0.0938 0.0625,0.1941 0.0625,0.3008v0.9649c0,0.1067 -0.0208,0.207 -0.0625,0.3007c-0.039,0.0938 -0.0937,0.1758 -0.164,0.2461c-0.0703,0.0678 -0.1524,0.1224 -0.2461,0.1641c-0.0912,0.0391 -0.1901,0.0586 -0.2969,0.0586h-2.5937v-0.7695zM251.1836,185.3125h-2.7539v0.918h2.7539v0.7695h-2.7539c-0.1042,0 -0.2031,-0.0195 -0.2969,-0.0586c-0.0937,-0.0417 -0.1758,-0.0963 -0.2461,-0.1641c-0.0677,-0.0703 -0.1224,-0.1523 -0.164,-0.2461c-0.0391,-0.0937 -0.0586,-0.194 -0.0586,-0.3007v-2.6211c0,-0.1068 0.0195,-0.2071 0.0586,-0.3008c0.0416,-0.0938 0.0963,-0.1745 0.164,-0.2422c0.0703,-0.0703 0.1524,-0.125 0.2461,-0.1641c0.0938,-0.0416 0.1927,-0.0625 0.2969,-0.0625h1.9844c0.1067,0 0.207,0.0209 0.3007,0.0625c0.0938,0.0391 0.1745,0.0938 0.2422,0.1641c0.0703,0.0677 0.125,0.1484 0.1641,0.2422c0.0417,0.0937 0.0625,0.194 0.0625,0.3008zM248.4297,183.6094v0.9336h1.9844v-0.9336zM256.1484,187h-0.7695v-3.3906h-2.1445v3.3906h-0.7656v-4.1602h0.7656v0.7344c0.0052,-0.1015 0.0286,-0.1966 0.0703,-0.2851c0.0417,-0.0912 0.0963,-0.1693 0.1641,-0.2344c0.0703,-0.0677 0.151,-0.1198 0.2421,-0.1563c0.0912,-0.039 0.1888,-0.0586 0.293,-0.0586h1.375c0.1068,0 0.207,0.0209 0.3008,0.0625c0.0937,0.0391 0.1745,0.0938 0.2422,0.1641c0.0703,0.0677 0.125,0.1484 0.164,0.2422c0.0417,0.0937 0.0625,0.194 0.0625,0.3008zM257.1875,182.8398h1.0156v-1.2812h0.7696v1.2812h1.3671v0.7696h-1.3671v2.6211h1.3671v0.7695h-1.3671c-0.1042,0 -0.2032,-0.0195 -0.2969,-0.0586c-0.0938,-0.0417 -0.1758,-0.0963 -0.2461,-0.1641c-0.0703,-0.0703 -0.1263,-0.1523 -0.168,-0.2461c-0.039,-0.0937 -0.0586,-0.194 -0.0586,-0.3007v-2.6211h-1.0156zM262.434,182.8398v4.1602h-0.77v-4.1602zM261.625,181.2383h0.848v0.8008h-0.848zM263.758,185.1836c0,-0.1068 0.019,-0.2057 0.058,-0.2969c0.042,-0.0937 0.097,-0.1758 0.164,-0.2461c0.071,-0.0703 0.153,-0.125 0.247,-0.164c0.093,-0.0417 0.192,-0.0625 0.296,-0.0625h1.985v-0.8047h-2.512v-0.7696h2.512c0.107,0 0.207,0.0209 0.301,0.0625c0.093,0.0391 0.174,0.0938 0.242,0.1641c0.07,0.0677 0.125,0.1484 0.164,0.2422c0.042,0.0937 0.062,0.194 0.062,0.3008v3.3906h-0.769v-0.7031c-0.008,0.0963 -0.034,0.1875 -0.078,0.2734c-0.045,0.0859 -0.102,0.1615 -0.172,0.2266c-0.068,0.0625 -0.146,0.112 -0.235,0.1484c-0.088,0.0365 -0.182,0.0547 -0.281,0.0547h-1.219c-0.104,0 -0.203,-0.0195 -0.296,-0.0586c-0.094,-0.0417 -0.176,-0.0963 -0.247,-0.1641c-0.067,-0.0703 -0.122,-0.1523 -0.164,-0.2461c-0.039,-0.0937 -0.058,-0.194 -0.058,-0.3007zM264.523,186.2305h1.985v-1.0469h-1.985zM269.328,181.2383v5.7617h-0.766v-5.7617zM273.871,187l-1.344,-4.1602h0.778l0.984,3.1368l0.918,-3.1368h0.785l0.918,3.1368l0.985,-3.1368h0.777l-1.344,4.1602h-0.801l-0.929,-3.0547l-0.926,3.0547zM283.074,186.2305c0,0.1067 -0.021,0.207 -0.062,0.3007c-0.039,0.0938 -0.094,0.1758 -0.164,0.2461c-0.068,0.0678 -0.149,0.1224 -0.243,0.1641c-0.091,0.0391 -0.19,0.0586 -0.296,0.0586h-2.067c-0.104,0 -0.203,-0.0195 -0.297,-0.0586c-0.093,-0.0417 -0.175,-0.0963 -0.246,-0.1641c-0.067,-0.0703 -0.122,-0.1523 -0.164,-0.2461c-0.039,-0.0937 -0.058,-0.194 -0.058,-0.3007v-2.6211c0,-0.1068 0.019,-0.2071 0.058,-0.3008c0.042,-0.0938 0.097,-0.1745 0.164,-0.2422c0.071,-0.0703 0.153,-0.125 0.246,-0.1641c0.094,-0.0416 0.193,-0.0625 0.297,-0.0625h2.067c0.106,0 0.205,0.0209 0.296,0.0625c0.094,0.0391 0.175,0.0938 0.243,0.1641c0.07,0.0677 0.125,0.1484 0.164,0.2422c0.041,0.0937 0.062,0.194 0.062,0.3008zM280.242,183.6094v2.6211h2.067v-2.6211zM285.125,183.6094v3.3906h-0.766v-4.1602h0.766v0.7344c0.005,-0.1015 0.029,-0.1966 0.07,-0.2851c0.042,-0.0912 0.097,-0.1693 0.164,-0.2344c0.071,-0.0677 0.151,-0.1198 0.243,-0.1563c0.091,-0.039 0.188,-0.0586 0.293,-0.0586h0.816c0.107,0 0.206,0.0209 0.297,0.0625c0.094,0.0391 0.176,0.0938 0.246,0.1641c0.07,0.0677 0.125,0.1484 0.164,0.2422c0.042,0.0937 0.062,0.194 0.062,0.3008v0.7031h-0.769v-0.7031zM291.188,187l-1.985,-1.7773v1.7773h-0.765v-5.7617h0.765v3.2422l1.824,-1.6407h1.082l-2.234,2.0079l2.395,2.1523zM296.426,186.2305c0,0.1067 -0.021,0.207 -0.063,0.3007c-0.039,0.0938 -0.093,0.1758 -0.164,0.2461c-0.067,0.0678 -0.148,0.1224 -0.242,0.1641c-0.091,0.0391 -0.19,0.0586 -0.297,0.0586h-2.066c-0.104,0 -0.203,-0.0195 -0.297,-0.0586c-0.094,-0.0417 -0.176,-0.0963 -0.246,-0.1641c-0.068,-0.0703 -0.123,-0.1523 -0.164,-0.2461c-0.039,-0.0937 -0.059,-0.194 -0.059,-0.3007v-2.6211c0,-0.1068 0.02,-0.2071 0.059,-0.3008c0.041,-0.0938 0.096,-0.1745 0.164,-0.2422c0.07,-0.0703 0.152,-0.125 0.246,-0.1641c0.094,-0.0416 0.193,-0.0625 0.297,-0.0625h2.066c0.107,0 0.206,0.0209 0.297,0.0625c0.094,0.0391 0.175,0.0938 0.242,0.1641c0.071,0.0677 0.125,0.1484 0.164,0.2422c0.042,0.0937 0.063,0.194 0.063,0.3008zM293.594,183.6094v2.6211h2.066v-2.6211zM297.711,182.8398h0.766v3.3907h2.144v-3.3907h0.77v4.1602h-0.77v-0.7031c-0.008,0.0963 -0.034,0.1875 -0.078,0.2734c-0.044,0.0859 -0.102,0.1615 -0.172,0.2266c-0.068,0.0625 -0.146,0.112 -0.234,0.1484c-0.089,0.0365 -0.183,0.0547 -0.282,0.0547h-1.378c-0.105,0 -0.204,-0.0195 -0.297,-0.0586c-0.094,-0.0417 -0.176,-0.0963 -0.246,-0.1641c-0.068,-0.0703 -0.123,-0.1523 -0.164,-0.2461c-0.04,-0.0937 -0.059,-0.194 -0.059,-0.3007zM302.43,182.8398h1.015v-1.2812h0.77v1.2812h1.367v0.7696h-1.367v2.6211h1.367v0.7695h-1.367c-0.104,0 -0.203,-0.0195 -0.297,-0.0586c-0.094,-0.0417 -0.176,-0.0963 -0.246,-0.1641c-0.07,-0.0703 -0.126,-0.1523 -0.168,-0.2461c-0.039,-0.0937 -0.059,-0.194 -0.059,-0.3007v-2.6211h-1.015zM309.379,186.2305v-0.9649h-1.824c-0.107,0 -0.207,-0.0195 -0.301,-0.0586c-0.094,-0.0416 -0.176,-0.0963 -0.246,-0.164c-0.068,-0.0703 -0.123,-0.1524 -0.164,-0.2461c-0.039,-0.0938 -0.059,-0.194 -0.059,-0.3008v-0.8867c0,-0.1068 0.02,-0.2071 0.059,-0.3008c0.041,-0.0938 0.096,-0.1745 0.164,-0.2422c0.07,-0.0703 0.152,-0.125 0.246,-0.1641c0.094,-0.0416 0.194,-0.0625 0.301,-0.0625h2.433v0.7696h-2.433v0.8867h1.824c0.107,0 0.206,0.0208 0.297,0.0625c0.094,0.0391 0.176,0.0937 0.246,0.1641c0.07,0.0677 0.125,0.1484 0.164,0.2421c0.042,0.0938 0.062,0.1941 0.062,0.3008v0.9649c0,0.1067 -0.02,0.207 -0.062,0.3007c-0.039,0.0938 -0.094,0.1758 -0.164,0.2461c-0.07,0.0678 -0.152,0.1224 -0.246,0.1641c-0.091,0.0391 -0.19,0.0586 -0.297,0.0586h-2.594v-0.7695z" fill="#86ca47" stroke="none" stroke-width="1"/><path d="M183.7539,175.34766c0.1465,0.04557 0.28,0.11067 0.4004,0.19531c0.1204,0.08463 0.223,0.19368 0.3076,0.32715c0.0846,0.13018 0.1498,0.28478 0.1953,0.46388c0.0456,0.179 0.0684,0.3841 0.0684,0.6152v0.3516c0,1.1328 -0.5664,1.6992 -1.6992,1.6992h-3.833v-7.00195h3.6328c1.1328,0 1.6992,0.56803 1.6992,1.7041v0.12695c0,0.39388 -0.0635,0.71615 -0.1904,0.9668c-0.1237,0.24739 -0.3174,0.43131 -0.5811,0.55176zM180.1748,175.94824v2.07036h2.8223c0.2636,0 0.4541,-0.0619 0.5713,-0.1856c0.1171,-0.1237 0.1757,-0.3174 0.1757,-0.581v-0.542c0,-0.267 -0.0586,-0.4607 -0.1757,-0.5811c-0.1172,-0.1204 -0.3077,-0.18066 -0.5713,-0.18066zM180.1748,172.97949v1.99219h2.6904c0.2409,-0.00977 0.4134,-0.07487 0.5176,-0.19531c0.1074,-0.1237 0.1611,-0.3125 0.1611,-0.56641v-0.45898c0,-0.26693 -0.0585,-0.46224 -0.1757,-0.58594c-0.1172,-0.1237 -0.3077,-0.18555 -0.5713,-0.18555zM190.5264,176.8906h-3.4424v1.1475h3.4424v0.9619h-3.4424c-0.1302,0 -0.2539,-0.0244 -0.3711,-0.0732c-0.1172,-0.0521 -0.2197,-0.1205 -0.3076,-0.2051c-0.0847,-0.0879 -0.153,-0.1905 -0.2051,-0.3076c-0.0488,-0.1172 -0.0732,-0.2426 -0.0732,-0.376v-3.27638c0,-0.13346 0.0244,-0.25879 0.0732,-0.37598c0.0521,-0.11719 0.1204,-0.2181 0.2051,-0.30273c0.0879,-0.08789 0.1904,-0.15625 0.3076,-0.20508c0.1172,-0.05208 0.2409,-0.07813 0.3711,-0.07813h2.4805c0.1334,0 0.2587,0.02605 0.3759,0.07813c0.1172,0.04883 0.2181,0.11719 0.3028,0.20508c0.0879,0.08463 0.1562,0.18554 0.205,0.30273c0.0521,0.11719 0.0782,0.24252 0.0782,0.37598zM187.084,174.76172v1.16699h2.4805v-1.16699zM192.1328,174.76172c0,-0.13346 0.0244,-0.25879 0.0733,-0.37598c0.052,-0.11719 0.1204,-0.2181 0.205,-0.30273c0.0879,-0.08789 0.1905,-0.15625 0.3077,-0.20508c0.1171,-0.05208 0.2408,-0.07813 0.371,-0.07813h1.7237c0.1269,0 0.2474,0.02442 0.3613,0.07325c0.1139,0.04557 0.2132,0.11067 0.2979,0.19531c0.0878,0.08138 0.1578,0.17904 0.2099,0.29297c0.0554,0.11068 0.0847,0.22949 0.0879,0.35644v-0.91797h0.9619v6.3379c0,0.1335 -0.026,0.2588 -0.0781,0.376c-0.0488,0.1172 -0.1172,0.2181 -0.2051,0.3027c-0.0846,0.0879 -0.1855,0.1563 -0.3027,0.2051c-0.1172,0.0521 -0.2425,0.0781 -0.376,0.0781h-3.0371v-0.9619h3.0371v-1.3379h-2.6807c-0.1302,0 -0.2539,-0.0244 -0.371,-0.0732c-0.1172,-0.0521 -0.2198,-0.1205 -0.3077,-0.2051c-0.0846,-0.0879 -0.153,-0.1904 -0.205,-0.3076c-0.0489,-0.1172 -0.0733,-0.2425 -0.0733,-0.376zM195.7705,177.8379v-3.07618h-2.6807v3.07618zM199.3447,173.7998v5.2002h-0.9619v-5.2002zM198.334,171.79785h1.0596v1.00098h-1.0596zM205.5996,179h-0.9619v-4.23828h-2.6807v4.23828h-0.957v-5.2002h0.957v0.91797c0.0065,-0.12695 0.0358,-0.24576 0.0879,-0.35644c0.0521,-0.11393 0.1205,-0.21159 0.2051,-0.29297c0.0879,-0.08464 0.1888,-0.14974 0.3027,-0.19531c0.114,-0.04883 0.236,-0.07325 0.3662,-0.07325h1.7188c0.1335,0 0.2588,0.02605 0.376,0.07813c0.1172,0.04883 0.2181,0.11719 0.3027,0.20508c0.0879,0.08463 0.1563,0.18554 0.2051,0.30273c0.0521,0.11719 0.0781,0.24252 0.0781,0.37598zM211.8008,179h-0.9619v-4.23828h-2.6807v4.23828h-0.957v-5.2002h0.957v0.91797c0.0065,-0.12695 0.0358,-0.24576 0.0879,-0.35644c0.0521,-0.11393 0.1204,-0.21159 0.2051,-0.29297c0.0879,-0.08464 0.1888,-0.14974 0.3027,-0.19531c0.1139,-0.04883 0.236,-0.07325 0.3662,-0.07325h1.7188c0.1334,0 0.2588,0.02605 0.3759,0.07813c0.1172,0.04883 0.2181,0.11719 0.3028,0.20508c0.0879,0.08463 0.1562,0.18554 0.2051,0.30273c0.052,0.11719 0.0781,0.24252 0.0781,0.37598zM217.8018,176.8906h-3.4424v1.1475h3.4424v0.9619h-3.4424c-0.1302,0 -0.2539,-0.0244 -0.3711,-0.0732c-0.1172,-0.0521 -0.2197,-0.1205 -0.3076,-0.2051c-0.0847,-0.0879 -0.153,-0.1905 -0.2051,-0.3076c-0.0488,-0.1172 -0.0733,-0.2426 -0.0733,-0.376v-3.27638c0,-0.13346 0.0245,-0.25879 0.0733,-0.37598c0.0521,-0.11719 0.1204,-0.2181 0.2051,-0.30273c0.0879,-0.08789 0.1904,-0.15625 0.3076,-0.20508c0.1172,-0.05208 0.2409,-0.07813 0.3711,-0.07813h2.4804c0.1335,0 0.2588,0.02605 0.376,0.07813c0.1172,0.04883 0.2181,0.11719 0.3028,0.20508c0.0878,0.08463 0.1562,0.18554 0.205,0.30273c0.0521,0.11719 0.0782,0.24252 0.0782,0.37598zM214.3594,174.76172v1.16699h2.4804v-1.16699zM220.3652,174.76172v4.23828h-0.957v-5.2002h0.957v0.91797c0.0065,-0.12695 0.0358,-0.24576 0.0879,-0.35644c0.0521,-0.11393 0.1205,-0.21159 0.2051,-0.29297c0.0879,-0.08464 0.1888,-0.14974 0.3027,-0.19531c0.114,-0.04883 0.236,-0.07325 0.3662,-0.07325h1.0206c0.1334,0 0.2571,0.02605 0.3711,0.07813c0.1171,0.04883 0.2197,0.11719 0.3076,0.20508c0.0879,0.08463 0.1562,0.18554 0.205,0.30273c0.0521,0.11719 0.0782,0.24252 0.0782,0.37598v0.8789h-0.9619v-0.8789z" fill="#87bf3d" stroke="#87bf3d" stroke-width="0.5"/></g></g></svg>