<svg version="1.1" xmlns="http://www.w3.org/2000/svg" xmlns:xlink="http://www.w3.org/1999/xlink" width="48.25" height="15.25" viewBox="0,0,48.25,15.25"><g transform="translate(-215.69509,-172.69362)"><g data-paper-data="{&quot;isPaintingLayer&quot;:true}" fill-rule="nonzero" stroke-linecap="butt" stroke-linejoin="miter" stroke-miterlimit="10" stroke-dasharray="" stroke-dashoffset="0" style="mix-blend-mode: normal"><path d="M215.69509,187.94362v-15.25h48.25v15.25z" fill="#ff5c5c" stroke="#898989" stroke-width="0"/><path d="M219.16797,177.19874c0,-0.17773 0.03385,-0.34489 0.10156,-0.50146c0.06771,-0.16081 0.16081,-0.29834 0.2793,-0.4126c0.11849,-0.11849 0.25602,-0.21159 0.4126,-0.2793c0.1608,-0.07194 0.33007,-0.10791 0.50781,-0.10791h4.93847c0.17774,0 0.34489,0.03597 0.50147,0.10791c0.16081,0.06771 0.30046,0.16081 0.41894,0.2793c0.11849,0.11426 0.21159,0.25179 0.2793,0.4126c0.06771,0.15657 0.10156,0.32373 0.10156,0.50146v1.17432h-1.30127v-1.17432h-4.93847v6.5h4.93847v-1.16797h1.30127v1.16797c0,0.17773 -0.03385,0.34701 -0.10156,0.50781c-0.06771,0.15658 -0.16081,0.29411 -0.2793,0.4126c-0.11848,0.11849 -0.25813,0.21159 -0.41894,0.2793c-0.15658,0.06771 -0.32373,0.10156 -0.50147,0.10156h-4.93847c-0.17774,0 -0.34701,-0.03385 -0.50781,-0.10156c-0.15658,-0.06771 -0.29411,-0.16081 -0.4126,-0.2793c-0.11849,-0.11849 -0.21159,-0.25602 -0.2793,-0.4126c-0.06771,-0.1608 -0.10156,-0.33008 -0.10156,-0.50781zM228.66406,182.04836c0,-0.1735 0.03174,-0.33431 0.09522,-0.48242c0.06771,-0.15235 0.15657,-0.28565 0.26662,-0.3999c0.1142,-0.11426 0.2475,-0.20313 0.3999,-0.26661c0.1523,-0.0677 0.3131,-0.10156 0.4824,-0.10156h3.2246v-1.30762h-4.0815v-1.25048h4.0815c0.1735,0 0.3364,0.03385 0.4888,0.10156c0.1523,0.06348 0.2835,0.15234 0.3935,0.2666c0.1143,0.11003 0.2032,0.24121 0.2666,0.39355c0.0677,0.15235 0.1016,0.31527 0.1016,0.48877v5.50977h-1.2505v-1.14258c-0.0127,0.15658 -0.055,0.30469 -0.1269,0.44434c-0.072,0.13965 -0.1651,0.26237 -0.2793,0.36816c-0.1101,0.10156 -0.237,0.18197 -0.3809,0.24121c-0.1439,0.05925 -0.2962,0.08887 -0.457,0.08887h-1.9805c-0.1693,0 -0.3301,-0.03174 -0.4824,-0.09521c-0.1524,-0.06771 -0.2857,-0.15658 -0.3999,-0.26661c-0.11005,-0.11425 -0.19891,-0.24756 -0.26662,-0.3999c-0.06348,-0.15234 -0.09522,-0.31527 -0.09522,-0.48877zM229.9082,183.74951h3.2246v-1.70117h-3.2246zM237.7158,179.49025v5.50977h-1.2441v-6.76025h1.2441v1.19336c0.0085,-0.16504 0.0466,-0.3195 0.1143,-0.46338c0.0677,-0.14812 0.1566,-0.27507 0.2666,-0.38086c0.1142,-0.11003 0.2454,-0.19466 0.3935,-0.25391c0.1481,-0.06348 0.3068,-0.09521 0.4761,-0.09521h1.3267c0.1735,0 0.3343,0.03385 0.4824,0.10156c0.1523,0.06348 0.2856,0.15234 0.3999,0.2666c0.1143,0.11003 0.2031,0.24121 0.2666,0.39355c0.0677,0.15235 0.1016,0.31527 0.1016,0.48877v1.14258h-1.2505v-1.14258zM243.0986,179.49025c0,-0.1735 0.0318,-0.33642 0.0952,-0.48877c0.0678,-0.15234 0.1566,-0.28352 0.2666,-0.39355c0.1143,-0.11426 0.2476,-0.20312 0.4,-0.2666c0.1523,-0.06771 0.3131,-0.10156 0.4824,-0.10156h3.4848v-2.60254h1.2505v9.36279h-1.2505v-1.14258c-0.0127,0.15658 -0.055,0.30469 -0.1269,0.44434c-0.072,0.13965 -0.1651,0.26237 -0.2793,0.36816c-0.11,0.10156 -0.237,0.18197 -0.3809,0.24121c-0.1439,0.05925 -0.2962,0.08887 -0.457,0.08887h-2.2407c-0.1693,0 -0.3301,-0.03174 -0.4824,-0.09521c-0.1524,-0.06771 -0.2857,-0.15658 -0.4,-0.26661c-0.11,-0.11425 -0.1988,-0.24756 -0.2666,-0.3999c-0.0634,-0.15234 -0.0952,-0.31527 -0.0952,-0.48877zM244.3428,183.74951h3.4848v-4.25928h-3.4848zM252.4741,178.23975v6.76025h-1.2505v-6.76025zM251.1602,175.63723h1.3774v1.30127h-1.3774zM260.4722,183.74951c0,0.1735 -0.0339,0.33643 -0.1016,0.48877c-0.0635,0.15234 -0.1523,0.28565 -0.2666,0.3999c-0.11,0.11003 -0.2412,0.1989 -0.3936,0.26661c-0.1481,0.06347 -0.3089,0.09521 -0.4824,0.09521h-3.3579c-0.1693,0 -0.3301,-0.03174 -0.4824,-0.09521c-0.1523,-0.06771 -0.2856,-0.15658 -0.3999,-0.26661c-0.11,-0.11425 -0.1989,-0.24756 -0.2666,-0.3999c-0.0635,-0.15234 -0.0952,-0.31527 -0.0952,-0.48877v-4.25928c0,-0.1735 0.0317,-0.33642 0.0952,-0.48877c0.0677,-0.15234 0.1566,-0.28352 0.2666,-0.39355c0.1143,-0.11426 0.2476,-0.20312 0.3999,-0.2666c0.1523,-0.06771 0.3131,-0.10156 0.4824,-0.10156h3.3579c0.1735,0 0.3343,0.03385 0.4824,0.10156c0.1524,0.06348 0.2836,0.15234 0.3936,0.2666c0.1143,0.11003 0.2031,0.24121 0.2666,0.39355c0.0677,0.15235 0.1016,0.31527 0.1016,0.48877zM255.8701,179.49025v4.25928h3.3579v-4.25928z" fill="#ffffff" stroke="none" stroke-width="1"/></g></g></svg>