<svg version="1.1" xmlns="http://www.w3.org/2000/svg" xmlns:xlink="http://www.w3.org/1999/xlink" width="45.11914" height="11.30322" viewBox="0,0,45.11914,11.30322"><g transform="translate(-210.53067,-174.44678)"><g data-paper-data="{&quot;isPaintingLayer&quot;:true}" fill="#87bf3d" fill-rule="nonzero" stroke="#87bf3d" stroke-width="0.5" stroke-linecap="butt" stroke-linejoin="miter" stroke-miterlimit="10" stroke-dasharray="" stroke-dashoffset="0" style="mix-blend-mode: normal"><path d="M217.62149,180.02148c0.21972,0.06836 0.41992,0.16602 0.60058,0.29297c0.18067,0.12696 0.33448,0.29053 0.46143,0.49073c0.12695,0.19531 0.22461,0.42724 0.29297,0.6958c0.06836,0.26855 0.10254,0.57617 0.10254,0.92285v0.52734c0,1.69923 -0.84961,2.54883 -2.54883,2.54883h-5.74951v-10.50293h5.44922c1.69921,0 2.54882,0.85205 2.54882,2.55615v0.19043c0,0.59082 -0.09521,1.07422 -0.28564,1.4502c-0.18555,0.37109 -0.47608,0.64697 -0.87158,0.82763zM212.25283,180.92236v3.10547h4.2334c0.39551,0 0.68116,-0.09277 0.85694,-0.27832c0.17578,-0.18555 0.26367,-0.47607 0.26367,-0.87158v-0.81299c0,-0.40039 -0.08789,-0.69092 -0.26367,-0.87158c-0.17578,-0.18066 -0.46143,-0.271 -0.85694,-0.271zM212.25283,176.46924v2.98828h4.03565c0.36133,-0.01465 0.62012,-0.11231 0.77637,-0.29297c0.16113,-0.18555 0.2417,-0.46875 0.2417,-0.84961v-0.68848c0,-0.40039 -0.0879,-0.69335 -0.26368,-0.8789c-0.17578,-0.18555 -0.46142,-0.27832 -0.85693,-0.27832zM227.78021,182.33594h-5.1636v1.72119h5.1636v1.44287h-5.1636c-0.1953,0 -0.3809,-0.0366 -0.5566,-0.1099c-0.1758,-0.0781 -0.3296,-0.1806 -0.4615,-0.3076c-0.1269,-0.1318 -0.2295,-0.2856 -0.3076,-0.4614c-0.0732,-0.17579 -0.1099,-0.36378 -0.1099,-0.56397v-4.91455c0,-0.2002 0.0367,-0.38819 0.1099,-0.56397c0.0781,-0.17578 0.1807,-0.32715 0.3076,-0.4541c0.1319,-0.13183 0.2857,-0.23437 0.4615,-0.30762c0.1757,-0.07812 0.3613,-0.11718 0.5566,-0.11718h3.7207c0.2002,0 0.3882,0.03906 0.564,0.11718c0.1757,0.07325 0.3271,0.17579 0.4541,0.30762c0.1318,0.12695 0.2343,0.27832 0.3076,0.4541c0.0781,0.17578 0.1172,0.36377 0.1172,0.56397zM222.61661,179.14258v1.75049h3.7207v-1.75049zM237.08921,185.5h-1.4428v-6.35742h-4.021v6.35742h-1.4356v-7.80029h1.4356v1.37695c0.0097,-0.19043 0.0537,-0.36865 0.1318,-0.53467c0.0781,-0.1709 0.1807,-0.31738 0.3076,-0.43945c0.1319,-0.12695 0.2832,-0.22461 0.4541,-0.29297c0.1709,-0.07324 0.354,-0.10986 0.5494,-0.10986h2.5781c0.2002,0 0.3882,0.03906 0.5639,0.11718c0.1758,0.07325 0.3272,0.17579 0.4541,0.30762c0.1319,0.12695 0.2344,0.27832 0.3077,0.4541c0.0781,0.17578 0.1171,0.36377 0.1171,0.56397zM240.92711,179.14258v4.91455h3.7207v-1.31836h1.4429v1.31836c0,0.20019 -0.039,0.38818 -0.1172,0.56397c-0.0732,0.1758 -0.1758,0.3296 -0.3076,0.4614c-0.1269,0.127 -0.2783,0.2295 -0.4541,0.3076c-0.1758,0.0733 -0.3638,0.1099 -0.564,0.1099h-3.7207c-0.1953,0 -0.3808,-0.0366 -0.5566,-0.1099c-0.1758,-0.0781 -0.3296,-0.1806 -0.4614,-0.3076c-0.127,-0.1318 -0.2295,-0.2856 -0.3076,-0.4614c-0.0733,-0.17579 -0.1099,-0.36378 -0.1099,-0.56397v-4.91455c0,-0.2002 0.0366,-0.38819 0.1099,-0.56397c0.0781,-0.17578 0.1806,-0.32715 0.3076,-0.4541c0.1318,-0.13183 0.2856,-0.23437 0.4614,-0.30762c0.1758,-0.07812 0.3613,-0.11718 0.5566,-0.11718h3.7207c0.2002,0 0.3882,0.03906 0.564,0.11718c0.1758,0.07325 0.3272,0.17579 0.4541,0.30762c0.1318,0.12695 0.2344,0.27832 0.3076,0.4541c0.0782,0.17578 0.1172,0.36377 0.1172,0.56397v1.31836h-1.4429v-1.31836zM255.39981,185.5h-1.4429v-6.35742h-4.021v6.35742h-1.4355v-10.80322h1.4355v4.37988c0.0098,-0.19043 0.0537,-0.36865 0.1319,-0.53467c0.0781,-0.1709 0.1806,-0.31738 0.3076,-0.43945c0.1318,-0.12695 0.2832,-0.22461 0.4541,-0.29297c0.1709,-0.07324 0.354,-0.10986 0.5493,-0.10986h2.5781c0.2002,0 0.3882,0.03906 0.564,0.11718c0.1758,0.07325 0.3271,0.17579 0.4541,0.30762c0.1318,0.12695 0.2344,0.27832 0.3076,0.4541c0.0781,0.17578 0.1172,0.36377 0.1172,0.56397z"/></g></g></svg>