<svg version="1.1" xmlns="http://www.w3.org/2000/svg" xmlns:xlink="http://www.w3.org/1999/xlink" width="86.95833" height="33.99023" viewBox="0,0,86.95833,33.99023"><g transform="translate(-196.52084,-163.00489)"><g data-paper-data="{&quot;isPaintingLayer&quot;:true}" fill-rule="nonzero" stroke="none" stroke-width="1" stroke-linecap="butt" stroke-linejoin="miter" stroke-miterlimit="10" stroke-dasharray="" stroke-dashoffset="0" style="mix-blend-mode: normal"><path d="M283.47918,166.79579v26.4084c0,2.09362 -1.60825,3.79093 -3.59209,3.79093h-79.77414c-1.98387,0 -3.5921,-1.69731 -3.5921,-3.79093v-26.4084c0,-2.09366 1.60823,-3.7909 3.5921,-3.7909h79.77414c1.98383,0 3.59209,1.69724 3.59209,3.7909z" fill="#89ee57"/><path d="M221.22851,173.75047c-0.22032,0 -0.43012,-0.04197 -0.62945,-0.12589c-0.19408,-0.08917 -0.36455,-0.20457 -0.51142,-0.3462c-0.14687,-0.14687 -0.26227,-0.31734 -0.3462,-0.51142c-0.08392,-0.19933 -0.12589,-0.40914 -0.12589,-0.62945v-3.22588c0,-0.2203 0.04197,-0.4275 0.12589,-0.62158c0.08392,-0.19933 0.19933,-0.36979 0.3462,-0.51142c0.14687,-0.14687 0.31734,-0.26227 0.51142,-0.3462c0.19933,-0.08917 0.40913,-0.13376 0.62945,-0.13376h5.47614c0.2203,0 0.4275,0.04459 0.62156,0.13376c0.19933,0.08392 0.37242,0.19933 0.5193,0.3462c0.14687,0.14162 0.26226,0.31209 0.34618,0.51142c0.08392,0.19408 0.12589,0.40128 0.12589,0.62158v1.45558h-1.61294v-1.45558h-5.47614v3.22588h5.47614c0.2203,0 0.4275,0.04197 0.62156,0.12589c0.19933,0.08392 0.37242,0.19933 0.5193,0.3462c0.14687,0.14687 0.26226,0.31996 0.34618,0.51929c0.08392,0.19408 0.12589,0.40128 0.12589,0.62158v3.21798c0,0.22032 -0.04197,0.43009 -0.12589,0.62946c-0.08392,0.1941 -0.19931,0.36461 -0.34618,0.51139c-0.14688,0.14693 -0.31997,0.26236 -0.5193,0.3463c-0.19407,0.08394 -0.40126,0.12583 -0.62156,0.12583h-5.63351c-0.2203,0 -0.43012,-0.0419 -0.62943,-0.12583c-0.19408,-0.08394 -0.36455,-0.19937 -0.51143,-0.3463c-0.14687,-0.14678 -0.26226,-0.31729 -0.34618,-0.51139c-0.08392,-0.19937 -0.12589,-0.40914 -0.12589,-0.62946v-1.44774h1.61294v1.44774h5.63351v-3.21798zM230.58361,170.202h2.04571v-2.58071h1.54999v2.58071h2.75369v1.54999h-2.75369v5.27945h2.75369v1.54999h-2.75369c-0.20992,0 -0.40914,-0.03941 -0.59797,-0.11807c-0.18882,-0.08394 -0.35406,-0.1941 -0.49572,-0.33048c-0.14165,-0.14151 -0.25445,-0.30675 -0.33839,-0.49557c-0.07866,-0.18882 -0.11792,-0.39083 -0.11792,-0.60588v-5.27945h-2.04571zM239.52159,174.92275c0,-0.21504 0.03941,-0.41427 0.11807,-0.59797c0.08394,-0.18878 0.1941,-0.354 0.33048,-0.49563c0.14165,-0.14162 0.30689,-0.25178 0.49572,-0.33046c0.18882,-0.08392 0.38805,-0.12588 0.59797,-0.12588h3.99693v-1.62082h-5.05912v-1.54999h5.05912c0.21504,0 0.41705,0.04195 0.60588,0.12588c0.18882,0.07868 0.35143,0.18884 0.48781,0.33046c0.14151,0.13638 0.25167,0.29898 0.33048,0.48782c0.08379,0.18882 0.12583,0.39077 0.12583,0.60583v6.82944h-1.54999v-1.41625c-0.01582,0.1941 -0.06826,0.37765 -0.15733,0.5508c-0.08921,0.173 -0.20464,0.3252 -0.3463,0.45631c-0.13638,0.12583 -0.29371,0.22559 -0.47199,0.29898c-0.17842,0.07339 -0.36725,0.11016 -0.56647,0.11016h-2.45485c-0.20992,0 -0.40914,-0.03941 -0.59797,-0.11807c-0.18882,-0.08394 -0.35406,-0.1941 -0.49572,-0.33048c-0.13638,-0.14151 -0.24654,-0.30675 -0.33048,-0.49557c-0.07866,-0.18882 -0.11807,-0.39083 -0.11807,-0.60588zM241.06382,177.03146h3.99693v-2.1087h-3.99693zM250.74142,171.75199v6.82944h-1.54208c0,0 0,-2.89685 0,-4.31343c0,-1.37535 0,-4.066 0,-4.066h1.54208v1.47918c0.01055,-0.20457 0.05772,-0.39602 0.14165,-0.57437c0.08394,-0.18358 0.1941,-0.34095 0.33048,-0.47207c0.14165,-0.13638 0.30426,-0.2413 0.48781,-0.31473c0.18355,-0.07868 0.38028,-0.11801 0.59005,-0.11801h1.64448c0.21504,0 0.41442,0.04195 0.59797,0.12588c0.18882,0.07868 0.35406,0.18884 0.49572,0.33046c0.14151,0.13638 0.25167,0.29898 0.33048,0.48782c0.08379,0.18882 0.12583,0.39077 0.12583,0.60583v1.41625h-1.54999v-1.41625zM256.92572,170.202h2.04571v-2.58071h1.54999v2.58071h2.75383v1.54999h-2.75383v5.27945h2.75383v1.54999h-2.75383c-0.20977,0 -0.40914,-0.03941 -0.59797,-0.11807c-0.18882,-0.08394 -0.35406,-0.1941 -0.49572,-0.33048c-0.14165,-0.14151 -0.25445,-0.30675 -0.33839,-0.49557c-0.07866,-0.18882 -0.11792,-0.39083 -0.11792,-0.60588v-5.27945h-2.04571zM208.65535,192.86404l-3.22582,-11.28275h1.61298l2.50202,8.97746l2.49411,-8.97746h1.61298l2.49411,8.97746l2.50202,-8.97746h1.61298l-3.22582,11.28275h-1.77031l-2.41559,-8.45813l-2.42336,8.45813zM228.79748,191.31407c0,0.21504 -0.0419,0.41705 -0.12583,0.60588c-0.07866,0.18882 -0.18882,0.35406 -0.33048,0.49557c-0.13638,0.13638 -0.29898,0.24654 -0.48781,0.33048c-0.18355,0.07866 -0.38292,0.11807 -0.59797,0.11807h-4.16217c-0.20977,0 -0.40914,-0.03941 -0.59797,-0.11807c-0.18882,-0.08394 -0.35406,-0.1941 -0.49572,-0.33048c-0.13638,-0.14151 -0.24654,-0.30675 -0.33048,-0.49557c-0.07866,-0.18882 -0.11792,-0.39083 -0.11792,-0.60588v-5.27945c0,-0.21506 0.03926,-0.41701 0.11792,-0.60583c0.08394,-0.18884 0.1941,-0.35144 0.33048,-0.48782c0.14165,-0.14162 0.30689,-0.25178 0.49572,-0.33046c0.18882,-0.08392 0.38819,-0.12588 0.59797,-0.12588h4.16217c0.21504,0 0.41442,0.04195 0.59797,0.12588c0.18882,0.07868 0.35143,0.18884 0.48781,0.33046c0.14165,0.13638 0.25181,0.29898 0.33048,0.48782c0.08394,0.18882 0.12583,0.39077 0.12583,0.60583zM223.09323,186.0346v5.27945h4.16217v-5.27945zM232.9283,186.0346v6.82944h-1.54223v-8.37944h1.54223v1.47918c0.0104,-0.20457 0.05757,-0.39602 0.14151,-0.57437c0.08394,-0.18358 0.1941,-0.34095 0.33048,-0.47207c0.14165,-0.13638 0.30426,-0.2413 0.48781,-0.31473c0.1837,-0.07868 0.38028,-0.11801 0.5902,-0.11801h1.64433c0.21504,0 0.41442,0.04195 0.59797,0.12588c0.18882,0.07868 0.35406,0.18884 0.49572,0.33046c0.14165,0.13638 0.25181,0.29898 0.33048,0.48782c0.08394,0.18882 0.12583,0.39077 0.12583,0.60583v1.41625h-1.54999v-1.41625zM245.13942,192.86404l-3.99693,-3.57988v3.57988h-1.54223v-11.60533h1.54223v6.53045l3.67437,-3.30456h2.17945l-4.50056,4.04412l4.82313,4.33532zM255.69038,191.31407c0,0.21504 -0.0419,0.41705 -0.12583,0.60588c-0.07866,0.18882 -0.18882,0.35406 -0.33048,0.49557c-0.13638,0.13638 -0.29898,0.24654 -0.48781,0.33048c-0.18355,0.07866 -0.38292,0.11807 -0.59797,0.11807h-4.16217c-0.20977,0 -0.40914,-0.03941 -0.59797,-0.11807c-0.18882,-0.08394 -0.35406,-0.1941 -0.49572,-0.33048c-0.13638,-0.14151 -0.24654,-0.30675 -0.33048,-0.49557c-0.07866,-0.18882 -0.11792,-0.39083 -0.11792,-0.60588v-5.27945c0,-0.21506 0.03926,-0.41701 0.11792,-0.60583c0.08394,-0.18884 0.1941,-0.35144 0.33048,-0.48782c0.14165,-0.14162 0.30689,-0.25178 0.49572,-0.33046c0.18882,-0.08392 0.38819,-0.12588 0.59797,-0.12588h4.16217c0.21504,0 0.41442,0.04195 0.59797,0.12588c0.18882,0.07868 0.35143,0.18884 0.48781,0.33046c0.14165,0.13638 0.25181,0.29898 0.33048,0.48782c0.08394,0.18882 0.12583,0.39077 0.12583,0.60583zM249.98613,186.0346v5.27945h4.16217v-5.27945zM258.27898,184.48461h1.54223v6.82944h4.3195v-6.82944h1.54999v8.37944h-1.54999v-1.41625c-0.01582,0.1941 -0.06826,0.37765 -0.15733,0.5508c-0.08921,0.173 -0.20464,0.3252 -0.3463,0.45631c-0.13638,0.12583 -0.29371,0.22559 -0.47199,0.29898c-0.17842,0.07339 -0.36725,0.11016 -0.56647,0.11016h-2.77742c-0.20992,0 -0.40914,-0.03941 -0.59797,-0.11807c-0.18882,-0.08394 -0.35406,-0.1941 -0.49572,-0.33048c-0.13638,-0.14151 -0.24654,-0.30675 -0.33048,-0.49557c-0.07866,-0.18882 -0.11807,-0.39083 -0.11807,-0.60588zM267.78358,184.48461h2.04571v-2.58071h1.54999v2.58071h2.75383v1.54999h-2.75383v5.27945h2.75383v1.54999h-2.75383c-0.20977,0 -0.40914,-0.03941 -0.59797,-0.11807c-0.18882,-0.08394 -0.35406,-0.1941 -0.49572,-0.33048c-0.14165,-0.14151 -0.25445,-0.30675 -0.33824,-0.49557c-0.07881,-0.18882 -0.11807,-0.39083 -0.11807,-0.60588v-5.27945h-2.04571z" fill="#000000"/></g></g></svg>