<svg version="1.1" xmlns="http://www.w3.org/2000/svg" xmlns:xlink="http://www.w3.org/1999/xlink" width="68.52851" height="11.25815" viewBox="0,0,68.52851,11.25815"><g transform="translate(-205.48812,-174.34762)"><g data-paper-data="{&quot;isPaintingLayer&quot;:true}" stroke-linecap="butt" stroke-linejoin="miter" stroke-miterlimit="10" stroke-dasharray="" stroke-dashoffset="0" style="mix-blend-mode: normal"><path d="M205.50613,185.58742v-11.06801h68.5105v11.06801z" fill="#2f2f2f" fill-rule="nonzero" stroke="#eaeaea" stroke-width="0"/><path d="M223.41798,179.85602h5.10952c0.16103,0 0.28958,0.13002 0.28958,0.28984c0,0.16117 -0.12855,0.28984 -0.28958,0.28984h-5.10952z" fill="#ffffff" fill-rule="evenodd" stroke="#ffffff" stroke-width="0.5"/><path d="M226.01063,182.24783c-0.0866,0.13408 -0.26522,0.17472 -0.39919,0.08804l-0.03111,-0.02032l-0.08661,-0.05553c-0.07442,-0.0474 -0.17996,-0.11648 -0.30851,-0.1991c-0.2544,-0.16658 -0.59404,-0.39006 -0.93369,-0.62031c-0.33964,-0.23024 -0.68199,-0.46996 -0.9418,-0.66499c-0.12855,-0.09751 -0.24357,-0.18824 -0.32611,-0.26409c-0.04195,-0.03792 -0.08255,-0.07721 -0.11503,-0.11784c-0.01624,-0.01896 -0.03653,-0.04605 -0.05277,-0.07721c-0.01488,-0.02573 -0.04466,-0.0853 -0.04331,-0.16386c0,-0.0772 0.02842,-0.13545 0.04196,-0.15983c0.01624,-0.02979 0.03518,-0.05553 0.05141,-0.07584c0.03112,-0.04063 0.07172,-0.08125 0.11231,-0.12053c0.08254,-0.0799 0.19621,-0.17472 0.32476,-0.27901c0.25981,-0.20857 0.60217,-0.46589 0.94181,-0.71374c0.33964,-0.24785 0.67928,-0.48894 0.93367,-0.66772c0.1272,-0.09074 0.23275,-0.16386 0.30718,-0.21668l0.08659,-0.0596l0.02978,-0.02166l0.16509,0.23836l0.16507,0.23836l-0.02976,0.02032l-0.08525,0.0596c-0.07443,0.05146 -0.17997,0.12596 -0.30582,0.21399c-0.25304,0.17878 -0.58997,0.41849 -0.92555,0.66363c-0.33694,0.2465 -0.67117,0.49571 -0.9188,0.69616c-0.08525,0.06907 -0.15833,0.13002 -0.21651,0.18149c0.05683,0.04605 0.12584,0.10157 0.20703,0.16251c0.24763,0.18691 0.58186,0.41985 0.9188,0.64739c0.33558,0.22889 0.67252,0.451 0.92556,0.61487c0.12719,0.08262 0.23139,0.1517 0.30582,0.1991l0.08524,0.05419l0.02978,0.01895c0.13396,0.08668 0.17456,0.26546 0.08795,0.4009zM226.00521,177.91114c0.09067,0.13273 0.05819,0.31285 -0.07307,0.40359l-0.16507,-0.23836l-0.16509,-0.23836c0.13261,-0.09074 0.31257,-0.05824 0.40323,0.07313z" fill="#ffffff" fill-rule="evenodd" stroke="#ffffff" stroke-width="0.5"/><path d="M230.68762,182.93352v-6.11745h2.1387c0.42614,0 0.77762,0.07374 1.05441,0.22113c0.2768,0.14533 0.4829,0.3415 0.61831,0.58843c0.13542,0.24487 0.20312,0.51674 0.20312,0.81544c0,0.26281 -0.0468,0.47992 -0.14039,0.65114c-0.09161,0.17131 -0.21308,0.30664 -0.36442,0.40627c-0.14935,0.09954 -0.31164,0.17318 -0.48688,0.22103v0.05972c0.18718,0.01196 0.37537,0.07766 0.56455,0.19711c0.18917,0.11954 0.34749,0.29076 0.47493,0.51384c0.12745,0.223 0.19117,0.49581 0.19117,0.81843c0,0.30664 -0.06969,0.58245 -0.20909,0.8274c-0.1394,0.24487 -0.35944,0.43908 -0.66013,0.58245c-0.3007,0.14337 -0.69199,0.21505 -1.1739,0.21505zM231.4284,182.27641h1.46961c0.4839,0 0.8274,-0.09365 1.03052,-0.28085c0.20511,-0.18916 0.30766,-0.41814 0.30766,-0.68693c0,-0.20711 -0.05277,-0.39833 -0.15831,-0.57357c-0.10554,-0.1772 -0.25589,-0.31861 -0.45104,-0.42412c-0.19515,-0.10757 -0.42615,-0.16131 -0.69299,-0.16131h-1.50545zM231.4284,179.50447h1.37403c0.22303,0 0.42415,-0.04383 0.60337,-0.1315c0.18122,-0.08757 0.3246,-0.21103 0.43013,-0.37038c0.10754,-0.15926 0.1613,-0.34646 0.1613,-0.56151c0,-0.26888 -0.0936,-0.49684 -0.28078,-0.68404c-0.18718,-0.18916 -0.48389,-0.28375 -0.89013,-0.28375h-1.39792zM237.41288,183.0411c-0.29074,0 -0.55459,-0.05477 -0.79156,-0.1643c-0.23697,-0.1115 -0.42515,-0.27188 -0.56455,-0.48095c-0.13939,-0.21103 -0.20909,-0.46599 -0.20909,-0.76469c0,-0.26281 0.05178,-0.4759 0.15533,-0.63918c0.10354,-0.16533 0.24194,-0.29477 0.41519,-0.38833c0.17325,-0.09355 0.36442,-0.16327 0.57351,-0.20907c0.21108,-0.04785 0.42316,-0.08561 0.63623,-0.11356c0.27879,-0.0358 0.50481,-0.06271 0.67806,-0.08066c0.17524,-0.01991 0.30268,-0.05271 0.38234,-0.09851c0.08165,-0.0458 0.12247,-0.12552 0.12247,-0.23898v-0.02393c0,-0.29468 -0.08066,-0.52366 -0.24195,-0.68703c-0.1593,-0.16327 -0.40125,-0.24487 -0.72584,-0.24487c-0.33654,0 -0.60039,0.07365 -0.79156,0.22103c-0.19117,0.14729 -0.32559,0.30468 -0.40324,0.47188l-0.66909,-0.23888c0.11948,-0.27879 0.27878,-0.4959 0.47792,-0.65123c0.20113,-0.15729 0.42018,-0.26683 0.65715,-0.32851c0.23896,-0.06374 0.47394,-0.09561 0.70494,-0.09561c0.14736,0 0.31663,0.01795 0.50779,0.05374c0.19316,0.03383 0.37936,0.10458 0.55857,0.21206c0.18121,0.10757 0.33156,0.26982 0.45104,0.48693c0.11944,0.21701 0.17926,0.50777 0.17926,0.87217v3.02288h-0.70497v-0.62132h-0.03584c-0.0478,0.09963 -0.12745,0.20617 -0.23897,0.31964c-0.11151,0.11356 -0.25987,0.2101 -0.44506,0.28973c-0.1852,0.07963 -0.41122,0.11954 -0.67806,0.11954zM237.52042,182.40781c0.27878,0 0.51376,-0.05477 0.70494,-0.1643c0.19315,-0.10954 0.33852,-0.25085 0.43611,-0.42412c0.09956,-0.17327 0.14935,-0.35543 0.14935,-0.54665v-0.64516c-0.02987,0.0358 -0.09559,0.06869 -0.19714,0.09851c-0.09956,0.02795 -0.21506,0.0528 -0.34649,0.07468c-0.12943,0.01991 -0.25589,0.03785 -0.37935,0.05383c-0.12148,0.01393 -0.22004,0.02589 -0.29572,0.0358c-0.1832,0.02393 -0.35446,0.06271 -0.51377,0.11654c-0.15731,0.05178 -0.28475,0.13038 -0.38234,0.23599c-0.09558,0.10346 -0.14338,0.24487 -0.14338,0.42412c0,0.24496 0.09061,0.4301 0.27182,0.55553c0.18321,0.12346 0.4152,0.18524 0.69598,0.18524zM242.66632,183.02914c-0.4302,0 -0.80058,-0.10159 -1.11124,-0.30468c-0.31057,-0.20318 -0.54955,-0.48291 -0.71684,-0.83937c-0.16729,-0.35646 -0.25094,-0.76367 -0.25094,-1.22171c0,-0.46599 0.0857,-0.87713 0.25692,-1.23358c0.17327,-0.35851 0.41422,-0.63824 0.72282,-0.83937c0.31066,-0.20309 0.6731,-0.30468 1.08732,-0.30468c0.32263,0 0.61329,0.05972 0.87217,0.17926c0.25888,0.11944 0.47095,0.28674 0.63628,0.50179c0.16524,0.21505 0.26776,0.46599 0.30767,0.75273h-0.70497c-0.05374,-0.20907 -0.17327,-0.39431 -0.35842,-0.55562c-0.18318,-0.16327 -0.4301,-0.24496 -0.74077,-0.24496c-0.27487,0 -0.51581,0.07168 -0.72291,0.21515c-0.20505,0.14131 -0.36543,0.3415 -0.48085,0.60039c-0.11356,0.25683 -0.17029,0.55852 -0.17029,0.90507c0,0.3544 0.0558,0.6631 0.16729,0.92591c0.11346,0.2629 0.27281,0.46702 0.47786,0.61235c0.20711,0.14533 0.4501,0.21804 0.7289,0.21804c0.18318,0 0.34945,-0.03187 0.4988,-0.09561c0.14935,-0.06365 0.2758,-0.15533 0.37936,-0.27477c0.10355,-0.11944 0.1772,-0.26281 0.22103,-0.4301h0.70497c-0.03991,0.27085 -0.13842,0.51478 -0.29571,0.73179c-0.15533,0.21505 -0.36151,0.38637 -0.61833,0.51375c-0.25487,0.12552 -0.5516,0.18823 -0.89012,0.18823zM246.15809,181.26077l-0.01196,-0.87217h0.14337l2.00734,-2.04314h0.87217l-2.13865,2.16258h-0.05981zM245.50098,182.93352v-6.11745h0.70497v6.11745zM248.41628,182.93352l-1.79219,-2.27015l0.50179,-0.48983l2.18651,2.75998z" fill="#ffffff" fill-rule="nonzero" stroke="#ffffff" stroke-width="0.5"/><path d="M211.27879,174.34762l-3.61254,11.24975l-2.13871,0.0084l-0.03942,-11.2384z" fill="#4c4c4c" fill-rule="nonzero" stroke="none" stroke-width="1"/><path d="M210.75431,185.37117l2.73195,-10.89231l3.67893,0.01698l-3.34416,11.06904z" fill="#434343" fill-rule="nonzero" stroke="none" stroke-width="1"/></g></g></svg>