<svg version="1.1" xmlns="http://www.w3.org/2000/svg" xmlns:xlink="http://www.w3.org/1999/xlink" width="23.5" height="23.5" viewBox="0,0,23.5,23.5"><g transform="translate(-228.25,-168.25)"><g data-paper-data="{&quot;isPaintingLayer&quot;:true}" fill-rule="nonzero" stroke-linecap="butt" stroke-linejoin="miter" stroke-miterlimit="10" stroke-dasharray="" stroke-dashoffset="0" style="mix-blend-mode: normal"><path d="M228.25,180c0,-6.48935 5.26065,-11.75 11.75,-11.75c6.48935,0 11.75,5.26065 11.75,11.75c0,6.48935 -5.26065,11.75 -11.75,11.75c-6.48935,0 -11.75,-5.26065 -11.75,-11.75z" fill="#ffffff" stroke="#ffffff" stroke-width="0"/><path d="M238.04712,180.59254c0,-0.3386 0.03224,-0.64088 0.09674,-0.90695c0.07255,-0.26601 0.17736,-0.5038 0.3144,-0.71343c0.13704,-0.20957 0.31439,-0.39902 0.53205,-0.5683c0.22572,-0.17737 0.48774,-0.3386 0.78599,-0.48368l3.19231,-1.53572v-2.57562h-5.93722v2.23704h-2.47888v-2.23704c0,-0.33858 0.06449,-0.657 0.19348,-0.95527c0.12898,-0.30633 0.30633,-0.56833 0.53205,-0.78599c0.22572,-0.22572 0.48771,-0.40307 0.78599,-0.53205c0.30633,-0.13704 0.62878,-0.20556 0.96737,-0.20556h5.93722c0.33855,0 0.65698,0.06852 0.95529,0.20556c0.30631,0.12898 0.57232,0.30633 0.79804,0.53205c0.22572,0.21766 0.40309,0.47966 0.53208,0.78599c0.12898,0.29827 0.19348,0.61669 0.19348,0.95527v2.12821c0,0.33858 -0.03225,0.64088 -0.09674,0.9069c-0.06449,0.26606 -0.16525,0.50788 -0.30233,0.72555c-0.13703,0.20957 -0.31843,0.39902 -0.5441,0.5683c-0.21767,0.16933 -0.47966,0.33056 -0.78602,0.48368l-3.20438,1.52364v2.09189h-2.4668zM237.55135,185.0545h3.61553v3.61553h-3.61553z" fill="#ffa059" stroke="#ffa059" stroke-width="1.5"/></g></g></svg>