<svg xmlns="http://www.w3.org/2000/svg" fill="none" viewBox="0 0 93 9" height="9" width="93">
<path fill="black" d="M1.2793 9H0.078125V0.597656H1.2793L6.33008 7.11328V0.597656H7.53125V9H6.33008L1.2793 2.48438V9ZM9.57031 6.27539C9.57031 6.11523 9.59961 5.9668 9.6582 5.83008C9.7207 5.68945 9.80273 5.56641 9.9043 5.46094C10.0098 5.35547 10.1328 5.27344 10.2734 5.21484C10.4141 5.15234 10.5625 5.12109 10.7188 5.12109H13.6953V3.91406H9.92773V2.75977H13.6953C13.8555 2.75977 14.0059 2.79102 14.1465 2.85352C14.2871 2.91211 14.4082 2.99414 14.5098 3.09961C14.6152 3.20117 14.6973 3.32227 14.7559 3.46289C14.8184 3.60352 14.8496 3.75391 14.8496 3.91406V9H13.6953V7.94531C13.6836 8.08984 13.6445 8.22656 13.5781 8.35547C13.5117 8.48438 13.4258 8.59766 13.3203 8.69531C13.2188 8.78906 13.1016 8.86328 12.9688 8.91797C12.8359 8.97266 12.6953 9 12.5469 9H10.7188C10.5625 9 10.4141 8.9707 10.2734 8.91211C10.1328 8.84961 10.0098 8.76758 9.9043 8.66602C9.80273 8.56055 9.7207 8.4375 9.6582 8.29688C9.59961 8.15625 9.57031 8.00586 9.57031 7.8457V6.27539ZM10.7188 7.8457H13.6953V6.27539H10.7188V7.8457ZM21.7227 3.91406V9H20.5684V3.91406H17.9258V9H16.7773V2.75977H17.9258V3.86133C17.9336 3.70898 17.9688 3.56641 18.0312 3.43359C18.0938 3.29688 18.1758 3.17969 18.2773 3.08203C18.3828 2.98047 18.5039 2.90234 18.6406 2.84766C18.7773 2.78906 18.9238 2.75977 19.0801 2.75977H20.5684C20.7207 2.75977 20.8652 2.78906 21.002 2.84766C21.1387 2.90234 21.2598 2.98047 21.3652 3.08203C21.4707 3.17969 21.5547 3.29688 21.6172 3.43359C21.6836 3.56641 21.7188 3.70898 21.7227 3.86133C21.7305 3.70898 21.7637 3.56641 21.8223 3.43359C21.8848 3.29688 21.9668 3.17969 22.0684 3.08203C22.1738 2.98047 22.2949 2.90234 22.4316 2.84766C22.5684 2.78906 22.7148 2.75977 22.8711 2.75977H24.3594C24.5195 2.75977 24.6699 2.79102 24.8105 2.85352C24.9512 2.91211 25.0723 2.99414 25.1738 3.09961C25.2793 3.20117 25.3613 3.32227 25.4199 3.46289C25.4824 3.60352 25.5137 3.75391 25.5137 3.91406V9H24.3594V3.91406H21.7227ZM32.7207 6.46875H28.5898V7.8457H32.7207V9H28.5898C28.4336 9 28.2852 8.9707 28.1445 8.91211C28.0039 8.84961 27.8809 8.76758 27.7754 8.66602C27.6738 8.56055 27.5918 8.4375 27.5293 8.29688C27.4707 8.15625 27.4414 8.00586 27.4414 7.8457V3.91406C27.4414 3.75391 27.4707 3.60352 27.5293 3.46289C27.5918 3.32227 27.6738 3.20117 27.7754 3.09961C27.8809 2.99414 28.0039 2.91211 28.1445 2.85352C28.2852 2.79102 28.4336 2.75977 28.5898 2.75977H31.5664C31.7266 2.75977 31.877 2.79102 32.0176 2.85352C32.1582 2.91211 32.2793 2.99414 32.3809 3.09961C32.4863 3.20117 32.5684 3.32227 32.627 3.46289C32.6895 3.60352 32.7207 3.75391 32.7207 3.91406V6.46875ZM28.5898 3.91406V5.31445H31.5664V3.91406H28.5898ZM40.0449 9L37.6426 0.597656H38.8438L40.707 7.2832L42.5645 0.597656H43.7656L45.623 7.2832L47.4863 0.597656H48.6875L46.2852 9H44.9668L43.168 2.70117L41.3633 9H40.0449ZM55.0449 7.8457C55.0449 8.00586 55.0137 8.15625 54.9512 8.29688C54.8926 8.4375 54.8105 8.56055 54.7051 8.66602C54.6035 8.76758 54.4824 8.84961 54.3418 8.91211C54.2051 8.9707 54.0566 9 53.8965 9H50.7969C50.6406 9 50.4922 8.9707 50.3516 8.91211C50.2109 8.84961 50.0879 8.76758 49.9824 8.66602C49.8809 8.56055 49.7988 8.4375 49.7363 8.29688C49.6777 8.15625 49.6484 8.00586 49.6484 7.8457V3.91406C49.6484 3.75391 49.6777 3.60352 49.7363 3.46289C49.7988 3.32227 49.8809 3.20117 49.9824 3.09961C50.0879 2.99414 50.2109 2.91211 50.3516 2.85352C50.4922 2.79102 50.6406 2.75977 50.7969 2.75977H53.8965C54.0566 2.75977 54.2051 2.79102 54.3418 2.85352C54.4824 2.91211 54.6035 2.99414 54.7051 3.09961C54.8105 3.20117 54.8926 3.32227 54.9512 3.46289C55.0137 3.60352 55.0449 3.75391 55.0449 3.91406V7.8457ZM50.7969 3.91406V7.8457H53.8965V3.91406H50.7969ZM58.1211 3.91406V9H56.9727V2.75977H58.1211V3.86133C58.1289 3.70898 58.1641 3.56641 58.2266 3.43359C58.2891 3.29688 58.3711 3.17969 58.4727 3.08203C58.5781 2.98047 58.6992 2.90234 58.8359 2.84766C58.9727 2.78906 59.1191 2.75977 59.2754 2.75977H60.5C60.6602 2.75977 60.8086 2.79102 60.9453 2.85352C61.0859 2.91211 61.209 2.99414 61.3145 3.09961C61.4199 3.20117 61.502 3.32227 61.5605 3.46289C61.623 3.60352 61.6543 3.75391 61.6543 3.91406V4.96875H60.5V3.91406H58.1211ZM67.2148 9L64.2383 6.33398V9H63.0898V0.357422H64.2383V5.2207L66.9746 2.75977H68.5977L65.2461 5.77148L68.8379 9H67.2148ZM75.0723 7.8457C75.0723 8.00586 75.041 8.15625 74.9785 8.29688C74.9199 8.4375 74.8379 8.56055 74.7324 8.66602C74.6309 8.76758 74.5098 8.84961 74.3691 8.91211C74.2324 8.9707 74.084 9 73.9238 9H70.8242C70.668 9 70.5195 8.9707 70.3789 8.91211C70.2383 8.84961 70.1152 8.76758 70.0098 8.66602C69.9082 8.56055 69.8262 8.4375 69.7637 8.29688C69.7051 8.15625 69.6758 8.00586 69.6758 7.8457V3.91406C69.6758 3.75391 69.7051 3.60352 69.7637 3.46289C69.8262 3.32227 69.9082 3.20117 70.0098 3.09961C70.1152 2.99414 70.2383 2.91211 70.3789 2.85352C70.5195 2.79102 70.668 2.75977 70.8242 2.75977H73.9238C74.084 2.75977 74.2324 2.79102 74.3691 2.85352C74.5098 2.91211 74.6309 2.99414 74.7324 3.09961C74.8379 3.20117 74.9199 3.32227 74.9785 3.46289C75.041 3.60352 75.0723 3.75391 75.0723 3.91406V7.8457ZM70.8242 3.91406V7.8457H73.9238V3.91406H70.8242ZM77 2.75977H78.1484V7.8457H81.3652V2.75977H82.5195V9H81.3652V7.94531C81.3535 8.08984 81.3145 8.22656 81.248 8.35547C81.1816 8.48438 81.0957 8.59766 80.9902 8.69531C80.8887 8.78906 80.7715 8.86328 80.6387 8.91797C80.5059 8.97266 80.3652 9 80.2168 9H78.1484C77.9922 9 77.8438 8.9707 77.7031 8.91211C77.5625 8.84961 77.4395 8.76758 77.334 8.66602C77.2324 8.56055 77.1504 8.4375 77.0879 8.29688C77.0293 8.15625 77 8.00586 77 7.8457V2.75977ZM84.0781 2.75977H85.6016V0.837891H86.7559V2.75977H88.8066V3.91406H86.7559V7.8457H88.8066V9H86.7559C86.5996 9 86.4512 8.9707 86.3105 8.91211C86.1699 8.84961 86.0469 8.76758 85.9414 8.66602C85.8359 8.56055 85.752 8.4375 85.6895 8.29688C85.6309 8.15625 85.6016 8.00586 85.6016 7.8457V3.91406H84.0781V2.75977ZM90.7344 7.24805H92.4863V9H90.7344V7.24805ZM90.7344 2.75977H92.4863V4.51172H90.7344V2.75977Z"></path>
</svg>
