<svg version="1.1" xmlns="http://www.w3.org/2000/svg" xmlns:xlink="http://www.w3.org/1999/xlink" width="179.83152" height="205.15779" viewBox="0,0,179.83152,205.15779"><g transform="translate(-150.48166,-77.42111)"><g data-paper-data="{&quot;isPaintingLayer&quot;:true}" fill="#000000" fill-rule="nonzero" stroke="#ff914d" stroke-width="4" stroke-linecap="butt" stroke-linejoin="miter" stroke-miterlimit="10" stroke-dasharray="" stroke-dashoffset="0" style="mix-blend-mode: normal"><path d="M182.51487,79.42111l80.07892,0.00015c5.79136,0.00004 10.98071,3.57482 13.04052,8.98332l18.04651,47.38581c-13.7453,-11.32337 -40.0097,-13.86591 -47.59149,-13.86591c-21.86563,0 -21.16108,0 -47.44136,0z"/><path d="M303.90271,279.84352l-70.98114,0.73462c-5.22348,0.05404 -10.03959,-2.8117 -12.48045,-7.42649l-24.36016,-46.05442c13.74553,11.32337 35.51012,15.16448 43.09192,15.16448c21.86563,0 24.22503,0.12721 50.5055,0.12721z"/><path d="M153.29071,147.70483c-3.84476,-13.74583 6.49724,-27.36403 20.78097,-27.36403h23.10639c0,0 10.58182,11.70695 13.47154,20.81781c2.74807,8.66476 6.61867,27.34556 6.61867,27.34556c0,0 -6.81704,-2.43893 -8.70865,-3.5044c-5.96386,-3.35959 -17.75582,-2.64127 -28.32919,-1.00792c-11.79086,1.82135 -23.72832,-4.80539 -26.93973,-16.28704z"/><path d="M165.54032,210.01198c-10.31277,-2.19886 -15.40838,-13.15362 -10.34804,-22.24691l0.70305,-1.26324c3.50188,-6.29287 9.74101,-11.11866 17.10443,-11.35161c2.13735,-0.06751 4.27146,0.00758 6.10642,0.3404c7.63085,1.38456 26.00283,3.82353 17.65501,8.59875c-3.92275,2.244 -7.73755,8.81018 -10.67984,15.14061c-3.56581,7.67264 -12.12327,12.57661 -20.54103,10.78196z"/><path d="M164.97695,272.43397c-5.32772,-8.75112 -0.8462,-19.84855 9.01372,-22.32004l3.35921,-0.8421c6.9565,-1.74385 14.65257,-0.69184 19.90641,4.33651c1.47842,1.41473 2.84148,2.92046 3.80826,4.39466c4.06441,6.19867 14.55481,20.51781 5.15156,17.9864c-4.7957,-1.29099 -13.51718,0.9452 -20.91296,3.44644c-7.49728,2.53578 -16.16682,-0.16997 -20.32615,-7.00187z"/><path d="M217.49664,168.63639h77.90661c4.68381,0 8.9103,2.80822 10.72219,7.12407l14.63736,34.86584l-54.33484,-4.96281h-34.9266z"/><path d="M276.48617,205.79318l43.84078,4.22163l7.19138,18.75638l-22.00011,2.43528c-1.89859,0.21036 -3.68637,0.99947 -5.12049,2.26029l-10.89167,9.57605z"/></g></g></svg>