<svg version="1.1" xmlns="http://www.w3.org/2000/svg" xmlns:xlink="http://www.w3.org/1999/xlink" width="12.71146" height="17.33829" viewBox="0,0,12.71146,17.33829"><g transform="translate(-233.5679,-171.33087)"><g data-paper-data="{&quot;isPaintingLayer&quot;:true}" fill="#83a837" fill-rule="nonzero" stroke="#83a837" stroke-width="1" stroke-linecap="butt" stroke-linejoin="miter" stroke-miterlimit="10" stroke-dasharray="" stroke-dashoffset="0" style="mix-blend-mode: normal"><path d="M239.92684,188.16916c-1.43062,0 -2.60925,-0.30888 -3.5359,-0.92665c-0.91043,-0.61777 -1.63387,-1.5119 -2.17031,-2.68241l2.43859,-1.26805c0.24386,0.78034 0.60964,1.42249 1.09735,1.92646c0.50397,0.48771 1.24366,0.73157 2.21908,0.73157c0.68279,0 1.25992,-0.12193 1.73137,-0.36578c0.48771,-0.26011 0.86162,-0.61777 1.12173,-1.07296c0.26011,-0.47145 0.39017,-1.03232 0.39017,-1.6826c0,-0.68279 -0.12193,-1.25179 -0.36578,-1.70699c-0.24386,-0.4552 -0.59338,-0.79659 -1.04858,-1.02419c-0.4552,-0.24386 -1.02419,-0.36578 -1.70699,-0.36578c-0.47145,0 -0.91039,0.04877 -1.31682,0.14631c-0.40643,0.09754 -0.77221,0.25198 -1.09735,0.46332c-0.32514,0.19508 -0.60964,0.4552 -0.85349,0.78034l-2.14597,-0.41455l0.97542,-8.87633h9.36404v2.24347h-7.29127l-0.58525,4.5357l-0.04877,0.26824h0.04877c0.37391,-0.40643 0.85349,-0.72344 1.43875,-0.95103c0.60151,-0.2276 1.30869,-0.3414 2.12154,-0.3414c1.04045,0 1.93458,0.21947 2.68241,0.65841c0.74782,0.42268 1.33307,1.01606 1.75576,1.78014c0.42268,0.76408 0.63402,1.65009 0.63402,2.65802c0,0.87788 -0.14631,1.65821 -0.43894,2.34101c-0.29263,0.68279 -0.70718,1.25992 -1.24366,1.73137c-0.53648,0.47145 -1.16238,0.82911 -1.87768,1.07296c-0.69905,0.2276 -1.46313,0.3414 -2.29224,0.3414z"/></g></g></svg>