<svg version="1.1" xmlns="http://www.w3.org/2000/svg" xmlns:xlink="http://www.w3.org/1999/xlink" width="44.25" height="15.25" viewBox="0,0,44.25,15.25"><g transform="translate(-217.70656,-172.69361)"><g data-paper-data="{&quot;isPaintingLayer&quot;:true}" fill-rule="nonzero" stroke-linecap="butt" stroke-linejoin="miter" stroke-miterlimit="10" stroke-dasharray="" stroke-dashoffset="0" style="mix-blend-mode: normal"><path d="M217.70656,187.94362v-15.25h44.25v15.25z" fill="#eab935" stroke="#898989" stroke-width="0"/><path d="M221.16797,177.19874c0,-0.17773 0.03385,-0.34489 0.10156,-0.50146c0.06771,-0.16081 0.16081,-0.29834 0.2793,-0.4126c0.11849,-0.11849 0.25602,-0.21159 0.4126,-0.2793c0.1608,-0.07194 0.33007,-0.10791 0.50781,-0.10791h4.93847c0.17774,0 0.34489,0.03597 0.50147,0.10791c0.16081,0.06771 0.30046,0.16081 0.41894,0.2793c0.11849,0.11426 0.21159,0.25179 0.2793,0.4126c0.06771,0.15657 0.10156,0.32373 0.10156,0.50146v1.17432h-1.30127v-1.17432h-4.93847v6.5h4.93847v-1.16797h1.30127v1.16797c0,0.17773 -0.03385,0.34701 -0.10156,0.50781c-0.06771,0.15658 -0.16081,0.29411 -0.2793,0.4126c-0.11848,0.11849 -0.25813,0.21159 -0.41894,0.2793c-0.15658,0.06771 -0.32373,0.10156 -0.50147,0.10156h-4.93847c-0.17774,0 -0.34701,-0.03385 -0.50781,-0.10156c-0.15658,-0.06771 -0.29411,-0.16081 -0.4126,-0.2793c-0.11849,-0.11849 -0.21159,-0.25602 -0.2793,-0.4126c-0.06771,-0.1608 -0.10156,-0.33008 -0.10156,-0.50781zM236.6436,185.00001h-1.2505v-5.50977h-3.4849v5.50977h-1.24414v-9.36279h1.24414v3.7959c0.0085,-0.16504 0.0466,-0.3195 0.1143,-0.46338c0.0677,-0.14812 0.1565,-0.27507 0.2666,-0.38086c0.1142,-0.11003 0.2454,-0.19466 0.3935,-0.25391c0.1481,-0.06348 0.3068,-0.09521 0.4761,-0.09521h2.2344c0.1735,0 0.3364,0.03385 0.4887,0.10156c0.1524,0.06348 0.2836,0.15234 0.3936,0.2666c0.1142,0.11003 0.2031,0.24121 0.2666,0.39355c0.0677,0.15235 0.1016,0.31527 0.1016,0.48877zM244.4448,182.25782h-4.4751v1.4917h4.4751v1.25049h-4.4751c-0.1692,0 -0.3301,-0.03174 -0.4824,-0.09521c-0.1523,-0.06771 -0.2856,-0.15658 -0.3999,-0.26661c-0.11,-0.11425 -0.1989,-0.24756 -0.2666,-0.3999c-0.0635,-0.15234 -0.0952,-0.31527 -0.0952,-0.48877v-4.25928c0,-0.1735 0.0317,-0.33642 0.0952,-0.48877c0.0677,-0.15234 0.1566,-0.28352 0.2666,-0.39355c0.1143,-0.11426 0.2476,-0.20312 0.3999,-0.2666c0.1523,-0.06771 0.3132,-0.10156 0.4824,-0.10156h3.2246c0.1735,0 0.3365,0.03385 0.4888,0.10156c0.1523,0.06348 0.2835,0.15234 0.3936,0.2666c0.1142,0.11003 0.2031,0.24121 0.2666,0.39355c0.0677,0.15235 0.1015,0.31527 0.1015,0.48877zM239.9697,179.49024v1.51709h3.2246v-1.51709zM250.6147,183.74951v-1.56787h-2.9643c-0.1735,0 -0.3364,-0.03174 -0.4888,-0.09521c-0.1523,-0.06771 -0.2856,-0.15658 -0.3999,-0.26661c-0.11,-0.11425 -0.1989,-0.24755 -0.2666,-0.3999c-0.0635,-0.15234 -0.0952,-0.31527 -0.0952,-0.48877v-1.44092c0,-0.1735 0.0317,-0.33642 0.0952,-0.48877c0.0677,-0.15234 0.1566,-0.28352 0.2666,-0.39355c0.1143,-0.11426 0.2476,-0.20312 0.3999,-0.2666c0.1524,-0.06771 0.3153,-0.10156 0.4888,-0.10156h3.9546v1.25048h-3.9546v1.44092h2.9643c0.1735,0 0.3344,0.03386 0.4825,0.10156c0.1523,0.06348 0.2856,0.15235 0.3999,0.26661c0.1142,0.11002 0.2031,0.24121 0.2666,0.39355c0.0677,0.15234 0.1015,0.31527 0.1015,0.48877v1.56787c0,0.1735 -0.0338,0.33643 -0.1015,0.48877c-0.0635,0.15234 -0.1524,0.28565 -0.2666,0.3999c-0.1143,0.11003 -0.2476,0.1989 -0.3999,0.26661c-0.1481,0.06347 -0.309,0.09521 -0.4825,0.09521h-4.2148v-1.25049zM253.4268,178.23975h1.6503v-2.08204h1.2505v2.08204h2.2217v1.25048h-2.2217v4.25928h2.2217v1.25049h-2.2217c-0.1692,0 -0.33,-0.03174 -0.4824,-0.09521c-0.1523,-0.06771 -0.2856,-0.15658 -0.3999,-0.26661c-0.1142,-0.11425 -0.2052,-0.24756 -0.2729,-0.3999c-0.0635,-0.15234 -0.0953,-0.31527 -0.0953,-0.48877v-4.25928h-1.6503z" fill="#ffffff" stroke="none" stroke-width="1"/></g></g></svg>