<svg version="1.1" xmlns="http://www.w3.org/2000/svg" xmlns:xlink="http://www.w3.org/1999/xlink" width="62.54323" height="83.75451" viewBox="0,0,62.54323,83.75451"><g transform="translate(-209.40267,-134.38312)"><g data-paper-data="{&quot;isPaintingLayer&quot;:true}" fill-rule="nonzero" stroke-linejoin="miter" stroke-miterlimit="10" stroke-dasharray="" stroke-dashoffset="0" style="mix-blend-mode: normal"><path d="M242.8945,185.1843c2.043,-0.3404 3.2867,-0.0466 5.2765,0.5309c1.5169,0.4403 3.6935,1.6536 3.6935,1.6536c0,0 5.8533,3.6359 5.6292,7.4649c-0.3135,5.3566 -5.6292,6.5069 -5.6292,6.5069l-4.4851,1.5493l-4.6829,0.3145l-9.9083,0.2319c0,0 -8.9092,0.3389 -9.5883,-0.5464c-0.4794,-0.6251 -0.6999,-1.986 -0.6999,-1.986c0,0 0.1953,-3.2463 0.3179,-5.3266c0.1516,-2.5719 0.1113,-4.0571 0.5639,-6.5929c0.6241,-3.4961 1.8116,-5.1665 2.8559,-8.5595c0.7497,-2.4362 1.7302,-6.2942 1.7302,-6.2942c0,0 -0.2317,-2.4732 0.7564,-4.0592c1.1599,-1.8617 2.6053,-4.1951 3.394,-4.4714c1.5962,-0.5592 5.4404,1.4068 5.4404,1.4068c0,0 2.5098,0.559 2.6453,1.8086c0.0878,0.8102 -0.8219,1.9159 -0.8219,1.9159c0,0 1.0748,-0.1906 1.0748,1.514c0,1.4341 -2.364,2.9493 -3.5872,4.5527c-1.9208,1.7164 -3.4312,1.3441 -3.4312,1.3441l-0.2466,1.6754l-0.4037,11.5639v3.4522l3.0766,-4.8686c0,0 3.761,-4.2361 7.0297,-4.7808z" fill="#6eb1ff" stroke="none" stroke-width="1" stroke-linecap="butt"/><path d="M239.3856,170.7815l-2.3323,1.2734c-0.1779,0.0971 -0.3811,0.1378 -0.5826,0.1169l-2.9791,-0.3097M232.7782,171.8621h0.7134M233.4916,171.8621l0.2474,-2.1087M237.5541,169.4432l-2.0471,0.4963M233.2737,168.978l0.4653,0.7754M233.739,169.7534l1.768,0.1861M235.662,170.5288l-0.155,-0.5893" fill="none" stroke="#ffffff" stroke-width="0.15" stroke-linecap="butt"/><path d="M262.7863,204.3572c-5.5521,7.6886 -14.832,12.4186 -24.9886,11.7106c-15.6284,-1.0894 -27.4146,-14.6418 -26.3252,-30.2702c1.0895,-15.6283 14.6419,-27.4145 30.2703,-26.3251c10.695,0.7455 19.5907,7.3277 23.792,16.4176" fill="none" stroke="#6eb1ff" stroke-width="4" stroke-linecap="round"/><path d="M269.9459,165.0723l-2.9407,14.1868l-14.0591,-3.5021" fill="none" stroke="#6eb1ff" stroke-width="4" stroke-linecap="round"/><path d="M227.25045,139.79339c0,2.01569 -0.86001,3.16467 -2.58014,3.44685l2.72123,5.84569h-2.28776l-2.68092,-5.77502h-4.52538v5.77502h-2.06618v-14.45281h7.91186c2.33815,0 3.50729,1.17249 3.50729,3.51745zM217.89748,141.24473h5.73471c0.551,0 0.94743,-0.12093 1.18929,-0.3628c0.24199,-0.24199 0.36292,-0.63836 0.36292,-1.18933v-1.44125c0,-0.55097 -0.12093,-0.94739 -0.36292,-1.18928c-0.24187,-0.24189 -0.6383,-0.36283 -1.18929,-0.36283h-5.73471zM239.5868,144.73198h-7.10552v2.36839h7.10552v1.98555h-7.10552c-0.2687,0 -0.52404,-0.05039 -0.76591,-0.15117c-0.24187,-0.10758 -0.45362,-0.24866 -0.63502,-0.42326c-0.17472,-0.18152 -0.31581,-0.39315 -0.42326,-0.63502c-0.10078,-0.24187 -0.15117,-0.50061 -0.15117,-0.77611v-6.76274c0,-0.27549 0.05039,-0.53417 0.15117,-0.77606c0.10746,-0.24189 0.24854,-0.45018 0.42326,-0.62488c0.1814,-0.18141 0.39315,-0.32251 0.63502,-0.4233c0.24187,-0.1075 0.49721,-0.16126 0.76591,-0.16126h5.11997c0.2755,0 0.53424,0.05375 0.77611,0.16126c0.24187,0.10079 0.45022,0.24189 0.62482,0.4233c0.18152,0.1747 0.32261,0.38299 0.42339,0.62488c0.10746,0.24189 0.16124,0.50057 0.16124,0.77606zM232.48128,140.33764v2.40879h5.11997v-2.40879zM252.3968,147.10037c0,0.2755 -0.05379,0.53424 -0.16124,0.77611c-0.10078,0.24187 -0.24199,0.4535 -0.42339,0.63502c-0.1746,0.1746 -0.38295,0.31569 -0.62482,0.42326c-0.24187,0.10078 -0.50061,0.15117 -0.77611,0.15117h-5.53316v4.33379h-1.97548v-15.06757h1.97548v1.81416c0.02016,-0.25533 0.0873,-0.49049 0.20155,-0.70551c0.11425,-0.22172 0.25874,-0.41322 0.43334,-0.57448c0.17472,-0.16798 0.37628,-0.299 0.60478,-0.39307c0.23519,-0.09407 0.48373,-0.1411 0.74575,-0.1411h3.54772c0.2755,0 0.53424,0.05375 0.77611,0.16126c0.24187,0.10079 0.45022,0.24189 0.62482,0.4233c0.1814,0.1747 0.32261,0.38299 0.42339,0.62488c0.10746,0.24189 0.16124,0.50057 0.16124,0.77606zM250.41125,147.10037v-6.76274h-5.53316v6.76274zM262.18312,147.10037v-2.48932h-4.70666c-0.2755,0 -0.53424,-0.05051 -0.77611,-0.15129c-0.24187,-0.10746 -0.4535,-0.24854 -0.6349,-0.42326c-0.17472,-0.1814 -0.31581,-0.39303 -0.42339,-0.6349c-0.10078,-0.24199 -0.15117,-0.50061 -0.15117,-0.77611v-2.28786c0,-0.27549 0.05039,-0.53417 0.15117,-0.77606c0.10758,-0.24189 0.24866,-0.45018 0.42339,-0.62488c0.1814,-0.18141 0.39303,-0.32251 0.6349,-0.4233c0.24187,-0.1075 0.50061,-0.16126 0.77611,-0.16126h6.27903v1.98549h-6.27903v2.28786h4.70666c0.2755,0 0.53084,0.05379 0.76603,0.16124c0.24187,0.10078 0.4535,0.24187 0.6349,0.42326c0.18152,0.17472 0.32261,0.38307 0.42339,0.62494c0.10746,0.24187 0.16124,0.50061 0.16124,0.77611v2.48932c0,0.2755 -0.05379,0.53424 -0.16124,0.77611c-0.10078,0.24187 -0.24187,0.4535 -0.42339,0.63502c-0.1814,0.1746 -0.39303,0.31569 -0.6349,0.42326c-0.23519,0.10078 -0.49053,0.15117 -0.76603,0.15117h-6.69222v-1.98555z" fill="#6eb1ff" stroke="#6eb1ff" stroke-width="0.5" stroke-linecap="butt"/></g></g></svg>