<svg version="1.1" xmlns="http://www.w3.org/2000/svg" xmlns:xlink="http://www.w3.org/1999/xlink" width="252.08762" height="29.45262" viewBox="0,0,252.08762,29.45262"><g transform="translate(-114.11138,-165.44678)"><g data-paper-data="{&quot;isPaintingLayer&quot;:true}" fill="#57a71a" fill-rule="nonzero" stroke="#57a71a" stroke-width="0.5" stroke-linecap="butt" stroke-linejoin="miter" stroke-miterlimit="10" stroke-dasharray="" stroke-dashoffset="0" style="mix-blend-mode: normal"><path d="M117.4458,176.5l-3.00293,-10.50293h1.50147l2.3291,8.35693l2.32177,-8.35693h1.50147l2.32182,8.35693l2.3291,-8.35693h1.5014l-3.0029,10.50293h-1.648l-2.24849,-7.87354l-2.25586,7.87354zM136.8037,176.5h-1.4429v-6.35742h-4.021v6.35742h-1.4355v-10.80322h1.4355v4.37988c0.0098,-0.19043 0.0538,-0.36865 0.1319,-0.53467c0.0781,-0.1709 0.1806,-0.31738 0.3076,-0.43945c0.1318,-0.12695 0.2832,-0.22461 0.4541,-0.29297c0.1709,-0.07324 0.354,-0.10986 0.5493,-0.10986h2.5781c0.2002,0 0.3882,0.03906 0.564,0.11718c0.1758,0.07325 0.3272,0.17579 0.4541,0.30762c0.1318,0.12695 0.2344,0.27832 0.3076,0.4541c0.0781,0.17578 0.1172,0.36377 0.1172,0.56397zM140.7222,168.69971v7.80029h-1.4429v-7.80029zM139.2061,165.69678h1.5893v1.50146h-1.5893zM144.6406,170.14258v4.91452h3.7207v-1.31833h1.4429v1.31833c0,0.2002 -0.0391,0.3882 -0.1172,0.564c-0.0732,0.1758 -0.1758,0.3296 -0.3076,0.4614c-0.127,0.127 -0.2783,0.2295 -0.4541,0.3076c-0.1758,0.0733 -0.3638,0.1099 -0.564,0.1099h-3.7207c-0.1953,0 -0.3808,-0.0366 -0.5566,-0.1099c-0.1758,-0.0781 -0.3296,-0.1806 -0.4614,-0.3076c-0.127,-0.1318 -0.2295,-0.2856 -0.3077,-0.4614c-0.0732,-0.1758 -0.1098,-0.3638 -0.1098,-0.564v-4.91452c0,-0.2002 0.0366,-0.38819 0.1098,-0.56397c0.0782,-0.17578 0.1807,-0.32715 0.3077,-0.4541c0.1318,-0.13183 0.2856,-0.23437 0.4614,-0.30762c0.1758,-0.07812 0.3613,-0.11718 0.5566,-0.11718h3.7207c0.2002,0 0.3882,0.03906 0.564,0.11718c0.1758,0.07325 0.3271,0.17579 0.4541,0.30762c0.1318,0.12695 0.2344,0.27832 0.3076,0.4541c0.0781,0.17578 0.1172,0.36377 0.1172,0.56397v1.31836h-1.4429v-1.31836zM159.1133,176.5h-1.4429v-6.35742h-4.021v6.35742h-1.4355v-10.80322h1.4355v4.37988c0.0098,-0.19043 0.0537,-0.36865 0.1318,-0.53467c0.0782,-0.1709 0.1807,-0.31738 0.3077,-0.43945c0.1318,-0.12695 0.2832,-0.22461 0.4541,-0.29297c0.1709,-0.07324 0.354,-0.10986 0.5493,-0.10986h2.5781c0.2002,0 0.3882,0.03906 0.564,0.11718c0.1758,0.07325 0.3271,0.17579 0.4541,0.30762c0.1318,0.12695 0.2344,0.27832 0.3076,0.4541c0.0781,0.17578 0.1172,0.36377 0.1172,0.56397zM172.7583,175.0571c0,0.2002 -0.0391,0.3882 -0.1172,0.564c-0.0732,0.1758 -0.1758,0.3296 -0.3076,0.4614c-0.127,0.127 -0.2783,0.2295 -0.4541,0.3076c-0.1709,0.0733 -0.3565,0.1099 -0.5566,0.1099h-3.8746c-0.1953,0 -0.3808,-0.0366 -0.5566,-0.1099c-0.1758,-0.0781 -0.3296,-0.1806 -0.4614,-0.3076c-0.127,-0.1318 -0.2295,-0.2856 -0.3076,-0.4614c-0.0733,-0.1758 -0.1099,-0.3638 -0.1099,-0.564v-4.91452c0,-0.2002 0.0366,-0.38819 0.1099,-0.56397c0.0781,-0.17578 0.1806,-0.32715 0.3076,-0.4541c0.1318,-0.13183 0.2856,-0.23437 0.4614,-0.30762c0.1758,-0.07812 0.3613,-0.11718 0.5566,-0.11718h3.8746c0.2001,0 0.3857,0.03906 0.5566,0.11718c0.1758,0.07325 0.3271,0.17579 0.4541,0.30762c0.1318,0.12695 0.2344,0.27832 0.3076,0.4541c0.0781,0.17578 0.1172,0.36377 0.1172,0.56397zM167.4482,170.14258v4.91452h3.8746v-4.91452zM178.061,167.13965v1.56006h2.5635v1.44287h-2.5635v6.35742h-1.4428v-6.35742h-1.9043v-1.44287h1.9043v-1.56006c0,-0.2002 0.0366,-0.38574 0.1098,-0.55664c0.0782,-0.17578 0.1831,-0.32959 0.315,-0.46143c0.1318,-0.13183 0.2856,-0.23437 0.4614,-0.30762c0.1758,-0.07812 0.3613,-0.11718 0.5566,-0.11718h2.5635v1.44287zM186.623,168.69971h1.9043v-2.40235h1.4429v2.40235h2.5635v1.44287h-2.5635v4.91452h2.5635v1.4429h-2.5635c-0.1953,0 -0.3808,-0.0366 -0.5566,-0.1099c-0.1758,-0.0781 -0.3296,-0.1806 -0.4615,-0.3076c-0.1318,-0.1318 -0.2368,-0.2856 -0.3149,-0.4614c-0.0732,-0.1758 -0.1099,-0.3638 -0.1099,-0.564v-4.91452h-1.9043zM201.8428,176.5h-1.4429v-6.35742h-4.021v6.35742h-1.4355v-10.80322h1.4355v4.37988c0.0098,-0.19043 0.0537,-0.36865 0.1318,-0.53467c0.0782,-0.1709 0.1807,-0.31738 0.3077,-0.43945c0.1318,-0.12695 0.2832,-0.22461 0.4541,-0.29297c0.1709,-0.07324 0.354,-0.10986 0.5493,-0.10986h2.5781c0.2002,0 0.3882,0.03906 0.564,0.11718c0.1757,0.07325 0.3271,0.17579 0.4541,0.30762c0.1318,0.12695 0.2343,0.27832 0.3076,0.4541c0.0781,0.17578 0.1172,0.36377 0.1172,0.56397zM210.8442,173.33594h-5.1635v1.72116h5.1635v1.4429h-5.1635c-0.1953,0 -0.3809,-0.0366 -0.5567,-0.1099c-0.1758,-0.0781 -0.3296,-0.1806 -0.4614,-0.3076c-0.127,-0.1318 -0.2295,-0.2856 -0.3076,-0.4614c-0.0733,-0.1758 -0.1099,-0.3638 -0.1099,-0.564v-4.91452c0,-0.2002 0.0366,-0.38819 0.1099,-0.56397c0.0781,-0.17578 0.1806,-0.32715 0.3076,-0.4541c0.1318,-0.13183 0.2856,-0.23437 0.4614,-0.30762c0.1758,-0.07812 0.3614,-0.11718 0.5567,-0.11718h3.7207c0.2002,0 0.3882,0.03906 0.5639,0.11718c0.1758,0.07325 0.3272,0.17579 0.4541,0.30762c0.1319,0.12695 0.2344,0.27832 0.3077,0.4541c0.0781,0.17578 0.1171,0.36377 0.1171,0.56397zM205.6807,170.14258v1.75049h3.7207v-1.75049zM217.897,165.99707h7.654v1.50147h-6.152v3.00292h5.251v1.50147h-5.251v4.49707h-1.502zM234.252,175.0571c0,0.2002 -0.039,0.3882 -0.117,0.564c-0.073,0.1758 -0.176,0.3296 -0.307,0.4614c-0.127,0.127 -0.279,0.2295 -0.454,0.3076c-0.171,0.0733 -0.357,0.1099 -0.557,0.1099h-3.875c-0.195,0 -0.38,-0.0366 -0.556,-0.1099c-0.176,-0.0781 -0.33,-0.1806 -0.462,-0.3076c-0.127,-0.1318 -0.229,-0.2856 -0.307,-0.4614c-0.074,-0.1758 -0.11,-0.3638 -0.11,-0.564v-4.91452c0,-0.2002 0.036,-0.38819 0.11,-0.56397c0.078,-0.17578 0.18,-0.32715 0.307,-0.4541c0.132,-0.13183 0.286,-0.23437 0.462,-0.30762c0.176,-0.07812 0.361,-0.11718 0.556,-0.11718h3.875c0.2,0 0.386,0.03906 0.557,0.11718c0.175,0.07325 0.327,0.17579 0.454,0.30762c0.131,0.12695 0.234,0.27832 0.307,0.4541c0.078,0.17578 0.117,0.36377 0.117,0.56397zM228.942,170.14258v4.91452h3.875v-4.91452zM238.098,165.69678v10.80322h-1.436v-10.80322zM241.936,165.69678v10.80322h-1.436v-10.80322zM251.083,175.0571c0,0.2002 -0.039,0.3882 -0.117,0.564c-0.073,0.1758 -0.175,0.3296 -0.307,0.4614c-0.127,0.127 -0.279,0.2295 -0.454,0.3076c-0.171,0.0733 -0.357,0.1099 -0.557,0.1099h-3.875c-0.195,0 -0.38,-0.0366 -0.556,-0.1099c-0.176,-0.0781 -0.33,-0.1806 -0.462,-0.3076c-0.127,-0.1318 -0.229,-0.2856 -0.307,-0.4614c-0.073,-0.1758 -0.11,-0.3638 -0.11,-0.564v-4.91452c0,-0.2002 0.037,-0.38819 0.11,-0.56397c0.078,-0.17578 0.18,-0.32715 0.307,-0.4541c0.132,-0.13183 0.286,-0.23437 0.462,-0.30762c0.176,-0.07812 0.361,-0.11718 0.556,-0.11718h3.875c0.2,0 0.386,0.03906 0.557,0.11718c0.175,0.07325 0.327,0.17579 0.454,0.30762c0.132,0.12695 0.234,0.27832 0.307,0.4541c0.078,0.17578 0.117,0.36377 0.117,0.56397zM245.773,170.14258v4.91452h3.875v-4.91452zM255.112,176.5l-2.52,-7.80029h1.458l1.846,5.88139l1.721,-5.88139h1.472l1.721,5.88139l1.846,-5.88139h1.457l-2.519,7.80029h-1.502l-1.743,-5.72754l-1.736,5.72754zM267.138,168.69971v7.80029h-1.443v-7.80029zM265.622,165.69678h1.589v1.50146h-1.589zM276.521,176.5h-1.443v-6.35742h-4.021v6.35742h-1.436v-7.80029h1.436v1.37695c0.009,-0.19043 0.053,-0.36865 0.131,-0.53467c0.079,-0.1709 0.181,-0.31738 0.308,-0.43945c0.132,-0.12695 0.283,-0.22461 0.454,-0.29297c0.171,-0.07324 0.354,-0.10986 0.55,-0.10986h2.578c0.2,0 0.388,0.03906 0.564,0.11718c0.175,0.07325 0.327,0.17579 0.454,0.30762c0.132,0.12695 0.234,0.27832 0.307,0.4541c0.078,0.17578 0.118,0.36377 0.118,0.56397zM278.923,170.14258c0,-0.2002 0.036,-0.38819 0.11,-0.56397c0.078,-0.17578 0.18,-0.32715 0.307,-0.4541c0.132,-0.13183 0.286,-0.23437 0.462,-0.30762c0.176,-0.07812 0.361,-0.11718 0.556,-0.11718h2.586c0.19,0 0.371,0.03662 0.542,0.10986c0.171,0.06836 0.32,0.16602 0.447,0.29297c0.131,0.12207 0.236,0.26855 0.315,0.43945c0.083,0.16602 0.127,0.34424 0.131,0.53467v-1.37695h1.443v9.50679c0,0.2002 -0.039,0.3882 -0.117,0.564c-0.073,0.1758 -0.176,0.3272 -0.308,0.4541c-0.126,0.1318 -0.278,0.2344 -0.454,0.3076c-0.175,0.0782 -0.363,0.1172 -0.564,0.1172h-4.555v-1.4429h4.555v-2.0068h-4.021c-0.195,0 -0.38,-0.0366 -0.556,-0.1099c-0.176,-0.0781 -0.33,-0.1806 -0.462,-0.3076c-0.127,-0.1318 -0.229,-0.2856 -0.307,-0.4614c-0.074,-0.1758 -0.11,-0.3638 -0.11,-0.564zM284.379,174.7568v-4.61422h-4.021v4.61422zM294.37,172.00293c-0.205,0 -0.401,-0.03906 -0.586,-0.11719c-0.181,-0.08301 -0.34,-0.19043 -0.476,-0.32226c-0.137,-0.13672 -0.245,-0.29541 -0.323,-0.47608c-0.078,-0.18554 -0.117,-0.38086 -0.117,-0.58594v-3.00292c0,-0.20508 0.039,-0.39795 0.117,-0.57862c0.078,-0.18554 0.186,-0.34424 0.323,-0.47607c0.136,-0.13672 0.295,-0.24414 0.476,-0.32227c0.185,-0.08301 0.381,-0.12451 0.586,-0.12451h5.097c0.205,0 0.398,0.0415 0.579,0.12451c0.185,0.07813 0.347,0.18555 0.483,0.32227c0.137,0.13183 0.244,0.29053 0.323,0.47607c0.078,0.18067 0.117,0.37354 0.117,0.57862v1.35498h-1.502v-1.35498h-5.097v3.00292h5.097c0.205,0 0.398,0.03907 0.579,0.11719c0.185,0.07813 0.347,0.18555 0.483,0.32227c0.137,0.13672 0.244,0.29785 0.323,0.4834c0.078,0.18066 0.117,0.37353 0.117,0.57861v2.99557c0,0.2051 -0.039,0.4004 -0.117,0.586c-0.079,0.1806 -0.186,0.3393 -0.323,0.476c-0.136,0.1368 -0.298,0.2442 -0.483,0.3223c-0.181,0.0781 -0.374,0.1172 -0.579,0.1172h-5.244c-0.205,0 -0.4,-0.0391 -0.586,-0.1172c-0.18,-0.0781 -0.339,-0.1855 -0.476,-0.3223c-0.137,-0.1367 -0.244,-0.2954 -0.322,-0.476c-0.078,-0.1856 -0.117,-0.3809 -0.117,-0.586v-1.34762h1.501v1.34762h5.244v-2.99557zM310.131,173.33594h-5.163v1.72116h5.163v1.4429h-5.163c-0.196,0 -0.381,-0.0366 -0.557,-0.1099c-0.176,-0.0781 -0.329,-0.1806 -0.461,-0.3076c-0.127,-0.1318 -0.23,-0.2856 -0.308,-0.4614c-0.073,-0.1758 -0.11,-0.3638 -0.11,-0.564v-4.91452c0,-0.2002 0.037,-0.38819 0.11,-0.56397c0.078,-0.17578 0.181,-0.32715 0.308,-0.4541c0.132,-0.13183 0.285,-0.23437 0.461,-0.30762c0.176,-0.07812 0.361,-0.11718 0.557,-0.11718h3.72c0.201,0 0.389,0.03906 0.564,0.11718c0.176,0.07325 0.328,0.17579 0.455,0.30762c0.131,0.12695 0.234,0.27832 0.307,0.4541c0.078,0.17578 0.117,0.36377 0.117,0.56397zM304.968,170.14258v1.75049h3.72v-1.75049zM312.087,168.69971h1.904v-2.40235h1.443v2.40235h2.564v1.44287h-2.564v4.91452h2.564v1.4429h-2.564c-0.195,0 -0.381,-0.0366 -0.557,-0.1099c-0.175,-0.0781 -0.329,-0.1806 -0.461,-0.3076c-0.132,-0.1318 -0.237,-0.2856 -0.315,-0.4614c-0.073,-0.1758 -0.11,-0.3638 -0.11,-0.564v-4.91452h-1.904zM324.15,165.99707h8.401v1.50147h-3.45v9.00146h-1.501v-9.00146h-3.45zM333.825,179.6494l1.633,-3.8525l-3.061,-7.09719h1.516l2.278,5.36865l2.278,-5.36865h1.516l-4.724,10.94969zM348.386,175.0571c0,0.2002 -0.039,0.3882 -0.117,0.564c-0.074,0.1758 -0.176,0.3296 -0.308,0.4614c-0.127,0.127 -0.278,0.2295 -0.454,0.3076c-0.176,0.0733 -0.364,0.1099 -0.564,0.1099h-4.021v3.1494h-1.436v-10.94969h1.436v1.31836c0.015,-0.18555 0.063,-0.35645 0.146,-0.5127c0.083,-0.16113 0.188,-0.30029 0.315,-0.41748c0.127,-0.12207 0.274,-0.21728 0.44,-0.28564c0.171,-0.06836 0.351,-0.10254 0.542,-0.10254h2.578c0.2,0 0.388,0.03906 0.564,0.11718c0.176,0.07325 0.327,0.17579 0.454,0.30762c0.132,0.12695 0.234,0.27832 0.308,0.4541c0.078,0.17578 0.117,0.36377 0.117,0.56397zM346.943,175.0571v-4.91452h-4.021v4.91452zM357.387,173.33594h-5.163v1.72116h5.163v1.4429h-5.163c-0.196,0 -0.381,-0.0366 -0.557,-0.1099c-0.176,-0.0781 -0.33,-0.1806 -0.461,-0.3076c-0.127,-0.1318 -0.23,-0.2856 -0.308,-0.4614c-0.073,-0.1758 -0.11,-0.3638 -0.11,-0.564v-4.91452c0,-0.2002 0.037,-0.38819 0.11,-0.56397c0.078,-0.17578 0.181,-0.32715 0.308,-0.4541c0.131,-0.13183 0.285,-0.23437 0.461,-0.30762c0.176,-0.07812 0.361,-0.11718 0.557,-0.11718h3.72c0.201,0 0.389,0.03906 0.564,0.11718c0.176,0.07325 0.327,0.17579 0.454,0.30762c0.132,0.12695 0.235,0.27832 0.308,0.4541c0.078,0.17578 0.117,0.36377 0.117,0.56397zM352.224,170.14258v1.75049h3.72v-1.75049zM364.506,175.0571v-1.80905h-3.42c-0.2,0 -0.388,-0.03662 -0.564,-0.10987c-0.176,-0.07812 -0.33,-0.18066 -0.461,-0.30761c-0.127,-0.13184 -0.23,-0.28565 -0.308,-0.46143c-0.073,-0.17578 -0.11,-0.36377 -0.11,-0.56396v-1.6626c0,-0.2002 0.037,-0.38819 0.11,-0.56397c0.078,-0.17578 0.181,-0.32715 0.308,-0.4541c0.131,-0.13183 0.285,-0.23437 0.461,-0.30762c0.176,-0.07812 0.364,-0.11718 0.564,-0.11718h4.563v1.44287h-4.563v1.6626h3.42c0.201,0 0.386,0.03906 0.557,0.11718c0.176,0.07325 0.33,0.17578 0.461,0.30762c0.132,0.12695 0.235,0.27832 0.308,0.4541c0.078,0.17578 0.117,0.36377 0.117,0.56397v1.80905c0,0.2002 -0.039,0.3882 -0.117,0.564c-0.073,0.1758 -0.176,0.3296 -0.308,0.4614c-0.131,0.127 -0.285,0.2295 -0.461,0.3076c-0.171,0.0733 -0.356,0.1099 -0.557,0.1099h-4.863v-1.4429zM163.6543,188.0942c0,-0.2002 0.0366,-0.3857 0.1099,-0.5566c0.0781,-0.1758 0.1806,-0.3296 0.3076,-0.4614c0.1318,-0.1319 0.2856,-0.2344 0.4614,-0.3076c0.1758,-0.0782 0.3613,-0.1172 0.5566,-0.1172h3.7207v-1.5088h-4.7094v-1.4429h4.7094c0.2002,0 0.3882,0.0391 0.564,0.1172c0.1758,0.0732 0.3272,0.1758 0.4541,0.3076c0.1318,0.127 0.2344,0.2783 0.3076,0.4541c0.0782,0.1758 0.1172,0.3638 0.1172,0.564v6.3574h-1.4429v-1.3184c-0.0146,0.1807 -0.0634,0.3516 -0.1464,0.5127c-0.083,0.1612 -0.1905,0.3028 -0.3223,0.4248c-0.127,0.1172 -0.2734,0.21 -0.4395,0.2784c-0.166,0.0683 -0.3418,0.1025 -0.5273,0.1025h-2.2852c-0.1953,0 -0.3808,-0.0366 -0.5566,-0.1099c-0.1758,-0.0781 -0.3296,-0.1806 -0.4614,-0.3076c-0.127,-0.1318 -0.2295,-0.2856 -0.3076,-0.4614c-0.0733,-0.1758 -0.1099,-0.3638 -0.1099,-0.564zM165.0898,190.0571h3.7207v-1.9629h-3.7207zM174.0986,185.1426v6.3574h-1.4355v-7.8003h1.4355v1.377c0.0098,-0.1905 0.0537,-0.3687 0.1319,-0.5347c0.0781,-0.1709 0.1806,-0.3174 0.3076,-0.4395c0.1318,-0.1269 0.2832,-0.2246 0.4541,-0.2929c0.1709,-0.0733 0.354,-0.1099 0.5493,-0.1099h1.5308c0.2002,0 0.3857,0.0391 0.5566,0.1172c0.1758,0.0732 0.3296,0.1758 0.4614,0.3076c0.1319,0.127 0.2344,0.2783 0.3076,0.4541c0.0782,0.1758 0.1172,0.3638 0.1172,0.564v1.3183h-1.4428v-1.3183zM186.9087,188.3359h-5.1636v1.7212h5.1636v1.4429h-5.1636c-0.1953,0 -0.3808,-0.0366 -0.5566,-0.1099c-0.1758,-0.0781 -0.3296,-0.1806 -0.4614,-0.3076c-0.127,-0.1318 -0.2295,-0.2856 -0.3077,-0.4614c-0.0732,-0.1758 -0.1098,-0.3638 -0.1098,-0.564v-4.9145c0,-0.2002 0.0366,-0.3882 0.1098,-0.564c0.0782,-0.1758 0.1807,-0.3271 0.3077,-0.4541c0.1318,-0.1318 0.2856,-0.2344 0.4614,-0.3076c0.1758,-0.0781 0.3613,-0.1172 0.5566,-0.1172h3.7207c0.2002,0 0.3882,0.0391 0.564,0.1172c0.1758,0.0732 0.3271,0.1758 0.4541,0.3076c0.1318,0.127 0.2344,0.2783 0.3076,0.4541c0.0781,0.1758 0.1172,0.3638 0.1172,0.564zM181.7451,185.1426v1.7505h3.7207v-1.7505zM194.3428,194.6494l1.6333,-3.8525l-3.0615,-7.0972h1.5161l2.2778,5.3687l2.2778,-5.3687h1.5161l-4.7241,10.9497zM208.7495,190.0571c0,0.2002 -0.0391,0.3882 -0.1172,0.564c-0.0732,0.1758 -0.1758,0.3296 -0.3076,0.4614c-0.1269,0.127 -0.2783,0.2295 -0.4541,0.3076c-0.1709,0.0733 -0.3564,0.1099 -0.5566,0.1099h-3.8745c-0.1954,0 -0.3809,-0.0366 -0.5567,-0.1099c-0.1758,-0.0781 -0.3296,-0.1806 -0.4614,-0.3076c-0.127,-0.1318 -0.2295,-0.2856 -0.3076,-0.4614c-0.0733,-0.1758 -0.1099,-0.3638 -0.1099,-0.564v-4.9145c0,-0.2002 0.0366,-0.3882 0.1099,-0.564c0.0781,-0.1758 0.1806,-0.3271 0.3076,-0.4541c0.1318,-0.1318 0.2856,-0.2344 0.4614,-0.3076c0.1758,-0.0781 0.3613,-0.1172 0.5567,-0.1172h3.8745c0.2002,0 0.3857,0.0391 0.5566,0.1172c0.1758,0.0732 0.3272,0.1758 0.4541,0.3076c0.1318,0.127 0.2344,0.2783 0.3076,0.4541c0.0781,0.1758 0.1172,0.3638 0.1172,0.564zM203.4395,185.1426v4.9145h3.8745v-4.9145zM211.1592,183.6997h1.4355v6.3574h4.0213v-6.3574h1.443v7.8003h-1.443v-1.3184c-0.015,0.1807 -0.064,0.3516 -0.147,0.5127c-0.083,0.1612 -0.19,0.3028 -0.322,0.4248c-0.127,0.1172 -0.273,0.21 -0.439,0.2784c-0.166,0.0683 -0.342,0.1025 -0.528,0.1025h-2.5853c-0.1953,0 -0.3808,-0.0366 -0.5566,-0.1099c-0.1758,-0.0781 -0.3296,-0.1806 -0.4614,-0.3076c-0.127,-0.1318 -0.2295,-0.2856 -0.3077,-0.4614c-0.0732,-0.1758 -0.1098,-0.3638 -0.1098,-0.564zM226.577,191.5l-2.52,-7.8003h1.458l1.845,5.8814l1.722,-5.8814h1.472l1.721,5.8814l1.846,-5.8814h1.457l-2.519,7.8003h-1.502l-1.743,-5.7275l-1.736,5.7275zM238.603,183.6997v7.8003h-1.443v-7.8003zM237.087,180.6968h1.589v1.5014h-1.589zM242.521,180.6968v10.8032h-1.435v-10.8032zM246.359,180.6968v10.8032h-1.435v-10.8032zM250.278,183.6997v7.8003h-1.443v-7.8003zM248.762,180.6968h1.589v1.5014h-1.589zM259.66,191.5h-1.443v-6.3574h-4.021v6.3574h-1.435v-7.8003h1.435v1.377c0.01,-0.1905 0.054,-0.3687 0.132,-0.5347c0.078,-0.1709 0.181,-0.3174 0.308,-0.4395c0.132,-0.1269 0.283,-0.2246 0.454,-0.2929c0.171,-0.0733 0.354,-0.1099 0.549,-0.1099h2.578c0.2,0 0.388,0.0391 0.564,0.1172c0.176,0.0732 0.327,0.1758 0.454,0.3076c0.132,0.127 0.235,0.2783 0.308,0.4541c0.078,0.1758 0.117,0.3638 0.117,0.564zM262.062,185.1426c0,-0.2002 0.037,-0.3882 0.11,-0.564c0.078,-0.1758 0.181,-0.3271 0.308,-0.4541c0.132,-0.1318 0.286,-0.2344 0.461,-0.3076c0.176,-0.0781 0.362,-0.1172 0.557,-0.1172h2.585c0.191,0 0.372,0.0366 0.542,0.1099c0.171,0.0683 0.32,0.166 0.447,0.2929c0.132,0.1221 0.237,0.2686 0.315,0.4395c0.083,0.166 0.127,0.3442 0.132,0.5347v-1.377h1.443v9.5068c0,0.2002 -0.039,0.3882 -0.117,0.564c-0.074,0.1758 -0.176,0.3272 -0.308,0.4541c-0.127,0.1318 -0.278,0.2344 -0.454,0.3076c-0.176,0.0782 -0.364,0.1172 -0.564,0.1172h-4.556v-1.4429h4.556v-2.0068h-4.021c-0.195,0 -0.381,-0.0366 -0.557,-0.1099c-0.175,-0.0781 -0.329,-0.1806 -0.461,-0.3076c-0.127,-0.1318 -0.23,-0.2856 -0.308,-0.4614c-0.073,-0.1758 -0.11,-0.3638 -0.11,-0.564zM267.519,189.7568v-4.6142h-4.021v4.6142zM275.407,183.6997h1.905v-2.4023h1.442v2.4023h2.564v1.4429h-2.564v4.9145h2.564v1.4429h-2.564c-0.195,0 -0.38,-0.0366 -0.556,-0.1099c-0.176,-0.0781 -0.33,-0.1806 -0.462,-0.3076c-0.132,-0.1318 -0.236,-0.2856 -0.315,-0.4614c-0.073,-0.1758 -0.109,-0.3638 -0.109,-0.564v-4.9145h-1.905zM290.473,190.0571c0,0.2002 -0.039,0.3882 -0.117,0.564c-0.073,0.1758 -0.176,0.3296 -0.308,0.4614c-0.127,0.127 -0.278,0.2295 -0.454,0.3076c-0.171,0.0733 -0.356,0.1099 -0.556,0.1099h-3.875c-0.195,0 -0.381,-0.0366 -0.557,-0.1099c-0.175,-0.0781 -0.329,-0.1806 -0.461,-0.3076c-0.127,-0.1318 -0.229,-0.2856 -0.308,-0.4614c-0.073,-0.1758 -0.109,-0.3638 -0.109,-0.564v-4.9145c0,-0.2002 0.036,-0.3882 0.109,-0.564c0.079,-0.1758 0.181,-0.3271 0.308,-0.4541c0.132,-0.1318 0.286,-0.2344 0.461,-0.3076c0.176,-0.0781 0.362,-0.1172 0.557,-0.1172h3.875c0.2,0 0.385,0.0391 0.556,0.1172c0.176,0.0732 0.327,0.1758 0.454,0.3076c0.132,0.127 0.235,0.2783 0.308,0.4541c0.078,0.1758 0.117,0.3638 0.117,0.564zM285.163,185.1426v4.9145h3.875v-4.9145zM297.38,185.1426c0,-0.2002 0.037,-0.3882 0.11,-0.564c0.078,-0.1758 0.18,-0.3271 0.307,-0.4541c0.132,-0.1318 0.286,-0.2344 0.462,-0.3076c0.176,-0.0781 0.361,-0.1172 0.556,-0.1172h4.021v-3.0029h1.443v10.8032h-1.443v-1.3184c-0.014,0.1807 -0.063,0.3516 -0.146,0.5127c-0.083,0.1612 -0.19,0.3028 -0.322,0.4248c-0.127,0.1172 -0.274,0.21 -0.44,0.2784c-0.166,0.0683 -0.342,0.1025 -0.527,0.1025h-2.586c-0.195,0 -0.38,-0.0366 -0.556,-0.1099c-0.176,-0.0781 -0.33,-0.1806 -0.462,-0.3076c-0.127,-0.1318 -0.229,-0.2856 -0.307,-0.4614c-0.073,-0.1758 -0.11,-0.3638 -0.11,-0.564zM298.815,190.0571h4.021v-4.9145h-4.021zM313.427,190.0571c0,0.2002 -0.039,0.3882 -0.117,0.564c-0.073,0.1758 -0.176,0.3296 -0.308,0.4614c-0.127,0.127 -0.278,0.2295 -0.454,0.3076c-0.171,0.0733 -0.356,0.1099 -0.556,0.1099h-3.875c-0.195,0 -0.381,-0.0366 -0.556,-0.1099c-0.176,-0.0781 -0.33,-0.1806 -0.462,-0.3076c-0.127,-0.1318 -0.229,-0.2856 -0.307,-0.4614c-0.074,-0.1758 -0.11,-0.3638 -0.11,-0.564v-4.9145c0,-0.2002 0.036,-0.3882 0.11,-0.564c0.078,-0.1758 0.18,-0.3271 0.307,-0.4541c0.132,-0.1318 0.286,-0.2344 0.462,-0.3076c0.175,-0.0781 0.361,-0.1172 0.556,-0.1172h3.875c0.2,0 0.385,0.0391 0.556,0.1172c0.176,0.0732 0.327,0.1758 0.454,0.3076c0.132,0.127 0.235,0.2783 0.308,0.4541c0.078,0.1758 0.117,0.3638 0.117,0.564zM308.117,185.1426v4.9145h3.875v-4.9145zM317.653,186.6074c0,-0.2051 0.02,-0.3882 0.059,-0.5493c0.044,-0.1611 0.107,-0.3052 0.19,-0.4321c0.083,-0.127 0.191,-0.2417 0.323,-0.3443c0.136,-0.1074 0.295,-0.205 0.476,-0.2929l1.933,-0.9302v-1.5601h-3.596v1.355h-1.501v-1.355c0,-0.205 0.039,-0.3979 0.117,-0.5786c0.078,-0.1855 0.185,-0.3442 0.322,-0.4761c0.137,-0.1367 0.295,-0.2441 0.476,-0.3222c0.186,-0.083 0.381,-0.1245 0.586,-0.1245h3.596c0.205,0 0.398,0.0415 0.579,0.1245c0.185,0.0781 0.347,0.1855 0.483,0.3222c0.137,0.1319 0.244,0.2906 0.323,0.4761c0.078,0.1807 0.117,0.3736 0.117,0.5786v1.2891c0,0.2051 -0.02,0.3882 -0.059,0.5493c-0.039,0.1611 -0.1,0.3076 -0.183,0.4395c-0.083,0.1269 -0.193,0.2417 -0.33,0.3442c-0.131,0.1025 -0.29,0.2002 -0.476,0.293l-1.941,0.9228v1.2671h-1.494zM317.353,189.3101h2.19v2.1899h-2.19z"/></g></g></svg>