<svg version="1.1" xmlns="http://www.w3.org/2000/svg" xmlns:xlink="http://www.w3.org/1999/xlink" width="43.03933" height="21.84167" viewBox="0,0,43.03933,21.84167"><g transform="translate(-218.48034,-169.07917)"><g data-paper-data="{&quot;isPaintingLayer&quot;:true}" fill="#000000" fill-rule="nonzero" stroke-width="0" stroke-linecap="butt" stroke-linejoin="miter" stroke-miterlimit="10" stroke-dasharray="" stroke-dashoffset="0" style="mix-blend-mode: normal"><path d="M251.02236,178.4963v3.10775h-22.2423v-3.10775z" stroke="#ffc85e"/><path d="M222.14923,171.03129c0,-1.161 0.56384,-1.93851 1.36004,-1.94715c1.56901,-0.01704 4.04034,0.01516 4.87704,0.01516c0.56606,0 1.10065,0.65373 1.10065,1.64449c0,4.42494 0,16.71973 0,18.91742c0,0.65891 -0.47985,1.23049 -0.92801,1.23049c-0.874,0 -3.98053,0 -5.52489,0c-0.53679,0 -0.88485,-0.78579 -0.88485,-1.63298c0,-2.36578 0,-13.69971 0,-18.22742z" stroke="none"/><path d="M250.51305,171.06042c0,-1.161 0.56384,-1.93851 1.36004,-1.94715c1.56901,-0.01704 4.04034,0.01516 4.87704,0.01516c0.56606,0 1.10065,0.65373 1.10065,1.64449c0,4.42494 0,16.71973 0,18.91742c0,0.65891 -0.47985,1.23049 -0.92801,1.23049c-0.874,0 -3.98053,0 -5.52489,0c-0.53679,0 -0.88485,-0.78579 -0.88485,-1.63298c0,-2.36578 0,-13.69971 0,-18.22742z" stroke="none"/><path d="M218.48034,173.00487c0,-0.87153 0.56384,-1.45517 1.36004,-1.46166c1.56901,-0.01278 4.04034,0.01137 4.87704,0.01137c0.56606,0 1.10065,0.49073 1.10065,1.23447c0,3.32166 0,12.55097 0,14.2007c0,0.49462 -0.47985,0.92369 -0.92801,0.92369c-0.874,0 -3.98053,0 -5.52489,0c-0.53679,0 -0.88485,-0.58988 -0.88485,-1.22584c0,-1.77592 0,-10.28392 0,-13.68273z" stroke="none"/><path d="M254.18193,173.32858c0,-0.87153 0.56384,-1.45517 1.36004,-1.46166c1.56901,-0.01278 4.04034,0.01137 4.87704,0.01137c0.56606,0 1.10065,0.49073 1.10065,1.23447c0,3.32166 0,12.55097 0,14.2007c0,0.49462 -0.47985,0.92369 -0.92801,0.92369c-0.874,0 -3.98053,0 -5.52489,0c-0.53679,0 -0.88485,-0.58988 -0.88485,-1.22584c0,-1.77592 0,-10.28392 0,-13.68273z" stroke="none"/></g></g></svg>