<svg version="1.1" xmlns="http://www.w3.org/2000/svg" xmlns:xlink="http://www.w3.org/1999/xlink" width="223.43983" height="199.83704" viewBox="0,0,223.43983,199.83704"><g transform="translate(-128.28008,-65.82813)"><g data-paper-data="{&quot;isPaintingLayer&quot;:true}" fill-rule="nonzero" stroke-linejoin="miter" stroke-miterlimit="10" stroke-dasharray="" stroke-dashoffset="0" style="mix-blend-mode: normal"><path d="M202.38284,161.93528l-5.20829,-19.83996c-0.45729,-1.7352 -1.30692,-3.33326 -2.39954,-4.75463c-4.29738,-5.59903 -14.80521,-21.09512 -8.58095,-31.72732c5.22594,-8.92724 4.29355,-34.22213 53.92863,-35.28524c54.13639,-1.15952 49.20786,21.24134 55.68634,32.60397c6.82433,11.97042 -6.38719,27.89857 -10.96357,32.85904c-0.96309,1.04456 -1.78273,2.20843 -2.36828,3.50846l-9.4252,20.90641" fill="none" stroke="#ffae4e" stroke-width="9" stroke-linecap="round"/><path d="M296.84553,162.49661c3.64506,20.2181 -3.55228,41.60202 -20.13253,49.22546l-35.00448,0.7227l-38.22779,0.7907c-14.48986,-7.30947 -23.37118,-28.45534 -20.81561,-48.37859c3.43449,-26.75101 23.81561,-44.09359 55.345,-44.74541c31.52939,-0.65182 54.02529,15.71844 58.83541,42.38514z" fill="#ffae4e" stroke="none" stroke-width="1" stroke-linecap="butt"/><g fill="#ffae4e" stroke="none" stroke-width="1" stroke-linecap="butt"><path d="M134.4696,231.63736v14.02182l15.49328,-14.02182h6.5461l-17.57706,15.92375l18.27909,16.55774h-6.5461l-16.19529,-14.60941v14.60941h-4.64322v-32.48151zM181.40217,254.3339h-15.96892v5.32235h15.96892v4.46262h-15.96892c-0.60398,0 -1.17767,-0.11443 -1.72134,-0.34019c-0.54368,-0.24122 -1.01932,-0.55976 -1.42692,-0.94943c-0.39276,-0.40822 -0.70975,-0.88447 -0.95158,-1.42878c-0.22637,-0.54429 -0.33957,-1.1257 -0.33957,-1.74422v-15.19701c0,-0.6216 0.1132,-1.20302 0.33957,-1.74422c0.24184,-0.54429 0.55884,-1.01438 0.95158,-1.40403c0.40761,-0.40822 0.88325,-0.72676 1.42692,-0.95252c0.54368,-0.24122 1.11735,-0.36184 1.72134,-0.36184h11.50661c0.61914,0 1.20055,0.12062 1.74422,0.36184c0.54368,0.22576 1.0116,0.54429 1.40435,0.95252c0.40761,0.38966 0.7249,0.85974 0.95127,1.40403c0.24153,0.54121 0.36245,1.12261 0.36245,1.74422zM165.43326,244.45925v5.41204h11.50661v-5.41204zM187.45005,239.99665h5.88921v-7.4315h4.46199v7.4315h7.92786v4.46262h-7.92786v15.19701h7.92786v4.46262h-7.92786c-0.60398,0 -1.17767,-0.11443 -1.72134,-0.34019c-0.54368,-0.24122 -1.01932,-0.55976 -1.42692,-0.94943c-0.40791,-0.40822 -0.73232,-0.88447 -0.97418,-1.42878c-0.22637,-0.54429 -0.33957,-1.1257 -0.33957,-1.74422v-15.19701h-5.88921zM211.77699,239.99665h5.88921v-7.4315h4.46199v7.4315h7.92786v4.46262h-7.92786v15.19701h7.92786v4.46262h-7.92786c-0.60398,0 -1.17767,-0.11443 -1.72134,-0.34019c-0.54368,-0.24122 -1.01932,-0.55976 -1.42692,-0.94943c-0.40791,-0.40822 -0.73232,-0.88447 -0.97418,-1.42878c-0.22637,-0.54429 -0.33957,-1.1257 -0.33957,-1.74422v-15.19701h-5.88921zM241.94771,230.70959v33.40929h-4.43942v-33.40929zM269.78568,254.3339h-15.96892v5.32235h15.96892v4.46262h-15.96892c-0.60398,0 -1.17767,-0.11443 -1.72134,-0.34019c-0.54368,-0.24122 -1.01932,-0.55976 -1.42692,-0.94943c-0.39276,-0.40822 -0.70975,-0.88447 -0.95158,-1.42878c-0.22637,-0.54429 -0.33957,-1.1257 -0.33957,-1.74422v-15.19701c0,-0.6216 0.1132,-1.20302 0.33957,-1.74422c0.24184,-0.54429 0.55884,-1.01438 0.95158,-1.40403c0.40761,-0.40822 0.88325,-0.72676 1.42692,-0.95252c0.54368,-0.24122 1.11735,-0.36184 1.72134,-0.36184h11.50661c0.61914,0 1.20055,0.12062 1.74422,0.36184c0.54368,0.22576 1.0116,0.54429 1.40435,0.95252c0.40761,0.38966 0.7249,0.85974 0.95127,1.40403c0.24153,0.54121 0.36245,1.12261 0.36245,1.74422zM253.81677,244.45925v5.41204h11.50661v-5.41204zM298.57495,259.65625c0,0.61853 -0.12093,1.19992 -0.36245,1.74422c-0.22637,0.54429 -0.54368,1.02055 -0.95127,1.42878c-0.39276,0.38966 -0.86067,0.7082 -1.40435,0.94943c-0.54368,0.22576 -1.12508,0.34019 -1.74422,0.34019h-12.43532c-0.60398,0 -1.17767,-0.11443 -1.72134,-0.34019c-0.54368,-0.24122 -1.01932,-0.55976 -1.42692,-0.94943c-0.39276,-0.40822 -0.70975,-0.88447 -0.95158,-1.42878c-0.22637,-0.54429 -0.33957,-1.1257 -0.33957,-1.74422v-28.94667h4.43942v13.54555c0.03031,-0.59068 0.16607,-1.14117 0.40791,-1.65454c0.24153,-0.52882 0.55853,-0.98034 0.95127,-1.35765c0.40761,-0.39276 0.87581,-0.69584 1.40435,-0.90613c0.52851,-0.22885 1.09478,-0.34019 1.69877,-0.34019h7.97301c0.61914,0 1.20055,0.12062 1.74422,0.36184c0.54368,0.22576 1.0116,0.54429 1.40435,0.95252c0.40761,0.38966 0.7249,0.85974 0.95127,1.40403c0.24153,0.54121 0.36245,1.12261 0.36245,1.74422zM281.67733,244.45925v15.19701h12.43532v-15.19701zM326.41291,254.3339h-15.96892v5.32235h15.96892v4.46262h-15.96892c-0.60398,0 -1.17796,-0.11443 -1.72165,-0.34019c-0.54338,-0.24122 -1.01932,-0.55976 -1.42692,-0.94943c-0.39245,-0.40822 -0.70975,-0.88447 -0.95127,-1.42878c-0.22637,-0.54429 -0.33988,-1.1257 -0.33988,-1.74422v-15.19701c0,-0.6216 0.11351,-1.20302 0.33988,-1.74422c0.24153,-0.54429 0.55884,-1.01438 0.95127,-1.40403c0.40761,-0.40822 0.88355,-0.72676 1.42692,-0.95252c0.54368,-0.24122 1.11766,-0.36184 1.72165,-0.36184h11.50661c0.61914,0 1.20055,0.12062 1.74392,0.36184c0.54368,0.22576 1.01191,0.54429 1.40435,0.95252c0.40791,0.38966 0.7249,0.85974 0.95158,1.40403c0.24153,0.54121 0.36245,1.12261 0.36245,1.74422zM310.444,244.45925v5.41204h11.50661v-5.41204zM338.30454,230.70959v33.40929h-4.43972v-33.40929zM350.17361,230.70959v33.40929h-4.43972v-33.40929z"/><path d="M134.4696,230.09139h1.5463v1.54599h-1.5463zM135.50716,246.80344l-2.58388,2.34108v-3.48534h1.5463zM148.9253,230.49002l0.44162,-0.39865h0.59594v1.54599zM156.50896,230.09139h4.00986l-2.97167,2.69334l-1.03819,-1.14735zM137.89373,248.70848l-1.26518,-1.14735l1.26518,-1.14735l1.03819,1.14735zM158.24917,262.97152l2.97228,2.69364h-4.01047v-1.5463zM150.6649,265.66517h-0.5944l-0.44131,-0.39895l1.03571,-1.14735zM132.92331,249.50947v-3.47917l2.582,2.33182l-1.03571,1.14735zM136.01589,264.11887v1.5463h-1.5463v-1.5463zM129.82638,265.66517h-1.5463v-1.5463h1.5463zM128.28009,231.63736v-1.54599h1.5463v1.54599zM136.01589,231.63736v14.02182h-3.09259v-14.02182zM133.43205,244.51184l15.49328,-14.02182l2.07513,2.29471l-15.49328,14.01871zM149.96287,230.09139h6.5461v3.09227h-6.5461zM157.54715,232.78471l-17.57706,15.92375l-2.07636,-2.29471l17.57706,-15.92067zM139.97009,246.41377l18.27909,16.55774l-2.07606,2.29471l-18.2794,-16.55774zM157.21099,265.66517h-6.5461v-3.09259h6.5461zM149.62918,265.26621l-16.19529,-14.60941l2.07141,-2.29471l16.19529,14.60941zM136.01589,249.50947v14.60941h-3.09259v-14.60941zM134.4696,265.66517h-4.64322v-3.09259h4.64322zM128.28009,264.11887v-32.48151h3.09259v32.48151zM129.82638,230.09139h4.64322v3.09227h-4.64322zM182.94845,254.3339v1.5463h-1.5463v-1.5463zM163.88696,254.3339v-1.5463h1.5463v1.5463zM165.43326,261.20255h-1.5463v-1.5463h1.5463zM181.40217,258.10996h1.5463v1.5463h-1.5463zM182.94845,264.11887v1.5463h-1.5463v-1.5463zM163.11722,265.20747l-0.03341,-0.01546l0.6281,-1.41331zM161.21218,263.9426l-0.02103,-0.02165l-0.02009,-0.02165l1.11394,-1.07005zM159.92041,262.02828l-0.01454,-0.03401l1.42754,-0.59378zM159.90617,242.11816l0.01393,-0.03401l1.41331,0.63089zM164.34004,241.77179l-0.03341,0.01546l-0.59471,-1.42878zM178.08939,241.78416l-0.03341,-0.01237l0.6281,-1.41331zM179.01593,242.42434l-0.02103,-0.02165l-0.0204,-0.02165l1.11394,-1.07005zM179.62671,243.34284l-0.01484,-0.03401l1.42785,-0.59378zM163.88696,244.45925v-1.5463h1.5463v1.5463zM165.43326,251.41759h-1.5463v-1.5463h1.5463zM178.48617,249.87129v1.5463h-1.5463v-1.5463zM176.93987,242.91296h1.5463v1.5463h-1.5463zM181.40217,255.88021h-15.96892v-3.09259h15.96892zM166.97955,254.3339v5.32235h-3.09259v-5.32235zM165.43326,258.10996h15.96892v3.09259h-15.96892zM182.94845,259.65625v4.46262h-3.09259v-4.46262zM181.40217,265.66517h-15.96892v-3.09259h15.96892zM165.43326,265.66517c-0.80285,0 -1.57908,-0.15153 -2.31604,-0.4577l1.18941,-2.85445c0.35038,0.14535 0.72151,0.21957 1.12664,0.21957zM163.08382,265.192c-0.69955,-0.31235 -1.32764,-0.72676 -1.87163,-1.24941l2.14535,-2.22976c0.27152,0.26288 0.59471,0.48245 0.98253,0.65254zM161.17104,263.89929c-0.52357,-0.54429 -0.93953,-1.1721 -1.25064,-1.87101l2.82633,-1.25558c0.17227,0.38656 0.39059,0.7113 0.65192,0.98344zM159.90617,261.99426c-0.30894,-0.73913 -0.45863,-1.52465 -0.45863,-2.33799h3.09259c0,0.42677 0.0767,0.80407 0.2208,1.15045zM159.44755,259.65625v-15.19701h3.09259v15.19701zM159.44755,244.45925c0,-0.81335 0.14968,-1.59887 0.45863,-2.34108l2.85476,1.19065c-0.14411,0.34636 -0.2208,0.72366 -0.2208,1.15045zM159.92041,242.08724c0.31329,-0.70511 0.7348,-1.33599 1.27106,-1.87101l2.18678,2.18646c-0.24895,0.25049 -0.46172,0.55667 -0.63151,0.94014zM161.19146,240.21623c0.55357,-0.55357 1.19961,-0.98344 1.92576,-1.28652l1.18941,2.85445c-0.36121,0.15153 -0.66646,0.35565 -0.92839,0.61853zM163.08382,238.94516c0.7444,-0.3309 1.53269,-0.49481 2.34943,-0.49481v3.09259c-0.3909,0 -0.75057,0.07731 -1.09323,0.22885zM165.43326,238.45035h11.50661v3.09259h-11.50661zM176.93987,238.45035c0.82665,0 1.62268,0.16083 2.37234,0.49481l-1.25621,2.82664c-0.33772,-0.15153 -0.70419,-0.22885 -1.11613,-0.22885zM179.27879,238.9297c0.73109,0.30617 1.37807,0.74221 1.92361,1.30817l-2.22791,2.14316c-0.23966,-0.24739 -0.52882,-0.44842 -0.88511,-0.59687zM181.16095,240.19458c0.56656,0.54738 1.00169,1.19373 1.30631,1.92361l-2.85476,1.19065c-0.14844,-0.35565 -0.34761,-0.64634 -0.59657,-0.88447zM182.45273,242.08724c0.33307,0.74841 0.49575,1.54321 0.49575,2.37203h-3.09259c0,-0.41441 -0.07886,-0.77933 -0.22916,-1.11642zM182.94845,244.45925v9.87466h-3.09259v-9.87466zM166.97955,244.45925v5.41204h-3.09259v-5.41204zM165.43326,248.32501h11.50661v3.09259h-11.50661zM175.39357,249.87129v-5.41204h3.09259v5.41204zM176.93987,246.00555h-11.50661v-3.09259h11.50661zM185.90375,239.99665v-1.5463h1.5463v1.5463zM194.88558,239.99665v1.5463h-1.5463v-1.5463zM191.79297,232.56514v-1.5463h1.5463v1.5463zM197.80127,231.01884h1.5463v1.5463h-1.5463zM197.80127,241.54293h-1.5463v-1.5463h1.5463zM205.72913,238.45035h1.5463v1.5463h-1.5463zM207.27541,244.45925v1.5463h-1.5463v-1.5463zM196.25495,244.45925v-1.5463h1.5463v1.5463zM197.80127,261.20255h-1.5463v-1.5463h1.5463zM205.72913,258.10996h1.5463v1.5463h-1.5463zM207.27541,264.11887v1.5463h-1.5463v-1.5463zM195.48521,265.20747l-0.03341,-0.01546l0.6281,-1.41331zM193.58019,263.9426l-0.02071,-0.02165l1.09354,-1.09169zM192.26582,262.02828l-0.01454,-0.03401l1.42754,-0.59378zM193.33927,242.91296h1.5463v1.5463h-1.5463zM187.45005,246.00555h-1.5463v-1.5463h1.5463zM187.45005,238.45035h5.88921v3.09259h-5.88921zM191.79297,239.99665v-7.4315h3.09259v7.4315zM193.33927,231.01884h4.46199v3.09259h-4.46199zM199.34756,232.56514v7.4315h-3.09259v-7.4315zM197.80127,238.45035h7.92786v3.09259h-7.92786zM207.27541,239.99665v4.46262h-3.09259v-4.46262zM205.72913,246.00555h-7.92786v-3.09259h7.92786zM199.34756,244.45925v15.19701h-3.09259v-15.19701zM197.80127,258.10996h7.92786v3.09259h-7.92786zM207.27541,259.65625v4.46262h-3.09259v-4.46262zM205.72913,265.66517h-7.92786v-3.09259h7.92786zM197.80127,265.66517c-0.80285,0 -1.57908,-0.15153 -2.31604,-0.4577l1.18941,-2.85445c0.35038,0.14535 0.72151,0.21957 1.12664,0.21957zM195.45182,265.192c-0.69955,-0.31235 -1.32764,-0.72676 -1.87163,-1.24941l2.14535,-2.22976c0.27152,0.26288 0.59471,0.48245 0.98253,0.65254zM193.55946,263.92094c-0.54615,-0.54738 -0.97725,-1.18138 -1.29363,-1.89267l2.82601,-1.25558c0.16701,0.3773 0.38534,0.69274 0.65439,0.96179zM192.2516,261.99426c-0.30894,-0.73913 -0.45863,-1.52465 -0.45863,-2.33799h3.09259c0,0.42677 0.0767,0.80407 0.2208,1.15045zM191.79297,259.65625v-15.19701h3.09259v15.19701zM193.33927,246.00555h-5.88921v-3.09259h5.88921zM185.90375,244.45925v-4.46262h3.09259v4.46262zM210.2307,239.99665v-1.5463h1.5463v1.5463zM219.21251,239.99665v1.5463h-1.5463v-1.5463zM216.11993,232.56514v-1.5463h1.5463v1.5463zM222.12821,231.01884h1.5463v1.5463h-1.5463zM222.12821,241.54293h-1.5463v-1.5463h1.5463zM230.05607,238.45035h1.5463v1.5463h-1.5463zM231.60237,244.45925v1.5463h-1.5463v-1.5463zM220.58191,244.45925v-1.5463h1.5463v1.5463zM222.12821,261.20255h-1.5463v-1.5463h1.5463zM230.05607,258.10996h1.5463v1.5463h-1.5463zM231.60237,264.11887v1.5463h-1.5463v-1.5463zM219.81217,265.20747l-0.03341,-0.01546l0.6281,-1.41331zM217.90743,263.9426l-0.02103,-0.02165l1.09354,-1.09169zM216.59278,262.02828l-0.01454,-0.03401l1.42754,-0.59378zM217.66622,242.91296h1.5463v1.5463h-1.5463zM211.77699,246.00555h-1.5463v-1.5463h1.5463zM211.77699,238.45035h5.88921v3.09259h-5.88921zM216.11993,239.99665v-7.4315h3.09259v7.4315zM217.66622,231.01884h4.46199v3.09259h-4.46199zM223.6745,232.56514v7.4315h-3.09259v-7.4315zM222.12821,238.45035h7.92786v3.09259h-7.92786zM231.60237,239.99665v4.46262h-3.09259v-4.46262zM230.05607,246.00555h-7.92786v-3.09259h7.92786zM223.6745,244.45925v15.19701h-3.09259v-15.19701zM222.12821,258.10996h7.92786v3.09259h-7.92786zM231.60237,259.65625v4.46262h-3.09259v-4.46262zM230.05607,265.66517h-7.92786v-3.09259h7.92786zM222.12821,265.66517c-0.80253,0 -1.57908,-0.15153 -2.31604,-0.4577l1.18941,-2.85445c0.35038,0.14535 0.72151,0.21957 1.12664,0.21957zM219.77878,265.192c-0.69955,-0.31235 -1.32764,-0.72676 -1.87132,-1.24941l2.14502,-2.22976c0.27152,0.26288 0.59471,0.48245 0.98253,0.65254zM217.88641,263.92094c-0.54615,-0.54738 -0.97725,-1.18138 -1.29363,-1.89267l2.82601,-1.25558c0.1673,0.3773 0.38534,0.69274 0.65439,0.96179zM216.57856,261.99426c-0.30894,-0.73913 -0.45863,-1.52465 -0.45863,-2.33799h3.09259c0,0.42677 0.0767,0.80407 0.2208,1.15045zM216.11993,259.65625v-15.19701h3.09259v15.19701zM217.66622,246.00555h-5.88921v-3.09259h5.88921zM210.2307,244.45925v-4.46262h3.09259v4.46262zM241.94771,229.16267h1.5463v1.54691h-1.5463zM243.49401,264.11887v1.5463h-1.5463v-1.5463zM237.50829,265.66517h-1.5463v-1.5463h1.5463zM235.96199,230.70959v-1.54691h1.5463v1.54691zM243.49401,230.70959v33.40929h-3.09259v-33.40929zM241.94771,265.66517h-4.43942v-3.09259h4.43942zM235.96199,264.11887v-33.40929h3.09259v33.40929zM237.50829,229.16267h4.43942v3.09321h-4.43942zM271.33198,254.3339v1.5463h-1.5463v-1.5463zM252.27047,254.3339v-1.5463h1.5463v1.5463zM253.81677,261.20255h-1.5463v-1.5463h1.5463zM269.78568,258.10996h1.5463v1.5463h-1.5463zM271.33198,264.11887v1.5463h-1.5463v-1.5463zM251.50073,265.20747l-0.03341,-0.01546l0.6281,-1.41331zM249.5957,263.9426l-0.02103,-0.02165l-0.02009,-0.02165l1.11394,-1.07005zM248.30392,262.02828l-0.01454,-0.03401l1.42754,-0.59378zM248.28968,242.11816l0.01393,-0.03401l1.41331,0.63089zM252.72355,241.77179l-0.03341,0.01546l-0.59471,-1.42878zM266.4729,241.78416l-0.03341,-0.01237l0.6281,-1.41331zM267.39945,242.42434l-0.02103,-0.02165l-0.0204,-0.02165l1.11394,-1.07005zM268.01022,243.34284l-0.01454,-0.03401l1.42754,-0.59378zM252.27047,244.45925v-1.5463h1.5463v1.5463zM253.81677,251.41759h-1.5463v-1.5463h1.5463zM266.86968,249.87129v1.5463h-1.5463v-1.5463zM265.32338,242.91296h1.5463v1.5463h-1.5463zM269.78568,255.88021h-15.96892v-3.09259h15.96892zM255.36307,254.3339v5.32235h-3.09259v-5.32235zM253.81677,258.10996h15.96892v3.09259h-15.96892zM271.33198,259.65625v4.46262h-3.09259v-4.46262zM269.78568,265.66517h-15.96892v-3.09259h15.96892zM253.81677,265.66517c-0.80285,0 -1.57908,-0.15153 -2.31604,-0.4577l1.18941,-2.85445c0.35038,0.14535 0.72151,0.21957 1.12664,0.21957zM251.46734,265.192c-0.69955,-0.31235 -1.32764,-0.72676 -1.87163,-1.24941l2.14535,-2.22976c0.27152,0.26288 0.59471,0.48245 0.98253,0.65254zM249.55455,263.89929c-0.52357,-0.54429 -0.93953,-1.1721 -1.25064,-1.87101l2.82633,-1.25558c0.17227,0.38656 0.39059,0.7113 0.65192,0.98344zM248.28968,261.99426c-0.30894,-0.73913 -0.45863,-1.52465 -0.45863,-2.33799h3.09259c0,0.42677 0.0767,0.80407 0.2208,1.15045zM247.83106,259.65625v-15.19701h3.09259v15.19701zM247.83106,244.45925c0,-0.81335 0.14968,-1.59887 0.45863,-2.34108l2.85476,1.19065c-0.14411,0.34636 -0.2208,0.72366 -0.2208,1.15045zM248.30392,242.08724c0.31329,-0.70511 0.7348,-1.33599 1.27106,-1.87101l2.18678,2.18646c-0.24895,0.25049 -0.46172,0.55667 -0.63151,0.94014zM249.57498,240.21623c0.55357,-0.55357 1.19961,-0.98344 1.92576,-1.28652l1.18941,2.85445c-0.36121,0.15153 -0.66646,0.35565 -0.92839,0.61853zM251.46734,238.94516c0.7444,-0.3309 1.53269,-0.49481 2.34943,-0.49481v3.09259c-0.3909,0 -0.75057,0.07731 -1.09323,0.22885zM253.81677,238.45035h11.50661v3.09259h-11.50661zM265.32338,238.45035c0.82665,0 1.62268,0.16083 2.37234,0.49481l-1.25621,2.82664c-0.33772,-0.15153 -0.70419,-0.22885 -1.11613,-0.22885zM267.66231,238.9297c0.73109,0.30617 1.37807,0.74221 1.92361,1.30817l-2.22791,2.14316c-0.23966,-0.24739 -0.52882,-0.44842 -0.88511,-0.59687zM269.54446,240.19458c0.56656,0.54738 1.00169,1.19373 1.30631,1.92361l-2.85476,1.19065c-0.14844,-0.35565 -0.34761,-0.64634 -0.59657,-0.88447zM270.83623,242.08724c0.33307,0.74841 0.49575,1.54321 0.49575,2.37203h-3.09259c0,-0.41441 -0.07886,-0.77933 -0.22916,-1.11642zM271.33198,244.45925v9.87466h-3.09259v-9.87466zM255.36307,244.45925v5.41204h-3.09259v-5.41204zM253.81677,248.32501h11.50661v3.09259h-11.50661zM263.77708,249.87129v-5.41204h3.09259v5.41204zM265.32338,246.00555h-11.50661v-3.09259h11.50661zM296.78525,260.8067l0.01393,-0.03401l1.41331,0.62779zM296.16766,261.73448l1.09354,1.09478zM296.48466,265.192l-0.0331,0.01546l-0.59471,-1.42878zM279.36127,265.20747l-0.03341,-0.01546l0.6281,-1.41331zM277.45624,263.9426l-0.02103,-0.02165l-0.02009,-0.02165l1.11394,-1.07005zM276.16447,262.02828l-0.01454,-0.03401l1.42754,-0.59378zM275.69161,230.70959v-1.54691h1.5463v1.54691zM281.67733,229.16267h1.5463v1.54691h-1.5463zM283.22175,244.33246l-3.09074,-0.07731h1.5463zM283.49144,243.24386l-0.00711,0.01546l-1.39909,-0.65873zM284.10903,242.35628h-0.00093l-1.07158,-1.11334zM285.0498,241.75632l-0.03463,0.01546l-0.5743,-1.43496zM295.26216,241.78416l-0.03341,-0.01237l0.6281,-1.41331zM296.18868,242.42434l-0.02103,-0.02165l-0.0204,-0.02165l1.11394,-1.07005zM296.79948,243.34284l-0.01484,-0.03401l1.42785,-0.59378zM280.13102,244.45925v-1.5463h1.5463v1.5463zM281.67733,261.20255h-1.5463v-1.5463h1.5463zM295.65892,259.65625v1.5463h-1.5463v-1.5463zM294.11264,242.91296h1.5463v1.5463h-1.5463zM300.12122,259.65625c0,0.82573 -0.16267,1.62362 -0.49575,2.37203l-2.82601,-1.25558c0.15,-0.33709 0.22916,-0.70511 0.22916,-1.11642zM299.6397,261.99426c-0.30246,0.72676 -0.73139,1.37311 -1.28527,1.92668l-2.18678,-2.18646c0.26193,-0.26288 0.46698,-0.56595 0.61758,-0.92778zM298.35443,263.92094c-0.53596,0.53501 -1.16497,0.95869 -1.86979,1.27106l-1.25589,-2.82664c0.38255,-0.17009 0.68996,-0.3804 0.93892,-0.63089zM296.45156,265.20747c-0.74161,0.30925 -1.52619,0.4577 -2.33892,0.4577v-3.09259c0.42555,0 0.80377,-0.07731 1.14952,-0.21957zM294.11264,265.66517h-12.43532v-3.09259h12.43532zM281.67733,265.66517c-0.80285,0 -1.57908,-0.15153 -2.31604,-0.4577l1.18941,-2.85445c0.35038,0.14535 0.72151,0.21957 1.12664,0.21957zM279.32787,265.192c-0.69955,-0.31235 -1.32764,-0.72676 -1.87163,-1.24941l2.14535,-2.22976c0.27152,0.26288 0.59471,0.48245 0.98221,0.65254zM277.41511,263.89929c-0.52388,-0.54429 -0.93953,-1.1721 -1.25064,-1.87101l2.82601,-1.25558c0.17227,0.38656 0.3909,0.7113 0.65223,0.98344zM276.15024,261.99426c-0.30894,-0.73913 -0.45863,-1.52465 -0.45863,-2.33799h3.09259c0,0.42677 0.0767,0.80407 0.2208,1.15045zM275.69161,259.65625v-28.94667h3.09259v28.94667zM277.23791,229.16267h4.43942v3.09321h-4.43942zM283.22363,230.70959v13.54555h-3.09259v-13.54555zM280.13319,244.17474c0.03989,-0.78242 0.22236,-1.53083 0.55265,-2.23286l2.79848,1.31744c-0.15277,0.32474 -0.24245,0.67728 -0.26257,1.07313zM280.67872,241.95734c0.31698,-0.69274 0.74408,-1.30817 1.28591,-1.83082l2.14347,2.22976c-0.24307,0.23503 -0.45058,0.52266 -0.61666,0.88757zM281.96401,240.12652c0.55204,-0.53192 1.18972,-0.94014 1.90256,-1.22777l1.14859,2.87301c-0.34451,0.13608 -0.64297,0.3309 -0.90613,0.58449zM283.83162,238.91424c0.73078,-0.31235 1.50517,-0.46388 2.30801,-0.46388v3.09259c-0.40543,0 -0.76326,0.07422 -1.08983,0.21338zM286.13963,238.45035h7.97301v3.09259h-7.97301zM294.11264,238.45035c0.82665,0 1.62268,0.16083 2.37203,0.49481l-1.25589,2.82664c-0.33772,-0.15153 -0.70419,-0.22885 -1.11613,-0.22885zM296.45156,238.9297c0.73109,0.30617 1.37807,0.74221 1.9233,1.30817l-2.22759,2.14316c-0.23966,-0.24739 -0.52882,-0.44842 -0.88511,-0.59687zM298.33372,240.19458c0.56656,0.54738 1.00138,1.19373 1.306,1.92361l-2.85445,1.19065c-0.14844,-0.35565 -0.34761,-0.64634 -0.59657,-0.88447zM299.62549,242.08724c0.33307,0.74841 0.49575,1.54321 0.49575,2.37203h-3.09259c0,-0.41441 -0.07916,-0.77933 -0.22916,-1.11642zM300.12122,244.45925v15.19701h-3.09259v-15.19701zM283.22363,244.45925v15.19701h-3.09259v-15.19701zM281.67733,258.10996h12.43532v3.09259h-12.43532zM292.56634,259.65625v-15.19701h3.09259v15.19701zM294.11264,246.00555h-12.43532v-3.09259h12.43532zM327.95921,254.3339v1.5463h-1.5463v-1.5463zM308.89771,254.3339v-1.5463h1.5463v1.5463zM310.444,261.20255h-1.5463v-1.5463h1.5463zM326.41291,258.10996h1.5463v1.5463h-1.5463zM327.95921,264.11887v1.5463h-1.5463v-1.5463zM308.12765,265.20747l-0.03341,-0.01546l0.6281,-1.41331zM306.22291,263.9426l-0.02103,-0.02165l-0.02009,-0.02165l1.11363,-1.07005zM304.93114,262.02828l-0.01484,-0.03401l1.42785,-0.59378zM304.91692,242.11816l0.01393,-0.03401l1.41331,0.63089zM309.35045,241.77179l-0.0331,0.01546l-0.59501,-1.42878zM323.0998,241.78416l-0.03341,-0.01237l0.6281,-1.41331zM324.02637,242.42434l-0.02103,-0.02165l-0.02009,-0.02165l1.11363,-1.07005zM324.63745,243.34284l-0.01484,-0.03401l1.42785,-0.59378zM308.89771,244.45925v-1.5463h1.5463v1.5463zM310.444,251.41759h-1.5463v-1.5463h1.5463zM323.49691,249.87129v1.5463h-1.5463v-1.5463zM321.9506,242.91296h1.5463v1.5463h-1.5463zM326.41291,255.88021h-15.96892v-3.09259h15.96892zM311.9903,254.3339v5.32235h-3.09259v-5.32235zM310.444,258.10996h15.96892v3.09259h-15.96892zM327.95921,259.65625v4.46262h-3.09259v-4.46262zM326.41291,265.66517h-15.96892v-3.09259h15.96892zM310.444,265.66517c-0.80285,0 -1.57939,-0.15153 -2.31635,-0.4577l1.18941,-2.85445c0.35038,0.14535 0.72151,0.21957 1.12693,0.21957zM308.09456,265.192c-0.69985,-0.31235 -1.32764,-0.72676 -1.87163,-1.24941l2.14502,-2.22976c0.27152,0.26288 0.59501,0.48245 0.98253,0.65254zM306.18178,263.89929c-0.52388,-0.54429 -0.93983,-1.1721 -1.25064,-1.87101l2.82601,-1.25558c0.17227,0.38656 0.39059,0.7113 0.65223,0.98344zM304.91692,261.99426c-0.30925,-0.73913 -0.45894,-1.52465 -0.45894,-2.33799h3.09259c0,0.42677 0.077,0.80407 0.2208,1.15045zM304.45797,259.65625v-15.19701h3.09259v15.19701zM304.45797,244.45925c0,-0.81335 0.14968,-1.59887 0.45894,-2.34108l2.85445,1.19065c-0.1438,0.34636 -0.2208,0.72366 -0.2208,1.15045zM304.93114,242.08724c0.31297,-0.70511 0.7348,-1.33599 1.27106,-1.87101l2.18678,2.18646c-0.24927,0.25049 -0.46172,0.55667 -0.63182,0.94014zM306.2022,240.21623c0.55357,-0.55357 1.19961,-0.98344 1.92545,-1.28652l1.18941,2.85445c-0.36121,0.15153 -0.66646,0.35565 -0.92809,0.61853zM308.09456,238.94516c0.7444,-0.3309 1.53238,-0.49481 2.34943,-0.49481v3.09259c-0.39121,0 -0.75057,0.07731 -1.09354,0.22885zM310.444,238.45035h11.50661v3.09259h-11.50661zM321.9506,238.45035c0.82634,0 1.62268,0.16083 2.37203,0.49481l-1.25589,2.82664c-0.33803,-0.15153 -0.70448,-0.22885 -1.11613,-0.22885zM324.28953,238.9297c0.73078,0.30617 1.37775,0.74221 1.9233,1.30817l-2.22759,2.14316c-0.23966,-0.24739 -0.52914,-0.44842 -0.88542,-0.59687zM326.17168,240.19458c0.56624,0.54738 1.00138,1.19373 1.306,1.92361l-2.85476,1.19065c-0.14844,-0.35565 -0.34761,-0.64634 -0.59657,-0.88447zM327.46346,242.08724c0.33307,0.74841 0.49575,1.54321 0.49575,2.37203h-3.09259c0,-0.41441 -0.07916,-0.77933 -0.22916,-1.11642zM327.95921,244.45925v9.87466h-3.09259v-9.87466zM311.9903,244.45925v5.41204h-3.09259v-5.41204zM310.444,248.32501h11.50661v3.09259h-11.50661zM320.40432,249.87129v-5.41204h3.09259v5.41204zM321.9506,246.00555h-11.50661v-3.09259h11.50661zM338.30454,229.16267h1.5463v1.54691h-1.5463zM339.85084,264.11887v1.5463h-1.5463v-1.5463zM333.86483,265.66517h-1.5463v-1.5463h1.5463zM332.31852,230.70959v-1.54691h1.5463v1.54691zM339.85084,230.70959v33.40929h-3.09259v-33.40929zM338.30454,265.66517h-4.43972v-3.09259h4.43972zM332.31852,264.11887v-33.40929h3.09259v33.40929zM333.86483,229.16267h4.43972v3.09321h-4.43972zM350.17361,229.16267h1.5463v1.54691h-1.5463zM351.7199,264.11887v1.5463h-1.5463v-1.5463zM345.73388,265.66517h-1.5463v-1.5463h1.5463zM344.18759,230.70959v-1.54691h1.5463v1.54691zM351.7199,230.70959v33.40929h-3.09259v-33.40929zM350.17361,265.66517h-4.43972v-3.09259h4.43972zM344.18759,264.11887v-33.40929h3.09259v33.40929zM345.73388,229.16267h4.43972v3.09321h-4.43972z"/></g></g></g></svg>