<svg version="1.1" xmlns="http://www.w3.org/2000/svg" xmlns:xlink="http://www.w3.org/1999/xlink" width="156.96647" height="24.67371" viewBox="0,0,156.96647,24.67371"><g transform="translate(-161.51676,-167.66314)"><g data-paper-data="{&quot;isPaintingLayer&quot;:true}" fill-rule="nonzero" stroke="none" stroke-width="1" stroke-linecap="butt" stroke-linejoin="miter" stroke-miterlimit="10" stroke-dasharray="" stroke-dashoffset="0" style="mix-blend-mode: normal"><path d="M318.48323,171.11384v17.77236c0,1.90578 -1.212,3.45065 -2.70601,3.45065h-151.55413c-1.49466,0 -2.70633,-1.54488 -2.70633,-3.45065v-17.77236c0,-1.90576 1.21167,-3.4507 2.70633,-3.4507h151.55413c1.494,0 2.70601,1.54493 2.70601,3.4507z" fill="#7ded50"/><path d="M172.57673,176.52765c0,-0.19781 0.03774,-0.38386 0.1131,-0.55812c0.07536,-0.17898 0.17893,-0.33205 0.31084,-0.45921c0.13191,-0.13188 0.28491,-0.23549 0.45914,-0.31085c0.17905,-0.08007 0.36739,-0.1201 0.56525,-0.1201h5.49643c0.19774,0 0.38378,0.04003 0.55813,0.1201c0.17893,0.07536 0.33435,0.17897 0.46625,0.31085c0.13191,0.12717 0.23548,0.28024 0.31084,0.45921c0.07536,0.17426 0.1131,0.36031 0.1131,0.55812v1.30698h-1.44832v-1.30698h-5.49643v7.23433h5.49643v-2.45851h-2.74822v-1.4483h4.19654v3.90681c0,0.19786 -0.03774,0.38619 -0.1131,0.56525c-0.07536,0.17423 -0.17893,0.32736 -0.31084,0.45914c-0.13191,0.13191 -0.28732,0.2356 -0.46625,0.31084c-0.17435,0.07548 -0.36039,0.1131 -0.55813,0.1131h-5.49643c-0.19786,0 -0.38619,-0.03762 -0.56525,-0.1131c-0.17423,-0.07524 -0.32723,-0.17893 -0.45914,-0.31084c-0.13191,-0.13179 -0.23548,-0.28491 -0.31084,-0.45914c-0.07536,-0.17905 -0.1131,-0.36739 -0.1131,-0.56525zM189.79368,182.15836h-4.98062v1.66017h4.98062v1.39177h-4.98062c-0.18846,0 -0.36739,-0.03533 -0.53703,-0.10598c-0.16953,-0.07536 -0.31783,-0.17423 -0.44503,-0.29673c-0.1225,-0.1272 -0.22137,-0.27551 -0.29673,-0.44503c-0.07066,-0.16965 -0.10598,-0.35087 -0.10598,-0.54402v-4.74049c0,-0.1931 0.03533,-0.37443 0.10598,-0.54399c0.07536,-0.16955 0.17423,-0.31556 0.29673,-0.43802c0.1272,-0.12717 0.27551,-0.22607 0.44503,-0.29672c0.16965,-0.07536 0.34858,-0.11304 0.53703,-0.11304h3.58885c0.19316,0 0.3745,0.03768 0.54402,0.11304c0.16953,0.07064 0.31554,0.16955 0.43804,0.29672c0.12708,0.12245 0.22607,0.26847 0.29673,0.43802c0.07536,0.16956 0.11298,0.35089 0.11298,0.54399zM184.81306,179.07804v1.68849h3.58885v-1.68849zM198.7731,185.2103h-1.39177v-6.13226h-3.87858v6.13226h-1.38466v-7.52402h1.38466v1.32818c0.0094,-0.18369 0.05185,-0.35559 0.1272,-0.51574c0.07536,-0.16484 0.17423,-0.30613 0.29673,-0.42389c0.12708,-0.12245 0.2731,-0.21666 0.43792,-0.28259c0.16494,-0.07066 0.34146,-0.10597 0.52992,-0.10597h2.48681c0.19304,0 0.37438,0.03768 0.54402,0.11304c0.16953,0.07064 0.31554,0.16955 0.43792,0.29672c0.1272,0.12245 0.22607,0.26847 0.29673,0.43802c0.07536,0.16956 0.1131,0.35089 0.1131,0.54399zM207.45578,182.15836h-4.98074v1.66017h4.98074v1.39177h-4.98074c-0.18846,0 -0.36739,-0.03533 -0.53691,-0.10598c-0.16953,-0.07536 -0.31795,-0.17423 -0.44515,-0.29673c-0.12238,-0.1272 -0.22137,-0.27551 -0.29673,-0.44503c-0.07054,-0.16965 -0.10586,-0.35087 -0.10586,-0.54402v-4.74049c0,-0.1931 0.03533,-0.37443 0.10586,-0.54399c0.07536,-0.16955 0.17435,-0.31556 0.29673,-0.43802c0.1272,-0.12717 0.27563,-0.22607 0.44515,-0.29672c0.16953,-0.07536 0.34846,-0.11304 0.53691,-0.11304h3.58897c0.19304,0 0.37438,0.03768 0.5439,0.11304c0.16965,0.07064 0.31554,0.16955 0.43804,0.29672c0.1272,0.12245 0.22607,0.26847 0.29673,0.43802c0.07536,0.16956 0.1131,0.35089 0.1131,0.54399zM202.47504,179.07804v1.68849h3.58897v-1.68849zM211.16472,179.07804v6.13226h-1.38466v-7.52402h1.38466v1.32818c0.0094,-0.18369 0.05185,-0.35559 0.1272,-0.51574c0.07536,-0.16484 0.17423,-0.30613 0.29673,-0.42389c0.1272,-0.12245 0.27322,-0.21666 0.43804,-0.28259c0.16482,-0.07066 0.34146,-0.10597 0.5298,-0.10597h1.47653c0.19316,0 0.37209,0.03768 0.53691,0.11304c0.16965,0.07064 0.31795,0.16955 0.44515,0.29672c0.1272,0.12245 0.22607,0.26847 0.29673,0.43802c0.07536,0.16956 0.11298,0.35089 0.11298,0.54399v1.27167h-1.39177v-1.27167zM217.15574,181.92517c0,-0.19316 0.03533,-0.37209 0.10598,-0.53693c0.07536,-0.16956 0.17423,-0.31791 0.29673,-0.44508c0.12708,-0.12717 0.27551,-0.22607 0.44503,-0.29673c0.16953,-0.07536 0.34858,-0.11304 0.53691,-0.11304h3.58897v-1.45535h-4.5427v-1.39176h4.5427c0.19304,0 0.37438,0.03768 0.5439,0.11304c0.16965,0.07064 0.31566,0.16955 0.43804,0.29672c0.1272,0.12245 0.22607,0.26847 0.29673,0.43802c0.07536,0.16956 0.1131,0.35089 0.1131,0.54399v6.13226h-1.39177v-1.27168c-0.01411,0.17423 -0.06125,0.33917 -0.14131,0.49459c-0.08006,0.15542 -0.18375,0.29203 -0.31084,0.40971c-0.1225,0.1131 -0.26381,0.20256 -0.42393,0.26852c-0.16012,0.06595 -0.32965,0.09887 -0.5087,0.09887h-2.20419c-0.18833,0 -0.36739,-0.03533 -0.53691,-0.10598c-0.16953,-0.07536 -0.31795,-0.17423 -0.44503,-0.29673c-0.1225,-0.1272 -0.22137,-0.27551 -0.29673,-0.44503c-0.07066,-0.16965 -0.10598,-0.35087 -0.10598,-0.54402zM218.5404,183.81853h3.58897v-1.89335h-3.58897zM225.40738,177.68628h1.83693v-2.31726h1.39177v2.31726h2.47259v1.39176h-2.47259v4.74049h2.47259v1.39177h-2.47259c-0.18846,0 -0.36739,-0.03533 -0.53703,-0.10598c-0.16953,-0.07536 -0.31783,-0.17423 -0.44503,-0.29673c-0.1272,-0.1272 -0.22836,-0.27551 -0.30372,-0.44503c-0.07066,-0.16965 -0.10598,-0.35087 -0.10598,-0.54402v-4.74049h-1.83693zM239.79846,182.15836h-4.98074v1.66017h4.98074v1.39177h-4.98074c-0.18833,0 -0.36739,-0.03533 -0.53691,-0.10598c-0.16953,-0.07536 -0.31795,-0.17423 -0.44503,-0.29673c-0.1225,-0.1272 -0.22137,-0.27551 -0.29673,-0.44503c-0.07066,-0.16965 -0.10598,-0.35087 -0.10598,-0.54402v-4.74049c0,-0.1931 0.03533,-0.37443 0.10598,-0.54399c0.07536,-0.16955 0.17423,-0.31556 0.29673,-0.43802c0.12708,-0.12717 0.27551,-0.22607 0.44503,-0.29672c0.16953,-0.07536 0.34858,-0.11304 0.53691,-0.11304h3.58897c0.19304,0 0.37438,0.03768 0.5439,0.11304c0.16965,0.07064 0.31566,0.16955 0.43804,0.29672c0.1272,0.12245 0.22607,0.26847 0.29673,0.43802c0.07536,0.16956 0.1131,0.35089 0.1131,0.54399zM234.81772,179.07804v1.68849h3.58897v-1.68849zM248.62945,185.2103l-2.89664,-10.13093h1.44832l2.24663,8.06094l2.23952,-8.06094h1.44832l2.23952,8.06094l2.24663,-8.06094h1.44832l-2.89664,10.13093h-1.58951l-2.16898,-7.59467l-2.17598,7.59467zM266.71549,183.81853c0,0.19316 -0.03738,0.37438 -0.11334,0.54402c-0.06993,0.16953 -0.1694,0.31783 -0.29661,0.44503c-0.12238,0.1225 -0.26839,0.22137 -0.43792,0.29673c-0.16494,0.07066 -0.34387,0.10598 -0.53691,0.10598h-3.73739c-0.18833,0 -0.36726,-0.03533 -0.53691,-0.10598c-0.16953,-0.07536 -0.31783,-0.17423 -0.44503,-0.29673c-0.1225,-0.1272 -0.22137,-0.27551 -0.29673,-0.44503c-0.07066,-0.16965 -0.10598,-0.35087 -0.10598,-0.54402v-4.74049c0,-0.1931 0.03533,-0.37443 0.10598,-0.54399c0.07536,-0.16955 0.17423,-0.31556 0.29673,-0.43802c0.1272,-0.12717 0.27551,-0.22607 0.44503,-0.29672c0.16965,-0.07536 0.34858,-0.11304 0.53691,-0.11304h3.73739c0.19304,0 0.37197,0.03768 0.53691,0.11304c0.16953,0.07064 0.31554,0.16955 0.43792,0.29672c0.1272,0.12245 0.22668,0.26847 0.29661,0.43802c0.07596,0.16956 0.11334,0.35089 0.11334,0.54399zM261.59332,179.07804v4.74049h3.73739v-4.74049zM270.42431,179.07804v6.13226h-1.38418v-7.52402h1.38418v1.32818c0.00965,-0.18369 0.05185,-0.35559 0.12781,-0.51574c0.07476,-0.16484 0.17362,-0.30613 0.29661,-0.42389c0.1266,-0.12245 0.27249,-0.21666 0.43768,-0.28259c0.16518,-0.07066 0.34122,-0.10597 0.52931,-0.10597h1.47702c0.19292,0 0.37257,0.03768 0.53655,0.11304c0.17001,0.07064 0.31831,0.16955 0.44491,0.29672c0.12781,0.12245 0.22668,0.26847 0.29781,0.43802c0.07476,0.16956 0.11213,0.35089 0.11213,0.54399v1.27167h-1.39141v-1.27167zM281.3892,185.2103l-3.58945,-3.21447v3.21447h-1.38418v-10.4206h1.38418v5.86379l3.30008,-2.96721h1.9569l-4.0416,3.6313l4.33097,3.89272zM290.8626,183.81853c0,0.19316 -0.03738,0.37438 -0.11334,0.54402c-0.06993,0.16953 -0.1688,0.31783 -0.29661,0.44503c-0.12178,0.1225 -0.26767,0.22137 -0.43768,0.29673c-0.16518,0.07066 -0.34363,0.10598 -0.53655,0.10598h-3.73776c-0.18809,0 -0.36654,-0.03533 -0.53655,-0.10598c-0.17001,-0.07536 -0.31831,-0.17423 -0.44491,-0.29673c-0.12298,-0.1272 -0.22185,-0.27551 -0.29661,-0.44503c-0.07114,-0.16965 -0.1061,-0.35087 -0.1061,-0.54402v-4.74049c0,-0.1931 0.03497,-0.37443 0.1061,-0.54399c0.07476,-0.16955 0.17362,-0.31556 0.29661,-0.43802c0.1266,-0.12717 0.27491,-0.22607 0.44491,-0.29672c0.17001,-0.07536 0.34846,-0.11304 0.53655,-0.11304h3.73776c0.19292,0 0.37136,0.03768 0.53655,0.11304c0.17001,0.07064 0.3159,0.16955 0.43768,0.29672c0.12781,0.12245 0.22668,0.26847 0.29661,0.43802c0.07596,0.16956 0.11334,0.35089 0.11334,0.54399zM285.74067,179.07804v4.74049h3.73776v-4.74049zM293.18724,177.68628h1.38418v6.13225h3.87883v-6.13225h1.39262v7.52402h-1.39262v-1.27168c-0.01447,0.17423 -0.06149,0.33917 -0.14107,0.49459c-0.07958,0.15542 -0.18327,0.29203 -0.31108,0.40971c-0.12178,0.1131 -0.26405,0.20256 -0.42321,0.26852c-0.16036,0.06595 -0.33037,0.09887 -0.50882,0.09887h-2.49465c-0.18809,0 -0.36654,-0.03533 -0.53655,-0.10598c-0.17001,-0.07536 -0.31831,-0.17423 -0.44491,-0.29673c-0.12298,-0.1272 -0.22185,-0.27551 -0.29661,-0.44503c-0.07114,-0.16965 -0.1061,-0.35087 -0.1061,-0.54402zM301.72138,177.68628h1.83753v-2.31726h1.39141v2.31726h2.47295v1.39176h-2.47295v4.74049h2.47295v1.39177h-2.47295c-0.18809,0 -0.36775,-0.03533 -0.53655,-0.10598c-0.17001,-0.07536 -0.31831,-0.17423 -0.44612,-0.29673c-0.1266,-0.1272 -0.22788,-0.27551 -0.30384,-0.44503c-0.06993,-0.16965 -0.1049,-0.35087 -0.1049,-0.54402v-4.74049h-1.83753z" fill="#000000"/></g></g></svg>