<svg version="1.1" xmlns="http://www.w3.org/2000/svg" xmlns:xlink="http://www.w3.org/1999/xlink" width="88" height="20" viewBox="0,0,88,20"><g transform="translate(-196,-170)"><g data-paper-data="{&quot;isPaintingLayer&quot;:true}" fill-rule="nonzero" stroke="none" stroke-width="1" stroke-linecap="butt" stroke-linejoin="miter" stroke-miterlimit="10" stroke-dasharray="" stroke-dashoffset="0" style="mix-blend-mode: normal"><path d="M284,172.23058v15.53882c0,1.2319 -0.9463,2.2306 -2.1136,2.2306h-83.77279c-1.16732,0 -2.11361,-0.9987 -2.11361,-2.2306v-15.53882c0,-1.23192 0.94629,-2.23058 2.11361,-2.23058h83.77279c1.1673,0 2.1136,0.99866 2.1136,2.23058z" fill="#6bb7fa"/><path d="M216.77,172.5c0,-0.13672 0.026,-0.2653 0.0781,-0.38574c0.0521,-0.1237 0.1237,-0.22949 0.2149,-0.31738c0.0911,-0.09115 0.1969,-0.16276 0.3174,-0.21485c0.1237,-0.05533 0.2539,-0.083 0.3906,-0.083h3.7988c0.1367,0 0.2653,0.02767 0.3858,0.083c0.1237,0.05209 0.2311,0.1237 0.3222,0.21485c0.0912,0.08789 0.1628,0.19368 0.2149,0.31738c0.052,0.12044 0.0781,0.24902 0.0781,0.38574v0.90332h-1.001v-0.90332h-3.7988v5h3.7988v-1.69922h-1.8994v-1.00097h2.9004v2.70019c0,0.13672 -0.0261,0.26693 -0.0781,0.39063c-0.0521,0.12044 -0.1237,0.22624 -0.2149,0.31738c-0.0911,0.09115 -0.1985,0.16276 -0.3222,0.21485c-0.1205,0.05208 -0.2491,0.07812 -0.3858,0.07812h-3.7988c-0.1367,0 -0.2669,-0.02604 -0.3906,-0.07812c-0.1205,-0.05209 -0.2263,-0.1237 -0.3174,-0.21485c-0.0912,-0.09114 -0.1628,-0.19694 -0.2149,-0.31738c-0.0521,-0.1237 -0.0781,-0.25391 -0.0781,-0.39063zM228.6694,176.3916h-3.4424v1.14747h3.4424v0.96191h-3.4424c-0.1302,0 -0.2539,-0.02441 -0.3711,-0.07324c-0.1171,-0.05209 -0.2197,-0.12044 -0.3076,-0.20508c-0.0846,-0.08789 -0.153,-0.19043 -0.2051,-0.30762c-0.0488,-0.11718 -0.0732,-0.24251 -0.0732,-0.37597v-3.27637c0,-0.13346 0.0244,-0.25879 0.0732,-0.37598c0.0521,-0.11719 0.1205,-0.2181 0.2051,-0.30273c0.0879,-0.08789 0.1905,-0.15625 0.3076,-0.20508c0.1172,-0.05208 0.2409,-0.07813 0.3711,-0.07813h2.4805c0.1335,0 0.2588,0.02605 0.376,0.07813c0.1172,0.04883 0.2181,0.11719 0.3027,0.20508c0.0879,0.08463 0.1563,0.18554 0.2051,0.30273c0.0521,0.11719 0.0781,0.24252 0.0781,0.37598zM225.227,174.2627v1.16699h2.4805v-1.16699zM234.8755,178.50098h-0.9619v-4.23828h-2.6807v4.23828h-0.957v-5.2002h0.957v0.91797c0.0065,-0.12695 0.0358,-0.24576 0.0879,-0.35644c0.0521,-0.11393 0.1204,-0.21159 0.2051,-0.29297c0.0879,-0.08464 0.1888,-0.14974 0.3027,-0.19531c0.1139,-0.04883 0.236,-0.07325 0.3662,-0.07325h1.7188c0.1334,0 0.2588,0.02605 0.3759,0.07813c0.1172,0.04883 0.2181,0.11719 0.3028,0.20508c0.0879,0.08463 0.1562,0.18554 0.2051,0.30273c0.052,0.11719 0.0781,0.24252 0.0781,0.37598zM240.8765,176.3916h-3.4424v1.14747h3.4424v0.96191h-3.4424c-0.1302,0 -0.2539,-0.02441 -0.3711,-0.07324c-0.1172,-0.05209 -0.2198,-0.12044 -0.3076,-0.20508c-0.0847,-0.08789 -0.153,-0.19043 -0.2051,-0.30762c-0.0488,-0.11718 -0.0733,-0.24251 -0.0733,-0.37597v-3.27637c0,-0.13346 0.0245,-0.25879 0.0733,-0.37598c0.0521,-0.11719 0.1204,-0.2181 0.2051,-0.30273c0.0878,-0.08789 0.1904,-0.15625 0.3076,-0.20508c0.1172,-0.05208 0.2409,-0.07813 0.3711,-0.07813h2.4804c0.1335,0 0.2588,0.02605 0.376,0.07813c0.1172,0.04883 0.2181,0.11719 0.3027,0.20508c0.0879,0.08463 0.1563,0.18554 0.2051,0.30273c0.0521,0.11719 0.0782,0.24252 0.0782,0.37598zM237.4341,174.2627v1.16699h2.4804v-1.16699zM243.4399,174.2627v4.23828h-0.957v-5.2002h0.957v0.91797c0.0065,-0.12695 0.0358,-0.24576 0.0879,-0.35644c0.0521,-0.11393 0.1205,-0.21159 0.2051,-0.29297c0.0879,-0.08464 0.1888,-0.14974 0.3027,-0.19531c0.114,-0.04883 0.236,-0.07325 0.3662,-0.07325h1.0206c0.1334,0 0.2571,0.02605 0.371,0.07813c0.1172,0.04883 0.2198,0.11719 0.3077,0.20508c0.0879,0.08463 0.1562,0.18554 0.205,0.30273c0.0521,0.11719 0.0782,0.24252 0.0782,0.37598v0.8789h-0.9619v-0.8789zM247.5806,176.23047c0,-0.13346 0.0244,-0.25716 0.0732,-0.37109c0.0521,-0.11719 0.1204,-0.21973 0.2051,-0.30762c0.0879,-0.08789 0.1904,-0.15625 0.3076,-0.20508c0.1172,-0.05208 0.2409,-0.07812 0.3711,-0.07812h2.4805v-1.00586h-3.1397v-0.96192h3.1397c0.1334,0 0.2587,0.02605 0.3759,0.07813c0.1172,0.04883 0.2181,0.11719 0.3028,0.20508c0.0879,0.08463 0.1562,0.18554 0.205,0.30273c0.0521,0.11719 0.0782,0.24252 0.0782,0.37598v4.23828h-0.9619v-0.87891c-0.0098,0.12045 -0.0424,0.23438 -0.0977,0.3418c-0.0553,0.10742 -0.127,0.20182 -0.2148,0.2832c-0.0847,0.07813 -0.1823,0.13998 -0.293,0.18555c-0.1107,0.04557 -0.2279,0.06836 -0.3516,0.06836h-1.5234c-0.1302,0 -0.2539,-0.02441 -0.3711,-0.07324c-0.1172,-0.05209 -0.2197,-0.12044 -0.3076,-0.20508c-0.0847,-0.08789 -0.153,-0.19043 -0.2051,-0.30762c-0.0488,-0.11718 -0.0732,-0.24251 -0.0732,-0.37597zM248.5376,177.53907h2.4805v-1.3086h-2.4805zM253.2837,173.30078h1.2695v-1.60156h0.9619v1.60156h1.709v0.96192h-1.709v3.27637h1.709v0.96191h-1.709c-0.1302,0 -0.2539,-0.02441 -0.3711,-0.07324c-0.1172,-0.05209 -0.2197,-0.12044 -0.3076,-0.20508c-0.0879,-0.08789 -0.1579,-0.19043 -0.2099,-0.30762c-0.0489,-0.11718 -0.0733,-0.24251 -0.0733,-0.37597v-3.27637h-1.2695zM263.23,176.3916h-3.4424v1.14747h3.4424v0.96191h-3.4424c-0.1302,0 -0.2539,-0.02441 -0.3711,-0.07324c-0.1172,-0.05209 -0.2197,-0.12044 -0.3076,-0.20508c-0.0847,-0.08789 -0.153,-0.19043 -0.2051,-0.30762c-0.0488,-0.11718 -0.0732,-0.24251 -0.0732,-0.37597v-3.27637c0,-0.13346 0.0244,-0.25879 0.0732,-0.37598c0.0521,-0.11719 0.1204,-0.2181 0.2051,-0.30273c0.0879,-0.08789 0.1904,-0.15625 0.3076,-0.20508c0.1172,-0.05208 0.2409,-0.07813 0.3711,-0.07813h2.4805c0.1334,0 0.2587,0.02605 0.3759,0.07813c0.1172,0.04883 0.2181,0.11719 0.3028,0.20508c0.0879,0.08463 0.1562,0.18554 0.205,0.30273c0.0521,0.11719 0.0782,0.24252 0.0782,0.37598zM259.7876,174.2627v1.16699h2.4805v-1.16699zM224.3091,185.50298c-0.1367,0 -0.267,-0.0261 -0.3907,-0.0782c-0.1204,-0.0553 -0.2262,-0.1269 -0.3173,-0.2148c-0.0912,-0.0912 -0.1628,-0.197 -0.2149,-0.3174c-0.0521,-0.1237 -0.0781,-0.2539 -0.0781,-0.3906v-2.002c0,-0.1367 0.026,-0.2653 0.0781,-0.3857c0.0521,-0.1237 0.1237,-0.2295 0.2149,-0.3174c0.0911,-0.0911 0.1969,-0.1628 0.3173,-0.2148c0.1237,-0.0554 0.254,-0.0831 0.3907,-0.0831h3.3984c0.1367,0 0.2653,0.0277 0.3857,0.0831c0.1237,0.052 0.2312,0.1237 0.3223,0.2148c0.0912,0.0879 0.1628,0.1937 0.2149,0.3174c0.052,0.1204 0.0781,0.249 0.0781,0.3857v0.9033h-1.001v-0.9033h-3.3984v2.002h3.3984c0.1367,0 0.2653,0.026 0.3857,0.0781c0.1237,0.0521 0.2312,0.1237 0.3223,0.2148c0.0912,0.0912 0.1628,0.1986 0.2149,0.3223c0.052,0.1205 0.0781,0.249 0.0781,0.3858v1.997c0,0.1367 -0.0261,0.267 -0.0781,0.3906c-0.0521,0.1205 -0.1237,0.2263 -0.2149,0.3174c-0.0911,0.0912 -0.1986,0.1628 -0.3223,0.2149c-0.1204,0.0521 -0.249,0.0781 -0.3857,0.0781h-3.4961c-0.1367,0 -0.2669,-0.026 -0.3906,-0.0781c-0.1205,-0.0521 -0.2262,-0.1237 -0.3174,-0.2149c-0.0911,-0.0911 -0.1628,-0.1969 -0.2148,-0.3174c-0.0521,-0.1236 -0.0782,-0.2539 -0.0782,-0.3906v-0.8984h1.001v0.8984h3.4961v-1.997zM231.4282,183.30078v5.2002h-0.9619v-5.2002zM230.4175,181.29888h1.0595v1.0009h-1.0595zM237.2046,184.26268v4.2383h-0.9619v-4.2383h-2.2022v4.2383h-0.957v-5.2002h0.957v0.918c0.0065,-0.127 0.0358,-0.2458 0.0879,-0.3565c0.0521,-0.1139 0.1204,-0.2116 0.2051,-0.2929c0.0879,-0.0847 0.1888,-0.1498 0.3027,-0.1954c0.1139,-0.0488 0.236,-0.0732 0.3662,-0.0732h1.2403c0.1269,0 0.2474,0.0244 0.3613,0.0732c0.1139,0.0456 0.2148,0.1107 0.3027,0.1954c0.0879,0.0813 0.1579,0.179 0.21,0.2929c0.0553,0.1107 0.0846,0.2295 0.0879,0.3565c0.0065,-0.127 0.0342,-0.2458 0.083,-0.3565c0.0521,-0.1139 0.1204,-0.2116 0.2051,-0.2929c0.0879,-0.0847 0.1888,-0.1498 0.3027,-0.1954c0.1139,-0.0488 0.236,-0.0732 0.3662,-0.0732h1.2402c0.1335,0 0.2588,0.026 0.376,0.0781c0.1172,0.0489 0.2181,0.1172 0.3028,0.2051c0.0878,0.0846 0.1562,0.1856 0.205,0.3027c0.0521,0.1172 0.0782,0.2426 0.0782,0.376v4.2383h-0.962v-4.2383zM242.9809,183.30078v5.2002h-0.9619v-5.2002zM241.9702,181.29888h1.0596v1.0009h-1.0596zM245.5932,181.29888v7.2021h-0.957v-7.2021zM247.1948,186.23048c0,-0.1335 0.0244,-0.2572 0.0733,-0.3711c0.052,-0.1172 0.1204,-0.2197 0.205,-0.3076c0.0879,-0.0879 0.1905,-0.1563 0.3076,-0.2051c0.1172,-0.0521 0.2409,-0.0781 0.3711,-0.0781h2.4805v-1.0059h-3.1396v-0.9619h3.1396c0.1335,0 0.2588,0.026 0.376,0.0781c0.1172,0.0489 0.2181,0.1172 0.3027,0.2051c0.0879,0.0846 0.1563,0.1856 0.2051,0.3027c0.0521,0.1172 0.0781,0.2426 0.0781,0.376v4.2383h-0.9619v-0.8789c-0.0098,0.1204 -0.0423,0.2344 -0.0976,0.3418c-0.0554,0.1074 -0.127,0.2018 -0.2149,0.2832c-0.0846,0.0781 -0.1823,0.14 -0.293,0.1855c-0.1106,0.0456 -0.2278,0.0684 -0.3515,0.0684h-1.5235c-0.1302,0 -0.2539,-0.0244 -0.3711,-0.0732c-0.1171,-0.0521 -0.2197,-0.1205 -0.3076,-0.2051c-0.0846,-0.0879 -0.153,-0.1905 -0.205,-0.3076c-0.0489,-0.1172 -0.0733,-0.2426 -0.0733,-0.376zM248.1518,187.53908h2.4805v-1.3086h-2.4805zM254.1577,184.26268v4.2383h-0.957v-5.2002h0.957v0.918c0.0065,-0.127 0.0358,-0.2458 0.0879,-0.3565c0.0521,-0.1139 0.1204,-0.2116 0.2051,-0.2929c0.0879,-0.0847 0.1888,-0.1498 0.3027,-0.1954c0.1139,-0.0488 0.236,-0.0732 0.3662,-0.0732h1.0205c0.1335,0 0.2572,0.026 0.3711,0.0781c0.1172,0.0489 0.2197,0.1172 0.3076,0.2051c0.0879,0.0846 0.1563,0.1856 0.2051,0.3027c0.0521,0.1172 0.0781,0.2426 0.0781,0.376v0.8789h-0.9619v-0.8789z" fill="#000000"/></g></g></svg>