<svg version="1.1" xmlns="http://www.w3.org/2000/svg" xmlns:xlink="http://www.w3.org/1999/xlink" width="13.75731" height="17.50488" viewBox="0,0,13.75731,17.50488"><g transform="translate(-233.12135,-171.24756)"><g data-paper-data="{&quot;isPaintingLayer&quot;:true}" fill="#000000" fill-rule="nonzero" stroke="none" stroke-width="1" stroke-linecap="butt" stroke-linejoin="miter" stroke-miterlimit="10" stroke-dasharray="" stroke-dashoffset="0" style="mix-blend-mode: normal"><path d="M246.87865,186.25004c0,0.3418 -0.0651,0.6673 -0.1953,0.9765c-0.1302,0.3011 -0.3092,0.5656 -0.5371,0.7935c-0.2279,0.2278 -0.4964,0.4069 -0.8057,0.5371c-0.3011,0.1302 -0.6225,0.1953 -0.9643,0.1953h-8.75246c-0.3418,0 -0.66732,-0.0651 -0.97657,-0.1953c-0.3011,-0.1302 -0.56559,-0.3093 -0.79345,-0.5371c-0.22787,-0.2279 -0.4069,-0.4924 -0.53711,-0.7935c-0.13021,-0.3092 -0.19531,-0.6347 -0.19531,-0.9765v-12.50004c0,-0.3418 0.0651,-0.66325 0.19531,-0.96436c0.13021,-0.30924 0.30925,-0.57373 0.53711,-0.79345c0.22786,-0.22787 0.49235,-0.4069 0.79345,-0.53711c0.30925,-0.13835 0.63477,-0.20752 0.97657,-0.20752h8.75246c0.3418,0 0.6632,0.06917 0.9643,0.20752c0.3093,0.13021 0.5778,0.30924 0.8057,0.53711c0.2279,0.21972 0.4069,0.48421 0.5371,0.79345c0.1302,0.30111 0.1953,0.62256 0.1953,0.96436zM235.62379,173.75v12.50004h8.75246v-12.50004z"/></g></g></svg>