<svg version="1.1" xmlns="http://www.w3.org/2000/svg" xmlns:xlink="http://www.w3.org/1999/xlink" width="540.69664" height="389.98456" viewBox="0,0,540.69664,389.98456"><g transform="translate(29.40163,10.1899)"><g data-paper-data="{&quot;isPaintingLayer&quot;:true}" fill-rule="nonzero" stroke-linejoin="miter" stroke-miterlimit="10" stroke-dasharray="" stroke-dashoffset="0" style="mix-blend-mode: normal"><path d="M-14.76989,370.1899v-380.37981h509.53978v380.37981z" fill="#2f2f2f" stroke="#d5d5d5" stroke-width="0" stroke-linecap="butt"/><g stroke="none" stroke-width="1" stroke-linecap="butt" opacity="0.7"><path d="M21.98259,180.09446l18.68903,14.64294l-4.80252,10.13334l-5.45827,7.18193l-5.40298,7.10824l-7.22005,5.68289l-18.68903,-14.64155l2.45029,-7.35795l5.62823,-8.22333l7.10787,-8.53313z" fill="#434343"/><path d="M107.84571,259.39165l-6.32812,9.14347l-6.40776,7.61415l-6.3891,4.27141l-18.68903,-14.64385l3.58545,-8.53127l5.40275,-7.10824l5.45827,-7.18216l8.43734,-7.28612l18.68903,14.64385z" fill="#434343"/><path d="M22.78978,216.89292l10.63107,-13.98694l53.3506,41.80009l-10.63107,13.98694z" fill="#3d3d3d"/></g><g stroke="none" stroke-width="1" stroke-linecap="butt" opacity="0.7"><path d="M40.3913,240.80904l-32.70773,92.1484c-0.66917,1.88506 -3.30012,2.6474 -5.87647,1.70487l-7.36931,-2.69591c-2.57635,-0.94253 -4.12243,-3.23416 -3.45348,-5.11922l32.70796,-92.1484c0.66917,-1.88506 3.2999,-2.6497 5.87624,-1.70717l7.36931,2.69591c2.57635,0.94485 4.12265,3.23648 3.45348,5.12154z" fill="#595959"/><path d="M15.39167,243.23697l-12.71608,35.82535l-12.71608,35.82535c-0.66917,1.88506 -3.2999,2.6497 -5.87624,1.70717l-7.36953,-2.69821c-2.57612,-0.94253 -4.12243,-3.23416 -3.45325,-5.11922l25.43217,-71.6507c0.66917,-1.88506 3.30012,-2.6497 5.87624,-1.70487l7.36953,2.69591c2.57635,0.94253 4.12243,3.23416 3.45325,5.11922z" fill="#595959"/><path d="M162.02375,277.01325l7.44303,2.47876c2.60297,0.8686 4.21162,3.11405 3.59728,5.01758l-30.07928,93.06551c-0.61525,1.90585 -3.22345,2.74442 -5.82528,1.87812l-7.44303,-2.47876c-2.60183,-0.8686 -4.21253,-3.11405 -3.59728,-5.01758l30.07928,-93.06551c0.61525,-1.90353 3.22345,-2.74442 5.82528,-1.87812z" fill="#595959"/><path d="M180.25642,294.54937l7.44257,2.47876c2.60069,0.86631 4.21162,3.11405 3.59728,5.01758l-23.3887,72.36451c-0.61525,1.90353 -3.22345,2.74442 -5.8255,1.87812l-7.4428,-2.48108c-2.60206,-0.86631 -4.21253,-3.11173 -3.59728,-5.01526l11.69424,-36.18342l11.6931,-36.18342c0.61661,-1.90353 3.22413,-2.74442 5.8271,-1.87582z" fill="#595959"/><path d="M25.48153,299.79686l8.71928,-26.27651l106.72344,36.50533l-8.71928,26.27651z" fill="#434343"/><path d="M-29.40163,280.74496l8.91359,-26.38707l6.85436,2.38677l-8.91359,26.38707z" fill="#434343"/><path d="M180.37011,350.44778l8.07513,-26.66384l6.92626,2.16228l-8.07513,26.66384z" fill="#434343"/></g><g opacity="0.7"><path d="M399.91354,279.38132l2.88056,-20.40992c0.25029,-1.78342 0.08419,-3.59685 -0.37543,-5.3387c-1.80433,-6.85643 -5.51538,-25.30045 4.37317,-32.7344c8.30264,-6.24195 21.86128,-7.79896 21.86128,-7.79896l68.22093,26.70036c0,0 10.83508,8.16628 12.42097,21.21383c1.67009,13.74521 -16.74181,23.3715 -22.90337,26.18982c-1.29693,0.5914 -2.5074,1.35372 -3.55405,2.33091l-16.83965,15.71113" fill="none" stroke="#434343" stroke-width="4" stroke-linecap="round"/><path d="M482.90132,330.61516c-5.90673,23.57248 -22.3846,44.20877 -41.23108,46.11924l-32.73276,-12.81192l-35.74756,-13.99008c-10.05692,-13.64125 -8.57113,-40.26771 2.93971,-61.105c15.45853,-27.98018 42.28455,-39.06413 71.76815,-27.5251c29.4836,11.53906 42.79195,38.22094 35.00353,69.31285z" fill="#4c4c4c" stroke="none" stroke-width="1" stroke-linecap="butt"/><path d="M404.85556,295.18023l-1.47896,3.89487l-4.2503,-1.66328l1.47896,-3.89487c0.22298,-0.58908 0.5438,-1.09962 0.96246,-1.53161c0.42321,-0.44817 0.90103,-0.78544 1.43345,-1.01183c0.5347,-0.24025 1.10126,-0.37424 1.69739,-0.39966c0.61661,-0.03233 1.21502,0.06469 1.79523,0.29108l13.45624,5.26707c0.58021,0.22639 1.08078,0.56137 1.50171,0.99798c0.43914,0.43199 0.77133,0.91482 0.99659,1.45539c0.24346,0.52901 0.37315,1.10424 0.39136,1.72567c0.03868,0.60988 -0.05461,1.21049 -0.27759,1.79957l-2.09557,5.51426c-0.22298,0.5914 -0.47782,1.095 -0.76451,1.51543c-0.28669,0.42043 -0.62571,0.76926 -1.01934,1.05111c-0.37315,0.27258 -0.80091,0.48512 -1.28783,0.63297c-0.48464,0.14785 -1.04665,0.24949 -1.68601,0.30724l-17.38345,1.24747l-1.65416,4.3569l13.9955,5.47729l1.46986,-3.87175l4.2503,1.66328l-3.10809,8.18706l-22.49609,-8.80387l3.01252,-7.93527c0.22526,-0.58908 0.48009,-1.095 0.76678,-1.51313c0.30034,-0.41581 0.63709,-0.76003 1.01024,-1.03263c0.37315,-0.27258 0.80319,-0.48282 1.28783,-0.63067c0.50285,-0.15709 1.0603,-0.26335 1.66781,-0.3165l17.41075,-1.26132l2.37316,-6.25119zM444.02745,331.81182c-0.97384,2.44181 -2.27987,4.0404 -3.9181,4.80275c-1.63368,0.74617 -3.65872,0.64683 -6.07738,-0.30032l-7.98182,-3.12329c-4.82368,-1.88738 -6.30946,-5.27401 -4.45508,-10.1576l0.68715,-1.81113l4.16839,1.63095l-0.60751,1.60092c-0.43231,1.13657 -0.50057,2.06986 -0.20478,2.79755c0.29352,0.72769 1.00797,1.31215 2.14335,1.75568l7.71106,3.01933c1.13311,0.44355 2.05006,0.49668 2.75086,0.15709c0.7008,-0.33727 1.26508,-1.07652 1.69739,-2.21309l1.54267,-4.0612c0.43231,-1.13657 0.49602,-2.06294 0.19568,-2.77676c-0.29352,-0.72769 -1.00797,-1.31445 -2.14108,-1.758l-14.22303,-5.56507l5.80889,-15.30456l20.81691,8.14779l-1.63823,4.3153l-16.56661,-6.4845l-2.57339,6.77788l10.11835,3.96186c2.43232,0.95177 4.01366,2.26392 4.74404,3.93414c0.73493,1.65866 0.63254,3.73084 -0.31172,6.21422z" fill="#434343" stroke="none" stroke-width="1" stroke-linecap="butt"/></g></g></g></svg>