<svg version="1.1" xmlns="http://www.w3.org/2000/svg" xmlns:xlink="http://www.w3.org/1999/xlink" width="378.69894" height="147.20215" viewBox="0,0,378.69894,147.20215"><g transform="translate(-50.65053,-33.79786)"><g data-paper-data="{&quot;isPaintingLayer&quot;:true}" fill-rule="nonzero" stroke-linejoin="miter" stroke-miterlimit="10" stroke-dasharray="" stroke-dashoffset="0" style="mix-blend-mode: normal"><path d="M208.78579,45.43636l-3.23519,-11.31499h1.61759l2.508,9.00308l2.50153,-9.00308h1.61759l2.50153,9.00308l2.50961,-9.00308h1.61759l-3.23519,11.31499h-1.77596l-2.42235,-8.48229l-2.43043,8.48229zM228.9855,43.88193c0,0.21567 -0.04202,0.4182 -0.12766,0.60756c-0.07757,0.18938 -0.18907,0.35508 -0.33128,0.49711c-0.13574,0.13678 -0.29896,0.24723 -0.48802,0.3314c-0.18422,0.07891 -0.3846,0.11835 -0.59953,0.11835h-4.17407c-0.21169,0 -0.41046,-0.03945 -0.60114,-0.11835c-0.18907,-0.08418 -0.3539,-0.19463 -0.4961,-0.3314c-0.13736,-0.14203 -0.24724,-0.30773 -0.33128,-0.49711c-0.07918,-0.18936 -0.11958,-0.39189 -0.11958,-0.60756v-5.29454c0,-0.21567 0.0404,-0.4182 0.11958,-0.60757c0.08403,-0.18938 0.19392,-0.35244 0.33128,-0.4892c0.14221,-0.14203 0.30704,-0.2525 0.4961,-0.3314c0.19069,-0.08416 0.38945,-0.12626 0.60114,-0.12626h4.17407c0.21492,0 0.41531,0.0421 0.59953,0.12626c0.18907,0.07891 0.35228,0.18938 0.48802,0.3314c0.14221,0.13676 0.25371,0.29983 0.33128,0.4892c0.08565,0.18938 0.12766,0.39191 0.12766,0.60757zM223.26494,38.58739v5.29454h4.17407v-5.29454zM233.12725,38.58739v6.84896h-1.54649v-8.4034h1.54649v1.48342c0.01131,-0.20515 0.05818,-0.39714 0.14221,-0.576c0.08403,-0.18411 0.19392,-0.34192 0.33128,-0.47343c0.14221,-0.13678 0.30542,-0.24198 0.48964,-0.31562c0.18422,-0.07891 0.38137,-0.11837 0.59145,-0.11837h1.6483c0.21654,0 0.41692,0.0421 0.60114,0.12626c0.18907,0.07891 0.3539,0.18938 0.4961,0.3314c0.14221,0.13676 0.25209,0.29983 0.33128,0.4892c0.08403,0.18938 0.12605,0.39191 0.12605,0.60757v1.42028h-1.55457v-1.42028zM245.37312,45.43636l-4.00762,-3.59018v3.59018h-1.54649v-11.6385h1.54649v6.54913l3.68443,-3.31403h2.18642l-4.51342,4.05573l4.83662,4.34767zM255.95454,43.88193c0,0.21567 -0.04202,0.4182 -0.12605,0.60756c-0.07918,0.18938 -0.18907,0.35508 -0.33128,0.49711c-0.13736,0.13678 -0.30057,0.24723 -0.48964,0.3314c-0.18422,0.07891 -0.3846,0.11835 -0.59953,0.11835h-4.17407c-0.21008,0 -0.41046,-0.03945 -0.59953,-0.11835c-0.18907,-0.08418 -0.35551,-0.19463 -0.49772,-0.3314c-0.13574,-0.14203 -0.24724,-0.30773 -0.33128,-0.49711c-0.07918,-0.18936 -0.11797,-0.39189 -0.11797,-0.60756v-5.29454c0,-0.21567 0.03878,-0.4182 0.11797,-0.60757c0.08403,-0.18938 0.19553,-0.35244 0.33128,-0.4892c0.14221,-0.14203 0.30865,-0.2525 0.49772,-0.3314c0.18907,-0.08416 0.38945,-0.12626 0.59953,-0.12626h4.17407c0.21492,0 0.41531,0.0421 0.59953,0.12626c0.18907,0.07891 0.35228,0.18938 0.48964,0.3314c0.14221,0.13676 0.25209,0.29983 0.33128,0.4892c0.08403,0.18938 0.12605,0.39191 0.12605,0.60757zM250.23398,38.58739v5.29454h4.17407v-5.29454zM258.5498,37.03295h1.54649v6.84898h4.33243v-6.84898h1.55457v8.4034h-1.55457v-1.4203c-0.01616,0.19464 -0.06787,0.37875 -0.15675,0.55234c-0.09049,0.17359 -0.20523,0.32614 -0.34744,0.45764c-0.13736,0.12626 -0.29572,0.2262 -0.47348,0.29984c-0.17937,0.07364 -0.36844,0.11047 -0.56882,0.11047h-2.78594c-0.21008,0 -0.40884,-0.03945 -0.59953,-0.11835c-0.18907,-0.08418 -0.3539,-0.19463 -0.4961,-0.3314c-0.13736,-0.14203 -0.24724,-0.30773 -0.33128,-0.49711c-0.07918,-0.18936 -0.11958,-0.39189 -0.11958,-0.60756zM268.08244,37.03295h2.05067v-2.58808h1.55457v2.58808h2.7617v1.55444h-2.7617v5.29454h2.7617v1.55442h-2.7617c-0.21008,0 -0.41046,-0.03945 -0.59953,-0.11835c-0.18907,-0.08418 -0.3539,-0.19463 -0.4961,-0.3314c-0.14221,-0.14203 -0.25532,-0.30773 -0.33936,-0.49711c-0.07918,-0.18936 -0.11958,-0.39189 -0.11958,-0.60756v-5.29454h-2.05067z" fill="#ce8b4e" stroke="none" stroke-width="1" stroke-linecap="butt"/><path d="M83.91699,69.0259c0,-0.53036 0.101,-1.02905 0.303,-1.49607c0.202,-0.47978 0.47962,-0.89008 0.8332,-1.23089c0.35341,-0.35358 0.76371,-0.63136 1.23089,-0.83336c0.47978,-0.2146 0.98478,-0.3219 1.51498,-0.3219h14.73318c0.5302,0 1.02889,0.1073 1.49607,0.3219c0.47962,0.202 0.89638,0.47978 1.2498,0.83336c0.35358,0.34081 0.6312,0.75111 0.8332,1.23089c0.202,0.46702 0.303,0.96571 0.303,1.49607v3.50328h-3.88206v-3.50328h-14.73318v19.39172h14.73318v-3.48453h3.88206v3.48453c0,0.5302 -0.101,1.03519 -0.303,1.51498c-0.202,0.46702 -0.47962,0.87731 -0.8332,1.23089c-0.35341,0.35341 -0.77017,0.6312 -1.2498,0.8332c-0.46718,0.202 -0.96587,0.303 -1.49607,0.303h-14.73318c-0.5302,0 -1.03519,-0.101 -1.51498,-0.303c-0.46718,-0.202 -0.87748,-0.47978 -1.23089,-0.8332c-0.35358,-0.35358 -0.6312,-0.76387 -0.8332,-1.23089c-0.202,-0.47978 -0.303,-0.98478 -0.303,-1.51498zM129.68824,88.56904c0,0.5176 -0.101,1.00368 -0.303,1.45826c-0.18939,0.45441 -0.45457,0.8521 -0.79538,1.19291c-0.3282,0.32837 -0.71959,0.59339 -1.17417,0.79538c-0.44181,0.18939 -0.92159,0.28409 -1.43919,0.28409h-10.01776c-0.50499,0 -0.98478,-0.0947 -1.43919,-0.28409c-0.45457,-0.202 -0.85227,-0.46702 -1.19308,-0.79538c-0.32837,-0.34081 -0.59339,-0.7385 -0.79538,-1.19291c-0.18939,-0.45457 -0.28409,-0.94066 -0.28409,-1.45826v-12.70691c0,-0.5176 0.0947,-1.00368 0.28409,-1.4581c0.202,-0.45457 0.46702,-0.84596 0.79538,-1.17417c0.34081,-0.34081 0.7385,-0.60599 1.19308,-0.79538c0.45441,-0.202 0.9342,-0.303 1.43919,-0.303h10.01776c0.5176,0 0.99738,0.101 1.43919,0.303c0.45457,0.18939 0.84596,0.45457 1.17417,0.79538c0.34081,0.3282 0.60599,0.71959 0.79538,1.17417c0.202,0.45441 0.303,0.9405 0.303,1.4581zM115.95874,75.86213v12.70691h10.01776v-12.70691zM153.75741,92.29968h-3.73064v-16.43755h-10.39655v16.43755h-3.71174v-20.1682h3.71174v3.56032c0.02521,-0.49239 0.13897,-0.95326 0.34097,-1.38247c0.202,-0.44181 0.46702,-0.82059 0.79522,-1.13619c0.34097,-0.32837 0.73236,-0.58078 1.17417,-0.75757c0.44181,-0.18939 0.91529,-0.28409 1.42028,-0.28409h6.6659c0.5176,0 1.00368,0.101 1.45826,0.303c0.45441,0.18939 0.8458,0.45457 1.17401,0.79538c0.34097,0.3282 0.60599,0.71959 0.79538,1.17417c0.202,0.45441 0.303,0.9405 0.303,1.4581zM167.44909,68.09784v4.03364h6.62793v3.73064h-6.62793v16.43755h-3.73064v-16.43755h-4.92372v-3.73064h4.92372v-4.03364c0,-0.5176 0.0947,-0.99738 0.28409,-1.43919c0.202,-0.45441 0.47332,-0.8521 0.81429,-1.19308c0.34081,-0.34081 0.7385,-0.60599 1.19291,-0.79538c0.45457,-0.202 0.93436,-0.303 1.43935,-0.303h6.62793v3.73064zM183.05329,72.13148v20.1682h-3.73064v-20.1682zM179.13325,64.3672h4.10943v3.88222h-4.10943zM193.18465,75.86213v16.43755h-3.71158v-20.1682h3.71158v3.56032c0.02537,-0.49239 0.13897,-0.95326 0.34097,-1.38247c0.202,-0.44181 0.46702,-0.82059 0.79538,-1.13619c0.34081,-0.32837 0.7322,-0.58078 1.17401,-0.75757c0.44197,-0.18939 0.91529,-0.28409 1.42028,-0.28409h3.95801c0.5176,0 0.99722,0.101 1.43919,0.303c0.45441,0.18939 0.8521,0.45457 1.19308,0.79538c0.34081,0.3282 0.60599,0.71959 0.79522,1.17417c0.202,0.45441 0.30316,0.9405 0.30316,1.4581v3.40874h-3.73064v-3.40874zM225.22576,75.86213v16.43755h-3.72967v-16.43755h-8.54044v16.43755h-3.71222v-20.1682h3.71222v3.56032c0.02424,-0.49239 0.13897,-0.95326 0.34097,-1.38247c0.202,-0.44181 0.46702,-0.82059 0.79506,-1.13619c0.34097,-0.32837 0.73204,-0.58078 1.1732,-0.75757c0.44278,-0.18939 0.91626,-0.28409 1.42044,-0.28409h4.81076c0.49287,0 0.95989,0.0947 1.40105,0.28409c0.44278,0.17679 0.83384,0.4292 1.17482,0.75757c0.34097,0.3156 0.61246,0.69439 0.81445,1.13619c0.21331,0.4292 0.32804,0.89008 0.33936,1.38247c0.02586,-0.49239 0.13413,-0.95326 0.3232,-1.38247c0.202,-0.44181 0.46702,-0.82059 0.79506,-1.13619c0.34097,-0.32837 0.73204,-0.58078 1.1732,-0.75757c0.44278,-0.18939 0.91626,-0.28409 1.42044,-0.28409h4.81076c0.51711,0 1.00352,0.101 1.45761,0.303c0.45409,0.18939 0.84677,0.45457 1.17482,0.79538c0.34097,0.3282 0.60599,0.71959 0.79506,1.17417c0.202,0.45441 0.3038,0.9405 0.3038,1.4581v16.43755h-3.73129v-16.43755zM255.71601,65.14368h19.78925v3.88222h-15.90768v7.76412h13.57744v3.88222h-13.57744v7.74538h15.90768v3.88206h-19.78925zM298.51353,72.13148l-7.32845,9.84744l7.66943,10.32076h-4.50696l-5.41675,-7.2908l-5.43453,7.2908h-4.50696l7.68882,-10.32076l-7.32845,-9.84744h4.48757l5.09356,6.81748l5.07578,-6.81748zM307.05397,72.13148v20.1682h-3.72967v-20.1682zM303.13361,64.3672h4.10943v3.88222h-4.10943zM312.29943,72.13148h4.92388v-6.21133h3.73129v6.21133h6.62712v3.73064h-6.62712v12.70691h6.62712v3.73064h-6.62712c-0.5058,0 -0.98575,-0.0947 -1.43984,-0.28409c-0.45409,-0.202 -0.85162,-0.46702 -1.19259,-0.79538c-0.34097,-0.34081 -0.61246,-0.7385 -0.81445,-1.19291c-0.18907,-0.45457 -0.28441,-0.94066 -0.28441,-1.45826v-12.70691h-4.92388zM337.73329,72.13148v20.1682h-3.73129v-20.1682zM333.81293,64.3672h4.10943v3.88222h-4.10943zM361.99072,92.29968h-3.72967v-16.43755h-10.39719v16.43755h-3.7119v-20.1682h3.7119v3.56032c0.02586,-0.49239 0.13897,-0.95326 0.34097,-1.38247c0.202,-0.44181 0.46702,-0.82059 0.79506,-1.13619c0.34097,-0.32837 0.73204,-0.58078 1.17482,-0.75757c0.44116,-0.18939 0.91464,-0.28409 1.42044,-0.28409h6.6659c0.51711,0 1.00352,0.101 1.45761,0.303c0.45409,0.18939 0.84516,0.45457 1.17482,0.79538c0.34097,0.3282 0.60599,0.71959 0.79506,1.17417c0.202,0.45441 0.30219,0.9405 0.30219,1.4581zM368.20253,75.86213c0,-0.5176 0.09534,-1.00368 0.28441,-1.4581c0.202,-0.45457 0.46702,-0.84596 0.79506,-1.17417c0.34097,-0.34081 0.7385,-0.60599 1.19259,-0.79538c0.45571,-0.202 0.93403,-0.303 1.43984,-0.303h6.6853c0.49126,0 0.95827,0.0947 1.40105,0.28409c0.44116,0.17679 0.82738,0.4292 1.15542,0.75757c0.34097,0.3156 0.61246,0.69439 0.81445,1.13619c0.21331,0.4292 0.32804,0.89008 0.33936,1.38247v-3.56032h3.73129v24.58062c0,0.5176 -0.10019,1.00368 -0.30219,1.4581c-0.19069,0.45457 -0.45571,0.8458 -0.79668,1.17417c-0.32804,0.34081 -0.71911,0.60599 -1.1732,0.79538c-0.45409,0.202 -0.9405,0.303 -1.45923,0.303h-11.77885v-3.73064h11.77885v-5.1889h-10.39558c-0.5058,0 -0.98413,-0.0947 -1.43984,-0.28393c-0.45409,-0.202 -0.85162,-0.46718 -1.19259,-0.79538c-0.32804,-0.34097 -0.59306,-0.73866 -0.79506,-1.19308c-0.18907,-0.45457 -0.28441,-0.94066 -0.28441,-1.45826zM382.31001,87.79256v-11.93043h-10.39558v11.93043zM396.94914,79.64965c0,-0.5302 0.0501,-1.00368 0.1519,-1.42028c0.11312,-0.4166 0.27795,-0.78908 0.49287,-1.11729c0.21331,-0.32837 0.49126,-0.62506 0.83223,-0.89008c0.3539,-0.27779 0.76436,-0.5302 1.23137,-0.75757l4.99983,-2.4049v-4.03364h-9.29833v3.50328h-3.88319v-3.50328c0,-0.53036 0.10181,-1.02905 0.3038,-1.49607c0.202,-0.47978 0.47995,-0.89008 0.83384,-1.23089c0.35228,-0.35358 0.76274,-0.63136 1.22976,-0.83336c0.47995,-0.2146 0.98575,-0.3219 1.51579,-0.3219h9.29833c0.53004,0 1.02776,0.1073 1.49478,0.3219c0.47995,0.202 0.89687,0.47978 1.25077,0.83336c0.3539,0.34081 0.63023,0.75111 0.83223,1.23089c0.202,0.46702 0.3038,0.96571 0.3038,1.49607v3.33295c0,0.5302 -0.0501,1.00352 -0.1519,1.42028c-0.10019,0.4166 -0.25856,0.79522 -0.47348,1.13619c-0.21492,0.3282 -0.49772,0.6249 -0.85162,0.89008c-0.34097,0.26502 -0.75143,0.5176 -1.23137,0.75741l-5.01761,2.38615v3.27607h-3.8638zM396.17347,86.63746h5.66238v5.66222h-5.66238z" fill="#ff9b40" stroke="none" stroke-width="1" stroke-linecap="butt"/><path d="M64.34924,130.59542v10.18356h-1.4558v-10.18356zM69.63273,131.70334v1.51255h2.48553v1.39895h-2.48553v6.16414h-1.39895v-6.16414h-1.84642v-1.39895h1.84642v-1.51255c0,-0.19408 0.03555,-0.3741 0.10649,-0.53974c0.07579,-0.17049 0.1776,-0.31948 0.30542,-0.44746c0.12782,-0.12782 0.27682,-0.22721 0.4473,-0.29815c0.17049,-0.07579 0.35034,-0.1136 0.53974,-0.1136h2.48553v1.39895zM78.88597,143.83253l1.58366,-3.73533l-2.96855,-6.88131h1.47005l2.20856,5.20538l2.20856,-5.20538h1.47005l-4.58049,10.61664zM92.85447,139.38003c0,0.19408 -0.03781,0.37636 -0.1136,0.54685c-0.07094,0.17032 -0.17049,0.31948 -0.29831,0.4473c-0.12298,0.12314 -0.26987,0.22252 -0.44019,0.29831c-0.1658,0.07094 -0.34566,0.10649 -0.53974,0.10649h-3.75666c-0.18939,0 -0.36925,-0.03555 -0.53974,-0.10649c-0.17049,-0.07579 -0.31964,-0.17517 -0.44746,-0.29831c-0.12298,-0.12782 -0.22252,-0.27698 -0.29815,-0.4473c-0.0711,-0.17049 -0.10649,-0.35277 -0.10649,-0.54685v-4.76519c0,-0.19408 0.03539,-0.37636 0.10649,-0.54668c0.07563,-0.17049 0.17517,-0.31722 0.29815,-0.44035c0.12782,-0.12782 0.27698,-0.22721 0.44746,-0.29831c0.17049,-0.07563 0.35034,-0.1136 0.53974,-0.1136h3.75666c0.19408,0 0.37394,0.03798 0.53974,0.1136c0.17032,0.0711 0.31722,0.17049 0.44019,0.29831c0.12782,0.12314 0.22737,0.26987 0.29831,0.44035c0.07579,0.17032 0.1136,0.35261 0.1136,0.54668zM87.70597,134.61484v4.76519h3.75666v-4.76519zM95.19085,133.21589h1.39184v6.16414h3.89871v-6.16414h1.39911v7.56309h-1.39911v-1.27824c-0.01406,0.17517 -0.06141,0.34081 -0.14188,0.49707c-0.08064,0.15626 -0.18471,0.29346 -0.31253,0.41191c-0.12314,0.1136 -0.26518,0.20361 -0.42613,0.26987c-0.16095,0.06626 -0.33144,0.09938 -0.5113,0.09938h-2.50686c-0.18923,0 -0.36925,-0.03555 -0.53957,-0.10649c-0.17049,-0.07579 -0.31964,-0.17517 -0.44746,-0.29831c-0.12314,-0.12782 -0.22252,-0.27698 -0.29831,-0.4473c-0.07094,-0.17049 -0.10649,-0.35277 -0.10649,-0.54685zM109.96185,130.30439v10.4746h-1.39184v-10.4746zM118.68958,137.71121h-5.00646v1.66882h5.00646v1.39895h-5.00646c-0.18939,0 -0.36925,-0.03555 -0.53974,-0.10649c-0.17049,-0.07579 -0.31964,-0.17517 -0.44746,-0.29831c-0.12298,-0.12782 -0.22252,-0.27698 -0.29815,-0.4473c-0.0711,-0.17049 -0.10649,-0.35277 -0.10649,-0.54685v-4.76519c0,-0.19408 0.03539,-0.37636 0.10649,-0.54668c0.07563,-0.17049 0.17517,-0.31722 0.29815,-0.44035c0.12782,-0.12782 0.27698,-0.22721 0.44746,-0.29831c0.17049,-0.07563 0.35034,-0.1136 0.53974,-0.1136h3.60751c0.19408,0 0.37636,0.03798 0.54685,0.1136c0.17032,0.0711 0.31722,0.17049 0.44019,0.29831c0.12782,0.12314 0.22737,0.26987 0.29831,0.44035c0.07579,0.17032 0.1136,0.35261 0.1136,0.54668zM113.68312,134.61484v1.69726h3.60751v-1.69726zM121.02596,137.47674c0,-0.19408 0.03555,-0.37394 0.10649,-0.53957c0.07579,-0.17049 0.17517,-0.31964 0.29831,-0.44746c0.12782,-0.12782 0.27698,-0.22721 0.44746,-0.29831c0.17032,-0.07563 0.35034,-0.1136 0.53974,-0.1136h3.60751v-1.46294h-4.56627v-1.39895h4.56627c0.19408,0 0.37636,0.03798 0.54685,0.1136c0.17032,0.0711 0.31705,0.17049 0.44019,0.29831c0.12782,0.12314 0.22721,0.26987 0.29831,0.44035c0.07579,0.17032 0.1136,0.35261 0.1136,0.54668v6.16414h-1.39895v-1.27824c-0.01422,0.17517 -0.06157,0.34081 -0.14204,0.49707c-0.08048,0.15626 -0.18471,0.29346 -0.31253,0.41191c-0.12298,0.1136 -0.26502,0.20361 -0.42597,0.26987c-0.16111,0.06626 -0.33144,0.09938 -0.51146,0.09938h-2.2155c-0.18939,0 -0.36941,-0.03555 -0.53974,-0.10649c-0.17049,-0.07579 -0.31964,-0.17517 -0.44746,-0.29831c-0.12314,-0.12782 -0.22252,-0.27698 -0.29831,-0.4473c-0.07094,-0.17049 -0.10649,-0.35277 -0.10649,-0.54685zM122.41796,139.38003h3.60751v-1.9033h-3.60751zM131.91247,140.77898l-3.02511,-7.56309h1.45567l2.29388,5.88716l2.30083,-5.88716h1.45583l-3.02527,7.56309zM144.25482,137.71121h-5.00646v1.66882h5.00646v1.39895h-5.00646c-0.18939,0 -0.36925,-0.03555 -0.53974,-0.10649c-0.17049,-0.07579 -0.31948,-0.17517 -0.4473,-0.29831c-0.12314,-0.12782 -0.22252,-0.27698 -0.29831,-0.4473c-0.0711,-0.17049 -0.10649,-0.35277 -0.10649,-0.54685v-4.76519c0,-0.19408 0.03539,-0.37636 0.10649,-0.54668c0.07579,-0.17049 0.17517,-0.31722 0.29831,-0.44035c0.12782,-0.12782 0.27682,-0.22721 0.4473,-0.29831c0.17049,-0.07563 0.35034,-0.1136 0.53974,-0.1136h3.60751c0.19408,0 0.37636,0.03798 0.54685,0.1136c0.17049,0.0711 0.31722,0.17049 0.44035,0.29831c0.12782,0.12314 0.22721,0.26987 0.29815,0.44035c0.07579,0.17032 0.1136,0.35261 0.1136,0.54668zM139.24836,134.61484v1.69726h3.60751v-1.69726zM157.64108,140.77898h-1.39895v-6.16414h-3.89871v6.16414h-1.39184v-7.56309h1.39184v1.33512c0.00953,-0.18471 0.05203,-0.35745 0.12782,-0.51841c0.07579,-0.16564 0.17517,-0.30768 0.29831,-0.42613c0.12782,-0.12298 0.27455,-0.21767 0.44019,-0.28409c0.1658,-0.07094 0.34323,-0.10649 0.53263,-0.10649h2.49975c0.19408,0 0.37636,0.03798 0.54685,0.1136c0.17049,0.0711 0.31722,0.17049 0.44019,0.29831c0.12782,0.12314 0.22737,0.26987 0.29831,0.44035c0.07579,0.17032 0.1136,0.35261 0.1136,0.54668zM166.51086,139.38003c0,0.19408 -0.03781,0.37636 -0.1136,0.54685c-0.0711,0.17032 -0.17049,0.31948 -0.29831,0.4473c-0.12314,0.12314 -0.26987,0.22252 -0.44019,0.29831c-0.1658,0.07094 -0.34566,0.10649 -0.53974,0.10649h-3.75666c-0.18939,0 -0.36941,-0.03555 -0.53974,-0.10649c-0.17049,-0.07579 -0.31964,-0.17517 -0.44746,-0.29831c-0.12314,-0.12782 -0.22252,-0.27698 -0.29815,-0.4473c-0.0711,-0.17049 -0.10665,-0.35277 -0.10665,-0.54685v-4.76519c0,-0.19408 0.03555,-0.37636 0.10665,-0.54668c0.07563,-0.17049 0.17501,-0.31722 0.29815,-0.44035c0.12782,-0.12782 0.27698,-0.22721 0.44746,-0.29831c0.17032,-0.07563 0.35034,-0.1136 0.53974,-0.1136h3.75666c0.19408,0 0.37394,0.03798 0.53974,0.1136c0.17032,0.0711 0.31705,0.17049 0.44019,0.29831c0.12782,0.12314 0.22721,0.26987 0.29831,0.44035c0.07579,0.17032 0.1136,0.35261 0.1136,0.54668zM161.36235,134.61484v4.76519h3.75666v-4.76519zM170.41667,140.77898l-2.44287,-7.56309h1.41317l1.78953,5.70246l1.66882,-5.70246h1.42739l1.66882,5.70246l1.78969,-5.70246h1.41317l-2.44303,7.56309h-1.45567l-1.69015,-5.5533l-1.68304,5.5533zM181.63688,142.94488h-1.0297l1.04392,-2.16589h-1.04392v-2.12339h2.12339v2.12339zM189.93864,143.83253l1.5835,-3.73533l-2.96839,-6.88131h1.47005l2.20856,5.20538l2.20856,-5.20538h1.47005l-4.58049,10.61664zM203.90714,139.38003c0,0.19408 -0.03781,0.37636 -0.1136,0.54685c-0.0711,0.17032 -0.17049,0.31948 -0.29831,0.4473c-0.12314,0.12314 -0.26987,0.22252 -0.44019,0.29831c-0.1658,0.07094 -0.34566,0.10649 -0.53974,0.10649h-3.75666c-0.18939,0 -0.36941,-0.03555 -0.53974,-0.10649c-0.17049,-0.07579 -0.31964,-0.17517 -0.44746,-0.29831c-0.12298,-0.12782 -0.22252,-0.27698 -0.29815,-0.4473c-0.0711,-0.17049 -0.10665,-0.35277 -0.10665,-0.54685v-4.76519c0,-0.19408 0.03555,-0.37636 0.10665,-0.54668c0.07563,-0.17049 0.17517,-0.31722 0.29815,-0.44035c0.12782,-0.12782 0.27698,-0.22721 0.44746,-0.29831c0.17032,-0.07563 0.35034,-0.1136 0.53974,-0.1136h3.75666c0.19408,0 0.37394,0.03798 0.53974,0.1136c0.17032,0.0711 0.31705,0.17049 0.44019,0.29831c0.12782,0.12314 0.22721,0.26987 0.29831,0.44035c0.07579,0.17032 0.1136,0.35261 0.1136,0.54668zM198.75864,134.61484v4.76519h3.75666v-4.76519zM206.24352,133.21589h1.39184v6.16414h3.89822v-6.16414h1.39944v7.56309h-1.39944v-1.27824c-0.01293,0.17517 -0.06141,0.34081 -0.14221,0.49707c-0.07918,0.15626 -0.18422,0.29346 -0.31188,0.41191c-0.12281,0.1136 -0.26502,0.20361 -0.42597,0.26987c-0.16095,0.06626 -0.33144,0.09938 -0.5113,0.09938h-2.50686c-0.18939,0 -0.36925,-0.03555 -0.53974,-0.10649c-0.17032,-0.07579 -0.31948,-0.17517 -0.4473,-0.29831c-0.12314,-0.12782 -0.22252,-0.27698 -0.29831,-0.4473c-0.07094,-0.17049 -0.10649,-0.35277 -0.10649,-0.54685zM216.65461,134.61484v6.16414h-1.39297v-7.56309h1.39297v1.33512c0.0097,-0.18471 0.05171,-0.35745 0.12766,-0.51841c0.07595,-0.16564 0.17453,-0.30768 0.29734,-0.42613c0.12928,-0.12298 0.27472,-0.21767 0.44116,-0.28409c0.16483,-0.07094 0.34259,-0.10649 0.53327,-0.10649h1.48347c0.19392,0 0.37329,0.03798 0.53974,0.1136c0.16968,0.0711 0.31996,0.17049 0.44763,0.29831c0.12766,0.12314 0.22624,0.26987 0.29734,0.44035c0.07595,0.17032 0.11473,0.35261 0.11473,0.54668v1.2784h-1.39944v-1.2784zM228.60638,140.77898l-2.44336,-7.56309h1.41398l1.78889,5.70246l1.6693,-5.70246h1.42691l1.6693,5.70246l1.78889,-5.70246h1.41398l-2.44336,7.56309h-1.456l-1.69031,-5.5533l-1.68223,5.5533zM245.33659,139.38003c0,0.19408 -0.03717,0.37636 -0.11312,0.54685c-0.0711,0.17032 -0.16968,0.31948 -0.29896,0.4473c-0.12281,0.12314 -0.26987,0.22252 -0.43955,0.29831c-0.16645,0.07094 -0.34582,0.10649 -0.53974,0.10649h-3.75715c-0.18907,0 -0.36844,-0.03555 -0.53974,-0.10649c-0.16968,-0.07579 -0.31835,-0.17517 -0.44763,-0.29831c-0.12281,-0.12782 -0.22139,-0.27698 -0.29734,-0.4473c-0.0711,-0.17049 -0.10665,-0.35277 -0.10665,-0.54685v-4.76519c0,-0.19408 0.03555,-0.37636 0.10665,-0.54668c0.07595,-0.17049 0.17453,-0.31722 0.29734,-0.44035c0.12928,-0.12782 0.27795,-0.22721 0.44763,-0.29831c0.17129,-0.07563 0.35067,-0.1136 0.53974,-0.1136h3.75715c0.19392,0 0.37329,0.03798 0.53974,0.1136c0.16968,0.0711 0.31673,0.17049 0.43955,0.29831c0.12928,0.12314 0.22785,0.26987 0.29896,0.44035c0.07595,0.17032 0.11312,0.35261 0.11312,0.54668zM240.18808,134.61484v4.76519h3.75715v-4.76519zM249.06464,134.61484v6.16414h-1.39136v-7.56309h1.39136v1.33512c0.0097,-0.18471 0.05333,-0.35745 0.12928,-0.51841c0.07433,-0.16564 0.17453,-0.30768 0.29734,-0.42613c0.12766,-0.12298 0.27472,-0.21767 0.44116,-0.28409c0.16483,-0.07094 0.34259,-0.10649 0.53166,-0.10649h1.48508c0.19392,0 0.37329,0.03798 0.53974,0.1136c0.16968,0.0711 0.31835,0.17049 0.44601,0.29831c0.12928,0.12314 0.22785,0.26987 0.29896,0.44035c0.07595,0.17032 0.11312,0.35261 0.11312,0.54668v1.2784h-1.39782v-1.2784zM260.08722,140.77898l-3.60848,-3.23115v3.23115h-1.39136v-10.4746h1.39136v5.89411l3.3176,-2.98261h1.96664l-4.06257,3.65017l4.35344,3.91293zM269.61017,139.38003c0,0.19408 -0.03878,0.37636 -0.11473,0.54685c-0.06949,0.17032 -0.16968,0.31948 -0.29734,0.4473c-0.12281,0.12314 -0.26987,0.22252 -0.44116,0.29831c-0.16483,0.07094 -0.3442,0.10649 -0.53974,0.10649h-3.75553c-0.18907,0 -0.37006,-0.03555 -0.53974,-0.10649c-0.17129,-0.07579 -0.31996,-0.17517 -0.44763,-0.29831c-0.12281,-0.12782 -0.223,-0.27698 -0.29896,-0.4473c-0.0711,-0.17049 -0.10665,-0.35277 -0.10665,-0.54685v-4.76519c0,-0.19408 0.03555,-0.37636 0.10665,-0.54668c0.07595,-0.17049 0.17614,-0.31722 0.29896,-0.44035c0.12766,-0.12782 0.27633,-0.22721 0.44763,-0.29831c0.16968,-0.07563 0.35067,-0.1136 0.53974,-0.1136h3.75553c0.19553,0 0.37491,0.03798 0.53974,0.1136c0.17129,0.0711 0.31835,0.17049 0.44116,0.29831c0.12766,0.12314 0.22785,0.26987 0.29734,0.44035c0.07595,0.17032 0.11473,0.35261 0.11473,0.54668zM264.46167,134.61484v4.76519h3.75553v-4.76519zM271.94688,133.21589h1.39136v6.16414h3.89935v-6.16414h1.39782v7.56309h-1.39782v-1.27824c-0.01454,0.17517 -0.06302,0.34081 -0.14221,0.49707c-0.0808,0.15626 -0.18584,0.29346 -0.3135,0.41191c-0.12281,0.1136 -0.26502,0.20361 -0.425,0.26987c-0.1616,0.06626 -0.33128,0.09938 -0.51226,0.09938h-2.50638c-0.18907,0 -0.37006,-0.03555 -0.53974,-0.10649c-0.17129,-0.07579 -0.31996,-0.17517 -0.44763,-0.29831c-0.12281,-0.12782 -0.223,-0.27698 -0.29734,-0.4473c-0.0711,-0.17049 -0.10665,-0.35277 -0.10665,-0.54685zM280.52448,133.21589h1.84706v-2.32927h1.39782v2.32927h2.48699v1.39895h-2.48699v4.76519h2.48699v1.39895h-2.48699c-0.18907,0 -0.36844,-0.03555 -0.53812,-0.10649c-0.17129,-0.07579 -0.31996,-0.17517 -0.44763,-0.29831c-0.12766,-0.12782 -0.22947,-0.27698 -0.30542,-0.4473c-0.0711,-0.17049 -0.10665,-0.35277 -0.10665,-0.54685v-4.76519h-1.84706zM294.52207,140.77898l-2.44336,-7.56309h1.41398l1.78889,5.70246l1.6693,-5.70246h1.42691l1.6693,5.70246l1.78889,-5.70246h1.41398l-2.44336,7.56309h-1.456l-1.69031,-5.5533l-1.68223,5.5533zM306.18296,133.21589v7.56309h-1.39944v-7.56309zM304.71242,130.30439h1.54164v1.45567h-1.54164zM309.98212,130.30439v10.4746h-1.39297v-10.4746zM313.7021,130.30439v10.4746h-1.39136v-10.4746zM327.08239,140.77898h-1.39944v-6.16414h-3.89935v6.16414h-1.39136v-7.56309h1.39136v1.33512c0.0097,-0.18471 0.05333,-0.35745 0.12928,-0.51841c0.07433,-0.16564 0.17453,-0.30768 0.29734,-0.42613c0.12766,-0.12298 0.27472,-0.21767 0.44116,-0.28409c0.16483,-0.07094 0.34259,-0.10649 0.53166,-0.10649h2.49992c0.19392,0 0.37652,0.03798 0.5462,0.1136c0.17129,0.0711 0.31835,0.17049 0.44116,0.29831c0.12766,0.12314 0.22624,0.26987 0.29734,0.44035c0.07595,0.17032 0.11473,0.35261 0.11473,0.54668zM335.95248,139.38003c0,0.19408 -0.03878,0.37636 -0.11473,0.54685c-0.0711,0.17032 -0.16968,0.31948 -0.29734,0.4473c-0.12443,0.12314 -0.26987,0.22252 -0.44116,0.29831c-0.16483,0.07094 -0.34582,0.10649 -0.53974,0.10649h-3.75715c-0.18907,0 -0.36844,-0.03555 -0.53974,-0.10649c-0.16968,-0.07579 -0.31835,-0.17517 -0.44601,-0.29831c-0.12443,-0.12782 -0.223,-0.27698 -0.29896,-0.4473c-0.0711,-0.17049 -0.10665,-0.35277 -0.10665,-0.54685v-4.76519c0,-0.19408 0.03555,-0.37636 0.10665,-0.54668c0.07595,-0.17049 0.17453,-0.31722 0.29896,-0.44035c0.12766,-0.12782 0.27633,-0.22721 0.44601,-0.29831c0.17129,-0.07563 0.35067,-0.1136 0.53974,-0.1136h3.75715c0.19392,0 0.37491,0.03798 0.53974,0.1136c0.17129,0.0711 0.31673,0.17049 0.44116,0.29831c0.12766,0.12314 0.22624,0.26987 0.29734,0.44035c0.07595,0.17032 0.11473,0.35261 0.11473,0.54668zM330.80237,134.61484v4.76519h3.75715v-4.76519zM337.84802,133.21589h1.84545v-2.32927h1.39944v2.32927h2.48537v1.39895h-2.48537v4.76519h2.48537v1.39895h-2.48537c-0.18907,0 -0.36844,-0.03555 -0.53974,-0.10649c-0.16968,-0.07579 -0.31996,-0.17517 -0.44763,-0.29831c-0.12766,-0.12782 -0.22947,-0.27698 -0.30542,-0.4473c-0.0711,-0.17049 -0.10665,-0.35277 -0.10665,-0.54685v-4.76519h-1.84545zM356.96503,139.38003c0,0.19408 -0.03878,0.37636 -0.11312,0.54685c-0.0711,0.17032 -0.17129,0.31948 -0.29896,0.4473c-0.12281,0.12314 -0.26987,0.22252 -0.43955,0.29831c-0.17129,0.07094 -0.3539,0.10649 -0.54782,0.10649h-3.89774c-0.19069,0 -0.37006,-0.03555 -0.53974,-0.10649c-0.17129,-0.07579 -0.31996,-0.17517 -0.44763,-0.29831c-0.12281,-0.12782 -0.223,-0.27698 -0.29896,-0.4473c-0.0711,-0.17049 -0.10665,-0.35277 -0.10665,-0.54685v-9.07565h1.39297v4.24663c0.00808,-0.18471 0.05171,-0.35745 0.12766,-0.51841c0.07595,-0.16564 0.17453,-0.30768 0.29734,-0.42613c0.12766,-0.12298 0.27472,-0.21767 0.44116,-0.28409c0.16483,-0.07094 0.34259,-0.10649 0.53166,-0.10649h2.49992c0.19392,0 0.37652,0.03798 0.54782,0.1136c0.16968,0.0711 0.31673,0.17049 0.43955,0.29831c0.12766,0.12314 0.22785,0.26987 0.29896,0.44035c0.07433,0.17032 0.11312,0.35261 0.11312,0.54668zM351.66786,134.61484v4.76519h3.89774v-4.76519zM365.69292,137.71121h-5.0063v1.66882h5.0063v1.39895h-5.0063c-0.19069,0 -0.37006,-0.03555 -0.53974,-0.10649c-0.17129,-0.07579 -0.31996,-0.17517 -0.44763,-0.29831c-0.12281,-0.12782 -0.223,-0.27698 -0.29896,-0.4473c-0.0711,-0.17049 -0.10665,-0.35277 -0.10665,-0.54685v-4.76519c0,-0.19408 0.03555,-0.37636 0.10665,-0.54668c0.07595,-0.17049 0.17614,-0.31722 0.29896,-0.44035c0.12766,-0.12782 0.27633,-0.22721 0.44763,-0.29831c0.16968,-0.07563 0.34905,-0.1136 0.53974,-0.1136h3.60686c0.19392,0 0.37652,0.03798 0.5462,0.1136c0.17129,0.0711 0.31835,0.17049 0.44116,0.29831c0.12766,0.12314 0.22785,0.26987 0.29734,0.44035c0.07595,0.17032 0.11473,0.35261 0.11473,0.54668zM360.68662,134.61484v1.69726h3.60686v-1.69726zM376.95628,139.38003v-1.75414h-3.3176c-0.19392,0 -0.37652,-0.03539 -0.5462,-0.10649c-0.17129,-0.07579 -0.31996,-0.17517 -0.44763,-0.29831c-0.12281,-0.12782 -0.223,-0.27682 -0.29896,-0.4473c-0.06949,-0.17049 -0.10504,-0.35277 -0.10504,-0.54685v-1.6121c0,-0.19408 0.03555,-0.37636 0.10504,-0.54668c0.07595,-0.17049 0.17614,-0.31722 0.29896,-0.44035c0.12766,-0.12782 0.27633,-0.22721 0.44763,-0.29831c0.16968,-0.07563 0.35228,-0.1136 0.5462,-0.1136h4.42454v1.39895h-4.42454v1.6121h3.3176c0.19392,0 0.37329,0.03781 0.53974,0.1136c0.16968,0.0711 0.31835,0.17049 0.44601,0.29831c0.12766,0.12314 0.22785,0.26987 0.29896,0.44019c0.07595,0.17049 0.11312,0.35277 0.11312,0.54685v1.75414c0,0.19408 -0.03717,0.37636 -0.11312,0.54685c-0.0711,0.17032 -0.17129,0.31948 -0.29896,0.4473c-0.12766,0.12314 -0.27633,0.22252 -0.44601,0.29831c-0.16645,0.07094 -0.34582,0.10649 -0.53974,0.10649h-4.71542v-1.39895zM380.54213,137.47674c0,-0.19408 0.03555,-0.37394 0.10665,-0.53957c0.07595,-0.17049 0.17453,-0.31964 0.29734,-0.44746c0.12766,-0.12782 0.27795,-0.22721 0.44763,-0.29831c0.17129,-0.07563 0.35067,-0.1136 0.53974,-0.1136h3.60848v-1.46294h-4.56675v-1.39895h4.56675c0.19392,0 0.37491,0.03798 0.5462,0.1136c0.16968,0.0711 0.31673,0.17049 0.43955,0.29831c0.12766,0.12314 0.22785,0.26987 0.29896,0.44035c0.07595,0.17032 0.11312,0.35261 0.11312,0.54668v6.16414h-1.39782v-1.27824c-0.01454,0.17517 -0.06302,0.34081 -0.14221,0.49707c-0.0808,0.15626 -0.18584,0.29346 -0.3135,0.41191c-0.12281,0.1136 -0.26502,0.20361 -0.425,0.26987c-0.1616,0.06626 -0.33128,0.09938 -0.51226,0.09938h-2.2155c-0.18907,0 -0.36844,-0.03555 -0.53974,-0.10649c-0.16968,-0.07579 -0.31996,-0.17517 -0.44763,-0.29831c-0.12281,-0.12782 -0.22139,-0.27698 -0.29734,-0.4473c-0.0711,-0.17049 -0.10665,-0.35277 -0.10665,-0.54685zM381.93349,139.38003h3.60848v-1.9033h-3.60848zM391.42897,140.77898l-3.02511,-7.56309h1.45438l2.29469,5.88716l2.30115,-5.88716h1.456l-3.02672,7.56309zM403.77018,137.71121h-5.0063v1.66882h5.0063v1.39895h-5.0063c-0.18907,0 -0.36844,-0.03555 -0.53974,-0.10649c-0.16968,-0.07579 -0.31996,-0.17517 -0.44763,-0.29831c-0.12281,-0.12782 -0.22139,-0.27698 -0.29734,-0.4473c-0.0711,-0.17049 -0.10665,-0.35277 -0.10665,-0.54685v-4.76519c0,-0.19408 0.03555,-0.37636 0.10665,-0.54668c0.07595,-0.17049 0.17453,-0.31722 0.29734,-0.44035c0.12766,-0.12782 0.27795,-0.22721 0.44763,-0.29831c0.17129,-0.07563 0.35067,-0.1136 0.53974,-0.1136h3.60848c0.19392,0 0.37491,0.03798 0.5462,0.1136c0.16968,0.0711 0.31673,0.17049 0.43955,0.29831c0.12928,0.12314 0.22785,0.26987 0.29896,0.44035c0.07595,0.17032 0.11312,0.35261 0.11312,0.54668zM398.76388,134.61484v1.69726h3.60848v-1.69726zM406.10688,134.61484c0,-0.19408 0.03555,-0.37636 0.10665,-0.54668c0.07595,-0.17049 0.17453,-0.31722 0.29896,-0.44035c0.12766,-0.12782 0.27633,-0.22721 0.44601,-0.29831c0.17129,-0.07563 0.35067,-0.1136 0.53974,-0.1136h3.89935v-2.91151h1.39944v10.4746h-1.39944v-1.27824c-0.01454,0.17517 -0.06141,0.34081 -0.14221,0.49707c-0.0808,0.15626 -0.18422,0.29346 -0.31188,0.41191c-0.12281,0.1136 -0.26502,0.20361 -0.42662,0.26987c-0.1616,0.06626 -0.33128,0.09938 -0.51065,0.09938h-2.508c-0.18907,0 -0.36844,-0.03555 -0.53974,-0.10649c-0.16968,-0.07579 -0.31835,-0.17517 -0.44601,-0.29831c-0.12443,-0.12782 -0.223,-0.27698 -0.29896,-0.4473c-0.0711,-0.17049 -0.10665,-0.35277 -0.10665,-0.54685zM407.49824,139.38003h3.89935v-4.76519h-3.89935zM415.12565,138.65559h2.12339v2.12339h-2.12339zM54.62735,148.37117v10.18356h-1.4558v-10.18356zM59.91083,149.47908v1.51255h2.4855v1.39895h-2.4855v6.16414h-1.399v-6.16414h-1.84637v-1.39895h1.84637v-1.51255c0,-0.19408 0.03552,-0.3741 0.10653,-0.53974c0.07576,-0.17049 0.17755,-0.31948 0.30537,-0.44746c0.12782,-0.12782 0.27695,-0.22721 0.44738,-0.29815c0.17044,-0.07579 0.35034,-0.1136 0.53972,-0.1136h2.4855v1.39895zM69.16409,161.60828l1.5835,-3.73533l-2.96839,-6.88131h1.47005l2.20856,5.20538l2.20856,-5.20538h1.47005l-4.58049,10.61664zM83.1326,157.15578c0,0.19408 -0.03781,0.37636 -0.1136,0.54685c-0.0711,0.17032 -0.17049,0.31948 -0.29831,0.4473c-0.12298,0.12314 -0.26987,0.22252 -0.44019,0.29831c-0.1658,0.07094 -0.34566,0.10649 -0.53974,0.10649h-3.75666c-0.18939,0 -0.36925,-0.03555 -0.53974,-0.10649c-0.17049,-0.07579 -0.31964,-0.17517 -0.44746,-0.29831c-0.12298,-0.12782 -0.22252,-0.27698 -0.29815,-0.4473c-0.0711,-0.17049 -0.10665,-0.35277 -0.10665,-0.54685v-4.76519c0,-0.19408 0.03555,-0.37636 0.10665,-0.54668c0.07563,-0.17049 0.17517,-0.31722 0.29815,-0.44035c0.12782,-0.12782 0.27698,-0.22721 0.44746,-0.29831c0.17049,-0.07563 0.35034,-0.1136 0.53974,-0.1136h3.75666c0.19408,0 0.37394,0.03798 0.53974,0.1136c0.17032,0.0711 0.31722,0.17049 0.44019,0.29831c0.12782,0.12314 0.22721,0.26987 0.29831,0.44035c0.07579,0.17032 0.1136,0.35261 0.1136,0.54668zM77.98409,152.39059v4.76519h3.75666v-4.76519zM85.46897,150.99163h1.39184v6.16414h3.89871v-6.16414h1.39911v7.56309h-1.39911v-1.27824c-0.01422,0.17517 -0.06157,0.34081 -0.14204,0.49707c-0.08048,0.15626 -0.18454,0.29346 -0.31237,0.41191c-0.12314,0.1136 -0.26518,0.20361 -0.42613,0.26987c-0.16095,0.06626 -0.33144,0.09938 -0.5113,0.09938h-2.50686c-0.18939,0 -0.36925,-0.03555 -0.53974,-0.10649c-0.17032,-0.07579 -0.31948,-0.17517 -0.4473,-0.29831c-0.12314,-0.12782 -0.22252,-0.27698 -0.29831,-0.4473c-0.07094,-0.17049 -0.10649,-0.35277 -0.10649,-0.54685zM100.41757,158.55473l-2.44287,-7.56309h1.41317l1.78953,5.70246l1.66882,-5.70246h1.42739l1.66882,5.70246l1.78969,-5.70246h1.41317l-2.44287,7.56309h-1.45583l-1.69015,-5.5533l-1.68304,5.5533zM110.60808,155.25248c0,-0.19408 0.03555,-0.37394 0.10665,-0.53957c0.07563,-0.17049 0.17517,-0.31964 0.29815,-0.44746c0.12782,-0.12782 0.27698,-0.22721 0.44746,-0.29831c0.17049,-0.07563 0.35034,-0.1136 0.53974,-0.1136h3.60751v-1.46294h-4.56627v-1.39895h4.56627c0.19408,0 0.37636,0.03798 0.54685,0.1136c0.17032,0.0711 0.31722,0.17049 0.44019,0.29831c0.12782,0.12314 0.22737,0.26987 0.29831,0.44035c0.07579,0.17032 0.1136,0.35261 0.1136,0.54668v6.16414h-1.39895v-1.27824c-0.01422,0.17517 -0.06157,0.34081 -0.14204,0.49707c-0.08048,0.15626 -0.18471,0.29346 -0.31253,0.41191c-0.12298,0.1136 -0.26502,0.20361 -0.42597,0.26987c-0.16095,0.06626 -0.33144,0.09938 -0.5113,0.09938h-2.21567c-0.18939,0 -0.36925,-0.03555 -0.53974,-0.10649c-0.17049,-0.07579 -0.31964,-0.17517 -0.44746,-0.29831c-0.12298,-0.12782 -0.22252,-0.27698 -0.29815,-0.4473c-0.0711,-0.17049 -0.10665,-0.35277 -0.10665,-0.54685zM112.00008,157.15578h3.60751v-1.9033h-3.60751zM126.03258,158.55473h-1.39911v-6.16414h-3.89871v6.16414h-1.39184v-7.56309h1.39184v1.33512c0.00953,-0.18471 0.0522,-0.35745 0.12782,-0.51841c0.07579,-0.16564 0.17517,-0.30768 0.29831,-0.42613c0.12782,-0.12298 0.27455,-0.21767 0.44035,-0.28409c0.16564,-0.07094 0.34323,-0.10649 0.53263,-0.10649h2.49959c0.19424,0 0.37652,0.03798 0.54685,0.1136c0.17049,0.0711 0.31722,0.17049 0.44035,0.29831c0.12782,0.12314 0.22721,0.26987 0.29831,0.44035c0.07563,0.17032 0.1136,0.35261 0.1136,0.54668zM127.92149,150.99163h1.84642v-2.32927h1.39895v2.32927h2.48553v1.39895h-2.48553v4.76519h2.48553v1.39895h-2.48553c-0.18939,0 -0.36925,-0.03555 -0.53974,-0.10649c-0.17032,-0.07579 -0.31948,-0.17517 -0.4473,-0.29831c-0.12782,-0.12782 -0.22963,-0.27698 -0.30542,-0.4473c-0.07094,-0.17049 -0.10649,-0.35277 -0.10649,-0.54685v-4.76519h-1.84642zM139.90881,150.99163h1.84642v-2.32927h1.39895v2.32927h2.48553v1.39895h-2.48553v4.76519h2.48553v1.39895h-2.48553c-0.18939,0 -0.36925,-0.03555 -0.53974,-0.10649c-0.17049,-0.07579 -0.31964,-0.17517 -0.44746,-0.29831c-0.12782,-0.12782 -0.22947,-0.27698 -0.30526,-0.4473c-0.0711,-0.17049 -0.10649,-0.35277 -0.10649,-0.54685v-4.76519h-1.84642zM154.51643,157.15578c0,0.19408 -0.03781,0.37636 -0.1136,0.54685c-0.07094,0.17032 -0.17032,0.31948 -0.29815,0.4473c-0.12314,0.12314 -0.26987,0.22252 -0.44035,0.29831c-0.16564,0.07094 -0.34566,0.10649 -0.53974,0.10649h-3.75666c-0.18939,0 -0.36925,-0.03555 -0.53974,-0.10649c-0.17049,-0.07579 -0.31948,-0.17517 -0.4473,-0.29831c-0.12314,-0.12782 -0.22252,-0.27698 -0.29831,-0.4473c-0.0711,-0.17049 -0.10649,-0.35277 -0.10649,-0.54685v-4.76519c0,-0.19408 0.03539,-0.37636 0.10649,-0.54668c0.07579,-0.17049 0.17517,-0.31722 0.29831,-0.44035c0.12782,-0.12782 0.27682,-0.22721 0.4473,-0.29831c0.17049,-0.07563 0.35034,-0.1136 0.53974,-0.1136h3.75666c0.19408,0 0.3741,0.03798 0.53974,0.1136c0.17049,0.0711 0.31722,0.17049 0.44035,0.29831c0.12782,0.12314 0.22721,0.26987 0.29815,0.44035c0.07579,0.17032 0.1136,0.35261 0.1136,0.54668zM149.36793,152.39059v4.76519h3.75666v-4.76519zM160.77285,150.99163h1.84642v-2.32927h1.39895v2.32927h2.48553v1.39895h-2.48553v4.76519h2.48553v1.39895h-2.48553c-0.18939,0 -0.36925,-0.03555 -0.53974,-0.10649c-0.17032,-0.07579 -0.31948,-0.17517 -0.4473,-0.29831c-0.12782,-0.12782 -0.22963,-0.27698 -0.30542,-0.4473c-0.07094,-0.17049 -0.10649,-0.35277 -0.10649,-0.54685v-4.76519h-1.84642zM168.84012,155.25248c0,-0.19408 0.03555,-0.37394 0.10649,-0.53957c0.07579,-0.17049 0.17517,-0.31964 0.29831,-0.44746c0.12782,-0.12782 0.27698,-0.22721 0.4473,-0.29831c0.17049,-0.07563 0.35034,-0.1136 0.53974,-0.1136h3.60767v-1.46294h-4.56627v-1.39895h4.56627c0.19408,0 0.37636,0.03798 0.54668,0.1136c0.17049,0.0711 0.31722,0.17049 0.44035,0.29831c0.12782,0.12314 0.22721,0.26987 0.29831,0.44035c0.07563,0.17032 0.1136,0.35261 0.1136,0.54668v6.16414h-1.39895v-1.27824c-0.01422,0.17517 -0.06157,0.34081 -0.14204,0.49707c-0.08048,0.15626 -0.18471,0.29346 -0.31253,0.41191c-0.12314,0.1136 -0.26518,0.20361 -0.42613,0.26987c-0.16095,0.06626 -0.33128,0.09938 -0.5113,0.09938h-2.21567c-0.18939,0 -0.36925,-0.03555 -0.53974,-0.10649c-0.17032,-0.07579 -0.31948,-0.17517 -0.4473,-0.29831c-0.12314,-0.12782 -0.22252,-0.27698 -0.29831,-0.4473c-0.07094,-0.17049 -0.10649,-0.35277 -0.10649,-0.54685zM170.23197,157.15578h3.60767v-1.9033h-3.60767zM182.57431,158.55473l-3.60751,-3.23115v3.23115h-1.39184v-10.4746h1.39184v5.89411l3.31631,-2.98261h1.96713l-4.06192,3.65017l4.35312,3.91293zM191.95538,155.48696h-5.00646v1.66882h5.00646v1.39895h-5.00646c-0.18939,0 -0.36941,-0.03555 -0.53974,-0.10649c-0.17049,-0.07579 -0.31964,-0.17517 -0.44746,-0.29831c-0.12314,-0.12782 -0.22252,-0.27698 -0.29831,-0.4473c-0.07094,-0.17049 -0.10649,-0.35277 -0.10649,-0.54685v-4.76519c0,-0.19408 0.03555,-0.37636 0.10649,-0.54668c0.07579,-0.17049 0.17517,-0.31722 0.29831,-0.44035c0.12782,-0.12782 0.27698,-0.22721 0.44746,-0.29831c0.17032,-0.07563 0.35034,-0.1136 0.53974,-0.1136h3.60751c0.19408,0 0.37636,0.03798 0.54685,0.1136c0.17032,0.0711 0.31705,0.17049 0.44019,0.29831c0.12782,0.12314 0.22721,0.26987 0.29831,0.44035c0.07579,0.17032 0.1136,0.35261 0.1136,0.54668zM186.94892,152.39059v1.69726h3.60751v-1.69726zM198.65199,155.25248c0,-0.19408 0.03555,-0.37394 0.10665,-0.53957c0.07563,-0.17049 0.17517,-0.31964 0.29815,-0.44746c0.12782,-0.12782 0.27698,-0.22721 0.44746,-0.29831c0.17049,-0.07563 0.35034,-0.1136 0.53974,-0.1136h3.60751v-1.46294h-4.56627v-1.39895h4.56627c0.19408,0 0.37636,0.03798 0.54685,0.1136c0.17032,0.0711 0.31722,0.17049 0.44019,0.29831c0.12782,0.12314 0.22737,0.26987 0.29831,0.44035c0.07579,0.17032 0.1136,0.35261 0.1136,0.54668v6.16414h-1.39895v-1.27824c-0.01422,0.17517 -0.06157,0.34081 -0.14204,0.49707c-0.08048,0.15626 -0.18471,0.29346 -0.31253,0.41191c-0.12298,0.1136 -0.26502,0.20361 -0.42597,0.26987c-0.16095,0.06626 -0.33144,0.09938 -0.5113,0.09938h-2.21567c-0.18939,0 -0.36925,-0.03555 -0.53974,-0.10649c-0.17049,-0.07579 -0.31964,-0.17517 -0.44746,-0.29831c-0.12298,-0.12782 -0.22252,-0.27698 -0.29815,-0.4473c-0.0711,-0.17049 -0.10665,-0.35277 -0.10665,-0.54685zM200.04399,157.15578h3.60751v-1.9033h-3.60751zM218.43704,157.15578c0,0.19408 -0.03878,0.37636 -0.11473,0.54685c-0.06949,0.17032 -0.16968,0.31948 -0.29734,0.4473c-0.12281,0.12314 -0.26987,0.22252 -0.44116,0.29831c-0.16968,0.07094 -0.35228,0.10649 -0.5462,0.10649h-3.89935c-0.18907,0 -0.36844,-0.03555 -0.53812,-0.10649c-0.17129,-0.07579 -0.31996,-0.17517 -0.44763,-0.29831c-0.12443,-0.12782 -0.223,-0.27698 -0.29896,-0.4473c-0.0711,-0.17049 -0.10665,-0.35277 -0.10665,-0.54685v-9.07565h1.39136v4.24663c0.0097,-0.18471 0.05333,-0.35745 0.12928,-0.51841c0.07433,-0.16564 0.17453,-0.30768 0.29734,-0.42613c0.12766,-0.12298 0.27472,-0.21767 0.44116,-0.28409c0.16483,-0.07094 0.34259,-0.10649 0.53166,-0.10649h2.49992c0.19392,0 0.37652,0.03798 0.5462,0.1136c0.17129,0.0711 0.31835,0.17049 0.44116,0.29831c0.12766,0.12314 0.22785,0.26987 0.29734,0.44035c0.07595,0.17032 0.11473,0.35261 0.11473,0.54668zM213.13825,152.39059v4.76519h3.89935v-4.76519zM222.15863,152.39059v6.16414h-1.39297v-7.56309h1.39297v1.33512c0.00808,-0.18471 0.05171,-0.35745 0.12766,-0.51841c0.07595,-0.16564 0.17453,-0.30768 0.29734,-0.42613c0.12766,-0.12298 0.27472,-0.21767 0.44116,-0.28409c0.16483,-0.07094 0.34259,-0.10649 0.53166,-0.10649h1.48508c0.19392,0 0.37329,0.03798 0.53974,0.1136c0.16968,0.0711 0.31835,0.17049 0.44763,0.29831c0.12766,0.12314 0.22624,0.26987 0.29734,0.44035c0.07595,0.17032 0.11312,0.35261 0.11312,0.54668v1.2784h-1.39782v-1.2784zM234.57903,155.48696h-5.00791v1.66882h5.00791v1.39895h-5.00791c-0.18907,0 -0.36844,-0.03555 -0.53974,-0.10649c-0.16968,-0.07579 -0.31835,-0.17517 -0.44601,-0.29831c-0.12443,-0.12782 -0.223,-0.27698 -0.29896,-0.4473c-0.0711,-0.17049 -0.10665,-0.35277 -0.10665,-0.54685v-4.76519c0,-0.19408 0.03555,-0.37636 0.10665,-0.54668c0.07595,-0.17049 0.17453,-0.31722 0.29896,-0.44035c0.12766,-0.12782 0.27633,-0.22721 0.44601,-0.29831c0.17129,-0.07563 0.35067,-0.1136 0.53974,-0.1136h3.60848c0.19392,0 0.37652,0.03798 0.5462,0.1136c0.17129,0.0711 0.31835,0.17049 0.44116,0.29831c0.12766,0.12314 0.22624,0.26987 0.29734,0.44035c0.07595,0.17032 0.11473,0.35261 0.11473,0.54668zM229.57112,152.39059v1.69726h3.60848v-1.69726zM236.91412,155.25248c0,-0.19408 0.03555,-0.37394 0.10665,-0.53957c0.07595,-0.17049 0.17614,-0.31964 0.29896,-0.44746c0.12766,-0.12782 0.27633,-0.22721 0.44763,-0.29831c0.16968,-0.07563 0.35067,-0.1136 0.53974,-0.1136h3.60686v-1.46294h-4.56675v-1.39895h4.56675c0.19392,0 0.37652,0.03798 0.54782,0.1136c0.16968,0.0711 0.31673,0.17049 0.43955,0.29831c0.12766,0.12314 0.22785,0.26987 0.29896,0.44035c0.07433,0.17032 0.11312,0.35261 0.11312,0.54668v6.16414h-1.39944v-1.27824c-0.01454,0.17517 -0.06141,0.34081 -0.14221,0.49707c-0.0808,0.15626 -0.18422,0.29346 -0.31188,0.41191c-0.12281,0.1136 -0.26502,0.20361 -0.42662,0.26987c-0.15998,0.06626 -0.33128,0.09938 -0.51065,0.09938h-2.2155c-0.18907,0 -0.37006,-0.03555 -0.53974,-0.10649c-0.17129,-0.07579 -0.31996,-0.17517 -0.44763,-0.29831c-0.12281,-0.12782 -0.223,-0.27698 -0.29896,-0.4473c-0.0711,-0.17049 -0.10665,-0.35277 -0.10665,-0.54685zM238.30709,157.15578h3.60686v-1.9033h-3.60686zM250.6483,158.55473l-3.60686,-3.23115v3.23115h-1.39136v-10.4746h1.39136v5.89411l3.31598,-2.98261h1.96826l-4.06257,3.65017l4.35344,3.91293zM254.66077,160.72062h-1.02938l1.04392,-2.16589h-1.04392v-2.12339h2.12339v2.12339zM262.96366,161.60828l1.58366,-3.73533l-2.96855,-6.88131h1.46892l2.20904,5.20538l2.20904,-5.20538h1.46892l-4.57968,10.61664zM276.93216,157.15578c0,0.19408 -0.03878,0.37636 -0.11473,0.54685c-0.0711,0.17032 -0.16968,0.31948 -0.29734,0.4473c-0.12281,0.12314 -0.26987,0.22252 -0.44116,0.29831c-0.16483,0.07094 -0.34582,0.10649 -0.53974,0.10649h-3.75553c-0.19069,0 -0.37006,-0.03555 -0.53974,-0.10649c-0.17129,-0.07579 -0.31996,-0.17517 -0.44763,-0.29831c-0.12281,-0.12782 -0.223,-0.27698 -0.29896,-0.4473c-0.0711,-0.17049 -0.10665,-0.35277 -0.10665,-0.54685v-4.76519c0,-0.19408 0.03555,-0.37636 0.10665,-0.54668c0.07595,-0.17049 0.17614,-0.31722 0.29896,-0.44035c0.12766,-0.12782 0.27633,-0.22721 0.44763,-0.29831c0.16968,-0.07563 0.34905,-0.1136 0.53974,-0.1136h3.75553c0.19392,0 0.37491,0.03798 0.53974,0.1136c0.17129,0.0711 0.31835,0.17049 0.44116,0.29831c0.12766,0.12314 0.22624,0.26987 0.29734,0.44035c0.07595,0.17032 0.11473,0.35261 0.11473,0.54668zM271.78366,152.39059v4.76519h3.75553v-4.76519zM279.26725,150.99163h1.39297v6.16414h3.89774v-6.16414h1.39944v7.56309h-1.39944v-1.27824c-0.01454,0.17517 -0.06141,0.34081 -0.14221,0.49707c-0.07918,0.15626 -0.18422,0.29346 -0.31188,0.41191c-0.12281,0.1136 -0.26502,0.20361 -0.42662,0.26987c-0.15998,0.06626 -0.33128,0.09938 -0.51065,0.09938h-2.50638c-0.18907,0 -0.37006,-0.03555 -0.53974,-0.10649c-0.17129,-0.07579 -0.31996,-0.17517 -0.44763,-0.29831c-0.12281,-0.12782 -0.223,-0.27698 -0.29896,-0.4473c-0.0711,-0.17049 -0.10665,-0.35277 -0.10665,-0.54685zM294.03889,152.39059v4.76519h3.60686v-1.27824h1.39944v1.27824c0,0.19408 -0.03717,0.37636 -0.11312,0.54685c-0.0711,0.17032 -0.17129,0.31948 -0.29896,0.4473c-0.12281,0.12314 -0.26987,0.22252 -0.43955,0.29831c-0.17129,0.07094 -0.35228,0.10649 -0.54782,0.10649h-3.60686c-0.18907,0 -0.37006,-0.03555 -0.53974,-0.10649c-0.16968,-0.07579 -0.31996,-0.17517 -0.44763,-0.29831c-0.12281,-0.12782 -0.223,-0.27698 -0.29734,-0.4473c-0.0711,-0.17049 -0.10665,-0.35277 -0.10665,-0.54685v-4.76519c0,-0.19408 0.03555,-0.37636 0.10665,-0.54668c0.07433,-0.17049 0.17453,-0.31722 0.29734,-0.44035c0.12766,-0.12782 0.27795,-0.22721 0.44763,-0.29831c0.16968,-0.07563 0.35067,-0.1136 0.53974,-0.1136h3.60686c0.19553,0 0.37652,0.03798 0.54782,0.1136c0.16968,0.0711 0.31673,0.17049 0.43955,0.29831c0.12766,0.12314 0.22785,0.26987 0.29896,0.44035c0.07595,0.17032 0.11312,0.35261 0.11312,0.54668v1.2784h-1.39944v-1.2784zM301.38189,155.25248c0,-0.19408 0.03555,-0.37394 0.10665,-0.53957c0.07595,-0.17049 0.17453,-0.31964 0.29734,-0.44746c0.12928,-0.12782 0.27795,-0.22721 0.44763,-0.29831c0.17129,-0.07563 0.35067,-0.1136 0.53974,-0.1136h3.60848v-1.46294h-4.56675v-1.39895h4.56675c0.19392,0 0.37652,0.03798 0.5462,0.1136c0.17129,0.0711 0.31673,0.17049 0.44116,0.29831c0.12766,0.12314 0.22624,0.26987 0.29734,0.44035c0.07595,0.17032 0.11312,0.35261 0.11312,0.54668v6.16414h-1.39782v-1.27824c-0.01454,0.17517 -0.06141,0.34081 -0.14221,0.49707c-0.0808,0.15626 -0.18422,0.29346 -0.3135,0.41191c-0.12281,0.1136 -0.26502,0.20361 -0.425,0.26987c-0.1616,0.06626 -0.33128,0.09938 -0.51226,0.09938h-2.2155c-0.18907,0 -0.36844,-0.03555 -0.53974,-0.10649c-0.16968,-0.07579 -0.31835,-0.17517 -0.44763,-0.29831c-0.12281,-0.12782 -0.22139,-0.27698 -0.29734,-0.4473c-0.0711,-0.17049 -0.10665,-0.35277 -0.10665,-0.54685zM302.77325,157.15578h3.60848v-1.9033h-3.60848zM316.80639,158.55473h-1.39944v-6.16414h-3.89774v6.16414h-1.39297v-7.56309h1.39297v1.33512c0.00808,-0.18471 0.05171,-0.35745 0.12766,-0.51841c0.07595,-0.16564 0.17453,-0.30768 0.29734,-0.42613c0.12766,-0.12298 0.27472,-0.21767 0.44116,-0.28409c0.16483,-0.07094 0.34259,-0.10649 0.53166,-0.10649h2.49992c0.19392,0 0.37652,0.03798 0.54782,0.1136c0.16968,0.0711 0.31673,0.17049 0.43955,0.29831c0.12766,0.12314 0.22785,0.26987 0.29896,0.44035c0.07433,0.17032 0.11312,0.35261 0.11312,0.54668zM323.49653,152.39059c0,-0.19408 0.03394,-0.37636 0.10504,-0.54668c0.07595,-0.17049 0.17614,-0.31722 0.29896,-0.44035c0.12766,-0.12782 0.27633,-0.22721 0.44763,-0.29831c0.16968,-0.07563 0.35067,-0.1136 0.53974,-0.1136h3.89774v-2.91151h1.39944v10.4746h-1.39944v-1.27824c-0.01293,0.17517 -0.06141,0.34081 -0.14059,0.49707c-0.0808,0.15626 -0.18584,0.29346 -0.3135,0.41191c-0.12281,0.1136 -0.26502,0.20361 -0.425,0.26987c-0.1616,0.06626 -0.33289,0.09938 -0.51226,0.09938h-2.50638c-0.18907,0 -0.37006,-0.03555 -0.53974,-0.10649c-0.17129,-0.07579 -0.31996,-0.17517 -0.44763,-0.29831c-0.12281,-0.12782 -0.223,-0.27698 -0.29896,-0.4473c-0.0711,-0.17049 -0.10504,-0.35277 -0.10504,-0.54685zM324.88789,157.15578h3.89774v-4.76519h-3.89774zM339.05516,157.15578c0,0.19408 -0.03878,0.37636 -0.11312,0.54685c-0.0711,0.17032 -0.17129,0.31948 -0.29896,0.4473c-0.12281,0.12314 -0.26987,0.22252 -0.43955,0.29831c-0.16645,0.07094 -0.34582,0.10649 -0.53974,0.10649h-3.75715c-0.18907,0 -0.37006,-0.03555 -0.53974,-0.10649c-0.17129,-0.07579 -0.31996,-0.17517 -0.44763,-0.29831c-0.12281,-0.12782 -0.223,-0.27698 -0.29896,-0.4473c-0.06949,-0.17049 -0.10504,-0.35277 -0.10504,-0.54685v-4.76519c0,-0.19408 0.03555,-0.37636 0.10504,-0.54668c0.07595,-0.17049 0.17614,-0.31722 0.29896,-0.44035c0.12766,-0.12782 0.27633,-0.22721 0.44763,-0.29831c0.16968,-0.07563 0.35067,-0.1136 0.53974,-0.1136h3.75715c0.19392,0 0.37329,0.03798 0.53974,0.1136c0.16968,0.0711 0.31673,0.17049 0.43955,0.29831c0.12766,0.12314 0.22785,0.26987 0.29896,0.44035c0.07433,0.17032 0.11312,0.35261 0.11312,0.54668zM333.90666,152.39059v4.76519h3.75715v-4.76519zM350.31852,157.15578v-1.75414h-3.3176c-0.19392,0 -0.37652,-0.03539 -0.5462,-0.10649c-0.16968,-0.07579 -0.31996,-0.17517 -0.44763,-0.29831c-0.12281,-0.12782 -0.223,-0.27682 -0.29734,-0.4473c-0.0711,-0.17049 -0.10665,-0.35277 -0.10665,-0.54685v-1.6121c0,-0.19408 0.03555,-0.37636 0.10665,-0.54668c0.07433,-0.17049 0.17453,-0.31722 0.29734,-0.44035c0.12766,-0.12782 0.27795,-0.22721 0.44763,-0.29831c0.16968,-0.07563 0.35228,-0.1136 0.5462,-0.1136h4.42454v1.39895h-4.42454v1.6121h3.3176c0.19392,0 0.37329,0.03781 0.53974,0.1136c0.16968,0.0711 0.31835,0.17049 0.44601,0.29831c0.12928,0.12314 0.22785,0.26987 0.29896,0.44019c0.07595,0.17049 0.11312,0.35277 0.11312,0.54685v1.75414c0,0.19408 -0.03717,0.37636 -0.11312,0.54685c-0.0711,0.17032 -0.16968,0.31948 -0.29896,0.4473c-0.12766,0.12314 -0.27633,0.22252 -0.44601,0.29831c-0.16645,0.07094 -0.34582,0.10649 -0.53974,0.10649h-4.71542v-1.39895zM360.44423,157.15578c0,0.19408 -0.03717,0.37636 -0.11312,0.54685c-0.0711,0.17032 -0.17129,0.31948 -0.29896,0.4473c-0.12281,0.12314 -0.26987,0.22252 -0.43955,0.29831c-0.16645,0.07094 -0.34582,0.10649 -0.53974,0.10649h-3.75715c-0.18907,0 -0.36844,-0.03555 -0.53974,-0.10649c-0.16968,-0.07579 -0.31996,-0.17517 -0.44763,-0.29831c-0.12281,-0.12782 -0.22139,-0.27698 -0.29734,-0.4473c-0.0711,-0.17049 -0.10665,-0.35277 -0.10665,-0.54685v-4.76519c0,-0.19408 0.03555,-0.37636 0.10665,-0.54668c0.07595,-0.17049 0.17453,-0.31722 0.29734,-0.44035c0.12766,-0.12782 0.27795,-0.22721 0.44763,-0.29831c0.17129,-0.07563 0.35067,-0.1136 0.53974,-0.1136h3.75715c0.19392,0 0.37329,0.03798 0.53974,0.1136c0.16968,0.0711 0.31673,0.17049 0.43955,0.29831c0.12766,0.12314 0.22785,0.26987 0.29896,0.44035c0.07595,0.17032 0.11312,0.35261 0.11312,0.54668zM355.29573,152.39059v4.76519h3.75715v-4.76519zM368.70995,158.55473l-2.44174,-7.56309h1.41236l1.7905,5.70246l1.66769,-5.70246h1.42852l1.66769,5.70246l1.7905,-5.70246h1.41236l-2.44174,7.56309h-1.456l-1.69031,-5.5533l-1.68385,5.5533zM380.37084,150.99163v7.56309h-1.39782v-7.56309zM378.90191,148.08013h1.54003v1.45567h-1.54003zM382.3391,150.99163h1.84545v-2.32927h1.39944v2.32927h2.48537v1.39895h-2.48537v4.76519h2.48537v1.39895h-2.48537c-0.18907,0 -0.37006,-0.03555 -0.53974,-0.10649c-0.17129,-0.07579 -0.31996,-0.17517 -0.44763,-0.29831c-0.12766,-0.12782 -0.22947,-0.27698 -0.30542,-0.4473c-0.0711,-0.17049 -0.10665,-0.35277 -0.10665,-0.54685v-4.76519h-1.84545zM397.09458,158.55473h-1.39782v-6.16414h-3.89935v6.16414h-1.39136v-10.4746h1.39136v4.24663c0.0097,-0.18471 0.05171,-0.35745 0.12766,-0.51841c0.07595,-0.16564 0.17614,-0.30768 0.29896,-0.42613c0.12766,-0.12298 0.27472,-0.21767 0.43955,-0.28409c0.16645,-0.07094 0.3442,-0.10649 0.53327,-0.10649h2.49992c0.19392,0 0.37652,0.03798 0.5462,0.1136c0.17129,0.0711 0.31673,0.17049 0.44116,0.29831c0.12766,0.12314 0.22624,0.26987 0.29734,0.44035c0.07595,0.17032 0.11312,0.35261 0.11312,0.54668zM405.96468,157.15578c0,0.19408 -0.03717,0.37636 -0.11312,0.54685c-0.0711,0.17032 -0.17129,0.31948 -0.29896,0.4473c-0.12281,0.12314 -0.26987,0.22252 -0.43955,0.29831c-0.16645,0.07094 -0.34582,0.10649 -0.53974,0.10649h-3.75715c-0.18907,0 -0.36844,-0.03555 -0.53974,-0.10649c-0.16968,-0.07579 -0.31996,-0.17517 -0.44763,-0.29831c-0.12281,-0.12782 -0.22139,-0.27698 -0.29734,-0.4473c-0.0711,-0.17049 -0.10665,-0.35277 -0.10665,-0.54685v-4.76519c0,-0.19408 0.03555,-0.37636 0.10665,-0.54668c0.07595,-0.17049 0.17453,-0.31722 0.29734,-0.44035c0.12766,-0.12782 0.27795,-0.22721 0.44763,-0.29831c0.17129,-0.07563 0.35067,-0.1136 0.53974,-0.1136h3.75715c0.19392,0 0.37329,0.03798 0.53974,0.1136c0.16968,0.0711 0.31673,0.17049 0.43955,0.29831c0.12766,0.12314 0.22785,0.26987 0.29896,0.44035c0.07595,0.17032 0.11312,0.35261 0.11312,0.54668zM400.81617,152.39059v4.76519h3.75715v-4.76519zM408.30138,150.99163h1.39136v6.16414h3.89935v-6.16414h1.39944v7.56309h-1.39944v-1.27824c-0.01454,0.17517 -0.06141,0.34081 -0.14221,0.49707c-0.0808,0.15626 -0.18422,0.29346 -0.31188,0.41191c-0.12443,0.1136 -0.26502,0.20361 -0.42662,0.26987c-0.1616,0.06626 -0.33128,0.09938 -0.51065,0.09938h-2.508c-0.18907,0 -0.36844,-0.03555 -0.53974,-0.10649c-0.16968,-0.07579 -0.31835,-0.17517 -0.44763,-0.29831c-0.12281,-0.12782 -0.22139,-0.27698 -0.29734,-0.4473c-0.0711,-0.17049 -0.10665,-0.35277 -0.10665,-0.54685zM416.8806,150.99163h1.84545v-2.32927h1.39944v2.32927h2.48537v1.39895h-2.48537v4.76519h2.48537v1.39895h-2.48537c-0.18907,0 -0.37006,-0.03555 -0.53974,-0.10649c-0.17129,-0.07579 -0.31996,-0.17517 -0.44763,-0.29831c-0.12766,-0.12782 -0.22947,-0.27698 -0.30542,-0.4473c-0.0711,-0.17049 -0.10665,-0.35277 -0.10665,-0.54685v-4.76519h-1.84545zM57.04894,174.87868h-5.00652v1.66882h5.00652v1.39895h-5.00652c-0.18938,0 -0.36928,-0.03555 -0.53972,-0.10649c-0.17044,-0.07579 -0.31956,-0.17517 -0.44738,-0.29831c-0.1231,-0.12782 -0.22252,-0.27698 -0.29827,-0.4473c-0.07102,-0.17049 -0.10652,-0.35277 -0.10652,-0.54685v-4.76519c0,-0.19408 0.03551,-0.37636 0.10652,-0.54668c0.07575,-0.17049 0.17517,-0.31722 0.29827,-0.44035c0.12782,-0.12782 0.27695,-0.22721 0.44738,-0.29831c0.17044,-0.07563 0.35034,-0.1136 0.53972,-0.1136h3.60754c0.19411,0 0.37638,0.03798 0.54681,0.1136c0.17044,0.0711 0.3172,0.17049 0.44029,0.29831c0.12782,0.12314 0.22724,0.26987 0.29826,0.44035c0.07574,0.17032 0.11362,0.35261 0.11362,0.54668zM52.04241,171.78231v1.69726h3.60754v-1.69726zM65.97545,170.38336l-2.74824,3.69283l2.87607,3.87026h-1.69012l-2.03102,-2.73407l-2.03812,2.73407h-1.69013l2.88319,-3.87026l-2.74828,-3.69283h1.68306l1.91028,2.55664l1.9032,-2.55664zM69.17831,170.38336v7.56309h-1.39911v-7.56309zM67.70826,167.47185h1.541v1.45567h-1.541zM71.14528,170.38336h1.84642v-2.32927h1.39895v2.32927h2.48553v1.39895h-2.48553v4.76519h2.48553v1.39895h-2.48553c-0.18939,0 -0.36925,-0.03555 -0.53957,-0.10649c-0.17049,-0.07579 -0.31964,-0.17517 -0.44746,-0.29831c-0.12782,-0.12782 -0.22963,-0.27698 -0.30542,-0.4473c-0.07094,-0.17049 -0.10649,-0.35277 -0.10649,-0.54685v-4.76519h-1.84642zM80.68261,170.38336v7.56309h-1.39895v-7.56309zM79.21256,167.47185h1.541v1.45567h-1.541zM89.77959,177.94645h-1.39895v-6.16414h-3.89871v6.16414h-1.392v-7.56309h1.392v1.33512c0.00937,-0.18471 0.05203,-0.35745 0.12782,-0.51841c0.07563,-0.16564 0.17517,-0.30768 0.29815,-0.42613c0.12782,-0.12298 0.27472,-0.21767 0.44035,-0.28409c0.16564,-0.07094 0.34323,-0.10649 0.53263,-0.10649h2.49975c0.19408,0 0.37636,0.03798 0.54668,0.1136c0.17049,0.0711 0.31722,0.17049 0.44035,0.29831c0.12782,0.12314 0.22721,0.26987 0.29831,0.44035c0.07563,0.17032 0.1136,0.35261 0.1136,0.54668zM92.10886,171.78231c0,-0.19408 0.03555,-0.37636 0.10649,-0.54668c0.07579,-0.17049 0.17517,-0.31722 0.29831,-0.44035c0.12782,-0.12782 0.27698,-0.22721 0.4473,-0.29831c0.17049,-0.07563 0.35034,-0.1136 0.53974,-0.1136h2.50686c0.18454,0 0.35972,0.03555 0.52552,0.10649c0.16564,0.06642 0.31011,0.16111 0.43324,0.28409c0.12782,0.11845 0.22947,0.2605 0.30526,0.42613c0.08048,0.16095 0.12314,0.3337 0.12782,0.51841v-1.33512h1.39895v9.21769c0,0.19408 -0.03781,0.37636 -0.1136,0.54685c-0.07094,0.17049 -0.17032,0.31722 -0.29815,0.44035c-0.12314,0.12782 -0.26987,0.22721 -0.44035,0.29815c-0.17049,0.07579 -0.35277,0.1136 -0.54685,0.1136h-4.41711v-1.39895h4.41711v-1.9458h-3.89871c-0.18939,0 -0.36925,-0.03539 -0.53974,-0.10649c-0.17032,-0.07579 -0.31948,-0.17517 -0.4473,-0.29831c-0.12314,-0.12782 -0.22252,-0.27698 -0.29831,-0.4473c-0.07094,-0.17049 -0.10649,-0.35277 -0.10649,-0.54685zM97.39941,176.2563v-4.47399h-3.89871v4.47399zM105.04766,170.38336h1.84642v-2.32927h1.39895v2.32927h2.48553v1.39895h-2.48553v4.76519h2.48553v1.39895h-2.48553c-0.18939,0 -0.36925,-0.03555 -0.53974,-0.10649c-0.17032,-0.07579 -0.31948,-0.17517 -0.4473,-0.29831c-0.12782,-0.12782 -0.22963,-0.27698 -0.30542,-0.4473c-0.07094,-0.17049 -0.10649,-0.35277 -0.10649,-0.54685v-4.76519h-1.84642zM119.8046,177.94645h-1.39911v-6.16414h-3.89871v6.16414h-1.39184v-10.4746h1.39184v4.24663c0.00953,-0.18471 0.0522,-0.35745 0.12782,-0.51841c0.07579,-0.16564 0.17517,-0.30768 0.29831,-0.42613c0.12782,-0.12298 0.27455,-0.21767 0.44035,-0.28409c0.16564,-0.07094 0.34323,-0.10649 0.53263,-0.10649h2.49959c0.19424,0 0.37652,0.03798 0.54685,0.1136c0.17049,0.0711 0.31722,0.17049 0.44035,0.29831c0.12782,0.12314 0.22721,0.26987 0.29831,0.44035c0.07563,0.17032 0.1136,0.35261 0.1136,0.54668zM128.53217,174.87868h-5.00646v1.66882h5.00646v1.39895h-5.00646c-0.18939,0 -0.36925,-0.03555 -0.53974,-0.10649c-0.17049,-0.07579 -0.31948,-0.17517 -0.4473,-0.29831c-0.12314,-0.12782 -0.22252,-0.27698 -0.29831,-0.4473c-0.0711,-0.17049 -0.10649,-0.35277 -0.10649,-0.54685v-4.76519c0,-0.19408 0.03539,-0.37636 0.10649,-0.54668c0.07579,-0.17049 0.17517,-0.31722 0.29831,-0.44035c0.12782,-0.12782 0.27682,-0.22721 0.4473,-0.29831c0.17049,-0.07563 0.35034,-0.1136 0.53974,-0.1136h3.60751c0.19408,0 0.37636,0.03798 0.54685,0.1136c0.17049,0.0711 0.31722,0.17049 0.44035,0.29831c0.12782,0.12314 0.22721,0.26987 0.29815,0.44035c0.07579,0.17032 0.1136,0.35261 0.1136,0.54668zM123.52571,171.78231v1.69726h3.60751v-1.69726zM141.2226,171.78231v6.16414h-1.39911v-6.16414h-3.2027v6.16414h-1.39184v-7.56309h1.39184v1.33512c0.00953,-0.18471 0.05203,-0.35745 0.12782,-0.51841c0.07579,-0.16564 0.17517,-0.30768 0.29831,-0.42613c0.12782,-0.12298 0.27455,-0.21767 0.44019,-0.28409c0.1658,-0.07094 0.34323,-0.10649 0.53263,-0.10649h1.80375c0.18471,0 0.35988,0.03555 0.52552,0.10649c0.1658,0.06642 0.31253,0.16111 0.44035,0.28409c0.12782,0.11845 0.22963,0.2605 0.30542,0.42613c0.08048,0.16095 0.12298,0.3337 0.12782,0.51841c0.00937,-0.18471 0.04961,-0.35745 0.12071,-0.51841c0.07579,-0.16564 0.17517,-0.30768 0.29815,-0.42613c0.12782,-0.12298 0.27472,-0.21767 0.44035,-0.28409c0.16564,-0.07094 0.34323,-0.10649 0.53263,-0.10649h1.80375c0.19408,0 0.37636,0.03798 0.54685,0.1136c0.17049,0.0711 0.31722,0.17049 0.44019,0.29831c0.12799,0.12314 0.22737,0.26987 0.29831,0.44035c0.07579,0.17032 0.1136,0.35261 0.1136,0.54668v6.16414h-1.39895v-6.16414zM154.55198,174.87868h-5.00646v1.66882h5.00646v1.39895h-5.00646c-0.18939,0 -0.36941,-0.03555 -0.53974,-0.10649c-0.17049,-0.07579 -0.31964,-0.17517 -0.44746,-0.29831c-0.12314,-0.12782 -0.22252,-0.27698 -0.29815,-0.4473c-0.0711,-0.17049 -0.10665,-0.35277 -0.10665,-0.54685v-4.76519c0,-0.19408 0.03555,-0.37636 0.10665,-0.54668c0.07563,-0.17049 0.17501,-0.31722 0.29815,-0.44035c0.12782,-0.12782 0.27698,-0.22721 0.44746,-0.29831c0.17032,-0.07563 0.35034,-0.1136 0.53974,-0.1136h3.60751c0.19408,0 0.37636,0.03798 0.54685,0.1136c0.17032,0.0711 0.31722,0.17049 0.44019,0.29831c0.12782,0.12314 0.22721,0.26987 0.29831,0.44035c0.07579,0.17032 0.1136,0.35261 0.1136,0.54668zM149.54552,171.78231v1.69726h3.60751v-1.69726zM163.57802,177.94645h-1.39911v-6.16414h-3.89871v6.16414h-1.39184v-7.56309h1.39184v1.33512c0.00953,-0.18471 0.0522,-0.35745 0.12782,-0.51841c0.07579,-0.16564 0.17517,-0.30768 0.29831,-0.42613c0.12782,-0.12298 0.27455,-0.21767 0.44035,-0.28409c0.16564,-0.07094 0.34323,-0.10649 0.53263,-0.10649h2.49959c0.19408,0 0.37636,0.03798 0.54685,0.1136c0.17049,0.0711 0.31722,0.17049 0.44035,0.29831c0.12782,0.12314 0.22721,0.26987 0.29815,0.44035c0.07579,0.17032 0.11376,0.35261 0.11376,0.54668zM165.90729,170.38336h1.39184v6.16414h3.89871v-6.16414h1.39895v7.56309h-1.39895v-1.27824c-0.01422,0.17517 -0.06157,0.34081 -0.14204,0.49707c-0.08048,0.15626 -0.18471,0.29346 -0.31253,0.41191c-0.12298,0.1136 -0.26502,0.20361 -0.42597,0.26987c-0.16095,0.06626 -0.33144,0.09938 -0.5113,0.09938h-2.50686c-0.18939,0 -0.36925,-0.03555 -0.53974,-0.10649c-0.17049,-0.07579 -0.31948,-0.17517 -0.44746,-0.29831c-0.12298,-0.12782 -0.22236,-0.27698 -0.29815,-0.4473c-0.0711,-0.17049 -0.10649,-0.35277 -0.10649,-0.54685zM174.92605,175.82306h2.12339v2.12339h-2.12339zM183.01466,167.76289h8.14533v1.45583h-3.34475v8.72773h-1.45583v-8.72773h-3.34475zM199.45448,177.94645h-1.39895v-6.16414h-3.89871v6.16414h-1.39184v-10.4746h1.39184v4.24663c0.00953,-0.18471 0.05203,-0.35745 0.12782,-0.51841c0.07579,-0.16564 0.17517,-0.30768 0.29831,-0.42613c0.12782,-0.12298 0.27455,-0.21767 0.44019,-0.28409c0.1658,-0.07094 0.34323,-0.10649 0.53263,-0.10649h2.49975c0.19408,0 0.37636,0.03798 0.54685,0.1136c0.17049,0.0711 0.31722,0.17049 0.44019,0.29831c0.12782,0.12314 0.22737,0.26987 0.29831,0.44035c0.07579,0.17032 0.1136,0.35261 0.1136,0.54668zM203.2538,170.38336v7.56309h-1.39895v-7.56309zM201.78375,167.47185h1.541v1.45567h-1.541zM210.22739,176.5475v-1.75414h-3.31631c-0.19408,0 -0.37636,-0.03539 -0.54685,-0.10649c-0.17049,-0.07579 -0.31948,-0.17517 -0.44746,-0.29831c-0.12298,-0.12782 -0.22236,-0.27682 -0.29815,-0.4473c-0.0711,-0.17049 -0.10649,-0.35277 -0.10649,-0.54685v-1.6121c0,-0.19408 0.03539,-0.37636 0.10649,-0.54668c0.07579,-0.17049 0.17517,-0.31722 0.29815,-0.44035c0.12799,-0.12782 0.27698,-0.22721 0.44746,-0.29831c0.17049,-0.07563 0.35277,-0.1136 0.54685,-0.1136h4.42374v1.39895h-4.42374v1.6121h3.31631c0.19408,0 0.3741,0.03781 0.53974,0.1136c0.17016,0.0711 0.31883,0.17049 0.44811,0.29831c0.12766,0.12314 0.22624,0.26987 0.29734,0.44019c0.07595,0.17049 0.11312,0.35277 0.11312,0.54685v1.75414c0,0.19408 -0.03717,0.37636 -0.11312,0.54685c-0.0711,0.17032 -0.16968,0.31948 -0.29734,0.4473c-0.12928,0.12314 -0.27795,0.22252 -0.44811,0.29831c-0.16564,0.07094 -0.34566,0.10649 -0.53974,0.10649h-4.71526v-1.39895zM219.74275,177.94645l-2.44174,-7.56309h1.41236l1.7905,5.70246l1.66769,-5.70246h1.42852l1.66769,5.70246l1.7905,-5.70246h1.41236l-2.44174,7.56309h-1.456l-1.69031,-5.5533l-1.68385,5.5533zM231.40363,170.38336v7.56309h-1.39944v-7.56309zM229.93471,167.47185h1.54003v1.45567h-1.54003zM235.2028,167.47185v10.4746h-1.39136v-10.4746zM238.92439,167.47185v10.4746h-1.39136v-10.4746zM252.30306,177.94645h-1.39782v-6.16414h-3.89935v6.16414h-1.39136v-7.56309h1.39136v1.33512c0.0097,-0.18471 0.05171,-0.35745 0.12766,-0.51841c0.07595,-0.16564 0.17614,-0.30768 0.29896,-0.42613c0.12766,-0.12298 0.27472,-0.21767 0.43955,-0.28409c0.16645,-0.07094 0.3442,-0.10649 0.53327,-0.10649h2.49992c0.19392,0 0.37652,0.03798 0.5462,0.1136c0.16968,0.0711 0.31673,0.17049 0.43955,0.29831c0.12928,0.12314 0.22785,0.26987 0.29896,0.44035c0.07595,0.17032 0.11312,0.35261 0.11312,0.54668zM261.17316,176.5475c0,0.19408 -0.03717,0.37636 -0.11312,0.54685c-0.0711,0.17032 -0.17129,0.31948 -0.29896,0.4473c-0.12281,0.12314 -0.26987,0.22252 -0.43955,0.29831c-0.16645,0.07094 -0.34582,0.10649 -0.53974,0.10649h-3.75715c-0.18907,0 -0.36844,-0.03555 -0.53974,-0.10649c-0.16968,-0.07579 -0.31996,-0.17517 -0.44763,-0.29831c-0.12281,-0.12782 -0.22139,-0.27698 -0.29734,-0.4473c-0.0711,-0.17049 -0.10665,-0.35277 -0.10665,-0.54685v-4.76519c0,-0.19408 0.03555,-0.37636 0.10665,-0.54668c0.07595,-0.17049 0.17453,-0.31722 0.29734,-0.44035c0.12766,-0.12782 0.27795,-0.22721 0.44763,-0.29831c0.17129,-0.07563 0.35067,-0.1136 0.53974,-0.1136h3.75715c0.19392,0 0.37329,0.03798 0.53974,0.1136c0.16968,0.0711 0.31673,0.17049 0.43955,0.29831c0.12766,0.12314 0.22785,0.26987 0.29896,0.44035c0.07595,0.17032 0.11312,0.35261 0.11312,0.54668zM256.02466,171.78231v4.76519h3.75715v-4.76519zM263.0687,170.38336h1.84706v-2.32927h1.39944v2.32927h2.48537v1.39895h-2.48537v4.76519h2.48537v1.39895h-2.48537c-0.18907,0 -0.37006,-0.03555 -0.53974,-0.10649c-0.17129,-0.07579 -0.31996,-0.17517 -0.44763,-0.29831c-0.12766,-0.12782 -0.22947,-0.27698 -0.30542,-0.4473c-0.0711,-0.17049 -0.10665,-0.35277 -0.10665,-0.54685v-4.76519h-1.84706zM275.49718,174.6442c0,-0.19408 0.03555,-0.37394 0.10665,-0.53957c0.07595,-0.17049 0.17453,-0.31964 0.29734,-0.44746c0.12766,-0.12782 0.27795,-0.22721 0.44763,-0.29831c0.17129,-0.07563 0.35067,-0.1136 0.53974,-0.1136h3.60848v-1.46294h-4.56675v-1.39895h4.56675c0.19392,0 0.37652,0.03798 0.5462,0.1136c0.16968,0.0711 0.31673,0.17049 0.43955,0.29831c0.12928,0.12314 0.22785,0.26987 0.29896,0.44035c0.07595,0.17032 0.11312,0.35261 0.11312,0.54668v6.16414h-1.39782v-1.27824c-0.01454,0.17517 -0.06141,0.34081 -0.14221,0.49707c-0.0808,0.15626 -0.18584,0.29346 -0.3135,0.41191c-0.12281,0.1136 -0.26502,0.20361 -0.425,0.26987c-0.1616,0.06626 -0.33128,0.09938 -0.51226,0.09938h-2.2155c-0.18907,0 -0.36844,-0.03555 -0.53974,-0.10649c-0.16968,-0.07579 -0.31996,-0.17517 -0.44763,-0.29831c-0.12281,-0.12782 -0.22139,-0.27698 -0.29734,-0.4473c-0.0711,-0.17049 -0.10665,-0.35277 -0.10665,-0.54685zM276.88853,176.5475h3.60848v-1.9033h-3.60848zM287.03687,168.8708v1.51255h2.48537v1.39895h-2.48537v6.16414h-1.39944v-6.16414h-1.84545v-1.39895h1.84545v-1.51255c0,-0.19408 0.03555,-0.3741 0.10665,-0.53974c0.07595,-0.17049 0.17776,-0.31948 0.30542,-0.44746c0.12766,-0.12782 0.27795,-0.22721 0.44763,-0.29815c0.16968,-0.07579 0.35067,-0.1136 0.53974,-0.1136h2.48537v1.39895zM294.22312,168.8708v1.51255h2.48537v1.39895h-2.48537v6.16414h-1.39782v-6.16414h-1.84706v-1.39895h1.84706v-1.51255c0,-0.19408 0.03394,-0.3741 0.10504,-0.53974c0.07595,-0.17049 0.17776,-0.31948 0.30542,-0.44746c0.12928,-0.12782 0.27795,-0.22721 0.44763,-0.29815c0.17129,-0.07579 0.35067,-0.1136 0.53974,-0.1136h2.48537v1.39895zM305.0033,174.87868h-5.0063v1.66882h5.0063v1.39895h-5.0063c-0.18907,0 -0.37006,-0.03555 -0.53974,-0.10649c-0.16968,-0.07579 -0.31996,-0.17517 -0.44763,-0.29831c-0.12281,-0.12782 -0.223,-0.27698 -0.29734,-0.4473c-0.0711,-0.17049 -0.10665,-0.35277 -0.10665,-0.54685v-4.76519c0,-0.19408 0.03555,-0.37636 0.10665,-0.54668c0.07433,-0.17049 0.17453,-0.31722 0.29734,-0.44035c0.12766,-0.12782 0.27795,-0.22721 0.44763,-0.29831c0.16968,-0.07563 0.35067,-0.1136 0.53974,-0.1136h3.60686c0.19553,0 0.37652,0.03798 0.54782,0.1136c0.16968,0.0711 0.31673,0.17049 0.43955,0.29831c0.12766,0.12314 0.22785,0.26987 0.29896,0.44035c0.07595,0.17032 0.11312,0.35261 0.11312,0.54668zM299.997,171.78231v1.69726h3.60686v-1.69726zM308.73135,171.78231v4.76519h3.60848v-1.27824h1.39782v1.27824c0,0.19408 -0.03717,0.37636 -0.11312,0.54685c-0.0711,0.17032 -0.16968,0.31948 -0.29734,0.4473c-0.12443,0.12314 -0.26987,0.22252 -0.44116,0.29831c-0.16968,0.07094 -0.35228,0.10649 -0.5462,0.10649h-3.60848c-0.18907,0 -0.36844,-0.03555 -0.53974,-0.10649c-0.16968,-0.07579 -0.31835,-0.17517 -0.44763,-0.29831c-0.12281,-0.12782 -0.22139,-0.27698 -0.29734,-0.4473c-0.0711,-0.17049 -0.10665,-0.35277 -0.10665,-0.54685v-4.76519c0,-0.19408 0.03555,-0.37636 0.10665,-0.54668c0.07595,-0.17049 0.17453,-0.31722 0.29734,-0.44035c0.12928,-0.12782 0.27795,-0.22721 0.44763,-0.29831c0.17129,-0.07563 0.35067,-0.1136 0.53974,-0.1136h3.60848c0.19392,0 0.37652,0.03798 0.5462,0.1136c0.17129,0.0711 0.31673,0.17049 0.44116,0.29831c0.12766,0.12314 0.22624,0.26987 0.29734,0.44035c0.07595,0.17032 0.11312,0.35261 0.11312,0.54668v1.2784h-1.39782v-1.2784zM315.63481,170.38336h1.84545v-2.32927h1.39944v2.32927h2.48537v1.39895h-2.48537v4.76519h2.48537v1.39895h-2.48537c-0.18907,0 -0.36844,-0.03555 -0.53974,-0.10649c-0.16968,-0.07579 -0.31996,-0.17517 -0.44763,-0.29831c-0.12766,-0.12782 -0.22947,-0.27698 -0.30542,-0.4473c-0.0711,-0.17049 -0.10665,-0.35277 -0.10665,-0.54685v-4.76519h-1.84545zM328.57393,181l1.58366,-3.73533l-2.96855,-6.88131h1.46892l2.20904,5.20538l2.20904,-5.20538h1.46892l-4.57968,10.61664zM342.54244,176.5475c0,0.19408 -0.03878,0.37636 -0.11473,0.54685c-0.0711,0.17032 -0.16968,0.31948 -0.29734,0.4473c-0.12281,0.12314 -0.26987,0.22252 -0.44116,0.29831c-0.16483,0.07094 -0.34582,0.10649 -0.53974,0.10649h-3.75553c-0.19069,0 -0.37006,-0.03555 -0.53974,-0.10649c-0.17129,-0.07579 -0.31996,-0.17517 -0.44763,-0.29831c-0.12281,-0.12782 -0.223,-0.27698 -0.29896,-0.4473c-0.0711,-0.17049 -0.10665,-0.35277 -0.10665,-0.54685v-4.76519c0,-0.19408 0.03555,-0.37636 0.10665,-0.54668c0.07595,-0.17049 0.17614,-0.31722 0.29896,-0.44035c0.12766,-0.12782 0.27633,-0.22721 0.44763,-0.29831c0.16968,-0.07563 0.34905,-0.1136 0.53974,-0.1136h3.75553c0.19392,0 0.37491,0.03798 0.53974,0.1136c0.17129,0.0711 0.31835,0.17049 0.44116,0.29831c0.12766,0.12314 0.22624,0.26987 0.29734,0.44035c0.07595,0.17032 0.11473,0.35261 0.11473,0.54668zM337.39393,171.78231v4.76519h3.75553v-4.76519zM344.87752,170.38336h1.39297v6.16414h3.89774v-6.16414h1.39944v7.56309h-1.39944v-1.27824c-0.01293,0.17517 -0.06141,0.34081 -0.14221,0.49707c-0.07918,0.15626 -0.18422,0.29346 -0.31188,0.41191c-0.12281,0.1136 -0.26502,0.20361 -0.42662,0.26987c-0.15998,0.06626 -0.33128,0.09938 -0.51065,0.09938h-2.50638c-0.18907,0 -0.37006,-0.03555 -0.53974,-0.10649c-0.17129,-0.07579 -0.31996,-0.17517 -0.44763,-0.29831c-0.12281,-0.12782 -0.223,-0.27698 -0.29896,-0.4473c-0.0711,-0.17049 -0.10665,-0.35277 -0.10665,-0.54685zM355.28926,171.78231v6.16414h-1.39297v-7.56309h1.39297v1.33512c0.0097,-0.18471 0.05171,-0.35745 0.12766,-0.51841c0.07595,-0.16564 0.17453,-0.30768 0.29734,-0.42613c0.12928,-0.12298 0.27472,-0.21767 0.44116,-0.28409c0.16483,-0.07094 0.34259,-0.10649 0.53327,-0.10649h1.48347c0.19392,0 0.37329,0.03798 0.53974,0.1136c0.16968,0.0711 0.31996,0.17049 0.44763,0.29831c0.12766,0.12314 0.22624,0.26987 0.29734,0.44035c0.07595,0.17032 0.11473,0.35261 0.11473,0.54668v1.2784h-1.39944v-1.2784zM367.24103,177.94645l-2.44336,-7.56309h1.41398l1.78889,5.70246l1.6693,-5.70246h1.42691l1.6693,5.70246l1.78889,-5.70246h1.41398l-2.44336,7.56309h-1.456l-1.69031,-5.5533l-1.68223,5.5533zM383.97123,176.5475c0,0.19408 -0.03717,0.37636 -0.11312,0.54685c-0.0711,0.17032 -0.16968,0.31948 -0.29896,0.4473c-0.12281,0.12314 -0.26987,0.22252 -0.43955,0.29831c-0.16645,0.07094 -0.34582,0.10649 -0.53974,0.10649h-3.75715c-0.18907,0 -0.36844,-0.03555 -0.53974,-0.10649c-0.16968,-0.07579 -0.31835,-0.17517 -0.44763,-0.29831c-0.12281,-0.12782 -0.22139,-0.27698 -0.29734,-0.4473c-0.0711,-0.17049 -0.10665,-0.35277 -0.10665,-0.54685v-4.76519c0,-0.19408 0.03555,-0.37636 0.10665,-0.54668c0.07595,-0.17049 0.17453,-0.31722 0.29734,-0.44035c0.12928,-0.12782 0.27795,-0.22721 0.44763,-0.29831c0.17129,-0.07563 0.35067,-0.1136 0.53974,-0.1136h3.75715c0.19392,0 0.37329,0.03798 0.53974,0.1136c0.16968,0.0711 0.31673,0.17049 0.43955,0.29831c0.12928,0.12314 0.22785,0.26987 0.29896,0.44035c0.07595,0.17032 0.11312,0.35261 0.11312,0.54668zM378.82273,171.78231v4.76519h3.75715v-4.76519zM387.69929,171.78231v6.16414h-1.39136v-7.56309h1.39136v1.33512c0.0097,-0.18471 0.05333,-0.35745 0.12928,-0.51841c0.07433,-0.16564 0.17453,-0.30768 0.29734,-0.42613c0.12766,-0.12298 0.27472,-0.21767 0.44116,-0.28409c0.16483,-0.07094 0.34259,-0.10649 0.53166,-0.10649h1.48508c0.19392,0 0.37329,0.03798 0.53974,0.1136c0.16968,0.0711 0.31835,0.17049 0.44601,0.29831c0.12928,0.12314 0.22785,0.26987 0.29896,0.44035c0.07595,0.17032 0.11312,0.35261 0.11312,0.54668v1.2784h-1.39782v-1.2784zM398.72187,177.94645l-3.60848,-3.23115v3.23115h-1.39136v-10.4746h1.39136v5.89411l3.3176,-2.98261h1.96664l-4.06257,3.65017l4.35344,3.91293zM408.24482,176.5475c0,0.19408 -0.03878,0.37636 -0.11312,0.54685c-0.0711,0.17032 -0.17129,0.31948 -0.29896,0.4473c-0.12281,0.12314 -0.26987,0.22252 -0.44116,0.29831c-0.16483,0.07094 -0.3442,0.10649 -0.53812,0.10649h-3.75715c-0.18907,0 -0.37006,-0.03555 -0.53974,-0.10649c-0.17129,-0.07579 -0.31996,-0.17517 -0.44763,-0.29831c-0.12281,-0.12782 -0.223,-0.27698 -0.29896,-0.4473c-0.0711,-0.17049 -0.10665,-0.35277 -0.10665,-0.54685v-4.76519c0,-0.19408 0.03555,-0.37636 0.10665,-0.54668c0.07595,-0.17049 0.17614,-0.31722 0.29896,-0.44035c0.12766,-0.12782 0.27633,-0.22721 0.44763,-0.29831c0.16968,-0.07563 0.35067,-0.1136 0.53974,-0.1136h3.75715c0.19392,0 0.37329,0.03798 0.53812,0.1136c0.17129,0.0711 0.31835,0.17049 0.44116,0.29831c0.12766,0.12314 0.22785,0.26987 0.29896,0.44035c0.07433,0.17032 0.11312,0.35261 0.11312,0.54668zM403.09632,171.78231v4.76519h3.75715v-4.76519zM410.58152,170.38336h1.39136v6.16414h3.89935v-6.16414h1.39782v7.56309h-1.39782v-1.27824c-0.01454,0.17517 -0.06302,0.34081 -0.14221,0.49707c-0.0808,0.15626 -0.18584,0.29346 -0.3135,0.41191c-0.12281,0.1136 -0.26502,0.20361 -0.425,0.26987c-0.1616,0.06626 -0.33128,0.09938 -0.51226,0.09938h-2.50638c-0.18907,0 -0.37006,-0.03555 -0.53974,-0.10649c-0.16968,-0.07579 -0.31996,-0.17517 -0.44763,-0.29831c-0.12281,-0.12782 -0.223,-0.27698 -0.29734,-0.4473c-0.0711,-0.17049 -0.10665,-0.35277 -0.10665,-0.54685zM419.15913,170.38336h1.84706v-2.32927h1.39944v2.32927h2.48537v1.39895h-2.48537v4.76519h2.48537v1.39895h-2.48537c-0.19069,0 -0.37006,-0.03555 -0.53974,-0.10649c-0.17129,-0.07579 -0.31996,-0.17517 -0.44763,-0.29831c-0.12766,-0.12782 -0.22947,-0.27698 -0.30542,-0.4473c-0.0711,-0.17049 -0.10665,-0.35277 -0.10665,-0.54685v-4.76519h-1.84706zM427.22608,175.82306h2.12339v2.12339h-2.12339z" fill="#daa87a" stroke="none" stroke-width="1" stroke-linecap="butt"/><path d="M291.78784,142.23482h52.96202v0.72428h-52.96202z" fill="#daa87a" stroke="none" stroke-width="1" stroke-linecap="butt"/><path d="M66.74344,109.91672h347.57923" fill="none" stroke="#ffc85e" stroke-width="2.5" stroke-linecap="round"/></g></g></svg>