<svg version="1.1" xmlns="http://www.w3.org/2000/svg" xmlns:xlink="http://www.w3.org/1999/xlink" width="6.45281" height="6.36881" viewBox="0,0,6.45281,6.36881"><g transform="translate(-236.77359,-176.8156)"><g data-paper-data="{&quot;isPaintingLayer&quot;:true}" stroke-width="1" stroke-linejoin="miter" stroke-miterlimit="10" stroke-dasharray="" stroke-dashoffset="0" style="mix-blend-mode: normal"><path d="M241.02607,179.9751c0,0 0.54854,0.34397 0.52748,0.70621c-0.02947,0.50673 -0.52748,0.61555 -0.52748,0.61555l-0.4203,0.14655l-0.43906,0.02975l-0.92864,0.02193c0,0 -0.83486,0.03209 -0.8984,-0.05169c-0.04517,-0.05912 -0.06584,-0.18785 -0.06584,-0.18785c0,0 0.01837,-0.30713 0.02986,-0.50393c0.00344,-0.05896 0.00574,-0.11193 0.00804,-0.16167c0.00727,-0.15557 0.01263,-0.2803 0.04479,-0.462c0.0356,-0.20104 0.09072,-0.33821 0.15044,-0.48701c0.03866,-0.09599 0.07885,-0.19683 0.11713,-0.32277c0.07043,-0.23044 0.1623,-0.59544 0.1623,-0.59544c0,0 -0.02182,-0.23394 0.07082,-0.38399c0.00153,-0.00229 0.00306,-0.00463 0.00421,-0.00692c0.10833,-0.17494 0.24116,-0.39028 0.31389,-0.41607c0.14967,-0.05293 0.50987,0.13309 0.50987,0.13309c0,0 0.23542,0.05286 0.24805,0.17109c0.00574,0.05476 -0.03598,0.12379 -0.06048,0.15876l-0.00612,-0.0119l-0.13819,0.07662c-0.06316,0.03493 -0.13512,0.04963 -0.20632,0.04208l-0.15886,-0.0168l0.01646,-0.14153l0.11675,0.01248l0.00919,0.03629l0.0555,-0.01486l-0.00689,-0.02699l0.1623,-0.03998l-0.01378,-0.05671l-0.18565,0.04578l-0.14546,-0.01556l-0.03598,-0.06091l-0.04938,0.03003l0.03828,0.06487l-0.01876,0.16389h-0.04096v0.05834h0.06507l0.18603,0.01968c0.08307,0.00875 0.1669,-0.00828 0.24001,-0.04889l0.13819,-0.07662l-0.00804,-0.01458c0.02986,0.00817 0.07082,0.03804 0.07082,0.14098c0,0.08805 -0.0934,0.17937 -0.19025,0.27411c-0.05244,0.05118 -0.10565,0.10338 -0.14584,0.15658c-0.18029,0.16238 -0.32154,0.12714 -0.32154,0.12714l-0.02335,0.15849l-0.0379,1.09397v0.32662l0.28862,-0.4606c0,0 0.35216,-0.40075 0.65878,-0.45228c0.19139,-0.0322 0.30776,-0.00439 0.49456,0.05025c0.14201,0.04165 0.34604,0.15643 0.34604,0.15643z" fill="#000000" fill-rule="evenodd" stroke="none" stroke-linecap="butt"/><g fill="none" fill-rule="nonzero" stroke="#000000" stroke-linecap="round"><path d="M242.05959,181.56964c-0.51715,0.72756 -1.38148,1.17513 -2.32735,1.10816c-1.45574,-0.1031 -2.55358,-1.38554 -2.45214,-2.86446c0.10182,-1.47888 1.36387,-2.5942 2.81962,-2.49114c0.99602,0.07055 1.82437,0.69341 2.21558,1.5536"/><path d="M242.72641,177.85211l-0.27408,1.34249l-1.30952,-0.3314"/></g></g></g></svg>