<svg version="1.1" xmlns="http://www.w3.org/2000/svg" xmlns:xlink="http://www.w3.org/1999/xlink" width="88" height="20" viewBox="0,0,88,20"><g transform="translate(-196,-170)"><g data-paper-data="{&quot;isPaintingLayer&quot;:true}" fill-rule="nonzero" stroke="none" stroke-width="1" stroke-linecap="butt" stroke-linejoin="miter" stroke-miterlimit="10" stroke-dasharray="" stroke-dashoffset="0" style="mix-blend-mode: normal"><path d="M284,172.23058v15.53882c0,1.2319 -0.9463,2.2306 -2.1136,2.2306h-83.77279c-1.16732,0 -2.11361,-0.9987 -2.11361,-2.2306v-15.53882c0,-1.23192 0.94629,-2.23058 2.11361,-2.23058h83.77279c1.1673,0 2.1136,0.99866 2.1136,2.23058z" fill="#6680b2"/><path d="M212.2876,172.60009c0,-0.13672 0.026,-0.2653 0.0781,-0.38574c0.0521,-0.1237 0.1237,-0.22949 0.2149,-0.31738c0.0911,-0.09115 0.1969,-0.16276 0.3173,-0.21485c0.1237,-0.05533 0.2539,-0.083 0.3907,-0.083h3.7988c0.1367,0 0.2653,0.02767 0.3857,0.083c0.1237,0.05209 0.2312,0.1237 0.3223,0.21485c0.0911,0.08789 0.1628,0.19368 0.2148,0.31738c0.0521,0.12044 0.0782,0.24902 0.0782,0.38574v0.90332h-1.001v-0.90332h-3.7988v5h3.7988v-1.69922h-1.8994v-1.00097h2.9004v2.70019c0,0.13672 -0.0261,0.26693 -0.0782,0.39063c-0.052,0.12044 -0.1237,0.22624 -0.2148,0.31738c-0.0911,0.09115 -0.1986,0.16276 -0.3223,0.21485c-0.1204,0.05208 -0.249,0.07812 -0.3857,0.07812h-3.7988c-0.1368,0 -0.267,-0.02604 -0.3907,-0.07812c-0.1204,-0.05209 -0.2262,-0.1237 -0.3173,-0.21485c-0.0912,-0.09114 -0.1628,-0.19694 -0.2149,-0.31738c-0.0521,-0.1237 -0.0781,-0.25391 -0.0781,-0.39063zM224.187,176.49169h-3.4424v1.14747h3.4424v0.96191h-3.4424c-0.1302,0 -0.2539,-0.02441 -0.3711,-0.07324c-0.1172,-0.05209 -0.2197,-0.12044 -0.3076,-0.20508c-0.0846,-0.08789 -0.153,-0.19043 -0.2051,-0.30762c-0.0488,-0.11718 -0.0732,-0.24251 -0.0732,-0.37597v-3.27637c0,-0.13346 0.0244,-0.25879 0.0732,-0.37598c0.0521,-0.11719 0.1205,-0.2181 0.2051,-0.30273c0.0879,-0.08789 0.1904,-0.15625 0.3076,-0.20508c0.1172,-0.05208 0.2409,-0.07813 0.3711,-0.07813h2.4805c0.1334,0 0.2588,0.02605 0.376,0.07813c0.1171,0.04883 0.2181,0.11719 0.3027,0.20508c0.0879,0.08463 0.1562,0.18554 0.2051,0.30273c0.0521,0.11719 0.0781,0.24252 0.0781,0.37598zM220.7446,174.36279v1.16699h2.4805v-1.16699zM230.3931,178.60107h-0.962v-4.23828h-2.6806v4.23828h-0.9571v-5.2002h0.9571v0.91797c0.0065,-0.12695 0.0358,-0.24576 0.0879,-0.35644c0.052,-0.11393 0.1204,-0.21159 0.205,-0.29297c0.0879,-0.08464 0.1888,-0.14974 0.3028,-0.19531c0.1139,-0.04883 0.236,-0.07325 0.3662,-0.07325h1.7187c0.1335,0 0.2588,0.02605 0.376,0.07813c0.1172,0.04883 0.2181,0.11719 0.3027,0.20508c0.0879,0.08463 0.1563,0.18554 0.2051,0.30273c0.0521,0.11719 0.0782,0.24252 0.0782,0.37598zM236.394,176.49169h-3.4424v1.14747h3.4424v0.96191h-3.4424c-0.1302,0 -0.2539,-0.02441 -0.371,-0.07324c-0.1172,-0.05209 -0.2198,-0.12044 -0.3077,-0.20508c-0.0846,-0.08789 -0.153,-0.19043 -0.205,-0.30762c-0.0489,-0.11718 -0.0733,-0.24251 -0.0733,-0.37597v-3.27637c0,-0.13346 0.0244,-0.25879 0.0733,-0.37598c0.052,-0.11719 0.1204,-0.2181 0.205,-0.30273c0.0879,-0.08789 0.1905,-0.15625 0.3077,-0.20508c0.1171,-0.05208 0.2408,-0.07813 0.371,-0.07813h2.4805c0.1335,0 0.2588,0.02605 0.376,0.07813c0.1172,0.04883 0.2181,0.11719 0.3027,0.20508c0.0879,0.08463 0.1563,0.18554 0.2051,0.30273c0.0521,0.11719 0.0781,0.24252 0.0781,0.37598zM232.9516,174.36279v1.16699h2.4805v-1.16699zM238.9575,174.36279v4.23828h-0.957v-5.2002h0.957v0.91797c0.0065,-0.12695 0.0358,-0.24576 0.0879,-0.35644c0.0521,-0.11393 0.1204,-0.21159 0.2051,-0.29297c0.0879,-0.08464 0.1888,-0.14974 0.3027,-0.19531c0.1139,-0.04883 0.236,-0.07325 0.3662,-0.07325h1.0205c0.1335,0 0.2572,0.02605 0.3711,0.07813c0.1172,0.04883 0.2197,0.11719 0.3076,0.20508c0.0879,0.08463 0.1563,0.18554 0.2051,0.30273c0.0521,0.11719 0.0781,0.24252 0.0781,0.37598v0.8789h-0.9619v-0.8789zM243.0981,176.33056c0,-0.13346 0.0244,-0.25716 0.0733,-0.37109c0.0521,-0.11719 0.1204,-0.21973 0.2051,-0.30762c0.0878,-0.08789 0.1904,-0.15625 0.3076,-0.20508c0.1172,-0.05208 0.2409,-0.07812 0.3711,-0.07812h2.4804v-1.00586h-3.1396v-0.96192h3.1396c0.1335,0 0.2588,0.02605 0.376,0.07813c0.1172,0.04883 0.2181,0.11719 0.3027,0.20508c0.0879,0.08463 0.1563,0.18554 0.2051,0.30273c0.0521,0.11719 0.0781,0.24252 0.0781,0.37598v4.23828h-0.9619v-0.87891c-0.0097,0.12045 -0.0423,0.23438 -0.0976,0.3418c-0.0554,0.10742 -0.127,0.20182 -0.2149,0.2832c-0.0846,0.07813 -0.1823,0.13998 -0.2929,0.18555c-0.1107,0.04557 -0.2279,0.06836 -0.3516,0.06836h-1.5234c-0.1302,0 -0.2539,-0.02441 -0.3711,-0.07324c-0.1172,-0.05209 -0.2198,-0.12044 -0.3076,-0.20508c-0.0847,-0.08789 -0.153,-0.19043 -0.2051,-0.30762c-0.0489,-0.11718 -0.0733,-0.24251 -0.0733,-0.37597zM244.0552,177.63916h2.4804v-1.3086h-2.4804zM248.8013,173.40087h1.2695v-1.60156h0.9619v1.60156h1.709v0.96192h-1.709v3.27637h1.709v0.96191h-1.709c-0.1302,0 -0.2539,-0.02441 -0.3711,-0.07324c-0.1172,-0.05209 -0.2197,-0.12044 -0.3076,-0.20508c-0.0879,-0.08789 -0.1579,-0.19043 -0.21,-0.30762c-0.0488,-0.11718 -0.0732,-0.24251 -0.0732,-0.37597v-3.27637h-1.2695zM255.3589,173.40087v5.2002h-0.9619v-5.2002zM254.3481,171.39893h1.0596v1.00098h-1.0596zM261.5112,177.63916c0,0.13346 -0.026,0.25879 -0.0781,0.37597c-0.0488,0.11719 -0.1172,0.21973 -0.2051,0.30762c-0.0846,0.08464 -0.1855,0.15299 -0.3027,0.20508c-0.114,0.04883 -0.2377,0.07324 -0.3711,0.07324h-2.583c-0.1302,0 -0.2539,-0.02441 -0.3711,-0.07324c-0.1172,-0.05209 -0.2197,-0.12044 -0.3076,-0.20508c-0.0847,-0.08789 -0.153,-0.19043 -0.2051,-0.30762c-0.0488,-0.11718 -0.0733,-0.24251 -0.0733,-0.37597v-3.27637c0,-0.13346 0.0245,-0.25879 0.0733,-0.37598c0.0521,-0.11719 0.1204,-0.2181 0.2051,-0.30273c0.0879,-0.08789 0.1904,-0.15625 0.3076,-0.20508c0.1172,-0.05208 0.2409,-0.07813 0.3711,-0.07813h2.583c0.1334,0 0.2571,0.02605 0.3711,0.07813c0.1172,0.04883 0.2181,0.11719 0.3027,0.20508c0.0879,0.08463 0.1563,0.18554 0.2051,0.30273c0.0521,0.11719 0.0781,0.24252 0.0781,0.37598zM257.9712,174.36279v3.27637h2.583v-3.27637zM267.7173,178.60107h-0.9619v-4.23828h-2.6807v4.23828h-0.957v-5.2002h0.957v0.91797c0.0065,-0.12695 0.0358,-0.24576 0.0879,-0.35644c0.0521,-0.11393 0.1204,-0.21159 0.2051,-0.29297c0.0879,-0.08464 0.1888,-0.14974 0.3027,-0.19531c0.1139,-0.04883 0.236,-0.07325 0.3662,-0.07325h1.7188c0.1334,0 0.2587,0.02605 0.3759,0.07813c0.1172,0.04883 0.2181,0.11719 0.3028,0.20508c0.0879,0.08463 0.1562,0.18554 0.205,0.30273c0.0521,0.11719 0.0782,0.24252 0.0782,0.37598zM212.063,181.59907h1.001v6.001h3.999v-6.001h1.001v6.001c0,0.1367 -0.0261,0.267 -0.0782,0.3906c-0.0521,0.1205 -0.1237,0.2263 -0.2148,0.3174c-0.0912,0.0912 -0.1986,0.1628 -0.3223,0.2149c-0.1204,0.0521 -0.249,0.0781 -0.3857,0.0781h-3.999c-0.1368,0 -0.267,-0.026 -0.3907,-0.0781c-0.1204,-0.0521 -0.2262,-0.1237 -0.3174,-0.2149c-0.0911,-0.0911 -0.1627,-0.1969 -0.2148,-0.3174c-0.0521,-0.1236 -0.0781,-0.2539 -0.0781,-0.3906zM224.3677,188.60107h-0.962v-4.2383h-2.6806v4.2383h-0.957v-5.2002h0.957v0.918c0.0065,-0.127 0.0358,-0.2458 0.0879,-0.3565c0.0521,-0.1139 0.1204,-0.2116 0.2051,-0.2929c0.0878,-0.0847 0.1888,-0.1498 0.3027,-0.1954c0.1139,-0.0488 0.236,-0.0732 0.3662,-0.0732h1.7187c0.1335,0 0.2588,0.026 0.376,0.0781c0.1172,0.0489 0.2181,0.1172 0.3028,0.2051c0.0879,0.0846 0.1562,0.1856 0.205,0.3027c0.0521,0.1172 0.0782,0.2426 0.0782,0.376zM225.9692,186.33057c0,-0.1335 0.0244,-0.2572 0.0733,-0.3711c0.0521,-0.1172 0.1204,-0.2197 0.205,-0.3076c0.0879,-0.0879 0.1905,-0.1563 0.3077,-0.2051c0.1172,-0.0521 0.2408,-0.0781 0.3711,-0.0781h2.4804v-1.0059h-3.1396v-0.9619h3.1396c0.1335,0 0.2588,0.026 0.376,0.0781c0.1172,0.0489 0.2181,0.1172 0.3027,0.2051c0.0879,0.0846 0.1563,0.1856 0.2051,0.3027c0.0521,0.1172 0.0781,0.2426 0.0781,0.376v4.2383h-0.9619v-0.8789c-0.0097,0.1204 -0.0423,0.2344 -0.0976,0.3418c-0.0554,0.1074 -0.127,0.2018 -0.2149,0.2832c-0.0846,0.0781 -0.1823,0.14 -0.2929,0.1855c-0.1107,0.0456 -0.2279,0.0684 -0.3516,0.0684h-1.5234c-0.1303,0 -0.2539,-0.0244 -0.3711,-0.0732c-0.1172,-0.0521 -0.2198,-0.1205 -0.3077,-0.2051c-0.0846,-0.0879 -0.1529,-0.1905 -0.205,-0.3076c-0.0489,-0.1172 -0.0733,-0.2426 -0.0733,-0.376zM226.9263,187.63917h2.4804v-1.3086h-2.4804zM233.4546,188.60107l-2.0801,-5.2002h1.001l1.5771,4.0479l1.5821,-4.0479h1.0009l-2.08,5.2002zM237.5415,186.33057c0,-0.1335 0.0244,-0.2572 0.0732,-0.3711c0.0521,-0.1172 0.1205,-0.2197 0.2051,-0.3076c0.0879,-0.0879 0.1904,-0.1563 0.3076,-0.2051c0.1172,-0.0521 0.2409,-0.0781 0.3711,-0.0781h2.4805v-1.0059h-3.1397v-0.9619h3.1397c0.1335,0 0.2588,0.026 0.376,0.0781c0.1172,0.0489 0.2181,0.1172 0.3027,0.2051c0.0879,0.0846 0.1563,0.1856 0.2051,0.3027c0.0521,0.1172 0.0781,0.2426 0.0781,0.376v4.2383h-0.9619v-0.8789c-0.0098,0.1204 -0.0423,0.2344 -0.0977,0.3418c-0.0553,0.1074 -0.1269,0.2018 -0.2148,0.2832c-0.0846,0.0781 -0.1823,0.14 -0.293,0.1855c-0.1107,0.0456 -0.2278,0.0684 -0.3515,0.0684h-1.5235c-0.1302,0 -0.2539,-0.0244 -0.3711,-0.0732c-0.1172,-0.0521 -0.2197,-0.1205 -0.3076,-0.2051c-0.0846,-0.0879 -0.153,-0.1905 -0.2051,-0.3076c-0.0488,-0.1172 -0.0732,-0.2426 -0.0732,-0.376zM238.4985,187.63917h2.4805v-1.3086h-2.4805zM244.5581,183.40087v5.2002h-0.9619v-5.2002zM243.5474,181.39897h1.0595v1.0009h-1.0595zM247.1704,181.39897v7.2021h-0.957v-7.2021zM248.772,186.33057c0,-0.1335 0.0244,-0.2572 0.0732,-0.3711c0.0521,-0.1172 0.1204,-0.2197 0.2051,-0.3076c0.0879,-0.0879 0.1904,-0.1563 0.3076,-0.2051c0.1172,-0.0521 0.2409,-0.0781 0.3711,-0.0781h2.4805v-1.0059h-3.1397v-0.9619h3.1397c0.1334,0 0.2587,0.026 0.3759,0.0781c0.1172,0.0489 0.2181,0.1172 0.3028,0.2051c0.0879,0.0846 0.1562,0.1856 0.205,0.3027c0.0521,0.1172 0.0782,0.2426 0.0782,0.376v4.2383h-0.9619v-0.8789c-0.0098,0.1204 -0.0424,0.2344 -0.0977,0.3418c-0.0553,0.1074 -0.127,0.2018 -0.2148,0.2832c-0.0847,0.0781 -0.1823,0.14 -0.293,0.1855c-0.1107,0.0456 -0.2279,0.0684 -0.3516,0.0684h-1.5234c-0.1302,0 -0.2539,-0.0244 -0.3711,-0.0732c-0.1172,-0.0521 -0.2197,-0.1205 -0.3076,-0.2051c-0.0847,-0.0879 -0.153,-0.1905 -0.2051,-0.3076c-0.0488,-0.1172 -0.0732,-0.2426 -0.0732,-0.376zM249.729,187.63917h2.4805v-1.3086h-2.4805zM259.3774,187.63917c0,0.1334 -0.026,0.2588 -0.0781,0.376c-0.0488,0.1171 -0.1172,0.2197 -0.2051,0.3076c-0.0846,0.0846 -0.1855,0.153 -0.3027,0.2051c-0.1172,0.0488 -0.2425,0.0732 -0.376,0.0732h-2.6807c-0.1302,0 -0.2539,-0.0244 -0.371,-0.0732c-0.1172,-0.0521 -0.2198,-0.1205 -0.3077,-0.2051c-0.0846,-0.0879 -0.153,-0.1905 -0.205,-0.3076c-0.0489,-0.1172 -0.0733,-0.2426 -0.0733,-0.376v-6.2402h0.957v2.9199c0.0066,-0.127 0.0359,-0.2458 0.0879,-0.3565c0.0521,-0.1139 0.1205,-0.2116 0.2051,-0.2929c0.0879,-0.0847 0.1888,-0.1498 0.3028,-0.1954c0.1139,-0.0488 0.236,-0.0732 0.3662,-0.0732h1.7187c0.1335,0 0.2588,0.026 0.376,0.0781c0.1172,0.0489 0.2181,0.1172 0.3027,0.2051c0.0879,0.0846 0.1563,0.1856 0.2051,0.3027c0.0521,0.1172 0.0781,0.2426 0.0781,0.376zM255.7348,184.36277v3.2764h2.6807v-3.2764zM261.936,181.39897v7.2021h-0.957v-7.2021zM267.937,186.49167h-3.4424v1.1475h3.4424v0.9619h-3.4424c-0.1302,0 -0.2539,-0.0244 -0.3711,-0.0732c-0.1172,-0.0521 -0.2197,-0.1205 -0.3076,-0.2051c-0.0846,-0.0879 -0.153,-0.1905 -0.2051,-0.3076c-0.0488,-0.1172 -0.0732,-0.2426 -0.0732,-0.376v-3.2764c0,-0.1334 0.0244,-0.2588 0.0732,-0.376c0.0521,-0.1171 0.1205,-0.2181 0.2051,-0.3027c0.0879,-0.0879 0.1904,-0.1562 0.3076,-0.2051c0.1172,-0.0521 0.2409,-0.0781 0.3711,-0.0781h2.4805c0.1334,0 0.2588,0.026 0.376,0.0781c0.1171,0.0489 0.2181,0.1172 0.3027,0.2051c0.0879,0.0846 0.1562,0.1856 0.2051,0.3027c0.0521,0.1172 0.0781,0.2426 0.0781,0.376zM264.4946,184.36277v1.167h2.4805v-1.167z" fill="#000000"/></g></g></svg>