<svg version="1.1" xmlns="http://www.w3.org/2000/svg" xmlns:xlink="http://www.w3.org/1999/xlink" width="320.00001" height="76.45562" viewBox="0,0,320.00001,76.45562"><g transform="translate(-80,-142.67049)"><g data-paper-data="{&quot;isPaintingLayer&quot;:true}" fill-rule="nonzero" stroke-linecap="butt" stroke-linejoin="miter" stroke-miterlimit="10" stroke-dasharray="" stroke-dashoffset="0" style="mix-blend-mode: normal"><path d="M98.83594,217.62611c-9.57438,0 -17.33594,-6.0389 -17.33594,-14.219c0,-12.8911 0,-31.0998 0,-39.37135c0,-8.23171 7.76156,-19.86527 17.33594,-19.86527h282.32813c9.57438,0 17.33594,10.0618 17.33594,17.56547c0,7.83581 0,25.65192 0,39.07736c0,9.50732 -7.76156,16.81278 -17.33594,16.81278z" fill="#ffffff" stroke="#e44949" stroke-width="3"/><path d="M81.5,160.17049c0,-8.83656 7.16344,-16 16,-16c0,0 127.48054,0 179.40395,0c39.83557,0 105.59605,0 105.59605,0c8.837,0 16,7.16344 16,16v20h-317z" fill="#e44949" stroke="none" stroke-width="1"/><path d="M103.1508,168.5248l2.1275,-2.0562c0.9767,0.9472 1.4056,4.1247 1.4056,5.4681c0,2.79 -2.3544,5.0633 -5.232,5.0633c-2.8777,0 -5.2321,-2.2733 -5.2321,-5.0633c0,-1.3434 0.5407,-2.6006 1.5173,-3.565l3.7148,-3.5995z" fill="#ffffff" stroke="none" stroke-width="1"/><path d="M111.0158,159.6736c0.3962,0 0.7537,-0.8527 1.201,-1.8065c0.6931,-1.4781 0,-4.06045 0,-4.56901c0,-0.43133 2.0447,3.18151 2.9434,7.16181c0.5974,2.6465 0.282,5.6042 0,7.1023c-0.7325,3.8578 -3.1742,7.1473 -6.4704,9.1278c0.9418,-1.3605 1.4825,-2.9794 1.4825,-4.7361c0,-2.2906 -3.2372,-7.7716 -4.894,-9.3733l-1.0827,2.3639l-2.7434,-4.9945l-6.1564,5.9589c-1.6568,1.6189 -2.5637,3.7544 -2.5637,6.0278c0,1.7911 0.5755,3.4617 1.5521,4.8222c-4.06353,-2.3939 -6.7842,-6.7856 -6.7842,-11.8144c0,-3.2656 2.60482,-9.452 2.60482,-9.452c0,0 0.42318,1.2049 1.02347,1.7001c0.52251,0.4309 1.60381,0.6745 1.60381,0.6745c0,0 0.861,-3.8666 2.5637,-6.18376c1.7027,-2.3172 6.1564,-5.68334 6.1564,-5.68334v5.68334c0,3.25496 2.0207,4.84286 4.0786,2.31124l1.0813,-3.3177c0,0 4.4037,4.38032 4.4037,8.99672z" fill="#ffffff" stroke="none" stroke-width="1"/><g stroke="none" stroke-width="1"><path d="M364.99926,162.17049c0,-7.93299 6.43095,-14.36394 14.36394,-14.36394c7.93298,0 14.36393,6.43095 14.36393,14.36394c0,7.93299 -6.43095,14.36393 -14.36393,14.36393c-7.93298,0 -14.36394,-6.43095 -14.36394,-14.36393z" fill="#ffffff"/><g fill="#ff0000"><path d="M385.87974,153.83886v1.9827h-13.03309v-1.98274c0,-0.34858 0.24721,-0.63117 0.55222,-0.63117h3.79006v-0.81885c0,-0.11629 0.08256,-0.21061 0.18423,-0.21061h3.98006c0.10179,0 0.18424,0.09433 0.18424,0.21061v0.8189h3.79008c0.30502,0 0.5522,0.28258 0.5522,0.63116z"/><path d="M373.66293,157.04455h11.14731l-0.58667,14.15448c-0.01974,0.53859 -0.40769,0.96376 -0.87932,0.96376h-8.21539c-0.47166,0 -0.8595,-0.42517 -0.87923,-0.96376zM381.09498,168.647c0,0.2257 0.16013,0.40856 0.35748,0.40856h0.57169c0.19747,0 0.35748,-0.18286 0.35748,-0.40856v-8.08673c0,-0.22559 -0.16013,-0.40846 -0.35748,-0.40846h-0.57169c-0.19747,0 -0.35748,0.18292 -0.35748,0.40846zM378.59328,168.647c0,0.2257 0.16013,0.40856 0.35748,0.40856h0.57168c0.19747,0 0.35735,-0.18286 0.35735,-0.40856v-8.08673c0,-0.22559 -0.16,-0.40846 -0.35735,-0.40846h-0.57168c-0.19747,0 -0.35748,0.18292 -0.35748,0.40846zM376.09154,168.647c0,0.2257 0.16005,0.40856 0.3574,0.40856h0.5718c0.19735,0 0.35735,-0.18286 0.35735,-0.40856v-8.08673c0,-0.22559 -0.16,-0.40846 -0.35735,-0.40846h-0.5718c-0.19738,0 -0.3574,0.18292 -0.3574,0.40846z"/></g></g></g></g></svg>