<svg version="1.1" xmlns="http://www.w3.org/2000/svg" xmlns:xlink="http://www.w3.org/1999/xlink" width="13.41226" height="17.58214" viewBox="0,0,13.41226,17.58214"><g transform="translate(-233.54387,-171.45893)"><g data-paper-data="{&quot;isPaintingLayer&quot;:true}" fill="#83a837" fill-rule="nonzero" stroke="#83a837" stroke-width="1" stroke-linecap="butt" stroke-linejoin="miter" stroke-miterlimit="10" stroke-dasharray="" stroke-dashoffset="0" style="mix-blend-mode: normal"><path d="M240.23783,188.54107c-1.93458,0 -3.45461,-0.69905 -4.56013,-2.09715c-1.08922,-1.41436 -1.63383,-3.479 -1.63383,-6.19392c0,-2.71492 0.54461,-4.77143 1.63383,-6.16953c1.10552,-1.41436 2.62555,-2.12154 4.56013,-2.12154c1.95084,0 3.47087,0.70718 4.56009,2.12154c1.10548,1.3981 1.65821,3.45461 1.65821,6.16953c0,2.71492 -0.55274,4.77956 -1.65821,6.19392c-1.08922,1.3981 -2.60925,2.09715 -4.56009,2.09715zM240.23783,186.32199c0.78034,0 1.43062,-0.21947 1.95084,-0.65841c0.53648,-0.4552 0.93478,-1.12986 1.19489,-2.024c0.27637,-0.91039 0.41455,-2.04025 0.41455,-3.38959c0,-1.34933 -0.13818,-2.47106 -0.41455,-3.3652c-0.26011,-0.91039 -0.65841,-1.58506 -1.19489,-2.024c-0.52022,-0.4552 -1.1705,-0.68279 -1.95084,-0.68279c-0.78034,0 -1.43875,0.2276 -1.97523,0.68279c-0.52022,0.43894 -0.91039,1.1136 -1.1705,2.024c-0.26011,0.89414 -0.39017,2.01587 -0.39017,3.3652c0,1.34933 0.13006,2.47919 0.39017,3.38959c0.26011,0.89414 0.65028,1.5688 1.1705,2.024c0.53648,0.43894 1.19489,0.65841 1.97523,0.65841z"/></g></g></svg>