<svg version="1.1" xmlns="http://www.w3.org/2000/svg" xmlns:xlink="http://www.w3.org/1999/xlink" width="21.25685" height="27.14368" viewBox="0,0,21.25685,27.14368"><g transform="translate(-229.47093,-166.67572)"><g data-paper-data="{&quot;isPaintingLayer&quot;:true}" fill="#ffffff" fill-rule="nonzero" stroke="none" stroke-width="1" stroke-linecap="butt" stroke-linejoin="miter" stroke-miterlimit="10" stroke-dasharray="" stroke-dashoffset="0" style="mix-blend-mode: normal"><path d="M229.47093,185.60429h3.80466v1.43868c0,1.02218 0.22714,1.773 0.68143,2.25245c0.45429,0.47961 1.19883,0.71934 2.23358,0.71934h7.81754c1.03471,0 1.77932,-0.23973 2.2335,-0.71934c0.45434,-0.47946 0.6815,-1.23027 0.6815,-2.25245v-2.10111c0,-1.03474 -0.22717,-1.78556 -0.6815,-2.25245c-0.45418,-0.4669 -1.1988,-0.70042 -2.2335,-0.70042h-8.02574v-3.78572h7.91218c0.94638,-0.03785 1.62153,-0.29025 2.02532,-0.75714c0.4165,-0.47953 0.62475,-1.21143 0.62475,-2.19573v-1.77929c0,-1.03477 -0.23353,-1.79191 -0.70042,-2.27143c-0.45434,-0.47953 -1.19244,-0.71929 -2.21465,-0.71929h-7.0604c-1.02215,0 -1.76036,0.23976 -2.21465,0.71929c-0.45429,0.47952 -0.68143,1.23666 -0.68143,2.27143v1.43859h-3.80466v-1.62787c0,-4.40407 2.19572,-6.6061 6.58717,-6.6061h7.28753c2.2335,0 3.88664,0.54262 4.95936,1.62786c1.08513,1.08524 1.62786,2.74465 1.62786,4.97824v0.49214c0,1.52691 -0.27136,2.78883 -0.81393,3.78574c-0.53001,0.9843 -1.3061,1.7162 -2.32828,2.19573c1.1484,0.34071 2.02544,1.02215 2.63112,2.04423c0.60568,1.02218 0.90852,2.37883 0.90852,4.06964v1.36301c0,4.3914 -2.1957,6.5871 -6.58714,6.5871h-8.06361c-4.40407,0 -6.6061,-2.1957 -6.6061,-6.5871z"/></g></g></svg>