<svg version="1.1" xmlns="http://www.w3.org/2000/svg" xmlns:xlink="http://www.w3.org/1999/xlink" width="228.59134" height="14.45262" viewBox="0,0,228.59134,14.45262"><g transform="translate(-125.43266,-172.94678)"><g data-paper-data="{&quot;isPaintingLayer&quot;:true}" fill="#57a71a" fill-rule="nonzero" stroke="#57a71a" stroke-width="0.5" stroke-linecap="butt" stroke-linejoin="miter" stroke-miterlimit="10" stroke-dasharray="" stroke-dashoffset="0" style="mix-blend-mode: normal"><path d="M128.76709,184l-3.00293,-10.50293h1.50146l2.32911,8.35693l2.32177,-8.35693h1.50147l2.32173,8.35693l2.3291,-8.35693h1.5015l-3.0029,10.50293h-1.64797l-2.24853,-7.87354l-2.25586,7.87354zM148.125,184h-1.4429v-6.35742h-4.021v6.35742h-1.4355v-10.80322h1.4355v4.37988c0.0098,-0.19043 0.0537,-0.36865 0.1319,-0.53467c0.0781,-0.1709 0.1806,-0.31738 0.3076,-0.43945c0.1318,-0.12695 0.2832,-0.22461 0.4541,-0.29297c0.1709,-0.07324 0.354,-0.10986 0.5493,-0.10986h2.5781c0.2002,0 0.3882,0.03906 0.564,0.11718c0.1758,0.07325 0.3271,0.17579 0.4541,0.30762c0.1318,0.12695 0.2344,0.27832 0.3076,0.4541c0.0781,0.17578 0.1172,0.36377 0.1172,0.56397zM150.5273,180.59424c0,-0.2002 0.0367,-0.38574 0.1099,-0.55664c0.0781,-0.17578 0.1807,-0.32959 0.3076,-0.46143c0.1319,-0.13183 0.2857,-0.23437 0.4614,-0.30762c0.1758,-0.07812 0.3614,-0.11718 0.5567,-0.11718h3.7207v-1.50879h-4.7095v-1.44287h4.7095c0.2002,0 0.3882,0.03906 0.564,0.11718c0.1757,0.07325 0.3271,0.17579 0.4541,0.30762c0.1318,0.12695 0.2343,0.27832 0.3076,0.4541c0.0781,0.17578 0.1172,0.36377 0.1172,0.56397v6.35742h-1.4429v-1.3184c-0.0147,0.1807 -0.0635,0.3516 -0.1465,0.5127c-0.083,0.1612 -0.1904,0.3028 -0.3223,0.4248c-0.1269,0.1172 -0.2734,0.21 -0.4394,0.2784c-0.166,0.0683 -0.3418,0.1025 -0.5274,0.1025h-2.2851c-0.1953,0 -0.3809,-0.0366 -0.5567,-0.1099c-0.1757,-0.0781 -0.3295,-0.1806 -0.4614,-0.3076c-0.1269,-0.1318 -0.2295,-0.2856 -0.3076,-0.4614c-0.0732,-0.1758 -0.1099,-0.3638 -0.1099,-0.564zM151.9629,182.5571h3.7207v-1.96286h-3.7207zM159.082,176.19971h1.9043v-2.40235h1.4429v2.40235h2.5635v1.44287h-2.5635v4.91452h2.5635v1.4429h-2.5635c-0.1953,0 -0.3809,-0.0366 -0.5566,-0.1099c-0.1758,-0.0781 -0.3296,-0.1806 -0.4615,-0.3076c-0.1318,-0.1318 -0.2368,-0.2856 -0.3149,-0.4614c-0.0733,-0.1758 -0.1099,-0.3638 -0.1099,-0.564v-4.91452h-1.9043zM172.0459,173.49707h7.6538v1.50147h-6.1523v3.00292h5.2514v1.50147h-5.2514v2.99557h6.1523v1.5015h-7.6538zM181.8018,177.64258c0,-0.2002 0.0366,-0.38819 0.1098,-0.56397c0.0781,-0.17578 0.1807,-0.32715 0.3076,-0.4541c0.1319,-0.13183 0.2857,-0.23437 0.4615,-0.30762c0.1757,-0.07812 0.3613,-0.11718 0.5566,-0.11718h4.021c0.2002,0 0.3882,0.03906 0.564,0.11718c0.1757,0.07325 0.3271,0.17579 0.4541,0.30762c0.1318,0.12695 0.2343,0.27832 0.3076,0.4541c0.0781,0.17578 0.1172,0.36377 0.1172,0.56397v9.50682h-1.4429v-4.5264c-0.0049,0.1905 -0.0488,0.3687 -0.1318,0.5347c-0.0782,0.166 -0.1831,0.3125 -0.315,0.4395c-0.1269,0.122 -0.2759,0.2197 -0.4468,0.2929c-0.1709,0.0733 -0.3515,0.1099 -0.5419,0.1099h-2.5855c-0.1953,0 -0.3809,-0.0366 -0.5566,-0.1099c-0.1758,-0.0781 -0.3296,-0.1806 -0.4615,-0.3076c-0.1269,-0.1318 -0.2295,-0.2856 -0.3076,-0.4614c-0.0732,-0.1758 -0.1098,-0.3638 -0.1098,-0.564zM187.2583,182.5571v-4.91452h-4.021v4.91452zM191.1035,176.19971h1.4356v6.35739h4.021v-6.35739h1.4428v7.80029h-1.4428v-1.3184c-0.0147,0.1807 -0.0635,0.3516 -0.1465,0.5127c-0.083,0.1612 -0.1905,0.3028 -0.3223,0.4248c-0.1269,0.1172 -0.2734,0.21 -0.4394,0.2784c-0.1661,0.0683 -0.3418,0.1025 -0.5274,0.1025h-2.5854c-0.1953,0 -0.3809,-0.0366 -0.5567,-0.1099c-0.1758,-0.0781 -0.3296,-0.1806 -0.4614,-0.3076c-0.127,-0.1318 -0.2295,-0.2856 -0.3076,-0.4614c-0.0733,-0.1758 -0.1099,-0.3638 -0.1099,-0.564zM201.9214,176.19971v7.80029h-1.4429v-7.80029zM200.4053,173.19678h1.5893v1.50146h-1.5893zM211.3037,182.5571c0,0.2002 -0.0391,0.3882 -0.1172,0.564c-0.0732,0.1758 -0.1758,0.3296 -0.3076,0.4614c-0.1269,0.127 -0.2783,0.2295 -0.4541,0.3076c-0.1758,0.0733 -0.3638,0.1099 -0.564,0.1099h-4.021v3.1494h-1.4355v-10.94969h1.4355v1.31836c0.0147,-0.18555 0.0635,-0.35645 0.1465,-0.5127c0.083,-0.16113 0.188,-0.30029 0.315,-0.41748c0.1269,-0.12207 0.2734,-0.21728 0.4394,-0.28564c0.1709,-0.06836 0.3516,-0.10254 0.542,-0.10254h2.5781c0.2002,0 0.3882,0.03906 0.564,0.11718c0.1758,0.07325 0.3272,0.17579 0.4541,0.30762c0.1318,0.12695 0.2344,0.27832 0.3076,0.4541c0.0781,0.17578 0.1172,0.36377 0.1172,0.56397zM209.8608,182.5571v-4.91452h-4.021v4.91452zM219.8877,177.64258v6.35742h-1.4429v-6.35742h-3.3032v6.35742h-1.4355v-7.80029h1.4355v1.37695c0.0098,-0.19043 0.0537,-0.36865 0.1318,-0.53467c0.0782,-0.1709 0.1807,-0.31738 0.3077,-0.43945c0.1318,-0.12695 0.2832,-0.22461 0.4541,-0.29297c0.1709,-0.07324 0.354,-0.10986 0.5493,-0.10986h1.8603c0.1905,0 0.3711,0.03662 0.542,0.10986c0.1709,0.06836 0.3223,0.16602 0.4541,0.29297c0.1319,0.12207 0.2368,0.26855 0.315,0.43945c0.083,0.16602 0.1269,0.34424 0.1318,0.53467c0.0098,-0.19043 0.0513,-0.36865 0.1245,-0.53467c0.0781,-0.1709 0.1807,-0.31738 0.3076,-0.43945c0.1319,-0.12695 0.2832,-0.22461 0.4541,-0.29297c0.1709,-0.07324 0.354,-0.10986 0.5493,-0.10986h1.8604c0.2002,0 0.3882,0.03906 0.564,0.11718c0.1757,0.07325 0.3271,0.17579 0.4541,0.30762c0.1318,0.12695 0.2343,0.27832 0.3076,0.4541c0.0781,0.17578 0.1172,0.36377 0.1172,0.56397v6.35742h-1.4429v-6.35742zM233.635,180.83594h-5.163v1.72116h5.163v1.4429h-5.163c-0.196,0 -0.381,-0.0366 -0.557,-0.1099c-0.176,-0.0781 -0.33,-0.1806 -0.461,-0.3076c-0.127,-0.1318 -0.23,-0.2856 -0.308,-0.4614c-0.073,-0.1758 -0.11,-0.3638 -0.11,-0.564v-4.91452c0,-0.2002 0.037,-0.38819 0.11,-0.56397c0.078,-0.17578 0.181,-0.32715 0.308,-0.4541c0.131,-0.13183 0.285,-0.23437 0.461,-0.30762c0.176,-0.07812 0.361,-0.11718 0.557,-0.11718h3.72c0.201,0 0.389,0.03906 0.564,0.11718c0.176,0.07325 0.327,0.17579 0.454,0.30762c0.132,0.12695 0.235,0.27832 0.308,0.4541c0.078,0.17578 0.117,0.36377 0.117,0.56397zM228.472,177.64258v1.75049h3.72v-1.75049zM242.944,184h-1.443v-6.35742h-4.021v6.35742h-1.435v-7.80029h1.435v1.37695c0.01,-0.19043 0.054,-0.36865 0.132,-0.53467c0.078,-0.1709 0.181,-0.31738 0.308,-0.43945c0.132,-0.12695 0.283,-0.22461 0.454,-0.29297c0.171,-0.07324 0.354,-0.10986 0.549,-0.10986h2.578c0.201,0 0.389,0.03906 0.564,0.11718c0.176,0.07325 0.328,0.17579 0.455,0.30762c0.131,0.12695 0.234,0.27832 0.307,0.4541c0.078,0.17578 0.117,0.36377 0.117,0.56397zM244.893,176.19971h1.904v-2.40235h1.443v2.40235h2.563v1.44287h-2.563v4.91452h2.563v1.4429h-2.563c-0.196,0 -0.381,-0.0366 -0.557,-0.1099c-0.176,-0.0781 -0.329,-0.1806 -0.461,-0.3076c-0.132,-0.1318 -0.237,-0.2856 -0.315,-0.4614c-0.074,-0.1758 -0.11,-0.3638 -0.11,-0.564v-4.91452h-1.904zM257.71,177.64258c0,-0.2002 0.037,-0.38819 0.11,-0.56397c0.078,-0.17578 0.18,-0.32715 0.307,-0.4541c0.132,-0.13183 0.286,-0.23437 0.462,-0.30762c0.176,-0.07812 0.361,-0.11718 0.557,-0.11718h4.021v-3.00293h1.442v10.80322h-1.442v-1.3184c-0.015,0.1807 -0.064,0.3516 -0.147,0.5127c-0.083,0.1612 -0.19,0.3028 -0.322,0.4248c-0.127,0.1172 -0.274,0.21 -0.44,0.2784c-0.166,0.0683 -0.341,0.1025 -0.527,0.1025h-2.585c-0.196,0 -0.381,-0.0366 -0.557,-0.1099c-0.176,-0.0781 -0.33,-0.1806 -0.462,-0.3076c-0.127,-0.1318 -0.229,-0.2856 -0.307,-0.4614c-0.073,-0.1758 -0.11,-0.3638 -0.11,-0.564zM259.146,182.5571h4.021v-4.91452h-4.021zM273.757,182.5571c0,0.2002 -0.039,0.3882 -0.117,0.564c-0.073,0.1758 -0.176,0.3296 -0.307,0.4614c-0.127,0.127 -0.279,0.2295 -0.455,0.3076c-0.17,0.0733 -0.356,0.1099 -0.556,0.1099h-3.875c-0.195,0 -0.381,-0.0366 -0.556,-0.1099c-0.176,-0.0781 -0.33,-0.1806 -0.462,-0.3076c-0.127,-0.1318 -0.229,-0.2856 -0.307,-0.4614c-0.074,-0.1758 -0.11,-0.3638 -0.11,-0.564v-4.91452c0,-0.2002 0.036,-0.38819 0.11,-0.56397c0.078,-0.17578 0.18,-0.32715 0.307,-0.4541c0.132,-0.13183 0.286,-0.23437 0.462,-0.30762c0.175,-0.07812 0.361,-0.11718 0.556,-0.11718h3.875c0.2,0 0.386,0.03906 0.556,0.11718c0.176,0.07325 0.328,0.17579 0.455,0.30762c0.131,0.12695 0.234,0.27832 0.307,0.4541c0.078,0.17578 0.117,0.36377 0.117,0.56397zM268.447,177.64258v4.91452h3.875v-4.91452zM281.191,187.1494l1.634,-3.8525l-3.062,-7.09719h1.516l2.278,5.36865l2.278,-5.36865h1.516l-4.724,10.94969zM295.598,182.5571c0,0.2002 -0.039,0.3882 -0.117,0.564c-0.073,0.1758 -0.176,0.3296 -0.308,0.4614c-0.127,0.127 -0.278,0.2295 -0.454,0.3076c-0.171,0.0733 -0.356,0.1099 -0.556,0.1099h-3.875c-0.195,0 -0.381,-0.0366 -0.557,-0.1099c-0.175,-0.0781 -0.329,-0.1806 -0.461,-0.3076c-0.127,-0.1318 -0.229,-0.2856 -0.308,-0.4614c-0.073,-0.1758 -0.109,-0.3638 -0.109,-0.564v-4.91452c0,-0.2002 0.036,-0.38819 0.109,-0.56397c0.079,-0.17578 0.181,-0.32715 0.308,-0.4541c0.132,-0.13183 0.286,-0.23437 0.461,-0.30762c0.176,-0.07812 0.362,-0.11718 0.557,-0.11718h3.875c0.2,0 0.385,0.03906 0.556,0.11718c0.176,0.07325 0.327,0.17579 0.454,0.30762c0.132,0.12695 0.235,0.27832 0.308,0.4541c0.078,0.17578 0.117,0.36377 0.117,0.56397zM290.288,177.64258v4.91452h3.875v-4.91452zM298.008,176.19971h1.435v6.35739h4.021v-6.35739h1.443v7.80029h-1.443v-1.3184c-0.014,0.1807 -0.063,0.3516 -0.146,0.5127c-0.083,0.1612 -0.191,0.3028 -0.322,0.4248c-0.127,0.1172 -0.274,0.21 -0.44,0.2784c-0.166,0.0683 -0.342,0.1025 -0.527,0.1025h-2.586c-0.195,0 -0.381,-0.0366 -0.556,-0.1099c-0.176,-0.0781 -0.33,-0.1806 -0.462,-0.3076c-0.127,-0.1318 -0.229,-0.2856 -0.307,-0.4614c-0.074,-0.1758 -0.11,-0.3638 -0.11,-0.564zM318.706,184h-1.443v-6.35742h-4.021v6.35742h-1.435v-10.80322h1.435v4.37988c0.01,-0.19043 0.054,-0.36865 0.132,-0.53467c0.078,-0.1709 0.181,-0.31738 0.308,-0.43945c0.131,-0.12695 0.283,-0.22461 0.454,-0.29297c0.171,-0.07324 0.354,-0.10986 0.549,-0.10986h2.578c0.2,0 0.388,0.03906 0.564,0.11718c0.176,0.07325 0.327,0.17579 0.454,0.30762c0.132,0.12695 0.235,0.27832 0.308,0.4541c0.078,0.17578 0.117,0.36377 0.117,0.56397zM321.108,180.59424c0,-0.2002 0.037,-0.38574 0.11,-0.55664c0.078,-0.17578 0.181,-0.32959 0.308,-0.46143c0.132,-0.13183 0.286,-0.23437 0.461,-0.30762c0.176,-0.07812 0.362,-0.11718 0.557,-0.11718h3.721v-1.50879h-4.71v-1.44287h4.71c0.2,0 0.388,0.03906 0.564,0.11718c0.175,0.07325 0.327,0.17579 0.454,0.30762c0.132,0.12695 0.234,0.27832 0.307,0.4541c0.078,0.17578 0.118,0.36377 0.118,0.56397v6.35742h-1.443v-1.3184c-0.015,0.1807 -0.064,0.3516 -0.147,0.5127c-0.083,0.1612 -0.19,0.3028 -0.322,0.4248c-0.127,0.1172 -0.274,0.21 -0.44,0.2784c-0.166,0.0683 -0.341,0.1025 -0.527,0.1025h-2.285c-0.195,0 -0.381,-0.0366 -0.557,-0.1099c-0.175,-0.0781 -0.329,-0.1806 -0.461,-0.3076c-0.127,-0.1318 -0.23,-0.2856 -0.308,-0.4614c-0.073,-0.1758 -0.11,-0.3638 -0.11,-0.564zM322.544,182.5571h3.721v-1.96286h-3.721zM332.336,184l-3.12,-7.80029h1.502l2.365,6.07179l2.374,-6.07179h1.501l-3.12,7.80029zM345.066,180.83594h-5.164v1.72116h5.164v1.4429h-5.164c-0.195,0 -0.381,-0.0366 -0.556,-0.1099c-0.176,-0.0781 -0.33,-0.1806 -0.462,-0.3076c-0.127,-0.1318 -0.229,-0.2856 -0.307,-0.4614c-0.074,-0.1758 -0.11,-0.3638 -0.11,-0.564v-4.91452c0,-0.2002 0.036,-0.38819 0.11,-0.56397c0.078,-0.17578 0.18,-0.32715 0.307,-0.4541c0.132,-0.13183 0.286,-0.23437 0.462,-0.30762c0.175,-0.07812 0.361,-0.11718 0.556,-0.11718h3.721c0.2,0 0.388,0.03906 0.564,0.11718c0.176,0.07325 0.327,0.17579 0.454,0.30762c0.132,0.12695 0.234,0.27832 0.308,0.4541c0.078,0.17578 0.117,0.36377 0.117,0.56397zM339.902,177.64258v1.75049h3.721v-1.75049zM349.292,179.10742c0,-0.20508 0.02,-0.38818 0.059,-0.54931c0.044,-0.16114 0.107,-0.30518 0.19,-0.43213c0.083,-0.12696 0.19,-0.2417 0.322,-0.34424c0.137,-0.10742 0.296,-0.20508 0.476,-0.29297l1.934,-0.93018v-1.56005h-3.596v1.35498h-1.502v-1.35498c0,-0.20508 0.039,-0.39795 0.117,-0.57862c0.079,-0.18554 0.186,-0.34424 0.323,-0.47607c0.136,-0.13672 0.295,-0.24414 0.476,-0.32227c0.185,-0.08301 0.381,-0.12451 0.586,-0.12451h3.596c0.205,0 0.398,0.0415 0.579,0.12451c0.185,0.07813 0.346,0.18555 0.483,0.32227c0.137,0.13183 0.244,0.29053 0.322,0.47607c0.078,0.18067 0.117,0.37354 0.117,0.57862v1.28906c0,0.20508 -0.019,0.38818 -0.058,0.54931c-0.039,0.16114 -0.1,0.30762 -0.183,0.43946c-0.083,0.12695 -0.193,0.2417 -0.33,0.34424c-0.132,0.10253 -0.29,0.20019 -0.476,0.29296l-1.941,0.92286v1.26709h-1.494zM348.992,181.81006h2.19v2.18994h-2.19z"/></g></g></svg>