<svg version="1.1" xmlns="http://www.w3.org/2000/svg" xmlns:xlink="http://www.w3.org/1999/xlink" width="4.18968" height="4.90679" viewBox="0,0,4.18968,4.90679"><g transform="translate(-237.90516,-175.21821)"><g data-paper-data="{&quot;isPaintingLayer&quot;:true}" fill="#ffffff" fill-rule="nonzero" stroke="#ffffff" stroke-width="0.25" stroke-linecap="butt" stroke-linejoin="miter" stroke-miterlimit="10" stroke-dasharray="" stroke-dashoffset="0" style="mix-blend-mode: normal"><path d="M238.03016,177.96675c0,-0.11951 0.02186,-0.23029 0.06559,-0.33231c0.04664,-0.10494 0.10786,-0.19677 0.18365,-0.27547c0.0787,-0.0787 0.17053,-0.13992 0.27547,-0.18365c0.10494,-0.04664 0.21571,-0.06996 0.33231,-0.06996h2.22127v-0.90075h-2.81156v-0.8614h2.81156c0.11951,0 0.23175,0.02332 0.33669,0.06996c0.10494,0.04372 0.19531,0.10494 0.27109,0.18365c0.0787,0.07579 0.13992,0.16615 0.18365,0.27109c0.04664,0.10494 0.06996,0.21718 0.06996,0.33669v3.79538h-0.8614v-0.78706c-0.00874,0.10787 -0.03789,0.20988 -0.08746,0.30609c-0.04955,0.0962 -0.11368,0.18073 -0.19239,0.25361c-0.07579,0.06996 -0.16324,0.12535 -0.26235,0.16616c-0.0991,0.04081 -0.20404,0.06122 -0.31482,0.06122h-1.36424c-0.1166,0 -0.22737,-0.02186 -0.33231,-0.06559c-0.10494,-0.04665 -0.19677,-0.10786 -0.27547,-0.18365c-0.07579,-0.0787 -0.137,-0.17053 -0.18365,-0.27547c-0.04372,-0.10493 -0.06559,-0.21717 -0.06559,-0.33668zM238.88717,179.1386h2.22127v-1.17185h-2.22127z"/></g></g></svg>