<svg version="1.1" xmlns="http://www.w3.org/2000/svg" xmlns:xlink="http://www.w3.org/1999/xlink" width="18.041" height="23.80625" viewBox="0,0,18.041,23.80625"><g transform="translate(-230.9795,-155.72708)"><g data-paper-data="{&quot;isPaintingLayer&quot;:true}" fill="#24b0ff" fill-rule="nonzero" stroke="none" stroke-width="1" stroke-linecap="butt" stroke-linejoin="miter" stroke-miterlimit="10" stroke-dasharray="" stroke-dashoffset="0" style="mix-blend-mode: normal"><path d="M231.6795,159.63021c0,-0.4375 0.0833,-0.84896 0.25,-1.23438c0.1667,-0.39583 0.3958,-0.73438 0.6875,-1.01562c0.2917,-0.29167 0.6302,-0.52084 1.0156,-0.6875c0.3959,-0.17708 0.8125,-0.26562 1.2499,-0.26562h10.234c0.438,0 0.849,0.08854 1.235,0.26563c0.396,0.16666 0.739,0.39584 1.031,0.6875c0.292,0.28124 0.521,0.61979 0.688,1.01562c0.166,0.38542 0.25,0.79688 0.25,1.23438v2.89062h-3.204v-2.89062h-10.234v6.40622h10.234c0.438,0 0.849,0.0834 1.235,0.25c0.396,0.1667 0.739,0.3959 1.031,0.6875c0.292,0.2917 0.521,0.6354 0.688,1.0313c0.166,0.3854 0.25,0.7969 0.25,1.2343v6.3907c0,0.4375 -0.084,0.8541 -0.25,1.25c-0.167,0.3854 -0.396,0.7239 -0.688,1.0156c-0.292,0.2917 -0.635,0.5208 -1.031,0.6875c-0.386,0.1667 -0.797,0.25 -1.235,0.25h-10.234c-0.4374,0 -0.854,-0.0833 -1.2499,-0.25c-0.3854,-0.1667 -0.7239,-0.3958 -1.0156,-0.6875c-0.2917,-0.2917 -0.5208,-0.6302 -0.6875,-1.0156c-0.1667,-0.3959 -0.25,-0.8125 -0.25,-1.25zM234.8825,169.23953v6.3907h10.234v-6.3907z"/><path d="M232.5746,158.66747l-0.0026,0.00621l-0.6425,-0.27785zM233.112,157.87518l-0.009,0.009l-0.486,-0.50397zM233.9185,157.33168l-0.008,0.00358l-0.2779,-0.64255zM246.0795,157.33785l-0.01,-0.00437l-0.01,-0.0047l0.292,-0.63608zM246.8965,157.8841l-0.009,-0.00884l0.495,-0.49505zM247.4275,158.67367l-0.003,-0.00619l0.646,-0.27165zM249.0205,162.52083v0.7h-0.7v-0.7zM245.1165,163.22083h-0.699v-0.7h0.699zM245.1165,158.93021h0.7v0.7h-0.7zM234.1826,159.63021v-0.7h0.6999v0.7zM234.8825,166.73643h-0.6999v-0.7h0.6999zM246.0795,166.93163l-0.006,-0.0026l0.278,-0.6426zM247.4275,168.28303l-0.003,-0.0062l0.646,-0.2716zM248.7155,177.15183l-0.003,0.0062l-0.642,-0.2778zM246.0735,177.94083l0.006,-0.0027l0.272,0.6452zM233.361,179.22843l-0.0062,-0.0026l0.2778,-0.6425zM232.122,178.39083l0.495,-0.495zM231.287,177.15803l-0.0027,-0.0062l0.6452,-0.2716zM234.1826,169.23953v-0.6999h0.6999v0.6999zM234.8825,176.33023h-0.6999v-0.7h0.6999zM245.8165,175.63023v0.7h-0.7v-0.7zM245.1165,168.53963h0.7v0.6999h-0.7zM230.9795,159.63021c0,-0.52898 0.1013,-1.03541 0.3075,-1.51222l1.285,0.55568c-0.1271,0.29402 -0.1925,0.61051 -0.1925,0.95654zM231.2844,158.12419c0.2012,-0.47791 0.4827,-0.8969 0.8467,-1.24788l0.9718,1.00779c-0.2194,0.21152 -0.3961,0.46961 -0.5283,0.78337zM232.122,156.88523c0.3553,-0.35523 0.7678,-0.63396 1.2328,-0.83503l0.5557,1.285c-0.3059,0.13228 -0.5704,0.31188 -0.7985,0.53998zM233.3468,156.05373c0.4866,-0.21768 1.0007,-0.32665 1.5357,-0.32665v1.4c-0.3398,0 -0.6589,0.06811 -0.964,0.2046zM234.8825,155.72708h10.234v1.4h-10.234zM245.1165,155.72708c0.536,0 1.047,0.10901 1.527,0.32955l-0.584,1.27215c-0.291,-0.13362 -0.603,-0.2017 -0.943,-0.2017zM246.6235,156.04756c0.475,0.20033 0.896,0.47934 1.254,0.83767l-0.99,0.98995c-0.225,-0.225 -0.492,-0.40433 -0.808,-0.53733zM247.8685,156.87631c0.364,0.35098 0.646,0.76997 0.847,1.24788l-1.291,0.54328c-0.132,-0.31376 -0.308,-0.57185 -0.528,-0.78337zM248.7125,158.11799c0.206,0.47681 0.308,0.98324 0.308,1.51222h-1.4c0,-0.34603 -0.066,-0.66252 -0.193,-0.95654zM249.0205,159.63021v2.89062h-1.4v-2.89062zM248.3205,163.22083h-3.204v-1.4h3.204zM244.4175,162.52083v-2.89062h1.399v2.89062zM245.1165,160.3302h-10.234v-1.39999h10.234zM235.5825,159.63021v6.40622h-1.3999v-6.40622zM234.8825,165.33646h10.234v1.39997h-10.234zM245.1165,165.33646c0.529,0 1.036,0.10131 1.513,0.3075l-0.556,1.28497c-0.294,-0.1271 -0.61,-0.1925 -0.957,-0.1925zM246.6235,165.64131c0.475,0.20032 0.896,0.47932 1.254,0.83772l-0.99,0.9899c-0.225,-0.225 -0.492,-0.4043 -0.808,-0.5373zM247.8775,166.47903c0.358,0.3583 0.637,0.7787 0.838,1.2545l-1.291,0.5433c-0.133,-0.3159 -0.312,-0.5829 -0.537,-0.8079zM248.7125,167.72733c0.206,0.4768 0.308,0.9833 0.308,1.5122h-1.4c0,-0.346 -0.066,-0.6625 -0.193,-0.9565zM249.0205,169.23953v6.3907h-1.4v-6.3907zM249.0205,175.63023c0,0.529 -0.102,1.0382 -0.305,1.5216l-1.291,-0.5433c0.13,-0.3082 0.196,-0.6323 0.196,-0.9783zM248.7125,177.15803c-0.201,0.465 -0.48,0.8775 -0.835,1.2328l-0.99,-0.99c0.228,-0.2281 0.408,-0.4926 0.54,-0.7985zM247.8775,178.39083c-0.358,0.3583 -0.779,0.6373 -1.254,0.8376l-0.544,-1.2902c0.316,-0.133 0.583,-0.3124 0.808,-0.5374zM246.6295,179.22583c-0.477,0.2062 -0.984,0.3075 -1.513,0.3075v-1.4c0.347,0 0.663,-0.0654 0.957,-0.1925zM245.1165,179.53333h-10.234v-1.4h10.234zM234.8825,179.53333c-0.5289,0 -1.0381,-0.1013 -1.5215,-0.3049l0.5433,-1.2902c0.3082,0.1297 0.6323,0.1951 0.9782,0.1951zM233.3548,179.22583c-0.465,-0.2011 -0.8775,-0.4798 -1.2328,-0.835l0.99,-0.99c0.2281,0.2281 0.4926,0.4077 0.7985,0.54zM232.122,178.39083c-0.3552,-0.3553 -0.6339,-0.7678 -0.835,-1.2328l1.285,-0.5557c0.1323,0.3059 0.3119,0.5704 0.54,0.7985zM231.2844,177.15183c-0.2036,-0.4834 -0.3049,-0.9926 -0.3049,-1.5216h1.4c0,0.346 0.0654,0.6701 0.1951,0.9783zM230.9795,175.63023v-16.00002h1.4v16.00002zM235.5825,169.23953v6.3907h-1.3999v-6.3907zM234.8825,174.93023h10.234v1.4h-10.234zM244.4175,175.63023v-6.3907h1.399v6.3907zM245.1165,169.93953h-10.234v-1.3999h10.234z"/></g></g></svg>