<svg version="1.1" xmlns="http://www.w3.org/2000/svg" xmlns:xlink="http://www.w3.org/1999/xlink" width="5.9834" height="7.50195" viewBox="0,0,5.9834,7.50195"><g transform="translate(-237.0083,-172.74805)"><g data-paper-data="{&quot;isPaintingLayer&quot;:true}" fill="#ffffff" fill-rule="nonzero" stroke="#ffffff" stroke-width="0.5" stroke-linecap="butt" stroke-linejoin="miter" stroke-miterlimit="10" stroke-dasharray="" stroke-dashoffset="0" style="mix-blend-mode: normal"><path d="M237.2583,177.88086h0.98144v0.37109c0,0.26367 0.0586,0.45736 0.17578,0.58106c0.11719,0.1237 0.30925,0.18554 0.57618,0.18554h2.0166c0.26692,0 0.45898,-0.06184 0.57617,-0.18554c0.11719,-0.1237 0.17578,-0.31739 0.17578,-0.58106v-0.54199c0,-0.26693 -0.05859,-0.46061 -0.17578,-0.58105c-0.11719,-0.12045 -0.30925,-0.18067 -0.57617,-0.18067h-2.07032v-0.97656h2.04102c0.24414,-0.00977 0.41829,-0.07487 0.52246,-0.19531c0.10742,-0.1237 0.16113,-0.3125 0.16113,-0.56641v-0.45898c0,-0.26693 -0.06022,-0.46224 -0.18066,-0.58594c-0.11719,-0.1237 -0.30762,-0.18555 -0.57129,-0.18555h-1.82129c-0.26367,0 -0.4541,0.06185 -0.57129,0.18555c-0.11719,0.1237 -0.17578,0.31901 -0.17578,0.58594v0.37109h-0.98144v-0.41992c0,-1.13607 0.5664,-1.7041 1.69921,-1.7041h1.87989c0.57617,0 1.0026,0.13997 1.27929,0.41992c0.27995,0.27995 0.41993,0.70801 0.41993,1.28418v0.12695c0,0.39388 -0.06999,0.7194 -0.20996,0.97656c-0.13672,0.25391 -0.33692,0.44271 -0.60059,0.56641c0.29622,0.08789 0.52246,0.26367 0.67871,0.52734c0.15625,0.26368 0.23438,0.61361 0.23438,1.04981v0.35156c0,1.13281 -0.56641,1.69922 -1.69922,1.69922h-2.08008c-1.13607,0 -1.7041,-0.56641 -1.7041,-1.69922z"/></g></g></svg>