<svg version="1.1" xmlns="http://www.w3.org/2000/svg" xmlns:xlink="http://www.w3.org/1999/xlink" width="13.11961" height="17.58215" viewBox="0,0,13.11961,17.58215"><g transform="translate(-233.69021,-171.45894)"><g data-paper-data="{&quot;isPaintingLayer&quot;:true}" fill="#83a837" fill-rule="nonzero" stroke="#83a837" stroke-width="1" stroke-linecap="butt" stroke-linejoin="miter" stroke-miterlimit="10" stroke-dasharray="" stroke-dashoffset="0" style="mix-blend-mode: normal"><path d="M240.74994,171.95895c0.86162,0 1.6257,0.12193 2.29224,0.36578c0.66654,0.2276 1.24366,0.59338 1.73137,1.09735c0.50397,0.50397 0.91852,1.16238 1.24366,1.97523l-2.29224,1.09735c-0.2276,-0.69905 -0.59338,-1.25179 -1.09735,-1.65821c-0.48771,-0.40643 -1.1705,-0.60964 -2.04838,-0.60964c-0.63402,0 -1.19489,0.15444 -1.6826,0.46332c-0.48771,0.30888 -0.90226,0.74782 -1.24366,1.31682c-0.3414,0.55274 -0.60151,1.21115 -0.78034,1.97523c-0.17883,0.74782 -0.26824,1.56067 -0.26824,2.43855c0,0.04877 0,0.10567 0,0.1707c0,0.04877 0,0.13818 0,0.26824l0.09754,0.04877c0.17883,-0.65028 0.49584,-1.1705 0.95103,-1.56067c0.47145,-0.40643 0.99981,-0.70718 1.58506,-0.90226c0.58525,-0.19508 1.16238,-0.29263 1.73137,-0.29263c1.07296,0 2.00774,0.21134 2.80433,0.63402c0.79659,0.40643 1.41436,0.99168 1.8533,1.75576c0.4552,0.76408 0.68279,1.67447 0.68279,2.73118c0,1.07296 -0.23573,2.00774 -0.70718,2.80433c-0.47145,0.78034 -1.12986,1.38997 -1.97523,1.82891c-0.82911,0.42268 -1.82891,0.63402 -2.99942,0.63402c-1.36559,0 -2.52796,-0.3414 -3.48713,-1.02419c-0.95916,-0.68279 -1.69073,-1.64196 -2.1947,-2.87749c-0.50397,-1.23553 -0.75595,-2.68241 -0.75595,-4.34062c0,-1.83704 0.2845,-3.37333 0.85349,-4.60886c0.58525,-1.23553 1.37372,-2.16218 2.36539,-2.77995c0.99168,-0.63402 2.10528,-0.95103 3.34081,-0.95103zM240.57924,180.32318c-0.61777,0 -1.16238,0.13006 -1.63383,0.39017c-0.47145,0.24386 -0.84536,0.58525 -1.12173,1.02419c-0.26011,0.43894 -0.39017,0.95103 -0.39017,1.53629c0,0.569 0.13818,1.08109 0.41455,1.53629c0.29263,0.4552 0.67467,0.82098 1.14612,1.09735c0.47145,0.26011 0.99981,0.39017 1.58506,0.39017c0.99168,0 1.76389,-0.26824 2.31662,-0.80472c0.55274,-0.53648 0.82911,-1.27617 0.82911,-2.21908c0,-0.60151 -0.12193,-1.12173 -0.36578,-1.56067c-0.24386,-0.4552 -0.60151,-0.79659 -1.07296,-1.02419c-0.4552,-0.24386 -1.02419,-0.36578 -1.70699,-0.36578z"/></g></g></svg>