<svg version="1.1" xmlns="http://www.w3.org/2000/svg" xmlns:xlink="http://www.w3.org/1999/xlink" width="108.03327" height="18.25935" viewBox="0,0,108.03327,18.25935"><g transform="translate(-239.98672,-167.28385)"><g data-paper-data="{&quot;isPaintingLayer&quot;:true}" fill="#83a837" fill-rule="nonzero" stroke="none" stroke-width="1" stroke-linecap="butt" stroke-linejoin="miter" stroke-miterlimit="10" stroke-dasharray="" stroke-dashoffset="0" style="mix-blend-mode: normal"><path d="M249.14734,185.54319l-6.62287,-13.01056v13.01056h-2.53775v-17.75181h2.77294l6.75906,13.36956l6.77144,-13.36956h2.76057v17.75181h-2.52538v-13.01056l-6.62287,13.01056zM265.94595,172.35931v13.18388h-2.43871v-13.18388zM263.38343,167.28385h2.68628v2.53775h-2.68628zM281.80352,185.54319h-2.4385v-10.74517h-6.7962v10.74517h-2.42633v-13.18388h2.42633v2.32729c0.01652,-0.32185 0.09076,-0.62308 0.2228,-0.90365c0.13205,-0.28885 0.30537,-0.53646 0.51994,-0.74275c0.22285,-0.21461 0.47866,-0.37966 0.76751,-0.49518c0.28885,-0.1238 0.59833,-0.18571 0.92846,-0.18571h4.35749c0.33837,0 0.65621,0.06605 0.95326,0.19809c0.29705,0.12376 0.55268,0.29709 0.76734,0.5199c0.22311,0.21461 0.39635,0.47042 0.52015,0.76755c0.13183,0.29709 0.19775,0.6148 0.19775,0.95318zM285.86418,172.35931h2.42625v10.74517h6.7962v-10.74517h2.4385v13.18388h-2.4385v-2.22824c-0.02493,0.30533 -0.10733,0.59418 -0.24761,0.86651c-0.14028,0.27237 -0.32198,0.5117 -0.54466,0.71803c-0.21466,0.19805 -0.46226,0.35485 -0.74283,0.47038c-0.28057,0.11556 -0.57762,0.17333 -0.89114,0.17333h-4.36995c-0.33001,0 -0.64354,-0.0619 -0.94101,-0.18571c-0.29705,-0.13205 -0.55691,-0.30533 -0.7796,-0.5199c-0.21466,-0.22285 -0.3879,-0.4828 -0.52015,-0.77989c-0.1238,-0.29713 -0.1855,-0.61485 -0.1855,-0.95322zM300.81801,172.35931h3.21894v-4.06037h2.4385v4.06037h4.33277v2.43871h-4.33277v8.30645h4.33277v2.43871h-4.33277c-0.33001,0 -0.64354,-0.0619 -0.94058,-0.18571c-0.29747,-0.13205 -0.55734,-0.30533 -0.78002,-0.5199c-0.22268,-0.22285 -0.40015,-0.4828 -0.5324,-0.77989c-0.1238,-0.29713 -0.1855,-0.61485 -0.1855,-0.95322v-8.30645h-3.21894zM326.03459,180.19539h-8.72723v2.90909h8.72723v2.43871h-8.72723c-0.33001,0 -0.64396,-0.0619 -0.94101,-0.18571c-0.29705,-0.13205 -0.55691,-0.30533 -0.7796,-0.5199c-0.21466,-0.22285 -0.3879,-0.4828 -0.52015,-0.77989c-0.1238,-0.29713 -0.1855,-0.61485 -0.1855,-0.95322v-8.30645c0,-0.33837 0.06169,-0.65609 0.1855,-0.95318c0.13226,-0.29713 0.3055,-0.55294 0.52015,-0.76755c0.22268,-0.2228 0.48255,-0.39613 0.7796,-0.5199c0.29705,-0.13205 0.611,-0.19809 0.94101,-0.19809h6.28872c0.33804,0 0.65579,0.06605 0.95326,0.19809c0.29705,0.12376 0.55268,0.29709 0.76734,0.5199c0.22268,0.21461 0.39593,0.47042 0.51973,0.76755c0.13226,0.29709 0.19817,0.6148 0.19817,0.95318zM317.30737,174.79803v2.95865h6.28872v-2.95865zM338.06738,183.10448v-3.05766h-5.78125c-0.33846,0 -0.65621,-0.0619 -0.95326,-0.18571c-0.29705,-0.13205 -0.55691,-0.30533 -0.7796,-0.5199c-0.21466,-0.22285 -0.3879,-0.4828 -0.52015,-0.77989c-0.1238,-0.29713 -0.1855,-0.61485 -0.1855,-0.95322v-2.81008c0,-0.33837 0.06169,-0.65609 0.1855,-0.95318c0.13226,-0.29713 0.3055,-0.55294 0.52015,-0.76755c0.22268,-0.2228 0.48255,-0.39613 0.7796,-0.5199c0.29705,-0.13205 0.6148,-0.19809 0.95326,-0.19809h7.71227v2.43871h-7.71227v2.81008h5.78125c0.33846,0 0.65199,0.06605 0.94058,0.19809c0.29705,0.12376 0.55734,0.29709 0.78002,0.5199c0.22268,0.21457 0.39635,0.47042 0.51973,0.76751c0.13226,0.29713 0.19817,0.61485 0.19817,0.95322v3.05766c0,0.33837 -0.06592,0.65609 -0.19817,0.95322c-0.12338,0.29709 -0.29705,0.55704 -0.51973,0.77989c-0.22268,0.21457 -0.48297,0.38786 -0.78002,0.5199c-0.2886,0.1238 -0.60212,0.18571 -0.94058,0.18571h-8.21975v-2.43871zM344.31892,181.84179h3.70106v3.7014h-3.70106zM344.31892,172.35931h3.70106v3.7014h-3.70106z"/></g></g></svg>