<svg version="1.1" xmlns="http://www.w3.org/2000/svg" xmlns:xlink="http://www.w3.org/1999/xlink" width="376.05669" height="27.05583" viewBox="0,0,376.05669,27.05583"><g transform="translate(-242.67871,-166.47209)"><g data-paper-data="{&quot;isPaintingLayer&quot;:true}" fill="#83a837" fill-rule="nonzero" stroke="none" stroke-width="1" stroke-linecap="butt" stroke-linejoin="miter" stroke-miterlimit="10" stroke-dasharray="" stroke-dashoffset="0" style="mix-blend-mode: normal"><path d="M248.32106,187.6103l-5.64235,-19.7345h2.82118l4.37628,15.70227l4.3625,-15.70227h2.82115l4.36255,15.70227l4.37627,-15.70227h2.82115l-5.64235,19.7345h-3.09642l-4.22487,-14.79398l-4.23868,14.79398zM283.55141,184.8992c0,0.37617 -0.07337,0.72936 -0.22017,1.05968c-0.13763,0.33027 -0.33027,0.61926 -0.57801,0.867c-0.23853,0.23853 -0.52296,0.43117 -0.85323,0.57797c-0.32111,0.13763 -0.66975,0.20645 -1.04592,0.20645h-7.28c-0.36701,0 -0.7156,-0.06882 -1.04592,-0.20645c-0.33027,-0.14679 -0.61926,-0.33943 -0.867,-0.57797c-0.23853,-0.24774 -0.43117,-0.53672 -0.57797,-0.867c-0.13763,-0.33032 -0.20645,-0.68352 -0.20645,-1.05968v-9.2342c0,-0.37617 0.06882,-0.72936 0.20645,-1.05963c0.14679,-0.33032 0.33943,-0.6147 0.57797,-0.85328c0.24774,-0.24769 0.53672,-0.44038 0.867,-0.57797c0.33032,-0.14679 0.67891,-0.22021 1.04592,-0.22021h7.28c0.37617,0 0.72481,0.07342 1.04592,0.22021c0.33027,0.13759 0.6147,0.33027 0.85323,0.57797c0.24774,0.23858 0.44038,0.52296 0.57801,0.85328c0.14679,0.33027 0.22017,0.68347 0.22017,1.05963zM273.57408,175.665v9.2342h7.28v-9.2342zM290.77654,175.665v11.9453h-2.69747v-14.65639h2.69747v2.58722c0.01832,-0.3578 0.10099,-0.69268 0.24755,-1.00458c0.14703,-0.32111 0.33962,-0.59638 0.57825,-0.82571c0.24755,-0.23858 0.53174,-0.42206 0.85304,-0.55049c0.3213,-0.13763 0.66515,-0.20645 1.03201,-0.20645h2.87621c0.37626,0 0.72481,0.07342 1.04611,0.22021c0.33023,0.13759 0.61911,0.33027 0.86667,0.57797c0.24802,0.23858 0.44061,0.52296 0.57825,0.85328c0.14656,0.33027 0.22031,0.68347 0.22031,1.05963v2.47716h-2.71133v-2.47716zM312.13459,187.6103l-6.99064,-6.26165v6.26165h-2.69771v-20.29874h2.69771v11.42233l6.42649,-5.77999h3.81192l-7.8714,7.0736l8.43602,7.58279zM330.58966,184.8992c0,0.37617 -0.07375,0.72936 -0.22031,1.05968c-0.13763,0.33027 -0.33023,0.61926 -0.57825,0.867c-0.23816,0.23853 -0.52282,0.43117 -0.85304,0.57797c-0.3213,0.13763 -0.66985,0.20645 -1.04611,0.20645h-7.28c-0.36687,0 -0.71541,-0.06882 -1.04564,-0.20645c-0.33023,-0.14679 -0.61958,-0.33943 -0.86714,-0.57797c-0.23863,-0.24774 -0.43122,-0.53672 -0.57778,-0.867c-0.13763,-0.33032 -0.20668,-0.68352 -0.20668,-1.05968v-9.2342c0,-0.37617 0.06905,-0.72936 0.20668,-1.05963c0.14656,-0.33032 0.33915,-0.6147 0.57778,-0.85328c0.24755,-0.24769 0.53691,-0.44038 0.86714,-0.57797c0.33023,-0.14679 0.67877,-0.22021 1.04564,-0.22021h7.28c0.37626,0 0.72481,0.07342 1.04611,0.22021c0.33023,0.13759 0.61489,0.33027 0.85304,0.57797c0.24802,0.23858 0.44061,0.52296 0.57825,0.85328c0.14656,0.33027 0.22031,0.68347 0.22031,1.05963zM320.61195,175.665v9.2342h7.28v-9.2342zM335.11699,172.95391h2.69724v11.9453h7.55527v-11.9453h2.71133v14.65639h-2.71133v-2.47712c-0.02724,0.33943 -0.11931,0.66055 -0.27527,0.96329c-0.15595,0.30279 -0.35747,0.56885 -0.60549,0.79823c-0.23816,0.22017 -0.51342,0.39449 -0.82533,0.52291c-0.31191,0.12847 -0.6426,0.19269 -0.99115,0.19269h-4.85803c-0.36687,0 -0.71541,-0.06882 -1.04564,-0.20645c-0.33023,-0.14679 -0.61958,-0.33943 -0.86714,-0.57797c-0.23863,-0.24774 -0.43122,-0.53672 -0.57778,-0.867c-0.13763,-0.33032 -0.20668,-0.68352 -0.20668,-1.05968zM351.74149,172.95391h3.57799v-4.51388h2.71133v4.51388h4.81622v2.71109h-4.81622v9.2342h4.81622v2.71109h-4.81622c-0.36734,0 -0.71588,-0.06882 -1.04611,-0.20645c-0.33023,-0.14679 -0.61911,-0.33943 -0.86714,-0.57797c-0.24755,-0.24774 -0.44484,-0.53672 -0.59187,-0.867c-0.13716,-0.33032 -0.20621,-0.68352 -0.20621,-1.05968v-9.2342h-3.57799zM378.921,167.87579v16.9133h10.14258v2.8212h-12.96383v-19.7345zM404.57339,181.6652h-9.70244v3.23401h9.70244v2.71109h-9.70244c-0.36687,0 -0.71541,-0.06882 -1.04564,-0.20645c-0.33023,-0.14679 -0.61958,-0.33943 -0.86714,-0.57797c-0.23863,-0.24774 -0.43122,-0.53672 -0.57778,-0.867c-0.13763,-0.33032 -0.20668,-0.68352 -0.20668,-1.05968v-9.2342c0,-0.37617 0.06905,-0.72936 0.20668,-1.05963c0.14656,-0.33032 0.33915,-0.6147 0.57778,-0.85328c0.24755,-0.24769 0.53691,-0.44038 0.86714,-0.57797c0.33023,-0.14679 0.67877,-0.22021 1.04564,-0.22021h6.99111c0.37626,0 0.7295,0.07342 1.05973,0.22021c0.33023,0.13759 0.61489,0.33027 0.85304,0.57797c0.24802,0.23858 0.44061,0.52296 0.57825,0.85328c0.14656,0.33027 0.22031,0.68347 0.22031,1.05963zM394.87095,175.665v3.28911h6.99111v-3.28911zM422.06456,187.6103h-2.71133v-11.9453h-7.55527v11.9453h-2.69724v-14.65639h2.69724v2.58722c0.01832,-0.3578 0.10099,-0.69268 0.24802,-1.00458c0.14656,-0.32111 0.33915,-0.59638 0.57778,-0.82571c0.24802,-0.23858 0.53221,-0.42206 0.85351,-0.55049c0.32083,-0.13763 0.66515,-0.20645 1.03201,-0.20645h4.84394c0.37626,0 0.7295,0.07342 1.05973,0.22021c0.33023,0.13759 0.61489,0.33027 0.85351,0.57797c0.24755,0.23858 0.44014,0.52296 0.57778,0.85328c0.14703,0.33027 0.22031,0.68347 0.22031,1.05963zM426.57827,175.665c0,-0.37617 0.06905,-0.72936 0.20668,-1.05963c0.14656,-0.33032 0.33915,-0.6147 0.57778,-0.85328c0.24802,-0.24769 0.53691,-0.44038 0.86714,-0.57797c0.33023,-0.14679 0.67877,-0.22021 1.04564,-0.22021h4.85803c0.35794,0 0.69756,0.06882 1.01839,0.20645c0.3213,0.12843 0.60079,0.31191 0.83942,0.55049c0.24802,0.22933 0.44531,0.50459 0.59187,0.82571c0.15595,0.31191 0.23863,0.64678 0.24755,1.00458v-2.58722h2.71133v17.86291c0,0.37617 -0.07328,0.72936 -0.22031,1.05963c-0.13763,0.33032 -0.33023,0.6147 -0.57778,0.85323c-0.23863,0.24774 -0.52329,0.44038 -0.85351,0.57801c-0.33023,0.14679 -0.68347,0.22021 -1.05973,0.22021h-8.55957v-2.71109h8.55957v-3.77077h-7.55527c-0.36687,0 -0.71541,-0.06882 -1.04564,-0.2064c-0.33023,-0.14679 -0.61911,-0.33948 -0.86714,-0.57801c-0.23863,-0.24769 -0.43122,-0.53672 -0.57778,-0.867c-0.13763,-0.33027 -0.20668,-0.68352 -0.20668,-1.05968zM436.83077,184.33495v-8.66995h-7.55527v8.66995zM443.20277,172.95391h3.57799v-4.51388h2.71133v4.51388h4.81622v2.71109h-4.81622v9.2342h4.81622v2.71109h-4.81622c-0.36734,0 -0.71588,-0.06882 -1.04611,-0.20645c-0.33023,-0.14679 -0.61911,-0.33943 -0.86714,-0.57797c-0.24755,-0.24774 -0.44484,-0.53672 -0.5914,-0.867c-0.13763,-0.33032 -0.20668,-0.68352 -0.20668,-1.05968v-9.2342h-3.57799zM471.79994,187.6103h-2.71133v-11.9453h-7.55527v11.9453h-2.69724v-20.29874h2.69724v8.22957c0.01832,-0.3578 0.10099,-0.69268 0.24802,-1.00458c0.14656,-0.32111 0.33915,-0.59638 0.57778,-0.82571c0.24755,-0.23858 0.53221,-0.42206 0.85351,-0.55049c0.32083,-0.13763 0.66515,-0.20645 1.03201,-0.20645h4.84394c0.37626,0 0.7295,0.07342 1.05973,0.22021c0.33023,0.13759 0.61489,0.33027 0.85351,0.57797c0.24755,0.23858 0.44014,0.52296 0.57778,0.85328c0.14703,0.33027 0.22031,0.68347 0.22031,1.05963zM491.78213,190.85811v2.6698h-0.39928c-1.04564,0 -1.99545,-0.16516 -2.84849,-0.49543c-0.85351,-0.32111 -1.58255,-0.78446 -2.18804,-1.38995c-0.59657,-0.59633 -1.05973,-1.32114 -1.38995,-2.17437c-0.3213,-0.85323 -0.48195,-1.80281 -0.48195,-2.84873v-13.23891c0,-1.04587 0.16065,-1.99545 0.48195,-2.84868c0.33023,-0.85323 0.79339,-1.57804 1.38995,-2.17438c0.60549,-0.60552 1.33453,-1.06884 2.18804,-1.38995c0.85304,-0.33029 1.80285,-0.49543 2.84849,-0.49543h0.39928v2.68357h-0.39928c-0.64213,0 -1.21568,0.09174 -1.72018,0.27522c-0.5045,0.18353 -0.93102,0.45414 -1.27957,0.81194c-0.34902,0.34864 -0.61958,0.77526 -0.81218,1.2799c-0.18367,0.50459 -0.27527,1.078 -0.27527,1.72023v13.52789c0,1.30277 0.35324,2.3074 1.05973,3.01384c0.71541,0.7156 1.72488,1.07345 3.02746,1.07345zM506.2045,187.6103l-7.36267,-14.4637v14.4637h-2.82125v-19.7345h3.08289l7.51393,14.8628l7.52755,-14.8628h3.0688v19.7345h-2.80715v-14.4637l-7.36267,14.4637zM524.8794,172.95391v14.65639h-2.71133v-14.65639zM522.03044,167.31156h2.98659v2.82119h-2.98659zM542.5082,187.6103h-2.71086v-11.9453h-7.55527v11.9453h-2.69771v-14.65639h2.69771v2.58722c0.01832,-0.3578 0.10099,-0.69268 0.24755,-1.00458c0.14656,-0.32111 0.33962,-0.59638 0.57778,-0.82571c0.24802,-0.23858 0.53221,-0.42206 0.85351,-0.55049c0.32083,-0.13763 0.66515,-0.20645 1.03201,-0.20645h4.84441c0.37579,0 0.72903,0.07342 1.05926,0.22021c0.3307,0.13759 0.61489,0.33027 0.85351,0.57797c0.24755,0.23858 0.44014,0.52296 0.57778,0.85328c0.14703,0.33027 0.22031,0.68347 0.22031,1.05963zM547.02238,172.95391h2.69724v11.9453h7.55527v-11.9453h2.71086v14.65639h-2.71086v-2.47712c-0.02771,0.33943 -0.11931,0.66055 -0.27527,0.96329c-0.15595,0.30279 -0.35794,0.56885 -0.60549,0.79823c-0.23863,0.22017 -0.51389,0.39449 -0.8258,0.52291c-0.31191,0.12847 -0.64213,0.19269 -0.99115,0.19269h-4.85756c-0.36734,0 -0.71588,-0.06882 -1.04611,-0.20645c-0.33023,-0.14679 -0.61911,-0.33943 -0.86714,-0.57797c-0.23816,-0.24774 -0.43122,-0.53672 -0.57778,-0.867c-0.13763,-0.33032 -0.20621,-0.68352 -0.20621,-1.05968zM563.64641,172.95391h3.57799v-4.51388h2.71133v4.51388h4.81669v2.71109h-4.81669v9.2342h4.81669v2.71109h-4.81669c-0.36687,0 -0.71588,-0.06882 -1.04611,-0.20645c-0.33023,-0.14679 -0.61911,-0.33943 -0.86667,-0.57797c-0.24802,-0.24774 -0.44531,-0.53672 -0.59187,-0.867c-0.13763,-0.33032 -0.20668,-0.68352 -0.20668,-1.05968v-9.2342h-3.57799zM591.67943,181.6652h-9.70197v3.23401h9.70197v2.71109h-9.70197c-0.36734,0 -0.71588,-0.06882 -1.04611,-0.20645c-0.33023,-0.14679 -0.61911,-0.33943 -0.86714,-0.57797c-0.23863,-0.24774 -0.43122,-0.53672 -0.57778,-0.867c-0.13763,-0.33032 -0.20668,-0.68352 -0.20668,-1.05968v-9.2342c0,-0.37617 0.06905,-0.72936 0.20668,-1.05963c0.14656,-0.33032 0.33915,-0.6147 0.57778,-0.85328c0.24802,-0.24769 0.53691,-0.44038 0.86714,-0.57797c0.33023,-0.14679 0.67877,-0.22021 1.04611,-0.22021h6.99064c0.37626,0 0.7295,0.07342 1.05973,0.22021c0.33023,0.13759 0.61489,0.33027 0.85351,0.57797c0.24755,0.23858 0.44014,0.52296 0.57778,0.85328c0.14703,0.33027 0.22031,0.68347 0.22031,1.05963zM581.97746,175.665v3.28911h6.99064v-3.28911zM605.05569,184.8992v-3.39917h-6.42649c-0.37626,0 -0.7295,-0.06882 -1.05973,-0.20645c-0.33023,-0.14679 -0.61911,-0.33943 -0.86714,-0.57797c-0.23863,-0.24774 -0.43122,-0.53672 -0.57778,-0.867c-0.13763,-0.33032 -0.20668,-0.68352 -0.20668,-1.05968v-3.12395c0,-0.37617 0.06905,-0.72936 0.20668,-1.05963c0.14656,-0.33032 0.33915,-0.6147 0.57778,-0.85328c0.24802,-0.24769 0.53691,-0.44038 0.86714,-0.57797c0.33023,-0.14679 0.68347,-0.22021 1.05973,-0.22021h8.57366v2.71109h-8.57366v3.12395h6.42649c0.37626,0 0.72481,0.07342 1.04611,0.22021c0.33023,0.13759 0.61911,0.33027 0.86714,0.57797c0.24755,0.23853 0.44014,0.52296 0.57778,0.85323c0.14703,0.33032 0.22031,0.68352 0.22031,1.05968v3.39917c0,0.37617 -0.07328,0.72936 -0.22031,1.05968c-0.13763,0.33027 -0.33023,0.61926 -0.57778,0.867c-0.24802,0.23853 -0.53691,0.43117 -0.86714,0.57797c-0.3213,0.13763 -0.66985,0.20645 -1.04611,0.20645h-9.13781v-2.71109zM611.84059,190.85811c1.30258,0 2.30735,-0.35785 3.01384,-1.07345c0.71541,-0.70644 1.07335,-1.71107 1.07335,-3.01384v-13.52789c0,-0.64223 -0.0916,-1.21563 -0.27527,-1.72023c-0.18367,-0.50464 -0.45424,-0.93126 -0.81218,-1.2799c-0.34855,-0.3578 -0.77507,-0.62842 -1.27957,-0.81194c-0.5045,-0.18348 -1.07805,-0.27522 -1.72018,-0.27522h-0.39928v-2.68357h0.39928c1.04564,0 1.99545,0.16514 2.84849,0.49543c0.85351,0.32111 1.57832,0.78442 2.17442,1.38995c0.59657,0.59635 1.05503,1.32115 1.37633,2.17438c0.33023,0.85323 0.49557,1.80281 0.49557,2.84868v13.23891c0,1.04592 -0.16535,1.99549 -0.49557,2.84873c-0.3213,0.85323 -0.77977,1.57804 -1.37633,2.17437c-0.5961,0.60549 -1.3209,1.06884 -2.17442,1.38995c-0.85304,0.33027 -1.80285,0.49543 -2.84849,0.49543h-0.39928v-2.6698z"/></g></g></svg>