<svg version="1.1" xmlns="http://www.w3.org/2000/svg" xmlns:xlink="http://www.w3.org/1999/xlink" width="439.12946" height="110.40216" viewBox="0,0,439.12946,110.40216"><g transform="translate(-25.13622,-31.79785)"><g stroke-miterlimit="10"><path d="M176.2305,32.2793v16.83898h-2.4073v-16.83898zM191.39024,49.11827h-2.31327v-10.19262h-6.44681v10.19262h-2.30149v-12.50594h2.30149v2.20762c0.01587,-0.3053 0.0861,-0.59103 0.21139,-0.8572c0.1253,-0.27399 0.28979,-0.50885 0.49324,-0.70456c0.21139,-0.20355 0.45404,-0.36011 0.72796,-0.4697c0.27416,-0.11743 0.56756,-0.17616 0.88091,-0.17616h4.1333c0.32105,0 0.62239,0.06265 0.90424,0.18789c0.28185,0.11743 0.52451,0.28183 0.72796,0.4932c0.21139,0.20353 0.37589,0.4462 0.49324,0.72803c0.1253,0.28183 0.18782,0.58324 0.18782,0.90419zM199.88025,34.11117v2.50116h4.10997v2.31332h-4.10997v10.19262h-2.31327v-10.19262h-3.05326v-2.31332h3.05326v-2.50116c0,-0.32098 0.05868,-0.61847 0.17604,-0.89246c0.1253,-0.28183 0.29364,-0.5284 0.50503,-0.73979c0.21139,-0.21135 0.45789,-0.37575 0.73975,-0.49318c0.28185,-0.12526 0.57934,-0.18788 0.89246,-0.18788h4.10997v2.31332zM217.94054,46.80498c0,0.32096 -0.06277,0.62236 -0.18806,0.90417c-0.11736,0.28183 -0.28185,0.52843 -0.493,0.73979c-0.20369,0.20355 -0.44635,0.36793 -0.7282,0.4932c-0.27392,0.11743 -0.5714,0.17613 -0.89246,0.17613h-6.21185c-0.31312,0 -0.6106,-0.0587 -0.89246,-0.17613c-0.28185,-0.12527 -0.52836,-0.28965 -0.73975,-0.4932c-0.20345,-0.21137 -0.36795,-0.45796 -0.49324,-0.73979c-0.11736,-0.28181 -0.17604,-0.58321 -0.17604,-0.90417v-7.87933c0,-0.32096 0.05868,-0.62236 0.17604,-0.90419c0.1253,-0.28183 0.28979,-0.52451 0.49324,-0.72803c0.21139,-0.21137 0.45789,-0.37577 0.73975,-0.4932c0.28185,-0.12525 0.57934,-0.18789 0.89246,-0.18789h6.21185c0.32105,0 0.61854,0.06265 0.89246,0.18789c0.28185,0.11743 0.52451,0.28183 0.7282,0.4932c0.21115,0.20353 0.37564,0.4462 0.493,0.72803c0.1253,0.28183 0.18806,0.58324 0.18806,0.90419zM209.42696,38.92565v7.87933h6.21185v-7.87933zM224.10525,38.92565v10.19262h-2.30149v-12.50594h2.30149v2.20762c0.01563,-0.3053 0.0861,-0.59103 0.21139,-0.8572c0.1253,-0.27399 0.28979,-0.50885 0.49324,-0.70456c0.21139,-0.20355 0.45404,-0.36011 0.72796,-0.4697c0.27416,-0.11743 0.56756,-0.17616 0.88067,-0.17616h2.45444c0.32081,0 0.6183,0.06265 0.89222,0.18789c0.28185,0.11743 0.5286,0.28183 0.73999,0.4932c0.21139,0.20353 0.37564,0.4462 0.493,0.72803c0.1253,0.28183 0.18806,0.58324 0.18806,0.90419v2.11366h-2.31327v-2.11366zM243.97282,38.92565v10.19262h-2.31111v-10.19262h-5.29702v10.19262h-2.30149v-12.50594h2.30149v2.20762c0.01563,-0.3053 0.0861,-0.59103 0.21139,-0.8572c0.1253,-0.27399 0.28955,-0.50885 0.49324,-0.70456c0.21067,-0.20355 0.45356,-0.36011 0.72772,-0.4697c0.27416,-0.11743 0.56756,-0.17616 0.88019,-0.17616h2.98448c0.30302,0 0.59401,0.05873 0.86817,0.17616c0.27416,0.10959 0.51705,0.26615 0.72868,0.4697c0.20923,0.19571 0.37757,0.43057 0.50503,0.70456c0.13227,0.26617 0.20201,0.5519 0.20923,0.8572c0.01683,-0.3053 0.08417,-0.59103 0.19961,-0.8572c0.12746,-0.27399 0.29099,-0.50885 0.49541,-0.70456c0.20923,-0.20355 0.45212,-0.36011 0.72628,-0.4697c0.27416,-0.11743 0.56756,-0.17616 0.88019,-0.17616h2.98448c0.31985,0 0.62287,0.06265 0.90424,0.18789c0.28137,0.11743 0.52427,0.28183 0.72628,0.4932c0.21163,0.20353 0.37757,0.4462 0.49541,0.72803c0.12505,0.28183 0.18758,0.58324 0.18758,0.90419v10.19262h-2.31351v-10.19262zM255.43455,43.65793c0,-0.32096 0.05772,-0.61844 0.17556,-0.89243c0.12505,-0.28183 0.29099,-0.52843 0.493,-0.73979c0.21163,-0.21137 0.45934,-0.37577 0.74071,-0.4932c0.28137,-0.12525 0.57958,-0.18787 0.89222,-0.18787h5.96655v-2.41899h-7.55137v-2.31332h7.55137c0.31985,0 0.62046,0.06265 0.90424,0.18789c0.28137,0.11743 0.52427,0.28183 0.72628,0.4932c0.21163,0.20353 0.37757,0.4462 0.493,0.72803c0.12505,0.28183 0.18758,0.58324 0.18758,0.90419v10.19262h-2.31111v-2.11369c-0.02405,0.28967 -0.10341,0.56366 -0.23568,0.82199c-0.13227,0.25833 -0.30542,0.48536 -0.51705,0.68107c-0.20442,0.18789 -0.43769,0.33664 -0.70463,0.44623c-0.26694,0.10959 -0.54832,0.1644 -0.84412,0.1644h-3.66506c-0.31264,0 -0.61084,-0.0587 -0.89222,-0.17613c-0.28137,-0.12527 -0.52908,-0.28965 -0.74071,-0.4932c-0.20201,-0.21137 -0.36795,-0.45796 -0.493,-0.73979c-0.11784,-0.28181 -0.17556,-0.58321 -0.17556,-0.90417zM257.73604,46.80498h5.96655v-3.14705h-5.96655zM269.14968,36.61233h3.05422v-3.85159h2.31351v3.85159h4.10997v2.31332h-4.10997v7.87933h4.10997v2.31329h-4.10997c-0.31504,0 -0.61084,-0.0587 -0.89222,-0.17613c-0.28378,-0.12527 -0.52908,-0.28965 -0.74071,-0.4932c-0.21163,-0.21137 -0.37997,-0.45796 -0.50503,-0.73979c-0.11784,-0.28181 -0.17556,-0.58321 -0.17556,-0.90417v-7.87933h-3.05422zM284.92099,36.61233v12.50594h-2.31351v-12.50594zM282.48964,31.79785h2.54919v2.40725h-2.54919zM299.71591,46.80498c0,0.32096 -0.06253,0.62236 -0.18758,0.90417c-0.11784,0.28183 -0.28137,0.52843 -0.493,0.73979c-0.20442,0.20355 -0.44731,0.36793 -0.72868,0.4932c-0.27416,0.11743 -0.56996,0.17613 -0.89222,0.17613h-6.21185c-0.31264,0 -0.61084,-0.0587 -0.89222,-0.17613c-0.28137,-0.12527 -0.52908,-0.28965 -0.74071,-0.4932c-0.20201,-0.21137 -0.36795,-0.45796 -0.493,-0.73979c-0.11544,-0.28181 -0.17556,-0.58321 -0.17556,-0.90417v-7.87933c0,-0.32096 0.06012,-0.62236 0.17556,-0.90419c0.12505,-0.28183 0.29099,-0.52451 0.493,-0.72803c0.21163,-0.21137 0.45934,-0.37577 0.74071,-0.4932c0.28137,-0.12525 0.57958,-0.18789 0.89222,-0.18789h6.21185c0.32226,0 0.61806,0.06265 0.89222,0.18789c0.28137,0.11743 0.52427,0.28183 0.72868,0.4932c0.21163,0.20353 0.37516,0.4462 0.493,0.72803c0.12505,0.28183 0.18758,0.58324 0.18758,0.90419zM291.20257,38.92565v7.87933h6.21185v-7.87933zM314.64069,49.11827h-2.31351v-10.19262h-6.44512v10.19262h-2.30149v-12.50594h2.30149v2.20762c0.01443,-0.3053 0.08417,-0.59103 0.21163,-0.8572c0.12505,-0.27399 0.28859,-0.50885 0.493,-0.70456c0.21163,-0.20355 0.45212,-0.36011 0.72628,-0.4697c0.27416,-0.11743 0.56756,-0.17616 0.8826,-0.17616h4.13161c0.32226,0 0.62287,0.06265 0.90424,0.18789c0.28137,0.11743 0.52427,0.28183 0.72868,0.4932c0.21163,0.20353 0.37516,0.4462 0.493,0.72803c0.12505,0.28183 0.18758,0.58324 0.18758,0.90419z" fill="#ce8b4e" stroke="none" stroke-width="1" stroke-linecap="butt"/><path d="M148.18945,127.65038c0,-1.39316 0.22919,-2.66294 0.6878,-3.80936c0.45837,-1.16397 1.10216,-2.16032 1.93113,-2.98929c0.84652,-0.84652 1.81642,-1.49897 2.90992,-1.95759c1.11106,-0.45861 2.31904,-0.6878 3.62418,-0.6878c1.90468,0 3.57127,0.44082 4.99978,1.32269c1.44606,0.88188 2.53957,2.13386 3.28028,3.75645l-1.7195,0.63489c-0.40571,-0.86408 -0.94368,-1.56968 -1.61369,-2.11631c-0.67024,-0.56443 -1.42851,-0.98769 -2.27503,-1.26979c-0.84652,-0.28209 -1.7373,-0.42326 -2.67184,-0.42326c-1.32269,0 -2.51312,0.29989 -3.57127,0.89943c-1.05815,0.59954 -1.89602,1.46386 -2.51312,2.59248c-0.59978,1.12862 -0.89943,2.47776 -0.89943,4.04744c0,1.55188 0.29965,2.89237 0.89943,4.02099c0.6171,1.12862 1.45496,2.0016 2.51312,2.61893c1.05815,0.59954 2.24858,0.89943 3.57127,0.89943c0.95234,0 1.86043,-0.14983 2.72475,-0.44972c0.86408,-0.29989 1.64014,-0.76716 2.32794,-1.40205c0.70536,-0.63489 1.26979,-1.42851 1.69305,-2.38085l1.7195,0.63489c-0.7585,1.81642 -1.86957,3.19202 -3.33319,4.1268c-1.46386,0.91699 -3.17446,1.3756 -5.13205,1.3756c-1.30514,0 -2.51312,-0.22919 -3.62418,-0.6878c-1.09351,-0.45861 -2.0634,-1.11106 -2.90992,-1.95759c-0.82897,-0.84652 -1.47276,-1.84287 -1.93113,-2.98929c-0.45861,-1.16397 -0.6878,-2.43376 -0.6878,-3.80936zM175.03074,137.09441c-1.25223,0 -2.37195,-0.27344 -3.35964,-0.82007c-0.98769,-0.54663 -1.76351,-1.32269 -2.32794,-2.32794c-0.56443,-1.0228 -0.84652,-2.23102 -0.84652,-3.62418c0,-1.41095 0.28209,-2.62783 0.84652,-3.65063c0.58198,-1.0228 1.3667,-1.80776 2.35439,-2.35439c1.00525,-0.54663 2.13386,-0.82007 3.38609,-0.82007c1.25223,0 2.37195,0.27344 3.35964,0.82007c1.00525,0.54663 1.78996,1.33159 2.35439,2.35439c0.58198,1.00525 0.87298,2.20457 0.87298,3.59772c0,1.41095 -0.29099,2.62783 -0.87298,3.65063c-0.58198,1.0228 -1.3756,1.80776 -2.38085,2.35439c-1.00525,0.54663 -2.13386,0.82007 -3.38609,0.82007zM175.00428,135.21618c0.77606,0 1.50787,-0.16762 2.19567,-0.50262c0.6878,-0.3528 1.24333,-0.89053 1.66659,-1.61369c0.44082,-0.74071 0.66135,-1.67549 0.66135,-2.80411c0,-1.14641 -0.21163,-2.08096 -0.63489,-2.80411c-0.42326,-0.72315 -0.97879,-1.25223 -1.66659,-1.58723c-0.67024,-0.3528 -1.39316,-0.52908 -2.16922,-0.52908c-0.77606,0 -1.49897,0.17628 -2.16922,0.52908c-0.67024,0.335 -1.21688,0.87298 -1.64014,1.61369c-0.40571,0.72315 -0.60844,1.64904 -0.60844,2.77766c0,1.14641 0.20273,2.08096 0.60844,2.80411c0.40571,0.72315 0.93478,1.26089 1.58723,1.61369c0.67024,0.335 1.39316,0.50262 2.16922,0.50262zM184.92039,123.6823h1.82532l0.13227,1.90468c0.38791,-0.63489 0.90833,-1.13752 1.56078,-1.50787c0.67024,-0.38791 1.46386,-0.58198 2.38085,-0.58198c0.93478,0 1.78131,0.22919 2.53957,0.6878c0.77606,0.44082 1.3756,1.10216 1.79886,1.98404c0.40571,-0.89943 1.0228,-1.56968 1.85177,-2.01049c0.82897,-0.44082 1.74595,-0.66135 2.7512,-0.66135c0.98769,0 1.86067,0.22053 2.61893,0.66135c0.75826,0.42326 1.34915,1.06705 1.77241,1.93113c0.42326,0.84652 0.63489,1.91358 0.63489,3.20092v7.61871h-1.98404v-7.38063c0,-1.3756 -0.29989,-2.4162 -0.89943,-3.12156c-0.58198,-0.72315 -1.41961,-1.08461 -2.51312,-1.08461c-1.11106,0 -1.99294,0.38791 -2.64539,1.16397c-0.65245,0.75826 -0.97879,1.88712 -0.97879,3.38609v7.03673h-1.98404v-7.38063c0,-1.3756 -0.28209,-2.4162 -0.84652,-3.12156c-0.56443,-0.72315 -1.39316,-1.08461 -2.48666,-1.08461c-1.11106,0 -1.98404,0.38791 -2.61893,1.16397c-0.61734,0.75826 -0.92589,1.88712 -0.92589,3.38609v7.03673h-1.98404zM209.0326,123.6823h1.95759v13.22693h-1.95759zM210.03785,121.03691c-0.40547,0 -0.74071,-0.13227 -1.00525,-0.39681c-0.26454,-0.26454 -0.39681,-0.59088 -0.39681,-0.97879c0,-0.40571 0.13227,-0.74071 0.39681,-1.00525c0.26454,-0.26454 0.59978,-0.39681 1.00525,-0.39681c0.37035,0 0.6878,0.13227 0.95234,0.39681c0.28233,0.26454 0.42326,0.59954 0.42326,1.00525c0,0.38791 -0.14093,0.71425 -0.42326,0.97879c-0.26454,0.26454 -0.58198,0.39681 -0.95234,0.39681zM215.45608,123.6823h1.82532l0.10582,1.87822c0.42326,-0.65245 0.97879,-1.15507 1.66659,-1.50787c0.6878,-0.37035 1.49007,-0.55553 2.4073,-0.55553c1.00525,0 1.88688,0.22053 2.64539,0.66135c0.75826,0.42326 1.34915,1.06705 1.77241,1.93113c0.42326,0.84652 0.63489,1.91358 0.63489,3.20092v7.61871h-1.98404v-7.38063c0,-1.3756 -0.29989,-2.4162 -0.89943,-3.12156c-0.58198,-0.72315 -1.42851,-1.08461 -2.53957,-1.08461c-1.14641,0 -2.04585,0.37925 -2.69829,1.13752c-0.63489,0.75826 -0.95234,1.87822 -0.95234,3.35964v7.08963h-1.98404zM240.52135,123.6823h1.82532v10.79317c0,1.62258 -0.36314,3.00684 -1.08461,4.15326c-0.72387,1.16397 -1.77241,2.04585 -3.14897,2.64539c-1.3756,0.61734 -3.05109,0.92589 -5.02623,0.92589l-0.31745,-1.82532c2.48666,-0.03535 4.37378,-0.55553 5.66209,-1.56078c1.28662,-0.98769 1.93113,-2.43376 1.93113,-4.33843v-0.29099l0.21163,0.05291c-0.40643,0.77606 -1.01487,1.44606 -1.82532,2.01049c-0.81213,0.54663 -1.86163,0.82897 -3.14897,0.84652c-1.21688,0 -2.28393,-0.27344 -3.20092,-0.82007c-0.89943,-0.56443 -1.60479,-1.35804 -2.11631,-2.38085c-0.49373,-1.0228 -0.74071,-2.22212 -0.74071,-3.59772c0,-1.3756 0.24698,-2.56602 0.74071,-3.57127c0.51152,-1.0228 1.21688,-1.81642 2.11631,-2.38085c0.91699,-0.56443 1.98404,-0.84652 3.20092,-0.84652c0.79362,0 1.49897,0.12337 2.11631,0.37035c0.61662,0.22919 1.14569,0.54663 1.58819,0.95234c0.4401,0.38791 0.80083,0.82897 1.08461,1.32269zM231.6848,130.29576c0,1.51677 0.38791,2.72475 1.16397,3.62418c0.79362,0.88188 1.86067,1.32269 3.20092,1.32269c0.81117,0 1.54322,-0.19408 2.19663,-0.58198c0.65173,-0.38791 1.16397,-0.95234 1.53432,-1.69305c0.38719,-0.74071 0.58198,-1.63124 0.58198,-2.67184c0,-1.0406 -0.1948,-1.92223 -0.58198,-2.64539c-0.37035,-0.74071 -0.8826,-1.30514 -1.53432,-1.69305c-0.65341,-0.40571 -1.38546,-0.60844 -2.19663,-0.60844c-1.32269,0 -2.38085,0.44972 -3.17446,1.34915c-0.79362,0.89943 -1.19042,2.09875 -1.19042,3.59772zM255.06376,132.20044c0.10582,0.47617 0.32466,0.95234 0.66135,1.42851c0.35111,0.45861 0.82728,0.84652 1.42851,1.16397c0.61565,0.29989 1.40205,0.44972 2.35439,0.44972c1.35636,0 2.36161,-0.31745 3.01574,-0.95234c0.65173,-0.63489 0.97879,-1.3845 0.97879,-2.24858c0,-0.6878 -0.18518,-1.25223 -0.55553,-1.69305c-0.37035,-0.44082 -0.87298,-0.80251 -1.50787,-1.08461c-0.63489,-0.29989 -1.34915,-0.56443 -2.14276,-0.79362c-0.70704,-0.19408 -1.41167,-0.40571 -2.11631,-0.63489c-0.6878,-0.24698 -1.31548,-0.54663 -1.87822,-0.89943c-0.56515,-0.37035 -1.01487,-0.84652 -1.34915,-1.42851c-0.33669,-0.58198 -0.50262,-1.30514 -0.50262,-2.16922c0,-1.0406 0.2453,-1.94003 0.74071,-2.69829c0.493,-0.77606 1.19042,-1.3756 2.08985,-1.79886c0.89943,-0.42326 1.94797,-0.63489 3.14801,-0.63489c1.03892,0 1.94797,0.14983 2.72475,0.44972c0.77438,0.29989 1.41889,0.72315 1.93113,1.26979c0.52908,0.52908 0.91627,1.14641 1.16397,1.85177l-1.87822,0.71425c-0.12505,-0.40571 -0.36314,-0.79362 -0.71425,-1.16397c-0.35352,-0.38791 -0.81285,-0.70536 -1.3756,-0.95234c-0.56515,-0.24698 -1.20966,-0.37035 -1.93113,-0.37035c-0.70704,0 -1.34915,0.12337 -1.93113,0.37035c-0.56515,0.24698 -1.01487,0.59954 -1.34915,1.05815c-0.33669,0.45861 -0.50262,1.01414 -0.50262,1.66659c0,0.70536 0.19239,1.26979 0.58198,1.69305c0.40402,0.40571 0.9331,0.74071 1.58723,1.00525c0.66856,0.24698 1.40205,0.48507 2.19567,0.71425c0.72147,0.22919 1.41889,0.47617 2.08985,0.74071c0.6878,0.26454 1.29624,0.59088 1.82532,0.97879c0.54591,0.38791 0.97879,0.87298 1.29624,1.45496c0.31745,0.58198 0.47617,1.29624 0.47617,2.14276c0,0.93478 -0.22125,1.80776 -0.66135,2.61893c-0.4425,0.79362 -1.11106,1.43741 -2.01049,1.93113c-0.8826,0.47617 -2.02011,0.71425 -3.41255,0.71425c-1.16397,0 -2.18846,-0.17628 -3.06865,-0.52908c-0.8826,-0.37035 -1.60647,-0.86408 -2.16922,-1.48142c-0.56515,-0.61734 -0.95234,-1.32269 -1.16397,-2.11631zM274.72379,137.09441c-1.25295,0 -2.37123,-0.27344 -3.35964,-0.82007c-0.98841,-0.54663 -1.76279,-1.32269 -2.32794,-2.32794c-0.56515,-1.0228 -0.84652,-2.23102 -0.84652,-3.62418c0,-1.41095 0.28137,-2.62783 0.84652,-3.65063c0.58198,-1.0228 1.36598,-1.80776 2.35439,-2.35439c1.00525,-0.54663 2.13314,-0.82007 3.38609,-0.82007c1.25295,0 2.37123,0.27344 3.35964,0.82007c1.00525,0.54663 1.78924,1.33159 2.35439,2.35439c0.58198,1.00525 0.87298,2.20457 0.87298,3.59772c0,1.41095 -0.29099,2.62783 -0.87298,3.65063c-0.58198,1.0228 -1.3756,1.80776 -2.38085,2.35439c-1.00525,0.54663 -2.13314,0.82007 -3.38609,0.82007zM274.69733,135.21618c0.77678,0 1.50787,-0.16762 2.19567,-0.50262c0.6878,-0.3528 1.24333,-0.89053 1.66659,-1.61369c0.4401,-0.74071 0.66135,-1.67549 0.66135,-2.80411c0,-1.14641 -0.21163,-2.08096 -0.63489,-2.80411c-0.42326,-0.72315 -0.97879,-1.25223 -1.66659,-1.58723c-0.67097,-0.3528 -1.39243,-0.52908 -2.16922,-0.52908c-0.77678,0 -1.49825,0.17628 -2.16922,0.52908c-0.67097,0.335 -1.21688,0.87298 -1.64014,1.61369c-0.40643,0.72315 -0.60844,1.64904 -0.60844,2.77766c0,1.14641 0.20201,2.08096 0.60844,2.80411c0.40643,0.72315 0.9355,1.26089 1.58723,1.61369c0.67097,0.335 1.39243,0.50262 2.16922,0.50262zM290.32676,137.09441c-1.25055,0 -2.37123,-0.27344 -3.35964,-0.82007c-0.98601,-0.54663 -1.76279,-1.32269 -2.32794,-2.32794c-0.56275,-1.0228 -0.84652,-2.23102 -0.84652,-3.62418c0,-1.41095 0.28378,-2.62783 0.84652,-3.65063c0.58198,-1.0228 1.36839,-1.80776 2.35439,-2.35439c1.00525,-0.54663 2.13555,-0.82007 3.38609,-0.82007c1.25295,0 2.37363,0.27344 3.35964,0.82007c1.00525,0.54663 1.79165,1.33159 2.35439,2.35439c0.58198,1.00525 0.87298,2.20457 0.87298,3.59772c0,1.41095 -0.29099,2.62783 -0.87298,3.65063c-0.58198,1.0228 -1.3756,1.80776 -2.38085,2.35439c-1.00525,0.54663 -2.13314,0.82007 -3.38609,0.82007zM290.3003,135.21618c0.77678,0 1.50787,-0.16762 2.19567,-0.50262c0.6878,-0.3528 1.24333,-0.89053 1.66659,-1.61369c0.4425,-0.74071 0.66135,-1.67549 0.66135,-2.80411c0,-1.14641 -0.21163,-2.08096 -0.63489,-2.80411c-0.42326,-0.72315 -0.97879,-1.25223 -1.66659,-1.58723c-0.66856,-0.3528 -1.39243,-0.52908 -2.16922,-0.52908c-0.77438,0 -1.49825,0.17628 -2.16922,0.52908c-0.66856,0.335 -1.21688,0.87298 -1.64014,1.61369c-0.40402,0.72315 -0.60844,1.64904 -0.60844,2.77766c0,1.14641 0.20442,2.08096 0.60844,2.80411c0.40643,0.72315 0.9355,1.26089 1.58723,1.61369c0.67097,0.335 1.39484,0.50262 2.16922,0.50262zM300.21569,123.6823h1.82532l0.10582,1.87822c0.42326,-0.65245 0.97879,-1.15507 1.66659,-1.50787c0.6878,-0.37035 1.49104,-0.55553 2.4073,-0.55553c1.00525,0 1.88784,0.22053 2.64539,0.66135c0.75995,0.42326 1.34915,1.06705 1.77241,1.93113c0.42326,0.84652 0.63489,1.91358 0.63489,3.20092v7.61871h-1.98404v-7.38063c0,-1.3756 -0.29821,-2.4162 -0.89943,-3.12156c-0.58198,-0.72315 -1.42851,-1.08461 -2.53957,-1.08461c-1.14473,0 -2.04416,0.37925 -2.69829,1.13752c-0.63489,0.75826 -0.95234,1.87822 -0.95234,3.35964v7.08963h-1.98404zM316.20825,137.0415c-0.40643,0 -0.75033,-0.14117 -1.0317,-0.42326c-0.26454,-0.28209 -0.39681,-0.62599 -0.39681,-1.0317c0,-0.40571 0.13227,-0.74961 0.39681,-1.0317c0.28137,-0.28209 0.62527,-0.42326 1.0317,-0.42326c0.38719,0 0.72147,0.14117 1.00525,0.42326c0.28137,0.28209 0.42326,0.62599 0.42326,1.0317c0,0.40571 -0.14189,0.74961 -0.42326,1.0317c-0.28378,0.28209 -0.61806,0.42326 -1.00525,0.42326zM322.43453,137.0415c-0.40643,0 -0.75033,-0.14117 -1.0317,-0.42326c-0.26454,-0.28209 -0.39681,-0.62599 -0.39681,-1.0317c0,-0.40571 0.13227,-0.74961 0.39681,-1.0317c0.28137,-0.28209 0.62527,-0.42326 1.0317,-0.42326c0.38719,0 0.72147,0.14117 1.00525,0.42326c0.28137,0.28209 0.42326,0.62599 0.42326,1.0317c0,0.40571 -0.14189,0.74961 -0.42326,1.0317c-0.28378,0.28209 -0.61806,0.42326 -1.00525,0.42326zM328.6584,137.0415c-0.40402,0 -0.74792,-0.14117 -1.0317,-0.42326c-0.26454,-0.28209 -0.39681,-0.62599 -0.39681,-1.0317c0,-0.40571 0.13227,-0.74961 0.39681,-1.0317c0.28378,-0.28209 0.62768,-0.42326 1.0317,-0.42326c0.38959,0 0.72387,0.14117 1.00525,0.42326c0.28378,0.28209 0.42326,0.62599 0.42326,1.0317c0,0.40571 -0.13948,0.74961 -0.42326,1.0317c-0.28137,0.28209 -0.61565,0.42326 -1.00525,0.42326z" fill="#cdbc80" stroke="none" stroke-width="1" stroke-linecap="butt"/><path d="M56.66921,62.57152v36.73298h-5.25135v-15.72803h-21.03042v15.72803h-5.25122v-36.73298h5.25122v15.7536h21.03042v-15.7536zM88.68879,88.23851h-18.05905v6.01968h18.05905v5.04631h-18.05905c-0.68309,0 -1.33207,-0.12809 -1.94674,-0.38428c-0.61489,-0.27323 -1.15283,-0.63172 -1.61383,-1.07589c-0.44395,-0.461 -0.80265,-0.99895 -1.07589,-1.61361c-0.25618,-0.61489 -0.38428,-1.2724 -0.38428,-1.97253v-17.18819c0,-0.70014 0.12809,-1.35765 0.38428,-1.97232c0.27323,-0.61489 0.63194,-1.14431 1.07589,-1.58826c0.461,-0.461 0.99895,-0.8197 1.61383,-1.07589c0.61467,-0.27323 1.26365,-0.40985 1.94674,-0.40985h13.01273c0.70014,0 1.35765,0.13662 1.97253,0.40985c0.61467,0.25618 1.14409,0.61489 1.58804,1.07589c0.46122,0.44395 0.8197,0.97337 1.07589,1.58826c0.27323,0.61467 0.40985,1.27218 0.40985,1.97232zM70.62974,77.07v6.1222h13.01273v-6.1222zM102.13717,61.52121v37.78329h-5.02074v-37.78329zM134.66911,94.25819c0,0.70014 -0.13662,1.35765 -0.40985,1.97253c-0.25618,0.61467 -0.61489,1.15261 -1.07589,1.61361c-0.44395,0.44417 -0.97337,0.80265 -1.58826,1.07589c-0.61467,0.25618 -1.27218,0.38428 -1.97232,0.38428h-14.06305v11.01484h-5.02074v-38.29566h5.02074v4.61089c0.05115,-0.64899 0.22208,-1.2466 0.51237,-1.79307c0.29028,-0.56352 0.65729,-1.05031 1.10146,-1.46016c0.44395,-0.4269 0.95632,-0.75981 1.53689,-0.99895c0.59762,-0.23913 1.22955,-0.3587 1.89559,-0.3587h9.01674c0.70014,0 1.35765,0.13662 1.97232,0.40985c0.61489,0.25618 1.14431,0.61489 1.58826,1.07589c0.461,0.44395 0.8197,0.97337 1.07589,1.58826c0.27323,0.61467 0.40985,1.27218 0.40985,1.97232zM129.6228,94.25819v-17.18819h-14.06305v17.18819zM191.38231,99.3045h-1.63941c-3.51795,0 -5.98558,-1.01599 -7.4029,-3.0482c-1.45164,2.03221 -3.91075,3.0482 -7.37733,3.0482h-7.76161c-5.96001,0 -8.94001,-2.97148 -8.94001,-8.91422v-1.84444c0,-2.28839 0.41007,-4.12409 1.22977,-5.50731c0.8197,-1.38322 2.00642,-2.30544 3.56057,-2.76644c-1.38344,-0.64899 -2.44206,-1.63941 -3.17651,-2.97148c-0.71719,-1.34912 -1.07589,-3.05673 -1.07589,-5.12325v-0.66582c0,-5.96001 2.97148,-8.94001 8.91444,-8.94001h7.76139c3.02285,0 5.25987,0.73424 6.71151,2.20293c1.46847,1.46869 2.20293,3.71424 2.20293,6.73709v2.20293h-5.12325v-1.94696c0,-1.40027 -0.30733,-2.42479 -0.922,-3.07378c-0.61489,-0.64899 -1.62236,-0.97337 -3.02285,-0.97337h-7.45405c-1.38322,0 -2.38239,0.32438 -2.99705,0.97337c-0.61489,0.64899 -0.92222,1.67351 -0.92222,3.07378v2.40796c0,1.33207 0.27323,2.32249 0.8197,2.97148c0.56352,0.63172 1.47721,0.97337 2.74087,1.02452h23.87391v5.12325h-6.45511v6.83939c0,1.38322 0.30733,2.39922 0.922,3.0482c0.61489,0.64899 1.61383,0.97337 2.99705,0.97337h2.53605zM175.83352,94.15567c1.40027,0 2.40796,-0.32438 3.02263,-0.97337c0.61489,-0.64899 0.92222,-1.66498 0.92222,-3.0482v-6.83939h-12.42364c-1.40027,0 -2.40796,0.31586 -3.02263,0.9478c-0.61489,0.63172 -0.92222,1.64793 -0.92222,3.0482v2.84339c0,1.38322 0.30733,2.39922 0.92222,3.0482c0.61467,0.64899 1.62236,0.97337 3.02263,0.97337zM214.43652,62.57152h26.76932v5.25135h-21.51819v10.50226h18.3666v5.25135h-18.3666v15.72803h-5.25113zM271.12392,88.23851h-18.0597v6.01968h18.0597v5.04631h-18.0597c-0.68199,0 -1.3312,-0.12809 -1.94543,-0.38428c-0.61642,-0.27323 -1.15414,-0.63172 -1.61536,-1.07589c-0.44373,-0.461 -0.80222,-0.99895 -1.07545,-1.61361c-0.25575,-0.61489 -0.38471,-1.2724 -0.38471,-1.97253v-17.18819c0,-0.70014 0.12897,-1.35765 0.38471,-1.97232c0.27323,-0.61489 0.63172,-1.14431 1.07545,-1.58826c0.46122,-0.461 0.99895,-0.8197 1.61536,-1.07589c0.61423,-0.27323 1.26344,-0.40985 1.94543,-0.40985h13.01252c0.70167,0 1.35961,0.13662 1.97385,0.40985c0.61423,0.25618 1.14321,0.61489 1.58695,1.07589c0.46122,0.44395 0.8197,0.97337 1.07764,1.58826c0.27323,0.61467 0.40876,1.27218 0.40876,1.97232zM253.06421,77.07v6.1222h13.01252v-6.1222zM302.63112,88.23851h-18.0597v6.01968h18.0597v5.04631h-18.0597c-0.68199,0 -1.3312,-0.12809 -1.94543,-0.38428c-0.61423,-0.27323 -1.15414,-0.63172 -1.61536,-1.07589c-0.44373,-0.461 -0.80222,-0.99895 -1.07545,-1.61361c-0.25575,-0.61489 -0.38253,-1.2724 -0.38253,-1.97253v-17.18819c0,-0.70014 0.12678,-1.35765 0.38253,-1.97232c0.27323,-0.61489 0.63172,-1.14431 1.07545,-1.58826c0.46122,-0.461 1.00113,-0.8197 1.61536,-1.07589c0.61423,-0.27323 1.26344,-0.40985 1.94543,-0.40985h13.0147c0.69948,0 1.35743,0.13662 1.97166,0.40985c0.61423,0.25618 1.14321,0.61489 1.58695,1.07589c0.46122,0.44395 0.8197,0.97337 1.07764,1.58826c0.27323,0.61467 0.40876,1.27218 0.40876,1.97232zM284.57142,77.07v6.1222h13.0147v-6.1222zM311.05986,77.07c0,-0.70014 0.12678,-1.35765 0.38253,-1.97232c0.27323,-0.61489 0.63172,-1.14431 1.07764,-1.58826c0.46122,-0.461 0.99895,-0.8197 1.61318,-1.07589c0.61423,-0.27323 1.26344,-0.40985 1.94543,-0.40985h14.06392v-10.50248h5.04719v37.78329h-5.04719v-4.61089c-0.05028,0.63194 -0.22077,1.22955 -0.51149,1.79307c-0.29072,0.56374 -0.66669,1.05884 -1.12791,1.48574c-0.44373,0.40985 -0.95523,0.73445 -1.53667,0.97337c-0.58144,0.23913 -1.19567,0.3587 -1.84488,0.3587h-9.04297c-0.68199,0 -1.3312,-0.12809 -1.94543,-0.38428c-0.61423,-0.27323 -1.15196,-0.63172 -1.61318,-1.07589c-0.44592,-0.461 -0.8044,-0.99895 -1.07764,-1.61361c-0.25575,-0.61489 -0.38253,-1.2724 -0.38253,-1.97253zM316.07863,94.25819h14.06392v-17.18819h-14.06392zM367.71993,94.25819c0,0.70014 -0.13552,1.35765 -0.40876,1.97253c-0.25575,0.61467 -0.61423,1.15261 -1.07545,1.61361c-0.44373,0.44417 -0.9749,0.80265 -1.58913,1.07589c-0.61423,0.25618 -1.27218,0.38428 -1.97166,0.38428h-14.06392c-0.68199,0 -1.3312,-0.12809 -1.94543,-0.38428c-0.61642,-0.27323 -1.15414,-0.63172 -1.61536,-1.07589c-0.44373,-0.461 -0.80222,-0.99895 -1.07545,-1.61361c-0.25575,-0.61489 -0.38471,-1.2724 -0.38471,-1.97253v-32.73698h5.02096v15.3184c0.03497,-0.66604 0.18799,-1.28945 0.46122,-1.87002c0.27323,-0.59762 0.63172,-1.10999 1.07545,-1.53689c0.46122,-0.44417 0.99239,-0.7856 1.58913,-1.02474c0.59674,-0.25618 1.23721,-0.38428 1.92138,-0.38428h9.01674c0.69948,0 1.35743,0.13662 1.97166,0.40985c0.61423,0.25618 1.1454,0.61489 1.58913,1.07589c0.46122,0.44395 0.8197,0.97337 1.07545,1.58826c0.27323,0.61467 0.40876,1.27218 0.40876,1.97232zM348.61101,77.07v17.18819h14.06392v-17.18819zM376.12244,87.39323c0,-0.70014 0.12897,-1.34912 0.38471,-1.94674c0.27323,-0.61489 0.63172,-1.15283 1.07545,-1.61383c0.46122,-0.46122 0.99895,-0.8197 1.61318,-1.07589c0.61642,-0.27323 1.26562,-0.40985 1.94761,-0.40985h13.01252v-5.27692h-16.47057v-5.04631h16.47057c0.70167,0 1.35743,0.13662 1.97385,0.40985c0.61423,0.25618 1.14321,0.61489 1.58695,1.07589c0.46122,0.44395 0.8197,0.97337 1.07545,1.58826c0.27323,0.61467 0.41094,1.27218 0.41094,1.97232v22.23451h-5.04719v-4.61089c-0.05028,0.63194 -0.22077,1.22955 -0.51149,1.79307c-0.29072,0.56374 -0.66669,1.05884 -1.12791,1.48574c-0.44373,0.40985 -0.95523,0.73445 -1.53667,0.97337c-0.58144,0.23913 -1.19567,0.3587 -1.84488,0.3587h-7.99156c-0.68199,0 -1.3312,-0.12809 -1.94761,-0.38428c-0.61423,-0.27323 -1.15196,-0.63172 -1.61318,-1.07589c-0.44373,-0.461 -0.80222,-0.99895 -1.07545,-1.61361c-0.25575,-0.61489 -0.38471,-1.2724 -0.38471,-1.97253zM381.1434,94.25819h13.01252v-6.86496h-13.01252zM412.6506,77.07v17.18819h13.01252v-4.61089h5.04719v4.61089c0,0.70014 -0.13771,1.35765 -0.41094,1.97253c-0.25575,0.61467 -0.61423,1.15261 -1.07545,1.61361c-0.44373,0.44417 -0.97271,0.80265 -1.58695,1.07589c-0.61642,0.25618 -1.27218,0.38428 -1.97385,0.38428h-13.01252c-0.68199,0 -1.3312,-0.12809 -1.94543,-0.38428c-0.61642,-0.27323 -1.15414,-0.63172 -1.61536,-1.07589c-0.44373,-0.461 -0.80222,-0.99895 -1.07545,-1.61361c-0.25575,-0.61489 -0.38471,-1.2724 -0.38471,-1.97253v-17.18819c0,-0.70014 0.12897,-1.35765 0.38471,-1.97232c0.27323,-0.61489 0.63172,-1.14431 1.07545,-1.58826c0.46122,-0.461 0.99895,-0.8197 1.61536,-1.07589c0.61423,-0.27323 1.26344,-0.40985 1.94543,-0.40985h13.01252c0.70167,0 1.35743,0.13662 1.97385,0.40985c0.61423,0.25618 1.14321,0.61489 1.58695,1.07589c0.46122,0.44395 0.8197,0.97337 1.07545,1.58826c0.27323,0.61467 0.41094,1.27218 0.41094,1.97232v4.61089h-5.04719v-4.61089zM457.17033,99.3045l-13.01252,-11.65509v11.65509h-5.02096v-37.78329h5.02096v21.26114l11.9633,-10.75866h7.09535l-14.65192,13.16662l15.70114,14.1142z" fill="#ff9b40" stroke="none" stroke-width="1" stroke-linecap="butt"/><path d="M425.03359,110.36608h-361.80662" fill="none" stroke="#ffc85e" stroke-width="0.5" stroke-linecap="round"/></g></g></svg>