<svg version="1.1" xmlns="http://www.w3.org/2000/svg" xmlns:xlink="http://www.w3.org/1999/xlink" width="25.62857" height="24.0082" viewBox="0,0,25.62857,24.0082"><g transform="translate(-227.18572,-167.9959)"><g fill="#ffa059" stroke="none" stroke-miterlimit="10"><path d="M239.54139,190.96053l-8.17834,-16.06643v16.06643h-3.13377v-21.92105h3.42419l8.34653,16.50946l8.36177,-16.50946h3.40895v21.92105h-3.11849v-16.06643l-8.17834,16.06643z"/><path d="M239.54139,192.00409h-0.63978l-0.29025,-0.57014l0.93003,-0.47343zM230.31948,174.89409l1.97356,-0.47308l-0.92999,0.47308zM232.40662,190.96053v1.04357h-1.04357v-1.04357zM228.22929,192.00409h-1.04357v-1.04357h1.04357zM227.18572,169.03947v-1.04357h1.04357v1.04357zM231.65348,167.9959h0.64176l0.28956,0.57274l-0.93131,0.47082zM240.93097,186.02062l-0.93183,1.83981l-0.93048,-1.8405l0.93135,-0.471zM247.4308,168.56795l0.28973,-0.57205h0.64124v1.04357zM251.77072,167.9959h1.04357v1.04357h-1.04357zM252.81429,190.96053v1.04357h-1.04357v-1.04357zM248.65223,192.00409h-1.04357v-1.04357h1.04357zM247.72224,174.42101l1.97353,0.47308h-1.04353zM241.40388,191.43395l-0.29022,0.57014h-0.63978v-1.04357zM238.61137,191.43395l-8.17834,-16.06643l1.86002,-0.94652l8.17834,16.06608zM232.40662,174.89409v16.06643h-2.08713v-16.06643zM231.36305,192.00409h-3.13377v-2.08713h3.13377zM227.18572,190.96053v-21.92105h2.08713v21.92105zM228.22929,167.9959h3.42419v2.08713h-3.42419zM232.58479,168.56865l8.34653,16.50963l-1.86267,0.94165l-8.3465,-16.50963zM239.069,185.07758l8.3618,-16.50963l1.8618,0.94304l-8.36163,16.50963zM248.36177,167.9959h3.40895v2.08713h-3.40895zM252.81429,169.03947v21.92105h-2.08713v-21.92105zM251.77072,192.00409h-3.11849v-2.08713h3.11849zM247.60866,190.96053v-16.06643h2.0871v16.06643zM249.58236,175.36753l-8.17848,16.06643l-1.86002,-0.94687l8.17837,-16.06608zM240.47389,192.00409h-0.9325v-2.08713h0.9325z"/></g></g></svg>