<svg version="1.1" xmlns="http://www.w3.org/2000/svg" xmlns:xlink="http://www.w3.org/1999/xlink" width="299.3701" height="199.00003" viewBox="0,0,299.3701,199.00003"><g transform="translate(-90.31495,-68.89999)"><g data-paper-data="{&quot;isPaintingLayer&quot;:true}" fill-rule="nonzero" stroke-linejoin="miter" stroke-miterlimit="10" stroke-dasharray="" stroke-dashoffset="0" style="mix-blend-mode: normal"><g fill="#ffae4e" stroke="none" stroke-width="1" stroke-linecap="butt"><path d="M108.43652,266.41182l-11.99503,-22.91235v22.91235h-4.59598v-31.26117h5.02209l12.24145,23.54335l12.2641,-23.54335h4.99974v31.26117h-4.57394v-22.91235l-11.99473,22.91235zM154.4208,256.99448h-15.80644v5.12239h15.80644v4.29496h-15.80644c-0.59784,0 -1.16599,-0.11014 -1.70412,-0.3274c-0.53784,-0.23216 -1.00895,-0.53872 -1.41241,-0.91376c-0.38846,-0.39289 -0.70252,-0.85124 -0.9416,-1.37509c-0.22408,-0.52385 -0.33642,-1.08341 -0.33642,-1.67869v-14.62605c0,-0.59826 0.11235,-1.15782 0.33642,-1.67869c0.23907,-0.52385 0.55315,-0.97626 0.9416,-1.3513c0.40345,-0.39289 0.87456,-0.69945 1.41241,-0.91674c0.53815,-0.23216 1.1063,-0.34823 1.70412,-0.34823h11.38954c0.61284,0 1.18833,0.11608 1.72617,0.34823c0.53815,0.21727 1.0016,0.52385 1.39006,0.91674c0.40376,0.37503 0.71753,0.82745 0.94191,1.3513c0.23907,0.52086 0.35876,1.08043 0.35876,1.67869zM138.61436,247.49081v5.20871h11.38954v-5.20871zM161.79688,247.49081c0,-0.59826 0.11204,-1.15782 0.33642,-1.67869c0.23907,-0.52385 0.55284,-0.97626 0.9416,-1.3513c0.40345,-0.39289 0.87425,-0.69945 1.41241,-0.91674c0.53815,-0.23216 1.1063,-0.34823 1.70412,-0.34823h12.3088v-8.93814h4.41659v32.1541h-4.41659v-3.9229c-0.045,0.53575 -0.19438,1.04471 -0.44845,1.52392c-0.25407,0.4792 -0.58315,0.90185 -0.9866,1.26498c-0.38846,0.34823 -0.83691,0.62504 -1.34507,0.82745c-0.50844,0.20537 -1.04629,0.30657 -1.61444,0.30657h-7.91425c-0.59784,0 -1.16599,-0.11014 -1.70412,-0.3274c-0.53815,-0.23216 -1.00895,-0.53872 -1.41241,-0.91376c-0.38876,-0.39289 -0.70252,-0.85124 -0.9416,-1.37509c-0.22438,-0.52385 -0.33642,-1.08341 -0.33642,-1.67869zM166.19145,262.11687h12.3088v-14.62605h-12.3088zM194.91186,243.19587v23.21595h-4.4169v-23.21595zM190.2709,234.25773h4.86505v4.46759h-4.86505zM206.90659,247.49081v14.62605h11.38954v-3.9229h4.4169v3.9229c0,0.59528 -0.11939,1.15485 -0.35876,1.67869c-0.22408,0.52385 -0.53784,0.98222 -0.9416,1.37509c-0.38846,0.37503 -0.85191,0.6816 -1.39006,0.91376c-0.53815,0.21727 -1.11364,0.3274 -1.72648,0.3274h-11.38954c-0.59784,0 -1.16568,-0.11014 -1.70383,-0.3274c-0.53815,-0.23216 -1.00895,-0.53872 -1.41241,-0.91376c-0.38876,-0.39289 -0.70252,-0.85124 -0.9416,-1.37509c-0.22438,-0.52385 -0.33642,-1.08341 -0.33642,-1.67869v-14.62605c0,-0.59826 0.11204,-1.15782 0.33642,-1.67869c0.23907,-0.52385 0.55284,-0.97626 0.9416,-1.3513c0.40345,-0.39289 0.87425,-0.69945 1.41241,-0.91674c0.53815,-0.23216 1.10599,-0.34823 1.70383,-0.34823h11.38954c0.61284,0 1.18833,0.11608 1.72648,0.34823c0.53815,0.21727 1.0016,0.52385 1.39006,0.91674c0.40376,0.37503 0.71753,0.82745 0.9416,1.3513c0.23938,0.52086 0.35876,1.08043 0.35876,1.67869v3.9229h-4.4169v-3.9229zM234.73042,243.19587v23.21595h-4.4169v-23.21595zM230.08945,234.25773h4.86505v4.46759h-4.86505zM263.45085,266.41182h-4.41659v-18.921h-12.3088v18.921h-4.39455v-23.21595h4.39455v4.09852c0.02969,-0.56849 0.16438,-1.09829 0.40345,-1.59238c0.23907,-0.50897 0.55315,-0.94352 0.9416,-1.30664c0.40345,-0.378 0.86691,-0.6697 1.39006,-0.87208c0.52315,-0.22025 1.08365,-0.3274 1.68147,-0.3274h7.89221c0.61284,0 1.18803,0.11608 1.72617,0.34823c0.53815,0.21727 1.0016,0.52385 1.39006,0.91674c0.40376,0.37503 0.71753,0.82745 0.9416,1.3513c0.23938,0.52086 0.35876,1.08043 0.35876,1.67869zM291.00559,256.99448h-15.80644v5.12239h15.80644v4.29496h-15.80644c-0.59784,0 -1.16568,-0.11014 -1.70383,-0.3274c-0.53815,-0.23216 -1.00895,-0.53872 -1.41241,-0.91376c-0.38876,-0.39289 -0.70252,-0.85124 -0.94191,-1.37509c-0.22408,-0.52385 -0.33611,-1.08341 -0.33611,-1.67869v-14.62605c0,-0.59826 0.11204,-1.15782 0.33611,-1.67869c0.23938,-0.52385 0.55315,-0.97626 0.94191,-1.3513c0.40345,-0.39289 0.87425,-0.69945 1.41241,-0.91674c0.53815,-0.23216 1.10599,-0.34823 1.70383,-0.34823h11.38954c0.61284,0 1.18833,0.11608 1.72648,0.34823c0.53815,0.21727 1.0013,0.52385 1.39006,0.91674c0.40345,0.37503 0.71753,0.82745 0.9416,1.3513c0.23907,0.52086 0.35876,1.08043 0.35876,1.67869zM275.19914,247.49081v5.20871h11.38954v-5.20871zM333.53783,250.1041c0.67039,0.20537 1.28568,0.49707 1.83668,0.87208c0.55406,0.378 1.02548,0.86613 1.41423,1.46142c0.38876,0.5804 0.68569,1.27093 0.8969,2.07158c0.20816,0.80065 0.31224,1.71441 0.31224,2.74722v1.56856c0,5.05691 -2.59889,7.58685 -7.80281,7.58685h-17.59874v-31.26117h16.68039c5.20086,0 7.80281,2.53589 7.80281,7.60768v0.56849c0,1.75608 -0.29081,3.19666 -0.87548,4.31578c-0.56631,1.10424 -1.45709,1.92573 -2.66625,2.46148zM317.10293,252.78584v9.24472h12.95744c1.21222,0 2.08769,-0.27681 2.62338,-0.82745c0.53876,-0.5536 0.80813,-1.41975 0.80813,-2.59543v-2.41983c0,-1.19056 -0.26937,-2.05669 -0.80813,-2.59543c-0.53569,-0.53575 -1.41118,-0.80661 -2.62338,-0.80661zM317.10293,239.53191v8.89647h12.35441c1.10507,-0.04464 1.8979,-0.33634 2.37544,-0.87208c0.49284,-0.5536 0.7408,-1.39593 0.7408,-2.52994v-2.05075c0,-1.19056 -0.26937,-2.06265 -0.80813,-2.61329c-0.53876,-0.5536 -1.41118,-0.83042 -2.62338,-0.83042zM344.43239,256.27419c0,-0.59528 0.11327,-1.14889 0.33672,-1.65488c0.23877,-0.52385 0.55406,-0.98222 0.94283,-1.37509c0.40407,-0.39289 0.87242,-0.69648 1.41118,-0.91376c0.53876,-0.23514 1.10813,-0.35122 1.70505,-0.35122h11.39046v-4.48842h-14.41792v-4.29496h14.41792c0.61223,0 1.18772,0.11608 1.72648,0.34823c0.53569,0.21727 1.00099,0.52385 1.38976,0.91674c0.40101,0.37503 0.7163,0.82745 0.93977,1.3513c0.23877,0.52086 0.35815,1.08043 0.35815,1.67869v18.921h-4.41416v-3.9229c-0.04591,0.53575 -0.19591,1.04471 -0.44999,1.52392c-0.25407,0.4792 -0.58162,0.90185 -0.98568,1.26498c-0.38876,0.34823 -0.83875,0.62504 -1.34689,0.82745c-0.50814,0.20537 -1.04385,0.30657 -1.61321,0.30657h-6.99468c-0.59692,0 -1.16629,-0.11014 -1.70505,-0.3274c-0.53876,-0.23216 -1.00712,-0.53872 -1.41118,-0.91376c-0.38876,-0.39289 -0.70406,-0.85124 -0.94283,-1.37509c-0.22346,-0.52385 -0.33672,-1.08341 -0.33672,-1.67869zM348.82818,262.11687h11.39046v-5.84268h-11.39046zM376.40588,234.25773v32.1541h-4.39578v-32.1541zM388.15449,234.25773v32.1541h-4.39578v-32.1541z"/><path d="M108.43652,267.90002h-0.93854l-0.42549,-0.81256l1.36404,-0.67564zM94.91093,243.49946l2.8946,-0.67564l-1.36404,0.67564zM97.97205,266.41182v1.4882h-1.53056v-1.4882zM91.84551,267.90002h-1.53056v-1.4882h1.53056zM90.31495,235.15064v-1.4882h1.53056v1.4882zM96.8676,233.66244h0.9413l0.42458,0.81553l-1.36587,0.67267zM110.47462,259.36667l-1.3668,2.62519l-1.36465,-2.62519l1.36587,-0.67267zM120.00759,234.47798l0.42488,-0.81553h0.94068v1.4882zM126.3729,233.66244h1.53056v1.4882h-1.53056zM127.90346,266.41182v1.4882h-1.53056v-1.4882zM121.79896,267.90002h-1.53056v-1.4882h1.53056zM120.43492,242.82382l2.8946,0.67564h-1.53056zM111.16796,267.08747l-0.42549,0.81256h-0.93824v-1.4882zM107.07248,267.08747l-11.99503,-22.91235l2.72808,-1.3513l11.99503,22.91235zM97.97205,243.49946v22.91235h-3.06112v-22.91235zM96.44149,267.90002h-4.59598v-2.9764h4.59598zM90.31495,266.41182v-31.26117h3.06112v31.26117zM91.84551,233.66244h5.02209v2.9764h-5.02209zM98.23348,234.47798l12.24145,23.54634l-2.73176,1.34235l-12.24145,-23.54335zM107.74378,258.02134l12.26379,-23.54335l2.73084,1.34534l-12.26379,23.54335zM121.37316,233.66244h4.99974v2.9764h-4.99974zM127.90346,235.15064v31.26117h-3.06112v-31.26117zM126.3729,267.90002h-4.57394v-2.9764h4.57394zM120.2684,266.41182v-22.91235h3.06112v22.91235zM123.163,244.17511l-11.99503,22.91235l-2.72778,-1.3513l11.99473,-22.91235zM109.80423,267.90002h-1.36772v-2.9764h1.36772zM155.95136,256.99448v1.4882h-1.53056v-1.4882zM137.08379,256.99448v-1.4882h1.53056v1.4882zM138.61436,263.60506h-1.53056v-1.4882h1.53056zM154.4208,260.62867h1.53056v1.4882h-1.53056zM155.95136,266.41182v1.4882h-1.53056v-1.4882zM136.32156,267.45951l-0.03306,-0.01488l0.62171,-1.36021zM134.43621,266.24217l-0.02082,-0.02084l-0.01989,-0.02084l1.1023,-1.02983zM133.15758,264.39978l-0.01469,-0.03274l1.41332,-0.57146zM133.1435,245.23768l0.01378,-0.03274l1.39893,0.60718zM137.53193,244.90433l-0.03275,0.01488l-0.58897,-1.37509zM151.14141,244.91622l-0.03306,-0.0119l0.62171,-1.36021zM152.05853,245.53234l-0.02082,-0.02084l-0.01989,-0.02084l1.1023,-1.02983zM152.66341,246.41634l-0.01469,-0.03274l1.41332,-0.57146zM137.08379,247.49081v-1.4882h1.53056v1.4882zM138.61436,254.18772h-1.53056v-1.4882h1.53056zM151.53446,252.69952v1.4882h-1.53056v-1.4882zM150.0039,246.00261h1.53056v1.4882h-1.53056zM154.4208,258.48269h-15.80644v-2.9764h15.80644zM140.14492,256.99448v5.12239h-3.06112v-5.12239zM138.61436,260.62867h15.80644v2.9764h-15.80644zM155.95136,262.11687v4.29496h-3.06112v-4.29496zM154.4208,267.90002h-15.80644v-2.9764h15.80644zM138.61436,267.90002c-0.79467,0 -1.56331,-0.14585 -2.29279,-0.44051l1.17731,-2.74722c0.34683,0.13989 0.71416,0.21133 1.11547,0.21133zM136.28882,267.44463c-0.69273,-0.30062 -1.31414,-0.69945 -1.85259,-1.20246l2.1232,-2.14598c0.26877,0.253 0.58897,0.46431 0.97252,0.62802zM134.3955,266.20049c-0.51855,-0.52385 -0.93028,-1.12806 -1.23793,-1.80072l2.79726,-1.20842c0.1705,0.37205 0.38661,0.68457 0.64559,0.9465zM133.1435,264.36704c-0.30611,-0.71135 -0.45427,-1.46736 -0.45427,-2.25016h3.06112c0,0.41074 0.07622,0.77387 0.21857,1.10723zM132.68923,262.11687v-14.62605h3.06112v14.62605zM132.68923,247.49081c0,-0.78279 0.14815,-1.5388 0.45427,-2.25313l2.82542,1.14591c-0.14234,0.33336 -0.21857,0.69648 -0.21857,1.10723zM133.15758,245.20792c0.30978,-0.67861 0.72732,-1.2858 1.25812,-1.80072l2.16452,2.10432c-0.24673,0.24108 -0.45703,0.53575 -0.62538,0.90482zM134.41571,243.4072c0.54794,-0.53278 1.18741,-0.9465 1.90587,-1.23819l1.17731,2.74722c-0.35755,0.14585 -0.65967,0.34229 -0.91864,0.59528zM136.28882,242.18389c0.73681,-0.31848 1.5168,-0.47623 2.32554,-0.47623v2.9764c-0.38724,0 -0.74294,0.07441 -1.08241,0.22025zM138.61436,241.70767h11.38954v2.9764h-11.38954zM150.0039,241.70767c0.81794,0 1.60618,0.15477 2.34788,0.47623l-1.24313,2.72043c-0.33458,-0.14585 -0.69732,-0.22025 -1.10476,-0.22025zM152.31903,242.16901c0.72334,0.29466 1.36373,0.71434 1.90372,1.25902l-2.20493,2.06265c-0.23724,-0.23811 -0.52376,-0.43157 -0.8764,-0.57445zM154.18203,243.38636c0.56049,0.52682 0.99119,1.14889 1.29271,1.85132l-2.82573,1.14591c-0.14694,-0.34229 -0.34407,-0.62207 -0.59049,-0.85124zM155.46066,245.20792c0.32969,0.7203 0.4907,1.48523 0.4907,2.2829h-3.06112c0,-0.39883 -0.07836,-0.75005 -0.22683,-1.07449zM155.95136,247.49081v9.50366h-3.06112v-9.50366zM140.14492,247.49081v5.20871h-3.06112v-5.20871zM138.61436,251.21132h11.38954v2.9764h-11.38954zM148.47333,252.69952v-5.20871h3.06112v5.20871zM150.0039,248.97903h-11.38954v-2.9764h11.38954zM160.72029,245.23768l0.01408,-0.03274l1.39893,0.60718zM165.10902,244.90433l-0.03275,0.01488l-0.58897,-1.37509zM180.03082,243.19587v1.4882h-1.53056v-1.4882zM176.96968,234.25773v-1.4882h1.53056v1.4882zM182.91684,232.76953h1.53056v1.4882h-1.53056zM184.44741,266.41182v1.4882h-1.53056v-1.4882zM178.50024,267.90002h-1.53056v-1.4882h1.53056zM176.97457,262.36688l3.05623,0.12203h-1.53056zM178.10506,266.37015l-0.00153,0.00297l-1.03833,-1.09531zM163.89865,267.45951l-0.03306,-0.01488l0.62171,-1.36021zM162.01332,266.24217l-0.02082,-0.02084l-0.02021,-0.02084l1.10262,-1.02983zM160.73468,264.39978l-0.01469,-0.03274l1.41332,-0.57146zM166.19145,263.60506h-1.53056v-1.4882h1.53056zM180.03082,262.11687v1.4882h-1.53056v-1.4882zM178.50024,246.00261h1.53056v1.4882h-1.53056zM164.66088,247.49081v-1.4882h1.53056v1.4882zM160.26632,247.49081c0,-0.78279 0.14815,-1.5388 0.45397,-2.25313l2.82573,1.14591c-0.14234,0.33336 -0.21857,0.69648 -0.21857,1.10723zM160.73468,245.20792c0.30978,-0.67861 0.72732,-1.2858 1.25782,-1.80072l2.16483,2.10432c-0.24673,0.24108 -0.45703,0.53575 -0.62538,0.90482zM161.9925,243.4072c0.54824,-0.53278 1.18772,-0.9465 1.90617,-1.23819l1.17731,2.74722c-0.35755,0.14585 -0.65967,0.34229 -0.91864,0.59528zM163.86591,242.18389c0.73681,-0.31848 1.5168,-0.47623 2.32554,-0.47623v2.9764c-0.38724,0 -0.74325,0.07441 -1.08241,0.22025zM166.19145,241.70767h12.3088v2.9764h-12.3088zM176.96968,243.19587v-8.93814h3.06112v8.93814zM178.50024,232.76953h4.41659v2.9764h-4.41659zM184.44741,234.25773v32.1541h-3.06112v-32.1541zM182.91684,267.90002h-4.41659v-2.9764h4.41659zM176.96968,266.41182v-3.9229h3.06112v3.9229zM180.02561,262.60798c-0.06123,0.73517 -0.26663,1.43165 -0.61315,2.08646l-2.72135,-1.36319c0.16163,-0.3036 0.255,-0.62207 0.28346,-0.96435zM179.41246,264.69443c-0.33489,0.63398 -0.77201,1.19354 -1.3074,1.67571l-2.07973,-2.18468c0.27183,-0.24407 0.49253,-0.52682 0.6658,-0.85423zM178.10352,266.37313c-0.52743,0.47325 -1.13139,0.84233 -1.80087,1.1102l-1.16537,-2.75318c0.34713,-0.13989 0.63977,-0.32145 0.88988,-0.54468zM176.30266,267.48333c-0.69917,0.27978 -1.43597,0.4167 -2.19697,0.4167v-2.9764c0.37498,0 0.71447,-0.06548 1.0316,-0.19347zM174.10568,267.90002h-7.91425v-2.9764h7.91425zM166.19145,267.90002c-0.79467,0 -1.56331,-0.14585 -2.29279,-0.44051l1.17731,-2.74722c0.34683,0.13989 0.71416,0.21133 1.11547,0.21133zM163.86591,267.44463c-0.69273,-0.30062 -1.31444,-0.69945 -1.85259,-1.20246l2.1232,-2.14598c0.26877,0.253 0.58897,0.46431 0.97252,0.62802zM161.97229,266.20049c-0.51825,-0.52385 -0.92996,-1.12806 -1.23761,-1.80072l2.79726,-1.20842c0.1705,0.37205 0.38661,0.68457 0.64559,0.9465zM160.72029,264.36704c-0.3058,-0.71135 -0.45397,-1.46736 -0.45397,-2.25016h3.06112c0,0.41074 0.07622,0.77387 0.21857,1.10723zM160.26632,262.11687v-14.62605h3.06112v14.62605zM166.19145,260.62867h12.3088v2.9764h-12.3088zM176.96968,262.11687v-14.62605h3.06112v14.62605zM178.50024,248.97903h-12.3088v-2.9764h12.3088zM167.72202,247.49081v14.62605h-3.06112v-14.62605zM194.91186,241.70767h1.53056v1.4882h-1.53056zM196.44244,266.41182v1.4882h-1.53056v-1.4882zM190.49497,267.90002h-1.53056v-1.4882h1.53056zM188.96441,243.19587v-1.4882h1.53056v1.4882zM188.74033,234.25773v-1.4882h1.53056v1.4882zM195.13594,232.76953h1.53056v1.4882h-1.53056zM196.66651,238.72531v1.4882h-1.53056v-1.4882zM190.2709,240.21351h-1.53056v-1.4882h1.53056zM196.44244,243.19587v23.21595h-3.06112v-23.21595zM194.91186,267.90002h-4.4169v-2.9764h4.4169zM188.96441,266.41182v-23.21595h3.06112v23.21595zM190.49497,241.70767h4.4169v2.9764h-4.4169zM190.2709,232.76953h4.86505v2.9764h-4.86505zM196.66651,234.25773v4.46759h-3.06112v-4.46759zM195.13594,240.21351h-4.86505v-2.9764h4.86505zM188.74033,238.72531v-4.46759h3.06112v4.46759zM205.37603,247.49081v-1.4882h1.53056v1.4882zM206.90659,263.60506h-1.53056v-1.4882h1.53056zM219.8267,262.11687v1.4882h-1.53056v-1.4882zM216.76557,258.19397v-1.4882h1.53056v1.4882zM222.71304,256.70577h1.53056v1.4882h-1.53056zM220.94157,263.22408l0.01378,-0.03274l1.39893,0.6042zM220.64433,267.44463l-0.03275,0.01488l-0.58897,-1.37509zM204.61411,267.45951l-0.03306,-0.01488l0.62171,-1.36021zM202.72878,266.24217l-0.02082,-0.02084l-0.02021,-0.02084l1.10262,-1.02983zM201.45013,264.39978l-0.01469,-0.03274l1.41332,-0.57146zM201.43575,245.23768l0.01378,-0.03274l1.39925,0.60718zM205.82448,244.90433l-0.03275,0.01488l-0.58897,-1.37509zM219.43396,244.91622l-0.03306,-0.0119l0.62171,-1.36021zM220.35108,245.53234l-0.02082,-0.02084l-0.01989,-0.02084l1.1023,-1.02983zM220.95565,246.41634l-0.01439,-0.03274l1.41301,-0.57146zM224.2436,251.41372v1.4882h-1.53056v-1.4882zM218.29613,252.90193h-1.53056v-1.4882h1.53056zM218.29613,246.00261h1.53056v1.4882h-1.53056zM208.43716,247.49081v14.62605h-3.06112v-14.62605zM206.90659,260.62867h11.38954v2.9764h-11.38954zM216.76557,262.11687v-3.9229h3.06112v3.9229zM218.29613,256.70577h4.4169v2.9764h-4.4169zM224.2436,258.19397v3.9229h-3.06112v-3.9229zM224.2436,262.11687c0,0.7947 -0.16102,1.56261 -0.4907,2.2829l-2.79726,-1.20842c0.14876,-0.32442 0.22683,-0.67861 0.22683,-1.07449zM223.76729,264.36704c-0.29938,0.69945 -0.72426,1.32152 -1.27221,1.8543l-2.16452,-2.10432c0.25896,-0.253 0.46193,-0.54468 0.61101,-0.89293zM222.49509,266.22133c-0.5308,0.51492 -1.15343,0.92268 -1.85077,1.2233l-1.24343,-2.72043c0.37897,-0.16371 0.68294,-0.3661 0.92966,-0.60718zM220.61127,267.45951c-0.73406,0.29764 -1.51067,0.44051 -2.31513,0.44051v-2.9764c0.42152,0 0.7959,-0.07441 1.13782,-0.21133zM218.29613,267.90002h-11.38954v-2.9764h11.38954zM206.90659,267.90002c-0.79437,0 -1.56301,-0.14585 -2.29248,-0.44051l1.17731,-2.74722c0.34683,0.13989 0.71416,0.21133 1.11517,0.21133zM204.58105,267.44463c-0.69243,-0.30062 -1.31414,-0.69945 -1.85229,-1.20246l2.1232,-2.14598c0.26877,0.253 0.58865,0.46431 0.97252,0.62802zM202.68775,266.20049c-0.51825,-0.52385 -0.92996,-1.12806 -1.23761,-1.80072l2.79726,-1.20842c0.1705,0.37205 0.38661,0.68457 0.64529,0.9465zM201.43575,264.36704c-0.3058,-0.71135 -0.45397,-1.46736 -0.45397,-2.25016h3.06112c0,0.41074 0.07592,0.77387 0.21857,1.10723zM200.98178,262.11687v-14.62605h3.06112v14.62605zM200.98178,247.49081c0,-0.78279 0.14815,-1.5388 0.45397,-2.25313l2.82573,1.14591c-0.14265,0.33336 -0.21857,0.69648 -0.21857,1.10723zM201.45013,245.20792c0.30978,-0.67861 0.72732,-1.2858 1.25782,-1.80072l2.16452,2.10432c-0.24642,0.24108 -0.45673,0.53575 -0.62508,0.90482zM202.70796,243.4072c0.54794,-0.53278 1.18772,-0.9465 1.90617,-1.23819l1.17731,2.74722c-0.35755,0.14585 -0.65967,0.34229 -0.91894,0.59528zM204.58105,242.18389c0.73712,-0.31848 1.5171,-0.47623 2.32554,-0.47623v2.9764c-0.38692,0 -0.74294,0.07441 -1.08211,0.22025zM206.90659,241.70767h11.38954v2.9764h-11.38954zM218.29613,241.70767c0.81824,0 1.60648,0.15477 2.34819,0.47623l-1.24343,2.72043c-0.33428,-0.14585 -0.69702,-0.22025 -1.10476,-0.22025zM220.61127,242.16901c0.72365,0.29466 1.36404,0.71434 1.90402,1.25902l-2.20493,2.06265c-0.23754,-0.23811 -0.52376,-0.43157 -0.8764,-0.57445zM222.47428,243.38636c0.5608,0.52682 0.99149,1.14889 1.29303,1.85132l-2.82573,1.14591c-0.14694,-0.34229 -0.34407,-0.62207 -0.59049,-0.85124zM223.75291,245.20792c0.32969,0.7203 0.4907,1.48523 0.4907,2.2829h-3.06112c0,-0.39883 -0.07806,-0.75005 -0.22683,-1.07449zM224.2436,247.49081v3.9229h-3.06112v-3.9229zM222.71304,252.90193h-4.4169v-2.9764h4.4169zM216.76557,251.41372v-3.9229h3.06112v3.9229zM218.29613,248.97903h-11.38954v-2.9764h11.38954zM234.73042,241.70767h1.53056v1.4882h-1.53056zM236.26098,266.41182v1.4882h-1.53056v-1.4882zM230.31352,267.90002h-1.53056v-1.4882h1.53056zM228.78295,243.19587v-1.4882h1.53056v1.4882zM228.55888,234.25773v-1.4882h1.53056v1.4882zM234.9545,232.76953h1.53056v1.4882h-1.53056zM236.48506,238.72531v1.4882h-1.53056v-1.4882zM230.08945,240.21351h-1.53056v-1.4882h1.53056zM236.26098,243.19587v23.21595h-3.06112v-23.21595zM234.73042,267.90002h-4.4169v-2.9764h4.4169zM228.78295,266.41182v-23.21595h3.06112v23.21595zM230.31352,241.70767h4.4169v2.9764h-4.4169zM230.08945,232.76953h4.86505v2.9764h-4.86505zM236.48506,234.25773v4.46759h-3.06112v-4.46759zM234.9545,240.21351h-4.86505v-2.9764h4.86505zM228.55888,238.72531v-4.46759h3.06112v4.46759zM264.98141,266.41182v1.4882h-1.53056v-1.4882zM259.03425,267.90002h-1.53056v-1.4882h1.53056zM259.03425,246.00261h1.53056v1.4882h-1.53056zM245.19489,247.49081v-1.4882h1.53056v1.4882zM248.25601,266.41182v1.4882h-1.53056v-1.4882zM242.3309,267.90002h-1.53056v-1.4882h1.53056zM240.80033,243.19587v-1.4882h1.53056v1.4882zM246.72545,241.70767h1.53056v1.4882h-1.53056zM248.25387,247.36879l-3.05899,-0.07441h1.53056zM248.5208,246.32109l-0.00704,0.01488l-1.38486,-0.63398zM249.13211,245.46686h-0.00061l-1.06099,-1.0715zM250.06361,244.88944l-0.03428,0.01488l-0.56876,-1.38105zM260.17177,244.91622l-0.03306,-0.0119l0.62171,-1.36021zM261.08888,245.53234l-0.02082,-0.02084l-0.01989,-0.02084l1.1023,-1.02983zM261.69346,246.41634l-0.01439,-0.03274l1.41301,-0.57146zM263.45085,267.90002h-4.41659v-2.9764h4.41659zM257.50368,266.41182v-18.921h3.06112v18.921zM259.03425,248.97903h-12.3088v-2.9764h12.3088zM248.25601,247.49081v18.921h-3.06112v-18.921zM246.72545,267.90002h-4.39455v-2.9764h4.39455zM240.80033,266.41182v-23.21595h3.06112v23.21595zM242.3309,241.70767h4.39455v2.9764h-4.39455zM248.25601,243.19587v4.09852h-3.06112v-4.09852zM245.19672,247.21699c0.0398,-0.75303 0.22009,-1.47332 0.54732,-2.14896l2.76971,1.26795c-0.15122,0.31252 -0.23968,0.65183 -0.25989,1.03282zM245.73702,245.08292c0.31377,-0.66671 0.7362,-1.25902 1.27282,-1.76202l2.12168,2.14598c-0.24092,0.2262 -0.44601,0.50301 -0.61069,0.85423zM247.00891,243.32087c0.54671,-0.51194 1.17762,-0.90482 1.8832,-1.18163l1.1369,2.76508c-0.34071,0.13096 -0.6364,0.31848 -0.8969,0.56255zM248.85783,242.15412c0.72304,-0.30062 1.48985,-0.44646 2.28421,-0.44646v2.9764c-0.40101,0 -0.75549,0.07144 -1.07844,0.20537zM251.14205,241.70767h7.89221v2.9764h-7.89221zM259.03425,241.70767c0.81794,0 1.60618,0.15477 2.34788,0.47623l-1.24313,2.72043c-0.33458,-0.14585 -0.69732,-0.22025 -1.10476,-0.22025zM261.34908,242.16901c0.72365,0.29466 1.36404,0.71434 1.90402,1.25902l-2.20493,2.06265c-0.23754,-0.23811 -0.52376,-0.43157 -0.8764,-0.57445zM263.21208,243.38636c0.5608,0.52682 0.99149,1.14889 1.29303,1.85132l-2.82573,1.14591c-0.14694,-0.34229 -0.34407,-0.62207 -0.59049,-0.85124zM264.49071,245.20792c0.32969,0.7203 0.4907,1.48523 0.4907,2.2829h-3.06112c0,-0.39883 -0.07806,-0.75005 -0.22683,-1.07449zM264.98141,247.49081v18.921h-3.06112v-18.921zM292.53616,256.99448v1.4882h-1.53056v-1.4882zM273.66858,256.99448v-1.4882h1.53056v1.4882zM275.19914,263.60506h-1.53056v-1.4882h1.53056zM291.00559,260.62867h1.53056v1.4882h-1.53056zM292.53616,266.41182v1.4882h-1.53056v-1.4882zM272.90666,267.45951l-0.03306,-0.01488l0.62171,-1.36021zM271.02101,266.24217l-0.02082,-0.02084l-0.01989,-0.02084l1.10262,-1.02983zM269.74239,264.39978l-0.01439,-0.03274l1.41301,-0.57146zM269.7283,245.23768l0.01378,-0.03274l1.39893,0.60718zM274.11673,244.90433l-0.03275,0.01488l-0.58865,-1.37509zM287.72651,244.91622l-0.03306,-0.0119l0.62171,-1.36021zM288.64363,245.53234l-0.02082,-0.02084l-0.02021,-0.02084l1.10262,-1.02983zM289.2482,246.41634l-0.01469,-0.03274l1.41332,-0.57146zM273.66858,247.49081v-1.4882h1.53056v1.4882zM275.19914,254.18772h-1.53056v-1.4882h1.53056zM288.11926,252.69952v1.4882h-1.53056v-1.4882zM286.5887,246.00261h1.53056v1.4882h-1.53056zM291.00559,258.48269h-15.80644v-2.9764h15.80644zM276.72972,256.99448v5.12239h-3.06112v-5.12239zM275.19914,260.62867h15.80644v2.9764h-15.80644zM292.53616,262.11687v4.29496h-3.06112v-4.29496zM291.00559,267.90002h-15.80644v-2.9764h15.80644zM275.19914,267.90002c-0.79467,0 -1.56301,-0.14585 -2.29248,-0.44051l1.17731,-2.74722c0.34683,0.13989 0.71416,0.21133 1.11517,0.21133zM272.8736,267.44463c-0.69243,-0.30062 -1.31414,-0.69945 -1.85259,-1.20246l2.1235,-2.14598c0.26877,0.253 0.58865,0.46431 0.97222,0.62802zM270.9803,266.20049c-0.51855,-0.52385 -0.92996,-1.12806 -1.23793,-1.80072l2.79726,-1.20842c0.1705,0.37205 0.38692,0.68457 0.64559,0.9465zM269.7283,264.36704c-0.3058,-0.71135 -0.45397,-1.46736 -0.45397,-2.25016h3.06112c0,0.41074 0.07592,0.77387 0.21857,1.10723zM269.27433,262.11687v-14.62605h3.06112v14.62605zM269.27433,247.49081c0,-0.78279 0.14815,-1.5388 0.45397,-2.25313l2.82573,1.14591c-0.14265,0.33336 -0.21857,0.69648 -0.21857,1.10723zM269.74239,245.20792c0.3101,-0.67861 0.72732,-1.2858 1.25812,-1.80072l2.16452,2.10432c-0.24642,0.24108 -0.45703,0.53575 -0.62538,0.90482zM271.00051,243.4072c0.54794,-0.53278 1.18741,-0.9465 1.90617,-1.23819l1.17731,2.74722c-0.35755,0.14585 -0.65967,0.34229 -0.91894,0.59528zM272.8736,242.18389c0.73681,-0.31848 1.5171,-0.47623 2.32554,-0.47623v2.9764c-0.38692,0 -0.74294,0.07441 -1.08241,0.22025zM275.19914,241.70767h11.38954v2.9764h-11.38954zM286.5887,241.70767c0.81824,0 1.60618,0.15477 2.34819,0.47623l-1.24343,2.72043c-0.33428,-0.14585 -0.69702,-0.22025 -1.10476,-0.22025zM288.90383,242.16901c0.72365,0.29466 1.36404,0.71434 1.90372,1.25902l-2.20493,2.06265c-0.23724,-0.23811 -0.52346,-0.43157 -0.8761,-0.57445zM290.76683,243.38636c0.5608,0.52682 0.99119,1.14889 1.29271,1.85132l-2.82542,1.14591c-0.14694,-0.34229 -0.34407,-0.62207 -0.59049,-0.85124zM292.04546,245.20792c0.32969,0.7203 0.4907,1.48523 0.4907,2.2829h-3.06112c0,-0.39883 -0.07836,-0.75005 -0.22683,-1.07449zM292.53616,247.49081v9.50366h-3.06112v-9.50366zM276.72972,247.49081v5.20871h-3.06112v-5.20871zM275.19914,251.21132h11.38954v2.9764h-11.38954zM285.05813,252.69952v-5.20871h3.06112v5.20871zM286.5887,248.97903h-11.38954v-2.9764h11.38954zM333.08173,251.52683l-3.82335,-1.15782l3.64274,-1.61619l0.63672,1.3513zM335.50614,253.25016l-0.01224,-0.01488l1.29486,-0.79767zM312.59635,267.90002h-1.53056v-1.4882h1.53056zM311.06579,235.15064v-1.4882h1.53056v1.4882zM334.83575,246.9759l0.00306,-0.00596l1.36526,0.67267zM315.57237,252.78584v-1.4882h1.53056v1.4882zM317.10293,263.51875h-1.53056v-1.4882h1.53056zM331.57259,260.17923l1.11119,1.02389zM315.57237,239.53191v-1.4882h1.53056v1.4882zM317.10293,249.91659h-1.53056v-1.4882h1.53056zM329.51857,249.91361l-0.0306,0.00297h-0.0306v-1.4882zM330.67568,246.58004h0.00306l1.15405,0.97626zM333.99087,248.68436c0.81732,0.24704 1.57648,0.6042 2.26524,1.07449l-1.76015,2.43768c-0.41937,-0.28574 -0.88773,-0.50897 -1.41423,-0.6697zM336.25611,249.75883c0.72855,0.50004 1.33466,1.13401 1.82443,1.88109l-2.58665,1.59535c-0.28774,-0.44349 -0.6214,-0.78279 -0.99793,-1.03876zM338.07136,251.62803c0.4959,0.74113 0.85406,1.58642 1.09589,2.51506l-2.96624,0.73219c-0.17449,-0.6697 -0.41326,-1.20545 -0.69487,-1.62512zM339.16725,254.14309c0.24794,0.94352 0.36122,1.98527 0.36122,3.11332h-3.06112c0,-0.93756 -0.0949,-1.72631 -0.26632,-2.38113zM339.52846,257.25641v1.56856h-3.06112v-1.56856zM339.52846,258.82496c0,2.75913 -0.71019,5.10156 -2.39686,6.74156c-1.68975,1.64298 -4.09884,2.3335 -6.93652,2.3335v-2.9764c2.36625,0 3.86008,-0.57445 4.76924,-1.46142c0.91222,-0.88697 1.50302,-2.33647 1.50302,-4.63724zM330.19508,267.90002h-17.59874v-2.9764h17.59874zM311.06579,266.41182v-31.26117h3.06112v31.26117zM312.59635,233.66244h16.68039v2.9764h-16.68039zM329.27674,233.66244c2.83767,0 5.24677,0.6935 6.93652,2.33944c1.68668,1.64595 2.39686,3.99136 2.39686,6.75644h-3.06112c0,-2.30672 -0.5908,-3.76515 -1.50302,-4.65509c-0.91222,-0.88994 -2.40604,-1.46439 -4.76924,-1.46439zM338.61012,242.75834v0.56849h-3.06112v-0.56849zM338.61012,243.32683c0,1.90192 -0.31224,3.59252 -1.04078,4.98846l-2.73052,-1.34534c0.4408,-0.8453 0.71019,-2.02991 0.71019,-3.64312zM337.57546,248.30636c-0.73467,1.42569 -1.89178,2.48232 -3.40398,3.15202l-1.27036,-2.70555c0.90916,-0.40479 1.53056,-0.99113 1.93463,-1.77691zM318.6335,252.78584v9.24472h-3.06112v-9.24472zM317.10293,260.54235h12.95744v2.9764h-12.95744zM330.06039,260.54235c1.01935,0 1.38976,-0.23811 1.5122,-0.36312l2.22238,2.04479c-0.952,0.97924 -2.32952,1.29474 -3.73457,1.29474zM331.57259,260.17923c0.15612,-0.15775 0.38876,-0.57445 0.38876,-1.57154h3.06112c0,1.35724 -0.30305,2.66983 -1.22752,3.61633zM331.96135,258.60769v-2.41983h3.06112v2.41983zM331.96135,256.18788c0,-1.02389 -0.23877,-1.42272 -0.37346,-1.55666l2.19483,-2.07455c0.93977,0.94054 1.23976,2.27099 1.23976,3.63121zM331.58789,254.63121c-0.12244,-0.12203 -0.49896,-0.35718 -1.5275,-0.35718v-2.9764c1.39588,0 2.76725,0.3036 3.72233,1.25902zM330.06039,254.27405h-12.95744v-2.9764h12.95744zM318.6335,239.53191v8.89647h-3.06112v-8.89647zM317.10293,246.94018h12.35441v2.9764h-12.35441zM329.39307,246.94018c0.89997,-0.03571 1.1969,-0.26192 1.28262,-0.36014l2.31421,1.94954c-0.86936,0.97626 -2.15809,1.33343 -3.47132,1.38403zM330.67874,246.58004c0.14694,-0.16668 0.36427,-0.58933 0.36427,-1.55368h3.06112c0,1.30367 -0.27856,2.56566 -1.11425,3.50323zM331.04301,245.02636v-2.05075h3.06112v2.05075zM331.04301,242.97561c0,-1.01793 -0.23877,-1.43761 -0.38876,-1.59238l2.22238,-2.04479c0.92446,0.94948 1.22752,2.27398 1.22752,3.63716zM330.65425,241.38323c-0.12244,-0.12501 -0.4959,-0.36312 -1.5122,-0.36312v-2.9764c1.40506,0 2.78257,0.3155 3.73457,1.29474zM329.14206,241.02011h-12.03911v-2.9764h12.03911zM343.36405,254.03295l0.00613,-0.01786l1.39893,0.6042zM344.60994,252.2114l0.01837,-0.01786l1.08365,1.05067zM347.74453,253.68769l-0.0306,0.01488l-0.5908,-1.37212zM361.74919,251.97924v1.4882h-1.53056v-1.4882zM360.21863,246.00261h1.53056v1.4882h-1.53056zM345.80071,248.97903h-1.53056v-1.4882h1.53056zM344.27015,243.19587v-1.4882h1.53056v1.4882zM361.3543,244.91622l-0.03367,-0.0119l0.62446,-1.36021zM362.27265,245.53234l-0.02143,-0.02084l-0.02143,-0.02084l1.10507,-1.02983zM362.87569,246.41634l-0.01224,-0.03274l1.41118,-0.57146zM366.16333,266.41182v1.4882h-1.53056v-1.4882zM360.21863,267.90002h-1.53056v-1.4882h1.53056zM358.69112,262.36688l3.05807,0.12203h-1.53056zM359.82374,266.37015l-0.00306,0.00297l-1.03772,-1.09531zM346.53538,267.45951l-0.03367,-0.01488l0.6214,-1.36021zM344.64973,266.24217l-0.02143,-0.02084l-0.01837,-0.02084l1.102,-1.02983zM343.37018,264.39978l-0.01224,-0.03274l1.41118,-0.57146zM348.82818,263.60506h-1.53056v-1.4882h1.53056zM361.74919,262.11687v1.4882h-1.53056v-1.4882zM360.21863,254.78599h1.53056v1.4882h-1.53056zM347.29761,256.27419v-1.4882h1.53056v1.4882zM342.90183,256.27419c0,-0.77982 0.15,-1.53582 0.46223,-2.24124l2.81318,1.17271c-0.13774,0.30955 -0.21427,0.66076 -0.21427,1.06853zM343.37018,254.01509c0.30917,-0.67564 0.71936,-1.27986 1.23976,-1.8037l2.20401,2.06562c-0.2602,0.26192 -0.47447,0.57146 -0.6459,0.9465zM344.62831,252.19354c0.54794,-0.53278 1.18772,-0.9465 1.90708,-1.23819l1.17853,2.74722c-0.35815,0.14585 -0.6612,0.34229 -0.9214,0.59528zM346.50171,250.97024c0.73773,-0.31848 1.51832,-0.4792 2.32646,-0.4792v2.9764c-0.38876,0 -0.74386,0.07441 -1.08365,0.22025zM348.82818,250.49103h11.39046v2.9764h-11.39046zM358.68807,251.97924v-4.48842h3.06112v4.48842zM360.21863,248.97903h-14.41792v-2.9764h14.41792zM344.27015,247.49081v-4.29496h3.06112v4.29496zM345.80071,241.70767h14.41792v2.9764h-14.41792zM360.21863,241.70767c0.81732,0 1.60403,0.15477 2.34788,0.47623l-1.24589,2.72043c-0.33366,-0.14585 -0.69487,-0.22025 -1.102,-0.22025zM362.53285,242.16901c0.72243,0.29466 1.3622,0.71434 1.90402,1.25902l-2.20707,2.06265c-0.23571,-0.23811 -0.52346,-0.43157 -0.87548,-0.57445zM364.39401,243.38636c0.56326,0.52682 0.9918,1.14889 1.29486,1.85132l-2.82542,1.14591c-0.14694,-0.34229 -0.34591,-0.62207 -0.5908,-0.85124zM365.67356,245.20792c0.3306,0.7203 0.48979,1.48523 0.48979,2.2829h-3.06112c0,-0.39883 -0.07653,-0.75005 -0.22652,-1.07449zM366.16333,247.49081v18.921h-3.06112v-18.921zM364.63277,267.90002h-4.41416v-2.9764h4.41416zM358.68807,266.41182v-3.9229h3.06112v3.9229zM361.74308,262.60798c-0.06123,0.73517 -0.26632,1.43165 -0.61223,2.08646l-2.72135,-1.36319c0.15917,-0.3036 0.25407,-0.62207 0.28162,-0.96435zM361.13085,264.69443c-0.33672,0.63398 -0.77446,1.19354 -1.3071,1.67571l-2.08156,-2.18468c0.27244,-0.24407 0.49284,-0.52682 0.66733,-0.85423zM359.82068,266.37313c-0.52652,0.47325 -1.13262,0.84233 -1.79995,1.1102l-1.16629,-2.75318c0.34591,-0.13989 0.63977,-0.32145 0.89079,-0.54468zM358.02075,267.48333c-0.701,0.27978 -1.43566,0.4167 -2.19789,0.4167v-2.9764c0.37346,0 0.71324,-0.06548 1.0316,-0.19347zM355.82286,267.90002h-6.99468v-2.9764h6.99468zM348.82818,267.90002c-0.7959,0 -1.56423,-0.14585 -2.29279,-0.44051l1.17853,-2.74722c0.34591,0.13989 0.71324,0.21133 1.11425,0.21133zM346.50171,267.44463c-0.69182,-0.30062 -1.31322,-0.69945 -1.85198,-1.20246l2.12442,-2.14598c0.26632,0.253 0.58773,0.46431 0.97038,0.62802zM344.60994,266.20049c-0.52039,-0.52385 -0.93058,-1.12806 -1.23976,-1.80072l2.79787,-1.20842c0.17143,0.37205 0.3857,0.68457 0.6459,0.9465zM343.35793,264.36704c-0.30611,-0.71135 -0.45611,-1.46736 -0.45611,-2.25016h3.06112c0,0.41074 0.07653,0.77387 0.2204,1.10723zM342.90183,262.11687v-5.84268h3.06112v5.84268zM348.82818,260.62867h11.39046v2.9764h-11.39046zM358.68807,262.11687v-5.84268h3.06112v5.84268zM360.21863,257.76239h-11.39046v-2.9764h11.39046zM350.35874,256.27419v5.84268h-3.06112v-5.84268zM376.40588,232.76953h1.53056v1.4882h-1.53056zM377.93644,266.41182v1.4882h-1.53056v-1.4882zM372.01009,267.90002h-1.53056v-1.4882h1.53056zM370.47953,234.25773v-1.4882h1.53056v1.4882zM377.93644,234.25773v32.1541h-3.06112v-32.1541zM376.40588,267.90002h-4.39578v-2.9764h4.39578zM370.47953,266.41182v-32.1541h3.06112v32.1541zM372.01009,232.76953h4.39578v2.9764h-4.39578zM388.15449,232.76953h1.53056v1.4882h-1.53056zM389.68505,266.41182v1.4882h-1.53056v-1.4882zM383.7587,267.90002h-1.53056v-1.4882h1.53056zM382.22814,234.25773v-1.4882h1.53056v1.4882zM389.68505,234.25773v32.1541h-3.06112v-32.1541zM388.15449,267.90002h-4.39578v-2.9764h4.39578zM382.22814,266.41182v-32.1541h3.06112v32.1541zM383.7587,232.76953h4.39578v2.9764h-4.39578z"/></g><path d="M168,143.89999c0,-39.7645 32.2355,-72 72,-72c39.7645,0 72,32.2355 72,72c0,39.7645 -32.2355,72 -72,72c-39.7645,0 -72,-32.2355 -72,-72z" fill="#ffae4e" stroke="#b56e2e" stroke-width="6" stroke-linecap="butt"/><path d="M176.55001,113.70002h126.75" fill="none" stroke="#b56e2e" stroke-width="9.5" stroke-linecap="round"/><path d="M171,143.39999l138,1" fill="none" stroke="#b56e2e" stroke-width="9.5" stroke-linecap="round"/><path d="M180.55001,181.2h118" fill="none" stroke="#b56e2e" stroke-width="9.5" stroke-linecap="round"/></g></g></svg>