<svg version="1.1" xmlns="http://www.w3.org/2000/svg" xmlns:xlink="http://www.w3.org/1999/xlink" width="18.681" height="23.80625" viewBox="0,0,18.681,23.80625"><g transform="translate(-230.6595,-156.06042)"><g data-paper-data="{&quot;isPaintingLayer&quot;:true}" fill="#000000" fill-rule="nonzero" stroke="none" stroke-width="1" stroke-linecap="butt" stroke-linejoin="miter" stroke-miterlimit="10" stroke-dasharray="" stroke-dashoffset="0" style="mix-blend-mode: normal"><path d="M233.8275,179.16667l10.047,-19.20312h-12.515v-3.20313h17.281v0.96875l-11.11,21.4375z"/><path d="M233.8275,179.86667h-1.156l0.536,-1.0245l0.62,0.3245zM243.8745,159.26355h1.156l-0.536,1.0245l-0.62,-0.3245zM231.3595,160.66354h-0.7v-0.69999h0.7zM230.6595,156.76042v-0.7h0.7v0.7zM248.6405,156.06042h0.7v0.7h-0.7zM249.3405,157.72917v0.1706l-0.079,0.15148l-0.621,-0.32208zM238.1525,179.48877l-0.196,0.3779h-0.426v-0.7zM233.2075,178.84217l10.047,-19.20313l1.24,0.64901l-10.047,19.20312zM243.8745,160.66354h-12.515v-1.39999h12.515zM230.6595,159.96355v-3.20313h1.399v3.20313zM231.3595,156.06042h17.281v1.4h-17.281zM249.3405,156.76042v0.96875h-1.4v-0.96875zM249.2615,158.05125l-11.109,21.43752l-1.243,-0.6442l11.109,-21.43748zM237.5305,179.86667h-3.703v-1.4h3.703z"/></g></g></svg>