<svg version="1.1" xmlns="http://www.w3.org/2000/svg" xmlns:xlink="http://www.w3.org/1999/xlink" width="20.76069" height="27.51468" viewBox="0,0,20.76069,27.51468"><g transform="translate(-229.61965,-166.24266)"><g data-paper-data="{&quot;isPaintingLayer&quot;:true}" fill="#ffffff" fill-rule="nonzero" stroke="none" stroke-width="1" stroke-linecap="butt" stroke-linejoin="miter" stroke-miterlimit="10" stroke-dasharray="" stroke-dashoffset="0" style="mix-blend-mode: normal"><path d="M250.38034,187.08021c-0.03835,2.23844 -0.60122,3.91417 -1.68846,5.02702c-1.08723,1.10012 -2.75023,1.65011 -4.9887,1.65011h-7.38714c-4.46426,0 -6.69639,-2.22571 -6.69639,-6.67713v-1.65026h3.85666v1.45834c0,1.03615 0.23024,1.79723 0.69074,2.28324c0.4605,0.48617 1.21521,0.72917 2.26411,0.72917h7.13771c1.04891,0 1.80363,-0.243 2.26417,-0.72917c0.46039,-0.48601 0.69066,-1.24709 0.69066,-2.28324v-3.70323c0,-1.03615 -0.23027,-1.79078 -0.69066,-2.26406c-0.46055,-0.48609 -1.21526,-0.72912 -2.26417,-0.72912h-13.16253v-13.94922h19.26417v3.93341h-15.33075v6.17832h9.36343c2.25136,0 3.92709,0.55005 5.02705,1.65012c1.10012,1.08728 1.65011,2.76298 1.65011,5.02713z"/></g></g></svg>