<svg version="1.1" xmlns="http://www.w3.org/2000/svg" xmlns:xlink="http://www.w3.org/1999/xlink" width="71.75004" height="11.30322" viewBox="0,0,71.75004,11.30322"><g transform="translate(-211.16465,-174.44678)"><g data-paper-data="{&quot;isPaintingLayer&quot;:true}" fill="#87bf3d" fill-rule="nonzero" stroke="#87bf3d" stroke-width="0.5" stroke-linecap="butt" stroke-linejoin="miter" stroke-miterlimit="10" stroke-dasharray="" stroke-dashoffset="0" style="mix-blend-mode: normal"><path d="M212.91611,174.99707v4.53369l5.00977,-4.53369h2.1167l-5.6836,5.14893l5.91065,5.354h-2.1167l-5.23682,-4.72412v4.72412h-1.50146v-10.50293zM228.09189,182.33594h-5.1636v1.72119h5.1636v1.44287h-5.1636c-0.1953,0 -0.3808,-0.0366 -0.5566,-0.1099c-0.1758,-0.0781 -0.3296,-0.1806 -0.4614,-0.3076c-0.127,-0.1318 -0.2295,-0.2856 -0.3077,-0.4614c-0.0732,-0.17579 -0.1098,-0.36378 -0.1098,-0.56397v-4.91455c0,-0.2002 0.0366,-0.38819 0.1098,-0.56397c0.0782,-0.17578 0.1807,-0.32715 0.3077,-0.4541c0.1318,-0.13183 0.2856,-0.23437 0.4614,-0.30762c0.1758,-0.07812 0.3613,-0.11718 0.5566,-0.11718h3.7207c0.2002,0 0.3882,0.03906 0.564,0.11718c0.1758,0.07325 0.3271,0.17579 0.4541,0.30762c0.1318,0.12695 0.2344,0.27832 0.3076,0.4541c0.0781,0.17578 0.1172,0.36377 0.1172,0.56397zM222.92829,179.14258v1.75049h3.7207v-1.75049zM230.04749,177.69971h1.9043v-2.40235h1.4428v2.40235h2.5635v1.44287h-2.5635v4.91455h2.5635v1.44287h-2.5635c-0.1953,0 -0.3808,-0.0366 -0.5566,-0.1099c-0.1758,-0.0781 -0.3296,-0.1806 -0.4614,-0.3076c-0.1319,-0.1318 -0.2368,-0.2856 -0.315,-0.4614c-0.0732,-0.17579 -0.1098,-0.36378 -0.1098,-0.56397v-4.91455h-1.9043zM237.91369,177.69971h1.9043v-2.40235h1.4428v2.40235h2.5635v1.44287h-2.5635v4.91455h2.5635v1.44287h-2.5635c-0.1953,0 -0.3808,-0.0366 -0.5566,-0.1099c-0.1758,-0.0781 -0.3296,-0.1806 -0.4614,-0.3076c-0.1319,-0.1318 -0.2368,-0.2856 -0.315,-0.4614c-0.0732,-0.17579 -0.1098,-0.36378 -0.1098,-0.56397v-4.91455h-1.9043zM247.66949,174.69678v10.80322h-1.4355v-10.80322zM256.67099,182.33594h-5.1636v1.72119h5.1636v1.44287h-5.1636c-0.1953,0 -0.3808,-0.0366 -0.5566,-0.1099c-0.1758,-0.0781 -0.3296,-0.1806 -0.4614,-0.3076c-0.127,-0.1318 -0.2295,-0.2856 -0.3077,-0.4614c-0.0732,-0.17579 -0.1098,-0.36378 -0.1098,-0.56397v-4.91455c0,-0.2002 0.0366,-0.38819 0.1098,-0.56397c0.0782,-0.17578 0.1807,-0.32715 0.3077,-0.4541c0.1318,-0.13183 0.2856,-0.23437 0.4614,-0.30762c0.1758,-0.07812 0.3613,-0.11718 0.5566,-0.11718h3.7207c0.2002,0 0.3882,0.03906 0.564,0.11718c0.1758,0.07325 0.3271,0.17579 0.4541,0.30762c0.1318,0.12695 0.2344,0.27832 0.3076,0.4541c0.0781,0.17578 0.1172,0.36377 0.1172,0.56397zM251.50739,179.14258v1.75049h3.7207v-1.75049zM265.98009,184.05713c0,0.20019 -0.0391,0.38818 -0.1172,0.56397c-0.0732,0.1758 -0.1758,0.3296 -0.3076,0.4614c-0.127,0.127 -0.2783,0.2295 -0.4541,0.3076c-0.1758,0.0733 -0.3638,0.1099 -0.564,0.1099h-4.021c-0.1953,0 -0.3808,-0.0366 -0.5566,-0.1099c-0.1758,-0.0781 -0.3296,-0.1806 -0.4614,-0.3076c-0.127,-0.1318 -0.2295,-0.2856 -0.3077,-0.4614c-0.0732,-0.17579 -0.1098,-0.36378 -0.1098,-0.56397v-9.36035h1.4355v4.37988c0.0098,-0.19043 0.0537,-0.36865 0.1319,-0.53467c0.0781,-0.1709 0.1806,-0.31738 0.3076,-0.43945c0.1318,-0.12695 0.2832,-0.22461 0.4541,-0.29297c0.1709,-0.07324 0.354,-0.10986 0.5493,-0.10986h2.5781c0.2002,0 0.3882,0.03906 0.564,0.11718c0.1758,0.07325 0.3271,0.17579 0.4541,0.30762c0.1318,0.12695 0.2344,0.27832 0.3076,0.4541c0.0781,0.17578 0.1172,0.36377 0.1172,0.56397zM260.51619,179.14258v4.91455h4.021v-4.91455zM274.98159,182.33594h-5.1636v1.72119h5.1636v1.44287h-5.1636c-0.1953,0 -0.3809,-0.0366 -0.5567,-0.1099c-0.1757,-0.0781 -0.3296,-0.1806 -0.4614,-0.3076c-0.1269,-0.1318 -0.2295,-0.2856 -0.3076,-0.4614c-0.0732,-0.17579 -0.1099,-0.36378 -0.1099,-0.56397v-4.91455c0,-0.2002 0.0367,-0.38819 0.1099,-0.56397c0.0781,-0.17578 0.1807,-0.32715 0.3076,-0.4541c0.1318,-0.13183 0.2857,-0.23437 0.4614,-0.30762c0.1758,-0.07812 0.3614,-0.11718 0.5567,-0.11718h3.7207c0.2002,0 0.3882,0.03906 0.5639,0.11718c0.1758,0.07325 0.3272,0.17579 0.4541,0.30762c0.1319,0.12695 0.2344,0.27832 0.3077,0.4541c0.0781,0.17578 0.1172,0.36377 0.1172,0.56397zM269.81799,179.14258v1.75049h3.7207v-1.75049zM278.82679,174.69678v10.80322h-1.4356v-10.80322zM282.66469,174.69678v10.80322h-1.4356v-10.80322z"/></g></g></svg>