<svg version="1.1" xmlns="http://www.w3.org/2000/svg" xmlns:xlink="http://www.w3.org/1999/xlink" width="18.3531" height="23.80625" viewBox="0,0,18.3531,23.80625"><g transform="translate(-230.82345,-155.89375)"><g data-paper-data="{&quot;isPaintingLayer&quot;:true}" fill="#24b0ff" fill-rule="nonzero" stroke="none" stroke-width="1" stroke-linecap="butt" stroke-linejoin="miter" stroke-miterlimit="10" stroke-dasharray="" stroke-dashoffset="0" style="mix-blend-mode: normal"><g><path d="M234.72655,159.79688v2.89062h-3.2032v-2.89062c0,-0.4375 0.0834,-0.84896 0.25,-1.23438c0.1667,-0.39583 0.3959,-0.73438 0.6876,-1.01562c0.2916,-0.29167 0.6302,-0.52084 1.0156,-0.6875c0.3958,-0.17708 0.8125,-0.26562 1.25,-0.26562h10.1406c0.4375,0 0.849,0.08854 1.2344,0.26563c0.3958,0.16666 0.7344,0.39584 1.0156,0.6875c0.2917,0.28124 0.5208,0.61979 0.6875,1.01562c0.1771,0.38542 0.2656,0.79688 0.2656,1.23438v4.09374c0,0.4375 -0.0416,0.82813 -0.125,1.17188c-0.0833,0.34375 -0.2187,0.65625 -0.4062,0.9375c-0.1771,0.2708 -0.4063,0.5156 -0.6875,0.7344c-0.2813,0.2187 -0.625,0.4271 -1.0313,0.625l-11.0937,5.2031v3.2344h10.5468v-2.875h3.2032v6.0781h-16.9532v-5.8906c0,-0.4375 0.0417,-0.8282 0.125,-1.1719c0.0938,-0.3437 0.2292,-0.651 0.4063,-0.9219c0.1771,-0.2708 0.4063,-0.5156 0.6875,-0.7344c0.2917,-0.2291 0.6302,-0.4374 1.0156,-0.625l11.1094,-5.2187v-4.64062z"/><path d="M234.02655,159.79688v-0.7h0.7v0.7zM235.42655,162.6875v0.7h-0.7v-0.7zM231.52335,163.3875h-0.6999v-0.7h0.6999zM232.41855,158.83414l-0.0026,0.00621l-0.6426,-0.27785zM232.95585,158.04185l-0.009,0.009l-0.4859,-0.50397zM233.76235,157.49835l-0.008,0.00358l-0.2778,-0.64255zM245.82985,157.50452l-0.0103,-0.00437l-0.0103,-0.0047l0.2923,-0.63608zM246.63125,158.05077l-0.0092,-0.00884l-0.0088,-0.00916l0.5039,-0.48589zM247.16855,158.85475l-0.0047,-0.01023l-0.0043,-0.01038l0.6451,-0.27164zM246.95315,165.61693l0.0034,-0.00524l0.5825,0.38831zM246.12685,167.9887l-0.0093,0.0045l-0.2973,-0.6338zM234.02655,172.5625v-0.4449l0.4027,-0.1889l0.2973,0.6338zM234.72655,176.4969h-0.7v-0.7h0.7zM245.97335,175.7969v0.7h-0.7v-0.7zM244.57345,172.9219v-0.7h0.6999v0.7zM248.47655,172.2219h0.7v0.7h-0.7zM249.17655,179v0.7h-0.7v-0.7zM231.52335,179.7h-0.6999v-0.7h0.6999zM230.96815,171.7726l0.0023,-0.0097l0.0026,-0.0096l0.6753,0.1842zM232.64055,171.3987l-0.5859,-0.3831zM233.17465,170.8317l-0.0027,0.0021l-0.4298,-0.5526zM233.45155,169.0268l0.0086,-0.0042l0.2976,0.6336zM245.56715,164.4375v0.44456l-0.4024,0.18901l-0.2976,-0.63357zM244.86715,159.09688h0.7v0.7h-0.7zM235.42655,159.79688v2.89062h-1.4v-2.89062zM234.72655,163.3875h-3.2032v-1.4h3.2032zM230.82345,162.6875v-2.89062h1.3999v2.89062zM230.82345,159.79688c0,-0.52898 0.1013,-1.03541 0.3075,-1.51222l1.2849,0.55568c-0.1271,0.29402 -0.1925,0.61051 -0.1925,0.95654zM231.12825,158.29086c0.2012,-0.47791 0.4828,-0.8969 0.8468,-1.24788l0.9717,1.00779c-0.2193,0.21152 -0.3961,0.46961 -0.5282,0.78337zM231.96595,157.0519c0.3552,-0.35523 0.7678,-0.63396 1.2327,-0.83503l0.5557,1.285c-0.3059,0.13228 -0.5704,0.31188 -0.7985,0.53998zM233.19065,156.2204c0.4866,-0.21768 1.0008,-0.32665 1.5359,-0.32665v1.4c-0.3399,0 -0.6591,0.06811 -0.9642,0.2046zM234.72655,155.89375h10.1406v1.4h-10.1406zM244.86715,155.89375c0.5351,0 1.0466,0.10901 1.5266,0.32955l-0.5845,1.27215c-0.2908,-0.13362 -0.6022,-0.2017 -0.9421,-0.2017zM246.37315,156.21423c0.4779,0.20123 0.8969,0.48277 1.2479,0.84675l-1.0078,0.97179c-0.2115,-0.21936 -0.4696,-0.39614 -0.7834,-0.52825zM247.60305,157.04298c0.364,0.35098 0.6455,0.76997 0.8467,1.24788l-1.2902,0.54328c-0.1322,-0.31376 -0.3089,-0.57185 -0.5283,-0.78337zM248.44075,158.27025c0.2205,0.48001 0.3295,0.9915 0.3295,1.52663h-1.4c0,-0.33988 -0.0681,-0.6513 -0.2017,-0.94213zM248.77025,159.79688v4.09374h-1.4v-4.09374zM248.77025,163.89062c0,0.48054 -0.0456,0.92811 -0.1447,1.3368l-1.3606,-0.32984c0.0676,-0.27881 0.1053,-0.61249 0.1053,-1.00696zM248.62555,165.22742c-0.1017,0.41962 -0.2691,0.80838 -0.5041,1.16088l-1.1649,-0.77659c0.14,-0.20997 0.2435,-0.44625 0.3084,-0.71413zM248.12495,166.3831c-0.2235,0.3417 -0.5075,0.6424 -0.8437,0.9038l-0.8595,-1.1051c0.2264,-0.176 0.4007,-0.36497 0.5314,-0.56487zM247.28125,167.2869c-0.3281,0.2552 -0.7156,0.488 -1.1544,0.7018l-0.6132,-1.2586c0.3737,-0.1821 0.6737,-0.366 0.9081,-0.5483zM246.11755,167.9931l-11.0938,5.2032l-0.5945,-1.2676l11.0938,-5.2031zM235.42655,172.5625v3.2344h-1.4v-3.2344zM234.72655,175.0969h10.5468v1.4h-10.5468zM244.57345,175.7969v-2.875h1.3999v2.875zM245.27335,172.2219h3.2032v1.4h-3.2032zM249.17655,172.9219v6.0781h-1.4v-6.0781zM248.47655,179.7h-16.9532v-1.4h16.9532zM230.82345,179v-5.8906h1.3999v5.8906zM230.82345,173.1094c0,-0.4806 0.0456,-0.9281 0.1447,-1.3368l1.3605,0.3298c-0.0675,0.2788 -0.1053,0.6125 -0.1053,1.007zM230.97305,171.7533c0.1111,-0.4072 0.2748,-0.7828 0.4957,-1.1207l1.1718,0.7661c-0.1332,0.2038 -0.2404,0.4427 -0.3168,0.723zM231.46875,170.6326c0.2235,-0.3418 0.5075,-0.6424 0.8436,-0.9039l0.8596,1.1051c-0.2264,0.176 -0.4007,0.365 -0.5314,0.5649zM232.30965,169.7308c0.3363,-0.2642 0.7185,-0.498 1.1419,-0.704l0.6125,1.2589c-0.3474,0.169 -0.6424,0.3519 -0.8894,0.546zM233.46015,169.0227l11.1094,-5.21877l0.5952,1.26714l-11.1093,5.21873zM244.16715,164.4375v-4.64062h1.4v4.64062zM244.86715,160.49687h-10.1406v-1.39999h10.1406z"/></g></g></g></svg>