<svg version="1.1" xmlns="http://www.w3.org/2000/svg" xmlns:xlink="http://www.w3.org/1999/xlink" width="130.63708" height="74.61005" viewBox="0,0,130.63708,74.61005"><g transform="translate(-174.68148,-142.69499)"><g data-paper-data="{&quot;isPaintingLayer&quot;:true}" fill-rule="nonzero" stroke-linecap="butt" stroke-linejoin="miter" stroke-miterlimit="10" stroke-dasharray="" stroke-dashoffset="0" style="mix-blend-mode: normal"><path d="M181.90264,217.30504c-3.98813,0 -5.81048,-3.43338 -5.81048,-3.43338c0,0 -1.41069,-1.22534 -1.41069,-8.15252c0,-17.8118 0,-49.47718 0,-56.65052c0,-2.7352 1.69281,-4.65695 1.69281,-4.65695c0,0 1.54023,-1.71668 5.52835,-1.71668h116.19476c3.98813,0 4.96409,1.14449 4.96409,1.14449c0,0 2.25707,1.97474 2.25707,5.22919c0,8.05723 0,42.98788 0,59.51164c0,5.31436 -1.69281,6.43584 -1.69281,6.43584c0,0 -1.54024,2.2889 -5.52836,2.2889z" fill="#c8f172" stroke="#b5e74e" stroke-width="0"/><path d="M204.95298,172.74142v7.96725h7.85638v3.40473h-7.85638v7.96725h-3.34028v-7.96725h-7.85638v-3.40473h7.85638v-7.96725zM238.04874,176.45711c0,3.45648 -1.45434,5.42663 -4.36278,5.91069l4.60132,10.0238h-3.86862l-4.53321,-9.90274h-7.65178v9.90274h-3.49359v-24.7832h13.37792c3.95382,0 5.93074,2.01065 5.93074,6.03176zM222.23363,178.94573h9.69681c0.93177,0 1.60213,-0.20725 2.0111,-0.62198c0.40897,-0.41497 0.61356,-1.0948 0.61356,-2.03948v-2.47129c0,-0.94491 -0.20459,-1.62474 -0.61356,-2.03947c-0.40897,-0.41475 -1.07933,-0.62222 -2.0111,-0.62222h-9.69681zM243.89402,167.60848h17.80908v3.5429h-14.31523v7.08603h12.21918v3.5429h-12.21918v7.06846h14.31523v3.5429h-17.80908zM266.93505,192.39163v-24.7832h13.37817c3.95382,0 5.9305,2.01065 5.9305,6.03176v3.52556c0,4.0211 -1.97668,6.03153 -5.9305,6.03153h-9.88456v9.19433zM270.42863,179.65436h9.69706c0.93153,0 1.6019,-0.20726 2.01085,-0.62222c0.40919,-0.41475 0.61357,-1.09456 0.61357,-2.03923v-3.17992c0,-0.94491 -0.20437,-1.62474 -0.61357,-2.03947c-0.40896,-0.41475 -1.07933,-0.62222 -2.01085,-0.62222h-9.69706z" fill="#2f2f2f" stroke="none" stroke-width="1"/></g></g></svg>