<svg version="1.1" xmlns="http://www.w3.org/2000/svg" xmlns:xlink="http://www.w3.org/1999/xlink" width="140.03656" height="25.65288" viewBox="0,0,140.03656,25.65288"><g transform="translate(-177.50684,-167.17356)"><g data-paper-data="{&quot;isPaintingLayer&quot;:true}" fill-rule="nonzero" stroke-linecap="butt" stroke-linejoin="miter" stroke-miterlimit="10" stroke-dasharray="" stroke-dashoffset="0" style="mix-blend-mode: normal"><path d="M317.09406,177.43472c0.34204,0.94061 0.51306,1.88121 0.42755,2.99283c0,2.47978 -0.94061,4.78853 -2.6508,6.49873c-1.71019,1.71019 -4.01895,2.6508 -6.41321,2.6508h-10.00462v3.24936l-9.91911,-5.81465l9.91911,-5.64363v3.24936h10.00462c2.22325,0 4.10445,-1.88121 4.10445,-4.18997v-0.34204l4.53201,-2.6508" fill="#e8e8e8" stroke="none" stroke-width="1"/><path d="M291.78324,179.57245c0,0.17102 0.00001,0.25653 0.08552,0.34204l-4.53201,2.65079c-0.34204,-0.94061 -0.51306,-1.96672 -0.51306,-2.99283c0,-2.47978 0.94061,-4.78853 2.6508,-6.49873c1.71019,-1.71019 4.01895,-2.6508 6.41321,-2.6508h10.09013v-3.24936l9.91911,5.81465l-9.91911,5.64363v-3.24936h-10.09013c-2.22325,0 -4.10445,1.88121 -4.10445,4.18997" fill="#e8e8e8" stroke="none" stroke-width="1"/><path d="M177.75684,172.9849c0,-0.13672 0.02604,-0.2653 0.07812,-0.38574c0.05208,-0.1237 0.1237,-0.22949 0.21484,-0.31738c0.09115,-0.09115 0.19694,-0.16276 0.31739,-0.21485c0.1237,-0.05533 0.2539,-0.083 0.39062,-0.083h3.79883c0.13672,0 0.2653,0.02767 0.38574,0.083c0.1237,0.05209 0.23112,0.1237 0.32227,0.21485c0.09114,0.08789 0.16276,0.19368 0.21484,0.31738c0.05209,0.12044 0.07813,0.24902 0.07813,0.38574v0.90332h-1.00098v-0.90332h-3.79883v5h3.79883v-0.89843h1.00098v0.89843c0,0.13672 -0.02604,0.26693 -0.07813,0.39063c-0.05208,0.12044 -0.1237,0.22624 -0.21484,0.31738c-0.09115,0.09115 -0.19857,0.16276 -0.32227,0.21485c-0.12044,0.05208 -0.24902,0.07812 -0.38574,0.07812h-3.79883c-0.13672,0 -0.26692,-0.02604 -0.39062,-0.07812c-0.12045,-0.05209 -0.22624,-0.1237 -0.31739,-0.21485c-0.09114,-0.09114 -0.16276,-0.19694 -0.21484,-0.31738c-0.05208,-0.1237 -0.07812,-0.25391 -0.07812,-0.39063zM186.07227,173.78568v5.2002h-0.96192v-5.2002zM185.06152,171.78372h1.05957v1.00098h-1.05957zM188.6846,174.7476v4.23828h-0.9571v-5.2002h0.9571v0.91797c0.0065,-0.12695 0.0358,-0.24576 0.0879,-0.35644c0.052,-0.11393 0.1204,-0.21159 0.205,-0.29297c0.0879,-0.08464 0.1888,-0.14974 0.3028,-0.19531c0.1139,-0.04883 0.236,-0.07325 0.3662,-0.07325h1.0205c0.1335,0 0.2572,0.02605 0.3711,0.07813c0.1172,0.04883 0.2197,0.11719 0.3076,0.20508c0.0879,0.08463 0.1563,0.18554 0.2051,0.30273c0.0521,0.11719 0.0781,0.24252 0.0781,0.37598v0.8789h-0.9619v-0.8789zM193.7822,174.7476v3.27637h2.4805v-0.87891h0.9619v0.87891c0,0.13346 -0.026,0.25879 -0.0781,0.37597c-0.0488,0.11719 -0.1172,0.21973 -0.2051,0.30762c-0.0846,0.08464 -0.1855,0.15299 -0.3027,0.20508c-0.1172,0.04883 -0.2425,0.07324 -0.376,0.07324h-2.4805c-0.1302,0 -0.2539,-0.02441 -0.3711,-0.07324c-0.1172,-0.05209 -0.2197,-0.12044 -0.3076,-0.20508c-0.0846,-0.08789 -0.153,-0.19043 -0.2051,-0.30762c-0.0488,-0.11718 -0.0732,-0.24251 -0.0732,-0.37597v-3.27637c0,-0.13346 0.0244,-0.25879 0.0732,-0.37598c0.0521,-0.11719 0.1205,-0.2181 0.2051,-0.30273c0.0879,-0.08789 0.1904,-0.15625 0.3076,-0.20508c0.1172,-0.05208 0.2409,-0.07813 0.3711,-0.07813h2.4805c0.1335,0 0.2588,0.02605 0.376,0.07813c0.1172,0.04883 0.2181,0.11719 0.3027,0.20508c0.0879,0.08463 0.1563,0.18554 0.2051,0.30273c0.0521,0.11719 0.0781,0.24252 0.0781,0.37598v0.8789h-0.9619v-0.8789zM198.8311,173.78568h0.957v4.23829h2.6807v-4.23829h0.9619v5.2002h-0.9619v-0.87891c-0.0098,0.12045 -0.0424,0.23438 -0.0977,0.3418c-0.0553,0.10742 -0.127,0.20182 -0.2149,0.2832c-0.0846,0.07813 -0.1822,0.13998 -0.2929,0.18555c-0.1107,0.04557 -0.2279,0.06836 -0.3516,0.06836h-1.7236c-0.1302,0 -0.2539,-0.02441 -0.3711,-0.07324c-0.1172,-0.05209 -0.2197,-0.12044 -0.3076,-0.20508c-0.0847,-0.08789 -0.153,-0.19043 -0.2051,-0.30762c-0.0488,-0.11718 -0.0732,-0.24251 -0.0732,-0.37597zM206.043,173.78568v5.2002h-0.9619v-5.2002zM205.0322,171.78372h1.0596v1.00098h-1.0596zM207.3955,173.78568h1.2695v-1.60156h0.962v1.60156h1.7089v0.96192h-1.7089v3.27637h1.7089v0.96191h-1.7089c-0.1303,0 -0.254,-0.02441 -0.3711,-0.07324c-0.1172,-0.05209 -0.2198,-0.12044 -0.3077,-0.20508c-0.0878,-0.08789 -0.1578,-0.19043 -0.2099,-0.30762c-0.0488,-0.11718 -0.0733,-0.24251 -0.0733,-0.37597v-3.27637h-1.2695z" fill="#87bf3d" stroke="#87bf3d" stroke-width="0.5"/><path d="M178.35008,186.82316h-0.70069v-4.9014h0.70069l2.94629,3.8008v-3.8008h0.70068v4.9014h-0.70068l-2.94629,-3.8008zM186.33445,186.14986c0,0.0934 -0.01823,0.1811 -0.05469,0.2631c-0.03418,0.0821 -0.08203,0.1539 -0.14355,0.2154c-0.05924,0.0592 -0.12988,0.1071 -0.21191,0.1435c-0.07976,0.0342 -0.16635,0.0513 -0.25977,0.0513h-1.80811c-0.09114,0 -0.17773,-0.0171 -0.25976,-0.0513c-0.08203,-0.0364 -0.15381,-0.0843 -0.21533,-0.1435c-0.05925,-0.0615 -0.1071,-0.1333 -0.14356,-0.2154c-0.03418,-0.082 -0.05127,-0.1697 -0.05127,-0.2631v-2.2935c0,-0.0934 0.01709,-0.1811 0.05127,-0.2632c0.03646,-0.082 0.08431,-0.1526 0.14356,-0.2119c0.06152,-0.0615 0.1333,-0.1094 0.21533,-0.1435c0.08203,-0.0365 0.16862,-0.0547 0.25976,-0.0547h1.80811c0.09342,0 0.18001,0.0182 0.25977,0.0547c0.08203,0.0341 0.15267,0.082 0.21191,0.1435c0.06152,0.0593 0.10937,0.1299 0.14355,0.2119c0.03646,0.0821 0.05469,0.1698 0.05469,0.2632zM183.85642,183.85635v2.2935h1.80811v-2.2935zM187.24702,183.18306h0.8887v-1.1211h0.6733v1.1211h1.1963v0.6733h-1.1963v2.2935h1.1963v0.6733h-1.1963c-0.0911,0 -0.1777,-0.0171 -0.2597,-0.0513c-0.0821,-0.0364 -0.1538,-0.0843 -0.2154,-0.1435c-0.0615,-0.0615 -0.1105,-0.1333 -0.1469,-0.2154c-0.0342,-0.082 -0.0513,-0.1697 -0.0513,-0.2631v-2.2935h-0.8887zM193.22852,185.23376c0,-0.0934 0.0171,-0.18 0.0512,-0.2597c0.0365,-0.0821 0.0844,-0.1538 0.1436,-0.2154c0.0615,-0.0615 0.1333,-0.1093 0.2153,-0.1435c0.0821,-0.0365 0.1687,-0.0547 0.2598,-0.0547h1.7363v-0.7041h-2.1977v-0.6733h2.1977c0.0934,0 0.1812,0.0182 0.2632,0.0547c0.082,0.0341 0.1527,0.082 0.2119,0.1435c0.0615,0.0593 0.1094,0.1299 0.1436,0.2119c0.0364,0.0821 0.0547,0.1698 0.0547,0.2632v2.9668h-0.6734v-0.6152c-0.0068,0.0843 -0.0296,0.164 -0.0683,0.2392c-0.0388,0.0752 -0.0889,0.1413 -0.1504,0.1983c-0.0593,0.0547 -0.1276,0.0979 -0.2051,0.1298c-0.0775,0.0319 -0.1595,0.0479 -0.2461,0.0479h-1.0664c-0.0911,0 -0.1777,-0.0171 -0.2598,-0.0513c-0.082,-0.0364 -0.1538,-0.0843 -0.2153,-0.1435c-0.0592,-0.0615 -0.1071,-0.1333 -0.1436,-0.2154c-0.0341,-0.082 -0.0512,-0.1697 -0.0512,-0.2631zM193.89842,186.14986h1.7363v-0.9161h-1.7363zM198.46822,186.82316l-1.456,-3.6401h0.7006l1.1041,2.8335l1.1074,-2.8335h0.7007l-1.4561,3.6401zM201.32912,185.23376c0,-0.0934 0.0171,-0.18 0.0512,-0.2597c0.0365,-0.0821 0.0843,-0.1538 0.1436,-0.2154c0.0615,-0.0615 0.1333,-0.1093 0.2153,-0.1435c0.082,-0.0365 0.1686,-0.0547 0.2598,-0.0547h1.7363v-0.7041h-2.1977v-0.6733h2.1977c0.0934,0 0.1812,0.0182 0.2632,0.0547c0.082,0.0341 0.1527,0.082 0.2119,0.1435c0.0615,0.0593 0.1094,0.1299 0.1436,0.2119c0.0364,0.0821 0.0547,0.1698 0.0547,0.2632v2.9668h-0.6734v-0.6152c-0.0068,0.0843 -0.0296,0.164 -0.0683,0.2392c-0.0388,0.0752 -0.0889,0.1413 -0.1504,0.1983c-0.0593,0.0547 -0.1276,0.0979 -0.2051,0.1298c-0.0775,0.0319 -0.1595,0.0479 -0.2461,0.0479h-1.0664c-0.0912,0 -0.1778,-0.0171 -0.2598,-0.0513c-0.082,-0.0364 -0.1538,-0.0843 -0.2153,-0.1435c-0.0593,-0.0615 -0.1071,-0.1333 -0.1436,-0.2154c-0.0341,-0.082 -0.0512,-0.1697 -0.0512,-0.2631zM201.99902,186.14986h1.7363v-0.9161h-1.7363zM206.24072,183.18306v3.6401h-0.6734v-3.6401zM205.53322,181.78166h0.7417v0.7007h-0.7417zM208.06932,181.78166v5.0415h-0.6699v-5.0415zM209.19042,185.23376c0,-0.0934 0.0171,-0.18 0.0513,-0.2597c0.0364,-0.0821 0.0843,-0.1538 0.1435,-0.2154c0.0615,-0.0615 0.1333,-0.1093 0.2153,-0.1435c0.0821,-0.0365 0.1687,-0.0547 0.2598,-0.0547h1.7363v-0.7041h-2.1977v-0.6733h2.1977c0.0935,0 0.1812,0.0182 0.2632,0.0547c0.0821,0.0341 0.1527,0.082 0.2119,0.1435c0.0616,0.0593 0.1094,0.1299 0.1436,0.2119c0.0364,0.0821 0.0547,0.1698 0.0547,0.2632v2.9668h-0.6734v-0.6152c-0.0068,0.0843 -0.0296,0.164 -0.0683,0.2392c-0.0388,0.0752 -0.0889,0.1413 -0.1504,0.1983c-0.0593,0.0547 -0.1276,0.0979 -0.2051,0.1298c-0.0775,0.0319 -0.1595,0.0479 -0.2461,0.0479h-1.0664c-0.0911,0 -0.1777,-0.0171 -0.2598,-0.0513c-0.082,-0.0364 -0.1538,-0.0843 -0.2153,-0.1435c-0.0592,-0.0615 -0.1071,-0.1333 -0.1435,-0.2154c-0.0342,-0.082 -0.0513,-0.1697 -0.0513,-0.2631zM209.86032,186.14986h1.7363v-0.9161h-1.7363zM216.61422,186.14986c0,0.0934 -0.0182,0.1811 -0.0547,0.2631c-0.0341,0.0821 -0.082,0.1539 -0.1435,0.2154c-0.0593,0.0592 -0.1299,0.1071 -0.2119,0.1435c-0.0821,0.0342 -0.1698,0.0513 -0.2632,0.0513h-1.8765c-0.0911,0 -0.1777,-0.0171 -0.2598,-0.0513c-0.082,-0.0364 -0.1538,-0.0843 -0.2153,-0.1435c-0.0592,-0.0615 -0.1071,-0.1333 -0.1435,-0.2154c-0.0342,-0.082 -0.0513,-0.1697 -0.0513,-0.2631v-4.3682h0.6699v2.0439c0.0046,-0.0888 0.0251,-0.172 0.0615,-0.2495c0.0365,-0.0797 0.0843,-0.1481 0.1436,-0.205c0.0615,-0.0593 0.1322,-0.1049 0.2119,-0.1368c0.0798,-0.0341 0.1652,-0.0512 0.2564,-0.0512h1.2031c0.0934,0 0.1811,0.0182 0.2632,0.0547c0.082,0.0341 0.1526,0.082 0.2119,0.1435c0.0615,0.0593 0.1094,0.1299 0.1435,0.2119c0.0365,0.0821 0.0547,0.1698 0.0547,0.2632zM214.06442,183.85635v2.2935h1.8765v-2.2935zM218.40522,181.78166v5.0415h-0.6699v-5.0415zM222.60592,185.34656h-2.4097v0.8033h2.4097v0.6733h-2.4097c-0.0911,0 -0.1777,-0.0171 -0.2597,-0.0513c-0.082,-0.0364 -0.1538,-0.0843 -0.2153,-0.1435c-0.0593,-0.0615 -0.1071,-0.1333 -0.1436,-0.2154c-0.0342,-0.082 -0.0513,-0.1697 -0.0513,-0.2631v-2.2935c0,-0.0934 0.0171,-0.1811 0.0513,-0.2632c0.0365,-0.082 0.0843,-0.1526 0.1436,-0.2119c0.0615,-0.0615 0.1333,-0.1094 0.2153,-0.1435c0.082,-0.0365 0.1686,-0.0547 0.2597,-0.0547h1.7364c0.0934,0 0.1811,0.0182 0.2632,0.0547c0.082,0.0341 0.1526,0.082 0.2119,0.1435c0.0615,0.0593 0.1093,0.1299 0.1435,0.2119c0.0365,0.0821 0.0547,0.1698 0.0547,0.2632zM220.19622,183.85635v0.8169h1.7364v-0.8169zM226.58442,186.82316l-1.1757,-3.6401h0.6801l0.8614,2.7446l0.8032,-2.7446h0.687l0.8032,2.7446l0.8613,-2.7446h0.6802l-1.1758,3.6401h-0.7006l-0.8135,-2.6729l-0.8101,2.6729zM232.19672,183.18306v3.6401h-0.6733v-3.6401zM231.48922,181.78166h0.7417v0.7007h-0.7417zM233.14352,183.18306h0.8887v-1.1211h0.6733v1.1211h1.1963v0.6733h-1.1963v2.2935h1.1963v0.6733h-1.1963c-0.0911,0 -0.1777,-0.0171 -0.2597,-0.0513c-0.0821,-0.0364 -0.1538,-0.0843 -0.2154,-0.1435c-0.0615,-0.0615 -0.1105,-0.1333 -0.1469,-0.2154c-0.0342,-0.082 -0.0513,-0.1697 -0.0513,-0.2631v-2.2935h-0.8887zM240.24612,186.82316h-0.6734v-2.9668h-1.8765v2.9668h-0.6699v-5.0415h0.6699v2.0439c0.0046,-0.0888 0.0251,-0.172 0.0616,-0.2495c0.0364,-0.0797 0.0843,-0.1481 0.1435,-0.205c0.0615,-0.0593 0.1322,-0.1049 0.2119,-0.1368c0.0798,-0.0341 0.1652,-0.0512 0.2564,-0.0512h1.2031c0.0934,0 0.1812,0.0182 0.2632,0.0547c0.082,0.0341 0.1527,0.082 0.2119,0.1435c0.0615,0.0593 0.1094,0.1299 0.1436,0.2119c0.0364,0.0821 0.0547,0.1698 0.0547,0.2632zM244.13572,183.85635v2.2935h1.7363v-0.6153h0.6734v0.6153c0,0.0934 -0.0183,0.1811 -0.0547,0.2631c-0.0342,0.0821 -0.082,0.1539 -0.1436,0.2154c-0.0592,0.0592 -0.1299,0.1071 -0.2119,0.1435c-0.082,0.0342 -0.1697,0.0513 -0.2632,0.0513h-1.7363c-0.0911,0 -0.1777,-0.0171 -0.2598,-0.0513c-0.082,-0.0364 -0.1538,-0.0843 -0.2153,-0.1435c-0.0592,-0.0615 -0.1071,-0.1333 -0.1436,-0.2154c-0.0341,-0.082 -0.0512,-0.1697 -0.0512,-0.2631v-2.2935c0,-0.0934 0.0171,-0.1811 0.0512,-0.2632c0.0365,-0.082 0.0844,-0.1526 0.1436,-0.2119c0.0615,-0.0615 0.1333,-0.1094 0.2153,-0.1435c0.0821,-0.0365 0.1687,-0.0547 0.2598,-0.0547h1.7363c0.0935,0 0.1812,0.0182 0.2632,0.0547c0.082,0.0341 0.1527,0.082 0.2119,0.1435c0.0616,0.0593 0.1094,0.1299 0.1436,0.2119c0.0364,0.0821 0.0547,0.1698 0.0547,0.2632v0.6152h-0.6734v-0.6152zM247.66992,183.18306h0.6699v2.9668h1.8765v-2.9668h0.6733v3.6401h-0.6733v-0.6152c-0.0069,0.0843 -0.0297,0.164 -0.0684,0.2392c-0.0387,0.0752 -0.0889,0.1413 -0.1504,0.1983c-0.0592,0.0547 -0.1276,0.0979 -0.2051,0.1298c-0.0774,0.0319 -0.1595,0.0479 -0.2461,0.0479h-1.2065c-0.0911,0 -0.1777,-0.0171 -0.2598,-0.0513c-0.082,-0.0364 -0.1538,-0.0843 -0.2153,-0.1435c-0.0592,-0.0615 -0.1071,-0.1333 -0.1435,-0.2154c-0.0342,-0.082 -0.0513,-0.1697 -0.0513,-0.2631zM252.68062,183.85635v2.9668h-0.6699v-3.6401h0.6699v0.6425c0.0046,-0.0888 0.0251,-0.172 0.0615,-0.2495c0.0365,-0.0797 0.0844,-0.1481 0.1436,-0.205c0.0615,-0.0593 0.1322,-0.1049 0.2119,-0.1368c0.0798,-0.0341 0.1652,-0.0512 0.2564,-0.0512h0.7143c0.0934,0 0.18,0.0182 0.2598,0.0547c0.082,0.0341 0.1538,0.082 0.2153,0.1435c0.0615,0.0593 0.1094,0.1299 0.1436,0.2119c0.0364,0.0821 0.0547,0.1698 0.0547,0.2632v0.6152h-0.6734v-0.6152zM256.24902,183.85635v2.9668h-0.6699v-3.6401h0.6699v0.6425c0.0045,-0.0888 0.025,-0.172 0.0615,-0.2495c0.0365,-0.0797 0.0843,-0.1481 0.1436,-0.205c0.0615,-0.0593 0.1321,-0.1049 0.2119,-0.1368c0.0797,-0.0341 0.1652,-0.0512 0.2563,-0.0512h0.7144c0.0934,0 0.18,0.0182 0.2597,0.0547c0.0821,0.0341 0.1539,0.082 0.2154,0.1435c0.0615,0.0593 0.1094,0.1299 0.1435,0.2119c0.0365,0.0821 0.0547,0.1698 0.0547,0.2632v0.6152h-0.6733v-0.6152zM262.22702,185.34656h-2.4097v0.8033h2.4097v0.6733h-2.4097c-0.0911,0 -0.1777,-0.0171 -0.2597,-0.0513c-0.0821,-0.0364 -0.1538,-0.0843 -0.2154,-0.1435c-0.0592,-0.0615 -0.1071,-0.1333 -0.1435,-0.2154c-0.0342,-0.082 -0.0513,-0.1697 -0.0513,-0.2631v-2.2935c0,-0.0934 0.0171,-0.1811 0.0513,-0.2632c0.0364,-0.082 0.0843,-0.1526 0.1435,-0.2119c0.0616,-0.0615 0.1333,-0.1094 0.2154,-0.1435c0.082,-0.0365 0.1686,-0.0547 0.2597,-0.0547h1.7364c0.0934,0 0.1811,0.0182 0.2632,0.0547c0.082,0.0341 0.1526,0.082 0.2119,0.1435c0.0615,0.0593 0.1093,0.1299 0.1435,0.2119c0.0365,0.0821 0.0547,0.1698 0.0547,0.2632zM259.81732,183.85635v0.8169h1.7364v-0.8169zM266.57122,186.82316h-0.6733v-2.9668h-1.8765v2.9668h-0.6699v-3.6401h0.6699v0.6425c0.0046,-0.0888 0.0251,-0.172 0.0616,-0.2495c0.0364,-0.0797 0.0843,-0.1481 0.1435,-0.205c0.0615,-0.0593 0.1322,-0.1049 0.2119,-0.1368c0.0798,-0.0341 0.1652,-0.0512 0.2564,-0.0512h1.2031c0.0934,0 0.1812,0.0182 0.2632,0.0547c0.082,0.0341 0.1527,0.082 0.2119,0.1435c0.0615,0.0593 0.1094,0.1299 0.1436,0.2119c0.0364,0.0821 0.0546,0.1698 0.0546,0.2632zM267.48042,183.18306h0.8887v-1.1211h0.6733v1.1211h1.1963v0.6733h-1.1963v2.2935h1.1963v0.6733h-1.1963c-0.0911,0 -0.1777,-0.0171 -0.2597,-0.0513c-0.0821,-0.0364 -0.1538,-0.0843 -0.2154,-0.1435c-0.0615,-0.0615 -0.1105,-0.1333 -0.1469,-0.2154c-0.0342,-0.082 -0.0513,-0.1697 -0.0513,-0.2631v-2.2935h-0.8887zM275.65962,186.14986v-0.8443h-1.5962c-0.0934,0 -0.1811,-0.0171 -0.2631,-0.0512c-0.0821,-0.0365 -0.1539,-0.0844 -0.2154,-0.1436c-0.0592,-0.0615 -0.1071,-0.1333 -0.1435,-0.2153c-0.0342,-0.0821 -0.0513,-0.1698 -0.0513,-0.2632v-0.7759c0,-0.0934 0.0171,-0.1811 0.0513,-0.2632c0.0364,-0.082 0.0843,-0.1526 0.1435,-0.2119c0.0615,-0.0615 0.1333,-0.1094 0.2154,-0.1435c0.082,-0.0365 0.1697,-0.0547 0.2631,-0.0547h2.1294v0.6733h-2.1294v0.7759h1.5962c0.0935,0 0.18,0.0182 0.2598,0.0547c0.082,0.0341 0.1538,0.082 0.2153,0.1435c0.0615,0.0593 0.1094,0.1299 0.1436,0.2119c0.0364,0.0821 0.0547,0.1698 0.0547,0.2632v0.8443c0,0.0934 -0.0183,0.1811 -0.0547,0.2631c-0.0342,0.0821 -0.0821,0.1539 -0.1436,0.2154c-0.0615,0.0592 -0.1333,0.1071 -0.2153,0.1435c-0.0798,0.0342 -0.1663,0.0513 -0.2598,0.0513h-2.2695v-0.6733zM280.46562,185.34656h-2.41v0.8033h2.41v0.6733h-2.41c-0.091,0 -0.178,-0.0171 -0.26,-0.0513c-0.082,-0.0364 -0.154,-0.0843 -0.215,-0.1435c-0.059,-0.0615 -0.107,-0.1333 -0.144,-0.2154c-0.034,-0.082 -0.051,-0.1697 -0.051,-0.2631v-2.2935c0,-0.0934 0.017,-0.1811 0.051,-0.2632c0.037,-0.082 0.085,-0.1526 0.144,-0.2119c0.061,-0.0615 0.133,-0.1094 0.215,-0.1435c0.082,-0.0365 0.169,-0.0547 0.26,-0.0547h1.736c0.094,0 0.182,0.0182 0.264,0.0547c0.082,0.0341 0.152,0.082 0.211,0.1435c0.062,0.0593 0.11,0.1299 0.144,0.2119c0.036,0.0821 0.055,0.1698 0.055,0.2632zM278.05562,183.85635v0.8169h1.736v-0.8169zM281.37762,183.18306h0.889v-1.1211h0.673v1.1211h1.197v0.6733h-1.197v2.2935h1.197v0.6733h-1.197c-0.091,0 -0.177,-0.0171 -0.259,-0.0513c-0.082,-0.0364 -0.154,-0.0843 -0.216,-0.1435c-0.061,-0.0615 -0.11,-0.1333 -0.147,-0.2154c-0.034,-0.082 -0.051,-0.1697 -0.051,-0.2631v-2.2935h-0.889zM285.04862,183.18306h0.889v-1.1211h0.673v1.1211h1.196v0.6733h-1.196v2.2935h1.196v0.6733h-1.196c-0.091,0 -0.178,-0.0171 -0.26,-0.0513c-0.082,-0.0364 -0.153,-0.0843 -0.215,-0.1435c-0.061,-0.0615 -0.11,-0.1333 -0.147,-0.2154c-0.034,-0.082 -0.051,-0.1697 -0.051,-0.2631v-2.2935h-0.889zM289.63962,183.18306v3.6401h-0.674v-3.6401zM288.93162,181.78166h0.742v0.7007h-0.742zM294.01762,186.82316h-0.673v-2.9668h-1.877v2.9668h-0.67v-3.6401h0.67v0.6425c0.005,-0.0888 0.025,-0.172 0.062,-0.2495c0.036,-0.0797 0.084,-0.1481 0.143,-0.205c0.062,-0.0593 0.132,-0.1049 0.212,-0.1368c0.08,-0.0341 0.165,-0.0512 0.256,-0.0512h1.204c0.093,0 0.181,0.0182 0.263,0.0547c0.082,0.0341 0.152,0.082 0.212,0.1435c0.061,0.0593 0.109,0.1299 0.143,0.2119c0.037,0.0821 0.055,0.1698 0.055,0.2632zM295.13862,183.85635c0,-0.0934 0.017,-0.1811 0.051,-0.2632c0.037,-0.082 0.085,-0.1526 0.144,-0.2119c0.061,-0.0615 0.133,-0.1094 0.215,-0.1435c0.082,-0.0365 0.169,-0.0547 0.26,-0.0547h1.206c0.089,0 0.174,0.0171 0.253,0.0512c0.08,0.0319 0.15,0.0775 0.209,0.1368c0.061,0.0569 0.11,0.1253 0.147,0.205c0.039,0.0775 0.059,0.1607 0.061,0.2495v-0.6425h0.674v4.4365c0,0.0934 -0.018,0.1811 -0.055,0.2632c-0.034,0.082 -0.082,0.1526 -0.143,0.2119c-0.06,0.0615 -0.13,0.1094 -0.212,0.1435c-0.082,0.0365 -0.17,0.0547 -0.264,0.0547h-2.126v-0.6733h2.126v-0.9365h-1.876c-0.091,0 -0.178,-0.0171 -0.26,-0.0513c-0.082,-0.0365 -0.154,-0.0843 -0.215,-0.1436c-0.059,-0.0615 -0.107,-0.1333 -0.144,-0.2153c-0.034,-0.082 -0.051,-0.1698 -0.051,-0.2632zM297.68462,186.00965v-2.1533h-1.876v2.1533zM301.67762,186.14986v-0.8443h-1.597c-0.093,0 -0.181,-0.0171 -0.263,-0.0512c-0.082,-0.0365 -0.154,-0.0844 -0.215,-0.1436c-0.059,-0.0615 -0.107,-0.1333 -0.144,-0.2153c-0.034,-0.0821 -0.051,-0.1698 -0.051,-0.2632v-0.7759c0,-0.0934 0.017,-0.1811 0.051,-0.2632c0.037,-0.082 0.085,-0.1526 0.144,-0.2119c0.061,-0.0615 0.133,-0.1094 0.215,-0.1435c0.082,-0.0365 0.17,-0.0547 0.263,-0.0547h2.13v0.6733h-2.13v0.7759h1.597c0.093,0 0.18,0.0182 0.259,0.0547c0.082,0.0341 0.154,0.082 0.216,0.1435c0.061,0.0593 0.109,0.1299 0.143,0.2119c0.037,0.0821 0.055,0.1698 0.055,0.2632v0.8443c0,0.0934 -0.018,0.1811 -0.055,0.2631c-0.034,0.0821 -0.082,0.1539 -0.143,0.2154c-0.062,0.0592 -0.134,0.1071 -0.216,0.1435c-0.079,0.0342 -0.166,0.0513 -0.259,0.0513h-2.27v-0.6733z" fill="#86ca47" stroke="none" stroke-width="1"/></g></g></svg>