<svg version="1.1" xmlns="http://www.w3.org/2000/svg" xmlns:xlink="http://www.w3.org/1999/xlink" width="5.09961" height="5.7002" viewBox="0,0,5.09961,5.7002"><g transform="translate(-237.45019,-174.5498)"><g data-paper-data="{&quot;isPaintingLayer&quot;:true}" fill="#ffffff" fill-rule="nonzero" stroke="#ffffff" stroke-width="0.5" stroke-linecap="butt" stroke-linejoin="miter" stroke-miterlimit="10" stroke-dasharray="" stroke-dashoffset="0" style="mix-blend-mode: normal"><path d="M242.2998,180h-0.96191v-4.23828h-2.68067v4.23828h-0.95703v-5.2002h0.95703v0.91797c0.00651,-0.12695 0.03581,-0.24576 0.08789,-0.35644c0.05209,-0.11393 0.12045,-0.21159 0.20508,-0.29297c0.08789,-0.08464 0.1888,-0.14974 0.30274,-0.19531c0.11393,-0.04883 0.236,-0.07324 0.36621,-0.07324h1.71875c0.13346,0 0.25879,0.02604 0.37597,0.07813c0.11719,0.04883 0.2181,0.11719 0.30274,0.20508c0.08789,0.08463 0.15625,0.18554 0.20508,0.30273c0.05208,0.11719 0.07812,0.24252 0.07812,0.37598z"/></g></g></svg>