<svg version="1.1" xmlns="http://www.w3.org/2000/svg" xmlns:xlink="http://www.w3.org/1999/xlink" width="127.99693" height="30" viewBox="0,0,127.99693,30"><g transform="translate(-176.49307,-165)"><g data-paper-data="{&quot;isPaintingLayer&quot;:true}" fill-rule="nonzero" stroke-linecap="butt" stroke-linejoin="miter" stroke-miterlimit="10" stroke-dasharray="" stroke-dashoffset="0" style="mix-blend-mode: normal"><path d="M304.49,168.11807v23.76383c0,1.7221 -0.7579,3.1181 -1.69174,3.1181h-124.61345c-0.93432,0 -1.69174,-1.396 -1.69174,-3.1181v-23.76383c0,-1.72206 0.75741,-3.11807 1.69174,-3.11807h124.61345c0.93384,0 1.69174,1.39601 1.69174,3.11807z" fill="#3c92f4" stroke="none" stroke-width="1"/><path d="M181.97461,179.10352c-0.24609,0 -0.48047,-0.04688 -0.70313,-0.14063c-0.21679,-0.09961 -0.40722,-0.22851 -0.57128,-0.38672c-0.16407,-0.16406 -0.29297,-0.35449 -0.38672,-0.57129c-0.09375,-0.22265 -0.14062,-0.45703 -0.14062,-0.70312v-3.60352c0,-0.24609 0.04688,-0.47754 0.14063,-0.69433c0.09375,-0.22266 0.22265,-0.41309 0.38672,-0.57129c0.16406,-0.16406 0.35449,-0.29297 0.57128,-0.38672c0.22266,-0.09961 0.45704,-0.14941 0.70313,-0.14941h6.11719c0.24609,0 0.47754,0.04981 0.69433,0.14941c0.22266,0.09375 0.41602,0.22266 0.58008,0.38672c0.16409,0.1582 0.29299,0.34863 0.38669,0.57129c0.0938,0.21679 0.1407,0.44824 0.1407,0.69433v1.62598h-1.8018v-1.62598h-6.11719v3.60352h6.11719c0.24609,0 0.47754,0.04687 0.69433,0.14062c0.22266,0.09375 0.41602,0.22266 0.58008,0.38672c0.16409,0.16406 0.29299,0.35742 0.38669,0.58008c0.0938,0.2168 0.1407,0.44824 0.1407,0.69434v3.59468c0,0.2461 -0.0469,0.4805 -0.1407,0.7032c-0.0937,0.2168 -0.2226,0.4072 -0.38669,0.5713c-0.16406,0.164 -0.35742,0.2929 -0.58008,0.3867c-0.21679,0.0937 -0.44824,0.1406 -0.69433,0.1406h-6.29297c-0.2461,0 -0.48047,-0.0469 -0.70313,-0.1406c-0.21679,-0.0938 -0.40722,-0.2227 -0.57129,-0.3867c-0.16406,-0.1641 -0.29296,-0.3545 -0.38671,-0.5713c-0.09375,-0.2227 -0.14062,-0.4571 -0.14062,-0.7032v-1.61715h1.80176v1.61715h6.29297v-3.59468zM199.1572,184.5l-4.4648,-3.99902v3.99902h-1.7227v-12.96387h1.7227v7.29492l4.1045,-3.6914h2.4345l-5.0273,4.51758l5.3877,4.84277zM204.668,175.13965v9.36035h-1.7315v-9.36035zM202.8486,171.53613h1.9073v1.80176h-1.9073zM215.9268,182.7686c0,0.2402 -0.0469,0.4658 -0.1407,0.6767c-0.0879,0.2109 -0.2109,0.3955 -0.3691,0.5537c-0.1524,0.1524 -0.334,0.2754 -0.5449,0.3692c-0.211,0.0879 -0.4366,0.1318 -0.6768,0.1318h-4.8252v3.7793h-1.7226v-13.13965h1.7226v1.58203c0.0176,-0.22266 0.0762,-0.42773 0.1758,-0.61523c0.0996,-0.19336 0.2256,-0.36036 0.3779,-0.50098c0.1524,-0.14649 0.3282,-0.26074 0.5274,-0.34277c0.205,-0.08204 0.4218,-0.12305 0.6504,-0.12305h3.0937c0.2402,0 0.4658,0.04687 0.6768,0.14062c0.2109,0.08789 0.3925,0.21094 0.5449,0.36914c0.1582,0.15235 0.2812,0.33399 0.3691,0.54493c0.0938,0.21093 0.1407,0.43652 0.1407,0.67675zM214.1953,182.7686v-5.89751h-4.8252v5.89751zM224.3818,171.89648h9.1846v1.80176h-7.3828v3.60352h6.3018v1.80176h-6.3018v3.59468h7.3828v1.8018h-9.1846zM244.2451,175.13965l-3.4013,4.57031l3.5595,4.79004h-2.0918l-2.5136,-3.38379l-2.5225,3.38379h-2.0918l3.5684,-4.79004l-3.4014,-4.57031h2.083l2.3643,3.16406l2.3554,-3.16406zM254.3086,180.70312h-6.1963v2.06548h6.1963v1.7314h-6.1963c-0.2344,0 -0.457,-0.0439 -0.668,-0.1318c-0.2109,-0.0938 -0.3955,-0.2168 -0.5537,-0.3692c-0.1523,-0.1582 -0.2754,-0.3428 -0.3691,-0.5537c-0.0879,-0.2109 -0.1319,-0.4365 -0.1319,-0.6767v-5.89751c0,-0.24023 0.044,-0.46582 0.1319,-0.67675c0.0937,-0.21094 0.2168,-0.39258 0.3691,-0.54493c0.1582,-0.1582 0.3428,-0.28125 0.5537,-0.36914c0.211,-0.09375 0.4336,-0.14062 0.668,-0.14062h4.4648c0.2403,0 0.4659,0.04687 0.6768,0.14062c0.2109,0.08789 0.3926,0.21094 0.5449,0.36914c0.1582,0.15235 0.2813,0.33399 0.3692,0.54493c0.0937,0.21093 0.1406,0.43652 0.1406,0.67675zM248.1123,176.87109v2.10059h4.4648v-2.10059zM258.9229,176.87109v7.62891h-1.7227v-9.36035h1.7227v1.65234c0.0117,-0.22851 0.0644,-0.44238 0.1582,-0.6416c0.0937,-0.20508 0.2168,-0.38086 0.3691,-0.52734c0.1582,-0.15235 0.3398,-0.26953 0.5449,-0.35157c0.2051,-0.08789 0.4248,-0.13183 0.6592,-0.13183h1.8369c0.2402,0 0.4629,0.04687 0.668,0.14062c0.2109,0.08789 0.3955,0.21094 0.5537,0.36914c0.1582,0.15235 0.2812,0.33399 0.3691,0.54493c0.0938,0.21093 0.1407,0.43652 0.1407,0.67675v1.58203h-1.7315v-1.58203zM268.0986,176.87109v5.89751h4.4649v-1.58208h1.7314v1.58208c0,0.2402 -0.0469,0.4658 -0.1406,0.6767c-0.0879,0.2109 -0.2109,0.3955 -0.3691,0.5537c-0.1524,0.1524 -0.334,0.2754 -0.545,0.3692c-0.2109,0.0879 -0.4365,0.1318 -0.6767,0.1318h-4.4649c-0.2343,0 -0.457,-0.0439 -0.6679,-0.1318c-0.211,-0.0938 -0.3955,-0.2168 -0.5537,-0.3692c-0.1524,-0.1582 -0.2754,-0.3428 -0.3692,-0.5537c-0.0879,-0.2109 -0.1318,-0.4365 -0.1318,-0.6767v-5.89751c0,-0.24023 0.0439,-0.46582 0.1318,-0.67675c0.0938,-0.21094 0.2168,-0.39258 0.3692,-0.54493c0.1582,-0.1582 0.3427,-0.28125 0.5537,-0.36914c0.2109,-0.09375 0.4336,-0.14062 0.6679,-0.14062h4.4649c0.2402,0 0.4658,0.04687 0.6767,0.14062c0.211,0.08789 0.3926,0.21094 0.545,0.36914c0.1582,0.15235 0.2812,0.33399 0.3691,0.54493c0.0937,0.21093 0.1406,0.43652 0.1406,0.67675v1.58203h-1.7314v-1.58203zM279.0059,175.13965v9.36035h-1.7315v-9.36035zM277.1865,171.53613h1.9073v1.80176h-1.9073zM287.637,182.7686v-2.17094h-4.105c-0.24,0 -0.466,-0.04395 -0.677,-0.13184c-0.21,-0.09375 -0.395,-0.2168 -0.553,-0.36914c-0.153,-0.1582 -0.276,-0.34277 -0.369,-0.55371c-0.088,-0.21094 -0.132,-0.43652 -0.132,-0.67676v-1.99512c0,-0.24023 0.044,-0.46582 0.132,-0.67675c0.093,-0.21094 0.216,-0.39258 0.369,-0.54493c0.158,-0.1582 0.343,-0.28125 0.553,-0.36914c0.211,-0.09375 0.437,-0.14062 0.677,-0.14062h5.476v1.73144h-5.476v1.99512h4.105c0.24,0 0.463,0.04688 0.668,0.14063c0.211,0.08789 0.395,0.21093 0.553,0.36914c0.159,0.15234 0.282,0.33398 0.37,0.54492c0.093,0.21094 0.14,0.43652 0.14,0.67676v2.17094c0,0.2402 -0.047,0.4658 -0.14,0.6767c-0.088,0.2109 -0.211,0.3955 -0.37,0.5537c-0.158,0.1524 -0.342,0.2754 -0.553,0.3692c-0.205,0.0879 -0.428,0.1318 -0.668,0.1318h-5.836v-1.7314zM299.994,180.70312h-6.196v2.06548h6.196v1.7314h-6.196c-0.235,0 -0.457,-0.0439 -0.668,-0.1318c-0.211,-0.0938 -0.396,-0.2168 -0.554,-0.3692c-0.152,-0.1582 -0.275,-0.3428 -0.369,-0.5537c-0.088,-0.2109 -0.132,-0.4365 -0.132,-0.6767v-5.89751c0,-0.24023 0.044,-0.46582 0.132,-0.67675c0.094,-0.21094 0.217,-0.39258 0.369,-0.54493c0.158,-0.1582 0.343,-0.28125 0.554,-0.36914c0.211,-0.09375 0.433,-0.14062 0.668,-0.14062h4.465c0.24,0 0.466,0.04687 0.676,0.14062c0.211,0.08789 0.393,0.21094 0.545,0.36914c0.159,0.15235 0.282,0.33399 0.37,0.54493c0.093,0.21093 0.14,0.43652 0.14,0.67675zM293.798,176.87109v2.10059h4.465v-2.10059z" fill="#ffffff" stroke="#ffffff" stroke-width="0.25"/></g></g></svg>