<svg version="1.1" xmlns="http://www.w3.org/2000/svg" xmlns:xlink="http://www.w3.org/1999/xlink" width="44.48481" height="43.86881" viewBox="0,0,44.48481,43.86881"><g transform="translate(-217.75759,-158.0656)"><g data-paper-data="{&quot;isPaintingLayer&quot;:true}" stroke-linejoin="miter" stroke-miterlimit="10" stroke-dasharray="" stroke-dashoffset="0" style="mix-blend-mode: normal"><path d="M247.52398,179.81735c0,0 4.02235,2.52226 3.86796,5.17852c-0.21613,3.71577 -3.86796,4.51376 -3.86796,4.51376l-3.08202,1.07461l-3.21956,0.21818l-6.80964,0.16084c0,0 -6.12194,0.23528 -6.58789,-0.37902c-0.33122,-0.4335 -0.48279,-1.37748 -0.48279,-1.37748c0,0 0.13473,-2.25218 0.21894,-3.69525c0.02526,-0.43235 0.0421,-0.82078 0.05895,-1.18554c0.05333,-1.14077 0.09263,-2.05538 0.32841,-3.38781c0.26105,-1.47418 0.66524,-2.48004 1.10313,-3.57119c0.2835,-0.70387 0.57823,-1.44336 0.85892,-2.36681c0.51648,-1.68978 1.19014,-4.36631 1.19014,-4.36631c0,0 -0.16,-1.71543 0.51928,-2.81573c0.01123,-0.01681 0.02246,-0.03394 0.03088,-0.05078c0.79436,-1.2828 1.76837,-2.8619 2.30169,-3.051c1.09751,-0.38814 3.73884,0.97595 3.73884,0.97595c0,0 1.72627,0.38758 1.8189,1.25456c0.0421,0.40156 -0.26385,0.90776 -0.4435,1.16415l-0.04491,-0.08727l-1.01331,0.56184c-0.46315,0.25611 -0.99085,0.36392 -1.51294,0.30857l-1.16488,-0.1232l0.1207,-1.03781l0.85612,0.09153l0.06737,0.2661l0.40701,-0.10894l-0.05052,-0.19792l1.19014,-0.29318l-0.10105,-0.41582l-1.36137,0.33568l-1.06664,-0.11407l-0.26385,-0.44661l-0.3621,0.22018l0.28069,0.47569l-0.13754,1.20179h-0.30034v0.42778h0.47718l1.36417,0.1443c0.60911,0.06417 1.22383,-0.06074 1.75995,-0.35847l1.01331,-0.56184l-0.05895,-0.10694c0.21894,0.0599 0.51928,0.27893 0.51928,1.03382c0,0.64568 -0.68489,1.3153 -1.39505,2.01005c-0.38455,0.37532 -0.77472,0.75804 -1.06944,1.14818c-1.32207,1.19068 -2.35783,0.9323 -2.35783,0.9323l-0.17122,1.16216l-0.27789,8.02193v2.39505l2.11643,-3.37753c0,0 2.58238,-2.93864 4.83074,-3.31651c1.40347,-0.23615 2.25678,-0.03222 3.62657,0.36847c1.04137,0.30545 2.53747,1.14706 2.53747,1.14706z" fill="#ffffff" fill-rule="evenodd" stroke="none" stroke-width="1" stroke-linecap="butt"/><g fill="none" fill-rule="nonzero" stroke="#ffffff" stroke-width="4.5" stroke-linecap="round"><path d="M255.10272,191.50997c-3.79218,5.3351 -10.13025,8.61711 -17.0662,8.12601c-10.67479,-0.75605 -18.7251,-10.16 -17.98126,-21.00475c0.74665,-10.84447 10.00113,-19.02294 20.67592,-18.2672c7.30366,0.51735 13.37788,5.08472 16.24657,11.39233"/><path d="M259.99241,164.24978l-2.00977,9.8443l-9.60254,-2.43014"/></g></g></g></svg>