<svg version="1.1" xmlns="http://www.w3.org/2000/svg" xmlns:xlink="http://www.w3.org/1999/xlink" width="86.45833" height="33.79479" viewBox="0,0,86.45833,33.79479"><g transform="translate(-196.77087,-163.10261)"><g data-paper-data="{&quot;isPaintingLayer&quot;:true}" fill-rule="nonzero" stroke="none" stroke-width="1" stroke-linecap="butt" stroke-linejoin="miter" stroke-miterlimit="10" stroke-dasharray="" stroke-dashoffset="0" style="mix-blend-mode: normal"><path d="M283.2292,166.87171v26.25655c0,2.08158 -1.59901,3.76913 -3.57143,3.76913h-79.31545c-1.97247,0 -3.57145,-1.68755 -3.57145,-3.76913v-26.25655c0,-2.08162 1.59898,-3.76911 3.57145,-3.76911h79.31545c1.97243,0 3.57143,1.68748 3.57143,3.76911z" fill="#35f2dc"/><path d="M221.88414,168.37597c0,-0.2157 0.04102,-0.41858 0.12321,-0.60861c0.08219,-0.19517 0.19521,-0.36207 0.33892,-0.50074c0.14386,-0.1438 0.31082,-0.2568 0.50072,-0.33897c0.19521,-0.08731 0.4006,-0.13097 0.61632,-0.13097h5.99356c0.21572,0 0.41867,0.04366 0.60872,0.13097c0.19507,0.08218 0.3646,0.19517 0.50847,0.33897c0.14372,0.13867 0.25675,0.30558 0.33892,0.50074c0.08219,0.19003 0.12321,0.3929 0.12321,0.60861v1.4252h-1.57932v-1.4252h-5.99356v7.88867h5.99356v-1.41753h1.57932v1.41753c0,0.21572 -0.04102,0.42111 -0.12321,0.61632c-0.08219,0.19004 -0.19521,0.357 -0.33892,0.50072c-0.14386,0.14386 -0.3134,0.25689 -0.50847,0.33908c-0.19004,0.08219 -0.393,0.12321 -0.60872,0.12321h-5.99356c-0.21572,0 -0.42111,-0.04102 -0.61632,-0.12321c-0.1899,-0.08219 -0.35686,-0.19521 -0.50072,-0.33908c-0.14372,-0.14372 -0.25675,-0.31068 -0.33892,-0.50072c-0.08219,-0.19521 -0.12321,-0.4006 -0.12321,-0.61632c0,0 0,-2.1482 0,-3.34934c0,-1.39832 0,-4.53933 0,-4.53933zM240.50423,176.32631c0,0.21056 -0.04116,0.40835 -0.12321,0.59323c-0.07716,0.18489 -0.18503,0.34667 -0.32358,0.48522c-0.13354,0.13354 -0.29274,0.24139 -0.47763,0.32358c-0.17986,0.07702 -0.37493,0.1156 -0.58549,0.1156h-4.07545c-0.2054,0 -0.40046,-0.03859 -0.58549,-0.1156c-0.18489,-0.08219 -0.34667,-0.19004 -0.48522,-0.32358c-0.13354,-0.13855 -0.24139,-0.30035 -0.32358,-0.48522c-0.07702,-0.18489 -0.1156,-0.38268 -0.1156,-0.59323v-5.16928c0,-0.21057 0.03859,-0.4083 0.1156,-0.59319c0.08219,-0.1849 0.19004,-0.3441 0.32358,-0.47764c0.13855,-0.13867 0.30035,-0.24653 0.48522,-0.32357c0.18503,-0.08218 0.38009,-0.12325 0.58549,-0.12325h4.07545c0.21056,0 0.40563,0.04108 0.58549,0.12325c0.18489,0.07704 0.34409,0.1849 0.47763,0.32357c0.13855,0.13354 0.24641,0.29274 0.32358,0.47764c0.08205,0.18489 0.12321,0.38262 0.12321,0.59319zM234.91888,171.15704v5.16928h4.07545v-5.16928zM250.29584,176.32631c0,0.21056 -0.04116,0.40835 -0.12335,0.59323c-0.07702,0.18489 -0.18489,0.34667 -0.32358,0.48522c-0.13354,0.13354 -0.29274,0.24139 -0.47763,0.32358c-0.18489,0.07702 -0.38254,0.1156 -0.59323,0.1156h-4.22935v3.31269h-1.5099v-11.51725h1.5099v1.38667c0.0155,-0.19517 0.06683,-0.37492 0.15405,-0.53926c0.08735,-0.1695 0.19779,-0.31587 0.33133,-0.43913c0.13354,-0.1284 0.28757,-0.22855 0.46228,-0.30044c0.17972,-0.07191 0.36976,-0.10784 0.56999,-0.10784h2.71171c0.2107,0 0.40835,0.04108 0.59323,0.12325c0.18489,0.07704 0.34409,0.1849 0.47763,0.32357c0.1387,0.13354 0.24656,0.29274 0.32358,0.47764c0.08219,0.18489 0.12335,0.38262 0.12335,0.59319zM248.77806,176.32631v-5.16928h-4.22935c0,0 0,1.84286 0,2.72679c0,0.83657 0,2.44249 0,2.44249zM253.37732,181.15665l1.71787,-4.05222c0,0 -1.01372,-2.35002 -1.53784,-3.56503c-0.54818,-1.27081 -1.68234,-3.9 -1.68234,-3.9h1.59466l2.39602,5.6469c0,0 0.85949,-2.02574 1.27009,-2.9935c0.38657,-0.91112 1.12578,-2.6534 1.12578,-2.6534h1.59466l-4.96903,11.51725zM220.1438,183.73533c0,-0.2157 0.04116,-0.41858 0.12335,-0.60861c0.08219,-0.19517 0.19507,-0.36207 0.33892,-0.50074c0.14386,-0.1438 0.31068,-0.2568 0.50072,-0.33897c0.19521,-0.08731 0.4006,-0.13097 0.61632,-0.13097h5.99356c0.21572,0 0.41853,0.04366 0.60858,0.13097c0.19521,0.08218 0.36475,0.19517 0.50847,0.33897c0.14386,0.13867 0.25689,0.30558 0.33892,0.50074c0.08219,0.19003 0.12335,0.3929 0.12335,0.60861v1.4252h-1.57932v-1.4252h-5.99356v7.88867h5.99356v-1.41753h1.57932v1.41753c0,0.21572 -0.04116,0.42111 -0.12335,0.61632c-0.08205,0.19004 -0.19507,0.357 -0.33892,0.50072c-0.14372,0.14386 -0.31325,0.25689 -0.50847,0.33908c-0.19004,0.08219 -0.39285,0.12321 -0.60858,0.12321h-5.99356c-0.21572,0 -0.42111,-0.04102 -0.61632,-0.12321c-0.19004,-0.08219 -0.35686,-0.19521 -0.50072,-0.33908c-0.14386,-0.14372 -0.25675,-0.31068 -0.33892,-0.50072c-0.08219,-0.19521 -0.12335,-0.4006 -0.12335,-0.61632zM238.76403,191.68566c0,0.21056 -0.04116,0.40835 -0.12335,0.59323c-0.07702,0.18489 -0.18489,0.34667 -0.32358,0.48522c-0.13354,0.13354 -0.29274,0.24139 -0.47763,0.32358c-0.17972,0.07702 -0.37493,0.1156 -0.58549,0.1156h-4.07531c-0.2054,0 -0.4006,-0.03859 -0.58549,-0.1156c-0.18489,-0.08219 -0.34667,-0.19004 -0.48538,-0.32358c-0.13354,-0.13855 -0.24139,-0.30035 -0.32358,-0.48522c-0.07702,-0.18489 -0.11546,-0.38268 -0.11546,-0.59323v-5.16928c0,-0.21057 0.03844,-0.4083 0.11546,-0.59319c0.08219,-0.1849 0.19004,-0.3441 0.32358,-0.47764c0.1387,-0.13867 0.30049,-0.24653 0.48538,-0.32357c0.18489,-0.08218 0.38009,-0.12325 0.58549,-0.12325h4.07531c0.21056,0 0.40577,0.04108 0.58549,0.12325c0.18489,0.07704 0.34409,0.1849 0.47763,0.32357c0.1387,0.13354 0.24656,0.29274 0.32358,0.47764c0.08219,0.18489 0.12335,0.38262 0.12335,0.59319zM233.17867,186.5164v5.16928h4.07531v-5.16928zM241.29846,186.5164c0,-0.21057 0.03859,-0.4083 0.1156,-0.59319c0.08219,-0.1849 0.19004,-0.3441 0.32358,-0.47764c0.1387,-0.13867 0.30049,-0.24653 0.48538,-0.32357c0.18489,-0.08218 0.38009,-0.12325 0.58549,-0.12325h4.22935v-3.15857h1.51764v11.36313h-1.51764v-1.3867c-0.01534,0.19004 -0.06669,0.36976 -0.15405,0.53931c-0.08735,0.16939 -0.20037,0.31841 -0.33892,0.44679c-0.13354,0.12321 -0.28773,0.22088 -0.46228,0.29274c-0.17456,0.07186 -0.35958,0.10786 -0.55465,0.10786h-2.71945c-0.2054,0 -0.4006,-0.03859 -0.58549,-0.1156c-0.18489,-0.08219 -0.34667,-0.19004 -0.48538,-0.32358c-0.13354,-0.13855 -0.24139,-0.30035 -0.32358,-0.48522c-0.07702,-0.18489 -0.1156,-0.38268 -0.1156,-0.59323zM242.80851,191.68566h4.22935v-5.16928h-4.22935zM258.02354,189.87528h-5.43116v1.81039h5.43116v1.51764h-5.43116c-0.20554,0 -0.4006,-0.03859 -0.58549,-0.1156c-0.18489,-0.08219 -0.34667,-0.19004 -0.48538,-0.32358c-0.13354,-0.13855 -0.24139,-0.30035 -0.32358,-0.48522c-0.07702,-0.18489 -0.1156,-0.38268 -0.1156,-0.59323v-5.16928c0,-0.21057 0.03859,-0.4083 0.1156,-0.59319c0.08219,-0.1849 0.19004,-0.3441 0.32358,-0.47764c0.1387,-0.13867 0.30049,-0.24653 0.48538,-0.32357c0.18489,-0.08218 0.37995,-0.12325 0.58549,-0.12325h3.91352c0.21056,0 0.40835,0.04108 0.59323,0.12325c0.18489,0.07704 0.34409,0.1849 0.47763,0.32357c0.13855,0.13354 0.24641,0.29274 0.32358,0.47764c0.08205,0.18489 0.12321,0.38262 0.12321,0.59319zM252.59237,186.5164v1.84121h3.91352v-1.84121z" fill="#000000"/></g></g></svg>