<svg version="1.1" xmlns="http://www.w3.org/2000/svg" xmlns:xlink="http://www.w3.org/1999/xlink" width="65.79925" height="90.50241" viewBox="0,0,65.79925,90.50241"><g transform="translate(-215.24942,-133.99759)"><g data-paper-data="{&quot;isPaintingLayer&quot;:true}" fill="#a0a0a0" fill-rule="nonzero" stroke-linecap="butt" stroke-linejoin="miter" stroke-miterlimit="10" stroke-dasharray="" stroke-dashoffset="0" style="mix-blend-mode: normal"><path d="M215.49942,134.71175h12.98514v2.32079h-5.33208v13.91345h-2.32085v-13.91345h-5.33221zM233.38661,138.88918v12.05681h-2.23029v-12.05681zM231.04312,134.24759h2.45669v2.32079h-2.45669zM246.77926,141.11941v9.82659h-2.23029v-9.82659h-5.10568v9.82659h-2.21897v-12.05681h2.21897v2.12833c0.01514,-0.29434 0.08306,-0.56981 0.20376,-0.82642c0.1207,-0.26416 0.27931,-0.49057 0.47544,-0.67926c0.20389,-0.19623 0.43779,-0.34718 0.70197,-0.45284c0.26418,-0.11321 0.54717,-0.16981 0.84899,-0.16981h2.87552c0.29445,0 0.57363,0.0566 0.83781,0.16981c0.26418,0.10566 0.49807,0.25661 0.70183,0.45284c0.20389,0.18869 0.36606,0.4151 0.48689,0.67926c0.12834,0.25661 0.19626,0.53208 0.20376,0.82642c0.01514,-0.29434 0.07924,-0.56981 0.19244,-0.82642c0.12084,-0.26416 0.27931,-0.49057 0.47544,-0.67926c0.20389,-0.19623 0.43779,-0.34718 0.70197,-0.45284c0.26418,-0.11321 0.54717,-0.16981 0.84913,-0.16981h2.87539c0.30946,0 0.60009,0.06038 0.87177,0.18113c0.27168,0.11321 0.50571,0.2717 0.70197,0.47548c0.20376,0.19623 0.36224,0.4302 0.47544,0.7019c0.1207,0.2717 0.18112,0.56227 0.18112,0.87171v9.82659h-2.23029v-9.82659zM268.02874,146.0554h-7.98134v2.66031h7.98134v2.23029h-7.98134c-0.30182,0 -0.58863,-0.0566 -0.86031,-0.1698c-0.27181,-0.12084 -0.50953,-0.27931 -0.71329,-0.47544c-0.19626,-0.20389 -0.35474,-0.44161 -0.47544,-0.71329c-0.1132,-0.27168 -0.1698,-0.56231 -0.1698,-0.87177v-7.5963c0,-0.30944 0.0566,-0.60001 0.1698,-0.87171c0.1207,-0.2717 0.27918,-0.50567 0.47544,-0.7019c0.20376,-0.20377 0.44148,-0.36226 0.71329,-0.47548c0.27168,-0.12075 0.55849,-0.18113 0.86031,-0.18113h5.75105c0.30946,0 0.60009,0.06038 0.87177,0.18113c0.27168,0.11321 0.50558,0.2717 0.70183,0.47548c0.20376,0.19623 0.36224,0.4302 0.47557,0.7019c0.1207,0.2717 0.18112,0.56227 0.18112,0.87171zM260.0474,141.11941v2.7057h5.75105v-2.7057zM273.97222,141.11941v9.82659h-2.21897v-12.05681h2.21897v2.12833c0.015,-0.29434 0.08292,-0.56981 0.20376,-0.82642c0.1207,-0.26416 0.27918,-0.49057 0.47544,-0.67926c0.20376,-0.19623 0.43779,-0.34718 0.70197,-0.45284c0.26418,-0.11321 0.54717,-0.16981 0.84899,-0.16981h2.36613c0.30946,0 0.59627,0.06038 0.86045,0.18113c0.27168,0.11321 0.50939,0.2717 0.71315,0.47548c0.20376,0.19623 0.36224,0.4302 0.47544,0.7019c0.12084,0.2717 0.18112,0.56227 0.18112,0.87171v2.03782h-2.23015v-2.03782z" stroke="#a0a0a0" stroke-width="0.5"/><path d="M257.0833,156.5c1.887,0 3.4167,1.5222 3.4167,3.4v17h-0.0342l0.0342,0.034l-13.6667,13.566l13.6567,13.59c0.0055,0.0055 0.0055,0.0145 0,0.02l-0.0071,0.007c-0.0063,0.0063 -0.0018,0.017 0.0071,0.017c0.0055,0 0.01,0.0045 0.01,0.01v16.956c0,1.8778 -1.5297,3.4 -3.4167,3.4h-34.1666c-1.887,0 -3.4167,-1.5222 -3.4167,-3.4v-16.956c0,-0.0055 0.0045,-0.01 0.01,-0.01c0.0089,0 0.0134,-0.0107 0.0071,-0.017l-0.0071,-0.007c-0.0055,-0.0055 -0.0055,-0.0145 0,-0.02l13.6567,-13.59l-13.6667,-13.566l0.0342,-0.034c-0.0189,0 -0.0342,-0.0152 -0.0342,-0.034v-16.966c0,-1.8778 1.5297,-3.4 3.4167,-3.4zM240,192.2l-13.6667,13.6v8.5c0,1.8778 1.5297,3.4 3.4167,3.4h20.5c1.887,0 3.4167,-1.5222 3.4167,-3.4v-8.5zM253.6667,175.2v-8.5c0,-1.8778 -1.5297,-3.4 -3.4167,-3.4h-20.5c-1.887,0 -3.4167,1.5222 -3.4167,3.4v8.5l13.6667,13.6z" stroke="none" stroke-width="1"/><path d="M224.4407,174.579c0,0 9.013,5.2774 15.3282,5.1398c7.107,-0.1549 16.6614,-7.2953 16.6614,-7.2953l-12.9959,17.5749l-6.9977,-1.658z" stroke="none" stroke-width="1"/><path d="M238.664,207.2526c0.6839,-0.8543 1.9884,-0.8543 2.6723,0l8.622,10.7697h-19.9163z" stroke="none" stroke-width="1"/><path d="M239.3231,191.4944h1.1123v16.6984h-1.1123z" stroke="none" stroke-width="1"/></g></g></svg>