<svg version="1.1" xmlns="http://www.w3.org/2000/svg" xmlns:xlink="http://www.w3.org/1999/xlink" width="4.21463" height="4.82513" viewBox="0,0,4.21463,4.82513"><g transform="translate(-237.8927,-177.58745)"><g data-paper-data="{&quot;isPaintingLayer&quot;:true}" fill="#060606" stroke="none" stroke-width="1" stroke-linecap="butt" stroke-linejoin="miter" stroke-miterlimit="10" stroke-dasharray="" stroke-dashoffset="0" style="mix-blend-mode: normal"><path d="M240.96155,178.23561l-1.36536,-0.20035l0.06371,-0.44781l1.365,0.20032z" fill-rule="nonzero"/><path d="M242.10733,179.08266l-0.36825,0.27057c0.23074,0.38589 0.33693,0.84723 0.26962,1.32196c-0.15839,1.11287 -1.20121,1.88103 -2.33439,1.71476c-1.13318,-0.1663 -1.91971,-1.20291 -1.76133,-2.31578c0.15803,-1.11287 1.20337,-1.88073 2.33439,-1.71476c0.48236,0.07077 0.90244,0.30159 1.21561,0.63101l0.36825,-0.27054c0.10259,0.11108 0.19438,0.23422 0.2761,0.36278zM239.7013,180.56521l0.455,0.06678l0.19114,-1.34354l-0.455,-0.06678zM239.01664,178.89277c-0.05076,-0.04832 -0.13067,-0.04564 -0.17818,0.00592c-0.04752,0.0516 -0.045,0.13262 0.00576,0.18093l0.22282,0.21209c0.05076,0.04832 0.13067,0.04568 0.17818,-0.00592c0.04752,-0.0516 0.045,-0.13262 -0.00576,-0.18093zM238.25207,179.70598c0.01548,-0.06883 0.08351,-0.11162 0.15119,-0.09557l0.31461,0.07454c0.06767,0.01605 0.10979,0.08489 0.09395,0.15376c-0.01584,0.06883 -0.08351,0.11162 -0.15119,0.09557l-0.31461,-0.07454c-0.06767,-0.01605 -0.10979,-0.08489 -0.09395,-0.15376zM238.32046,180.5771c-0.06407,0.02754 -0.09395,0.10263 -0.06695,0.16776c0.02736,0.0651 0.10115,0.09557 0.16523,0.06803l0.31965,-0.13726c0.06407,-0.02751 0.09395,-0.10263 0.06695,-0.16773c-0.027,-0.06514 -0.10115,-0.0956 -0.16523,-0.06806z" fill-rule="evenodd"/></g></g></svg>