<svg version="1.1" xmlns="http://www.w3.org/2000/svg" xmlns:xlink="http://www.w3.org/1999/xlink" width="43.63235" height="11.30322" viewBox="0,0,43.63235,11.30322"><g transform="translate(-209.85283,-174.34839)"><g data-paper-data="{&quot;isPaintingLayer&quot;:true}" fill="#87bf3d" fill-rule="nonzero" stroke="#87bf3d" stroke-width="0.5" stroke-linecap="butt" stroke-linejoin="miter" stroke-miterlimit="10" stroke-dasharray="" stroke-dashoffset="0" style="mix-blend-mode: normal"><path d="M210.10283,176.40015c0,-0.20508 0.03906,-0.39795 0.11719,-0.57862c0.07813,-0.18554 0.18555,-0.34424 0.32226,-0.47607c0.13672,-0.13672 0.29541,-0.24414 0.47607,-0.32227c0.18555,-0.08301 0.38086,-0.12451 0.58594,-0.12451h5.69824c0.20508,0 0.39795,0.0415 0.57862,0.12451c0.18554,0.07813 0.34668,0.18555 0.4834,0.32227c0.13671,0.13183 0.24414,0.29053 0.32226,0.47607c0.07813,0.18067 0.11719,0.37354 0.11719,0.57862v1.35498h-1.50147v-1.35498h-5.69824v7.5h5.69824v-1.34766h1.50147v1.34766c0,0.20507 -0.03906,0.40039 -0.11719,0.58596c-0.07812,0.1806 -0.18555,0.3393 -0.32226,0.476c-0.13672,0.1368 -0.29786,0.2442 -0.4834,0.3223c-0.18067,0.0781 -0.37354,0.1172 -0.57862,0.1172h-5.69824c-0.20508,0 -0.40039,-0.0391 -0.58594,-0.1172c-0.18066,-0.0781 -0.33935,-0.1855 -0.47607,-0.3223c-0.13672,-0.1367 -0.24414,-0.2954 -0.32226,-0.476c-0.07812,-0.18557 -0.11719,-0.38089 -0.11719,-0.58596zM227.95928,185.40161h-1.4429v-6.35742h-4.021v6.35742h-1.4355v-10.80322h1.4355v4.37988c0.0098,-0.19043 0.0537,-0.36865 0.1319,-0.53467c0.0781,-0.1709 0.1806,-0.31738 0.3076,-0.43945c0.1318,-0.12695 0.2832,-0.22461 0.4541,-0.29297c0.1709,-0.07324 0.354,-0.10986 0.5493,-0.10986h2.5781c0.2002,0 0.3882,0.03906 0.564,0.11718c0.1758,0.07325 0.3271,0.17579 0.4541,0.30762c0.1318,0.12695 0.2344,0.27832 0.3076,0.4541c0.0781,0.17578 0.1172,0.36377 0.1172,0.56397zM236.96078,182.23755h-5.1636v1.72119h5.1636v1.44287h-5.1636c-0.1953,0 -0.3809,-0.0366 -0.5566,-0.1099c-0.1758,-0.0781 -0.3296,-0.1806 -0.4615,-0.3076c-0.1269,-0.1318 -0.2295,-0.2856 -0.3076,-0.4614c-0.0732,-0.17579 -0.1099,-0.36378 -0.1099,-0.56397v-4.91455c0,-0.2002 0.0367,-0.38819 0.1099,-0.56397c0.0781,-0.17578 0.1807,-0.32715 0.3076,-0.4541c0.1319,-0.13183 0.2857,-0.23437 0.4615,-0.30762c0.1757,-0.07812 0.3613,-0.11718 0.5566,-0.11718h3.7207c0.2002,0 0.3882,0.03906 0.564,0.11718c0.1757,0.07325 0.3271,0.17579 0.4541,0.30762c0.1318,0.12695 0.2343,0.27832 0.3076,0.4541c0.0781,0.17578 0.1172,0.36377 0.1172,0.56397zM231.79718,179.04419v1.75049h3.7207v-1.75049zM244.07988,183.95874v-1.80908h-3.4204c-0.2002,0 -0.3882,-0.03662 -0.564,-0.10987c-0.1757,-0.07812 -0.3296,-0.18066 -0.4614,-0.30761c-0.1269,-0.13184 -0.2295,-0.28565 -0.3076,-0.46143c-0.0733,-0.17578 -0.1099,-0.36377 -0.1099,-0.56396v-1.6626c0,-0.2002 0.0366,-0.38819 0.1099,-0.56397c0.0781,-0.17578 0.1807,-0.32715 0.3076,-0.4541c0.1318,-0.13183 0.2857,-0.23437 0.4614,-0.30762c0.1758,-0.07812 0.3638,-0.11718 0.564,-0.11718h4.563v1.44287h-4.563v1.6626h3.4204c0.2002,0 0.3857,0.03906 0.5566,0.11718c0.1758,0.07325 0.3296,0.17578 0.4615,0.30762c0.1318,0.12695 0.2343,0.27832 0.3076,0.4541c0.0781,0.17578 0.1172,0.36377 0.1172,0.56397v1.80908c0,0.20019 -0.0391,0.38818 -0.1172,0.56397c-0.0733,0.1758 -0.1758,0.3296 -0.3076,0.4614c-0.1319,0.127 -0.2857,0.2295 -0.4615,0.3076c-0.1709,0.0733 -0.3564,0.1099 -0.5566,0.1099h-4.8633v-1.44287zM247.32448,177.60132h1.9043v-2.40235h1.4429v2.40235h2.5635v1.44287h-2.5635v4.91455h2.5635v1.44287h-2.5635c-0.1953,0 -0.3809,-0.0366 -0.5566,-0.1099c-0.1758,-0.0781 -0.3296,-0.1806 -0.4615,-0.3076c-0.1318,-0.1318 -0.2368,-0.2856 -0.3149,-0.4614c-0.0732,-0.17579 -0.1099,-0.36378 -0.1099,-0.56397v-4.91455h-1.9043z"/></g></g></svg>