<svg xmlns="http://www.w3.org/2000/svg" fill="none" viewBox="0 0 208 24" height="24" width="208">
<path fill="black" d="M0.246094 2.99756C0.246094 2.65576 0.311198 2.33431 0.441406 2.0332C0.571615 1.72396 0.750651 1.45947 0.978516 1.23975C1.20638 1.01188 1.47087 0.832845 1.77197 0.702637C2.08122 0.56429 2.40674 0.495117 2.74854 0.495117H12.2456C12.5874 0.495117 12.9089 0.56429 13.21 0.702637C13.5192 0.832845 13.7878 1.01188 14.0156 1.23975C14.2435 1.45947 14.4225 1.72396 14.5527 2.0332C14.6829 2.33431 14.748 2.65576 14.748 2.99756V5.25586H12.2456V2.99756H2.74854V15.4976H12.2456V13.2515H14.748V15.4976C14.748 15.8394 14.6829 16.1649 14.5527 16.4741C14.4225 16.7752 14.2435 17.0397 14.0156 17.2676C13.7878 17.4954 13.5192 17.6745 13.21 17.8047C12.9089 17.9349 12.5874 18 12.2456 18H2.74854C2.40674 18 2.08122 17.9349 1.77197 17.8047C1.47087 17.6745 1.20638 17.4954 0.978516 17.2676C0.750651 17.0397 0.571615 16.7752 0.441406 16.4741C0.311198 16.1649 0.246094 15.8394 0.246094 15.4976V2.99756ZM29.7505 15.5952C29.7505 15.9289 29.6854 16.2422 29.5552 16.5352C29.4331 16.8281 29.2622 17.0845 29.0425 17.3042C28.8309 17.5158 28.5786 17.6867 28.2856 17.8169C28.0008 17.939 27.6916 18 27.3579 18H20.9004C20.5749 18 20.2656 17.939 19.9727 17.8169C19.6797 17.6867 19.4233 17.5158 19.2036 17.3042C18.992 17.0845 18.8211 16.8281 18.6909 16.5352C18.5688 16.2422 18.5078 15.9289 18.5078 15.5952V7.4043C18.5078 7.07064 18.5688 6.75732 18.6909 6.46436C18.8211 6.17139 18.992 5.91911 19.2036 5.70752C19.4233 5.48779 19.6797 5.31689 19.9727 5.19482C20.2656 5.06462 20.5749 4.99951 20.9004 4.99951H27.3579C27.6916 4.99951 28.0008 5.06462 28.2856 5.19482C28.5786 5.31689 28.8309 5.48779 29.0425 5.70752C29.2622 5.91911 29.4331 6.17139 29.5552 6.46436C29.6854 6.75732 29.7505 7.07064 29.7505 7.4043V15.5952ZM20.9004 7.4043V15.5952H27.3579V7.4043H20.9004ZM44.0693 7.4043V18H41.6646V7.4043H36.1592V18H33.7666V4.99951H36.1592V7.29443C36.1755 6.97705 36.2487 6.68001 36.3789 6.40332C36.5091 6.11849 36.68 5.87435 36.8916 5.6709C37.1113 5.45931 37.3636 5.29655 37.6484 5.18262C37.9333 5.06055 38.2384 4.99951 38.564 4.99951H41.6646C41.9819 4.99951 42.283 5.06055 42.5679 5.18262C42.8527 5.29655 43.105 5.45931 43.3247 5.6709C43.5444 5.87435 43.7194 6.11849 43.8496 6.40332C43.988 6.68001 44.0612 6.97705 44.0693 7.29443C44.0856 6.97705 44.1548 6.68001 44.2769 6.40332C44.4071 6.11849 44.578 5.87435 44.7896 5.6709C45.0093 5.45931 45.2616 5.29655 45.5464 5.18262C45.8312 5.06055 46.1364 4.99951 46.4619 4.99951H49.5625C49.8962 4.99951 50.2095 5.06462 50.5024 5.19482C50.7954 5.31689 51.0477 5.48779 51.2593 5.70752C51.479 5.91911 51.6499 6.17139 51.772 6.46436C51.9022 6.75732 51.9673 7.07064 51.9673 7.4043V18H49.5625V7.4043H44.0693ZM67.4824 15.5952C67.4824 15.9289 67.4173 16.2422 67.2871 16.5352C67.165 16.8281 66.9941 17.0845 66.7744 17.3042C66.5628 17.5158 66.3105 17.6867 66.0176 17.8169C65.7246 17.939 65.4113 18 65.0776 18H58.376V23.249H55.9834V4.99951H58.376V7.19678C58.4004 6.88753 58.4818 6.6027 58.6201 6.34229C58.7585 6.07373 58.9334 5.8418 59.145 5.64648C59.3566 5.44303 59.6007 5.28434 59.8774 5.17041C60.1623 5.05648 60.4634 4.99951 60.7808 4.99951H65.0776C65.4113 4.99951 65.7246 5.06462 66.0176 5.19482C66.3105 5.31689 66.5628 5.48779 66.7744 5.70752C66.9941 5.91911 67.165 6.17139 67.2871 6.46436C67.4173 6.75732 67.4824 7.07064 67.4824 7.4043V15.5952ZM65.0776 15.5952V7.4043H58.376V15.5952H65.0776ZM73.8789 -0.00537109V18H71.4863V-0.00537109H73.8789ZM88.8813 12.7266H80.2754V15.5952H88.8813V18H80.2754C79.9499 18 79.6406 17.939 79.3477 17.8169C79.0547 17.6867 78.7983 17.5158 78.5786 17.3042C78.367 17.0845 78.1961 16.8281 78.0659 16.5352C77.9438 16.2422 77.8828 15.9289 77.8828 15.5952V7.4043C77.8828 7.07064 77.9438 6.75732 78.0659 6.46436C78.1961 6.17139 78.367 5.91911 78.5786 5.70752C78.7983 5.48779 79.0547 5.31689 79.3477 5.19482C79.6406 5.06462 79.9499 4.99951 80.2754 4.99951H86.4766C86.8102 4.99951 87.1235 5.06462 87.4165 5.19482C87.7095 5.31689 87.9618 5.48779 88.1733 5.70752C88.3931 5.91911 88.564 6.17139 88.686 6.46436C88.8162 6.75732 88.8813 7.07064 88.8813 7.4043V12.7266ZM80.2754 7.4043V10.3218H86.4766V7.4043H80.2754ZM92.1406 4.99951H95.3145V0.995605H97.7192V4.99951H101.992V7.4043H97.7192V15.5952H101.992V18H97.7192C97.3937 18 97.0845 17.939 96.7915 17.8169C96.4985 17.6867 96.2422 17.5158 96.0225 17.3042C95.8027 17.0845 95.6278 16.8281 95.4976 16.5352C95.3755 16.2422 95.3145 15.9289 95.3145 15.5952V7.4043H92.1406V4.99951ZM117.006 12.7266H108.4V15.5952H117.006V18H108.4C108.075 18 107.766 17.939 107.473 17.8169C107.18 17.6867 106.923 17.5158 106.704 17.3042C106.492 17.0845 106.321 16.8281 106.191 16.5352C106.069 16.2422 106.008 15.9289 106.008 15.5952V7.4043C106.008 7.07064 106.069 6.75732 106.191 6.46436C106.321 6.17139 106.492 5.91911 106.704 5.70752C106.923 5.48779 107.18 5.31689 107.473 5.19482C107.766 5.06462 108.075 4.99951 108.4 4.99951H114.602C114.935 4.99951 115.249 5.06462 115.542 5.19482C115.834 5.31689 116.087 5.48779 116.298 5.70752C116.518 5.91911 116.689 6.17139 116.811 6.46436C116.941 6.75732 117.006 7.07064 117.006 7.4043V12.7266ZM108.4 7.4043V10.3218H114.602V7.4043H108.4ZM121.022 7.4043C121.022 7.07064 121.083 6.75732 121.206 6.46436C121.336 6.17139 121.507 5.91911 121.718 5.70752C121.938 5.48779 122.194 5.31689 122.487 5.19482C122.78 5.06462 123.09 4.99951 123.415 4.99951H130.117V-0.00537109H132.521V18H130.117V15.8027C130.092 16.1038 130.011 16.3887 129.873 16.6572C129.734 16.9258 129.555 17.1618 129.335 17.3652C129.124 17.5605 128.88 17.7152 128.603 17.8291C128.326 17.943 128.033 18 127.724 18H123.415C123.09 18 122.78 17.939 122.487 17.8169C122.194 17.6867 121.938 17.5158 121.718 17.3042C121.507 17.0845 121.336 16.8281 121.206 16.5352C121.083 16.2422 121.022 15.9289 121.022 15.5952V7.4043ZM123.415 15.5952H130.117V7.4043H123.415V15.5952ZM146.767 10.5049C146.425 10.5049 146.1 10.4398 145.791 10.3096C145.489 10.1712 145.225 9.99219 144.997 9.77246C144.769 9.5446 144.59 9.28011 144.46 8.979C144.33 8.66976 144.265 8.34424 144.265 8.00244V2.99756C144.265 2.65576 144.33 2.33431 144.46 2.0332C144.59 1.72396 144.769 1.45947 144.997 1.23975C145.225 1.01188 145.489 0.832845 145.791 0.702637C146.1 0.56429 146.425 0.495117 146.767 0.495117H155.263C155.605 0.495117 155.926 0.56429 156.228 0.702637C156.537 0.832845 156.805 1.01188 157.033 1.23975C157.261 1.45947 157.44 1.72396 157.57 2.0332C157.701 2.33431 157.766 2.65576 157.766 2.99756V5.25586H155.263V2.99756H146.767V8.00244H155.263C155.605 8.00244 155.926 8.06755 156.228 8.19775C156.537 8.32796 156.805 8.507 157.033 8.73486C157.261 8.96273 157.44 9.23128 157.57 9.54053C157.701 9.84163 157.766 10.1631 157.766 10.5049V15.4976C157.766 15.8394 157.701 16.1649 157.57 16.4741C157.44 16.7752 157.261 17.0397 157.033 17.2676C156.805 17.4954 156.537 17.6745 156.228 17.8047C155.926 17.9349 155.605 18 155.263 18H146.523C146.181 18 145.856 17.9349 145.546 17.8047C145.245 17.6745 144.981 17.4954 144.753 17.2676C144.525 17.0397 144.346 16.7752 144.216 16.4741C144.086 16.1649 144.021 15.8394 144.021 15.4976V13.2515H146.523V15.4976H155.263V10.5049H146.767ZM173.037 12.7266H164.431V15.5952H173.037V18H164.431C164.105 18 163.796 17.939 163.503 17.8169C163.21 17.6867 162.954 17.5158 162.734 17.3042C162.522 17.0845 162.351 16.8281 162.221 16.5352C162.099 16.2422 162.038 15.9289 162.038 15.5952V7.4043C162.038 7.07064 162.099 6.75732 162.221 6.46436C162.351 6.17139 162.522 5.91911 162.734 5.70752C162.954 5.48779 163.21 5.31689 163.503 5.19482C163.796 5.06462 164.105 4.99951 164.431 4.99951H170.632C170.965 4.99951 171.279 5.06462 171.572 5.19482C171.865 5.31689 172.117 5.48779 172.329 5.70752C172.548 5.91911 172.719 6.17139 172.841 6.46436C172.972 6.75732 173.037 7.07064 173.037 7.4043V12.7266ZM164.431 7.4043V10.3218H170.632V7.4043H164.431ZM176.296 4.99951H179.47V0.995605H181.875V4.99951H186.147V7.4043H181.875V15.5952H186.147V18H181.875C181.549 18 181.24 17.939 180.947 17.8169C180.654 17.6867 180.397 17.5158 180.178 17.3042C179.958 17.0845 179.783 16.8281 179.653 16.5352C179.531 16.2422 179.47 15.9289 179.47 15.5952V7.4043H176.296V4.99951ZM198.012 15.5952V12.5801H192.312C191.978 12.5801 191.665 12.519 191.372 12.397C191.079 12.2668 190.822 12.0959 190.603 11.8843C190.391 11.6646 190.22 11.4082 190.09 11.1152C189.968 10.8223 189.907 10.509 189.907 10.1753V7.4043C189.907 7.07064 189.968 6.75732 190.09 6.46436C190.22 6.17139 190.391 5.91911 190.603 5.70752C190.822 5.48779 191.079 5.31689 191.372 5.19482C191.665 5.06462 191.978 4.99951 192.312 4.99951H199.917V7.4043H192.312V10.1753H198.012C198.346 10.1753 198.655 10.2404 198.94 10.3706C199.233 10.4927 199.489 10.6636 199.709 10.8833C199.929 11.0949 200.1 11.3472 200.222 11.6401C200.352 11.9331 200.417 12.2464 200.417 12.5801V15.5952C200.417 15.9289 200.352 16.2422 200.222 16.5352C200.1 16.8281 199.929 17.0845 199.709 17.3042C199.489 17.5158 199.233 17.6867 198.94 17.8169C198.655 17.939 198.346 18 198.012 18H189.907V15.5952H198.012ZM204.177 14.3501H207.827V18H204.177V14.3501ZM204.177 4.99951H207.827V8.64941H204.177V4.99951Z"></path>
</svg>
