<svg xmlns="http://www.w3.org/2000/svg" fill="none" viewBox="0 0 104 19" height="19" width="104">
<path fill="#FF9E44" d="M101.502 0.751587H2.4979C1.11835 0.751587 0 1.65038 0 2.7591V16.7441C0 17.8528 1.11835 18.7516 2.4979 18.7516H101.502C102.882 18.7516 104 17.8528 104 16.7441V2.7591C104 1.65038 102.882 0.751587 101.502 0.751587Z"></path>
<mask fill="black" height="8" width="97" y="5" x="4" maskUnits="userSpaceOnUse" id="path-2-outside-1_268_16">
<rect height="8" width="97" y="5" x="4" fill="white"></rect>
<path d="M9.08301 7.94824C9.08301 8.82715 8.70801 9.32812 7.95801 9.45117L9.14453 12H8.14697L6.97803 9.48193H5.00488V12H4.104V5.69824H7.55371C8.57324 5.69824 9.08301 6.20947 9.08301 7.23193V7.94824ZM5.00488 8.58105H7.50537C7.74561 8.58105 7.91846 8.52832 8.02393 8.42285C8.12939 8.31738 8.18213 8.14453 8.18213 7.9043V7.27588C8.18213 7.03564 8.12939 6.86279 8.02393 6.75732C7.91846 6.65186 7.74561 6.59912 7.50537 6.59912H5.00488V8.58105ZM14.4619 10.1016H11.3638V11.1343H14.4619V12H11.3638C11.2466 12 11.1353 11.978 11.0298 11.9341C10.9243 11.8872 10.832 11.8257 10.7529 11.7495C10.6768 11.6704 10.6152 11.5781 10.5684 11.4727C10.5244 11.3672 10.5024 11.2544 10.5024 11.1343V8.18555C10.5024 8.06543 10.5244 7.95264 10.5684 7.84717C10.6152 7.7417 10.6768 7.65088 10.7529 7.57471C10.832 7.49561 10.9243 7.43408 11.0298 7.39014C11.1353 7.34326 11.2466 7.31982 11.3638 7.31982H13.5962C13.7163 7.31982 13.8291 7.34326 13.9346 7.39014C14.04 7.43408 14.1309 7.49561 14.207 7.57471C14.2861 7.65088 14.3477 7.7417 14.3916 7.84717C14.4385 7.95264 14.4619 8.06543 14.4619 8.18555V10.1016ZM11.3638 8.18555V9.23584H13.5962V8.18555H11.3638ZM15.6353 7.31982H16.7778V5.87842H17.6436V7.31982H19.1816V8.18555H17.6436V11.1343H19.1816V12H17.6436C17.5264 12 17.415 11.978 17.3096 11.9341C17.2041 11.8872 17.1118 11.8257 17.0327 11.7495C16.9536 11.6704 16.8906 11.5781 16.8438 11.4727C16.7998 11.3672 16.7778 11.2544 16.7778 11.1343V8.18555H15.6353V7.31982ZM20.6274 7.31982H21.4888V11.1343H23.9014V7.31982H24.7671V12H23.9014V11.209C23.8926 11.3174 23.8633 11.4199 23.8135 11.5166C23.7637 11.6133 23.6992 11.6982 23.6201 11.7715C23.5439 11.8418 23.4561 11.8975 23.3564 11.9385C23.2568 11.9795 23.1514 12 23.04 12H21.4888C21.3716 12 21.2603 11.978 21.1548 11.9341C21.0493 11.8872 20.957 11.8257 20.8779 11.7495C20.8018 11.6704 20.7402 11.5781 20.6934 11.4727C20.6494 11.3672 20.6274 11.2544 20.6274 11.1343V7.31982ZM27.0698 8.18555V12H26.2085V7.31982H27.0698V8.146C27.0757 8.03174 27.1021 7.9248 27.1489 7.8252C27.1958 7.72266 27.2573 7.63477 27.3335 7.56152C27.4126 7.48535 27.5034 7.42676 27.606 7.38574C27.7085 7.3418 27.8184 7.31982 27.9355 7.31982H28.854C28.9741 7.31982 29.0854 7.34326 29.188 7.39014C29.2935 7.43408 29.3857 7.49561 29.4648 7.57471C29.5439 7.65088 29.6055 7.7417 29.6494 7.84717C29.6963 7.95264 29.7197 8.06543 29.7197 8.18555V8.97656H28.854V8.18555H27.0698ZM34.936 12H34.0703V8.18555H31.6577V12H30.7964V7.31982H31.6577V8.146C31.6636 8.03174 31.6899 7.9248 31.7368 7.8252C31.7837 7.72266 31.8452 7.63477 31.9214 7.56152C32.0005 7.48535 32.0913 7.42676 32.1938 7.38574C32.2964 7.3418 32.4062 7.31982 32.5234 7.31982H34.0703C34.1904 7.31982 34.3032 7.34326 34.4087 7.39014C34.5142 7.43408 34.605 7.49561 34.6812 7.57471C34.7603 7.65088 34.8218 7.7417 34.8657 7.84717C34.9126 7.95264 34.936 8.06543 34.936 8.18555V12ZM38.8032 7.31982H39.9458V5.87842H40.8115V7.31982H42.3496V8.18555H40.8115V11.1343H42.3496V12H40.8115C40.6943 12 40.583 11.978 40.4775 11.9341C40.3721 11.8872 40.2798 11.8257 40.2007 11.7495C40.1216 11.6704 40.0586 11.5781 40.0117 11.4727C39.9678 11.3672 39.9458 11.2544 39.9458 11.1343V8.18555H38.8032V7.31982ZM47.8428 11.1343C47.8428 11.2544 47.8193 11.3672 47.7725 11.4727C47.7285 11.5781 47.667 11.6704 47.5879 11.7495C47.5117 11.8257 47.4209 11.8872 47.3154 11.9341C47.2129 11.978 47.1016 12 46.9814 12H44.6567C44.5396 12 44.4282 11.978 44.3228 11.9341C44.2173 11.8872 44.125 11.8257 44.0459 11.7495C43.9697 11.6704 43.9082 11.5781 43.8613 11.4727C43.8174 11.3672 43.7954 11.2544 43.7954 11.1343V8.18555C43.7954 8.06543 43.8174 7.95264 43.8613 7.84717C43.9082 7.7417 43.9697 7.65088 44.0459 7.57471C44.125 7.49561 44.2173 7.43408 44.3228 7.39014C44.4282 7.34326 44.5396 7.31982 44.6567 7.31982H46.9814C47.1016 7.31982 47.2129 7.34326 47.3154 7.39014C47.4209 7.43408 47.5117 7.49561 47.5879 7.57471C47.667 7.65088 47.7285 7.7417 47.7725 7.84717C47.8193 7.95264 47.8428 8.06543 47.8428 8.18555V11.1343ZM44.6567 8.18555V11.1343H46.9814V8.18555H44.6567ZM55.3267 12L52.9756 7.38135V12H52.0747V5.69824H53.0591L55.4585 10.4443L57.8623 5.69824H58.8423V12H57.9458V7.38135L55.5947 12H55.3267ZM60.3804 9.95654C60.3804 9.83643 60.4023 9.7251 60.4463 9.62256C60.4932 9.51709 60.5547 9.4248 60.6309 9.3457C60.71 9.2666 60.8022 9.20508 60.9077 9.16113C61.0132 9.11426 61.1245 9.09082 61.2417 9.09082H63.4741V8.18555H60.6484V7.31982H63.4741C63.5942 7.31982 63.707 7.34326 63.8125 7.39014C63.918 7.43408 64.0088 7.49561 64.085 7.57471C64.1641 7.65088 64.2256 7.7417 64.2695 7.84717C64.3164 7.95264 64.3398 8.06543 64.3398 8.18555V12H63.4741V11.209C63.4653 11.3174 63.436 11.4199 63.3862 11.5166C63.3364 11.6133 63.272 11.6982 63.1929 11.7715C63.1167 11.8418 63.0288 11.8975 62.9292 11.9385C62.8296 11.9795 62.7241 12 62.6128 12H61.2417C61.1245 12 61.0132 11.978 60.9077 11.9341C60.8022 11.8872 60.71 11.8257 60.6309 11.7495C60.5547 11.6704 60.4932 11.5781 60.4463 11.4727C60.4023 11.3672 60.3804 11.2544 60.3804 11.1343V9.95654ZM61.2417 11.1343H63.4741V9.95654H61.2417V11.1343ZM66.6953 7.31982V12H65.8296V7.31982H66.6953ZM65.7856 5.51807H66.7393V6.41895H65.7856V5.51807ZM72.3247 12H71.459V8.18555H69.0464V12H68.1851V7.31982H69.0464V8.146C69.0522 8.03174 69.0786 7.9248 69.1255 7.8252C69.1724 7.72266 69.2339 7.63477 69.3101 7.56152C69.3892 7.48535 69.48 7.42676 69.5825 7.38574C69.6851 7.3418 69.7949 7.31982 69.9121 7.31982H71.459C71.5791 7.31982 71.6919 7.34326 71.7974 7.39014C71.9028 7.43408 71.9937 7.49561 72.0698 7.57471C72.1489 7.65088 72.2104 7.7417 72.2544 7.84717C72.3013 7.95264 72.3247 8.06543 72.3247 8.18555V12ZM79.8042 12L77.4531 7.38135V12H76.5522V5.69824H77.5366L79.936 10.4443L82.3398 5.69824H83.3198V12H82.4233V7.38135L80.0723 12H79.8042ZM88.8174 10.1016H85.7192V11.1343H88.8174V12H85.7192C85.6021 12 85.4907 11.978 85.3853 11.9341C85.2798 11.8872 85.1875 11.8257 85.1084 11.7495C85.0322 11.6704 84.9707 11.5781 84.9238 11.4727C84.8799 11.3672 84.8579 11.2544 84.8579 11.1343V8.18555C84.8579 8.06543 84.8799 7.95264 84.9238 7.84717C84.9707 7.7417 85.0322 7.65088 85.1084 7.57471C85.1875 7.49561 85.2798 7.43408 85.3853 7.39014C85.4907 7.34326 85.6021 7.31982 85.7192 7.31982H87.9517C88.0718 7.31982 88.1846 7.34326 88.29 7.39014C88.3955 7.43408 88.4863 7.49561 88.5625 7.57471C88.6416 7.65088 88.7031 7.7417 88.7471 7.84717C88.7939 7.95264 88.8174 8.06543 88.8174 8.18555V10.1016ZM85.7192 8.18555V9.23584H87.9517V8.18555H85.7192ZM94.4028 12H93.5371V8.18555H91.1245V12H90.2632V7.31982H91.1245V8.146C91.1304 8.03174 91.1567 7.9248 91.2036 7.8252C91.2505 7.72266 91.312 7.63477 91.3882 7.56152C91.4673 7.48535 91.5581 7.42676 91.6606 7.38574C91.7632 7.3418 91.873 7.31982 91.9902 7.31982H93.5371C93.6572 7.31982 93.77 7.34326 93.8755 7.39014C93.981 7.43408 94.0718 7.49561 94.1479 7.57471C94.2271 7.65088 94.2886 7.7417 94.3325 7.84717C94.3794 7.95264 94.4028 8.06543 94.4028 8.18555V12ZM95.8442 7.31982H96.7056V11.1343H99.1182V7.31982H99.9839V12H99.1182V11.209C99.1094 11.3174 99.0801 11.4199 99.0303 11.5166C98.9805 11.6133 98.916 11.6982 98.8369 11.7715C98.7607 11.8418 98.6729 11.8975 98.5732 11.9385C98.4736 11.9795 98.3682 12 98.2568 12H96.7056C96.5884 12 96.4771 11.978 96.3716 11.9341C96.2661 11.8872 96.1738 11.8257 96.0947 11.7495C96.0186 11.6704 95.957 11.5781 95.9102 11.4727C95.8662 11.3672 95.8442 11.2544 95.8442 11.1343V7.31982Z"></path>
</mask>
<path fill="white" d="M9.08301 7.94824C9.08301 8.82715 8.70801 9.32812 7.95801 9.45117L9.14453 12H8.14697L6.97803 9.48193H5.00488V12H4.104V5.69824H7.55371C8.57324 5.69824 9.08301 6.20947 9.08301 7.23193V7.94824ZM5.00488 8.58105H7.50537C7.74561 8.58105 7.91846 8.52832 8.02393 8.42285C8.12939 8.31738 8.18213 8.14453 8.18213 7.9043V7.27588C8.18213 7.03564 8.12939 6.86279 8.02393 6.75732C7.91846 6.65186 7.74561 6.59912 7.50537 6.59912H5.00488V8.58105ZM14.4619 10.1016H11.3638V11.1343H14.4619V12H11.3638C11.2466 12 11.1353 11.978 11.0298 11.9341C10.9243 11.8872 10.832 11.8257 10.7529 11.7495C10.6768 11.6704 10.6152 11.5781 10.5684 11.4727C10.5244 11.3672 10.5024 11.2544 10.5024 11.1343V8.18555C10.5024 8.06543 10.5244 7.95264 10.5684 7.84717C10.6152 7.7417 10.6768 7.65088 10.7529 7.57471C10.832 7.49561 10.9243 7.43408 11.0298 7.39014C11.1353 7.34326 11.2466 7.31982 11.3638 7.31982H13.5962C13.7163 7.31982 13.8291 7.34326 13.9346 7.39014C14.04 7.43408 14.1309 7.49561 14.207 7.57471C14.2861 7.65088 14.3477 7.7417 14.3916 7.84717C14.4385 7.95264 14.4619 8.06543 14.4619 8.18555V10.1016ZM11.3638 8.18555V9.23584H13.5962V8.18555H11.3638ZM15.6353 7.31982H16.7778V5.87842H17.6436V7.31982H19.1816V8.18555H17.6436V11.1343H19.1816V12H17.6436C17.5264 12 17.415 11.978 17.3096 11.9341C17.2041 11.8872 17.1118 11.8257 17.0327 11.7495C16.9536 11.6704 16.8906 11.5781 16.8438 11.4727C16.7998 11.3672 16.7778 11.2544 16.7778 11.1343V8.18555H15.6353V7.31982ZM20.6274 7.31982H21.4888V11.1343H23.9014V7.31982H24.7671V12H23.9014V11.209C23.8926 11.3174 23.8633 11.4199 23.8135 11.5166C23.7637 11.6133 23.6992 11.6982 23.6201 11.7715C23.5439 11.8418 23.4561 11.8975 23.3564 11.9385C23.2568 11.9795 23.1514 12 23.04 12H21.4888C21.3716 12 21.2603 11.978 21.1548 11.9341C21.0493 11.8872 20.957 11.8257 20.8779 11.7495C20.8018 11.6704 20.7402 11.5781 20.6934 11.4727C20.6494 11.3672 20.6274 11.2544 20.6274 11.1343V7.31982ZM27.0698 8.18555V12H26.2085V7.31982H27.0698V8.146C27.0757 8.03174 27.1021 7.9248 27.1489 7.8252C27.1958 7.72266 27.2573 7.63477 27.3335 7.56152C27.4126 7.48535 27.5034 7.42676 27.606 7.38574C27.7085 7.3418 27.8184 7.31982 27.9355 7.31982H28.854C28.9741 7.31982 29.0854 7.34326 29.188 7.39014C29.2935 7.43408 29.3857 7.49561 29.4648 7.57471C29.5439 7.65088 29.6055 7.7417 29.6494 7.84717C29.6963 7.95264 29.7197 8.06543 29.7197 8.18555V8.97656H28.854V8.18555H27.0698ZM34.936 12H34.0703V8.18555H31.6577V12H30.7964V7.31982H31.6577V8.146C31.6636 8.03174 31.6899 7.9248 31.7368 7.8252C31.7837 7.72266 31.8452 7.63477 31.9214 7.56152C32.0005 7.48535 32.0913 7.42676 32.1938 7.38574C32.2964 7.3418 32.4062 7.31982 32.5234 7.31982H34.0703C34.1904 7.31982 34.3032 7.34326 34.4087 7.39014C34.5142 7.43408 34.605 7.49561 34.6812 7.57471C34.7603 7.65088 34.8218 7.7417 34.8657 7.84717C34.9126 7.95264 34.936 8.06543 34.936 8.18555V12ZM38.8032 7.31982H39.9458V5.87842H40.8115V7.31982H42.3496V8.18555H40.8115V11.1343H42.3496V12H40.8115C40.6943 12 40.583 11.978 40.4775 11.9341C40.3721 11.8872 40.2798 11.8257 40.2007 11.7495C40.1216 11.6704 40.0586 11.5781 40.0117 11.4727C39.9678 11.3672 39.9458 11.2544 39.9458 11.1343V8.18555H38.8032V7.31982ZM47.8428 11.1343C47.8428 11.2544 47.8193 11.3672 47.7725 11.4727C47.7285 11.5781 47.667 11.6704 47.5879 11.7495C47.5117 11.8257 47.4209 11.8872 47.3154 11.9341C47.2129 11.978 47.1016 12 46.9814 12H44.6567C44.5396 12 44.4282 11.978 44.3228 11.9341C44.2173 11.8872 44.125 11.8257 44.0459 11.7495C43.9697 11.6704 43.9082 11.5781 43.8613 11.4727C43.8174 11.3672 43.7954 11.2544 43.7954 11.1343V8.18555C43.7954 8.06543 43.8174 7.95264 43.8613 7.84717C43.9082 7.7417 43.9697 7.65088 44.0459 7.57471C44.125 7.49561 44.2173 7.43408 44.3228 7.39014C44.4282 7.34326 44.5396 7.31982 44.6567 7.31982H46.9814C47.1016 7.31982 47.2129 7.34326 47.3154 7.39014C47.4209 7.43408 47.5117 7.49561 47.5879 7.57471C47.667 7.65088 47.7285 7.7417 47.7725 7.84717C47.8193 7.95264 47.8428 8.06543 47.8428 8.18555V11.1343ZM44.6567 8.18555V11.1343H46.9814V8.18555H44.6567ZM55.3267 12L52.9756 7.38135V12H52.0747V5.69824H53.0591L55.4585 10.4443L57.8623 5.69824H58.8423V12H57.9458V7.38135L55.5947 12H55.3267ZM60.3804 9.95654C60.3804 9.83643 60.4023 9.7251 60.4463 9.62256C60.4932 9.51709 60.5547 9.4248 60.6309 9.3457C60.71 9.2666 60.8022 9.20508 60.9077 9.16113C61.0132 9.11426 61.1245 9.09082 61.2417 9.09082H63.4741V8.18555H60.6484V7.31982H63.4741C63.5942 7.31982 63.707 7.34326 63.8125 7.39014C63.918 7.43408 64.0088 7.49561 64.085 7.57471C64.1641 7.65088 64.2256 7.7417 64.2695 7.84717C64.3164 7.95264 64.3398 8.06543 64.3398 8.18555V12H63.4741V11.209C63.4653 11.3174 63.436 11.4199 63.3862 11.5166C63.3364 11.6133 63.272 11.6982 63.1929 11.7715C63.1167 11.8418 63.0288 11.8975 62.9292 11.9385C62.8296 11.9795 62.7241 12 62.6128 12H61.2417C61.1245 12 61.0132 11.978 60.9077 11.9341C60.8022 11.8872 60.71 11.8257 60.6309 11.7495C60.5547 11.6704 60.4932 11.5781 60.4463 11.4727C60.4023 11.3672 60.3804 11.2544 60.3804 11.1343V9.95654ZM61.2417 11.1343H63.4741V9.95654H61.2417V11.1343ZM66.6953 7.31982V12H65.8296V7.31982H66.6953ZM65.7856 5.51807H66.7393V6.41895H65.7856V5.51807ZM72.3247 12H71.459V8.18555H69.0464V12H68.1851V7.31982H69.0464V8.146C69.0522 8.03174 69.0786 7.9248 69.1255 7.8252C69.1724 7.72266 69.2339 7.63477 69.3101 7.56152C69.3892 7.48535 69.48 7.42676 69.5825 7.38574C69.6851 7.3418 69.7949 7.31982 69.9121 7.31982H71.459C71.5791 7.31982 71.6919 7.34326 71.7974 7.39014C71.9028 7.43408 71.9937 7.49561 72.0698 7.57471C72.1489 7.65088 72.2104 7.7417 72.2544 7.84717C72.3013 7.95264 72.3247 8.06543 72.3247 8.18555V12ZM79.8042 12L77.4531 7.38135V12H76.5522V5.69824H77.5366L79.936 10.4443L82.3398 5.69824H83.3198V12H82.4233V7.38135L80.0723 12H79.8042ZM88.8174 10.1016H85.7192V11.1343H88.8174V12H85.7192C85.6021 12 85.4907 11.978 85.3853 11.9341C85.2798 11.8872 85.1875 11.8257 85.1084 11.7495C85.0322 11.6704 84.9707 11.5781 84.9238 11.4727C84.8799 11.3672 84.8579 11.2544 84.8579 11.1343V8.18555C84.8579 8.06543 84.8799 7.95264 84.9238 7.84717C84.9707 7.7417 85.0322 7.65088 85.1084 7.57471C85.1875 7.49561 85.2798 7.43408 85.3853 7.39014C85.4907 7.34326 85.6021 7.31982 85.7192 7.31982H87.9517C88.0718 7.31982 88.1846 7.34326 88.29 7.39014C88.3955 7.43408 88.4863 7.49561 88.5625 7.57471C88.6416 7.65088 88.7031 7.7417 88.7471 7.84717C88.7939 7.95264 88.8174 8.06543 88.8174 8.18555V10.1016ZM85.7192 8.18555V9.23584H87.9517V8.18555H85.7192ZM94.4028 12H93.5371V8.18555H91.1245V12H90.2632V7.31982H91.1245V8.146C91.1304 8.03174 91.1567 7.9248 91.2036 7.8252C91.2505 7.72266 91.312 7.63477 91.3882 7.56152C91.4673 7.48535 91.5581 7.42676 91.6606 7.38574C91.7632 7.3418 91.873 7.31982 91.9902 7.31982H93.5371C93.6572 7.31982 93.77 7.34326 93.8755 7.39014C93.981 7.43408 94.0718 7.49561 94.1479 7.57471C94.2271 7.65088 94.2886 7.7417 94.3325 7.84717C94.3794 7.95264 94.4028 8.06543 94.4028 8.18555V12ZM95.8442 7.31982H96.7056V11.1343H99.1182V7.31982H99.9839V12H99.1182V11.209C99.1094 11.3174 99.0801 11.4199 99.0303 11.5166C98.9805 11.6133 98.916 11.6982 98.8369 11.7715C98.7607 11.8418 98.6729 11.8975 98.5732 11.9385C98.4736 11.9795 98.3682 12 98.2568 12H96.7056C96.5884 12 96.4771 11.978 96.3716 11.9341C96.2661 11.8872 96.1738 11.8257 96.0947 11.7495C96.0186 11.6704 95.957 11.5781 95.9102 11.4727C95.8662 11.3672 95.8442 11.2544 95.8442 11.1343V7.31982Z"></path>
<path mask="url(#path-2-outside-1_268_16)" fill="white" d="M7.95801 9.45117L7.94182 9.35249L7.8117 9.37384L7.86735 9.49337L7.95801 9.45117ZM9.14453 12V12.1H9.30139L9.23519 11.9578L9.14453 12ZM8.14697 12L8.05627 12.0421L8.08315 12.1H8.14697V12ZM6.97803 9.48193L7.06873 9.43983L7.04185 9.38193H6.97803V9.48193ZM5.00488 9.48193V9.38193H4.90488V9.48193H5.00488ZM5.00488 12V12.1H5.10488V12H5.00488ZM4.104 12H4.004V12.1H4.104V12ZM4.104 5.69824V5.59824H4.004V5.69824H4.104ZM5.00488 8.58105H4.90488V8.68105H5.00488V8.58105ZM5.00488 6.59912V6.49912H4.90488V6.59912H5.00488ZM8.98301 7.94824C8.98301 8.37461 8.89194 8.6958 8.7217 8.92323C8.55288 9.14877 8.29712 9.2942 7.94182 9.35249L7.9742 9.54985C8.3689 9.4851 8.67564 9.31852 8.88181 9.04308C9.08657 8.76953 9.18301 8.40078 9.18301 7.94824H8.98301ZM7.86735 9.49337L9.05387 12.0422L9.23519 11.9578L8.04867 9.40897L7.86735 9.49337ZM9.14453 11.9H8.14697V12.1H9.14453V11.9ZM8.23768 11.9579L7.06873 9.43983L6.88732 9.52404L8.05627 12.0421L8.23768 11.9579ZM6.97803 9.38193H5.00488V9.58193H6.97803V9.38193ZM4.90488 9.48193V12H5.10488V9.48193H4.90488ZM5.00488 11.9H4.104V12.1H5.00488V11.9ZM4.204 12V5.69824H4.004V12H4.204ZM4.104 5.79824H7.55371V5.59824H4.104V5.79824ZM7.55371 5.79824C8.04799 5.79824 8.40035 5.92209 8.62987 6.15227C8.85945 6.38251 8.98301 6.73605 8.98301 7.23193H9.18301C9.18301 6.70536 9.05168 6.29205 8.7715 6.01106C8.49126 5.73001 8.07896 5.59824 7.55371 5.59824V5.79824ZM8.98301 7.23193V7.94824H9.18301V7.23193H8.98301ZM5.00488 8.68105H7.50537V8.48105H5.00488V8.68105ZM7.50537 8.68105C7.75659 8.68105 7.96172 8.62648 8.09464 8.49356L7.95322 8.35214C7.87519 8.43016 7.73462 8.48105 7.50537 8.48105V8.68105ZM8.09464 8.49356C8.22755 8.36065 8.28213 8.15551 8.28213 7.9043H8.08213C8.08213 8.13355 8.03124 8.27412 7.95322 8.35214L8.09464 8.49356ZM8.28213 7.9043V7.27588H8.08213V7.9043H8.28213ZM8.28213 7.27588C8.28213 7.02466 8.22755 6.81953 8.09464 6.68661L7.95322 6.82803C8.03124 6.90606 8.08213 7.04663 8.08213 7.27588H8.28213ZM8.09464 6.68661C7.96172 6.5537 7.75659 6.49912 7.50537 6.49912V6.69912C7.73462 6.69912 7.87519 6.75001 7.95322 6.82803L8.09464 6.68661ZM7.50537 6.49912H5.00488V6.69912H7.50537V6.49912ZM4.90488 6.59912V8.58105H5.10488V6.59912H4.90488ZM14.4619 10.1016V10.2016H14.5619V10.1016H14.4619ZM11.3638 10.1016V10.0016H11.2638V10.1016H11.3638ZM11.3638 11.1343H11.2638V11.2343H11.3638V11.1343ZM14.4619 11.1343H14.5619V11.0343H14.4619V11.1343ZM14.4619 12V12.1H14.5619V12H14.4619ZM11.0298 11.9341L10.9892 12.0255L10.9913 12.0264L11.0298 11.9341ZM10.7529 11.7495L10.6808 11.8189L10.6836 11.8215L10.7529 11.7495ZM10.5684 11.4727L10.476 11.5111L10.477 11.5133L10.5684 11.4727ZM10.5684 7.84717L10.477 7.80654L10.4761 7.80871L10.5684 7.84717ZM11.0298 7.39014L11.0683 7.48247L11.0704 7.48152L11.0298 7.39014ZM13.9346 7.39014L13.8939 7.48154L13.8961 7.48244L13.9346 7.39014ZM14.207 7.57471L14.1349 7.64412L14.1377 7.64674L14.207 7.57471ZM14.3916 7.84717L14.2993 7.88564L14.3002 7.88778L14.3916 7.84717ZM11.3638 8.18555V8.08555H11.2638V8.18555H11.3638ZM11.3638 9.23584H11.2638V9.33584H11.3638V9.23584ZM13.5962 9.23584V9.33584H13.6962V9.23584H13.5962ZM13.5962 8.18555H13.6962V8.08555H13.5962V8.18555ZM14.4619 10.0016H11.3638V10.2016H14.4619V10.0016ZM11.2638 10.1016V11.1343H11.4638V10.1016H11.2638ZM11.3638 11.2343H14.4619V11.0343H11.3638V11.2343ZM14.3619 11.1343V12H14.5619V11.1343H14.3619ZM14.4619 11.9H11.3638V12.1H14.4619V11.9ZM11.3638 11.9C11.2594 11.9 11.1612 11.8805 11.0682 11.8418L10.9913 12.0264C11.1093 12.0755 11.2337 12.1 11.3638 12.1V11.9ZM11.0704 11.8427C10.975 11.8003 10.8926 11.7452 10.8223 11.6775L10.6836 11.8215C10.7715 11.9062 10.8736 11.9741 10.9892 12.0255L11.0704 11.8427ZM10.825 11.6801C10.7573 11.6099 10.7021 11.5274 10.6597 11.432L10.477 11.5133C10.5283 11.6288 10.5962 11.731 10.6809 11.8189L10.825 11.6801ZM10.6607 11.4342C10.6221 11.3415 10.6024 11.2419 10.6024 11.1343H10.4024C10.4024 11.2669 10.4268 11.3928 10.4761 11.5111L10.6607 11.4342ZM10.6024 11.1343V8.18555H10.4024V11.1343H10.6024ZM10.6024 8.18555C10.6024 8.07794 10.6221 7.97829 10.6607 7.88563L10.4761 7.80871C10.4268 7.92698 10.4024 8.05292 10.4024 8.18555H10.6024ZM10.6597 7.88778C10.702 7.79272 10.7568 7.71231 10.8236 7.64542L10.6822 7.504C10.5968 7.58945 10.5285 7.69068 10.477 7.80655L10.6597 7.88778ZM10.8236 7.64542C10.8933 7.57575 10.9746 7.52148 11.0682 7.48244L10.9913 7.29783C10.8741 7.34669 10.7708 7.41546 10.6822 7.504L10.8236 7.64542ZM11.0704 7.48152C11.1629 7.44041 11.2604 7.41982 11.3638 7.41982V7.21982C11.2328 7.21982 11.1076 7.24611 10.9892 7.29876L11.0704 7.48152ZM11.3638 7.41982H13.5962V7.21982H11.3638V7.41982ZM13.5962 7.41982C13.7029 7.41982 13.8018 7.44056 13.894 7.48152L13.9752 7.29876C13.8564 7.24597 13.7297 7.21982 13.5962 7.21982V7.41982ZM13.8961 7.48244C13.9895 7.52134 14.0687 7.57524 14.135 7.64407L14.2791 7.50534C14.193 7.41598 14.0906 7.34682 13.973 7.29783L13.8961 7.48244ZM14.1377 7.64674C14.2065 7.71303 14.2604 7.79228 14.2993 7.88563L14.4839 7.80871C14.4349 7.69112 14.3658 7.58873 14.2764 7.50268L14.1377 7.64674ZM14.3002 7.88778C14.3412 7.97994 14.3619 8.07884 14.3619 8.18555H14.5619C14.5619 8.05202 14.5358 7.92533 14.483 7.80655L14.3002 7.88778ZM14.3619 8.18555V10.1016H14.5619V8.18555H14.3619ZM11.2638 8.18555V9.23584H11.4638V8.18555H11.2638ZM11.3638 9.33584H13.5962V9.13584H11.3638V9.33584ZM13.6962 9.23584V8.18555H13.4962V9.23584H13.6962ZM13.5962 8.08555H11.3638V8.28555H13.5962V8.08555ZM15.6353 7.31982V7.21982H15.5353V7.31982H15.6353ZM16.7778 7.31982V7.41982H16.8778V7.31982H16.7778ZM16.7778 5.87842V5.77842H16.6778V5.87842H16.7778ZM17.6436 5.87842H17.7436V5.77842H17.6436V5.87842ZM17.6436 7.31982H17.5436V7.41982H17.6436V7.31982ZM19.1816 7.31982H19.2816V7.21982H19.1816V7.31982ZM19.1816 8.18555V8.28555H19.2816V8.18555H19.1816ZM17.6436 8.18555V8.08555H17.5436V8.18555H17.6436ZM17.6436 11.1343H17.5436V11.2343H17.6436V11.1343ZM19.1816 11.1343H19.2816V11.0343H19.1816V11.1343ZM19.1816 12V12.1H19.2816V12H19.1816ZM17.3096 11.9341L17.2689 12.0255L17.2711 12.0264L17.3096 11.9341ZM17.0327 11.7495L16.962 11.8202L16.9634 11.8215L17.0327 11.7495ZM16.8438 11.4727L16.7514 11.5111L16.7524 11.5133L16.8438 11.4727ZM16.7778 8.18555H16.8778V8.08555H16.7778V8.18555ZM15.6353 8.18555H15.5353V8.28555H15.6353V8.18555ZM15.6353 7.41982H16.7778V7.21982H15.6353V7.41982ZM16.8778 7.31982V5.87842H16.6778V7.31982H16.8778ZM16.7778 5.97842H17.6436V5.77842H16.7778V5.97842ZM17.5436 5.87842V7.31982H17.7436V5.87842H17.5436ZM17.6436 7.41982H19.1816V7.21982H17.6436V7.41982ZM19.0816 7.31982V8.18555H19.2816V7.31982H19.0816ZM19.1816 8.08555H17.6436V8.28555H19.1816V8.08555ZM17.5436 8.18555V11.1343H17.7436V8.18555H17.5436ZM17.6436 11.2343H19.1816V11.0343H17.6436V11.2343ZM19.0816 11.1343V12H19.2816V11.1343H19.0816ZM19.1816 11.9H17.6436V12.1H19.1816V11.9ZM17.6436 11.9C17.5392 11.9 17.441 11.8805 17.348 11.8418L17.2711 12.0264C17.3891 12.0755 17.5135 12.1 17.6436 12.1V11.9ZM17.3502 11.8427C17.2548 11.8003 17.1724 11.7452 17.1021 11.6775L16.9634 11.8215C17.0513 11.9062 17.1534 11.9741 17.269 12.0255L17.3502 11.8427ZM17.1034 11.6788C17.0333 11.6087 16.9772 11.5267 16.9351 11.432L16.7524 11.5133C16.8041 11.6296 16.8739 11.7322 16.962 11.8202L17.1034 11.6788ZM16.9361 11.4342C16.8974 11.3415 16.8778 11.2419 16.8778 11.1343H16.6778C16.6778 11.2669 16.7022 11.3928 16.7514 11.5111L16.9361 11.4342ZM16.8778 11.1343V8.18555H16.6778V11.1343H16.8778ZM16.7778 8.08555H15.6353V8.28555H16.7778V8.08555ZM15.7353 8.18555V7.31982H15.5353V8.18555H15.7353ZM20.6274 7.31982V7.21982H20.5274V7.31982H20.6274ZM21.4888 7.31982H21.5888V7.21982H21.4888V7.31982ZM21.4888 11.1343H21.3888V11.2343H21.4888V11.1343ZM23.9014 11.1343V11.2343H24.0014V11.1343H23.9014ZM23.9014 7.31982V7.21982H23.8014V7.31982H23.9014ZM24.7671 7.31982H24.8671V7.21982H24.7671V7.31982ZM24.7671 12V12.1H24.8671V12H24.7671ZM23.9014 12H23.8014V12.1H23.9014V12ZM23.9014 11.209H24.0014L23.8017 11.2009L23.9014 11.209ZM23.6201 11.7715L23.6879 11.845L23.6881 11.8449L23.6201 11.7715ZM21.1548 11.9341L21.1142 12.0255L21.1163 12.0264L21.1548 11.9341ZM20.8779 11.7495L20.8058 11.8189L20.8086 11.8215L20.8779 11.7495ZM20.6934 11.4727L20.601 11.5111L20.602 11.5133L20.6934 11.4727ZM20.6274 7.41982H21.4888V7.21982H20.6274V7.41982ZM21.3888 7.31982V11.1343H21.5888V7.31982H21.3888ZM21.4888 11.2343H23.9014V11.0343H21.4888V11.2343ZM24.0014 11.1343V7.31982H23.8014V11.1343H24.0014ZM23.9014 7.41982H24.7671V7.21982H23.9014V7.41982ZM24.6671 7.31982V12H24.8671V7.31982H24.6671ZM24.7671 11.9H23.9014V12.1H24.7671V11.9ZM24.0014 12V11.209H23.8014V12H24.0014ZM23.8017 11.2009C23.794 11.2961 23.7683 11.3859 23.7246 11.4708L23.9024 11.5624C23.9582 11.454 23.9912 11.3386 24.001 11.2171L23.8017 11.2009ZM23.7246 11.4708C23.6801 11.5572 23.6227 11.6328 23.5522 11.6981L23.6881 11.8449C23.7758 11.7636 23.8473 11.6693 23.9024 11.5624L23.7246 11.4708ZM23.5523 11.698C23.4852 11.76 23.4074 11.8093 23.3184 11.846L23.3945 12.0309C23.5047 11.9856 23.6027 11.9236 23.6879 11.845L23.5523 11.698ZM23.3184 11.846C23.2312 11.8819 23.1388 11.9 23.04 11.9V12.1C23.164 12.1 23.2824 12.0771 23.3945 12.0309L23.3184 11.846ZM23.04 11.9H21.4888V12.1H23.04V11.9ZM21.4888 11.9C21.3844 11.9 21.2862 11.8805 21.1932 11.8418L21.1163 12.0264C21.2343 12.0755 21.3587 12.1 21.4888 12.1V11.9ZM21.1954 11.8427C21.1 11.8003 21.0176 11.7452 20.9473 11.6775L20.8086 11.8215C20.8965 11.9062 20.9986 11.9741 21.1142 12.0255L21.1954 11.8427ZM20.95 11.6801C20.8823 11.6099 20.8271 11.5274 20.7847 11.432L20.602 11.5133C20.6533 11.6288 20.7212 11.731 20.8059 11.8189L20.95 11.6801ZM20.7857 11.4342C20.7471 11.3415 20.7274 11.2419 20.7274 11.1343H20.5274C20.5274 11.2669 20.5518 11.3928 20.6011 11.5111L20.7857 11.4342ZM20.7274 11.1343V7.31982H20.5274V11.1343H20.7274ZM27.0698 8.18555V8.08555H26.9698V8.18555H27.0698ZM27.0698 12V12.1H27.1698V12H27.0698ZM26.2085 12H26.1085V12.1H26.2085V12ZM26.2085 7.31982V7.21982H26.1085V7.31982H26.2085ZM27.0698 7.31982H27.1698V7.21982H27.0698V7.31982ZM27.0698 8.146H26.9698L27.1697 8.15112L27.0698 8.146ZM27.1489 7.8252L27.2394 7.86778L27.2399 7.86677L27.1489 7.8252ZM27.3335 7.56152L27.4028 7.63361L27.4029 7.63356L27.3335 7.56152ZM27.606 7.38574L27.6431 7.47862L27.6453 7.47766L27.606 7.38574ZM29.188 7.39014L29.1464 7.48114L29.1495 7.48244L29.188 7.39014ZM29.4648 7.57471L29.3941 7.64543L29.3955 7.64674L29.4648 7.57471ZM29.6494 7.84717L29.5571 7.88564L29.558 7.88778L29.6494 7.84717ZM29.7197 8.97656V9.07656H29.8197V8.97656H29.7197ZM28.854 8.97656H28.754V9.07656H28.854V8.97656ZM28.854 8.18555H28.954V8.08555H28.854V8.18555ZM26.9698 8.18555V12H27.1698V8.18555H26.9698ZM27.0698 11.9H26.2085V12.1H27.0698V11.9ZM26.3085 12V7.31982H26.1085V12H26.3085ZM26.2085 7.41982H27.0698V7.21982H26.2085V7.41982ZM26.9698 7.31982V8.146H27.1698V7.31982H26.9698ZM27.1697 8.15112C27.1749 8.04932 27.1983 7.95517 27.2394 7.86777L27.0584 7.78262C27.0058 7.89444 26.9765 8.01416 26.97 8.14087L27.1697 8.15112ZM27.2399 7.86677C27.2819 7.7749 27.3363 7.69756 27.4028 7.63361L27.2642 7.48944C27.1784 7.57197 27.1097 7.67041 27.058 7.78362L27.2399 7.86677ZM27.4029 7.63356C27.4726 7.56639 27.5525 7.51484 27.6431 7.47859L27.5688 7.29289C27.4544 7.33868 27.3526 7.40431 27.2641 7.48949L27.4029 7.63356ZM27.6453 7.47766C27.7348 7.43931 27.8312 7.41982 27.9355 7.41982V7.21982C27.8055 7.21982 27.6822 7.24428 27.5666 7.29383L27.6453 7.47766ZM27.9355 7.41982H28.854V7.21982H27.9355V7.41982ZM28.854 7.41982C28.9607 7.41982 29.0578 7.44056 29.1464 7.48108L29.2296 7.29919C29.1131 7.24596 28.9875 7.21982 28.854 7.21982V7.41982ZM29.1495 7.48244C29.2432 7.52148 29.3245 7.57575 29.3941 7.64542L29.5356 7.504C29.447 7.41546 29.3437 7.34669 29.2264 7.29783L29.1495 7.48244ZM29.3955 7.64674C29.4643 7.71303 29.5182 7.79228 29.5571 7.88563L29.7417 7.80871C29.6927 7.69112 29.6236 7.58873 29.5342 7.50268L29.3955 7.64674ZM29.558 7.88778C29.599 7.97994 29.6197 8.07884 29.6197 8.18555H29.8197C29.8197 8.05202 29.7936 7.92533 29.7408 7.80655L29.558 7.88778ZM29.6197 8.18555V8.97656H29.8197V8.18555H29.6197ZM29.7197 8.87656H28.854V9.07656H29.7197V8.87656ZM28.954 8.97656V8.18555H28.754V8.97656H28.954ZM28.854 8.08555H27.0698V8.28555H28.854V8.08555ZM34.936 12V12.1H35.036V12H34.936ZM34.0703 12H33.9703V12.1H34.0703V12ZM34.0703 8.18555H34.1703V8.08555H34.0703V8.18555ZM31.6577 8.18555V8.08555H31.5577V8.18555H31.6577ZM31.6577 12V12.1H31.7577V12H31.6577ZM30.7964 12H30.6964V12.1H30.7964V12ZM30.7964 7.31982V7.21982H30.6964V7.31982H30.7964ZM31.6577 7.31982H31.7577V7.21982H31.6577V7.31982ZM31.6577 8.146H31.5577L31.7576 8.15112L31.6577 8.146ZM31.7368 7.8252L31.8273 7.86778L31.8278 7.86677L31.7368 7.8252ZM31.9214 7.56152L31.9907 7.63361L31.9908 7.63356L31.9214 7.56152ZM32.1938 7.38574L32.231 7.47862L32.2332 7.47766L32.1938 7.38574ZM34.4087 7.39014L34.3681 7.48154L34.3702 7.48244L34.4087 7.39014ZM34.6812 7.57471L34.6091 7.64412L34.6118 7.64674L34.6812 7.57471ZM34.8657 7.84717L34.7734 7.88564L34.7743 7.88778L34.8657 7.84717ZM34.936 11.9H34.0703V12.1H34.936V11.9ZM34.1703 12V8.18555H33.9703V12H34.1703ZM34.0703 8.08555H31.6577V8.28555H34.0703V8.08555ZM31.5577 8.18555V12H31.7577V8.18555H31.5577ZM31.6577 11.9H30.7964V12.1H31.6577V11.9ZM30.8964 12V7.31982H30.6964V12H30.8964ZM30.7964 7.41982H31.6577V7.21982H30.7964V7.41982ZM31.5577 7.31982V8.146H31.7577V7.31982H31.5577ZM31.7576 8.15112C31.7628 8.04932 31.7862 7.95517 31.8273 7.86777L31.6463 7.78262C31.5937 7.89444 31.5643 8.01416 31.5578 8.14087L31.7576 8.15112ZM31.8278 7.86677C31.8698 7.7749 31.9242 7.69756 31.9907 7.63361L31.8521 7.48944C31.7662 7.57197 31.6976 7.67041 31.6459 7.78362L31.8278 7.86677ZM31.9908 7.63356C32.0605 7.56639 32.1404 7.51484 32.231 7.47859L32.1567 7.29289C32.0423 7.33868 31.9405 7.40431 31.852 7.48949L31.9908 7.63356ZM32.2332 7.47766C32.3227 7.43931 32.4191 7.41982 32.5234 7.41982V7.21982C32.3934 7.21982 32.2701 7.24428 32.1545 7.29383L32.2332 7.47766ZM32.5234 7.41982H34.0703V7.21982H32.5234V7.41982ZM34.0703 7.41982C34.177 7.41982 34.2759 7.44056 34.3681 7.48152L34.4493 7.29876C34.3305 7.24597 34.2038 7.21982 34.0703 7.21982V7.41982ZM34.3702 7.48244C34.4636 7.52134 34.5428 7.57524 34.6091 7.64407L34.7532 7.50534C34.6671 7.41598 34.5647 7.34682 34.4472 7.29783L34.3702 7.48244ZM34.6118 7.64674C34.6806 7.71303 34.7345 7.79228 34.7734 7.88563L34.958 7.80871C34.909 7.69112 34.8399 7.58873 34.7505 7.50268L34.6118 7.64674ZM34.7743 7.88778C34.8153 7.97994 34.836 8.07884 34.836 8.18555H35.036C35.036 8.05202 35.0099 7.92533 34.9571 7.80655L34.7743 7.88778ZM34.836 8.18555V12H35.036V8.18555H34.836ZM38.8032 7.31982V7.21982H38.7032V7.31982H38.8032ZM39.9458 7.31982V7.41982H40.0458V7.31982H39.9458ZM39.9458 5.87842V5.77842H39.8458V5.87842H39.9458ZM40.8115 5.87842H40.9115V5.77842H40.8115V5.87842ZM40.8115 7.31982H40.7115V7.41982H40.8115V7.31982ZM42.3496 7.31982H42.4496V7.21982H42.3496V7.31982ZM42.3496 8.18555V8.28555H42.4496V8.18555H42.3496ZM40.8115 8.18555V8.08555H40.7115V8.18555H40.8115ZM40.8115 11.1343H40.7115V11.2343H40.8115V11.1343ZM42.3496 11.1343H42.4496V11.0343H42.3496V11.1343ZM42.3496 12V12.1H42.4496V12H42.3496ZM40.4775 11.9341L40.4369 12.0255L40.4391 12.0264L40.4775 11.9341ZM40.2007 11.7495L40.13 11.8202L40.1313 11.8215L40.2007 11.7495ZM40.0117 11.4727L39.9194 11.5111L39.9203 11.5133L40.0117 11.4727ZM39.9458 8.18555H40.0458V8.08555H39.9458V8.18555ZM38.8032 8.18555H38.7032V8.28555H38.8032V8.18555ZM38.8032 7.41982H39.9458V7.21982H38.8032V7.41982ZM40.0458 7.31982V5.87842H39.8458V7.31982H40.0458ZM39.9458 5.97842H40.8115V5.77842H39.9458V5.97842ZM40.7115 5.87842V7.31982H40.9115V5.87842H40.7115ZM40.8115 7.41982H42.3496V7.21982H40.8115V7.41982ZM42.2496 7.31982V8.18555H42.4496V7.31982H42.2496ZM42.3496 8.08555H40.8115V8.28555H42.3496V8.08555ZM40.7115 8.18555V11.1343H40.9115V8.18555H40.7115ZM40.8115 11.2343H42.3496V11.0343H40.8115V11.2343ZM42.2496 11.1343V12H42.4496V11.1343H42.2496ZM42.3496 11.9H40.8115V12.1H42.3496V11.9ZM40.8115 11.9C40.7072 11.9 40.609 11.8805 40.516 11.8418L40.4391 12.0264C40.557 12.0755 40.6815 12.1 40.8115 12.1V11.9ZM40.5182 11.8427C40.4228 11.8003 40.3403 11.7452 40.27 11.6775L40.1313 11.8215C40.2192 11.9062 40.3214 11.9741 40.4369 12.0255L40.5182 11.8427ZM40.2714 11.6788C40.2012 11.6087 40.1451 11.5267 40.1031 11.432L39.9203 11.5133C39.972 11.6296 40.0419 11.7322 40.13 11.8202L40.2714 11.6788ZM40.104 11.4342C40.0654 11.3415 40.0458 11.2419 40.0458 11.1343H39.8458C39.8458 11.2669 39.8701 11.3928 39.9194 11.5111L40.104 11.4342ZM40.0458 11.1343V8.18555H39.8458V11.1343H40.0458ZM39.9458 8.08555H38.8032V8.28555H39.9458V8.08555ZM38.9032 8.18555V7.31982H38.7032V8.18555H38.9032ZM47.7725 11.4727L47.6811 11.432L47.6802 11.4342L47.7725 11.4727ZM47.3154 11.9341L47.3548 12.026L47.356 12.0255L47.3154 11.9341ZM44.3228 11.9341L44.2821 12.0255L44.2843 12.0264L44.3228 11.9341ZM44.0459 11.7495L43.9738 11.8189L43.9765 11.8215L44.0459 11.7495ZM43.8613 11.4727L43.769 11.5111L43.7699 11.5133L43.8613 11.4727ZM43.8613 7.84717L43.7699 7.80654L43.769 7.80871L43.8613 7.84717ZM44.3228 7.39014L44.3612 7.48247L44.3634 7.48152L44.3228 7.39014ZM47.3154 7.39014L47.2738 7.48114L47.277 7.48244L47.3154 7.39014ZM47.5879 7.57471L47.5158 7.64412L47.5185 7.64674L47.5879 7.57471ZM47.7725 7.84717L47.6801 7.88564L47.6811 7.88778L47.7725 7.84717ZM44.6567 8.18555V8.08555H44.5567V8.18555H44.6567ZM44.6567 11.1343H44.5567V11.2343H44.6567V11.1343ZM46.9814 11.1343V11.2343H47.0814V11.1343H46.9814ZM46.9814 8.18555H47.0814V8.08555H46.9814V8.18555ZM47.7428 11.1343C47.7428 11.241 47.722 11.3399 47.6811 11.432L47.8638 11.5133C47.9166 11.3945 47.9428 11.2678 47.9428 11.1343H47.7428ZM47.6802 11.4342C47.6411 11.5279 47.5868 11.6091 47.5172 11.6788L47.6586 11.8202C47.7471 11.7317 47.8159 11.6284 47.8648 11.5111L47.6802 11.4342ZM47.5172 11.6788C47.4503 11.7457 47.3699 11.8005 47.2748 11.8427L47.356 12.0255C47.4719 11.974 47.5731 11.9057 47.6586 11.8202L47.5172 11.6788ZM47.276 11.8422C47.1869 11.8804 47.0891 11.9 46.9814 11.9V12.1C47.1141 12.1 47.2389 12.0757 47.3548 12.026L47.276 11.8422ZM46.9814 11.9H44.6567V12.1H46.9814V11.9ZM44.6567 11.9C44.5524 11.9 44.4542 11.8805 44.3612 11.8418L44.2843 12.0264C44.4023 12.0755 44.5267 12.1 44.6567 12.1V11.9ZM44.3634 11.8427C44.268 11.8003 44.1856 11.7452 44.1153 11.6775L43.9765 11.8215C44.0644 11.9062 44.1666 11.9741 44.2821 12.0255L44.3634 11.8427ZM44.1179 11.6801C44.0502 11.6099 43.9951 11.5274 43.9527 11.432L43.7699 11.5133C43.8213 11.6288 43.8892 11.731 43.9739 11.8189L44.1179 11.6801ZM43.9536 11.4342C43.915 11.3415 43.8954 11.2419 43.8954 11.1343H43.6954C43.6954 11.2669 43.7197 11.3928 43.769 11.5111L43.9536 11.4342ZM43.8954 11.1343V8.18555H43.6954V11.1343H43.8954ZM43.8954 8.18555C43.8954 8.07794 43.915 7.97829 43.9536 7.88563L43.769 7.80871C43.7197 7.92698 43.6954 8.05292 43.6954 8.18555H43.8954ZM43.9527 7.88778C43.995 7.79272 44.0497 7.71231 44.1166 7.64542L43.9752 7.504C43.8897 7.58945 43.8214 7.69068 43.7699 7.80655L43.9527 7.88778ZM44.1166 7.64542C44.1863 7.57575 44.2675 7.52148 44.3612 7.48244L44.2843 7.29783C44.167 7.34669 44.0637 7.41546 43.9752 7.504L44.1166 7.64542ZM44.3634 7.48152C44.4558 7.44041 44.5533 7.41982 44.6567 7.41982V7.21982C44.5258 7.21982 44.4006 7.24611 44.2821 7.29876L44.3634 7.48152ZM44.6567 7.41982H46.9814V7.21982H44.6567V7.41982ZM46.9814 7.41982C47.0882 7.41982 47.1852 7.44056 47.2739 7.48108L47.357 7.29919C47.2406 7.24596 47.115 7.21982 46.9814 7.21982V7.41982ZM47.277 7.48244C47.3703 7.52134 47.4496 7.57524 47.5159 7.64407L47.6599 7.50534C47.5739 7.41598 47.4715 7.34682 47.3539 7.29783L47.277 7.48244ZM47.5185 7.64674C47.5874 7.71303 47.6413 7.79228 47.6802 7.88563L47.8648 7.80871C47.8158 7.69112 47.7466 7.58873 47.6573 7.50268L47.5185 7.64674ZM47.6811 7.88778C47.722 7.97994 47.7428 8.07884 47.7428 8.18555H47.9428C47.9428 8.05202 47.9166 7.92533 47.8638 7.80655L47.6811 7.88778ZM47.7428 8.18555V11.1343H47.9428V8.18555H47.7428ZM44.5567 8.18555V11.1343H44.7567V8.18555H44.5567ZM44.6567 11.2343H46.9814V11.0343H44.6567V11.2343ZM47.0814 11.1343V8.18555H46.8814V11.1343H47.0814ZM46.9814 8.08555H44.6567V8.28555H46.9814V8.08555ZM55.3267 12L55.2375 12.0454L55.2654 12.1H55.3267V12ZM52.9756 7.38135L53.0647 7.33598L52.8756 7.38135H52.9756ZM52.9756 12V12.1H53.0756V12H52.9756ZM52.0747 12H51.9747V12.1H52.0747V12ZM52.0747 5.69824V5.59824H51.9747V5.69824H52.0747ZM53.0591 5.69824L53.1483 5.65312L53.1206 5.59824H53.0591V5.69824ZM55.4585 10.4443L55.3693 10.4895L55.4584 10.6658L55.5477 10.4895L55.4585 10.4443ZM57.8623 5.69824V5.59824H57.8009L57.7731 5.65306L57.8623 5.69824ZM58.8423 5.69824H58.9423V5.59824H58.8423V5.69824ZM58.8423 12V12.1H58.9423V12H58.8423ZM57.9458 12H57.8458V12.1H57.9458V12ZM57.9458 7.38135H58.0458L57.8567 7.33598L57.9458 7.38135ZM55.5947 12V12.1H55.656L55.6838 12.0454L55.5947 12ZM55.4158 11.9546L53.0647 7.33598L52.8865 7.42671L55.2375 12.0454L55.4158 11.9546ZM52.8756 7.38135V12H53.0756V7.38135H52.8756ZM52.9756 11.9H52.0747V12.1H52.9756V11.9ZM52.1747 12V5.69824H51.9747V12H52.1747ZM52.0747 5.79824H53.0591V5.59824H52.0747V5.79824ZM52.9698 5.74336L55.3693 10.4895L55.5477 10.3992L53.1483 5.65312L52.9698 5.74336ZM55.5477 10.4895L57.9515 5.74343L57.7731 5.65306L55.3693 10.3992L55.5477 10.4895ZM57.8623 5.79824H58.8423V5.59824H57.8623V5.79824ZM58.7423 5.69824V12H58.9423V5.69824H58.7423ZM58.8423 11.9H57.9458V12.1H58.8423V11.9ZM58.0458 12V7.38135H57.8458V12H58.0458ZM57.8567 7.33598L55.5056 11.9546L55.6838 12.0454L58.0349 7.42671L57.8567 7.33598ZM55.5947 11.9H55.3267V12.1H55.5947V11.9ZM60.4463 9.62256L60.3549 9.58194L60.3544 9.58317L60.4463 9.62256ZM60.6309 9.3457L60.5601 9.27498L60.5588 9.27634L60.6309 9.3457ZM60.9077 9.16113L60.9462 9.25347L60.9483 9.25251L60.9077 9.16113ZM63.4741 9.09082V9.19082H63.5741V9.09082H63.4741ZM63.4741 8.18555H63.5741V8.08555H63.4741V8.18555ZM60.6484 8.18555H60.5484V8.28555H60.6484V8.18555ZM60.6484 7.31982V7.21982H60.5484V7.31982H60.6484ZM63.8125 7.39014L63.7719 7.48154L63.774 7.48244L63.8125 7.39014ZM64.085 7.57471L64.0129 7.64412L64.0156 7.64674L64.085 7.57471ZM64.2695 7.84717L64.1772 7.88564L64.1782 7.88778L64.2695 7.84717ZM64.3398 12V12.1H64.4398V12H64.3398ZM63.4741 12H63.3741V12.1H63.4741V12ZM63.4741 11.209H63.5741L63.3744 11.2009L63.4741 11.209ZM63.1929 11.7715L63.2607 11.845L63.2608 11.8449L63.1929 11.7715ZM60.9077 11.9341L60.8671 12.0255L60.8693 12.0264L60.9077 11.9341ZM60.6309 11.7495L60.5588 11.8189L60.5615 11.8215L60.6309 11.7495ZM60.4463 11.4727L60.354 11.5111L60.3549 11.5133L60.4463 11.4727ZM61.2417 11.1343H61.1417V11.2343H61.2417V11.1343ZM63.4741 11.1343V11.2343H63.5741V11.1343H63.4741ZM63.4741 9.95654H63.5741V9.85654H63.4741V9.95654ZM61.2417 9.95654V9.85654H61.1417V9.95654H61.2417ZM60.4804 9.95654C60.4804 9.84892 60.5 9.75111 60.5382 9.66195L60.3544 9.58317C60.3047 9.69908 60.2804 9.82393 60.2804 9.95654H60.4804ZM60.5377 9.66317C60.5801 9.56779 60.6352 9.48536 60.7029 9.41507L60.5588 9.27634C60.4742 9.36425 60.4063 9.46639 60.3549 9.58194L60.5377 9.66317ZM60.7016 9.41641C60.7712 9.34675 60.8525 9.29247 60.9462 9.25344L60.8693 9.06883C60.752 9.11768 60.6487 9.18645 60.5602 9.27499L60.7016 9.41641ZM60.9483 9.25251C61.0408 9.21141 61.1383 9.19082 61.2417 9.19082V8.99082C61.1107 8.99082 60.9856 9.0171 60.8671 9.06975L60.9483 9.25251ZM61.2417 9.19082H63.4741V8.99082H61.2417V9.19082ZM63.5741 9.09082V8.18555H63.3741V9.09082H63.5741ZM63.4741 8.08555H60.6484V8.28555H63.4741V8.08555ZM60.7484 8.18555V7.31982H60.5484V8.18555H60.7484ZM60.6484 7.41982H63.4741V7.21982H60.6484V7.41982ZM63.4741 7.41982C63.5808 7.41982 63.6797 7.44056 63.7719 7.48152L63.8531 7.29876C63.7343 7.24597 63.6076 7.21982 63.4741 7.21982V7.41982ZM63.774 7.48244C63.8674 7.52134 63.9466 7.57524 64.0129 7.64407L64.157 7.50534C64.0709 7.41598 63.9686 7.34682 63.851 7.29783L63.774 7.48244ZM64.0156 7.64674C64.0844 7.71303 64.1383 7.79228 64.1772 7.88563L64.3618 7.80871C64.3128 7.69112 64.2437 7.58873 64.1543 7.50268L64.0156 7.64674ZM64.1782 7.88778C64.2191 7.97994 64.2398 8.07884 64.2398 8.18555H64.4398C64.4398 8.05202 64.4137 7.92533 64.3609 7.80655L64.1782 7.88778ZM64.2398 8.18555V12H64.4398V8.18555H64.2398ZM64.3398 11.9H63.4741V12.1H64.3398V11.9ZM63.5741 12V11.209H63.3741V12H63.5741ZM63.3744 11.2009C63.3667 11.2961 63.3411 11.3859 63.2973 11.4708L63.4751 11.5624C63.531 11.454 63.5639 11.3386 63.5738 11.2171L63.3744 11.2009ZM63.2973 11.4708C63.2528 11.5572 63.1954 11.6328 63.1249 11.6981L63.2608 11.8449C63.3485 11.7636 63.42 11.6693 63.4751 11.5624L63.2973 11.4708ZM63.125 11.698C63.0579 11.76 62.9802 11.8093 62.8911 11.846L62.9673 12.0309C63.0774 11.9856 63.1755 11.9236 63.2607 11.845L63.125 11.698ZM62.8911 11.846C62.804 11.8819 62.7115 11.9 62.6128 11.9V12.1C62.7367 12.1 62.8552 12.0771 62.9673 12.0309L62.8911 11.846ZM62.6128 11.9H61.2417V12.1H62.6128V11.9ZM61.2417 11.9C61.1374 11.9 61.0391 11.8805 60.9462 11.8418L60.8693 12.0264C60.9872 12.0755 61.1117 12.1 61.2417 12.1V11.9ZM60.9483 11.8427C60.8529 11.8003 60.7705 11.7452 60.7002 11.6775L60.5615 11.8215C60.6494 11.9062 60.7515 11.9741 60.8671 12.0255L60.9483 11.8427ZM60.7029 11.6801C60.6352 11.6099 60.5801 11.5274 60.5377 11.432L60.3549 11.5133C60.4063 11.6288 60.4742 11.731 60.5588 11.8189L60.7029 11.6801ZM60.5386 11.4342C60.5 11.3415 60.4804 11.2419 60.4804 11.1343H60.2804C60.2804 11.2669 60.3047 11.3928 60.354 11.5111L60.5386 11.4342ZM60.4804 11.1343V9.95654H60.2804V11.1343H60.4804ZM61.2417 11.2343H63.4741V11.0343H61.2417V11.2343ZM63.5741 11.1343V9.95654H63.3741V11.1343H63.5741ZM63.4741 9.85654H61.2417V10.0565H63.4741V9.85654ZM61.1417 9.95654V11.1343H61.3417V9.95654H61.1417ZM66.6953 7.31982H66.7953V7.21982H66.6953V7.31982ZM66.6953 12V12.1H66.7953V12H66.6953ZM65.8296 12H65.7296V12.1H65.8296V12ZM65.8296 7.31982V7.21982H65.7296V7.31982H65.8296ZM65.7856 5.51807V5.41807H65.6856V5.51807H65.7856ZM66.7393 5.51807H66.8393V5.41807H66.7393V5.51807ZM66.7393 6.41895V6.51895H66.8393V6.41895H66.7393ZM65.7856 6.41895H65.6856V6.51895H65.7856V6.41895ZM66.5953 7.31982V12H66.7953V7.31982H66.5953ZM66.6953 11.9H65.8296V12.1H66.6953V11.9ZM65.9296 12V7.31982H65.7296V12H65.9296ZM65.8296 7.41982H66.6953V7.21982H65.8296V7.41982ZM65.7856 5.61807H66.7393V5.41807H65.7856V5.61807ZM66.6393 5.51807V6.41895H66.8393V5.51807H66.6393ZM66.7393 6.31895H65.7856V6.51895H66.7393V6.31895ZM65.8856 6.41895V5.51807H65.6856V6.41895H65.8856ZM72.3247 12V12.1H72.4247V12H72.3247ZM71.459 12H71.359V12.1H71.459V12ZM71.459 8.18555H71.559V8.08555H71.459V8.18555ZM69.0464 8.18555V8.08555H68.9464V8.18555H69.0464ZM69.0464 12V12.1H69.1464V12H69.0464ZM68.1851 12H68.0851V12.1H68.1851V12ZM68.1851 7.31982V7.21982H68.0851V7.31982H68.1851ZM69.0464 7.31982H69.1464V7.21982H69.0464V7.31982ZM69.0464 8.146H68.9464L69.1463 8.15112L69.0464 8.146ZM69.1255 7.8252L69.216 7.86778L69.2164 7.86677L69.1255 7.8252ZM69.3101 7.56152L69.3794 7.63361L69.3794 7.63356L69.3101 7.56152ZM69.5825 7.38574L69.6197 7.47862L69.6219 7.47766L69.5825 7.38574ZM71.7974 7.39014L71.7567 7.48154L71.7589 7.48244L71.7974 7.39014ZM72.0698 7.57471L71.9977 7.64412L72.0005 7.64674L72.0698 7.57471ZM72.2544 7.84717L72.1621 7.88564L72.163 7.88778L72.2544 7.84717ZM72.3247 11.9H71.459V12.1H72.3247V11.9ZM71.559 12V8.18555H71.359V12H71.559ZM71.459 8.08555H69.0464V8.28555H71.459V8.08555ZM68.9464 8.18555V12H69.1464V8.18555H68.9464ZM69.0464 11.9H68.1851V12.1H69.0464V11.9ZM68.2851 12V7.31982H68.0851V12H68.2851ZM68.1851 7.41982H69.0464V7.21982H68.1851V7.41982ZM68.9464 7.31982V8.146H69.1464V7.31982H68.9464ZM69.1463 8.15112C69.1515 8.04932 69.1748 7.95517 69.216 7.86777L69.035 7.78262C68.9824 7.89444 68.953 8.01416 68.9465 8.14087L69.1463 8.15112ZM69.2164 7.86677C69.2584 7.7749 69.3129 7.69756 69.3794 7.63361L69.2407 7.48944C69.1549 7.57197 69.0863 7.67041 69.0345 7.78362L69.2164 7.86677ZM69.3794 7.63356C69.4492 7.56639 69.529 7.51484 69.6197 7.47859L69.5454 7.29289C69.4309 7.33868 69.3291 7.40431 69.2407 7.48949L69.3794 7.63356ZM69.6219 7.47766C69.7114 7.43931 69.8078 7.41982 69.9121 7.41982V7.21982C69.7821 7.21982 69.6587 7.24428 69.5431 7.29383L69.6219 7.47766ZM69.9121 7.41982H71.459V7.21982H69.9121V7.41982ZM71.459 7.41982C71.5657 7.41982 71.6646 7.44056 71.7568 7.48152L71.838 7.29876C71.7192 7.24597 71.5925 7.21982 71.459 7.21982V7.41982ZM71.7589 7.48244C71.8522 7.52134 71.9315 7.57524 71.9978 7.64407L72.1419 7.50534C72.0558 7.41598 71.9534 7.34682 71.8358 7.29783L71.7589 7.48244ZM72.0005 7.64674C72.0693 7.71303 72.1232 7.79228 72.1621 7.88563L72.3467 7.80871C72.2977 7.69112 72.2286 7.58873 72.1392 7.50268L72.0005 7.64674ZM72.163 7.88778C72.204 7.97994 72.2247 8.07884 72.2247 8.18555H72.4247C72.4247 8.05202 72.3986 7.92533 72.3458 7.80655L72.163 7.88778ZM72.2247 8.18555V12H72.4247V8.18555H72.2247ZM79.8042 12L79.7151 12.0454L79.7429 12.1H79.8042V12ZM77.4531 7.38135L77.5422 7.33598L77.3531 7.38135H77.4531ZM77.4531 12V12.1H77.5531V12H77.4531ZM76.5522 12H76.4522V12.1H76.5522V12ZM76.5522 5.69824V5.59824H76.4522V5.69824H76.5522ZM77.5366 5.69824L77.6259 5.65312L77.5981 5.59824H77.5366V5.69824ZM79.936 10.4443L79.8468 10.4895L79.936 10.6658L80.0252 10.4895L79.936 10.4443ZM82.3398 5.69824V5.59824H82.2784L82.2506 5.65306L82.3398 5.69824ZM83.3198 5.69824H83.4198V5.59824H83.3198V5.69824ZM83.3198 12V12.1H83.4198V12H83.3198ZM82.4233 12H82.3233V12.1H82.4233V12ZM82.4233 7.38135H82.5233L82.3342 7.33598L82.4233 7.38135ZM80.0723 12V12.1H80.1336L80.1614 12.0454L80.0723 12ZM79.8933 11.9546L77.5422 7.33598L77.364 7.42671L79.7151 12.0454L79.8933 11.9546ZM77.3531 7.38135V12H77.5531V7.38135H77.3531ZM77.4531 11.9H76.5522V12.1H77.4531V11.9ZM76.6522 12V5.69824H76.4522V12H76.6522ZM76.5522 5.79824H77.5366V5.59824H76.5522V5.79824ZM77.4474 5.74336L79.8468 10.4895L80.0253 10.3992L77.6259 5.65312L77.4474 5.74336ZM80.0252 10.4895L82.4291 5.74343L82.2506 5.65306L79.8468 10.3992L80.0252 10.4895ZM82.3398 5.79824H83.3198V5.59824H82.3398V5.79824ZM83.2198 5.69824V12H83.4198V5.69824H83.2198ZM83.3198 11.9H82.4233V12.1H83.3198V11.9ZM82.5233 12V7.38135H82.3233V12H82.5233ZM82.3342 7.33598L79.9831 11.9546L80.1614 12.0454L82.5125 7.42671L82.3342 7.33598ZM80.0723 11.9H79.8042V12.1H80.0723V11.9ZM88.8174 10.1016V10.2016H88.9174V10.1016H88.8174ZM85.7192 10.1016V10.0016H85.6192V10.1016H85.7192ZM85.7192 11.1343H85.6192V11.2343H85.7192V11.1343ZM88.8174 11.1343H88.9174V11.0343H88.8174V11.1343ZM88.8174 12V12.1H88.9174V12H88.8174ZM85.3853 11.9341L85.3446 12.0255L85.3468 12.0264L85.3853 11.9341ZM85.1084 11.7495L85.0363 11.8189L85.039 11.8215L85.1084 11.7495ZM84.9238 11.4727L84.8315 11.5111L84.8324 11.5133L84.9238 11.4727ZM84.9238 7.84717L84.8324 7.80654L84.8315 7.80871L84.9238 7.84717ZM85.3853 7.39014L85.4237 7.48247L85.4259 7.48152L85.3853 7.39014ZM88.29 7.39014L88.2494 7.48154L88.2516 7.48244L88.29 7.39014ZM88.5625 7.57471L88.4904 7.64412L88.4931 7.64674L88.5625 7.57471ZM88.7471 7.84717L88.6547 7.88564L88.6557 7.88778L88.7471 7.84717ZM85.7192 8.18555V8.08555H85.6192V8.18555H85.7192ZM85.7192 9.23584H85.6192V9.33584H85.7192V9.23584ZM87.9517 9.23584V9.33584H88.0517V9.23584H87.9517ZM87.9517 8.18555H88.0517V8.08555H87.9517V8.18555ZM88.8174 10.0016H85.7192V10.2016H88.8174V10.0016ZM85.6192 10.1016V11.1343H85.8192V10.1016H85.6192ZM85.7192 11.2343H88.8174V11.0343H85.7192V11.2343ZM88.7174 11.1343V12H88.9174V11.1343H88.7174ZM88.8174 11.9H85.7192V12.1H88.8174V11.9ZM85.7192 11.9C85.6149 11.9 85.5167 11.8805 85.4237 11.8418L85.3468 12.0264C85.4648 12.0755 85.5892 12.1 85.7192 12.1V11.9ZM85.4259 11.8427C85.3305 11.8003 85.2481 11.7452 85.1778 11.6775L85.039 11.8215C85.1269 11.9062 85.2291 11.9741 85.3446 12.0255L85.4259 11.8427ZM85.1804 11.6801C85.1127 11.6099 85.0576 11.5274 85.0152 11.432L84.8324 11.5133C84.8838 11.6288 84.9517 11.731 85.0364 11.8189L85.1804 11.6801ZM85.0161 11.4342C84.9775 11.3415 84.9579 11.2419 84.9579 11.1343H84.7579C84.7579 11.2669 84.7822 11.3928 84.8315 11.5111L85.0161 11.4342ZM84.9579 11.1343V8.18555H84.7579V11.1343H84.9579ZM84.9579 8.18555C84.9579 8.07794 84.9775 7.97829 85.0161 7.88563L84.8315 7.80871C84.7822 7.92698 84.7579 8.05292 84.7579 8.18555H84.9579ZM85.0152 7.88778C85.0575 7.79272 85.1122 7.71231 85.1791 7.64542L85.0377 7.504C84.9522 7.58945 84.8839 7.69068 84.8324 7.80655L85.0152 7.88778ZM85.1791 7.64542C85.2488 7.57575 85.33 7.52148 85.4237 7.48244L85.3468 7.29783C85.2295 7.34669 85.1262 7.41546 85.0377 7.504L85.1791 7.64542ZM85.4259 7.48152C85.5183 7.44041 85.6158 7.41982 85.7192 7.41982V7.21982C85.5883 7.21982 85.4631 7.24611 85.3446 7.29876L85.4259 7.48152ZM85.7192 7.41982H87.9517V7.21982H85.7192V7.41982ZM87.9517 7.41982C88.0584 7.41982 88.1573 7.44056 88.2494 7.48152L88.3307 7.29876C88.2119 7.24597 88.0852 7.21982 87.9517 7.21982V7.41982ZM88.2516 7.48244C88.3449 7.52134 88.4242 7.57524 88.4905 7.64407L88.6345 7.50534C88.5485 7.41598 88.4461 7.34682 88.3285 7.29783L88.2516 7.48244ZM88.4931 7.64674C88.562 7.71303 88.6159 7.79228 88.6548 7.88563L88.8394 7.80871C88.7904 7.69112 88.7212 7.58873 88.6319 7.50268L88.4931 7.64674ZM88.6557 7.88778C88.6966 7.97994 88.7174 8.07884 88.7174 8.18555H88.9174C88.9174 8.05202 88.8912 7.92533 88.8385 7.80655L88.6557 7.88778ZM88.7174 8.18555V10.1016H88.9174V8.18555H88.7174ZM85.6192 8.18555V9.23584H85.8192V8.18555H85.6192ZM85.7192 9.33584H87.9517V9.13584H85.7192V9.33584ZM88.0517 9.23584V8.18555H87.8517V9.23584H88.0517ZM87.9517 8.08555H85.7192V8.28555H87.9517V8.08555ZM94.4028 12V12.1H94.5028V12H94.4028ZM93.5371 12H93.4371V12.1H93.5371V12ZM93.5371 8.18555H93.6371V8.08555H93.5371V8.18555ZM91.1245 8.18555V8.08555H91.0245V8.18555H91.1245ZM91.1245 12V12.1H91.2245V12H91.1245ZM90.2632 12H90.1632V12.1H90.2632V12ZM90.2632 7.31982V7.21982H90.1632V7.31982H90.2632ZM91.1245 7.31982H91.2245V7.21982H91.1245V7.31982ZM91.1245 8.146H91.0245L91.2244 8.15112L91.1245 8.146ZM91.2036 7.8252L91.2941 7.86778L91.2946 7.86677L91.2036 7.8252ZM91.3882 7.56152L91.4575 7.63361L91.4576 7.63356L91.3882 7.56152ZM91.6606 7.38574L91.6978 7.47862L91.7 7.47766L91.6606 7.38574ZM93.8755 7.39014L93.8349 7.48154L93.837 7.48244L93.8755 7.39014ZM94.1479 7.57471L94.0759 7.64412L94.0786 7.64674L94.1479 7.57471ZM94.3325 7.84717L94.2402 7.88564L94.2411 7.88778L94.3325 7.84717ZM94.4028 11.9H93.5371V12.1H94.4028V11.9ZM93.6371 12V8.18555H93.4371V12H93.6371ZM93.5371 8.08555H91.1245V8.28555H93.5371V8.08555ZM91.0245 8.18555V12H91.2245V8.18555H91.0245ZM91.1245 11.9H90.2632V12.1H91.1245V11.9ZM90.3632 12V7.31982H90.1632V12H90.3632ZM90.2632 7.41982H91.1245V7.21982H90.2632V7.41982ZM91.0245 7.31982V8.146H91.2245V7.31982H91.0245ZM91.2244 8.15112C91.2296 8.04932 91.253 7.95517 91.2941 7.86777L91.1131 7.78262C91.0605 7.89444 91.0311 8.01416 91.0246 8.14087L91.2244 8.15112ZM91.2946 7.86677C91.3366 7.7749 91.391 7.69756 91.4575 7.63361L91.3189 7.48944C91.233 7.57197 91.1644 7.67041 91.1127 7.78362L91.2946 7.86677ZM91.4576 7.63356C91.5273 7.56639 91.6072 7.51484 91.6978 7.47859L91.6235 7.29289C91.509 7.33868 91.4073 7.40431 91.3188 7.48949L91.4576 7.63356ZM91.7 7.47766C91.7895 7.43931 91.8859 7.41982 91.9902 7.41982V7.21982C91.8602 7.21982 91.7369 7.24428 91.6213 7.29383L91.7 7.47766ZM91.9902 7.41982H93.5371V7.21982H91.9902V7.41982ZM93.5371 7.41982C93.6438 7.41982 93.7427 7.44056 93.8349 7.48152L93.9161 7.29876C93.7973 7.24597 93.6706 7.21982 93.5371 7.21982V7.41982ZM93.837 7.48244C93.9304 7.52134 94.0096 7.57524 94.0759 7.64407L94.22 7.50534C94.1339 7.41598 94.0315 7.34682 93.9139 7.29783L93.837 7.48244ZM94.0786 7.64674C94.1474 7.71303 94.2013 7.79228 94.2402 7.88563L94.4248 7.80871C94.3758 7.69112 94.3067 7.58873 94.2173 7.50268L94.0786 7.64674ZM94.2411 7.88778C94.2821 7.97994 94.3028 8.07884 94.3028 8.18555H94.5028C94.5028 8.05202 94.4767 7.92533 94.4239 7.80655L94.2411 7.88778ZM94.3028 8.18555V12H94.5028V8.18555H94.3028ZM95.8442 7.31982V7.21982H95.7442V7.31982H95.8442ZM96.7056 7.31982H96.8056V7.21982H96.7056V7.31982ZM96.7056 11.1343H96.6056V11.2343H96.7056V11.1343ZM99.1182 11.1343V11.2343H99.2182V11.1343H99.1182ZM99.1182 7.31982V7.21982H99.0182V7.31982H99.1182ZM99.9839 7.31982H100.084V7.21982H99.9839V7.31982ZM99.9839 12V12.1H100.084V12H99.9839ZM99.1182 12H99.0182V12.1H99.1182V12ZM99.1182 11.209H99.2182L99.0185 11.2009L99.1182 11.209ZM98.8369 11.7715L98.9047 11.845L98.9049 11.8449L98.8369 11.7715ZM96.3716 11.9341L96.331 12.0255L96.3331 12.0264L96.3716 11.9341ZM96.0947 11.7495L96.0226 11.8189L96.0254 11.8215L96.0947 11.7495ZM95.9102 11.4727L95.8178 11.5111L95.8188 11.5133L95.9102 11.4727ZM95.8442 7.41982H96.7056V7.21982H95.8442V7.41982ZM96.6056 7.31982V11.1343H96.8056V7.31982H96.6056ZM96.7056 11.2343H99.1182V11.0343H96.7056V11.2343ZM99.2182 11.1343V7.31982H99.0182V11.1343H99.2182ZM99.1182 7.41982H99.9839V7.21982H99.1182V7.41982ZM99.8839 7.31982V12H100.084V7.31982H99.8839ZM99.9839 11.9H99.1182V12.1H99.9839V11.9ZM99.2182 12V11.209H99.0182V12H99.2182ZM99.0185 11.2009C99.0108 11.2961 98.9851 11.3859 98.9414 11.4708L99.1192 11.5624C99.175 11.454 99.208 11.3386 99.2178 11.2171L99.0185 11.2009ZM98.9414 11.4708C98.8969 11.5572 98.8395 11.6328 98.769 11.6981L98.9049 11.8449C98.9926 11.7636 99.0641 11.6693 99.1192 11.5624L98.9414 11.4708ZM98.7691 11.698C98.702 11.76 98.6242 11.8093 98.5352 11.846L98.6113 12.0309C98.7215 11.9856 98.8195 11.9236 98.9047 11.845L98.7691 11.698ZM98.5352 11.846C98.448 11.8819 98.3555 11.9 98.2568 11.9V12.1C98.3808 12.1 98.4992 12.0771 98.6113 12.0309L98.5352 11.846ZM98.2568 11.9H96.7056V12.1H98.2568V11.9ZM96.7056 11.9C96.6012 11.9 96.503 11.8805 96.41 11.8418L96.3331 12.0264C96.4511 12.0755 96.5755 12.1 96.7056 12.1V11.9ZM96.4122 11.8427C96.3168 11.8003 96.2344 11.7452 96.1641 11.6775L96.0254 11.8215C96.1133 11.9062 96.2154 11.9741 96.331 12.0255L96.4122 11.8427ZM96.1668 11.6801C96.0991 11.6099 96.0439 11.5274 96.0015 11.432L95.8188 11.5133C95.8701 11.6288 95.938 11.731 96.0227 11.8189L96.1668 11.6801ZM96.0025 11.4342C95.9639 11.3415 95.9442 11.2419 95.9442 11.1343H95.7442C95.7442 11.2669 95.7686 11.3928 95.8178 11.5111L96.0025 11.4342ZM95.9442 11.1343V7.31982H95.7442V11.1343H95.9442Z"></path>
</svg>
