<svg version="1.1" xmlns="http://www.w3.org/2000/svg" xmlns:xlink="http://www.w3.org/1999/xlink" width="7.78027" height="5.70021" viewBox="0,0,7.78027,5.70021"><g transform="translate(-236.10986,-174.54979)"><g data-paper-data="{&quot;isPaintingLayer&quot;:true}" fill="#ffffff" fill-rule="nonzero" stroke="#ffffff" stroke-width="0.5" stroke-linecap="butt" stroke-linejoin="miter" stroke-miterlimit="10" stroke-dasharray="" stroke-dashoffset="0" style="mix-blend-mode: normal"><path d="M240.48097,175.76171v4.23828h-0.96192v-4.23828h-2.20215v4.23828h-0.95703v-5.2002h0.95703v0.91797c0.00651,-0.12695 0.03581,-0.24576 0.08789,-0.35644c0.05209,-0.11393 0.12045,-0.21159 0.20508,-0.29297c0.08789,-0.08464 0.1888,-0.14974 0.30274,-0.19531c0.11393,-0.04883 0.236,-0.07324 0.36621,-0.07324h1.24023c0.12695,0 0.2474,0.02441 0.36133,0.07324c0.11393,0.04557 0.21484,0.11068 0.30273,0.19531c0.08789,0.08138 0.15788,0.17904 0.20996,0.29297c0.05534,0.11068 0.08464,0.22949 0.0879,0.35644c0.00651,-0.12695 0.03417,-0.24576 0.083,-0.35644c0.05209,-0.11393 0.12045,-0.21159 0.20508,-0.29297c0.08789,-0.08464 0.1888,-0.14974 0.30274,-0.19531c0.11393,-0.04883 0.236,-0.07324 0.36621,-0.07324h1.24023c0.13346,0 0.25879,0.02604 0.37598,0.07813c0.11718,0.04883 0.2181,0.11719 0.30273,0.20508c0.08789,0.08463 0.15625,0.18554 0.20508,0.30273c0.05208,0.11719 0.07812,0.24252 0.07812,0.37598v4.23828h-0.96191v-4.23828z"/></g></g></svg>