<svg xmlns="http://www.w3.org/2000/svg" fill="none" viewBox="0 0 88 20" height="20" width="88">
<path fill="#67FB6C" d="M85.8864 0H2.11361C0.946294 0 0 0.998662 0 2.23058V17.7694C0 19.0013 0.946294 20 2.11361 20H85.8864C87.0537 20 88 19.0013 88 17.7694V2.23058C88 0.998662 87.0537 0 85.8864 0Z"></path>
<path fill="black" d="M13.8735 5.99854C13.8735 5.79346 13.9126 5.60059 13.9907 5.41992C14.0688 5.23438 14.1763 5.07568 14.313 4.94385C14.4497 4.80713 14.6084 4.69971 14.7891 4.62158C14.9746 4.53857 15.1699 4.49707 15.375 4.49707H21.0732C21.2783 4.49707 21.4712 4.53857 21.6519 4.62158C21.8374 4.69971 21.9985 4.80713 22.1353 4.94385C22.272 5.07568 22.3794 5.23438 22.4575 5.41992C22.5356 5.60059 22.5747 5.79346 22.5747 5.99854V7.35352H21.0732V5.99854H15.375V13.4985H21.0732V12.1509H22.5747V13.4985C22.5747 13.7036 22.5356 13.8989 22.4575 14.0845C22.3794 14.2651 22.272 14.4238 22.1353 14.5605C21.9985 14.6973 21.8374 14.8047 21.6519 14.8828C21.4712 14.9609 21.2783 15 21.0732 15H15.375C15.1699 15 14.9746 14.9609 14.7891 14.8828C14.6084 14.8047 14.4497 14.6973 14.313 14.5605C14.1763 14.4238 14.0688 14.2651 13.9907 14.0845C13.9126 13.8989 13.8735 13.7036 13.8735 13.4985V5.99854ZM31.5762 13.5571C31.5762 13.7573 31.5371 13.9453 31.459 14.1211C31.3857 14.2969 31.2832 14.4507 31.1514 14.5825C31.0244 14.7095 30.873 14.812 30.6973 14.8901C30.5264 14.9634 30.3408 15 30.1406 15H26.2661C26.0708 15 25.8853 14.9634 25.7095 14.8901C25.5337 14.812 25.3799 14.7095 25.248 14.5825C25.1211 14.4507 25.0186 14.2969 24.9404 14.1211C24.8672 13.9453 24.8306 13.7573 24.8306 13.5571V8.64258C24.8306 8.44238 24.8672 8.25439 24.9404 8.07861C25.0186 7.90283 25.1211 7.75146 25.248 7.62451C25.3799 7.49268 25.5337 7.39014 25.7095 7.31689C25.8853 7.23877 26.0708 7.19971 26.2661 7.19971H30.1406C30.3408 7.19971 30.5264 7.23877 30.6973 7.31689C30.873 7.39014 31.0244 7.49268 31.1514 7.62451C31.2832 7.75146 31.3857 7.90283 31.459 8.07861C31.5371 8.25439 31.5762 8.44238 31.5762 8.64258V13.5571ZM26.2661 8.64258V13.5571H30.1406V8.64258H26.2661ZM40.8853 15H39.4424V8.64258H35.4214V15H33.9858V7.19971H35.4214V8.57666C35.4312 8.38623 35.4751 8.20801 35.5532 8.04199C35.6313 7.87109 35.7339 7.72461 35.8608 7.60254C35.9927 7.47559 36.144 7.37793 36.3149 7.30957C36.4858 7.23633 36.6689 7.19971 36.8643 7.19971H39.4424C39.6426 7.19971 39.8306 7.23877 40.0063 7.31689C40.1821 7.39014 40.3335 7.49268 40.4604 7.62451C40.5923 7.75146 40.6948 7.90283 40.7681 8.07861C40.8462 8.25439 40.8853 8.44238 40.8853 8.64258V15ZM46.1807 5.63965V7.19971H48.7441V8.64258H46.1807V15H44.7378V8.64258H42.8335V7.19971H44.7378V5.63965C44.7378 5.43945 44.7744 5.25391 44.8477 5.08301C44.9258 4.90723 45.0308 4.75342 45.1626 4.62158C45.2944 4.48975 45.4482 4.38721 45.624 4.31396C45.7998 4.23584 45.9854 4.19678 46.1807 4.19678H48.7441V5.63965H46.1807ZM52.2158 7.19971V15H50.7729V7.19971H52.2158ZM50.6997 4.19678H52.2891V5.69824H50.6997V4.19678ZM56.1343 8.64258V15H54.6987V7.19971H56.1343V8.57666C56.144 8.38623 56.188 8.20801 56.2661 8.04199C56.3442 7.87109 56.4468 7.72461 56.5737 7.60254C56.7056 7.47559 56.8569 7.37793 57.0278 7.30957C57.1987 7.23633 57.3818 7.19971 57.5771 7.19971H59.1079C59.3081 7.19971 59.4937 7.23877 59.6646 7.31689C59.8403 7.39014 59.9941 7.49268 60.126 7.62451C60.2578 7.75146 60.3604 7.90283 60.4336 8.07861C60.5117 8.25439 60.5508 8.44238 60.5508 8.64258V9.96094H59.1079V8.64258H56.1343ZM68.5269 8.64258V15H67.084V8.64258H63.7808V15H62.3452V7.19971H63.7808V8.57666C63.7905 8.38623 63.8345 8.20801 63.9126 8.04199C63.9907 7.87109 64.0933 7.72461 64.2202 7.60254C64.3521 7.47559 64.5034 7.37793 64.6743 7.30957C64.8452 7.23633 65.0283 7.19971 65.2236 7.19971H67.084C67.2744 7.19971 67.4551 7.23633 67.626 7.30957C67.7969 7.37793 67.9482 7.47559 68.0801 7.60254C68.2119 7.72461 68.3169 7.87109 68.395 8.04199C68.478 8.20801 68.522 8.38623 68.5269 8.57666C68.5366 8.38623 68.5781 8.20801 68.6514 8.04199C68.7295 7.87109 68.832 7.72461 68.959 7.60254C69.0908 7.47559 69.2422 7.37793 69.4131 7.30957C69.584 7.23633 69.7671 7.19971 69.9624 7.19971H71.8228C72.0229 7.19971 72.2109 7.23877 72.3867 7.31689C72.5625 7.39014 72.7139 7.49268 72.8408 7.62451C72.9727 7.75146 73.0752 7.90283 73.1484 8.07861C73.2266 8.25439 73.2656 8.44238 73.2656 8.64258V15H71.8228V8.64258H68.5269Z"></path>
</svg>
