<svg version="1.1" xmlns="http://www.w3.org/2000/svg" xmlns:xlink="http://www.w3.org/1999/xlink" width="88" height="20" viewBox="0,0,88,20"><g transform="translate(-196,-170)"><g data-paper-data="{&quot;isPaintingLayer&quot;:true}" fill-rule="nonzero" stroke="none" stroke-width="1" stroke-linecap="butt" stroke-linejoin="miter" stroke-miterlimit="10" stroke-dasharray="" stroke-dashoffset="0" style="mix-blend-mode: normal"><path d="M284,172.23058v15.53882c0,1.2319 -0.9463,2.2306 -2.1136,2.2306h-83.77279c-1.16732,0 -2.11361,-0.9987 -2.11361,-2.2306v-15.53882c0,-1.23192 0.94629,-2.23058 2.11361,-2.23058h83.77279c1.1673,0 2.1136,0.99866 2.1136,2.23058z" fill="#f27c40"/><path d="M207.16921,181.70528c0,0.1504 -0.0287,0.2936 -0.086,0.4297c-0.0573,0.1325 -0.136,0.2489 -0.2363,0.3491c-0.1003,0.1003 -0.2184,0.1791 -0.3545,0.2364c-0.13249,0.0573 -0.27393,0.0859 -0.42432,0.0859h-4.39892c-0.1504,0 -0.29362,-0.0286 -0.42969,-0.0859c-0.13249,-0.0573 -0.24886,-0.1361 -0.34912,-0.2364c-0.10026,-0.1002 -0.17904,-0.2166 -0.23633,-0.3491c-0.05729,-0.1361 -0.08594,-0.2793 -0.08594,-0.4297v-5.49997c0,-0.15039 0.02865,-0.29183 0.08594,-0.42432c0.05729,-0.13607 0.13607,-0.25244 0.23633,-0.34912c0.10026,-0.10026 0.21663,-0.17904 0.34912,-0.23633c0.13607,-0.06087 0.27929,-0.09131 0.42969,-0.09131h4.39892c0.15039,0 0.29183,0.03044 0.42432,0.09131c0.1361,0.05729 0.2542,0.13607 0.3545,0.23633c0.1003,0.09668 0.179,0.21305 0.2363,0.34912c0.0573,0.13249 0.086,0.27393 0.086,0.42432zM201.66917,176.20531v5.49997h4.39892v-5.49997zM214.10321,181.74828c0,0.1468 -0.0286,0.2847 -0.0859,0.4136c-0.0537,0.1289 -0.1289,0.2417 -0.2256,0.3383c-0.0931,0.0931 -0.2041,0.1683 -0.333,0.2256c-0.1289,0.0537 -0.2668,0.0806 -0.4136,0.0806h-2.9487v2.3096h-1.0527v-8.02981h1.0527v0.96679c0.0107,-0.13607 0.0466,-0.26139 0.1074,-0.37597c0.0609,-0.11817 0.1379,-0.22022 0.231,-0.30616c0.0931,-0.08952 0.2005,-0.15934 0.3222,-0.20947c0.1254,-0.05013 0.2579,-0.07519 0.3975,-0.07519h1.8906c0.1468,0 0.2847,0.02864 0.4136,0.08593c0.1289,0.05371 0.2399,0.12891 0.333,0.22559c0.0967,0.0931 0.1719,0.2041 0.2256,0.33301c0.0573,0.1289 0.0859,0.26676 0.0859,0.41357zM213.04511,181.74828v-3.60401h-2.9487v3.60401zM220.70431,180.48608h-3.7866v1.2622h3.7866v1.0581h-3.7866c-0.1432,0 -0.2793,-0.0269 -0.4082,-0.0806c-0.1289,-0.0573 -0.2417,-0.1325 -0.3384,-0.2256c-0.0931,-0.0966 -0.1683,-0.2094 -0.2256,-0.3383c-0.0537,-0.1289 -0.0805,-0.2668 -0.0805,-0.4136v-3.60401c0,-0.14681 0.0268,-0.28467 0.0805,-0.41357c0.0573,-0.12891 0.1325,-0.23991 0.2256,-0.33301c0.0967,-0.09668 0.2095,-0.17188 0.3384,-0.22559c0.1289,-0.05729 0.265,-0.08593 0.4082,-0.08593h2.7285c0.1468,0 0.2847,0.02864 0.4136,0.08593c0.1289,0.05371 0.2399,0.12891 0.333,0.22559c0.0967,0.0931 0.1719,0.2041 0.2256,0.33301c0.0573,0.1289 0.0859,0.26676 0.0859,0.41357zM216.91771,178.14427v1.28369h2.7285v-1.28369zM227.53101,182.80638h-1.0581v-4.66211h-2.9488v4.66211h-1.0527v-5.72021h1.0527v1.00976c0.0072,-0.13965 0.0394,-0.27034 0.0967,-0.39209c0.0573,-0.12532 0.1325,-0.23275 0.2256,-0.32226c0.0967,-0.0931 0.2077,-0.16472 0.333,-0.21485c0.1253,-0.05371 0.2596,-0.08056 0.4028,-0.08056h1.8907c0.1468,0 0.2846,0.02864 0.4135,0.08593c0.1289,0.05371 0.2399,0.12891 0.333,0.22559c0.0967,0.0931 0.1719,0.2041 0.2256,0.33301c0.0573,0.1289 0.086,0.26676 0.086,0.41357zM233.70241,177.08617v5.72021h-1.0581v-5.72021zM232.59051,174.88402h1.1656v1.10107h-1.1656zM240.58271,182.80638h-1.0581v-4.66211h-2.9487v4.66211h-1.0527v-5.72021h1.0527v1.00976c0.0072,-0.13965 0.0394,-0.27034 0.0967,-0.39209c0.0573,-0.12532 0.1325,-0.23275 0.2256,-0.32226c0.0966,-0.0931 0.2076,-0.16472 0.333,-0.21485c0.1253,-0.05371 0.2596,-0.08056 0.4028,-0.08056h1.8906c0.1468,0 0.2847,0.02864 0.4136,0.08593c0.1289,0.05371 0.2399,0.12891 0.333,0.22559c0.0967,0.0931 0.1719,0.2041 0.2256,0.33301c0.0573,0.1289 0.0859,0.26676 0.0859,0.41357zM245.74971,175.10423h5.6128v1.10108h-4.5117v2.20214h3.8511v1.10108h-3.8511v2.19675h4.5117v1.1011h-5.6128zM252.90401,178.14427c0,-0.14681 0.0269,-0.28467 0.0806,-0.41357c0.0573,-0.12891 0.1325,-0.23991 0.2256,-0.33301c0.0967,-0.09668 0.2094,-0.17188 0.3384,-0.22559c0.1289,-0.05729 0.2649,-0.08593 0.4082,-0.08593h2.9487v-2.20215h1.0581v7.92236h-1.0581v-0.9668c-0.0108,0.1325 -0.0466,0.2578 -0.1074,0.376c-0.0609,0.1181 -0.1397,0.222 -0.2364,0.3115c-0.0931,0.0859 -0.2005,0.154 -0.3222,0.2041c-0.1218,0.0501 -0.2507,0.0752 -0.3868,0.0752h-1.8959c-0.1433,0 -0.2793,-0.0269 -0.4082,-0.0806c-0.129,-0.0573 -0.2417,-0.1325 -0.3384,-0.2256c-0.0931,-0.0966 -0.1683,-0.2094 -0.2256,-0.3383c-0.0537,-0.1289 -0.0806,-0.2668 -0.0806,-0.4136zM253.95681,181.74828h2.9487v-3.60401h-2.9487zM260.83711,177.08617v5.72021h-1.0581v-5.72021zM259.72531,174.88402h1.1655v1.10107h-1.1655zM262.32491,177.08617h1.3965v-1.76172h1.0581v1.76172h1.8799v1.0581h-1.8799v3.60401h1.8799v1.0581h-1.8799c-0.1432,0 -0.2793,-0.0269 -0.4082,-0.0806c-0.1289,-0.0573 -0.2417,-0.1325 -0.3384,-0.2256c-0.0967,-0.0966 -0.1736,-0.2094 -0.2309,-0.3383c-0.0537,-0.1289 -0.0806,-0.2668 -0.0806,-0.4136v-3.60401h-1.3965zM273.37331,181.74828c0,0.1468 -0.0287,0.2847 -0.086,0.4136c-0.0537,0.1289 -0.1289,0.2417 -0.2256,0.3383c-0.0931,0.0931 -0.2041,0.1683 -0.333,0.2256c-0.1253,0.0537 -0.2614,0.0806 -0.4082,0.0806h-2.8413c-0.1432,0 -0.2793,-0.0269 -0.4082,-0.0806c-0.1289,-0.0573 -0.2417,-0.1325 -0.3384,-0.2256c-0.0931,-0.0966 -0.1683,-0.2094 -0.2256,-0.3383c-0.0537,-0.1289 -0.0805,-0.2668 -0.0805,-0.4136v-3.60401c0,-0.14681 0.0268,-0.28467 0.0805,-0.41357c0.0573,-0.12891 0.1325,-0.23991 0.2256,-0.33301c0.0967,-0.09668 0.2095,-0.17188 0.3384,-0.22559c0.1289,-0.05729 0.265,-0.08593 0.4082,-0.08593h2.8413c0.1468,0 0.2829,0.02864 0.4082,0.08593c0.1289,0.05371 0.2399,0.12891 0.333,0.22559c0.0967,0.0931 0.1719,0.2041 0.2256,0.33301c0.0573,0.1289 0.086,0.26676 0.086,0.41357zM269.47921,178.14427v3.60401h2.8413v-3.60401zM276.19311,178.14427v4.66211h-1.0528v-5.72021h1.0528v1.00976c0.0071,-0.13965 0.0394,-0.27034 0.0967,-0.39209c0.0573,-0.12532 0.1324,-0.23275 0.2255,-0.32226c0.0967,-0.0931 0.2077,-0.16472 0.3331,-0.21485c0.1253,-0.05371 0.2596,-0.08056 0.4028,-0.08056h1.1225c0.1469,0 0.2829,0.02864 0.4082,0.08593c0.129,0.05371 0.2417,0.12891 0.3384,0.22559c0.0967,0.0931 0.1719,0.2041 0.2256,0.33301c0.0573,0.1289 0.086,0.26676 0.086,0.41357v0.9668h-1.0582v-0.9668z" fill="#000000"/></g></g></svg>