<svg version="1.1" xmlns="http://www.w3.org/2000/svg" xmlns:xlink="http://www.w3.org/1999/xlink" width="320.00001" height="78" viewBox="0,0,320.00001,78"><g transform="translate(-80,-141.12611)"><g data-paper-data="{&quot;isPaintingLayer&quot;:true}" fill-rule="nonzero" stroke-linecap="butt" stroke-linejoin="miter" stroke-miterlimit="10" stroke-dasharray="" stroke-dashoffset="0" style="mix-blend-mode: normal"><path d="M98.83594,217.62611c-9.57438,0 -17.33594,-6.16587 -17.33594,-14.51795c0,-13.16213 0,-31.75366 0,-40.19912c0,-8.40478 7.76156,-20.28293 17.33594,-20.28293h282.32813c9.57438,0 17.33594,10.27335 17.33594,17.93478c0,8.00055 0,26.19124 0,39.89895c0,9.70721 -7.76156,17.16626 -17.33594,17.16626z" fill="#ffffff" stroke="#4191ef" stroke-width="3"/><path d="M81.5,160c0,-8.837 7.163,-16 16,-16h285c8.837,0 16,7.163 16,16v20h-317z" fill="#4191ef" stroke="none" stroke-width="1"/><g fill="#ffffff" stroke="none" stroke-width="1"><path d="M107.083,148c0.783,0 1.417,0.627 1.417,1.4v7h-0.014l0.014,0.014l-5.667,5.586l5.664,5.604l0.004,0.014v6.982c0,0.773 -0.635,1.4 -1.417,1.4h-14.167c-0.783,0 -1.417,-0.627 -1.417,-1.4l0.007,-6.993l-0.003,-0.011l5.663,-5.596l-5.667,-5.586v-0.028v-6.986c0,-0.773 0.634,-1.4 1.417,-1.4zM100,162.7l-5.667,5.6v3.5c0,0.773 0.635,1.4 1.417,1.4h8.5c0.783,0 1.417,-0.627 1.417,-1.4v-3.5zM105.667,155.7v-3.5c0,-0.773 -0.635,-1.4 -1.417,-1.4h-8.5c-0.783,0 -1.417,0.627 -1.417,1.4v3.5l5.667,5.6z"/><path d="M93.549,155.444c0,0 3.737,2.173 6.356,2.116c2.947,-0.064 6.908,-3.004 6.908,-3.004l-5.389,7.237l-2.901,-0.683l-4.974,-5.667zM99.446,168.898c0.284,-0.352 0.824,-0.352 1.108,0l3.575,4.435h-8.258z"/><path d="M99.719,162.41h0.461v6.876h-0.461z"/></g><g stroke="none" stroke-width="1"><path d="M364.99926,162.17049c0,-7.93299 6.43095,-14.36394 14.36394,-14.36394c7.93298,0 14.36393,6.43095 14.36393,14.36394c0,7.93299 -6.43095,14.36393 -14.36393,14.36393c-7.93298,0 -14.36394,-6.43095 -14.36394,-14.36393z" fill="#ffffff"/><g fill="#ff0000"><path d="M385.87974,153.83886v1.9827h-13.03309v-1.98274c0,-0.34858 0.24721,-0.63117 0.55222,-0.63117h3.79006v-0.81885c0,-0.11629 0.08256,-0.21061 0.18423,-0.21061h3.98006c0.10179,0 0.18424,0.09433 0.18424,0.21061v0.8189h3.79008c0.30502,0 0.5522,0.28258 0.5522,0.63116z"/><path d="M373.66293,157.04455h11.14731l-0.58667,14.15448c-0.01974,0.53859 -0.40769,0.96376 -0.87932,0.96376h-8.21539c-0.47166,0 -0.8595,-0.42517 -0.87923,-0.96376zM381.09498,168.647c0,0.2257 0.16013,0.40856 0.35748,0.40856h0.57169c0.19747,0 0.35748,-0.18286 0.35748,-0.40856v-8.08673c0,-0.22559 -0.16013,-0.40846 -0.35748,-0.40846h-0.57169c-0.19747,0 -0.35748,0.18292 -0.35748,0.40846zM378.59328,168.647c0,0.2257 0.16013,0.40856 0.35748,0.40856h0.57168c0.19747,0 0.35735,-0.18286 0.35735,-0.40856v-8.08673c0,-0.22559 -0.16,-0.40846 -0.35735,-0.40846h-0.57168c-0.19747,0 -0.35748,0.18292 -0.35748,0.40846zM376.09154,168.647c0,0.2257 0.16005,0.40856 0.3574,0.40856h0.5718c0.19735,0 0.35735,-0.18286 0.35735,-0.40856v-8.08673c0,-0.22559 -0.16,-0.40846 -0.35735,-0.40846h-0.5718c-0.19738,0 -0.3574,0.18292 -0.3574,0.40846z"/></g></g></g></g></svg>