<svg version="1.1" xmlns="http://www.w3.org/2000/svg" xmlns:xlink="http://www.w3.org/1999/xlink" width="136.34242" height="109.45522" viewBox="0,0,136.34242,109.45522"><g transform="translate(-176.67157,-171.80265)"><g data-paper-data="{&quot;isPaintingLayer&quot;:true}" fill-rule="nonzero" stroke-linecap="butt" stroke-linejoin="miter" stroke-miterlimit="10" stroke-dasharray="" stroke-dashoffset="0" style="mix-blend-mode: normal"><path d="M180.73713,172.25284l2.7002,7.00195h-1.001l-0.6201,-1.61133h-3.1592l-0.6201,1.61133h-1.001l2.7002,-7.00195zM179.03793,176.6425h2.3926l-1.1915,-3.08594zM184.54083,175.01652c0,-0.13346 0.0244,-0.25879 0.0732,-0.37598c0.0521,-0.11719 0.1205,-0.2181 0.2051,-0.30273c0.0879,-0.08789 0.1905,-0.15625 0.3076,-0.20508c0.1172,-0.05208 0.2409,-0.07813 0.3711,-0.07813h2.6807v-2.00195h0.9619v7.20215h-0.9619v-0.8789c-0.0098,0.1204 -0.0423,0.2344 -0.0977,0.3418c-0.0553,0.1074 -0.1269,0.2018 -0.2148,0.2832c-0.0846,0.0781 -0.1823,0.14 -0.293,0.1855c-0.1106,0.0456 -0.2278,0.0684 -0.3515,0.0684h-1.7237c-0.1302,0 -0.2539,-0.0244 -0.3711,-0.0732c-0.1171,-0.0521 -0.2197,-0.1205 -0.3076,-0.2051c-0.0846,-0.0879 -0.153,-0.1905 -0.2051,-0.3076c-0.0488,-0.1172 -0.0732,-0.2426 -0.0732,-0.376zM185.49783,178.29288h2.6807v-3.27638h-2.6807zM192.22153,179.2548l-2.0801,-5.2002h1.001l1.5771,4.04786l1.5821,-4.04786h1.0009l-2.0801,5.2002zM196.30843,176.98429c0,-0.13346 0.0244,-0.25716 0.0732,-0.37109c0.0521,-0.11719 0.1205,-0.21973 0.2051,-0.30762c0.0879,-0.08789 0.1904,-0.15625 0.3076,-0.20508c0.1172,-0.05208 0.2409,-0.07812 0.3711,-0.07812h2.4805v-1.00586h-3.1397v-0.96192h3.1397c0.1334,0 0.2588,0.02605 0.376,0.07813c0.1171,0.04883 0.2181,0.11719 0.3027,0.20508c0.0879,0.08463 0.1562,0.18554 0.2051,0.30273c0.0521,0.11719 0.0781,0.24252 0.0781,0.37598v4.23828h-0.9619v-0.8789c-0.0098,0.1204 -0.0423,0.2344 -0.0977,0.3418c-0.0553,0.1074 -0.1269,0.2018 -0.2148,0.2832c-0.0846,0.0781 -0.1823,0.14 -0.293,0.1855c-0.1107,0.0456 -0.2278,0.0684 -0.3515,0.0684h-1.5235c-0.1302,0 -0.2539,-0.0244 -0.3711,-0.0732c-0.1172,-0.0521 -0.2197,-0.1205 -0.3076,-0.2051c-0.0846,-0.0879 -0.153,-0.1905 -0.2051,-0.3076c-0.0488,-0.1172 -0.0732,-0.2426 -0.0732,-0.376zM197.26543,178.29288h2.4805v-1.30861h-2.4805zM206.91393,179.2548h-0.962v-4.23828h-2.6806v4.23828h-0.9571v-5.2002h0.9571v0.91797c0.0065,-0.12695 0.0358,-0.24576 0.0879,-0.35644c0.0521,-0.11393 0.1204,-0.21159 0.205,-0.29297c0.0879,-0.08464 0.1888,-0.14974 0.3028,-0.19531c0.1139,-0.04883 0.236,-0.07325 0.3662,-0.07325h1.7187c0.1335,0 0.2588,0.02605 0.376,0.07813c0.1172,0.04883 0.2181,0.11719 0.3028,0.20508c0.0878,0.08463 0.1562,0.18554 0.205,0.30273c0.0521,0.11719 0.0782,0.24252 0.0782,0.37598zM209.47243,175.01652v3.27638h2.4805v-0.87892h0.9619v0.87892c0,0.1334 -0.026,0.2588 -0.0781,0.376c-0.0488,0.1171 -0.1172,0.2197 -0.2051,0.3076c-0.0846,0.0846 -0.1855,0.153 -0.3027,0.2051c-0.1172,0.0488 -0.2425,0.0732 -0.376,0.0732h-2.4805c-0.1302,0 -0.2539,-0.0244 -0.371,-0.0732c-0.1172,-0.0521 -0.2198,-0.1205 -0.3077,-0.2051c-0.0846,-0.0879 -0.153,-0.1905 -0.205,-0.3076c-0.0489,-0.1172 -0.0733,-0.2426 -0.0733,-0.376v-3.27638c0,-0.13346 0.0244,-0.25879 0.0733,-0.37598c0.052,-0.11719 0.1204,-0.2181 0.205,-0.30273c0.0879,-0.08789 0.1905,-0.15625 0.3077,-0.20508c0.1171,-0.05208 0.2408,-0.07813 0.371,-0.07813h2.4805c0.1335,0 0.2588,0.02605 0.376,0.07813c0.1172,0.04883 0.2181,0.11719 0.3027,0.20508c0.0879,0.08463 0.1563,0.18554 0.2051,0.30273c0.0521,0.11719 0.0781,0.24252 0.0781,0.37598v0.8789h-0.9619v-0.8789zM218.92073,177.14542h-3.4424v1.14748h3.4424v0.9619h-3.4424c-0.1302,0 -0.2539,-0.0244 -0.3711,-0.0732c-0.1172,-0.0521 -0.2197,-0.1205 -0.3076,-0.2051c-0.0846,-0.0879 -0.153,-0.1905 -0.2051,-0.3076c-0.0488,-0.1172 -0.0732,-0.2426 -0.0732,-0.376v-3.27638c0,-0.13346 0.0244,-0.25879 0.0732,-0.37598c0.0521,-0.11719 0.1205,-0.2181 0.2051,-0.30273c0.0879,-0.08789 0.1904,-0.15625 0.3076,-0.20508c0.1172,-0.05208 0.2409,-0.07813 0.3711,-0.07813h2.4805c0.1334,0 0.2588,0.02605 0.376,0.07813c0.1171,0.04883 0.2181,0.11719 0.3027,0.20508c0.0879,0.08463 0.1562,0.18554 0.2051,0.30273c0.052,0.11719 0.0781,0.24252 0.0781,0.37598zM215.47833,175.01652v1.16699h2.4805v-1.16699zM220.52713,175.01652c0,-0.13346 0.0245,-0.25879 0.0733,-0.37598c0.0521,-0.11719 0.1204,-0.2181 0.2051,-0.30273c0.0878,-0.08789 0.1904,-0.15625 0.3076,-0.20508c0.1172,-0.05208 0.2409,-0.07813 0.3711,-0.07813h2.6806v-2.00195h0.9619v7.20215h-0.9619v-0.8789c-0.0097,0.1204 -0.0423,0.2344 -0.0976,0.3418c-0.0554,0.1074 -0.127,0.2018 -0.2149,0.2832c-0.0846,0.0781 -0.1823,0.14 -0.2929,0.1855c-0.1107,0.0456 -0.2279,0.0684 -0.3516,0.0684h-1.7236c-0.1302,0 -0.2539,-0.0244 -0.3711,-0.0732c-0.1172,-0.0521 -0.2198,-0.1205 -0.3076,-0.2051c-0.0847,-0.0879 -0.153,-0.1905 -0.2051,-0.3076c-0.0488,-0.1172 -0.0733,-0.2426 -0.0733,-0.376zM221.48423,178.29288h2.6806v-3.27638h-2.6806z" fill="#87bf3d" stroke="#87bf3d" stroke-width="0.5"/><path d="M179.293,182.37724l1.8901,4.9014h-0.7007l-0.4341,-1.1279h-2.2114l-0.4341,1.1279h-0.7007l1.8902,-4.9014zM178.1035,185.45004h1.6748l-0.834,-2.1602zM182.6255,184.31184v2.2935h1.7363v-0.6153h0.6734v0.6153c0,0.0934 -0.0183,0.1811 -0.0547,0.2631c-0.0342,0.0821 -0.0821,0.1539 -0.1436,0.2154c-0.0592,0.0592 -0.1299,0.1071 -0.2119,0.1435c-0.082,0.0342 -0.1698,0.0513 -0.2632,0.0513h-1.7363c-0.0912,0 -0.1777,-0.0171 -0.2598,-0.0513c-0.082,-0.0364 -0.1538,-0.0843 -0.2153,-0.1435c-0.0593,-0.0615 -0.1071,-0.1333 -0.1436,-0.2154c-0.0341,-0.082 -0.0512,-0.1697 -0.0512,-0.2631v-2.2935c0,-0.0934 0.0171,-0.1811 0.0512,-0.2632c0.0365,-0.082 0.0843,-0.1526 0.1436,-0.2119c0.0615,-0.0615 0.1333,-0.1094 0.2153,-0.1435c0.0821,-0.0365 0.1686,-0.0547 0.2598,-0.0547h1.7363c0.0934,0 0.1812,0.0182 0.2632,0.0547c0.082,0.0341 0.1527,0.082 0.2119,0.1435c0.0615,0.0593 0.1094,0.1299 0.1436,0.2119c0.0364,0.0821 0.0547,0.1698 0.0547,0.2632v0.6152h-0.6734v-0.6152zM186.8296,184.31184v2.2935h1.7363v-0.6153h0.6734v0.6153c0,0.0934 -0.0183,0.1811 -0.0547,0.2631c-0.0342,0.0821 -0.0821,0.1539 -0.1436,0.2154c-0.0592,0.0592 -0.1299,0.1071 -0.2119,0.1435c-0.082,0.0342 -0.1698,0.0513 -0.2632,0.0513h-1.7363c-0.0912,0 -0.1777,-0.0171 -0.2598,-0.0513c-0.082,-0.0364 -0.1538,-0.0843 -0.2153,-0.1435c-0.0593,-0.0615 -0.1071,-0.1333 -0.1436,-0.2154c-0.0341,-0.082 -0.0512,-0.1697 -0.0512,-0.2631v-2.2935c0,-0.0934 0.0171,-0.1811 0.0512,-0.2632c0.0365,-0.082 0.0843,-0.1526 0.1436,-0.2119c0.0615,-0.0615 0.1333,-0.1094 0.2153,-0.1435c0.0821,-0.0365 0.1686,-0.0547 0.2598,-0.0547h1.7363c0.0934,0 0.1812,0.0182 0.2632,0.0547c0.082,0.0341 0.1527,0.082 0.2119,0.1435c0.0615,0.0593 0.1094,0.1299 0.1436,0.2119c0.0364,0.0821 0.0547,0.1698 0.0547,0.2632v0.6152h-0.6734v-0.6152zM193.4434,185.80204h-2.4097v0.8033h2.4097v0.6733h-2.4097c-0.0912,0 -0.1777,-0.0171 -0.2598,-0.0513c-0.082,-0.0364 -0.1538,-0.0843 -0.2153,-0.1435c-0.0593,-0.0615 -0.1071,-0.1333 -0.1436,-0.2154c-0.0341,-0.082 -0.0512,-0.1697 -0.0512,-0.2631v-2.2935c0,-0.0934 0.0171,-0.1811 0.0512,-0.2632c0.0365,-0.082 0.0843,-0.1526 0.1436,-0.2119c0.0615,-0.0615 0.1333,-0.1094 0.2153,-0.1435c0.0821,-0.0365 0.1686,-0.0547 0.2598,-0.0547h1.7363c0.0934,0 0.1812,0.0182 0.2632,0.0547c0.082,0.0341 0.1527,0.082 0.2119,0.1435c0.0615,0.0593 0.1094,0.1299 0.1436,0.2119c0.0364,0.0821 0.0547,0.1698 0.0547,0.2632zM191.0337,184.31184v0.8169h1.7363v-0.8169zM196.7656,186.60534v-0.8443h-1.5962c-0.0934,0 -0.1811,-0.0171 -0.2632,-0.0512c-0.082,-0.0365 -0.1538,-0.0844 -0.2153,-0.1436c-0.0592,-0.0615 -0.1071,-0.1333 -0.1435,-0.2153c-0.0342,-0.0821 -0.0513,-0.1698 -0.0513,-0.2632v-0.7759c0,-0.0934 0.0171,-0.1811 0.0513,-0.2632c0.0364,-0.082 0.0843,-0.1526 0.1435,-0.2119c0.0615,-0.0615 0.1333,-0.1094 0.2153,-0.1435c0.0821,-0.0365 0.1698,-0.0547 0.2632,-0.0547h2.1294v0.6733h-2.1294v0.7759h1.5962c0.0934,0 0.18,0.0182 0.2598,0.0547c0.082,0.0341 0.1538,0.082 0.2153,0.1435c0.0615,0.0593 0.1094,0.1299 0.1436,0.2119c0.0364,0.0821 0.0547,0.1698 0.0547,0.2632v0.8443c0,0.0934 -0.0183,0.1811 -0.0547,0.2631c-0.0342,0.0821 -0.0821,0.1539 -0.1436,0.2154c-0.0615,0.0592 -0.1333,0.1071 -0.2153,0.1435c-0.0798,0.0342 -0.1664,0.0513 -0.2598,0.0513h-2.2695v-0.6733zM200.6895,186.60534v-0.8443h-1.5962c-0.0935,0 -0.1812,-0.0171 -0.2632,-0.0512c-0.0821,-0.0365 -0.1538,-0.0844 -0.2154,-0.1436c-0.0592,-0.0615 -0.1071,-0.1333 -0.1435,-0.2153c-0.0342,-0.0821 -0.0513,-0.1698 -0.0513,-0.2632v-0.7759c0,-0.0934 0.0171,-0.1811 0.0513,-0.2632c0.0364,-0.082 0.0843,-0.1526 0.1435,-0.2119c0.0616,-0.0615 0.1333,-0.1094 0.2154,-0.1435c0.082,-0.0365 0.1697,-0.0547 0.2632,-0.0547h2.1294v0.6733h-2.1294v0.7759h1.5962c0.0934,0 0.18,0.0182 0.2597,0.0547c0.082,0.0341 0.1538,0.082 0.2154,0.1435c0.0615,0.0593 0.1093,0.1299 0.1435,0.2119c0.0365,0.0821 0.0547,0.1698 0.0547,0.2632v0.8443c0,0.0934 -0.0182,0.1811 -0.0547,0.2631c-0.0342,0.0821 -0.082,0.1539 -0.1435,0.2154c-0.0616,0.0592 -0.1334,0.1071 -0.2154,0.1435c-0.0797,0.0342 -0.1663,0.0513 -0.2597,0.0513h-2.2696v-0.6733zM204.3022,183.63854h0.8887v-1.1211h0.6734v1.1211h1.1962v0.6733h-1.1962v2.2935h1.1962v0.6733h-1.1962c-0.0912,0 -0.1778,-0.0171 -0.2598,-0.0513c-0.082,-0.0364 -0.1538,-0.0843 -0.2153,-0.1435c-0.0616,-0.0615 -0.1106,-0.1333 -0.147,-0.2154c-0.0342,-0.082 -0.0513,-0.1697 -0.0513,-0.2631v-2.2935h-0.8887zM211.333,186.60534c0,0.0934 -0.0182,0.1811 -0.0547,0.2631c-0.0342,0.0821 -0.082,0.1539 -0.1435,0.2154c-0.0593,0.0592 -0.1299,0.1071 -0.2119,0.1435c-0.0798,0.0342 -0.1664,0.0513 -0.2598,0.0513h-1.8081c-0.0912,0 -0.1778,-0.0171 -0.2598,-0.0513c-0.082,-0.0364 -0.1538,-0.0843 -0.2153,-0.1435c-0.0593,-0.0615 -0.1071,-0.1333 -0.1436,-0.2154c-0.0342,-0.082 -0.0512,-0.1697 -0.0512,-0.2631v-2.2935c0,-0.0934 0.017,-0.1811 0.0512,-0.2632c0.0365,-0.082 0.0843,-0.1526 0.1436,-0.2119c0.0615,-0.0615 0.1333,-0.1094 0.2153,-0.1435c0.082,-0.0365 0.1686,-0.0547 0.2598,-0.0547h1.8081c0.0934,0 0.18,0.0182 0.2598,0.0547c0.082,0.0341 0.1526,0.082 0.2119,0.1435c0.0615,0.0593 0.1093,0.1299 0.1435,0.2119c0.0365,0.0821 0.0547,0.1698 0.0547,0.2632zM208.855,184.31184v2.2935h1.8081v-2.2935zM215.7456,182.37724v4.9014h-0.7007v-4.2007h-0.8408v-0.7007zM220.9307,186.57794c0,0.0957 -0.0183,0.1869 -0.0547,0.2735c-0.0365,0.0843 -0.0866,0.1583 -0.1504,0.2221c-0.0638,0.0638 -0.139,0.114 -0.2256,0.1504c-0.0843,0.0365 -0.1743,0.0547 -0.27,0.0547h-2.4507c-0.0957,0 -0.1869,-0.0182 -0.2734,-0.0547c-0.0844,-0.0364 -0.1584,-0.0866 -0.2222,-0.1504c-0.0638,-0.0638 -0.1139,-0.1378 -0.1504,-0.2221c-0.0365,-0.0866 -0.0547,-0.1778 -0.0547,-0.2735v-3.5c0,-0.0957 0.0182,-0.1857 0.0547,-0.27c0.0365,-0.0866 0.0866,-0.1606 0.1504,-0.2222c0.0638,-0.0638 0.1378,-0.1139 0.2222,-0.1504c0.0865,-0.0387 0.1777,-0.0581 0.2734,-0.0581h2.4507c0.0957,0 0.1857,0.0194 0.27,0.0581c0.0866,0.0365 0.1618,0.0866 0.2256,0.1504c0.0638,0.0616 0.1139,0.1356 0.1504,0.2222c0.0364,0.0843 0.0547,0.1743 0.0547,0.27zM217.7793,183.07794v3.5h2.4507v-3.5zM226.0439,186.57794c0,0.0957 -0.0182,0.1869 -0.0546,0.2735c-0.0365,0.0843 -0.0866,0.1583 -0.1504,0.2221c-0.0638,0.0638 -0.139,0.114 -0.2256,0.1504c-0.0843,0.0365 -0.1743,0.0547 -0.27,0.0547h-2.4507c-0.0957,0 -0.1869,-0.0182 -0.2735,-0.0547c-0.0843,-0.0364 -0.1583,-0.0866 -0.2221,-0.1504c-0.0638,-0.0638 -0.114,-0.1378 -0.1504,-0.2221c-0.0365,-0.0866 -0.0547,-0.1778 -0.0547,-0.2735v-3.5c0,-0.0957 0.0182,-0.1857 0.0547,-0.27c0.0364,-0.0866 0.0866,-0.1606 0.1504,-0.2222c0.0638,-0.0638 0.1378,-0.1139 0.2221,-0.1504c0.0866,-0.0387 0.1778,-0.0581 0.2735,-0.0581h2.4507c0.0957,0 0.1857,0.0194 0.27,0.0581c0.0866,0.0365 0.1618,0.0866 0.2256,0.1504c0.0638,0.0616 0.1139,0.1356 0.1504,0.2222c0.0364,0.0843 0.0546,0.1743 0.0546,0.27zM222.8926,183.07794v3.5h2.4507v-3.5zM229.4824,183.39243v1.5757h1.5757v0.6733h-1.5757v1.5757h-0.6699v-1.5757h-1.5757v-0.6733h1.5757v-1.5757zM234.2778,184.31184c0,-0.0934 0.0171,-0.1811 0.0513,-0.2632c0.0365,-0.082 0.0843,-0.1526 0.1436,-0.2119c0.0615,-0.0615 0.1333,-0.1094 0.2153,-0.1435c0.082,-0.0365 0.1686,-0.0547 0.2598,-0.0547h1.8764v-1.4014h0.6734v5.0415h-0.6734v-0.6152c-0.0068,0.0843 -0.0296,0.164 -0.0683,0.2392c-0.0388,0.0752 -0.0889,0.1413 -0.1504,0.1983c-0.0593,0.0547 -0.1276,0.0979 -0.2051,0.1298c-0.0775,0.0319 -0.1595,0.0479 -0.2461,0.0479h-1.2065c-0.0912,0 -0.1778,-0.0171 -0.2598,-0.0513c-0.082,-0.0364 -0.1538,-0.0843 -0.2153,-0.1435c-0.0593,-0.0615 -0.1071,-0.1333 -0.1436,-0.2154c-0.0342,-0.082 -0.0513,-0.1697 -0.0513,-0.2631zM234.9478,186.60534h1.8764v-2.2935h-1.8764zM241.7666,186.60534c0,0.0934 -0.0182,0.1811 -0.0547,0.2631c-0.0342,0.0821 -0.082,0.1539 -0.1435,0.2154c-0.0593,0.0592 -0.1299,0.1071 -0.212,0.1435c-0.0797,0.0342 -0.1663,0.0513 -0.2597,0.0513h-1.8081c-0.0912,0 -0.1778,-0.0171 -0.2598,-0.0513c-0.082,-0.0364 -0.1538,-0.0843 -0.2153,-0.1435c-0.0593,-0.0615 -0.1071,-0.1333 -0.1436,-0.2154c-0.0342,-0.082 -0.0512,-0.1697 -0.0512,-0.2631v-2.2935c0,-0.0934 0.017,-0.1811 0.0512,-0.2632c0.0365,-0.082 0.0843,-0.1526 0.1436,-0.2119c0.0615,-0.0615 0.1333,-0.1094 0.2153,-0.1435c0.082,-0.0365 0.1686,-0.0547 0.2598,-0.0547h1.8081c0.0934,0 0.18,0.0182 0.2597,0.0547c0.0821,0.0341 0.1527,0.082 0.212,0.1435c0.0615,0.0593 0.1093,0.1299 0.1435,0.2119c0.0365,0.0821 0.0547,0.1698 0.0547,0.2632zM239.2886,184.31184v2.2935h1.8081v-2.2935zM243.561,184.31184v2.2935h1.7364v-0.6153h0.6733v0.6153c0,0.0934 -0.0182,0.1811 -0.0547,0.2631c-0.0342,0.0821 -0.082,0.1539 -0.1435,0.2154c-0.0593,0.0592 -0.1299,0.1071 -0.212,0.1435c-0.082,0.0342 -0.1697,0.0513 -0.2631,0.0513h-1.7364c-0.0911,0 -0.1777,-0.0171 -0.2597,-0.0513c-0.0821,-0.0364 -0.1538,-0.0843 -0.2154,-0.1435c-0.0592,-0.0615 -0.1071,-0.1333 -0.1435,-0.2154c-0.0342,-0.082 -0.0513,-0.1697 -0.0513,-0.2631v-2.2935c0,-0.0934 0.0171,-0.1811 0.0513,-0.2632c0.0364,-0.082 0.0843,-0.1526 0.1435,-0.2119c0.0616,-0.0615 0.1333,-0.1094 0.2154,-0.1435c0.082,-0.0365 0.1686,-0.0547 0.2597,-0.0547h1.7364c0.0934,0 0.1811,0.0182 0.2631,0.0547c0.0821,0.0341 0.1527,0.082 0.212,0.1435c0.0615,0.0593 0.1093,0.1299 0.1435,0.2119c0.0365,0.0821 0.0547,0.1698 0.0547,0.2632v0.6152h-0.6733v-0.6152zM247.0952,183.63854h0.6699v2.9668h1.8765v-2.9668h0.6733v3.6401h-0.6733v-0.6152c-0.0068,0.0843 -0.0296,0.164 -0.0684,0.2392c-0.0387,0.0752 -0.0888,0.1413 -0.1503,0.1983c-0.0593,0.0547 -0.1277,0.0979 -0.2051,0.1298c-0.0775,0.0319 -0.1595,0.0479 -0.2461,0.0479h-1.2066c-0.0911,0 -0.1777,-0.0171 -0.2597,-0.0513c-0.0821,-0.0364 -0.1538,-0.0843 -0.2154,-0.1435c-0.0592,-0.0615 -0.1071,-0.1333 -0.1435,-0.2154c-0.0342,-0.082 -0.0513,-0.1697 -0.0513,-0.2631zM254.3208,184.31184v2.9668h-0.6733v-2.9668h-1.5415v2.9668h-0.67v-3.6401h0.67v0.6425c0.0045,-0.0888 0.025,-0.172 0.0615,-0.2495c0.0364,-0.0797 0.0843,-0.1481 0.1435,-0.205c0.0616,-0.0593 0.1322,-0.1049 0.2119,-0.1368c0.0798,-0.0341 0.1653,-0.0512 0.2564,-0.0512h0.8682c0.0888,0 0.1731,0.0171 0.2529,0.0512c0.0797,0.0319 0.1504,0.0775 0.2119,0.1368c0.0615,0.0569 0.1105,0.1253 0.147,0.205c0.0387,0.0775 0.0592,0.1607 0.0615,0.2495c0.0046,-0.0888 0.0239,-0.172 0.0581,-0.2495c0.0365,-0.0797 0.0843,-0.1481 0.1436,-0.205c0.0615,-0.0593 0.1321,-0.1049 0.2119,-0.1368c0.0797,-0.0341 0.1652,-0.0512 0.2563,-0.0512h0.8682c0.0934,0 0.1811,0.0182 0.2632,0.0547c0.082,0.0341 0.1526,0.082 0.2119,0.1435c0.0615,0.0593 0.1094,0.1299 0.1435,0.2119c0.0365,0.0821 0.0547,0.1698 0.0547,0.2632v2.9668h-0.6733v-2.9668zM260.7363,185.80204h-2.4096v0.8033h2.4096v0.6733h-2.4096c-0.0912,0 -0.1778,-0.0171 -0.2598,-0.0513c-0.082,-0.0364 -0.1538,-0.0843 -0.2153,-0.1435c-0.0593,-0.0615 -0.1071,-0.1333 -0.1436,-0.2154c-0.0342,-0.082 -0.0513,-0.1697 -0.0513,-0.2631v-2.2935c0,-0.0934 0.0171,-0.1811 0.0513,-0.2632c0.0365,-0.082 0.0843,-0.1526 0.1436,-0.2119c0.0615,-0.0615 0.1333,-0.1094 0.2153,-0.1435c0.082,-0.0365 0.1686,-0.0547 0.2598,-0.0547h1.7363c0.0934,0 0.1811,0.0182 0.2632,0.0547c0.082,0.0341 0.1526,0.082 0.2119,0.1435c0.0615,0.0593 0.1094,0.1299 0.1435,0.2119c0.0365,0.0821 0.0547,0.1698 0.0547,0.2632zM258.3267,184.31184v0.8169h1.7363v-0.8169zM265.081,187.27863h-0.674v-2.9668h-1.876v2.9668h-0.67v-3.6401h0.67v0.6425c0.004,-0.0888 0.025,-0.172 0.061,-0.2495c0.037,-0.0797 0.085,-0.1481 0.144,-0.205c0.061,-0.0593 0.132,-0.1049 0.212,-0.1368c0.08,-0.0341 0.165,-0.0512 0.256,-0.0512h1.203c0.094,0 0.181,0.0182 0.263,0.0547c0.082,0.0341 0.153,0.082 0.212,0.1435c0.062,0.0593 0.11,0.1299 0.144,0.2119c0.036,0.0821 0.055,0.1698 0.055,0.2632zM265.99,183.63854h0.888v-1.1211h0.674v1.1211h1.196v0.6733h-1.196v2.2935h1.196v0.6733h-1.196c-0.091,0 -0.178,-0.0171 -0.26,-0.0513c-0.082,-0.0364 -0.154,-0.0843 -0.215,-0.1435c-0.062,-0.0615 -0.111,-0.1333 -0.147,-0.2154c-0.034,-0.082 -0.052,-0.1697 -0.052,-0.2631v-2.2935h-0.888zM272.952,185.80204h-2.41v0.8033h2.41v0.6733h-2.41c-0.091,0 -0.177,-0.0171 -0.259,-0.0513c-0.082,-0.0364 -0.154,-0.0843 -0.216,-0.1435c-0.059,-0.0615 -0.107,-0.1333 -0.143,-0.2154c-0.034,-0.082 -0.051,-0.1697 -0.051,-0.2631v-2.2935c0,-0.0934 0.017,-0.1811 0.051,-0.2632c0.036,-0.082 0.084,-0.1526 0.143,-0.2119c0.062,-0.0615 0.134,-0.1094 0.216,-0.1435c0.082,-0.0365 0.168,-0.0547 0.259,-0.0547h1.737c0.093,0 0.181,0.0182 0.263,0.0547c0.082,0.0341 0.153,0.082 0.212,0.1435c0.061,0.0593 0.109,0.1299 0.143,0.2119c0.037,0.0821 0.055,0.1698 0.055,0.2632zM270.542,184.31184v0.8169h1.737v-0.8169zM274.077,184.31184c0,-0.0934 0.017,-0.1811 0.051,-0.2632c0.036,-0.082 0.084,-0.1526 0.143,-0.2119c0.062,-0.0615 0.134,-0.1094 0.216,-0.1435c0.082,-0.0365 0.168,-0.0547 0.26,-0.0547h1.876v-1.4014h0.673v5.0415h-0.673v-0.6152c-0.007,0.0843 -0.03,0.164 -0.068,0.2392c-0.039,0.0752 -0.089,0.1413 -0.151,0.1983c-0.059,0.0547 -0.127,0.0979 -0.205,0.1298c-0.077,0.0319 -0.159,0.0479 -0.246,0.0479h-1.206c-0.092,0 -0.178,-0.0171 -0.26,-0.0513c-0.082,-0.0364 -0.154,-0.0843 -0.216,-0.1435c-0.059,-0.0615 -0.107,-0.1333 -0.143,-0.2154c-0.034,-0.082 -0.051,-0.1697 -0.051,-0.2631zM274.747,186.60534h1.876v-2.2935h-1.876zM281.271,187.27863l-1.175,-3.6401h0.68l0.861,2.7446l0.803,-2.7446h0.687l0.804,2.7446l0.861,-2.7446h0.68l-1.176,3.6401h-0.7l-0.814,-2.6729l-0.81,2.6729zM289.324,186.60534c0,0.0934 -0.018,0.1811 -0.054,0.2631c-0.035,0.0821 -0.082,0.1539 -0.144,0.2154c-0.059,0.0592 -0.13,0.1071 -0.212,0.1435c-0.08,0.0342 -0.166,0.0513 -0.26,0.0513h-1.808c-0.091,0 -0.178,-0.0171 -0.26,-0.0513c-0.082,-0.0364 -0.153,-0.0843 -0.215,-0.1435c-0.059,-0.0615 -0.107,-0.1333 -0.143,-0.2154c-0.035,-0.082 -0.052,-0.1697 -0.052,-0.2631v-2.2935c0,-0.0934 0.017,-0.1811 0.052,-0.2632c0.036,-0.082 0.084,-0.1526 0.143,-0.2119c0.062,-0.0615 0.133,-0.1094 0.215,-0.1435c0.082,-0.0365 0.169,-0.0547 0.26,-0.0547h1.808c0.094,0 0.18,0.0182 0.26,0.0547c0.082,0.0341 0.153,0.082 0.212,0.1435c0.062,0.0593 0.109,0.1299 0.144,0.2119c0.036,0.0821 0.054,0.1698 0.054,0.2632zM286.846,184.31184v2.2935h1.808v-2.2935zM291.119,184.31184v2.9668h-0.67v-3.6401h0.67v0.6425c0.004,-0.0888 0.025,-0.172 0.061,-0.2495c0.037,-0.0797 0.084,-0.1481 0.144,-0.205c0.061,-0.0593 0.132,-0.1049 0.212,-0.1368c0.079,-0.0341 0.165,-0.0512 0.256,-0.0512h0.714c0.094,0 0.18,0.0182 0.26,0.0547c0.082,0.0341 0.154,0.082 0.215,0.1435c0.062,0.0593 0.11,0.1299 0.144,0.2119c0.036,0.0821 0.055,0.1698 0.055,0.2632v0.6152h-0.674v-0.6152zM296.423,187.27863l-1.736,-1.5552v1.5552h-0.67v-5.0415h0.67v2.8369l1.596,-1.4355h0.947l-1.955,1.7568l2.095,1.8833zM301.007,186.60534c0,0.0934 -0.018,0.1811 -0.055,0.2631c-0.034,0.0821 -0.082,0.1539 -0.143,0.2154c-0.06,0.0592 -0.13,0.1071 -0.212,0.1435c-0.08,0.0342 -0.167,0.0513 -0.26,0.0513h-1.808c-0.091,0 -0.178,-0.0171 -0.26,-0.0513c-0.082,-0.0364 -0.154,-0.0843 -0.215,-0.1435c-0.06,-0.0615 -0.107,-0.1333 -0.144,-0.2154c-0.034,-0.082 -0.051,-0.1697 -0.051,-0.2631v-2.2935c0,-0.0934 0.017,-0.1811 0.051,-0.2632c0.037,-0.082 0.084,-0.1526 0.144,-0.2119c0.061,-0.0615 0.133,-0.1094 0.215,-0.1435c0.082,-0.0365 0.169,-0.0547 0.26,-0.0547h1.808c0.093,0 0.18,0.0182 0.26,0.0547c0.082,0.0341 0.152,0.082 0.212,0.1435c0.061,0.0593 0.109,0.1299 0.143,0.2119c0.037,0.0821 0.055,0.1698 0.055,0.2632zM298.529,184.31184v2.2935h1.808v-2.2935zM302.131,183.63854h0.67v2.9668h1.877v-2.9668h0.673v3.6401h-0.673v-0.6152c-0.007,0.0843 -0.03,0.164 -0.069,0.2392c-0.038,0.0752 -0.088,0.1413 -0.15,0.1983c-0.059,0.0547 -0.128,0.0979 -0.205,0.1298c-0.078,0.0319 -0.16,0.0479 -0.246,0.0479h-1.207c-0.091,0 -0.177,-0.0171 -0.259,-0.0513c-0.083,-0.0364 -0.154,-0.0843 -0.216,-0.1435c-0.059,-0.0615 -0.107,-0.1333 -0.143,-0.2154c-0.035,-0.082 -0.052,-0.1697 -0.052,-0.2631zM306.26,183.63854h0.889v-1.1211h0.673v1.1211h1.197v0.6733h-1.197v2.2935h1.197v0.6733h-1.197c-0.091,0 -0.177,-0.0171 -0.26,-0.0513c-0.082,-0.0364 -0.153,-0.0843 -0.215,-0.1435c-0.061,-0.0615 -0.11,-0.1333 -0.147,-0.2154c-0.034,-0.082 -0.051,-0.1697 -0.051,-0.2631v-2.2935h-0.889zM312.341,186.60534v-0.8443h-1.596c-0.094,0 -0.182,-0.0171 -0.264,-0.0512c-0.082,-0.0365 -0.153,-0.0844 -0.215,-0.1436c-0.059,-0.0615 -0.107,-0.1333 -0.143,-0.2153c-0.035,-0.0821 -0.052,-0.1698 -0.052,-0.2632v-0.7759c0,-0.0934 0.017,-0.1811 0.052,-0.2632c0.036,-0.082 0.084,-0.1526 0.143,-0.2119c0.062,-0.0615 0.133,-0.1094 0.215,-0.1435c0.082,-0.0365 0.17,-0.0547 0.264,-0.0547h2.129v0.6733h-2.129v0.7759h1.596c0.093,0 0.18,0.0182 0.26,0.0547c0.082,0.0341 0.153,0.082 0.215,0.1435c0.061,0.0593 0.109,0.1299 0.143,0.2119c0.037,0.0821 0.055,0.1698 0.055,0.2632v0.8443c0,0.0934 -0.018,0.1811 -0.055,0.2631c-0.034,0.0821 -0.082,0.1539 -0.143,0.2154c-0.062,0.0592 -0.133,0.1071 -0.215,0.1435c-0.08,0.0342 -0.167,0.0513 -0.26,0.0513h-2.27v-0.6733z" fill="#86ca47" stroke="none" stroke-width="1"/><path d="M240.2099,257.32777c-1.4083,0.03394 -2.80556,0.05369 -4.1512,-0.03307c-2.14308,-0.13818 -4.30136,-0.23901 -6.4658,-0.33967c-6.35689,0.22131 -12.76914,0.03731 -19.11457,0.01356c2.36433,1.17599 4.74506,2.31553 7.13072,3.41634c7.06679,3.26083 13.51185,6.95077 20.17749,10.95011c2.6677,1.6006 4.99667,3.91984 7.95602,4.8794c1.00442,0.32568 2.1105,-0.09071 3.16641,-0.09071c1.93019,0 4.91357,1.23175 5.76908,-0.49849c0.24998,-0.50558 -0.27084,-1.09922 -0.32396,-1.66071c-0.09903,-1.04695 -0.08754,-2.10143 -0.13131,-3.15215c-0.20096,-2.23677 -0.37287,-5.51888 -0.91867,-8.31548c-3.29617,-0.55132 -6.44302,-1.42188 -8.81353,-2.06419l-2.84447,-1.34105c0,0 -1.2063,-0.57352 -1.43621,-1.76388zM258.43564,263.02003c0.41193,2.69798 0.59581,5.49841 0.7762,7.46168c0.05169,1.23712 0.41349,6.71162 -0.18279,7.60701c-2.57998,3.87412 -6.33548,3.035 -10.12008,3.035c-1.50066,0 -3.06824,0.35536 -4.50107,-0.09071c-1.80395,-0.56161 -3.27806,-1.87978 -4.90637,-2.83803c-5.02742,-2.9586 -9.887,-6.42917 -15.04157,-9.14614c-7.11559,-3.75061 -14.58777,-6.89159 -21.75164,-10.58041c-3.2982,-1.69831 -9.95921,-4.10188 -9.78786,-8.97978c-0.39179,-0.39283 -0.76091,-0.80323 -1.10454,-1.23199c-0.24299,-0.10568 -0.48563,-0.21053 -0.72793,-0.31437c0,0 -2.27817,-0.97636 -1.32557,-3.25314c-0.69773,-1.844 -0.99496,-3.93856 -0.77003,-6.31792c0.14282,-1.51084 0.10121,-3.15554 0.85748,-4.47125c2.05179,-3.56956 5.45907,-5.11919 8.75992,-7.10764c2.57962,-1.55398 4.98638,-3.45127 7.75671,-4.63219c10.28921,-4.38604 23.88643,-3.31483 34.22698,0.5153c0.20547,0.0761 8.01787,3.98398 8.65678,4.3031c5.92401,3.76431 13.1786,6.91166 16.94056,13.08395c0.15335,0.2516 4.25082,9.52463 4.29784,9.77506c0.38123,2.03065 0.54593,4.21694 -0.03997,6.19825c-1.6563,5.601 -6.5981,7.11057 -12.01304,6.98423zM247.48097,252.56204c3.67571,0.17198 7.31765,0.97959 9.11211,4.08575c0.22701,0.39295 0.43215,0.83419 0.61799,1.31299c1.70029,-0.05115 3.25579,-0.41209 5.10956,-0.64648c0.64332,-0.08134 1.42991,0.22779 1.93735,-0.17592c4.15535,-3.30588 -0.50778,-11.34691 -2.35747,-14.50814c-3.09681,-5.29265 -10.09393,-8.10152 -15.11115,-11.29922c-11.50646,-5.7243 -25.85548,-9.90952 -38.38664,-4.60426c-2.58808,1.0957 -4.80785,2.912 -7.22066,4.35319c-1.97904,1.18209 -5.56741,2.90185 -6.88634,5.10795c-0.44737,0.74828 -0.26338,1.72579 -0.32035,2.59574c-0.14157,2.16163 0.32421,3.97292 1.21445,5.49685c0.31332,0.13947 0.62728,0.27989 0.94187,0.42084c3.00315,-1.80778 7.44803,-2.85399 9.70731,-3.72227c8.02429,-3.5529 15.63548,-4.6576 24.27938,-5.47957c3.17719,-0.30213 8.97959,-1.46763 12.21394,-0.4716c6.12766,1.88705 11.63676,10.84806 6.38387,16.39345c-0.38967,0.41137 -0.80249,0.79073 -1.2352,1.14069zM224.30725,251.91396c1.41308,-0.0156 2.82619,-0.0361 4.23936,-0.06372c5.45313,-0.10658 12.0322,0.21346 16.42117,-3.73791c2.89517,-2.60651 -0.96982,-5.66236 -2.60144,-6.96965c-0.55118,-0.44162 -0.93619,-1.17693 -1.61518,-1.37137c-2.44213,-0.69935 -7.99171,0.49915 -10.16487,0.70624c-8.14991,0.77663 -15.27082,1.74615 -22.83389,5.12091c-1.69349,0.65183 -3.39185,1.29104 -5.08699,1.93858c2.15233,0.86267 4.32868,1.62506 6.52543,2.16572c4.85318,1.19446 9.9678,1.83451 15.1164,2.21119z" fill="none" stroke="none" stroke-width="0.5"/></g></g></svg>