<svg version="1.1" xmlns="http://www.w3.org/2000/svg" xmlns:xlink="http://www.w3.org/1999/xlink" width="252.60242" height="42.39586" viewBox="0,0,252.60242,42.39586"><g transform="translate(-121.73997,-171.54785)"><g data-paper-data="{&quot;isPaintingLayer&quot;:true}" fill-rule="nonzero" stroke-linecap="butt" stroke-linejoin="miter" stroke-miterlimit="10" stroke-dasharray="" stroke-dashoffset="0" style="mix-blend-mode: normal"><path d="M182.4025,184.0781c0.11719,0.0365 0.22396,0.0886 0.32031,0.1563c0.09635,0.0677 0.17839,0.1549 0.24609,0.2617c0.06771,0.1042 0.1198,0.2279 0.15625,0.3711c0.03646,0.1432 0.05469,0.3073 0.05469,0.4922v0.2812c0,0.9063 -0.45312,1.3594 -1.35937,1.3594h-3.06641v-5.6016h2.90625c0.90625,0 1.35938,0.4545 1.35938,1.3633v0.1016c0,0.3151 -0.05079,0.5729 -0.15235,0.7734c-0.09896,0.1979 -0.25391,0.3451 -0.46484,0.4414zM179.53922,184.5586v1.6562h2.25781c0.21094,0 0.36328,-0.0494 0.45703,-0.1484c0.09375,-0.099 0.14063,-0.2539 0.14063,-0.4648v-0.4336c0,-0.2136 -0.04688,-0.3685 -0.14063,-0.4649c-0.09375,-0.0963 -0.24609,-0.1445 -0.45703,-0.1445zM179.53922,182.1836v1.5937h2.15234c0.19271,-0.0078 0.33073,-0.0599 0.41406,-0.1562c0.08594,-0.099 0.12891,-0.25 0.12891,-0.4531v-0.3672c0,-0.2136 -0.04688,-0.3698 -0.14063,-0.4688c-0.09375,-0.0989 -0.24609,-0.1484 -0.45703,-0.1484zM185.06656,183.6094v3.3906h-0.76563v-4.1602h0.76563v0.7344c0.00521,-0.1015 0.02865,-0.1966 0.07031,-0.2851c0.04167,-0.0912 0.09636,-0.1693 0.16406,-0.2344c0.07032,-0.0677 0.15105,-0.1198 0.24219,-0.1563c0.09115,-0.039 0.1888,-0.0586 0.29297,-0.0586h0.81641c0.10677,0 0.20573,0.0209 0.29687,0.0625c0.09375,0.0391 0.17578,0.0938 0.2461,0.1641c0.07031,0.0677 0.125,0.1484 0.16406,0.2422c0.04167,0.0937 0.0625,0.194 0.0625,0.3008v0.7031h-0.76953v-0.7031zM191.89861,185.3125h-2.7539v0.918h2.7539v0.7695h-2.7539c-0.1042,0 -0.2032,-0.0195 -0.2969,-0.0586c-0.0937,-0.0417 -0.1758,-0.0963 -0.2461,-0.1641c-0.0677,-0.0703 -0.1224,-0.1523 -0.1641,-0.2461c-0.039,-0.0937 -0.0585,-0.194 -0.0585,-0.3007v-2.6211c0,-0.1068 0.0195,-0.2071 0.0585,-0.3008c0.0417,-0.0938 0.0964,-0.1745 0.1641,-0.2422c0.0703,-0.0703 0.1524,-0.125 0.2461,-0.1641c0.0937,-0.0416 0.1927,-0.0625 0.2969,-0.0625h1.9844c0.1067,0 0.207,0.0209 0.3007,0.0625c0.0938,0.0391 0.1745,0.0938 0.2422,0.1641c0.0703,0.0677 0.125,0.1484 0.1641,0.2422c0.0416,0.0937 0.0625,0.194 0.0625,0.3008zM189.14471,183.6094v0.9336h1.9844v-0.9336zM193.18371,185.1836c0,-0.1068 0.0196,-0.2057 0.0586,-0.2969c0.0417,-0.0937 0.0964,-0.1758 0.1641,-0.2461c0.0703,-0.0703 0.1523,-0.125 0.2461,-0.164c0.0937,-0.0417 0.1927,-0.0625 0.2969,-0.0625h1.9843v-0.8047h-2.5117v-0.7696h2.5117c0.1068,0 0.2071,0.0209 0.3008,0.0625c0.0938,0.0391 0.1745,0.0938 0.2422,0.1641c0.0703,0.0677 0.125,0.1484 0.1641,0.2422c0.0416,0.0937 0.0625,0.194 0.0625,0.3008v3.3906h-0.7696v-0.7031c-0.0078,0.0963 -0.0338,0.1875 -0.0781,0.2734c-0.0443,0.0859 -0.1015,0.1615 -0.1719,0.2266c-0.0677,0.0625 -0.1458,0.112 -0.2343,0.1484c-0.0886,0.0365 -0.1823,0.0547 -0.2813,0.0547h-1.2187c-0.1042,0 -0.2032,-0.0195 -0.2969,-0.0586c-0.0938,-0.0417 -0.1758,-0.0963 -0.2461,-0.1641c-0.0677,-0.0703 -0.1224,-0.1523 -0.1641,-0.2461c-0.039,-0.0937 -0.0586,-0.194 -0.0586,-0.3007zM193.94941,186.2305h1.9843v-1.0469h-1.9843zM200.73841,187l-1.9843,-1.7773v1.7773h-0.7657v-5.7617h0.7657v3.2422l1.8242,-1.6407h1.082l-2.2344,2.0079l2.3946,2.1523zM204.37511,181.3984h4.4805v0.8008h-1.8398v4.8008h-0.8008v-4.8008h-1.8399zM210.54701,182.8398v4.1602h-0.7695v-4.1602zM209.73841,181.2383h0.8477v0.8008h-0.8477zM215.16811,183.6094v3.3906h-0.7695v-3.3906h-1.7617v3.3906h-0.7657v-4.1602h0.7657v0.7344c0.0052,-0.1015 0.0286,-0.1966 0.0703,-0.2851c0.0416,-0.0912 0.0963,-0.1693 0.164,-0.2344c0.0703,-0.0677 0.1511,-0.1198 0.2422,-0.1563c0.0912,-0.039 0.1888,-0.0586 0.293,-0.0586h0.9922c0.1015,0 0.1979,0.0196 0.289,0.0586c0.0912,0.0365 0.1719,0.0886 0.2422,0.1563c0.0703,0.0651 0.1263,0.1432 0.168,0.2344c0.0443,0.0885 0.0677,0.1836 0.0703,0.2851c0.0052,-0.1015 0.0274,-0.1966 0.0664,-0.2851c0.0417,-0.0912 0.0964,-0.1693 0.1641,-0.2344c0.0703,-0.0677 0.151,-0.1198 0.2422,-0.1563c0.0911,-0.039 0.1888,-0.0586 0.2929,-0.0586h0.9922c0.1068,0 0.2071,0.0209 0.3008,0.0625c0.0938,0.0391 0.1745,0.0938 0.2422,0.1641c0.0703,0.0677 0.125,0.1484 0.1641,0.2422c0.0416,0.0937 0.0625,0.194 0.0625,0.3008v3.3906h-0.7696v-3.3906zM222.50011,185.3125h-2.7539v0.918h2.7539v0.7695h-2.7539c-0.1041,0 -0.2031,-0.0195 -0.2968,-0.0586c-0.0938,-0.0417 -0.1758,-0.0963 -0.2461,-0.1641c-0.0677,-0.0703 -0.1224,-0.1523 -0.1641,-0.2461c-0.0391,-0.0937 -0.0586,-0.194 -0.0586,-0.3007v-2.6211c0,-0.1068 0.0195,-0.2071 0.0586,-0.3008c0.0417,-0.0938 0.0964,-0.1745 0.1641,-0.2422c0.0703,-0.0703 0.1523,-0.125 0.2461,-0.1641c0.0937,-0.0416 0.1927,-0.0625 0.2968,-0.0625h1.9844c0.1068,0 0.207,0.0209 0.3008,0.0625c0.0937,0.0391 0.1745,0.0938 0.2422,0.1641c0.0703,0.0677 0.125,0.1484 0.164,0.2422c0.0417,0.0937 0.0625,0.194 0.0625,0.3008zM219.74621,183.6094v0.9336h1.9844v-0.9336zM227.04701,187l-1.3437,-4.1602h0.7773l0.9844,3.1368l0.918,-3.1368h0.7851l0.918,3.1368l0.9844,-3.1368h0.7773l-1.3437,4.1602h-0.8008l-0.9297,-3.0547l-0.9258,3.0547zM233.46111,182.8398v4.1602h-0.7696v-4.1602zM232.65251,181.2383h0.8476v0.8008h-0.8476zM235.55091,181.2383v5.7617h-0.7656v-5.7617zM237.59781,181.2383v5.7617h-0.7656v-5.7617zM244.95721,186.2305c0,0.1067 -0.0209,0.207 -0.0625,0.3007c-0.0391,0.0938 -0.0938,0.1758 -0.1641,0.2461c-0.0677,0.0678 -0.1484,0.1224 -0.2422,0.1641c-0.0937,0.0391 -0.194,0.0586 -0.3008,0.0586h-2.1445c-0.1042,0 -0.2031,-0.0195 -0.2969,-0.0586c-0.0937,-0.0417 -0.1757,-0.0963 -0.2461,-0.1641c-0.0677,-0.0703 -0.1224,-0.1523 -0.164,-0.2461c-0.0391,-0.0937 -0.0586,-0.194 -0.0586,-0.3007v-4.9922h0.7656v2.3359c0.0052,-0.1015 0.0287,-0.1966 0.0703,-0.2851c0.0417,-0.0912 0.0964,-0.1693 0.1641,-0.2344c0.0703,-0.0677 0.151,-0.1198 0.2422,-0.1563c0.0911,-0.039 0.1888,-0.0586 0.2929,-0.0586h1.375c0.1068,0 0.2071,0.0209 0.3008,0.0625c0.0938,0.0391 0.1745,0.0938 0.2422,0.1641c0.0703,0.0677 0.125,0.1484 0.1641,0.2422c0.0416,0.0937 0.0625,0.194 0.0625,0.3008zM242.04311,183.6094v2.6211h2.1445v-2.6211zM249.75801,185.3125h-2.7539v0.918h2.7539v0.7695h-2.7539c-0.1042,0 -0.2032,-0.0195 -0.2969,-0.0586c-0.0938,-0.0417 -0.1758,-0.0963 -0.2461,-0.1641c-0.0677,-0.0703 -0.1224,-0.1523 -0.1641,-0.2461c-0.039,-0.0937 -0.0586,-0.194 -0.0586,-0.3007v-2.6211c0,-0.1068 0.0196,-0.2071 0.0586,-0.3008c0.0417,-0.0938 0.0964,-0.1745 0.1641,-0.2422c0.0703,-0.0703 0.1523,-0.125 0.2461,-0.1641c0.0937,-0.0416 0.1927,-0.0625 0.2969,-0.0625h1.9843c0.1068,0 0.2071,0.0209 0.3008,0.0625c0.0938,0.0391 0.1745,0.0938 0.2422,0.1641c0.0703,0.0677 0.125,0.1484 0.1641,0.2422c0.0416,0.0937 0.0625,0.194 0.0625,0.3008zM247.00411,183.6094v0.9336h1.9843v-0.9336zM254.20721,181.2383v5.7617h-0.7657v-5.7617zM259.00801,185.3125h-2.7539v0.918h2.7539v0.7695h-2.7539c-0.1042,0 -0.2032,-0.0195 -0.2969,-0.0586c-0.0938,-0.0417 -0.1758,-0.0963 -0.2461,-0.1641c-0.0677,-0.0703 -0.1224,-0.1523 -0.1641,-0.2461c-0.039,-0.0937 -0.0586,-0.194 -0.0586,-0.3007v-2.6211c0,-0.1068 0.0196,-0.2071 0.0586,-0.3008c0.0417,-0.0938 0.0964,-0.1745 0.1641,-0.2422c0.0703,-0.0703 0.1523,-0.125 0.2461,-0.1641c0.0937,-0.0416 0.1927,-0.0625 0.2969,-0.0625h1.9843c0.1068,0 0.2071,0.0209 0.3008,0.0625c0.0938,0.0391 0.1745,0.0938 0.2422,0.1641c0.0703,0.0677 0.125,0.1484 0.1641,0.2422c0.0416,0.0937 0.0625,0.194 0.0625,0.3008zM256.25411,183.6094v0.9336h1.9843v-0.9336zM261.8361,182.0078v0.832h1.3672v0.7696h-1.3672v3.3906h-0.7696v-3.3906h-1.0156v-0.7696h1.0156v-0.832c0,-0.1068 0.0196,-0.2057 0.0586,-0.2969c0.0417,-0.0937 0.0977,-0.1757 0.168,-0.2461c0.0703,-0.0703 0.1524,-0.125 0.2461,-0.164c0.0938,-0.0417 0.1927,-0.0625 0.2969,-0.0625h1.3672v0.7695zM264.00411,182.8398h1.0156v-1.2812h0.7695v1.2812h1.3672v0.7696h-1.3672v2.6211h1.3672v0.7695h-1.3672c-0.1042,0 -0.2031,-0.0195 -0.2969,-0.0586c-0.0937,-0.0417 -0.1758,-0.0963 -0.2461,-0.1641c-0.0703,-0.0703 -0.1263,-0.1523 -0.1679,-0.2461c-0.0391,-0.0937 -0.0586,-0.194 -0.0586,-0.3007v-2.6211h-1.0156zM270.59781,182.8398h1.0156v-1.2812h0.7696v1.2812h1.3671v0.7696h-1.3671v2.6211h1.3671v0.7695h-1.3671c-0.1042,0 -0.2032,-0.0195 -0.2969,-0.0586c-0.0938,-0.0417 -0.1758,-0.0963 -0.2461,-0.1641c-0.0703,-0.0703 -0.1263,-0.1523 -0.168,-0.2461c-0.039,-0.0937 -0.0586,-0.194 -0.0586,-0.3007v-2.6211h-1.0156zM278.63331,186.2305c0,0.1067 -0.021,0.207 -0.063,0.3007c-0.039,0.0938 -0.094,0.1758 -0.164,0.2461c-0.068,0.0678 -0.148,0.1224 -0.242,0.1641c-0.091,0.0391 -0.1902,0.0586 -0.297,0.0586h-2.0664c-0.1041,0 -0.2031,-0.0195 -0.2968,-0.0586c-0.0938,-0.0417 -0.1758,-0.0963 -0.2461,-0.1641c-0.0678,-0.0703 -0.1224,-0.1523 -0.1641,-0.2461c-0.0391,-0.0937 -0.0586,-0.194 -0.0586,-0.3007v-2.6211c0,-0.1068 0.0195,-0.2071 0.0586,-0.3008c0.0417,-0.0938 0.0963,-0.1745 0.1641,-0.2422c0.0703,-0.0703 0.1523,-0.125 0.2461,-0.1641c0.0937,-0.0416 0.1927,-0.0625 0.2968,-0.0625h2.0664c0.1068,0 0.206,0.0209 0.297,0.0625c0.094,0.0391 0.174,0.0938 0.242,0.1641c0.07,0.0677 0.125,0.1484 0.164,0.2422c0.042,0.0937 0.063,0.194 0.063,0.3008zM275.80091,183.6094v2.6211h2.0664v-2.6211zM282.0743,182.8398h1.016v-1.2812h0.769v1.2812h1.367v0.7696h-1.367v2.6211h1.367v0.7695h-1.367c-0.104,0 -0.203,-0.0195 -0.297,-0.0586c-0.093,-0.0417 -0.175,-0.0963 -0.246,-0.1641c-0.07,-0.0703 -0.126,-0.1523 -0.168,-0.2461c-0.039,-0.0937 -0.058,-0.194 -0.058,-0.3007v-2.6211h-1.016zM290.19131,187h-0.769v-3.3906h-2.145v3.3906h-0.765v-5.7617h0.765v2.3359c0.005,-0.1015 0.029,-0.1966 0.07,-0.2851c0.042,-0.0912 0.097,-0.1693 0.165,-0.2344c0.07,-0.0677 0.151,-0.1198 0.242,-0.1563c0.091,-0.039 0.189,-0.0586 0.293,-0.0586h1.375c0.106,0 0.207,0.0209 0.301,0.0625c0.093,0.0391 0.174,0.0938 0.242,0.1641c0.07,0.0677 0.125,0.1484 0.164,0.2422c0.041,0.0937 0.062,0.194 0.062,0.3008zM294.99231,185.3125h-2.754v0.918h2.754v0.7695h-2.754c-0.104,0 -0.203,-0.0195 -0.297,-0.0586c-0.094,-0.0417 -0.176,-0.0963 -0.246,-0.1641c-0.068,-0.0703 -0.122,-0.1523 -0.164,-0.2461c-0.039,-0.0937 -0.058,-0.194 -0.058,-0.3007v-2.6211c0,-0.1068 0.019,-0.2071 0.058,-0.3008c0.042,-0.0938 0.096,-0.1745 0.164,-0.2422c0.07,-0.0703 0.152,-0.125 0.246,-0.1641c0.094,-0.0416 0.193,-0.0625 0.297,-0.0625h1.985c0.106,0 0.207,0.0209 0.3,0.0625c0.094,0.0391 0.175,0.0938 0.242,0.1641c0.071,0.0677 0.125,0.1484 0.165,0.2422c0.041,0.0937 0.062,0.194 0.062,0.3008zM292.23831,183.6094v0.9336h1.985v-0.9336zM298.75431,181.3984h0.801v4.8008h3.199v-4.8008h0.801v4.8008c0,0.1094 -0.021,0.2136 -0.063,0.3125c-0.042,0.0964 -0.099,0.181 -0.172,0.2539c-0.073,0.0729 -0.159,0.1302 -0.258,0.1719c-0.096,0.0417 -0.199,0.0625 -0.308,0.0625h-3.199c-0.11,0 -0.214,-0.0208 -0.313,-0.0625c-0.096,-0.0417 -0.181,-0.099 -0.254,-0.1719c-0.073,-0.0729 -0.13,-0.1575 -0.172,-0.2539c-0.041,-0.0989 -0.062,-0.2031 -0.062,-0.3125zM307.4303,186.2305v-0.9649h-1.825c-0.106,0 -0.207,-0.0195 -0.3,-0.0586c-0.094,-0.0416 -0.176,-0.0963 -0.247,-0.164c-0.067,-0.0703 -0.122,-0.1524 -0.164,-0.2461c-0.039,-0.0938 -0.058,-0.194 -0.058,-0.3008v-0.8867c0,-0.1068 0.019,-0.2071 0.058,-0.3008c0.042,-0.0938 0.097,-0.1745 0.164,-0.2422c0.071,-0.0703 0.153,-0.125 0.247,-0.1641c0.093,-0.0416 0.194,-0.0625 0.3,-0.0625h2.434v0.7696h-2.434v0.8867h1.825c0.106,0 0.205,0.0208 0.296,0.0625c0.094,0.0391 0.176,0.0937 0.247,0.1641c0.07,0.0677 0.124,0.1484 0.164,0.2421c0.041,0.0938 0.062,0.1941 0.062,0.3008v0.9649c0,0.1067 -0.021,0.207 -0.062,0.3007c-0.04,0.0938 -0.094,0.1758 -0.164,0.2461c-0.071,0.0678 -0.153,0.1224 -0.247,0.1641c-0.091,0.0391 -0.19,0.0586 -0.296,0.0586h-2.594v-0.7695zM312.92231,185.3125h-2.754v0.918h2.754v0.7695h-2.754c-0.104,0 -0.203,-0.0195 -0.297,-0.0586c-0.094,-0.0417 -0.176,-0.0963 -0.246,-0.1641c-0.068,-0.0703 -0.123,-0.1523 -0.164,-0.2461c-0.039,-0.0937 -0.059,-0.194 -0.059,-0.3007v-2.6211c0,-0.1068 0.02,-0.2071 0.059,-0.3008c0.041,-0.0938 0.096,-0.1745 0.164,-0.2422c0.07,-0.0703 0.152,-0.125 0.246,-0.1641c0.094,-0.0416 0.193,-0.0625 0.297,-0.0625h1.984c0.107,0 0.207,0.0209 0.301,0.0625c0.094,0.0391 0.174,0.0938 0.242,0.1641c0.07,0.0677 0.125,0.1484 0.164,0.2422c0.042,0.0937 0.063,0.194 0.063,0.3008zM310.1683,183.6094v0.9336h1.984v-0.9336zM314.97331,183.6094v3.3906h-0.766v-4.1602h0.766v0.7344c0.005,-0.1015 0.028,-0.1966 0.07,-0.2851c0.041,-0.0912 0.096,-0.1693 0.164,-0.2344c0.07,-0.0677 0.151,-0.1198 0.242,-0.1563c0.091,-0.039 0.189,-0.0586 0.293,-0.0586h0.816c0.107,0 0.206,0.0209 0.297,0.0625c0.094,0.0391 0.176,0.0938 0.246,0.1641c0.071,0.0677 0.125,0.1484 0.164,0.2422c0.042,0.0937 0.063,0.194 0.063,0.3008v0.7031h-0.77v-0.7031z" fill="#99d26e" stroke="none" stroke-width="1"/><path d="M182.54703,179l-2.61231,-5.13184v5.13184h-1.00098v-7.00196h1.09375l2.66601,5.27344l2.6709,-5.27344h1.08887v7.00196h-0.99609v-5.13184l-2.61231,5.13184zM188.16231,176.72949c0,-0.13346 0.0244,-0.25716 0.0732,-0.37109c0.0521,-0.11719 0.1204,-0.21973 0.2051,-0.30762c0.0879,-0.08789 0.1904,-0.15625 0.3076,-0.20508c0.1172,-0.05208 0.2409,-0.07812 0.3711,-0.07812h2.4805v-1.00586h-3.1397v-0.96192h3.1397c0.1334,0 0.2587,0.02605 0.3759,0.07813c0.1172,0.04883 0.2181,0.11719 0.3028,0.20508c0.0879,0.08463 0.1562,0.18554 0.205,0.30273c0.0521,0.11719 0.0782,0.24252 0.0782,0.37598v4.23828h-0.9619v-0.87891c-0.0098,0.12045 -0.0424,0.23438 -0.0977,0.3418c-0.0553,0.10742 -0.127,0.20182 -0.2148,0.2832c-0.0847,0.07813 -0.1823,0.13998 -0.293,0.18555c-0.1107,0.04557 -0.2279,0.06836 -0.3516,0.06836h-1.5234c-0.1302,0 -0.2539,-0.02441 -0.3711,-0.07324c-0.1172,-0.05209 -0.2197,-0.12044 -0.3076,-0.20508c-0.0847,-0.08789 -0.153,-0.19043 -0.2051,-0.30762c-0.0488,-0.11718 -0.0732,-0.24251 -0.0732,-0.37597zM189.11931,178.03809h2.4805v-1.3086h-2.4805zM198.76771,179h-0.9619v-4.23828h-2.6807v4.23828h-0.957v-5.2002h0.957v0.91797c0.0066,-0.12695 0.0359,-0.24576 0.0879,-0.35644c0.0521,-0.11393 0.1205,-0.21159 0.2051,-0.29297c0.0879,-0.08464 0.1888,-0.14974 0.3027,-0.19531c0.114,-0.04883 0.236,-0.07325 0.3663,-0.07325h1.7187c0.1335,0 0.2588,0.02605 0.376,0.07813c0.1172,0.04883 0.2181,0.11719 0.3027,0.20508c0.0879,0.08463 0.1563,0.18554 0.2051,0.30273c0.0521,0.11719 0.0781,0.24252 0.0781,0.37598zM200.36931,173.7998h0.957v4.23829h2.6807v-4.23829h0.9619v5.2002h-0.9619v-0.87891c-0.0098,0.12045 -0.0423,0.23438 -0.0977,0.3418c-0.0553,0.10742 -0.1269,0.20182 -0.2148,0.2832c-0.0847,0.07813 -0.1823,0.13998 -0.293,0.18555c-0.1107,0.04557 -0.2279,0.06836 -0.3516,0.06836h-1.7236c-0.1302,0 -0.2539,-0.02441 -0.3711,-0.07324c-0.1172,-0.05209 -0.2197,-0.12044 -0.3076,-0.20508c-0.0846,-0.08789 -0.153,-0.19043 -0.2051,-0.30762c-0.0488,-0.11718 -0.0732,-0.24251 -0.0732,-0.37597zM206.57051,176.72949c0,-0.13346 0.0244,-0.25716 0.0732,-0.37109c0.0521,-0.11719 0.1204,-0.21973 0.2051,-0.30762c0.0879,-0.08789 0.1904,-0.15625 0.3076,-0.20508c0.1172,-0.05208 0.2409,-0.07812 0.3711,-0.07812h2.4805v-1.00586h-3.1397v-0.96192h3.1397c0.1334,0 0.2587,0.02605 0.3759,0.07813c0.1172,0.04883 0.2181,0.11719 0.3028,0.20508c0.0879,0.08463 0.1562,0.18554 0.205,0.30273c0.0521,0.11719 0.0782,0.24252 0.0782,0.37598v4.23828h-0.9619v-0.87891c-0.0098,0.12045 -0.0424,0.23438 -0.0977,0.3418c-0.0553,0.10742 -0.127,0.20182 -0.2148,0.2832c-0.0847,0.07813 -0.1823,0.13998 -0.293,0.18555c-0.1107,0.04557 -0.2279,0.06836 -0.3516,0.06836h-1.5234c-0.1302,0 -0.2539,-0.02441 -0.3711,-0.07324c-0.1172,-0.05209 -0.2197,-0.12044 -0.3076,-0.20508c-0.0847,-0.08789 -0.153,-0.19043 -0.2051,-0.30762c-0.0488,-0.11718 -0.0732,-0.24251 -0.0732,-0.37597zM207.52751,178.03809h2.4805v-1.3086h-2.4805zM213.53331,171.79785v7.20215h-0.957v-7.20215z" fill="#57a71a" stroke="#57a71a" stroke-width="0.5"/><path d="M374.34172,198.79118c0.03964,1.72868 -1.68904,1.76832 -1.68904,1.76832l-0.10867,0.00249c-14.90077,0.3417 -29.78093,0.47615 -44.68553,0.47615c-24.0947,0 -48.23909,-0.44167 -72.32585,0.16812c-24.11054,0.61039 -48.0937,1.87357 -72.16348,3.38826c-13.64366,1.99884 -27.34848,3.74738 -40.95496,5.9832c-6.24338,1.02591 -12.41691,2.38868 -18.67475,3.35142c0,0 -1.70903,0.26293 -1.97195,-1.4461c-0.26293,-1.70903 1.4461,-1.97195 1.4461,-1.97195c6.24091,-0.96014 12.39754,-2.3193 18.624,-3.34323c13.67769,-2.24926 27.45506,-4.01501 41.17202,-6.01287c24.15904,-1.54058 48.23469,-2.79322 72.43551,-3.40589c24.11596,-0.61053 48.28946,-0.16922 72.41337,-0.16922c14.87821,0 29.73187,-0.13415 44.60625,-0.47524l0.10867,-0.00249c0,0 1.72868,-0.03964 1.76832,1.68904z" fill="none" stroke="none" stroke-width="0.5"/></g></g></svg>