<svg version="1.1" xmlns="http://www.w3.org/2000/svg" xmlns:xlink="http://www.w3.org/1999/xlink" width="98.97761" height="29.20262" viewBox="0,0,98.97761,29.20262"><g transform="translate(-190.51121,-168.09543)"><g data-paper-data="{&quot;isPaintingLayer&quot;:true}" fill="#000000" fill-rule="nonzero" stroke="#000000" stroke-width="0.5" stroke-linecap="butt" stroke-linejoin="miter" stroke-miterlimit="10" stroke-dasharray="" stroke-dashoffset="0" style="mix-blend-mode: normal"><path d="M204.83375,179.29911c0.45201,0.14064 0.86383,0.34151 1.2355,0.60269c0.37163,0.26118 0.68804,0.59766 0.94922,1.00948c0.26118,0.40178 0.46205,0.87891 0.60269,1.43137c0.14061,0.55246 0.21092,1.18527 0.21092,1.89843v1.08485c0,3.49552 -1.74775,5.2433 -5.2433,5.2433h-11.82757v-21.60604h11.20981c3.49555,0 5.24332,1.75278 5.24332,5.25838v0.39174c0,1.21542 -0.19588,2.20982 -0.58761,2.98327c-0.38171,0.76338 -0.97935,1.33092 -1.79297,1.70256zM193.78965,181.15236v6.38841h8.7087c0.81364,0 1.40122,-0.19084 1.76285,-0.57254c0.3616,-0.38171 0.5424,-0.97936 0.5424,-1.79298v-1.67244c0,-0.82368 -0.1808,-1.42132 -0.5424,-1.79297c-0.36162,-0.37167 -0.94921,-0.55749 -1.76285,-0.55749zM193.78965,171.99163v6.14732h8.30191c0.7433,-0.03012 1.27566,-0.23103 1.59709,-0.60267c0.33148,-0.38171 0.4972,-0.96429 0.4972,-1.74777v-1.41629c0,-0.82368 -0.18079,-1.42634 -0.54242,-1.80804c-0.3616,-0.38171 -0.94922,-0.57254 -1.76282,-0.57254zM215.27514,174.52289v16.04633h-2.96817v-16.04633zM212.15629,168.34543h3.26959v3.08873h-3.26959zM223.33598,177.49108v10.10994h7.654v-2.71206h2.96823v2.71206c0,0.41182 -0.08047,0.79856 -0.24116,1.16016c-0.15049,0.3616 -0.3615,0.67802 -0.63281,0.94921c-0.2611,0.26118 -0.57252,0.47212 -0.93402,0.63284c-0.36174,0.15066 -0.74841,0.226 -1.16023,0.226h-7.654c-0.40186,0 -0.78354,-0.07534 -1.14504,-0.226c-0.36174,-0.16072 -0.67815,-0.37167 -0.94922,-0.63284c-0.2611,-0.27119 -0.47212,-0.58761 -0.63281,-0.94921c-0.15072,-0.3616 -0.22597,-0.74833 -0.22597,-1.16016v-10.10994c0,-0.41182 0.07525,-0.79853 0.22597,-1.16016c0.16069,-0.3616 0.3717,-0.67297 0.63281,-0.93414c0.27107,-0.27121 0.58748,-0.48212 0.94922,-0.63281c0.3615,-0.16072 0.74318,-0.24107 1.14504,-0.24107h7.654c0.41182,0 0.79849,0.08035 1.16023,0.24107c0.3615,0.15068 0.67292,0.3616 0.93402,0.63281c0.27131,0.26118 0.48232,0.57254 0.63281,0.93414c0.16069,0.36162 0.24116,0.74833 0.24116,1.16016v2.71206h-2.96823v-2.71206zM252.49055,184.06029h-10.62222v3.54073h10.62222v2.9682h-10.62222c-0.40186,0 -0.78353,-0.07534 -1.14503,-0.226c-0.3615,-0.16072 -0.67791,-0.37166 -0.94922,-0.63283c-0.2611,-0.27119 -0.47212,-0.58761 -0.63281,-0.94922c-0.15072,-0.3616 -0.22597,-0.74833 -0.22597,-1.16016v-10.10994c0,-0.41182 0.07524,-0.79853 0.22597,-1.16016c0.16069,-0.3616 0.37171,-0.67297 0.63281,-0.93414c0.27131,-0.27121 0.58771,-0.48212 0.94922,-0.63281c0.3615,-0.16072 0.74318,-0.24107 1.14503,-0.24107h7.65401c0.41182,0 0.79873,0.08035 1.16023,0.24107c0.3615,0.15068 0.67292,0.3616 0.93426,0.63281c0.27107,0.26118 0.48209,0.57254 0.63281,0.93414c0.16069,0.36162 0.24092,0.74833 0.24092,1.16016zM241.86832,177.49108v3.60101h7.654v-3.60101zM271.64074,187.60103c0,0.41182 -0.08046,0.79856 -0.24116,1.16016c-0.15073,0.3616 -0.36151,0.67802 -0.63281,0.94921c-0.2611,0.26118 -0.57252,0.47212 -0.93402,0.63284c-0.36174,0.15066 -0.74842,0.226 -1.16024,0.226h-8.27185v6.47882h-2.95303v-22.52514h2.95303v2.71204c0.03015,-0.38168 0.13055,-0.73327 0.30145,-1.05468c0.17066,-0.33148 0.38667,-0.61776 0.64776,-0.85883c0.26134,-0.2511 0.56255,-0.44697 0.90411,-0.58761c0.35153,-0.14061 0.72325,-0.21092 1.1149,-0.21092h5.30363c0.41182,0 0.79849,0.08035 1.16023,0.24107c0.36151,0.15068 0.67292,0.3616 0.93402,0.63281c0.2713,0.26118 0.48208,0.57254 0.63281,0.93415c0.16069,0.36162 0.24117,0.74833 0.24117,1.16016zM268.67251,187.60103v-10.10994h-8.27185v10.10994zM286.27084,187.60103v-3.72154h-7.03638c-0.41182,0 -0.79849,-0.07534 -1.16023,-0.226c-0.36151,-0.16072 -0.67791,-0.37166 -0.94922,-0.63283c-0.2611,-0.27119 -0.47212,-0.5876 -0.63281,-0.94922c-0.15049,-0.3616 -0.22597,-0.74833 -0.22597,-1.16016v-3.42021c0,-0.41182 0.07548,-0.79853 0.22597,-1.16016c0.16069,-0.3616 0.3717,-0.67297 0.63281,-0.93415c0.2713,-0.27121 0.58771,-0.48212 0.94922,-0.63281c0.36174,-0.16072 0.74841,-0.24106 1.16023,-0.24106h9.38675v2.96817h-9.38675v3.42021h7.03638c0.41182,0 0.7935,0.08037 1.14504,0.24107c0.36151,0.15068 0.67791,0.36162 0.94921,0.63284c0.27107,0.26114 0.48208,0.57254 0.63281,0.93415c0.16069,0.3616 0.24092,0.74833 0.24092,1.16016v3.72154c0,0.41182 -0.08023,0.79856 -0.24092,1.16016c-0.15073,0.3616 -0.36174,0.67803 -0.63281,0.94922c-0.2713,0.26118 -0.58771,0.47212 -0.94921,0.63284c-0.35153,0.15066 -0.73322,0.226 -1.14504,0.226h-10.00461v-2.9682z"/></g></g></svg>