<svg version="1.1" xmlns="http://www.w3.org/2000/svg" xmlns:xlink="http://www.w3.org/1999/xlink" width="308.04319" height="215.28621" viewBox="0,0,308.04319,215.28621"><g transform="translate(-85.9784,-83.78178)"><g data-paper-data="{&quot;isPaintingLayer&quot;:true}" fill-rule="nonzero" stroke="none" stroke-width="1" stroke-linecap="butt" stroke-linejoin="miter" stroke-miterlimit="10" stroke-dasharray="" stroke-dashoffset="0" style="mix-blend-mode: normal"><path d="M317.72119,168.74908c1.02426,0.78556 1.28952,2.18857 0.64845,3.42343l-10.3309,18.62988c-0.64845,1.23405 -1.99692,1.68332 -3.17589,1.23405l-12.86573,-5.38703c-2.63796,2.13249 -5.54126,3.92868 -8.71715,5.27486l-1.93797,14.25346c-0.1621,1.34692 -1.23794,2.3007 -2.52745,2.3007h-20.66177c-1.29689,0 -2.31378,-0.95381 -2.58642,-2.3007l-1.93797,-14.25346c-3.17589,-1.34618 -6.02758,-3.14238 -8.71715,-5.27486l-12.85835,5.38703c-1.18635,0.39319 -2.53483,0 -3.17589,-1.23405l-10.3309,-18.62988c-0.59686,-1.1227 -0.32422,-2.63784 0.6411,-3.42343l10.92776,-8.86569c-0.27264,-1.68332 -0.37581,-3.53549 -0.37581,-5.27486c0,-1.73937 0.21371,-3.59157 0.47894,-5.27486l-10.92039,-8.86569c-1.07584,-0.78631 -1.28952,-2.24465 -0.64845,-3.42343l10.27931,-18.62988c0.64845,-1.23483 1.98956,-1.68332 3.17589,-1.23483l12.85835,5.38703c2.63796,-2.07569 5.5486,-3.92797 8.72454,-5.27486l1.93059,-14.25272c0.22105,-1.34692 1.23794,-2.3007 2.53483,-2.3007h20.66177c1.28952,0 2.36532,0.95381 2.58642,2.3007l1.93059,14.25272c3.17589,1.34692 6.02758,3.14238 8.72454,5.27486l12.85835,-5.38703c1.18635,-0.39244 2.52745,0 3.17589,1.23483l10.3309,18.62988c0.58949,1.1227 0.32422,2.63703 -0.64845,3.42343l-10.92039,8.86569c0.26527,1.68332 0.37581,3.47948 0.37581,5.27486c0,1.85146 -0.11054,3.59157 -0.32422,5.27486zM287.85596,154.60852c0,-11.11109 -8.71715,-20.20101 -19.37225,-20.20101c-10.65512,0 -19.37225,9.08992 -19.37225,20.20101c0,11.11034 8.71715,20.20101 19.37225,20.20101c10.65512,0 19.37225,-9.09067 19.37225,-20.20101z" fill="#b56e2e"/><path d="M281.05782,151.79227c1.02426,0.78556 1.28952,2.18857 0.64845,3.42343l-10.3309,18.62988c-0.64845,1.23405 -1.99692,1.68332 -3.17589,1.23405l-12.86573,-5.38703c-2.63796,2.13249 -5.54126,3.92868 -8.71715,5.27486l-1.93797,14.25346c-0.1621,1.34692 -1.23794,2.3007 -2.52745,2.3007h-20.66177c-1.29689,0 -2.31378,-0.95381 -2.58642,-2.3007l-1.93797,-14.25346c-3.17589,-1.34618 -6.02758,-3.14238 -8.71715,-5.27486l-12.85835,5.38703c-1.18635,0.39319 -2.53483,0 -3.17589,-1.23405l-10.3309,-18.62988c-0.59686,-1.1227 -0.32422,-2.63784 0.6411,-3.42343l10.92776,-8.86569c-0.27264,-1.68332 -0.37581,-3.53549 -0.37581,-5.27486c0,-1.73937 0.21371,-3.59157 0.47894,-5.27486l-10.92039,-8.86569c-1.07584,-0.78631 -1.28952,-2.24465 -0.64845,-3.42343l10.27931,-18.62988c0.64845,-1.23483 1.98956,-1.68332 3.17589,-1.23483l12.85835,5.38703c2.63796,-2.07569 5.5486,-3.92797 8.72454,-5.27486l1.93059,-14.25272c0.22105,-1.34692 1.23794,-2.3007 2.53483,-2.3007h20.66177c1.28952,0 2.36532,0.95381 2.58642,2.3007l1.93059,14.25272c3.17589,1.34692 6.02758,3.14238 8.72454,5.27486l12.85835,-5.38703c1.18635,-0.39244 2.52745,0 3.17589,1.23483l10.3309,18.62988c0.58949,1.1227 0.32422,2.63703 -0.64845,3.42343l-10.92039,8.86569c0.26527,1.68332 0.37581,3.47948 0.37581,5.27486c0,1.85146 -0.11054,3.59157 -0.32422,5.27486zM251.19258,137.65173c0,-11.11109 -8.71715,-20.20101 -19.37225,-20.20101c-10.65512,0 -19.37225,9.08992 -19.37225,20.20101c0,11.11034 8.71715,20.20101 19.37225,20.20101c10.65512,0 19.37225,-9.09067 19.37225,-20.20101z" fill="#e48a39"/><g fill="#ffae4e"><path d="M160.89185,246.71551l-10.30218,-20.23788v20.23788h-3.94752v-27.61264h4.31322l10.51487,20.79603l10.53197,-20.79603h4.29322v27.61264h-3.9278v-20.23788l-10.3006,20.23788zM183.03632,237.7615c0,-0.52634 0.09464,-1.01403 0.28918,-1.46333c0.20507,-0.46217 0.47323,-0.86654 0.8071,-1.21306c0.34702,-0.34677 0.7519,-0.61623 1.21463,-0.80868c0.46008,-0.2056 0.94909,-0.30813 1.46177,-0.30813h9.78269v-3.96672h-12.38281v-3.79345h12.38281c0.52582,0 1.02008,0.1028 1.48278,0.30813c0.46272,0.19245 0.8597,0.46217 1.19359,0.8087c0.34702,0.33388 0.61519,0.73166 0.80974,1.19385c0.20507,0.46217 0.3076,0.95646 0.3076,1.48278v16.71391h-3.79371v-3.46614c-0.03944,0.47506 -0.16827,0.92437 -0.38646,1.34791c-0.21821,0.42381 -0.4995,0.7961 -0.84656,1.11683c-0.33388,0.30813 -0.71773,0.55208 -1.15417,0.73192c-0.43643,0.17955 -0.89914,0.26947 -1.38814,0.26947h-6.00736c-0.51266,0 -1.00168,-0.09623 -1.46177,-0.28893c-0.46272,-0.20533 -0.86758,-0.47482 -1.21463,-0.8087c-0.33388,-0.3465 -0.60204,-0.75087 -0.8071,-1.21304c-0.19455,-0.46217 -0.28918,-0.95644 -0.28918,-1.48278zM186.80901,242.92206h9.78269v-5.16055h-9.78269zM210.49411,230.00161v12.92045h9.7827v-3.46585h3.79372v3.46585c0,0.52634 -0.10254,1.0206 -0.31023,1.48278c-0.19191,0.46217 -0.46008,0.86652 -0.8071,1.21304c-0.33388,0.33388 -0.73351,0.60337 -1.19359,0.8087c-0.46272,0.19271 -0.95696,0.28893 -1.48278,0.28893h-9.78269c-0.51266,0 -1.00168,-0.09623 -1.4644,-0.28893c-0.46008,-0.20533 -0.86495,-0.47482 -1.21199,-0.8087c-0.33388,-0.3465 -0.60468,-0.75087 -0.80975,-1.21304c-0.19191,-0.46217 -0.28917,-0.95644 -0.28917,-1.48278v-12.92045c0,-0.52634 0.09728,-1.0206 0.28917,-1.48278c0.20507,-0.46217 0.47586,-0.85996 0.80975,-1.19385c0.34702,-0.3465 0.7519,-0.61625 1.21199,-0.8087c0.46272,-0.20533 0.95172,-0.30812 1.4644,-0.30812h9.78269c0.52582,0 1.02008,0.10279 1.48278,0.30812c0.46008,0.19245 0.8597,0.46217 1.19359,0.8087c0.34702,0.33388 0.61519,0.73167 0.8071,1.19385c0.20771,0.46217 0.31023,0.95646 0.31023,1.48278v3.46585h-3.79372v-3.46585zM248.54431,246.71551h-3.79372v-16.7139h-10.57141v16.7139h-3.77531v-28.40213h3.77531v11.51497c0.02628,-0.50084 0.14197,-0.96933 0.34704,-1.40576c0.20507,-0.44931 0.47324,-0.83444 0.8071,-1.15546c0.34702,-0.33363 0.74403,-0.59048 1.19359,-0.77004c0.44957,-0.19271 0.93069,-0.28892 1.44597,-0.28892h6.77769c0.52582,0 1.02008,0.10279 1.48278,0.30812c0.46272,0.19245 0.8597,0.46218 1.19359,0.80871c0.34702,0.33388 0.61521,0.73166 0.8071,1.19385c0.20771,0.46217 0.31023,0.95646 0.31023,1.48278zM258.84491,226.20816v20.50735h-3.79372v-20.50735zM254.85929,218.31338h4.17755v3.94726h-4.17755zM283.51065,246.71551h-3.79107v-16.7139h-10.5714v16.7139h-3.77532v-20.50737h3.77532v3.62021c0.02366,-0.50084 0.13934,-0.96933 0.34439,-1.40576c0.20771,-0.44931 0.47587,-0.83444 0.80976,-1.15546c0.34702,-0.33363 0.74403,-0.59048 1.19359,-0.77004c0.44957,-0.19271 0.93067,-0.28892 1.44334,-0.28892h6.78032c0.52582,0 1.02008,0.10279 1.48278,0.30812c0.46008,0.19245 0.85968,0.46218 1.19359,0.80871c0.34441,0.33388 0.61521,0.73166 0.8071,1.19385c0.20507,0.46217 0.3076,0.95646 0.3076,1.48278zM307.17734,238.39694h-13.57639v4.52512h13.57639v3.79345h-13.57639c-0.51266,0 -1.00167,-0.09622 -1.46176,-0.28892c-0.46272,-0.20533 -0.86758,-0.47482 -1.21463,-0.8087c-0.33388,-0.3465 -0.60205,-0.75087 -0.8071,-1.21304c-0.19455,-0.46217 -0.28917,-0.95647 -0.28917,-1.48279v-12.92043c0,-0.52634 0.09464,-1.0206 0.28917,-1.48278c0.20507,-0.46217 0.47324,-0.85995 0.8071,-1.19385c0.34702,-0.3465 0.7519,-0.61625 1.21463,-0.80871c0.46008,-0.20533 0.94908,-0.30812 1.46176,-0.30812h9.78269c0.52582,0 1.02008,0.10279 1.48278,0.30812c0.46272,0.19245 0.8597,0.46218 1.19359,0.80871c0.34702,0.33388 0.61783,0.73166 0.80975,1.19385c0.20507,0.46217 0.3076,0.95646 0.3076,1.48278zM293.60094,230.00161v4.60215h9.78269v-4.60215zM314.25478,255.18501l10.45573,-31.54095h3.8121l-10.64764,31.54095zM87.29293,265.80817c0,-0.53896 0.10253,-1.0461 0.30813,-1.52117c0.20533,-0.48768 0.48768,-0.90494 0.84707,-1.25171c0.35937,-0.35937 0.77662,-0.64174 1.2517,-0.84707c0.48768,-0.21821 1.00115,-0.32731 1.54036,-0.32731h14.98111c0.53896,0 1.0461,0.10909 1.52117,0.32731c0.48768,0.20533 0.9115,0.48768 1.27087,0.84707c0.35937,0.34677 0.64173,0.76401 0.84707,1.25171c0.2056,0.47508 0.30813,0.98221 0.30813,1.52117v3.56236h-3.94726v-3.56236h-14.98111v19.71785h14.98111v-6.70091h-7.49069v-3.94751h11.43793v10.64842c0,0.53921 -0.10253,1.05267 -0.30813,1.54063c-0.20533,0.47481 -0.48768,0.89202 -0.84707,1.25143c-0.35937,0.35966 -0.78319,0.64202 -1.27087,0.84734c-0.47506,0.20533 -0.98221,0.30812 -1.52117,0.30812h-14.98111c-0.53923,0 -1.05266,-0.1028 -1.54036,-0.30812c-0.47506,-0.20533 -0.8923,-0.48768 -1.2517,-0.84734c-0.35937,-0.35937 -0.64174,-0.77662 -0.84707,-1.25143c-0.2056,-0.48796 -0.30813,-1.00142 -0.30813,-1.54063zM118.25602,297.75347l4.29402,-10.12841l-8.04882,-18.65889h3.98589l5.98846,14.11459l5.98872,-14.11459h3.98589l-12.41987,28.7873zM154.6494,272.75962v16.71391h-3.79345v-16.71391h-8.68427v16.71391h-3.77427v-20.50736h3.77427v3.62021c0.02576,-0.50084 0.1412,-0.96932 0.3465,-1.40575c0.20533,-0.44931 0.47506,-0.83445 0.80868,-1.15546c0.34677,-0.33363 0.74454,-0.59049 1.19385,-0.77004c0.44931,-0.19271 0.93069,-0.28893 1.44442,-0.28893h4.89083c0.50057,0 0.97564,0.09623 1.42495,0.28893c0.44931,0.17955 0.84733,0.43643 1.19385,0.77004c0.3465,0.32102 0.62257,0.70618 0.82789,1.15546c0.21847,0.43643 0.33389,0.90491 0.34677,1.40575c0.02551,-0.50084 0.13461,-0.96932 0.32732,-1.40575c0.20533,-0.44931 0.47506,-0.83445 0.8087,-1.15546c0.3465,-0.33363 0.74454,-0.59049 1.19385,-0.77004c0.44931,-0.19271 0.93069,-0.28893 1.44414,-0.28893h4.89108c0.52634,0 1.02061,0.10281 1.48252,0.30813c0.46217,0.19245 0.86023,0.46217 1.19386,0.8087c0.34677,0.33388 0.61625,0.73166 0.80896,1.19386c0.20533,0.46218 0.30813,0.95644 0.30813,1.48278v16.7139h-3.79347v-16.7139zM185.65113,261.86091h20.12221v3.94726h-16.17494v7.89502h13.80643v3.94726h-13.80643v7.87557h16.17494v3.94753h-20.1222zM211.2996,272.75962c0,-0.52634 0.09646,-1.0206 0.28892,-1.48278c0.20533,-0.46218 0.47506,-0.85995 0.8087,-1.19386c0.3465,-0.34652 0.75113,-0.61625 1.21304,-0.8087c0.46217,-0.20533 0.95013,-0.30812 1.46358,-0.30812h10.57141c0.52634,0 1.0206,0.1028 1.48251,0.30812c0.46218,0.19245 0.86023,0.46217 1.19385,0.8087c0.34677,0.33388 0.61625,0.73166 0.80896,1.19386c0.20533,0.46218 0.30786,0.95644 0.30786,1.48278v24.99384h-3.7932v-11.90012c-0.01289,0.50084 -0.12856,0.96932 -0.34677,1.40575c-0.20533,0.43643 -0.48136,0.8216 -0.82788,1.15546c-0.33388,0.32074 -0.72535,0.57762 -1.17466,0.77005c-0.44931,0.19271 -0.92411,0.28892 -1.42495,0.28892h-6.79715c-0.51347,0 -1.00142,-0.09621 -1.4636,-0.28892c-0.46191,-0.20533 -0.86652,-0.47482 -1.21304,-0.80871c-0.33363,-0.34652 -0.60337,-0.75086 -0.8087,-1.21304c-0.19245,-0.46218 -0.28892,-0.95644 -0.28892,-1.48278zM225.64526,285.68008v-12.92045h-10.5714v12.92045zM235.75448,268.96616h3.77401v16.71391h10.5714v-16.71391h3.79345v20.50736h-3.79345v-3.46614c-0.03839,0.47508 -0.1667,0.92437 -0.38516,1.34791c-0.21821,0.42381 -0.50056,0.79607 -0.84707,1.11682c-0.33388,0.30813 -0.71904,0.55209 -1.15546,0.73193c-0.43643,0.17955 -0.89862,0.26947 -1.3863,0.26947h-6.79741c-0.51347,0 -1.00114,-0.09623 -1.46333,-0.28893c-0.46218,-0.20533 -0.86653,-0.47481 -1.21305,-0.8087c-0.33388,-0.34652 -0.60337,-0.75086 -0.80869,-1.21304c-0.19271,-0.46218 -0.28893,-0.95646 -0.28893,-1.48278zM264.19526,268.96616v20.50736h-3.79345v-20.50736zM260.2091,261.07139h4.1786v3.94726h-4.1786zM288.86229,285.68008c0,0.52634 -0.10253,1.0206 -0.3076,1.48278c-0.19455,0.46218 -0.46272,0.86652 -0.80975,1.21304c-0.33388,0.33388 -0.73088,0.60337 -1.19359,0.8087c-0.46272,0.19271 -0.95697,0.28893 -1.48278,0.28893h-10.57166v8.27992h-3.77401v-28.7873h3.77401v3.46614c0.03866,-0.48796 0.16694,-0.93726 0.38515,-1.34793c0.21821,-0.42381 0.49426,-0.7895 0.82789,-1.09763c0.33388,-0.32102 0.71904,-0.57129 1.15546,-0.75112c0.44931,-0.17955 0.92438,-0.26948 1.42548,-0.26948h6.77769c0.52582,0 1.02007,0.10281 1.48277,0.30813c0.46272,0.19245 0.85969,0.46218 1.1936,0.8087c0.34702,0.33388 0.6152,0.73166 0.80975,1.19385c0.20507,0.46218 0.30759,0.95646 0.30759,1.48278zM285.06857,285.68008v-12.92045h-10.57167v12.92045zM311.43004,272.75962v16.71391h-3.79371v-16.71391h-8.68374v16.71391h-3.77532v-20.50736h3.77532v3.62021c0.02366,-0.50084 0.13934,-0.96932 0.34703,-1.40575c0.20507,-0.44931 0.47324,-0.83445 0.8071,-1.15546c0.34702,-0.33363 0.74402,-0.59049 1.19359,-0.77004c0.44957,-0.19271 0.93069,-0.28893 1.44597,-0.28893h4.89003c0.49952,0 0.97538,0.09623 1.42494,0.28893c0.44957,0.17955 0.84656,0.43643 1.19359,0.77004c0.34702,0.32102 0.62308,0.70618 0.82815,1.15546c0.21821,0.43643 0.33388,0.90491 0.34702,1.40575c0.02628,-0.50084 0.13408,-0.96932 0.32601,-1.40575c0.20507,-0.44931 0.47585,-0.83445 0.80975,-1.15546c0.34702,-0.33363 0.74403,-0.59049 1.19359,-0.77004c0.44957,-0.19271 0.93069,-0.28893 1.44336,-0.28893h4.89264c0.52582,0 1.02008,0.10281 1.48278,0.30813c0.46008,0.19245 0.8597,0.46217 1.19359,0.8087c0.34702,0.33388 0.61521,0.73166 0.80712,1.19386c0.20507,0.46218 0.31021,0.95644 0.31021,1.48278v16.7139h-3.79372v-16.7139zM347.57157,281.15496h-13.57378v4.52511h13.57378v3.79345h-13.57378c-0.5153,0 -1.00168,-0.09621 -1.4644,-0.28892c-0.46272,-0.20533 -0.86496,-0.47482 -1.21199,-0.80871c-0.33388,-0.34652 -0.60467,-0.75086 -0.80975,-1.21304c-0.19191,-0.46218 -0.28917,-0.95644 -0.28917,-1.48278v-12.92045c0,-0.52634 0.09728,-1.0206 0.28917,-1.48278c0.20507,-0.46218 0.47585,-0.85995 0.80975,-1.19385c0.34702,-0.34652 0.74929,-0.61625 1.21199,-0.8087c0.46272,-0.20533 0.9491,-0.30813 1.4644,-0.30813h9.78005c0.52844,0 1.0227,0.1028 1.48278,0.30813c0.46272,0.19245 0.86232,0.46218 1.19621,0.8087c0.34441,0.33388 0.61521,0.73166 0.80712,1.19385c0.20507,0.46218 0.3076,0.95646 0.3076,1.48278zM333.9978,272.75962v4.60215h9.78005v-4.60215zM372.04538,289.47353h-3.79107v-16.71391h-10.5714v16.71391h-3.77532v-20.50736h3.77532v3.62021c0.02366,-0.50084 0.13934,-0.96932 0.34439,-1.40575c0.20771,-0.44931 0.47586,-0.83445 0.80975,-1.15546c0.34702,-0.33363 0.74403,-0.59049 1.19359,-0.77004c0.44957,-0.19271 0.93069,-0.28893 1.44334,-0.28893h6.78032c0.52582,0 1.02007,0.10281 1.48277,0.30813c0.46008,0.19245 0.85969,0.46217 1.19358,0.8087c0.34441,0.33388 0.61521,0.73166 0.8071,1.19386c0.20507,0.46218 0.3076,0.95644 0.3076,1.48278zM377.16938,268.96616h5.00573v-6.31577h3.79371v6.31577h6.73825v3.79345h-6.73825v12.92045h6.73825v3.79345h-6.73825c-0.51266,0 -1.00166,-0.09623 -1.46438,-0.28893c-0.46272,-0.20533 -0.86495,-0.47481 -1.21198,-0.8087c-0.34702,-0.34652 -0.62309,-0.75086 -0.82816,-1.21304c-0.19191,-0.46218 -0.28917,-0.95646 -0.28917,-1.48278v-12.92045h-5.00571z"/><path d="M160.89185,248.03003h-0.8071l-0.36545,-0.71826l1.17255,-0.59627zM149.27514,226.47763l2.48602,-0.59627l-1.1715,0.59627zM151.90417,246.71551v1.31452h-1.31451v-1.31452zM146.64215,248.03003h-1.31452v-1.31452h1.31452zM145.32763,219.10289v-1.31453h1.31452v1.31453zM150.95536,217.78837h0.80844l0.36491,0.72141l-1.17335,0.59311zM162.64281,240.49282l-1.17519,2.3175l-1.17255,-2.31828l1.17517,-0.59312zM170.82965,218.50899l0.36545,-0.72062h0.8071v1.31453zM176.29544,217.78837h1.31453v1.31453h-1.31453zM177.60995,246.71551v1.31452h-1.31453v-1.31452zM172.36763,248.03003h-1.31451v-1.31452h1.31451zM171.1951,225.88136l2.48708,0.59627h-1.31453zM163.23697,247.31178l-0.36545,0.71827h-0.80449v-1.31454zM159.7193,247.31178l-10.30114,-20.23761l2.34301,-1.1928l10.30059,20.23787zM151.90417,226.47763v20.23788h-2.62904v-20.23788zM150.58967,248.03003h-3.94752v-2.62905h3.94752zM145.32763,246.71551v-27.61264h2.62905v27.61264zM146.64215,217.78837h4.31322v2.62906h-4.31322zM152.12873,218.50976l10.51409,20.79605l-2.34772,1.18623l-10.51277,-20.79605zM160.29769,239.30503l10.53197,-20.79605l2.34511,1.18781l-10.53195,20.79603zM172.00221,217.78837h4.29323v2.62906h-4.29323zM177.60995,219.10289v27.61263h-2.62904v-27.61263zM176.29544,248.03003h-3.92781v-2.62905h3.92781zM171.05313,246.71551v-20.23788h2.62905v20.23788zM173.5402,227.07415l-10.30324,20.23761l-2.34247,-1.19252l10.30061,-20.23787zM162.06702,248.03003h-1.17517v-2.62905h1.17517zM182.11615,235.78025l0.0079,-0.01605l1.20147,0.53397zM183.18618,234.17338l0.0184,-0.01788l0.92804,0.92961zM185.88095,235.47766l-0.0289,0.01234l-0.50478,-1.21356zM197.90621,233.96831v1.31452h-1.31451v-1.31452zM196.5917,228.68707h1.31451v1.31454h-1.31451zM184.20887,231.31612h-1.31452v-1.31451h1.31452zM182.89435,226.20816v-1.31452h1.31452v1.31452zM197.5697,227.72958l-0.02892,-0.01182l0.5337,-1.20149zM198.35578,228.27194l-0.0184,-0.01735l-0.01577,-0.01787l0.94646,-0.91174zM198.87633,229.05277l-0.01315,-0.02812l1.21462,-0.50585zM201.69993,246.71551v1.31452h-1.31451v-1.31452zM196.5917,248.03003h-1.31454v-1.31452h1.31454zM195.28243,243.14316l2.62379,0.10622h-1.31452zM196.25254,246.67871l-0.00262,0.00132l-0.89126,-0.96591zM184.83985,247.64015l-0.02891,-0.01184l0.53633,-1.20174zM183.22034,246.56486l-0.01576,-0.01736l-0.0184,-0.01787l0.94647,-0.91174zM182.12406,244.9388l-0.01316,-0.02812l1.21463,-0.50585zM186.80901,244.23658h-1.31453v-1.31452h1.31453zM197.90621,242.92206v1.31451h-1.31451v-1.31451zM196.5917,236.44697h1.31451v1.31451h-1.31451zM185.49448,237.7615v-1.31452h1.31453v1.31452zM181.7218,237.7615c0,-0.69038 0.12621,-1.35606 0.39436,-1.98125l2.41608,1.03585c-0.11567,0.27341 -0.18139,0.58339 -0.18139,0.9454zM182.12406,235.76421c0.26291,-0.59468 0.61783,-1.12865 1.06212,-1.59083l1.89292,1.8235c-0.22083,0.23084 -0.4075,0.50557 -0.55473,0.83524zM183.20457,234.1555c0.4706,-0.4706 1.02008,-0.83552 1.63527,-1.09264l1.01218,2.42689c-0.3076,0.12804 -0.56789,0.30233 -0.78872,0.52475zM184.81357,233.07495c0.63099,-0.28104 1.30138,-0.42119 1.99543,-0.42119v2.62905c-0.33127,0 -0.63625,0.06519 -0.92805,0.1948zM186.80901,232.6538h9.78269v2.62905h-9.78269zM195.27716,233.96831v-3.96672h2.62905v3.96672zM196.5917,231.31612h-12.38281v-2.62905h12.38281zM182.89435,230.00161v-3.79345h2.62905v3.79345zM184.20887,224.89362h12.38281v2.62906h-12.38281zM196.5917,224.89362c0.70194,0 1.38025,0.1383 2.01648,0.42145l-1.0674,2.40243c-0.28655,-0.12777 -0.59942,-0.1948 -0.94908,-0.1948zM198.57926,225.30296c0.62309,0.25872 1.17255,0.62861 1.63527,1.11025l-1.89292,1.82351c-0.20507,-0.21165 -0.44957,-0.38094 -0.7519,-0.50713zM200.18035,226.37826c0.48112,0.46351 0.85181,1.01349 1.10946,1.63498l-2.42662,1.01114c-0.1262,-0.30287 -0.29445,-0.54871 -0.50738,-0.75243zM201.27929,227.98486c0.28131,0.63728 0.42066,1.31401 0.42066,2.01673h-2.62906c0,-0.35019 -0.06836,-0.66173 -0.19455,-0.94883zM201.69993,230.00161v16.7139h-2.62904v-16.7139zM200.3854,248.03003h-3.79371v-2.62905h3.79371zM195.27716,246.71551v-3.46614h2.62905v3.46614zM197.90095,243.35558c-0.05258,0.64806 -0.22873,1.26589 -0.5258,1.84375l-2.33724,-1.20384c0.13934,-0.26946 0.21823,-0.55027 0.24451,-0.85234zM197.37516,245.19935c-0.28655,0.55842 -0.66253,1.05373 -1.12261,1.47938l-1.78775,-1.92894c0.23397,-0.21612 0.42327,-0.4656 0.57314,-0.75426zM196.24991,246.68001c-0.45218,0.41802 -0.97012,0.7448 -1.54589,0.98143l-1.00167,-2.43107c0.29971,-0.12278 0.54946,-0.28394 0.76505,-0.48217zM194.70402,247.66145c-0.59942,0.24739 -1.23302,0.3686 -1.88764,0.3686v-2.62905c0.32338,0 0.61519,-0.05838 0.88598,-0.17064zM192.81638,248.03003h-6.00737v-2.62905h6.00737zM186.80901,248.03003c-0.68093,0 -1.34081,-0.12881 -1.96916,-0.38988l1.01218,-2.42689c0.29707,0.12408 0.61257,0.18772 0.95696,0.18772zM184.81357,247.62779c-0.59679,-0.26421 -1.13049,-0.61782 -1.59321,-1.06291l1.82457,-1.89371c0.23137,0.22215 0.50477,0.40776 0.83604,0.55419zM183.18618,246.52965c-0.4443,-0.46217 -0.79922,-0.99614 -1.06212,-1.59084l2.40032,-1.06792c0.14724,0.32969 0.33389,0.60441 0.55473,0.83525zM182.1109,244.91041c-0.26291,-0.63045 -0.3891,-1.29743 -0.3891,-1.98835h2.62905c0,0.36202 0.06574,0.6833 0.18666,0.97722zM181.7218,242.92206v-5.16055h2.62905v5.16055zM186.80901,241.60754h9.78269v2.62905h-9.78269zM195.27716,242.92206v-5.16055h2.62905v5.16055zM196.5917,239.07601h-9.78269v-2.62904h9.78269zM188.12353,237.7615v5.16055h-2.62905v-5.16055zM209.17957,230.00161v-1.31454h1.31451v1.31454zM210.49411,244.23658h-1.31451v-1.31452h1.31451zM221.59131,242.92206v1.31451h-1.31452v-1.31451zM218.96227,239.45618v-1.31452h1.31451v1.31452zM224.0705,238.14166h1.31452v1.31452h-1.31452zM222.5483,243.89928l0.01051,-0.02841l1.20149,0.53397zM222.29327,247.62779l-0.02892,0.01262l-0.50477,-1.21382zM208.52494,247.64015l-0.0289,-0.01184l0.53369,-1.20174zM206.90544,246.56486l-0.0184,-0.01736l-0.01578,-0.01787l0.94647,-0.91174zM205.8065,244.9388l-0.01051,-0.02812l1.21198,-0.50585zM205.79599,228.01324l0.01051,-0.0284l1.20149,0.53395zM209.56342,227.71747l-0.02626,0.01261l-0.5074,-1.21383zM221.25217,227.72958l-0.02628,-0.01182l0.5337,-1.20149zM222.04088,228.27194l-0.0184,-0.01735l-0.01576,-0.01787l0.94645,-0.91174zM222.56142,229.05277l-0.01316,-0.02812l1.21199,-0.50585zM225.38502,233.46747v1.31452h-1.31452v-1.31452zM220.27679,234.78199h-1.31452v-1.31452h1.31452zM220.27679,228.68707h1.31452v1.31454h-1.31452zM211.80863,230.00161v12.92045h-2.62905v-12.92045zM210.49411,241.60754h9.7827v2.62905h-9.7827zM218.96227,242.92206v-3.46585h2.62905v3.46585zM220.27679,238.14166h3.79371v2.62905h-3.79371zM225.38502,239.45618v3.46585h-2.62905v-3.46585zM225.38502,242.92206c0,0.70274 -0.13935,1.37947 -0.42328,2.01673l-2.40031,-1.06792c0.1262,-0.28709 0.19454,-0.59862 0.19454,-0.94883zM224.97488,244.91041c-0.25764,0.61704 -0.62309,1.16651 -1.09369,1.63709l-1.85873,-1.859c0.22347,-0.22268 0.39697,-0.48218 0.5258,-0.78923zM223.88122,246.54752c-0.45482,0.45561 -0.98854,0.81421 -1.58795,1.08027l-1.06738,-2.40243c0.32338,-0.1446 0.5863,-0.32522 0.79661,-0.53685zM222.26435,247.64015c-0.63099,0.26265 -1.29876,0.38988 -1.98754,0.38988v-2.62905c0.36019,0 0.68356,-0.06519 0.97538,-0.18772zM220.27679,248.03003h-9.78269v-2.62905h9.78269zM210.49411,248.03003c-0.68356,0 -1.34345,-0.12881 -1.96916,-0.38988l1.01218,-2.42689c0.29707,0.12408 0.61257,0.18772 0.95696,0.18772zM208.49602,247.62779c-0.59416,-0.26421 -1.12786,-0.61782 -1.59058,-1.06291l1.82457,-1.89371c0.23137,0.22215 0.50477,0.40776 0.83341,0.55419zM206.87127,246.52965c-0.44692,-0.46217 -0.79922,-0.99614 -1.06477,-1.59084l2.40296,-1.06792c0.14724,0.32969 0.33388,0.60441 0.55473,0.83525zM205.79599,244.91041c-0.26291,-0.63045 -0.39172,-1.29743 -0.39172,-1.98835h2.62905c0,0.36202 0.06574,0.6833 0.18929,0.97722zM205.40428,242.92206v-12.92045h2.62905v12.92045zM205.40428,230.00161c0,-0.69092 0.12882,-1.35792 0.39172,-1.98837l2.4266,1.01114c-0.12357,0.29392 -0.18929,0.61547 -0.18929,0.97722zM205.8065,227.98486c0.26817,-0.59891 0.62571,-1.13365 1.08055,-1.58927l1.86136,1.859c-0.21295,0.21165 -0.39435,0.47271 -0.53896,0.79818zM206.88706,226.39561c0.4706,-0.47087 1.02007,-0.83552 1.63789,-1.09264l1.01218,2.42661c-0.3076,0.12804 -0.56788,0.30235 -0.78872,0.52502zM208.49602,225.31507c0.6336,-0.28131 1.30402,-0.42145 1.99808,-0.42145v2.62906c-0.33127,0 -0.63887,0.06519 -0.93069,0.1948zM210.49411,224.89362h9.7827v2.62906h-9.7827zM220.27679,224.89362c0.70194,0 1.37761,0.1383 2.01648,0.42145l-1.06738,2.40243c-0.28918,-0.12777 -0.59942,-0.1948 -0.94908,-0.1948zM222.26435,225.30296c0.62046,0.25872 1.17255,0.62861 1.63527,1.11025l-1.89291,1.82351c-0.20507,-0.21165 -0.44957,-0.38094 -0.75453,-0.50713zM223.86545,226.37826c0.48112,0.46351 0.84918,1.01349 1.10945,1.63498l-2.4266,1.01114c-0.1262,-0.30287 -0.29707,-0.54871 -0.5074,-0.75243zM224.96176,227.98486c0.28393,0.63728 0.42328,1.31401 0.42328,2.01673h-2.62906c0,-0.35019 -0.06835,-0.66173 -0.19454,-0.94883zM225.38502,230.00161v3.46585h-2.62905v-3.46585zM224.0705,234.78199h-3.79371v-2.62905h3.79371zM218.96227,233.46747v-3.46585h2.62905v3.46585zM220.27679,231.31612h-9.78269v-2.62905h9.78269zM249.85884,246.71551v1.31452h-1.31452v-1.31452zM244.75059,248.03003h-1.31452v-1.31452h1.31452zM244.75059,228.68707h1.31451v1.31454h-1.31451zM232.86467,230.00161v-1.31454h1.31451v1.31454zM235.49372,246.71551v1.31452h-1.31453v-1.31452zM230.40388,248.03003h-1.31451v-1.31452h1.31451zM229.08935,218.31338v-1.31452h1.31452v1.31452zM234.1792,216.99885h1.31453v1.31452h-1.31453zM235.4911,229.89564l-2.62642,-0.06731h1.31452zM235.71982,228.96918l-0.00527,0.01316l-1.18833,-0.55971zM236.24563,228.21413v0.00079l-0.91228,-0.94778zM237.04486,227.70512l-0.02892,0.01262l-0.48902,-1.22068zM245.72596,227.72958l-0.02628,-0.01182l0.53371,-1.20149zM246.51468,228.27194l-0.0184,-0.01735l-0.01578,-0.01787l0.94647,-0.91174zM247.03524,229.05277l-0.01314,-0.02812l1.21199,-0.50585zM248.54431,248.03003h-3.79372v-2.62905h3.79372zM243.43609,246.71551v-16.7139h2.62904v16.7139zM244.75059,231.31612h-10.57141v-2.62905h10.57141zM235.49372,230.00161v16.7139h-2.62906v-16.7139zM234.1792,248.03003h-3.77532v-2.62905h3.77532zM229.08935,246.71551v-28.40213h2.62905v28.40213zM230.40388,216.99885h3.77532v2.62905h-3.77532zM235.49372,218.31338v11.51497h-2.62906v-11.51497zM232.86467,229.76105c0.03418,-0.66463 0.18928,-1.30111 0.4706,-1.89817l2.3793,1.11943c-0.12881,0.2758 -0.20505,0.5763 -0.22347,0.91333zM233.33002,227.87602c0.26817,-0.58944 0.63099,-1.1134 1.09369,-1.5564l1.82194,1.89526c-0.20771,0.19875 -0.38386,0.44511 -0.52583,0.75427zM234.42107,226.32042c0.4706,-0.45218 1.01219,-0.80161 1.61951,-1.04401l0.97539,2.44106c-0.29182,0.11699 -0.54684,0.28131 -0.77031,0.49663zM236.00901,225.28878c0.62309,-0.26634 1.28034,-0.39516 1.9639,-0.39516v2.62906c-0.34441,0 -0.64937,0.06362 -0.92805,0.18244zM237.97292,224.89362h6.77769v2.62906h-6.77769zM244.75059,224.89362c0.70194,0 1.38025,0.1383 2.01648,0.42145l-1.06739,2.40243c-0.28918,-0.12777 -0.59943,-0.1948 -0.94909,-0.1948zM246.73816,225.30296c0.62046,0.25872 1.17255,0.62861 1.63527,1.11025l-1.89291,1.82351c-0.20507,-0.21165 -0.44957,-0.38094 -0.75453,-0.50713zM248.33924,226.37826c0.48112,0.46351 0.85181,1.01349 1.10945,1.63498l-2.42661,1.01114c-0.1262,-0.30287 -0.29445,-0.54871 -0.5074,-0.75243zM249.43556,227.98486c0.28393,0.63728 0.42328,1.31401 0.42328,2.01673h-2.62905c0,-0.35019 -0.06836,-0.66173 -0.19455,-0.94883zM249.85884,230.00161v16.7139h-2.62905v-16.7139zM258.84491,224.89362h1.31452v1.31452h-1.31452zM260.15945,246.71551v1.31452h-1.31452v-1.31452zM255.05121,248.03003h-1.31453v-1.31452h1.31453zM253.73669,226.20816v-1.31452h1.31454v1.31452zM253.54475,218.31338v-1.31452h1.31453v1.31452zM259.03684,216.99885h1.31452v1.31452h-1.31452zM260.35136,222.26065v1.31451h-1.31452v-1.31451zM254.85929,223.57516h-1.31453v-1.31451h1.31453zM260.15945,226.20816v20.50735h-2.62905v-20.50735zM258.84491,248.03003h-3.79372v-2.62905h3.79372zM253.73669,246.71551v-20.50737h2.62905v20.50737zM255.05121,224.89362h3.79371v2.62906h-3.79371zM254.85929,216.99885h4.17755v2.62905h-4.17755zM260.35136,218.31338v3.94726h-2.62905v-3.94726zM259.03684,223.57516h-4.17755v-2.62906h4.17755zM253.54475,222.26065v-3.94726h2.62905v3.94726zM284.82518,246.71551v1.31452h-1.31452v-1.31452zM279.71956,248.03003h-1.31453v-1.31452h1.31453zM279.71956,228.68707h1.31452v1.31454h-1.31452zM267.83363,230.00161v-1.31454h1.31452v1.31454zM270.46268,246.71551v1.31452h-1.31452v-1.31452zM265.37285,248.03003h-1.31452v-1.31452h1.31452zM264.05832,226.20816v-1.31452h1.31452v1.31452zM269.14815,224.89362h1.31451v1.31452h-1.31451zM270.46007,229.89564l-2.62642,-0.06731h1.31453zM270.68877,228.96918l-0.00527,0.01316l-1.19096,-0.55971zM271.21458,228.21413v0.00079l-0.91226,-0.94778zM272.01383,227.70512l-0.0289,0.01262l-0.489,-1.22068zM280.69494,227.72958l-0.02892,-0.01182l0.53632,-1.20149zM281.48365,228.27194l-0.01839,-0.01735l-0.01577,-0.01787l0.94646,-0.91174zM282.00158,229.05277l-0.01053,-0.02812l1.21199,-0.50585zM283.51065,248.03003h-3.79107v-2.62905h3.79107zM278.40504,246.71551v-16.7139h2.62905v16.7139zM279.71956,231.31612h-10.5714v-2.62905h10.5714zM270.46268,230.00161v16.7139h-2.62905v-16.7139zM269.14815,248.03003h-3.77532v-2.62905h3.77532zM264.05832,246.71551v-20.50737h2.62905v20.50737zM265.37285,224.89362h3.77531v2.62906h-3.77531zM270.46268,226.20816v3.6202h-2.62905v-3.6202zM267.83363,229.76105c0.03418,-0.66463 0.18927,-1.30111 0.4706,-1.89817l2.3793,1.11943c-0.13144,0.2758 -0.20506,0.5763 -0.22348,0.91333zM268.29897,227.87602c0.26817,-0.58944 0.63098,-1.1134 1.09106,-1.5564l1.82456,1.89526c-0.20771,0.19875 -0.38383,0.44511 -0.5258,0.75427zM269.39005,226.32042c0.4706,-0.45218 1.01218,-0.80161 1.61687,-1.04401l0.97801,2.44106c-0.29182,0.11699 -0.54685,0.28131 -0.77032,0.49663zM270.97799,225.28878c0.62046,-0.26634 1.28034,-0.39516 1.96127,-0.39516v2.62906c-0.34441,0 -0.64674,0.06362 -0.92542,0.18244zM272.93926,224.89362h6.78032v2.62906h-6.78032zM279.71956,224.89362c0.70194,0 1.37762,0.1383 2.01647,0.42145l-1.07001,2.40243c-0.28655,-0.12777 -0.59678,-0.1948 -0.94646,-0.1948zM281.70712,225.30296c0.62046,0.25872 1.16992,0.62861 1.63527,1.11025l-1.89292,1.82351c-0.20507,-0.21165 -0.45218,-0.38094 -0.75453,-0.50713zM283.30559,226.37826c0.48374,0.46351 0.85181,1.01349 1.11208,1.63498l-2.42662,1.01114c-0.1262,-0.30287 -0.29708,-0.54871 -0.50739,-0.75243zM284.40453,227.98486c0.28393,0.63728 0.42065,1.31401 0.42065,2.01673h-2.62905c0,-0.35019 -0.06573,-0.66173 -0.19455,-0.94883zM284.82518,230.00161v16.7139h-2.62905v-16.7139zM308.49187,238.39694v1.31453h-1.31453v-1.31453zM292.28642,238.39694v-1.31452h1.31453v1.31452zM293.60094,244.23658h-1.31454v-1.31452h1.31454zM307.17734,241.60754h1.31453v1.31452h-1.31453zM308.49187,246.71551v1.31452h-1.31453v-1.31452zM291.63177,247.64015l-0.02628,-0.01184l0.53371,-1.20174zM290.01229,246.56486l-0.01577,-0.01736l-0.01839,-0.01787l0.94647,-0.91174zM288.91597,244.9388l-0.01314,-0.02812l1.21462,-0.50585zM288.90282,228.01324l0.01314,-0.0284l1.20149,0.53395zM292.67288,227.71747l-0.02892,0.01261l-0.50477,-1.21383zM304.36162,227.72958l-0.0289,-0.01182l0.5337,-1.20149zM305.14772,228.27194l-0.01577,-0.01735l-0.0184,-0.01787l0.94646,-0.91174zM305.66826,229.05277l-0.01315,-0.02812l1.21462,-0.50585zM292.28642,230.00161v-1.31454h1.31453v1.31454zM293.60094,235.91829h-1.31454v-1.31452h1.31454zM304.69816,234.60376v1.31451h-1.31453v-1.31451zM303.38363,228.68707h1.31451v1.31454h-1.31451zM307.17734,239.71146h-13.57639v-2.62905h13.57639zM294.91547,238.39694v4.52512h-2.62905v-4.52512zM293.60094,241.60754h13.57639v2.62905h-13.57639zM308.49187,242.92206v3.79345h-2.62904v-3.79345zM307.17734,248.03003h-13.57639v-2.62905h13.57639zM293.60094,248.03003c-0.68093,0 -1.34082,-0.12881 -1.96916,-0.38988l1.01218,-2.42689c0.29707,0.12408 0.61257,0.18772 0.95697,0.18772zM291.60549,247.62779c-0.59679,-0.26421 -1.13049,-0.61782 -1.59321,-1.06291l1.82458,-1.89371c0.23137,0.22215 0.50475,0.40776 0.83603,0.55419zM289.97813,246.52965c-0.4443,-0.46217 -0.79924,-0.99614 -1.06213,-1.59084l2.40296,-1.06792c0.14458,0.32969 0.33125,0.60441 0.55208,0.83525zM288.90282,244.91041c-0.26291,-0.63045 -0.3891,-1.29743 -0.3891,-1.98835h2.62905c0,0.36202 0.06574,0.6833 0.18666,0.97722zM288.51373,242.92206v-12.92045h2.62905v12.92045zM288.51373,230.00161c0,-0.69092 0.12621,-1.35792 0.3891,-1.98837l2.4266,1.01114c-0.12094,0.29392 -0.18666,0.61547 -0.18666,0.97722zM288.91597,227.98486c0.26554,-0.59891 0.62308,-1.13365 1.08055,-1.58927l1.85874,1.859c-0.21295,0.21165 -0.39172,0.47271 -0.53632,0.79818zM289.99651,226.39561c0.4706,-0.47087 1.02007,-0.83552 1.63527,-1.09264l1.01218,2.42661c-0.3076,0.12804 -0.56787,0.30235 -0.78871,0.52502zM291.60549,225.31507c0.63099,-0.28131 1.3014,-0.42145 1.99545,-0.42145v2.62906c-0.33127,0 -0.63625,0.06519 -0.92805,0.1948zM293.60094,224.89362h9.78269v2.62906h-9.78269zM303.38363,224.89362c0.70194,0 1.38024,0.1383 2.01647,0.42145l-1.06739,2.40243c-0.28655,-0.12777 -0.59942,-0.1948 -0.94908,-0.1948zM305.37118,225.30296c0.62309,0.25872 1.17255,0.62861 1.63527,1.11025l-1.89291,1.82351c-0.20507,-0.21165 -0.44956,-0.38094 -0.7519,-0.50713zM306.97226,226.37826c0.48112,0.46351 0.8518,1.01349 1.10944,1.63498l-2.4266,1.01114c-0.1262,-0.30287 -0.29445,-0.54871 -0.5074,-0.75243zM308.07122,227.98486c0.28131,0.63728 0.42065,1.31401 0.42065,2.01673h-2.62904c0,-0.35019 -0.06836,-0.66173 -0.19455,-0.94883zM308.49187,230.00161v8.39533h-2.62904v-8.39533zM294.91547,230.00161v4.60215h-2.62905v-4.60215zM293.60094,233.28922h9.78269v2.62905h-9.78269zM302.06909,234.60376v-4.60215h2.62905v4.60215zM303.38363,231.31612h-9.78269v-2.62905h9.78269zM314.25478,256.49951h-1.8193l0.57051,-1.72833l1.24879,0.41384zM323.4617,223.23049l0.29972,-0.90098h0.9491v1.31454zM328.52263,222.32951h1.83244l-0.58628,1.73492l-1.24618,-0.42038zM319.12116,255.60538l-0.30233,0.89415h-0.94384v-1.31452zM325.95927,224.05761c0,0 -1.89176,5.70672 -3.56836,10.7644c-0.56984,1.71899 -1.11482,3.36302 -1.55225,4.68253c-0.54751,1.65162 -1.27062,3.83295 -2.0071,6.05465c-1.63119,4.92067 -3.32802,10.03936 -3.32802,10.03936zM324.71052,222.32951h3.8121v2.62905h-3.8121zM329.7688,224.06443l-10.64764,31.54095l-2.49235,-0.84105l10.65027,-31.54067zM317.87499,256.49951h-3.62021v-2.62905h3.62021zM88.81251,264.79729l-0.00501,0.01157l-1.20646,-0.52186zM89.37776,263.96492l-0.01709,0.01683l-0.91254,-0.94647zM90.23667,263.38812l-0.015,0.00657l-0.52186,-1.20649zM107.2324,263.39968l-0.01971,-0.00815l-0.01919,-0.00895l0.54895,-1.19437zM108.1008,263.98175l-0.01709,-0.01655l0.92961,-0.92989zM108.65394,264.80887l-0.00501,-0.01155l1.21147,-0.51031zM111.48305,269.37053v1.31452h-1.31452v-1.31452zM106.22129,270.68505h-1.31453v-1.31452h1.31453zM106.22129,264.49365h1.31452v1.31452h-1.31452zM89.92567,265.80817v-1.31452h1.31451v1.31452zM91.24017,286.84054h-1.31452v-1.31452h1.31452zM107.53581,285.52602v1.31452h-1.31452v-1.31452zM106.22129,277.51058h1.31452v1.31452h-1.31452zM98.73059,280.13962h-1.31452v-1.31453h1.31452zM97.41607,274.87758v-1.31453h1.31452v1.31453zM110.16853,273.56306h1.31452v1.31454h-1.31452zM111.07213,287.57667l-0.00501,0.01157l-1.20675,-0.52159zM107.22059,287.95894l0.01156,-0.00501l0.51031,1.21147zM89.18979,290.37689l-0.01184,-0.00472l0.52186,-1.20675zM87.51876,289.24771l0.92936,-0.92962zM86.39432,287.58826l-0.00501,-0.01156l1.21174,-0.51004zM85.9784,265.80817c0,-0.7109 0.13644,-1.39629 0.41593,-2.04277l2.41319,1.04347c-0.1312,0.3034 -0.20008,0.63203 -0.20008,0.9993zM86.38932,263.77696c0.27027,-0.64202 0.65122,-1.21014 1.14628,-1.68785l1.82508,1.89265c-0.22374,0.21558 -0.40777,0.48163 -0.54816,0.81553zM87.51876,262.10593c0.47877,-0.47877 1.03506,-0.85444 1.6592,-1.12419l1.04348,2.41295c-0.32548,0.14092 -0.60364,0.3302 -0.84367,0.57023zM89.16297,260.98832c0.65831,-0.29445 1.35474,-0.44193 2.07722,-0.44193v2.62905c-0.35572,0 -0.68619,0.07072 -1.0035,0.21269zM91.24017,260.54639h14.98111v2.62905h-14.98111zM106.22129,260.54639c0.72246,0 1.41731,0.14749 2.06985,0.4472l-1.09763,2.38904c-0.29735,-0.13645 -0.61653,-0.20716 -0.97221,-0.20716zM108.25249,260.97676c0.63807,0.26843 1.20569,0.64464 1.69022,1.12919l-1.859,1.859c-0.23424,-0.23424 -0.51373,-0.42301 -0.8513,-0.56524zM109.92561,262.0891c0.49531,0.47769 0.87627,1.04585 1.14654,1.68785l-2.4232,1.02033c-0.1404,-0.33388 -0.32441,-0.59996 -0.54814,-0.81553zM111.06715,263.76539c0.27945,0.6465 0.41593,1.33189 0.41593,2.04277h-2.62905c0,-0.36727 -0.06888,-0.6959 -0.20009,-0.99929zM111.48305,265.80817v3.56236h-2.62905v-3.56236zM110.16853,270.68505h-3.94725v-2.62905h3.94725zM104.90675,269.37053v-3.56236h2.62905v3.56236zM106.22129,267.12268h-14.98111v-2.62905h14.98111zM92.5547,265.80817v19.71785h-2.62905v-19.71785zM91.24017,284.21151h14.98111v2.62905h-14.98111zM104.90675,285.52602v-6.70091h2.62905v6.70091zM106.22129,280.13962h-7.49069v-2.62905h7.49069zM97.41607,278.82511v-3.94751h2.62905v3.94751zM98.73059,273.56306h11.43793v2.62905h-11.43793zM111.48305,274.87758v10.64843h-2.62905v-10.64843zM111.48305,285.52602c0,0.71116 -0.13645,1.3984 -0.41093,2.05067l-2.42319,-1.02033c0.13619,-0.32311 0.20507,-0.66305 0.20507,-1.03034zM111.06715,287.58826c-0.27001,0.62439 -0.64542,1.18069 -1.12443,1.65946l-1.859,-1.859c0.24003,-0.24003 0.42958,-0.51819 0.57024,-0.84392zM109.9427,289.24771c-0.48453,0.48453 -1.05214,0.86076 -1.69022,1.12918l-1.02007,-2.42292c0.33757,-0.14223 0.61704,-0.33101 0.8513,-0.56525zM108.26406,290.37189c-0.6465,0.27974 -1.33189,0.41619 -2.04277,0.41619v-2.62905c0.36727,0 0.6959,-0.06887 0.99929,-0.20007zM106.22129,290.78805h-14.98111v-2.62905h14.98111zM91.24017,290.78805c-0.7109,0 -1.39813,-0.13644 -2.05039,-0.41119l1.02008,-2.42292c0.32338,0.13619 0.66305,0.20505 1.03032,0.20505zM89.17796,290.37189c-0.62414,-0.27001 -1.18043,-0.64543 -1.6592,-1.12419l1.859,-1.859c0.24003,0.24003 0.5182,0.42932 0.84367,0.57025zM87.51876,289.24771c-0.47902,-0.47877 -0.85443,-1.03505 -1.12443,-1.65947l2.41319,-1.04347c0.14066,0.32574 0.3302,0.6039 0.57025,0.84392zM86.38932,287.57667c-0.27447,-0.65227 -0.41092,-1.33949 -0.41092,-2.05066h2.62904c0,0.36727 0.06887,0.70721 0.20506,1.03033zM85.9784,285.52602v-19.71785h2.62904v19.71785zM118.25602,299.06799h-1.98492l0.77478,-1.82745l1.21014,0.51293zM123.75704,287.10424l0.22266,0.51635l-0.21951,0.5174l-1.21014,-0.51293zM113.29421,269.48698l-0.7916,-1.83532h1.9986v1.31451zM118.4871,267.65164h0.87022l0.33994,0.80107l-1.21014,0.51346zM125.68571,283.59418l-1.21014,2.852l-1.21014,-2.852l1.21014,-0.51346zM129.25411,268.45273l0.33993,-0.80107h0.87022v1.31452zM134.45017,267.65164h1.99861l-0.79161,1.83533l-1.207,-0.52081zM123.23702,298.27428l-0.34232,0.79372h-0.86442v-1.31452zM117.04585,297.24053l4.29402,-10.12867l2.42031,1.02613l-4.29402,10.12867zM121.34303,288.1456l-8.04882,-18.6586l2.41399,-1.04137l8.04882,18.65861zM114.50121,267.65164h3.98589v2.62905h-3.98589zM119.69725,268.45273l5.98846,14.11457l-2.42031,1.02691l-5.98846,-14.11459zM123.2654,282.56729l5.98872,-14.11457l2.42003,1.02691l-5.98846,14.11457zM130.46426,267.65164h3.98589v2.62905h-3.98589zM135.65714,269.48698l-12.42015,28.78729l-2.41373,-1.04165l12.41989,-28.78729zM122.03026,299.06799h-3.77426v-2.62906h3.77426zM153.33487,272.75962v-1.31453h1.31453v1.31453zM155.96392,289.47353v1.31452h-1.31452v-1.31452zM150.85595,290.78805h-1.31452v-1.31452h1.31452zM150.85595,271.44509h1.31453v1.31453h-1.31453zM140.85715,272.75962v-1.31453h1.31452v1.31453zM143.4862,289.47353v1.31452h-1.31451v-1.31452zM138.39741,290.78805h-1.31453v-1.31452h1.31453zM137.08289,268.96616v-1.31452h1.31451v1.31452zM142.17167,267.65164h1.31452v1.31452h-1.31452zM143.48435,272.65367l-2.6272,-0.06731h1.31452zM143.71388,271.72722l-0.00605,0.01315l-1.18963,-0.55971zM144.2389,270.97215l-0.00078,0.00079l-0.91123,-0.94778zM145.03865,270.46315l-0.02944,0.01262l-0.4885,-1.22066zM151.79268,270.4755l-0.02969,-0.01183l0.51792,-1.20859zM152.58165,270.98975l-0.01893,-0.01735l0.91201,-0.94724zM153.12693,271.76848l-0.01025,-0.02052l-0.00947,-0.02078l1.19543,-0.54657zM155.96209,272.65367l-2.62694,-0.03365l1.31427,-0.03365zM153.77394,270.65008l0.0071,-0.01604l1.19569,0.54657zM156.69717,270.97215l-0.00051,0.00079l-0.91123,-0.94778zM157.49718,270.46315l-0.02945,0.01262l-0.48848,-1.22066zM164.29144,270.48761l-0.02841,-0.01184l0.53397,-1.20149zM165.0791,271.02996l-0.01787,-0.01735l-0.01709,-0.01787l0.94672,-0.91174zM165.59861,271.8108l-0.01262,-0.02813l1.21384,-0.50583zM168.42245,289.47353v1.31452h-1.31453v-1.31452zM163.31447,290.78805h-1.31453v-1.31452h1.31453zM163.31447,271.44509h1.31452v1.31453h-1.31452zM155.96392,272.75962v16.71391h-2.62906v-16.71391zM154.6494,290.78805h-3.79345v-2.62905h3.79345zM149.54143,289.47353v-16.71391h2.62905v16.71391zM150.85595,274.07415h-8.68427v-2.62904h8.68427zM143.4862,272.75962v16.71391h-2.62905v-16.71391zM142.17167,290.78805h-3.77427v-2.62905h3.77427zM137.08289,289.47353v-20.50736h2.62905v20.50736zM138.39741,267.65164h3.77427v2.62905h-3.77427zM143.4862,268.96616v3.6202h-2.62905v-3.6202zM140.85874,272.51907c0.03418,-0.66461 0.18901,-1.30111 0.47006,-1.89818l2.37876,1.11945c-0.12961,0.2758 -0.20586,0.5763 -0.22321,0.91333zM141.32275,270.63403c0.26946,-0.58944 0.63228,-1.1134 1.09314,-1.55639l1.82221,1.89528c-0.2069,0.19875 -0.38305,0.4451 -0.52423,0.75425zM142.41513,269.07843c0.46953,-0.45218 1.01164,-0.8016 1.61738,-1.04399l0.97643,2.44106c-0.2926,0.11698 -0.54657,0.28132 -0.77004,0.49662zM144.00307,268.0468c0.62098,-0.26632 1.27956,-0.39516 1.96207,-0.39516v2.62905c-0.34467,0 -0.6491,0.06362 -0.92649,0.18246zM145.96514,267.65164h4.89082v2.62905h-4.89082zM150.85595,267.65164c0.67434,0 1.32584,0.13067 1.94286,0.39516l-1.03585,2.41635c-0.28157,-0.12068 -0.57997,-0.18246 -0.90702,-0.18246zM152.7691,268.03444c0.606,0.2424 1.14786,0.59179 1.61739,1.04399l-1.82351,1.89371c-0.22374,-0.21534 -0.47769,-0.37963 -0.77029,-0.49663zM154.36783,269.06082c0.47978,0.4443 0.85629,0.97328 1.13049,1.57322l-2.39112,1.09315c-0.13644,-0.29891 -0.31206,-0.53974 -0.52555,-0.73745zM155.4786,270.59276c0.30652,0.61336 0.46719,1.27167 0.4848,1.95969l-2.62827,0.06757c-0.00788,-0.31338 -0.07834,-0.59206 -0.20822,-0.85156zM153.33644,272.51907c0.03365,-0.65227 0.1772,-1.27876 0.43748,-1.869l2.40557,1.06109c-0.12488,0.28261 -0.19955,0.59339 -0.21744,0.94251zM153.7813,270.63403c0.26946,-0.58944 0.6323,-1.1134 1.09316,-1.55639l1.8222,1.89528c-0.2069,0.19875 -0.38305,0.4451 -0.52448,0.75425zM154.87365,269.07843c0.46953,-0.45218 1.01139,-0.8016 1.61738,-1.04399l0.97643,2.44106c-0.2926,0.11698 -0.54657,0.28132 -0.77029,0.49662zM156.4616,268.0468c0.62098,-0.26632 1.27956,-0.39516 1.9618,-0.39516v2.62905c-0.34467,0 -0.64885,0.06362 -0.92622,0.18246zM158.42341,267.65164h4.8911v2.62905h-4.8911zM163.31447,267.65164c0.70249,0 1.37946,0.13829 2.01647,0.42144l-1.06765,2.40242c-0.28736,-0.12778 -0.59891,-0.19481 -0.94883,-0.19481zM165.30282,268.06098c0.62125,0.2587 1.17125,0.62861 1.635,1.11023l-1.8937,1.82351c-0.20376,-0.21165 -0.44983,-0.38095 -0.75268,-0.50714zM166.90287,269.13627c0.48138,0.46351 0.85128,1.01351 1.11025,1.635l-2.42689,1.01113c-0.1262,-0.30287 -0.29551,-0.5487 -0.50713,-0.75243zM168.00102,270.74287c0.28314,0.63728 0.42144,1.31401 0.42144,2.01674h-2.62906c0,-0.3502 -0.06731,-0.66173 -0.1948,-0.94883zM168.42245,272.75962v16.71391h-2.62906v-16.71391zM167.10794,290.78805h-3.79345v-2.62905h3.79345zM161.99996,289.47353v-16.71391h2.62904v16.71391zM163.31447,274.07415h-8.66509v-2.62904h8.66509zM184.33661,261.86091v-1.31454h1.31452v1.31454zM205.77335,260.54639h1.31452v1.31453h-1.31452zM207.08786,265.80817v1.31451h-1.31453v-1.31451zM188.28386,265.80817v-1.31452h1.31453v1.31452zM189.59838,275.01771h-1.31453v-1.31452h1.31453zM203.40481,272.38866h1.31453v1.31452h-1.31453zM204.71935,277.65045v1.31453h-1.31453v-1.31453zM188.28386,277.65045v-1.31451h1.31453v1.31451zM189.59838,286.84054h-1.31453v-1.31452h1.31453zM205.77335,284.21151h1.31452v1.31451h-1.31452zM207.08786,289.47353v1.31452h-1.31453v-1.31452zM185.65113,290.78805h-1.31452v-1.31452h1.31452zM185.65113,260.54639h20.12221v2.62905h-20.1222zM207.08786,261.86091v3.94726h-2.62906v-3.94726zM205.77335,267.12268h-16.17495v-2.62905h16.17495zM190.9129,265.80817v7.89502h-2.62904v-7.89502zM189.59838,272.38866h13.80644v2.62905h-13.80644zM204.71935,273.70319v3.94726h-2.62906v-3.94726zM203.40481,278.96497h-13.80644v-2.62905h13.80644zM190.9129,277.65045v7.87557h-2.62904v-7.87557zM189.59838,284.21151h16.17495v2.62905h-16.17495zM207.08786,285.52602v3.94753h-2.62906v-3.94753zM205.77335,290.78805h-20.1222v-2.62905h20.12222zM184.33661,289.47353v-27.61263h2.62905v27.61263zM210.37523,270.77128l0.01184,-0.02841l1.20148,0.53397zM214.14422,270.4755l-0.02812,0.01261l-0.50585,-1.21384zM226.62221,270.48761l-0.0284,-0.01184l0.53397,-1.20149zM227.40987,271.02996l-0.01787,-0.01735l-0.01708,-0.01787l0.94672,-0.91174zM227.92939,271.8108l-0.01262,-0.02813l1.21384,-0.50583zM230.75296,297.75347v1.31452h-1.31451v-1.31452zM225.64526,299.06799h-1.31451v-1.31452h1.31451zM224.33099,285.81969l2.6288,0.03365h-1.31453zM224.10911,286.69937l0.01341,-0.02841l1.17598,0.58812zM225.38236,289.36127l-0.00052,0.00079l-0.91123,-0.9475zM213.10472,290.39817l-0.0284,-0.01182l0.53397,-1.20174zM211.48548,289.32288l-0.01789,-0.01735l-0.01708,-0.01787l0.94672,-0.91174zM210.38731,287.69683l-0.01261,-0.02812l1.21383,-0.50583zM226.95979,285.68008v1.31451h-1.31453v-1.31451zM225.64526,271.44509h1.31453v1.31453h-1.31453zM213.75934,272.75962v-1.31453h1.31451v1.31453zM215.07384,286.9946h-1.31451v-1.31452h1.31451zM209.98508,272.75962c0,-0.69092 0.12724,-1.35789 0.39015,-1.98834l2.42662,1.01114c-0.12225,0.29392 -0.1877,0.61545 -0.1877,0.97721zM210.38731,270.74287c0.26608,-0.59891 0.62466,-1.13365 1.08055,-1.58927l1.859,1.859c-0.2119,0.21165 -0.39255,0.47271 -0.53713,0.79819zM211.46786,269.15362c0.4706,-0.47087 1.01981,-0.83551 1.63684,-1.09263l1.01114,2.42662c-0.30706,0.12804 -0.56656,0.30233 -0.78898,0.52502zM213.07658,268.0731c0.63282,-0.28131 1.30269,-0.42143 1.99726,-0.42143v2.62905c-0.33257,0 -0.63807,0.06519 -0.92961,0.19482zM215.07384,267.65164h10.57141v2.62905h-10.57141zM225.64526,267.65164c0.70249,0 1.37948,0.13829 2.01649,0.42144l-1.06765,2.40242c-0.28736,-0.12778 -0.59891,-0.19481 -0.94883,-0.19481zM227.63334,268.06098c0.62152,0.2587 1.17152,0.62861 1.63527,1.11023l-1.8937,1.82351c-0.20376,-0.21165 -0.44982,-0.38095 -0.75269,-0.50714zM229.23364,269.13627c0.48138,0.46351 0.85128,1.01351 1.11025,1.635l-2.42688,1.01113c-0.1262,-0.30287 -0.29553,-0.5487 -0.50714,-0.75243zM230.33179,270.74287c0.28314,0.63728 0.42119,1.31401 0.42119,2.01674h-2.62905c0,-0.3502 -0.06703,-0.66173 -0.19454,-0.94883zM230.75296,272.75962v24.99384h-2.62905v-24.99384zM229.43845,299.06799h-3.7932v-2.62906h3.7932zM224.33073,297.75347v-11.90012h2.62905v11.90012zM226.95926,285.88726c-0.01761,0.68802 -0.17825,1.34634 -0.48479,1.9597l-2.35167,-1.17571c0.12989,-0.25947 0.20034,-0.53816 0.20822,-0.85156zM226.48788,287.81881c-0.27316,0.58102 -0.64333,1.09735 -1.10551,1.54246l-1.8235,-1.8937c0.23084,-0.22242 0.41302,-0.47611 0.55026,-0.76821zM225.38182,289.36206c-0.45455,0.43668 -0.98117,0.77924 -1.56796,1.03084l-1.03559,-2.41637c0.31153,-0.13382 0.56788,-0.30468 0.7811,-0.5095zM223.81386,290.39292c-0.61704,0.26448 -1.26851,0.39514 -1.94286,0.39514v-2.62905c0.32706,0 0.62546,-0.06178 0.90729,-0.18246zM221.871,290.78805h-6.79716v-2.62905h6.79716zM215.07384,290.78805c-0.6825,0 -1.34263,-0.12881 -1.96915,-0.38988l1.01114,-2.42689c0.29788,0.1241 0.61334,0.1877 0.95801,0.1877zM213.07658,290.3858c-0.59495,-0.26421 -1.12864,-0.61782 -1.5911,-1.06291l1.8235,-1.8937c0.23084,0.22215 0.50584,0.40775 0.83524,0.55419zM211.4505,289.28766c-0.44537,-0.46218 -0.79897,-0.99615 -1.06319,-1.59084l2.40242,-1.06791c0.14644,0.32967 0.33205,0.60441 0.55447,0.83525zM210.37523,287.66842c-0.26291,-0.63045 -0.39015,-1.29742 -0.39015,-1.98834h2.62905c0,0.36202 0.06547,0.6833 0.1877,0.97722zM209.98508,285.68008v-12.92045h2.62905v12.92045zM224.33073,285.68008v-12.92045h2.62905v12.92045zM225.64526,274.07415h-10.5714v-2.62904h10.5714zM216.38838,272.75962v12.92045h-2.62904v-12.92045zM215.07384,284.36556h10.57141v2.62905h-10.57141zM234.43996,268.96616v-1.31452h1.31452v1.31452zM239.52848,267.65164h1.31452v1.31452h-1.31452zM239.52848,286.9946h-1.31452v-1.31452h1.31452zM251.4144,285.68008v1.31451h-1.31452v-1.31451zM248.78535,268.96616v-1.31452h1.31453v1.31452zM253.89333,267.65164h1.31453v1.31452h-1.31453zM255.20786,289.47353v1.31452h-1.31453v-1.31452zM250.09987,290.78805h-1.31454v-1.31452h1.31454zM248.78982,285.9012l2.62459,0.10621h-1.31451zM249.76073,289.43675l-0.00159,0.0013l-0.89152,-0.96591zM237.55959,290.39817l-0.02841,-0.01182l0.53397,-1.20174zM235.94008,289.32288l-0.01762,-0.01735l-0.01735,-0.01787l0.94697,-0.91174zM234.84193,287.69683l-0.01235,-0.02812l1.21384,-0.50583zM235.75448,267.65164h3.77401v2.62905h-3.77401zM240.843,268.96616v16.71391h-2.62905v-16.71391zM239.52848,284.36556h10.5714v2.62905h-10.5714zM248.78535,285.68008v-16.71391h2.62905v16.71391zM250.09987,267.65164h3.79344v2.62905h-3.79344zM255.20786,268.96616v20.50736h-2.62904v-20.50736zM253.89333,290.78805h-3.79345v-2.62905h3.79345zM248.78535,289.47353v-3.46614h2.62905v3.46614zM251.41019,286.11361c-0.05258,0.64806 -0.229,1.2659 -0.52684,1.84375l-2.33697,-1.20384c0.13856,-0.26947 0.219,-0.55026 0.24346,-0.85233zM250.88333,287.95737c-0.28762,0.55842 -0.66278,1.05374 -1.1226,1.47938l-1.78617,-1.92894c0.23321,-0.21612 0.423,-0.4656 0.57182,-0.75425zM249.75915,289.43805c-0.45272,0.41802 -0.97143,0.7448 -1.54641,0.98143l-1.00088,-2.43108c0.29788,-0.12278 0.54946,-0.28394 0.76401,-0.48218zM248.21275,290.41947c-0.60048,0.24739 -1.23328,0.36859 -1.88687,0.36859v-2.62904c0.32205,0 0.61362,-0.05837 0.88598,-0.17063zM246.32589,290.78805h-6.79741v-2.62905h6.79741zM239.52848,290.78805c-0.68248,0 -1.34238,-0.12881 -1.96889,-0.38988l1.01113,-2.42689c0.29788,0.1241 0.61336,0.1877 0.95776,0.1877zM237.53118,290.3858c-0.59468,-0.26421 -1.12864,-0.61782 -1.5911,-1.06291l1.82375,-1.8937c0.23084,0.22215 0.50556,0.40775 0.83525,0.55419zM235.90511,289.28766c-0.4451,-0.46218 -0.79871,-0.99615 -1.06319,-1.59084l2.40269,-1.06791c0.14644,0.32967 0.33205,0.60441 0.55419,0.83525zM234.82984,287.66842c-0.26264,-0.63045 -0.38988,-1.29742 -0.38988,-1.98834h2.62905c0,0.36202 0.06521,0.6833 0.18772,0.97722zM234.43996,285.68008v-16.71391h2.62905v16.71391zM264.19526,267.65164h1.31452v1.31452h-1.31452zM265.50978,289.47353v1.31452h-1.31452v-1.31452zM260.4018,290.78805h-1.31451v-1.31452h1.31451zM259.08727,268.96616v-1.31452h1.31453v1.31452zM258.89456,261.07139v-1.31451h1.31453v1.31451zM264.3877,259.75688h1.31452v1.31451h-1.31452zM265.70222,265.01868v1.31452h-1.31452v-1.31452zM260.2091,266.33318h-1.31453v-1.31452h1.31453zM265.50978,268.96616v20.50736h-2.62905v-20.50736zM264.19526,290.78805h-3.79345v-2.62905h3.79345zM259.08727,289.47353v-20.50736h2.62905v20.50736zM260.4018,267.65164h3.79345v2.62905h-3.79345zM260.2091,259.75688h4.1786v2.62905h-4.1786zM265.70222,261.07139v3.94726h-2.62905v-3.94726zM264.3877,266.33318h-4.1786v-2.62905h4.1786zM258.89456,265.01868v-3.94726h2.62905v3.94726zM287.34008,286.65731l0.01316,-0.02841l1.20148,0.53397zM286.81426,287.44654l0.93069,0.92937zM287.08507,290.3858l-0.02891,0.01262l-0.50477,-1.21385zM273.18238,289.47353v-1.31451h1.31454v1.31451zM275.81145,297.75347v1.31452h-1.31452v-1.31452zM270.72292,299.06799h-1.31453v-1.31452h1.31453zM269.40839,268.96616v-1.31452h1.31453v1.31452zM274.49692,267.65164h1.31451v1.31452h-1.31451zM275.80749,272.53562l-2.62511,-0.10332h1.31454zM276.05068,271.68619l-0.00762,0.015l-1.16099,-0.61677zM276.62117,270.9343l-0.01918,0.01867l-0.89204,-0.96618zM276.36487,268.02025l0.01236,-0.00499l0.48822,1.2204zM286.04659,270.48761l-0.02891,-0.01184l0.5337,-1.20149zM286.83268,271.02996l-0.0184,-0.01735l-0.01576,-0.01787l0.94645,-0.91174zM287.35323,271.8108l-0.01316,-0.02813l1.21463,-0.50583zM286.3831,285.68008v1.31451h-1.31453v-1.31451zM285.06857,271.44509h1.31453v1.31453h-1.31453zM273.18238,272.75962v-1.31453h1.31454v1.31453zM274.49692,286.9946h-1.31454v-1.31452h1.31454zM290.17684,285.68008c0,0.70274 -0.13935,1.37945 -0.42065,2.01673l-2.40294,-1.06791c0.1262,-0.28709 0.19455,-0.59861 0.19455,-0.94882zM289.76668,287.66842c-0.25764,0.61704 -0.62046,1.16651 -1.09105,1.63711l-1.86136,-1.859c0.22347,-0.22268 0.39698,-0.48217 0.52581,-0.78922zM288.67563,289.30555c-0.45746,0.45562 -0.99114,0.81421 -1.59056,1.08028l-1.06739,-2.40242c0.32601,-0.14458 0.58628,-0.32522 0.79661,-0.53685zM287.05615,290.39817c-0.63099,0.26264 -1.29612,0.38988 -1.98755,0.38988v-2.62905c0.3628,0 0.68356,-0.06521 0.978,-0.18772zM285.06857,290.78805h-10.57167v-2.62905h10.57167zM275.81145,289.47353v8.27992h-2.62905v-8.27992zM274.49692,299.06799h-3.77401v-2.62906h3.77401zM269.40839,297.75347v-28.7873h2.62905v28.7873zM270.72292,267.65164h3.77401v2.62905h-3.77401zM275.81145,268.96616v3.46614h-2.62905v-3.46614zM273.18659,272.32871c0.05179,-0.65779 0.22742,-1.28297 0.53447,-1.8611l2.32198,1.23328c-0.12961,0.24372 -0.21058,0.51686 -0.23556,0.83473zM273.71348,270.48235c0.28524,-0.55342 0.65279,-1.04427 1.10497,-1.46149l1.7833,1.93184c-0.21558,0.19875 -0.39962,0.43984 -0.55105,0.73352zM274.799,269.03926c0.45482,-0.43747 0.98011,-0.77768 1.56586,-1.01903l1.00114,2.43107c-0.28709,0.11806 -0.53211,0.27867 -0.7448,0.48296zM276.37721,268.01526c0.60993,-0.24397 1.25116,-0.36362 1.91369,-0.36362v2.62905c-0.33914,0 -0.64858,0.0602 -0.93724,0.17561zM278.2909,267.65164h6.77769v2.62905h-6.77769zM285.06857,267.65164c0.70194,0 1.38025,0.13829 2.01648,0.42144l-1.06739,2.40242c-0.28655,-0.12778 -0.59943,-0.19481 -0.94909,-0.19481zM287.05615,268.06098c0.62309,0.2587 1.17255,0.62861 1.63527,1.11023l-1.89292,1.82351c-0.20507,-0.21165 -0.44956,-0.38095 -0.7519,-0.50714zM288.65724,269.13627c0.48112,0.46351 0.8518,1.01351 1.10944,1.635l-2.4266,1.01113c-0.1262,-0.30287 -0.29445,-0.5487 -0.5074,-0.75243zM289.75617,270.74287c0.28131,0.63728 0.42065,1.31401 0.42065,2.01674h-2.62905c0,-0.3502 -0.06835,-0.66173 -0.19454,-0.94883zM290.17684,272.75962v12.92045h-2.62905v-12.92045zM283.75405,285.68008v-12.92045h2.62905v12.92045zM285.06857,274.07415h-10.57167v-2.62904h10.57167zM275.81145,272.75962v12.92045h-2.62905v-12.92045zM274.49692,284.36556h10.57168v2.62905h-10.57168zM310.11551,272.75962v-1.31453h1.31453v1.31453zM312.74456,289.47353v1.31452h-1.31453v-1.31452zM307.63634,290.78805h-1.31453v-1.31452h1.31453zM307.63634,271.44509h1.31452v1.31453h-1.31452zM297.63807,272.75962v-1.31453h1.31453v1.31453zM300.2671,289.47353v1.31452h-1.31451v-1.31452zM295.17727,290.78805h-1.31452v-1.31452h1.31452zM293.86274,268.96616v-1.31452h1.31451v1.31452zM298.95257,267.65164h1.31451v1.31452h-1.31451zM300.26448,272.65367l-2.62642,-0.06731h1.31454zM300.49319,271.72722l-0.00526,0.01315l-1.18833,-0.55971zM301.01901,270.97215v0.00079l-0.91228,-0.94778zM301.81825,270.46315l-0.02891,0.01262l-0.48902,-1.22066zM308.57226,270.4755l-0.02892,-0.01183l0.51793,-1.20859zM309.36098,270.98975l-0.0184,-0.01735l0.91228,-0.94724zM309.90782,271.76848l-0.01052,-0.02052l-0.01051,-0.02078l1.19621,-0.54657zM312.74193,272.65367l-2.62642,-0.03365l1.31452,-0.03365zM310.55457,270.65008l0.0079,-0.01604l1.19359,0.54657zM313.47807,270.97215l-0.00262,0.00079l-0.90964,-0.94778zM314.27731,270.46315l-0.02891,0.01262l-0.48902,-1.22066zM321.07077,270.48761l-0.02627,-0.01184l0.5337,-1.20149zM321.85948,271.02996l-0.0184,-0.01735l-0.01577,-0.01787l0.94646,-0.91174zM322.3774,271.8108l-0.01052,-0.02813l1.21199,-0.50583zM325.20363,289.47353v1.31452h-1.31453v-1.31452zM320.09536,290.78805h-1.31451v-1.31452h1.31451zM320.09536,271.44509h1.31454v1.31453h-1.31454zM312.74456,272.75962v16.71391h-2.62905v-16.71391zM311.43004,290.78805h-3.79371v-2.62905h3.79371zM306.3218,289.47353v-16.71391h2.62904v16.71391zM307.63634,274.07415h-8.68373v-2.62904h8.68373zM300.2671,272.75962v16.71391h-2.62905v-16.71391zM298.95257,290.78805h-3.77532v-2.62905h3.77532zM293.86274,289.47353v-20.50736h2.62904v20.50736zM295.17727,267.65164h3.77532v2.62905h-3.77532zM300.2671,268.96616v3.6202h-2.62905v-3.6202zM297.63807,272.51907c0.03418,-0.66461 0.18928,-1.30111 0.4706,-1.89818l2.3793,1.11945c-0.12881,0.2758 -0.20505,0.5763 -0.22347,0.91333zM298.10339,270.63403c0.26817,-0.58944 0.63097,-1.1134 1.09369,-1.55639l1.82193,1.89528c-0.20771,0.19875 -0.38383,0.4451 -0.5258,0.75425zM299.19446,269.07843c0.4706,-0.45218 1.01218,-0.8016 1.6195,-1.04399l0.97538,2.44106c-0.29182,0.11698 -0.54683,0.28132 -0.77029,0.49662zM300.7824,268.0468c0.62309,-0.26632 1.28034,-0.39516 1.9639,-0.39516v2.62905c-0.34702,0 -0.64936,0.06362 -0.92804,0.18246zM302.7463,267.65164h4.89003v2.62905h-4.89003zM307.63634,267.65164c0.67303,0 1.32504,0.13067 1.94287,0.39516l-1.03585,2.41635c-0.28131,-0.12068 -0.58101,-0.18246 -0.90701,-0.18246zM309.55027,268.03444c0.60466,0.2424 1.14628,0.59179 1.61687,1.04399l-1.82456,1.89371c-0.22347,-0.21534 -0.47585,-0.37963 -0.77029,-0.49663zM311.14873,269.06082c0.4785,0.4443 0.85444,0.97328 1.13049,1.57322l-2.39244,1.09315c-0.13671,-0.29891 -0.31286,-0.53974 -0.52581,-0.73745zM312.2582,270.59276c0.3076,0.61336 0.46796,1.27167 0.48639,1.95969l-2.62905,0.06757c-0.0079,-0.31338 -0.07887,-0.59206 -0.20771,-0.85156zM310.11551,272.51907c0.03418,-0.65227 0.17878,-1.27876 0.43903,-1.869l2.40557,1.06109c-0.1262,0.28261 -0.19981,0.59339 -0.21821,0.94251zM310.56247,270.63403c0.26817,-0.58944 0.63097,-1.1134 1.09105,-1.55639l1.82193,1.89528c-0.20507,0.19875 -0.38121,0.4451 -0.52318,0.75425zM311.65351,269.07843c0.4706,-0.45218 1.01218,-0.8016 1.61686,-1.04399l0.97801,2.44106c-0.29445,0.11698 -0.54683,0.28132 -0.7703,0.49662zM313.24146,268.0468c0.62046,-0.26632 1.28035,-0.39516 1.96128,-0.39516v2.62905c-0.34441,0 -0.64936,0.06362 -0.92543,0.18246zM315.20272,267.65164h4.89265v2.62905h-4.89265zM320.09536,267.65164c0.70194,0 1.37762,0.13829 2.01649,0.42144l-1.06739,2.40242c-0.28918,-0.12778 -0.59944,-0.19481 -0.9491,-0.19481zM322.08295,268.06098c0.62046,0.2587 1.17255,0.62861 1.63527,1.11023l-1.89292,1.82351c-0.20507,-0.21165 -0.44957,-0.38095 -0.75453,-0.50714zM323.68405,269.13627c0.48112,0.46351 0.84918,1.01351 1.10945,1.635l-2.42661,1.01113c-0.1262,-0.30287 -0.29707,-0.5487 -0.5074,-0.75243zM324.78034,270.74287c0.28393,0.63728 0.42328,1.31401 0.42328,2.01674h-2.62905c0,-0.3502 -0.06837,-0.66173 -0.19717,-0.94883zM325.20363,272.75962v16.71391h-2.62904v-16.71391zM323.8891,290.78805h-3.79371v-2.62905h3.79371zM318.78086,289.47353v-16.71391h2.62904v16.71391zM320.09536,274.07415h-8.66533v-2.62904h8.66533zM348.88609,281.15496v1.31453h-1.31452v-1.31453zM332.68327,281.15496v-1.31452h1.31453v1.31452zM333.9978,286.9946h-1.31453v-1.31452h1.31453zM347.57157,284.36556h1.31452v1.31452h-1.31452zM348.88609,289.47353v1.31452h-1.31452v-1.31452zM332.02864,290.39817l-0.02892,-0.01182l0.5337,-1.20174zM330.40912,289.32288l-0.0184,-0.01735l-0.01576,-0.01787l0.94647,-0.91174zM329.31019,287.69683l-0.01316,-0.02812l1.21463,-0.50583zM329.29969,270.77128l0.01051,-0.02841l1.20149,0.53397zM333.06711,270.4755l-0.02891,0.01261l-0.50477,-1.21384zM344.75585,270.48761l-0.02892,-0.01184l0.53371,-1.20149zM345.54458,271.02996l-0.0184,-0.01735l-0.0184,-0.01787l0.94908,-0.91174zM346.06249,271.8108l-0.01314,-0.02813l1.21462,-0.50583zM332.68327,272.75962v-1.31453h1.31453v1.31453zM333.9978,278.67629h-1.31453v-1.31452h1.31453zM345.09238,277.36179v1.31452h-1.31451v-1.31452zM343.77785,271.44509h1.31453v1.31453h-1.31453zM347.57157,282.46949h-13.57378v-2.62905h13.57378zM335.31232,281.15496v4.52511h-2.62905v-4.52511zM333.9978,284.36556h13.57378v2.62905h-13.57378zM348.88609,285.68008v3.79345h-2.62905v-3.79345zM347.57157,290.78805h-13.57378v-2.62905h13.57378zM333.9978,290.78805c-0.68356,0 -1.34344,-0.12881 -1.96916,-0.38988l1.00954,-2.42689c0.29971,0.1241 0.61521,0.1877 0.95961,0.1877zM331.99972,290.3858c-0.59416,-0.26421 -1.12787,-0.61782 -1.59058,-1.06291l1.82457,-1.8937c0.22872,0.22215 0.50477,0.40775 0.83341,0.55419zM330.37497,289.28766c-0.44692,-0.46218 -0.79922,-0.99615 -1.06477,-1.59084l2.40295,-1.06791c0.14724,0.32967 0.33126,0.60441 0.55473,0.83525zM329.29969,287.66842c-0.26291,-0.63045 -0.39172,-1.29742 -0.39172,-1.98834h2.62906c0,0.36202 0.06574,0.6833 0.18929,0.97722zM328.90795,285.68008v-12.92045h2.62905v12.92045zM328.90795,272.75962c0,-0.69092 0.12881,-1.35789 0.39172,-1.98834l2.42661,1.01114c-0.12357,0.29392 -0.18929,0.61545 -0.18929,0.97721zM329.31019,270.74287c0.26554,-0.59891 0.6257,-1.13365 1.08054,-1.58927l1.85874,1.859c-0.21033,0.21165 -0.39172,0.47271 -0.53632,0.79819zM330.39073,269.15362c0.4706,-0.47087 1.02008,-0.83551 1.6379,-1.09263l1.00955,2.42662c-0.30497,0.12804 -0.56525,0.30233 -0.78872,0.52502zM331.99972,268.0731c0.6336,-0.28131 1.30402,-0.42143 1.99808,-0.42143v2.62905c-0.33388,0 -0.63886,0.06519 -0.93069,0.19482zM333.9978,267.65164h9.78005v2.62905h-9.78005zM343.77785,267.65164c0.70459,0 1.38024,0.13829 2.01647,0.42144l-1.06739,2.40242c-0.28655,-0.12778 -0.59678,-0.19481 -0.94908,-0.19481zM345.76804,268.06098c0.62046,0.2587 1.16992,0.62861 1.63527,1.11023l-1.89553,1.82351c-0.20244,-0.21165 -0.44955,-0.38095 -0.7519,-0.50714zM347.3665,269.13627c0.48374,0.46351 0.85179,1.01351 1.11208,1.635l-2.42662,1.01113c-0.1262,-0.30287 -0.29707,-0.5487 -0.50738,-0.75243zM348.46544,270.74287c0.28393,0.63728 0.42065,1.31401 0.42065,2.01674h-2.62905c0,-0.3502 -0.06575,-0.66173 -0.19455,-0.94883zM348.88609,272.75962v8.39534h-2.62905v-8.39534zM335.31232,272.75962v4.60215h-2.62905v-4.60215zM333.9978,276.04726h9.78005v2.62905h-9.78005zM342.46333,277.36179v-4.60215h2.62905v4.60215zM343.77785,274.07415h-9.78005v-2.62904h9.78005zM373.35991,289.47353v1.31452h-1.31452v-1.31452zM368.25429,290.78805h-1.31454v-1.31452h1.31454zM368.25429,271.44509h1.31451v1.31453h-1.31451zM356.36836,272.75962v-1.31453h1.31453v1.31453zM358.99741,289.47353v1.31452h-1.31452v-1.31452zM353.90758,290.78805h-1.31454v-1.31452h1.31454zM352.59305,268.96616v-1.31452h1.31452v1.31452zM357.68288,267.65164h1.31452v1.31452h-1.31452zM358.99478,272.65367l-2.62642,-0.06731h1.31453zM359.2235,271.72722l-0.00527,0.01315l-1.19096,-0.55971zM359.74931,270.97215v0.00079l-0.91228,-0.94778zM360.54855,270.46315l-0.02891,0.01262l-0.48902,-1.22066zM369.22966,270.48761l-0.02891,-0.01184l0.53632,-1.20149zM370.01838,271.02996l-0.0184,-0.01735l-0.0184,-0.01787l0.94909,-0.91174zM370.53631,271.8108l-0.01052,-0.02813l1.21199,-0.50583zM372.04538,290.78805h-3.79107v-2.62905h3.79107zM366.93975,289.47353v-16.71391h2.62905v16.71391zM368.25429,274.07415h-10.57141v-2.62904h10.57141zM358.99741,272.75962v16.71391h-2.62906v-16.71391zM357.68288,290.78805h-3.77531v-2.62905h3.77531zM352.59305,289.47353v-20.50736h2.62905v20.50736zM353.90758,267.65164h3.77531v2.62905h-3.77531zM358.99741,268.96616v3.6202h-2.62906v-3.6202zM356.36836,272.51907c0.03418,-0.66461 0.18928,-1.30111 0.4706,-1.89818l2.3793,1.11945c-0.13144,0.2758 -0.20771,0.5763 -0.22347,0.91333zM356.8337,270.63403c0.26817,-0.58944 0.63097,-1.1134 1.09105,-1.55639l1.82457,1.89528c-0.20771,0.19875 -0.38384,0.4451 -0.52581,0.75425zM357.92476,269.07843c0.4706,-0.45218 1.01218,-0.8016 1.61687,-1.04399l0.97801,2.44106c-0.29445,0.11698 -0.54683,0.28132 -0.7703,0.49662zM359.51271,268.0468c0.62046,-0.26632 1.28033,-0.39516 1.96126,-0.39516v2.62905c-0.34441,0 -0.64674,0.06362 -0.92543,0.18246zM361.47398,267.65164h6.78031v2.62905h-6.78031zM368.25429,267.65164c0.70194,0 1.37761,0.13829 2.01648,0.42144l-1.07001,2.40242c-0.28655,-0.12778 -0.59679,-0.19481 -0.94647,-0.19481zM370.24185,268.06098c0.62046,0.2587 1.16992,0.62861 1.63526,1.11023l-1.89552,1.82351c-0.20244,-0.21165 -0.44956,-0.38095 -0.7519,-0.50714zM371.8403,269.13627c0.48374,0.46351 0.85181,1.01351 1.11208,1.635l-2.42662,1.01113c-0.1262,-0.30287 -0.29707,-0.5487 -0.5074,-0.75243zM372.93926,270.74287c0.28393,0.63728 0.42065,1.31401 0.42065,2.01674h-2.62905c0,-0.3502 -0.06575,-0.66173 -0.19455,-0.94883zM373.35991,272.75962v16.71391h-2.62905v-16.71391zM375.85487,268.96616v-1.31452h1.31451v1.31452zM383.48961,268.96616v1.31453h-1.31452v-1.31453zM380.86058,262.65041v-1.31454h1.31453v1.31454zM385.96881,261.33589h1.31453v1.31453h-1.31453zM385.96881,270.2807h-1.31452v-1.31453h1.31452zM392.70707,267.65164h1.31453v1.31452h-1.31453zM394.02158,272.75962v1.31452h-1.31451v-1.31452zM384.65427,272.75962v-1.31453h1.31452v1.31453zM385.96881,286.9946h-1.31452v-1.31452h1.31452zM392.70707,284.36556h1.31453v1.31452h-1.31453zM394.02158,289.47353v1.31452h-1.31451v-1.31452zM383.99965,290.39817l-0.02891,-0.01182l0.5337,-1.20174zM382.38018,289.32288l-0.0184,-0.01735l0.93069,-0.92961zM381.26281,287.69683l-0.01315,-0.02812l1.21462,-0.50583zM382.17509,271.44509h1.31451v1.31453h-1.31451zM377.16938,274.07415h-1.31451v-1.31451h1.31451zM377.16938,267.65164h5.00573v2.62905h-5.00573zM380.86058,268.96616v-6.31577h2.62904v6.31577zM382.17509,261.33589h3.79371v2.62905h-3.79371zM387.28334,262.65041v6.31576h-2.62905v-6.31576zM385.96881,267.65164h6.73824v2.62905h-6.73824zM394.02158,268.96616v3.79345h-2.62905v-3.79345zM392.70707,274.07415h-6.73825v-2.62904h6.73825zM387.28334,272.75962v12.92045h-2.62905v-12.92045zM385.96881,284.36556h6.73824v2.62905h-6.73824zM394.02158,285.68008v3.79345h-2.62905v-3.79345zM392.70707,290.78805h-6.73825v-2.62905h6.73825zM385.96881,290.78805c-0.68356,0 -1.34344,-0.12881 -1.96916,-0.38988l1.00954,-2.42689c0.29971,0.1241 0.61519,0.1877 0.9596,0.1877zM383.97073,290.3858c-0.59416,-0.26421 -1.12786,-0.61782 -1.59057,-1.06291l1.82456,-1.8937c0.22872,0.22215 0.50478,0.40775 0.83343,0.55419zM382.36176,289.30555c-0.46272,-0.46428 -0.8308,-1.00406 -1.09895,-1.60872l2.40294,-1.06791c0.14197,0.31942 0.32602,0.58864 0.55473,0.81764zM381.24967,287.66842c-0.26291,-0.63045 -0.3891,-1.29742 -0.3891,-1.98834h2.62905c0,0.36202 0.06572,0.6833 0.18666,0.97722zM380.86058,285.68008v-12.92045h2.62904v12.92045zM382.17509,274.07415h-5.00573v-2.62904h5.00573zM375.85487,272.75962v-3.79345h2.62905v3.79345z"/></g></g></g></svg>