<svg version="1.1" xmlns="http://www.w3.org/2000/svg" xmlns:xlink="http://www.w3.org/1999/xlink" width="4.7041" height="5.7002" viewBox="0,0,4.7041,5.7002"><g transform="translate(-237.64795,-174.5498)"><g data-paper-data="{&quot;isPaintingLayer&quot;:true}" fill="#ffffff" fill-rule="nonzero" stroke="#ffffff" stroke-width="0.5" stroke-linecap="butt" stroke-linejoin="miter" stroke-miterlimit="10" stroke-dasharray="" stroke-dashoffset="0" style="mix-blend-mode: normal"><path d="M241.14014,179.03808v-1.20606h-2.28027c-0.13347,0 -0.25879,-0.02441 -0.37598,-0.07324c-0.11719,-0.05208 -0.21973,-0.12044 -0.30762,-0.20508c-0.08463,-0.08789 -0.15299,-0.19043 -0.20508,-0.30762c-0.04883,-0.11718 -0.07324,-0.24251 -0.07324,-0.37597v-1.1084c0,-0.13346 0.02441,-0.25879 0.07324,-0.37598c0.05208,-0.11719 0.12044,-0.2181 0.20508,-0.30273c0.08789,-0.08789 0.19043,-0.15625 0.30762,-0.20508c0.11719,-0.05208 0.24251,-0.07812 0.37598,-0.07812h3.04199v0.96192h-3.04199v1.1084h2.28027c0.13346,0 0.25716,0.02604 0.37109,0.07812c0.11719,0.04883 0.21973,0.11719 0.30762,0.20508c0.08789,0.08464 0.15625,0.18555 0.20508,0.30273c0.05208,0.11719 0.07812,0.24252 0.07812,0.37598v1.20606c0,0.13346 -0.02604,0.25879 -0.07812,0.37597c-0.04883,0.11719 -0.11719,0.21973 -0.20508,0.30762c-0.08789,0.08464 -0.19043,0.15299 -0.30762,0.20508c-0.11393,0.04883 -0.23763,0.07324 -0.37109,0.07324h-3.24219v-0.96191z"/></g></g></svg>