<svg version="1.1" xmlns="http://www.w3.org/2000/svg" xmlns:xlink="http://www.w3.org/1999/xlink" width="69.75" height="15.25" viewBox="0,0,69.75,15.25"><g transform="translate(-204.95656,-172.6936)"><g data-paper-data="{&quot;isPaintingLayer&quot;:true}" fill-rule="nonzero" stroke-linecap="butt" stroke-linejoin="miter" stroke-miterlimit="10" stroke-dasharray="" stroke-dashoffset="0" style="mix-blend-mode: normal"><path d="M204.95656,187.9436v-15.25h69.75v15.25z" fill="#c255ff" stroke="#898989" stroke-width="0"/><path d="M208.96924,181.10254c-0.17774,0 -0.34701,-0.03386 -0.50781,-0.10156c-0.15658,-0.07194 -0.29411,-0.16504 -0.4126,-0.2793c-0.11849,-0.11849 -0.21159,-0.25602 -0.2793,-0.4126c-0.06771,-0.16081 -0.10156,-0.33008 -0.10156,-0.50781v-2.60254c0,-0.17773 0.03385,-0.34489 0.10156,-0.50146c0.06771,-0.16081 0.16081,-0.29834 0.2793,-0.4126c0.11849,-0.11849 0.25602,-0.21159 0.4126,-0.2793c0.1608,-0.07194 0.33007,-0.10791 0.50781,-0.10791h4.41797c0.17773,0 0.34489,0.03597 0.50146,0.10791c0.16081,0.06771 0.30046,0.16081 0.41895,0.2793c0.11849,0.11426 0.21159,0.25179 0.27929,0.4126c0.06771,0.15657 0.10157,0.32373 0.10157,0.50146v1.17432h-1.30127v-1.17432h-4.41797v2.60254h4.41797c0.17773,0 0.34489,0.03385 0.50146,0.10156c0.16081,0.06771 0.30046,0.16081 0.41895,0.2793c0.11849,0.11849 0.21159,0.25814 0.27929,0.41894c0.06771,0.15658 0.10157,0.32373 0.10157,0.50147v2.59619c0,0.17773 -0.03386,0.34701 -0.10157,0.50781c-0.0677,0.15658 -0.1608,0.29411 -0.27929,0.4126c-0.11849,0.11849 -0.25814,0.21159 -0.41895,0.2793c-0.15657,0.06771 -0.32373,0.10156 -0.50146,0.10156h-4.54492c-0.17774,0 -0.34701,-0.03385 -0.50782,-0.10156c-0.15658,-0.06771 -0.29411,-0.16081 -0.4126,-0.2793c-0.11849,-0.11849 -0.21159,-0.25602 -0.2793,-0.4126c-0.06771,-0.1608 -0.10156,-0.33008 -0.10156,-0.50781v-1.16797h1.30127v1.16797h4.54492v-2.59619zM222.8896,185h-1.2504v-5.50977h-3.4849v5.50977h-1.24414v-9.36279h1.24414v3.7959c0.0085,-0.16504 0.0465,-0.3195 0.1143,-0.46338c0.0677,-0.14812 0.1565,-0.27507 0.2666,-0.38086c0.1142,-0.11003 0.2454,-0.19466 0.3935,-0.25391c0.1481,-0.06348 0.3068,-0.09521 0.4761,-0.09521h2.2344c0.1735,0 0.3364,0.03385 0.4887,0.10156c0.1524,0.06348 0.2836,0.15234 0.3936,0.2666c0.1142,0.11003 0.2031,0.24121 0.2666,0.39355c0.0677,0.15235 0.1015,0.31527 0.1015,0.48877zM230.8179,183.74951c0,0.1735 -0.0339,0.33643 -0.1016,0.48877c-0.0635,0.15234 -0.1523,0.28565 -0.2666,0.3999c-0.11,0.11003 -0.2412,0.1989 -0.3935,0.26661c-0.1482,0.06347 -0.309,0.09521 -0.4825,0.09521h-3.3579c-0.1693,0 -0.3301,-0.03174 -0.4824,-0.09521c-0.1523,-0.06771 -0.2856,-0.15658 -0.3999,-0.26661c-0.11,-0.11425 -0.1989,-0.24756 -0.2666,-0.3999c-0.0635,-0.15234 -0.0952,-0.31527 -0.0952,-0.48877v-4.25928c0,-0.1735 0.0317,-0.33642 0.0952,-0.48877c0.0677,-0.15234 0.1566,-0.28352 0.2666,-0.39355c0.1143,-0.11426 0.2476,-0.20312 0.3999,-0.2666c0.1523,-0.06771 0.3131,-0.10156 0.4824,-0.10156h3.3579c0.1735,0 0.3343,0.03385 0.4825,0.10156c0.1523,0.06348 0.2835,0.15234 0.3935,0.2666c0.1143,0.11003 0.2031,0.24121 0.2666,0.39355c0.0677,0.15235 0.1016,0.31527 0.1016,0.48877zM226.2158,179.49023v4.25928h3.3579v-4.25928zM232.9062,178.23975h1.2442v5.50976h3.4849v-5.50976h1.2504v6.76025h-1.2504v-1.14258c-0.0127,0.15658 -0.0551,0.30469 -0.127,0.44434c-0.0719,0.13965 -0.165,0.26237 -0.2793,0.36816c-0.11,0.10156 -0.237,0.18197 -0.3809,0.24121c-0.1438,0.05925 -0.2962,0.08887 -0.457,0.08887h-2.2407c-0.1693,0 -0.3301,-0.03174 -0.4824,-0.09521c-0.1524,-0.06771 -0.2857,-0.15658 -0.3999,-0.26661c-0.1101,-0.11425 -0.1989,-0.24756 -0.2666,-0.3999c-0.0635,-0.15234 -0.0953,-0.31527 -0.0953,-0.48877zM242.2119,175.63721v9.36279h-1.2441v-9.36279zM244.2939,179.49023c0,-0.1735 0.0318,-0.33642 0.0953,-0.48877c0.0677,-0.15234 0.1565,-0.28352 0.2666,-0.39355c0.1142,-0.11426 0.2475,-0.20312 0.3999,-0.2666c0.1523,-0.06771 0.3131,-0.10156 0.4824,-0.10156h3.4848v-2.60254h1.2505v9.36279h-1.2505v-1.14258c-0.0126,0.15658 -0.055,0.30469 -0.1269,0.44434c-0.0719,0.13965 -0.165,0.26237 -0.2793,0.36816c-0.11,0.10156 -0.237,0.18197 -0.3809,0.24121c-0.1438,0.05925 -0.2962,0.08887 -0.457,0.08887h-2.2407c-0.1693,0 -0.3301,-0.03174 -0.4824,-0.09521c-0.1524,-0.06771 -0.2857,-0.15658 -0.3999,-0.26661c-0.1101,-0.11425 -0.1989,-0.24756 -0.2666,-0.3999c-0.0635,-0.15234 -0.0953,-0.31527 -0.0953,-0.48877zM245.5381,183.74951h3.4848v-4.25928h-3.4848zM258.0747,182.25781h-4.4751v1.4917h4.4751v1.25049h-4.4751c-0.1693,0 -0.3301,-0.03174 -0.4824,-0.09521c-0.1524,-0.06771 -0.2857,-0.15658 -0.3999,-0.26661c-0.11,-0.11425 -0.1989,-0.24756 -0.2666,-0.3999c-0.0635,-0.15234 -0.0952,-0.31527 -0.0952,-0.48877v-4.25928c0,-0.1735 0.0317,-0.33642 0.0952,-0.48877c0.0677,-0.15234 0.1566,-0.28352 0.2666,-0.39355c0.1142,-0.11426 0.2475,-0.20312 0.3999,-0.2666c0.1523,-0.06771 0.3131,-0.10156 0.4824,-0.10156h3.2246c0.1735,0 0.3364,0.03385 0.4888,0.10156c0.1523,0.06348 0.2835,0.15234 0.3935,0.2666c0.1143,0.11003 0.2032,0.24121 0.2666,0.39355c0.0678,0.15235 0.1016,0.31527 0.1016,0.48877zM253.5996,179.49023v1.51709h3.2246v-1.51709zM261.4072,179.49023v5.50977h-1.2441v-6.76025h1.2441v1.19336c0.0085,-0.16504 0.0466,-0.3195 0.1143,-0.46338c0.0677,-0.14812 0.1566,-0.27507 0.2666,-0.38086c0.1142,-0.11003 0.2454,-0.19466 0.3935,-0.25391c0.1482,-0.06348 0.3068,-0.09521 0.4761,-0.09521h1.3267c0.1735,0 0.3343,0.03385 0.4824,0.10156c0.1523,0.06348 0.2856,0.15234 0.3999,0.2666c0.1143,0.11003 0.2031,0.24121 0.2666,0.39355c0.0677,0.15235 0.1016,0.31527 0.1016,0.48877v1.14258h-1.2505v-1.14258zM270.8716,183.74951v-1.56787h-2.9644c-0.1735,0 -0.3364,-0.03174 -0.4887,-0.09521c-0.1524,-0.06771 -0.2857,-0.15658 -0.3999,-0.26661c-0.1101,-0.11425 -0.1989,-0.24755 -0.2666,-0.3999c-0.0635,-0.15234 -0.0953,-0.31527 -0.0953,-0.48877v-1.44092c0,-0.1735 0.0318,-0.33642 0.0953,-0.48877c0.0677,-0.15234 0.1565,-0.28352 0.2666,-0.39355c0.1142,-0.11426 0.2475,-0.20312 0.3999,-0.2666c0.1523,-0.06771 0.3152,-0.10156 0.4887,-0.10156h3.9546v1.25048h-3.9546v1.44092h2.9644c0.1735,0 0.3343,0.03386 0.4824,0.10156c0.1523,0.06348 0.2856,0.15235 0.3999,0.26661c0.1143,0.11002 0.2031,0.24121 0.2666,0.39355c0.0677,0.15234 0.1016,0.31527 0.1016,0.48877v1.56787c0,0.1735 -0.0339,0.33643 -0.1016,0.48877c-0.0635,0.15234 -0.1523,0.28565 -0.2666,0.3999c-0.1143,0.11003 -0.2476,0.1989 -0.3999,0.26661c-0.1481,0.06347 -0.3089,0.09521 -0.4824,0.09521h-4.2149v-1.25049z" fill="#ffffff" stroke="none" stroke-width="1"/></g></g></svg>