<svg version="1.1" xmlns="http://www.w3.org/2000/svg" xmlns:xlink="http://www.w3.org/1999/xlink" width="88" height="20" viewBox="0,0,88,20"><g transform="translate(-196,-170)"><g data-paper-data="{&quot;isPaintingLayer&quot;:true}" fill-rule="nonzero" stroke="none" stroke-width="1" stroke-linecap="butt" stroke-linejoin="miter" stroke-miterlimit="10" stroke-dasharray="" stroke-dashoffset="0" style="mix-blend-mode: normal"><path d="M284,172.23058v15.53882c0,1.2319 -0.9463,2.2306 -2.1136,2.2306h-83.77279c-1.16732,0 -2.11361,-0.9987 -2.11361,-2.2306v-15.53882c0,-1.23192 0.94629,-2.23058 2.11361,-2.23058h83.77279c1.1673,0 2.1136,0.99866 2.1136,2.23058z" fill="#9ceb58"/><path d="M209.37562,177.33947c0,1.26691 -0.54063,1.98906 -1.62165,2.16643l1.71034,3.67404h-1.43802l-1.68498,-3.62971h-2.84419v3.62971h-1.29862v-9.08376h4.97262c1.46963,0 2.2045,0.73692 2.2045,2.21076zM203.49712,178.25165h3.6043c0.34638,0 0.59547,-0.07601 0.74749,-0.22804c0.15202,-0.15203 0.22809,-0.40119 0.22809,-0.74748v-0.90585c0,-0.34629 -0.07607,-0.59545 -0.22809,-0.74747c-0.15202,-0.15203 -0.40111,-0.22804 -0.74749,-0.22804h-3.6043zM217.1291,180.44342h-4.46584v1.48861h4.46584v1.2479h-4.46584c-0.16901,0 -0.3294,-0.03173 -0.48142,-0.09506c-0.15202,-0.06758 -0.28506,-0.15627 -0.3991,-0.26607c-0.1098,-0.11393 -0.19849,-0.24696 -0.26607,-0.39898c-0.06333,-0.15202 -0.09506,-0.31466 -0.09506,-0.48779v-4.2505c0,-0.17314 0.03173,-0.33573 0.09506,-0.48776c0.06758,-0.15203 0.15627,-0.28295 0.26607,-0.39275c0.11405,-0.11402 0.24708,-0.20271 0.3991,-0.26606c0.15202,-0.06757 0.31242,-0.10134 0.48142,-0.10134h3.21794c0.17313,0 0.33577,0.03378 0.48779,0.10134c0.15202,0.06334 0.28293,0.15203 0.39273,0.26606c0.11393,0.1098 0.20262,0.24071 0.26607,0.39275c0.06746,0.15202 0.10131,0.31461 0.10131,0.48776zM212.66326,177.68153v1.51396h3.21794v-1.51396zM219.21318,177.68153c0,-0.17314 0.03161,-0.33573 0.09494,-0.48776c0.06758,-0.15203 0.15627,-0.28295 0.26607,-0.39275c0.11405,-0.11402 0.24708,-0.20271 0.3991,-0.26606c0.15202,-0.06757 0.31254,-0.10134 0.48142,-0.10134h2.23611c0.16476,0 0.32091,0.03167 0.4688,0.09501c0.14778,0.05912 0.27656,0.14359 0.38637,0.25339c0.11405,0.10557 0.20486,0.23227 0.27244,0.38007c0.07171,0.14359 0.1098,0.29772 0.11393,0.46242v-1.19089h1.24802v8.2223c0,0.17313 -0.03385,0.33565 -0.10143,0.48767c-0.06333,0.15202 -0.15202,0.28293 -0.26607,0.39273c-0.1098,0.11405 -0.24071,0.20274 -0.39273,0.26607c-0.15202,0.06758 -0.31454,0.10143 -0.48779,0.10143h-3.94007v-1.2479h3.94007v-1.73569h-3.47764c-0.16889,0 -0.3294,-0.03173 -0.48142,-0.09506c-0.15202,-0.06758 -0.28506,-0.15627 -0.3991,-0.26607c-0.1098,-0.11393 -0.19849,-0.24696 -0.26607,-0.39898c-0.06333,-0.15214 -0.09494,-0.31466 -0.09494,-0.48779zM223.93236,181.67233v-3.9908h-3.47764v3.9908zM232.96547,180.44342h-4.46584v1.48861h4.46584v1.2479h-4.46584c-0.16889,0 -0.3294,-0.03173 -0.48142,-0.09506c-0.15202,-0.06758 -0.28506,-0.15627 -0.3991,-0.26607c-0.1098,-0.11393 -0.19849,-0.24696 -0.26607,-0.39898c-0.06333,-0.15202 -0.09494,-0.31466 -0.09494,-0.48779v-4.2505c0,-0.17314 0.03161,-0.33573 0.09494,-0.48776c0.06758,-0.15203 0.15627,-0.28295 0.26607,-0.39275c0.11405,-0.11402 0.24708,-0.20271 0.3991,-0.26606c0.15202,-0.06757 0.31254,-0.10134 0.48142,-0.10134h3.21794c0.17313,0 0.33577,0.03378 0.48779,0.10134c0.15202,0.06334 0.28293,0.15203 0.39273,0.26606c0.11405,0.1098 0.20274,0.24071 0.26607,0.39275c0.06758,0.15202 0.10131,0.31461 0.10131,0.48776zM228.49963,177.68153v1.51396h3.21794v-1.51396zM241.01674,183.17993h-1.2479v-5.4984h-3.47776v5.4984h-1.24153v-6.7463h1.24153v1.19089c0.00849,-0.1647 0.04647,-0.31883 0.11405,-0.46242c0.06758,-0.1478 0.15627,-0.2745 0.26607,-0.38007c0.11405,-0.1098 0.24496,-0.19427 0.39273,-0.25339c0.14778,-0.06334 0.30617,-0.09501 0.47517,-0.09501h2.22974c0.17313,0 0.33565,0.03378 0.48779,0.10134c0.15202,0.06334 0.28293,0.15203 0.39273,0.26606c0.11393,0.1098 0.20262,0.24071 0.26595,0.39275c0.06758,0.15202 0.10143,0.31461 0.10143,0.48776zM248.80195,180.44342h-4.46596v1.48861h4.46596v1.2479h-4.46596c-0.16889,0 -0.3294,-0.03173 -0.48142,-0.09506c-0.15202,-0.06758 -0.28506,-0.15627 -0.39898,-0.26607c-0.1098,-0.11393 -0.19849,-0.24696 -0.26607,-0.39898c-0.06333,-0.15202 -0.09506,-0.31466 -0.09506,-0.48779v-4.2505c0,-0.17314 0.03173,-0.33573 0.09506,-0.48776c0.06758,-0.15203 0.15627,-0.28295 0.26607,-0.39275c0.11393,-0.11402 0.24696,-0.20271 0.39898,-0.26606c0.15202,-0.06757 0.31254,-0.10134 0.48142,-0.10134h3.21806c0.17313,0 0.33565,0.03378 0.48767,0.10134c0.15202,0.06334 0.28293,0.15203 0.39273,0.26606c0.11405,0.1098 0.20274,0.24071 0.26607,0.39275c0.06758,0.15202 0.10143,0.31461 0.10143,0.48776zM244.33599,177.68153v1.51396h3.21806v-1.51396zM252.12757,177.68153v5.4984h-1.24165v-6.7463h1.24165v1.19089c0.00837,-0.1647 0.04647,-0.31883 0.11405,-0.46242c0.06758,-0.1478 0.15627,-0.2745 0.26595,-0.38007c0.11405,-0.1098 0.24496,-0.19427 0.39285,-0.25339c0.14778,-0.06334 0.30617,-0.09501 0.47505,-0.09501h1.32385c0.17325,0 0.33365,0.03378 0.48154,0.10134c0.15202,0.06334 0.28506,0.15203 0.39898,0.26606c0.11405,0.1098 0.20274,0.24071 0.26607,0.39275c0.06758,0.15202 0.10143,0.31461 0.10143,0.48776v1.14022h-1.24802v-1.14022zM257.49929,180.23431c0,-0.17313 0.03161,-0.33353 0.09494,-0.48142c0.06758,-0.15199 0.15627,-0.28501 0.26607,-0.39903c0.11405,-0.11402 0.24708,-0.20271 0.3991,-0.26606c0.15202,-0.06757 0.31254,-0.10134 0.48142,-0.10134h3.21794v-1.30493h-4.07311v-1.2479h4.07311c0.17313,0 0.33577,0.03378 0.48779,0.10134c0.15202,0.06334 0.28293,0.15203 0.39273,0.26606c0.11405,0.1098 0.20274,0.24071 0.26607,0.39275c0.06758,0.15202 0.10131,0.31461 0.10131,0.48776v5.4984h-1.2479v-1.14022c-0.01262,0.15627 -0.05484,0.30404 -0.12667,0.44345c-0.07182,0.13928 -0.16464,0.26182 -0.27869,0.36738c-0.1098,0.10131 -0.23647,0.18162 -0.38011,0.24071c-0.14353,0.05909 -0.29555,0.08869 -0.45607,0.08869h-1.97641c-0.16889,0 -0.3294,-0.03173 -0.48142,-0.09506c-0.15202,-0.06758 -0.28506,-0.15627 -0.3991,-0.26607c-0.1098,-0.11393 -0.19849,-0.24696 -0.26607,-0.39898c-0.06333,-0.15202 -0.09494,-0.31466 -0.09494,-0.48779zM258.74083,181.93203h3.21794v-1.69772h-3.21794zM264.89802,176.43363h1.647v-2.07774h1.2479v2.07774h2.21712v1.2479h-2.21712v4.2505h2.21712v1.2479h-2.21712c-0.16889,0 -0.3294,-0.03173 -0.48142,-0.09506c-0.15202,-0.06758 -0.28506,-0.15627 -0.3991,-0.26607c-0.11405,-0.11393 -0.20474,-0.24696 -0.27232,-0.39898c-0.06345,-0.15202 -0.09506,-0.31466 -0.09506,-0.48779v-4.2505h-1.647zM277.8015,180.44342h-4.46584v1.48861h4.46584v1.2479h-4.46584c-0.16889,0 -0.3294,-0.03173 -0.48142,-0.09506c-0.15202,-0.06758 -0.28506,-0.15627 -0.3991,-0.26607c-0.1098,-0.11393 -0.19849,-0.24696 -0.26607,-0.39898c-0.06333,-0.15202 -0.09494,-0.31466 -0.09494,-0.48779v-4.2505c0,-0.17314 0.03161,-0.33573 0.09494,-0.48776c0.06758,-0.15203 0.15627,-0.28295 0.26607,-0.39275c0.11405,-0.11402 0.24708,-0.20271 0.3991,-0.26606c0.15202,-0.06757 0.31254,-0.10134 0.48142,-0.10134h3.21794c0.17313,0 0.33577,0.03378 0.48779,0.10134c0.15202,0.06334 0.28293,0.15203 0.39273,0.26606c0.11405,0.1098 0.20274,0.24071 0.26607,0.39275c0.06758,0.15202 0.10131,0.31461 0.10131,0.48776zM273.33566,177.68153v1.51396h3.21794v-1.51396z" fill="#000000"/></g></g></svg>