<svg xmlns="http://www.w3.org/2000/svg" fill="none" viewBox="0 0 14 18" height="18" width="14">
<path fill="black" d="M0.246094 2.99756C0.246094 2.65576 0.311198 2.33431 0.441406 2.0332C0.571615 1.72396 0.750651 1.45947 0.978516 1.23975C1.20638 1.01188 1.47087 0.832845 1.77197 0.702637C2.08122 0.56429 2.40674 0.495117 2.74854 0.495117H10.7441C11.0859 0.495117 11.4074 0.56429 11.7085 0.702637C12.0177 0.832845 12.2863 1.01188 12.5142 1.23975C12.742 1.45947 12.9211 1.72396 13.0513 2.0332C13.1815 2.33431 13.2466 2.65576 13.2466 2.99756V5.25586H10.7441V2.99756H2.74854V8.00244H10.7441C11.0859 8.00244 11.4074 8.06755 11.7085 8.19775C12.0177 8.32796 12.2863 8.507 12.5142 8.73486C12.742 8.96273 12.9211 9.23128 13.0513 9.54053C13.1815 9.84163 13.2466 10.1631 13.2466 10.5049V15.4976C13.2466 15.8394 13.1815 16.1649 13.0513 16.4741C12.9211 16.7752 12.742 17.0397 12.5142 17.2676C12.2863 17.4954 12.0177 17.6745 11.7085 17.8047C11.4074 17.9349 11.0859 18 10.7441 18H2.74854C2.40674 18 2.08122 17.9349 1.77197 17.8047C1.47087 17.6745 1.20638 17.4954 0.978516 17.2676C0.750651 17.0397 0.571615 16.7752 0.441406 16.4741C0.311198 16.1649 0.246094 15.8394 0.246094 15.4976V2.99756ZM2.74854 10.5049V15.4976H10.7441V10.5049H2.74854Z"></path>
</svg>
