<svg version="1.1" xmlns="http://www.w3.org/2000/svg" xmlns:xlink="http://www.w3.org/1999/xlink" width="157.745" height="27.4028" viewBox="0,0,157.745,27.4028"><g transform="translate(-161.1275,-166.2986)"><g data-paper-data="{&quot;isPaintingLayer&quot;:true}" fill-rule="nonzero" stroke-linecap="butt" stroke-linejoin="miter" stroke-miterlimit="10" stroke-dasharray="" stroke-dashoffset="0" style="mix-blend-mode: normal"><path d="M317.9975,192.8264h-155.995v-25.6528h155.995z" fill="#ffffff" stroke="#6ebaff" stroke-width="1.75"/><path d="M166.41406,175.46809c0,-2.30204 1.86451,-4.16822 4.1645,-4.16822c2.29994,0 4.16454,1.86618 4.16454,4.16822c0,2.30201 -1.8646,4.16821 -4.16454,4.16821c-2.29999,0 -4.1645,-1.8662 -4.1645,-4.16821z" fill="none" stroke="#6eb1ff" stroke-width="0.6"/><path d="M168.25293,175.46808c0,-1.28478 1.04059,-2.3263 2.32422,-2.3263c1.28365,0 2.32425,1.04152 2.32425,2.3263c0,1.28482 -1.0406,2.32632 -2.32425,2.32632c-1.28363,0 -2.32422,-1.0415 -2.32422,-2.32632z" fill="#6eb1ff" stroke="none" stroke-width="1"/></g></g></svg>