<svg version="1.1" xmlns="http://www.w3.org/2000/svg" xmlns:xlink="http://www.w3.org/1999/xlink" width="17.07014" height="26.40914" viewBox="0,0,17.07014,26.40914"><g transform="translate(-231.37399,-165.09833)"><g fill="#ffa11f" stroke="none" stroke-miterlimit="10"><path d="M239.90908,183.25459c-2.61777,0 -4.65452,-2.218 -4.65452,-4.9518v-8.25266c0,-2.73379 2.03675,-4.9518 4.65452,-4.9518c2.5706,0 4.65666,2.218 4.65666,4.9518v8.25266c0,2.78531 -2.08606,4.9518 -4.65666,4.9518zM247.27997,175.00169c0.63032,0 1.16416,0.56733 1.16416,1.23793v2.06317c0,4.59082 -3.24809,8.40774 -7.3709,9.02659v1.70221h1.94027c0.87259,0 1.55221,0.82523 1.5029,1.75373c0,0.41249 -0.33874,0.72215 -0.72679,0.72215h-7.7611c-0.43522,0 -0.77396,-0.30966 -0.77396,-0.72215c-0.04931,-0.92852 0.63032,-1.75373 1.55007,-1.75373h1.94027v-1.80527c-4.31577,-0.61908 -7.3709,-4.74541 -7.3709,-9.33602v-1.65067c0,-0.67062 0.48454,-1.23793 1.16417,-1.23793c0.63032,0 1.16416,0.56733 1.16416,1.23793v1.80527c0,3.45594 2.5706,6.65399 5.77152,6.86013c3.63614,0.25813 6.6441,-2.78532 6.6441,-6.60223v-2.06317c0,-0.67062 0.48453,-1.23793 1.16202,-1.23793z"/></g></g></svg>