<svg version="1.1" xmlns="http://www.w3.org/2000/svg" xmlns:xlink="http://www.w3.org/1999/xlink" width="50.51385" height="29.59438" viewBox="0,0,50.51385,29.59438"><g transform="translate(-214.74307,-165.20281)"><g data-paper-data="{&quot;isPaintingLayer&quot;:true}" fill="#000000" fill-rule="nonzero" stroke-width="0" stroke-linecap="butt" stroke-linejoin="miter" stroke-miterlimit="10" stroke-dasharray="" stroke-dashoffset="0" style="mix-blend-mode: normal"><path d="M224.27871,177.22326v-4.97906h23.53734v4.97906z" stroke="#ffc85e"/><path d="M217.94928,182.58417c0,-3.95675 0,-13.8614 0,-15.92884c0,-0.74036 0.30417,-1.42706 0.77326,-1.42706c1.34961,0 4.06438,0 4.82817,0c0.39164,0 0.81098,0.4995 0.81098,1.07532c0,1.92054 0,12.66489 0,16.53182c0,0.86583 -0.46719,1.43711 -0.96186,1.43711c-0.7312,0 -2.89087,0.02814 -4.26202,0.01325c-0.69579,-0.00755 -1.18853,-0.68701 -1.18853,-1.7016z" stroke="none"/><path d="M247.37094,182.55871c0,-3.95675 0,-13.8614 0,-15.92884c0,-0.74036 0.30417,-1.42706 0.77326,-1.42706c1.34961,0 4.06438,0 4.82817,0c0.39164,0 0.81098,0.4995 0.81098,1.07532c0,1.92054 0,12.66489 0,16.53182c0,0.86583 -0.46719,1.43712 -0.96186,1.43712c-0.7312,0 -2.89087,0.02813 -4.26202,0.01325c-0.69579,-0.00756 -1.18853,-0.68701 -1.18853,-1.7016z" stroke="none"/><path d="M214.74307,180.85947c0,-2.9702 0,-10.40531 0,-11.95727c0,-0.55576 0.30417,-1.07125 0.77326,-1.07125c1.34961,0 4.06438,0 4.82817,0c0.39164,0 0.81098,0.37496 0.81098,0.80721c0,1.44169 0,9.50713 0,12.40991c0,0.64995 -0.46719,1.0788 -0.96186,1.0788c-0.7312,0 -2.89087,0.02112 -4.26202,0.00994c-0.69579,-0.00567 -1.18853,-0.51571 -1.18853,-1.27734z" stroke="none"/><path d="M250.57715,180.57657c0,-2.9702 0,-10.40531 0,-11.95727c0,-0.55576 0.30417,-1.07125 0.77326,-1.07125c1.34961,0 4.06438,0 4.82817,0c0.39164,0 0.81098,0.37496 0.81098,0.80721c0,1.44169 0,9.50713 0,12.40991c0,0.64995 -0.46719,1.0788 -0.96186,1.0788c-0.7312,0 -2.89087,0.02112 -4.26202,0.00994c-0.69579,-0.00567 -1.18853,-0.51571 -1.18853,-1.27734z" stroke="none"/><g><path d="M232.81011,190.33301v-5.43169h23.53734v5.43169z" stroke="#ffc85e"/><path d="M224.21748,193.51659c0,-2.9702 0,-10.40531 0,-11.95727c0,-0.55576 0.30417,-1.07125 0.77326,-1.07125c1.34961,0 4.06438,0 4.82817,0c0.39164,0 0.81098,0.37496 0.81098,0.80721c0,1.44169 0,9.50713 0,12.40991c0,0.64995 -0.46719,1.0788 -0.96186,1.0788c-0.7312,0 -2.89087,0.02112 -4.26202,0.00994c-0.69579,-0.00567 -1.18853,-0.51571 -1.18853,-1.27734z" stroke="none"/><path d="M258.84452,193.51659c0,-2.97021 0,-10.40531 0,-11.95727c0,-0.55576 0.30417,-1.07125 0.77326,-1.07125c1.34961,0 4.06438,0 4.82817,0c0.39164,0 0.81098,0.37496 0.81098,0.80721c0,1.44169 0,9.50713 0,12.40991c0,0.64995 -0.46719,1.07879 -0.96186,1.07879c-0.7312,0 -2.89087,0.02112 -4.26202,0.00995c-0.69579,-0.00567 -1.18853,-0.51571 -1.18853,-1.27734z" stroke="none"/></g></g></g></svg>