<svg version="1.1" xmlns="http://www.w3.org/2000/svg" xmlns:xlink="http://www.w3.org/1999/xlink" width="104" height="23.9183" viewBox="0,0,104,23.9183"><g transform="translate(-188,-166.5)"><g data-paper-data="{&quot;isPaintingLayer&quot;:true}" fill-rule="nonzero" stroke="none" stroke-width="1" stroke-linecap="butt" stroke-linejoin="miter" stroke-miterlimit="10" stroke-dasharray="" stroke-dashoffset="0" style="mix-blend-mode: normal"><path d="M292,169.16758v18.58312c0,1.4733 -1.118,2.6676 -2.498,2.6676h-99.0041c-1.37955,0 -2.4979,-1.1943 -2.4979,-2.6676v-18.58312c0,-1.47326 1.11835,-2.66758 2.4979,-2.66758h99.0041c1.38,0 2.498,1.19432 2.498,2.66758z" fill="#ff8a8a"/><path d="M226.166,173.9292c0.419,0 0.7412,-0.11279 0.9668,-0.33838c0.2256,-0.22559 0.3384,-0.54785 0.3384,-0.9668v-1.88964c0,-0.20508 -0.0293,-0.38819 -0.0879,-0.54932c-0.0586,-0.16113 -0.145,-0.29736 -0.2593,-0.40869c-0.1113,-0.11426 -0.2475,-0.20069 -0.4087,-0.25928c-0.1611,-0.05859 -0.3442,-0.08789 -0.5493,-0.08789h-2.3027v4.5zM222.9624,174.83008v-6.30176h3.2036c0.3369,0 0.6402,0.05273 0.9097,0.1582c0.2724,0.10254 0.5039,0.25049 0.6943,0.44385c0.1934,0.19043 0.3413,0.42188 0.4439,0.69434c0.1054,0.27246 0.1582,0.57568 0.1582,0.90967v1.88964c0,0.33399 -0.0528,0.63721 -0.1582,0.90967c-0.1026,0.27246 -0.2505,0.50537 -0.4439,0.69873c-0.1904,0.19043 -0.4219,0.33838 -0.6943,0.44385c-0.2695,0.10254 -0.5728,0.15381 -0.9097,0.15381zM230.6396,170.1499v4.68018h-0.8657v-4.68018zM229.73,168.34814h0.9536v0.90088h-0.9536zM234.9551,173.96436v-1.08545h-2.0523c-0.1201,0 -0.2329,-0.02198 -0.3383,-0.06592c-0.1055,-0.04688 -0.1978,-0.1084 -0.2769,-0.18457c-0.0762,-0.0791 -0.1377,-0.17139 -0.1846,-0.27686c-0.0439,-0.10547 -0.0659,-0.21826 -0.0659,-0.33838v-0.99756c0,-0.12011 0.022,-0.23291 0.0659,-0.33837c0.0469,-0.10547 0.1084,-0.19629 0.1846,-0.27246c0.0791,-0.07911 0.1714,-0.14063 0.2769,-0.18458c0.1054,-0.04687 0.2182,-0.07031 0.3383,-0.07031h2.7378v0.86572h-2.7378v0.99756h2.0523c0.1201,0 0.2314,0.02344 0.334,0.07032c0.1054,0.04394 0.1977,0.10546 0.2768,0.18457c0.0791,0.07617 0.1406,0.16699 0.1846,0.27246c0.0469,0.10547 0.0703,0.21826 0.0703,0.33838v1.08545c0,0.12011 -0.0234,0.23291 -0.0703,0.33837c-0.044,0.10547 -0.1055,0.19776 -0.1846,0.27686c-0.0791,0.07617 -0.1714,0.1377 -0.2768,0.18457c-0.1026,0.04395 -0.2139,0.06592 -0.334,0.06592h-2.918v-0.86572zM237.1743,172.78662c0,-0.12012 0.022,-0.23144 0.0659,-0.33398c0.0469,-0.10547 0.1084,-0.19776 0.1846,-0.27686c0.0791,-0.0791 0.1714,-0.14062 0.2769,-0.18457c0.1054,-0.04687 0.2168,-0.07031 0.3339,-0.07031h2.2325v-0.90528h-2.8257v-0.86572h2.8257c0.1201,0 0.2329,0.02344 0.3383,0.07031c0.1055,0.04395 0.1963,0.10547 0.2725,0.18458c0.0791,0.07617 0.1406,0.16699 0.1846,0.27246c0.0469,0.10546 0.0703,0.21826 0.0703,0.33837v3.81446h-0.8657v-0.79102c-0.0088,0.1084 -0.0381,0.21094 -0.0879,0.30762c-0.0498,0.09668 -0.1143,0.18164 -0.1934,0.25488c-0.0762,0.07032 -0.164,0.12598 -0.2637,0.16699c-0.0996,0.04102 -0.205,0.06153 -0.3164,0.06153h-1.3711c-0.1171,0 -0.2285,-0.02197 -0.3339,-0.06592c-0.1055,-0.04687 -0.1978,-0.1084 -0.2769,-0.18457c-0.0762,-0.0791 -0.1377,-0.17139 -0.1846,-0.27686c-0.0439,-0.10546 -0.0659,-0.21826 -0.0659,-0.33837zM238.0356,173.96436h2.2325v-1.17774h-2.2325zM246.7192,173.96436c0,0.12011 -0.0234,0.23291 -0.0703,0.33837c-0.0439,0.10547 -0.1054,0.19776 -0.1845,0.27686c-0.0762,0.07617 -0.167,0.1377 -0.2725,0.18457c-0.1055,0.04395 -0.2183,0.06592 -0.3384,0.06592h-2.4126c-0.1172,0 -0.2285,-0.02197 -0.334,-0.06592c-0.1054,-0.04687 -0.1977,-0.1084 -0.2768,-0.18457c-0.0762,-0.0791 -0.1377,-0.17139 -0.1846,-0.27686c-0.0439,-0.10546 -0.0659,-0.21826 -0.0659,-0.33837v-5.61622h0.8613v2.62793c0.0059,-0.11425 0.0322,-0.22119 0.0791,-0.3208c0.0469,-0.10254 0.1084,-0.19043 0.1846,-0.26367c0.0791,-0.07617 0.1699,-0.13476 0.2725,-0.17578c0.1025,-0.04394 0.2124,-0.06592 0.3295,-0.06592h1.5469c0.1201,0 0.2329,0.02344 0.3384,0.07031c0.1055,0.04395 0.1963,0.10547 0.2725,0.18458c0.0791,0.07617 0.1406,0.16699 0.1845,0.27246c0.0469,0.10546 0.0703,0.21826 0.0703,0.33837zM243.4409,171.01562v2.94874h2.4126v-2.94874zM249.022,168.34814v6.48194h-0.8614v-6.48194zM254.4229,172.93164h-3.0982v1.03272h3.0982v0.86572h-3.0982c-0.1172,0 -0.2285,-0.02197 -0.334,-0.06592c-0.1054,-0.04687 -0.1977,-0.1084 -0.2768,-0.18457c-0.0762,-0.0791 -0.1377,-0.17139 -0.1846,-0.27686c-0.0439,-0.10546 -0.0659,-0.21826 -0.0659,-0.33837v-2.94874c0,-0.12011 0.022,-0.23291 0.0659,-0.33837c0.0469,-0.10547 0.1084,-0.19629 0.1846,-0.27246c0.0791,-0.07911 0.1714,-0.14063 0.2768,-0.18458c0.1055,-0.04687 0.2168,-0.07031 0.334,-0.07031h2.2324c0.1201,0 0.2329,0.02344 0.3384,0.07031c0.1055,0.04395 0.1963,0.10547 0.2725,0.18458c0.0791,0.07617 0.1406,0.16699 0.1845,0.27246c0.0469,0.10546 0.0704,0.21826 0.0704,0.33837zM251.3247,171.01562v1.0503h2.2324v-1.0503zM199.6934,179.5283l2.4301,6.3018h-0.9008l-0.5581,-1.4502h-2.84331l-0.55811,1.4502h-0.90088l2.4302,-6.3018zM198.1641,183.479h2.1533l-1.0723,-2.7773zM203.1167,182.0156c0,-0.1201 0.022,-0.2329 0.0659,-0.3384c0.0469,-0.1054 0.1084,-0.1962 0.1846,-0.2724c0.0791,-0.0791 0.1714,-0.1406 0.2768,-0.1846c0.1055,-0.0469 0.2168,-0.0703 0.334,-0.0703h2.4126v-1.8018h0.8657v6.482h-0.8657v-0.791c-0.0088,0.1084 -0.0381,0.2109 -0.0879,0.3076c-0.0498,0.0967 -0.1142,0.1816 -0.1933,0.2549c-0.0762,0.0703 -0.1641,0.1259 -0.2637,0.167c-0.0996,0.041 -0.2051,0.0615 -0.3164,0.0615h-1.5513c-0.1172,0 -0.2285,-0.022 -0.334,-0.0659c-0.1054,-0.0469 -0.1977,-0.1084 -0.2768,-0.1846c-0.0762,-0.0791 -0.1377,-0.1714 -0.1846,-0.2769c-0.0439,-0.1054 -0.0659,-0.2182 -0.0659,-0.3383zM203.978,184.9644h2.4126v-2.9488h-2.4126zM210.0293,185.8301l-1.8721,-4.6802h0.9009l1.4194,3.6431l1.4239,-3.6431h0.9008l-1.872,4.6802zM213.7075,183.7866c0,-0.1201 0.022,-0.2314 0.0659,-0.334c0.0469,-0.1054 0.1084,-0.1977 0.1846,-0.2768c0.0791,-0.0791 0.1714,-0.1406 0.2769,-0.1846c0.1054,-0.0469 0.2168,-0.0703 0.3339,-0.0703h2.2325v-0.9053h-2.8257v-0.8657h2.8257c0.1201,0 0.2329,0.0234 0.3383,0.0703c0.1055,0.044 0.1963,0.1055 0.2725,0.1846c0.0791,0.0762 0.1406,0.167 0.1846,0.2724c0.0469,0.1055 0.0703,0.2183 0.0703,0.3384v3.8145h-0.8657v-0.791c-0.0088,0.1084 -0.0381,0.2109 -0.0879,0.3076c-0.0498,0.0967 -0.1143,0.1816 -0.1934,0.2549c-0.0762,0.0703 -0.164,0.1259 -0.2637,0.167c-0.0996,0.041 -0.205,0.0615 -0.3164,0.0615h-1.3711c-0.1171,0 -0.2285,-0.022 -0.3339,-0.0659c-0.1055,-0.0469 -0.1978,-0.1084 -0.2769,-0.1846c-0.0762,-0.0791 -0.1377,-0.1714 -0.1846,-0.2769c-0.0439,-0.1054 -0.0659,-0.2182 -0.0659,-0.3383zM214.5688,184.9644h2.2325v-1.1778h-2.2325zM223.2524,185.8301h-0.8657v-3.8145h-2.4126v3.8145h-0.8613v-4.6802h0.8613v0.8262c0.0059,-0.1143 0.0322,-0.2212 0.0791,-0.3208c0.0469,-0.1026 0.1084,-0.1905 0.1846,-0.2637c0.0791,-0.0762 0.1699,-0.1348 0.2725,-0.1758c0.1025,-0.0439 0.2124,-0.0659 0.3295,-0.0659h1.5469c0.1201,0 0.2329,0.0234 0.3384,0.0703c0.1055,0.044 0.1963,0.1055 0.2725,0.1846c0.0791,0.0762 0.1406,0.167 0.1845,0.2724c0.0469,0.1055 0.0703,0.2183 0.0703,0.3384zM225.5552,182.0156v2.9488h2.2324v-0.7911h0.8657v0.7911c0,0.1201 -0.0234,0.2329 -0.0703,0.3383c-0.0439,0.1055 -0.1055,0.1978 -0.1846,0.2769c-0.0761,0.0762 -0.167,0.1377 -0.2724,0.1846c-0.1055,0.0439 -0.2183,0.0659 -0.3384,0.0659h-2.2324c-0.1172,0 -0.2285,-0.022 -0.334,-0.0659c-0.1055,-0.0469 -0.1978,-0.1084 -0.2769,-0.1846c-0.0761,-0.0791 -0.1377,-0.1714 -0.1845,-0.2769c-0.044,-0.1054 -0.066,-0.2182 -0.066,-0.3383v-2.9488c0,-0.1201 0.022,-0.2329 0.066,-0.3384c0.0468,-0.1054 0.1084,-0.1962 0.1845,-0.2724c0.0791,-0.0791 0.1714,-0.1406 0.2769,-0.1846c0.1055,-0.0469 0.2168,-0.0703 0.334,-0.0703h2.2324c0.1201,0 0.2329,0.0234 0.3384,0.0703c0.1054,0.044 0.1963,0.1055 0.2724,0.1846c0.0791,0.0762 0.1407,0.167 0.1846,0.2724c0.0469,0.1055 0.0703,0.2183 0.0703,0.3384v0.791h-0.8657v-0.791zM234.0586,183.9316h-3.0982v1.0328h3.0982v0.8657h-3.0982c-0.1171,0 -0.2285,-0.022 -0.3339,-0.0659c-0.1055,-0.0469 -0.1978,-0.1084 -0.2769,-0.1846c-0.0762,-0.0791 -0.1377,-0.1714 -0.1846,-0.2769c-0.0439,-0.1054 -0.0659,-0.2182 -0.0659,-0.3383v-2.9488c0,-0.1201 0.022,-0.2329 0.0659,-0.3384c0.0469,-0.1054 0.1084,-0.1962 0.1846,-0.2724c0.0791,-0.0791 0.1714,-0.1406 0.2769,-0.1846c0.1054,-0.0469 0.2168,-0.0703 0.3339,-0.0703h2.2325c0.1201,0 0.2329,0.0234 0.3383,0.0703c0.1055,0.044 0.1963,0.1055 0.2725,0.1846c0.0791,0.0762 0.1406,0.167 0.1846,0.2724c0.0469,0.1055 0.0703,0.2183 0.0703,0.3384zM230.9604,182.0156v1.0503h2.2325v-1.0503zM235.5044,182.0156c0,-0.1201 0.022,-0.2329 0.0659,-0.3384c0.0469,-0.1054 0.1084,-0.1962 0.1846,-0.2724c0.0791,-0.0791 0.1714,-0.1406 0.2768,-0.1846c0.1055,-0.0469 0.2168,-0.0703 0.334,-0.0703h2.4126v-1.8018h0.8657v6.482h-0.8657v-0.791c-0.0088,0.1084 -0.0381,0.2109 -0.0879,0.3076c-0.0498,0.0967 -0.1142,0.1816 -0.1933,0.2549c-0.0762,0.0703 -0.1641,0.1259 -0.2637,0.167c-0.0996,0.041 -0.2051,0.0615 -0.3164,0.0615h-1.5513c-0.1172,0 -0.2285,-0.022 -0.334,-0.0659c-0.1054,-0.0469 -0.1977,-0.1084 -0.2768,-0.1846c-0.0762,-0.0791 -0.1377,-0.1714 -0.1846,-0.2769c-0.0439,-0.1054 -0.0659,-0.2182 -0.0659,-0.3383zM236.3657,184.9644h2.4126v-2.9488h-2.4126zM243.8716,180.4292c0,-0.123 0.0234,-0.2388 0.0703,-0.3472c0.0469,-0.1113 0.1113,-0.2065 0.1934,-0.2856c0.082,-0.082 0.1772,-0.1465 0.2856,-0.1934c0.1113,-0.0498 0.2285,-0.0747 0.3516,-0.0747h3.4189c0.1231,0 0.2388,0.0249 0.3472,0.0747c0.1113,0.0469 0.208,0.1114 0.29,0.1934c0.082,0.0791 0.1465,0.1743 0.1934,0.2856c0.0468,0.1084 0.0703,0.2242 0.0703,0.3472v0.813h-0.9009v-0.813h-3.4189v4.5h3.4189v-1.5293h-1.7095v-0.9009h2.6104v2.4302c0,0.123 -0.0235,0.2402 -0.0703,0.3516c-0.0469,0.1084 -0.1114,0.2036 -0.1934,0.2856c-0.082,0.082 -0.1787,0.1465 -0.29,0.1934c-0.1084,0.0468 -0.2241,0.0703 -0.3472,0.0703h-3.4189c-0.1231,0 -0.2403,-0.0235 -0.3516,-0.0703c-0.1084,-0.0469 -0.2036,-0.1114 -0.2856,-0.1934c-0.0821,-0.082 -0.1465,-0.1772 -0.1934,-0.2856c-0.0469,-0.1114 -0.0703,-0.2286 -0.0703,-0.3516zM251.4829,182.0156v3.8145h-0.8613v-4.6802h0.8613v0.8262c0.0059,-0.1143 0.0322,-0.2212 0.0791,-0.3208c0.0469,-0.1026 0.1084,-0.1905 0.1846,-0.2637c0.0791,-0.0762 0.1699,-0.1348 0.2724,-0.1758c0.1026,-0.0439 0.2124,-0.0659 0.3296,-0.0659h0.9185c0.1201,0 0.2314,0.0234 0.334,0.0703c0.1054,0.044 0.1977,0.1055 0.2768,0.1846c0.0791,0.0762 0.1407,0.167 0.1846,0.2724c0.0469,0.1055 0.0703,0.2183 0.0703,0.3384v0.791h-0.8657v-0.791zM255.2095,183.7866c0,-0.1201 0.0219,-0.2314 0.0659,-0.334c0.0469,-0.1054 0.1084,-0.1977 0.1846,-0.2768c0.0791,-0.0791 0.1713,-0.1406 0.2768,-0.1846c0.1055,-0.0469 0.2168,-0.0703 0.334,-0.0703h2.2324v-0.9053h-2.8257v-0.8657h2.8257c0.1201,0 0.2329,0.0234 0.3384,0.0703c0.1055,0.044 0.1963,0.1055 0.2725,0.1846c0.0791,0.0762 0.1406,0.167 0.1845,0.2724c0.0469,0.1055 0.0703,0.2183 0.0703,0.3384v3.8145h-0.8657v-0.791c-0.0088,0.1084 -0.0381,0.2109 -0.0879,0.3076c-0.0498,0.0967 -0.1142,0.1816 -0.1933,0.2549c-0.0762,0.0703 -0.1641,0.1259 -0.2637,0.167c-0.0996,0.041 -0.2051,0.0615 -0.3164,0.0615h-1.3711c-0.1172,0 -0.2285,-0.022 -0.334,-0.0659c-0.1055,-0.0469 -0.1977,-0.1084 -0.2768,-0.1846c-0.0762,-0.0791 -0.1377,-0.1714 -0.1846,-0.2769c-0.044,-0.1054 -0.0659,-0.2182 -0.0659,-0.3383zM256.0708,184.9644h2.2324v-1.1778h-2.2324zM264.7544,184.9644c0,0.1201 -0.0234,0.2329 -0.0703,0.3383c-0.044,0.1055 -0.1055,0.1978 -0.1846,0.2769c-0.0762,0.0762 -0.167,0.1377 -0.2724,0.1846c-0.1055,0.0439 -0.2183,0.0659 -0.3384,0.0659h-2.4126v1.8896h-0.8614v-6.5698h0.8614v0.791c0.0088,-0.1113 0.0381,-0.2138 0.0879,-0.3076c0.0498,-0.0967 0.1128,-0.1802 0.1889,-0.2505c0.0762,-0.0732 0.1641,-0.1304 0.2637,-0.1714c0.1025,-0.041 0.2109,-0.0615 0.3252,-0.0615h1.5469c0.1201,0 0.2329,0.0234 0.3384,0.0703c0.1054,0.044 0.1962,0.1055 0.2724,0.1846c0.0791,0.0762 0.1406,0.167 0.1846,0.2724c0.0469,0.1055 0.0703,0.2183 0.0703,0.3384zM263.8887,184.9644v-2.9488h-2.4126v2.9488zM270.3354,185.8301h-0.8657v-3.8145h-2.4126v3.8145h-0.8613v-6.482h0.8613v2.628c0.0059,-0.1143 0.0323,-0.2212 0.0791,-0.3208c0.0469,-0.1026 0.1084,-0.1905 0.1846,-0.2637c0.0791,-0.0762 0.1699,-0.1348 0.2725,-0.1758c0.1025,-0.0439 0.2124,-0.0659 0.3296,-0.0659h1.5468c0.1201,0 0.2329,0.0234 0.3384,0.0703c0.1055,0.044 0.1963,0.1055 0.2725,0.1846c0.0791,0.0762 0.1406,0.167 0.1845,0.2724c0.0469,0.1055 0.0703,0.2183 0.0703,0.3384zM272.6865,181.1499v4.6802h-0.8657v-4.6802zM271.7769,179.3481h0.9536v0.9009h-0.9536zM275.0376,182.0156v2.9488h2.2324v-0.7911h0.8657v0.7911c0,0.1201 -0.0234,0.2329 -0.0703,0.3383c-0.0439,0.1055 -0.1054,0.1978 -0.1845,0.2769c-0.0762,0.0762 -0.167,0.1377 -0.2725,0.1846c-0.1055,0.0439 -0.2183,0.0659 -0.3384,0.0659h-2.2324c-0.1172,0 -0.2285,-0.022 -0.334,-0.0659c-0.1055,-0.0469 -0.1977,-0.1084 -0.2768,-0.1846c-0.0762,-0.0791 -0.1377,-0.1714 -0.1846,-0.2769c-0.044,-0.1054 -0.0659,-0.2182 -0.0659,-0.3383v-2.9488c0,-0.1201 0.0219,-0.2329 0.0659,-0.3384c0.0469,-0.1054 0.1084,-0.1962 0.1846,-0.2724c0.0791,-0.0791 0.1713,-0.1406 0.2768,-0.1846c0.1055,-0.0469 0.2168,-0.0703 0.334,-0.0703h2.2324c0.1201,0 0.2329,0.0234 0.3384,0.0703c0.1055,0.044 0.1963,0.1055 0.2725,0.1846c0.0791,0.0762 0.1406,0.167 0.1845,0.2724c0.0469,0.1055 0.0703,0.2183 0.0703,0.3384v0.791h-0.8657v-0.791zM282.4072,184.9644v-1.0855h-2.0522c-0.1201,0 -0.2329,-0.022 -0.3384,-0.0659c-0.1055,-0.0469 -0.1978,-0.1084 -0.2769,-0.1846c-0.0761,-0.0791 -0.1376,-0.1714 -0.1845,-0.2768c-0.044,-0.1055 -0.0659,-0.2183 -0.0659,-0.3384v-0.9976c0,-0.1201 0.0219,-0.2329 0.0659,-0.3384c0.0469,-0.1054 0.1084,-0.1962 0.1845,-0.2724c0.0791,-0.0791 0.1714,-0.1406 0.2769,-0.1846c0.1055,-0.0469 0.2183,-0.0703 0.3384,-0.0703h2.7378v0.8657h-2.7378v0.9976h2.0522c0.1201,0 0.2315,0.0234 0.334,0.0703c0.1055,0.0439 0.1978,0.1055 0.2769,0.1846c0.0791,0.0761 0.1406,0.167 0.1845,0.2724c0.0469,0.1055 0.0703,0.2183 0.0703,0.3384v1.0855c0,0.1201 -0.0234,0.2329 -0.0703,0.3383c-0.0439,0.1055 -0.1054,0.1978 -0.1845,0.2769c-0.0791,0.0762 -0.1714,0.1377 -0.2769,0.1846c-0.1025,0.0439 -0.2139,0.0659 -0.334,0.0659h-2.9179v-0.8657z" fill="#000000"/><path d="M227.0542,169.84799l-0.0018,-0.00181l0.0716,-0.06981zM223.7633,169.4292v-0.1h0.1v0.1zM223.8633,174.0292h-0.1v-0.1h0.1zM222.9624,174.93008h-0.1v-0.1h0.1zM222.8624,168.52832v-0.1h0.1v0.1zM227.0405,168.78011l-0.0013,-0.00045l0.0365,-0.09314zM227.6999,169.20162l-0.0011,-0.00107l0.0712,-0.07018zM228.1206,169.86081l-0.0003,-0.00088l0.0936,-0.03522zM228.1203,173.49847l0.0003,-0.00088l0.0933,0.0361zM227.1118,174.76953l-0.0006,0.00021l-0.0355,-0.09347zM226.166,173.8292c0.4011,0 0.6946,-0.10759 0.8961,-0.30909l0.1414,0.14142c-0.2496,0.24967 -0.6006,0.36767 -1.0375,0.36767zM227.0621,173.52011c0.2015,-0.2015 0.3091,-0.49504 0.3091,-0.89609h0.2c0,0.43684 -0.118,0.78784 -0.3677,1.03751zM227.3712,172.62402v-1.88964h0.2v1.88964zM227.3712,170.73438c0,-0.19565 -0.028,-0.36688 -0.0819,-0.51515l0.188,-0.06835c0.0633,0.174 0.0939,0.36899 0.0939,0.5835zM227.2893,170.21923c-0.0538,-0.14806 -0.1324,-0.27119 -0.2351,-0.37124l0.1396,-0.14325c0.1258,0.12261 0.2201,0.27195 0.2835,0.44614zM227.0524,169.84615c-0.1001,-0.10268 -0.2232,-0.18124 -0.3712,-0.23508l0.0683,-0.18796c0.1742,0.06335 0.3235,0.15764 0.4461,0.28347zM226.6812,169.61107c-0.1483,-0.05392 -0.3195,-0.08187 -0.5152,-0.08187v-0.2c0.2145,0 0.4095,0.03064 0.5835,0.09391zM226.166,169.5292h-2.3027v-0.2h2.3027zM223.9633,169.4292v4.5h-0.2v-4.5zM223.8633,173.8292h2.3027v0.2h-2.3027zM222.8624,174.83008v-6.30176h0.2v6.30176zM222.9624,168.42832h3.2036v0.2h-3.2036zM226.166,168.42832c0.3474,0 0.6632,0.05439 0.9461,0.16508l-0.0729,0.18625c-0.2561,-0.10025 -0.5467,-0.15133 -0.8732,-0.15133zM227.1109,168.59293c0.285,0.10727 0.529,0.26285 0.7304,0.46727l-0.1425,0.14034c-0.1796,-0.1823 -0.3984,-0.32261 -0.6583,-0.42043zM227.8402,169.05912c0.2044,0.20133 0.36,0.44534 0.4673,0.73036l-0.1872,0.07045c-0.0978,-0.2599 -0.2382,-0.47878 -0.4204,-0.65831zM228.3071,169.78861c0.1105,0.2855 0.165,0.60118 0.165,0.94577h-0.2c0,-0.32339 -0.0511,-0.61415 -0.1515,-0.87357zM228.4721,170.73438v1.88964h-0.2v-1.88964zM228.4721,172.62402c0,0.34459 -0.0545,0.66027 -0.165,0.94577l-0.1865,-0.0722c0.1004,-0.25942 0.1515,-0.55018 0.1515,-0.87357zM228.3075,173.56891c-0.1073,0.28491 -0.2627,0.53016 -0.4668,0.73422l-0.1414,-0.14142c0.1827,-0.18265 0.3231,-0.40323 0.421,-0.66324zM227.8407,174.30313c-0.2011,0.20109 -0.4446,0.35633 -0.7289,0.4664l-0.0722,-0.18652c0.2606,-0.10087 0.4799,-0.24152 0.6597,-0.4213zM227.1112,174.76973c-0.2826,0.10752 -0.5981,0.16035 -0.9452,0.16035v-0.2c0.3268,0 0.6177,-0.04972 0.8741,-0.14728zM226.166,174.93008h-3.2036v-0.2h3.2036zM230.6396,170.0499h0.1v0.1h-0.1zM230.7396,174.83008v0.1h-0.1v-0.1zM229.7739,174.93008h-0.1v-0.1h0.1zM229.6739,170.1499v-0.1h0.1v0.1zM229.63,168.34814v-0.1h0.1v0.1zM230.6836,168.24814h0.1v0.1h-0.1zM230.7836,169.24902v0.1h-0.1v-0.1zM229.73,169.34902h-0.1v-0.1h0.1zM230.7396,170.1499v4.68018h-0.2v-4.68018zM230.6396,174.93008h-0.8657v-0.2h0.8657zM229.6739,174.83008v-4.68018h0.2v4.68018zM229.7739,170.0499h0.8657v0.2h-0.8657zM229.73,168.24814h0.9536v0.2h-0.9536zM230.7836,168.34814v0.90088h-0.2v-0.90088zM230.6836,169.34902h-0.9536v-0.2h0.9536zM229.63,169.24902v-0.90088h0.2v0.90088zM235.0551,173.96436v0.1h-0.1v-0.1zM234.9551,172.77891h0.1v0.1h-0.1zM232.526,172.9053l-0.0022,-0.00091l0.0407,-0.0914zM232.2182,172.70045l-0.0027,-0.00262l0.0721,-0.06941zM232.0116,172.39218l-0.0009,-0.00215l0.0923,-0.03847zM232.0107,170.63878l0.0009,-0.00216l0.0914,0.04063zM232.6051,170.3116l-0.0022,0.00095l-0.0384,-0.09234zM235.6406,170.0499h0.1v0.1h-0.1zM235.7406,171.01562v0.10001h-0.1v-0.10001zM232.8028,171.01562v-0.1h0.1v0.1zM232.9028,172.11318h-0.1v-0.1h0.1zM235.2506,172.1758l-0.0031,-0.0013l0.0416,-0.091zM235.4966,172.3401l-0.0014,-0.00131l0.0707,-0.07072zM235.6591,172.58114l-0.0009,-0.00214l0.0923,-0.03847zM235.6582,174.26427l0.0009,-0.00216l0.0914,0.04062zM235.6366,174.6503l-0.0013,0.00133l-0.0694,-0.07204zM235.3297,174.85554l-0.0012,0.00054l-0.0394,-0.09192zM232.0371,174.93008h-0.1v-0.1h0.1zM231.9371,173.96436v-0.1h0.1v0.1zM234.8551,173.96436v-1.08545h0.2v1.08545zM234.9551,172.97891h-2.0523v-0.2h2.0523zM232.9028,172.97891c-0.1326,0 -0.2585,-0.02433 -0.3768,-0.07361l0.0769,-0.18462c0.0927,0.03861 0.1923,0.05823 0.2999,0.05823zM232.5238,172.90437c-0.1155,-0.05136 -0.2177,-0.11927 -0.3056,-0.20392l0.1388,-0.14406c0.0703,0.06769 0.1527,0.12283 0.2481,0.16522zM232.2156,172.69778c-0.0847,-0.08791 -0.1526,-0.19005 -0.204,-0.3056l0.1828,-0.08123c0.0424,0.09538 0.0975,0.17781 0.1652,0.2481zM232.0107,172.39002c-0.0493,-0.11827 -0.0736,-0.2442 -0.0736,-0.37684h0.2c0,0.10761 0.0196,0.20726 0.0582,0.29992zM231.9371,172.01318v-0.99756h0.2v0.99756zM231.9371,171.01562c0,-0.13263 0.0243,-0.25856 0.0736,-0.37684l0.1846,0.07693c-0.0386,0.09266 -0.0582,0.19231 -0.0582,0.29991zM232.0116,170.63663c0.0515,-0.11588 0.1198,-0.2171 0.2053,-0.30256l0.1414,0.14143c-0.0669,0.06689 -0.1216,0.1473 -0.1639,0.24236zM232.2169,170.33407c0.0885,-0.08853 0.1918,-0.1573 0.3091,-0.20616l0.0769,0.18461c-0.0937,0.03903 -0.1749,0.09331 -0.2446,0.16298zM232.5238,170.12883c0.1188,-0.05279 0.2455,-0.07893 0.379,-0.07893v0.2c-0.1067,0 -0.2056,0.02074 -0.2977,0.0617zM232.9028,170.0499h2.7378v0.2h-2.7378zM235.7406,170.1499v0.86572h-0.2v-0.86572zM235.6406,171.11563h-2.7378v-0.20001h2.7378zM233.0028,171.01562v0.99756h-0.2v-0.99756zM232.9028,171.91318h2.0523v0.2h-2.0523zM234.9551,171.91318c0.1335,0 0.2591,0.02614 0.3755,0.07937l-0.0831,0.18189c-0.0887,-0.04052 -0.1857,-0.06126 -0.2924,-0.06126zM235.3275,171.99119c0.1173,0.04886 0.2206,0.11763 0.3091,0.20617l-0.1414,0.14142c-0.0697,-0.06967 -0.1509,-0.12394 -0.2446,-0.16298zM235.6353,172.19603c0.0893,0.08606 0.1585,0.18845 0.2075,0.30604l-0.1846,0.07692c-0.0389,-0.09335 -0.0928,-0.17261 -0.1616,-0.23889zM235.8419,172.49991c0.0528,0.11878 0.0789,0.24547 0.0789,0.379h-0.2c0,-0.10671 -0.0207,-0.20561 -0.0617,-0.29777zM235.9208,172.87891v1.08545h-0.2v-1.08545zM235.9208,173.96436c0,0.13352 -0.0261,0.26021 -0.0789,0.37899l-0.1828,-0.08123c0.041,-0.09216 0.0617,-0.19106 0.0617,-0.29776zM235.8428,174.3412c-0.0489,0.11726 -0.1176,0.22056 -0.2062,0.3091l-0.1414,-0.14142c0.0697,-0.06967 0.1239,-0.15093 0.163,-0.24461zM235.6353,174.65162c-0.0879,0.08465 -0.1901,0.15256 -0.3056,0.20392l-0.0813,-0.18276c0.0954,-0.04239 0.1779,-0.09753 0.2482,-0.16522zM235.3285,174.85607c-0.116,0.04968 -0.2408,0.07401 -0.3734,0.07401v-0.2c0.1076,0 0.2054,-0.01962 0.2946,-0.05783zM234.9551,174.93008h-2.918v-0.2h2.918zM231.9371,174.83008v-0.86572h0.2v0.86572zM232.0371,173.86436h2.918v0.2h-2.918zM237.1483,172.41324l0.0005,-0.00122l0.0914,0.04062zM237.3528,172.10642l0.0013,-0.00136l0.0707,0.07072zM237.7423,172.08259l-0.0022,0.00095l-0.0384,-0.09233zM240.3681,171.9209v0.1h-0.1v-0.1zM240.2681,170.91562h0.1v0.1h-0.1zM237.4424,171.11563h-0.1v-0.10001h0.1zM237.3424,170.1499v-0.1h0.1v0.1zM240.568,170.31252l-0.0022,-0.0009l0.0406,-0.09141zM240.8095,170.47682l-0.0027,-0.00262l0.0721,-0.06941zM240.9721,170.71786l-0.001,-0.00214l0.0924,-0.03847zM241.2338,174.83008v0.1h-0.1v-0.1zM240.2681,174.93008h-0.1v-0.1h0.1zM240.1684,174.03098l0.1997,0.00808h-0.1zM240.0548,174.67494l-0.0002,0.0001l-0.0678,-0.07348zM237.6632,174.85647l-0.0022,-0.0009l0.0407,-0.09141zM237.3554,174.65162l-0.0027,-0.00262l0.0721,-0.06941zM237.1489,174.34335l-0.001,-0.00214l0.0923,-0.03848zM238.0356,174.06436h-0.1v-0.1h0.1zM240.3681,173.96436v0.1h-0.1v-0.1zM240.2681,172.68662h0.1v0.1h-0.1zM237.9356,172.78662v-0.1h0.1v0.1zM237.0743,172.78662c0,-0.13261 0.0243,-0.25746 0.074,-0.37338l0.1838,0.07879c-0.0382,0.08916 -0.0578,0.18697 -0.0578,0.29459zM237.1489,172.41202c0.0513,-0.11555 0.1192,-0.2177 0.2039,-0.3056l0.144,0.13873c-0.0677,0.07029 -0.1228,0.15272 -0.1652,0.2481zM237.3541,172.10507c0.0885,-0.08854 0.1918,-0.15731 0.3091,-0.20617l0.0769,0.18462c-0.0937,0.03903 -0.1749,0.09331 -0.2446,0.16297zM237.661,171.89983c0.1185,-0.05265 0.2437,-0.07893 0.3746,-0.07893v0.2c-0.1034,0 -0.2008,0.02059 -0.2933,0.06169zM238.0356,171.8209h2.2325v0.2h-2.2325zM240.1681,171.9209v-0.90528h0.2v0.90528zM240.2681,171.11563h-2.8257v-0.20001h2.8257zM237.3424,171.01562v-0.86572h0.2v0.86572zM237.4424,170.0499h2.8257v0.2h-2.8257zM240.2681,170.0499c0.1335,0 0.2602,0.02614 0.379,0.07893l-0.0813,0.18277c-0.0921,-0.04096 -0.191,-0.0617 -0.2977,-0.0617zM240.6449,170.12791c0.1176,0.04899 0.22,0.11814 0.306,0.20751l-0.144,0.13873c-0.0663,-0.06884 -0.1456,-0.12273 -0.2389,-0.16163zM240.9483,170.33275c0.0893,0.08606 0.1585,0.18845 0.2075,0.30603l-0.1846,0.07693c-0.0389,-0.09335 -0.0928,-0.17261 -0.1617,-0.23889zM241.1549,170.63663c0.0527,0.11878 0.0789,0.24547 0.0789,0.37899h-0.2c0,-0.1067 -0.0207,-0.2056 -0.0617,-0.29776zM241.2338,171.01562v3.81446h-0.2v-3.81446zM241.1338,174.93008h-0.8657v-0.2h0.8657zM240.1681,174.83008v-0.79102h0.2v0.79102zM240.3677,174.04714c-0.0098,0.12156 -0.0428,0.23692 -0.0986,0.34534l-0.1778,-0.0916c0.0437,-0.08494 0.0694,-0.17466 0.0771,-0.2699zM240.2691,174.39248c-0.0551,0.10692 -0.1266,0.20124 -0.2143,0.28246l-0.1359,-0.14675c0.0705,-0.06527 0.1279,-0.14088 0.1724,-0.22731zM240.0546,174.67504c-0.0852,0.07867 -0.1832,0.14063 -0.2934,0.18598l-0.0761,-0.18493c0.089,-0.03668 0.1668,-0.08605 0.2339,-0.14801zM239.7612,174.86102c-0.1121,0.04616 -0.2305,0.06906 -0.3545,0.06906v-0.2c0.0988,0 0.1912,-0.01812 0.2784,-0.05399zM239.4067,174.93008h-1.3711v-0.2h1.3711zM238.0356,174.93008c-0.13,0 -0.2544,-0.02446 -0.3724,-0.07361l0.0769,-0.18462c0.093,0.03874 0.1912,0.05823 0.2955,0.05823zM237.661,174.85554c-0.1155,-0.05136 -0.2177,-0.11927 -0.3056,-0.20392l0.1388,-0.14406c0.0703,0.06769 0.1527,0.12283 0.2481,0.16522zM237.3528,174.64895c-0.0847,-0.0879 -0.1526,-0.19004 -0.2039,-0.3056l0.1827,-0.08123c0.0424,0.09538 0.0975,0.17781 0.1652,0.24811zM237.1479,174.3412c-0.0493,-0.11828 -0.0736,-0.24421 -0.0736,-0.37684h0.2c0,0.1076 0.0196,0.20725 0.0582,0.29991zM237.0743,173.96436v-1.17774h0.2v1.17774zM238.0356,173.86436h2.2325v0.2h-2.2325zM240.1681,173.96436v-1.17774h0.2v1.17774zM240.2681,172.88662h-2.2325v-0.2h2.2325zM238.1356,172.78662v1.17774h-0.2v-1.17774zM246.5566,174.26427l0.0009,-0.00216l0.0914,0.04062zM246.2325,174.85554l-0.0021,0.00095l-0.0385,-0.09233zM243.0685,174.85647l-0.0022,-0.0009l0.0406,-0.09141zM242.7607,174.65162l-0.0027,-0.00262l0.0721,-0.06941zM242.5541,174.34335l-0.0009,-0.00214l0.0923,-0.03848zM242.4796,168.34814v-0.1h0.1v0.1zM243.4409,168.24814h0.1v0.1h-0.1zM243.5408,170.9812l-0.1999,-0.00513h0.1zM243.611,170.69685l-0.0005,0.00101l-0.0905,-0.04259zM243.774,170.46363l-0.0001,0.00005l-0.0693,-0.07208zM244.0164,170.30773l-0.0022,0.00097l-0.0371,-0.09288zM246.1534,170.31252l-0.0021,-0.0009l0.0406,-0.09141zM246.395,170.47682l-0.0027,-0.00262l0.0721,-0.06941zM246.5575,170.71786l-0.0009,-0.00214l0.0923,-0.03847zM243.3409,171.01562v-0.1h0.1v0.1zM243.4409,174.06436h-0.1v-0.1h0.1zM245.9535,173.96436v0.1h-0.1v-0.1zM245.8535,170.91562h0.1v0.1h-0.1zM246.8192,173.96436c0,0.13352 -0.0261,0.26021 -0.0789,0.37899l-0.1828,-0.08123c0.041,-0.09216 0.0617,-0.19106 0.0617,-0.29776zM246.7412,174.3412c-0.0488,0.11726 -0.1176,0.22056 -0.2061,0.3091l-0.1415,-0.14142c0.0697,-0.06967 0.124,-0.15093 0.163,-0.24461zM246.5351,174.6503c-0.0855,0.08545 -0.1867,0.15374 -0.3026,0.20524l-0.0812,-0.18276c0.095,-0.04225 0.1755,-0.09701 0.2423,-0.1639zM246.2304,174.85647c-0.1183,0.04928 -0.2443,0.07361 -0.3769,0.07361v-0.2c0.1076,0 0.2073,-0.01962 0.2999,-0.05823zM245.8535,174.93008h-2.4126v-0.2h2.4126zM243.4409,174.93008c-0.13,0 -0.2545,-0.02446 -0.3724,-0.07361l0.0769,-0.18462c0.093,0.03874 0.1912,0.05823 0.2955,0.05823zM243.0663,174.85554c-0.1155,-0.05136 -0.2177,-0.11927 -0.3056,-0.20392l0.1387,-0.14406c0.0703,0.06769 0.1528,0.12283 0.2481,0.16522zM242.758,174.64895c-0.0846,-0.0879 -0.1525,-0.19004 -0.2039,-0.3056l0.1828,-0.08123c0.0424,0.09538 0.0975,0.17781 0.1652,0.24811zM242.5532,174.3412c-0.0493,-0.11828 -0.0736,-0.24421 -0.0736,-0.37684h0.2c0,0.1076 0.0196,0.20725 0.0582,0.29991zM242.4796,173.96436v-5.61622h0.2v5.61622zM242.5796,168.24814h0.8613v0.2h-0.8613zM243.5409,168.34814v2.62793h-0.2v-2.62793zM243.341,170.97095c0.0065,-0.12671 0.0359,-0.24643 0.0885,-0.35826l0.181,0.08516c-0.0411,0.08739 -0.0645,0.18155 -0.0697,0.28335zM243.4291,170.6137c0.0517,-0.11321 0.1203,-0.21165 0.2062,-0.29418l0.1386,0.14416c-0.0665,0.06396 -0.1209,0.1413 -0.1629,0.23317zM243.6352,170.31957c0.0885,-0.08518 0.1903,-0.15082 0.3047,-0.1966l0.0743,0.1857c-0.0906,0.03625 -0.1705,0.0878 -0.2402,0.15496zM243.9377,170.12391c0.1156,-0.04955 0.2389,-0.07401 0.3689,-0.07401v0.2c-0.1043,0 -0.2007,0.01949 -0.2902,0.05783zM244.3066,170.0499h1.5469v0.2h-1.5469zM245.8535,170.0499c0.1335,0 0.2602,0.02614 0.379,0.07893l-0.0812,0.18277c-0.0922,-0.04096 -0.1911,-0.0617 -0.2978,-0.0617zM246.2304,170.12791c0.1175,0.04899 0.2199,0.11814 0.306,0.20751l-0.1441,0.13873c-0.0663,-0.06884 -0.1455,-0.12273 -0.2389,-0.16163zM246.5337,170.33275c0.0894,0.08606 0.1585,0.18845 0.2075,0.30603l-0.1846,0.07693c-0.0389,-0.09335 -0.0928,-0.17261 -0.1616,-0.23889zM246.7403,170.63663c0.0528,0.11878 0.0789,0.24547 0.0789,0.37899h-0.2c0,-0.1067 -0.0207,-0.2056 -0.0617,-0.29776zM246.8192,171.01562v2.94874h-0.2v-2.94874zM243.5409,171.01562v2.94874h-0.2v-2.94874zM243.4409,173.86436h2.4126v0.2h-2.4126zM245.7535,173.96436v-2.94874h0.2v2.94874zM245.8535,171.11563h-2.4126v-0.20001h2.4126zM249.022,168.24814h0.1v0.1h-0.1zM249.122,174.83008v0.1h-0.1v-0.1zM248.1606,174.93008h-0.1v-0.1h0.1zM248.0606,168.34814v-0.1h0.1v0.1zM249.122,168.34814v6.48194h-0.2v-6.48194zM249.022,174.93008h-0.8614v-0.2h0.8614zM248.0606,174.83008v-6.48194h0.2v6.48194zM248.1606,168.24814h0.8614v0.2h-0.8614zM254.5229,172.93164v0.1h-0.1v-0.1zM251.2247,172.93164v-0.1h0.1v0.1zM251.3247,174.06436h-0.1v-0.1h0.1zM254.4229,173.86436h0.1v0.1h-0.1zM254.5229,174.83008v0.1h-0.1v-0.1zM250.9523,174.85647l-0.0022,-0.0009l0.0406,-0.09141zM250.6445,174.65162l-0.0027,-0.00262l0.0721,-0.06941zM250.4379,174.34335l-0.0009,-0.00214l0.0923,-0.03848zM250.437,170.63878l0.0009,-0.00216l0.0914,0.04063zM251.0313,170.3116l-0.0021,0.00095l-0.0385,-0.09234zM253.857,170.31252l-0.0021,-0.0009l0.0406,-0.09141zM254.0986,170.47682l-0.0027,-0.00262l0.0721,-0.06941zM254.2612,170.71786l-0.001,-0.00214l0.0923,-0.03847zM251.2247,171.01562v-0.1h0.1v0.1zM251.3247,172.16592h-0.1v-0.1h0.1zM253.6571,172.06592v0.1h-0.1v-0.1zM253.5571,170.91562h0.1v0.1h-0.1zM254.4229,173.03164h-3.0982v-0.2h3.0982zM251.4247,172.93164v1.03272h-0.2v-1.03272zM251.3247,173.86436h3.0982v0.2h-3.0982zM254.5229,173.96436v0.86572h-0.2v-0.86572zM254.4229,174.93008h-3.0982v-0.2h3.0982zM251.3247,174.93008c-0.13,0 -0.2545,-0.02446 -0.3724,-0.07361l0.0769,-0.18462c0.093,0.03874 0.1912,0.05823 0.2955,0.05823zM250.9501,174.85554c-0.1155,-0.05136 -0.2177,-0.11927 -0.3056,-0.20392l0.1387,-0.14406c0.0703,0.06769 0.1528,0.12283 0.2481,0.16522zM250.6418,174.64895c-0.0846,-0.0879 -0.1525,-0.19004 -0.2039,-0.3056l0.1828,-0.08123c0.0424,0.09538 0.0975,0.17781 0.1652,0.24811zM250.437,174.3412c-0.0493,-0.11828 -0.0736,-0.24421 -0.0736,-0.37684h0.2c0,0.1076 0.0196,0.20725 0.0582,0.29991zM250.3634,173.96436v-2.94874h0.2v2.94874zM250.3634,171.01562c0,-0.13263 0.0243,-0.25856 0.0736,-0.37684l0.1846,0.07693c-0.0386,0.09266 -0.0582,0.19231 -0.0582,0.29991zM250.4379,170.63663c0.0515,-0.11588 0.1198,-0.2171 0.2053,-0.30256l0.1414,0.14143c-0.0669,0.06689 -0.1217,0.1473 -0.1639,0.24236zM250.6432,170.33407c0.0885,-0.08853 0.1918,-0.1573 0.3091,-0.20616l0.0769,0.18461c-0.0937,0.03903 -0.175,0.09331 -0.2446,0.16298zM250.9501,170.12883c0.1185,-0.05264 0.2436,-0.07893 0.3746,-0.07893v0.2c-0.1034,0 -0.2009,0.02059 -0.2934,0.0617zM251.3247,170.0499h2.2324v0.2h-2.2324zM253.5571,170.0499c0.1336,0 0.2602,0.02614 0.379,0.07893l-0.0812,0.18277c-0.0922,-0.04096 -0.1911,-0.0617 -0.2978,-0.0617zM253.934,170.12791c0.1176,0.04899 0.2199,0.11814 0.306,0.20751l-0.1441,0.13873c-0.0662,-0.06884 -0.1455,-0.12273 -0.2389,-0.16163zM254.2373,170.33275c0.0894,0.08606 0.1586,0.18845 0.2075,0.30603l-0.1846,0.07693c-0.0389,-0.09335 -0.0928,-0.17261 -0.1616,-0.23889zM254.4439,170.63663c0.0528,0.11878 0.079,0.24547 0.079,0.37899h-0.2c0,-0.1067 -0.0208,-0.2056 -0.0617,-0.29776zM254.5229,171.01562v1.91602h-0.2v-1.91602zM251.4247,171.01562v1.0503h-0.2v-1.0503zM251.3247,171.96592h2.2324v0.2h-2.2324zM253.4571,172.06592v-1.0503h0.2v1.0503zM253.5571,171.11563h-2.2324v-0.20001h2.2324zM199.6934,179.4283h0.0686l0.0247,0.064l-0.0933,0.036zM202.2168,185.7941l0.0525,0.136h-0.1458v-0.1zM201.2227,185.9301h-0.0687l-0.0247,-0.0641l0.0934,-0.0359zM200.6646,184.2799h0.0686l0.0247,0.0641l-0.0933,0.0359zM197.72796,184.344l0.02466,-0.0641h0.06867v0.1zM197.35651,185.866l-0.02466,0.0641h-0.06867v-0.1zM196.3623,185.9301h-0.14574l0.05244,-0.136l0.0933,0.036zM198.6992,179.4923l0.0247,-0.064h0.0686v0.1zM198.1641,183.579h-0.1463l0.0531,-0.1363l0.0932,0.0363zM200.4107,183.443l0.0525,0.136h-0.1458v-0.1zM199.1519,180.6654l0.0936,-0.2404l0.0929,0.2406l-0.0933,0.0361zM199.7867,179.4923l2.4301,6.3018l-0.1866,0.072l-2.4301,-6.3018zM202.1235,185.9301h-0.9008v-0.2h0.9008zM201.1293,185.866l-0.5581,-1.4502l0.1867,-0.0718l0.5581,1.4502zM200.6646,184.4799h-2.84331v-0.2h2.84331zM197.91462,184.4158l-0.55811,1.4502l-0.18665,-0.0718l0.5581,-1.4502zM197.26318,185.9301h-0.90088v-0.2h0.90088zM196.269,185.7941l2.4302,-6.3018l0.1866,0.072l-2.43019,6.3018zM198.7925,179.4283h0.9009v0.2h-0.9009zM198.1641,183.379h2.1533v0.2h-2.1533zM200.2241,183.515l-1.0723,-2.7773l0.1866,-0.0721l1.0723,2.7774zM199.3383,180.7379l-1.081,2.7774l-0.1864,-0.0726l1.081,-2.7773zM203.0903,181.6388l0.0009,-0.0022l0.0914,0.0406zM203.6847,181.3116l-0.0022,0.0009l-0.0385,-0.0923zM206.4906,181.1499v0.1h-0.1v-0.1zM206.2906,179.3481v-0.1h0.1v0.1zM207.2563,179.2481h0.1v0.1h-0.1zM207.3563,185.8301v0.1h-0.1v-0.1zM206.3906,185.9301h-0.1v-0.1h0.1zM206.291,185.031l0.1996,0.0081h-0.1zM206.1773,185.6749l-0.0001,0.0001l-0.0678,-0.0734zM203.6056,185.8565l-0.0022,-0.0009l0.0406,-0.0914zM203.2978,185.6516l-0.0027,-0.0026l0.0721,-0.0694zM203.0912,185.3433l-0.0009,-0.0021l0.0923,-0.0385zM203.978,185.0644h-0.1v-0.1h0.1zM206.4906,184.9644v0.1h-0.1v-0.1zM206.3906,181.9156h0.1v0.1h-0.1zM203.878,182.0156v-0.1h0.1v0.1zM203.0167,182.0156c0,-0.1326 0.0243,-0.2585 0.0736,-0.3768l0.1846,0.0769c-0.0386,0.0927 -0.0582,0.1923 -0.0582,0.2999zM203.0912,181.6366c0.0515,-0.1158 0.1198,-0.2171 0.2053,-0.3025l0.1414,0.1414c-0.0669,0.0669 -0.1217,0.1473 -0.1639,0.2424zM203.2965,181.3341c0.0885,-0.0886 0.1918,-0.1573 0.3091,-0.2062l0.0769,0.1846c-0.0937,0.0391 -0.1749,0.0933 -0.2446,0.163zM203.6034,181.1288c0.1185,-0.0526 0.2437,-0.0789 0.3746,-0.0789v0.2c-0.1034,0 -0.2009,0.0206 -0.2933,0.0617zM203.978,181.0499h2.4126v0.2h-2.4126zM206.2906,181.1499v-1.8018h0.2v1.8018zM206.3906,179.2481h0.8657v0.2h-0.8657zM207.3563,179.3481v6.482h-0.2v-6.482zM207.2563,185.9301h-0.8657v-0.2h0.8657zM206.2906,185.8301v-0.791h0.2v0.791zM206.4903,185.0471c-0.0099,0.1216 -0.0428,0.237 -0.0987,0.3454l-0.1778,-0.0916c0.0438,-0.085 0.0694,-0.1747 0.0772,-0.2699zM206.3916,185.3925c-0.0551,0.1069 -0.1266,0.2012 -0.2143,0.2824l-0.1359,-0.1467c0.0705,-0.0653 0.1279,-0.1409 0.1724,-0.2273zM206.1772,185.675c-0.0852,0.0787 -0.1833,0.1407 -0.2934,0.186l-0.0762,-0.1849c0.0891,-0.0367 0.1668,-0.0861 0.2339,-0.148zM205.8838,185.861c-0.1121,0.0462 -0.2306,0.0691 -0.3545,0.0691v-0.2c0.0987,0 0.1912,-0.0181 0.2783,-0.054zM205.5293,185.9301h-1.5513v-0.2h1.5513zM203.978,185.9301c-0.13,0 -0.2544,-0.0245 -0.3724,-0.0736l0.0769,-0.1846c0.093,0.0387 0.1912,0.0582 0.2955,0.0582zM203.6034,185.8555c-0.1155,-0.0513 -0.2177,-0.1192 -0.3056,-0.2039l0.1388,-0.144c0.0702,0.0677 0.1527,0.1228 0.2481,0.1652zM203.2952,185.649c-0.0847,-0.088 -0.1526,-0.1901 -0.204,-0.3057l0.1828,-0.0812c0.0424,0.0954 0.0975,0.1778 0.1652,0.2481zM203.0903,185.3412c-0.0493,-0.1183 -0.0736,-0.2442 -0.0736,-0.3768h0.2c0,0.1076 0.0196,0.2072 0.0582,0.2999zM203.0167,184.9644v-2.9488h0.2v2.9488zM203.978,184.8644h2.4126v0.2h-2.4126zM206.2906,184.9644v-2.9488h0.2v2.9488zM206.3906,182.1156h-2.4126v-0.2h2.4126zM204.078,182.0156v2.9488h-0.2v-2.9488zM210.0293,185.9301h-0.0677l-0.0252,-0.0629l0.0929,-0.0371zM208.0644,181.187l-0.0549,-0.1371h0.1477v0.1zM209.0581,181.0499h0.0684l0.0248,0.0637l-0.0932,0.0363zM210.5707,184.8294l-0.0933,0.2386l-0.093,-0.2387l0.0931,-0.0363zM211.8082,181.1135l0.0249,-0.0636h0.0683v0.1zM212.8022,181.0499h0.1477l-0.0548,0.1371l-0.0929,-0.0371zM211.023,185.8672l-0.0251,0.0629h-0.0677v-0.1zM209.9364,185.8672l-1.872,-4.6802l0.1857,-0.0742l1.872,4.6801zM208.1572,181.0499h0.9009v0.2h-0.9009zM209.1513,181.1136l1.4194,3.6431l-0.1863,0.0726l-1.4195,-3.6431zM210.3844,184.7566l1.4238,-3.6431l0.1863,0.0728l-1.4238,3.6431zM211.9014,181.0499h0.9008v0.2h-0.9008zM212.8951,181.187l-1.8721,4.6802l-0.1857,-0.0743l1.8721,-4.6801zM210.9302,185.9301h-0.9009v-0.2h0.9009zM213.6815,183.4132l0.0005,-0.0012l0.0914,0.0406zM213.886,183.1064l0.0013,-0.0013l0.0707,0.0707zM214.2755,183.0826l-0.0022,0.0009l-0.0384,-0.0923zM216.9013,182.9209v0.1h-0.1v-0.1zM216.8013,181.9156h0.1v0.1h-0.1zM213.9756,182.1156h-0.1v-0.1h0.1zM213.8756,181.1499v-0.1h0.1v0.1zM217.1012,181.3125l-0.0022,-0.0009l0.0406,-0.0914zM217.3427,181.4768l-0.0027,-0.0026l0.0721,-0.0694zM217.5053,181.7179l-0.001,-0.0022l0.0924,-0.0385zM217.767,185.8301v0.1h-0.1v-0.1zM216.8013,185.9301h-0.1v-0.1h0.1zM216.7016,185.031l0.1997,0.0081h-0.1zM216.588,185.6749l-0.0002,0.0001l-0.0678,-0.0734zM214.1964,185.8565l-0.0022,-0.0009l0.0407,-0.0914zM213.8886,185.6516l-0.0027,-0.0026l0.0721,-0.0694zM213.6821,185.3433l-0.001,-0.0021l0.0923,-0.0385zM214.5688,185.0644h-0.1v-0.1h0.1zM216.9013,184.9644v0.1h-0.1v-0.1zM216.8013,183.6866h0.1v0.1h-0.1zM214.4688,183.7866v-0.1h0.1v0.1zM213.6075,183.7866c0,-0.1326 0.0243,-0.2574 0.074,-0.3734l0.1839,0.0788c-0.0383,0.0892 -0.0579,0.187 -0.0579,0.2946zM213.6821,183.412c0.0513,-0.1155 0.1192,-0.2177 0.2039,-0.3056l0.144,0.1387c-0.0677,0.0703 -0.1228,0.1528 -0.1652,0.2482zM213.8873,183.1051c0.0885,-0.0886 0.1918,-0.1573 0.3091,-0.2062l0.0769,0.1846c-0.0937,0.0391 -0.1749,0.0933 -0.2446,0.163zM214.1942,182.8998c0.1185,-0.0526 0.2437,-0.0789 0.3746,-0.0789v0.2c-0.1034,0 -0.2008,0.0206 -0.2933,0.0617zM214.5688,182.8209h2.2325v0.2h-2.2325zM216.7013,182.9209v-0.9053h0.2v0.9053zM216.8013,182.1156h-2.8257v-0.2h2.8257zM213.8756,182.0156v-0.8657h0.2v0.8657zM213.9756,181.0499h2.8257v0.2h-2.8257zM216.8013,181.0499c0.1335,0 0.2602,0.0261 0.379,0.0789l-0.0813,0.1828c-0.0921,-0.041 -0.191,-0.0617 -0.2977,-0.0617zM217.1781,181.1279c0.1176,0.049 0.22,0.1182 0.306,0.2075l-0.144,0.1387c-0.0663,-0.0688 -0.1456,-0.1227 -0.2389,-0.1616zM217.4815,181.3328c0.0893,0.086 0.1585,0.1884 0.2075,0.306l-0.1846,0.0769c-0.0389,-0.0933 -0.0928,-0.1726 -0.1617,-0.2389zM217.6881,181.6366c0.0528,0.1188 0.0789,0.2455 0.0789,0.379h-0.2c0,-0.1067 -0.0207,-0.2056 -0.0617,-0.2977zM217.767,182.0156v3.8145h-0.2v-3.8145zM217.667,185.9301h-0.8657v-0.2h0.8657zM216.7013,185.8301v-0.791h0.2v0.791zM216.9009,185.0471c-0.0098,0.1216 -0.0428,0.237 -0.0986,0.3454l-0.1778,-0.0916c0.0437,-0.085 0.0694,-0.1747 0.0771,-0.2699zM216.8023,185.3925c-0.0551,0.1069 -0.1266,0.2012 -0.2143,0.2824l-0.1359,-0.1467c0.0705,-0.0653 0.1279,-0.1409 0.1724,-0.2273zM216.5878,185.675c-0.0852,0.0787 -0.1832,0.1407 -0.2934,0.186l-0.0761,-0.1849c0.0891,-0.0367 0.1668,-0.0861 0.2339,-0.148zM216.2944,185.861c-0.1121,0.0462 -0.2305,0.0691 -0.3545,0.0691v-0.2c0.0988,0 0.1912,-0.0181 0.2784,-0.054zM215.9399,185.9301h-1.3711v-0.2h1.3711zM214.5688,185.9301c-0.13,0 -0.2544,-0.0245 -0.3724,-0.0736l0.0769,-0.1846c0.093,0.0387 0.1912,0.0582 0.2955,0.0582zM214.1942,185.8555c-0.1155,-0.0513 -0.2176,-0.1192 -0.3056,-0.2039l0.1388,-0.144c0.0703,0.0677 0.1527,0.1228 0.2481,0.1652zM213.886,185.649c-0.0847,-0.088 -0.1526,-0.1901 -0.2039,-0.3057l0.1827,-0.0812c0.0424,0.0954 0.0975,0.1778 0.1652,0.2481zM213.6811,185.3412c-0.0493,-0.1183 -0.0736,-0.2442 -0.0736,-0.3768h0.2c0,0.1076 0.0196,0.2072 0.0582,0.2999zM213.6075,184.9644v-1.1778h0.2v1.1778zM214.5688,184.8644h2.2325v0.2h-2.2325zM216.7013,184.9644v-1.1778h0.2v1.1778zM216.8013,183.8866h-2.2325v-0.2h2.2325zM214.6688,183.7866v1.1778h-0.2v-1.1778zM223.3524,185.8301v0.1h-0.1v-0.1zM222.3867,185.9301h-0.1v-0.1h0.1zM222.3867,181.9156h0.1v0.1h-0.1zM219.8741,182.0156v-0.1h0.1v0.1zM220.0741,185.8301v0.1h-0.1v-0.1zM219.1128,185.9301h-0.1v-0.1h0.1zM219.0128,181.1499v-0.1h0.1v0.1zM219.9741,181.0499h0.1v0.1h-0.1zM220.074,181.9812l-0.1999,-0.0051h0.1zM220.1442,181.6968l-0.0005,0.0011l-0.0905,-0.0426zM220.3072,181.4636l-0.0001,0.0001l-0.0693,-0.0721zM220.5496,181.3077l-0.0022,0.001l-0.0371,-0.0929zM222.6866,181.3125l-0.0021,-0.0009l0.0406,-0.0914zM222.9282,181.4768l-0.0027,-0.0026l0.0721,-0.0694zM223.0907,181.7179l-0.0009,-0.0022l0.0923,-0.0385zM223.2524,185.9301h-0.8657v-0.2h0.8657zM222.2867,185.8301v-3.8145h0.2v3.8145zM222.3867,182.1156h-2.4126v-0.2h2.4126zM220.0741,182.0156v3.8145h-0.2v-3.8145zM219.9741,185.9301h-0.8613v-0.2h0.8613zM219.0128,185.8301v-4.6802h0.2v4.6802zM219.1128,181.0499h0.8613v0.2h-0.8613zM220.0741,181.1499v0.8262h-0.2v-0.8262zM219.8743,181.971c0.0065,-0.1268 0.0358,-0.2465 0.0884,-0.3583l0.181,0.0852c-0.0411,0.0873 -0.0645,0.1815 -0.0697,0.2833zM219.9623,181.6137c0.0517,-0.1132 0.1204,-0.2117 0.2062,-0.2942l0.1386,0.1442c-0.0665,0.0639 -0.1209,0.1413 -0.1629,0.2331zM220.1684,181.3196c0.0885,-0.0852 0.1903,-0.1508 0.3047,-0.1966l0.0743,0.1857c-0.0906,0.0362 -0.1705,0.0878 -0.2402,0.1549zM220.4709,181.1239c0.1156,-0.0495 0.2389,-0.074 0.3689,-0.074v0.2c-0.1043,0 -0.2007,0.0195 -0.2902,0.0578zM220.8398,181.0499h1.5469v0.2h-1.5469zM222.3867,181.0499c0.1335,0 0.2602,0.0261 0.379,0.0789l-0.0812,0.1828c-0.0922,-0.041 -0.1911,-0.0617 -0.2978,-0.0617zM222.7636,181.1279c0.1175,0.049 0.2199,0.1182 0.306,0.2075l-0.1441,0.1387c-0.0663,-0.0688 -0.1455,-0.1227 -0.2389,-0.1616zM223.0669,181.3328c0.0894,0.086 0.1585,0.1884 0.2075,0.306l-0.1846,0.0769c-0.0389,-0.0933 -0.0928,-0.1726 -0.1616,-0.2389zM223.2735,181.6366c0.0528,0.1188 0.0789,0.2455 0.0789,0.379h-0.2c0,-0.1067 -0.0207,-0.2056 -0.0617,-0.2977zM223.3524,182.0156v3.8145h-0.2v-3.8145zM225.4552,182.0156v-0.1h0.1v0.1zM225.5552,185.0644h-0.1v-0.1h0.1zM227.8876,184.9644v0.1h-0.1v-0.1zM227.6876,184.1733v-0.1h0.1v0.1zM228.6533,184.0733h0.1v0.1h-0.1zM228.4907,185.2643l0.0009,-0.0022l0.0914,0.0406zM228.1666,185.8555l-0.0022,0.001l-0.0384,-0.0923zM225.1827,185.8565l-0.0021,-0.0009l0.0406,-0.0914zM224.875,185.6516l-0.0027,-0.0026l0.072,-0.0694zM224.6684,185.3433l-0.001,-0.0021l0.0924,-0.0385zM224.6675,181.6388l0.0009,-0.0022l0.0914,0.0406zM225.2618,181.3116l-0.0021,0.0009l-0.0385,-0.0923zM228.0875,181.3125l-0.0021,-0.0009l0.0406,-0.0914zM228.3291,181.4768l-0.0027,-0.0026l0.072,-0.0694zM228.4916,181.7179l-0.0009,-0.0022l0.0923,-0.0385zM228.7533,182.8066v0.1h-0.1v-0.1zM227.7876,182.9066h-0.1v-0.1h0.1zM227.7876,181.9156h0.1v0.1h-0.1zM225.6552,182.0156v2.9488h-0.2v-2.9488zM225.5552,184.8644h2.2324v0.2h-2.2324zM227.6876,184.9644v-0.7911h0.2v0.7911zM227.7876,184.0733h0.8657v0.2h-0.8657zM228.7533,184.1733v0.7911h-0.2v-0.7911zM228.7533,184.9644c0,0.1335 -0.0261,0.2602 -0.0789,0.3789l-0.1828,-0.0812c0.041,-0.0921 0.0617,-0.191 0.0617,-0.2977zM228.6753,185.3412c-0.0488,0.1173 -0.1176,0.2206 -0.2062,0.3091l-0.1414,-0.1414c0.0697,-0.0697 0.124,-0.151 0.163,-0.2446zM228.4691,185.6503c-0.0854,0.0855 -0.1866,0.1537 -0.3025,0.2052l-0.0812,-0.1827c0.095,-0.0423 0.1754,-0.097 0.2423,-0.1639zM228.1644,185.8565c-0.1182,0.0492 -0.2442,0.0736 -0.3768,0.0736v-0.2c0.1076,0 0.2073,-0.0196 0.2999,-0.0582zM227.7876,185.9301h-2.2324v-0.2h2.2324zM225.5552,185.9301c-0.1301,0 -0.2545,-0.0245 -0.3725,-0.0736l0.077,-0.1846c0.0929,0.0387 0.1911,0.0582 0.2955,0.0582zM225.1806,185.8555c-0.1156,-0.0513 -0.2177,-0.1192 -0.3056,-0.2039l0.1387,-0.144c0.0703,0.0677 0.1527,0.1228 0.2481,0.1652zM224.8723,185.649c-0.0846,-0.088 -0.1526,-0.1901 -0.2039,-0.3057l0.1827,-0.0812c0.0424,0.0954 0.0976,0.1778 0.1653,0.2481zM224.6675,185.3412c-0.0493,-0.1183 -0.0737,-0.2442 -0.0737,-0.3768h0.2c0,0.1076 0.0197,0.2072 0.0583,0.2999zM224.5938,184.9644v-2.9488h0.2v2.9488zM224.5938,182.0156c0,-0.1326 0.0244,-0.2585 0.0737,-0.3768l0.1846,0.0769c-0.0386,0.0927 -0.0583,0.1923 -0.0583,0.2999zM224.6684,181.6366c0.0515,-0.1158 0.1198,-0.2171 0.2052,-0.3025l0.1414,0.1414c-0.0668,0.0669 -0.1216,0.1473 -0.1639,0.2424zM224.8736,181.3341c0.0886,-0.0886 0.1919,-0.1573 0.3091,-0.2062l0.077,0.1846c-0.0937,0.0391 -0.175,0.0933 -0.2447,0.163zM225.1806,181.1288c0.1184,-0.0526 0.2436,-0.0789 0.3746,-0.0789v0.2c-0.1034,0 -0.2009,0.0206 -0.2934,0.0617zM225.5552,181.0499h2.2324v0.2h-2.2324zM227.7876,181.0499c0.1335,0 0.2602,0.0261 0.379,0.0789l-0.0812,0.1828c-0.0922,-0.041 -0.1911,-0.0617 -0.2978,-0.0617zM228.1644,181.1279c0.1176,0.049 0.22,0.1182 0.3061,0.2075l-0.1441,0.1387c-0.0663,-0.0688 -0.1455,-0.1227 -0.2389,-0.1616zM228.4678,181.3328c0.0894,0.086 0.1585,0.1884 0.2075,0.306l-0.1846,0.0769c-0.0389,-0.0933 -0.0928,-0.1726 -0.1616,-0.2389zM228.6744,181.6366c0.0528,0.1188 0.0789,0.2455 0.0789,0.379h-0.2c0,-0.1067 -0.0207,-0.2056 -0.0617,-0.2977zM228.7533,182.0156v0.791h-0.2v-0.791zM228.6533,182.9066h-0.8657v-0.2h0.8657zM227.6876,182.8066v-0.791h0.2v0.791zM227.7876,182.1156h-2.2324v-0.2h2.2324zM234.1586,183.9316v0.1h-0.1v-0.1zM230.8604,183.9316v-0.1h0.1v0.1zM230.9604,185.0644h-0.1v-0.1h0.1zM234.0586,184.8644h0.1v0.1h-0.1zM234.1586,185.8301v0.1h-0.1v-0.1zM230.588,185.8565l-0.0022,-0.0009l0.0407,-0.0914zM230.2802,185.6516l-0.0027,-0.0026l0.0721,-0.0694zM230.0737,185.3433l-0.001,-0.0021l0.0923,-0.0385zM230.0727,181.6388l0.0009,-0.0022l0.0914,0.0406zM230.6671,181.3116l-0.0022,0.0009l-0.0384,-0.0923zM233.4928,181.3125l-0.0022,-0.0009l0.0406,-0.0914zM233.7343,181.4768l-0.0027,-0.0026l0.0721,-0.0694zM233.8969,181.7179l-0.001,-0.0022l0.0924,-0.0385zM230.8604,182.0156v-0.1h0.1v0.1zM230.9604,183.1659h-0.1v-0.1h0.1zM233.2929,183.0659v0.1h-0.1v-0.1zM233.1929,181.9156h0.1v0.1h-0.1zM234.0586,184.0316h-3.0982v-0.2h3.0982zM231.0604,183.9316v1.0328h-0.2v-1.0328zM230.9604,184.8644h3.0982v0.2h-3.0982zM234.1586,184.9644v0.8657h-0.2v-0.8657zM234.0586,185.9301h-3.0982v-0.2h3.0982zM230.9604,185.9301c-0.13,0 -0.2544,-0.0245 -0.3724,-0.0736l0.0769,-0.1846c0.093,0.0387 0.1912,0.0582 0.2955,0.0582zM230.5859,185.8555c-0.1156,-0.0513 -0.2177,-0.1192 -0.3057,-0.2039l0.1388,-0.144c0.0703,0.0677 0.1527,0.1228 0.2481,0.1652zM230.2776,185.649c-0.0847,-0.088 -0.1526,-0.1901 -0.2039,-0.3057l0.1827,-0.0812c0.0424,0.0954 0.0975,0.1778 0.1652,0.2481zM230.0727,185.3412c-0.0493,-0.1183 -0.0736,-0.2442 -0.0736,-0.3768h0.2c0,0.1076 0.0196,0.2072 0.0582,0.2999zM229.9991,184.9644v-2.9488h0.2v2.9488zM229.9991,182.0156c0,-0.1326 0.0243,-0.2585 0.0736,-0.3768l0.1846,0.0769c-0.0386,0.0927 -0.0582,0.1923 -0.0582,0.2999zM230.0737,181.6366c0.0515,-0.1158 0.1197,-0.2171 0.2052,-0.3025l0.1414,0.1414c-0.0669,0.0669 -0.1216,0.1473 -0.1639,0.2424zM230.2789,181.3341c0.0885,-0.0886 0.1918,-0.1573 0.3091,-0.2062l0.0769,0.1846c-0.0936,0.0391 -0.1749,0.0933 -0.2446,0.163zM230.5859,181.1288c0.1184,-0.0526 0.2436,-0.0789 0.3745,-0.0789v0.2c-0.1034,0 -0.2008,0.0206 -0.2933,0.0617zM230.9604,181.0499h2.2325v0.2h-2.2325zM233.1929,181.0499c0.1335,0 0.2602,0.0261 0.379,0.0789l-0.0813,0.1828c-0.0921,-0.041 -0.191,-0.0617 -0.2977,-0.0617zM233.5697,181.1279c0.1176,0.049 0.22,0.1182 0.306,0.2075l-0.144,0.1387c-0.0663,-0.0688 -0.1456,-0.1227 -0.2389,-0.1616zM233.8731,181.3328c0.0893,0.086 0.1585,0.1884 0.2075,0.306l-0.1846,0.0769c-0.0389,-0.0933 -0.0928,-0.1726 -0.1617,-0.2389zM234.0797,181.6366c0.0528,0.1188 0.0789,0.2455 0.0789,0.379h-0.2c0,-0.1067 -0.0207,-0.2056 -0.0617,-0.2977zM234.1586,182.0156v1.916h-0.2v-1.916zM231.0604,182.0156v1.0503h-0.2v-1.0503zM230.9604,182.9659h2.2325v0.2h-2.2325zM233.0929,183.0659v-1.0503h0.2v1.0503zM233.1929,182.1156h-2.2325v-0.2h2.2325zM235.478,181.6388l0.0009,-0.0022l0.0914,0.0406zM236.0724,181.3116l-0.0022,0.0009l-0.0385,-0.0923zM238.8783,181.1499v0.1h-0.1v-0.1zM238.6783,179.3481v-0.1h0.1v0.1zM239.644,179.2481h0.1v0.1h-0.1zM239.744,185.8301v0.1h-0.1v-0.1zM238.7783,185.9301h-0.1v-0.1h0.1zM238.6786,185.031l0.1997,0.0081h-0.1zM238.565,185.6749l-0.0001,0.0001l-0.0678,-0.0734zM235.9933,185.8565l-0.0022,-0.0009l0.0406,-0.0914zM235.6855,185.6516l-0.0027,-0.0026l0.0721,-0.0694zM235.4789,185.3433l-0.0009,-0.0021l0.0923,-0.0385zM236.3657,185.0644h-0.1v-0.1h0.1zM238.8783,184.9644v0.1h-0.1v-0.1zM238.7783,181.9156h0.1v0.1h-0.1zM236.2657,182.0156v-0.1h0.1v0.1zM235.4044,182.0156c0,-0.1326 0.0243,-0.2585 0.0736,-0.3768l0.1846,0.0769c-0.0386,0.0927 -0.0582,0.1923 -0.0582,0.2999zM235.4789,181.6366c0.0515,-0.1158 0.1198,-0.2171 0.2053,-0.3025l0.1414,0.1414c-0.0669,0.0669 -0.1217,0.1473 -0.1639,0.2424zM235.6842,181.3341c0.0885,-0.0886 0.1918,-0.1573 0.3091,-0.2062l0.0769,0.1846c-0.0937,0.0391 -0.1749,0.0933 -0.2446,0.163zM235.9911,181.1288c0.1185,-0.0526 0.2437,-0.0789 0.3746,-0.0789v0.2c-0.1034,0 -0.2009,0.0206 -0.2933,0.0617zM236.3657,181.0499h2.4126v0.2h-2.4126zM238.6783,181.1499v-1.8018h0.2v1.8018zM238.7783,179.2481h0.8657v0.2h-0.8657zM239.744,179.3481v6.482h-0.2v-6.482zM239.644,185.9301h-0.8657v-0.2h0.8657zM238.6783,185.8301v-0.791h0.2v0.791zM238.878,185.0471c-0.0099,0.1216 -0.0428,0.237 -0.0987,0.3454l-0.1778,-0.0916c0.0438,-0.085 0.0694,-0.1747 0.0771,-0.2699zM238.7793,185.3925c-0.0551,0.1069 -0.1266,0.2012 -0.2143,0.2824l-0.1359,-0.1467c0.0705,-0.0653 0.1279,-0.1409 0.1724,-0.2273zM238.5649,185.675c-0.0852,0.0787 -0.1833,0.1407 -0.2934,0.186l-0.0762,-0.1849c0.0891,-0.0367 0.1668,-0.0861 0.2339,-0.148zM238.2715,185.861c-0.1121,0.0462 -0.2306,0.0691 -0.3545,0.0691v-0.2c0.0987,0 0.1912,-0.0181 0.2783,-0.054zM237.917,185.9301h-1.5513v-0.2h1.5513zM236.3657,185.9301c-0.13,0 -0.2545,-0.0245 -0.3724,-0.0736l0.0769,-0.1846c0.093,0.0387 0.1912,0.0582 0.2955,0.0582zM235.9911,185.8555c-0.1155,-0.0513 -0.2177,-0.1192 -0.3056,-0.2039l0.1387,-0.144c0.0703,0.0677 0.1528,0.1228 0.2482,0.1652zM235.6829,185.649c-0.0847,-0.088 -0.1526,-0.1901 -0.204,-0.3057l0.1828,-0.0812c0.0424,0.0954 0.0975,0.1778 0.1652,0.2481zM235.478,185.3412c-0.0493,-0.1183 -0.0736,-0.2442 -0.0736,-0.3768h0.2c0,0.1076 0.0196,0.2072 0.0582,0.2999zM235.4044,184.9644v-2.9488h0.2v2.9488zM236.3657,184.8644h2.4126v0.2h-2.4126zM238.6783,184.9644v-2.9488h0.2v2.9488zM238.7783,182.1156h-2.4126v-0.2h2.4126zM236.4657,182.0156v2.9488h-0.2v-2.9488zM244.0341,180.1208l-0.0004,0.0009l-0.0918,-0.0397zM244.206,179.8671l-0.0013,0.0013l-0.0694,-0.072zM244.4617,179.6943l-0.0011,0.0005l-0.0397,-0.0918zM248.4998,179.6952l-0.003,-0.0013l0.0418,-0.0909zM248.7592,179.8684l-0.0013,-0.0013l0.0707,-0.0707zM248.9302,180.1217l-0.0004,-0.0009l0.0922,-0.0388zM249.1923,181.2422v0.1h-0.1v-0.1zM248.1914,181.3422h-0.1v-0.1h0.1zM248.1914,180.3292h0.1v0.1h-0.1zM244.6725,180.4292v-0.1h0.1v0.1zM244.7725,185.0292h-0.1v-0.1h0.1zM248.2914,184.9292v0.1h-0.1v-0.1zM248.1914,183.2999h0.1v0.1h-0.1zM246.4819,183.4999h-0.1v-0.1h0.1zM246.3819,182.499v-0.1h0.1v0.1zM249.0923,182.399h0.1v0.1h-0.1zM249.1141,185.3196l-0.0003,0.0009l-0.0918,-0.0397zM248.4989,185.668l0.0009,-0.0004l0.0388,0.0922zM244.3821,185.8519l-0.0009,-0.0003l0.0397,-0.0918zM243.8501,185.3205l-0.0004,-0.0009l0.0922,-0.0388zM243.7716,180.4292c0,-0.1361 0.026,-0.2654 0.0785,-0.3869l0.1836,0.0794c-0.0412,0.0954 -0.0621,0.1975 -0.0621,0.3075zM243.8497,180.0432c0.0518,-0.123 0.1238,-0.2297 0.2161,-0.3188l0.1389,0.144c-0.0717,0.0691 -0.1287,0.1528 -0.1706,0.2524zM244.0645,179.7257c0.0912,-0.0911 0.1969,-0.1627 0.3167,-0.2145l0.0794,0.1836c-0.097,0.042 -0.1817,0.0993 -0.2546,0.1723zM244.3801,179.5117c0.1243,-0.0556 0.2554,-0.0834 0.3924,-0.0834v0.2c-0.1091,0 -0.2124,0.022 -0.3108,0.066zM244.7725,179.4283h3.4189v0.2h-3.4189zM248.1914,179.4283c0.137,0 0.267,0.0278 0.3889,0.0839l-0.0835,0.1817c-0.0949,-0.0436 -0.1963,-0.0656 -0.3054,-0.0656zM248.5774,179.5109c0.1227,0.0516 0.2304,0.1232 0.3219,0.2148l-0.1414,0.1414c-0.0725,-0.0725 -0.1582,-0.1298 -0.2581,-0.1719zM248.898,179.7244c0.0924,0.0891 0.1643,0.1958 0.2161,0.3188l-0.1843,0.0776c-0.0419,-0.0996 -0.0989,-0.1833 -0.1706,-0.2524zM249.1138,180.0423c0.0525,0.1215 0.0785,0.2508 0.0785,0.3869h-0.2c0,-0.11 -0.0209,-0.2121 -0.0621,-0.3075zM249.1923,180.4292v0.813h-0.2v-0.813zM249.0923,181.3422h-0.9009v-0.2h0.9009zM248.0914,181.2422v-0.813h0.2v0.813zM248.1914,180.5292h-3.4189v-0.2h3.4189zM244.8725,180.4292v4.5h-0.2v-4.5zM244.7725,184.8292h3.4189v0.2h-3.4189zM248.0914,184.9292v-1.5293h0.2v1.5293zM248.1914,183.4999h-1.7095v-0.2h1.7095zM246.3819,183.3999v-0.9009h0.2v0.9009zM246.4819,182.399h2.6104v0.2h-2.6104zM249.1923,182.499v2.4302h-0.2v-2.4302zM249.1923,184.9292c0,0.1361 -0.026,0.2665 -0.0782,0.3904l-0.1843,-0.0776c0.0416,-0.0989 0.0625,-0.2028 0.0625,-0.3128zM249.1138,185.3205c-0.0518,0.1197 -0.1234,0.2255 -0.2145,0.3166l-0.1414,-0.1414c0.073,-0.073 0.1303,-0.1576 0.1723,-0.2546zM248.8993,185.6371c-0.0915,0.0916 -0.1992,0.1631 -0.3219,0.2148l-0.0776,-0.1843c0.0999,-0.0421 0.1856,-0.0994 0.2581,-0.1719zM248.5783,185.8516c-0.1215,0.0525 -0.2508,0.0785 -0.3869,0.0785v-0.2c0.11,0 0.2121,-0.0209 0.3075,-0.0621zM248.1914,185.9301h-3.4189v-0.2h3.4189zM244.7725,185.9301c-0.1362,0 -0.2666,-0.026 -0.3904,-0.0782l0.0776,-0.1843c0.0988,0.0416 0.2028,0.0625 0.3128,0.0625zM244.3812,185.8516c-0.1198,-0.0518 -0.2255,-0.1234 -0.3167,-0.2145l0.1415,-0.1414c0.0729,0.0729 0.1576,0.1303 0.2546,0.1723zM244.0645,185.6371c-0.0911,-0.0911 -0.1626,-0.1969 -0.2144,-0.3166l0.1836,-0.0794c0.0419,0.097 0.0993,0.1816 0.1723,0.2546zM243.8497,185.3196c-0.0521,-0.1239 -0.0781,-0.2543 -0.0781,-0.3904h0.2c0,0.11 0.0209,0.2139 0.0625,0.3128zM243.7716,184.9292v-4.5h0.2v4.5zM251.3829,182.0156v-0.1h0.1v0.1zM251.5829,185.8301v0.1h-0.1v-0.1zM250.6216,185.9301h-0.1v-0.1h0.1zM250.5216,181.1499v-0.1h0.1v0.1zM251.4829,181.0499h0.1v0.1h-0.1zM251.5828,181.9812l-0.1999,-0.0051h0.1zM251.653,181.6968l-0.0005,0.0011l-0.0905,-0.0426zM251.8159,181.4636v0.0001l-0.0693,-0.0721zM252.0584,181.3077l-0.0022,0.001l-0.0372,-0.0929zM253.5626,181.3125l-0.0031,-0.0013l0.0416,-0.091zM253.8086,181.4768l-0.0014,-0.0013l0.0707,-0.0707zM253.9711,181.7179l-0.0009,-0.0022l0.0923,-0.0385zM254.2328,182.8066v0.1h-0.1v-0.1zM253.2671,182.9066h-0.1v-0.1h0.1zM253.2671,181.9156h0.1v0.1h-0.1zM251.5829,182.0156v3.8145h-0.2v-3.8145zM251.4829,185.9301h-0.8613v-0.2h0.8613zM250.5216,185.8301v-4.6802h0.2v4.6802zM250.6216,181.0499h0.8613v0.2h-0.8613zM251.5829,181.1499v0.8262h-0.2v-0.8262zM251.383,181.971c0.0065,-0.1268 0.0359,-0.2465 0.0885,-0.3583l0.181,0.0852c-0.0411,0.0873 -0.0645,0.1815 -0.0697,0.2833zM251.4711,181.6137c0.0517,-0.1132 0.1203,-0.2117 0.2062,-0.2942l0.1386,0.1442c-0.0665,0.0639 -0.1209,0.1413 -0.1629,0.2331zM251.6772,181.3196c0.0885,-0.0852 0.1903,-0.1508 0.3047,-0.1966l0.0743,0.1857c-0.0906,0.0362 -0.1705,0.0878 -0.2403,0.1549zM251.9797,181.1239c0.1156,-0.0495 0.2389,-0.074 0.3689,-0.074v0.2c-0.1043,0 -0.2007,0.0195 -0.2902,0.0578zM252.3486,181.0499h0.9185v0.2h-0.9185zM253.2671,181.0499c0.1335,0 0.2591,0.0261 0.3756,0.0794l-0.0832,0.1819c-0.0887,-0.0406 -0.1857,-0.0613 -0.2924,-0.0613zM253.6395,181.1279c0.1173,0.0489 0.2206,0.1176 0.3091,0.2062l-0.1414,0.1414c-0.0696,-0.0697 -0.1509,-0.1239 -0.2446,-0.163zM253.9473,181.3328c0.0894,0.086 0.1585,0.1884 0.2075,0.306l-0.1846,0.0769c-0.0389,-0.0933 -0.0928,-0.1726 -0.1616,-0.2389zM254.1539,181.6366c0.0528,0.1188 0.0789,0.2455 0.0789,0.379h-0.2c0,-0.1067 -0.0207,-0.2056 -0.0617,-0.2977zM254.2328,182.0156v0.791h-0.2v-0.791zM254.1328,182.9066h-0.8657v-0.2h0.8657zM253.1671,182.8066v-0.791h0.2v0.791zM253.2671,182.1156h-1.7842v-0.2h1.7842zM255.1835,183.4132l0.0005,-0.0012l0.0914,0.0406zM255.3879,183.1064l0.0013,-0.0013l0.0708,0.0707zM255.7774,183.0826l-0.0021,0.0009l-0.0385,-0.0923zM258.4032,182.9209v0.1h-0.1v-0.1zM258.3032,181.9156h0.1v0.1h-0.1zM255.4775,182.1156h-0.1v-0.1h0.1zM255.3775,181.1499v-0.1h0.1v0.1zM258.6031,181.3125l-0.0021,-0.0009l0.0406,-0.0914zM258.8447,181.4768l-0.0027,-0.0026l0.0721,-0.0694zM259.0073,181.7179l-0.001,-0.0022l0.0923,-0.0385zM259.2689,185.8301v0.1h-0.1v-0.1zM258.3032,185.9301h-0.1v-0.1h0.1zM258.2035,185.031l0.1997,0.0081h-0.1zM258.0899,185.6749l-0.0001,0.0001l-0.0678,-0.0734zM255.6984,185.8565l-0.0022,-0.0009l0.0406,-0.0914zM255.3906,185.6516l-0.0027,-0.0026l0.0721,-0.0694zM255.184,185.3433l-0.0009,-0.0021l0.0923,-0.0385zM256.0708,185.0644h-0.1v-0.1h0.1zM258.4032,184.9644v0.1h-0.1v-0.1zM258.3032,183.6866h0.1v0.1h-0.1zM255.9708,183.7866v-0.1h0.1v0.1zM255.1095,183.7866c0,-0.1326 0.0243,-0.2574 0.074,-0.3734l0.1838,0.0788c-0.0382,0.0892 -0.0578,0.187 -0.0578,0.2946zM255.184,183.412c0.0514,-0.1155 0.1193,-0.2177 0.2039,-0.3056l0.1441,0.1387c-0.0677,0.0703 -0.1228,0.1528 -0.1652,0.2482zM255.3893,183.1051c0.0885,-0.0886 0.1918,-0.1573 0.3091,-0.2062l0.0769,0.1846c-0.0937,0.0391 -0.175,0.0933 -0.2446,0.163zM255.6962,182.8998c0.1185,-0.0526 0.2436,-0.0789 0.3746,-0.0789v0.2c-0.1034,0 -0.2009,0.0206 -0.2934,0.0617zM256.0708,182.8209h2.2324v0.2h-2.2324zM258.2032,182.9209v-0.9053h0.2v0.9053zM258.3032,182.1156h-2.8257v-0.2h2.8257zM255.3775,182.0156v-0.8657h0.2v0.8657zM255.4775,181.0499h2.8257v0.2h-2.8257zM258.3032,181.0499c0.1335,0 0.2602,0.0261 0.379,0.0789l-0.0812,0.1828c-0.0922,-0.041 -0.1911,-0.0617 -0.2978,-0.0617zM258.6801,181.1279c0.1176,0.049 0.2199,0.1182 0.306,0.2075l-0.1441,0.1387c-0.0663,-0.0688 -0.1455,-0.1227 -0.2389,-0.1616zM258.9834,181.3328c0.0894,0.086 0.1585,0.1884 0.2075,0.306l-0.1846,0.0769c-0.0389,-0.0933 -0.0928,-0.1726 -0.1616,-0.2389zM259.19,181.6366c0.0528,0.1188 0.0789,0.2455 0.0789,0.379h-0.2c0,-0.1067 -0.0207,-0.2056 -0.0616,-0.2977zM259.2689,182.0156v3.8145h-0.2v-3.8145zM259.1689,185.9301h-0.8657v-0.2h0.8657zM258.2032,185.8301v-0.791h0.2v0.791zM258.4029,185.0471c-0.0099,0.1216 -0.0428,0.237 -0.0987,0.3454l-0.1778,-0.0916c0.0438,-0.085 0.0694,-0.1747 0.0771,-0.2699zM258.3042,185.3925c-0.0551,0.1069 -0.1266,0.2012 -0.2143,0.2824l-0.1359,-0.1467c0.0705,-0.0653 0.1279,-0.1409 0.1724,-0.2273zM258.0898,185.675c-0.0852,0.0787 -0.1833,0.1407 -0.2934,0.186l-0.0762,-0.1849c0.0891,-0.0367 0.1668,-0.0861 0.2339,-0.148zM257.7964,185.861c-0.1121,0.0462 -0.2306,0.0691 -0.3545,0.0691v-0.2c0.0987,0 0.1912,-0.0181 0.2783,-0.054zM257.4419,185.9301h-1.3711v-0.2h1.3711zM256.0708,185.9301c-0.13,0 -0.2545,-0.0245 -0.3724,-0.0736l0.0769,-0.1846c0.0929,0.0387 0.1912,0.0582 0.2955,0.0582zM255.6962,185.8555c-0.1156,-0.0513 -0.2177,-0.1192 -0.3056,-0.2039l0.1387,-0.144c0.0703,0.0677 0.1527,0.1228 0.2481,0.1652zM255.3879,185.649c-0.0846,-0.088 -0.1525,-0.1901 -0.2039,-0.3057l0.1828,-0.0812c0.0424,0.0954 0.0975,0.1778 0.1652,0.2481zM255.1831,185.3412c-0.0493,-0.1183 -0.0736,-0.2442 -0.0736,-0.3768h0.2c0,0.1076 0.0196,0.2072 0.0582,0.2999zM255.1095,184.9644v-1.1778h0.2v1.1778zM256.0708,184.8644h2.2324v0.2h-2.2324zM258.2032,184.9644v-1.1778h0.2v1.1778zM258.3032,183.8866h-2.2324v-0.2h2.2324zM256.1708,183.7866v1.1778h-0.2v-1.1778zM264.5918,185.2643l0.0009,-0.0022l0.0914,0.0406zM264.2677,185.8555l-0.0022,0.001l-0.0384,-0.0923zM261.3761,185.8301v-0.1h0.1v0.1zM261.5761,187.7197v0.1h-0.1v-0.1zM260.6147,187.8197h-0.1v-0.1h0.1zM260.5147,181.1499v-0.1h0.1v0.1zM261.4761,181.0499h0.1v0.1h-0.1zM261.5758,181.9488l-0.1997,-0.0079h0.1zM261.6529,181.6791l-0.0006,0.0011l-0.0883,-0.0469zM261.8222,181.4549l-0.0014,0.0014l-0.0679,-0.0735zM261.9785,181.119l0.001,-0.0004l0.0371,0.0928zM264.1886,181.3125l-0.0022,-0.0009l0.0407,-0.0914zM264.4301,181.4768l-0.0027,-0.0026l0.0721,-0.0694zM264.5927,181.7179l-0.001,-0.0022l0.0924,-0.0385zM263.9887,184.9644v0.1h-0.1v-0.1zM263.8887,181.9156h0.1v0.1h-0.1zM261.3761,182.0156v-0.1h0.1v0.1zM261.4761,185.0644h-0.1v-0.1h0.1zM264.8544,184.9644c0,0.1335 -0.0261,0.2602 -0.0789,0.3789l-0.1828,-0.0812c0.041,-0.0921 0.0617,-0.191 0.0617,-0.2977zM264.7764,185.3412c-0.0489,0.1173 -0.1176,0.2206 -0.2062,0.3091l-0.1414,-0.1414c0.0697,-0.0697 0.1239,-0.151 0.163,-0.2446zM264.5702,185.6503c-0.0854,0.0855 -0.1867,0.1537 -0.3025,0.2052l-0.0813,-0.1827c0.0951,-0.0423 0.1755,-0.097 0.2424,-0.1639zM264.2655,185.8565c-0.1183,0.0492 -0.2442,0.0736 -0.3768,0.0736v-0.2c0.1076,0 0.2072,-0.0196 0.2999,-0.0582zM263.8887,185.9301h-2.4126v-0.2h2.4126zM261.5761,185.8301v1.8896h-0.2v-1.8896zM261.4761,187.8197h-0.8614v-0.2h0.8614zM260.5147,187.7197v-6.5698h0.2v6.5698zM260.6147,181.0499h0.8614v0.2h-0.8614zM261.5761,181.1499v0.791h-0.2v-0.791zM261.3764,181.933c0.0098,-0.1242 0.0427,-0.2401 0.0993,-0.3466l0.1766,0.0938c-0.0431,0.081 -0.0688,0.1702 -0.0765,0.2686zM261.4751,181.5875c0.0549,-0.1065 0.1248,-0.1995 0.21,-0.2782l0.1357,0.147c-0.0672,0.062 -0.1232,0.136 -0.1679,0.2228zM261.6836,181.3107c0.0854,-0.0821 0.1839,-0.146 0.2949,-0.1917l0.0762,0.1849c-0.0883,0.0363 -0.1655,0.0866 -0.2325,0.151zM261.9795,181.1186c0.1147,-0.0459 0.2358,-0.0687 0.3623,-0.0687v0.2c-0.102,0 -0.1977,0.0182 -0.2881,0.0544zM262.3418,181.0499h1.5469v0.2h-1.5469zM263.8887,181.0499c0.1335,0 0.2602,0.0261 0.379,0.0789l-0.0813,0.1828c-0.0921,-0.041 -0.191,-0.0617 -0.2977,-0.0617zM264.2655,181.1279c0.1176,0.049 0.22,0.1182 0.306,0.2075l-0.144,0.1387c-0.0663,-0.0688 -0.1456,-0.1227 -0.2389,-0.1616zM264.5689,181.3328c0.0893,0.086 0.1585,0.1884 0.2075,0.306l-0.1846,0.0769c-0.0389,-0.0933 -0.0928,-0.1726 -0.1617,-0.2389zM264.7755,181.6366c0.0528,0.1188 0.0789,0.2455 0.0789,0.379h-0.2c0,-0.1067 -0.0207,-0.2056 -0.0617,-0.2977zM264.8544,182.0156v2.9488h-0.2v-2.9488zM263.7887,184.9644v-2.9488h0.2v2.9488zM263.8887,182.1156h-2.4126v-0.2h2.4126zM261.5761,182.0156v2.9488h-0.2v-2.9488zM261.4761,184.8644h2.4126v0.2h-2.4126zM270.4354,185.8301v0.1h-0.1v-0.1zM269.4697,185.9301h-0.1v-0.1h0.1zM269.4697,181.9156h0.1v0.1h-0.1zM266.9571,182.0156v-0.1h0.1v0.1zM267.1571,185.8301v0.1h-0.1v-0.1zM266.1958,185.9301h-0.1v-0.1h0.1zM266.0958,179.3481v-0.1h0.1v0.1zM267.0571,179.2481h0.1v0.1h-0.1zM267.157,181.9812l-0.1999,-0.0051h0.1zM267.2272,181.6968l-0.0005,0.0011l-0.0905,-0.0426zM267.3902,181.4636l-0.0001,0.0001l-0.0693,-0.0721zM267.6327,181.3077l-0.0023,0.001l-0.0371,-0.0929zM269.7696,181.3125l-0.0021,-0.0009l0.0406,-0.0914zM270.0112,181.4768l-0.0027,-0.0026l0.0721,-0.0694zM270.1738,181.7179l-0.001,-0.0022l0.0923,-0.0385zM270.3354,185.9301h-0.8657v-0.2h0.8657zM269.3697,185.8301v-3.8145h0.2v3.8145zM269.4697,182.1156h-2.4126v-0.2h2.4126zM267.1571,182.0156v3.8145h-0.2v-3.8145zM267.0571,185.9301h-0.8613v-0.2h0.8613zM266.0958,185.8301v-6.482h0.2v6.482zM266.1958,179.2481h0.8613v0.2h-0.8613zM267.1571,179.3481v2.628h-0.2v-2.628zM266.9573,181.971c0.0065,-0.1268 0.0358,-0.2465 0.0884,-0.3583l0.181,0.0852c-0.0411,0.0873 -0.0645,0.1815 -0.0697,0.2833zM267.0453,181.6137c0.0517,-0.1132 0.1204,-0.2117 0.2062,-0.2942l0.1386,0.1442c-0.0665,0.0639 -0.1209,0.1413 -0.1629,0.2331zM267.2514,181.3196c0.0885,-0.0852 0.1903,-0.1508 0.3047,-0.1966l0.0743,0.1857c-0.0906,0.0362 -0.1705,0.0878 -0.2402,0.1549zM267.5539,181.1239c0.1156,-0.0495 0.2389,-0.074 0.369,-0.074v0.2c-0.1044,0 -0.2008,0.0195 -0.2902,0.0578zM267.9229,181.0499h1.5468v0.2h-1.5468zM269.4697,181.0499c0.1336,0 0.2602,0.0261 0.379,0.0789l-0.0812,0.1828c-0.0922,-0.041 -0.1911,-0.0617 -0.2978,-0.0617zM269.8466,181.1279c0.1176,0.049 0.2199,0.1182 0.306,0.2075l-0.1441,0.1387c-0.0663,-0.0688 -0.1455,-0.1227 -0.2389,-0.1616zM270.1499,181.3328c0.0894,0.086 0.1585,0.1884 0.2075,0.306l-0.1846,0.0769c-0.0389,-0.0933 -0.0928,-0.1726 -0.1616,-0.2389zM270.3565,181.6366c0.0528,0.1188 0.0789,0.2455 0.0789,0.379h-0.2c0,-0.1067 -0.0207,-0.2056 -0.0616,-0.2977zM270.4354,182.0156v3.8145h-0.2v-3.8145zM272.6865,181.0499h0.1v0.1h-0.1zM272.7865,185.8301v0.1h-0.1v-0.1zM271.8208,185.9301h-0.1v-0.1h0.1zM271.7208,181.1499v-0.1h0.1v0.1zM271.6769,179.3481v-0.1h0.1v0.1zM272.7305,179.2481h0.1v0.1h-0.1zM272.8305,180.249v0.1h-0.1v-0.1zM271.7769,180.349h-0.1v-0.1h0.1zM272.7865,181.1499v4.6802h-0.2v-4.6802zM272.6865,185.9301h-0.8657v-0.2h0.8657zM271.7208,185.8301v-4.6802h0.2v4.6802zM271.8208,181.0499h0.8657v0.2h-0.8657zM271.7769,179.2481h0.9536v0.2h-0.9536zM272.8305,179.3481v0.9009h-0.2v-0.9009zM272.7305,180.349h-0.9536v-0.2h0.9536zM271.6769,180.249v-0.9009h0.2v0.9009zM274.9376,182.0156v-0.1h0.1v0.1zM275.0376,185.0644h-0.1v-0.1h0.1zM277.37,184.9644v0.1h-0.1v-0.1zM277.17,184.1733v-0.1h0.1v0.1zM278.1357,184.0733h0.1v0.1h-0.1zM277.9731,185.2643l0.0009,-0.0022l0.0914,0.0406zM277.649,185.8555l-0.0021,0.001l-0.0385,-0.0923zM274.6652,185.8565l-0.0022,-0.0009l0.0406,-0.0914zM274.3574,185.6516l-0.0027,-0.0026l0.0721,-0.0694zM274.1508,185.3433l-0.0009,-0.0021l0.0923,-0.0385zM274.1499,181.6388l0.0009,-0.0022l0.0914,0.0406zM274.7442,181.3116l-0.0021,0.0009l-0.0385,-0.0923zM277.5699,181.3125l-0.0021,-0.0009l0.0406,-0.0914zM277.8115,181.4768l-0.0027,-0.0026l0.0721,-0.0694zM277.974,181.7179l-0.0009,-0.0022l0.0923,-0.0385zM278.2357,182.8066v0.1h-0.1v-0.1zM277.27,182.9066h-0.1v-0.1h0.1zM277.27,181.9156h0.1v0.1h-0.1zM275.1376,182.0156v2.9488h-0.2v-2.9488zM275.0376,184.8644h2.2324v0.2h-2.2324zM277.17,184.9644v-0.7911h0.2v0.7911zM277.27,184.0733h0.8657v0.2h-0.8657zM278.2357,184.1733v0.7911h-0.2v-0.7911zM278.2357,184.9644c0,0.1335 -0.0261,0.2602 -0.0789,0.3789l-0.1828,-0.0812c0.041,-0.0921 0.0617,-0.191 0.0617,-0.2977zM278.1577,185.3412c-0.0488,0.1173 -0.1176,0.2206 -0.2061,0.3091l-0.1415,-0.1414c0.0697,-0.0697 0.124,-0.151 0.163,-0.2446zM277.9516,185.6503c-0.0855,0.0855 -0.1867,0.1537 -0.3026,0.2052l-0.0812,-0.1827c0.095,-0.0423 0.1755,-0.097 0.2423,-0.1639zM277.6469,185.8565c-0.1183,0.0492 -0.2442,0.0736 -0.3769,0.0736v-0.2c0.1076,0 0.2073,-0.0196 0.2999,-0.0582zM277.27,185.9301h-2.2324v-0.2h2.2324zM275.0376,185.9301c-0.13,0 -0.2545,-0.0245 -0.3724,-0.0736l0.0769,-0.1846c0.0929,0.0387 0.1912,0.0582 0.2955,0.0582zM274.663,185.8555c-0.1156,-0.0513 -0.2177,-0.1192 -0.3056,-0.2039l0.1387,-0.144c0.0703,0.0677 0.1527,0.1228 0.2481,0.1652zM274.3547,185.649c-0.0846,-0.088 -0.1525,-0.1901 -0.2039,-0.3057l0.1828,-0.0812c0.0424,0.0954 0.0975,0.1778 0.1652,0.2481zM274.1499,185.3412c-0.0493,-0.1183 -0.0736,-0.2442 -0.0736,-0.3768h0.2c0,0.1076 0.0196,0.2072 0.0582,0.2999zM274.0763,184.9644v-2.9488h0.2v2.9488zM274.0763,182.0156c0,-0.1326 0.0243,-0.2585 0.0736,-0.3768l0.1846,0.0769c-0.0386,0.0927 -0.0582,0.1923 -0.0582,0.2999zM274.1508,181.6366c0.0515,-0.1158 0.1198,-0.2171 0.2052,-0.3025l0.1415,0.1414c-0.0669,0.0669 -0.1217,0.1473 -0.1639,0.2424zM274.356,181.3341c0.0886,-0.0886 0.1919,-0.1573 0.3092,-0.2062l0.0769,0.1846c-0.0937,0.0391 -0.175,0.0933 -0.2446,0.163zM274.663,181.1288c0.1185,-0.0526 0.2436,-0.0789 0.3746,-0.0789v0.2c-0.1034,0 -0.2009,0.0206 -0.2934,0.0617zM275.0376,181.0499h2.2324v0.2h-2.2324zM277.27,181.0499c0.1335,0 0.2602,0.0261 0.379,0.0789l-0.0812,0.1828c-0.0922,-0.041 -0.1911,-0.0617 -0.2978,-0.0617zM277.6469,181.1279c0.1175,0.049 0.2199,0.1182 0.306,0.2075l-0.1441,0.1387c-0.0663,-0.0688 -0.1455,-0.1227 -0.2389,-0.1616zM277.9502,181.3328c0.0894,0.086 0.1585,0.1884 0.2075,0.306l-0.1846,0.0769c-0.0389,-0.0933 -0.0928,-0.1726 -0.1616,-0.2389zM278.1568,181.6366c0.0528,0.1188 0.0789,0.2455 0.0789,0.379h-0.2c0,-0.1067 -0.0207,-0.2056 -0.0617,-0.2977zM278.2357,182.0156v0.791h-0.2v-0.791zM278.1357,182.9066h-0.8657v-0.2h0.8657zM277.17,182.8066v-0.791h0.2v0.791zM277.27,182.1156h-2.2324v-0.2h2.2324zM282.5072,184.9644v0.1h-0.1v-0.1zM282.4072,183.7789h0.1v0.1h-0.1zM279.9781,183.9053l-0.0021,-0.0009l0.0406,-0.0914zM279.6704,183.7004l-0.0027,-0.0026l0.072,-0.0694zM279.4638,183.3922l-0.001,-0.0022l0.0924,-0.0384zM279.4629,181.6388l0.0009,-0.0022l0.0914,0.0406zM280.0572,181.3116l-0.0021,0.0009l-0.0385,-0.0923zM283.0928,181.0499h0.1v0.1h-0.1zM283.1928,182.0156v0.1h-0.1v-0.1zM280.255,182.0156v-0.1h0.1v0.1zM280.355,183.1132h-0.1v-0.1h0.1zM282.7027,183.1758l-0.0031,-0.0013l0.0416,-0.091zM282.9487,183.3401l-0.0014,-0.0013l0.0708,-0.0707zM283.1113,183.5811l-0.001,-0.0021l0.0923,-0.0385zM283.1103,185.2643l0.0009,-0.0022l0.0914,0.0406zM283.0888,185.6503l-0.0014,0.0013l-0.0693,-0.072zM282.7818,185.8555l-0.0012,0.0006l-0.0394,-0.0919zM279.4893,185.9301h-0.1v-0.1h0.1zM279.3893,184.9644v-0.1h0.1v0.1zM282.3072,184.9644v-1.0855h0.2v1.0855zM282.4072,183.9789h-2.0522v-0.2h2.0522zM280.355,183.9789c-0.1327,0 -0.2586,-0.0243 -0.3769,-0.0736l0.077,-0.1846c0.0926,0.0386 0.1923,0.0582 0.2999,0.0582zM279.976,183.9044c-0.1156,-0.0514 -0.2177,-0.1193 -0.3056,-0.204l0.1387,-0.144c0.0703,0.0677 0.1527,0.1228 0.2481,0.1652zM279.6677,183.6978c-0.0846,-0.0879 -0.1525,-0.1901 -0.2039,-0.3056l0.1828,-0.0813c0.0423,0.0954 0.0975,0.1779 0.1652,0.2482zM279.4629,183.39c-0.0493,-0.1183 -0.0736,-0.2442 -0.0736,-0.3768h0.2c0,0.1076 0.0196,0.2072 0.0582,0.2999zM279.3893,183.0132v-0.9976h0.2v0.9976zM279.3893,182.0156c0,-0.1326 0.0243,-0.2585 0.0736,-0.3768l0.1846,0.0769c-0.0386,0.0927 -0.0582,0.1923 -0.0582,0.2999zM279.4638,181.6366c0.0515,-0.1158 0.1198,-0.2171 0.2052,-0.3025l0.1415,0.1414c-0.0669,0.0669 -0.1217,0.1473 -0.1639,0.2424zM279.669,181.3341c0.0886,-0.0886 0.1919,-0.1573 0.3091,-0.2062l0.077,0.1846c-0.0937,0.0391 -0.175,0.0933 -0.2446,0.163zM279.976,181.1288c0.1188,-0.0528 0.2455,-0.0789 0.379,-0.0789v0.2c-0.1067,0 -0.2056,0.0207 -0.2978,0.0617zM280.355,181.0499h2.7378v0.2h-2.7378zM283.1928,181.1499v0.8657h-0.2v-0.8657zM283.0928,182.1156h-2.7378v-0.2h2.7378zM280.455,182.0156v0.9976h-0.2v-0.9976zM280.355,182.9132h2.0522v0.2h-2.0522zM282.4072,182.9132c0.1335,0 0.2592,0.0261 0.3756,0.0793l-0.0832,0.1819c-0.0886,-0.0405 -0.1856,-0.0612 -0.2924,-0.0612zM282.7797,182.9912c0.1172,0.0488 0.2205,0.1176 0.3091,0.2062l-0.1414,0.1414c-0.0697,-0.0697 -0.151,-0.124 -0.2447,-0.163zM283.0874,183.196c0.0894,0.0861 0.1585,0.1885 0.2075,0.3061l-0.1846,0.0769c-0.0389,-0.0934 -0.0928,-0.1726 -0.1616,-0.2389zM283.294,183.4999c0.0528,0.1188 0.0789,0.2455 0.0789,0.379h-0.2c0,-0.1067 -0.0207,-0.2056 -0.0616,-0.2978zM283.3729,183.8789v1.0855h-0.2v-1.0855zM283.3729,184.9644c0,0.1335 -0.0261,0.2602 -0.0789,0.3789l-0.1827,-0.0812c0.0409,-0.0921 0.0616,-0.191 0.0616,-0.2977zM283.2949,185.3412c-0.0488,0.1173 -0.1176,0.2206 -0.2061,0.3091l-0.1414,-0.1414c0.0696,-0.0697 0.1239,-0.151 0.1629,-0.2446zM283.0874,185.6516c-0.0879,0.0847 -0.19,0.1526 -0.3056,0.2039l-0.0812,-0.1827c0.0954,-0.0424 0.1778,-0.0975 0.2481,-0.1652zM282.7806,185.8561c-0.1159,0.0497 -0.2408,0.074 -0.3734,0.074v-0.2c0.1077,0 0.2055,-0.0196 0.2946,-0.0579zM282.4072,185.9301h-2.9179v-0.2h2.9179zM279.3893,185.8301v-0.8657h0.2v0.8657zM279.4893,184.8644h2.9179v0.2h-2.9179z" fill="#000000"/></g></g></svg>