<svg version="1.1" xmlns="http://www.w3.org/2000/svg" xmlns:xlink="http://www.w3.org/1999/xlink" width="540.69665" height="389.98456" viewBox="0,0,540.69665,389.98456"><g transform="translate(29.40163,10.18991)"><g data-paper-data="{&quot;isPaintingLayer&quot;:true}" fill-rule="nonzero" stroke-linejoin="miter" stroke-miterlimit="10" stroke-dasharray="" stroke-dashoffset="0" style="mix-blend-mode: normal"><path d="M-14.76989,370.1899v-380.37981h509.53978v380.37981z" fill="#2f2f2f" stroke="#d5d5d5" stroke-width="0" stroke-linecap="butt"/><g stroke="none" stroke-width="1" stroke-linecap="butt" opacity="0.7"><path d="M21.98259,180.09446l18.68903,14.64294l-4.80252,10.13334l-5.45827,7.18193l-5.40298,7.10824l-7.22005,5.68289l-18.68903,-14.64155l2.45029,-7.35795l5.62823,-8.22333l7.10787,-8.53313z" fill="#434343"/><path d="M107.84571,259.39165l-6.32812,9.14347l-6.40776,7.61415l-6.3891,4.27141l-18.68903,-14.64385l3.58545,-8.53127l5.40275,-7.10824l5.45827,-7.18216l8.43734,-7.28612l18.68903,14.64385z" fill="#434343"/><path d="M22.78978,216.89292l10.63107,-13.98694l53.3506,41.80009l-10.63107,13.98694z" fill="#3d3d3d"/></g><g stroke="none" stroke-width="1" stroke-linecap="butt" opacity="0.7"><path d="M40.3913,240.80904l-32.70773,92.1484c-0.66917,1.88506 -3.30012,2.6474 -5.87647,1.70487l-7.36931,-2.69591c-2.57635,-0.94253 -4.12243,-3.23416 -3.45348,-5.11922l32.70796,-92.1484c0.66917,-1.88506 3.2999,-2.6497 5.87624,-1.70717l7.36931,2.69591c2.57635,0.94485 4.12265,3.23648 3.45348,5.12154z" fill="#595959"/><path d="M15.39167,243.23697l-12.71608,35.82535l-12.71608,35.82535c-0.66917,1.88506 -3.2999,2.6497 -5.87624,1.70717l-7.36953,-2.69821c-2.57612,-0.94253 -4.12243,-3.23416 -3.45325,-5.11922l25.43217,-71.6507c0.66917,-1.88506 3.30012,-2.6497 5.87624,-1.70487l7.36953,2.69591c2.57635,0.94253 4.12243,3.23416 3.45325,5.11922z" fill="#595959"/><path d="M162.02375,277.01325l7.44303,2.47876c2.60297,0.8686 4.21162,3.11405 3.59728,5.01758l-30.07928,93.06551c-0.61525,1.90585 -3.22345,2.74442 -5.82528,1.87812l-7.44303,-2.47876c-2.60183,-0.8686 -4.21253,-3.11405 -3.59728,-5.01758l30.07928,-93.06551c0.61525,-1.90353 3.22345,-2.74442 5.82528,-1.87812z" fill="#595959"/><path d="M180.25642,294.54937l7.44257,2.47876c2.60069,0.86631 4.21162,3.11405 3.59728,5.01758l-23.3887,72.36451c-0.61525,1.90353 -3.22345,2.74442 -5.8255,1.87812l-7.4428,-2.48108c-2.60206,-0.86631 -4.21253,-3.11173 -3.59728,-5.01526l11.69424,-36.18342l11.6931,-36.18342c0.61661,-1.90353 3.22413,-2.74442 5.8271,-1.87582z" fill="#595959"/><path d="M25.48153,299.79686l8.71928,-26.27651l106.72344,36.50533l-8.71928,26.27651z" fill="#434343"/><path d="M-29.40163,280.74496l8.91359,-26.38707l6.85436,2.38677l-8.91359,26.38707z" fill="#434343"/><path d="M180.37011,350.44778l8.07513,-26.66384l6.92626,2.16228l-8.07513,26.66384z" fill="#434343"/></g><g opacity="0.7"><path d="M399.91354,279.38131l2.88056,-20.40992c0.25029,-1.78342 0.08419,-3.59685 -0.37543,-5.3387c-1.80433,-6.85643 -5.51538,-25.30045 4.37317,-32.7344c8.30264,-6.24195 21.86128,-7.79896 21.86128,-7.79896l68.22093,26.70036c0,0 10.83508,8.16628 12.42097,21.21383c1.67009,13.74521 -16.74181,23.3715 -22.90337,26.18982c-1.29693,0.5914 -2.5074,1.35372 -3.55405,2.33091l-16.83965,15.71113" fill="none" stroke="#434343" stroke-width="4" stroke-linecap="round"/><path d="M482.90132,330.61516c-5.90673,23.57248 -22.3846,44.20877 -41.23108,46.11924l-32.73276,-12.81192l-35.74756,-13.99008c-10.05692,-13.64125 -8.57113,-40.26771 2.93971,-61.105c15.45853,-27.98018 42.28455,-39.06413 71.76815,-27.5251c29.4836,11.53906 42.79195,38.22094 35.00353,69.31285z" fill="#4c4c4c" stroke="none" stroke-width="1" stroke-linecap="butt"/><path d="M404.85556,295.18023l-1.47896,3.89487l-4.2503,-1.66328l1.47896,-3.89487c0.22298,-0.58908 0.5438,-1.09962 0.96246,-1.53161c0.42321,-0.44817 0.90103,-0.78544 1.43345,-1.01183c0.5347,-0.24025 1.10126,-0.37424 1.69739,-0.39966c0.61661,-0.03233 1.21502,0.06469 1.79523,0.29108l13.45624,5.26707c0.58021,0.22639 1.08078,0.56137 1.50171,0.99798c0.43914,0.43199 0.77133,0.91482 0.99659,1.45539c0.24346,0.52901 0.37315,1.10424 0.39136,1.72567c0.03868,0.60988 -0.05461,1.21049 -0.27759,1.79957l-2.09557,5.51426c-0.22298,0.5914 -0.47782,1.095 -0.76451,1.51543c-0.28669,0.42043 -0.62571,0.76926 -1.01934,1.05111c-0.37315,0.27258 -0.80091,0.48512 -1.28783,0.63297c-0.48464,0.14785 -1.04665,0.24949 -1.68601,0.30724l-17.38345,1.24747l-1.65416,4.3569l13.9955,5.47729l1.46986,-3.87175l4.2503,1.66328l-3.10809,8.18706l-22.49609,-8.80387l3.01252,-7.93527c0.22526,-0.58908 0.48009,-1.095 0.76678,-1.51313c0.30034,-0.41581 0.63709,-0.76003 1.01024,-1.03263c0.37315,-0.27258 0.80319,-0.48282 1.28783,-0.63067c0.50285,-0.15709 1.0603,-0.26335 1.66781,-0.3165l17.41075,-1.26132l2.37316,-6.25119zM444.02745,331.81182c-0.97384,2.44181 -2.27987,4.0404 -3.9181,4.80275c-1.63368,0.74617 -3.65872,0.64683 -6.07738,-0.30032l-7.98182,-3.12329c-4.82368,-1.88738 -6.30946,-5.27401 -4.45508,-10.1576l0.68715,-1.81113l4.16839,1.63095l-0.60751,1.60092c-0.43231,1.13657 -0.50057,2.06986 -0.20478,2.79755c0.29352,0.72769 1.00797,1.31215 2.14335,1.75568l7.71106,3.01933c1.13311,0.44355 2.05006,0.49668 2.75086,0.15709c0.7008,-0.33727 1.26508,-1.07652 1.69739,-2.21309l1.54267,-4.0612c0.43231,-1.13657 0.49602,-2.06294 0.19568,-2.77676c-0.29352,-0.72769 -1.00797,-1.31445 -2.14108,-1.758l-14.22303,-5.56507l5.80889,-15.30456l20.81691,8.14779l-1.63823,4.3153l-16.56661,-6.4845l-2.57339,6.77788l10.11835,3.96186c2.43232,0.95177 4.01366,2.26392 4.74404,3.93414c0.73493,1.65866 0.63254,3.73084 -0.31172,6.21422z" fill="#434343" stroke="none" stroke-width="1" stroke-linecap="butt"/></g><path d="M10.8822,69.50001l-9.6094,-33.60938h4.8047l7.4532,26.74218l7.4296,-26.74218h4.8046l7.43,26.74218l7.453,-26.74218h4.805l-9.61,33.60938h-5.273l-7.1955,-25.1953l-7.2187,25.1953zM70.8819,64.88281c0,0.6406 -0.125,1.2422 -0.375,1.8047c-0.234,0.5625 -0.562,1.0547 -0.984,1.4766c-0.406,0.4062 -0.891,0.7343 -1.453,0.9843c-0.547,0.2344 -1.141,0.3516 -1.781,0.3516h-12.399c-0.625,0 -1.219,-0.1172 -1.781,-0.3516c-0.563,-0.25 -1.055,-0.5781 -1.477,-0.9843c-0.406,-0.4219 -0.734,-0.9141 -0.984,-1.4766c-0.234,-0.5625 -0.352,-1.1641 -0.352,-1.8047v-15.7266c0,-0.6406 0.118,-1.2421 0.352,-1.8046c0.25,-0.5625 0.578,-1.0469 0.984,-1.4532c0.422,-0.4218 0.914,-0.75 1.477,-0.9843c0.562,-0.25 1.156,-0.375 1.781,-0.375h12.399c0.64,0 1.234,0.125 1.781,0.375c0.562,0.2343 1.047,0.5625 1.453,0.9843c0.422,0.4063 0.75,0.8907 0.984,1.4532c0.25,0.5625 0.375,1.164 0.375,1.8046zM53.8899,49.15621v15.7266h12.399v-15.7266zM83.1869,49.15621v20.3438h-4.594v-24.9609h4.594v4.4062c0.031,-0.6094 0.172,-1.1797 0.422,-1.7109c0.25,-0.5469 0.578,-1.0156 0.984,-1.4063c0.422,-0.4062 0.907,-0.7187 1.453,-0.9375c0.547,-0.2344 1.133,-0.3515 1.758,-0.3515h4.899c0.64,0 1.234,0.125 1.781,0.375c0.562,0.2343 1.055,0.5625 1.476,0.9843c0.422,0.4063 0.75,0.8907 0.985,1.4532c0.25,0.5625 0.375,1.164 0.375,1.8046v4.2188h-4.617v-4.2188zM119.5619,69.50001l-11.906,-10.6641v10.6641h-4.594v-34.57031h4.594v19.45311l10.945,-9.8437h6.492l-13.406,12.0468l14.367,12.9141zM150.9919,64.88281c0,0.6406 -0.125,1.2422 -0.375,1.8047c-0.235,0.5625 -0.563,1.0547 -0.985,1.4766c-0.406,0.4062 -0.89,0.7343 -1.453,0.9843c-0.547,0.2344 -1.14,0.3516 -1.781,0.3516h-12.398c-0.626,0 -1.219,-0.1172 -1.782,-0.3516c-0.562,-0.25 -1.054,-0.5781 -1.476,-0.9843c-0.407,-0.4219 -0.735,-0.9141 -0.985,-1.4766c-0.234,-0.5625 -0.351,-1.1641 -0.351,-1.8047v-15.7266c0,-0.6406 0.117,-1.2421 0.351,-1.8046c0.25,-0.5625 0.578,-1.0469 0.985,-1.4532c0.422,-0.4218 0.914,-0.75 1.476,-0.9843c0.563,-0.25 1.156,-0.375 1.782,-0.375h12.398c0.641,0 1.234,0.125 1.781,0.375c0.563,0.2343 1.047,0.5625 1.453,0.9843c0.422,0.4063 0.75,0.8907 0.985,1.4532c0.25,0.5625 0.375,1.164 0.375,1.8046zM133.9999,49.15621v15.7266h12.398v-15.7266zM158.7029,44.53911h4.593v20.3437h12.868v-20.3437h4.617v24.9609h-4.617v-4.2188c-0.047,0.5782 -0.204,1.125 -0.469,1.6407c-0.266,0.5156 -0.61,0.9687 -1.031,1.3593c-0.407,0.375 -0.875,0.6719 -1.407,0.8907c-0.531,0.2187 -1.093,0.3281 -1.687,0.3281h-8.274c-0.625,0 -1.218,-0.1172 -1.781,-0.3516c-0.562,-0.25 -1.055,-0.5781 -1.476,-0.9843c-0.407,-0.4219 -0.735,-0.9141 -0.985,-1.4766c-0.234,-0.5625 -0.351,-1.1641 -0.351,-1.8047zM187.0149,44.53911h6.094v-7.68754h4.617v7.68754h8.203v4.6171h-8.203v15.7266h8.203v4.6172h-8.203c-0.625,0 -1.219,-0.1172 -1.781,-0.3516c-0.563,-0.25 -1.055,-0.5781 -1.477,-0.9843c-0.422,-0.4219 -0.758,-0.9141 -1.008,-1.4766c-0.234,-0.5625 -0.351,-1.1641 -0.351,-1.8047v-15.7266h-6.094zM228.4999,40.69532c0,-0.65625 0.124,-1.27343 0.374,-1.85156c0.25,-0.59375 0.594,-1.10156 1.032,-1.52344c0.437,-0.4375 0.945,-0.78125 1.523,-1.03125c0.594,-0.26562 1.219,-0.39844 1.875,-0.39844h18.235c0.656,0 1.273,0.13282 1.851,0.39844c0.594,0.25 1.11,0.59375 1.547,1.03125c0.437,0.42188 0.781,0.92969 1.031,1.52344c0.25,0.57813 0.375,1.19531 0.375,1.85156v4.33589h-4.804v-4.33589h-18.235v23.99999h18.235v-4.3125h4.804v4.3125c0,0.6563 -0.125,1.2813 -0.375,1.875c-0.25,0.5781 -0.594,1.0859 -1.031,1.5235c-0.437,0.4374 -0.953,0.7812 -1.547,1.0312c-0.578,0.25 -1.195,0.375 -1.851,0.375h-18.235c-0.656,0 -1.281,-0.125 -1.875,-0.375c-0.578,-0.25 -1.086,-0.5938 -1.523,-1.0312c-0.438,-0.4376 -0.782,-0.9454 -1.032,-1.5235c-0.25,-0.5937 -0.374,-1.2187 -0.374,-1.875zM285.14788,64.88281c0,0.6406 -0.125,1.2422 -0.375,1.8047c-0.234,0.5625 -0.563,1.0547 -0.984,1.4766c-0.407,0.4062 -0.891,0.7343 -1.454,0.9843c-0.546,0.2344 -1.14,0.3516 -1.781,0.3516h-12.398c-0.625,0 -1.219,-0.1172 -1.782,-0.3516c-0.562,-0.25 -1.054,-0.5781 -1.476,-0.9843c-0.406,-0.4219 -0.734,-0.9141 -0.984,-1.4766c-0.235,-0.5625 -0.352,-1.1641 -0.352,-1.8047v-15.7266c0,-0.6406 0.117,-1.2421 0.352,-1.8046c0.25,-0.5625 0.578,-1.0469 0.984,-1.4532c0.422,-0.4218 0.914,-0.75 1.476,-0.9843c0.563,-0.25 1.157,-0.375 1.782,-0.375h12.398c0.641,0 1.235,0.125 1.781,0.375c0.563,0.2343 1.047,0.5625 1.454,0.9843c0.421,0.4063 0.75,0.8907 0.984,1.4532c0.25,0.5625 0.375,1.164 0.375,1.8046zM268.1559,49.15621v15.7266h12.398v-15.7266zM312.6399,49.15621v20.3438h-4.617v-20.3438h-10.57v20.3438h-4.594v-24.9609h4.594v4.4062c0.031,-0.6094 0.171,-1.1797 0.421,-1.7109c0.25,-0.5469 0.579,-1.0156 0.985,-1.4063c0.422,-0.4062 0.906,-0.7187 1.453,-0.9375c0.547,-0.2344 1.133,-0.3515 1.758,-0.3515h5.953c0.609,0 1.187,0.1171 1.734,0.3515c0.547,0.2188 1.032,0.5313 1.453,0.9375c0.422,0.3907 0.758,0.8594 1.008,1.4063c0.266,0.5312 0.406,1.1015 0.422,1.7109c0.031,-0.6094 0.164,-1.1797 0.399,-1.7109c0.25,-0.5469 0.578,-1.0156 0.984,-1.4063c0.422,-0.4062 0.906,-0.7187 1.453,-0.9375c0.547,-0.2344 1.133,-0.3515 1.758,-0.3515h5.953c0.641,0 1.242,0.125 1.805,0.375c0.562,0.2343 1.047,0.5625 1.453,0.9843c0.422,0.4063 0.75,0.8907 0.984,1.4532c0.25,0.5625 0.375,1.164 0.375,1.8046v20.3438h-4.617v-20.3438zM357.5929,64.88281c0,0.6406 -0.125,1.2422 -0.375,1.8047c-0.234,0.5625 -0.562,1.0547 -0.984,1.4766c-0.406,0.4062 -0.891,0.7343 -1.453,0.9843c-0.563,0.2344 -1.164,0.3516 -1.805,0.3516h-12.867v10.0781h-4.594v-35.039h4.594v4.2187c0.047,-0.5937 0.203,-1.1406 0.469,-1.6406c0.265,-0.5156 0.601,-0.961 1.007,-1.336c0.407,-0.3906 0.875,-0.6953 1.407,-0.914c0.547,-0.2188 1.125,-0.3281 1.734,-0.3281h8.25c0.641,0 1.242,0.125 1.805,0.375c0.562,0.2343 1.047,0.5625 1.453,0.9843c0.422,0.4063 0.75,0.8907 0.984,1.4532c0.25,0.5625 0.375,1.164 0.375,1.8046zM352.9759,64.88281v-15.7266h-12.867v15.7266zM369.8739,34.9297v34.57031h-4.593v-34.57031zM398.6789,59.37501h-16.523v5.5078h16.523v4.6172h-16.523c-0.625,0 -1.219,-0.1172 -1.782,-0.3516c-0.562,-0.25 -1.054,-0.5781 -1.476,-0.9843c-0.406,-0.4219 -0.734,-0.9141 -0.984,-1.4766c-0.235,-0.5625 -0.352,-1.1641 -0.352,-1.8047v-15.7266c0,-0.6406 0.117,-1.2421 0.352,-1.8046c0.25,-0.5625 0.578,-1.0469 0.984,-1.4532c0.422,-0.4218 0.914,-0.75 1.476,-0.9843c0.563,-0.25 1.157,-0.375 1.782,-0.375h11.906c0.641,0 1.242,0.125 1.805,0.375c0.562,0.2343 1.047,0.5625 1.453,0.9843c0.422,0.4063 0.75,0.8907 0.984,1.4532c0.25,0.5625 0.375,1.164 0.375,1.8046zM382.1559,49.15621v5.6016h11.906v-5.6016zM404.9369,44.53911h6.094v-7.68754h4.617v7.68754h8.203v4.6171h-8.203v15.7266h8.203v4.6172h-8.203c-0.625,0 -1.219,-0.1172 -1.781,-0.3516c-0.563,-0.25 -1.055,-0.5781 -1.477,-0.9843c-0.422,-0.4219 -0.758,-0.9141 -1.008,-1.4766c-0.234,-0.5625 -0.351,-1.1641 -0.351,-1.8047v-15.7266h-6.094zM452.6789,59.37501h-16.523v5.5078h16.523v4.6172h-16.523c-0.625,0 -1.219,-0.1172 -1.782,-0.3516c-0.562,-0.25 -1.054,-0.5781 -1.476,-0.9843c-0.406,-0.4219 -0.734,-0.9141 -0.984,-1.4766c-0.235,-0.5625 -0.352,-1.1641 -0.352,-1.8047v-15.7266c0,-0.6406 0.117,-1.2421 0.352,-1.8046c0.25,-0.5625 0.578,-1.0469 0.984,-1.4532c0.422,-0.4218 0.914,-0.75 1.476,-0.9843c0.563,-0.25 1.157,-0.375 1.782,-0.375h11.906c0.641,0 1.242,0.125 1.805,0.375c0.562,0.2343 1.047,0.5625 1.453,0.9843c0.422,0.4063 0.75,0.8907 0.984,1.4532c0.25,0.5625 0.375,1.164 0.375,1.8046zM436.1559,49.15621v5.6016h11.906v-5.6016zM462.0779,57.03121l-1.922,-21.14058h6.515l-1.921,21.14058zM459.8979,62.49221h7.008v7.0078h-7.008z" fill="#ffffff" stroke="#ffffff" stroke-width="1" stroke-linecap="butt"/><path d="M122.11994,100.77344h16.97842v3.33071h-13.64725v6.66141h11.64892v3.33071h-11.64892v6.64524h13.64725v3.33071h-16.97842zM146.94657,100.1073v23.96491h-3.18513v-23.96491zM152.27514,116.51719c0,-0.44412 0.08134,-0.85571 0.24401,-1.23486c0.17377,-0.38987 0.40115,-0.73112 0.68213,-1.02357c0.293,-0.29245 0.63407,-0.51992 1.02412,-0.68241c0.39005,-0.17331 0.80137,-0.25991 1.23486,-0.25991h8.25305v-3.34697h-10.44641v-3.20075h10.44641c0.44459,0 0.86145,0.08661 1.2515,0.25991c0.39005,0.16249 0.72557,0.38996 1.00748,0.68241c0.29208,0.28163 0.51946,0.61743 0.68213,1.00739c0.17284,0.38987 0.25973,0.80691 0.25973,1.25104v14.10275h-3.20084v-2.92457c-0.03235,0.40078 -0.14049,0.77992 -0.32443,1.13735c-0.18394,0.35743 -0.4224,0.67159 -0.71541,0.94232c-0.28099,0.26 -0.60634,0.46575 -0.97421,0.61743c-0.36879,0.15168 -0.75885,0.22747 -1.17016,0.22747h-5.06885c-0.4335,0 -0.84481,-0.08125 -1.23486,-0.24374c-0.39005,-0.17331 -0.73112,-0.40078 -1.02412,-0.68241c-0.28099,-0.29245 -0.50836,-0.63361 -0.68213,-1.02357c-0.16268,-0.38987 -0.24401,-0.80691 -0.24401,-1.25104zM155.46027,120.87146h8.25305v-4.35427h-8.25305zM187.56483,120.87146c0,0.44412 -0.08688,0.86117 -0.25973,1.25104c-0.16268,0.38996 -0.39005,0.73112 -0.68306,1.02357c-0.28099,0.28163 -0.61651,0.5091 -1.00656,0.68241c-0.39005,0.16249 -0.80691,0.24374 -1.2515,0.24374h-8.91947v6.9864h-3.18513v-24.28989h3.18513v2.92457c0.03235,-0.41168 0.14049,-0.79074 0.32443,-1.13735c0.18486,-0.35743 0.41686,-0.66614 0.69877,-0.92615c0.28191,-0.27073 0.60634,-0.48193 0.97513,-0.63361c0.37896,-0.15168 0.78011,-0.22747 1.20251,-0.22747h5.71863c0.44459,0 0.86145,0.08661 1.2515,0.25991c0.39005,0.16249 0.72557,0.38996 1.00656,0.68241c0.293,0.28163 0.52038,0.61743 0.68306,1.00739c0.17284,0.38987 0.25973,0.80691 0.25973,1.25104zM184.36398,120.87146v-10.902h-8.91947v10.902zM203.34074,120.87146v-4.01312h-7.58756c-0.44366,0 -0.86052,-0.08125 -1.25057,-0.24374c-0.39005,-0.17331 -0.73112,-0.40078 -1.02412,-0.68232c-0.28099,-0.29245 -0.50836,-0.6337 -0.68213,-1.02366c-0.16268,-0.38987 -0.24309,-0.80691 -0.24309,-1.25104v-3.68813c0,-0.44412 0.08041,-0.86117 0.24309,-1.25104c0.17377,-0.38996 0.40115,-0.72576 0.68213,-1.00739c0.293,-0.29245 0.63407,-0.51992 1.02412,-0.68241c0.39005,-0.17331 0.80691,-0.25991 1.25057,-0.25991h10.12291v3.20075h-10.12291v3.68813h7.58756c0.44459,0 0.8559,0.0867 1.23486,0.26c0.39005,0.16249 0.73112,0.38987 1.02412,0.68241c0.29208,0.28154 0.51946,0.61734 0.68213,1.0073c0.17377,0.38996 0.25973,0.80691 0.25973,1.25104v4.01312c0,0.44412 -0.08596,0.86117 -0.25973,1.25104c-0.16268,0.38996 -0.39005,0.73112 -0.68213,1.02357c-0.293,0.28163 -0.63407,0.5091 -1.02412,0.68241c-0.37896,0.16249 -0.79027,0.24374 -1.23486,0.24374h-10.78748v-3.20075zM226.18475,117.05328h-11.4539v3.81818h11.4539v3.20075h-11.4539c-0.4335,0 -0.84481,-0.08125 -1.23486,-0.24374c-0.39005,-0.17331 -0.73112,-0.40078 -1.02412,-0.68241c-0.28099,-0.29245 -0.50836,-0.63361 -0.68213,-1.02357c-0.16268,-0.38987 -0.24401,-0.80691 -0.24401,-1.25104v-10.902c0,-0.44412 0.08134,-0.86117 0.24401,-1.25104c0.17377,-0.38996 0.40115,-0.72576 0.68213,-1.00739c0.293,-0.29245 0.63407,-0.51992 1.02412,-0.68241c0.39005,-0.17331 0.80137,-0.25991 1.23486,-0.25991h8.25305c0.44459,0 0.86145,0.08661 1.2515,0.25991c0.39005,0.16249 0.72557,0.38996 1.00748,0.68241c0.29208,0.28163 0.51946,0.61743 0.68213,1.00739c0.17284,0.38987 0.25973,0.80691 0.25973,1.25104zM214.73086,109.96947v3.88316h8.25305v-3.88316zM231.52996,109.96947c0,-0.44412 0.08134,-0.86117 0.24401,-1.25104c0.17377,-0.38996 0.40115,-0.72576 0.68213,-1.00739c0.293,-0.29245 0.63407,-0.51992 1.02412,-0.68241c0.39005,-0.17331 0.80137,-0.25991 1.23486,-0.25991h8.91947v-6.66141h3.20084v23.96491h-3.20084v-2.92457c-0.03235,0.40078 -0.14049,0.77992 -0.32443,1.13735c-0.18486,0.35743 -0.4224,0.67159 -0.71541,0.94232c-0.28191,0.26 -0.60634,0.46575 -0.97513,0.61743c-0.36787,0.15168 -0.75792,0.22747 -1.16924,0.22747h-5.73527c-0.4335,0 -0.84481,-0.08125 -1.23486,-0.24374c-0.39005,-0.17331 -0.73112,-0.40078 -1.02412,-0.68241c-0.28099,-0.29245 -0.50836,-0.63361 -0.68213,-1.02357c-0.16268,-0.38987 -0.24401,-0.80691 -0.24401,-1.25104zM234.71509,120.87146h8.91947v-10.902h-8.91947zM260.46695,100.77344h18.63569v3.33071h-7.65226v19.96806h-3.33117v-19.96806h-7.65226zM286.13839,106.76872v17.3035h-3.20084v-17.3035zM282.77486,100.1073h3.52527v3.33071h-3.52527zM305.35823,109.96947v14.10275h-3.19992v-14.10275h-7.32783v14.10275h-3.18421v-17.3035h3.18421v3.05453c0.02126,-0.4224 0.11923,-0.81782 0.29208,-1.18606c0.17377,-0.37915 0.40115,-0.70404 0.68306,-0.97486c0.29208,-0.28163 0.6276,-0.49829 1.00656,-0.64987c0.37989,-0.16249 0.78565,-0.24374 1.21915,-0.24374h4.12699c0.4224,0 0.82262,0.08125 1.20159,0.24374c0.37896,0.15158 0.71541,0.36824 1.00748,0.64987c0.293,0.27082 0.52593,0.59571 0.69877,0.97486c0.18394,0.36824 0.28191,0.76365 0.29208,1.18606c0.02218,-0.4224 0.11369,-0.81782 0.27636,-1.18606c0.17377,-0.37915 0.40115,-0.70404 0.68306,-0.97486c0.29208,-0.28163 0.6276,-0.49829 1.00656,-0.64987c0.37989,-0.16249 0.78565,-0.24374 1.21915,-0.24374h4.12699c0.44366,0 0.86052,0.08661 1.25057,0.25991c0.39005,0.16249 0.72557,0.38996 1.00748,0.68241c0.29208,0.28163 0.51946,0.61743 0.68213,1.00739c0.17377,0.38987 0.25973,0.80691 0.25973,1.25104v14.10275h-3.19992v-14.10275zM335.85543,117.05328h-11.45482v3.81818h11.45482v3.20075h-11.45482c-0.4335,0 -0.84481,-0.08125 -1.23486,-0.24374c-0.39005,-0.17331 -0.73112,-0.40078 -1.0232,-0.68241c-0.28191,-0.29245 -0.50929,-0.63361 -0.68306,-1.02357c-0.16175,-0.38987 -0.24309,-0.80691 -0.24309,-1.25104v-10.902c0,-0.44412 0.08134,-0.86117 0.24309,-1.25104c0.17377,-0.38996 0.40115,-0.72576 0.68306,-1.00739c0.29208,-0.29245 0.63314,-0.51992 1.0232,-0.68241c0.39005,-0.17331 0.80137,-0.25991 1.23486,-0.25991h8.25398c0.44366,0 0.86052,0.08661 1.25057,0.25991c0.39005,0.16249 0.72557,0.38996 1.00748,0.68241c0.29208,0.28163 0.52038,0.61743 0.68213,1.00739c0.17377,0.38987 0.26065,0.80691 0.26065,1.25104zM324.40061,109.96947v3.88316h8.25398v-3.88316zM341.20065,119.2142h4.85811v4.85802h-4.85811zM341.20065,106.76872h4.85811v4.85802h-4.85811z" fill="#ffffff" stroke="none" stroke-width="1" stroke-linecap="butt"/></g></g></svg>