<svg version="1.1" xmlns="http://www.w3.org/2000/svg" xmlns:xlink="http://www.w3.org/1999/xlink" width="118.1563" height="15.30176" viewBox="0,0,118.1563,15.30176"><g transform="translate(-241.92185,-172.34912)"><g data-paper-data="{&quot;isPaintingLayer&quot;:true}" fill="#83a837" fill-rule="nonzero" stroke="none" stroke-width="1" stroke-linecap="butt" stroke-linejoin="miter" stroke-miterlimit="10" stroke-dasharray="" stroke-dashoffset="0" style="mix-blend-mode: normal"><path d="M244.32273,181.09909c-0.29876,0 -0.58332,-0.05692 -0.85365,-0.17072c-0.26321,-0.12095 -0.4944,-0.27744 -0.69358,-0.46951c-0.19921,-0.19921 -0.3557,-0.43039 -0.46951,-0.69361c-0.11381,-0.27033 -0.17072,-0.55486 -0.17072,-0.85365v-4.37498c0,-0.29879 0.05692,-0.57977 0.17072,-0.84299c0.11383,-0.2703 0.27033,-0.50151 0.46951,-0.69358c0.19918,-0.19918 0.43037,-0.35568 0.69358,-0.46951c0.27033,-0.12092 0.55489,-0.18141 0.85365,-0.18141h7.42681c0.29876,0 0.57977,0.06046 0.84296,0.18141c0.27033,0.11383 0.50508,0.27033 0.70427,0.46951c0.19918,0.19207 0.3557,0.42328 0.46951,0.69358c0.11383,0.26321 0.17075,0.5442 0.17075,0.84299v1.97408h-2.18749v-1.97408h-7.42681v4.37498h7.42681c0.29876,0 0.57977,0.05692 0.84296,0.17072c0.27033,0.11383 0.50508,0.27033 0.70427,0.46951c0.19918,0.19918 0.3557,0.43394 0.46951,0.70427c0.11383,0.26321 0.17075,0.5442 0.17075,0.84299v4.3643c0,0.29879 -0.05692,0.58334 -0.17075,0.85365c-0.11381,0.26321 -0.27033,0.49442 -0.46951,0.69361c-0.19918,0.19918 -0.43394,0.35568 -0.70427,0.46951c-0.26319,0.11381 -0.5442,0.17072 -0.84296,0.17072h-7.64022c-0.29876,0 -0.58332,-0.05692 -0.85365,-0.17072c-0.26321,-0.11383 -0.4944,-0.27033 -0.69358,-0.46951c-0.19918,-0.19918 -0.35568,-0.43039 -0.46951,-0.69361c-0.11381,-0.2703 -0.17072,-0.55486 -0.17072,-0.85365v-1.9634h2.18749v1.9634h7.64022v-4.3643zM267.28603,183.04114h-7.52282v2.50762h7.52282v2.10212h-7.52282c-0.28456,0 -0.55489,-0.05335 -0.81096,-0.16007c-0.2561,-0.11381 -0.4802,-0.26321 -0.67226,-0.44817c-0.18495,-0.19207 -0.33436,-0.41616 -0.44817,-0.67224c-0.10672,-0.2561 -0.16007,-0.53 -0.16007,-0.82164v-7.16002c0,-0.29167 0.05335,-0.56555 0.16007,-0.82164c0.11381,-0.2561 0.26321,-0.47663 0.44817,-0.66158c0.19207,-0.19207 0.41616,-0.34147 0.67226,-0.44817c0.25608,-0.11383 0.5264,-0.17075 0.81096,-0.17075h5.42075c0.29162,0 0.56552,0.05692 0.82169,0.17075c0.25593,0.10669 0.47641,0.2561 0.66143,0.44817c0.19207,0.18495 0.3414,0.40548 0.44824,0.66158c0.11388,0.2561 0.1707,0.52997 0.1707,0.82164zM259.76321,178.38874v2.55029h5.42075v-2.55029zM270.135,176.2866h2.77443v-3.49997h2.10207v3.49997h3.73477v2.10214h-3.73477v7.16002h3.73477v2.10212h-3.73477c-0.28434,0 -0.55484,-0.05335 -0.81077,-0.16007c-0.25617,-0.11381 -0.48029,-0.26321 -0.67236,-0.44817c-0.19207,-0.19207 -0.34504,-0.41616 -0.45892,-0.67224c-0.1066,-0.2561 -0.16002,-0.53 -0.16002,-0.82164v-7.16002h-2.77443zM289.0223,174.53661c0,-0.29879 0.05682,-0.57977 0.1707,-0.84299c0.11388,-0.2703 0.27026,-0.50151 0.46937,-0.69358c0.19935,-0.19918 0.43051,-0.35568 0.69373,-0.46951c0.27026,-0.12092 0.55484,-0.18141 0.8535,-0.18141h8.30192c0.29867,0 0.57985,0.06046 0.84306,0.18141c0.27026,0.11383 0.50506,0.27033 0.70417,0.46951c0.19911,0.19207 0.35573,0.42328 0.46961,0.69358c0.11364,0.26321 0.1707,0.5442 0.1707,0.84299v1.97408h-2.18754v-1.97408h-8.30192v10.92678h8.30192v-1.9634h2.18754v1.9634c0,0.29879 -0.05706,0.58334 -0.1707,0.85365c-0.11388,0.26321 -0.2705,0.49442 -0.46961,0.69361c-0.19911,0.19918 -0.43391,0.35568 -0.70417,0.46951c-0.26321,0.11381 -0.5444,0.17072 -0.84306,0.17072h-8.30192c-0.29867,0 -0.58325,-0.05692 -0.8535,-0.17072c-0.26321,-0.11383 -0.49438,-0.27033 -0.69373,-0.46951c-0.19911,-0.19918 -0.35548,-0.43039 -0.46937,-0.69361c-0.11388,-0.2703 -0.1707,-0.55486 -0.1707,-0.85365zM314.81313,185.54876c0,0.29165 -0.05682,0.56555 -0.1707,0.82164c-0.1066,0.25608 -0.25593,0.48017 -0.448,0.67224c-0.18503,0.18495 -0.4055,0.33436 -0.66168,0.44817c-0.24889,0.10672 -0.51939,0.16007 -0.81101,0.16007h-5.64477c-0.28458,0 -0.55484,-0.05335 -0.81101,-0.16007c-0.25593,-0.11381 -0.48005,-0.26321 -0.67212,-0.44817c-0.18503,-0.19207 -0.33436,-0.41616 -0.44824,-0.67224c-0.1066,-0.2561 -0.16002,-0.53 -0.16002,-0.82164v-7.16002c0,-0.29167 0.05342,-0.56555 0.16002,-0.82164c0.11388,-0.2561 0.26321,-0.47663 0.44824,-0.66158c0.19207,-0.19207 0.41619,-0.34147 0.67212,-0.44817c0.25617,-0.11383 0.52643,-0.17075 0.81101,-0.17075h5.64477c0.29162,0 0.56212,0.05692 0.81101,0.17075c0.25617,0.10669 0.47665,0.2561 0.66168,0.44817c0.19207,0.18495 0.3414,0.40548 0.448,0.66158c0.11388,0.2561 0.1707,0.52997 0.1707,0.82164zM307.07698,178.38874v7.16002h5.64477v-7.16002zM318.32378,176.2866h2.09163v9.26217h5.85821v-9.26217h2.10207v11.36428h-2.10207v-1.92073c-0.02137,0.26321 -0.09251,0.5122 -0.21344,0.74695c-0.12092,0.23476 -0.27754,0.44105 -0.46961,0.61889c-0.18478,0.17075 -0.39822,0.3059 -0.64007,0.4055c-0.24209,0.09958 -0.49802,0.14938 -0.76852,0.14938h-3.76658c-0.28458,0 -0.55484,-0.05335 -0.81101,-0.16007c-0.25617,-0.11381 -0.48029,-0.26321 -0.67236,-0.44817c-0.18478,-0.19207 -0.33436,-0.41616 -0.448,-0.67224c-0.10684,-0.2561 -0.16026,-0.53 -0.16026,-0.82164zM341.92732,187.65088h-2.10207v-9.26214h-5.85821v9.26214h-2.09138v-11.36428h2.09138v2.00611c0.01433,-0.27744 0.07843,-0.53711 0.19207,-0.77896c0.11388,-0.24898 0.26321,-0.4624 0.44824,-0.64026c0.19207,-0.18495 0.41255,-0.32722 0.66168,-0.42682c0.24889,-0.10669 0.51574,-0.16007 0.80033,-0.16007h3.7559c0.29162,0 0.56552,0.05692 0.82169,0.17075c0.25617,0.10669 0.47665,0.2561 0.66168,0.44817c0.19207,0.18495 0.3414,0.40548 0.448,0.66158c0.11388,0.2561 0.1707,0.52997 0.1707,0.82164zM344.76585,176.2866h2.77443v-3.49997h2.10207v3.49997h3.73477v2.10214h-3.73477v7.16002h3.73477v2.10212h-3.73477c-0.28458,0 -0.55484,-0.05335 -0.81101,-0.16007c-0.25617,-0.11381 -0.48005,-0.26321 -0.67212,-0.44817c-0.19207,-0.19207 -0.34504,-0.41616 -0.45892,-0.67224c-0.10684,-0.2561 -0.16002,-0.53 -0.16002,-0.82164v-7.16002h-2.77443zM356.88778,184.46036h3.19038v3.19052h-3.19038zM356.88778,176.2866h3.19038v3.19055h-3.19038z"/></g></g></svg>