<svg version="1.1" xmlns="http://www.w3.org/2000/svg" xmlns:xlink="http://www.w3.org/1999/xlink" width="4.40137" height="5.3252" viewBox="0,0,4.40137,5.3252"><g transform="translate(-238.04932,-174.9248)"><g data-paper-data="{&quot;isPaintingLayer&quot;:true}" fill="#ffffff" fill-rule="nonzero" stroke="#ffffff" stroke-width="0.5" stroke-linecap="butt" stroke-linejoin="miter" stroke-miterlimit="10" stroke-dasharray="" stroke-dashoffset="0" style="mix-blend-mode: normal"><path d="M239.25636,176.06735v3.93265h-0.95703v-4.8252h0.95703v0.85177c0.00651,-0.1178 0.03581,-0.22804 0.08789,-0.33074c0.05209,-0.10571 0.12045,-0.19633 0.20508,-0.27184c0.08789,-0.07854 0.1888,-0.13894 0.30274,-0.18123c0.11393,-0.04531 0.236,-0.06796 0.36621,-0.06796h1.0205c0.13347,0 0.25717,0.02416 0.3711,0.0725c0.11719,0.04531 0.21972,0.10874 0.30762,0.19029c0.08789,0.07853 0.15625,0.17216 0.20507,0.2809c0.05209,0.10874 0.07813,0.22503 0.07813,0.34887v0.81552h-0.96192v-0.81552z"/></g></g></svg>