<svg version="1.1" xmlns="http://www.w3.org/2000/svg" xmlns:xlink="http://www.w3.org/1999/xlink" width="93.97676" height="21.6892" viewBox="0,0,93.97676,21.6892"><g transform="translate(-193.01162,-169.1554)"><g data-paper-data="{&quot;isPaintingLayer&quot;:true}" fill="#000000" fill-rule="nonzero" stroke="#000000" stroke-width="0.5" stroke-linecap="butt" stroke-linejoin="miter" stroke-miterlimit="10" stroke-dasharray="" stroke-dashoffset="0" style="mix-blend-mode: normal"><path d="M193.26162,172.9393c0,-0.40223 0.0766,-0.78053 0.22984,-1.13486c0.15324,-0.36393 0.36394,-0.67519 0.6321,-0.93377c0.26816,-0.26816 0.5794,-0.47886 0.93377,-0.63209c0.36391,-0.16281 0.74699,-0.24422 1.14924,-0.24422h11.17639c0.40225,0 0.78053,0.0814 1.13489,0.24422c0.36393,0.15324 0.67998,0.36393 0.94811,0.63209c0.26816,0.25859 0.47886,0.56983 0.6321,0.93377c0.15324,0.35434 0.22984,0.73264 0.22984,1.13486v2.65764h-2.94494v-2.65764h-11.17639v14.71034h11.17639v-2.64327h2.94494v2.64327c0,0.40223 -0.0766,0.78533 -0.22984,1.14924c-0.15324,0.35436 -0.36394,0.66561 -0.6321,0.93377c-0.26813,0.26816 -0.58418,0.47886 -0.94811,0.63209c-0.35436,0.15324 -0.73264,0.22984 -1.13489,0.22984h-11.17639c-0.40225,0 -0.78533,-0.07661 -1.14924,-0.22984c-0.35436,-0.15324 -0.66561,-0.36393 -0.93377,-0.63209c-0.26816,-0.26816 -0.47886,-0.57941 -0.6321,-0.93377c-0.15324,-0.36391 -0.22984,-0.74701 -0.22984,-1.14924zM214.75249,183.9146c0,-0.39265 0.07183,-0.75658 0.21549,-1.09177c0.15324,-0.34478 0.35434,-0.64646 0.60339,-0.90502c0.25845,-0.25859 0.56013,-0.45971 0.90502,-0.60337c0.34467,-0.15321 0.70858,-0.22984 1.09174,-0.22984h7.29768v-2.95932h-9.23695v-2.82999h9.23695c0.39265,0 0.76132,0.0766 1.10622,0.22984c0.34467,0.14366 0.6416,0.34477 0.89054,0.60335c0.25867,0.24901 0.45987,0.54589 0.60335,0.89066c0.15321,0.34478 0.22993,0.7135 0.22993,1.10615v12.46931h-2.83005v-2.5858c-0.02874,0.35436 -0.12447,0.68955 -0.28719,1.0056c-0.16295,0.31604 -0.37365,0.59378 -0.6321,0.83319c-0.24917,0.22984 -0.53636,0.41183 -0.86202,0.54589c-0.32566,0.13409 -0.67034,0.20112 -1.03425,0.20112h-4.48213c-0.38315,0 -0.74706,-0.07183 -1.09174,-0.21547c-0.3449,-0.15324 -0.64658,-0.35436 -0.90502,-0.60338c-0.24906,-0.25857 -0.45016,-0.56026 -0.60339,-0.90502c-0.14366,-0.34477 -0.21549,-0.71349 -0.21549,-1.10615zM217.56814,187.76453h7.29768v-3.84997h-7.29768zM235.23774,178.12528v12.46931h-2.81556v-15.29931h2.81556v2.70073c0.01924,-0.37351 0.10546,-0.72307 0.25867,-1.04869c0.15321,-0.33522 0.35441,-0.62251 0.60335,-0.86193c0.25845,-0.24901 0.55537,-0.44054 0.89054,-0.57463c0.33517,-0.14366 0.69433,-0.21548 1.07748,-0.21548h3.00249c0.39265,0 0.75657,0.0766 1.09174,0.22984c0.34467,0.14366 0.64635,0.34477 0.90502,0.60335c0.25867,0.24901 0.45964,0.54589 0.60335,0.89066c0.15321,0.34478 0.22993,0.7135 0.22993,1.10615v2.58581h-2.83004v-2.58581zM247.4197,178.12528c0,-0.39265 0.07197,-0.76136 0.21545,-1.10615c0.15345,-0.34477 0.3544,-0.64164 0.60335,-0.89066c0.25867,-0.25859 0.56035,-0.45969 0.90525,-0.60335c0.34467,-0.15324 0.70858,-0.22984 1.09174,-0.22984h7.88655v-5.88988h2.83004v21.18919h-2.83004v-2.5858c-0.02875,0.35436 -0.12447,0.68955 -0.28719,1.0056c-0.16295,0.31604 -0.37364,0.59378 -0.63209,0.83319c-0.24894,0.22984 -0.53636,0.41183 -0.86203,0.54589c-0.32566,0.13409 -0.67034,0.20112 -1.03425,0.20112h-5.07099c-0.38315,0 -0.74706,-0.07183 -1.09174,-0.21547c-0.3449,-0.15324 -0.64658,-0.35436 -0.90525,-0.60338c-0.24894,-0.25857 -0.4499,-0.56026 -0.60335,-0.90502c-0.14348,-0.34477 -0.21545,-0.71349 -0.21545,-1.10615zM250.23548,187.76453h7.88655v-9.6393h-7.88655zM268.63765,175.29523v15.29931h-2.83004v-15.29931zM265.66413,169.4054h3.11723v2.94494h-3.11723zM286.73838,187.76453c0,0.39265 -0.07672,0.76138 -0.22994,1.10615c-0.14371,0.34477 -0.34467,0.64646 -0.60335,0.90502c-0.24894,0.24901 -0.54586,0.45013 -0.89077,0.60337c-0.33517,0.14364 -0.69908,0.21548 -1.09174,0.21548h-7.59936c-0.38315,0 -0.74705,-0.07184 -1.09173,-0.21548c-0.34467,-0.15324 -0.64635,-0.35436 -0.90503,-0.60337c-0.24894,-0.25857 -0.45014,-0.56026 -0.60336,-0.90502c-0.14371,-0.34477 -0.21545,-0.71349 -0.21545,-1.10615v-9.6393c0,-0.39265 0.07174,-0.76136 0.21545,-1.10615c0.15321,-0.34477 0.35441,-0.64165 0.60336,-0.89066c0.25868,-0.25859 0.56035,-0.45969 0.90503,-0.60335c0.34467,-0.15324 0.70858,-0.22984 1.09173,-0.22984h7.59936c0.39265,0 0.75657,0.0766 1.09174,0.22984c0.3449,0.14366 0.64183,0.34476 0.89077,0.60335c0.25868,0.24901 0.45964,0.54589 0.60335,0.89066c0.15321,0.34478 0.22994,0.71349 0.22994,1.10615zM276.32323,178.12528v9.6393h7.59936v-9.6393z"/></g></g></svg>