<svg version="1.1" xmlns="http://www.w3.org/2000/svg" xmlns:xlink="http://www.w3.org/1999/xlink" width="154.41442" height="320.25087" viewBox="0,0,154.41442,320.25087"><g transform="translate(-162.79279,-19.20731)"><g data-paper-data="{&quot;isPaintingLayer&quot;:true}" stroke-linecap="butt" stroke-linejoin="miter" stroke-miterlimit="10" stroke-dasharray="" stroke-dashoffset="0" style="mix-blend-mode: normal"><path d="M172.00262,337.95818c0,0 -3.40525,-1.29142 -4.9944,-4.33953c-1.58918,-3.04816 -2.71543,-10.44843 -2.71543,-10.44843c0,0 0,-228.25676 0,-280.43394c0,-8.66874 -0.01305,-9.6678 1.6886,-14.23537c1.70165,-4.56751 11.80705,-6.45909 16.06507,-6.45909c0,0 127.63125,0.57331 130.41754,5.26304c2.7863,4.68972 3.24321,14.99215 3.24321,14.99215v271.04609c0,0 -0.53771,11.07762 -3.21339,16.55056c-2.67569,5.47294 -8.8207,8.06451 -8.8207,8.06451z" fill="#ffffff" fill-rule="nonzero" stroke="#4fa1ff" stroke-width="3"/><path d="M172.00262,337.95818c0,0 -3.40525,-1.29142 -4.9944,-4.33953c-1.58918,-3.04816 -2.71543,-10.44843 -2.71543,-10.44843c0,0 0,-228.25676 0,-280.43394c0,-8.66874 -0.01305,-9.6678 1.6886,-14.23537c1.70165,-4.56751 5.14039,-6.45909 9.3984,-6.45909l120.95999,-1.33333c0,0 13.33792,1.90664 16.12422,6.59637c2.7863,4.68972 3.24321,14.99215 3.24321,14.99215v271.04609c0,0 -0.53771,11.07762 -3.21339,16.55056c-2.67569,5.47294 -8.8207,8.06451 -8.8207,8.06451z" fill="#4d4d4d" fill-rule="nonzero" stroke="#4fa1ff" stroke-width="3"/><path d="M212.96397,49.95588l-5.7613,-20.43126h2.88065l4.46686,16.25653l4.45453,-16.25653h2.87655l4.45453,16.25653l4.46686,-16.25653h2.87656l-5.7572,20.43126h-3.16008l-4.3107,-15.31616l-4.32715,15.31616zM234.83802,51.40898l7.62694,-23.33751h2.78203l-7.76666,23.33752zM265.39503,47.03504c0,0.39892 -0.07397,0.77869 -0.2219,1.13964c-0.15204,0.3514 -0.35753,0.66029 -0.62052,0.92625c-0.25889,0.26596 -0.57121,0.4748 -0.92461,0.62691c-0.34519,0.15172 -0.71502,0.22803 -1.10952,0.22803h-11.50617c-0.39039,0 -0.76434,-0.07627 -1.12186,-0.22803c-0.34519,-0.15213 -0.64928,-0.36101 -0.91228,-0.62691c-0.263,-0.26596 -0.46846,-0.57483 -0.62051,-0.92625c-0.14794,-0.36102 -0.22191,-0.74075 -0.22191,-1.13964v-14.58958c0,-0.39892 0.07397,-0.77408 0.22191,-1.12546c0.15204,-0.36101 0.35752,-0.66985 0.62051,-0.92624c0.263,-0.26596 0.56708,-0.4748 0.91228,-0.62692c0.35753,-0.16134 0.73147,-0.24221 1.12186,-0.24221h11.50617c0.39451,0 0.76433,0.08087 1.10952,0.24221c0.3534,0.15213 0.66572,0.36102 0.92461,0.62692c0.26301,0.25634 0.46846,0.56524 0.62052,0.92624c0.14794,0.3514 0.2219,0.72658 0.2219,1.12546zM251.01237,32.44544v14.58959h11.50618v-14.58958zM169.23385,58.88302c0,-0.39892 0.07807,-0.77409 0.22601,-1.12546c0.14794,-0.36102 0.35753,-0.66985 0.61641,-0.92624c0.263,-0.26596 0.56708,-0.4748 0.91638,-0.62691c0.3534,-0.16134 0.72735,-0.24221 1.12186,-0.24221h10.92676c0.39451,0 0.76433,0.08087 1.10952,0.24221c0.35753,0.15213 0.66572,0.36101 0.92871,0.62691c0.263,0.25634 0.46846,0.56524 0.6164,0.92624c0.15204,0.3514 0.22602,0.72658 0.22602,1.12546v2.6357h-2.88065v-2.6357h-10.92676v14.58959h10.92676v-4.95838h-5.46132v-2.92043h8.34197v7.87882c0,0.39893 -0.07397,0.77868 -0.22602,1.13964c-0.14794,0.3514 -0.3534,0.66028 -0.6164,0.92624c-0.263,0.26596 -0.57121,0.4748 -0.92871,0.62691c-0.34519,0.15172 -0.71502,0.22803 -1.10952,0.22803h-10.92676c-0.39451,0 -0.76844,-0.07627 -1.12186,-0.22803c-0.3493,-0.15213 -0.65338,-0.36101 -0.91638,-0.62691c-0.25889,-0.26596 -0.46846,-0.57482 -0.61641,-0.92624c-0.14794,-0.36101 -0.22601,-0.74075 -0.22601,-1.13964zM202.60174,70.23831h-9.90353v3.3481h9.90353v2.80706h-9.90353c-0.37395,0 -0.72735,-0.0713 -1.06432,-0.21385c-0.34107,-0.15213 -0.63284,-0.3514 -0.88762,-0.59815c-0.24245,-0.25679 -0.4397,-0.55566 -0.58765,-0.89789c-0.14382,-0.34181 -0.21368,-0.70739 -0.21368,-1.09716v-9.55995c0,-0.38932 0.06986,-0.75534 0.21368,-1.09716c0.14794,-0.34181 0.34519,-0.63654 0.58765,-0.88331c0.25478,-0.25634 0.54655,-0.45602 0.88762,-0.5986c0.33696,-0.15172 0.69036,-0.22803 1.06432,-0.22803h7.13793c0.38217,0 0.74379,0.07627 1.08076,0.22803c0.33696,0.14255 0.62463,0.34222 0.87118,0.5986c0.25066,0.24677 0.44792,0.54149 0.58764,0.88331c0.15204,0.34181 0.22602,0.70779 0.22602,1.09716zM192.69826,64.0265v3.40521h7.13793v-3.40521zM219.58983,76.39345h-2.7656v-12.36695h-7.71323v12.36695h-2.75327v-15.17401h2.75327v2.67864c0.02055,-0.37017 0.10273,-0.71695 0.25478,-1.04004c0.14794,-0.33223 0.34519,-0.61735 0.58764,-0.85495c0.25478,-0.24677 0.54654,-0.43686 0.87118,-0.56984c0.32874,-0.14255 0.68214,-0.21385 1.05611,-0.21385h4.94355c0.38217,0 0.74379,0.07627 1.08075,0.22803c0.33696,0.14255 0.62873,0.34223 0.87118,0.5986c0.25066,0.24677 0.44792,0.54149 0.58764,0.88331c0.15204,0.34181 0.22602,0.70779 0.22602,1.09716zM235.9902,70.23831h-9.90353v3.3481h9.90353v2.80706h-9.90353c-0.37395,0 -0.73147,-0.0713 -1.06843,-0.21385c-0.33696,-0.15213 -0.62872,-0.3514 -0.88351,-0.59815c-0.24245,-0.25679 -0.4397,-0.55566 -0.58765,-0.89789c-0.14382,-0.34181 -0.21368,-0.70739 -0.21368,-1.09716v-9.55995c0,-0.38932 0.06986,-0.75534 0.21368,-1.09716c0.14794,-0.34181 0.34519,-0.63654 0.58765,-0.88331c0.25478,-0.25634 0.54654,-0.45602 0.88351,-0.5986c0.33696,-0.15172 0.69448,-0.22803 1.06843,-0.22803h7.13793c0.38217,0 0.74379,0.07627 1.08075,0.22803c0.33696,0.14255 0.62463,0.34222 0.87118,0.5986c0.25066,0.24677 0.44792,0.54149 0.58765,0.88331c0.15204,0.34181 0.22601,0.70779 0.22601,1.09716zM226.08671,64.0265v3.40521h7.13793v-3.40521zM242.49953,64.0265v12.36695h-2.75326v-15.17401h2.75326v2.67864c0.02055,-0.37017 0.10273,-0.71695 0.25478,-1.04004c0.14794,-0.33223 0.34519,-0.61735 0.58764,-0.85495c0.25478,-0.24677 0.54655,-0.43686 0.87118,-0.56984c0.32874,-0.14255 0.67804,-0.21385 1.0561,-0.21385h2.93407c0.38217,0 0.73969,0.07627 1.06843,0.22803c0.33696,0.14255 0.63284,0.34223 0.88351,0.5986c0.25478,0.24677 0.44792,0.54149 0.59175,0.88331c0.14794,0.34181 0.2219,0.70779 0.2219,1.09716v2.56445h-2.76559v-2.56445zM253.54947,69.76812c0,-0.38931 0.06986,-0.75032 0.20958,-1.08257c0.14794,-0.34223 0.34518,-0.64151 0.59174,-0.89789c0.25066,-0.25634 0.54655,-0.45602 0.88352,-0.59815c0.33696,-0.15213 0.69447,-0.22804 1.06842,-0.22804h7.13384v-2.93501h-9.03235v-2.80706h9.03235c0.38218,0 0.74378,0.07627 1.08075,0.22803c0.33697,0.14255 0.62873,0.34223 0.87119,0.5986c0.25478,0.24677 0.44792,0.54149 0.59175,0.88331c0.14794,0.34181 0.2219,0.70779 0.2219,1.09716v12.36695h-2.7656v-2.56485c-0.02876,0.35179 -0.12329,0.68404 -0.27943,0.99751c-0.16027,0.31347 -0.36572,0.58898 -0.62052,0.82618c-0.24244,0.22803 -0.52189,0.40851 -0.84241,0.54149c-0.31642,0.13299 -0.65338,0.19968 -1.01091,0.19968h-4.38056c-0.37395,0 -0.73146,-0.0713 -1.06842,-0.21385c-0.33696,-0.15213 -0.63284,-0.3514 -0.88352,-0.59815c-0.24657,-0.25679 -0.44379,-0.55566 -0.59174,-0.89789c-0.13972,-0.34181 -0.20958,-0.70739 -0.20958,-1.09716zM256.30282,73.58641h7.13383v-3.81831h-7.13383zM269.09112,61.21944h3.65321v-4.67327h2.7656v4.67327h4.91478v2.80706h-4.91478v9.55996h4.91478v2.80706h-4.91478c-0.37395,0 -0.73147,-0.0713 -1.06843,-0.21385c-0.33697,-0.15213 -0.63283,-0.3514 -0.88351,-0.59815c-0.25478,-0.25679 -0.45613,-0.55566 -0.60407,-0.89789c-0.13972,-0.34181 -0.20958,-0.70739 -0.20958,-1.09716v-9.55996h-3.65321zM297.12101,73.58641c0,0.38974 -0.07807,0.75534 -0.22602,1.09716c-0.13972,0.34223 -0.33697,0.6411 -0.59175,0.89789c-0.24244,0.24676 -0.5301,0.44603 -0.86707,0.59815c-0.32874,0.14255 -0.68626,0.21385 -1.06842,0.21385h-7.4297c-0.37395,0 -0.73146,-0.0713 -1.06842,-0.21385c-0.33697,-0.15213 -0.63284,-0.35139 -0.88352,-0.59815c-0.24656,-0.25679 -0.4438,-0.55566 -0.59175,-0.89789c-0.13972,-0.34181 -0.20958,-0.70739 -0.20958,-1.09716v-9.55996c0,-0.38932 0.06986,-0.75533 0.20958,-1.09715c0.14794,-0.34181 0.34519,-0.63654 0.59175,-0.88331c0.25067,-0.25634 0.54654,-0.45602 0.88352,-0.5986c0.33697,-0.15172 0.69448,-0.22803 1.06842,-0.22803h7.4297c0.38218,0 0.73969,0.07627 1.06842,0.22803c0.33697,0.14255 0.62463,0.34223 0.86707,0.5986c0.25478,0.24677 0.45202,0.54149 0.59175,0.88331c0.14794,0.34181 0.22602,0.70778 0.22602,1.09715zM286.93793,64.0265v9.55996h7.4297v-9.55996zM303.63013,64.0265v12.36695h-2.75326v-15.17401h2.75326v2.67864c0.02055,-0.37017 0.10273,-0.71695 0.25478,-1.04004c0.14794,-0.33223 0.34519,-0.61735 0.58765,-0.85495c0.25478,-0.24677 0.54243,-0.43686 0.87118,-0.56984c0.32874,-0.14255 0.67804,-0.21385 1.05199,-0.21385h2.93819c0.38218,0 0.73969,0.07627 1.06842,0.22803c0.33697,0.14255 0.62873,0.34223 0.88352,0.5986c0.25067,0.24677 0.44792,0.54149 0.58764,0.88331c0.15204,0.34181 0.22602,0.70779 0.22602,1.09716v2.56445h-2.76559v-2.56445z" fill="#5267bf" fill-rule="nonzero" stroke="none" stroke-width="1"/><path d="M212.96397,49.95588l-5.7613,-20.43126h2.88065l4.46686,16.25653l4.45453,-16.25653h2.87655l4.45453,16.25653l4.46686,-16.25653h2.87656l-5.7572,20.43126h-3.16008l-4.3107,-15.31616l-4.32715,15.31616zM234.83802,51.40898l7.62694,-23.33751h2.78203l-7.76666,23.33752zM265.39503,47.03504c0,0.39892 -0.07397,0.77869 -0.2219,1.13964c-0.15204,0.3514 -0.35753,0.66029 -0.62052,0.92625c-0.25889,0.26596 -0.57121,0.4748 -0.92461,0.62691c-0.34519,0.15172 -0.71502,0.22803 -1.10952,0.22803h-11.50617c-0.39039,0 -0.76434,-0.07627 -1.12186,-0.22803c-0.34519,-0.15213 -0.64928,-0.36101 -0.91228,-0.62691c-0.263,-0.26596 -0.46846,-0.57483 -0.62051,-0.92625c-0.14794,-0.36102 -0.22191,-0.74075 -0.22191,-1.13964v-14.58958c0,-0.39892 0.07397,-0.77408 0.22191,-1.12546c0.15204,-0.36101 0.35752,-0.66985 0.62051,-0.92624c0.263,-0.26596 0.56708,-0.4748 0.91228,-0.62692c0.35753,-0.16134 0.73147,-0.24221 1.12186,-0.24221h11.50617c0.39451,0 0.76433,0.08087 1.10952,0.24221c0.3534,0.15213 0.66572,0.36102 0.92461,0.62692c0.26301,0.25634 0.46846,0.56524 0.62052,0.92624c0.14794,0.3514 0.2219,0.72658 0.2219,1.12546zM251.01237,32.44544v14.58959h11.50618v-14.58958zM169.23385,58.88302c0,-0.39892 0.07807,-0.77409 0.22601,-1.12546c0.14794,-0.36102 0.35753,-0.66985 0.61641,-0.92624c0.263,-0.26596 0.56708,-0.4748 0.91638,-0.62691c0.3534,-0.16134 0.72735,-0.24221 1.12186,-0.24221h10.92676c0.39451,0 0.76433,0.08087 1.10952,0.24221c0.35753,0.15213 0.66572,0.36101 0.92871,0.62691c0.263,0.25634 0.46846,0.56524 0.6164,0.92624c0.15204,0.3514 0.22602,0.72658 0.22602,1.12546v2.6357h-2.88065v-2.6357h-10.92676v14.58959h10.92676v-4.95838h-5.46132v-2.92043h8.34197v7.87882c0,0.39893 -0.07397,0.77868 -0.22602,1.13964c-0.14794,0.3514 -0.3534,0.66028 -0.6164,0.92624c-0.263,0.26596 -0.57121,0.4748 -0.92871,0.62691c-0.34519,0.15172 -0.71502,0.22803 -1.10952,0.22803h-10.92676c-0.39451,0 -0.76844,-0.07627 -1.12186,-0.22803c-0.3493,-0.15213 -0.65338,-0.36101 -0.91638,-0.62691c-0.25889,-0.26596 -0.46846,-0.57482 -0.61641,-0.92624c-0.14794,-0.36101 -0.22601,-0.74075 -0.22601,-1.13964zM202.60174,70.23831h-9.90353v3.3481h9.90353v2.80706h-9.90353c-0.37395,0 -0.72735,-0.0713 -1.06432,-0.21385c-0.34107,-0.15213 -0.63284,-0.3514 -0.88762,-0.59815c-0.24245,-0.25679 -0.4397,-0.55566 -0.58765,-0.89789c-0.14382,-0.34181 -0.21368,-0.70739 -0.21368,-1.09716v-9.55995c0,-0.38932 0.06986,-0.75534 0.21368,-1.09716c0.14794,-0.34181 0.34519,-0.63654 0.58765,-0.88331c0.25478,-0.25634 0.54655,-0.45602 0.88762,-0.5986c0.33696,-0.15172 0.69036,-0.22803 1.06432,-0.22803h7.13793c0.38217,0 0.74379,0.07627 1.08076,0.22803c0.33696,0.14255 0.62463,0.34222 0.87118,0.5986c0.25066,0.24677 0.44792,0.54149 0.58764,0.88331c0.15204,0.34181 0.22602,0.70779 0.22602,1.09716zM192.69826,64.0265v3.40521h7.13793v-3.40521zM219.58983,76.39345h-2.7656v-12.36695h-7.71323v12.36695h-2.75327v-15.17401h2.75327v2.67864c0.02055,-0.37017 0.10273,-0.71695 0.25478,-1.04004c0.14794,-0.33223 0.34519,-0.61735 0.58764,-0.85495c0.25478,-0.24677 0.54654,-0.43686 0.87118,-0.56984c0.32874,-0.14255 0.68214,-0.21385 1.05611,-0.21385h4.94355c0.38217,0 0.74379,0.07627 1.08075,0.22803c0.33696,0.14255 0.62873,0.34223 0.87118,0.5986c0.25066,0.24677 0.44792,0.54149 0.58764,0.88331c0.15204,0.34181 0.22602,0.70779 0.22602,1.09716zM235.9902,70.23831h-9.90353v3.3481h9.90353v2.80706h-9.90353c-0.37395,0 -0.73147,-0.0713 -1.06843,-0.21385c-0.33696,-0.15213 -0.62872,-0.3514 -0.88351,-0.59815c-0.24245,-0.25679 -0.4397,-0.55566 -0.58765,-0.89789c-0.14382,-0.34181 -0.21368,-0.70739 -0.21368,-1.09716v-9.55995c0,-0.38932 0.06986,-0.75534 0.21368,-1.09716c0.14794,-0.34181 0.34519,-0.63654 0.58765,-0.88331c0.25478,-0.25634 0.54654,-0.45602 0.88351,-0.5986c0.33696,-0.15172 0.69448,-0.22803 1.06843,-0.22803h7.13793c0.38217,0 0.74379,0.07627 1.08075,0.22803c0.33696,0.14255 0.62463,0.34222 0.87118,0.5986c0.25066,0.24677 0.44792,0.54149 0.58765,0.88331c0.15204,0.34181 0.22601,0.70779 0.22601,1.09716zM226.08671,64.0265v3.40521h7.13793v-3.40521zM242.49953,64.0265v12.36695h-2.75326v-15.17401h2.75326v2.67864c0.02055,-0.37017 0.10273,-0.71695 0.25478,-1.04004c0.14794,-0.33223 0.34519,-0.61735 0.58764,-0.85495c0.25478,-0.24677 0.54655,-0.43686 0.87118,-0.56984c0.32874,-0.14255 0.67804,-0.21385 1.0561,-0.21385h2.93407c0.38217,0 0.73969,0.07627 1.06843,0.22803c0.33696,0.14255 0.63284,0.34223 0.88351,0.5986c0.25478,0.24677 0.44792,0.54149 0.59175,0.88331c0.14794,0.34181 0.2219,0.70779 0.2219,1.09716v2.56445h-2.76559v-2.56445zM253.54947,69.76812c0,-0.38931 0.06986,-0.75032 0.20958,-1.08257c0.14794,-0.34223 0.34518,-0.64151 0.59174,-0.89789c0.25066,-0.25634 0.54655,-0.45602 0.88352,-0.59815c0.33696,-0.15213 0.69447,-0.22804 1.06842,-0.22804h7.13384v-2.93501h-9.03235v-2.80706h9.03235c0.38218,0 0.74378,0.07627 1.08075,0.22803c0.33697,0.14255 0.62873,0.34223 0.87119,0.5986c0.25478,0.24677 0.44792,0.54149 0.59175,0.88331c0.14794,0.34181 0.2219,0.70779 0.2219,1.09716v12.36695h-2.7656v-2.56485c-0.02876,0.35179 -0.12329,0.68404 -0.27943,0.99751c-0.16027,0.31347 -0.36572,0.58898 -0.62052,0.82618c-0.24244,0.22803 -0.52189,0.40851 -0.84241,0.54149c-0.31642,0.13299 -0.65338,0.19968 -1.01091,0.19968h-4.38056c-0.37395,0 -0.73146,-0.0713 -1.06842,-0.21385c-0.33696,-0.15213 -0.63284,-0.3514 -0.88352,-0.59815c-0.24657,-0.25679 -0.44379,-0.55566 -0.59174,-0.89789c-0.13972,-0.34181 -0.20958,-0.70739 -0.20958,-1.09716zM256.30282,73.58641h7.13383v-3.81831h-7.13383zM269.09112,61.21944h3.65321v-4.67327h2.7656v4.67327h4.91478v2.80706h-4.91478v9.55996h4.91478v2.80706h-4.91478c-0.37395,0 -0.73147,-0.0713 -1.06843,-0.21385c-0.33697,-0.15213 -0.63283,-0.3514 -0.88351,-0.59815c-0.25478,-0.25679 -0.45613,-0.55566 -0.60407,-0.89789c-0.13972,-0.34181 -0.20958,-0.70739 -0.20958,-1.09716v-9.55996h-3.65321zM297.12101,73.58641c0,0.38974 -0.07807,0.75534 -0.22602,1.09716c-0.13972,0.34223 -0.33697,0.6411 -0.59175,0.89789c-0.24244,0.24676 -0.5301,0.44603 -0.86707,0.59815c-0.32874,0.14255 -0.68626,0.21385 -1.06842,0.21385h-7.4297c-0.37395,0 -0.73146,-0.0713 -1.06842,-0.21385c-0.33697,-0.15213 -0.63284,-0.35139 -0.88352,-0.59815c-0.24656,-0.25679 -0.4438,-0.55566 -0.59175,-0.89789c-0.13972,-0.34181 -0.20958,-0.70739 -0.20958,-1.09716v-9.55996c0,-0.38932 0.06986,-0.75533 0.20958,-1.09715c0.14794,-0.34181 0.34519,-0.63654 0.59175,-0.88331c0.25067,-0.25634 0.54654,-0.45602 0.88352,-0.5986c0.33697,-0.15172 0.69448,-0.22803 1.06842,-0.22803h7.4297c0.38218,0 0.73969,0.07627 1.06842,0.22803c0.33697,0.14255 0.62463,0.34223 0.86707,0.5986c0.25478,0.24677 0.45202,0.54149 0.59175,0.88331c0.14794,0.34181 0.22602,0.70778 0.22602,1.09715zM286.93793,64.0265v9.55996h7.4297v-9.55996zM303.63013,64.0265v12.36695h-2.75326v-15.17401h2.75326v2.67864c0.02055,-0.37017 0.10273,-0.71695 0.25478,-1.04004c0.14794,-0.33223 0.34519,-0.61735 0.58765,-0.85495c0.25478,-0.24677 0.54243,-0.43686 0.87118,-0.56984c0.32874,-0.14255 0.67804,-0.21385 1.05199,-0.21385h2.93819c0.38218,0 0.73969,0.07627 1.06842,0.22803c0.33697,0.14255 0.62873,0.34223 0.88352,0.5986c0.25067,0.24677 0.44792,0.54149 0.58764,0.88331c0.15204,0.34181 0.22602,0.70779 0.22602,1.09716v2.56445h-2.76559v-2.56445z" fill="#ffffff" fill-rule="nonzero" stroke="none" stroke-width="1"/><g stroke="none" stroke-width="1"><path d="M306.85482,162.2796c0.31489,0.28642 0.36444,0.75516 0.1203,1.14241l-3.89907,5.83257c-0.24767,0.38761 -0.70055,0.49743 -1.07914,0.31692l-4.0795,-2.12903c-0.92347,0.627 -1.9283,1.13559 -3.00745,1.48946l-1.02253,4.6288c-0.08845,0.43784 -0.47058,0.72139 -0.89162,0.68516l-6.78975,-0.57712c-0.42457,-0.03588 -0.73594,-0.37791 -0.78902,-0.828l-0.24767,-4.73683c-1.00839,-0.53118 -1.89646,-1.20088 -2.72084,-1.97649l-4.37318,1.41049c-0.39981,0.0962 -0.83147,-0.07034 -1.00839,-0.4942l-2.89068,-6.40936c-0.16275,-0.38511 -0.03184,-0.87538 0.30783,-1.1065l3.8283,-2.60782c-0.04245,-0.56063 -0.02831,-1.1722 0.0177,-1.74358c0.04954,-0.57172 0.16984,-1.17397 0.30428,-1.71952l-3.35065,-3.21832c-0.32906,-0.28784 -0.36088,-0.77345 -0.11676,-1.14241l3.88137,-5.83402c0.24767,-0.38761 0.70055,-0.49743 1.07561,-0.31692l4.0795,2.12903c0.92347,-0.60835 1.9283,-1.13559 3.00745,-1.48946l1.02607,-4.6288c0.10614,-0.43643 0.46704,-0.72139 0.89162,-0.68516l6.78975,0.57712c0.42457,0.03588 0.75363,0.37936 0.78547,0.828l0.25121,4.73683c1.00485,0.53118 1.89292,1.20088 2.72084,1.97649l4.36964,-1.41049c0.39981,-0.0962 0.83147,0.07034 1.01192,0.4942l2.88715,6.40936c0.16629,0.38511 0.03538,0.87538 -0.30428,1.1065l-3.8283,2.60782c0.04245,0.56063 0.02831,1.15386 -0.02123,1.74358c-0.04954,0.60871 -0.13091,1.17723 -0.24767,1.72419zM297.42563,156.79943c0.30428,-3.65044 -2.31397,-6.88057 -5.81675,-7.17813c-3.49926,-0.29752 -6.6093,2.44558 -6.91359,6.09603c-0.30075,3.65044 2.31751,6.88057 5.81675,7.17813c3.50279,0.29752 6.61284,-2.44558 6.91359,-6.09603z" fill="#b2b2b2" fill-rule="nonzero"/><path d="M284.72005,192.09895c0.49181,0.3772 0.61918,1.05087 0.31136,1.64345l-4.96052,8.94573c-0.31136,0.59255 -0.95885,0.80827 -1.52495,0.59255l-6.17765,-2.58665c-1.26665,1.02394 -2.66071,1.88607 -4.18566,2.5328l-0.93054,6.84399c-0.07783,0.64639 -0.59441,1.10471 -1.21359,1.10471h-9.92102c-0.62272,0 -1.11099,-0.45834 -1.2419,-1.10471l-0.93054,-6.84399c-1.52495,-0.64674 -2.89422,-1.50885 -4.18566,-2.5328l-6.17411,2.58665c-0.56964,0.18879 -1.21713,0 -1.52495,-0.59255l-4.96052,-8.94573c-0.28659,-0.53872 -0.15568,-1.2662 0.30783,-1.64345l5.24711,-4.25698c-0.13091,-0.80861 -0.18045,-1.69762 -0.18045,-2.5328c0,-0.83554 0.10262,-1.72454 0.22997,-2.5328l-5.24357,-4.25734c-0.51658,-0.3772 -0.61918,-1.0778 -0.31136,-1.64345l4.93575,-8.94539c0.31136,-0.59292 0.95531,-0.80861 1.52495,-0.59292l6.17411,2.58665c1.26665,-0.99705 2.66424,-1.88607 4.1892,-2.5328l0.927,-6.84363c0.10614,-0.64674 0.59441,-1.10471 1.21713,-1.10471h9.92102c0.61918,0 1.13574,0.45798 1.2419,1.10471l0.927,6.84363c1.52495,0.64674 2.89422,1.50885 4.1892,2.5328l6.17411,-2.58665c0.56964,-0.18844 1.21359,0 1.52495,0.59292l4.96052,8.94539c0.28305,0.53872 0.15568,1.2662 -0.31136,1.64345l-5.24357,4.25734c0.12737,0.80827 0.18045,1.67033 0.18045,2.5328c0,0.88901 -0.05308,1.72419 -0.15568,2.5328zM270.37986,185.30916c0,-5.33514 -4.18566,-9.70014 -9.30184,-9.70014c-5.1162,0 -9.30184,4.36501 -9.30184,9.70014c0,5.33478 4.18566,9.69979 9.30184,9.69979c5.1162,0 9.30184,-4.36501 9.30184,-9.69979z" fill="#c3c3c3" fill-rule="nonzero"/><path d="M243.59616,99.62253v13.13776h-3.9946v-13.13776z" fill="#a8d54a" fill-rule="evenodd"/><path d="M227.40545,99.62253v13.13776h-3.99106v-13.13776z" fill="#a8d54a" fill-rule="evenodd"/><path d="M211.2184,99.62253v13.13776h-3.9946v-13.13776z" fill="#a8d54a" fill-rule="evenodd"/><path d="M207.22381,191.58609v-13.13741h3.9946v13.13741z" fill="#a8d54a" fill-rule="evenodd"/><path d="M239.60153,191.58609v-13.13741h3.9946v13.13741z" fill="#a8d54a" fill-rule="evenodd"/><path d="M223.41447,191.58609v-13.13741h3.99106v13.13741z" fill="#a8d54a" fill-rule="evenodd"/><path d="M270.73749,131.20732l-12.9497,0.00036v-4.05024h12.9497z" fill="#a8d54a" fill-rule="evenodd"/><path d="M270.73749,147.62944h-12.9497v-4.0499h12.9497z" fill="#a8d54a" fill-rule="evenodd"/><path d="M270.73749,164.05154h-12.9497v-4.0499h12.9497z" fill="#a8d54a" fill-rule="evenodd"/><path d="M180.07896,160.00165h12.95324v4.0499h-12.95324z" fill="#a8d54a" fill-rule="evenodd"/><path d="M180.07896,127.15742h12.95324v4.05024l-12.95324,-0.00036z" fill="#a8d54a" fill-rule="evenodd"/><path d="M180.07896,143.57953h12.95324v4.0499h-12.95324z" fill="#a8d54a" fill-rule="evenodd"/><path d="M241.60067,91.41183c2.68193,0 4.85436,2.20549 4.85436,4.92633c0,2.72084 -2.17244,4.92669 -4.85436,4.92669c-2.68193,0 -4.85792,-2.20583 -4.85792,-4.92669c0,-2.72084 2.17597,-4.92633 4.85792,-4.92633z" fill="#a8d54a" fill-rule="nonzero"/><path d="M225.40999,98.8017c-0.64395,0 -1.26313,-0.25948 -1.71956,-0.72175c-0.45289,-0.46191 -0.71117,-1.08819 -0.71117,-1.74178c0,-0.65321 0.25828,-1.27986 0.71117,-1.74178c0.45641,-0.46191 1.07561,-0.72139 1.71956,-0.72139c0.64395,0 1.25958,0.25948 1.71601,0.72139c0.45641,0.46191 0.71117,1.08855 0.71117,1.74178c0,0.65357 -0.25475,1.27986 -0.71117,1.74178c-0.45641,0.46227 -1.07207,0.72175 -1.71601,0.72175zM225.40999,101.26489c-1.2879,0 -2.52625,-0.51899 -3.43557,-1.4428c-0.9093,-0.92417 -1.42235,-2.1771 -1.42235,-3.48389c0,-1.30643 0.51304,-2.55972 1.42235,-3.48354c0.9093,-0.92381 2.14767,-1.4428 3.43557,-1.4428c1.2879,0 2.52271,0.51899 3.43203,1.4428c0.91286,0.92381 1.42235,2.1771 1.42235,3.48354c0,1.30679 -0.50949,2.55972 -1.42235,3.48389c-0.9093,0.92381 -2.14413,1.4428 -3.43203,1.4428z" fill="#a8d54a" fill-rule="evenodd"/><path d="M209.22281,91.41183c2.68193,0 4.85436,2.20549 4.85436,4.92633c0,2.72084 -2.17244,4.92669 -4.85436,4.92669c-2.68193,0 -4.85792,-2.20583 -4.85792,-4.92669c0,-2.72084 2.17597,-4.92633 4.85792,-4.92633z" fill="#a8d54a" fill-rule="nonzero"/><path d="M210.93531,193.12905c0.45641,0.46191 0.71117,1.08855 0.71117,1.74178c0,0.65321 -0.25475,1.27986 -0.71117,1.74178c-0.45289,0.46191 -1.07207,0.72139 -1.71601,0.72139c-0.64395,0 -1.26313,-0.25948 -1.71601,-0.72139c-0.45641,-0.46191 -0.71117,-1.08855 -0.71117,-1.74178c0,-0.65321 0.25475,-1.27986 0.71117,-1.74178c0.45289,-0.46191 1.07207,-0.72139 1.71601,-0.72139c0.64395,0 1.26313,0.25948 1.71601,0.72139zM212.65486,191.38727c0.9093,0.92381 1.42235,2.17676 1.42235,3.48354c0,1.30643 -0.51304,2.55972 -1.42235,3.48354c-0.91286,0.92381 -2.14767,1.44314 -3.43557,1.44314c-1.2879,0 -2.52271,-0.51933 -3.43557,-1.44314c-0.9093,-0.92381 -1.42235,-2.1771 -1.42235,-3.48354c0,-1.30679 0.51304,-2.55972 1.42235,-3.48354c0.91286,-0.92417 2.14767,-1.44314 3.43557,-1.44314c1.2879,0 2.52271,0.51899 3.43557,1.44314z" fill="#a8d54a" fill-rule="evenodd"/><path d="M243.31667,193.12905c0.45289,0.46191 0.71117,1.08855 0.71117,1.74178c0,0.65321 -0.25828,1.27986 -0.71117,1.74178c-0.45641,0.46191 -1.07561,0.72139 -1.71956,0.72139c-0.64395,0 -1.25958,-0.25948 -1.71601,-0.72139c-0.45641,-0.46191 -0.71117,-1.08855 -0.71117,-1.74178c0,-0.65321 0.25475,-1.27986 0.71117,-1.74178c0.45641,-0.46191 1.07207,-0.72175 1.71601,-0.72175c0.64395,0 1.26313,0.25985 1.71956,0.72175zM245.03259,191.38727c0.9093,0.92381 1.42235,2.17676 1.42235,3.48354c0,1.30643 -0.51304,2.55972 -1.42235,3.48354c-0.9093,0.92381 -2.14767,1.44314 -3.43557,1.44314c-1.2879,0 -2.52271,-0.51933 -3.43203,-1.44314c-0.91286,-0.92381 -1.42235,-2.1771 -1.42235,-3.48354c0,-1.30679 0.50949,-2.55972 1.42235,-3.48354c0.9093,-0.92417 2.14413,-1.44314 3.43203,-1.44314c1.2879,0 2.52625,0.51899 3.43557,1.44314z" fill="#a8d54a" fill-rule="evenodd"/><path d="M220.55203,194.87082c0,-2.72084 2.17244,-4.92669 4.85436,-4.92669c2.68548,0 4.85792,2.20583 4.85792,4.92669c0,2.72084 -2.17244,4.92669 -4.85792,4.92669c-2.68193,0 -4.85436,-2.20583 -4.85436,-4.92669z" fill="#a8d54a" fill-rule="nonzero"/><path d="M273.97491,134.10908c-2.68193,0 -4.85436,-2.20583 -4.85436,-4.92669c0,-2.72084 2.17244,-4.92669 4.85436,-4.92669c2.68548,0 4.85792,2.20583 4.85792,4.92669c0,2.72084 -2.17244,4.92669 -4.85792,4.92669z" fill="#a8d54a" fill-rule="nonzero"/><path d="M272.25887,143.86272c0.45641,-0.46191 1.07207,-0.72139 1.71601,-0.72139c0.64395,0 1.26313,0.25948 1.71956,0.72139c0.45289,0.46191 0.71117,1.08855 0.71117,1.74178c0,0.65357 -0.25828,1.27986 -0.71117,1.74213c-0.45641,0.46191 -1.07561,0.72139 -1.71956,0.72139c-0.64395,0 -1.25958,-0.25948 -1.71601,-0.72139c-0.45641,-0.46227 -0.71117,-1.08855 -0.71117,-1.74213c0,-0.65321 0.25475,-1.27986 0.71117,-1.74178zM270.54282,142.12094c0.9093,-0.92381 2.14413,-1.4428 3.43203,-1.4428c1.2879,0 2.52271,0.51899 3.43557,1.4428c0.9093,0.92381 1.42235,2.1771 1.42235,3.48354c0,1.30679 -0.51304,2.55972 -1.42235,3.48389c-0.91286,0.92381 -2.14767,1.4428 -3.43557,1.4428c-1.2879,0 -2.52271,-0.51899 -3.43203,-1.4428c-0.91286,-0.92417 -1.42235,-2.1771 -1.42235,-3.48389c0,-1.30643 0.50949,-2.55972 1.42235,-3.48354z" fill="#a8d54a" fill-rule="evenodd"/><path d="M273.97491,166.95331c-2.68193,0 -4.85436,-2.20583 -4.85436,-4.92669c0,-2.72084 2.17244,-4.92669 4.85436,-4.92669c2.68548,0 4.85792,2.20583 4.85792,4.92669c0,2.72084 -2.17244,4.92669 -4.85792,4.92669z" fill="#a8d54a" fill-rule="nonzero"/><path d="M179.26872,162.02659c0,0.65321 -0.25475,1.27986 -0.71117,1.74178c-0.45289,0.46191 -1.07207,0.72139 -1.71601,0.72139c-0.64395,0 -1.25958,-0.25948 -1.71601,-0.72139c-0.45641,-0.46191 -0.71117,-1.08855 -0.71117,-1.74178c0,-0.65321 0.25475,-1.27986 0.71117,-1.74178c0.45641,-0.46191 1.07207,-0.72139 1.71601,-0.72139c0.31845,0 0.63333,0.06351 0.93054,0.18735c0.29366,0.12383 0.56257,0.30505 0.78547,0.53406c0.22644,0.22863 0.40689,0.50033 0.52719,0.79891c0.12383,0.29898 0.18399,0.61946 0.18399,0.94285zM181.69938,162.02659c0,1.30679 -0.51304,2.55972 -1.42235,3.48354c-0.91286,0.92417 -2.14767,1.44314 -3.43557,1.44314c-1.2879,0 -2.52271,-0.51899 -3.43557,-1.44314c-0.9093,-0.92381 -1.42235,-2.17676 -1.42235,-3.48354c0,-1.30679 0.51304,-2.55972 1.42235,-3.48354c0.91286,-0.92417 2.14767,-1.44314 3.43557,-1.44314c1.2879,0 2.52271,0.51899 3.43557,1.44314c0.9093,0.92381 1.42235,2.17676 1.42235,3.48354z" fill="#a8d54a" fill-rule="evenodd"/><path d="M179.26872,129.1824c0,0.32339 -0.06015,0.64389 -0.18399,0.94285c-0.1203,0.29862 -0.30075,0.57031 -0.52719,0.79891c-0.22292,0.22899 -0.49181,0.41022 -0.78547,0.53406c-0.29721,0.12383 -0.61211,0.18771 -0.93054,0.18771c-0.64395,0 -1.25958,-0.25985 -1.71601,-0.72175c-0.45641,-0.46191 -0.71117,-1.08855 -0.71117,-1.74178c0,-0.32339 0.06369,-0.64389 0.18399,-0.9425c0.12383,-0.29898 0.30075,-0.57067 0.52719,-0.79927c0.22644,-0.22863 0.49181,-0.41022 0.78547,-0.53406c0.29721,-0.12383 0.61211,-0.18735 0.93054,-0.18735c0.64395,0 1.26313,0.25948 1.71601,0.72139c0.45641,0.46191 0.71117,1.08855 0.71117,1.74178zM181.69938,129.1824c0,1.30679 -0.51304,2.55972 -1.42235,3.48354c-0.91286,0.92417 -2.14767,1.44314 -3.43557,1.44314c-1.2879,0 -2.52271,-0.51899 -3.43557,-1.44314c-0.9093,-0.92381 -1.42235,-2.17676 -1.42235,-3.48354c0,-1.30643 0.51304,-2.55972 1.42235,-3.48354c0.91286,-0.92381 2.14767,-1.44314 3.43557,-1.44314c1.2879,0 2.52271,0.51933 3.43557,1.44314c0.9093,0.92381 1.42235,2.1771 1.42235,3.48354z" fill="#a8d54a" fill-rule="evenodd"/><path d="M171.98365,145.60449c0,-2.72084 2.17597,-4.92633 4.85792,-4.92633c2.68193,0 4.85792,2.20549 4.85792,4.92633c0,2.72084 -2.17597,4.92669 -4.85792,4.92669c-2.68193,0 -4.85792,-2.20583 -4.85792,-4.92669z" fill="#a8d54a" fill-rule="nonzero"/><path d="M202.74438,114.78556c-4.25995,0 -7.71676,3.50473 -7.71676,7.82809v45.98197c0,4.32339 3.45679,7.82809 7.71676,7.82809h45.33104c4.26349,0 7.71676,-3.50473 7.71676,-7.82809v-45.98197c0,-4.32339 -3.45325,-7.82809 -7.71676,-7.82809zM191.03661,122.61367c0,-6.56009 5.24003,-11.87835 11.7078,-11.87835h45.33104c6.46777,0 11.71134,5.31826 11.71134,11.87835v45.98197c0,6.56009 -5.24357,11.87799 -11.71134,11.87799h-45.33104c-6.46777,0 -11.7078,-5.31791 -11.7078,-11.87799z" fill="#a8d54a" fill-rule="evenodd"/><path d="M253.0325,149.57902c-0.18399,1.25906 -0.6581,2.45673 -1.38343,3.49897c-0.72178,1.04262 -1.67355,1.90042 -2.77747,2.50587c-0.30783,0.17228 -0.62979,0.31657 -0.95885,0.43177c0.42105,5.65063 -8.44561,7.70535 -13.22215,6.35947l1.77616,6.28768l-4.56424,0.16438l-7.98918,-11.58403c-2.69255,0.77059 -5.87336,1.14061 -7.9255,-2.19865c-0.18752,-0.30651 -0.35736,-0.62414 -0.50949,-0.95004c-0.52011,0.10767 -1.05082,0.16258 -1.5851,0.16438c-1.52141,0 -4.05827,-0.46261 -5.34617,-1.36672c-1.02253,-0.68553 -1.83277,-1.64882 -2.33873,-2.77902c-2.74208,0.38007 -5.07019,-0.27205 -6.5916,-1.88535c-1.9283,-2.00845 -2.47672,-5.32689 -1.47189,-8.88686c1.32328,-4.75154 5.34971,-10.10427 13.35306,-12.1127c0.69348,-0.87429 1.52495,-1.62727 2.45903,-2.2295c5.02774,-3.2621 13.18676,-3.54454 19.37856,-0.44684c2.40241,-0.45331 4.87914,-0.21282 7.15064,0.69341c4.45455,1.69008 7.68845,5.22425 8.29701,8.81512c1.20652,0.63276 2.19367,1.62154 2.83054,2.83535c1.33389,2.53783 1.52141,5.08066 0.62272,7.13542c0.84562,1.71519 1.12513,3.66013 0.79609,5.54795zM249.74907,146.90766c-0.71117,0.37902 -1.50018,0.57747 -2.29981,0.57747c-0.80317,0 -1.59219,-0.19849 -2.29981,-0.57747l0.36797,-2.49151c1.56388,0.15433 2.83407,-0.33882 3.49926,-1.3509c0.74655,-1.12518 0.62979,-2.79445 -0.31489,-4.58716c-1.05438,-2.00881 -3.32942,-2.32716 -4.59255,-2.34259h-0.08139c-3.16666,0 -6.38994,1.8236 -7.69552,4.20208l-1.89646,-0.91954c0.37505,-1.22531 1.00839,-2.35264 1.85754,-3.30302c-0.73241,-0.62915 -1.28435,-1.44424 -1.6028,-2.36159c-0.31489,-0.91738 -0.38567,-1.90364 -0.20167,-2.85761l1.87169,-0.17478c0.08492,0.77164 0.39981,1.4988 0.90224,2.0849c0.50242,0.5861 1.1676,1.00385 1.9106,1.19768c1.56033,-0.70562 3.25512,-1.05625 4.96405,-1.02721c0.24414,0 0.47765,0.02547 0.71471,0.0409c-1.21005,-2.17749 -3.13128,-3.86075 -5.43463,-4.76195c-5.61861,-2.20871 -9.408,1.21741 -10.27485,2.39892c-2.09107,2.8357 -0.75009,5.51709 0.26889,7.25853l-1.67355,1.54116c-1.45772,-1.277 -2.43779,-3.02414 -2.7704,-4.94678c-2.14413,0.65246 -5.0242,0.51359 -6.63761,-2.27582l1.52141,-1.05805c1.70894,1.29459 4.42272,1.1815 5.71061,-0.41634c0.30783,-0.70632 0.69348,-1.37351 1.15698,-1.98798c0.73241,-0.97947 1.61341,-1.83296 2.61471,-2.52742c-4.20334,-1.1607 -10.1404,-0.97083 -13.73165,1.36135c-0.96946,0.57103 -1.76908,1.39828 -2.31042,2.39354c-0.54133,0.9956 -0.8067,2.12149 -0.76425,3.25706c0,1.83401 1.42235,4.73147 3.33295,5.18331l-1.11099,2.18323c-1.22066,-0.28606 -2.32812,-0.93567 -3.18081,-1.86487l-1.64879,2.12687l-1.64525,-0.81148l1.60987,-4.27421c-0.26182,-0.83016 -0.39628,-1.69656 -0.39981,-2.56833c0.00353,-0.69055 0.07783,-1.37855 0.21229,-2.05472c-5.07019,2.12149 -7.57522,5.65063 -8.49162,8.87646c-0.70764,2.48111 -0.43166,4.72104 0.72532,5.92304c0.91638,0.9554 2.32104,1.1815 3.64431,1.09432l3.54878,-2.79983l1.1676,0.99667l-1.05438,3.50329c0.55196,1.78267 2.36349,2.70221 5.6646,2.05472c0.16984,-1.41803 0.72532,-2.76144 1.59926,-3.88334c0.6404,-0.93387 1.48603,-1.70228 2.47317,-2.24498l1.73371,-4.73109l1.73371,-0.07716l-0.18752,3.87832c2.91899,-0.30291 6.17765,0.29826 9.21693,-0.16438l0.5555,2.05511c-4.45103,2.08561 -9.01172,-1.31504 -13.1443,3.16949c-1.48603,1.6129 -0.91638,3.01516 0,4.42781c1.32328,2.01884 3.81061,0.80645 6.35102,0c3.84953,-1.19159 6.64115,-2.05472 11.91302,-1.61793c-1.25958,-2.41975 -1.13574,-5.34267 0.54842,-8.55812l2.47672,0.99128c-1.73724,4.06317 -0.10969,6.41615 1.01546,7.45375c1.74078,1.6025 4.35548,2.08561 6.08566,1.11978c0.66163,-0.37038 1.23127,-0.89009 1.66648,-1.51889c0.43166,-0.62881 0.71471,-1.3502 0.82794,-2.10786c0.11676,-0.69808 0.10614,-1.41124 -0.02477,-2.10606z" fill="#a8d54a" fill-rule="evenodd"/><path d="M305.15679,159.23248c0.31489,0.28676 0.36444,0.75516 0.1203,1.14275l-3.89907,5.83222c-0.24767,0.38761 -0.70055,0.49743 -1.07914,0.31692l-4.0795,-2.12903c-0.92347,0.627 -1.9283,1.13559 -3.00745,1.48946l-1.02253,4.6288c-0.08845,0.43784 -0.47058,0.72139 -0.89162,0.68516l-6.78975,-0.57712c-0.42457,-0.03588 -0.73594,-0.37791 -0.78902,-0.828l-0.24767,-4.73683c-1.00839,-0.53118 -1.89646,-1.20088 -2.72084,-1.97649l-4.37318,1.41085c-0.39981,0.09581 -0.83147,-0.0707 -1.00839,-0.49456l-2.89068,-6.40936c-0.16275,-0.38511 -0.03184,-0.87538 0.30783,-1.1065l3.8283,-2.60782c-0.04245,-0.56063 -0.02831,-1.1722 0.0177,-1.74358c0.04954,-0.57172 0.16984,-1.17397 0.30428,-1.71952l-3.35065,-3.21797c-0.32906,-0.28818 -0.36088,-0.77379 -0.11676,-1.14275l3.88137,-5.83402c0.24767,-0.38725 0.70055,-0.49743 1.07561,-0.31692l4.0795,2.12937c0.92347,-0.60871 1.9283,-1.13593 3.00745,-1.48982l1.02607,-4.6288c0.10614,-0.43643 0.46704,-0.72105 0.89162,-0.68516l6.78975,0.57712c0.42457,0.03627 0.75363,0.37971 0.78547,0.828l0.25121,4.73683c1.00485,0.53118 1.89292,1.20088 2.72084,1.97649l4.36964,-1.41049c0.39981,-0.0962 0.83147,0.0707 1.01192,0.4942l2.88715,6.40936c0.16629,0.38545 0.03538,0.87574 -0.30428,1.1065l-3.8283,2.60816c0.04245,0.56063 0.02831,1.15352 -0.02123,1.74358c-0.04954,0.60835 -0.13091,1.17687 -0.24767,1.72383zM295.72762,153.75235c0.30428,-3.65044 -2.31397,-6.88057 -5.81675,-7.17813c-3.49926,-0.29752 -6.6093,2.44558 -6.91359,6.09603c-0.30075,3.65044 2.31751,6.88057 5.81675,7.17813c3.50279,0.29752 6.61284,-2.44558 6.91359,-6.09603z" fill="#d6d6d6" fill-rule="nonzero"/><path d="M283.02202,189.05186c0.49181,0.3772 0.61918,1.05087 0.31136,1.64381l-4.96052,8.94539c-0.31136,0.59255 -0.95885,0.80827 -1.52495,0.59255l-6.17765,-2.58665c-1.26665,1.02394 -2.66071,1.88641 -4.18566,2.5328l-0.93054,6.84399c-0.07783,0.64674 -0.59441,1.10471 -1.21359,1.10471h-9.92102c-0.62272,0 -1.11099,-0.45798 -1.2419,-1.10471l-0.93054,-6.84399c-1.52495,-0.64639 -2.89422,-1.50885 -4.18566,-2.5328l-6.17411,2.58665c-0.56964,0.18879 -1.21713,0 -1.52495,-0.59255l-4.96052,-8.94539c-0.28659,-0.53908 -0.15568,-1.26659 0.30783,-1.64381l5.24711,-4.25698c-0.13091,-0.80827 -0.18045,-1.69762 -0.18045,-2.5328c0,-0.83518 0.10262,-1.72454 0.22997,-2.5328l-5.24357,-4.25698c-0.51658,-0.37756 -0.61918,-1.0778 -0.31136,-1.64381l4.93575,-8.94539c0.31136,-0.59292 0.95531,-0.80827 1.52495,-0.59292l6.17411,2.58665c1.26665,-0.99667 2.66424,-1.88607 4.1892,-2.5328l0.927,-6.84363c0.10614,-0.64674 0.59441,-1.10471 1.21713,-1.10471h9.92102c0.61918,0 1.13574,0.45798 1.2419,1.10471l0.927,6.84363c1.52495,0.64674 2.89422,1.50885 4.1892,2.5328l6.17411,-2.58665c0.56964,-0.18844 1.21359,0 1.52495,0.59292l4.96052,8.94539c0.28305,0.53908 0.15568,1.2662 -0.31136,1.64381l-5.24357,4.25698c0.12737,0.80827 0.18045,1.67072 0.18045,2.5328c0,0.88901 -0.05308,1.72454 -0.15568,2.5328zM268.68182,182.26209c0,-5.33514 -4.18566,-9.69979 -9.30184,-9.69979c-5.1162,0 -9.30184,4.36465 -9.30184,9.69979c0,5.33478 4.18566,9.69979 9.30184,9.69979c5.1162,0 9.30184,-4.36501 9.30184,-9.69979z" fill="#e5e5e5" fill-rule="nonzero"/></g><path d="M179.33037,228.30654l5.35988,13.89888h-1.98688l-1.23099,-3.1985h-6.27097l-1.23093,3.1985h-1.98694l5.35989,-13.89888zM175.95742,237.01999h4.74927l-2.36494,-6.12559zM196.01093,242.20542h-1.90935v-8.413h-5.32113v8.413h-1.89976v-10.32239h1.89976v1.82216c0.0129,-0.252 0.07102,-0.48785 0.17446,-0.70754c0.10333,-0.22616 0.23908,-0.42 0.40704,-0.58154c0.17446,-0.16801 0.37483,-0.29723 0.60101,-0.3877c0.22607,-0.09692 0.46846,-0.14538 0.72684,-0.14538h3.41178c0.26489,0 0.51367,0.05169 0.74625,0.15507c0.23269,0.09692 0.43295,0.23262 0.60101,0.40708c0.17446,0.16801 0.3101,0.36832 0.40704,0.60094c0.10344,0.23261 0.15505,0.48138 0.15505,0.74631zM205.42226,240.29607v-2.39407h-4.52635c-0.26489,0 -0.51367,-0.04847 -0.74625,-0.14539c-0.23269,-0.10339 -0.43615,-0.23908 -0.61061,-0.40708c-0.16806,-0.17446 -0.30371,-0.378 -0.40715,-0.61062c-0.09693,-0.23262 -0.14535,-0.48138 -0.14535,-0.74632v-2.20017c0,-0.26492 0.04841,-0.5137 0.14535,-0.74631c0.10344,-0.23262 0.23908,-0.43293 0.40715,-0.60094c0.17446,-0.17446 0.37792,-0.31016 0.61061,-0.40708c0.23258,-0.10339 0.48136,-0.15507 0.74625,-0.15507h6.03837v1.90939h-6.03837v2.20017h4.52635c0.265,0 0.51048,0.0517 0.73666,0.15508c0.23258,0.09692 0.43615,0.23261 0.61061,0.40708c0.17446,0.168 0.3101,0.36831 0.40704,0.60093c0.10344,0.23262 0.15516,0.48138 0.15516,0.74632v2.39407c0,0.26489 -0.05172,0.51367 -0.15516,0.74625c-0.09693,0.23258 -0.23258,0.43615 -0.40704,0.61061c-0.17446,0.16806 -0.37803,0.30371 -0.61061,0.40715c-0.22618,0.09693 -0.47166,0.14535 -0.73666,0.14535h-6.4357v-1.90935zM212.45897,242.20542l-3.33425,-10.32239h1.92887l2.44243,7.78302l2.27768,-7.78302h1.94817l2.27779,7.78302l2.44243,-7.78302h1.92876l-3.33414,10.32239h-1.98699l-2.30679,-7.57945l-2.29709,7.57945zM235.10033,238.0183h-6.83314v2.27777h6.83314v1.90935h-6.83314c-0.25838,0 -0.50397,-0.04841 -0.73655,-0.14535c-0.23269,-0.10344 -0.43615,-0.23908 -0.61061,-0.40715c-0.16806,-0.17446 -0.30371,-0.37803 -0.40715,-0.61061c-0.09693,-0.23258 -0.14535,-0.48136 -0.14535,-0.74625v-6.50365c0,-0.26492 0.04841,-0.5137 0.14535,-0.74631c0.10344,-0.23262 0.23908,-0.43293 0.40715,-0.60094c0.17446,-0.17446 0.37792,-0.31016 0.61061,-0.40708c0.23258,-0.10339 0.47816,-0.15507 0.73655,-0.15507h4.92379c0.26489,0 0.51367,0.05169 0.74625,0.15507c0.23269,0.09692 0.43295,0.23262 0.60101,0.40708c0.17446,0.16801 0.3101,0.36832 0.40704,0.60094c0.10344,0.23261 0.15505,0.48138 0.15505,0.74631zM228.26719,233.79241v2.31648h4.92379v-2.31648zM240.18888,233.79241v8.413h-1.89976v-10.32239h1.89976v1.82216c0.0129,-0.252 0.07102,-0.48785 0.17446,-0.70754c0.10333,-0.22616 0.23908,-0.42 0.40704,-0.58154c0.17446,-0.16801 0.37483,-0.29723 0.6009,-0.3877c0.22618,-0.09692 0.46857,-0.14538 0.72695,-0.14538h2.02569c0.265,0 0.51048,0.05169 0.73666,0.15507c0.23258,0.09692 0.43615,0.23262 0.61061,0.40708c0.17446,0.16801 0.31021,0.36832 0.40715,0.60094c0.10333,0.23261 0.15505,0.48138 0.15505,0.74631v1.74463h-1.90946v-1.74463zM254.35914,237.69846c0,-0.26493 0.04841,-0.51047 0.14535,-0.73662c0.10344,-0.23262 0.23908,-0.43616 0.40715,-0.61062c0.17446,-0.17447 0.37792,-0.31016 0.61061,-0.40708c0.23258,-0.10339 0.47816,-0.15508 0.73655,-0.15508h4.92379v-1.99664h-6.23224v-1.90939h6.23224c0.26489,0 0.51367,0.05169 0.74636,0.15507c0.23258,0.09692 0.43284,0.23262 0.6009,0.40708c0.17446,0.16801 0.3101,0.36832 0.40704,0.60094c0.10344,0.23261 0.15505,0.48138 0.15505,0.74631v8.413h-1.90935v-1.7446c-0.01941,0.23908 -0.08403,0.46515 -0.19387,0.67843c-0.10984,0.21328 -0.25198,0.40064 -0.42644,0.5622c-0.16806,0.15505 -0.36182,0.27779 -0.58161,0.36833c-0.21967,0.09043 -0.45225,0.13564 -0.69784,0.13564h-3.02404c-0.25838,0 -0.50397,-0.04841 -0.73655,-0.14535c-0.23269,-0.10344 -0.43615,-0.23908 -0.61061,-0.40715c-0.16806,-0.17446 -0.30371,-0.37803 -0.40715,-0.61061c-0.09693,-0.23258 -0.14535,-0.48136 -0.14535,-0.74625zM256.25879,240.29607h4.92379v-2.59761h-4.92379zM276.06038,229.81855v2.06448h3.39237v1.90939h-3.39237v8.413h-1.90935v-8.413h-2.52007v-1.90939h2.52007v-2.06448c0,-0.26493 0.04841,-0.51047 0.14535,-0.73662c0.10333,-0.23262 0.24228,-0.43615 0.41674,-0.61062c0.17446,-0.17447 0.37803,-0.31016 0.61061,-0.40708c0.23269,-0.10339 0.47816,-0.15508 0.73666,-0.15508h3.39237v1.9094zM290.77343,238.0183h-6.83281v2.27777h6.83281v1.90935h-6.83281c-0.25915,0 -0.50397,-0.04841 -0.73666,-0.14535c-0.23269,-0.10344 -0.4367,-0.23908 -0.61094,-0.40715c-0.16762,-0.17446 -0.30326,-0.37803 -0.40693,-0.61061c-0.09704,-0.23258 -0.14557,-0.48136 -0.14557,-0.74625v-6.50365c0,-0.26492 0.04852,-0.5137 0.14557,-0.74631c0.10366,-0.23262 0.2393,-0.43293 0.40693,-0.60094c0.17424,-0.17446 0.37825,-0.31016 0.61094,-0.40708c0.23269,-0.10339 0.4775,-0.15507 0.73666,-0.15507h4.9239c0.26467,0 0.51279,0.05169 0.74548,0.15507c0.23269,0.09692 0.43339,0.23262 0.60101,0.40708c0.17424,0.16801 0.30988,0.36832 0.40693,0.60094c0.10366,0.23261 0.15549,0.48138 0.15549,0.74631zM283.94062,233.79241v2.31648h4.9239v-2.31648zM296.10426,242.20542l-3.3337,-10.32239h1.92876l2.44155,7.78302l2.27834,-7.78302h1.94751l2.27834,7.78302l2.44265,-7.78302h1.92876l-3.3348,10.32239h-1.9861l-2.30701,-7.57945l-2.29709,7.57945zM177.79897,253.64243c0,-0.26489 0.04846,-0.51367 0.14538,-0.74636c0.10339,-0.23258 0.23908,-0.43284 0.40708,-0.6009c0.17447,-0.17446 0.37801,-0.3101 0.61063,-0.40704c0.23261,-0.10344 0.47815,-0.15516 0.73661,-0.15516h5.32108c0.265,0 0.51378,0.05172 0.74636,0.15516c0.23258,0.09693 0.43295,0.23258 0.6009,0.40704c0.17446,0.16806 0.31021,0.36833 0.40715,0.6009c0.10333,0.23269 0.15505,0.48147 0.15505,0.74636v12.58071h-1.90946v-5.98985c-0.0064,0.25198 -0.06462,0.48776 -0.17446,0.70754c-0.10333,0.21967 -0.24228,0.41354 -0.41674,0.58149c-0.16795,0.16156 -0.36502,0.2908 -0.5912,0.38774c-0.22618,0.09693 -0.46526,0.14535 -0.71725,0.14535h-3.42144c-0.25846,0 -0.504,-0.04841 -0.73661,-0.14535c-0.23262,-0.10344 -0.43616,-0.23908 -0.61063,-0.40715c-0.168,-0.17446 -0.30369,-0.37803 -0.40708,-0.61061c-0.09692,-0.23258 -0.14538,-0.48136 -0.14538,-0.74625zM185.01976,260.14607v-6.50363h-5.32108v6.50363zM190.10831,251.73297h1.89976v8.41309h5.32102v-8.41309h1.90946v10.32245h-1.90946v-1.7446c-0.0193,0.23908 -0.08392,0.46515 -0.19376,0.67843c-0.10984,0.21328 -0.25198,0.40064 -0.42655,0.5622c-0.16795,0.15505 -0.36182,0.27779 -0.58149,0.36833c-0.21967,0.09043 -0.45236,0.13564 -0.69784,0.13564h-3.42137c-0.25849,0 -0.50408,-0.04841 -0.73666,-0.14535c-0.23269,-0.10344 -0.43615,-0.23908 -0.61061,-0.40715c-0.16806,-0.17446 -0.30371,-0.37803 -0.40715,-0.61061c-0.09693,-0.23258 -0.14535,-0.48136 -0.14535,-0.74625zM211.15053,257.86829h-6.83314v2.27779h6.83314v1.90935h-6.83314c-0.25849,0 -0.50408,-0.04841 -0.73666,-0.14535c-0.23258,-0.10344 -0.43615,-0.23908 -0.61061,-0.40715c-0.16806,-0.17446 -0.30371,-0.37803 -0.40715,-0.61061c-0.09682,-0.23258 -0.14535,-0.48136 -0.14535,-0.74625v-6.50363c0,-0.26489 0.04852,-0.51367 0.14535,-0.74636c0.10344,-0.23258 0.23908,-0.43284 0.40715,-0.6009c0.17446,-0.17446 0.37803,-0.3101 0.61061,-0.40704c0.23258,-0.10344 0.47816,-0.15516 0.73666,-0.15516h4.92368c0.26489,0 0.51367,0.05172 0.74636,0.15516c0.23258,0.09693 0.43284,0.23258 0.6009,0.40704c0.17446,0.16806 0.3101,0.36833 0.40704,0.6009c0.10344,0.23269 0.15516,0.48147 0.15516,0.74636zM204.31738,253.64243v2.3165h4.92368v-2.3165zM220.57145,260.14607v-2.39402h-4.52635c-0.26489,0 -0.51367,-0.04852 -0.74625,-0.14546c-0.23269,-0.10333 -0.43615,-0.23908 -0.61061,-0.40704c-0.16806,-0.17446 -0.30371,-0.37803 -0.40715,-0.61061c-0.09693,-0.23269 -0.14535,-0.48147 -0.14535,-0.74636v-2.20015c0,-0.26489 0.04841,-0.51367 0.14535,-0.74636c0.10344,-0.23258 0.23908,-0.43284 0.40715,-0.6009c0.17446,-0.17446 0.37792,-0.3101 0.61061,-0.40704c0.23258,-0.10344 0.48136,-0.15516 0.74625,-0.15516h6.03837v1.90946h-6.03837v2.20015h4.52635c0.265,0 0.51048,0.05172 0.73666,0.15505c0.23258,0.09693 0.43615,0.23269 0.61061,0.40715c0.17446,0.16795 0.31021,0.36833 0.40704,0.6009c0.10344,0.23258 0.15516,0.48136 0.15516,0.74636v2.39402c0,0.26489 -0.05172,0.51367 -0.15516,0.74625c-0.09682,0.23258 -0.23258,0.43615 -0.40704,0.61061c-0.17446,0.16806 -0.37803,0.30371 -0.61061,0.40715c-0.22618,0.09693 -0.47166,0.14535 -0.73666,0.14535h-6.4357v-1.90935zM224.86523,251.73297h2.51996v-3.17909h1.90946v3.17909h3.39226v1.90946h-3.39226v6.50363h3.39226v1.90935h-3.39226c-0.25849,0 -0.50408,-0.04841 -0.73666,-0.14535c-0.23258,-0.10344 -0.43615,-0.23908 -0.61061,-0.40715c-0.17446,-0.17446 -0.31341,-0.37803 -0.41674,-0.61061c-0.09693,-0.23258 -0.14546,-0.48136 -0.14546,-0.74625v-6.50363h-2.51996zM237.88209,251.73297v10.32245h-1.90946v-10.32245zM235.87581,247.75911h2.10322v1.98699h-2.10322zM250.09448,260.14607c0,0.26489 -0.05172,0.51367 -0.15505,0.74625c-0.09693,0.23258 -0.23269,0.43615 -0.40715,0.61061c-0.16795,0.16806 -0.36822,0.30371 -0.6009,0.40715c-0.22618,0.09693 -0.47166,0.14535 -0.73666,0.14535h-5.12726c-0.25838,0 -0.50397,-0.04841 -0.73655,-0.14535c-0.23269,-0.10344 -0.43615,-0.23908 -0.61061,-0.40715c-0.16806,-0.17446 -0.30371,-0.37803 -0.40715,-0.61061c-0.09693,-0.23258 -0.14535,-0.48136 -0.14535,-0.74625v-6.50363c0,-0.26489 0.04841,-0.51367 0.14535,-0.74636c0.10344,-0.23258 0.23908,-0.43284 0.40715,-0.6009c0.17446,-0.17446 0.37792,-0.3101 0.61061,-0.40704c0.23258,-0.10344 0.47816,-0.15516 0.73655,-0.15516h5.12726c0.265,0 0.51048,0.05172 0.73666,0.15516c0.23269,0.09693 0.43295,0.23258 0.6009,0.40704c0.17446,0.16806 0.31021,0.36833 0.40715,0.6009c0.10333,0.23269 0.15505,0.48147 0.15505,0.74636zM243.06747,253.64243v6.50363h5.12726v-6.50363zM262.4135,262.05543h-1.90935v-8.41298h-5.32113v8.41298h-1.89976v-10.32245h1.89976v1.82223c0.0129,-0.25198 0.07102,-0.48787 0.17446,-0.70754c0.10333,-0.22618 0.23908,-0.42005 0.40704,-0.58161c0.17446,-0.16795 0.37483,-0.2972 0.6009,-0.38763c0.22618,-0.09693 0.46846,-0.14546 0.72695,-0.14546h3.41178c0.26489,0 0.51367,0.05172 0.74625,0.15516c0.23269,0.09693 0.43295,0.23258 0.6009,0.40704c0.17446,0.16806 0.31021,0.36833 0.40715,0.6009c0.10333,0.23269 0.15505,0.48147 0.15505,0.74636zM271.82483,260.14607v-2.39402h-4.52635c-0.26489,0 -0.51367,-0.04852 -0.74636,-0.14546c-0.23258,-0.10333 -0.43615,-0.23908 -0.61061,-0.40704c-0.16795,-0.17446 -0.30371,-0.37803 -0.40704,-0.61061c-0.09693,-0.23269 -0.14546,-0.48147 -0.14546,-0.74636v-2.20015c0,-0.26489 0.04852,-0.51367 0.14546,-0.74636c0.10333,-0.23258 0.23908,-0.43284 0.40704,-0.6009c0.17446,-0.17446 0.37803,-0.3101 0.61061,-0.40704c0.23269,-0.10344 0.48147,-0.15516 0.74636,-0.15516h6.03837v1.90946h-6.03837v2.20015h4.52635c0.26489,0 0.51048,0.05172 0.73666,0.15505c0.23258,0.09693 0.43615,0.23269 0.61061,0.40715c0.17446,0.16795 0.3101,0.36833 0.40704,0.6009c0.10344,0.23258 0.15505,0.48136 0.15505,0.74636v2.39402c0,0.26489 -0.05161,0.51367 -0.15505,0.74625c-0.09693,0.23258 -0.23258,0.43615 -0.40704,0.61061c-0.17446,0.16806 -0.37803,0.30371 -0.61061,0.40715c-0.22618,0.09693 -0.47177,0.14535 -0.73666,0.14535h-6.43581v-1.90935zM282.0692,251.73297h2.52095v-3.17909h1.90891v3.17909h3.39215v1.90946h-3.39215v6.50363h3.39215v1.90935h-3.39215c-0.25805,0 -0.50397,-0.04841 -0.73666,-0.14535c-0.23269,-0.10344 -0.4356,-0.23908 -0.61094,-0.40715c-0.17424,-0.17446 -0.31319,-0.37803 -0.41685,-0.61061c-0.09594,-0.23258 -0.14446,-0.48136 -0.14446,-0.74625v-6.50363h-2.52095zM302.00743,260.14607c0,0.26489 -0.05183,0.51367 -0.15549,0.74625c-0.09704,0.23258 -0.23269,0.43615 -0.40693,0.61061c-0.16873,0.16806 -0.36833,0.30371 -0.60101,0.40715c-0.22607,0.09693 -0.47199,0.14535 -0.73666,0.14535h-5.12792c-0.25805,0 -0.50397,-0.04841 -0.73666,-0.14535c-0.23158,-0.10344 -0.4356,-0.23908 -0.60984,-0.40715c-0.16873,-0.17446 -0.30437,-0.37803 -0.40693,-0.61061c-0.09704,-0.23258 -0.14557,-0.48136 -0.14557,-0.74625v-6.50363c0,-0.26489 0.04852,-0.51367 0.14557,-0.74636c0.10256,-0.23258 0.2382,-0.43284 0.40693,-0.6009c0.17424,-0.17446 0.37825,-0.3101 0.60984,-0.40704c0.23269,-0.10344 0.47861,-0.15516 0.73666,-0.15516h5.12792c0.26467,0 0.51059,0.05172 0.73666,0.15516c0.23269,0.09693 0.43229,0.23258 0.60101,0.40704c0.17424,0.16806 0.30988,0.36833 0.40693,0.6009c0.10366,0.23269 0.15549,0.48147 0.15549,0.74636zM294.97943,253.64243v6.50363h5.12792v-6.50363zM173.06908,277.39848c0,-0.26489 0.04847,-0.51048 0.14539,-0.73666c0.10339,-0.23258 0.23908,-0.43615 0.40708,-0.61061c0.17446,-0.17446 0.37801,-0.3101 0.61062,-0.40704c0.23262,-0.10344 0.47816,-0.15516 0.73662,-0.15516h4.92373v-1.99658h-6.2322v-1.90946h6.2322c0.26493,0 0.51371,0.05172 0.74632,0.15516c0.23262,0.09693 0.43293,0.23258 0.60093,0.40704c0.17447,0.16806 0.31016,0.36833 0.40709,0.6009c0.10339,0.23269 0.15507,0.48147 0.15507,0.74636v8.41298h-1.90941v-1.7446c-0.01938,0.23908 -0.084,0.46515 -0.19385,0.67843c-0.10985,0.21328 -0.252,0.40064 -0.42647,0.5622c-0.168,0.15505 -0.36184,0.27779 -0.58154,0.36833c-0.2197,0.09043 -0.45232,0.13564 -0.69785,0.13564h-3.02403c-0.25846,0 -0.504,-0.04841 -0.73662,-0.14535c-0.23261,-0.10344 -0.43616,-0.23908 -0.61062,-0.40715c-0.168,-0.17446 -0.30369,-0.37803 -0.40708,-0.61061c-0.09692,-0.23258 -0.14539,-0.48136 -0.14539,-0.74625zM174.96879,279.99608h4.92373v-2.59759h-4.92373zM184.99075,271.58297h1.89965v8.41309h5.32113v-8.41309h1.90946v10.32245h-1.90946v-1.7446c-0.01941,0.23908 -0.08392,0.46515 -0.19387,0.67843c-0.10984,0.21328 -0.25198,0.40064 -0.42644,0.5622c-0.16795,0.15505 -0.36182,0.27779 -0.58149,0.36833c-0.21967,0.09043 -0.45236,0.13564 -0.69784,0.13564h-3.42148c-0.25838,0 -0.50397,-0.04841 -0.73655,-0.14535c-0.23269,-0.10344 -0.43615,-0.23908 -0.61072,-0.40715c-0.16795,-0.17446 -0.30359,-0.37803 -0.40704,-0.61061c-0.09693,-0.23258 -0.14535,-0.48136 -0.14535,-0.74625zM196.69917,271.58297h2.51996v-3.17909h1.90946v3.17909h3.39226v1.90946h-3.39226v6.50363h3.39226v1.90935h-3.39226c-0.25849,0 -0.50408,-0.04841 -0.73666,-0.14535c-0.23258,-0.10344 -0.43615,-0.23908 -0.61061,-0.40715c-0.17446,-0.17446 -0.31341,-0.37803 -0.41674,-0.61061c-0.09693,-0.23258 -0.14546,-0.48136 -0.14546,-0.74625v-6.50363h-2.51996zM216.63641,279.99608c0,0.26489 -0.05172,0.51367 -0.15516,0.74625c-0.09693,0.23258 -0.23258,0.43615 -0.40704,0.61061c-0.16795,0.16806 -0.36833,0.30371 -0.6009,0.40715c-0.22618,0.09693 -0.47177,0.14535 -0.73666,0.14535h-5.12726c-0.25849,0 -0.50397,-0.04841 -0.73666,-0.14535c-0.23258,-0.10344 -0.43615,-0.23908 -0.61061,-0.40715c-0.16795,-0.17446 -0.30371,-0.37803 -0.40704,-0.61061c-0.09693,-0.23258 -0.14546,-0.48136 -0.14546,-0.74625v-6.50363c0,-0.26489 0.04852,-0.51367 0.14546,-0.74636c0.10333,-0.23258 0.23908,-0.43284 0.40704,-0.6009c0.17446,-0.17446 0.37803,-0.3101 0.61061,-0.40704c0.23269,-0.10344 0.47816,-0.15516 0.73666,-0.15516h5.12726c0.26489,0 0.51048,0.05172 0.73666,0.15516c0.23258,0.09693 0.43295,0.23258 0.6009,0.40704c0.17446,0.16806 0.3101,0.36833 0.40704,0.6009c0.10344,0.23269 0.15516,0.48147 0.15516,0.74636zM209.6094,273.49244v6.50363h5.12726v-6.50363zM228.0055,273.49244v8.41298h-1.90935v-8.41298h-4.3713v8.41298h-1.89965v-10.32245h1.89965v1.82223c0.0129,-0.25198 0.07113,-0.48787 0.17446,-0.70754c0.10344,-0.22618 0.23908,-0.42005 0.40715,-0.58161c0.17446,-0.16795 0.37472,-0.2972 0.6009,-0.38763c0.22618,-0.09693 0.46846,-0.14546 0.72695,-0.14546h2.46184c0.25198,0 0.49107,0.04852 0.71725,0.14546c0.22618,0.09043 0.42644,0.21967 0.6009,0.38763c0.17446,0.16156 0.31341,0.35543 0.41674,0.58161c0.10984,0.21967 0.16806,0.45556 0.17446,0.70754c0.01301,-0.25198 0.06793,-0.48787 0.16476,-0.70754c0.10344,-0.22618 0.23908,-0.42005 0.40715,-0.58161c0.17446,-0.16795 0.37472,-0.2972 0.6009,-0.38763c0.22618,-0.09693 0.46846,-0.14546 0.72695,-0.14546h2.46184c0.26489,0 0.51367,0.05172 0.74636,0.15516c0.23258,0.09693 0.43284,0.23258 0.6009,0.40704c0.17446,0.16806 0.3101,0.36833 0.40704,0.6009c0.10344,0.23269 0.15516,0.48147 0.15516,0.74636v8.41298h-1.90946v-8.41298zM237.46535,277.39848c0,-0.26489 0.04841,-0.51048 0.14535,-0.73666c0.10333,-0.23258 0.23908,-0.43615 0.40704,-0.61061c0.17446,-0.17446 0.37803,-0.3101 0.61061,-0.40704c0.23269,-0.10344 0.47816,-0.15516 0.73666,-0.15516h4.92379v-1.99658h-6.23224v-1.90946h6.23224c0.26489,0 0.51367,0.05172 0.74625,0.15516c0.23269,0.09693 0.43295,0.23258 0.6009,0.40704c0.17446,0.16806 0.31021,0.36833 0.40715,0.6009c0.10333,0.23269 0.15505,0.48147 0.15505,0.74636v8.41298h-1.90935v-1.7446c-0.01941,0.23908 -0.08403,0.46515 -0.19387,0.67843c-0.10984,0.21328 -0.25198,0.40064 -0.42644,0.5622c-0.16806,0.15505 -0.36193,0.27779 -0.58161,0.36833c-0.21967,0.09043 -0.45225,0.13564 -0.69784,0.13564h-3.02404c-0.25849,0 -0.50397,-0.04841 -0.73666,-0.14535c-0.23258,-0.10344 -0.43615,-0.23908 -0.61061,-0.40715c-0.16795,-0.17446 -0.30371,-0.37803 -0.40704,-0.61061c-0.09693,-0.23258 -0.14535,-0.48136 -0.14535,-0.74625zM239.365,279.99608h4.92379v-2.59759h-4.92379zM248.78603,271.58297h2.51996v-3.17909h1.90946v3.17909h3.39237v1.90946h-3.39237v6.50363h3.39237v1.90935h-3.39237c-0.25849,0 -0.50397,-0.04841 -0.73666,-0.14535c-0.23258,-0.10344 -0.43615,-0.23908 -0.61061,-0.40715c-0.17446,-0.17446 -0.31341,-0.37803 -0.41674,-0.61061c-0.09693,-0.23258 -0.14546,-0.48136 -0.14546,-0.74625v-6.50363h-2.51996zM261.8029,271.58297v10.32245h-1.90946v-10.32245zM259.79661,267.60911h2.10322v1.98699h-2.10322zM266.98827,273.49244v6.50363h4.92379v-1.74471h1.90935v1.74471c0,0.26489 -0.05161,0.51367 -0.15505,0.74625c-0.09693,0.23258 -0.23258,0.43615 -0.40704,0.61061c-0.16806,0.16806 -0.36833,0.30371 -0.60101,0.40715c-0.23258,0.09693 -0.48136,0.14535 -0.74625,0.14535h-4.92379c-0.25838,0 -0.50397,-0.04841 -0.73655,-0.14535c-0.23269,-0.10344 -0.43615,-0.23908 -0.61061,-0.40715c-0.16806,-0.17446 -0.30371,-0.37803 -0.40715,-0.61061c-0.09693,-0.23258 -0.14535,-0.48136 -0.14535,-0.74625v-6.50363c0,-0.26489 0.04841,-0.51367 0.14535,-0.74636c0.10344,-0.23258 0.23908,-0.43284 0.40715,-0.6009c0.17446,-0.17446 0.37792,-0.3101 0.61061,-0.40704c0.23258,-0.10344 0.47816,-0.15516 0.73655,-0.15516h4.92379c0.26489,0 0.51367,0.05172 0.74625,0.15516c0.23269,0.09693 0.43295,0.23258 0.60101,0.40704c0.17446,0.16806 0.3101,0.36833 0.40704,0.6009c0.10344,0.23269 0.15505,0.48147 0.15505,0.74636v1.7446h-1.90935v-1.7446zM277.01021,277.39848c0,-0.26489 0.04852,-0.51048 0.14546,-0.73666c0.10333,-0.23258 0.23908,-0.43615 0.40704,-0.61061c0.17446,-0.17446 0.37803,-0.3101 0.61061,-0.40704c0.23269,-0.10344 0.47816,-0.15516 0.73666,-0.15516h4.92368v-1.99658h-6.23213v-1.90946h6.23213c0.26467,0 0.51389,0.05172 0.74658,0.15516c0.23269,0.09693 0.43229,0.23258 0.60101,0.40704c0.17424,0.16806 0.30988,0.36833 0.40693,0.6009c0.10366,0.23269 0.15439,0.48147 0.15439,0.74636v8.41298h-1.90891v-1.7446c-0.01985,0.23908 -0.08381,0.46515 -0.19409,0.67843c-0.10918,0.21328 -0.25143,0.40064 -0.42567,0.5622c-0.16873,0.15505 -0.36281,0.27779 -0.58227,0.36833c-0.21945,0.09043 -0.45214,0.13564 -0.69806,0.13564h-3.0236c-0.25849,0 -0.50397,-0.04841 -0.73666,-0.14535c-0.23258,-0.10344 -0.43615,-0.23908 -0.61061,-0.40715c-0.16795,-0.17446 -0.30371,-0.37803 -0.40704,-0.61061c-0.09693,-0.23258 -0.14546,-0.48136 -0.14546,-0.74625zM278.90996,279.99608h4.92368v-2.59759h-4.92368zM290.83188,267.60911v14.29631h-1.90009v-14.29631zM295.91017,267.60911v14.29631h-1.89898v-14.29631zM299.78754,286.07313l2.16145,-5.09825l-4.05161,-9.39192h2.00595l3.015,7.10454l3.01389,-7.10454h2.00595l-6.25165,14.49017zM200.35312,293.34245v6.50363h4.92379v-1.74471h1.90935v1.74471c0,0.26489 -0.05172,0.51367 -0.15505,0.74625c-0.09693,0.23258 -0.23258,0.43615 -0.40704,0.61061c-0.16806,0.16806 -0.36833,0.30371 -0.60101,0.40715c-0.23258,0.09693 -0.48136,0.14535 -0.74625,0.14535h-4.92379c-0.25838,0 -0.50397,-0.04841 -0.73655,-0.14535c-0.23269,-0.10344 -0.43615,-0.23908 -0.61061,-0.40715c-0.16806,-0.17446 -0.30371,-0.37803 -0.40715,-0.61061c-0.09693,-0.23258 -0.14535,-0.48136 -0.14535,-0.74625v-6.50363c0,-0.26489 0.04841,-0.51367 0.14535,-0.74636c0.10344,-0.23258 0.23908,-0.43284 0.40715,-0.6009c0.17446,-0.17446 0.37792,-0.3101 0.61061,-0.40704c0.23258,-0.10344 0.47816,-0.15516 0.73655,-0.15516h4.92379c0.26489,0 0.51367,0.05172 0.74625,0.15516c0.23269,0.09693 0.43295,0.23258 0.60101,0.40704c0.17446,0.16806 0.3101,0.36833 0.40704,0.6009c0.10333,0.23269 0.15505,0.48147 0.15505,0.74636v1.7446h-1.90935v-1.7446zM212.27481,293.34245v8.41298h-1.89976v-10.32245h1.89976v1.82223c0.0129,-0.25198 0.07102,-0.48787 0.17446,-0.70754c0.10333,-0.22618 0.23908,-0.42005 0.40704,-0.58161c0.17446,-0.16795 0.37483,-0.2972 0.6009,-0.38763c0.22618,-0.09693 0.46857,-0.14546 0.72695,-0.14546h2.02569c0.265,0 0.51048,0.05172 0.73666,0.15516c0.23258,0.09693 0.43615,0.23258 0.61061,0.40704c0.17446,0.16806 0.31021,0.36833 0.40715,0.6009c0.10333,0.23269 0.15505,0.48147 0.15505,0.74636v1.7446h-1.90946v-1.7446zM229.22683,297.56829h-6.83314v2.27779h6.83314v1.90935h-6.83314c-0.25849,0 -0.50408,-0.04841 -0.73666,-0.14535c-0.23258,-0.10344 -0.43615,-0.23908 -0.61061,-0.40715c-0.16806,-0.17446 -0.30371,-0.37803 -0.40715,-0.61061c-0.09682,-0.23258 -0.14535,-0.48136 -0.14535,-0.74625v-6.50363c0,-0.26489 0.04852,-0.51367 0.14535,-0.74636c0.10344,-0.23258 0.23908,-0.43284 0.40715,-0.6009c0.17446,-0.17446 0.37803,-0.3101 0.61061,-0.40704c0.23258,-0.10344 0.47816,-0.15516 0.73666,-0.15516h4.92368c0.26489,0 0.51367,0.05172 0.74636,0.15516c0.23258,0.09693 0.43284,0.23258 0.6009,0.40704c0.17446,0.16806 0.3101,0.36833 0.40704,0.6009c0.10344,0.23269 0.15516,0.48147 0.15516,0.74636zM222.39368,293.34245v2.3165h4.92368v-2.3165zM232.41562,297.24849c0,-0.26489 0.04841,-0.51048 0.14535,-0.73666c0.10333,-0.23258 0.23908,-0.43615 0.40704,-0.61061c0.17446,-0.17446 0.37803,-0.3101 0.61061,-0.40704c0.23269,-0.10344 0.47816,-0.15516 0.73666,-0.15516h4.92379v-1.99658h-6.23224v-1.90946h6.23224c0.26489,0 0.51367,0.05172 0.74625,0.15516c0.23258,0.09693 0.43295,0.23258 0.6009,0.40704c0.17446,0.16806 0.31021,0.36833 0.40715,0.6009c0.10333,0.23269 0.15505,0.48147 0.15505,0.74636v8.41298h-1.90935v-1.7446c-0.01941,0.23908 -0.08403,0.46515 -0.19387,0.67843c-0.10984,0.21328 -0.25198,0.40064 -0.42644,0.5622c-0.16806,0.15505 -0.36193,0.27779 -0.58161,0.36833c-0.21967,0.09043 -0.45225,0.13564 -0.69784,0.13564h-3.02404c-0.25849,0 -0.50397,-0.04841 -0.73666,-0.14535c-0.23258,-0.10344 -0.43615,-0.23908 -0.61061,-0.40715c-0.16795,-0.17446 -0.30371,-0.37803 -0.40704,-0.61061c-0.09693,-0.23258 -0.14535,-0.48136 -0.14535,-0.74625zM234.31527,299.84609h4.92379v-2.59759h-4.92379zM243.7363,291.43298h2.51996v-3.17909h1.90946v3.17909h3.39237v1.90946h-3.39237v6.50363h3.39237v1.90935h-3.39237c-0.25849,0 -0.50408,-0.04841 -0.73666,-0.14535c-0.23258,-0.10344 -0.43615,-0.23908 -0.61061,-0.40715c-0.17446,-0.17446 -0.31341,-0.37803 -0.41674,-0.61061c-0.09693,-0.23258 -0.14546,-0.48136 -0.14546,-0.74625v-6.50363h-2.51996zM263.47967,297.56829h-6.83314v2.27779h6.83314v1.90935h-6.83314c-0.25849,0 -0.50397,-0.04841 -0.73666,-0.14535c-0.23258,-0.10344 -0.43615,-0.23908 -0.61061,-0.40715c-0.16795,-0.17446 -0.30371,-0.37803 -0.40704,-0.61061c-0.09693,-0.23258 -0.14535,-0.48136 -0.14535,-0.74625v-6.50363c0,-0.26489 0.04841,-0.51367 0.14535,-0.74636c0.10333,-0.23258 0.23908,-0.43284 0.40704,-0.6009c0.17446,-0.17446 0.37803,-0.3101 0.61061,-0.40704c0.23269,-0.10344 0.47816,-0.15516 0.73666,-0.15516h4.92379c0.26489,0 0.51367,0.05172 0.74625,0.15516c0.23258,0.09693 0.43295,0.23258 0.6009,0.40704c0.17446,0.16806 0.31021,0.36833 0.40715,0.6009c0.10333,0.23269 0.15505,0.48147 0.15505,0.74636zM256.64652,293.34245v2.3165h4.92379v-2.3165zM272.61961,297.24849c0,-0.26489 0.04841,-0.51048 0.14535,-0.73666c0.10344,-0.23258 0.23908,-0.43615 0.40715,-0.61061c0.17446,-0.17446 0.37792,-0.3101 0.61061,-0.40704c0.23258,-0.10344 0.47816,-0.15516 0.73655,-0.15516h4.92379v-1.99658h-6.23224v-1.90946h6.23224c0.26489,0 0.51367,0.05172 0.74625,0.15516c0.23269,0.09693 0.43295,0.23258 0.60101,0.40704c0.17446,0.16806 0.3101,0.36833 0.40704,0.6009c0.10322,0.23269 0.15505,0.48147 0.15505,0.74636v8.41298h-1.90935v-1.7446c-0.01941,0.23908 -0.08403,0.46515 -0.19387,0.67843c-0.10984,0.21328 -0.25198,0.40064 -0.42644,0.5622c-0.16806,0.15505 -0.36182,0.27779 -0.58161,0.36833c-0.21967,0.09043 -0.45225,0.13564 -0.69784,0.13564h-3.02404c-0.25838,0 -0.50397,-0.04841 -0.73655,-0.14535c-0.23269,-0.10344 -0.43615,-0.23908 -0.61061,-0.40715c-0.16806,-0.17446 -0.30371,-0.37803 -0.40715,-0.61061c-0.09693,-0.23258 -0.14535,-0.48136 -0.14535,-0.74625zM274.51925,299.84609h4.92379v-2.59759h-4.92379zM198.58911,321.60544l-3.33414,-10.32245h1.92876l2.44254,7.78308l2.27768,-7.78308h1.94817l2.27768,7.78308l2.44254,-7.78308h1.92876l-3.33425,10.32245h-1.98688l-2.30679,-7.57939l-2.29709,7.57939zM221.42445,319.6961c0,0.26489 -0.05172,0.51367 -0.15516,0.74625c-0.09693,0.23258 -0.23258,0.43615 -0.40704,0.61061c-0.16806,0.16806 -0.36833,0.30371 -0.6009,0.40715c-0.22618,0.09693 -0.47177,0.14535 -0.73666,0.14535h-5.12726c-0.25849,0 -0.50397,-0.04841 -0.73666,-0.14535c-0.23258,-0.10344 -0.43615,-0.23908 -0.61061,-0.40715c-0.16795,-0.17446 -0.30371,-0.37803 -0.40704,-0.61061c-0.09693,-0.23258 -0.14546,-0.48136 -0.14546,-0.74625v-6.50363c0,-0.26489 0.04852,-0.51367 0.14546,-0.74636c0.10333,-0.23258 0.23908,-0.43284 0.40704,-0.6009c0.17446,-0.17446 0.37803,-0.3101 0.61061,-0.40704c0.23269,-0.10344 0.47816,-0.15516 0.73666,-0.15516h5.12726c0.26489,0 0.51048,0.05172 0.73666,0.15516c0.23258,0.09693 0.43284,0.23258 0.6009,0.40704c0.17446,0.16806 0.3101,0.36833 0.40704,0.6009c0.10344,0.23269 0.15516,0.48147 0.15516,0.74636zM214.39744,313.19245v6.50363h5.12726v-6.50363zM226.51289,313.19245v8.41298h-1.89965v-10.32245h1.89965v1.82223c0.0129,-0.25198 0.07113,-0.48787 0.17446,-0.70754c0.10344,-0.22618 0.23908,-0.42005 0.40715,-0.58161c0.17446,-0.16795 0.37472,-0.2972 0.6009,-0.38763c0.22618,-0.09693 0.46846,-0.14546 0.72695,-0.14546h2.02569c0.26489,0 0.51048,0.05172 0.73655,0.15516c0.23269,0.09693 0.43626,0.23258 0.61072,0.40704c0.17446,0.16806 0.3101,0.36833 0.40704,0.6009c0.10333,0.23269 0.15505,0.48147 0.15505,0.74636v1.7446h-1.90935v-1.7446zM241.55545,321.60544l-4.92368,-4.41001v4.41001h-1.89976v-14.29631h1.89976v8.04477l4.52635,-4.07091h2.68482l-5.54411,4.98191l5.94144,5.34053zM254.55301,319.6961c0,0.26489 -0.05172,0.51367 -0.15516,0.74625c-0.09682,0.23258 -0.23258,0.43615 -0.40704,0.61061c-0.16795,0.16806 -0.36833,0.30371 -0.6009,0.40715c-0.22618,0.09693 -0.47166,0.14535 -0.73666,0.14535h-5.12726c-0.25849,0 -0.50397,-0.04841 -0.73666,-0.14535c-0.23258,-0.10344 -0.43615,-0.23908 -0.61061,-0.40715c-0.16795,-0.17446 -0.30371,-0.37803 -0.40704,-0.61061c-0.09693,-0.23258 -0.14546,-0.48136 -0.14546,-0.74625v-6.50363c0,-0.26489 0.04852,-0.51367 0.14546,-0.74636c0.10333,-0.23258 0.23908,-0.43284 0.40704,-0.6009c0.17446,-0.17446 0.37803,-0.3101 0.61061,-0.40704c0.23269,-0.10344 0.47816,-0.15516 0.73666,-0.15516h5.12726c0.265,0 0.51048,0.05172 0.73666,0.15516c0.23258,0.09693 0.43295,0.23258 0.6009,0.40704c0.17446,0.16806 0.31021,0.36833 0.40704,0.6009c0.10344,0.23269 0.15516,0.48147 0.15516,0.74636zM247.526,313.19245v6.50363h5.12726v-6.50363zM257.7418,311.283h1.89965v8.41309h5.32113v-8.41309h1.90946v10.32245h-1.90946v-1.7446c-0.01941,0.23908 -0.08392,0.46515 -0.19387,0.67843c-0.10984,0.21328 -0.25198,0.40064 -0.42644,0.5622c-0.16795,0.15505 -0.36182,0.27779 -0.58149,0.36833c-0.21967,0.09043 -0.45236,0.13564 -0.69784,0.13564h-3.42148c-0.25838,0 -0.50397,-0.04841 -0.73655,-0.14535c-0.23269,-0.10344 -0.43615,-0.23908 -0.61061,-0.40715c-0.16806,-0.17446 -0.30371,-0.37803 -0.40715,-0.61061c-0.09693,-0.23258 -0.14535,-0.48136 -0.14535,-0.74625zM269.45022,311.283h2.51996v-3.17909h1.90946v3.17909h3.39226v1.90946h-3.39226v6.50363h3.39226v1.90935h-3.39226c-0.25849,0 -0.50408,-0.04841 -0.73666,-0.14535c-0.23258,-0.10344 -0.43615,-0.23908 -0.61061,-0.40715c-0.17446,-0.17446 -0.31341,-0.37803 -0.41674,-0.61061c-0.09693,-0.23258 -0.14546,-0.48136 -0.14546,-0.74625v-6.50363h-2.51996zM280.46069,318.70743h2.89766v2.89799h-2.89766z" fill="#ffffff" fill-rule="nonzero" stroke="#ffffff" stroke-width="0.25"/></g></g></svg>