<svg version="1.1" xmlns="http://www.w3.org/2000/svg" xmlns:xlink="http://www.w3.org/1999/xlink" width="320.00001" height="76.45562" viewBox="0,0,320.00001,76.45562"><g transform="translate(-80,-142.67049)"><g data-paper-data="{&quot;isPaintingLayer&quot;:true}" fill-rule="nonzero" stroke-linejoin="miter" stroke-miterlimit="10" stroke-dasharray="" stroke-dashoffset="0" style="mix-blend-mode: normal"><path d="M98.83594,217.62611c-9.57438,0 -17.33594,-6.0389 -17.33594,-14.219c0,-12.8911 0,-31.0998 0,-39.37135c0,-8.23171 7.76156,-19.86527 17.33594,-19.86527h282.32813c9.57438,0 17.33594,10.0618 17.33594,17.56547c0,7.83581 0,25.65192 0,39.07736c0,9.50732 -7.76156,16.81278 -17.33594,16.81278z" fill="#ffffff" stroke="#ffa600" stroke-width="3" stroke-linecap="butt"/><path d="M81.5,160.17049c0,-8.83656 7.16344,-16 16,-16c0,0 127.48054,0 179.40395,0c39.83557,0 105.59605,0 105.59605,0c8.837,0 16,7.16344 16,16v20h-317z" fill="#ffa600" stroke="none" stroke-width="1" stroke-linecap="butt"/><path d="M107.4937,168.3752l-0.0005,0.0001l-0.0003,0.0001l-0.0006,0.0001l-0.0004,0.0001l-0.028,0.0062l-0.0288,0.0102l-2.2423,0.7927l-2.3292,0.1601l-5.0845,0.1218v-0.0001l-0.0075,0.0003h-0.0001h-0.0005l-0.0023,0.0001l-0.0094,0.0004l-0.0375,0.0013c-0.033,0.0012 -0.0818,0.0029 -0.144,0.0048c-0.1246,0.004 -0.3033,0.0091 -0.519,0.0137c-0.4317,0.0094 -1.0094,0.017 -1.5966,0.0103c-0.5899,-0.0068 -1.1776,-0.028 -1.6337,-0.0745c-0.2298,-0.0234 -0.4102,-0.0517 -0.535,-0.083c-0.0294,-0.0073 -0.0526,-0.0141 -0.0704,-0.0199c-0.0514,-0.0943 -0.1062,-0.2438 -0.1527,-0.4169c-0.0261,-0.0972 -0.0456,-0.1861 -0.0586,-0.2507c-0.0036,-0.0181 -0.0067,-0.0342 -0.0092,-0.0478l0.001,-0.0172l0.0122,-0.2086l0.0415,-0.7072c0.033,-0.564 0.0738,-1.2651 0.1054,-1.8127c0.0197,-0.3415 0.0331,-0.6432 0.0456,-0.9235c0.0381,-0.8562 0.0673,-1.5122 0.2378,-2.4893c0.1527,-0.8755 0.3734,-1.5216 0.6272,-2.1786c0.0536,-0.1389 0.1093,-0.2795 0.1663,-0.4237c0.2124,-0.5365 0.4441,-1.1218 0.6614,-1.8446c0.1956,-0.6504 0.42,-1.486 0.5945,-2.155c0.0875,-0.3353 0.1629,-0.6304 0.2164,-0.8417c0.0268,-0.1056 0.0481,-0.1904 0.0627,-0.2488l0.0168,-0.0671l0.0044,-0.0175l0.0011,-0.0046l0.0003,-0.0011l0.0001,-0.0003v-0.0001l-0.4852,-0.1206l0.4852,0.1205l0.0204,-0.0819l-0.0077,-0.0833v-0.0002v-0.0003v-0.0001v-0.0002v-0.0003l-0.0006,-0.0073c-0.0006,-0.0072 -0.0014,-0.019 -0.0024,-0.0348c-0.0019,-0.0317 -0.0043,-0.0796 -0.0058,-0.1404c-0.0029,-0.1221 -0.002,-0.2934 0.0133,-0.48771c0.0316,-0.40276 0.1206,-0.84321 0.3136,-1.16034l0.0195,-0.03199c0.2953,-0.48514 0.6142,-1.00896 0.9084,-1.43228c0.1505,-0.21659 0.2863,-0.3948 0.4019,-0.52303c0.1115,-0.12359 0.1651,-0.1558 0.1641,-0.15748c0,-0.00011 -0.0004,-0.00008 -0.0009,0.00008c0.0795,-0.02616 0.2471,-0.03561 0.518,0.01449c0.2613,0.04831 0.5554,0.1395 0.84,0.24531c0.2822,0.10492 0.5422,0.21933 0.7323,0.308c0.0947,0.04417 0.1713,0.08155 0.2236,0.10761c0.0262,0.01302 0.0462,0.02319 0.0594,0.02994l0.0145,0.00747l0.0033,0.00167l0.0004,0.00023l0.0001,0.00005v0.00002v0.00001l0.0574,0.03l0.0623,0.01422l0.0003,0.00005l0.0002,0.00006l0.0002,0.00004l0.0002,0.00005l0.0069,0.00167c0.0068,0.00166 0.0178,0.00441 0.0325,0.00828c0.0295,0.00776 0.0732,0.01986 0.1264,0.03637c0.108,0.03347 0.2484,0.08296 0.3868,0.14801c0.142,0.06676 0.26,0.13975 0.3389,0.21223c0.0794,0.07286 0.0829,0.11043 0.0829,0.11052c0.0048,0.04534 -0.0268,0.17672 -0.1335,0.36715c-0.045,0.08051 -0.0922,0.15168 -0.1283,0.2029c-0.0178,0.02531 -0.0324,0.04498 -0.042,0.05763l-0.0103,0.01334l-0.0011,0.00143l-0.0001,0.00014l-0.0001,0.00014l-0.0002,0.00023l-0.0002,0.00031l-0.0001,0.00003l-0.8391,1.04382l1.2428,-0.22565c0.0176,0.04284 0.0395,0.12954 0.0395,0.29108c0,0.05503 -0.0232,0.15144 -0.1214,0.30525c-0.0969,0.15195 -0.2412,0.32045 -0.4261,0.51345c-0.0946,0.0987 -0.2031,0.2063 -0.3178,0.32c-0.2851,0.2828 -0.6083,0.6032 -0.8498,0.9181c-0.4146,0.3696 -0.7614,0.4974 -0.9812,0.5417c-0.115,0.0231 -0.2015,0.0246 -0.2523,0.0222c-0.0255,-0.0013 -0.0421,-0.0035 -0.0489,-0.0046c-0.0001,0 -0.0001,0 -0.0001,0l-0.5278,-0.1331l-0.079,0.5494l-0.1268,0.8818l-0.0039,0.0269l-0.0009,0.0272l-0.2077,6.0863l-0.0002,0.0085v0.0085v1.817v1.7614l0.9254,-1.4987l1.5598,-2.5261c0.0129,-0.0145 0.0305,-0.0341 0.0526,-0.0583c0.0531,-0.0581 0.1316,-0.1425 0.2314,-0.2451c0.1999,-0.2056 0.4829,-0.4821 0.8152,-0.7663c0.687,-0.5875 1.5013,-1.134 2.1971,-1.2527c0.9357,-0.1595 1.4856,-0.0317 2.4873,0.2659c0.3459,0.1027 0.7883,0.3036 1.1611,0.49c0.1827,0.0913 0.3419,0.1757 0.4554,0.2372c0.0567,0.0307 0.1017,0.0556 0.1323,0.0726l0.034,0.0191l0.0178,0.0116c0.0196,0.0129 0.0493,0.0328 0.0877,0.0591c0.0768,0.0526 0.188,0.131 0.3216,0.2315c0.2682,0.2017 0.6224,0.4891 0.971,0.834c0.3504,0.3467 0.6828,0.7393 0.9188,1.1499c0.2366,0.4117 0.3594,0.8117 0.338,1.1863c-0.0701,1.2247 -0.6886,1.9539 -1.2999,2.3916c-0.3099,0.2218 -0.6174,0.3674 -0.8477,0.4571c-0.1146,0.0446 -0.2084,0.0748 -0.2714,0.0933c-0.0315,0.0092 -0.0552,0.0155 -0.0698,0.0193l-0.0149,0.0037zM93.176,169.3016c0.0001,0 0.0019,0.0008 0.0049,0.0026c-0.0034,-0.0017 -0.005,-0.0025 -0.0049,-0.0026zM101.1739,153.22266c0.0003,-0.00035 0.0029,0.00179 0.0068,0.00749c-0.0051,-0.00429 -0.0071,-0.00714 -0.0068,-0.00749z" fill="#ffffff" stroke="#ffffff" stroke-width="0" stroke-linecap="butt"/><path d="M113.7793,170.8671c-2.9465,4.0804 -7.8713,6.5906 -13.2615,6.2149c-8.294,-0.5782 -14.54886,-7.7705 -13.97071,-16.0644c0.57814,-8.29402 7.77041,-14.54893 16.06441,-13.97078c5.6759,0.39565 10.3968,3.88879 12.6264,8.71278" fill="none" stroke="#ffffff" stroke-width="3" stroke-linecap="round"/><path d="M117.5782,150.01859l-1.5607,7.52901l-7.4612,-1.8586" fill="none" stroke="#ffffff" stroke-width="3" stroke-linecap="round"/><g stroke="none" stroke-width="1" stroke-linecap="butt"><path d="M364.99926,162.17049c0,-7.93298 6.43095,-14.36393 14.36393,-14.36393c7.93298,0 14.36393,6.43095 14.36393,14.36393c0,7.93298 -6.43095,14.36393 -14.36393,14.36393c-7.93298,0 -14.36393,-6.43095 -14.36393,-14.36393z" fill="#ffffff"/><g fill="#ff0000"><path d="M385.87974,153.83885v1.9827h-13.03309v-1.98275c0,-0.34858 0.24722,-0.63116 0.55222,-0.63116h3.79006v-0.81884c0,-0.11629 0.08256,-0.21061 0.18423,-0.21061h3.98006c0.1018,0 0.18423,0.09433 0.18423,0.21061v0.81889h3.79008c0.30502,0 0.5522,0.28258 0.5522,0.63116z"/><path d="M373.66292,157.04455h11.14731l-0.58667,14.15448c-0.01973,0.53859 -0.40769,0.96376 -0.87932,0.96376h-8.21538c-0.47166,0 -0.8595,-0.42517 -0.87924,-0.96376zM381.09497,168.647c0,0.2257 0.16013,0.40856 0.35747,0.40856h0.57168c0.19747,0 0.35747,-0.18286 0.35747,-0.40856v-8.08673c0,-0.22559 -0.16013,-0.40846 -0.35747,-0.40846h-0.57168c-0.19747,0 -0.35747,0.18292 -0.35747,0.40846zM378.59328,168.647c0,0.2257 0.16013,0.40856 0.35747,0.40856h0.57168c0.19747,0 0.35735,-0.18286 0.35735,-0.40856v-8.08673c0,-0.22559 -0.16,-0.40846 -0.35735,-0.40846h-0.57168c-0.19747,0 -0.35747,0.18292 -0.35747,0.40846zM376.09154,168.647c0,0.2257 0.16005,0.40856 0.3574,0.40856h0.5718c0.19735,0 0.35735,-0.18286 0.35735,-0.40856v-8.08673c0,-0.22559 -0.16,-0.40846 -0.35735,-0.40846h-0.5718c-0.19739,0 -0.3574,0.18292 -0.3574,0.40846z"/></g></g></g></g></svg>