<svg version="1.1" xmlns="http://www.w3.org/2000/svg" xmlns:xlink="http://www.w3.org/1999/xlink" width="6.07187" height="18.04062" viewBox="0,0,6.07187,18.04062"><g transform="translate(-236.9641,-159.24795)"><g data-paper-data="{&quot;isPaintingLayer&quot;:true}" fill="#000000" fill-rule="nonzero" stroke="none" stroke-width="1" stroke-linecap="butt" stroke-linejoin="miter" stroke-miterlimit="10" stroke-dasharray="" stroke-dashoffset="0" style="mix-blend-mode: normal"><path d="M237.6641,171.91667h4.67188v4.6719h-4.67188zM237.6641,159.94795h4.67188v4.67188h-4.67188z"/><path d="M236.9641,171.91667v-0.7h0.7v0.7zM242.33597,171.21667h0.69999v0.7h-0.69999zM243.03597,176.58857v0.7h-0.69999v-0.7zM237.6641,177.28857h-0.7v-0.7h0.7zM236.9641,159.94795v-0.7h0.7v0.7zM242.33597,159.24795h0.69999v0.7h-0.69999zM243.03597,164.61982v0.7h-0.69999v-0.7zM237.6641,165.31982h-0.7v-0.7h0.7zM237.6641,171.21667h4.67188v1.4h-4.67188zM243.03597,171.91667v4.6719h-1.39999v-4.6719zM242.33597,177.28857h-4.67188v-1.4h4.67188zM236.9641,176.58857v-4.6719h1.4v4.6719zM237.6641,159.24795h4.67188v1.39999h-4.67188zM243.03597,159.94795v4.67188h-1.39999v-4.67187zM242.33597,165.31982h-4.67188v-1.4h4.67188zM236.9641,164.61982v-4.67187h1.4v4.67188z"/></g></g></svg>