<svg version="1.1" xmlns="http://www.w3.org/2000/svg" xmlns:xlink="http://www.w3.org/1999/xlink" width="106.34147" height="23.63833" viewBox="0,0,106.34147,23.63833"><g transform="translate(-186.82926,-168.18083)"><g data-paper-data="{&quot;isPaintingLayer&quot;:true}" fill-rule="nonzero" stroke-width="1" stroke-linecap="butt" stroke-linejoin="miter" stroke-miterlimit="10" stroke-dasharray="" stroke-dashoffset="0" style="mix-blend-mode: normal"><path d="M292.67072,171.20555v17.5889c0,1.39428 -1.13302,2.52472 -2.52988,2.52472h-100.28157c-1.39726,0 -2.53001,-1.13043 -2.53001,-2.52472v-17.5889c0,-1.39428 1.13276,-2.52471 2.53001,-2.52471h100.28158c1.39687,0 2.52988,1.13043 2.52988,2.52471z" fill="#a8d54a" stroke="#b1f522"/><g fill="#ffffff" stroke="none"><path d="M202.63601,171.23787h4.54796v0.88974h-3.65573v1.77948h3.12039v0.89141h-3.12039v1.77617h3.65573v0.88974h-4.54796zM209.10759,171.05893v6.40547h-0.8528v-6.40547zM214.27821,175.58883h-3.06821v1.02063h3.06821v0.85494h-3.06821c-0.11598,0 -0.22632,-0.02155 -0.3307,-0.06462c-0.10454,-0.0464 -0.196,-0.1077 -0.27421,-0.18226c-0.07555,-0.07953 -0.13654,-0.16899 -0.18276,-0.27338c-0.04374,-0.10438 -0.06544,-0.21706 -0.06544,-0.33469v-2.91445c0,-0.1193 0.0217,-0.2303 0.06544,-0.33469c0.04623,-0.10273 0.10721,-0.19386 0.18276,-0.27007c0.07821,-0.07787 0.16967,-0.13752 0.27421,-0.18059c0.10438,-0.0464 0.21473,-0.06959 0.3307,-0.06959h2.21078c0.11896,0 0.2308,0.02319 0.33502,0.06959c0.10454,0.04307 0.19451,0.10273 0.2699,0.18059c0.07836,0.07621 0.13935,0.16734 0.18276,0.27007c0.04655,0.10438 0.06976,0.21539 0.06976,0.33469zM211.20999,173.69502v1.03887h2.21078v-1.03887zM216.85033,177.4644l-1.85387,-4.62434h0.89206l1.40586,3.60039l1.41,-3.60039h0.89206l-1.85387,4.62434zM220.31485,175.44469c0,-0.11765 0.02171,-0.22698 0.06512,-0.32972c0.04655,-0.10438 0.10737,-0.19552 0.18275,-0.27339c0.07854,-0.07953 0.16982,-0.13918 0.2742,-0.18225c0.10454,-0.0464 0.21474,-0.06959 0.33072,-0.06959h2.21093v-0.89472h-2.79829v-0.85494h2.79829c0.11896,0 0.23064,0.02319 0.33519,0.06959c0.10438,0.04307 0.19435,0.10273 0.26973,0.18059c0.07836,0.07621 0.13934,0.16734 0.18292,0.27007c0.04623,0.10438 0.06942,0.21539 0.06942,0.33469v3.76939h-0.85726v-0.78205c-0.00878,0.1077 -0.03778,0.20877 -0.08698,0.30486c-0.04938,0.09445 -0.11333,0.17895 -0.19153,0.25184c-0.07539,0.06959 -0.16254,0.12427 -0.26112,0.16403c-0.09858,0.04142 -0.20314,0.06131 -0.31331,0.06131h-1.35797c-0.11598,0 -0.22617,-0.02155 -0.33071,-0.06462c-0.10438,-0.0464 -0.19568,-0.1077 -0.27421,-0.18225c-0.07539,-0.07953 -0.1362,-0.169 -0.18275,-0.27338c-0.0434,-0.10438 -0.06512,-0.21706 -0.06512,-0.33469zM221.16765,176.60946h2.21094v-1.16479h-2.21094zM225.2197,172.84007h1.13147v-1.42491h0.85743v1.42491h1.52317v0.85494h-1.52317v2.91445h1.52317v0.85494h-1.52317c-0.11614,0 -0.22632,-0.02155 -0.3307,-0.06462c-0.10454,-0.0464 -0.196,-0.1077 -0.27421,-0.18226c-0.07854,-0.07953 -0.14083,-0.16899 -0.18723,-0.27338c-0.04358,-0.10438 -0.06528,-0.21706 -0.06528,-0.33469v-2.91445h-1.13147zM233.90652,175.58883h-3.0682v1.02063h3.0682v0.85494h-3.0682c-0.11614,0 -0.22633,-0.02155 -0.33072,-0.06462c-0.10438,-0.0464 -0.19585,-0.1077 -0.27421,-0.18226c-0.07539,-0.07953 -0.13637,-0.16899 -0.18292,-0.27338c-0.0434,-0.10438 -0.06511,-0.21706 -0.06511,-0.33469v-2.91445c0,-0.1193 0.02171,-0.2303 0.06511,-0.33469c0.04655,-0.10273 0.10754,-0.19386 0.18292,-0.27007c0.07836,-0.07787 0.16983,-0.13752 0.27421,-0.18059c0.10438,-0.0464 0.21457,-0.06959 0.33072,-0.06959h2.21092c0.1188,0 0.23049,0.02319 0.33503,0.06959c0.10438,0.04307 0.19434,0.10273 0.2699,0.18059c0.07821,0.07621 0.13918,0.16734 0.18276,0.27007c0.0464,0.10438 0.06959,0.21539 0.06959,0.33469zM230.83833,173.69502v1.03887h2.21094v-1.03887zM240.91362,176.57467c0.41488,0 0.734,-0.11267 0.95751,-0.33469c0.22351,-0.22201 0.33501,-0.54015 0.33501,-0.95437v-1.86895c0,-0.20214 -0.02899,-0.38274 -0.08699,-0.54346c-0.05799,-0.1574 -0.14365,-0.29326 -0.25681,-0.40427c-0.11019,-0.11101 -0.24522,-0.19718 -0.40461,-0.25517c-0.15972,-0.05799 -0.34098,-0.08616 -0.54412,-0.08616h-2.28053v4.44706zM237.74104,177.4644v-6.22655h3.17258c0.33369,0 0.63408,0.05136 0.90084,0.15409c0.26991,0.10273 0.49905,0.24854 0.6876,0.44074c0.19153,0.18723 0.33817,0.41587 0.43957,0.68594c0.10454,0.26841 0.15673,0.56831 0.15673,0.89802v1.86895c0,0.32972 -0.05219,0.62795 -0.15673,0.89802c-0.10141,0.26841 -0.24804,0.49872 -0.43957,0.69092c-0.18856,0.18723 -0.41769,0.33303 -0.6876,0.43907c-0.26676,0.09941 -0.56715,0.15078 -0.90084,0.15078zM245.16582,172.84007v4.62434h-0.85744v-4.62434zM244.26497,171.05893h0.94424v0.88974h-0.94424zM247.31578,173.69502v2.91445h2.21093v-0.78205h0.85727v0.78205c0,0.11765 -0.02319,0.2303 -0.06959,0.33469c-0.04358,0.10438 -0.10454,0.19384 -0.18274,0.27338c-0.07555,0.07456 -0.16551,0.13586 -0.2699,0.18226c-0.10438,0.04307 -0.21607,0.06462 -0.33503,0.06462h-2.21093c-0.11598,0 -0.22617,-0.02155 -0.33072,-0.06462c-0.10438,-0.0464 -0.19584,-0.1077 -0.2742,-0.18226c-0.07539,-0.07953 -0.13637,-0.16899 -0.18276,-0.27338c-0.04358,-0.10438 -0.06527,-0.21706 -0.06527,-0.33469v-2.91445c0,-0.1193 0.02169,-0.2303 0.06527,-0.33469c0.0464,-0.10273 0.10738,-0.19386 0.18276,-0.27007c0.07836,-0.07787 0.16983,-0.13752 0.2742,-0.18059c0.10454,-0.0464 0.21473,-0.06959 0.33072,-0.06959h2.21093c0.11896,0 0.23065,0.02319 0.33503,0.06959c0.10438,0.04307 0.19434,0.10273 0.2699,0.18059c0.07821,0.07621 0.13917,0.16734 0.18274,0.27007c0.0464,0.10438 0.06959,0.21539 0.06959,0.33469v0.78205h-0.85727v-0.78205zM251.36783,172.84007h1.13149v-1.42491h0.85726v1.42491h1.52316v0.85494h-1.52316v2.91445h1.52316v0.85494h-1.52316c-0.11598,0 -0.22633,-0.02155 -0.33072,-0.06462c-0.10454,-0.0464 -0.19585,-0.1077 -0.27421,-0.18226c-0.07836,-0.07953 -0.14066,-0.16899 -0.18706,-0.27338c-0.0434,-0.10438 -0.06527,-0.21706 -0.06527,-0.33469v-2.91445h-1.13149zM256.1335,175.44469c0,-0.11765 0.0217,-0.22698 0.06511,-0.32972c0.04655,-0.10438 0.10737,-0.19552 0.18275,-0.27339c0.07854,-0.07953 0.16983,-0.13918 0.27422,-0.18225c0.10454,-0.0464 0.21473,-0.06959 0.33071,-0.06959h2.21094v-0.89472h-2.7983v-0.85494h2.7983c0.11896,0 0.23065,0.02319 0.33519,0.06959c0.10438,0.04307 0.19418,0.10273 0.26973,0.18059c0.07836,0.07621 0.13918,0.16734 0.18275,0.27007c0.0464,0.10438 0.06958,0.21539 0.06958,0.33469v3.76939h-0.85726v-0.78205c-0.00878,0.1077 -0.03778,0.20877 -0.08699,0.30486c-0.04938,0.09445 -0.11317,0.17895 -0.19153,0.25184c-0.07539,0.06959 -0.16237,0.12427 -0.26112,0.16403c-0.09875,0.04142 -0.20297,0.06131 -0.31331,0.06131h-1.35798c-0.11598,0 -0.22617,-0.02155 -0.33071,-0.06462c-0.10438,-0.0464 -0.19568,-0.1077 -0.27422,-0.18225c-0.07539,-0.07953 -0.1362,-0.169 -0.18275,-0.27338c-0.0434,-0.10438 -0.06511,-0.21706 -0.06511,-0.33469zM256.98628,176.60946h2.21094v-1.16479h-2.21094zM261.03833,172.84007h1.13148v-1.42491h0.85743v1.42491h1.52317v0.85494h-1.52317v2.91445h1.52317v0.85494h-1.52317c-0.11614,0 -0.22649,-0.02155 -0.33071,-0.06462c-0.10454,-0.0464 -0.196,-0.1077 -0.27421,-0.18226c-0.07854,-0.07953 -0.14067,-0.16899 -0.18723,-0.27338c-0.04358,-0.10438 -0.06527,-0.21706 -0.06527,-0.33469v-2.91445h-1.13148zM266.70484,172.84007v4.62434h-0.85744v-4.62434zM265.804,171.05893h0.94426v0.88974h-0.94426zM272.01015,176.60946c0,0.11765 -0.02335,0.2303 -0.06958,0.33469c-0.04358,0.10438 -0.10456,0.19384 -0.18293,0.27338c-0.07539,0.07456 -0.16535,0.13586 -0.26973,0.18226c-0.10156,0.04307 -0.21176,0.06462 -0.33072,0.06462h-2.30239c-0.11598,0 -0.22618,-0.02155 -0.33072,-0.06462c-0.10438,-0.0464 -0.19584,-0.1077 -0.27422,-0.18226c-0.07539,-0.07953 -0.13637,-0.16899 -0.18259,-0.27338c-0.04358,-0.10438 -0.06527,-0.21706 -0.06527,-0.33469v-2.91445c0,-0.1193 0.02169,-0.2303 0.06527,-0.33469c0.04623,-0.10273 0.1072,-0.19386 0.18259,-0.27007c0.07836,-0.07787 0.16983,-0.13752 0.27422,-0.18059c0.10454,-0.0464 0.21473,-0.06959 0.33072,-0.06959h2.30239c0.11896,0 0.22915,0.02319 0.33072,0.06959c0.10438,0.04307 0.19435,0.10273 0.26973,0.18059c0.07836,0.07621 0.13935,0.16734 0.18293,0.27007c0.04623,0.10438 0.06958,0.21539 0.06958,0.33469zM268.8548,173.69502v2.91445h2.30239v-2.91445zM277.36336,177.4644h-0.85744v-3.76939h-2.38921v3.76939h-0.85296v-4.62434h0.85296v0.81683c0.0058,-0.11267 0.03197,-0.22036 0.07837,-0.31646c0.0464,-0.10273 0.10737,-0.19054 0.18275,-0.26345c0.07821,-0.0729 0.16817,-0.13255 0.26973,-0.1723c0.10174,-0.04307 0.21043,-0.06462 0.32641,-0.06462h1.53195c0.11896,0 0.23082,0.02318 0.33502,0.06958c0.10454,0.04307 0.19452,0.10274 0.2699,0.18061c0.07836,0.07621 0.13935,0.16733 0.18275,0.27007c0.04655,0.10438 0.06976,0.2154 0.06976,0.33469zM219.31536,184.4062c-0.12195,0 -0.23792,-0.0232 -0.34811,-0.0696c-0.10754,-0.0497 -0.20181,-0.11267 -0.283,-0.19053c-0.08119,-0.08119 -0.14497,-0.17729 -0.19137,-0.28333c-0.04655,-0.10935 -0.06975,-0.22534 -0.06975,-0.34795v-1.77948c0,-0.12261 0.0232,-0.23693 0.06975,-0.34297c0.0464,-0.11101 0.11019,-0.2038 0.19137,-0.28167c0.08119,-0.08284 0.17546,-0.14579 0.283,-0.19219c0.11017,-0.0497 0.22617,-0.07291 0.34811,-0.07291h3.02909c0.12178,0 0.23643,0.0232 0.34363,0.07291c0.11034,0.0464 0.20594,0.10935 0.2873,0.19219c0.08119,0.07787 0.14515,0.17066 0.19138,0.28167c0.04655,0.10604 0.06975,0.22036 0.06975,0.34297v0.80358h-0.89206v-0.80358h-3.02909v1.77948h3.02909c0.12178,0 0.23643,0.02485 0.34363,0.06959c0.11034,0.0464 0.20594,0.11101 0.2873,0.19054c0.08119,0.08284 0.14515,0.17895 0.19138,0.2883c0.04655,0.10604 0.06975,0.22201 0.06975,0.34297v1.77617c0,0.12095 -0.02319,0.23693 -0.06975,0.34794c-0.04623,0.10604 -0.11019,0.20213 -0.19138,0.28167c-0.08136,0.08119 -0.17696,0.14414 -0.2873,0.19054c-0.1072,0.0464 -0.22185,0.06959 -0.34363,0.06959h-3.11609c-0.12195,0 -0.23792,-0.02319 -0.34811,-0.06959c-0.10754,-0.0464 -0.20181,-0.10935 -0.28299,-0.19054c-0.08119,-0.07953 -0.14498,-0.17562 -0.19154,-0.28167c-0.0464,-0.11101 -0.06958,-0.22698 -0.06958,-0.34794v-0.79861h0.89222v0.79861h3.11609v-1.77617zM228.50257,185.19653h-3.06804v1.02063h3.06804v0.85494h-3.06804c-0.11614,0 -0.22634,-0.02155 -0.33088,-0.06462c-0.10422,-0.0464 -0.19568,-0.1077 -0.27405,-0.18226c-0.07539,-0.07953 -0.13637,-0.16899 -0.18292,-0.27338c-0.0434,-0.10438 -0.06527,-0.21706 -0.06527,-0.33469v-2.91445c0,-0.1193 0.02187,-0.2303 0.06527,-0.33469c0.04655,-0.10273 0.10754,-0.19386 0.18292,-0.27007c0.07836,-0.07787 0.16983,-0.13752 0.27405,-0.18059c0.10454,-0.0464 0.21473,-0.06959 0.33088,-0.06959h2.21077c0.11896,0 0.23064,0.02319 0.33519,0.06959c0.10438,0.04307 0.19435,0.10273 0.26991,0.18059c0.07821,0.07621 0.13918,0.16734 0.18258,0.27007c0.04655,0.10438 0.06959,0.21539 0.06959,0.33469zM225.43453,183.30271v1.03887h2.21077v-1.03887zM233.85576,187.07209h-0.85726v-3.76939h-2.38938v3.76939h-0.85279v-4.62434h0.85279v0.81683c0.00596,-0.11267 0.03198,-0.22036 0.07853,-0.31646c0.04623,-0.10273 0.1072,-0.19054 0.18276,-0.26345c0.07821,-0.0729 0.16817,-0.13255 0.26991,-0.1723c0.1014,-0.04307 0.21025,-0.06462 0.32623,-0.06462h1.53195c0.11896,0 0.23065,0.02318 0.33519,0.06958c0.10438,0.04307 0.19418,0.10274 0.26974,0.18061c0.07836,0.07621 0.13918,0.16733 0.18275,0.27007c0.0464,0.10438 0.06958,0.2154 0.06958,0.33469zM237.90334,186.21716v-1.07366h-2.03233c-0.11896,0 -0.23063,-0.02154 -0.33501,-0.06461c-0.10454,-0.0464 -0.19601,-0.10604 -0.27422,-0.18226c-0.07555,-0.07787 -0.13653,-0.169 -0.18276,-0.27338c-0.04374,-0.10438 -0.06545,-0.2154 -0.06545,-0.33469v-0.98584c0,-0.1193 0.02171,-0.2303 0.06545,-0.33469c0.04623,-0.10273 0.1072,-0.19386 0.18276,-0.27007c0.07821,-0.07787 0.16968,-0.13752 0.27422,-0.18059c0.10438,-0.0464 0.21605,-0.06959 0.33501,-0.06959h2.71131v0.85494h-2.71131v0.98584h2.03233c0.11896,0 0.22932,0.0232 0.33088,0.0696c0.10438,0.04307 0.19584,0.10438 0.27404,0.18225c0.07836,0.07621 0.13934,0.16568 0.18292,0.27007c0.04623,0.10273 0.0696,0.21539 0.0696,0.33303v1.07366c0,0.11765 -0.02337,0.2303 -0.0696,0.33469c-0.04358,0.10438 -0.10455,0.19384 -0.18292,0.27338c-0.07821,0.07456 -0.16966,0.13586 -0.27404,0.18226c-0.10156,0.04307 -0.21192,0.06462 -0.33088,0.06462h-2.88976v-0.85494zM240.82374,182.44776v4.62434h-0.85727v-4.62434zM239.92291,180.66663h0.9444v0.88974h-0.9444zM241.851,182.44776h1.13164v-1.42491h0.85728v1.42491h1.52333v0.85494h-1.52333v2.91445h1.52333v0.85494h-1.52333c-0.11598,0 -0.22617,-0.02155 -0.33071,-0.06462c-0.10438,-0.0464 -0.19585,-0.1077 -0.27421,-0.18226c-0.07836,-0.07953 -0.14068,-0.16899 -0.18723,-0.27338c-0.0434,-0.10438 -0.06511,-0.21706 -0.06511,-0.33469v-2.91445h-1.13165zM247.51752,182.44776v4.62434h-0.85727v-4.62434zM246.61667,180.66663h0.94442v0.88974h-0.94442zM250.13322,187.07209l-1.85387,-4.62434h0.89206l1.40586,3.60039l1.40967,-3.60039h0.89306l-1.85438,4.62434zM254.49892,182.44776v4.62434h-0.85726v-4.62434zM253.59792,180.66663h0.94474v0.88974h-0.94474zM255.52652,182.44776h1.13164v-1.42491h0.85662v1.42491h1.52267v0.85494h-1.52267v2.91445h1.52267v0.85494h-1.52267c-0.11598,0 -0.227,-0.02155 -0.33138,-0.06462c-0.10438,-0.0464 -0.1955,-0.1077 -0.27338,-0.18226c-0.07953,-0.07953 -0.14083,-0.16899 -0.18723,-0.27338c-0.04474,-0.10438 -0.06461,-0.21706 -0.06461,-0.33469v-2.91445h-1.13165zM260.60483,188.94105l0.97093,-2.28482l-1.81925,-4.20846h0.89968l1.35367,3.18286l1.35533,-3.18286h0.89968l-2.80674,6.49329z"/><path d="M202.39327,171.23787v-0.24356h0.24306v0.24356zM207.18429,170.99432h0.24306v0.24356h-0.24306zM207.42735,172.12596v0.24356h-0.24306v-0.24356zM203.28567,172.12596v-0.2419h0.24307v0.2419zM203.52873,174.149h-0.24307v-0.24191h0.24307zM206.64895,173.6652h0.24323v0.2419h-0.24323zM206.89218,174.7985v0.2419h-0.24323v-0.2419zM203.28567,174.7985v-0.24356h0.24307v0.24356zM203.52873,176.81657h-0.24307v-0.2419h0.24307zM207.18429,176.33111h0.24306v0.24356h-0.24306zM207.42735,177.4644v0.24356h-0.24306v-0.24356zM202.63633,177.70798h-0.24306v-0.24356h0.24306zM202.63633,170.99432h4.54796v0.48546h-4.54796zM207.42735,171.23787v0.88808h-0.48612v-0.88808zM207.18429,172.36953h-3.65555v-0.48546h3.65555zM203.7718,172.12596v1.78114h-0.48613v-1.78114zM203.52873,173.6652h3.12022v0.4838h-3.12022zM206.89218,173.9071v0.89141h-0.48628v-0.89141zM206.64895,175.0404h-3.12022v-0.48546h3.12022zM203.7718,174.7985v1.77617h-0.48613v-1.77617zM203.52873,176.33111h3.65555v0.48546h-3.65555zM207.42735,176.57467v0.88974h-0.48612v-0.88974zM207.18429,177.70798h-4.54796v-0.48546h4.54796zM202.39327,177.4644v-6.22655h0.4863v6.22655zM209.10809,170.81703h0.24307v0.2419h-0.24307zM209.35116,177.4644v0.24356h-0.24307v-0.24356zM208.25513,177.70798h-0.24306v-0.24356h0.24306zM208.01206,171.05893v-0.2419h0.24306v0.2419zM209.35116,171.05893v6.40547h-0.48612v-6.40547zM209.10809,177.70798h-0.85296v-0.48546h0.85296zM208.01206,177.4644v-6.40547h0.48612v6.40547zM208.25513,170.81703h0.85296v0.48546h-0.85296zM214.52159,175.58883v0.24356h-0.24306v-0.24356zM210.96727,175.58883v-0.24191h0.24305v0.24191zM211.21032,176.85137h-0.24305v-0.2419h0.24305zM214.27853,176.36756h0.24306v0.2419h-0.24306zM214.52159,177.4644v0.24356h-0.24306v-0.24356zM210.78617,177.62347l-0.00547,-0.00165l0.09891,-0.22203zM210.43674,177.39151l-0.00646,-0.00497l0.17514,-0.16901zM210.20046,177.0419l-0.00232,-0.00498l0.2245,-0.09278zM210.19814,173.26755l0.00232,-0.00498l0.22218,0.09776zM210.97837,173.13168l-0.0053,0.00166l-0.09345,-0.22367zM213.66267,173.13332l-0.00513,-0.00165l0.09875,-0.22203zM213.85752,173.26755l-0.00662,-0.00664l0.17513,-0.17066zM213.98659,173.45974l-0.00215,-0.00496l0.22435,-0.09445zM210.96727,173.69502v-0.2419h0.24305v0.2419zM211.21032,174.97577h-0.24305v-0.2419h0.24305zM213.66416,174.73388v0.2419h-0.24306v-0.2419zM213.4211,173.45312h0.24306v0.2419h-0.24306zM214.27853,175.83238h-3.06821v-0.48546h3.06821zM211.4534,175.58883v1.02063h-0.48612v-1.02063zM211.21032,176.36756h3.06821v0.48381h-3.06821zM214.52159,176.60946v0.85494h-0.48613v-0.85494zM214.27853,177.70798h-3.06821v-0.48546h3.06821zM211.21032,177.70798c-0.14729,0 -0.28945,-0.02817 -0.42415,-0.08451l0.1869,-0.44735c0.07406,0.02982 0.15243,0.04639 0.23726,0.04639zM210.7807,177.62181c-0.12874,-0.05799 -0.24423,-0.13421 -0.34397,-0.23031l0.33717,-0.34795c0.05716,0.05468 0.12443,0.09941 0.20446,0.13421zM210.43027,177.38653c-0.09593,-0.10107 -0.17247,-0.2154 -0.2298,-0.34463l0.44437,-0.19551c0.03545,0.07787 0.08086,0.14581 0.13554,0.2038zM210.19814,177.03694c-0.05634,-0.1342 -0.08401,-0.27835 -0.08401,-0.42747h0.4863c0,0.08781 0.01608,0.16901 0.0464,0.2419zM210.11414,176.60946v-2.91445h0.4863v2.91445zM210.11414,173.69502c0,-0.14912 0.02767,-0.29159 0.08401,-0.42747l0.44869,0.18723c-0.03032,0.0729 -0.0464,0.15243 -0.0464,0.24024zM210.20046,173.26257c0.05767,-0.12923 0.13503,-0.24521 0.23295,-0.34298l0.3438,0.34463c-0.05286,0.05136 -0.09726,0.11597 -0.13239,0.1955zM210.43342,172.9196c0.10141,-0.10107 0.21954,-0.1806 0.35276,-0.23527l0.18689,0.44901c-0.07572,0.03149 -0.1405,0.07292 -0.19584,0.1309zM210.7807,172.68764c0.1362,-0.06131 0.28002,-0.09112 0.42963,-0.09112v0.48546c-0.08268,0 -0.15906,0.01656 -0.23196,0.0497zM211.21032,172.59652h2.21078v0.48546h-2.21078zM213.4211,172.59652c0.15161,0 0.29708,0.02981 0.43377,0.09112l-0.19734,0.44404c-0.07208,-0.03313 -0.15012,-0.0497 -0.23643,-0.0497zM213.84973,172.68432c0.13387,0.05634 0.25201,0.13585 0.35142,0.23858l-0.35026,0.338c-0.05136,-0.05468 -0.11317,-0.09776 -0.18823,-0.12758zM214.19469,172.91629c0.10323,0.09941 0.18274,0.2187 0.23858,0.35126l-0.44884,0.18723c-0.03131,-0.07621 -0.07356,-0.13752 -0.12692,-0.18723zM214.43097,173.26257c0.06081,0.13587 0.09063,0.28001 0.09063,0.43244h-0.48613c0,-0.08616 -0.01674,-0.16403 -0.04887,-0.23528zM214.52159,173.69502v1.89382h-0.48613v-1.89382zM211.4534,173.69502v1.03887h-0.48612v-1.03887zM211.21032,174.49032h2.21078v0.48546h-2.21078zM213.17803,174.73388v-1.03887h0.48613v1.03887zM213.4211,173.93857h-2.21078v-0.48546h2.21078zM216.85066,177.70798h-0.16453l-0.06114,-0.15244l0.22567,-0.09113zM214.77096,172.92955l-0.13321,-0.33302h0.35905v0.24355zM215.88885,172.59652h0.16635l0.06014,0.15408l-0.2265,0.08948zM217.52103,176.52827l-0.22666,0.57991l-0.22617,-0.58156l0.22649,-0.08616zM218.47837,172.7506l0.06031,-0.15409h0.16601v0.24356zM219.59676,172.59652h0.35921l-0.13337,0.33302l-0.22584,-0.08947zM217.96872,177.55553l-0.0613,0.15243h-0.16453v-0.24356zM216.62499,177.55553l-1.85405,-4.626l0.4515,-0.18061l1.85387,4.626zM214.99678,172.59652h0.89206v0.48546h-0.89206zM216.11534,172.7506l1.40569,3.60204l-0.45283,0.17398l-1.4057,-3.59873zM217.06822,176.35098l1.41016,-3.60039l0.45265,0.17729l-1.40999,3.60039zM218.70471,172.59652h0.89206v0.48546h-0.89206zM219.82259,172.92955l-1.85387,4.626l-0.4515,-0.18059l1.85405,-4.626zM217.74289,177.70798h-0.89223v-0.48546h0.89223zM220.15696,175.02052l0.00132,-0.00331l0.22202,0.09776zM220.38808,174.67422l0.00315,-0.00331l0.17198,0.17066zM220.93601,174.88135l-0.00513,0.00165l-0.0936,-0.22367zM223.62214,174.58974v0.2419h-0.24322v-0.2419zM223.37891,173.45312h0.24322v0.2419h-0.24322zM220.58062,173.93857h-0.24307v-0.24356h0.24307zM220.33755,172.84007v-0.24355h0.24307v0.24355zM223.62066,173.13332l-0.0053,-0.00165l0.09875,-0.22203zM223.81517,173.26755l-0.00664,-0.00664l0.17547,-0.17066zM223.94457,173.45974l-0.00232,-0.00496l0.2245,-0.09445zM224.47941,177.4644v0.24356h-0.24323v-0.24356zM223.37891,177.70798h-0.24307v-0.24356h0.24307zM223.13668,176.66249l0.48546,0.01988h-0.24322zM220.74382,177.62347l-0.00513,-0.00165l0.09858,-0.22203zM220.39455,177.39151l-0.00662,-0.00497l0.1753,-0.16901zM220.15828,177.0419l-0.00232,-0.00498l0.22434,-0.09278zM221.16814,176.85137h-0.24306v-0.2419h0.24306zM223.62214,176.60946v0.2419h-0.24322v-0.2419zM223.37891,175.20277h0.24322v0.24191h-0.24322zM220.92508,175.44469v-0.24191h0.24306v0.24191zM220.07212,175.44469c0,-0.14747 0.02735,-0.28996 0.08484,-0.42416l0.44686,0.19053c-0.02949,0.06959 -0.04557,0.14581 -0.04557,0.23363zM220.15828,175.01721c0.05733,-0.12923 0.13371,-0.24522 0.2298,-0.34298l0.35028,0.33635c-0.05501,0.05634 -0.10041,0.12426 -0.13587,0.20379zM220.39123,174.67092c0.10123,-0.10273 0.21953,-0.1806 0.35258,-0.23694l0.18706,0.44901c-0.07588,0.03149 -0.14034,0.07621 -0.19584,0.1309zM220.73868,174.43729c0.13587,-0.05964 0.27985,-0.08947 0.42946,-0.08947v0.48381c-0.08251,0 -0.15924,0.01656 -0.23213,0.0497zM221.16814,174.34783h2.21077v0.48381h-2.21077zM223.13586,174.58974v-0.89472h0.48628v0.89472zM223.37891,173.93857h-2.7983v-0.48546h2.7983zM220.33755,173.69502v-0.85494h0.48613v0.85494zM220.58062,172.59652h2.7983v0.48546h-2.7983zM223.37891,172.59652c0.15161,0 0.29708,0.02981 0.43393,0.09112l-0.1975,0.44404c-0.07208,-0.03313 -0.14994,-0.0497 -0.23643,-0.0497zM223.80755,172.68432c0.13387,0.05634 0.25183,0.13585 0.35142,0.23858l-0.35043,0.338c-0.05136,-0.05468 -0.11299,-0.09776 -0.18788,-0.12758zM224.15251,172.91629c0.10339,0.09941 0.18275,0.2187 0.23859,0.35126l-0.44884,0.18723c-0.03131,-0.07621 -0.07356,-0.13752 -0.12708,-0.18723zM224.38878,173.26257c0.06098,0.13587 0.09063,0.28001 0.09063,0.43244h-0.4863c0,-0.08616 -0.0164,-0.16403 -0.04854,-0.23528zM224.47941,173.69502v3.76939h-0.4863v-3.76939zM224.23618,177.70798h-0.85726v-0.48546h0.85726zM223.13586,177.4644v-0.78205h0.48628v0.78205zM223.62131,176.7039c-0.01143,0.13918 -0.04937,0.27008 -0.11332,0.39434l-0.43211,-0.22203c0.03463,-0.06793 0.05467,-0.13752 0.0608,-0.21374zM223.50798,177.09825c-0.06214,0.12095 -0.14349,0.22699 -0.24274,0.31812l-0.32988,-0.35623c0.05733,-0.05302 0.10388,-0.11432 0.14051,-0.18391zM223.26525,177.41636c-0.09742,0.09113 -0.20926,0.16072 -0.33335,0.21208l-0.18508,-0.44735c0.07291,-0.03149 0.13503,-0.07125 0.18855,-0.12096zM222.93189,177.62844c-0.12907,0.05302 -0.26494,0.07953 -0.40594,0.07953v-0.48546c0.07953,0 0.15244,-0.0149 0.22087,-0.04142zM222.52595,177.70798h-1.3578v-0.48546h1.3578zM221.16814,177.70798c-0.14729,0 -0.28946,-0.02817 -0.42433,-0.08451l0.18706,-0.44735c0.07406,0.02982 0.15244,0.04639 0.23727,0.04639zM220.73868,177.62181c-0.12907,-0.05799 -0.24439,-0.13421 -0.34413,-0.23031l0.33735,-0.34795c0.05683,0.05468 0.12426,0.09941 0.20412,0.13421zM220.38793,177.38653c-0.0961,-0.10107 -0.17232,-0.2154 -0.22965,-0.34463l0.44421,-0.19551c0.03545,0.07787 0.08086,0.14581 0.13587,0.2038zM220.15596,177.03694c-0.05667,-0.1342 -0.08384,-0.27835 -0.08384,-0.42747h0.48613c0,0.08781 0.0159,0.16901 0.04655,0.2419zM220.07212,176.60946v-1.16479h0.48613v1.16479zM221.16814,176.36756h2.21077v0.48381h-2.21077zM223.13586,176.60946v-1.16479h0.48628v1.16479zM223.37891,175.68824h-2.21077v-0.48547h2.21077zM221.41121,175.44469v1.16479h-0.48612v-1.16479zM224.97697,172.84007v-0.24355h0.24307v0.24355zM226.59458,172.84007v0.2419h-0.24306v-0.2419zM226.10845,171.41516v-0.2419h0.24306v0.2419zM227.20894,171.17326h0.24306v0.2419h-0.24306zM227.20894,173.08197h-0.24306v-0.2419h0.24306zM228.73211,172.59652h0.24306v0.24355h-0.24306zM228.97517,173.69502v0.24356h-0.24306v-0.24356zM226.96588,173.69502v-0.2419h0.24306v0.2419zM227.20894,176.85137h-0.24306v-0.2419h0.24306zM228.73211,176.36756h0.24306v0.2419h-0.24306zM228.97517,177.4644v0.24356h-0.24306v-0.24356zM226.78478,177.62347l-0.00547,-0.00165l0.09891,-0.22203zM226.43535,177.39151l-0.00331,-0.00165l0.17198,-0.17232zM226.19461,177.0419l-0.00216,-0.00498l0.22435,-0.09278zM226.35151,173.45312h0.24306v0.2419h-0.24306zM225.22004,173.93857h-0.24307v-0.24356h0.24307zM225.22004,172.59652h1.13148v0.48546h-1.13148zM226.10845,172.84007v-1.42491h0.48612v1.42491zM226.35151,171.17326h0.85744v0.4838h-0.85744zM227.452,171.41516v1.42491h-0.48612v-1.42491zM227.20894,172.59652h1.52317v0.48546h-1.52317zM228.97517,172.84007v0.85494h-0.48613v-0.85494zM228.73211,173.93857h-1.52317v-0.48546h1.52317zM227.452,173.69502v2.91445h-0.48612v-2.91445zM227.20894,176.36756h1.52317v0.48381h-1.52317zM228.97517,176.60946v0.85494h-0.48613v-0.85494zM228.73211,177.70798h-1.52317v-0.48546h1.52317zM227.20894,177.70798c-0.14729,0 -0.28946,-0.02817 -0.42415,-0.08451l0.1869,-0.44735c0.07406,0.02982 0.15244,0.04639 0.23727,0.04639zM226.77932,177.62181c-0.12874,-0.05799 -0.24423,-0.13421 -0.34397,-0.23031l0.33718,-0.34795c0.05716,0.05468 0.12442,0.09941 0.20445,0.13421zM226.43204,177.38985c-0.10008,-0.10107 -0.17911,-0.21706 -0.23743,-0.34795l0.44437,-0.19551c0.0348,0.07621 0.08019,0.1425 0.13686,0.20049zM226.19246,177.03694c-0.0565,-0.1342 -0.084,-0.27835 -0.084,-0.42747h0.48612c0,0.08781 0.01607,0.16901 0.04672,0.2419zM226.10845,176.60946v-2.91445h0.48612v2.91445zM226.35151,173.93857h-1.13148v-0.48546h1.13148zM224.97697,173.69502v-0.85494h0.48613v0.85494zM234.14992,175.58883v0.24356h-0.24305v-0.24356zM230.5956,175.58883v-0.24191h0.24307v0.24191zM230.83866,176.85137h-0.24307v-0.2419h0.24307zM233.90686,176.36756h0.24306v0.2419h-0.24306zM234.14992,177.4644v0.24356h-0.24305v-0.24356zM230.41433,177.62347l-0.00513,-0.00165l0.09875,-0.22203zM230.06523,177.39151l-0.00662,-0.00497l0.17512,-0.16901zM229.82896,177.0419l-0.00249,-0.00498l0.22451,-0.09278zM229.82664,173.26755l0.00215,-0.00498l0.22219,0.09776zM230.60653,173.13168l-0.00513,0.00166l-0.09345,-0.22367zM233.29116,173.13332l-0.00531,-0.00165l0.09875,-0.22203zM233.48585,173.26755l-0.00663,-0.00664l0.1753,-0.17066zM233.61508,173.45974l-0.00215,-0.00496l0.22433,-0.09445zM230.5956,173.69502v-0.2419h0.24307v0.2419zM230.83866,174.97577h-0.24307v-0.2419h0.24307zM233.29266,174.73388v0.2419h-0.24307v-0.2419zM233.04959,173.45312h0.24307v0.2419h-0.24307zM233.90686,175.83238h-3.0682v-0.48546h3.0682zM231.08172,175.58883v1.02063h-0.48613v-1.02063zM230.83866,176.36756h3.0682v0.48381h-3.0682zM234.14992,176.60946v0.85494h-0.48612v-0.85494zM233.90686,177.70798h-3.0682v-0.48546h3.0682zM230.83866,177.70798c-0.14729,0 -0.28946,-0.02817 -0.42433,-0.08451l0.18706,-0.44735c0.07406,0.02982 0.15244,0.04639 0.23727,0.04639zM230.4092,177.62181c-0.12891,-0.05799 -0.24439,-0.13421 -0.34397,-0.23031l0.33718,-0.34795c0.05683,0.05468 0.12426,0.09941 0.20413,0.13421zM230.05861,177.38653c-0.0961,-0.10107 -0.17248,-0.2154 -0.22964,-0.34463l0.44421,-0.19551c0.03545,0.07787 0.08085,0.14581 0.13569,0.2038zM229.82647,177.03694c-0.0565,-0.1342 -0.08383,-0.27835 -0.08383,-0.42747h0.48629c0,0.08781 0.01574,0.16901 0.04639,0.2419zM229.74264,176.60946v-2.91445h0.48629v2.91445zM229.74264,173.69502c0,-0.14912 0.0275,-0.29159 0.084,-0.42747l0.44868,0.18723c-0.03065,0.0729 -0.04639,0.15243 -0.04639,0.24024zM229.82879,173.26257c0.05749,-0.12923 0.13504,-0.24521 0.23313,-0.34298l0.3438,0.34463c-0.05286,0.05136 -0.09742,0.11597 -0.13255,0.1955zM230.06192,172.9196c0.10123,-0.10107 0.21936,-0.1806 0.35241,-0.23527l0.18706,0.44901c-0.07588,0.03149 -0.14034,0.07292 -0.19568,0.1309zM230.4092,172.68764c0.13603,-0.06131 0.27985,-0.09112 0.42946,-0.09112v0.48546c-0.08251,0 -0.15906,0.01656 -0.23213,0.0497zM230.83866,172.59652h2.21093v0.48546h-2.21093zM233.04959,172.59652c0.15144,0 0.29708,0.02981 0.43377,0.09112l-0.1975,0.44404c-0.07191,-0.03313 -0.14995,-0.0497 -0.23627,-0.0497zM233.47822,172.68432c0.13387,0.05634 0.25185,0.13585 0.35126,0.23858l-0.35026,0.338c-0.05136,-0.05468 -0.11316,-0.09776 -0.18805,-0.12758zM233.82301,172.91629c0.10339,0.09941 0.18276,0.2187 0.2386,0.35126l-0.44868,0.18723c-0.03131,-0.07621 -0.07356,-0.13752 -0.12709,-0.18723zM234.05929,173.26257c0.06081,0.13587 0.09063,0.28001 0.09063,0.43244h-0.48612c0,-0.08616 -0.01657,-0.16403 -0.0487,-0.23528zM234.14992,173.69502v1.89382h-0.48612v-1.89382zM231.08172,173.69502v1.03887h-0.48613v-1.03887zM230.83866,174.49032h2.21093v0.48546h-2.21093zM232.80653,174.73388v-1.03887h0.48612v1.03887zM233.04959,173.93857h-2.21093v-0.48546h2.21093zM241.69301,172.64455l-0.0043,-0.00496l0.17398,-0.17066zM238.39036,172.12596v-0.2419h0.24307v0.2419zM238.63343,176.81657h-0.24307v-0.2419h0.24307zM237.74136,177.70798h-0.24306v-0.24356h0.24306zM237.4983,171.23787v-0.24356h0.24306v0.24356zM241.72913,171.62062l-0.00281,-0.00165l0.08864,-0.22699zM242.3319,172.00501l-0.00265,-0.00332l0.1733,-0.169zM242.71547,172.60479l-0.001,-0.00165l0.2275,-0.0845zM242.71464,176.09914l0.00065,-0.00331l0.22667,0.08781zM240.91411,176.33111c0.37131,0 0.62066,-0.09775 0.78536,-0.26344l0.34397,0.34463c-0.282,0.28168 -0.67104,0.40427 -1.12933,0.40427zM241.69947,176.06766c0.16503,-0.16238 0.2641,-0.41257 0.2641,-0.78205h0.48613c0,0.4573 -0.12443,0.845 -0.40626,1.12667zM241.96358,175.28561v-1.86895h0.48613v1.86895zM241.96358,173.41667c0,-0.17895 -0.02584,-0.33138 -0.07257,-0.46061l0.45696,-0.16403c0.06943,0.19054 0.10174,0.3993 0.10174,0.62464zM241.89101,172.95606c-0.0464,-0.12592 -0.11284,-0.22865 -0.198,-0.31149l0.33932,-0.34794c0.14134,0.13752 0.24605,0.30319 0.31563,0.4954zM241.6887,172.63958c-0.08284,-0.0845 -0.1859,-0.15077 -0.31381,-0.19717l0.16619,-0.45564c0.19136,0.06959 0.35805,0.17397 0.4959,0.3148zM241.37489,172.44243c-0.12824,-0.04804 -0.28068,-0.07291 -0.46078,-0.07291v-0.48546c0.22583,0 0.43625,0.03314 0.62696,0.10273zM240.91411,172.36953h-2.28068v-0.48546h2.28068zM238.87649,172.12596v4.44871h-0.48613v-4.44871zM238.63343,176.33111h2.28068v0.48546h-2.28068zM237.4983,177.4644v-6.22655h0.48613v6.22655zM237.74136,170.99432h3.17275v0.48546h-3.17275zM240.91411,170.99432c0.35889,0 0.68993,0.05467 0.98932,0.17397l-0.17713,0.45066c-0.23461,-0.09278 -0.50402,-0.13917 -0.8122,-0.13917zM241.90045,171.16662c0.30039,0.11267 0.56019,0.27836 0.77524,0.49375l-0.34645,0.34131c-0.16204,-0.16403 -0.36071,-0.29161 -0.60012,-0.38109zM242.67322,171.65872c0.21821,0.21373 0.3834,0.47386 0.49623,0.77376l-0.45498,0.17066c-0.09013,-0.23858 -0.21804,-0.43575 -0.38257,-0.59813zM243.16863,172.43083c0.11681,0.30155 0.17314,0.63126 0.17314,0.98584h-0.48612c0,-0.30321 -0.04822,-0.57328 -0.14017,-0.81186zM243.34176,173.41667v1.86896h-0.48612v-1.86896zM243.34176,175.28561c0,0.35458 -0.05634,0.68594 -0.17315,0.98584l-0.45332,-0.17562c0.09196,-0.23858 0.14034,-0.507 0.14034,-0.81022zM243.16945,176.26814c-0.11283,0.30155 -0.27753,0.56003 -0.49508,0.77874l-0.3438,-0.34298c0.16535,-0.16735 0.29378,-0.36617 0.38407,-0.60476zM242.67438,177.04688c-0.21457,0.21208 -0.47436,0.3761 -0.77309,0.49209l-0.17414,-0.45232c0.2409,-0.09445 0.44073,-0.22203 0.60343,-0.38275zM241.90128,177.53896c-0.29873,0.11432 -0.62896,0.169 -0.98717,0.169v-0.48546c0.30901,0 0.57792,-0.04639 0.81303,-0.13585zM240.91411,177.70798h-3.17275v-0.48546h3.17275zM245.16615,172.59652h0.24306v0.24355h-0.24306zM245.40921,177.4644v0.24356h-0.24306v-0.24356zM244.30871,177.70798h-0.24306v-0.24356h0.24306zM244.06565,172.84007v-0.24355h0.24306v0.24355zM244.02224,171.05893v-0.2419h0.24307v0.2419zM245.20956,170.81703h0.24306v0.2419h-0.24306zM245.45263,171.94868v0.24356h-0.24306v-0.24356zM244.26531,172.19224h-0.24307v-0.24356h0.24307zM245.40921,172.84007v4.62434h-0.48612v-4.62434zM245.16615,177.70798h-0.85744v-0.48546h0.85744zM244.06565,177.4644v-4.62434h0.48612v4.62434zM244.30871,172.59652h0.85744v0.48546h-0.85744zM244.26531,170.81703h0.94424v0.48546h-0.94424zM245.45263,171.05893v0.88974h-0.48612v-0.88974zM245.20956,172.19224h-0.94424v-0.48547h0.94424zM244.02224,171.94868v-0.88974h0.48612v0.88974zM247.07305,173.69502v-0.2419h0.24306v0.2419zM247.31611,176.85137h-0.24306v-0.2419h0.24306zM249.7701,176.60946v0.2419h-0.24306v-0.2419zM249.28397,175.82742v-0.24357h0.24306v0.24357zM250.38431,175.58384h0.24307v0.24357h-0.24307zM250.09038,176.85137l0.00232,-0.00498l0.22201,0.09776zM249.9608,177.62181l-0.00513,0.00165l-0.09345,-0.22367zM246.89195,177.62347l-0.00531,-0.00165l0.09875,-0.22203zM246.54268,177.39151l-0.00663,-0.00497l0.17514,-0.16901zM246.30641,177.0419l-0.00248,-0.00498l0.22451,-0.09278zM246.30409,173.26755l0.00216,-0.00498l0.22219,0.09776zM247.08414,173.13168l-0.0053,0.00166l-0.09345,-0.22367zM249.76861,173.13332l-0.0053,-0.00165l0.09891,-0.22203zM249.9633,173.26755l-0.00646,-0.00664l0.17513,-0.17066zM250.0927,173.45974l-0.00232,-0.00496l0.22433,-0.09445zM250.62737,174.47707v0.2419h-0.24307v-0.2419zM249.52704,174.71897h-0.24306v-0.2419h0.24306zM249.52704,173.45312h0.24306v0.2419h-0.24306zM247.55918,173.69502v2.91445h-0.48613v-2.91445zM247.31611,176.36756h2.21093v0.48381h-2.21093zM249.28397,176.60946v-0.78205h0.48612v0.78205zM249.52704,175.58384h0.85726v0.48546h-0.85726zM250.62737,175.82742v0.78205h-0.48613v-0.78205zM250.62737,176.60946c0,0.15078 -0.02966,0.29657 -0.09063,0.43244l-0.44404,-0.19551c0.03198,-0.0729 0.04854,-0.15077 0.04854,-0.23693zM250.53905,177.03694c-0.05534,0.13255 -0.13404,0.25019 -0.23527,0.35292l-0.3438,-0.34297c0.05551,-0.05799 0.09875,-0.12095 0.1304,-0.19551zM250.30379,177.38985c-0.09792,0.0961 -0.21308,0.17398 -0.34298,0.23196l-0.19733,-0.44405c0.07903,-0.03479 0.14381,-0.07953 0.1965,-0.13089zM249.95567,177.62347c-0.1357,0.05634 -0.27919,0.08451 -0.42864,0.08451v-0.48546c0.08847,0 0.16817,-0.01656 0.24158,-0.04639zM249.52704,177.70798h-2.21093v-0.48546h2.21093zM247.31611,177.70798c-0.14729,0 -0.28946,-0.02817 -0.42415,-0.08451l0.18689,-0.44735c0.07406,0.02982 0.1526,0.04639 0.23727,0.04639zM246.88664,177.62181c-0.12891,-0.05799 -0.24439,-0.13421 -0.34397,-0.23031l0.33717,-0.34795c0.05699,0.05468 0.12427,0.09941 0.2043,0.13421zM246.53605,177.38653c-0.0961,-0.10107 -0.17248,-0.2154 -0.22964,-0.34463l0.4442,-0.19551c0.03545,0.07787 0.08102,0.14581 0.13571,0.2038zM246.30392,177.03694c-0.0565,-0.1342 -0.08367,-0.27835 -0.08367,-0.42747h0.48612c0,0.08781 0.01608,0.16901 0.0464,0.2419zM246.22025,176.60946v-2.91445h0.48612v2.91445zM246.22025,173.69502c0,-0.14912 0.02734,-0.29159 0.08383,-0.42747l0.44869,0.18723c-0.03032,0.0729 -0.0464,0.15243 -0.0464,0.24024zM246.30624,173.26257c0.05767,-0.12923 0.1352,-0.24521 0.23312,-0.34298l0.34381,0.34463c-0.05286,0.05136 -0.09743,0.11597 -0.13256,0.1955zM246.53936,172.9196c0.10141,-0.10107 0.21954,-0.1806 0.35259,-0.23527l0.18689,0.44901c-0.07555,0.03149 -0.14034,0.07292 -0.19567,0.1309zM246.88664,172.68764c0.13603,-0.06131 0.28002,-0.09112 0.42946,-0.09112v0.48546c-0.08251,0 -0.15906,0.01656 -0.23197,0.0497zM247.31611,172.59652h2.21093v0.48546h-2.21093zM249.52704,172.59652c0.15161,0 0.29708,0.02981 0.43377,0.09112l-0.1975,0.44404c-0.07207,-0.03313 -0.14996,-0.0497 -0.23627,-0.0497zM249.95567,172.68432c0.13387,0.05634 0.25185,0.13585 0.35126,0.23858l-0.35009,0.338c-0.05136,-0.05468 -0.11317,-0.09776 -0.18823,-0.12758zM250.30047,172.91629c0.10339,0.09941 0.18292,0.2187 0.23858,0.35126l-0.44867,0.18723c-0.03131,-0.07621 -0.07356,-0.13752 -0.12708,-0.18723zM250.53675,173.26257c0.06098,0.13587 0.09063,0.28001 0.09063,0.43244h-0.48613c0,-0.08616 -0.01656,-0.16403 -0.04854,-0.23528zM250.62737,173.69502v0.78205h-0.48613v-0.78205zM250.38431,174.71897h-0.85726v-0.48546h0.85726zM249.28397,174.47707v-0.78205h0.48612v0.78205zM249.52704,173.93857h-2.21093v-0.48546h2.21093zM251.12508,172.84007v-0.24355h0.24307v0.24355zM252.74271,172.84007v0.2419h-0.24306v-0.2419zM252.25658,171.41516v-0.2419h0.24306v0.2419zM253.35707,171.17326h0.24306v0.2419h-0.24306zM253.35707,173.08197h-0.24306v-0.2419h0.24306zM254.88024,172.59652h0.24306v0.24355h-0.24306zM255.1233,173.69502v0.24356h-0.24306v-0.24356zM253.11401,173.69502v-0.2419h0.24306v0.2419zM253.35707,176.85137h-0.24306v-0.2419h0.24306zM254.88024,176.36756h0.24306v0.2419h-0.24306zM255.1233,177.4644v0.24356h-0.24306v-0.24356zM252.93274,177.62347l-0.00529,-0.00165l0.09891,-0.22203zM252.58331,177.39151l-0.00316,-0.00165l0.17198,-0.17232zM252.34273,177.0419l-0.00231,-0.00498l0.2245,-0.09278zM252.49964,173.45312h0.24306v0.2419h-0.24306zM251.36817,173.93857h-0.24306v-0.24356h0.24306zM251.36817,172.59652h1.13147v0.48546h-1.13147zM252.25658,172.84007v-1.42491h0.48612v1.42491zM252.49964,171.17326h0.85744v0.4838h-0.85744zM253.60013,171.41516v1.42491h-0.48612v-1.42491zM253.35707,172.59652h1.52317v0.48546h-1.52317zM255.1233,172.84007v0.85494h-0.48613v-0.85494zM254.88024,173.93857h-1.52317v-0.48546h1.52317zM253.60013,173.69502v2.91445h-0.48612v-2.91445zM253.35707,176.36756h1.52317v0.48381h-1.52317zM255.1233,176.60946v0.85494h-0.48613v-0.85494zM254.88024,177.70798h-1.52317v-0.48546h1.52317zM253.35707,177.70798c-0.14729,0 -0.28946,-0.02817 -0.42433,-0.08451l0.18707,-0.44735c0.07406,0.02982 0.15226,0.04639 0.23726,0.04639zM252.92745,177.62181c-0.12907,-0.05799 -0.24422,-0.13421 -0.34413,-0.23031l0.33733,-0.34795c0.057,0.05468 0.12443,0.09941 0.20429,0.13421zM252.58016,177.38985c-0.10024,-0.10107 -0.17926,-0.21706 -0.23742,-0.34795l0.44437,-0.19551c0.03463,0.07621 0.08019,0.1425 0.13686,0.20049zM252.34042,177.03694c-0.05634,-0.1342 -0.08384,-0.27835 -0.08384,-0.42747h0.48612c0,0.08781 0.01607,0.16901 0.04673,0.2419zM252.25658,176.60946v-2.91445h0.48612v2.91445zM252.49964,173.93857h-1.13147v-0.48546h1.13147zM251.12508,173.69502v-0.85494h0.48614v0.85494zM255.97559,175.02052l0.00133,-0.00331l0.22201,0.09776zM256.20673,174.67422l0.00332,-0.00331l0.17165,0.17066zM256.75465,174.88135l-0.00513,0.00165l-0.09362,-0.22367zM259.44079,174.58974v0.2419h-0.24323v-0.2419zM259.19755,173.45312h0.24323v0.2419h-0.24323zM256.39926,173.93857h-0.24306v-0.24356h0.24306zM256.1562,172.84007v-0.24355h0.24306v0.24355zM259.43929,173.13332l-0.00548,-0.00165l0.09892,-0.22203zM259.6338,173.26755l-0.00646,-0.00664l0.1753,-0.17066zM259.7632,173.45974l-0.00233,-0.00496l0.22451,-0.09445zM260.29788,177.4644v0.24356h-0.24307v-0.24356zM259.19755,177.70798h-0.24306v-0.24356h0.24306zM258.95531,176.66249l0.48547,0.01988h-0.24323zM256.56246,177.62347l-0.00513,-0.00165l0.09858,-0.22203zM256.21318,177.39151l-0.00662,-0.00497l0.17513,-0.16901zM255.97692,177.0419l-0.00233,-0.00498l0.22434,-0.09278zM256.98678,176.85137h-0.24323v-0.2419h0.24323zM259.44079,176.60946v0.2419h-0.24323v-0.2419zM259.19755,175.20277h0.24323v0.24191h-0.24323zM256.74356,175.44469v-0.24191h0.24323v0.24191zM255.89076,175.44469c0,-0.14747 0.02734,-0.28996 0.08483,-0.42416l0.44686,0.19053c-0.02949,0.06959 -0.04557,0.14581 -0.04557,0.23363zM255.97692,175.01721c0.05716,-0.12923 0.13371,-0.24522 0.22981,-0.34298l0.35026,0.33635c-0.05484,0.05634 -0.1004,0.12426 -0.13587,0.20379zM256.21003,174.67092c0.10123,-0.10273 0.21936,-0.1806 0.35241,-0.23694l0.18706,0.44901c-0.07572,0.03149 -0.14033,0.07621 -0.19584,0.1309zM256.55733,174.43729c0.13587,-0.05964 0.28001,-0.08947 0.42946,-0.08947v0.48381c-0.08251,0 -0.15923,0.01656 -0.23213,0.0497zM256.98678,174.34783h2.21076v0.48381h-2.21076zM258.95448,174.58974v-0.89472h0.4863v0.89472zM259.19755,173.93857h-2.7983v-0.48546h2.7983zM256.1562,173.69502v-0.85494h0.48613v0.85494zM256.39926,172.59652h2.7983v0.48546h-2.7983zM259.19755,172.59652c0.15161,0 0.29709,0.02981 0.43394,0.09112l-0.19768,0.44404c-0.07207,-0.03313 -0.14978,-0.0497 -0.23627,-0.0497zM259.62618,172.68432c0.13387,0.05634 0.25184,0.13585 0.35142,0.23858l-0.35026,0.338c-0.05136,-0.05468 -0.113,-0.09776 -0.18805,-0.12758zM259.97114,172.91629c0.10339,0.09941 0.18276,0.2187 0.23842,0.35126l-0.44869,0.18723c-0.03131,-0.07621 -0.07356,-0.13752 -0.12708,-0.18723zM260.20741,173.26257c0.06098,0.13587 0.09047,0.28001 0.09047,0.43244h-0.48613c0,-0.08616 -0.01641,-0.16403 -0.04854,-0.23528zM260.29788,173.69502v3.76939h-0.48614v-3.76939zM260.05481,177.70798h-0.85726v-0.48546h0.85726zM258.95448,177.4644v-0.78205h0.4863v0.78205zM259.43994,176.7039c-0.01143,0.13918 -0.04938,0.27008 -0.11333,0.39434l-0.43228,-0.22203c0.0348,-0.06793 0.05484,-0.13752 0.06098,-0.21374zM259.32661,177.09825c-0.06214,0.12095 -0.14331,0.22699 -0.24256,0.31812l-0.33022,-0.35623c0.05749,-0.05302 0.10406,-0.11432 0.1405,-0.18391zM259.08404,177.41636c-0.09759,0.09113 -0.20927,0.16072 -0.33353,0.21208l-0.18508,-0.44735c0.07291,-0.03149 0.13503,-0.07125 0.18839,-0.12096zM258.75053,177.62844c-0.12907,0.05302 -0.26493,0.07953 -0.40593,0.07953v-0.48546c0.07953,0 0.15243,-0.0149 0.22086,-0.04142zM258.3446,177.70798h-1.3578v-0.48546h1.3578zM256.98678,177.70798c-0.14747,0 -0.28946,-0.02817 -0.42433,-0.08451l0.18706,-0.44735c0.07406,0.02982 0.15244,0.04639 0.23727,0.04639zM256.55733,177.62181c-0.12907,-0.05799 -0.2444,-0.13421 -0.34414,-0.23031l0.33734,-0.34795c0.05683,0.05468 0.12427,0.09941 0.20413,0.13421zM256.20656,177.38653c-0.0961,-0.10107 -0.17248,-0.2154 -0.22964,-0.34463l0.4442,-0.19551c0.03547,0.07787 0.08102,0.14581 0.13586,0.2038zM255.9746,177.03694c-0.05667,-0.1342 -0.08384,-0.27835 -0.08384,-0.42747h0.48613c0,0.08781 0.01608,0.16901 0.04656,0.2419zM255.89076,176.60946v-1.16479h0.48613v1.16479zM256.98678,176.36756h2.21076v0.48381h-2.21076zM258.95448,176.60946v-1.16479h0.4863v1.16479zM259.19755,175.68824h-2.21076v-0.48547h2.21076zM257.22984,175.44469v1.16479h-0.48629v-1.16479zM260.79561,172.84007v-0.24355h0.24306v0.24355zM262.4132,172.84007v0.2419h-0.24306v-0.2419zM261.92707,171.41516v-0.2419h0.24306v0.2419zM263.02757,171.17326h0.24307v0.2419h-0.24307zM263.02757,173.08197h-0.24306v-0.2419h0.24306zM264.55075,172.59652h0.24306v0.24355h-0.24306zM264.79381,173.69502v0.24356h-0.24306v-0.24356zM262.78451,173.69502v-0.2419h0.24306v0.2419zM263.02757,176.85137h-0.24306v-0.2419h0.24306zM264.55075,176.36756h0.24306v0.2419h-0.24306zM264.79381,177.4644v0.24356h-0.24306v-0.24356zM262.60342,177.62347l-0.00546,-0.00165l0.09891,-0.22203zM262.25398,177.39151l-0.00331,-0.00165l0.17198,-0.17232zM262.01325,177.0419l-0.00215,-0.00498l0.22434,-0.09278zM262.17014,173.45312h0.24306v0.2419h-0.24306zM261.03865,173.93857h-0.24306v-0.24356h0.24306zM261.03865,172.59652h1.13149v0.48546h-1.13149zM261.92707,172.84007v-1.42491h0.48612v1.42491zM262.17014,171.17326h0.85742v0.4838h-0.85742zM263.27064,171.41516v1.42491h-0.48614v-1.42491zM263.02757,172.59652h1.52317v0.48546h-1.52317zM264.79381,172.84007v0.85494h-0.48612v-0.85494zM264.55075,173.93857h-1.52317v-0.48546h1.52317zM263.27064,173.69502v2.91445h-0.48614v-2.91445zM263.02757,176.36756h1.52317v0.48381h-1.52317zM264.79381,176.60946v0.85494h-0.48612v-0.85494zM264.55075,177.70798h-1.52317v-0.48546h1.52317zM263.02757,177.70798c-0.14729,0 -0.28946,-0.02817 -0.42415,-0.08451l0.1869,-0.44735c0.07406,0.02982 0.15244,0.04639 0.23727,0.04639zM262.59795,177.62181c-0.12891,-0.05799 -0.24423,-0.13421 -0.34397,-0.23031l0.33717,-0.34795c0.057,0.05468 0.12443,0.09941 0.20446,0.13421zM262.25068,177.38985c-0.10008,-0.10107 -0.17927,-0.21706 -0.23743,-0.34795l0.44438,-0.19551c0.0348,0.07621 0.0802,0.1425 0.13702,0.20049zM262.01108,177.03694c-0.0565,-0.1342 -0.084,-0.27835 -0.084,-0.42747h0.48612c0,0.08781 0.01607,0.16901 0.04673,0.2419zM261.92707,176.60946v-2.91445h0.48612v2.91445zM262.17014,173.93857h-1.13149v-0.48546h1.13149zM260.79561,173.69502v-0.85494h0.48613v0.85494zM266.70516,172.59652h0.24323v0.24355h-0.24323zM266.9484,177.4644v0.24356h-0.24323v-0.24356zM265.84773,177.70798h-0.24307v-0.24356h0.24307zM265.60467,172.84007v-0.24355h0.24307v0.24355zM265.56128,171.05893v-0.2419h0.24306v0.2419zM266.74875,170.81703h0.24307v0.2419h-0.24307zM266.99182,171.94868v0.24356h-0.24307v-0.24356zM265.80432,172.19224h-0.24306v-0.24356h0.24306zM266.9484,172.84007v4.62434h-0.48629v-4.62434zM266.70516,177.70798h-0.85742v-0.48546h0.85742zM265.60467,177.4644v-4.62434h0.48629v4.62434zM265.84773,172.59652h0.85742v0.48546h-0.85742zM265.80432,170.81703h0.94442v0.48546h-0.94442zM266.99182,171.05893v0.88974h-0.48629v-0.88974zM266.74875,172.19224h-0.94442v-0.48547h0.94442zM265.56128,171.94868v-0.88974h0.48612v0.88974zM271.71641,176.85137l0.00231,-0.00498l0.22219,0.09776zM271.587,177.62181h-0.00298l-0.09576,-0.22203zM268.43098,177.62347l-0.00514,-0.00165l0.09858,-0.22203zM268.0817,177.39151l-0.00663,-0.00497l0.17513,-0.16901zM267.84545,177.0419l-0.00232,-0.00498l0.2245,-0.09278zM267.84312,173.26755l0.00216,-0.00498l0.22234,0.09776zM268.62334,173.13168l-0.0053,0.00166l-0.09361,-0.22367zM271.39479,173.13332l-0.00762,-0.00331l0.10107,-0.22037zM271.58931,173.26755l-0.00647,-0.00664l0.1753,-0.17066zM271.71871,173.45974l-0.00232,-0.00496l0.22451,-0.09445zM268.61208,173.69502v-0.2419h0.24307v0.2419zM268.85515,176.85137h-0.24307v-0.2419h0.24307zM271.40059,176.60946v0.2419h-0.24307v-0.2419zM271.15752,173.45312h0.24307v0.2419h-0.24307zM272.25371,176.60946c0,0.15078 -0.02983,0.29657 -0.09063,0.43244l-0.44438,-0.19551c0.03213,-0.0729 0.04872,-0.15077 0.04872,-0.23693zM272.16525,177.03694c-0.05551,0.13255 -0.13387,0.25019 -0.23527,0.35292l-0.3438,-0.34297c0.05534,-0.05799 0.09875,-0.12095 0.13023,-0.19551zM271.92997,177.38985c-0.09792,0.0961 -0.21324,0.17398 -0.34298,0.23196l-0.19734,-0.44405c0.07903,-0.03479 0.14366,-0.07953 0.19652,-0.13089zM271.58402,177.62181c-0.13421,0.05799 -0.2772,0.08615 -0.42648,0.08615v-0.48546c0.08864,0 0.16585,-0.01656 0.23495,-0.04473zM271.15752,177.70798h-2.30239v-0.48546h2.30239zM268.85515,177.70798c-0.14729,0 -0.28913,-0.02817 -0.42416,-0.08451l0.18706,-0.44735c0.07406,0.02982 0.15244,0.04639 0.23711,0.04639zM268.42584,177.62181c-0.12907,-0.05799 -0.24439,-0.13421 -0.34413,-0.23031l0.33735,-0.34795c0.05683,0.05468 0.12426,0.09941 0.20429,0.13421zM268.07507,177.38653c-0.0961,-0.10107 -0.1723,-0.2154 -0.22964,-0.34463l0.44421,-0.19551c0.03547,0.07787 0.08102,0.14581 0.13585,0.2038zM267.84312,177.03694c-0.0565,-0.1342 -0.08384,-0.27835 -0.08384,-0.42747h0.48613c0,0.08781 0.01607,0.16901 0.04655,0.2419zM267.75928,176.60946v-2.91445h0.48613v2.91445zM267.75928,173.69502c0,-0.14912 0.02734,-0.29159 0.08384,-0.42747l0.44885,0.18723c-0.03048,0.0729 -0.04655,0.15243 -0.04655,0.24024zM267.84528,173.26257c0.05766,-0.12923 0.13519,-0.24521 0.23328,-0.34298l0.34364,0.34463c-0.05286,0.05136 -0.09741,0.11597 -0.13255,0.1955zM268.07855,172.9196c0.10123,-0.10107 0.21938,-0.1806 0.35242,-0.23527l0.18706,0.44901c-0.07572,0.03149 -0.14033,0.07292 -0.19584,0.1309zM268.42584,172.68764c0.13587,-0.06131 0.28002,-0.09112 0.4293,-0.09112v0.48546c-0.08234,0 -0.15907,0.01656 -0.2318,0.0497zM268.85515,172.59652h2.30239v0.48546h-2.30239zM271.15752,172.59652c0.15144,0 0.29659,0.02981 0.43179,0.09112l-0.20214,0.44239c-0.06777,-0.03149 -0.14333,-0.04804 -0.22965,-0.04804zM271.58186,172.68432c0.13371,0.05634 0.25185,0.13585 0.35126,0.23858l-0.35027,0.338c-0.05136,-0.05468 -0.11301,-0.09776 -0.18806,-0.12758zM271.92666,172.91629c0.10339,0.09941 0.18275,0.2187 0.23859,0.35126l-0.44884,0.18723c-0.03115,-0.07621 -0.07357,-0.13752 -0.12708,-0.18723zM272.16309,173.26257c0.0608,0.13587 0.09063,0.28001 0.09063,0.43244h-0.48629c0,-0.08616 -0.01658,-0.16403 -0.04872,-0.23528zM272.25371,173.69502v2.91445h-0.48629v-2.91445zM269.09836,173.69502v2.91445h-0.4863v-2.91445zM268.85515,176.36756h2.30239v0.48381h-2.30239zM270.91448,176.60946v-2.91445h0.48612v2.91445zM271.15752,173.93857h-2.30239v-0.48546h2.30239zM277.60674,177.4644v0.24356h-0.24306v-0.24356zM276.50626,177.70798h-0.24307v-0.24356h0.24307zM276.50626,173.45312h0.24306v0.2419h-0.24306zM273.87398,173.69502v-0.2419h0.24307v0.2419zM274.36027,177.4644v0.24356h-0.24323v-0.24356zM273.26407,177.70798h-0.24306v-0.24356h0.24306zM273.02103,172.84007v-0.24355h0.24306v0.24355zM274.11705,172.59652h0.24322v0.24355h-0.24322zM274.35995,173.6685l-0.48596,-0.0116h0.24307zM274.41643,173.43987l-0.00115,0.00165l-0.21987,-0.10272zM274.54683,173.25264l-0.00016,0.00165l-0.16851,-0.17729zM274.74384,173.12837l-0.00563,0.00166l-0.09013,-0.22534zM276.74781,173.13332l-0.00514,-0.00165l0.09875,-0.22203zM276.94268,173.26755l-0.00663,-0.00664l0.17513,-0.17066zM277.07191,173.45974l-0.00231,-0.00496l0.2245,-0.09445zM277.36367,177.70798h-0.85744v-0.48546h0.85744zM276.26319,177.4644v-3.76939h0.48613v3.76939zM276.50626,173.93857h-2.38921v-0.48546h2.38921zM274.36027,173.69502v3.76939h-0.4863v-3.76939zM274.11705,177.70798h-0.85297v-0.48546h0.85297zM273.02103,177.4644v-4.62434h0.48612v4.62434zM273.26407,172.59652h0.85297v0.48546h-0.85297zM274.36027,172.84007v0.81684h-0.4863v-0.81684zM273.8743,173.64365c0.00729,-0.14415 0.04076,-0.28001 0.10123,-0.40759l0.43974,0.20545c-0.03247,0.06959 -0.05119,0.14415 -0.05535,0.22699zM273.97439,173.23773c0.05832,-0.12592 0.13636,-0.2386 0.23527,-0.33469l0.33701,0.35126c-0.05202,0.04804 -0.0956,0.10936 -0.13023,0.18558zM274.20966,172.90303c0.1009,-0.09776 0.21756,-0.17066 0.34812,-0.22367l0.18043,0.45067c-0.07258,0.02818 -0.13571,0.06959 -0.19137,0.12261zM274.55229,172.68102c0.13337,-0.05634 0.27472,-0.0845 0.42201,-0.0845v0.48546c-0.08467,0 -0.16072,0.0149 -0.23047,0.04639zM274.9743,172.59652h1.53195v0.48546h-1.53195zM276.50626,172.59652c0.15176,0 0.29708,0.02981 0.43377,0.09112l-0.19734,0.44404c-0.07207,-0.03313 -0.15011,-0.0497 -0.23643,-0.0497zM276.9349,172.68432c0.13405,0.05634 0.25201,0.13585 0.35158,0.23858l-0.35042,0.338c-0.05136,-0.05468 -0.11317,-0.09776 -0.18823,-0.12758zM277.27986,172.91629c0.10323,0.09941 0.18292,0.2187 0.23858,0.35126l-0.44884,0.18723c-0.03131,-0.07621 -0.07356,-0.13752 -0.12692,-0.18723zM277.51613,173.26257c0.0608,0.13587 0.09063,0.28001 0.09063,0.43244h-0.48613c0,-0.08616 -0.01673,-0.16403 -0.04872,-0.23528zM277.60674,173.69502v3.76939h-0.48613v-3.76939zM218.87331,184.56027l-0.00729,-0.00331l0.10156,-0.22037zM218.51592,184.32004l-0.00315,-0.00331l0.17182,-0.17066zM218.2702,183.9605l-0.00099,-0.00331l0.22401,-0.09445zM218.71723,181.48512l-0.00099,0.00332l-0.22301,-0.0961zM218.85657,181.28133l-0.00298,0.00332l-0.169,-0.17398zM219.06683,181.13884l-0.00281,0.00165l-0.09643,-0.22202zM222.59415,181.14214l-0.00713,-0.00331l0.10156,-0.22036zM222.80706,181.28463l-0.00314,-0.00332l0.17198,-0.17066zM222.94424,181.48844l-0.00099,-0.00332l0.224,-0.09278zM223.47992,182.53889v0.2419h-0.24306v-0.2419zM222.34479,182.7808h-0.24306v-0.2419h0.24306zM222.34479,181.49175h0.24307v0.2419h-0.24307zM219.07262,181.73365v-0.2419h0.24306v0.2419zM219.31569,183.7567h-0.24306v-0.24191h0.24306zM222.59415,183.80971l-0.002,-0.00165l0.09642,-0.22367zM222.94424,184.15932l-0.00099,-0.00166l0.224,-0.09443zM223.39143,186.6231l-0.00099,0.00331l-0.22319,-0.09776zM222.59216,186.78049h0.002l0.09444,0.22202zM218.78632,187.22619h-0.00233l0.0966,-0.22368zM218.18305,186.62639l-0.00099,-0.00331l0.224,-0.09445zM218.09341,185.38209v-0.2419h0.24323v0.2419zM219.2287,185.14019h0.24306v0.2419h-0.24306zM219.2287,186.42426h-0.24306v-0.2419h0.24306zM222.58785,186.18236v0.2419h-0.24307v-0.2419zM222.34479,184.16262h0.24307v0.24355h-0.24307zM219.31569,184.64809c-0.15359,0 -0.30171,-0.02817 -0.44238,-0.08781l0.18855,-0.44735c0.07986,0.03313 0.1637,0.0497 0.25383,0.0497zM218.86602,184.55697c-0.13106,-0.05964 -0.24821,-0.13917 -0.3501,-0.23693l0.3375,-0.3496c0.06064,0.05799 0.13206,0.1077 0.21557,0.14581zM218.51276,184.31672c-0.10323,-0.10273 -0.18424,-0.22203 -0.24256,-0.35623l0.44603,-0.19386c0.03463,0.07953 0.08119,0.14747 0.14034,0.20712zM218.26921,183.95718c-0.05915,-0.13918 -0.08865,-0.28829 -0.08865,-0.44238h0.48613c0,0.09113 0.01706,0.17562 0.05053,0.2535zM218.18056,183.51479v-1.78114h0.48613v1.78114zM218.18056,181.73365c0,-0.15243 0.0295,-0.29989 0.08963,-0.43741l0.44603,0.19219c-0.03247,0.07456 -0.04954,0.15741 -0.04954,0.24521zM218.26921,181.29789c0.05849,-0.13918 0.1405,-0.26013 0.24671,-0.36286l0.33767,0.3496c-0.05616,0.05302 -0.10207,0.1193 -0.13636,0.20048zM218.51276,180.9367c0.10339,-0.10107 0.22335,-0.18227 0.35821,-0.24026l0.19302,0.44405c-0.07969,0.03479 -0.14829,0.08119 -0.20744,0.14084zM218.86833,180.69644c0.14166,-0.06296 0.29161,-0.09444 0.44736,-0.09444v0.48546c-0.08797,0 -0.17017,0.01824 -0.24886,0.05137zM219.31569,180.60201h3.0291v0.48546h-3.0291zM222.34479,180.60201c0.15575,0 0.30503,0.03147 0.4452,0.0961l-0.20297,0.44073c-0.07456,-0.03313 -0.15443,-0.05136 -0.24224,-0.05136zM222.78286,180.6948c0.13801,0.05799 0.26046,0.13917 0.36468,0.2419l-0.34364,0.34463c-0.05799,-0.05799 -0.12724,-0.10438 -0.20976,-0.13918zM223.14456,180.93504c0.10638,0.10273 0.18823,0.22367 0.24689,0.36286l-0.44818,0.18722c-0.03447,-0.08119 -0.08004,-0.14746 -0.1362,-0.20047zM223.39044,181.29624c0.06014,0.13752 0.08947,0.28498 0.08947,0.43741h-0.48613c0,-0.08781 -0.0169,-0.17066 -0.04954,-0.24521zM223.47992,181.73365v0.80524h-0.48613v-0.80524zM223.23685,182.7808h-0.89206v-0.48546h0.89206zM222.10172,182.53889v-0.80524h0.48613v0.80524zM222.34479,181.97722h-3.0291v-0.48546h3.0291zM219.55875,181.73365v1.78114h-0.48613v-1.78114zM219.31569,183.27289h3.0291v0.4838h-3.0291zM222.34479,183.27289c0.15359,0 0.30105,0.02983 0.4404,0.08947l-0.19302,0.44569c-0.07572,-0.03313 -0.15724,-0.05136 -0.24737,-0.05136zM222.78286,183.36071c0.13801,0.05964 0.26046,0.13917 0.36468,0.24356l-0.34364,0.34463c-0.05799,-0.05799 -0.12724,-0.10604 -0.20976,-0.13917zM223.14755,183.60426c0.10438,0.10438 0.18557,0.22534 0.24389,0.36452l-0.44818,0.18887c-0.03463,-0.08284 -0.08136,-0.15242 -0.13934,-0.20876zM223.39044,183.96547c0.06014,0.13918 0.08947,0.28664 0.08947,0.44073h-0.48613c0,-0.09113 -0.0169,-0.17232 -0.04954,-0.24688zM223.47992,184.4062v1.77617h-0.48613v-1.77617zM223.47992,186.18236c0,0.15243 -0.02933,0.30155 -0.08848,0.44073l-0.44818,-0.18723c0.03364,-0.07953 0.05053,-0.16403 0.05053,-0.2535zM223.39044,186.62639c-0.05832,0.1342 -0.13951,0.2535 -0.2429,0.35789l-0.34364,-0.34298c0.05915,-0.05964 0.10587,-0.12758 0.14033,-0.20712zM223.14755,186.98429c-0.10422,0.10273 -0.22667,0.18392 -0.36468,0.2419l-0.18871,-0.44569c0.08251,-0.03645 0.15178,-0.08284 0.20976,-0.13918zM222.78518,187.22619c-0.13934,0.05964 -0.28681,0.08948 -0.4404,0.08948v-0.48546c0.09013,0 0.17165,-0.01822 0.24737,-0.04971zM222.34479,187.31567h-3.11608v-0.48546h3.11608zM219.2287,187.31567c-0.15359,0 -0.30171,-0.02983 -0.44238,-0.08948l0.18855,-0.44569c0.07969,0.03149 0.1637,0.04971 0.25383,0.04971zM218.784,187.22619c-0.13503,-0.05799 -0.25482,-0.14084 -0.35837,-0.2419l0.34396,-0.34298c0.05915,0.05799 0.12774,0.10438 0.20744,0.13918zM218.42562,186.98429c-0.10323,-0.10438 -0.18424,-0.22369 -0.24256,-0.35789l0.44619,-0.19219c0.03447,0.07953 0.08119,0.14746 0.14034,0.2071zM218.18206,186.6231c-0.05931,-0.13918 -0.08865,-0.28829 -0.08865,-0.44073h0.4863c0,0.08947 0.01673,0.17397 0.05052,0.2535zM218.09341,186.18236v-0.80027h0.4863v0.80027zM218.33665,185.14019h0.89206v0.48546h-0.89206zM219.47176,185.38209v0.80027h-0.48612v-0.80027zM219.2287,185.9388h3.11608v0.48546h-3.11608zM222.10172,186.18236v-1.77617h0.48613v1.77617zM222.34479,184.64809h-3.0291v-0.48546h3.0291zM228.74612,185.19653v0.24356h-0.24306v-0.24356zM225.19179,185.19653v-0.24191h0.24306v0.24191zM225.43486,186.45907h-0.24306v-0.2419h0.24306zM228.50306,185.97525h0.24306v0.2419h-0.24306zM228.74612,187.07209v0.24356h-0.24306v-0.24356zM225.01054,187.23116l-0.00514,-0.00165l0.09875,-0.22203zM224.66143,186.9992l-0.00664,-0.00497l0.17513,-0.16901zM224.42516,186.64959l-0.00249,-0.00498l0.2245,-0.09278zM224.42284,182.87524l0.00215,-0.00498l0.22219,0.09776zM225.20273,182.73938l-0.00514,0.00166l-0.09344,-0.22367zM227.88736,182.74102l-0.0053,-0.00165l0.09875,-0.22203zM228.08204,182.87524l-0.00662,-0.00664l0.1753,-0.17066zM228.21129,183.06744l-0.00233,-0.00496l0.22435,-0.09445zM225.19179,183.30271v-0.2419h0.24306v0.2419zM225.43486,184.58347h-0.24306v-0.2419h0.24306zM227.88885,184.34157v0.2419h-0.24306v-0.2419zM227.6458,183.06081h0.24306v0.2419h-0.24306zM228.50306,185.44007h-3.0682v-0.48546h3.0682zM225.67792,185.19653v1.02063h-0.48613v-1.02063zM225.43486,185.97525h3.0682v0.48381h-3.0682zM228.74612,186.21716v0.85494h-0.48613v-0.85494zM228.50306,187.31567h-3.0682v-0.48546h3.0682zM225.43486,187.31567c-0.14729,0 -0.28945,-0.02817 -0.42432,-0.08451l0.18706,-0.44735c0.07406,0.02982 0.15243,0.04639 0.23727,0.04639zM225.0054,187.22951c-0.12891,-0.05799 -0.24439,-0.13421 -0.34397,-0.23031l0.33717,-0.34795c0.05683,0.05468 0.12426,0.09941 0.20413,0.13421zM224.65481,186.99423c-0.0961,-0.10107 -0.17248,-0.2154 -0.22964,-0.34463l0.44404,-0.19551c0.03562,0.07787 0.08102,0.14581 0.13587,0.2038zM224.42267,186.64463c-0.0565,-0.1342 -0.08401,-0.27835 -0.08401,-0.42747h0.4863c0,0.08781 0.0159,0.16901 0.04655,0.2419zM224.33867,186.21716v-2.91445h0.4863v2.91445zM224.33867,183.30271c0,-0.14912 0.02768,-0.29159 0.08418,-0.42747l0.44869,0.18723c-0.03065,0.0729 -0.04655,0.15243 -0.04655,0.24024zM224.42499,182.87027c0.05749,-0.12923 0.13504,-0.24521 0.23297,-0.34298l0.34397,0.34463c-0.05286,0.05136 -0.09742,0.11597 -0.13271,0.1955zM224.65795,182.5273c0.10123,-0.10107 0.21954,-0.1806 0.35258,-0.23527l0.18706,0.44901c-0.07588,0.03149 -0.14034,0.07292 -0.19568,0.1309zM225.0054,182.29534c0.13603,-0.06131 0.27985,-0.09112 0.42946,-0.09112v0.48546c-0.08251,0 -0.15906,0.01656 -0.23213,0.0497zM225.43486,182.20422h2.21093v0.48546h-2.21093zM227.6458,182.20422c0.15144,0 0.29706,0.02981 0.43376,0.09112l-0.1975,0.44404c-0.07207,-0.03313 -0.14994,-0.0497 -0.23627,-0.0497zM228.07426,182.29202c0.13405,0.05634 0.25201,0.13585 0.35142,0.23858l-0.35026,0.338c-0.05136,-0.05468 -0.11317,-0.09776 -0.18806,-0.12758zM228.41922,182.52399c0.10323,0.09941 0.18274,0.2187 0.23858,0.35126l-0.44885,0.18723c-0.03131,-0.07621 -0.0734,-0.13752 -0.12692,-0.18723zM228.65549,182.87027c0.0608,0.13587 0.09063,0.28001 0.09063,0.43244h-0.48613c0,-0.08616 -0.01658,-0.16403 -0.04872,-0.23528zM228.74612,183.30271v1.89382h-0.48613v-1.89382zM225.67792,183.30271v1.03887h-0.48613v-1.03887zM225.43486,184.09801h2.21093v0.48546h-2.21093zM227.40273,184.34157v-1.03887h0.48612v1.03887zM227.6458,183.54626h-2.21094v-0.48546h2.21094zM234.09915,187.07209v0.24356h-0.24307v-0.24356zM232.99883,187.31567h-0.24306v-0.24356h0.24306zM232.99883,183.06081h0.24322v0.2419h-0.24322zM230.36654,183.30271v-0.2419h0.24307v0.2419zM230.85267,187.07209v0.24356h-0.24306v-0.24356zM229.75665,187.31567h-0.24306v-0.24356h0.24306zM229.51358,182.44776v-0.24355h0.24306v0.24355zM230.60961,182.20422h0.24306v0.24355h-0.24306zM230.85234,183.27619l-0.48579,-0.0116h0.24307zM230.909,183.04756l-0.00115,0.00165l-0.21987,-0.10272zM231.03941,182.86033l-0.00017,0.00165l-0.16851,-0.17729zM231.2364,182.73607l-0.00546,0.00166l-0.0903,-0.22534zM233.24056,182.74102l-0.00548,-0.00165l0.09893,-0.22203zM233.43508,182.87524l-0.00646,-0.00664l0.1753,-0.17066zM233.56448,183.06744l-0.00232,-0.00496l0.2245,-0.09445zM233.85608,187.31567h-0.85726v-0.48546h0.85726zM232.75576,187.07209v-3.76939h0.48628v3.76939zM232.99883,183.54626h-2.38922v-0.48546h2.38922zM230.85267,183.30271v3.76939h-0.48614v-3.76939zM230.60961,187.31567h-0.85296v-0.48546h0.85296zM229.51358,187.07209v-4.62434h0.48613v4.62434zM229.75665,182.20422h0.85296v0.48546h-0.85296zM230.85267,182.44776v0.81684h-0.48614v-0.81684zM230.36688,183.25135c0.00745,-0.14415 0.04075,-0.28001 0.10107,-0.40759l0.4399,0.20545c-0.03231,0.06959 -0.0512,0.14415 -0.05551,0.22699zM230.46679,182.84542c0.05832,-0.12592 0.13669,-0.2386 0.23544,-0.33469l0.33701,0.35126c-0.05186,0.04804 -0.0956,0.10936 -0.13023,0.18558zM230.70222,182.51073c0.10123,-0.09776 0.21756,-0.17066 0.34812,-0.22367l0.18059,0.45067c-0.07273,0.02818 -0.13602,0.06959 -0.19153,0.12261zM231.04487,182.28871c0.13321,-0.05634 0.27488,-0.0845 0.42217,-0.0845v0.48546c-0.085,0 -0.16106,0.0149 -0.23064,0.04639zM231.46705,182.20422h1.53178v0.48546h-1.53178zM232.99883,182.20422c0.15161,0 0.29708,0.02981 0.43393,0.09112l-0.19766,0.44404c-0.07207,-0.03313 -0.14977,-0.0497 -0.23627,-0.0497zM233.42746,182.29202c0.13387,0.05634 0.25201,0.13585 0.35142,0.23858l-0.35026,0.338c-0.05136,-0.05468 -0.113,-0.09776 -0.18805,-0.12758zM233.77241,182.52399c0.10339,0.09941 0.18276,0.2187 0.23842,0.35126l-0.44869,0.18723c-0.03131,-0.07621 -0.07357,-0.13752 -0.12708,-0.18723zM234.00884,182.87027c0.06064,0.13587 0.09031,0.28001 0.09031,0.43244h-0.48613c0,-0.08616 -0.01656,-0.16403 -0.04854,-0.23528zM234.09915,183.30271v3.76939h-0.48613v-3.76939zM238.1469,186.21716v0.2419h-0.24306v-0.2419zM237.90383,184.9016h0.24306v0.2419h-0.24306zM235.44288,185.30421l-0.00546,-0.00331l0.09891,-0.22203zM235.09344,185.07059l-0.00646,-0.00662l0.17514,-0.16735zM234.85717,184.721l-0.00231,-0.00496l0.2245,-0.09278zM234.85485,182.87524l0.00231,-0.00498l0.22219,0.09776zM235.63508,182.73938l-0.0053,0.00166l-0.09344,-0.22367zM238.58282,182.20422h0.24306v0.24355h-0.24306zM238.82588,183.30271v0.24356h-0.24306v-0.24356zM235.62845,183.30271v-0.2419h0.24307v0.2419zM235.87151,184.53045h-0.24307v-0.2419h0.24307zM238.14109,184.58182l-0.00762,-0.00331l0.10107,-0.22036zM238.34025,184.71437l-0.00348,-0.00332l0.17198,-0.17066zM238.46932,184.90822l-0.00231,-0.00496l0.2245,-0.0928zM238.46701,186.45907l0.00231,-0.00498l0.22219,0.09776zM238.68075,186.99755l-0.00331,0.00165l-0.16867,-0.17398zM238.33329,187.22951h-0.00298l-0.09577,-0.22203zM235.01408,187.31567h-0.24306v-0.24356h0.24306zM234.77102,186.21716v-0.2419h0.24306v0.2419zM237.66077,186.21716v-1.07366h0.48612v1.07366zM237.90383,185.38541h-2.03232v-0.48381h2.03232zM235.87151,185.38541c-0.14946,0 -0.29327,-0.02652 -0.42864,-0.0812l0.1869,-0.44901c0.07323,0.03149 0.1531,0.04639 0.24174,0.04639zM235.43741,185.30091c-0.12891,-0.05799 -0.24423,-0.13255 -0.34397,-0.23031l0.33717,-0.3496c0.05716,0.05468 0.12443,0.10107 0.20446,0.13587zM235.08698,185.06397c-0.09593,-0.09776 -0.17248,-0.21375 -0.22982,-0.34298l0.44438,-0.19716c0.03547,0.08119 0.08086,0.14747 0.13554,0.2038zM234.85485,184.71603c-0.05634,-0.13587 -0.08384,-0.27836 -0.08384,-0.42748h0.48613c0,0.08781 0.01607,0.16735 0.04655,0.24026zM234.77102,184.28855v-0.98584h0.48613v0.98584zM234.77102,183.30271c0,-0.14912 0.0275,-0.29159 0.08384,-0.42747l0.44884,0.18723c-0.03048,0.0729 -0.04655,0.15243 -0.04655,0.24024zM234.85717,182.87027c0.05766,-0.12923 0.13504,-0.24521 0.23297,-0.34298l0.34396,0.34463c-0.05302,0.05136 -0.09742,0.11597 -0.13255,0.1955zM235.09013,182.5273c0.1014,-0.10107 0.21953,-0.1806 0.35274,-0.23527l0.1869,0.44901c-0.07572,0.03149 -0.14051,0.07292 -0.19568,0.1309zM235.43758,182.29534c0.13685,-0.06131 0.28217,-0.09112 0.43393,-0.09112v0.48546c-0.08649,0 -0.16436,0.01656 -0.23644,0.0497zM235.87151,182.20422h2.7113v0.48546h-2.7113zM238.82588,182.44776v0.85494h-0.48613v-0.85494zM238.58282,183.54626h-2.7113v-0.48546h2.7113zM236.11458,183.30271v0.98584h-0.48613v-0.98584zM235.87151,184.04499h2.03232v0.48547h-2.03232zM237.90383,184.04499c0.15144,0 0.29642,0.03149 0.43179,0.0928l-0.20215,0.44073c-0.06793,-0.02982 -0.14333,-0.04806 -0.22964,-0.04806zM238.328,184.13446c0.13305,0.05468 0.25135,0.13421 0.35275,0.23362l-0.34397,0.34297c-0.05517,-0.05468 -0.11995,-0.09775 -0.19567,-0.12924zM238.67726,184.36477c0.10339,0.09941 0.18275,0.21706 0.23876,0.35126l-0.44901,0.18723c-0.03098,-0.07456 -0.07358,-0.13587 -0.12676,-0.18889zM238.91369,184.71105c0.0608,0.13587 0.09063,0.28166 0.09063,0.43244h-0.48612c0,-0.08616 -0.01674,-0.16403 -0.04888,-0.23527zM239.00432,185.1435v1.07366h-0.48612v-1.07366zM239.00432,186.21716c0,0.15078 -0.02982,0.29657 -0.09063,0.43244l-0.44438,-0.19551c0.03213,-0.0729 0.04888,-0.15077 0.04888,-0.23693zM238.91602,186.64463c-0.05567,0.13255 -0.13405,0.25019 -0.23527,0.35292l-0.34397,-0.34297c0.05551,-0.05799 0.09875,-0.12095 0.13024,-0.19551zM238.67743,186.9992c-0.09974,0.0961 -0.21523,0.17232 -0.34414,0.23031l-0.1975,-0.44405c0.07986,-0.03479 0.14729,-0.07953 0.20445,-0.13421zM238.33031,187.22951c-0.13405,0.05799 -0.27719,0.08615 -0.42649,0.08615v-0.48546c0.08864,0 0.16585,-0.01656 0.23495,-0.04473zM237.90383,187.31567h-2.88975v-0.48546h2.88975zM234.77102,187.07209v-0.85494h0.48613v0.85494zM235.01408,185.97525h2.88975v0.48381h-2.88975zM240.82408,182.20422h0.24322v0.24355h-0.24322zM241.0673,187.07209v0.24356h-0.24322v-0.24356zM239.96681,187.31567h-0.24306v-0.24356h0.24306zM239.72374,182.44776v-0.24355h0.24306v0.24355zM239.68017,180.66663v-0.2419h0.24306v0.2419zM240.86782,180.42472h0.24306v0.2419h-0.24306zM241.11088,181.55637v0.24356h-0.24306v-0.24356zM239.92323,181.79993h-0.24306v-0.24356h0.24306zM241.0673,182.44776v4.62434h-0.48628v-4.62434zM240.82408,187.31567h-0.85728v-0.48546h0.85728zM239.72374,187.07209v-4.62434h0.48629v4.62434zM239.96681,182.20422h0.85728v0.48546h-0.85728zM239.92323,180.42472h0.94458v0.48546h-0.94458zM241.11088,180.66663v0.88974h-0.48628v-0.88974zM240.86782,181.79993h-0.94458v-0.48547h0.94458zM239.68017,181.55637v-0.88974h0.48628v0.88974zM241.60827,182.44776v-0.24355h0.24306v0.24355zM243.22605,182.44776v0.2419h-0.24306v-0.2419zM242.73991,181.02285v-0.2419h0.24307v0.2419zM243.84025,180.78095h0.24306v0.2419h-0.24306zM243.84025,182.68967h-0.24307v-0.2419h0.24307zM245.36357,182.20422h0.24306v0.24355h-0.24306zM245.60664,183.30271v0.24356h-0.24306v-0.24356zM243.59718,183.30271v-0.2419h0.24307v0.2419zM243.84025,186.45907h-0.24307v-0.2419h0.24307zM245.36357,185.97525h0.24306v0.2419h-0.24306zM245.60664,187.07209v0.24356h-0.24306v-0.24356zM243.41608,187.23116l-0.0053,-0.00165l0.09875,-0.22203zM243.06682,186.9992l-0.00347,-0.00165l0.17198,-0.17232zM242.82625,186.64959l-0.00233,-0.00498l0.22434,-0.09278zM242.98299,183.06081h0.24305v0.2419h-0.24305zM241.85134,183.54626h-0.24306v-0.24356h0.24306zM241.85134,182.20422h1.13165v0.48546h-1.13165zM242.73991,182.44776v-1.42491h0.48614v1.42491zM242.98299,180.78095h0.85726v0.4838h-0.85726zM244.08331,181.02285v1.42491h-0.48613v-1.42491zM243.84025,182.20422h1.52334v0.48546h-1.52334zM245.60664,182.44776v0.85494h-0.48614v-0.85494zM245.36357,183.54626h-1.52333v-0.48546h1.52333zM244.08331,183.30271v2.91445h-0.48613v-2.91445zM243.84025,185.97525h1.52334v0.48381h-1.52334zM245.60664,186.21716v0.85494h-0.48614v-0.85494zM245.36357,187.31567h-1.52333v-0.48546h1.52333zM243.84025,187.31567c-0.14729,0 -0.28946,-0.02817 -0.42415,-0.08451l0.18689,-0.44735c0.07406,0.02982 0.1526,0.04639 0.23727,0.04639zM243.41079,187.22951c-0.12891,-0.05799 -0.24439,-0.13421 -0.34397,-0.23031l0.33718,-0.34795c0.057,0.05468 0.12443,0.09941 0.20429,0.13421zM243.06333,186.99755c-0.10008,-0.10107 -0.17894,-0.21706 -0.2371,-0.34795l0.44404,-0.19551c0.0348,0.07621 0.08053,0.1425 0.13702,0.20049zM242.82392,186.64463c-0.05667,-0.1342 -0.08401,-0.27835 -0.08401,-0.42747h0.48614c0,0.08781 0.01607,0.16901 0.04655,0.2419zM242.73991,186.21716v-2.91445h0.48614v2.91445zM242.98299,183.54626h-1.13166v-0.48546h1.13166zM241.60827,183.30271v-0.85494h0.48628v0.85494zM247.51801,182.20422h0.24306v0.24355h-0.24306zM247.76108,187.07209v0.24356h-0.24306v-0.24356zM246.66074,187.31567h-0.24306v-0.24356h0.24306zM246.41769,182.44776v-0.24355h0.24306v0.24355zM246.37394,180.66663v-0.2419h0.24323v0.2419zM247.56158,180.42472h0.24307v0.2419h-0.24307zM247.80465,181.55637v0.24356h-0.24307v-0.24356zM246.61717,181.79993h-0.24323v-0.24356h0.24323zM247.76108,182.44776v4.62434h-0.48612v-4.62434zM247.51801,187.31567h-0.85727v-0.48546h0.85727zM246.41769,187.07209v-4.62434h0.48612v4.62434zM246.66074,182.20422h0.85727v0.48546h-0.85727zM246.61717,180.42472h0.94442v0.48546h-0.94442zM247.80465,180.66663v0.88974h-0.48613v-0.88974zM247.56158,181.79993h-0.94442v-0.48547h0.94442zM246.37394,181.55637v-0.88974h0.4863v0.88974zM250.13372,187.31567h-0.16453l-0.06114,-0.15244l0.22567,-0.09113zM248.054,182.53724l-0.13337,-0.33302h0.35921v0.24355zM249.17191,182.20422h0.16617l0.06031,0.15408l-0.22649,0.08948zM250.80409,186.13597l-0.22682,0.57991l-0.22617,-0.58156l0.22666,-0.08616zM251.76044,182.35829l0.06163,-0.15409h0.16535v0.24356zM252.88032,182.20422h0.35821l-0.13304,0.33302l-0.22517,-0.08947zM251.2516,187.16323l-0.06146,0.15243h-0.1642v-0.24356zM249.90805,187.16323l-1.85405,-4.626l0.4515,-0.18061l1.85387,4.626zM248.27984,182.20422h0.89207v0.48546h-0.89207zM249.3984,182.35829l1.4057,3.60204l-0.45299,0.17398l-1.40569,-3.59873zM250.3511,185.95867l1.40934,-3.60039l0.45382,0.17729l-1.41017,3.60039zM251.98743,182.20422h0.89289v0.48546h-0.89289zM253.10549,182.53724l-1.85387,4.626l-0.4515,-0.18059l1.85338,-4.626zM251.02595,187.31567h-0.89222v-0.48546h0.89222zM254.49925,182.20422h0.24307v0.24355h-0.24307zM254.74232,187.07209v0.24356h-0.24307v-0.24356zM253.64199,187.31567h-0.24307v-0.24356h0.24307zM253.39892,182.44776v-0.24355h0.24307v0.24355zM253.35518,180.66663v-0.2419h0.24307v0.2419zM254.543,180.42472h0.24306v0.2419h-0.24306zM254.78606,181.55637v0.24356h-0.24306v-0.24356zM253.59825,181.79993h-0.24307v-0.24356h0.24307zM254.74232,182.44776v4.62434h-0.48614v-4.62434zM254.49925,187.31567h-0.85726v-0.48546h0.85726zM253.39892,187.07209v-4.62434h0.48613v4.62434zM253.64199,182.20422h0.85726v0.48546h-0.85726zM253.59825,180.42472h0.94474v0.48546h-0.94474zM254.78606,180.66663v0.88974h-0.48613v-0.88974zM254.543,181.79993h-0.94474v-0.48547h0.94474zM253.35518,181.55637v-0.88974h0.48613v0.88974zM255.28295,182.44776v-0.24355h0.24356v0.24355zM256.90005,182.44776v0.2419h-0.24191v-0.2419zM256.41459,181.02285v-0.2419h0.24356v0.2419zM257.51477,180.78095h0.24355v0.2419h-0.24355zM257.51477,182.68967h-0.24356v-0.2419h0.24356zM259.03909,182.20422h0.2419v0.24355h-0.2419zM259.28099,183.30271v0.24356h-0.2419v-0.24356zM257.27121,183.30271v-0.2419h0.24356v0.2419zM257.51477,186.45907h-0.24356v-0.2419h0.24356zM259.03909,185.97525h0.2419v0.2419h-0.2419zM259.28099,187.07209v0.24356h-0.2419v-0.24356zM257.0906,187.23116l-0.00496,-0.00165l0.09941,-0.22203zM256.74266,186.9992l-0.00332,-0.00165l0.17066,-0.17232zM256.50074,186.64959l-0.00165,-0.00498l0.22367,-0.09278zM256.65815,183.06081h0.24191v0.2419h-0.24191zM255.52652,183.54626h-0.24356v-0.24356h0.24356zM255.52652,182.20422h1.13164v0.48546h-1.13164zM256.41459,182.44776v-1.42491h0.48546v1.42491zM256.65815,180.78095h0.85662v0.4838h-0.85662zM257.75832,181.02285v1.42491h-0.48712v-1.42491zM257.51477,182.20422h1.52432v0.48546h-1.52432zM259.28099,182.44776v0.85494h-0.48546v-0.85494zM259.03909,183.54626h-1.52432v-0.48546h1.52432zM257.75832,183.30271v2.91445h-0.48712v-2.91445zM257.51477,185.97525h1.52432v0.48381h-1.52432zM259.28099,186.21716v0.85494h-0.48546v-0.85494zM259.03909,187.31567h-1.52432v-0.48546h1.52432zM257.51477,187.31567c-0.14747,0 -0.28996,-0.02817 -0.42416,-0.08451l0.18723,-0.44735c0.07291,0.02982 0.15242,0.04639 0.23694,0.04639zM257.08564,187.22951c-0.12923,-0.05799 -0.24522,-0.13421 -0.34298,-0.23031l0.33635,-0.34795c0.05634,0.05468 0.12427,0.09941 0.2038,0.13421zM256.73934,186.99755c-0.10107,-0.10107 -0.18061,-0.21706 -0.23859,-0.34795l0.44404,-0.19551c0.0348,0.07621 0.08119,0.1425 0.13752,0.20049zM256.4991,186.64463c-0.05634,-0.1342 -0.0845,-0.27835 -0.0845,-0.42747h0.48546c0,0.08781 0.01656,0.16901 0.04804,0.2419zM256.41459,186.21716v-2.91445h0.48546v2.91445zM256.65815,183.54626h-1.13164v-0.48546h1.13164zM255.28295,183.30271v-0.85494h0.48713v0.85494zM260.60483,189.18297h-0.36782l0.14414,-0.33801l0.22368,0.0961zM261.79778,186.56012l0.04307,0.09445l-0.04142,0.09609l-0.22367,-0.09444zM259.53283,182.54221l-0.14581,-0.33799h0.36949v0.24355zM260.65786,182.20422h0.15906l0.06462,0.14746l-0.22368,0.0961zM262.23353,185.72505l-0.22368,0.52689l-0.22367,-0.52689l0.22367,-0.09444zM263.13983,182.35166l0.06296,-0.14747h0.16238v0.24356zM264.26487,182.20422h0.37115l-0.14747,0.33799l-0.22367,-0.09444zM261.6818,189.0355l-0.06296,0.14747h-0.16071v-0.24191zM260.38114,188.84494l0.97093,-2.28482l0.44735,0.19053l-0.97093,2.28317zM261.35209,186.75067l-1.81925,-4.20846l0.44735,-0.1922l1.8176,4.21012zM259.7565,182.20422h0.90134v0.48546h-0.90134zM260.88154,182.35166l1.35201,3.18451l-0.44735,0.18888l-1.35201,-3.18285zM261.78618,185.53617l1.35366,-3.18451l0.44902,0.19055l-1.35533,3.18285zM263.36519,182.20422h0.89968v0.48546h-0.89968zM264.48854,182.54221l-2.80674,6.4933l-0.4457,-0.19221l2.80675,-6.49329zM261.45813,189.18297h-0.8533v-0.48548h0.8533z"/></g></g></g></svg>