<svg version="1.1" xmlns="http://www.w3.org/2000/svg" xmlns:xlink="http://www.w3.org/1999/xlink" width="198" height="20.00001" viewBox="0,0,198,20.00001"><g transform="translate(-141,-169.99999)"><g data-paper-data="{&quot;isPaintingLayer&quot;:true}" fill-rule="nonzero" stroke="none" stroke-width="1" stroke-linecap="butt" stroke-linejoin="miter" stroke-miterlimit="10" stroke-dasharray="" stroke-dashoffset="0" style="mix-blend-mode: normal"><path d="M145,190.00001c-2.20914,0 -4,-1.522 -4,-3.66328c0,-4.1018 0,-10.47599 0,-12.77704c0,-1.66192 1.79086,-3.55969 4,-3.55969h190c2.20914,0 4,1.50797 4,2.86275c0,2.31898 0,9.78088 0,14.05474c0,1.83515 -1.79086,3.0825 -4,3.0825z" fill="#76f057"/><path d="M196.96015,180.7236c-0.164,0 -0.3203,-0.0312 -0.4687,-0.0937c-0.1445,-0.0664 -0.2715,-0.1524 -0.3809,-0.2578c-0.1094,-0.10939 -0.1953,-0.23635 -0.2578,-0.38088c-0.0625,-0.14844 -0.0937,-0.30469 -0.0937,-0.46875v-2.40234c0,-0.16406 0.0312,-0.31836 0.0937,-0.46289c0.0625,-0.14844 0.1484,-0.27539 0.2578,-0.38086c0.1094,-0.10938 0.2364,-0.19531 0.3809,-0.25781c0.1484,-0.06641 0.3047,-0.09961 0.4687,-0.09961h4.0782c0.164,0 0.3183,0.0332 0.4628,0.09961c0.1485,0.0625 0.2774,0.14843 0.3868,0.25781c0.1093,0.10547 0.1953,0.23242 0.2578,0.38086c0.0625,0.14453 0.0937,0.29883 0.0937,0.46289v1.08398h-1.2011v-1.08398h-4.0782v2.40234h4.0782c0.164,0 0.3183,0.03125 0.4628,0.09375c0.1485,0.0625 0.2774,0.14844 0.3868,0.25781c0.1093,0.10938 0.1953,0.23829 0.2578,0.38672c0.0625,0.14455 0.0937,0.29885 0.0937,0.46285v2.3965c0,0.1641 -0.0312,0.3203 -0.0937,0.4688c-0.0625,0.1445 -0.1485,0.2715 -0.2578,0.3808c-0.1094,0.1094 -0.2383,0.1954 -0.3868,0.2578c-0.1445,0.0626 -0.2988,0.0938 -0.4628,0.0938h-4.1954c-0.164,0 -0.3203,-0.0312 -0.4687,-0.0938c-0.1445,-0.0624 -0.2715,-0.1484 -0.3809,-0.2578c-0.1093,-0.1093 -0.1953,-0.2363 -0.2578,-0.3808c-0.0625,-0.1485 -0.0937,-0.3047 -0.0937,-0.4688v-1.0781h1.2011v1.0781h4.1954v-2.3965zM203.92695,178.08107h1.5235v-1.92188h1.1543v1.92188h2.0507v1.15429h-2.0507v3.93164h2.0507v1.1543h-2.0507c-0.1563,0 -0.3047,-0.0293 -0.4454,-0.0879c-0.1406,-0.0625 -0.2636,-0.1445 -0.3691,-0.2461c-0.1055,-0.1055 -0.1894,-0.2285 -0.2519,-0.3691c-0.0586,-0.1407 -0.0879,-0.291 -0.0879,-0.4512v-3.93164h-1.5235zM210.58325,181.5967c0,-0.1602 0.0293,-0.3086 0.0879,-0.4453c0.0625,-0.1406 0.1445,-0.2637 0.2461,-0.3692c0.1054,-0.1054 0.2285,-0.1875 0.3691,-0.2461c0.1406,-0.0625 0.2891,-0.0937 0.4453,-0.0937h2.9766v-1.20704h-3.7676v-1.15429h3.7676c0.1601,0 0.3105,0.03125 0.4511,0.09375c0.1407,0.05859 0.2618,0.14062 0.3633,0.24609c0.1055,0.10156 0.1875,0.22266 0.2461,0.36328c0.0625,0.14063 0.0938,0.29102 0.0938,0.45117v5.08594h-1.1543v-1.0547c-0.0117,0.1445 -0.0508,0.2813 -0.1172,0.4102c-0.0664,0.1289 -0.1524,0.2422 -0.2578,0.3398c-0.1016,0.0938 -0.2188,0.168 -0.3516,0.2227c-0.1328,0.0547 -0.2734,0.082 -0.4219,0.082h-1.8281c-0.1562,0 -0.3047,-0.0293 -0.4453,-0.0879c-0.1406,-0.0625 -0.2637,-0.1445 -0.3691,-0.2461c-0.1016,-0.1055 -0.1836,-0.2285 -0.2461,-0.3691c-0.0586,-0.1407 -0.0879,-0.291 -0.0879,-0.4512zM211.73165,183.167h2.9766v-1.5703h-2.9766zM218.93865,179.23536v5.08594h-1.1484v-6.24023h1.1484v1.10156c0.0079,-0.15235 0.043,-0.29492 0.1055,-0.42774c0.0625,-0.13671 0.1445,-0.2539 0.2461,-0.35156c0.1055,-0.10156 0.2266,-0.17969 0.3633,-0.23437c0.1367,-0.0586 0.2832,-0.08789 0.4394,-0.08789h1.2247c0.1601,0 0.3085,0.03125 0.4453,0.09375c0.1406,0.05859 0.2636,0.14062 0.3691,0.24609c0.1055,0.10156 0.1875,0.22266 0.2461,0.36328c0.0625,0.14063 0.0938,0.29102 0.0938,0.45117v1.05469h-1.1543v-1.05469zM223.54415,178.08107h1.5235v-1.92188h1.1543v1.92188h2.0507v1.15429h-2.0507v3.93164h2.0507v1.1543h-2.0507c-0.1563,0 -0.3047,-0.0293 -0.4454,-0.0879c-0.1406,-0.0625 -0.2636,-0.1445 -0.3691,-0.2461c-0.1055,-0.1055 -0.1895,-0.2285 -0.252,-0.3691c-0.0585,-0.1407 -0.0878,-0.291 -0.0878,-0.4512v-3.93164h-1.5235zM235.59695,184.3213l-2.4024,-8.40234h1.2012l1.8634,6.68554l1.857,-6.68554h1.201l1.858,6.68554l1.863,-6.68554h1.201l-2.402,8.40234h-1.318l-1.799,-6.29883l-1.805,6.29883zM250.59715,183.167c0,0.1602 -0.032,0.3105 -0.094,0.4512c-0.059,0.1406 -0.141,0.2636 -0.246,0.3691c-0.102,0.1016 -0.223,0.1836 -0.363,0.2461c-0.137,0.0586 -0.286,0.0879 -0.446,0.0879h-3.099c-0.157,0 -0.305,-0.0293 -0.446,-0.0879c-0.14,-0.0625 -0.263,-0.1445 -0.369,-0.2461c-0.101,-0.1055 -0.183,-0.2285 -0.246,-0.3691c-0.058,-0.1407 -0.088,-0.291 -0.088,-0.4512v-3.93164c0,-0.16015 0.03,-0.31054 0.088,-0.45117c0.063,-0.14062 0.145,-0.26172 0.246,-0.36328c0.106,-0.10547 0.229,-0.1875 0.369,-0.24609c0.141,-0.0625 0.289,-0.09375 0.446,-0.09375h3.099c0.16,0 0.309,0.03125 0.446,0.09375c0.14,0.05859 0.261,0.14062 0.363,0.24609c0.105,0.10156 0.187,0.22266 0.246,0.36328c0.062,0.14063 0.094,0.29102 0.094,0.45117zM246.34915,179.23536v3.93164h3.099v-3.93164zM253.67315,179.23536v5.08594h-1.149v-6.24023h1.149v1.10156c0.008,-0.15235 0.043,-0.29492 0.105,-0.42774c0.063,-0.13671 0.145,-0.2539 0.246,-0.35156c0.106,-0.10156 0.227,-0.17969 0.364,-0.23437c0.136,-0.0586 0.283,-0.08789 0.439,-0.08789h1.225c0.16,0 0.308,0.03125 0.445,0.09375c0.141,0.05859 0.264,0.14062 0.369,0.24609c0.106,0.10156 0.188,0.22266 0.246,0.36328c0.063,0.14063 0.094,0.29102 0.094,0.45117v1.05469h-1.154v-1.05469zM262.76715,184.3213l-2.977,-2.666v2.666h-1.148v-8.64258h1.148v4.86328l2.736,-2.46093h1.623l-3.351,3.01173l3.592,3.2285zM270.62415,183.167c0,0.1602 -0.031,0.3105 -0.094,0.4512c-0.058,0.1406 -0.14,0.2636 -0.246,0.3691c-0.101,0.1016 -0.222,0.1836 -0.363,0.2461c-0.137,0.0586 -0.285,0.0879 -0.445,0.0879h-3.1c-0.156,0 -0.305,-0.0293 -0.445,-0.0879c-0.141,-0.0625 -0.264,-0.1445 -0.369,-0.2461c-0.102,-0.1055 -0.184,-0.2285 -0.247,-0.3691c-0.058,-0.1407 -0.087,-0.291 -0.087,-0.4512v-3.93164c0,-0.16015 0.029,-0.31054 0.087,-0.45117c0.063,-0.14062 0.145,-0.26172 0.247,-0.36328c0.105,-0.10547 0.228,-0.1875 0.369,-0.24609c0.14,-0.0625 0.289,-0.09375 0.445,-0.09375h3.1c0.16,0 0.308,0.03125 0.445,0.09375c0.141,0.05859 0.262,0.14062 0.363,0.24609c0.106,0.10156 0.188,0.22266 0.246,0.36328c0.063,0.14063 0.094,0.29102 0.094,0.45117zM266.37615,179.23536v3.93164h3.1v-3.93164zM272.55215,178.08107h1.148v5.08593h3.217v-5.08593h1.154v6.24023h-1.154v-1.0547c-0.012,0.1445 -0.051,0.2813 -0.117,0.4102c-0.067,0.1289 -0.152,0.2422 -0.258,0.3398c-0.101,0.0938 -0.219,0.168 -0.351,0.2227c-0.133,0.0547 -0.274,0.082 -0.422,0.082h-2.069c-0.156,0 -0.304,-0.0293 -0.445,-0.0879c-0.141,-0.0625 -0.264,-0.1445 -0.369,-0.2461c-0.102,-0.1055 -0.184,-0.2285 -0.246,-0.3691c-0.059,-0.1407 -0.088,-0.291 -0.088,-0.4512zM279.63015,178.08107h1.523v-1.92188h1.155v1.92188h2.05v1.15429h-2.05v3.93164h2.05v1.1543h-2.05c-0.157,0 -0.305,-0.0293 -0.446,-0.0879c-0.14,-0.0625 -0.263,-0.1445 -0.369,-0.2461c-0.105,-0.1055 -0.189,-0.2285 -0.252,-0.3691c-0.058,-0.1407 -0.088,-0.291 -0.088,-0.4512v-3.93164h-1.523z" fill="#000000"/></g></g></svg>