<svg version="1.1" xmlns="http://www.w3.org/2000/svg" xmlns:xlink="http://www.w3.org/1999/xlink" width="190.22008" height="25.49296" viewBox="0,0,190.22008,25.49296"><g transform="translate(-241.27801,-167.25352)"><g data-paper-data="{&quot;isPaintingLayer&quot;:true}" fill="#83a837" fill-rule="nonzero" stroke="none" stroke-width="1" stroke-linecap="butt" stroke-linejoin="miter" stroke-miterlimit="10" stroke-dasharray="" stroke-dashoffset="0" style="mix-blend-mode: normal"><path d="M256.55791,174.25581c0,2.73556 -1.15081,4.2947 -3.4524,4.67751l3.64113,7.93119h-3.0616l-3.58728,-7.83321h-6.05506v7.83321h-2.76469v-19.61099h10.58647c3.1288,0 4.69344,1.59184 4.69344,4.77557zM244.04273,176.22577h7.67357c0.73697,0 1.26772,-0.16336 1.59132,-0.49015c0.32362,-0.33144 0.48565,-0.86825 0.48565,-1.61517v-1.95595c0,-0.74692 -0.16205,-1.28375 -0.48565,-1.61519c-0.32362,-0.32679 -0.85434,-0.49015 -1.59132,-0.49015h-7.67357zM273.06466,180.95928h-9.50748v3.21171h9.50748v2.69352h-9.50748c-0.35997,0 -0.70152,-0.06537 -1.02514,-0.2054c-0.32362,-0.14473 -0.60671,-0.33612 -0.84976,-0.57419c-0.23339,-0.24274 -0.42257,-0.53219 -0.56618,-0.85897c-0.13488,-0.33144 -0.20255,-0.68154 -0.20255,-1.055v-9.17761c0,-0.37346 0.06768,-0.72358 0.20255,-1.05038c0.14363,-0.33144 0.33281,-0.61153 0.56618,-0.84962c0.24304,-0.24742 0.52614,-0.43881 0.84976,-0.57419c0.32362,-0.14473 0.66517,-0.21939 1.02514,-0.21939h6.85051c0.36872,0 0.71488,0.07471 1.03847,0.21939c0.32362,0.13538 0.60257,0.32678 0.83641,0.57419c0.24258,0.23809 0.43131,0.51819 0.5662,0.84962c0.14407,0.32679 0.21588,0.6769 0.21588,1.05038zM263.55704,174.9934v3.27238h6.85051v-3.27238zM290.20516,184.171c0,0.37346 -0.07181,0.72358 -0.2159,1.05502c-0.13486,0.32679 -0.3236,0.61617 -0.5662,0.85895c-0.23385,0.23809 -0.51233,0.42948 -0.83594,0.57421c-0.32408,0.14003 -0.66977,0.2054 -1.03849,0.2054h-7.4038v5.8819h-2.64318v-20.44661h2.64318v2.46479c0.0267,-0.35011 0.11691,-0.66756 0.26975,-0.96166c0.15282,-0.29874 0.34616,-0.56017 0.57955,-0.77961c0.23385,-0.22409 0.5036,-0.40145 0.80924,-0.53219c0.31485,-0.12604 0.64766,-0.19139 0.99797,-0.19139h4.74729c0.36872,0 0.71441,0.07471 1.03849,0.2194c0.3236,0.13538 0.60209,0.32678 0.83594,0.57419c0.2426,0.23809 0.43133,0.51819 0.5662,0.84962c0.14409,0.32679 0.2159,0.6769 0.2159,1.05038zM287.54859,184.171v-9.17761h-7.40382v9.17761zM303.30002,184.171v-3.37507h-6.29766c-0.36872,0 -0.71488,-0.07001 -1.03847,-0.2054c-0.3236,-0.14937 -0.60671,-0.34078 -0.84976,-0.57421c-0.23385,-0.24742 -0.42257,-0.53682 -0.56618,-0.86361c-0.13486,-0.32679 -0.20255,-0.68154 -0.20255,-1.05502v-3.10432c0,-0.37346 0.06766,-0.72358 0.20255,-1.05038c0.14363,-0.33144 0.33234,-0.61153 0.56618,-0.84962c0.24304,-0.24742 0.52616,-0.43881 0.84976,-0.57419c0.3236,-0.14473 0.66975,-0.2194 1.03847,-0.2194h8.40179v2.69352h-8.40179v3.10432h6.29766c0.36872,0 0.71027,0.07471 1.02512,0.21939c0.3236,0.14003 0.6067,0.33142 0.84976,0.57419c0.2426,0.23809 0.43133,0.52283 0.5662,0.84962c0.14409,0.32679 0.2159,0.6769 0.2159,1.05502v3.37509c0,0.37346 -0.07181,0.72356 -0.2159,1.055c-0.13486,0.32679 -0.3236,0.61619 -0.5662,0.85897c-0.24304,0.23809 -0.52614,0.42946 -0.84976,0.57419c-0.31487,0.14003 -0.6564,0.2054 -1.02512,0.2054h-8.95464v-2.69352zM318.66081,186.86453v-19.61099h10.58647c3.1288,0 4.69298,1.59184 4.69298,4.77557v2.78689c0,3.18368 -1.56417,4.77557 -4.69298,4.77557h-7.82224v7.27302zM321.42518,176.78597h7.67357c0.73744,0 1.26772,-0.16336 1.59132,-0.49015c0.32408,-0.33144 0.48565,-0.86827 0.48565,-1.61519v-2.51616c0,-0.74692 -0.16157,-1.28375 -0.48565,-1.61519c-0.3236,-0.32679 -0.85388,-0.49015 -1.59132,-0.49015h-7.67357zM349.692,180.95928h-9.50795v3.21171h9.50795v2.69352h-9.50795c-0.35951,0 -0.70106,-0.06537 -1.02468,-0.2054c-0.3236,-0.14473 -0.60671,-0.33612 -0.84976,-0.57419c-0.23385,-0.24274 -0.42259,-0.53219 -0.5662,-0.85897c-0.13486,-0.33144 -0.20255,-0.68154 -0.20255,-1.055v-9.17761c0,-0.37346 0.06766,-0.72358 0.20255,-1.05038c0.14363,-0.33144 0.33236,-0.61153 0.5662,-0.84962c0.24304,-0.24742 0.52616,-0.43881 0.84976,-0.57419c0.3236,-0.14473 0.66517,-0.21939 1.02468,-0.21939h6.85097c0.36872,0 0.71488,0.07471 1.03849,0.21939c0.3236,0.13538 0.60255,0.32678 0.83641,0.57419c0.2426,0.23809 0.43133,0.51819 0.5662,0.84962c0.14363,0.32679 0.21588,0.6769 0.21588,1.05038zM340.18419,174.9934v3.27238h6.85095v-3.27238zM356.77234,174.9934v11.87113h-2.64362v-14.56471h2.64362v2.5722c0.01796,-0.35477 0.09849,-0.68621 0.24258,-0.99899c0.14363,-0.31743 0.33282,-0.59286 0.5662,-0.82159c0.24304,-0.23343 0.52154,-0.42012 0.83641,-0.54616c0.31439,-0.13538 0.65182,-0.2054 1.01133,-0.2054h2.81856c0.36872,0 0.71027,0.07471 1.02512,0.2194c0.3236,0.13538 0.6067,0.32678 0.8493,0.57419c0.24304,0.23809 0.4318,0.51819 0.56666,0.84962c0.14363,0.32679 0.21588,0.6769 0.21588,1.05036v2.46479h-2.65697v-2.46479zM379.52271,178.46651c-0.37746,0 -0.73695,-0.07001 -1.07853,-0.21474c-0.33282,-0.15872 -0.62511,-0.35947 -0.87692,-0.60219c-0.25181,-0.25678 -0.44927,-0.55088 -0.59334,-0.89164c-0.14363,-0.34543 -0.21544,-0.70954 -0.21544,-1.09234v-5.60649c0,-0.3828 0.07181,-0.74221 0.21544,-1.083c0.14409,-0.34543 0.34155,-0.63951 0.59334,-0.88694c0.25181,-0.25678 0.5441,-0.45746 0.87692,-0.60221c0.34155,-0.15407 0.70106,-0.23343 1.07853,-0.23343h9.38641c0.37746,0 0.73283,0.07936 1.06519,0.23343c0.34201,0.14473 0.63847,0.34543 0.89028,0.60221c0.25181,0.24742 0.44973,0.54152 0.59334,0.88694c0.14409,0.34076 0.21588,0.70023 0.21588,1.083v2.53016h-2.76469v-2.53016h-9.38641v5.60649h9.38641c0.37746,0 0.73283,0.07471 1.06519,0.2194c0.34201,0.14473 0.63847,0.34541 0.89028,0.60219c0.25181,0.25206 0.44973,0.55552 0.59334,0.90095c0.14409,0.33612 0.21588,0.69553 0.21588,1.07833v5.59714c0,0.3828 -0.07181,0.74692 -0.21588,1.09234c-0.14363,0.33612 -0.34155,0.63486 -0.59334,0.89164c-0.25181,0.25206 -0.54826,0.45282 -0.89028,0.59754c-0.33236,0.14937 -0.68771,0.2194 -1.06519,0.2194h-9.65616c-0.37746,0 -0.73697,-0.07001 -1.07853,-0.2194c-0.33282,-0.14473 -0.62511,-0.34543 -0.8769,-0.59754c-0.25133,-0.25678 -0.44927,-0.55552 -0.59336,-0.89164c-0.14363,-0.34543 -0.21542,-0.70954 -0.21542,-1.09234v-2.51618h2.76423v2.51618h9.65616v-5.59714zM408.54466,180.95928h-9.50748v3.21171h9.50748v2.69352h-9.50748c-0.35951,0 -0.70106,-0.06537 -1.02514,-0.2054c-0.3236,-0.14473 -0.6067,-0.33612 -0.8493,-0.57419c-0.23385,-0.24274 -0.42259,-0.53219 -0.56666,-0.85897c-0.13486,-0.33144 -0.20206,-0.68154 -0.20206,-1.055v-9.17761c0,-0.37346 0.0672,-0.72358 0.20206,-1.05038c0.14409,-0.33144 0.33282,-0.61153 0.56666,-0.84962c0.2426,-0.24742 0.52568,-0.43881 0.8493,-0.57419c0.32408,-0.14473 0.66563,-0.21939 1.02514,-0.21939h6.85097c0.36872,0 0.71488,0.07471 1.03847,0.21939c0.32362,0.13538 0.60211,0.32678 0.83594,0.57419c0.24258,0.23809 0.43178,0.51819 0.56666,0.84962c0.14363,0.32679 0.21544,0.6769 0.21544,1.05038zM399.03721,174.9934v3.27238h6.85097v-3.27238zM412.1458,172.29986h3.50627v-4.48611h2.65651v4.48611h4.72014v2.69352h-4.72014v9.17761h4.72014v2.69352h-4.72014c-0.35951,0 -0.70106,-0.06537 -1.02468,-0.2054c-0.32362,-0.14473 -0.60718,-0.33612 -0.84976,-0.57419c-0.24258,-0.24274 -0.43592,-0.53219 -0.58001,-0.85897c-0.13488,-0.33144 -0.20208,-0.68154 -0.20208,-1.055v-9.17761h-3.50627zM427.46566,182.77522h4.03243v4.08931h-4.03243zM427.46566,172.29986h4.03243v4.08931h-4.03243z"/></g></g></svg>