<svg version="1.1" xmlns="http://www.w3.org/2000/svg" xmlns:xlink="http://www.w3.org/1999/xlink" width="6.51074" height="7.50195" viewBox="0,0,6.51074,7.50195"><g transform="translate(-236.74463,-172.74805)"><g data-paper-data="{&quot;isPaintingLayer&quot;:true}" fill="#ffffff" fill-rule="nonzero" stroke="#ffffff" stroke-width="0.5" stroke-linecap="butt" stroke-linejoin="miter" stroke-miterlimit="10" stroke-dasharray="" stroke-dashoffset="0" style="mix-blend-mode: normal"><path d="M240.5542,178.99902c0.46549,0 0.82357,-0.12532 1.07422,-0.37597c0.25065,-0.25065 0.37597,-0.60873 0.37597,-1.07422v-2.09961c0,-0.22787 -0.03255,-0.43132 -0.09765,-0.61035c-0.06511,-0.17904 -0.16114,-0.33041 -0.28809,-0.4541c-0.1237,-0.12696 -0.27506,-0.22299 -0.4541,-0.28809c-0.17904,-0.0651 -0.38249,-0.09766 -0.61035,-0.09766h-2.5586v5zM236.99463,180v-7.00195h3.55957c0.37435,0 0.71126,0.05859 1.01074,0.17578c0.30273,0.11393 0.5599,0.27832 0.77148,0.49316c0.21485,0.21159 0.37924,0.46875 0.49317,0.77149c0.11719,0.30273 0.17578,0.63964 0.17578,1.01074v2.09961c0,0.37109 -0.05859,0.70801 -0.17578,1.01074c-0.11393,0.30273 -0.27832,0.56152 -0.49317,0.77637c-0.21158,0.21159 -0.46875,0.37597 -0.77148,0.49316c-0.29948,0.11393 -0.63639,0.1709 -1.01074,0.1709z"/></g></g></svg>