<svg version="1.1" xmlns="http://www.w3.org/2000/svg" xmlns:xlink="http://www.w3.org/1999/xlink" width="115.33815" height="24.78714" viewBox="0,0,115.33815,24.78714"><g transform="translate(-182.33092,-167.60643)"><g data-paper-data="{&quot;isPaintingLayer&quot;:true}" fill-rule="nonzero" stroke="none" stroke-width="1" stroke-linecap="butt" stroke-linejoin="miter" stroke-miterlimit="10" stroke-dasharray="" stroke-dashoffset="0" style="mix-blend-mode: normal"><g><path d="M297.66908,170.37078v19.25843c0,1.52663 -1.24056,2.76436 -2.77002,2.76436h-109.79811c-1.52946,0 -2.77002,-1.23773 -2.77002,-2.76436v-19.25843c0,-1.52663 1.24056,-2.76435 2.77002,-2.76435h109.79811c1.52946,0 2.77002,1.23773 2.77002,2.76435z" fill="#ff9e44"/><path d="M193.88826,176.32009h5.42958v0.96724h-2.23046v5.80769h-0.96866v-5.80769h-2.23046zM199.80074,178.06339h0.929v4.10121h2.59866v-4.10121h0.93184v5.03164h-0.93184v-0.85112c-0.00991,0.11613 -0.04107,0.22659 -0.09489,0.33139c-0.05381,0.10338 -0.12321,0.19401 -0.20959,0.27332c-0.08073,0.07505 -0.1756,0.13453 -0.28323,0.17985c-0.10621,0.0439 -0.22092,0.06656 -0.34129,0.06656h-1.66966c-0.12604,0 -0.24641,-0.02407 -0.36112,-0.07081c-0.1133,-0.05098 -0.21243,-0.11612 -0.29739,-0.19968c-0.08356,-0.08356 -0.15011,-0.1841 -0.19967,-0.29739c-0.04674,-0.1133 -0.07081,-0.23509 -0.07081,-0.36254zM206.74136,178.99381v4.10121h-0.92759v-5.03164h0.92759v0.88794c0.00566,-0.12321 0.0354,-0.23933 0.08497,-0.34554c0.04956,-0.11046 0.11613,-0.20392 0.19968,-0.28323c0.08497,-0.08073 0.18268,-0.14445 0.29173,-0.18835c0.11188,-0.04815 0.23084,-0.07081 0.35688,-0.07081h0.98848c0.13028,0 0.24925,0.02408 0.3597,0.07506c0.11471,0.04815 0.21384,0.1133 0.29881,0.19826c0.08497,0.08214 0.15153,0.17985 0.19826,0.29315c0.05098,0.1133 0.07648,0.23509 0.07648,0.36396v0.85111h-0.93325v-0.85111zM215.2157,183.09503h-0.93325v-4.10121h-2.59866v4.10121h-0.92759v-5.03164h0.92759v0.88794c0.00566,-0.12321 0.03541,-0.23933 0.08497,-0.34554c0.05098,-0.11046 0.11754,-0.20392 0.19968,-0.28323c0.08356,-0.08073 0.18269,-0.14445 0.29314,-0.18835c0.11046,-0.04815 0.228,-0.07081 0.35404,-0.07081h1.66683c0.13028,0 0.25066,0.02408 0.36537,0.07506c0.11471,0.04815 0.21101,0.1133 0.29314,0.19826c0.08497,0.08214 0.15153,0.17985 0.19968,0.29315c0.04956,0.1133 0.07505,0.23509 0.07505,0.36396zM225.58769,182.12496c0,0.13312 -0.02549,0.25916 -0.07505,0.37953c-0.05098,0.11613 -0.12038,0.21809 -0.20818,0.30589c-0.0878,0.08922 -0.1926,0.15861 -0.31155,0.20817c-0.11896,0.05098 -0.24358,0.07648 -0.37529,0.07648h-3.87746c-0.1317,0 -0.25774,-0.02549 -0.37811,-0.07648c-0.11613,-0.04956 -0.2195,-0.11896 -0.30731,-0.20817c-0.08922,-0.0878 -0.15861,-0.18976 -0.2096,-0.30589c-0.04956,-0.12037 -0.07505,-0.24641 -0.07505,-0.37953v-4.83762c0,-0.13171 0.02549,-0.25491 0.07505,-0.37245c0.05098,-0.11896 0.12038,-0.22234 0.2096,-0.30731c0.0878,-0.08922 0.19118,-0.15719 0.30731,-0.20676c0.12037,-0.05523 0.24641,-0.08073 0.37811,-0.08073h3.87746c0.13171,0 0.25633,0.02549 0.37529,0.08073c0.11896,0.04956 0.22375,0.11754 0.31155,0.20676c0.0878,0.08497 0.1572,0.18835 0.20818,0.30731c0.04956,0.11754 0.07505,0.24075 0.07505,0.37245zM220.74016,177.28733v4.83762h3.87746v-4.83762zM229.1097,177.05649v1.00689h1.65833v0.93043h-1.65833v4.10121h-0.93184v-4.10121h-1.23065v-0.93043h1.23065v-1.00689c0,-0.13028 0.02407,-0.24925 0.07081,-0.35971c0.05098,-0.1133 0.11896,-0.21242 0.20392,-0.29598c0.08497,-0.08639 0.18552,-0.15294 0.29882,-0.19968c0.1133,-0.04956 0.23225,-0.07505 0.35829,-0.07505h1.65833v0.93042zM233.90057,177.05649v1.00689h1.65833v0.93043h-1.65833v4.10121h-0.93184v-4.10121h-1.23065v-0.93043h1.23065v-1.00689c0,-0.13028 0.02407,-0.24925 0.07081,-0.35971c0.05098,-0.1133 0.11896,-0.21242 0.20392,-0.29598c0.08639,-0.08639 0.18552,-0.15294 0.29881,-0.19968c0.1133,-0.04956 0.23225,-0.07505 0.35829,-0.07505h1.65833v0.93042zM243.2756,182.12496c0.45176,0 0.7973,-0.12037 1.0423,-0.36254c0.24217,-0.24217 0.36396,-0.58913 0.36396,-1.03946v-2.03078c0,-0.22093 -0.03257,-0.41777 -0.09489,-0.59195c-0.06373,-0.17277 -0.15578,-0.31864 -0.27898,-0.43901c-0.12037,-0.12179 -0.26624,-0.21668 -0.44043,-0.27757c-0.17419,-0.06373 -0.37104,-0.0963 -0.59195,-0.0963h-2.48113v4.83762zM239.82439,183.09503v-6.77493h3.45119c0.36254,0 0.68967,0.05665 0.97999,0.16994c0.29314,0.11046 0.54239,0.26907 0.74915,0.47725c0.20676,0.20392 0.36679,0.45317 0.47725,0.74631c0.1133,0.29314 0.16994,0.61886 0.16994,0.97857v2.03078c0,0.35829 -0.05665,0.68542 -0.16994,0.97857c-0.11046,0.29314 -0.27049,0.54239 -0.47725,0.75056c-0.20676,0.20392 -0.456,0.36254 -0.74915,0.47583c-0.29032,0.11188 -0.61745,0.1671 -0.97999,0.1671zM248.0948,178.06339v5.03164h-0.93184v-5.03164zM247.11481,176.12607h1.02813v0.96866h-1.02813zM250.62833,178.99381v3.17079h2.40465v-0.85111h0.93325v0.85111c0,0.12746 -0.02549,0.24925 -0.07648,0.36254c-0.04674,0.1133 -0.1133,0.21384 -0.19968,0.29739c-0.08214,0.08356 -0.17844,0.1487 -0.29173,0.19968c-0.1133,0.04674 -0.23509,0.07081 -0.36537,0.07081h-2.40465c-0.12604,0 -0.24641,-0.02407 -0.36113,-0.07081c-0.1133,-0.05098 -0.21243,-0.11612 -0.29739,-0.19968c-0.08214,-0.08356 -0.14869,-0.1841 -0.19967,-0.29739c-0.04674,-0.1133 -0.07081,-0.23509 -0.07081,-0.36254v-3.17079c0,-0.12887 0.02407,-0.25066 0.07081,-0.36396c0.05098,-0.1133 0.11754,-0.21101 0.19967,-0.29315c0.08497,-0.08497 0.1841,-0.15011 0.29739,-0.19826c0.11471,-0.05098 0.23509,-0.07506 0.36113,-0.07506h2.40465c0.13028,0 0.25207,0.02408 0.36537,0.07506c0.1133,0.04815 0.20959,0.1133 0.29173,0.19826c0.08639,0.08214 0.15294,0.17985 0.19968,0.29315c0.05098,0.1133 0.07648,0.23509 0.07648,0.36396v0.85111h-0.93325v-0.85111zM255.22944,178.06339h1.23065v-1.54928h0.93325v1.54928h1.65691v0.93043h-1.65691v3.17079h1.65691v0.93043h-1.65691c-0.12604,0 -0.24641,-0.02407 -0.35971,-0.07081c-0.1133,-0.05098 -0.21243,-0.11612 -0.29881,-0.19968c-0.08497,-0.08356 -0.15295,-0.1841 -0.20393,-0.29739c-0.04674,-0.1133 -0.07081,-0.23509 -0.07081,-0.36254v-3.17079h-1.23065zM260.60803,180.89856c0,-0.13028 0.02265,-0.24925 0.07081,-0.35971c0.05098,-0.1133 0.11754,-0.21243 0.19826,-0.2974c0.08497,-0.08639 0.1841,-0.15153 0.29881,-0.19967c0.1133,-0.04956 0.23367,-0.07505 0.35971,-0.07505h2.40465v-0.97291h-3.04334v-0.93043h3.04334c0.13028,0 0.25208,0.02408 0.36537,0.07506c0.1133,0.04815 0.21101,0.1133 0.29173,0.19826c0.08639,0.08214 0.15294,0.17985 0.19967,0.29315c0.0524,0.1133 0.07648,0.23509 0.07648,0.36396v4.10121h-0.93325v-0.85112c-0.00849,0.11613 -0.03965,0.22659 -0.09489,0.33139c-0.05381,0.10338 -0.1232,0.19401 -0.20676,0.27332c-0.08356,0.07505 -0.17844,0.13453 -0.28465,0.17985c-0.10763,0.0439 -0.22092,0.06656 -0.34129,0.06656h-1.47707c-0.12604,0 -0.24641,-0.02407 -0.35971,-0.07081c-0.11471,-0.05098 -0.21384,-0.11612 -0.29881,-0.19968c-0.08073,-0.08356 -0.14728,-0.1841 -0.19826,-0.29739c-0.04815,-0.1133 -0.07081,-0.23509 -0.07081,-0.36254zM261.53563,182.16461h2.40465v-1.26605h-2.40465zM266.13675,178.06339h1.23206v-1.54928h0.93184v1.54928h1.65833v0.93043h-1.65833v3.17079h1.65833v0.93043h-1.65833c-0.12604,0 -0.245,-0.02407 -0.35829,-0.07081c-0.11471,-0.05098 -0.21384,-0.11612 -0.30023,-0.19968c-0.08356,-0.08356 -0.15153,-0.1841 -0.20393,-0.29739c-0.04674,-0.1133 -0.06939,-0.23509 -0.06939,-0.36254v-3.17079h-1.23206zM272.49532,178.06339v5.03164h-0.93326v-5.03164zM271.51535,176.12607h1.02814v0.96866h-1.02814zM278.46021,182.16461c0,0.12746 -0.02549,0.24925 -0.07505,0.36254c-0.04815,0.1133 -0.1133,0.21384 -0.19968,0.29739c-0.08073,0.08356 -0.17985,0.1487 -0.29314,0.19968c-0.11046,0.04674 -0.22943,0.07081 -0.35971,0.07081h-2.5052c-0.12604,0 -0.245,-0.02407 -0.35829,-0.07081c-0.11471,-0.05098 -0.21384,-0.11612 -0.29881,-0.19968c-0.08214,-0.08356 -0.1487,-0.1841 -0.19826,-0.29739c-0.04815,-0.1133 -0.07223,-0.23509 -0.07223,-0.36254v-3.17079c0,-0.12887 0.02407,-0.25066 0.07223,-0.36396c0.04956,-0.1133 0.11613,-0.21101 0.19826,-0.29315c0.08497,-0.08497 0.1841,-0.15011 0.29881,-0.19826c0.1133,-0.05098 0.23225,-0.07506 0.35829,-0.07506h2.5052c0.13028,0 0.24925,0.02408 0.35971,0.07506c0.1133,0.04815 0.21242,0.1133 0.29314,0.19826c0.08639,0.08214 0.15153,0.17985 0.19968,0.29315c0.04956,0.1133 0.07505,0.23509 0.07505,0.36396zM275.02743,178.99381v3.17079h2.5052v-3.17079zM284.47892,183.09503h-0.93467v-4.10121h-2.59725v4.10121h-0.929v-5.03164h0.929v0.88794c0.00566,-0.12321 0.03399,-0.23933 0.08356,-0.34554c0.05098,-0.11046 0.11754,-0.20392 0.19967,-0.28323c0.08497,-0.08073 0.18269,-0.14445 0.29315,-0.18835c0.11046,-0.04815 0.22942,-0.07081 0.35546,-0.07081h1.66541c0.13028,0 0.25208,0.02408 0.36538,0.07506c0.1133,0.04815 0.21101,0.1133 0.29314,0.19826c0.08639,0.08214 0.15294,0.17985 0.19968,0.29315c0.04956,0.1133 0.07648,0.23509 0.07648,0.36396z" fill="#ffffff"/><path d="M193.68008,176.32009v-0.20676h0.20817v0.20676zM199.31782,176.11334h0.20676v0.20676h-0.20676zM199.52458,177.28733v0.20818h-0.20676v-0.20818zM196.8792,177.28733v-0.20676h0.20817v0.20676zM197.29554,183.09503v0.20676h-0.20817v-0.20676zM196.1173,183.30179h-0.20676v-0.20676h0.20676zM196.1173,177.08057h0.20818v0.20676h-0.20818zM193.88826,177.49552h-0.20817v-0.20818h0.20817zM193.88826,176.11334h5.42958v0.41352h-5.42958zM199.52458,176.32009v0.96724h-0.41494v-0.96724zM199.31782,177.49552h-2.23046v-0.41494h2.23046zM197.29554,177.28733v5.80769h-0.41636v-5.80769zM197.08736,183.30179h-0.97007v-0.41493h0.97007zM195.91054,183.09503v-5.80769h0.41494v5.80769zM196.1173,177.49552h-2.22904v-0.41494h2.22904zM193.68008,177.28733v-0.96724h0.41493v0.96724zM199.59256,178.06339v-0.20817h0.20818v0.20817zM200.72834,177.85522h0.20817v0.20817h-0.20817zM200.72834,182.37137h-0.20676v-0.20676h0.20676zM203.53517,182.16461v0.20676h-0.20817v-0.20676zM203.12023,178.06339v-0.20817h0.20676v0.20817zM204.26024,177.85522h0.20676v0.20817h-0.20676zM204.467,183.09503v0.20676h-0.20676v-0.20676zM203.327,183.30179h-0.20676v-0.20676h0.20676zM203.12164,182.22833l0.41352,0.01558h-0.20817zM200.2879,183.2154l-0.00425,-0.00142l0.08497,-0.18976zM199.92677,182.97466l-0.00708,-0.00567l0.15153,-0.14445zM199.68178,182.61211l-0.00142,-0.00425l0.19118,-0.08073zM199.80074,177.85522h0.92759v0.41494h-0.92759zM200.93651,178.06339v4.10121h-0.41493v-4.10121zM200.72834,181.95643h2.59866v0.41493h-2.59866zM203.12023,182.16461v-4.10121h0.41494v4.10121zM203.327,177.85522h0.93325v0.41494h-0.93325zM204.467,178.06339v5.03164h-0.41494v-5.03164zM204.26024,183.30179h-0.93325v-0.41493h0.93325zM203.12023,183.09503v-0.85112h0.41494v0.85112zM203.53517,182.26091c-0.01274,0.14445 -0.05098,0.2804 -0.11754,0.40927l-0.36963,-0.19118c0.04106,-0.07789 0.06515,-0.16286 0.07364,-0.25066zM203.41763,182.67017c-0.06514,0.12462 -0.1487,0.2365 -0.25208,0.33138l-0.28323,-0.30589c0.06797,-0.06089 0.12321,-0.13312 0.16569,-0.21667zM203.16554,183.00156c-0.10196,0.09347 -0.21667,0.16569 -0.34696,0.21809l-0.1572,-0.38237c0.08497,-0.0354 0.15861,-0.08356 0.22234,-0.14162zM202.8186,183.21965c-0.13312,0.05523 -0.27191,0.08214 -0.41919,0.08214v-0.41493c0.09347,0 0.17985,-0.01699 0.26199,-0.04956zM202.3994,183.30179h-1.67107v-0.41493h1.67107zM200.72834,183.30179c-0.15295,0 -0.30023,-0.02832 -0.44043,-0.08639l0.16144,-0.38378c0.08639,0.03682 0.17985,0.05523 0.27898,0.05523zM200.28366,183.21398c-0.13312,-0.05948 -0.25491,-0.14019 -0.35688,-0.23933l0.2889,-0.29882c0.06656,0.06514 0.14445,0.11755 0.23792,0.15861zM199.92112,182.96899c-0.09914,-0.10196 -0.17985,-0.22234 -0.23933,-0.35688l0.37954,-0.16853c0.04106,0.09205 0.09347,0.17136 0.15861,0.23792zM199.68036,182.60786c-0.05948,-0.14162 -0.0878,-0.2889 -0.0878,-0.44326h0.41636c0,0.10196 0.01841,0.19543 0.05381,0.28323zM199.59256,182.16461v-4.10121h0.41636v4.10121zM206.53319,178.99381v-0.20818h0.20676v0.20818zM206.94812,183.09503v0.20676h-0.20817v-0.20676zM205.81378,183.30179h-0.20817v-0.20676h0.20817zM205.6056,178.06339v-0.20817h0.20817v0.20817zM206.73994,177.85522h0.20817v0.20817h-0.20817zM206.94812,178.96123l-0.41493,-0.00991h0.20676zM207.01469,178.69217v0.00283l-0.18835,-0.08922zM207.4013,178.32397l-0.00566,0.00283l-0.07789,-0.1926zM208.94208,178.32963l-0.00566,-0.00283l0.08639,-0.18835zM209.17717,178.48541l-0.00283,-0.00283l0.14587,-0.14587zM209.33011,178.7134l-0.00283,-0.00283l0.1926,-0.08073zM209.80454,179.84493v0.20676h-0.20818v-0.20676zM208.6631,180.05169h-0.20817v-0.20676h0.20817zM208.6631,178.78563h0.20817v0.20818h-0.20817zM206.94812,178.99381v4.10121h-0.41493v-4.10121zM206.73994,183.30179h-0.92618v-0.41493h0.92618zM205.6056,183.09503v-5.03164h0.41635v5.03164zM205.81378,177.85522h0.92618v0.41494h-0.92618zM206.94812,178.06339v0.88794h-0.41493v-0.88794zM206.5346,178.94142c0.00566,-0.15011 0.04107,-0.29032 0.10339,-0.42343l0.3767,0.17702c-0.03824,0.08073 -0.0609,0.16994 -0.06657,0.26623zM206.63799,178.52081c0.05948,-0.13312 0.14162,-0.24925 0.24358,-0.34696l0.28748,0.29881c-0.06231,0.05948 -0.1133,0.1317 -0.15436,0.2195zM206.88156,178.17385c0.10338,-0.10055 0.22375,-0.17844 0.35971,-0.23225l0.15436,0.38379c-0.08639,0.0354 -0.16144,0.08355 -0.22659,0.14728zM207.2356,177.94301c0.13878,-0.05806 0.28464,-0.0878 0.43759,-0.0878v0.41494c-0.09914,0 -0.18976,0.01841 -0.2719,0.05381zM207.6732,177.85522h0.9899v0.41494h-0.9899zM208.6631,177.85522c0.15719,0 0.30731,0.03115 0.44609,0.09489l-0.17277,0.3767c-0.08073,-0.03682 -0.17135,-0.05665 -0.27332,-0.05665zM209.10352,177.94726c0.13737,0.05806 0.26058,0.13737 0.36396,0.24358l-0.29314,0.29173c-0.06514,-0.06373 -0.14162,-0.11471 -0.23225,-0.15294zM209.46465,178.18802c0.10621,0.10196 0.18976,0.22375 0.24641,0.36112l-0.38378,0.16144c-0.0354,-0.08922 -0.08639,-0.16286 -0.15011,-0.22518zM209.70964,178.54489c0.06231,0.14162 0.09489,0.29173 0.09489,0.44893h-0.41636c0,-0.10196 -0.01983,-0.19401 -0.05806,-0.2804zM209.80454,178.99381v0.85111h-0.41636v-0.85111zM209.59636,180.05169h-0.93325v-0.41494h0.93325zM208.45492,179.84493v-0.85111h0.41635v0.85111zM208.6631,179.20056h-1.92315v-0.41493h1.92315zM215.42387,183.09503v0.20676h-0.20817v-0.20676zM214.28244,183.30179h-0.20818v-0.20676h0.20818zM214.28244,178.78563h0.20817v0.20818h-0.20817zM211.4756,178.99381v-0.20818h0.20817v0.20818zM211.89195,183.09503v0.20676h-0.20818v-0.20676zM210.75619,183.30179h-0.20817v-0.20676h0.20817zM210.54801,178.06339v-0.20817h0.20817v0.20817zM211.68378,177.85522h0.20818v0.20817h-0.20818zM211.89195,178.96123l-0.41636,-0.00991h0.20817zM211.95851,178.69217l-0.00141,0.00283l-0.18835,-0.08922zM212.34371,178.32397l-0.00425,0.00283l-0.07789,-0.1926zM214.56709,178.32963l-0.00425,-0.00142l0.08497,-0.18976zM214.79651,178.48541l-0.00567,-0.00425l0.1487,-0.14445zM214.94946,178.7134l-0.00283,-0.00283l0.1926,-0.08073zM215.2157,183.30179h-0.93325v-0.41493h0.93325zM214.07426,183.09503v-4.10121h0.41636v4.10121zM214.28244,179.20056h-2.59866v-0.41493h2.59866zM211.89195,178.99381v4.10121h-0.41636v-4.10121zM211.68378,183.30179h-0.92759v-0.41493h0.92759zM210.54801,183.09503v-5.03164h0.41493v5.03164zM210.75619,177.85522h0.92759v0.41494h-0.92759zM211.89195,178.06339v0.88794h-0.41636v-0.88794zM211.4756,178.94142c0.00849,-0.15011 0.0439,-0.29032 0.10621,-0.42343l0.37529,0.17702c-0.03965,0.08073 -0.06089,0.16994 -0.06514,0.26623zM211.58041,178.52081c0.06089,-0.13312 0.14021,-0.24925 0.24358,-0.34696l0.28748,0.29881c-0.06231,0.05948 -0.1133,0.1317 -0.15295,0.2195zM211.82398,178.17385c0.10338,-0.10055 0.22517,-0.17844 0.35971,-0.23225l0.15578,0.38379c-0.08639,0.0354 -0.16285,0.08355 -0.228,0.14728zM212.17945,177.94301c0.13737,-0.05806 0.28465,-0.0878 0.43618,-0.0878v0.41494c-0.09914,0 -0.18976,0.01841 -0.2719,0.05381zM212.61561,177.85522h1.66683v0.41494h-1.66683zM214.28244,177.85522c0.15719,0 0.30731,0.03115 0.44893,0.09489l-0.16853,0.37811c-0.08497,-0.03824 -0.17844,-0.05806 -0.2804,-0.05806zM214.72711,177.94726c0.13878,0.05806 0.26057,0.13878 0.36254,0.24641l-0.29881,0.28748c-0.06089,-0.06373 -0.13453,-0.11329 -0.22375,-0.15153zM215.084,178.18802c0.10621,0.10196 0.18976,0.22375 0.24641,0.36112l-0.38378,0.16144c-0.03682,-0.08922 -0.08639,-0.16286 -0.15011,-0.22518zM215.32899,178.54489c0.06231,0.14162 0.09489,0.29173 0.09489,0.44893h-0.41635c0,-0.10196 -0.01983,-0.19401 -0.05806,-0.2804zM215.42387,178.99381v4.10121h-0.41635v-4.10121zM225.70381,182.58379l-0.00142,0.00142l-0.18976,-0.08073zM224.90934,182.82879l0.00283,-0.00142l0.07931,0.19118zM220.28132,183.21116l-0.00283,-0.00142l0.08356,-0.19118zM219.65537,182.5852l-0.00142,-0.00142l0.19118,-0.07931zM220.03773,176.99561l-0.00141,0.00142l-0.19119,-0.08214zM220.20059,176.75343l-0.00283,0.00283l-0.14444,-0.1487zM220.44559,176.58917l-0.00142,0.00142l-0.08214,-0.18976zM224.91217,176.59058l-0.00708,-0.00283l0.08639,-0.18694zM225.16001,176.75627l-0.00283,-0.00283l0.14587,-0.14587zM225.32146,176.99702l-0.00141,-0.00142l0.1926,-0.08073zM220.53198,177.28733v-0.20676h0.20817v0.20676zM220.74016,182.33312h-0.20817v-0.20817h0.20817zM224.82579,182.12496v0.20817h-0.20818v-0.20817zM224.61761,177.08057h0.20818v0.20676h-0.20818zM225.79586,182.12496c0,0.16144 -0.03115,0.31439 -0.09205,0.45884l-0.38378,-0.16003c0.03965,-0.09347 0.05948,-0.1926 0.05948,-0.29881zM225.70239,182.5852c-0.05948,0.14162 -0.14444,0.26624 -0.25207,0.37245l-0.29314,-0.29314c0.06939,-0.06939 0.12462,-0.1487 0.16427,-0.24358zM225.45032,182.95765c-0.10763,0.10763 -0.23366,0.1926 -0.37811,0.2535l-0.16003,-0.38379c0.09488,-0.03965 0.17702,-0.09488 0.245,-0.16285zM225.07362,183.20972c-0.14445,0.06231 -0.29598,0.09205 -0.45601,0.09205v-0.41493c0.10621,0 0.2011,-0.01841 0.29173,-0.05806zM224.61761,183.30179h-3.87746v-0.41493h3.87746zM220.74016,183.30179c-0.16003,0 -0.31297,-0.02974 -0.45884,-0.09063l0.16003,-0.38379c0.09488,0.04106 0.1926,0.05948 0.29881,0.05948zM220.27849,183.20972c-0.1402,-0.06089 -0.26482,-0.14587 -0.37104,-0.25208l0.29314,-0.29314c0.06939,0.06939 0.15011,0.12462 0.24358,0.16427zM219.90745,182.95765c-0.10905,-0.10621 -0.19118,-0.23084 -0.25208,-0.37245l0.38095,-0.16428c0.03965,0.09488 0.09488,0.17419 0.16427,0.24358zM219.65395,182.58379c-0.06089,-0.14445 -0.09205,-0.29739 -0.09205,-0.45884h0.41636c0,0.10621 0.01841,0.20534 0.05948,0.29881zM219.5619,182.12496v-4.83762h0.41636v4.83762zM219.5619,177.28733c0,-0.15861 0.03116,-0.31014 0.09347,-0.45459l0.38095,0.16428c-0.03965,0.09064 -0.05806,0.18551 -0.05806,0.29031zM219.65395,176.83416c0.06089,-0.14303 0.14445,-0.26907 0.25632,-0.37529l0.28748,0.29739c-0.06656,0.06514 -0.12037,0.14445 -0.16003,0.23933zM219.90745,176.46171c0.10621,-0.10763 0.23084,-0.19118 0.37104,-0.25208l0.16569,0.38095c-0.09347,0.04106 -0.17419,0.09489 -0.24358,0.16286zM220.27707,176.21105c0.14728,-0.06656 0.30164,-0.09771 0.46309,-0.09771v0.41352c-0.10338,0 -0.2011,0.02124 -0.29457,0.06231zM220.74016,176.11334h3.87746v0.41352h-3.87746zM224.61761,176.11334c0.16144,0 0.3158,0.03116 0.46025,0.09914l-0.17277,0.37529c-0.08922,-0.03965 -0.18269,-0.0609 -0.28748,-0.0609zM225.0722,176.20963c0.14445,0.05948 0.27048,0.14303 0.37811,0.25208l-0.29314,0.29173c-0.06797,-0.06656 -0.15012,-0.12179 -0.245,-0.16286zM225.44748,176.45888c0.11046,0.10621 0.19543,0.23225 0.25633,0.37529l-0.38378,0.16144c-0.03965,-0.09488 -0.09205,-0.17419 -0.16003,-0.23933zM225.70239,176.83275c0.06231,0.14445 0.09347,0.29598 0.09347,0.45459h-0.41635c0,-0.1048 -0.01983,-0.19967 -0.05806,-0.29031zM225.79586,177.28733v4.83762h-0.41635v-4.83762zM220.94691,177.28733v4.83762h-0.41493v-4.83762zM220.74016,181.91818h3.87746v0.41494h-3.87746zM224.40944,182.12496v-4.83762h0.41636v4.83762zM224.61761,177.49552h-3.87746v-0.41494h3.87746zM228.90152,177.05649v-0.20676h0.20817v0.20676zM229.1097,178.27015h-0.20817v-0.20676h0.20817zM230.76802,177.85522h0.20817v0.20817h-0.20817zM230.97619,178.99381v0.20676h-0.20817v-0.20676zM228.90152,178.99381v-0.20818h0.20817v0.20818zM229.31787,183.09503v0.20676h-0.20817v-0.20676zM228.17785,183.30179h-0.20818v-0.20676h0.20818zM228.17785,178.78563h0.20817v0.20818h-0.20817zM226.94579,179.20056h-0.20676v-0.20676h0.20676zM226.73903,178.06339v-0.20817h0.20676v0.20817zM228.38603,178.06339v0.20676h-0.20817v-0.20676zM228.05749,176.61607l0.00142,-0.00283l0.18977,0.08355zM228.83495,176.3909l-0.00567,0.00283l-0.07789,-0.1926zM230.76802,175.9193h0.20817v0.20676h-0.20817zM230.97619,177.05649v0.20818h-0.20817v-0.20818zM229.31787,177.05649v1.00689h-0.41635v-1.00689zM229.1097,177.85522h1.65833v0.41494h-1.65833zM230.97619,178.06339v0.93043h-0.41635v-0.93043zM230.76802,179.20056h-1.65833v-0.41493h1.65833zM229.31787,178.99381v4.10121h-0.41635v-4.10121zM229.1097,183.30179h-0.93184v-0.41493h0.93184zM227.96968,183.09503v-4.10121h0.41636v4.10121zM228.17785,179.20056h-1.23207v-0.41493h1.23207zM226.73903,178.99381v-0.93043h0.41494v0.93043zM226.94579,177.85522h1.23207v0.41494h-1.23207zM227.96968,178.06339v-1.00689h0.41636v1.00689zM227.96968,177.05649c0,-0.15436 0.02974,-0.30306 0.0878,-0.44043l0.38236,0.16286c-0.0354,0.08356 -0.05381,0.17419 -0.05381,0.27757zM228.05891,176.61324c0.06089,-0.13596 0.14162,-0.25633 0.24641,-0.35971l0.29314,0.29314c-0.06656,0.06656 -0.11896,0.14445 -0.16003,0.23509zM228.30531,176.25353c0.1048,-0.1048 0.22659,-0.18693 0.36537,-0.24358l0.15861,0.38379c-0.0878,0.03682 -0.16428,0.0878 -0.23084,0.15294zM228.66643,176.01137c0.1402,-0.06231 0.29032,-0.09205 0.44326,-0.09205v0.41494c-0.0963,0 -0.18835,0.01841 -0.27474,0.05665zM229.1097,175.9193h1.65833v0.41494h-1.65833zM230.97619,176.12607v0.93042h-0.41635v-0.93042zM230.76802,177.26468h-1.65833v-0.41494h1.65833zM233.69381,177.05649v-0.20676h0.20676v0.20676zM233.90057,178.27015h-0.20676v-0.20676h0.20676zM235.55892,177.85522h0.20817v0.20817h-0.20817zM235.76708,178.99381v0.20676h-0.20817v-0.20676zM233.69381,178.99381v-0.20818h0.20676v0.20818zM234.10875,183.09503v0.20676h-0.20817v-0.20676zM232.96875,183.30179h-0.20817v-0.20676h0.20817zM232.96875,178.78563h0.20817v0.20818h-0.20817zM231.73667,179.20056h-0.20676v-0.20676h0.20676zM231.52992,178.06339v-0.20817h0.20676v0.20817zM233.17693,178.06339v0.20676h-0.20817v-0.20676zM232.84836,176.61607l0.00142,-0.00283l0.18976,0.08355zM233.62725,176.3909l-0.00567,0.00283l-0.0793,-0.1926zM235.55892,175.9193h0.20817v0.20676h-0.20817zM235.76708,177.05649v0.20818h-0.20817v-0.20818zM234.10875,177.05649v1.00689h-0.41494v-1.00689zM233.90057,177.85522h1.65833v0.41494h-1.65833zM235.76708,178.06339v0.93043h-0.41636v-0.93043zM235.55892,179.20056h-1.65833v-0.41493h1.65833zM234.10875,178.99381v4.10121h-0.41494v-4.10121zM233.90057,183.30179h-0.93184v-0.41493h0.93184zM232.76057,183.09503v-4.10121h0.41636v4.10121zM232.96875,179.20056h-1.23206v-0.41493h1.23206zM231.52992,178.99381v-0.93043h0.41494v0.93043zM231.73667,177.85522h1.23206v0.41494h-1.23206zM232.76057,178.06339v-1.00689h0.41636v1.00689zM232.76057,177.05649c0,-0.15436 0.02974,-0.30306 0.0878,-0.44043l0.38236,0.16286c-0.0354,0.08356 -0.05381,0.17419 -0.05381,0.27757zM232.84978,176.61324c0.06089,-0.13596 0.14303,-0.25633 0.24641,-0.35971l0.29314,0.29314c-0.06656,0.06656 -0.11896,0.14445 -0.16003,0.23509zM233.09619,176.25353c0.1048,-0.1048 0.22659,-0.18693 0.36537,-0.24358l0.16002,0.38379c-0.08922,0.03682 -0.16569,0.0878 -0.23225,0.15294zM233.45732,176.01137c0.1402,-0.06231 0.29031,-0.09205 0.44326,-0.09205v0.41494c-0.0963,0 -0.18835,0.01841 -0.27332,0.05665zM233.90057,175.9193h1.65833v0.41494h-1.65833zM235.76708,176.12607v0.93042h-0.41636v-0.93042zM235.55892,177.26468h-1.65833v-0.41494h1.65833zM244.16211,177.8099l-0.00283,-0.00425l0.14728,-0.14445zM240.58629,177.28733v-0.20676h0.20817v0.20676zM240.79447,182.33312h-0.20817v-0.20817h0.20817zM239.82298,183.30179h-0.20676v-0.20676h0.20676zM239.61622,176.32009v-0.20676h0.20676v0.20676zM244.18194,176.68404l-0.00283,-0.00142l0.07505,-0.1926zM244.85746,177.11456l-0.00142,-0.00283l0.14728,-0.14445zM245.28797,177.78865l-0.00142,-0.00141l0.19543,-0.07364zM245.28655,181.62788l0.00142,-0.00142l0.19401,0.07506zM244.33063,183.12194l-0.00141,0.00142l-0.07506,-0.19543zM243.2756,181.91818c0.41352,0 0.70242,-0.11046 0.89501,-0.30305l0.29314,0.29314c-0.29314,0.29314 -0.69958,0.42485 -1.18816,0.42485zM244.17061,181.61514c0.1926,-0.19118 0.30306,-0.47866 0.30306,-0.89219h0.41493c0,0.48716 -0.13171,0.8936 -0.42485,1.18533zM244.47367,180.72294v-2.03078h0.41493v2.03078zM244.47367,178.69217c0,-0.20251 -0.02974,-0.37387 -0.08214,-0.51973l0.39086,-0.14303c0.07223,0.2011 0.10621,0.42202 0.10621,0.66277zM244.39153,178.17244c-0.05381,-0.14728 -0.13028,-0.26624 -0.22942,-0.36254l0.29031,-0.29739c0.14728,0.14303 0.25632,0.31722 0.32996,0.5169zM244.15927,177.80565c-0.09771,-0.09771 -0.21668,-0.1756 -0.36254,-0.228l0.1402,-0.38945c0.2011,0.07223 0.37528,0.18269 0.51973,0.32855zM243.79675,177.57765c-0.14728,-0.05381 -0.32005,-0.08214 -0.52115,-0.08214v-0.41494c0.24075,0 0.46167,0.03399 0.66135,0.10763zM243.2756,177.49552h-2.48113v-0.41494h2.48113zM241.00264,177.28733v4.83762h-0.41636v-4.83762zM240.79447,181.91818h2.48113v0.41494h-2.48113zM239.61622,183.09503v-6.77493h0.41494v6.77493zM239.82298,176.11334h3.45262v0.41352h-3.45262zM243.2756,176.11334c0.3852,0 0.7364,0.05948 1.05504,0.18269l-0.15153,0.38661c-0.26199,-0.10338 -0.56363,-0.15578 -0.90351,-0.15578zM244.32781,176.29461c0.32005,0.12037 0.5962,0.29598 0.82279,0.52681l-0.29456,0.29032c-0.18268,-0.18552 -0.40644,-0.32713 -0.6741,-0.42768zM245.14918,176.81857c0.23084,0.228 0.40644,0.50274 0.52681,0.82138l-0.38945,0.14728c-0.09914,-0.26766 -0.24358,-0.48999 -0.4291,-0.67268zM245.67599,177.63995c0.12321,0.32005 0.1841,0.66985 0.1841,1.05221h-0.41636c0,-0.33705 -0.05381,-0.63728 -0.15578,-0.90351zM245.86009,178.69217v2.03078h-0.41636v-2.03078zM245.86009,180.72294c0,0.38095 -0.0609,0.73215 -0.1841,1.05221l-0.38803,-0.1487c0.10196,-0.26624 0.15578,-0.56647 0.15578,-0.90351zM245.67599,181.77375c-0.12037,0.31864 -0.29598,0.59479 -0.5254,0.82421l-0.29456,-0.29314c0.18693,-0.18552 0.33138,-0.41068 0.43051,-0.67692zM245.1506,182.59795c-0.228,0.22659 -0.50274,0.40078 -0.81996,0.52399l-0.15153,-0.3852c0.26907,-0.1048 0.49424,-0.24925 0.67692,-0.43193zM244.32922,183.12335c-0.31722,0.12037 -0.66985,0.17844 -1.05362,0.17844v-0.41493c0.34129,0 0.64294,-0.05098 0.90492,-0.15153zM243.2756,183.30179h-3.45262v-0.41493h3.45262zM248.0948,177.85522h0.20676v0.20817h-0.20676zM248.30155,183.09503v0.20676h-0.20676v-0.20676zM247.16155,183.30179h-0.20676v-0.20676h0.20676zM246.95479,178.06339v-0.20817h0.20676v0.20817zM246.90663,176.12607v-0.20676h0.20818v0.20676zM248.14294,175.9193h0.20676v0.20676h-0.20676zM248.34971,177.09474v0.20676h-0.20676v-0.20676zM247.11481,177.3015h-0.20818v-0.20676h0.20818zM248.30155,178.06339v5.03164h-0.41494v-5.03164zM248.0948,183.30179h-0.93325v-0.41493h0.93325zM246.95479,183.09503v-5.03164h0.41494v5.03164zM247.16155,177.85522h0.93325v0.41494h-0.93325zM247.11481,175.9193h1.02813v0.41494h-1.02813zM248.34971,176.12607v0.96866h-0.41494v-0.96866zM248.14294,177.3015h-1.02813v-0.41494h1.02813zM246.90663,177.09474v-0.96866h0.41636v0.96866zM250.42014,178.99381v-0.20818h0.20676v0.20818zM250.6269,182.37137h-0.20676v-0.20676h0.20676zM253.23973,182.16461v0.20676h-0.20817v-0.20676zM252.8248,181.31348v-0.20676h0.20676v0.20676zM253.96623,181.10673h0.20676v0.20676h-0.20676zM253.69857,182.44784l0.00142,-0.00425l0.18977,0.08355zM253.48047,183.21398l-0.00425,0.00142l-0.07789,-0.19118zM250.1879,183.2154l-0.00566,-0.00142l0.08497,-0.18976zM249.82535,182.97466l-0.00567,-0.00567l0.15011,-0.14445zM249.58036,182.61211l-0.00142,-0.00425l0.19118,-0.08073zM249.57894,178.54914l0.00142,-0.00425l0.18977,0.08497zM250.35217,178.32821l-0.00425,0.00142l-0.08073,-0.19118zM253.31761,178.32963l-0.00425,-0.00142l0.08497,-0.18976zM253.54562,178.48541l-0.00567,-0.00425l0.15011,-0.14445zM253.69998,178.7134l-0.00142,-0.00283l0.19118,-0.08073zM254.17298,179.84493v0.20676h-0.20676v-0.20676zM253.03156,180.05169h-0.20676v-0.20676h0.20676zM253.03156,178.78563h0.20817v0.20818h-0.20817zM250.83508,178.99381v3.17079h-0.41493v-3.17079zM250.6269,181.95643h2.40464v0.41493h-2.40464zM252.8248,182.16461v-0.85111h0.41493v0.85111zM253.03156,181.10673h0.93467v0.41494h-0.93467zM254.17298,181.31348v0.85111h-0.41493v-0.85111zM254.17298,182.16461c0,0.15578 -0.03116,0.30589 -0.09347,0.44751l-0.37954,-0.16853c0.03824,-0.08639 0.05806,-0.17844 0.05806,-0.27898zM254.08236,182.60786c-0.05806,0.13737 -0.1402,0.26058 -0.24358,0.36396l-0.29598,-0.29315c0.06656,-0.06514 0.11754,-0.14162 0.15578,-0.23084zM253.83877,182.97182c-0.10338,0.10055 -0.22234,0.18126 -0.35829,0.24216l-0.1671,-0.37953c0.09064,-0.04106 0.16711,-0.09205 0.22942,-0.15578zM253.47623,183.2154c-0.1402,0.05806 -0.28748,0.08639 -0.44468,0.08639v-0.41493c0.1048,0 0.19826,-0.01841 0.28607,-0.05523zM253.03156,183.30179h-2.40464v-0.41493h2.40464zM250.6269,183.30179c-0.15153,0 -0.30023,-0.02832 -0.43902,-0.08639l0.16003,-0.38378c0.08639,0.03682 0.17985,0.05523 0.27898,0.05523zM250.18224,183.21398c-0.13312,-0.05948 -0.2535,-0.14019 -0.35688,-0.23933l0.28889,-0.29882c0.06514,0.06514 0.14445,0.11755 0.23792,0.15861zM249.81968,182.96899c-0.09914,-0.10196 -0.17844,-0.22234 -0.23933,-0.35688l0.37954,-0.16853c0.04106,0.09205 0.09347,0.17136 0.15861,0.23792zM249.57894,182.60786c-0.05806,-0.14162 -0.0878,-0.2889 -0.0878,-0.44326h0.41636c0,0.10196 0.01841,0.19543 0.05523,0.28323zM249.49115,182.16461v-3.17079h0.41636v3.17079zM249.49115,178.99381c0,-0.15578 0.02974,-0.30306 0.0878,-0.44468l0.38379,0.16144c-0.03682,0.08639 -0.05523,0.17985 -0.05523,0.28323zM249.58036,178.54489c0.06089,-0.13312 0.14162,-0.2535 0.24217,-0.35404l0.29315,0.29173c-0.06231,0.06373 -0.11471,0.1402 -0.15578,0.23084zM249.82252,178.19085c0.1048,-0.10621 0.228,-0.18552 0.36537,-0.24358l0.16003,0.38237c-0.08922,0.03824 -0.1671,0.08922 -0.23225,0.15294zM250.18224,177.9501c0.14162,-0.06373 0.29032,-0.09489 0.44468,-0.09489v0.41494c-0.0963,0 -0.18835,0.01982 -0.27474,0.05806zM250.6269,177.85522h2.40464v0.41494h-2.40464zM253.03156,177.85522c0.15861,0 0.30872,0.03115 0.44893,0.09489l-0.1671,0.37811c-0.08639,-0.03824 -0.17844,-0.05806 -0.28182,-0.05806zM253.47623,177.94726c0.13878,0.05806 0.26057,0.13878 0.36537,0.24641l-0.30164,0.28748c-0.06089,-0.06373 -0.13453,-0.11329 -0.22234,-0.15153zM253.83593,178.18802c0.1048,0.10196 0.18835,0.22375 0.24641,0.36112l-0.38379,0.16144c-0.03824,-0.08922 -0.0878,-0.16286 -0.15294,-0.22518zM254.07952,178.54489c0.06231,0.14162 0.09347,0.29173 0.09347,0.44893h-0.41493c0,-0.10196 -0.01983,-0.19401 -0.05806,-0.2804zM254.17298,178.99381v0.85111h-0.41493v-0.85111zM253.96623,180.05169h-0.93467v-0.41494h0.93467zM252.8248,179.84493v-0.85111h0.41493v0.85111zM253.03156,179.20056h-2.40464v-0.41493h2.40464zM255.02126,178.06339v-0.20817h0.20817v0.20817zM256.66827,178.06339v0.20676h-0.20817v-0.20676zM256.25191,176.5141v-0.20817h0.20817v0.20817zM257.39193,176.30593h0.20817v0.20817h-0.20817zM257.39193,178.27015h-0.20676v-0.20676h0.20676zM259.05026,177.85522h0.20817v0.20817h-0.20817zM259.25843,178.99381v0.20676h-0.20817v-0.20676zM257.18517,178.99381v-0.20818h0.20676v0.20818zM257.39193,182.37137h-0.20676v-0.20676h0.20676zM259.05026,181.95643h0.20817v0.20817h-0.20817zM259.25843,183.09503v0.20676h-0.20817v-0.20676zM256.95291,183.2154l-0.00425,-0.00142l0.08497,-0.18976zM256.59038,182.97466l-0.00283,-0.00283l0.14728,-0.14728zM256.34114,182.61211l-0.00142,-0.00425l0.19118,-0.08073zM256.46008,178.78563h0.20817v0.20818h-0.20817zM255.22944,179.20056h-0.20817v-0.20676h0.20817zM255.22944,177.85522h1.23065v0.41494h-1.23065zM256.25191,178.06339v-1.54928h0.41636v1.54928zM256.46008,176.30593h0.93184v0.41493h-0.93184zM257.6001,176.5141v1.54928h-0.41493v-1.54928zM257.39193,177.85522h1.65833v0.41494h-1.65833zM259.25843,178.06339v0.93043h-0.41636v-0.93043zM259.05026,179.20056h-1.65833v-0.41493h1.65833zM257.6001,178.99381v3.17079h-0.41493v-3.17079zM257.39193,181.95643h1.65833v0.41493h-1.65833zM259.25843,182.16461v0.93043h-0.41636v-0.93043zM259.05026,183.30179h-1.65833v-0.41493h1.65833zM257.39193,183.30179c-0.15153,0 -0.29881,-0.02832 -0.43901,-0.08639l0.16002,-0.38378c0.0878,0.03682 0.17985,0.05523 0.27898,0.05523zM256.94867,183.21398c-0.13596,-0.05948 -0.25491,-0.14019 -0.35829,-0.23933l0.28748,-0.29882c0.06797,0.06514 0.14728,0.11755 0.23933,0.15861zM256.58754,182.97182c-0.10338,-0.10338 -0.18551,-0.22375 -0.24641,-0.35971l0.37953,-0.16853c0.04106,0.09064 0.09347,0.16853 0.16003,0.23509zM256.33971,182.60786c-0.05806,-0.14162 -0.0878,-0.2889 -0.0878,-0.44326h0.41636c0,0.10196 0.01841,0.19543 0.05523,0.28323zM256.25191,182.16461v-3.17079h0.41636v3.17079zM256.46008,179.20056h-1.23065v-0.41493h1.23065zM255.02126,178.99381v-0.93043h0.41493v0.93043zM260.48767,180.45672v-0.00283l0.18976,0.08497zM260.727,180.09842l0.00283,-0.00283l0.14728,0.14586zM261.25947,180.23154l-0.00425,0.00283l-0.08073,-0.1926zM264.14703,179.96672v0.20676h-0.20676v-0.20676zM263.94027,178.78563h0.20676v0.20818h-0.20676zM260.89694,179.20056h-0.20817v-0.20676h0.20817zM260.68876,178.06339v-0.20817h0.20817v0.20817zM264.22493,178.32963l-0.00425,-0.00142l0.08497,-0.18976zM264.45292,178.48541l-0.00425,-0.00425l0.1487,-0.14445zM264.60728,178.7134l-0.00142,-0.00283l0.19118,-0.08073zM265.0817,183.09503v0.20676h-0.20817v-0.20676zM263.94027,183.30179h-0.20817v-0.20676h0.20817zM263.73352,182.22833l0.41352,0.01558h-0.20676zM263.77883,183.00015l-0.00142,0.00141l-0.1402,-0.15294zM261.09661,183.2154l-0.00567,-0.00142l0.08356,-0.18976zM260.73267,182.97466l-0.00567,-0.00567l0.15011,-0.14445zM260.48767,182.61211l-0.00142,-0.00425l0.19118,-0.08073zM261.53563,182.37137h-0.20817v-0.20676h0.20817zM264.14703,182.16461v0.20676h-0.20676v-0.20676zM263.94027,180.69037h0.20676v0.20818h-0.20676zM261.32745,180.89856v-0.20818h0.20817v0.20818zM260.39986,180.89856c0,-0.15578 0.02832,-0.30306 0.0878,-0.44184l0.38095,0.16285c-0.03399,0.08356 -0.05381,0.17419 -0.05381,0.27898zM260.48767,180.45387c0.06089,-0.13312 0.1402,-0.2535 0.23933,-0.35546l0.30023,0.28748c-0.06514,0.06514 -0.11754,0.14445 -0.16003,0.2365zM260.72983,180.09558c0.10621,-0.10621 0.22801,-0.18693 0.36679,-0.24358l0.15861,0.38236c-0.0878,0.03682 -0.16569,0.0878 -0.23084,0.15295zM261.09094,179.85342c0.1402,-0.06231 0.2889,-0.09489 0.44468,-0.09489v0.41494c-0.09771,0 -0.18835,0.01982 -0.27615,0.05806zM261.53563,179.75854h2.40465v0.41494h-2.40465zM263.73209,179.96672v-0.97291h0.41494v0.97291zM263.94027,179.20056h-3.04334v-0.41493h3.04334zM260.68876,178.99381v-0.93043h0.41636v0.93043zM260.89694,177.85522h3.04334v0.41494h-3.04334zM263.94027,177.85522c0.15719,0 0.30872,0.03115 0.44892,0.09489l-0.16852,0.37811c-0.08497,-0.03824 -0.17844,-0.05806 -0.2804,-0.05806zM264.38496,177.94726c0.13737,0.05806 0.25916,0.13878 0.36396,0.24641l-0.30023,0.28748c-0.06089,-0.06373 -0.13453,-0.11329 -0.22375,-0.15153zM264.74324,178.18802c0.1048,0.10196 0.18835,0.22375 0.24641,0.36112l-0.38378,0.16144c-0.03682,-0.08922 -0.0878,-0.16286 -0.15295,-0.22518zM264.98682,178.54489c0.06231,0.14162 0.09488,0.29173 0.09488,0.44893h-0.41635c0,-0.10196 -0.01983,-0.19401 -0.05806,-0.2804zM265.0817,178.99381v4.10121h-0.41635v-4.10121zM264.87352,183.30179h-0.93325v-0.41493h0.93325zM263.73209,183.09503v-0.85112h0.41494v0.85112zM264.14703,182.26091c-0.01133,0.14445 -0.05099,0.2804 -0.11754,0.40927l-0.3682,-0.19118c0.03965,-0.07789 0.06514,-0.16286 0.07223,-0.25066zM264.0295,182.67017c-0.06373,0.12462 -0.14728,0.23509 -0.25066,0.32997l-0.28182,-0.30448c0.06656,-0.06089 0.12179,-0.13312 0.16428,-0.21667zM263.77742,183.00156c-0.09914,0.09347 -0.21526,0.16569 -0.34413,0.21809l-0.16003,-0.38237c0.08639,-0.0354 0.16003,-0.08356 0.22375,-0.14162zM263.43328,183.21965c-0.13453,0.05523 -0.27474,0.08214 -0.42202,0.08214v-0.41493c0.09488,0 0.18127,-0.01699 0.26199,-0.04956zM263.01127,183.30179h-1.47564v-0.41493h1.47564zM261.53563,183.30179c-0.15295,0 -0.30164,-0.02832 -0.43901,-0.08639l0.15861,-0.38378c0.0878,0.03682 0.17985,0.05523 0.2804,0.05523zM261.09094,183.21398c-0.13453,-0.05948 -0.25349,-0.14019 -0.35829,-0.23933l0.28889,-0.29882c0.06656,0.06514 0.14587,0.11755 0.23792,0.15861zM260.727,182.96899c-0.09914,-0.10196 -0.17844,-0.22234 -0.23933,-0.35688l0.37954,-0.16853c0.04248,0.09205 0.09488,0.17136 0.16003,0.23792zM260.48624,182.60786c-0.05806,-0.14162 -0.08639,-0.2889 -0.08639,-0.44326h0.41493c0,0.10196 0.01983,0.19543 0.05523,0.28323zM260.39986,182.16461v-1.26605h0.41493v1.26605zM261.53563,181.95643h2.40465v0.41493h-2.40465zM263.73209,182.16461v-1.26605h0.41494v1.26605zM263.94027,181.10532h-2.40465v-0.41494h2.40465zM261.74239,180.89856v1.26605h-0.41493v-1.26605zM265.92856,178.06339v-0.20817h0.20817v0.20817zM267.57557,178.06339v0.20676h-0.20817v-0.20676zM267.16063,176.5141v-0.20817h0.20676v0.20817zM268.30065,176.30593h0.20676v0.20817h-0.20676zM268.30065,178.27015h-0.20817v-0.20676h0.20817zM269.95755,177.85522h0.20818v0.20817h-0.20818zM270.16573,178.99381v0.20676h-0.20818v-0.20676zM268.09247,178.99381v-0.20818h0.20817v0.20818zM268.30065,182.37137h-0.20817v-0.20676h0.20817zM269.95755,181.95643h0.20818v0.20817h-0.20818zM270.16573,183.09503v0.20676h-0.20818v-0.20676zM267.86163,183.2154l-0.00425,-0.00142l0.08355,-0.18976zM267.49767,182.97466l-0.00283,-0.00283l0.14728,-0.14728zM267.24843,182.61211l-0.00141,-0.00425l0.19118,-0.08073zM267.3674,178.78563h0.20817v0.20818h-0.20817zM266.13675,179.20056h-0.20817v-0.20676h0.20817zM266.13675,177.85522h1.23065v0.41494h-1.23065zM267.16063,178.06339v-1.54928h0.41493v1.54928zM267.3674,176.30593h0.93325v0.41493h-0.93325zM268.5074,176.5141v1.54928h-0.41493v-1.54928zM268.30065,177.85522h1.65691v0.41494h-1.65691zM270.16573,178.06339v0.93043h-0.41494v-0.93043zM269.95755,179.20056h-1.65691v-0.41493h1.65691zM268.5074,178.99381v3.17079h-0.41493v-3.17079zM268.30065,181.95643h1.65691v0.41493h-1.65691zM270.16573,182.16461v0.93043h-0.41494v-0.93043zM269.95755,183.30179h-1.65691v-0.41493h1.65691zM268.30065,183.30179c-0.15295,0 -0.30023,-0.02832 -0.43901,-0.08639l0.15861,-0.38378c0.08922,0.03682 0.17985,0.05523 0.2804,0.05523zM267.85739,183.21398c-0.13596,-0.05948 -0.25491,-0.14019 -0.35971,-0.23933l0.28889,-0.29882c0.06797,0.06514 0.14587,0.11755 0.23792,0.15861zM267.49484,182.97182c-0.10338,-0.10338 -0.18552,-0.22375 -0.24641,-0.35971l0.37954,-0.16853c0.04248,0.09064 0.09489,0.16853 0.16144,0.23509zM267.24703,182.60786c-0.05806,-0.14162 -0.08639,-0.2889 -0.08639,-0.44326h0.41493c0,0.10196 0.01983,0.19543 0.05523,0.28323zM267.16063,182.16461v-3.17079h0.41493v3.17079zM267.3674,179.20056h-1.23065v-0.41493h1.23065zM265.92856,178.99381v-0.93043h0.41636v0.93043zM272.49532,177.85522h0.20817v0.20817h-0.20817zM272.7035,183.09503v0.20676h-0.20817v-0.20676zM271.56207,183.30179h-0.20817v-0.20676h0.20817zM271.35389,178.06339v-0.20817h0.20817v0.20817zM271.30716,176.12607v-0.20676h0.20818v0.20676zM272.54206,175.9193h0.20818v0.20676h-0.20818zM272.75023,177.09474v0.20676h-0.20818v-0.20676zM271.51535,177.3015h-0.20818v-0.20676h0.20818zM272.7035,178.06339v5.03164h-0.41636v-5.03164zM272.49532,183.30179h-0.93326v-0.41493h0.93326zM271.35389,183.09503v-5.03164h0.41636v5.03164zM271.56207,177.85522h0.93326v0.41494h-0.93326zM271.51535,175.9193h1.02671v0.41494h-1.02671zM272.75023,176.12607v0.96866h-0.41494v-0.96866zM272.54206,177.3015h-1.02671v-0.41494h1.02671zM271.30716,177.09474v-0.96866h0.41494v0.96866zM278.19255,182.44784l0.00283,-0.00425l0.18977,0.08355zM277.97588,183.21398l-0.00283,0.00142l-0.08073,-0.19118zM274.58841,183.2154l-0.00425,-0.00142l0.08497,-0.18976zM274.22588,182.97466l-0.00566,-0.00567l0.14869,-0.14445zM273.98231,182.61211l-0.00283,-0.00425l0.1926,-0.08073zM273.97947,178.54914l0.00283,-0.00425l0.18976,0.08497zM274.75127,178.32821l-0.00283,0.00142l-0.07931,-0.19118zM277.81161,178.32963l-0.00567,-0.00283l0.08639,-0.18835zM278.04103,178.48541l-0.00567,-0.00425l0.15011,-0.14445zM278.19539,178.7134l-0.00283,-0.00283l0.1926,-0.08073zM274.81926,178.99381v-0.20818h0.20817v0.20818zM275.02743,182.37137h-0.20817v-0.20676h0.20817zM277.73938,182.16461v0.20676h-0.20817v-0.20676zM277.53121,178.78563h0.20817v0.20818h-0.20817zM278.66697,182.16461c0,0.15578 -0.02974,0.30589 -0.09205,0.44751l-0.37954,-0.16853c0.03682,-0.08639 0.05665,-0.17844 0.05665,-0.27898zM278.57633,182.60786c-0.05665,0.13737 -0.13878,0.26058 -0.24358,0.36396l-0.29457,-0.29315c0.06514,-0.06514 0.11754,-0.14162 0.15436,-0.23084zM278.33276,182.97182c-0.10196,0.10055 -0.22092,0.18126 -0.35688,0.24216l-0.16853,-0.37953c0.09347,-0.04106 0.16853,-0.09205 0.23084,-0.15578zM277.97305,183.2154c-0.13737,0.05806 -0.28465,0.08639 -0.44184,0.08639v-0.41493c0.1048,0 0.19542,-0.01841 0.27898,-0.05381zM277.53121,183.30179h-2.50378v-0.41493h2.50378zM275.02743,183.30179c-0.15295,0 -0.29881,-0.02832 -0.43901,-0.08639l0.16003,-0.38378c0.08639,0.03682 0.17985,0.05523 0.27898,0.05523zM274.58417,183.21398c-0.13596,-0.05948 -0.25491,-0.14019 -0.35829,-0.23933l0.28748,-0.29882c0.06797,0.06514 0.14728,0.11755 0.23792,0.15861zM274.22021,182.96899c-0.10055,-0.10196 -0.17844,-0.22234 -0.23792,-0.35688l0.37954,-0.16853c0.03965,0.09205 0.09346,0.17136 0.15719,0.23792zM273.97947,182.60786c-0.05806,-0.14162 -0.0878,-0.2889 -0.0878,-0.44326h0.41494c0,0.10196 0.01983,0.19543 0.05665,0.28323zM273.89167,182.16461v-3.17079h0.41494v3.17079zM273.89167,178.99381c0,-0.15578 0.02974,-0.30306 0.0878,-0.44468l0.38379,0.16144c-0.03682,0.08639 -0.05665,0.17985 -0.05665,0.28323zM273.98231,178.54489c0.05948,-0.13312 0.13878,-0.2535 0.24075,-0.35404l0.29314,0.29173c-0.06231,0.06373 -0.11471,0.1402 -0.15436,0.23084zM274.22304,178.19085c0.1048,-0.10621 0.22659,-0.18552 0.36537,-0.24358l0.16003,0.38237c-0.08922,0.03824 -0.16569,0.08922 -0.23225,0.15294zM274.58417,177.9501c0.1402,-0.06373 0.28889,-0.09489 0.44326,-0.09489v0.41494c-0.0963,0 -0.18835,0.01982 -0.27615,0.05806zM275.02743,177.85522h2.50378v0.41494h-2.50378zM277.53121,177.85522c0.15861,0 0.30872,0.03115 0.4475,0.09489l-0.17277,0.3767c-0.08214,-0.03682 -0.17135,-0.05665 -0.27473,-0.05665zM277.97164,177.94726c0.13878,0.05806 0.26057,0.13878 0.36395,0.24641l-0.30023,0.28748c-0.06089,-0.06373 -0.13453,-0.11329 -0.22375,-0.15153zM278.32993,178.18802c0.10621,0.10196 0.18835,0.22375 0.24641,0.36112l-0.38378,0.16144c-0.0354,-0.08922 -0.0878,-0.16286 -0.15153,-0.22518zM278.57491,178.54489c0.06231,0.14162 0.09205,0.29173 0.09205,0.44893h-0.41493c0,-0.10196 -0.01983,-0.19401 -0.05665,-0.2804zM278.66697,178.99381v3.17079h-0.41493v-3.17079zM275.2356,178.99381v3.17079h-0.41636v-3.17079zM275.02743,181.95643h2.50378v0.41493h-2.50378zM277.32444,182.16461v-3.17079h0.41493v3.17079zM277.53121,179.20056h-2.50378v-0.41493h2.50378zM284.68567,183.09503v0.20676h-0.20817v-0.20676zM283.54424,183.30179h-0.20676v-0.20676h0.20676zM283.54424,178.78563h0.20817v0.20818h-0.20817zM280.73883,178.99381v-0.20818h0.20676v0.20818zM281.15375,183.09503v0.20676h-0.20817v-0.20676zM280.01799,183.30179h-0.20818v-0.20676h0.20818zM279.80981,178.06339v-0.20817h0.20818v0.20817zM280.94558,177.85522h0.20817v0.20817h-0.20817zM281.15375,178.96123l-0.41493,-0.00991h0.20676zM281.22032,178.69217l-0.00142,0.00283l-0.18835,-0.08922zM281.60551,178.32397l-0.00567,0.00283l-0.07647,-0.1926zM283.83031,178.32963l-0.00567,-0.00142l0.08355,-0.18976zM284.05832,178.48541l-0.00567,-0.00425l0.15011,-0.14445zM284.21268,178.7134l-0.00283,-0.00283l0.1926,-0.08073zM284.47749,183.30179h-0.93325v-0.41493h0.93325zM283.33749,183.09503v-4.10121h0.41494v4.10121zM283.54424,179.20056h-2.59866v-0.41493h2.59866zM281.15375,178.99381v4.10121h-0.41493v-4.10121zM280.94558,183.30179h-0.92759v-0.41493h0.92759zM279.80981,183.09503v-5.03164h0.41636v5.03164zM280.01799,177.85522h0.92759v0.41494h-0.92759zM281.15375,178.06339v0.88794h-0.41493v-0.88794zM280.73883,178.94142c0.00708,-0.15011 0.04106,-0.29032 0.1048,-0.42343l0.37529,0.17702c-0.03824,0.08073 -0.06089,0.16994 -0.06514,0.26623zM280.8422,178.52081c0.06089,-0.13312 0.14162,-0.24925 0.24359,-0.34696l0.28889,0.29881c-0.06231,0.05948 -0.11471,0.1317 -0.15436,0.2195zM281.08579,178.17385c0.1048,-0.10055 0.22517,-0.17844 0.3597,-0.23225l0.15436,0.38379c-0.08497,0.0354 -0.16002,0.08355 -0.22517,0.14728zM281.44265,177.94301c0.13596,-0.05806 0.28323,-0.0878 0.43618,-0.0878v0.41494c-0.10055,0 -0.18976,0.01841 -0.27332,0.05381zM281.87883,177.85522h1.66541v0.41494h-1.66541zM283.54424,177.85522c0.15861,0 0.30731,0.03115 0.44893,0.09489l-0.16852,0.37811c-0.08639,-0.03824 -0.17702,-0.05806 -0.2804,-0.05806zM283.98893,177.94726c0.13878,0.05806 0.26057,0.13878 0.36254,0.24641l-0.29881,0.28748c-0.06089,-0.06373 -0.13453,-0.11329 -0.22234,-0.15153zM284.34721,178.18802c0.10621,0.10196 0.18976,0.22375 0.24641,0.36112l-0.38378,0.16144c-0.03682,-0.08922 -0.0878,-0.16286 -0.15153,-0.22518zM284.5922,178.54489c0.06231,0.14162 0.09347,0.29173 0.09347,0.44893h-0.41493c0,-0.10196 -0.02124,-0.19401 -0.05806,-0.2804zM284.68567,178.99381v4.10121h-0.41493v-4.10121z" fill="#ffffff"/></g></g></g></svg>