<svg version="1.1" xmlns="http://www.w3.org/2000/svg" xmlns:xlink="http://www.w3.org/1999/xlink" width="19.95934" height="26.8748" viewBox="0,0,19.95934,26.8748"><g transform="translate(-230.02033,-166.5626)"><g data-paper-data="{&quot;isPaintingLayer&quot;:true}" fill="#ffffff" fill-rule="nonzero" stroke="none" stroke-width="1" stroke-linecap="butt" stroke-linejoin="miter" stroke-miterlimit="10" stroke-dasharray="" stroke-dashoffset="0" style="mix-blend-mode: normal"><path d="M230.02033,170.40454c0,-0.52476 0.09995,-1.01827 0.29985,-1.48056c0.19991,-0.47477 0.47478,-0.88083 0.82461,-1.21816c0.34984,-0.34984 0.7559,-0.62471 1.21817,-0.82462c0.47478,-0.2124 0.97455,-0.3186 1.4993,-0.3186h12.27538c0.52476,0 1.01835,0.1062 1.48062,0.3186c0.47471,0.19991 0.88708,0.47478 1.23697,0.82462c0.34974,0.33733 0.6247,0.7434 0.8246,1.21816c0.19989,0.46229 0.29984,0.9558 0.29984,1.48056v3.46711h-3.84202v-3.46711h-12.27538v7.68386h12.27538c0.52476,0 1.01835,0.09996 1.48062,0.29985c0.47471,0.19991 0.88708,0.47478 1.23697,0.82461c0.34974,0.34984 0.6247,0.76214 0.8246,1.23692c0.19989,0.46227 0.29984,0.95582 0.29984,1.48057v7.66516c0,0.52476 -0.09995,1.02449 -0.29984,1.4992c-0.19989,0.46227 -0.47486,0.86835 -0.8246,1.21824c-0.34989,0.34974 -0.76226,0.6247 -1.23697,0.8246c-0.46227,0.19989 -0.95586,0.29984 -1.48062,0.29984h-12.27538c-0.52476,0 -1.02452,-0.09995 -1.4993,-0.29984c-0.46227,-0.19989 -0.86834,-0.47486 -1.21817,-0.8246c-0.34984,-0.34989 -0.6247,-0.75597 -0.82461,-1.21824c-0.19991,-0.47471 -0.29985,-0.97444 -0.29985,-1.4992zM233.86227,181.93037v7.66516h12.27538v-7.66516z"/></g></g></svg>