<svg xmlns="http://www.w3.org/2000/svg" fill="none" viewBox="0 0 14 18" height="18" width="14">
<path fill="black" d="M13.4531 13.752C13.4287 15.1761 13.0706 16.2422 12.3789 16.9502C11.6872 17.6501 10.6292 18 9.20508 18H4.50537C1.6652 18 0.245117 16.584 0.245117 13.752V12.7021H2.69873V13.6299C2.69873 14.2891 2.84521 14.7733 3.13818 15.0825C3.43115 15.3918 3.9113 15.5464 4.57861 15.5464H9.11963C9.78695 15.5464 10.2671 15.3918 10.5601 15.0825C10.853 14.7733 10.9995 14.2891 10.9995 13.6299V11.2739C10.9995 10.6147 10.853 10.1346 10.5601 9.8335C10.2671 9.52425 9.78695 9.36963 9.11963 9.36963H0.745605V0.495117H13.0015V2.99756H3.24805V6.92822H9.20508C10.6374 6.92822 11.7035 7.27816 12.4033 7.97803C13.1032 8.66976 13.4531 9.73584 13.4531 11.1763V13.752Z"></path>
</svg>
