<svg version="1.1" xmlns="http://www.w3.org/2000/svg" xmlns:xlink="http://www.w3.org/1999/xlink" width="234.992" height="42.45777" viewBox="0,0,234.992,42.45777"><g transform="translate(-99.34162,-157.34777)"><g data-paper-data="{&quot;isPaintingLayer&quot;:true}" fill-rule="nonzero" stroke-width="0" stroke-linecap="butt" stroke-linejoin="miter" stroke-miterlimit="10" stroke-dasharray="" stroke-dashoffset="0" style="mix-blend-mode: normal"><path d="M132.58409,157.34777h201.74953v42.45777h-234.992z" fill="#ff914d" stroke="#ffffff"/><path d="M146.64234,190.08563l-6.63238,-22.37814h3.31605l5.14429,17.80573l5.12801,-17.80573h3.31633l5.12801,17.80573l5.1443,-17.80573h3.31633l-6.6324,22.37814h-3.6399l-4.96621,-16.77581l-4.98251,16.77581zM188.05511,187.01137c0,0.42666 -0.08614,0.82722 -0.25869,1.20168c-0.16179,0.37446 -0.38845,0.70231 -0.67944,0.98302c-0.28051,0.27059 -0.61484,0.48899 -1.00302,0.65545c-0.37741,0.15606 -0.7874,0.23409 -1.22942,0.23409h-8.55754c-0.43152,0 -0.84122,-0.07803 -1.22941,-0.23409c-0.38845,-0.16646 -0.72803,-0.38486 -1.0193,-0.65545c-0.28024,-0.28071 -0.50689,-0.60857 -0.67945,-0.98302c-0.16179,-0.37446 -0.24268,-0.77502 -0.24268,-1.20168v-10.47121c0,-0.42652 0.08089,-0.82707 0.24268,-1.2016c0.17255,-0.37452 0.39921,-0.69705 0.67945,-0.96753c0.29128,-0.2809 0.63085,-0.49938 1.0193,-0.65542c0.38818,-0.16646 0.79788,-0.24968 1.22941,-0.24968h8.55754c0.44202,0 0.852,0.08323 1.22942,0.24968c0.38818,0.15604 0.72251,0.37452 1.00302,0.65542c0.291,0.27049 0.51765,0.59303 0.67944,0.96753c0.17255,0.37455 0.25869,0.77508 0.25869,1.2016zM176.32702,176.54015v10.4712h8.55753v-10.4712zM196.54803,176.54015v13.54549h-3.17057v-16.61973h3.17057v2.93382c0.02154,-0.40575 0.11871,-0.78546 0.29127,-1.13921c0.17255,-0.36411 0.39894,-0.67622 0.67944,-0.93632c0.291,-0.27049 0.62534,-0.47857 1.00275,-0.62421c0.37768,-0.15606 0.78188,-0.23407 1.2134,-0.23407h3.38094c0.44228,0 0.852,0.08323 1.22942,0.24968c0.38818,0.15604 0.72805,0.37452 1.01902,0.65542c0.29128,0.27049 0.51765,0.59303 0.67944,0.96753c0.17255,0.37455 0.25896,0.77508 0.25896,1.2016v2.80899h-3.18686v-2.80899zM221.65435,190.08563l-8.21767,-7.10043v7.10043h-3.17083v-23.01798h3.17083v12.95252l7.55451,-6.55427h4.48113l-9.25325,8.02118l9.91643,8.59856zM243.34774,187.01137c0,0.42666 -0.08642,0.82722 -0.25898,1.20168c-0.16179,0.37446 -0.38816,0.70231 -0.67944,0.98302c-0.28024,0.27059 -0.61457,0.48899 -1.00302,0.65545c-0.37741,0.15606 -0.78712,0.23409 -1.22942,0.23409h-8.55752c-0.43124,0 -0.84123,-0.07803 -1.22942,-0.23409c-0.38818,-0.16646 -0.72804,-0.38486 -1.01904,-0.65545c-0.28051,-0.28071 -0.50689,-0.60857 -0.67945,-0.98302c-0.16179,-0.37446 -0.24268,-0.77502 -0.24268,-1.20168v-10.47121c0,-0.42652 0.08089,-0.82707 0.24268,-1.2016c0.17255,-0.37452 0.39894,-0.69705 0.67945,-0.96753c0.291,-0.2809 0.63085,-0.49938 1.01904,-0.65542c0.38818,-0.16646 0.79817,-0.24968 1.22942,-0.24968h8.55752c0.44228,0 0.852,0.08323 1.22942,0.24968c0.38845,0.15604 0.72278,0.37452 1.00302,0.65542c0.29128,0.27049 0.51765,0.59303 0.67944,0.96753c0.17255,0.37455 0.25898,0.77508 0.25898,1.2016zM231.61938,176.54015v10.4712h8.55752v-10.4712zM248.66982,173.4659h3.17056v13.54547h8.8811v-13.54545h3.18686v16.61973h-3.18686v-2.80901c-0.03231,0.38512 -0.14025,0.74919 -0.32358,1.0925c-0.18332,0.3433 -0.42047,0.64505 -0.71175,0.905c-0.28024,0.24982 -0.6038,0.44743 -0.97043,0.59311c-0.36663,0.14568 -0.7551,0.2184 -1.16479,0.2184h-5.71053c-0.43124,0 -0.84124,-0.07804 -1.22942,-0.2341c-0.38818,-0.16646 -0.72803,-0.38485 -1.01902,-0.65544c-0.28051,-0.28071 -0.50688,-0.60858 -0.67944,-0.98303c-0.16179,-0.37446 -0.24268,-0.77502 -0.24268,-1.20168zM268.21137,173.4659h4.20616v-5.11861h3.18686v5.11861h5.66167v3.07424h-5.66167v10.4712h5.66167v3.07426h-5.66167c-0.43152,0 -0.84125,-0.07803 -1.2297,-0.23409c-0.38818,-0.16646 -0.72775,-0.38486 -1.01902,-0.65545c-0.29128,-0.28071 -0.52317,-0.60857 -0.69572,-0.98302c-0.16152,-0.37446 -0.24241,-0.77502 -0.24241,-1.20168v-10.47121h-4.20616z" fill="#ffffff" stroke="#000000"/></g></g></svg>