<svg version="1.1" xmlns="http://www.w3.org/2000/svg" xmlns:xlink="http://www.w3.org/1999/xlink" width="449.71657" height="29.45262" viewBox="0,0,449.71657,29.45262"><g transform="translate(-15.21143,-165.44678)"><g data-paper-data="{&quot;isPaintingLayer&quot;:true}" fill="#57a71a" fill-rule="nonzero" stroke="#57a71a" stroke-width="0.5" stroke-linecap="butt" stroke-linejoin="miter" stroke-miterlimit="10" stroke-dasharray="" stroke-dashoffset="0" style="mix-blend-mode: normal"><path d="M16.96289,176.5h-1.50146v-10.50293h1.50146l6.31348,8.14453v-8.14453h1.50143v10.50293h-1.50143l-6.31348,-8.14453zM34.0723,175.0571c0,0.2002 -0.0391,0.3882 -0.1172,0.564c-0.0733,0.1758 -0.1758,0.3296 -0.3076,0.4614c-0.127,0.127 -0.2784,0.2295 -0.4541,0.3076c-0.1709,0.0733 -0.3565,0.1099 -0.5567,0.1099h-3.8745c-0.1953,0 -0.3809,-0.0366 -0.5566,-0.1099c-0.1758,-0.0781 -0.3296,-0.1806 -0.4615,-0.3076c-0.1269,-0.1318 -0.2295,-0.2856 -0.3076,-0.4614c-0.0732,-0.1758 -0.1098,-0.3638 -0.1098,-0.564v-4.91452c0,-0.2002 0.0366,-0.38819 0.1098,-0.56397c0.0781,-0.17578 0.1807,-0.32715 0.3076,-0.4541c0.1319,-0.13183 0.2857,-0.23437 0.4615,-0.30762c0.1757,-0.07812 0.3613,-0.11718 0.5566,-0.11718h3.8745c0.2002,0 0.3858,0.03906 0.5567,0.11718c0.1757,0.07325 0.3271,0.17579 0.4541,0.30762c0.1318,0.12695 0.2343,0.27832 0.3076,0.4541c0.0781,0.17578 0.1172,0.36377 0.1172,0.56397zM28.7622,170.14258v4.91452h3.8745v-4.91452zM45.7764,165.99707l4.0503,10.50293h-1.5015l-0.9302,-2.41699h-4.7388l-0.9301,2.41699h-1.5015l4.0503,-10.50293zM43.2275,172.58154h3.5889l-1.7871,-4.6289zM53.7012,176.5l-3.1201,-7.80029h1.5014l2.3657,6.07179l2.3731,-6.07179h1.5015l-3.1202,7.80029zM59.8315,173.09424c0,-0.2002 0.0367,-0.38574 0.1099,-0.55664c0.0781,-0.17578 0.1807,-0.32959 0.3076,-0.46143c0.1319,-0.13183 0.2857,-0.23437 0.4614,-0.30762c0.1758,-0.07812 0.3614,-0.11718 0.5567,-0.11718h3.7207v-1.50879h-4.7095v-1.44287h4.7095c0.2002,0 0.3882,0.03906 0.564,0.11718c0.1757,0.07325 0.3271,0.17579 0.4541,0.30762c0.1318,0.12695 0.2343,0.27832 0.3076,0.4541c0.0781,0.17578 0.1172,0.36377 0.1172,0.56397v6.35742h-1.4429v-1.3184c-0.0147,0.1807 -0.0635,0.3516 -0.1465,0.5127c-0.083,0.1612 -0.1904,0.3028 -0.3223,0.4248c-0.1269,0.1172 -0.2734,0.21 -0.4394,0.2784c-0.166,0.0683 -0.3418,0.1025 -0.5274,0.1025h-2.2851c-0.1953,0 -0.3809,-0.0366 -0.5567,-0.1099c-0.1757,-0.0781 -0.3295,-0.1806 -0.4614,-0.3076c-0.1269,-0.1318 -0.2295,-0.2856 -0.3076,-0.4614c-0.0732,-0.1758 -0.1099,-0.3638 -0.1099,-0.564zM61.2671,175.0571h3.7207v-1.96286h-3.7207zM70.3564,168.69971v7.80029h-1.4428v-7.80029zM68.8403,165.69678h1.5894v1.50146h-1.5894zM74.2749,165.69678v10.80322h-1.4355v-10.80322zM76.6772,173.09424c0,-0.2002 0.0367,-0.38574 0.1099,-0.55664c0.0781,-0.17578 0.1807,-0.32959 0.3076,-0.46143c0.1319,-0.13183 0.2857,-0.23437 0.4615,-0.30762c0.1757,-0.07812 0.3613,-0.11718 0.5566,-0.11718h3.7207v-1.50879h-4.7095v-1.44287h4.7095c0.2002,0 0.3882,0.03906 0.564,0.11718c0.1757,0.07325 0.3271,0.17579 0.4541,0.30762c0.1318,0.12695 0.2343,0.27832 0.3076,0.4541c0.0781,0.17578 0.1172,0.36377 0.1172,0.56397v6.35742h-1.4429v-1.3184c-0.0147,0.1807 -0.0635,0.3516 -0.1465,0.5127c-0.083,0.1612 -0.1904,0.3028 -0.3223,0.4248c-0.1269,0.1172 -0.2734,0.21 -0.4394,0.2784c-0.166,0.0683 -0.3418,0.1025 -0.5274,0.1025h-2.2851c-0.1953,0 -0.3809,-0.0366 -0.5566,-0.1099c-0.1758,-0.0781 -0.3296,-0.1806 -0.4615,-0.3076c-0.1269,-0.1318 -0.2295,-0.2856 -0.3076,-0.4614c-0.0732,-0.1758 -0.1099,-0.3638 -0.1099,-0.564zM78.1128,175.0571h3.7207v-1.96286h-3.7207zM92.5854,175.0571c0,0.2002 -0.039,0.3882 -0.1171,0.564c-0.0733,0.1758 -0.1758,0.3296 -0.3077,0.4614c-0.1269,0.127 -0.2783,0.2295 -0.4541,0.3076c-0.1757,0.0733 -0.3637,0.1099 -0.5639,0.1099h-4.021c-0.1953,0 -0.3809,-0.0366 -0.5567,-0.1099c-0.1757,-0.0781 -0.3295,-0.1806 -0.4614,-0.3076c-0.1269,-0.1318 -0.2295,-0.2856 -0.3076,-0.4614c-0.0732,-0.1758 -0.1099,-0.3638 -0.1099,-0.564v-9.36032h1.4356v4.37988c0.0097,-0.19043 0.0537,-0.36865 0.1318,-0.53467c0.0781,-0.1709 0.1807,-0.31738 0.3076,-0.43945c0.1319,-0.12695 0.2832,-0.22461 0.4541,-0.29297c0.1709,-0.07324 0.354,-0.10986 0.5494,-0.10986h2.5781c0.2002,0 0.3882,0.03906 0.5639,0.11718c0.1758,0.07325 0.3272,0.17579 0.4541,0.30762c0.1319,0.12695 0.2344,0.27832 0.3077,0.4541c0.0781,0.17578 0.1171,0.36377 0.1171,0.56397zM87.1216,170.14258v4.91452h4.021v-4.91452zM96.4233,165.69678v10.80322h-1.4355v-10.80322zM105.4248,173.33594h-5.1636v1.72116h5.1636v1.4429h-5.1636c-0.1953,0 -0.3808,-0.0366 -0.5566,-0.1099c-0.1758,-0.0781 -0.3296,-0.1806 -0.4614,-0.3076c-0.127,-0.1318 -0.2295,-0.2856 -0.3077,-0.4614c-0.0732,-0.1758 -0.1098,-0.3638 -0.1098,-0.564v-4.91452c0,-0.2002 0.0366,-0.38819 0.1098,-0.56397c0.0782,-0.17578 0.1807,-0.32715 0.3077,-0.4541c0.1318,-0.13183 0.2856,-0.23437 0.4614,-0.30762c0.1758,-0.07812 0.3613,-0.11718 0.5566,-0.11718h3.7207c0.2002,0 0.3882,0.03906 0.564,0.11718c0.1758,0.07325 0.3271,0.17579 0.4541,0.30762c0.1318,0.12695 0.2344,0.27832 0.3076,0.4541c0.0781,0.17578 0.1172,0.36377 0.1172,0.56397zM100.2612,170.14258v1.75049h3.7207v-1.75049zM113.9502,176.5l-2.5195,-7.80029h1.4575l1.8458,5.88139l1.721,-5.88139h1.472l1.721,5.88139l1.846,-5.88139h1.458l-2.52,7.80029h-1.501l-1.743,-5.72754l-1.736,5.72754zM131.206,175.0571c0,0.2002 -0.039,0.3882 -0.117,0.564c-0.073,0.1758 -0.176,0.3296 -0.308,0.4614c-0.127,0.127 -0.278,0.2295 -0.454,0.3076c-0.171,0.0733 -0.356,0.1099 -0.556,0.1099h-3.875c-0.195,0 -0.381,-0.0366 -0.557,-0.1099c-0.175,-0.0781 -0.329,-0.1806 -0.461,-0.3076c-0.127,-0.1318 -0.23,-0.2856 -0.308,-0.4614c-0.073,-0.1758 -0.11,-0.3638 -0.11,-0.564v-4.91452c0,-0.2002 0.037,-0.38819 0.11,-0.56397c0.078,-0.17578 0.181,-0.32715 0.308,-0.4541c0.132,-0.13183 0.286,-0.23437 0.461,-0.30762c0.176,-0.07812 0.362,-0.11718 0.557,-0.11718h3.875c0.2,0 0.385,0.03906 0.556,0.11718c0.176,0.07325 0.327,0.17579 0.454,0.30762c0.132,0.12695 0.235,0.27832 0.308,0.4541c0.078,0.17578 0.117,0.36377 0.117,0.56397zM125.896,170.14258v4.91452h3.875v-4.91452zM135.051,170.14258v6.35742h-1.435v-7.80029h1.435v1.37695c0.01,-0.19043 0.054,-0.36865 0.132,-0.53467c0.078,-0.1709 0.181,-0.31738 0.308,-0.43945c0.132,-0.12695 0.283,-0.22461 0.454,-0.29297c0.171,-0.07324 0.354,-0.10986 0.549,-0.10986h1.531c0.2,0 0.386,0.03906 0.557,0.11718c0.175,0.07325 0.329,0.17579 0.461,0.30762c0.132,0.12695 0.234,0.27832 0.308,0.4541c0.078,0.17578 0.117,0.36377 0.117,0.56397v1.31836h-1.443v-1.31836zM146.418,176.5l-3.72,-3.33252v3.33252h-1.436v-10.80322h1.436v6.0791l3.42,-3.07617h2.029l-4.189,3.76465l4.489,4.03564zM156.24,175.0571c0,0.2002 -0.039,0.3882 -0.117,0.564c-0.073,0.1758 -0.176,0.3296 -0.308,0.4614c-0.127,0.127 -0.278,0.2295 -0.454,0.3076c-0.171,0.0733 -0.356,0.1099 -0.556,0.1099h-3.875c-0.195,0 -0.381,-0.0366 -0.556,-0.1099c-0.176,-0.0781 -0.33,-0.1806 -0.462,-0.3076c-0.127,-0.1318 -0.229,-0.2856 -0.308,-0.4614c-0.073,-0.1758 -0.109,-0.3638 -0.109,-0.564v-4.91452c0,-0.2002 0.036,-0.38819 0.109,-0.56397c0.079,-0.17578 0.181,-0.32715 0.308,-0.4541c0.132,-0.13183 0.286,-0.23437 0.462,-0.30762c0.175,-0.07812 0.361,-0.11718 0.556,-0.11718h3.875c0.2,0 0.385,0.03906 0.556,0.11718c0.176,0.07325 0.327,0.17579 0.454,0.30762c0.132,0.12695 0.235,0.27832 0.308,0.4541c0.078,0.17578 0.117,0.36377 0.117,0.56397zM150.93,170.14258v4.91452h3.875v-4.91452zM158.65,168.69971h1.435v6.35739h4.021v-6.35739h1.443v7.80029h-1.443v-1.3184c-0.014,0.1807 -0.063,0.3516 -0.146,0.5127c-0.083,0.1612 -0.19,0.3028 -0.322,0.4248c-0.127,0.1172 -0.274,0.21 -0.44,0.2784c-0.166,0.0683 -0.342,0.1025 -0.527,0.1025h-2.586c-0.195,0 -0.38,-0.0366 -0.556,-0.1099c-0.176,-0.0781 -0.33,-0.1806 -0.462,-0.3076c-0.127,-0.1318 -0.229,-0.2856 -0.307,-0.4614c-0.073,-0.1758 -0.11,-0.3638 -0.11,-0.564zM167.498,168.69971h1.904v-2.40235h1.443v2.40235h2.563v1.44287h-2.563v4.91452h2.563v1.4429h-2.563c-0.196,0 -0.381,-0.0366 -0.557,-0.1099c-0.176,-0.0781 -0.33,-0.1806 -0.461,-0.3076c-0.132,-0.1318 -0.237,-0.2856 -0.315,-0.4614c-0.074,-0.1758 -0.11,-0.3638 -0.11,-0.564v-4.91452h-1.904zM180.527,175.0571v-1.80905h-3.42c-0.2,0 -0.388,-0.03662 -0.564,-0.10987c-0.176,-0.07812 -0.33,-0.18066 -0.461,-0.30761c-0.127,-0.13184 -0.23,-0.28565 -0.308,-0.46143c-0.073,-0.17578 -0.11,-0.36377 -0.11,-0.56396v-1.6626c0,-0.2002 0.037,-0.38819 0.11,-0.56397c0.078,-0.17578 0.181,-0.32715 0.308,-0.4541c0.131,-0.13183 0.285,-0.23437 0.461,-0.30762c0.176,-0.07812 0.364,-0.11718 0.564,-0.11718h4.563v1.44287h-4.563v1.6626h3.42c0.201,0 0.386,0.03906 0.557,0.11718c0.176,0.07325 0.33,0.17578 0.461,0.30762c0.132,0.12695 0.235,0.27832 0.308,0.4541c0.078,0.17578 0.117,0.36377 0.117,0.56397v1.80905c0,0.2002 -0.039,0.3882 -0.117,0.564c-0.073,0.1758 -0.176,0.3296 -0.308,0.4614c-0.131,0.127 -0.285,0.2295 -0.461,0.3076c-0.171,0.0733 -0.356,0.1099 -0.557,0.1099h-4.863v-1.4429zM191.616,167.13965v1.56006h2.564v1.44287h-2.564v6.35742h-1.443v-6.35742h-1.904v-1.44287h1.904v-1.56006c0,-0.2002 0.037,-0.38574 0.11,-0.55664c0.078,-0.17578 0.183,-0.32959 0.315,-0.46143c0.132,-0.13183 0.286,-0.23437 0.462,-0.30762c0.175,-0.07812 0.361,-0.11718 0.556,-0.11718h2.564v1.44287zM202.881,175.0571c0,0.2002 -0.039,0.3882 -0.117,0.564c-0.074,0.1758 -0.176,0.3296 -0.308,0.4614c-0.127,0.127 -0.278,0.2295 -0.454,0.3076c-0.171,0.0733 -0.356,0.1099 -0.557,0.1099h-3.874c-0.196,0 -0.381,-0.0366 -0.557,-0.1099c-0.176,-0.0781 -0.329,-0.1806 -0.461,-0.3076c-0.127,-0.1318 -0.23,-0.2856 -0.308,-0.4614c-0.073,-0.1758 -0.11,-0.3638 -0.11,-0.564v-4.91452c0,-0.2002 0.037,-0.38819 0.11,-0.56397c0.078,-0.17578 0.181,-0.32715 0.308,-0.4541c0.132,-0.13183 0.285,-0.23437 0.461,-0.30762c0.176,-0.07812 0.361,-0.11718 0.557,-0.11718h3.874c0.201,0 0.386,0.03906 0.557,0.11718c0.176,0.07325 0.327,0.17579 0.454,0.30762c0.132,0.12695 0.234,0.27832 0.308,0.4541c0.078,0.17578 0.117,0.36377 0.117,0.56397zM197.571,170.14258v4.91452h3.874v-4.91452zM206.726,170.14258v6.35742h-1.435v-7.80029h1.435v1.37695c0.01,-0.19043 0.054,-0.36865 0.132,-0.53467c0.078,-0.1709 0.181,-0.31738 0.308,-0.43945c0.131,-0.12695 0.283,-0.22461 0.454,-0.29297c0.171,-0.07324 0.354,-0.10986 0.549,-0.10986h1.531c0.2,0 0.385,0.03906 0.556,0.11718c0.176,0.07325 0.33,0.17579 0.462,0.30762c0.132,0.12695 0.234,0.27832 0.307,0.4541c0.079,0.17578 0.118,0.36377 0.118,0.56397v1.31836h-1.443v-1.31836zM219.983,165.99707v10.50293h-1.502v-9.00146h-1.801v-1.50147zM233.936,175.0571c0,0.2002 -0.04,0.3882 -0.118,0.564c-0.073,0.1758 -0.175,0.3296 -0.307,0.4614c-0.127,0.127 -0.279,0.2295 -0.454,0.3076c-0.171,0.0733 -0.357,0.1099 -0.557,0.1099h-3.875c-0.195,0 -0.38,-0.0366 -0.556,-0.1099c-0.176,-0.0781 -0.33,-0.1806 -0.462,-0.3076c-0.127,-0.1318 -0.229,-0.2856 -0.307,-0.4614c-0.073,-0.1758 -0.11,-0.3638 -0.11,-0.564v-4.91452c0,-0.2002 0.037,-0.38819 0.11,-0.56397c0.078,-0.17578 0.18,-0.32715 0.307,-0.4541c0.132,-0.13183 0.286,-0.23437 0.462,-0.30762c0.176,-0.07812 0.361,-0.11718 0.556,-0.11718h3.875c0.2,0 0.386,0.03906 0.557,0.11718c0.175,0.07325 0.327,0.17579 0.454,0.30762c0.132,0.12695 0.234,0.27832 0.307,0.4541c0.078,0.17578 0.118,0.36377 0.118,0.56397zM228.625,170.14258v4.91452h3.875v-4.91452zM237.781,170.14258v6.35742h-1.436v-7.80029h1.436v1.37695c0.01,-0.19043 0.053,-0.36865 0.132,-0.53467c0.078,-0.1709 0.18,-0.31738 0.307,-0.43945c0.132,-0.12695 0.283,-0.22461 0.454,-0.29297c0.171,-0.07324 0.354,-0.10986 0.55,-0.10986h1.53c0.201,0 0.386,0.03906 0.557,0.11718c0.176,0.07325 0.33,0.17579 0.461,0.30762c0.132,0.12695 0.235,0.27832 0.308,0.4541c0.078,0.17578 0.117,0.36377 0.117,0.56397v1.31836h-1.443v-1.31836zM254.67,170.14258v6.35742h-1.442v-6.35742h-3.304v6.35742h-1.435v-7.80029h1.435v1.37695c0.01,-0.19043 0.054,-0.36865 0.132,-0.53467c0.078,-0.1709 0.181,-0.31738 0.308,-0.43945c0.132,-0.12695 0.283,-0.22461 0.454,-0.29297c0.171,-0.07324 0.354,-0.10986 0.549,-0.10986h1.861c0.19,0 0.371,0.03662 0.542,0.10986c0.17,0.06836 0.322,0.16602 0.454,0.29297c0.131,0.12207 0.236,0.26855 0.315,0.43945c0.083,0.16602 0.127,0.34424 0.131,0.53467c0.01,-0.19043 0.052,-0.36865 0.125,-0.53467c0.078,-0.1709 0.181,-0.31738 0.308,-0.43945c0.131,-0.12695 0.283,-0.22461 0.454,-0.29297c0.171,-0.07324 0.354,-0.10986 0.549,-0.10986h1.86c0.201,0 0.388,0.03906 0.564,0.11718c0.176,0.07325 0.327,0.17579 0.454,0.30762c0.132,0.12695 0.235,0.27832 0.308,0.4541c0.078,0.17578 0.117,0.36377 0.117,0.56397v6.35742h-1.443v-6.35742zM268.564,175.0571c0,0.2002 -0.039,0.3882 -0.117,0.564c-0.073,0.1758 -0.176,0.3296 -0.307,0.4614c-0.127,0.127 -0.279,0.2295 -0.454,0.3076c-0.171,0.0733 -0.357,0.1099 -0.557,0.1099h-3.875c-0.195,0 -0.38,-0.0366 -0.556,-0.1099c-0.176,-0.0781 -0.33,-0.1806 -0.462,-0.3076c-0.127,-0.1318 -0.229,-0.2856 -0.307,-0.4614c-0.074,-0.1758 -0.11,-0.3638 -0.11,-0.564v-4.91452c0,-0.2002 0.036,-0.38819 0.11,-0.56397c0.078,-0.17578 0.18,-0.32715 0.307,-0.4541c0.132,-0.13183 0.286,-0.23437 0.462,-0.30762c0.176,-0.07812 0.361,-0.11718 0.556,-0.11718h3.875c0.2,0 0.386,0.03906 0.557,0.11718c0.175,0.07325 0.327,0.17579 0.454,0.30762c0.131,0.12695 0.234,0.27832 0.307,0.4541c0.078,0.17578 0.117,0.36377 0.117,0.56397zM263.254,170.14258v4.91452h3.875v-4.91452zM272.41,170.14258v6.35742h-1.436v-7.80029h1.436v1.37695c0.009,-0.19043 0.053,-0.36865 0.132,-0.53467c0.078,-0.1709 0.18,-0.31738 0.307,-0.43945c0.132,-0.12695 0.283,-0.22461 0.454,-0.29297c0.171,-0.07324 0.354,-0.10986 0.55,-0.10986h1.53c0.2,0 0.386,0.03906 0.557,0.11718c0.176,0.07325 0.33,0.17579 0.461,0.30762c0.132,0.12695 0.235,0.27832 0.308,0.4541c0.078,0.17578 0.117,0.36377 0.117,0.56397v1.31836h-1.443v-1.31836zM285.22,173.33594h-5.164v1.72116h5.164v1.4429h-5.164c-0.195,0 -0.381,-0.0366 -0.556,-0.1099c-0.176,-0.0781 -0.33,-0.1806 -0.462,-0.3076c-0.127,-0.1318 -0.229,-0.2856 -0.308,-0.4614c-0.073,-0.1758 -0.109,-0.3638 -0.109,-0.564v-4.91452c0,-0.2002 0.036,-0.38819 0.109,-0.56397c0.079,-0.17578 0.181,-0.32715 0.308,-0.4541c0.132,-0.13183 0.286,-0.23437 0.462,-0.30762c0.175,-0.07812 0.361,-0.11718 0.556,-0.11718h3.721c0.2,0 0.388,0.03906 0.564,0.11718c0.176,0.07325 0.327,0.17579 0.454,0.30762c0.132,0.12695 0.234,0.27832 0.308,0.4541c0.078,0.17578 0.117,0.36377 0.117,0.56397zM280.056,170.14258v1.75049h3.721v-1.75049zM298.872,175.0571c0,0.2002 -0.039,0.3882 -0.117,0.564c-0.073,0.1758 -0.176,0.3296 -0.308,0.4614c-0.127,0.127 -0.278,0.2295 -0.454,0.3076c-0.171,0.0733 -0.356,0.1099 -0.556,0.1099h-3.875c-0.195,0 -0.381,-0.0366 -0.557,-0.1099c-0.175,-0.0781 -0.329,-0.1806 -0.461,-0.3076c-0.127,-0.1318 -0.23,-0.2856 -0.308,-0.4614c-0.073,-0.1758 -0.11,-0.3638 -0.11,-0.564v-4.91452c0,-0.2002 0.037,-0.38819 0.11,-0.56397c0.078,-0.17578 0.181,-0.32715 0.308,-0.4541c0.132,-0.13183 0.286,-0.23437 0.461,-0.30762c0.176,-0.07812 0.362,-0.11718 0.557,-0.11718h3.875c0.2,0 0.385,0.03906 0.556,0.11718c0.176,0.07325 0.327,0.17579 0.454,0.30762c0.132,0.12695 0.235,0.27832 0.308,0.4541c0.078,0.17578 0.117,0.36377 0.117,0.56397zM293.562,170.14258v4.91452h3.875v-4.91452zM304.175,167.13965v1.56006h2.563v1.44287h-2.563v6.35742h-1.443v-6.35742h-1.904v-1.44287h1.904v-1.56006c0,-0.2002 0.037,-0.38574 0.11,-0.55664c0.078,-0.17578 0.183,-0.32959 0.315,-0.46143c0.132,-0.13183 0.285,-0.23437 0.461,-0.30762c0.176,-0.07812 0.361,-0.11718 0.557,-0.11718h2.563v1.44287zM313.718,179.6494l1.634,-3.8525l-3.062,-7.09719h1.516l2.278,5.36865l2.278,-5.36865h1.516l-4.724,10.94969zM328.125,175.0571c0,0.2002 -0.039,0.3882 -0.117,0.564c-0.073,0.1758 -0.176,0.3296 -0.308,0.4614c-0.127,0.127 -0.278,0.2295 -0.454,0.3076c-0.171,0.0733 -0.356,0.1099 -0.557,0.1099h-3.874c-0.195,0 -0.381,-0.0366 -0.557,-0.1099c-0.175,-0.0781 -0.329,-0.1806 -0.461,-0.3076c-0.127,-0.1318 -0.23,-0.2856 -0.308,-0.4614c-0.073,-0.1758 -0.11,-0.3638 -0.11,-0.564v-4.91452c0,-0.2002 0.037,-0.38819 0.11,-0.56397c0.078,-0.17578 0.181,-0.32715 0.308,-0.4541c0.132,-0.13183 0.286,-0.23437 0.461,-0.30762c0.176,-0.07812 0.362,-0.11718 0.557,-0.11718h3.874c0.201,0 0.386,0.03906 0.557,0.11718c0.176,0.07325 0.327,0.17579 0.454,0.30762c0.132,0.12695 0.235,0.27832 0.308,0.4541c0.078,0.17578 0.117,0.36377 0.117,0.56397zM322.815,170.14258v4.91452h3.874v-4.91452zM330.535,168.69971h1.435v6.35739h4.021v-6.35739h1.443v7.80029h-1.443v-1.3184c-0.014,0.1807 -0.063,0.3516 -0.146,0.5127c-0.083,0.1612 -0.191,0.3028 -0.323,0.4248c-0.126,0.1172 -0.273,0.21 -0.439,0.2784c-0.166,0.0683 -0.342,0.1025 -0.527,0.1025h-2.586c-0.195,0 -0.381,-0.0366 -0.556,-0.1099c-0.176,-0.0781 -0.33,-0.1806 -0.462,-0.3076c-0.127,-0.1318 -0.229,-0.2856 -0.307,-0.4614c-0.074,-0.1758 -0.11,-0.3638 -0.11,-0.564zM341.272,170.14258v6.35742h-1.436v-7.80029h1.436v1.37695c0.01,-0.19043 0.054,-0.36865 0.132,-0.53467c0.078,-0.1709 0.18,-0.31738 0.307,-0.43945c0.132,-0.12695 0.284,-0.22461 0.455,-0.29297c0.17,-0.07324 0.354,-0.10986 0.549,-0.10986h1.531c0.2,0 0.385,0.03906 0.556,0.11718c0.176,0.07325 0.33,0.17579 0.462,0.30762c0.132,0.12695 0.234,0.27832 0.307,0.4541c0.078,0.17578 0.117,0.36377 0.117,0.56397v1.31836h-1.442v-1.31836zM358.162,170.14258v6.35742h-1.443v-6.35742h-3.303v6.35742h-1.436v-7.80029h1.436v1.37695c0.009,-0.19043 0.053,-0.36865 0.131,-0.53467c0.078,-0.1709 0.181,-0.31738 0.308,-0.43945c0.132,-0.12695 0.283,-0.22461 0.454,-0.29297c0.171,-0.07324 0.354,-0.10986 0.549,-0.10986h1.861c0.19,0 0.371,0.03662 0.542,0.10986c0.171,0.06836 0.322,0.16602 0.454,0.29297c0.132,0.12207 0.237,0.26855 0.315,0.43945c0.083,0.16602 0.127,0.34424 0.132,0.53467c0.009,-0.19043 0.051,-0.36865 0.124,-0.53467c0.078,-0.1709 0.181,-0.31738 0.308,-0.43945c0.132,-0.12695 0.283,-0.22461 0.454,-0.29297c0.171,-0.07324 0.354,-0.10986 0.549,-0.10986h1.861c0.2,0 0.388,0.03906 0.563,0.11718c0.176,0.07325 0.328,0.17579 0.455,0.30762c0.131,0.12695 0.234,0.27832 0.307,0.4541c0.078,0.17578 0.117,0.36377 0.117,0.56397v6.35742h-1.442v-6.35742zM365.31,168.69971h1.436v6.35739h4.021v-6.35739h1.442v7.80029h-1.442v-1.3184c-0.015,0.1807 -0.064,0.3516 -0.147,0.5127c-0.083,0.1612 -0.19,0.3028 -0.322,0.4248c-0.127,0.1172 -0.274,0.21 -0.44,0.2784c-0.166,0.0683 -0.341,0.1025 -0.527,0.1025h-2.585c-0.196,0 -0.381,-0.0366 -0.557,-0.1099c-0.176,-0.0781 -0.33,-0.1806 -0.461,-0.3076c-0.127,-0.1318 -0.23,-0.2856 -0.308,-0.4614c-0.073,-0.1758 -0.11,-0.3638 -0.11,-0.564zM379.321,175.0571v-1.80905h-3.42c-0.2,0 -0.388,-0.03662 -0.564,-0.10987c-0.176,-0.07812 -0.33,-0.18066 -0.462,-0.30761c-0.126,-0.13184 -0.229,-0.28565 -0.307,-0.46143c-0.073,-0.17578 -0.11,-0.36377 -0.11,-0.56396v-1.6626c0,-0.2002 0.037,-0.38819 0.11,-0.56397c0.078,-0.17578 0.181,-0.32715 0.307,-0.4541c0.132,-0.13183 0.286,-0.23437 0.462,-0.30762c0.176,-0.07812 0.364,-0.11718 0.564,-0.11718h4.563v1.44287h-4.563v1.6626h3.42c0.2,0 0.386,0.03906 0.557,0.11718c0.176,0.07325 0.33,0.17578 0.461,0.30762c0.132,0.12695 0.235,0.27832 0.308,0.4541c0.078,0.17578 0.117,0.36377 0.117,0.56397v1.80905c0,0.2002 -0.039,0.3882 -0.117,0.564c-0.073,0.1758 -0.176,0.3296 -0.308,0.4614c-0.131,0.127 -0.285,0.2295 -0.461,0.3076c-0.171,0.0733 -0.357,0.1099 -0.557,0.1099h-4.863v-1.4429zM384.456,170.14258v4.91452h3.72v-1.31833h1.443v1.31833c0,0.2002 -0.039,0.3882 -0.117,0.564c-0.073,0.1758 -0.176,0.3296 -0.308,0.4614c-0.127,0.127 -0.278,0.2295 -0.454,0.3076c-0.176,0.0733 -0.364,0.1099 -0.564,0.1099h-3.72c-0.196,0 -0.381,-0.0366 -0.557,-0.1099c-0.176,-0.0781 -0.33,-0.1806 -0.461,-0.3076c-0.127,-0.1318 -0.23,-0.2856 -0.308,-0.4614c-0.073,-0.1758 -0.11,-0.3638 -0.11,-0.564v-4.91452c0,-0.2002 0.037,-0.38819 0.11,-0.56397c0.078,-0.17578 0.181,-0.32715 0.308,-0.4541c0.131,-0.13183 0.285,-0.23437 0.461,-0.30762c0.176,-0.07812 0.361,-0.11718 0.557,-0.11718h3.72c0.2,0 0.388,0.03906 0.564,0.11718c0.176,0.07325 0.327,0.17579 0.454,0.30762c0.132,0.12695 0.235,0.27832 0.308,0.4541c0.078,0.17578 0.117,0.36377 0.117,0.56397v1.31836h-1.443v-1.31836zM393.464,165.69678v10.80322h-1.435v-10.80322zM402.466,173.33594h-5.164v1.72116h5.164v1.4429h-5.164c-0.195,0 -0.381,-0.0366 -0.556,-0.1099c-0.176,-0.0781 -0.33,-0.1806 -0.462,-0.3076c-0.127,-0.1318 -0.229,-0.2856 -0.307,-0.4614c-0.074,-0.1758 -0.11,-0.3638 -0.11,-0.564v-4.91452c0,-0.2002 0.036,-0.38819 0.11,-0.56397c0.078,-0.17578 0.18,-0.32715 0.307,-0.4541c0.132,-0.13183 0.286,-0.23437 0.462,-0.30762c0.175,-0.07812 0.361,-0.11718 0.556,-0.11718h3.721c0.2,0 0.388,0.03906 0.564,0.11718c0.176,0.07325 0.327,0.17579 0.454,0.30762c0.132,0.12695 0.234,0.27832 0.308,0.4541c0.078,0.17578 0.117,0.36377 0.117,0.56397zM397.302,170.14258v1.75049h3.721v-1.75049zM409.373,170.14258c0,-0.2002 0.036,-0.38819 0.109,-0.56397c0.079,-0.17578 0.181,-0.32715 0.308,-0.4541c0.132,-0.13183 0.286,-0.23437 0.461,-0.30762c0.176,-0.07812 0.362,-0.11718 0.557,-0.11718h2.586c0.19,0 0.371,0.03662 0.542,0.10986c0.17,0.06836 0.319,0.16602 0.446,0.29297c0.132,0.12207 0.237,0.26855 0.315,0.43945c0.083,0.16602 0.127,0.34424 0.132,0.53467v-1.37695h1.443v9.50679c0,0.2002 -0.039,0.3882 -0.117,0.564c-0.073,0.1758 -0.176,0.3272 -0.308,0.4541c-0.127,0.1318 -0.278,0.2344 -0.454,0.3076c-0.176,0.0782 -0.364,0.1172 -0.564,0.1172h-4.556v-1.4429h4.556v-2.0068h-4.021c-0.195,0 -0.381,-0.0366 -0.557,-0.1099c-0.175,-0.0781 -0.329,-0.1806 -0.461,-0.3076c-0.127,-0.1318 -0.229,-0.2856 -0.308,-0.4614c-0.073,-0.1758 -0.109,-0.3638 -0.109,-0.564zM414.829,174.7568v-4.61422h-4.021v4.61422zM420.11,170.14258v6.35742h-1.436v-7.80029h1.436v1.37695c0.01,-0.19043 0.054,-0.36865 0.132,-0.53467c0.078,-0.1709 0.18,-0.31738 0.307,-0.43945c0.132,-0.12695 0.284,-0.22461 0.454,-0.29297c0.171,-0.07324 0.354,-0.10986 0.55,-0.10986h1.53c0.201,0 0.386,0.03906 0.557,0.11718c0.176,0.07325 0.33,0.17579 0.462,0.30762c0.131,0.12695 0.234,0.27832 0.307,0.4541c0.078,0.17578 0.117,0.36377 0.117,0.56397v1.31836h-1.443v-1.31836zM433.066,175.0571c0,0.2002 -0.039,0.3882 -0.117,0.564c-0.073,0.1758 -0.176,0.3296 -0.307,0.4614c-0.127,0.127 -0.279,0.2295 -0.454,0.3076c-0.171,0.0733 -0.357,0.1099 -0.557,0.1099h-3.875c-0.195,0 -0.381,-0.0366 -0.556,-0.1099c-0.176,-0.0781 -0.33,-0.1806 -0.462,-0.3076c-0.127,-0.1318 -0.229,-0.2856 -0.307,-0.4614c-0.074,-0.1758 -0.11,-0.3638 -0.11,-0.564v-4.91452c0,-0.2002 0.036,-0.38819 0.11,-0.56397c0.078,-0.17578 0.18,-0.32715 0.307,-0.4541c0.132,-0.13183 0.286,-0.23437 0.462,-0.30762c0.175,-0.07812 0.361,-0.11718 0.556,-0.11718h3.875c0.2,0 0.386,0.03906 0.557,0.11718c0.175,0.07325 0.327,0.17579 0.454,0.30762c0.131,0.12695 0.234,0.27832 0.307,0.4541c0.078,0.17578 0.117,0.36377 0.117,0.56397zM427.756,170.14258v4.91452h3.875v-4.91452zM435.476,168.69971h1.436v6.35739h4.021v-6.35739h1.442v7.80029h-1.442v-1.3184c-0.015,0.1807 -0.064,0.3516 -0.147,0.5127c-0.083,0.1612 -0.19,0.3028 -0.322,0.4248c-0.127,0.1172 -0.274,0.21 -0.44,0.2784c-0.166,0.0683 -0.341,0.1025 -0.527,0.1025h-2.585c-0.196,0 -0.381,-0.0366 -0.557,-0.1099c-0.176,-0.0781 -0.33,-0.1806 -0.461,-0.3076c-0.127,-0.1318 -0.23,-0.2856 -0.308,-0.4614c-0.073,-0.1758 -0.11,-0.3638 -0.11,-0.564zM451.677,175.0571c0,0.2002 -0.039,0.3882 -0.117,0.564c-0.073,0.1758 -0.176,0.3296 -0.308,0.4614c-0.127,0.127 -0.278,0.2295 -0.454,0.3076c-0.175,0.0733 -0.363,0.1099 -0.564,0.1099h-4.021v3.1494h-1.435v-10.94969h1.435v1.31836c0.015,-0.18555 0.064,-0.35645 0.147,-0.5127c0.083,-0.16113 0.188,-0.30029 0.315,-0.41748c0.127,-0.12207 0.273,-0.21728 0.439,-0.28564c0.171,-0.06836 0.352,-0.10254 0.542,-0.10254h2.578c0.201,0 0.389,0.03906 0.564,0.11718c0.176,0.07325 0.327,0.17579 0.454,0.30762c0.132,0.12695 0.235,0.27832 0.308,0.4541c0.078,0.17578 0.117,0.36377 0.117,0.56397zM450.234,175.0571v-4.91452h-4.021v4.91452zM458.789,175.0571v-1.80905h-3.42c-0.201,0 -0.389,-0.03662 -0.564,-0.10987c-0.176,-0.07812 -0.33,-0.18066 -0.462,-0.30761c-0.127,-0.13184 -0.229,-0.28565 -0.307,-0.46143c-0.074,-0.17578 -0.11,-0.36377 -0.11,-0.56396v-1.6626c0,-0.2002 0.036,-0.38819 0.11,-0.56397c0.078,-0.17578 0.18,-0.32715 0.307,-0.4541c0.132,-0.13183 0.286,-0.23437 0.462,-0.30762c0.175,-0.07812 0.363,-0.11718 0.564,-0.11718h4.563v1.44287h-4.563v1.6626h3.42c0.2,0 0.386,0.03906 0.557,0.11718c0.175,0.07325 0.329,0.17578 0.461,0.30762c0.132,0.12695 0.235,0.27832 0.308,0.4541c0.078,0.17578 0.117,0.36377 0.117,0.56397v1.80905c0,0.2002 -0.039,0.3882 -0.117,0.564c-0.073,0.1758 -0.176,0.3296 -0.308,0.4614c-0.132,0.127 -0.286,0.2295 -0.461,0.3076c-0.171,0.0733 -0.357,0.1099 -0.557,0.1099h-4.863v-1.4429zM462.488,174.31006h2.19v2.18994h-2.19zM92.9077,182.4985c0,-0.205 0.0391,-0.3979 0.1172,-0.5786c0.0781,-0.1855 0.1855,-0.3442 0.3223,-0.4761c0.1367,-0.1367 0.2954,-0.2441 0.476,-0.3222c0.1856,-0.083 0.3809,-0.1245 0.586,-0.1245h5.6982c0.2051,0 0.398,0.0415 0.5786,0.1245c0.1856,0.0781 0.3467,0.1855 0.4834,0.3222c0.1368,0.1319 0.2442,0.2906 0.3223,0.4761c0.0781,0.1807 0.1172,0.3736 0.1172,0.5786v1.355h-1.5015v-1.355h-5.6982v7.5h5.6982v-1.3476h1.5015v1.3476c0,0.2051 -0.0391,0.4004 -0.1172,0.586c-0.0781,0.1806 -0.1855,0.3393 -0.3223,0.476c-0.1367,0.1368 -0.2978,0.2442 -0.4834,0.3223c-0.1806,0.0781 -0.3735,0.1172 -0.5786,0.1172h-5.6982c-0.2051,0 -0.4004,-0.0391 -0.586,-0.1172c-0.1806,-0.0781 -0.3393,-0.1855 -0.476,-0.3223c-0.1368,-0.1367 -0.2442,-0.2954 -0.3223,-0.476c-0.0781,-0.1856 -0.1172,-0.3809 -0.1172,-0.586zM110.6104,190.0571c0,0.2002 -0.0391,0.3882 -0.1172,0.564c-0.0733,0.1758 -0.1758,0.3296 -0.3077,0.4614c-0.1269,0.127 -0.2783,0.2295 -0.4541,0.3076c-0.1709,0.0733 -0.3564,0.1099 -0.5566,0.1099h-3.8745c-0.1953,0 -0.3809,-0.0366 -0.5566,-0.1099c-0.1758,-0.0781 -0.3296,-0.1806 -0.4615,-0.3076c-0.1269,-0.1318 -0.2295,-0.2856 -0.3076,-0.4614c-0.0732,-0.1758 -0.1099,-0.3638 -0.1099,-0.564v-4.9145c0,-0.2002 0.0367,-0.3882 0.1099,-0.564c0.0781,-0.1758 0.1807,-0.3271 0.3076,-0.4541c0.1319,-0.1318 0.2857,-0.2344 0.4615,-0.3076c0.1757,-0.0781 0.3613,-0.1172 0.5566,-0.1172h3.8745c0.2002,0 0.3857,0.0391 0.5566,0.1172c0.1758,0.0732 0.3272,0.1758 0.4541,0.3076c0.1319,0.127 0.2344,0.2783 0.3077,0.4541c0.0781,0.1758 0.1172,0.3638 0.1172,0.564zM105.3003,185.1426v4.9145h3.8745v-4.9145zM119.919,191.5h-1.442v-6.3574h-4.021v6.3574h-1.436v-7.8003h1.436v1.377c0.009,-0.1905 0.053,-0.3687 0.131,-0.5347c0.079,-0.1709 0.181,-0.3174 0.308,-0.4395c0.132,-0.1269 0.283,-0.2246 0.454,-0.2929c0.171,-0.0733 0.354,-0.1099 0.549,-0.1099h2.579c0.2,0 0.388,0.0391 0.564,0.1172c0.175,0.0732 0.327,0.1758 0.454,0.3076c0.131,0.127 0.234,0.2783 0.307,0.4541c0.078,0.1758 0.117,0.3638 0.117,0.564zM127.031,190.0571v-1.8091h-3.42c-0.2,0 -0.388,-0.0366 -0.564,-0.1098c-0.176,-0.0781 -0.33,-0.1807 -0.462,-0.3076c-0.127,-0.1319 -0.229,-0.2857 -0.307,-0.4615c-0.073,-0.1757 -0.11,-0.3637 -0.11,-0.5639v-1.6626c0,-0.2002 0.037,-0.3882 0.11,-0.564c0.078,-0.1758 0.18,-0.3271 0.307,-0.4541c0.132,-0.1318 0.286,-0.2344 0.462,-0.3076c0.176,-0.0781 0.364,-0.1172 0.564,-0.1172h4.563v1.4429h-4.563v1.6626h3.42c0.2,0 0.386,0.039 0.557,0.1172c0.176,0.0732 0.329,0.1757 0.461,0.3076c0.132,0.1269 0.235,0.2783 0.308,0.4541c0.078,0.1758 0.117,0.3638 0.117,0.5639v1.8091c0,0.2002 -0.039,0.3882 -0.117,0.564c-0.073,0.1758 -0.176,0.3296 -0.308,0.4614c-0.132,0.127 -0.285,0.2295 -0.461,0.3076c-0.171,0.0733 -0.357,0.1099 -0.557,0.1099h-4.863v-1.4429zM132.246,183.6997v7.8003h-1.443v-7.8003zM130.73,180.6968h1.589v1.5014h-1.589zM134.729,185.1426c0,-0.2002 0.037,-0.3882 0.11,-0.564c0.078,-0.1758 0.181,-0.3271 0.307,-0.4541c0.132,-0.1318 0.286,-0.2344 0.462,-0.3076c0.176,-0.0781 0.361,-0.1172 0.557,-0.1172h4.021v-3.0029h1.442v10.8032h-1.442v-1.3184c-0.015,0.1807 -0.064,0.3516 -0.147,0.5127c-0.083,0.1612 -0.19,0.3028 -0.322,0.4248c-0.127,0.1172 -0.274,0.21 -0.44,0.2784c-0.166,0.0683 -0.341,0.1025 -0.527,0.1025h-2.585c-0.196,0 -0.381,-0.0366 -0.557,-0.1099c-0.176,-0.0781 -0.33,-0.1806 -0.462,-0.3076c-0.126,-0.1318 -0.229,-0.2856 -0.307,-0.4614c-0.073,-0.1758 -0.11,-0.3638 -0.11,-0.564zM136.165,190.0571h4.021v-4.9145h-4.021zM150.63,188.3359h-5.164v1.7212h5.164v1.4429h-5.164c-0.195,0 -0.381,-0.0366 -0.556,-0.1099c-0.176,-0.0781 -0.33,-0.1806 -0.462,-0.3076c-0.127,-0.1318 -0.229,-0.2856 -0.307,-0.4614c-0.074,-0.1758 -0.11,-0.3638 -0.11,-0.564v-4.9145c0,-0.2002 0.036,-0.3882 0.11,-0.564c0.078,-0.1758 0.18,-0.3271 0.307,-0.4541c0.132,-0.1318 0.286,-0.2344 0.462,-0.3076c0.175,-0.0781 0.361,-0.1172 0.556,-0.1172h3.721c0.2,0 0.388,0.0391 0.564,0.1172c0.176,0.0732 0.327,0.1758 0.454,0.3076c0.132,0.127 0.234,0.2783 0.308,0.4541c0.078,0.1758 0.117,0.3638 0.117,0.564zM145.466,185.1426v1.7505h3.721v-1.7505zM154.475,185.1426v6.3574h-1.435v-7.8003h1.435v1.377c0.01,-0.1905 0.054,-0.3687 0.132,-0.5347c0.078,-0.1709 0.181,-0.3174 0.308,-0.4395c0.131,-0.1269 0.283,-0.2246 0.454,-0.2929c0.171,-0.0733 0.354,-0.1099 0.549,-0.1099h1.531c0.2,0 0.385,0.0391 0.556,0.1172c0.176,0.0732 0.33,0.1758 0.462,0.3076c0.132,0.127 0.234,0.2783 0.307,0.4541c0.079,0.1758 0.118,0.3638 0.118,0.564v1.3183h-1.443v-1.3183zM171.782,188.3359h-5.163v1.7212h5.163v1.4429h-5.163c-0.196,0 -0.381,-0.0366 -0.557,-0.1099c-0.176,-0.0781 -0.33,-0.1806 -0.461,-0.3076c-0.127,-0.1318 -0.23,-0.2856 -0.308,-0.4614c-0.073,-0.1758 -0.11,-0.3638 -0.11,-0.564v-4.9145c0,-0.2002 0.037,-0.3882 0.11,-0.564c0.078,-0.1758 0.181,-0.3271 0.308,-0.4541c0.131,-0.1318 0.285,-0.2344 0.461,-0.3076c0.176,-0.0781 0.361,-0.1172 0.557,-0.1172h3.72c0.201,0 0.389,0.0391 0.564,0.1172c0.176,0.0732 0.327,0.1758 0.454,0.3076c0.132,0.127 0.235,0.2783 0.308,0.4541c0.078,0.1758 0.117,0.3638 0.117,0.564zM166.619,185.1426v1.7505h3.72v-1.7505zM181.091,191.5h-1.443v-6.3574h-4.021v6.3574h-1.435v-7.8003h1.435v1.377c0.01,-0.1905 0.054,-0.3687 0.132,-0.5347c0.078,-0.1709 0.181,-0.3174 0.308,-0.4395c0.132,-0.1269 0.283,-0.2246 0.454,-0.2929c0.171,-0.0733 0.354,-0.1099 0.549,-0.1099h2.578c0.201,0 0.389,0.0391 0.564,0.1172c0.176,0.0732 0.328,0.1758 0.455,0.3076c0.131,0.127 0.234,0.2783 0.307,0.4541c0.078,0.1758 0.117,0.3638 0.117,0.564zM183.494,188.0942c0,-0.2002 0.036,-0.3857 0.11,-0.5566c0.078,-0.1758 0.18,-0.3296 0.307,-0.4614c0.132,-0.1319 0.286,-0.2344 0.462,-0.3076c0.175,-0.0782 0.361,-0.1172 0.556,-0.1172h3.721v-1.5088h-4.71v-1.4429h4.71c0.2,0 0.388,0.0391 0.564,0.1172c0.176,0.0732 0.327,0.1758 0.454,0.3076c0.132,0.127 0.234,0.2783 0.308,0.4541c0.078,0.1758 0.117,0.3638 0.117,0.564v6.3574h-1.443v-1.3184c-0.015,0.1807 -0.064,0.3516 -0.147,0.5127c-0.083,0.1612 -0.19,0.3028 -0.322,0.4248c-0.127,0.1172 -0.273,0.21 -0.439,0.2784c-0.166,0.0683 -0.342,0.1025 -0.528,0.1025h-2.285c-0.195,0 -0.381,-0.0366 -0.556,-0.1099c-0.176,-0.0781 -0.33,-0.1806 -0.462,-0.3076c-0.127,-0.1318 -0.229,-0.2856 -0.307,-0.4614c-0.074,-0.1758 -0.11,-0.3638 -0.11,-0.564zM184.929,190.0571h3.721v-1.9629h-3.721zM199.402,190.0571c0,0.2002 -0.039,0.3882 -0.117,0.564c-0.074,0.1758 -0.176,0.3296 -0.308,0.4614c-0.127,0.127 -0.278,0.2295 -0.454,0.3076c-0.176,0.0733 -0.364,0.1099 -0.564,0.1099h-4.021c-0.195,0 -0.381,-0.0366 -0.557,-0.1099c-0.175,-0.0781 -0.329,-0.1806 -0.461,-0.3076c-0.127,-0.1318 -0.23,-0.2856 -0.308,-0.4614c-0.073,-0.1758 -0.11,-0.3638 -0.11,-0.564v-9.3603h1.436v4.3799c0.01,-0.1905 0.054,-0.3687 0.132,-0.5347c0.078,-0.1709 0.18,-0.3174 0.307,-0.4395c0.132,-0.1269 0.284,-0.2246 0.455,-0.2929c0.17,-0.0733 0.354,-0.1099 0.549,-0.1099h2.578c0.2,0 0.388,0.0391 0.564,0.1172c0.176,0.0732 0.327,0.1758 0.454,0.3076c0.132,0.127 0.234,0.2783 0.308,0.4541c0.078,0.1758 0.117,0.3638 0.117,0.564zM193.938,185.1426v4.9145h4.021v-4.9145zM203.24,180.6968v10.8032h-1.436v-10.8032zM207.158,183.6997v7.8003h-1.443v-7.8003zM205.642,180.6968h1.589v1.5014h-1.589zM216.541,191.5h-1.443v-6.3574h-4.021v6.3574h-1.436v-7.8003h1.436v1.377c0.009,-0.1905 0.053,-0.3687 0.131,-0.5347c0.079,-0.1709 0.181,-0.3174 0.308,-0.4395c0.132,-0.1269 0.283,-0.2246 0.454,-0.2929c0.171,-0.0733 0.354,-0.1099 0.55,-0.1099h2.578c0.2,0 0.388,0.0391 0.564,0.1172c0.175,0.0732 0.327,0.1758 0.454,0.3076c0.132,0.127 0.234,0.2783 0.307,0.4541c0.078,0.1758 0.118,0.3638 0.118,0.564zM218.943,185.1426c0,-0.2002 0.036,-0.3882 0.11,-0.564c0.078,-0.1758 0.18,-0.3271 0.307,-0.4541c0.132,-0.1318 0.286,-0.2344 0.462,-0.3076c0.176,-0.0781 0.361,-0.1172 0.556,-0.1172h2.586c0.19,0 0.371,0.0366 0.542,0.1099c0.171,0.0683 0.32,0.166 0.447,0.2929c0.131,0.1221 0.236,0.2686 0.315,0.4395c0.083,0.166 0.127,0.3442 0.131,0.5347v-1.377h1.443v9.5068c0,0.2002 -0.039,0.3882 -0.117,0.564c-0.073,0.1758 -0.176,0.3272 -0.308,0.4541c-0.126,0.1318 -0.278,0.2344 -0.454,0.3076c-0.175,0.0782 -0.363,0.1172 -0.564,0.1172h-4.555v-1.4429h4.555v-2.0068h-4.021c-0.195,0 -0.38,-0.0366 -0.556,-0.1099c-0.176,-0.0781 -0.33,-0.1806 -0.462,-0.3076c-0.127,-0.1318 -0.229,-0.2856 -0.307,-0.4614c-0.074,-0.1758 -0.11,-0.3638 -0.11,-0.564zM224.399,189.7568v-4.6142h-4.021v4.6142zM237.539,180.9971l4.05,10.5029h-1.501l-0.93,-2.417h-4.739l-0.93,2.417h-1.502l4.051,-10.5029zM234.99,187.5815h3.589l-1.787,-4.6289zM243.245,185.1426c0,-0.2002 0.036,-0.3882 0.109,-0.564c0.079,-0.1758 0.181,-0.3271 0.308,-0.4541c0.132,-0.1318 0.286,-0.2344 0.462,-0.3076c0.175,-0.0781 0.361,-0.1172 0.556,-0.1172h4.021v-3.0029h1.443v10.8032h-1.443v-1.3184c-0.014,0.1807 -0.063,0.3516 -0.146,0.5127c-0.083,0.1612 -0.191,0.3028 -0.323,0.4248c-0.127,0.1172 -0.273,0.21 -0.439,0.2784c-0.166,0.0683 -0.342,0.1025 -0.527,0.1025h-2.586c-0.195,0 -0.381,-0.0366 -0.556,-0.1099c-0.176,-0.0781 -0.33,-0.1806 -0.462,-0.3076c-0.127,-0.1318 -0.229,-0.2856 -0.308,-0.4614c-0.073,-0.1758 -0.109,-0.3638 -0.109,-0.564zM244.68,190.0571h4.021v-4.9145h-4.021zM254.766,191.5l-3.12,-7.8003h1.501l2.366,6.0718l2.373,-6.0718h1.501l-3.12,7.8003zM260.896,188.0942c0,-0.2002 0.037,-0.3857 0.11,-0.5566c0.078,-0.1758 0.181,-0.3296 0.307,-0.4614c0.132,-0.1319 0.286,-0.2344 0.462,-0.3076c0.176,-0.0782 0.361,-0.1172 0.557,-0.1172h3.72v-1.5088h-4.709v-1.4429h4.709c0.2,0 0.388,0.0391 0.564,0.1172c0.176,0.0732 0.327,0.1758 0.454,0.3076c0.132,0.127 0.235,0.2783 0.308,0.4541c0.078,0.1758 0.117,0.3638 0.117,0.564v6.3574h-1.443v-1.3184c-0.014,0.1807 -0.063,0.3516 -0.146,0.5127c-0.083,0.1612 -0.191,0.3028 -0.323,0.4248c-0.126,0.1172 -0.273,0.21 -0.439,0.2784c-0.166,0.0683 -0.342,0.1025 -0.527,0.1025h-2.285c-0.196,0 -0.381,-0.0366 -0.557,-0.1099c-0.176,-0.0781 -0.33,-0.1806 -0.462,-0.3076c-0.126,-0.1318 -0.229,-0.2856 -0.307,-0.4614c-0.073,-0.1758 -0.11,-0.3638 -0.11,-0.564zM262.332,190.0571h3.72v-1.9629h-3.72zM276.804,191.5h-1.443v-6.3574h-4.021v6.3574h-1.435v-7.8003h1.435v1.377c0.01,-0.1905 0.054,-0.3687 0.132,-0.5347c0.078,-0.1709 0.181,-0.3174 0.308,-0.4395c0.132,-0.1269 0.283,-0.2246 0.454,-0.2929c0.171,-0.0733 0.354,-0.1099 0.549,-0.1099h2.578c0.201,0 0.389,0.0391 0.564,0.1172c0.176,0.0732 0.327,0.1758 0.454,0.3076c0.132,0.127 0.235,0.2783 0.308,0.4541c0.078,0.1758 0.117,0.3638 0.117,0.564zM280.642,185.1426v4.9145h3.721v-1.3183h1.443v1.3183c0,0.2002 -0.039,0.3882 -0.118,0.564c-0.073,0.1758 -0.175,0.3296 -0.307,0.4614c-0.127,0.127 -0.278,0.2295 -0.454,0.3076c-0.176,0.0733 -0.364,0.1099 -0.564,0.1099h-3.721c-0.195,0 -0.381,-0.0366 -0.557,-0.1099c-0.175,-0.0781 -0.329,-0.1806 -0.461,-0.3076c-0.127,-0.1318 -0.229,-0.2856 -0.308,-0.4614c-0.073,-0.1758 -0.109,-0.3638 -0.109,-0.564v-4.9145c0,-0.2002 0.036,-0.3882 0.109,-0.564c0.079,-0.1758 0.181,-0.3271 0.308,-0.4541c0.132,-0.1318 0.286,-0.2344 0.461,-0.3076c0.176,-0.0781 0.362,-0.1172 0.557,-0.1172h3.721c0.2,0 0.388,0.0391 0.564,0.1172c0.176,0.0732 0.327,0.1758 0.454,0.3076c0.132,0.127 0.234,0.2783 0.307,0.4541c0.079,0.1758 0.118,0.3638 0.118,0.564v1.3183h-1.443v-1.3183zM294.814,188.3359h-5.163v1.7212h5.163v1.4429h-5.163c-0.195,0 -0.381,-0.0366 -0.557,-0.1099c-0.176,-0.0781 -0.329,-0.1806 -0.461,-0.3076c-0.127,-0.1318 -0.23,-0.2856 -0.308,-0.4614c-0.073,-0.1758 -0.11,-0.3638 -0.11,-0.564v-4.9145c0,-0.2002 0.037,-0.3882 0.11,-0.564c0.078,-0.1758 0.181,-0.3271 0.308,-0.4541c0.132,-0.1318 0.285,-0.2344 0.461,-0.3076c0.176,-0.0781 0.362,-0.1172 0.557,-0.1172h3.721c0.2,0 0.388,0.0391 0.564,0.1172c0.175,0.0732 0.327,0.1758 0.454,0.3076c0.131,0.127 0.234,0.2783 0.307,0.4541c0.078,0.1758 0.117,0.3638 0.117,0.564zM289.651,185.1426v1.7505h3.721v-1.7505zM297.224,185.1426c0,-0.2002 0.037,-0.3882 0.11,-0.564c0.078,-0.1758 0.181,-0.3271 0.308,-0.4541c0.131,-0.1318 0.285,-0.2344 0.461,-0.3076c0.176,-0.0781 0.361,-0.1172 0.557,-0.1172h4.021v-3.0029h1.443v10.8032h-1.443v-1.3184c-0.015,0.1807 -0.064,0.3516 -0.147,0.5127c-0.083,0.1612 -0.19,0.3028 -0.322,0.4248c-0.127,0.1172 -0.274,0.21 -0.44,0.2784c-0.166,0.0683 -0.341,0.1025 -0.527,0.1025h-2.585c-0.196,0 -0.381,-0.0366 -0.557,-0.1099c-0.176,-0.0781 -0.33,-0.1806 -0.461,-0.3076c-0.127,-0.1318 -0.23,-0.2856 -0.308,-0.4614c-0.073,-0.1758 -0.11,-0.3638 -0.11,-0.564zM298.66,190.0571h4.021v-4.9145h-4.021zM313.271,191.5l-3.002,-10.5029h1.501l2.329,8.3569l2.322,-8.3569h1.501l2.322,8.3569l2.329,-8.3569h1.502l-3.003,10.5029h-1.648l-2.249,-7.8735l-2.256,7.8735zM332.021,190.0571c0,0.2002 -0.039,0.3882 -0.117,0.564c-0.073,0.1758 -0.175,0.3296 -0.307,0.4614c-0.127,0.127 -0.279,0.2295 -0.454,0.3076c-0.171,0.0733 -0.357,0.1099 -0.557,0.1099h-3.875c-0.195,0 -0.38,-0.0366 -0.556,-0.1099c-0.176,-0.0781 -0.33,-0.1806 -0.462,-0.3076c-0.127,-0.1318 -0.229,-0.2856 -0.307,-0.4614c-0.074,-0.1758 -0.11,-0.3638 -0.11,-0.564v-4.9145c0,-0.2002 0.036,-0.3882 0.11,-0.564c0.078,-0.1758 0.18,-0.3271 0.307,-0.4541c0.132,-0.1318 0.286,-0.2344 0.462,-0.3076c0.176,-0.0781 0.361,-0.1172 0.556,-0.1172h3.875c0.2,0 0.386,0.0391 0.557,0.1172c0.175,0.0732 0.327,0.1758 0.454,0.3076c0.132,0.127 0.234,0.2783 0.307,0.4541c0.078,0.1758 0.117,0.3638 0.117,0.564zM326.711,185.1426v4.9145h3.875v-4.9145zM335.867,185.1426v6.3574h-1.436v-7.8003h1.436v1.377c0.009,-0.1905 0.053,-0.3687 0.132,-0.5347c0.078,-0.1709 0.18,-0.3174 0.307,-0.4395c0.132,-0.1269 0.283,-0.2246 0.454,-0.2929c0.171,-0.0733 0.354,-0.1099 0.55,-0.1099h1.53c0.201,0 0.386,0.0391 0.557,0.1172c0.176,0.0732 0.33,0.1758 0.461,0.3076c0.132,0.127 0.235,0.2783 0.308,0.4541c0.078,0.1758 0.117,0.3638 0.117,0.564v1.3183h-1.443v-1.3183zM347.234,191.5l-3.721,-3.3325v3.3325h-1.435v-10.8032h1.435v6.0791l3.421,-3.0762h2.028l-4.189,3.7647l4.49,4.0356zM357.056,190.0571c0,0.2002 -0.039,0.3882 -0.118,0.564c-0.073,0.1758 -0.175,0.3296 -0.307,0.4614c-0.127,0.127 -0.278,0.2295 -0.454,0.3076c-0.171,0.0733 -0.357,0.1099 -0.557,0.1099h-3.874c-0.196,0 -0.381,-0.0366 -0.557,-0.1099c-0.176,-0.0781 -0.33,-0.1806 -0.461,-0.3076c-0.127,-0.1318 -0.23,-0.2856 -0.308,-0.4614c-0.073,-0.1758 -0.11,-0.3638 -0.11,-0.564v-4.9145c0,-0.2002 0.037,-0.3882 0.11,-0.564c0.078,-0.1758 0.181,-0.3271 0.308,-0.4541c0.131,-0.1318 0.285,-0.2344 0.461,-0.3076c0.176,-0.0781 0.361,-0.1172 0.557,-0.1172h3.874c0.2,0 0.386,0.0391 0.557,0.1172c0.176,0.0732 0.327,0.1758 0.454,0.3076c0.132,0.127 0.234,0.2783 0.307,0.4541c0.079,0.1758 0.118,0.3638 0.118,0.564zM351.746,185.1426v4.9145h3.874v-4.9145zM359.465,183.6997h1.436v6.3574h4.021v-6.3574h1.443v7.8003h-1.443v-1.3184c-0.015,0.1807 -0.064,0.3516 -0.147,0.5127c-0.083,0.1612 -0.19,0.3028 -0.322,0.4248c-0.127,0.1172 -0.273,0.21 -0.439,0.2784c-0.166,0.0683 -0.342,0.1025 -0.528,0.1025h-2.585c-0.195,0 -0.381,-0.0366 -0.557,-0.1099c-0.176,-0.0781 -0.329,-0.1806 -0.461,-0.3076c-0.127,-0.1318 -0.23,-0.2856 -0.308,-0.4614c-0.073,-0.1758 -0.11,-0.3638 -0.11,-0.564zM368.313,183.6997h1.904v-2.4023h1.443v2.4023h2.564v1.4429h-2.564v4.9145h2.564v1.4429h-2.564c-0.195,0 -0.381,-0.0366 -0.556,-0.1099c-0.176,-0.0781 -0.33,-0.1806 -0.462,-0.3076c-0.132,-0.1318 -0.237,-0.2856 -0.315,-0.4614c-0.073,-0.1758 -0.11,-0.3638 -0.11,-0.564v-4.9145h-1.904zM381.343,190.0571v-1.8091h-3.421c-0.2,0 -0.388,-0.0366 -0.564,-0.1098c-0.175,-0.0781 -0.329,-0.1807 -0.461,-0.3076c-0.127,-0.1319 -0.23,-0.2857 -0.308,-0.4615c-0.073,-0.1757 -0.11,-0.3637 -0.11,-0.5639v-1.6626c0,-0.2002 0.037,-0.3882 0.11,-0.564c0.078,-0.1758 0.181,-0.3271 0.308,-0.4541c0.132,-0.1318 0.286,-0.2344 0.461,-0.3076c0.176,-0.0781 0.364,-0.1172 0.564,-0.1172h4.563v1.4429h-4.563v1.6626h3.421c0.2,0 0.386,0.039 0.556,0.1172c0.176,0.0732 0.33,0.1757 0.462,0.3076c0.132,0.1269 0.234,0.2783 0.307,0.4541c0.079,0.1758 0.118,0.3638 0.118,0.5639v1.8091c0,0.2002 -0.039,0.3882 -0.118,0.564c-0.073,0.1758 -0.175,0.3296 -0.307,0.4614c-0.132,0.127 -0.286,0.2295 -0.462,0.3076c-0.17,0.0733 -0.356,0.1099 -0.556,0.1099h-4.864v-1.4429zM385.042,189.3101h2.189v2.1899h-2.189z"/></g></g></svg>