<svg version="1.1" xmlns="http://www.w3.org/2000/svg" xmlns:xlink="http://www.w3.org/1999/xlink" width="118.00361" height="38.80235" viewBox="0,0,118.00361,38.80235"><g transform="translate(-181.23552,-160.89765)"><g fill="#000000" stroke="none" stroke-miterlimit="10"><path d="M181.23552,181.40823h12.96117v5.3306h-12.96117zM236.89562,194.15295c0,0.75764 -0.14454,1.4792 -0.43317,2.16471c-0.28863,0.66744 -0.68532,1.2537 -1.19053,1.75883c-0.50521,0.50507 -1.10048,0.90195 -1.7858,1.19058c-0.66731,0.28863 -1.37987,0.43294 -2.13769,0.43294h-22.16118c-0.75764,0 -1.4792,-0.14431 -2.16471,-0.43294c-0.66744,-0.28863 -1.2537,-0.6855 -1.75883,-1.19058c-0.50507,-0.50512 -0.90195,-1.09138 -1.19058,-1.75883c-0.28863,-0.6855 -0.43294,-1.40707 -0.43294,-2.16471v-27.70823c0,-0.75764 0.14431,-1.4702 0.43294,-2.13764c0.28863,-0.6855 0.6855,-1.27176 1.19058,-1.75883c0.50512,-0.5051 1.09138,-0.90197 1.75883,-1.1906c0.6855,-0.30666 1.40707,-0.46 2.16471,-0.46h22.16118c0.75782,0 1.47038,0.15334 2.13769,0.46c0.68532,0.28863 1.28058,0.6855 1.7858,1.1906c0.50521,0.48706 0.9019,1.07332 1.19053,1.75883c0.28863,0.66744 0.43317,1.38001 0.43317,2.13764zM209.18725,166.44473v27.70823h22.16118v-27.70823zM277.53804,174.75179c0,5.41174 -2.30902,8.49645 -6.92706,9.25409l7.30574,15.69412h-6.14245l-7.19767,-15.50469h-12.14913v15.50469h-5.54719v-38.80235h21.24113c6.27776,0 9.41664,3.14786 9.41664,9.44354zM252.42746,178.64826h15.39608c1.47916,0 2.54362,-0.32474 3.19291,-0.97413c0.64976,-0.64943 0.97441,-1.71371 0.97441,-3.19296v-3.86941c0,-1.4792 -0.32465,-2.54352 -0.97441,-3.19291c-0.6493,-0.64943 -1.71375,-0.97413 -3.19291,-0.97413h-15.39608zM286.27768,181.40823h12.96145v5.3306h-12.96145z"/></g></g></svg>