<svg version="1.1" xmlns="http://www.w3.org/2000/svg" xmlns:xlink="http://www.w3.org/1999/xlink" width="31.05636" height="33.29321" viewBox="0,0,31.05636,33.29321"><g transform="translate(-224.47182,-163.35339)"><g data-paper-data="{&quot;isPaintingLayer&quot;:true}" fill="#e5e5e5" fill-rule="nonzero" stroke="none" stroke-width="1" stroke-linecap="butt" stroke-linejoin="miter" stroke-miterlimit="10" stroke-dasharray="" stroke-dashoffset="0" style="mix-blend-mode: normal"><path d="M255.21568,184.36965c0.31651,0.24275 0.39848,0.6763 0.20038,1.05789l-3.1924,5.75691c-0.20038,0.38134 -0.61708,0.52017 -0.9814,0.38134l-3.9757,-1.66467c-0.81517,0.65897 -1.71233,1.21402 -2.69373,1.63001l-0.59886,4.40453c-0.05009,0.41622 -0.38254,0.71095 -0.78102,0.71095h-6.38479c-0.40076,0 -0.71499,-0.29474 -0.79924,-0.71095l-0.59886,-4.40453c-0.9814,-0.41599 -1.86261,-0.97104 -2.69373,-1.63001l-3.97342,1.66467c-0.3666,0.1215 -0.7833,0 -0.9814,-0.38134l-3.1924,-5.75691c-0.18444,-0.34693 -0.10019,-0.81513 0.19811,-1.05789l3.37684,-2.73963c-0.08425,-0.52017 -0.11613,-1.09252 -0.11613,-1.63001c0,-0.53749 0.06604,-1.10985 0.148,-1.63001l-3.37456,-2.73963c-0.33245,-0.24298 -0.39848,-0.69363 -0.20038,-1.05789l3.17646,-5.75691c0.20038,-0.38158 0.6148,-0.52017 0.9814,-0.38158l3.97342,1.66467c0.81517,-0.64142 1.7146,-1.2138 2.69601,-1.63001l0.59658,-4.4043c0.06831,-0.41622 0.38254,-0.71095 0.7833,-0.71095h6.38479c0.39848,0 0.73092,0.29474 0.79924,0.71095l0.59658,4.4043c0.9814,0.41622 1.86261,0.97104 2.69601,1.63001l3.97342,-1.66467c0.3666,-0.12127 0.78102,0 0.9814,0.38158l3.1924,5.75691c0.18216,0.34693 0.10019,0.81488 -0.20038,1.05789l-3.37456,2.73963c0.08197,0.52017 0.11613,1.07521 0.11613,1.63001c0,0.57213 -0.03416,1.10985 -0.10019,1.63001zM245.98688,180.00001c0,-3.43349 -2.69373,-6.24241 -5.98631,-6.24241c-3.29259,0 -5.98631,2.80892 -5.98631,6.24241c0,3.43326 2.69373,6.24241 5.98631,6.24241c3.29259,0 5.98631,-2.80915 5.98631,-6.24241z"/></g></g></svg>