<svg version="1.1" xmlns="http://www.w3.org/2000/svg" xmlns:xlink="http://www.w3.org/1999/xlink" width="6.50097" height="7.50195" viewBox="0,0,6.50097,7.50195"><g transform="translate(-236.74951,-172.74805)"><g data-paper-data="{&quot;isPaintingLayer&quot;:true}" fill="#ffffff" fill-rule="nonzero" stroke="#ffffff" stroke-width="0.5" stroke-linecap="butt" stroke-linejoin="miter" stroke-miterlimit="10" stroke-dasharray="" stroke-dashoffset="0" style="mix-blend-mode: normal"><path d="M236.99952,172.99805h1.00097v6.00097h3.99903v-6.00097h1.00097v6.00097c0,0.13672 -0.02604,0.26693 -0.07812,0.39063c-0.05208,0.12044 -0.1237,0.22624 -0.21484,0.31738c-0.09115,0.09115 -0.19857,0.16276 -0.32227,0.21485c-0.12044,0.05208 -0.24902,0.07812 -0.38574,0.07812h-3.99903c-0.13671,0 -0.26692,-0.02604 -0.39062,-0.07812c-0.12044,-0.05209 -0.22624,-0.1237 -0.31738,-0.21485c-0.09115,-0.09114 -0.16276,-0.19694 -0.21485,-0.31738c-0.05208,-0.1237 -0.07812,-0.25391 -0.07812,-0.39063z"/></g></g></svg>