<svg version="1.1" xmlns="http://www.w3.org/2000/svg" xmlns:xlink="http://www.w3.org/1999/xlink" width="236.45881" height="14.94307" viewBox="0,0,236.45881,14.94307"><g transform="translate(-121.72985,-172.52846)"><g data-paper-data="{&quot;isPaintingLayer&quot;:true}" fill="#57a71a" fill-rule="nonzero" stroke="#57a71a" stroke-width="0.5" stroke-linecap="butt" stroke-linejoin="miter" stroke-miterlimit="10" stroke-dasharray="" stroke-dashoffset="0" style="mix-blend-mode: normal"><path d="M126.07602,187.22152l-4.01468,-14.04159h2.00735l3.11382,11.17256l3.10404,-11.17256h2.00733l3.10401,11.17256l3.11382,-11.17256h2.00739l-4.01464,14.04159h-2.20325l-3.00611,-10.5263l-3.0159,10.5263zM151.95606,187.22152h-1.92904v-8.49937h-5.37576v8.49937h-1.91915v-14.44305h1.91915v5.85556c0.0131,-0.25459 0.07179,-0.49286 0.17621,-0.71481c0.10454,-0.22848 0.24157,-0.42432 0.41137,-0.58751c0.17621,-0.16972 0.37862,-0.30028 0.6071,-0.39167c0.22848,-0.09792 0.47327,-0.14688 0.73437,-0.14688h3.44672c0.26765,0 0.51899,0.05222 0.75402,0.15666c0.2349,0.09793 0.43731,0.23502 0.6071,0.41126c0.17621,0.16972 0.31324,0.37209 0.41124,0.6071c0.10442,0.235 0.15669,0.48633 0.15669,0.75398zM155.16774,182.66829c0,-0.26765 0.04893,-0.5157 0.14692,-0.74418c0.10442,-0.235 0.24145,-0.44064 0.41124,-0.61689c0.17621,-0.17625 0.38182,-0.31333 0.61685,-0.41126c0.23503,-0.10444 0.48317,-0.15666 0.74427,-0.15666h4.97428v-2.01713h-6.29623v-1.929h6.29623c0.26765,0 0.519,0.05222 0.75389,0.15666c0.23503,0.09793 0.43744,0.23502 0.6071,0.41126c0.17634,0.16972 0.31338,0.37209 0.41137,0.6071c0.10442,0.235 0.15655,0.48633 0.15655,0.75398v8.49937h-1.92891v-1.7626c-0.01965,0.24158 -0.08489,0.47007 -0.19586,0.68544c-0.11097,0.21551 -0.25455,0.40481 -0.43089,0.56792c-0.16966,0.15669 -0.36552,0.28076 -0.58744,0.3722c-0.22206,0.09131 -0.45696,0.13704 -0.70509,0.13704h-3.055c-0.2611,0 -0.50924,-0.04894 -0.74427,-0.14693c-0.23503,-0.10442 -0.44065,-0.24145 -0.61685,-0.41124c-0.16979,-0.17621 -0.30682,-0.38182 -0.41124,-0.61685c-0.09799,-0.23503 -0.14692,-0.48638 -0.14692,-0.75403zM157.08703,185.29247h4.97428v-2.62419h-4.97428zM166.6047,176.79314h2.5459v-3.21175h1.92904v3.21175h3.42706v1.929h-3.42706v6.57032h3.42706v1.92905h-3.42706c-0.2611,0 -0.50924,-0.04894 -0.74427,-0.14693c-0.2349,-0.10442 -0.44065,-0.24145 -0.61685,-0.41124c-0.17621,-0.17621 -0.31658,-0.38182 -0.421,-0.61685c-0.09799,-0.23503 -0.14692,-0.48638 -0.14692,-0.75403v-6.57032h-2.5459zM185.94366,173.17993v6.06119l6.69771,-6.06119h2.82986l-7.59852,6.88371l7.90214,7.15788h-2.82986l-7.00132,-6.31578v6.31578h-2.00725v-14.04159zM199.43694,176.79314v10.42837h-1.92905v-10.42837zM197.41003,172.77847h2.1249v2.00734h-2.1249zM211.98033,187.22152h-1.92891v-8.49937h-5.37576v8.49937h-1.91928v-10.42837h1.91928v1.84088c0.01297,-0.25459 0.07179,-0.49286 0.17621,-0.71481c0.10442,-0.22848 0.24158,-0.42432 0.41124,-0.58751c0.17634,-0.16972 0.37862,-0.30028 0.6071,-0.39167c0.22848,-0.09792 0.47327,-0.14688 0.73437,-0.14688h3.44685c0.26765,0 0.51886,0.05222 0.75389,0.15666c0.23503,0.09793 0.43744,0.23502 0.6071,0.41126c0.17634,0.16972 0.31337,0.37209 0.41124,0.6071c0.10454,0.235 0.15669,0.48633 0.15669,0.75398zM215.19215,178.72215c0,-0.26765 0.04893,-0.51898 0.14679,-0.75398c0.10454,-0.235 0.24158,-0.43738 0.41137,-0.6071c0.17621,-0.17625 0.38182,-0.31333 0.61685,-0.41126c0.23503,-0.10444 0.48303,-0.15666 0.74413,-0.15666h5.37576v-4.01468h1.92904v14.44305h-1.92904v-1.7626c-0.01952,0.24158 -0.08489,0.47007 -0.19586,0.68544c-0.11097,0.21551 -0.25455,0.40481 -0.43076,0.56792c-0.16979,0.15669 -0.36564,0.28076 -0.58757,0.3722c-0.22193,0.09131 -0.45696,0.13704 -0.70496,0.13704h-3.4566c-0.2611,0 -0.5091,-0.04894 -0.74413,-0.14693c-0.23503,-0.10442 -0.44065,-0.24145 -0.61685,-0.41124c-0.16979,-0.17621 -0.30683,-0.38182 -0.41137,-0.61685c-0.09787,-0.23503 -0.14679,-0.48638 -0.14679,-0.75403zM217.1113,185.29247h5.37576v-6.57032h-5.37576zM242.65839,185.29247c0,0.26765 -0.05214,0.519 -0.15669,0.75403c-0.09787,0.23503 -0.23503,0.44065 -0.41124,0.61685c-0.16966,0.16979 -0.37207,0.30682 -0.6071,0.41124c-0.22848,0.09799 -0.47648,0.14693 -0.74413,0.14693h-5.1799c-0.26123,0 -0.50924,-0.04894 -0.74427,-0.14693c-0.23503,-0.10442 -0.44065,-0.24145 -0.61685,-0.41124c-0.16979,-0.17621 -0.30682,-0.38182 -0.41124,-0.61685c-0.09799,-0.23503 -0.14692,-0.48638 -0.14692,-0.75403v-6.57032c0,-0.26765 0.04893,-0.51898 0.14692,-0.75398c0.10442,-0.235 0.24145,-0.43738 0.41124,-0.6071c0.17621,-0.17625 0.38182,-0.31333 0.61685,-0.41126c0.23503,-0.10444 0.48303,-0.15666 0.74427,-0.15666h5.1799c0.26765,0 0.51565,0.05222 0.74413,0.15666c0.23503,0.09793 0.43744,0.23502 0.6071,0.41126c0.17621,0.16972 0.31337,0.37209 0.41124,0.6071c0.10454,0.235 0.15669,0.48633 0.15669,0.75398zM235.55933,178.72215v6.57032h5.1799v-6.57032zM249.74767,174.70748v2.08567h3.4272v1.929h-3.4272v8.49937h-1.92891v-8.49937h-2.5459v-1.929h2.5459v-2.08567c0,-0.26765 0.04892,-0.5157 0.14679,-0.74418c0.10454,-0.235 0.24479,-0.44064 0.42113,-0.6169c0.17621,-0.17625 0.38182,-0.31333 0.61685,-0.41126c0.23503,-0.10444 0.48303,-0.15666 0.74413,-0.15666h3.4272v1.92901zM264.80741,187.22152l-4.01477,-14.04159h2.00806l3.11369,11.17256l3.10433,-11.17256h2.00671l3.10433,11.17256l3.11369,-11.17256h2.00672l-4.01477,14.04159h-2.20191l-3.00674,-10.5263l-3.01609,10.5263zM289.87468,185.29247c0,0.26765 -0.05214,0.519 -0.15642,0.75403c-0.0976,0.23503 -0.23529,0.44065 -0.41177,0.61685c-0.16979,0.16979 -0.37166,0.30682 -0.60696,0.41124c-0.22861,0.09799 -0.47594,0.14693 -0.74333,0.14693h-5.18057c-0.2607,0 -0.50937,-0.04894 -0.74467,-0.14693c-0.23396,-0.10442 -0.43984,-0.24145 -0.61632,-0.41124c-0.16979,-0.17621 -0.30615,-0.38182 -0.41177,-0.61685c-0.0976,-0.23503 -0.14573,-0.48638 -0.14573,-0.75403v-6.57032c0,-0.26765 0.04813,-0.51898 0.14573,-0.75398c0.10562,-0.235 0.24198,-0.43738 0.41177,-0.6071c0.17648,-0.17625 0.38236,-0.31333 0.61632,-0.41126c0.2353,-0.10444 0.48397,-0.15666 0.74467,-0.15666h5.18057c0.26739,0 0.51471,0.05222 0.74333,0.15666c0.2353,0.09793 0.43717,0.23502 0.60696,0.41126c0.17648,0.16972 0.31417,0.37209 0.41177,0.6071c0.10428,0.235 0.15642,0.48633 0.15642,0.75398zM282.77564,178.72215v6.57032h5.18057v-6.57032zM295.01515,178.72215v8.49937h-1.91849v-10.42837h1.91849v1.84088c0.01337,-0.25459 0.07219,-0.49286 0.17647,-0.71481c0.10428,-0.22848 0.24198,-0.42432 0.41177,-0.58751c0.17648,-0.16972 0.37835,-0.30028 0.60696,-0.39167c0.22861,-0.09792 0.47327,-0.14688 0.73397,-0.14688h2.04682c0.26739,0 0.51605,0.05222 0.74467,0.15666c0.23396,0.09793 0.43984,0.23502 0.61632,0.41126c0.17648,0.16972 0.31284,0.37209 0.41177,0.6071c0.10428,0.235 0.15642,0.48633 0.15642,0.75398v1.76254h-1.92918v-1.76254zM310.21326,187.22152l-4.97469,-4.45532v4.45532h-1.91982v-14.44305h1.91982v8.12728l4.57227,-4.1126h2.71261l-5.60036,5.03304l6.00144,5.39533zM323.34316,185.29247c0,0.26765 -0.05214,0.519 -0.15642,0.75403c-0.0976,0.23503 -0.23529,0.44065 -0.41043,0.61685c-0.16979,0.16979 -0.373,0.30682 -0.6083,0.41124c-0.22728,0.09799 -0.47594,0.14693 -0.74333,0.14693h-5.18057c-0.2607,0 -0.50936,-0.04894 -0.74332,-0.14693c-0.2353,-0.10442 -0.44118,-0.24145 -0.61766,-0.41124c-0.16979,-0.17621 -0.30616,-0.38182 -0.41044,-0.61685c-0.09893,-0.23503 -0.14706,-0.48638 -0.14706,-0.75403v-6.57032c0,-0.26765 0.04813,-0.51898 0.14706,-0.75398c0.10428,-0.235 0.24065,-0.43738 0.41044,-0.6071c0.17648,-0.17625 0.38236,-0.31333 0.61766,-0.41126c0.23396,-0.10444 0.48262,-0.15666 0.74332,-0.15666h5.18057c0.26739,0 0.51605,0.05222 0.74333,0.15666c0.2353,0.09793 0.43851,0.23502 0.6083,0.41126c0.17514,0.16972 0.31284,0.37209 0.41043,0.6071c0.10428,0.235 0.15642,0.48633 0.15642,0.75398zM316.24411,178.72215v6.57032h5.18057v-6.57032zM326.56514,176.79314h1.91982v8.49933h5.37576v-8.49933h1.92785v10.42837h-1.92785v-1.7626c-0.02005,0.24158 -0.08555,0.47007 -0.19652,0.68544c-0.11097,0.21551 -0.25401,0.40481 -0.43049,0.56792c-0.16979,0.15669 -0.36632,0.28076 -0.58825,0.3722c-0.22193,0.09131 -0.45589,0.13704 -0.70456,0.13704h-3.45594c-0.26204,0 -0.50936,-0.04894 -0.74466,-0.14693c-0.2353,-0.10442 -0.44118,-0.24145 -0.61632,-0.41124c-0.16979,-0.17621 -0.3075,-0.38182 -0.41178,-0.61685c-0.0976,-0.23503 -0.14706,-0.48638 -0.14706,-0.75403zM338.39422,176.79314h2.5455v-3.21175h1.92918v3.21175h3.42652v1.929h-3.42652v6.57032h3.42652v1.92905h-3.42652c-0.2607,0 -0.50937,-0.04894 -0.74467,-0.14693c-0.2353,-0.10442 -0.43984,-0.24145 -0.61632,-0.41124c-0.17648,-0.17621 -0.31685,-0.38182 -0.42113,-0.61685c-0.0976,-0.23503 -0.14706,-0.48638 -0.14706,-0.75403v-6.57032h-2.5455zM351.94524,180.68053c0,-0.27417 0.02674,-0.51896 0.07888,-0.73438c0.05882,-0.21543 0.14305,-0.40801 0.25401,-0.57773c0.11097,-0.16973 0.25534,-0.32313 0.43182,-0.46022c0.18182,-0.14361 0.3944,-0.27418 0.63638,-0.39168l2.58426,-1.24358v-2.08566h-4.80756v1.8115h-2.00672v-1.8115c0,-0.27417 0.05214,-0.53203 0.15642,-0.77357c0.10428,-0.24805 0.24733,-0.46022 0.43049,-0.63647c0.18316,-0.18278 0.39572,-0.3264 0.63637,-0.43085c0.24867,-0.11098 0.50937,-0.16646 0.78344,-0.16646h4.80756c0.27407,0 0.5321,0.05548 0.77408,0.16646c0.24867,0.10445 0.46391,0.24807 0.64573,0.43085c0.18316,0.17625 0.32755,0.38841 0.43183,0.63647c0.10428,0.24154 0.15642,0.49939 0.15642,0.77357v1.72337c0,0.27417 -0.02674,0.51896 -0.07888,0.73438c-0.05214,0.21543 -0.13369,0.41127 -0.24465,0.58753c-0.11097,0.16972 -0.25803,0.32313 -0.43984,0.46022c-0.17648,0.13707 -0.38905,0.26764 -0.63772,0.39167l-2.59362,1.23379v1.694h-1.9987zM351.54417,184.29374h2.92786v2.92778h-2.92786z"/></g></g></svg>