<svg version="1.1" xmlns="http://www.w3.org/2000/svg" xmlns:xlink="http://www.w3.org/1999/xlink" width="583.66554" height="583.01451" viewBox="0,0,583.66554,583.01451"><g transform="translate(-8.25716,70.96672)"><g data-paper-data="{&quot;isPaintingLayer&quot;:true}" fill-rule="nonzero" stroke-width="0" stroke-linecap="butt" stroke-linejoin="miter" stroke-miterlimit="10" stroke-dasharray="" stroke-dashoffset="0" style="mix-blend-mode: normal"><g stroke="#acacac"><path d="M147.5688,365.04442l306.07421,-287.91071l138.2797,147.00338l-306.07421,287.91071z" fill="#2f2f2f"/><path d="M8.25716,216.944l306.07421,-287.91071l138.2797,147.00338l-306.07421,287.91071z" fill="#ffffff"/></g><path d="M214.3505,58.55658l120.60835,0.00023c8.72247,0.00006 16.53825,5.3841 19.64057,13.52995l27.18019,71.36865c-20.70205,-17.05434 -60.25935,-20.8837 -71.67843,-20.8837c-32.93223,0 -31.8711,0 -71.45232,0z" fill="#ff914d" stroke="#ff914d"/><path d="M397.17499,360.41651l-106.90602,1.10643c-7.86718,0.08139 -15.12081,-4.23475 -18.79704,-11.18518l-36.68929,-69.36342c20.7024,17.05434 53.48245,22.83951 64.90155,22.83951c32.93223,0 36.48577,0.19159 76.06727,0.19159z" fill="#ff914d" stroke="#ff914d"/><path d="M170.3354,161.39997c-5.79067,-20.70285 9.78561,-41.21347 31.2986,-41.21347h34.80096c0,0 15.93748,17.63205 20.28974,31.35409c4.13892,13.05016 9.9685,41.18566 9.9685,41.18566c0,0 -10.26727,-3.67332 -13.11626,-5.27804c-8.98228,-5.05994 -26.74237,-3.97806 -42.66712,-1.51805c-17.75843,2.74317 -35.73766,-7.23749 -40.57443,-24.53021z" fill="#ff914d" stroke="#e99a00"/><path d="M188.78482,255.24192c-15.53225,-3.31174 -23.20685,-19.81091 -15.58537,-33.50649l1.05888,-1.90259c5.27425,-9.47781 14.67112,-16.74602 25.7613,-17.09687c3.2191,-0.10168 6.43333,0.01142 9.19699,0.51268c11.49296,2.08531 39.16335,5.75869 26.59054,12.95074c-5.90813,3.37973 -11.65367,13.26917 -16.08511,22.80356c-5.37053,11.55591 -18.25908,18.94187 -30.93723,16.23891z" fill="#ff914d" stroke="#a16e50"/><path d="M187.93627,349.25684c-8.02418,-13.18023 -1.27448,-29.89427 13.57573,-33.61663l5.05937,-1.2683c10.47731,-2.62645 22.06851,-1.042 29.98142,6.5313c2.22668,2.13075 4.27961,4.39856 5.73569,6.61888c6.12149,9.33593 21.92127,30.90225 7.75886,27.08965c-7.22289,-1.94438 -20.35848,1.42358 -31.4974,5.19075c-11.29179,3.81918 -24.34915,-0.256 -30.61359,-10.54564z" fill="#ff914d" stroke="#e99a00"/><path d="M267.03719,192.92538h117.3366c7.05437,0 13.41997,4.22951 16.14889,10.72969l22.0456,52.51209l-81.83471,-7.47458h-52.6036z" fill="#ff914d" stroke="#ff914d"/><path d="M355.88242,248.88791l66.02942,6.35828l10.83107,28.24933l-33.13478,3.66782c-2.8595,0.31683 -5.55211,1.50532 -7.71207,3.40426l-16.40415,14.42267z" fill="#ff914d" stroke="#e99a00"/></g></g></svg>