<svg version="1.1" xmlns="http://www.w3.org/2000/svg" xmlns:xlink="http://www.w3.org/1999/xlink" width="26.96689" height="27.13354" viewBox="0,0,26.96689,27.13354"><g transform="translate(-226.51656,-166.43322)"><g data-paper-data="{&quot;isPaintingLayer&quot;:true}" fill="#000000" fill-rule="nonzero" stroke="#000000" stroke-width="0" stroke-linecap="butt" stroke-linejoin="miter" stroke-miterlimit="10" stroke-dasharray="" stroke-dashoffset="0" style="mix-blend-mode: normal"><path d="M226.51656,179.53446c0,-1.38201 0.20792,-3.54125 0.59419,-4.79656c7.99177,-0.24424 16.00812,0.37955 25.48424,-0.02708c0.57397,1.49775 0.88846,3.12396 0.88846,4.82364c0,1.87047 -0.38087,3.65197 -1.06928,5.27121c-7.41999,0.4918 -18.52838,0.84227 -24.88415,0.17638c-0.65315,-1.58351 -1.01346,-3.62831 -1.01346,-5.44758z"/><path d="M227.77492,173.43792c2.14223,-3.90147 6.16922,-6.66055 10.93978,-6.975c5.37386,-0.35421 10.21953,2.49065 12.67555,6.90334c-11.47332,0.12773 -17.91997,-0.56008 -23.61533,0.07165z"/><path d="M251.39024,186.63372c-2.45602,4.4127 -7.30169,7.25755 -12.67555,6.90334c-4.77056,-0.31443 -8.79755,-3.07353 -10.93978,-6.975c5.69536,0.63174 12.142,-0.05609 23.61533,0.07165z" data-paper-data="{&quot;index&quot;:null}"/></g></g></svg>