<svg version="1.1" xmlns="http://www.w3.org/2000/svg" xmlns:xlink="http://www.w3.org/1999/xlink" width="538.69704" height="398.14045" viewBox="0,0,538.69704,398.14045"><g transform="translate(29.37817,19.07019)"><g data-paper-data="{&quot;isPaintingLayer&quot;:true}" fill-rule="nonzero" stroke-linejoin="miter" stroke-miterlimit="10" stroke-dasharray="" stroke-dashoffset="0" style="mix-blend-mode: normal"><path d="M-19.73485,359.95593v-378.52612h507.6484v378.52612z" fill="#ffffff" stroke="#d5d5d5" stroke-width="1" stroke-linecap="butt"/><g stroke="none" stroke-width="1" stroke-linecap="butt" opacity="0.7"><path d="M21.81535,180.34289l18.61965,14.57133l-4.78469,10.08419l-5.43801,7.14625l-5.38292,7.0736l-7.19325,5.65751l-18.61965,-14.57249l2.4412,-7.32164l5.60734,-8.18326l7.08149,-8.49153z" fill-opacity="0.7" fill="#d9d9d9"/><path d="M107.35973,259.25293l-6.30463,9.10121l-6.38397,7.57476l-6.36538,4.25059l-18.61965,-14.5702l3.57214,-8.49201l5.38269,-7.0736l5.43801,-7.14487l8.40602,-7.25062l18.61965,14.5702z" fill-opacity="0.7" fill="#d9d9d9"/><path d="M22.61955,216.96203l10.59161,-13.91879l53.15256,41.59638l-10.59161,13.91879z" fill-opacity="0.7" fill="#e7e7e7"/></g><g stroke="none" stroke-width="1" stroke-linecap="butt" opacity="0.7"><path d="M40.1557,240.7609l-32.58632,91.69933c-0.66669,1.87586 -3.28787,2.63449 -5.85466,1.69655l-7.34195,-2.68278c-2.56678,-0.93794 -4.10712,-3.21842 -3.44066,-5.09428l32.58655,-91.69933c0.66669,-1.87586 3.28765,-2.63681 5.85443,-1.69886l7.34195,2.68507c2.56678,0.93794 4.10735,3.21842 3.44066,5.09428z" fill="#e7e7e7"/><path d="M15.24889,243.17703l-12.66888,35.65077l-12.66888,35.65077c-0.66669,1.87586 -3.28765,2.63681 -5.85443,1.69886l-7.34218,-2.68278c-2.56656,-0.93794 -4.10712,-3.22071 -3.44044,-5.09657l25.33776,-71.30152c0.66669,-1.87586 3.28787,-2.63449 5.85443,-1.69655l7.34218,2.68278c2.56678,0.93794 4.10712,3.21842 3.44044,5.09428z" fill="#e7e7e7"/><path d="M161.33668,276.78866l7.4154,2.46899c2.5933,0.86207 4.19598,3.09657 3.58393,4.99084l-29.96763,92.61429c-0.61296,1.89427 -3.21148,2.73104 -5.80365,1.86668l-7.4154,-2.46668c-2.59217,-0.86207 -4.19689,-3.09886 -3.58393,-4.99313l29.96763,-92.61198c0.61296,-1.89427 3.21148,-2.73104 5.80365,-1.86897z" fill="#e7e7e7"/><path d="M179.50165,294.23935l7.41495,2.46668c2.59104,0.86438 4.19598,3.09886 3.58393,4.99313l-23.30188,72.01187c-0.61296,1.89427 -3.21148,2.73104 -5.80388,1.86897l-7.41517,-2.46899c-2.5924,-0.86207 -4.19689,-3.09657 -3.58393,-4.99084l11.65083,-36.00708l11.64969,-36.00479c0.61432,-1.89656 3.21216,-2.73104 5.80547,-1.86897z" fill="#e7e7e7"/><path d="M25.3013,299.46353l8.68691,-26.14846l106.32729,36.32743l-8.68691,26.14846z" fill="#d9d9d9"/><path d="M-29.37816,280.50219l8.8805,-26.25848l6.82891,2.37514l-8.8805,26.25848z" fill="#d9d9d9"/><path d="M179.61495,349.86536l8.04516,-26.5339l6.90055,2.15174l-8.04516,26.5339z" fill="#d9d9d9"/></g><g opacity="0.7"><path d="M398.34342,277.3404l2.86986,-20.31045c0.24936,-1.77703 0.08387,-3.57933 -0.37403,-5.31267c-1.79763,-6.82533 -5.4949,-25.17944 4.35693,-32.57718c8.27182,-6.21153 21.78013,-7.76096 21.78013,-7.76096l67.9677,26.57026c0,0 10.79486,8.12647 12.37487,21.11045c1.66389,13.67823 -16.67966,23.25759 -22.81836,26.06221c-1.29212,0.59082 -2.4981,1.34714 -3.54086,2.31956l-16.77714,15.63457" fill="none" stroke="#d9d9d9" stroke-width="4" stroke-linecap="round"/><path d="M481.02316,328.32228c-5.88481,23.45759 -22.30151,43.99332 -41.07803,45.89448l-32.61126,-12.74949l-35.61486,-13.92192c-10.01959,-13.57479 -8.53932,-40.06918 2.9288,-60.80721c15.40115,-27.84381 42.12759,-38.87377 71.50175,-27.39094c29.37416,11.48283 42.63311,38.03469 34.8736,68.97507z" fill="#eeeeee" stroke="none" stroke-width="1" stroke-linecap="butt"/><path d="M403.2671,293.06234l-1.47347,3.87359l-4.23452,-1.65518l1.47347,-3.87359c0.22215,-0.58621 0.54178,-1.09656 0.95889,-1.52645c0.42164,-0.44367 0.89768,-0.77931 1.42813,-1.0069c0.53272,-0.23909 1.09717,-0.37242 1.69109,-0.39541c0.61432,-0.03448 1.21051,0.06207 1.78856,0.28966l13.4063,5.23911c0.57805,0.22759 1.07677,0.55863 1.49614,0.99541c0.43751,0.42758 0.76847,0.91035 0.99289,1.44599c0.24256,0.52875 0.37177,1.09887 0.3899,1.71725c0.03854,0.60691 -0.0544,1.20459 -0.27656,1.79081l-2.08779,5.48969c-0.22215,0.58621 -0.47604,1.08735 -0.76167,1.50575c-0.28563,0.4184 -0.62339,0.76781 -1.01556,1.04598c-0.37177,0.27357 -0.79794,0.48275 -1.28305,0.6299c-0.48284,0.14712 -1.04276,0.25058 -1.67975,0.30576l-17.31892,1.24139l-1.64802,4.33565l13.94354,5.45061l1.4644,-3.85289l4.23452,1.65518l-3.09655,8.14717l-22.41259,-8.76097l3.00134,-7.89659c0.22442,-0.58621 0.47831,-1.08735 0.76394,-1.50575c0.29923,-0.4138 0.63472,-0.75403 1.00649,-1.02528c0.37177,-0.27357 0.80021,-0.48275 1.28305,-0.6299c0.50098,-0.15632 1.05636,-0.26207 1.66162,-0.31265l17.34612,-1.25517l2.36435,-6.22302zM442.29359,329.51538c-0.97022,2.4276 -2.27141,4.02071 -3.90356,4.77703c-1.62762,0.74254 -3.64513,0.64368 -6.05482,-0.29884l-7.9522,-3.10807c-4.80577,-1.87817 -6.28604,-5.24831 -4.43854,-10.10811l0.6846,-1.80001l4.15291,1.62299l-0.60526,1.5908c-0.43071,1.13103 -0.49871,2.05977 -0.20402,2.78393c0.29243,0.72415 1.00423,1.30805 2.1354,1.74944l7.68244,3.00232c1.1289,0.44138 2.04245,0.49425 2.74065,0.15632c0.6982,-0.33563 1.26038,-1.06897 1.69109,-2.2l1.53694,-4.0437c0.43071,-1.13103 0.49418,-2.05288 0.19495,-2.76323c-0.29243,-0.72415 -1.00423,-1.30577 -2.13313,-1.74713l-14.17023,-5.54026l5.78733,-15.22766l20.73963,8.1058l-1.63215,4.29428l-16.50511,-6.45062l-2.56384,6.74486l10.08079,3.94026c2.42329,0.94712 3.99877,2.25289 4.72643,3.91727c0.7322,1.64829 0.63019,3.71037 -0.31056,6.18163z" fill="#d9d9d9" stroke="none" stroke-width="1" stroke-linecap="butt"/></g><path d="M10.8822,69.50001l-9.6094,-33.60938h4.8047l7.4532,26.74218l7.4296,-26.74218h4.8046l7.43,26.74218l7.453,-26.74218h4.805l-9.61,33.60938h-5.273l-7.1955,-25.1953l-7.2187,25.1953zM70.8819,64.88281c0,0.6406 -0.125,1.2422 -0.375,1.8047c-0.234,0.5625 -0.562,1.0547 -0.984,1.4766c-0.406,0.4062 -0.891,0.7343 -1.453,0.9843c-0.547,0.2344 -1.141,0.3516 -1.781,0.3516h-12.399c-0.625,0 -1.219,-0.1172 -1.781,-0.3516c-0.563,-0.25 -1.055,-0.5781 -1.477,-0.9843c-0.406,-0.4219 -0.734,-0.9141 -0.984,-1.4766c-0.234,-0.5625 -0.352,-1.1641 -0.352,-1.8047v-15.7266c0,-0.6406 0.118,-1.2421 0.352,-1.8046c0.25,-0.5625 0.578,-1.0469 0.984,-1.4532c0.422,-0.4218 0.914,-0.75 1.477,-0.9843c0.562,-0.25 1.156,-0.375 1.781,-0.375h12.399c0.64,0 1.234,0.125 1.781,0.375c0.562,0.2343 1.047,0.5625 1.453,0.9843c0.422,0.4063 0.75,0.8907 0.984,1.4532c0.25,0.5625 0.375,1.164 0.375,1.8046zM53.8899,49.15621v15.7266h12.399v-15.7266zM83.1869,49.15621v20.3438h-4.594v-24.9609h4.594v4.4062c0.031,-0.6094 0.172,-1.1797 0.422,-1.7109c0.25,-0.5469 0.578,-1.0156 0.984,-1.4063c0.422,-0.4062 0.907,-0.7187 1.453,-0.9375c0.547,-0.2344 1.133,-0.3515 1.758,-0.3515h4.899c0.64,0 1.234,0.125 1.781,0.375c0.562,0.2343 1.055,0.5625 1.476,0.9843c0.422,0.4063 0.75,0.8907 0.985,1.4532c0.25,0.5625 0.375,1.164 0.375,1.8046v4.2188h-4.617v-4.2188zM119.5619,69.50001l-11.906,-10.6641v10.6641h-4.594v-34.57031h4.594v19.45311l10.945,-9.8437h6.492l-13.406,12.0468l14.367,12.9141zM150.9919,64.88281c0,0.6406 -0.125,1.2422 -0.375,1.8047c-0.235,0.5625 -0.563,1.0547 -0.985,1.4766c-0.406,0.4062 -0.89,0.7343 -1.453,0.9843c-0.547,0.2344 -1.14,0.3516 -1.781,0.3516h-12.398c-0.626,0 -1.219,-0.1172 -1.782,-0.3516c-0.562,-0.25 -1.054,-0.5781 -1.476,-0.9843c-0.407,-0.4219 -0.735,-0.9141 -0.985,-1.4766c-0.234,-0.5625 -0.351,-1.1641 -0.351,-1.8047v-15.7266c0,-0.6406 0.117,-1.2421 0.351,-1.8046c0.25,-0.5625 0.578,-1.0469 0.985,-1.4532c0.422,-0.4218 0.914,-0.75 1.476,-0.9843c0.563,-0.25 1.156,-0.375 1.782,-0.375h12.398c0.641,0 1.234,0.125 1.781,0.375c0.563,0.2343 1.047,0.5625 1.453,0.9843c0.422,0.4063 0.75,0.8907 0.985,1.4532c0.25,0.5625 0.375,1.164 0.375,1.8046zM133.9999,49.15621v15.7266h12.398v-15.7266zM158.7029,44.53911h4.593v20.3437h12.868v-20.3437h4.617v24.9609h-4.617v-4.2188c-0.047,0.5782 -0.204,1.125 -0.469,1.6407c-0.266,0.5156 -0.61,0.9687 -1.031,1.3593c-0.407,0.375 -0.875,0.6719 -1.407,0.8907c-0.531,0.2187 -1.093,0.3281 -1.687,0.3281h-8.274c-0.625,0 -1.218,-0.1172 -1.781,-0.3516c-0.562,-0.25 -1.055,-0.5781 -1.476,-0.9843c-0.407,-0.4219 -0.735,-0.9141 -0.985,-1.4766c-0.234,-0.5625 -0.351,-1.1641 -0.351,-1.8047zM187.0149,44.53911h6.094v-7.68754h4.617v7.68754h8.203v4.6171h-8.203v15.7266h8.203v4.6172h-8.203c-0.625,0 -1.219,-0.1172 -1.781,-0.3516c-0.563,-0.25 -1.055,-0.5781 -1.477,-0.9843c-0.422,-0.4219 -0.758,-0.9141 -1.008,-1.4766c-0.234,-0.5625 -0.351,-1.1641 -0.351,-1.8047v-15.7266h-6.094zM228.4999,40.69532c0,-0.65625 0.124,-1.27343 0.374,-1.85156c0.25,-0.59375 0.594,-1.10156 1.032,-1.52344c0.437,-0.4375 0.945,-0.78125 1.523,-1.03125c0.594,-0.26562 1.219,-0.39844 1.875,-0.39844h18.235c0.656,0 1.273,0.13282 1.851,0.39844c0.594,0.25 1.11,0.59375 1.547,1.03125c0.437,0.42188 0.781,0.92969 1.031,1.52344c0.25,0.57813 0.375,1.19531 0.375,1.85156v4.33589h-4.804v-4.33589h-18.235v23.99999h18.235v-4.3125h4.804v4.3125c0,0.6563 -0.125,1.2813 -0.375,1.875c-0.25,0.5781 -0.594,1.0859 -1.031,1.5235c-0.437,0.4374 -0.953,0.7812 -1.547,1.0312c-0.578,0.25 -1.195,0.375 -1.851,0.375h-18.235c-0.656,0 -1.281,-0.125 -1.875,-0.375c-0.578,-0.25 -1.086,-0.5938 -1.523,-1.0312c-0.438,-0.4376 -0.782,-0.9454 -1.032,-1.5235c-0.25,-0.5937 -0.374,-1.2187 -0.374,-1.875zM285.14788,64.88281c0,0.6406 -0.125,1.2422 -0.375,1.8047c-0.234,0.5625 -0.563,1.0547 -0.984,1.4766c-0.407,0.4062 -0.891,0.7343 -1.454,0.9843c-0.546,0.2344 -1.14,0.3516 -1.781,0.3516h-12.398c-0.625,0 -1.219,-0.1172 -1.782,-0.3516c-0.562,-0.25 -1.054,-0.5781 -1.476,-0.9843c-0.406,-0.4219 -0.734,-0.9141 -0.984,-1.4766c-0.235,-0.5625 -0.352,-1.1641 -0.352,-1.8047v-15.7266c0,-0.6406 0.117,-1.2421 0.352,-1.8046c0.25,-0.5625 0.578,-1.0469 0.984,-1.4532c0.422,-0.4218 0.914,-0.75 1.476,-0.9843c0.563,-0.25 1.157,-0.375 1.782,-0.375h12.398c0.641,0 1.235,0.125 1.781,0.375c0.563,0.2343 1.047,0.5625 1.454,0.9843c0.421,0.4063 0.75,0.8907 0.984,1.4532c0.25,0.5625 0.375,1.164 0.375,1.8046zM268.1559,49.15621v15.7266h12.398v-15.7266zM312.6399,49.15621v20.3438h-4.617v-20.3438h-10.57v20.3438h-4.594v-24.9609h4.594v4.4062c0.031,-0.6094 0.171,-1.1797 0.421,-1.7109c0.25,-0.5469 0.579,-1.0156 0.985,-1.4063c0.422,-0.4062 0.906,-0.7187 1.453,-0.9375c0.547,-0.2344 1.133,-0.3515 1.758,-0.3515h5.953c0.609,0 1.187,0.1171 1.734,0.3515c0.547,0.2188 1.032,0.5313 1.453,0.9375c0.422,0.3907 0.758,0.8594 1.008,1.4063c0.266,0.5312 0.406,1.1015 0.422,1.7109c0.031,-0.6094 0.164,-1.1797 0.399,-1.7109c0.25,-0.5469 0.578,-1.0156 0.984,-1.4063c0.422,-0.4062 0.906,-0.7187 1.453,-0.9375c0.547,-0.2344 1.133,-0.3515 1.758,-0.3515h5.953c0.641,0 1.242,0.125 1.805,0.375c0.562,0.2343 1.047,0.5625 1.453,0.9843c0.422,0.4063 0.75,0.8907 0.984,1.4532c0.25,0.5625 0.375,1.164 0.375,1.8046v20.3438h-4.617v-20.3438zM357.5929,64.88281c0,0.6406 -0.125,1.2422 -0.375,1.8047c-0.234,0.5625 -0.562,1.0547 -0.984,1.4766c-0.406,0.4062 -0.891,0.7343 -1.453,0.9843c-0.563,0.2344 -1.164,0.3516 -1.805,0.3516h-12.867v10.0781h-4.594v-35.039h4.594v4.2187c0.047,-0.5937 0.203,-1.1406 0.469,-1.6406c0.265,-0.5156 0.601,-0.961 1.007,-1.336c0.407,-0.3906 0.875,-0.6953 1.407,-0.914c0.547,-0.2188 1.125,-0.3281 1.734,-0.3281h8.25c0.641,0 1.242,0.125 1.805,0.375c0.562,0.2343 1.047,0.5625 1.453,0.9843c0.422,0.4063 0.75,0.8907 0.984,1.4532c0.25,0.5625 0.375,1.164 0.375,1.8046zM352.9759,64.88281v-15.7266h-12.867v15.7266zM369.8739,34.9297v34.57031h-4.593v-34.57031zM398.6789,59.37501h-16.523v5.5078h16.523v4.6172h-16.523c-0.625,0 -1.219,-0.1172 -1.782,-0.3516c-0.562,-0.25 -1.054,-0.5781 -1.476,-0.9843c-0.406,-0.4219 -0.734,-0.9141 -0.984,-1.4766c-0.235,-0.5625 -0.352,-1.1641 -0.352,-1.8047v-15.7266c0,-0.6406 0.117,-1.2421 0.352,-1.8046c0.25,-0.5625 0.578,-1.0469 0.984,-1.4532c0.422,-0.4218 0.914,-0.75 1.476,-0.9843c0.563,-0.25 1.157,-0.375 1.782,-0.375h11.906c0.641,0 1.242,0.125 1.805,0.375c0.562,0.2343 1.047,0.5625 1.453,0.9843c0.422,0.4063 0.75,0.8907 0.984,1.4532c0.25,0.5625 0.375,1.164 0.375,1.8046zM382.1559,49.15621v5.6016h11.906v-5.6016zM404.9369,44.53911h6.094v-7.68754h4.617v7.68754h8.203v4.6171h-8.203v15.7266h8.203v4.6172h-8.203c-0.625,0 -1.219,-0.1172 -1.781,-0.3516c-0.563,-0.25 -1.055,-0.5781 -1.477,-0.9843c-0.422,-0.4219 -0.758,-0.9141 -1.008,-1.4766c-0.234,-0.5625 -0.351,-1.1641 -0.351,-1.8047v-15.7266h-6.094zM452.6789,59.37501h-16.523v5.5078h16.523v4.6172h-16.523c-0.625,0 -1.219,-0.1172 -1.782,-0.3516c-0.562,-0.25 -1.054,-0.5781 -1.476,-0.9843c-0.406,-0.4219 -0.734,-0.9141 -0.984,-1.4766c-0.235,-0.5625 -0.352,-1.1641 -0.352,-1.8047v-15.7266c0,-0.6406 0.117,-1.2421 0.352,-1.8046c0.25,-0.5625 0.578,-1.0469 0.984,-1.4532c0.422,-0.4218 0.914,-0.75 1.476,-0.9843c0.563,-0.25 1.157,-0.375 1.782,-0.375h11.906c0.641,0 1.242,0.125 1.805,0.375c0.562,0.2343 1.047,0.5625 1.453,0.9843c0.422,0.4063 0.75,0.8907 0.984,1.4532c0.25,0.5625 0.375,1.164 0.375,1.8046zM436.1559,49.15621v5.6016h11.906v-5.6016zM462.0779,57.03121l-1.922,-21.14058h6.515l-1.921,21.14058zM459.8979,62.49221h7.008v7.0078h-7.008z" fill="#000000" stroke="#000000" stroke-width="1" stroke-linecap="butt"/><path d="M122.11994,100.77344h16.97842v3.33071h-13.64725v6.66141h11.64892v3.33071h-11.64892v6.64524h13.64725v3.33071h-16.97842zM146.94657,100.1073v23.96491h-3.18513v-23.96491zM152.27514,116.51719c0,-0.44412 0.08134,-0.85571 0.24401,-1.23486c0.17377,-0.38987 0.40115,-0.73112 0.68213,-1.02357c0.293,-0.29245 0.63407,-0.51992 1.02412,-0.68241c0.39005,-0.17331 0.80137,-0.25991 1.23486,-0.25991h8.25305v-3.34697h-10.44641v-3.20075h10.44641c0.44459,0 0.86145,0.08661 1.2515,0.25991c0.39005,0.16249 0.72557,0.38996 1.00748,0.68241c0.29208,0.28163 0.51946,0.61743 0.68213,1.00739c0.17284,0.38987 0.25973,0.80691 0.25973,1.25104v14.10275h-3.20084v-2.92457c-0.03235,0.40078 -0.14049,0.77992 -0.32443,1.13735c-0.18394,0.35743 -0.4224,0.67159 -0.71541,0.94232c-0.28099,0.26 -0.60634,0.46575 -0.97421,0.61743c-0.36879,0.15168 -0.75885,0.22747 -1.17016,0.22747h-5.06885c-0.4335,0 -0.84481,-0.08125 -1.23486,-0.24374c-0.39005,-0.17331 -0.73112,-0.40078 -1.02412,-0.68241c-0.28099,-0.29245 -0.50836,-0.63361 -0.68213,-1.02357c-0.16268,-0.38987 -0.24401,-0.80691 -0.24401,-1.25104zM155.46027,120.87146h8.25305v-4.35427h-8.25305zM187.56483,120.87146c0,0.44412 -0.08688,0.86117 -0.25973,1.25104c-0.16268,0.38996 -0.39005,0.73112 -0.68306,1.02357c-0.28099,0.28163 -0.61651,0.5091 -1.00656,0.68241c-0.39005,0.16249 -0.80691,0.24374 -1.2515,0.24374h-8.91947v6.9864h-3.18513v-24.28989h3.18513v2.92457c0.03235,-0.41168 0.14049,-0.79074 0.32443,-1.13735c0.18486,-0.35743 0.41686,-0.66614 0.69877,-0.92615c0.28191,-0.27073 0.60634,-0.48193 0.97513,-0.63361c0.37896,-0.15168 0.78011,-0.22747 1.20251,-0.22747h5.71863c0.44459,0 0.86145,0.08661 1.2515,0.25991c0.39005,0.16249 0.72557,0.38996 1.00656,0.68241c0.293,0.28163 0.52038,0.61743 0.68306,1.00739c0.17284,0.38987 0.25973,0.80691 0.25973,1.25104zM184.36398,120.87146v-10.902h-8.91947v10.902zM203.34074,120.87146v-4.01312h-7.58756c-0.44366,0 -0.86052,-0.08125 -1.25057,-0.24374c-0.39005,-0.17331 -0.73112,-0.40078 -1.02412,-0.68232c-0.28099,-0.29245 -0.50836,-0.6337 -0.68213,-1.02366c-0.16268,-0.38987 -0.24309,-0.80691 -0.24309,-1.25104v-3.68813c0,-0.44412 0.08041,-0.86117 0.24309,-1.25104c0.17377,-0.38996 0.40115,-0.72576 0.68213,-1.00739c0.293,-0.29245 0.63407,-0.51992 1.02412,-0.68241c0.39005,-0.17331 0.80691,-0.25991 1.25057,-0.25991h10.12291v3.20075h-10.12291v3.68813h7.58756c0.44459,0 0.8559,0.0867 1.23486,0.26c0.39005,0.16249 0.73112,0.38987 1.02412,0.68241c0.29208,0.28154 0.51946,0.61734 0.68213,1.0073c0.17377,0.38996 0.25973,0.80691 0.25973,1.25104v4.01312c0,0.44412 -0.08596,0.86117 -0.25973,1.25104c-0.16268,0.38996 -0.39005,0.73112 -0.68213,1.02357c-0.293,0.28163 -0.63407,0.5091 -1.02412,0.68241c-0.37896,0.16249 -0.79027,0.24374 -1.23486,0.24374h-10.78748v-3.20075zM226.18475,117.05328h-11.4539v3.81818h11.4539v3.20075h-11.4539c-0.4335,0 -0.84481,-0.08125 -1.23486,-0.24374c-0.39005,-0.17331 -0.73112,-0.40078 -1.02412,-0.68241c-0.28099,-0.29245 -0.50836,-0.63361 -0.68213,-1.02357c-0.16268,-0.38987 -0.24401,-0.80691 -0.24401,-1.25104v-10.902c0,-0.44412 0.08134,-0.86117 0.24401,-1.25104c0.17377,-0.38996 0.40115,-0.72576 0.68213,-1.00739c0.293,-0.29245 0.63407,-0.51992 1.02412,-0.68241c0.39005,-0.17331 0.80137,-0.25991 1.23486,-0.25991h8.25305c0.44459,0 0.86145,0.08661 1.2515,0.25991c0.39005,0.16249 0.72557,0.38996 1.00748,0.68241c0.29208,0.28163 0.51946,0.61743 0.68213,1.00739c0.17284,0.38987 0.25973,0.80691 0.25973,1.25104zM214.73086,109.96947v3.88316h8.25305v-3.88316zM231.52996,109.96947c0,-0.44412 0.08134,-0.86117 0.24401,-1.25104c0.17377,-0.38996 0.40115,-0.72576 0.68213,-1.00739c0.293,-0.29245 0.63407,-0.51992 1.02412,-0.68241c0.39005,-0.17331 0.80137,-0.25991 1.23486,-0.25991h8.91947v-6.66141h3.20084v23.96491h-3.20084v-2.92457c-0.03235,0.40078 -0.14049,0.77992 -0.32443,1.13735c-0.18486,0.35743 -0.4224,0.67159 -0.71541,0.94232c-0.28191,0.26 -0.60634,0.46575 -0.97513,0.61743c-0.36787,0.15168 -0.75792,0.22747 -1.16924,0.22747h-5.73527c-0.4335,0 -0.84481,-0.08125 -1.23486,-0.24374c-0.39005,-0.17331 -0.73112,-0.40078 -1.02412,-0.68241c-0.28099,-0.29245 -0.50836,-0.63361 -0.68213,-1.02357c-0.16268,-0.38987 -0.24401,-0.80691 -0.24401,-1.25104zM234.71509,120.87146h8.91947v-10.902h-8.91947zM260.46695,100.77344h18.63569v3.33071h-7.65226v19.96806h-3.33117v-19.96806h-7.65226zM286.13839,106.76872v17.3035h-3.20084v-17.3035zM282.77486,100.1073h3.52527v3.33071h-3.52527zM305.35823,109.96947v14.10275h-3.19992v-14.10275h-7.32783v14.10275h-3.18421v-17.3035h3.18421v3.05453c0.02126,-0.4224 0.11923,-0.81782 0.29208,-1.18606c0.17377,-0.37915 0.40115,-0.70404 0.68306,-0.97486c0.29208,-0.28163 0.6276,-0.49829 1.00656,-0.64987c0.37989,-0.16249 0.78565,-0.24374 1.21915,-0.24374h4.12699c0.4224,0 0.82262,0.08125 1.20159,0.24374c0.37896,0.15158 0.71541,0.36824 1.00748,0.64987c0.293,0.27082 0.52593,0.59571 0.69877,0.97486c0.18394,0.36824 0.28191,0.76365 0.29208,1.18606c0.02218,-0.4224 0.11369,-0.81782 0.27636,-1.18606c0.17377,-0.37915 0.40115,-0.70404 0.68306,-0.97486c0.29208,-0.28163 0.6276,-0.49829 1.00656,-0.64987c0.37989,-0.16249 0.78565,-0.24374 1.21915,-0.24374h4.12699c0.44366,0 0.86052,0.08661 1.25057,0.25991c0.39005,0.16249 0.72557,0.38996 1.00748,0.68241c0.29208,0.28163 0.51946,0.61743 0.68213,1.00739c0.17377,0.38987 0.25973,0.80691 0.25973,1.25104v14.10275h-3.19992v-14.10275zM335.85543,117.05328h-11.45482v3.81818h11.45482v3.20075h-11.45482c-0.4335,0 -0.84481,-0.08125 -1.23486,-0.24374c-0.39005,-0.17331 -0.73112,-0.40078 -1.0232,-0.68241c-0.28191,-0.29245 -0.50929,-0.63361 -0.68306,-1.02357c-0.16175,-0.38987 -0.24309,-0.80691 -0.24309,-1.25104v-10.902c0,-0.44412 0.08134,-0.86117 0.24309,-1.25104c0.17377,-0.38996 0.40115,-0.72576 0.68306,-1.00739c0.29208,-0.29245 0.63314,-0.51992 1.0232,-0.68241c0.39005,-0.17331 0.80137,-0.25991 1.23486,-0.25991h8.25398c0.44366,0 0.86052,0.08661 1.25057,0.25991c0.39005,0.16249 0.72557,0.38996 1.00748,0.68241c0.29208,0.28163 0.52038,0.61743 0.68213,1.00739c0.17377,0.38987 0.26065,0.80691 0.26065,1.25104zM324.40061,109.96947v3.88316h8.25398v-3.88316zM341.20065,119.2142h4.85811v4.85802h-4.85811zM341.20065,106.76872h4.85811v4.85802h-4.85811z" fill="#000000" stroke="none" stroke-width="1" stroke-linecap="butt"/></g></g></svg>