<svg version="1.1" xmlns="http://www.w3.org/2000/svg" xmlns:xlink="http://www.w3.org/1999/xlink" width="4.84961" height="7.54981" viewBox="0,0,4.84961,7.54981"><g transform="translate(-237.5752,-174.58172)"><g data-paper-data="{&quot;isPaintingLayer&quot;:true}" fill="#ffffff" fill-rule="nonzero" stroke="#ffffff" stroke-width="0.25" stroke-linecap="butt" stroke-linejoin="miter" stroke-miterlimit="10" stroke-dasharray="" stroke-dashoffset="0" style="mix-blend-mode: normal"><path d="M242.29982,178.94501c0,0.13346 -0.02604,0.25879 -0.07812,0.37597c-0.04883,0.11719 -0.11719,0.21973 -0.20508,0.30762c-0.08464,0.08464 -0.18555,0.15299 -0.30274,0.20508c-0.11718,0.04883 -0.24251,0.07324 -0.37597,0.07324h-2.68067v2.09961h-0.95703v-7.29981h0.95703v0.87891c0.00977,-0.1237 0.04232,-0.23763 0.09766,-0.3418c0.05534,-0.10742 0.12532,-0.20019 0.20996,-0.27832c0.08464,-0.08138 0.18229,-0.14485 0.29297,-0.19043c0.11393,-0.04557 0.23437,-0.06836 0.36133,-0.06836h1.71875c0.13346,0 0.25879,0.02604 0.37597,0.07813c0.11719,0.04883 0.2181,0.11719 0.30274,0.20508c0.08789,0.08463 0.15625,0.18554 0.20508,0.30273c0.05208,0.11719 0.07812,0.24252 0.07812,0.37598zM241.33788,178.94501v-3.27637h-2.68067v3.27637z"/></g></g></svg>