<svg version="1.1" xmlns="http://www.w3.org/2000/svg" xmlns:xlink="http://www.w3.org/1999/xlink" width="232.86179" height="45.26505" viewBox="0,0,232.86179,45.26505"><g transform="translate(-98.27054,-157.35307)"><g data-paper-data="{&quot;isPaintingLayer&quot;:true}" fill-rule="nonzero" stroke-linecap="butt" stroke-linejoin="miter" stroke-miterlimit="10" stroke-dasharray="" stroke-dashoffset="0" style="mix-blend-mode: normal"><path d="M133.47475,158.60307h196.40758v42.76505h-229.08356z" fill="#000000" stroke="#ffd377" stroke-width="2.5"/><path d="M139.94462,182.04244l-4.94084,-17.28128h2.47052l3.83227,13.75026l3.82013,-13.75026h2.47052l3.82014,13.75026l3.83227,-13.75026h2.47031l-4.94084,17.28128h-2.71157l-3.69961,-12.95497l-3.71175,12.95497zM170.79531,179.66837c0,0.32928 -0.06417,0.63861 -0.19271,0.92779c-0.12052,0.28938 -0.28917,0.54235 -0.50616,0.75933c-0.20896,0.20875 -0.45803,0.37761 -0.7472,0.50616c-0.28116,0.12052 -0.58637,0.18079 -0.91586,0.18079h-6.37498c-0.32126,0 -0.62668,-0.06026 -0.91585,-0.18079c-0.28918,-0.12855 -0.54235,-0.2974 -0.75934,-0.50616c-0.20875,-0.21698 -0.37741,-0.46995 -0.50596,-0.75933c-0.12052,-0.28918 -0.18078,-0.5985 -0.18078,-0.92779v-8.08632c0,-0.32941 0.06026,-0.63871 0.18078,-0.92794c0.12855,-0.28922 0.2972,-0.53828 0.50596,-0.74716c0.21698,-0.21692 0.47016,-0.38563 0.75934,-0.50614c0.28918,-0.12855 0.59459,-0.19281 0.91585,-0.19281h6.37498c0.32949,0 0.6347,0.06427 0.91586,0.19281c0.28918,0.12051 0.53824,0.28922 0.7472,0.50614c0.21698,0.20888 0.38563,0.45794 0.50616,0.74716c0.12855,0.28923 0.19271,0.59854 0.19271,0.92794zM162.05841,171.58206v8.08632h6.37498v-8.08632zM177.12219,171.58206v10.46038h-2.36193v-12.83444h2.36193v2.26559c0.01604,-0.31332 0.08844,-0.60657 0.21698,-0.87972c0.12855,-0.28119 0.2972,-0.52222 0.50616,-0.72308c0.21698,-0.20888 0.46584,-0.36955 0.7472,-0.48203c0.28116,-0.12051 0.58246,-0.18076 0.90372,-0.18076h2.51865c0.32949,0 0.6347,0.06427 0.91586,0.19281c0.28938,0.12051 0.54235,0.28922 0.75933,0.50614c0.21678,0.20888 0.38564,0.45794 0.50616,0.74716c0.12855,0.28923 0.19271,0.59854 0.19271,0.92794v2.16917h-2.37406v-2.16917zM195.8255,182.04244l-6.12201,-5.4833v5.4833h-2.36192v-17.77538h2.36192v10.00239l5.62779,-5.06144h3.33825l-6.89328,6.19424l7.3873,6.6402zM211.98593,179.66837c0,0.32928 -0.06437,0.63861 -0.19292,0.92779c-0.12052,0.28938 -0.28917,0.54235 -0.50616,0.75933c-0.20875,0.20875 -0.45782,0.37761 -0.74699,0.50616c-0.28136,0.12052 -0.58657,0.18079 -0.91585,0.18079h-6.37519c-0.32126,0 -0.62647,-0.06026 -0.91585,-0.18079c-0.28918,-0.12855 -0.54215,-0.2974 -0.75914,-0.50616c-0.20896,-0.21698 -0.37761,-0.46995 -0.50616,-0.75933c-0.12052,-0.28918 -0.18078,-0.5985 -0.18078,-0.92779v-8.08632c0,-0.32941 0.06026,-0.63871 0.18078,-0.92794c0.12855,-0.28922 0.2972,-0.53828 0.50616,-0.74716c0.21698,-0.21692 0.46996,-0.38563 0.75914,-0.50614c0.28938,-0.12855 0.59459,-0.19281 0.91585,-0.19281h6.37519c0.32928,0 0.63449,0.06427 0.91585,0.19281c0.28918,0.12051 0.53824,0.28922 0.74699,0.50614c0.21698,0.20888 0.38563,0.45794 0.50616,0.74716c0.12855,0.28923 0.19292,0.59854 0.19292,0.92794zM203.24881,171.58206v8.08632h6.37519v-8.08632zM215.95065,169.208h2.36213v10.46037h6.61603v-10.46037h2.37407v12.83444h-2.37407v-2.16922c-0.02427,0.29719 -0.10448,0.57835 -0.24104,0.84346c-0.13656,0.26511 -0.31345,0.49814 -0.53022,0.69908c-0.20896,0.19271 -0.45001,0.34533 -0.72314,0.45783c-0.27313,0.1125 -0.56231,0.16886 -0.86773,0.16886h-4.2539c-0.32146,0 -0.62668,-0.06026 -0.91585,-0.18079c-0.28938,-0.12855 -0.54235,-0.2974 -0.75933,-0.50616c-0.20896,-0.21698 -0.37762,-0.46995 -0.50616,-0.75933c-0.12052,-0.28918 -0.18078,-0.5985 -0.18078,-0.92779zM230.50847,169.208h3.1332v-3.95276h2.37407v3.95276h4.21791v2.37406h-4.21791v8.08632h4.21791v2.37407h-4.21791c-0.32146,0 -0.62668,-0.06026 -0.91585,-0.18079c-0.28938,-0.12855 -0.54235,-0.2974 -0.75933,-0.50616c-0.21678,-0.21698 -0.38954,-0.46995 -0.51809,-0.75933c-0.12052,-0.28918 -0.18079,-0.5985 -0.18079,-0.92779v-8.08632h-3.1332z" fill="#ff914d" stroke="none" stroke-width="1"/><path d="M136.50212,187.52872h4.00709v0.77332h-3.06306v1.99336h2.16922v0.77332h-2.16922v3.68049h-0.94403zM142.21132,187.50362c0.15405,0 0.28794,0.05347 0.40168,0.16063c0.11044,0.11723 0.16577,0.25441 0.16577,0.41175c0,0.16063 -0.05533,0.29637 -0.16577,0.40682c-0.11373,0.11373 -0.24762,0.1707 -0.40168,0.1707c-0.16063,0 -0.29802,-0.05697 -0.41175,-0.1707c-0.11373,-0.10716 -0.17071,-0.24269 -0.17071,-0.40682c0,-0.16063 0.05697,-0.29781 0.17071,-0.41175c0.11373,-0.10716 0.25113,-0.16063 0.41175,-0.16063zM141.76955,189.52722h0.86361v5.22199h-0.86361zM144.27012,189.61751l0.83338,-0.18572c0.06376,0.20094 0.1088,0.39509 0.13575,0.58246c0.01337,0.09029 0.03003,0.26943 0.05018,0.53722h0.1055c0.18408,-0.33812 0.41155,-0.60755 0.68283,-0.80829c0.29781,-0.22109 0.61249,-0.33154 0.94403,-0.33154c0.49875,0 0.87863,0.12052 1.13983,0.36157c0.22418,0.20423 0.37987,0.51727 0.46687,0.9391c0.05697,0.28773 0.08535,0.71636 0.08535,1.28545v2.75147h-0.86361v-2.99252c0,-0.49875 -0.04854,-0.85538 -0.14562,-1.06969c-0.14397,-0.31797 -0.43355,-0.47695 -0.86875,-0.47695c-0.30789,0 -0.6092,0.14726 -0.90372,0.44199c-0.19744,0.19744 -0.40847,0.48703 -0.63264,0.86855v3.22863h-0.86382v-3.21362c0,-0.45186 -0.01172,-0.84181 -0.03496,-1.16985c-0.01358,-0.20423 -0.05697,-0.45351 -0.1306,-0.74823zM153.25322,187.51864h0.86361v5.25737c0,0.58904 0.00823,0.97571 0.02509,1.15978c0.01666,0.22768 0.05512,0.47201 0.11538,0.73322l-0.83338,0.18572c-0.05697,-0.18736 -0.09893,-0.37659 -0.12566,-0.56745c-0.03352,-0.23426 -0.05183,-0.41504 -0.05512,-0.54215h-0.07548c-0.174,0.36137 -0.3665,0.62751 -0.57732,0.79821c-0.25441,0.2176 -0.56909,0.3264 -0.94403,0.3264c-0.32805,0 -0.61085,-0.07013 -0.8486,-0.21081c-0.23775,-0.14397 -0.42348,-0.34306 -0.55737,-0.59748c-0.1306,-0.25441 -0.22768,-0.53392 -0.29123,-0.83852c-0.06026,-0.3048 -0.09029,-0.64108 -0.09029,-1.00943c0,-0.41504 0.04175,-0.78834 0.12546,-1.11968c0.087,-0.33133 0.21925,-0.62421 0.39674,-0.87863c0.17729,-0.25791 0.41505,-0.45535 0.71286,-0.59253c0.29802,-0.14068 0.64786,-0.21102 1.04954,-0.21102c0.31467,0 0.68447,0.04196 1.1098,0.12566zM153.25322,192.63533v-2.33478c-0.37843,-0.10057 -0.72643,-0.15076 -1.04461,-0.15076c-0.27107,0 -0.50533,0.05018 -0.70298,0.15076c-0.19415,0.09707 -0.34635,0.23591 -0.45679,0.41669c-0.11044,0.17749 -0.19086,0.37659 -0.24105,0.59748c-0.05018,0.22089 -0.07528,0.46873 -0.07528,0.7433c0,0.18736 0.00329,0.35314 0.00987,0.49711c0.01008,0.14048 0.02529,0.29452 0.04524,0.46194c0.02345,0.16392 0.05862,0.3046 0.10551,0.42162c0.0469,0.11723 0.10551,0.22603 0.17565,0.3264c0.07034,0.10057 0.16083,0.1775 0.27128,0.23097c0.11373,0.05018 0.24434,0.07548 0.3916,0.07548c0.35478,0 0.66288,-0.14232 0.92388,-0.42697c0.18757,-0.20752 0.38666,-0.54379 0.59768,-1.00923zM156.02977,193.86051c0.12731,-0.09029 0.23611,-0.1522 0.3264,-0.18572c0.09378,-0.03352 0.18758,-0.05018 0.28136,-0.05018c0.16392,0 0.29617,0.03332 0.39654,0.10037c0.10057,0.06355 0.17255,0.14726 0.21595,0.25112c0.0469,0.10037 0.06705,0.21596 0.06026,0.34635c-0.00658,0.1306 -0.03681,0.26121 -0.09029,0.39181c-0.03681,0.087 -0.08536,0.18901 -0.14562,0.30625c-0.06026,0.11703 -0.12402,0.23755 -0.19086,0.36157c-0.06705,0.12711 -0.13554,0.25091 -0.20588,0.37144c-0.06705,0.12052 -0.12546,0.22439 -0.17585,0.31139h-0.61249l0.39674,-1.31568zM162.26119,194.74922v-3.22863c0,-0.51541 -0.01172,-0.90372 -0.03517,-1.16492c-0.01337,-0.20423 -0.05676,-0.4535 -0.13039,-0.74823l0.82351,-0.18573c0.06355,0.20094 0.1088,0.3951 0.13553,0.58247c0.01337,0.07034 0.03003,0.25277 0.05018,0.54729h0.10551c0.1707,-0.34142 0.38481,-0.6092 0.64272,-0.80336c0.27786,-0.22418 0.59419,-0.33648 0.94897,-0.33648c0.20074,0 0.39489,0.03681 0.58246,0.11044c0.18736,0.07034 0.34471,0.17092 0.47201,0.30131c0.19087,0.18757 0.3264,0.46543 0.40661,0.83358h0.06027c0.20094,-0.38831 0.43685,-0.68633 0.70812,-0.89385c0.29123,-0.23426 0.61763,-0.35149 0.97899,-0.35149c0.43869,0 0.77497,0.12217 1.00943,0.36671c0.20423,0.20403 0.34799,0.51541 0.4317,0.93395c0.06026,0.3046 0.0905,0.72972 0.0905,1.27536v2.76155h-0.86361v-3.00259c0,-0.2645 -0.01522,-0.4821 -0.04525,-0.6528c-0.0469,-0.2645 -0.1306,-0.47037 -0.25113,-0.61763c-0.15055,-0.17749 -0.36157,-0.26614 -0.63264,-0.26614c-0.30789,0 -0.59254,0.14726 -0.85353,0.44199c-0.15734,0.17729 -0.34491,0.45186 -0.56251,0.8233c0.00679,0.05697 0.01008,0.14068 0.01008,0.25113v3.02275h-0.86362v-3.00259c0,-0.42512 -0.04196,-0.75152 -0.12566,-0.9792c-0.14048,-0.37165 -0.40661,-0.55737 -0.79821,-0.55737c-0.30131,0 -0.5876,0.15076 -0.85868,0.45186c-0.15734,0.17421 -0.34821,0.46379 -0.57238,0.86875v3.21855zM171.31465,190.4511l-0.2209,-0.70299c0.56231,-0.22418 1.15156,-0.33648 1.76734,-0.33648c0.53906,0 0.95082,0.0905 1.23526,0.27128c0.32476,0.20752 0.48703,0.56065 0.48703,1.05941v2.05363c0,0.27457 0.0035,0.55572 0.01008,0.84366c0.00349,0.1707 0.02015,0.34821 0.05018,0.53228c0.02695,0.174 0.06211,0.33976 0.1055,0.49711l-0.8235,0.18078c-0.07692,-0.22439 -0.12546,-0.4753 -0.14562,-0.75316l-0.10037,-0.01008c-0.41504,0.5222 -0.94402,0.78319 -1.58675,0.78319c-0.46873,0 -0.84531,-0.12875 -1.12975,-0.38645c-0.28465,-0.2612 -0.42677,-0.62771 -0.42677,-1.09973c0,-0.35149 0.07691,-0.63943 0.23096,-0.86361c0.15734,-0.22439 0.37823,-0.4134 0.66268,-0.56745c0.44857,-0.24434 1.07628,-0.3665 1.88313,-0.3665c0.10716,0 0.25092,0.00329 0.4317,0.00987v-0.76325c0,-0.24084 -0.07363,-0.41504 -0.22089,-0.5222c-0.14726,-0.10695 -0.37824,-0.16063 -0.69291,-0.16063c-0.45864,0 -0.96418,0.10037 -1.51641,0.30131zM173.74485,193.28319v-1.05447c-0.09029,-0.00679 -0.22253,-0.01008 -0.39654,-0.01008c-0.29472,0 -0.5658,0.02509 -0.81343,0.07528c-0.36836,0.07363 -0.65444,0.19087 -0.85867,0.35149c-0.20094,0.15734 -0.30131,0.38501 -0.30131,0.68282c0,0.53557 0.29123,0.80356 0.87369,0.80356c0.30131,0 0.58247,-0.08042 0.84346,-0.24105c0.21431,-0.13389 0.43191,-0.33648 0.6528,-0.60755zM176.24562,187.51864h0.86362v4.34851l2.35,-2.45551l0.56724,0.55243l-2.03347,2.09394l2.56574,2.69121h-1.07442l-2.37509,-2.51063v2.51063h-0.86362zM185.35912,194.45799c-0.37165,0.14747 -0.72129,0.25276 -1.04954,0.31652c-0.32455,0.06355 -0.61578,0.09522 -0.87369,0.09522c-0.39489,0 -0.7398,-0.0619 -1.03432,-0.18572c-0.29452,-0.12711 -0.5405,-0.3046 -0.73816,-0.53227c-0.19415,-0.22768 -0.34141,-0.49875 -0.44178,-0.81343c-0.09707,-0.31797 -0.14561,-0.66782 -0.14561,-1.04934c0,-0.23447 0.01666,-0.46872 0.05018,-0.70298c0.03352,-0.23447 0.087,-0.457 0.16063,-0.66782c0.07363,-0.21431 0.16906,-0.4136 0.28629,-0.59768c0.12052,-0.18408 0.26614,-0.34306 0.43685,-0.47695c0.1707,-0.13389 0.3698,-0.23941 0.59748,-0.31633c0.22768,-0.07712 0.48703,-0.11559 0.77826,-0.11559c0.74659,0 1.30889,0.23447 1.68712,0.70299c0.37843,0.46544 0.56745,1.13325 0.56745,2.00344v0.27622h-3.67555c0,0.28116 0.03024,0.53063 0.0905,0.74823c0.06026,0.21431 0.1522,0.39674 0.27601,0.54729c0.12731,0.14726 0.28629,0.25936 0.47716,0.33648c0.19415,0.07692 0.42347,0.11538 0.68776,0.11538c0.14747,0 0.29308,-0.00987 0.43685,-0.03002c0.14747,-0.02345 0.28958,-0.05183 0.42697,-0.08535c0.13718,-0.03681 0.26778,-0.07713 0.39159,-0.12053c0.12711,-0.0436 0.24599,-0.08535 0.35643,-0.12546zM184.77172,191.70137c-0.02695,-0.54235 -0.15734,-0.93724 -0.3918,-1.18507c-0.23097,-0.25092 -0.56231,-0.37659 -0.99421,-0.37659c-0.4317,0 -0.76139,0.12566 -0.98907,0.37659c-0.22439,0.24784 -0.35992,0.64272 -0.40682,1.18507zM191.84167,189.41164c0.16392,0 0.33463,0.01336 0.51212,0.04031c0.17729,0.02345 0.35149,0.07014 0.5222,0.14048c0.1707,0.07363 0.33134,0.1742 0.4821,0.3013c0.15384,0.12382 0.28958,0.28629 0.40661,0.48703c0.11723,0.20423 0.20916,0.45022 0.27621,0.73816c0.06685,0.28465 0.10037,0.62442 0.10037,1.01931c0,0.39509 -0.03352,0.73651 -0.10037,1.02445c-0.06705,0.28445 -0.15898,0.52713 -0.27621,0.72807c-0.11703,0.20403 -0.25277,0.3698 -0.40661,0.49711c-0.15076,0.12711 -0.31139,0.22583 -0.4821,0.29617c-0.1707,0.07363 -0.34491,0.12217 -0.5222,0.14562c-0.17749,0.02674 -0.3482,0.0401 -0.51212,0.0401c-0.16083,0 -0.32989,-0.01337 -0.50718,-0.0401c-0.17421,-0.02345 -0.34656,-0.07199 -0.51726,-0.14562c-0.1707,-0.07034 -0.33133,-0.16906 -0.48209,-0.29617c-0.15055,-0.12731 -0.28445,-0.29308 -0.40168,-0.49711c-0.11703,-0.20094 -0.20916,-0.44363 -0.27621,-0.72807c-0.06685,-0.28794 -0.10037,-0.62935 -0.10037,-1.02445c0,-0.39489 0.03352,-0.73466 0.10037,-1.01931c0.06705,-0.28794 0.15919,-0.53393 0.27621,-0.73816c0.11723,-0.20074 0.25113,-0.36321 0.40168,-0.48703c0.15076,-0.12711 0.31139,-0.22767 0.48209,-0.3013c0.1707,-0.07034 0.34306,-0.11703 0.51726,-0.14048c0.174,-0.02695 0.34306,-0.04031 0.50718,-0.04031zM191.84167,190.11976c-0.19087,0 -0.37165,0.03003 -0.54235,0.09029c-0.16742,0.06026 -0.31468,0.16577 -0.44199,0.31632c-0.13039,0.15405 -0.23426,0.35993 -0.31118,0.61764c-0.07712,0.2577 -0.11558,0.58925 -0.11558,0.99421c0,0.40168 0.03846,0.73322 0.11558,0.99421c0.07692,0.2577 0.18079,0.46194 0.31118,0.6127c0.12731,0.15384 0.27457,0.261 0.44199,0.32126c0.1707,0.05697 0.35149,0.08535 0.54235,0.08535c0.19415,0 0.37659,-0.02838 0.54729,-0.08535c0.174,-0.06026 0.3264,-0.16742 0.45679,-0.32126c0.1306,-0.15076 0.23282,-0.35499 0.30645,-0.6127c0.07692,-0.261 0.11539,-0.59253 0.11539,-0.99421c0,-0.40497 -0.03847,-0.73651 -0.11539,-0.99421c-0.07363,-0.2577 -0.17585,-0.46358 -0.30645,-0.61764c-0.13039,-0.15055 -0.28279,-0.25606 -0.45679,-0.31632c-0.1707,-0.06026 -0.35314,-0.09029 -0.54729,-0.09029zM196.43101,190.73739c0.10387,-0.20752 0.21431,-0.39509 0.33134,-0.56251c0.12052,-0.16742 0.25277,-0.30954 0.39674,-0.42677c0.1306,-0.11373 0.27457,-0.19744 0.43191,-0.25112c0.15734,-0.05677 0.33627,-0.08536 0.53721,-0.08536c0.06705,0 0.14397,0.00349 0.23097,0.01008c0.09029,0.00679 0.17585,0.01851 0.25606,0.03517c-0.01337,0.16742 -0.03003,0.32476 -0.05018,0.47201c-0.01666,0.14726 -0.0401,0.29617 -0.07034,0.44692c-0.16742,-0.03024 -0.32126,-0.05183 -0.46194,-0.0654c-0.13718,-0.01337 -0.26779,-0.00987 -0.3916,0.01008c-0.14726,0.02674 -0.27622,0.07712 -0.38666,0.15076c-0.10716,0.07013 -0.20753,0.16557 -0.30131,0.28609c-0.09029,0.11723 -0.17914,0.25956 -0.26613,0.42677c-0.087,0.16413 -0.18243,0.35334 -0.28609,0.56744v2.99766h-0.86382v-3.21855c0,-0.21081 -0.00329,-0.39674 -0.00987,-0.55737c-0.00349,-0.16063 -0.01357,-0.31303 -0.03023,-0.457c-0.01337,-0.14726 -0.03517,-0.29123 -0.0652,-0.43171c-0.03024,-0.14397 -0.07034,-0.30295 -0.12052,-0.47715c0.14048,-0.03681 0.27786,-0.07013 0.41175,-0.10037c0.13718,-0.03003 0.27601,-0.05862 0.41669,-0.08536c0.0469,0.13389 0.08371,0.25277 0.11044,0.35664c0.03024,0.10366 0.05368,0.20587 0.07034,0.30624c0.01666,0.09707 0.02838,0.19744 0.03517,0.30131c0.01008,0.10037 0.01995,0.2176 0.03003,0.35149zM203.31524,192.72068c0,0.27457 0.0033,0.50554 0.01008,0.69291c0.00658,0.18428 0.01501,0.34655 0.02509,0.48703c0.00987,0.14068 0.02509,0.26799 0.04504,0.38173c0.02345,0.11373 0.05204,0.2394 0.08536,0.37659c-0.14048,0.03681 -0.28115,0.07033 -0.42163,0.10036c-0.14068,0.03352 -0.28136,0.06191 -0.42184,0.08536c-0.06705,-0.2176 -0.11558,-0.41669 -0.14561,-0.59748c-0.02674,-0.18078 -0.04011,-0.35807 -0.04011,-0.53227v-6.18618h0.86362zM206.92539,189.41164c0.16413,0 0.33484,0.01336 0.51233,0.04031c0.17729,0.02345 0.35149,0.07014 0.5222,0.14048c0.1707,0.07363 0.33133,0.1742 0.48189,0.3013c0.15405,0.12382 0.28958,0.28629 0.40682,0.48703c0.11723,0.20423 0.20917,0.45022 0.27622,0.73816c0.06685,0.28465 0.10037,0.62442 0.10037,1.01931c0,0.39509 -0.03352,0.73651 -0.10037,1.02445c-0.06705,0.28445 -0.15898,0.52713 -0.27622,0.72807c-0.11723,0.20403 -0.25277,0.3698 -0.40682,0.49711c-0.15055,0.12711 -0.31118,0.22583 -0.48189,0.29617c-0.1707,0.07363 -0.34491,0.12217 -0.5222,0.14562c-0.17749,0.02674 -0.34821,0.0401 -0.51233,0.0401c-0.16063,0 -0.32969,-0.01337 -0.50698,-0.0401c-0.17421,-0.02345 -0.34655,-0.07199 -0.51726,-0.14562c-0.1707,-0.07034 -0.33134,-0.16906 -0.48209,-0.29617c-0.15055,-0.12731 -0.28444,-0.29308 -0.40168,-0.49711c-0.11723,-0.20094 -0.20917,-0.44363 -0.27622,-0.72807c-0.06685,-0.28794 -0.10037,-0.62935 -0.10037,-1.02445c0,-0.39489 0.03352,-0.73466 0.10037,-1.01931c0.06705,-0.28794 0.15898,-0.53393 0.27622,-0.73816c0.11723,-0.20074 0.25113,-0.36321 0.40168,-0.48703c0.15076,-0.12711 0.31139,-0.22767 0.48209,-0.3013c0.1707,-0.07034 0.34305,-0.11703 0.51726,-0.14048c0.174,-0.02695 0.34306,-0.04031 0.50698,-0.04031zM206.92539,190.11976c-0.19065,0 -0.37144,0.03003 -0.54215,0.09029c-0.16742,0.06026 -0.31467,0.16577 -0.44198,0.31632c-0.13039,0.15405 -0.23426,0.35993 -0.31118,0.61764c-0.07712,0.2577 -0.11559,0.58925 -0.11559,0.99421c0,0.40168 0.03847,0.73322 0.11559,0.99421c0.07692,0.2577 0.18079,0.46194 0.31118,0.6127c0.12731,0.15384 0.27457,0.261 0.44198,0.32126c0.1707,0.05697 0.35149,0.08535 0.54215,0.08535c0.19415,0 0.37659,-0.02838 0.5475,-0.08535c0.174,-0.06026 0.3262,-0.16742 0.45679,-0.32126c0.1306,-0.15076 0.23261,-0.35499 0.30624,-0.6127c0.07712,-0.261 0.11559,-0.59253 0.11559,-0.99421c0,-0.40497 -0.03846,-0.73651 -0.11559,-0.99421c-0.07363,-0.2577 -0.17565,-0.46358 -0.30624,-0.61764c-0.1306,-0.15055 -0.28279,-0.25606 -0.45679,-0.31632c-0.17092,-0.06026 -0.35335,-0.09029 -0.5475,-0.09029zM210.8823,190.4511l-0.2211,-0.70299c0.56251,-0.22418 1.15155,-0.33648 1.76754,-0.33648c0.53906,0 0.95082,0.0905 1.23526,0.27128c0.32476,0.20752 0.48703,0.56065 0.48703,1.05941v2.05363c0,0.27457 0.00349,0.55572 0.01008,0.84366c0.00329,0.1707 0.02015,0.34821 0.05018,0.53228c0.02674,0.174 0.06191,0.33976 0.10551,0.49711l-0.82351,0.18078c-0.07692,-0.22439 -0.12546,-0.4753 -0.14562,-0.75316l-0.10036,-0.01008c-0.41504,0.5222 -0.94403,0.78319 -1.58676,0.78319c-0.46873,0 -0.8453,-0.12875 -1.12975,-0.38645c-0.28465,-0.2612 -0.42677,-0.62771 -0.42677,-1.09973c0,-0.35149 0.07692,-0.63943 0.23097,-0.86361c0.15734,-0.22439 0.37822,-0.4134 0.66267,-0.56745c0.44857,-0.24434 1.07628,-0.3665 1.88313,-0.3665c0.10695,0 0.25092,0.00329 0.4317,0.00987v-0.76325c0,-0.24084 -0.07363,-0.41504 -0.22089,-0.5222c-0.14726,-0.10695 -0.37823,-0.16063 -0.6929,-0.16063c-0.45864,0 -0.96419,0.10037 -1.51641,0.30131zM213.31251,193.28319v-1.05447c-0.09029,-0.00679 -0.22253,-0.01008 -0.39674,-0.01008c-0.29452,0 -0.5656,0.02509 -0.81343,0.07528c-0.36815,0.07363 -0.65444,0.19087 -0.85847,0.35149c-0.20094,0.15734 -0.30131,0.38501 -0.30131,0.68282c0,0.53557 0.29124,0.80356 0.87369,0.80356c0.30131,0 0.58246,-0.08042 0.84346,-0.24105c0.21431,-0.13389 0.43191,-0.33648 0.6528,-0.60755zM218.86111,187.51864h0.86362v5.25737c0,0.58904 0.00843,0.97571 0.02509,1.15978c0.01666,0.22768 0.05512,0.47201 0.11538,0.73322l-0.83338,0.18572c-0.05697,-0.18736 -0.09872,-0.37659 -0.12566,-0.56745c-0.03332,-0.23426 -0.05183,-0.41504 -0.05512,-0.54215h-0.07528c-0.17421,0.36137 -0.36671,0.62751 -0.57753,0.79821c-0.25441,0.2176 -0.56909,0.3264 -0.94403,0.3264c-0.32805,0 -0.61085,-0.07013 -0.8486,-0.21081c-0.23755,-0.14397 -0.42348,-0.34306 -0.55737,-0.59748c-0.1306,-0.25441 -0.22768,-0.53392 -0.29123,-0.83852c-0.06026,-0.3048 -0.09029,-0.64108 -0.09029,-1.00943c0,-0.41504 0.04175,-0.78834 0.12546,-1.11968c0.087,-0.33133 0.21925,-0.62421 0.39674,-0.87863c0.17729,-0.25791 0.41504,-0.45535 0.71307,-0.59253c0.29781,-0.14068 0.64766,-0.21102 1.04934,-0.21102c0.31467,0 0.68468,0.04196 1.1098,0.12566zM218.86111,192.63533v-2.33478c-0.37843,-0.10057 -0.72643,-0.15076 -1.0444,-0.15076c-0.27128,0 -0.50554,0.05018 -0.70298,0.15076c-0.19415,0.09707 -0.34656,0.23591 -0.457,0.41669c-0.11044,0.17749 -0.19086,0.37659 -0.24104,0.59748c-0.05018,0.22089 -0.07528,0.46873 -0.07528,0.7433c0,0.18736 0.00329,0.35314 0.01008,0.49711c0.00987,0.14048 0.0251,0.29452 0.04505,0.46194c0.02345,0.16392 0.05861,0.3046 0.1055,0.42162c0.0469,0.11723 0.10551,0.22603 0.17585,0.3264c0.07013,0.10057 0.16063,0.1775 0.27107,0.23097c0.11373,0.05018 0.24434,0.07548 0.3916,0.07548c0.35478,0 0.66288,-0.14232 0.92387,-0.42697c0.18757,-0.20752 0.38666,-0.54379 0.59768,-1.00923zM224.67069,190.4511l-0.22089,-0.70299c0.56231,-0.22418 1.15135,-0.33648 1.76733,-0.33648c0.53906,0 0.95082,0.0905 1.23526,0.27128c0.32476,0.20752 0.48703,0.56065 0.48703,1.05941v2.05363c0,0.27457 0.00349,0.55572 0.01008,0.84366c0.00329,0.1707 0.02015,0.34821 0.05018,0.53228c0.02674,0.174 0.06191,0.33976 0.10551,0.49711l-0.82351,0.18078c-0.07692,-0.22439 -0.12546,-0.4753 -0.14561,-0.75316l-0.10037,-0.01008c-0.41504,0.5222 -0.94403,0.78319 -1.58675,0.78319c-0.46873,0 -0.8453,-0.12875 -1.12975,-0.38645c-0.28465,-0.2612 -0.42677,-0.62771 -0.42677,-1.09973c0,-0.35149 0.07692,-0.63943 0.23097,-0.86361c0.15734,-0.22439 0.37823,-0.4134 0.66267,-0.56745c0.44857,-0.24434 1.07627,-0.3665 1.88312,-0.3665c0.10695,0 0.25092,0.00329 0.43171,0.00987v-0.76325c0,-0.24084 -0.07363,-0.41504 -0.22089,-0.5222c-0.14726,-0.10695 -0.37823,-0.16063 -0.69291,-0.16063c-0.45864,0 -0.96419,0.10037 -1.51641,0.30131zM227.10091,193.28319v-1.05447c-0.09029,-0.00679 -0.22253,-0.01008 -0.39674,-0.01008c-0.29452,0 -0.5656,0.02509 -0.81343,0.07528c-0.36815,0.07363 -0.65445,0.19087 -0.85847,0.35149c-0.20094,0.15734 -0.30131,0.38501 -0.30131,0.68282c0,0.53557 0.29124,0.80356 0.87369,0.80356c0.30131,0 0.58246,-0.08042 0.84346,-0.24105c0.21431,-0.13389 0.43191,-0.33648 0.6528,-0.60755zM237.24893,194.74922h-1.14991l-0.6277,-2.42527l-1.00923,2.42527h-1.13469l-1.33584,-5.22714h0.86382l1.09952,4.59963l1.21531,-3.01288l-0.40681,-1.58676h0.86361l1.12976,4.59963c0.36157,-0.83687 0.61434,-1.46623 0.75831,-1.88806c0.174,-0.51212 0.261,-0.95247 0.261,-1.32062c0,-0.32126 -0.07856,-0.75482 -0.23591,-1.30046c0.3046,-0.07692 0.58082,-0.13904 0.82844,-0.18572c0.14068,0.34471 0.22932,0.71635 0.26613,1.11453c0.01008,0.10057 0.01502,0.20258 0.01502,0.30645c0,0.54894 -0.15384,1.18837 -0.46193,1.91809c-0.08371,0.19415 -0.17893,0.40332 -0.28609,0.62771c-0.10387,0.22089 -0.22768,0.4786 -0.37165,0.77312c-0.14048,0.29123 -0.23425,0.48539 -0.28115,0.58246zM241.94379,189.41164c0.16413,0 0.33484,0.01336 0.51213,0.04031c0.17749,0.02345 0.35149,0.07014 0.52219,0.14048c0.1707,0.07363 0.33155,0.1742 0.4821,0.3013c0.15405,0.12382 0.28958,0.28629 0.40682,0.48703c0.11703,0.20423 0.20917,0.45022 0.27601,0.73816c0.06705,0.28465 0.10057,0.62442 0.10057,1.01931c0,0.39509 -0.03352,0.73651 -0.10057,1.02445c-0.06685,0.28445 -0.15899,0.52713 -0.27601,0.72807c-0.11723,0.20403 -0.25277,0.3698 -0.40682,0.49711c-0.15055,0.12711 -0.31139,0.22583 -0.4821,0.29617c-0.1707,0.07363 -0.3447,0.12217 -0.52219,0.14562c-0.17729,0.02674 -0.348,0.0401 -0.51213,0.0401c-0.16063,0 -0.32969,-0.01337 -0.50718,-0.0401c-0.174,-0.02345 -0.34635,-0.07199 -0.51705,-0.14562c-0.1707,-0.07034 -0.33154,-0.16906 -0.48209,-0.29617c-0.15076,-0.12731 -0.28465,-0.29308 -0.40168,-0.49711c-0.11723,-0.20094 -0.20917,-0.44363 -0.27622,-0.72807c-0.06705,-0.28794 -0.10037,-0.62935 -0.10037,-1.02445c0,-0.39489 0.03332,-0.73466 0.10037,-1.01931c0.06705,-0.28794 0.15898,-0.53393 0.27622,-0.73816c0.11703,-0.20074 0.25092,-0.36321 0.40168,-0.48703c0.15055,-0.12711 0.31139,-0.22767 0.48209,-0.3013c0.1707,-0.07034 0.34305,-0.11703 0.51705,-0.14048c0.17421,-0.02695 0.34327,-0.04031 0.50718,-0.04031zM241.94379,190.11976c-0.19087,0 -0.37165,0.03003 -0.54235,0.09029c-0.16721,0.06026 -0.31467,0.16577 -0.44178,0.31632c-0.1306,0.15405 -0.23426,0.35993 -0.31139,0.61764c-0.07692,0.2577 -0.11539,0.58925 -0.11539,0.99421c0,0.40168 0.03847,0.73322 0.11539,0.99421c0.07712,0.2577 0.18079,0.46194 0.31139,0.6127c0.12711,0.15384 0.27457,0.261 0.44178,0.32126c0.1707,0.05697 0.35149,0.08535 0.54235,0.08535c0.19415,0 0.37659,-0.02838 0.5473,-0.08535c0.17421,-0.06026 0.3264,-0.16742 0.457,-0.32126c0.1306,-0.15076 0.23261,-0.35499 0.30624,-0.6127c0.07712,-0.261 0.11559,-0.59253 0.11559,-0.99421c0,-0.40497 -0.03846,-0.73651 -0.11559,-0.99421c-0.07363,-0.2577 -0.17565,-0.46358 -0.30624,-0.61764c-0.1306,-0.15055 -0.28279,-0.25606 -0.457,-0.31632c-0.1707,-0.06026 -0.35314,-0.09029 -0.5473,-0.09029zM246.53335,190.73739c0.10366,-0.20752 0.2141,-0.39509 0.33133,-0.56251c0.12052,-0.16742 0.25277,-0.30954 0.39674,-0.42677c0.13039,-0.11373 0.27436,-0.19744 0.4317,-0.25112c0.15734,-0.05677 0.33648,-0.08536 0.53742,-0.08536c0.06685,0 0.14377,0.00349 0.23097,0.01008c0.09029,0.00679 0.17565,0.01851 0.25606,0.03517c-0.01337,0.16742 -0.03024,0.32476 -0.05018,0.47201c-0.01686,0.14726 -0.04031,0.29617 -0.07034,0.44692c-0.16742,-0.03024 -0.32146,-0.05183 -0.46194,-0.0654c-0.13739,-0.01337 -0.26779,-0.00987 -0.39181,0.01008c-0.14726,0.02674 -0.27602,0.07712 -0.38666,0.15076c-0.10695,0.07013 -0.20752,0.16557 -0.3011,0.28609c-0.0905,0.11723 -0.17914,0.25956 -0.26614,0.42677c-0.08721,0.16413 -0.18243,0.35334 -0.28629,0.56744v2.99766h-0.86361v-3.21855c0,-0.21081 -0.0033,-0.39674 -0.01008,-0.55737c-0.00329,-0.16063 -0.01337,-0.31303 -0.03003,-0.457c-0.01358,-0.14726 -0.03517,-0.29123 -0.0654,-0.43171c-0.03003,-0.14397 -0.07034,-0.30295 -0.12052,-0.47715c0.14068,-0.03681 0.27786,-0.07013 0.41175,-0.10037c0.13718,-0.03003 0.27621,-0.05862 0.41689,-0.08536c0.04668,0.13389 0.0835,0.25277 0.11044,0.35664c0.03003,0.10366 0.05348,0.20587 0.07014,0.30624c0.01686,0.09707 0.02859,0.19744 0.03517,0.30131c0.01008,0.10037 0.02015,0.2176 0.03023,0.35149zM249.78707,187.51864h0.86361v4.34851l2.35,-2.45551l0.56745,0.55243l-2.03368,2.09394l2.56596,2.69121h-1.07463l-2.3751,-2.51063v2.51063h-0.86361zM256.93723,189.41164c0.16413,0 0.33483,0.01336 0.51233,0.04031c0.17729,0.02345 0.35149,0.07014 0.5222,0.14048c0.1707,0.07363 0.33134,0.1742 0.4821,0.3013c0.15384,0.12382 0.28938,0.28629 0.40661,0.48703c0.11723,0.20423 0.20916,0.45022 0.27621,0.73816c0.06685,0.28465 0.10037,0.62442 0.10037,1.01931c0,0.39509 -0.03352,0.73651 -0.10037,1.02445c-0.06705,0.28445 -0.15898,0.52713 -0.27621,0.72807c-0.11723,0.20403 -0.25277,0.3698 -0.40661,0.49711c-0.15076,0.12711 -0.31139,0.22583 -0.4821,0.29617c-0.1707,0.07363 -0.34491,0.12217 -0.5222,0.14562c-0.17749,0.02674 -0.3482,0.0401 -0.51233,0.0401c-0.16063,0 -0.32969,-0.01337 -0.50698,-0.0401c-0.17421,-0.02345 -0.34656,-0.07199 -0.51726,-0.14562c-0.1707,-0.07034 -0.33134,-0.16906 -0.48209,-0.29617c-0.15055,-0.12731 -0.28445,-0.29308 -0.40168,-0.49711c-0.11723,-0.20094 -0.20916,-0.44363 -0.27621,-0.72807c-0.06685,-0.28794 -0.10037,-0.62935 -0.10037,-1.02445c0,-0.39489 0.03352,-0.73466 0.10037,-1.01931c0.06705,-0.28794 0.15898,-0.53393 0.27621,-0.73816c0.11723,-0.20074 0.25113,-0.36321 0.40168,-0.48703c0.15076,-0.12711 0.31139,-0.22767 0.48209,-0.3013c0.1707,-0.07034 0.34306,-0.11703 0.51726,-0.14048c0.174,-0.02695 0.34306,-0.04031 0.50698,-0.04031zM256.93723,190.11976c-0.19065,0 -0.37144,0.03003 -0.54215,0.09029c-0.16742,0.06026 -0.31468,0.16577 -0.44199,0.31632c-0.13039,0.15405 -0.23426,0.35993 -0.31118,0.61764c-0.07712,0.2577 -0.11558,0.58925 -0.11558,0.99421c0,0.40168 0.03846,0.73322 0.11558,0.99421c0.07692,0.2577 0.18079,0.46194 0.31118,0.6127c0.12731,0.15384 0.27457,0.261 0.44199,0.32126c0.1707,0.05697 0.35149,0.08535 0.54215,0.08535c0.19436,0 0.37679,-0.02838 0.54749,-0.08535c0.174,-0.06026 0.3264,-0.16742 0.45679,-0.32126c0.1306,-0.15076 0.23262,-0.35499 0.30645,-0.6127c0.07692,-0.261 0.11539,-0.59253 0.11539,-0.99421c0,-0.40497 -0.03847,-0.73651 -0.11539,-0.99421c-0.07384,-0.2577 -0.17585,-0.46358 -0.30645,-0.61764c-0.13039,-0.15055 -0.28279,-0.25606 -0.45679,-0.31632c-0.1707,-0.06026 -0.35314,-0.09029 -0.54749,-0.09029zM264.90614,194.65893l-0.83358,0.18572c-0.06355,-0.20074 -0.1088,-0.39489 -0.13554,-0.58246c-0.01337,-0.087 -0.03024,-0.26449 -0.05018,-0.53228h-0.10551c-0.18408,0.33812 -0.41175,0.60776 -0.68283,0.80849c-0.29802,0.22089 -0.6127,0.33133 -0.94403,0.33133c-0.49875,0 -0.87883,-0.12052 -1.13983,-0.36136c-0.22439,-0.20423 -0.38008,-0.51727 -0.46708,-0.9391c-0.05677,-0.28794 -0.08535,-0.71635 -0.08535,-1.28544v-2.75662h0.86361v2.99766c0,0.49875 0.04854,0.85539 0.14562,1.06949c0.14397,0.31797 0.43355,0.47716 0.86875,0.47716c0.30789,0 0.6092,-0.14747 0.90392,-0.44199c0.19744,-0.19744 0.40826,-0.48703 0.63264,-0.86875v-3.23356h0.86362v3.22369c0,0.44508 0.01173,0.83173 0.03517,1.15978c0.01337,0.20423 0.05697,0.45372 0.1306,0.74824zM266.86436,188.33207h0.86361v1.19515h1.75746v0.72807h-1.75746v2.99766c0,0.20094 0.00514,0.35479 0.01522,0.46194c0.01337,0.10387 0.0434,0.18572 0.09029,0.24598c0.087,0.12052 0.26284,0.18079 0.52713,0.18079c0.14747,0 0.28958,-0.01501 0.42697,-0.04504c0.14047,-0.03024 0.26943,-0.06376 0.38666,-0.10057c0.09358,0.20423 0.17893,0.42862 0.25606,0.67296c-0.3951,0.13389 -0.79348,0.20073 -1.19515,0.20073c-0.29123,0 -0.52549,-0.03331 -0.70298,-0.10036c-0.174,-0.06355 -0.31138,-0.16907 -0.41175,-0.31633c-0.10366,-0.15405 -0.17235,-0.33812 -0.20588,-0.55243c-0.03352,-0.2141 -0.05018,-0.51047 -0.05018,-0.8887v-2.75662h-0.75317v-0.72807h0.75317z" fill="#ff914d" stroke="none" stroke-width="1"/></g></g></svg>