<svg version="1.1" xmlns="http://www.w3.org/2000/svg" xmlns:xlink="http://www.w3.org/1999/xlink" width="227.92999" height="48.8026" viewBox="0,0,227.92999,48.8026"><g transform="translate(-94.84912,-189.33856)"><g data-paper-data="{&quot;isPaintingLayer&quot;:true}" fill-rule="nonzero" stroke-linecap="butt" stroke-linejoin="miter" stroke-miterlimit="10" stroke-dasharray="" stroke-dashoffset="0" style="mix-blend-mode: normal"><path d="M128.99638,191.33856h191.78273v44.8026h-222.15772z" fill="#ff914d" stroke="#ffc8a6" stroke-width="4"/><path d="M130.36116,197.13561h13.19321v2.58818h-10.6052v5.17631h9.05231v2.58816h-9.05231v7.75191h-2.58801zM149.39985,204.28147v10.9587h-2.47445v-13.44587h2.47445v2.37355c0.01681,-0.32827 0.09265,-0.63548 0.22732,-0.92165c0.13467,-0.29459 0.31135,-0.54708 0.53027,-0.75751c0.22711,-0.21883 0.48804,-0.38718 0.78259,-0.50502c0.29476,-0.12624 0.61021,-0.18938 0.94699,-0.18938h2.63864c0.34518,0 0.66494,0.06733 0.95949,0.202c0.30295,0.12627 0.56819,0.30302 0.79551,0.53027c0.22711,0.21883 0.40401,0.47974 0.53027,0.78276c0.13467,0.30299 0.2019,0.62704 0.2019,0.97213v2.27254h-2.48717v-2.27254zM171.48118,209.78605h-8.90062v2.96695h8.90062v2.48717h-8.90062c-0.33678,0 -0.65654,-0.06313 -0.95949,-0.1894c-0.30317,-0.13467 -0.56819,-0.31135 -0.79551,-0.53027c-0.2187,-0.22732 -0.3956,-0.49235 -0.53027,-0.7953c-0.12627,-0.30317 -0.1894,-0.62723 -0.1894,-0.9722v-8.47154c0,-0.3451 0.06313,-0.66914 0.1894,-0.97213c0.13467,-0.30302 0.31157,-0.56393 0.53027,-0.78276c0.22732,-0.22726 0.49235,-0.40401 0.79551,-0.53027c0.30295,-0.13467 0.62271,-0.202 0.95949,-0.202h6.41345c0.34518,0 0.66925,0.06733 0.9722,0.202c0.30295,0.12627 0.56388,0.30302 0.7828,0.53027c0.22732,0.21883 0.40401,0.47974 0.53027,0.78276c0.13467,0.30299 0.2019,0.62704 0.2019,0.97213zM162.58056,204.28147v3.01742h6.41345v-3.01742zM187.01029,209.78605h-8.90084v2.96695h8.90084v2.48717h-8.90084c-0.33656,0 -0.65654,-0.06313 -0.95949,-0.1894c-0.30295,-0.13467 -0.56819,-0.31135 -0.7953,-0.53027c-0.21892,-0.22732 -0.3956,-0.49235 -0.53027,-0.7953c-0.12627,-0.30317 -0.1894,-0.62723 -0.1894,-0.9722v-8.47154c0,-0.3451 0.06313,-0.66914 0.1894,-0.97213c0.13467,-0.30302 0.31135,-0.56393 0.53027,-0.78276c0.22711,-0.22726 0.49235,-0.40401 0.7953,-0.53027c0.30295,-0.13467 0.62292,-0.202 0.95949,-0.202h6.41367c0.34497,0 0.66903,0.06733 0.9722,0.202c0.30295,0.12627 0.56388,0.30302 0.78259,0.53027c0.22732,0.21883 0.40401,0.47974 0.53027,0.78276c0.13467,0.30299 0.20211,0.62704 0.20211,0.97213zM178.10946,204.28147v3.01742h6.41367v-3.01742zM191.41643,215.24017v-18.10456h9.91074c2.92909,0 4.39364,1.46873 4.39364,4.4062v2.57553c0,2.93745 -1.46455,4.40618 -4.39364,4.40618h-7.32252v6.71664zM194.00466,205.93537h7.18376c0.69015,0 1.18659,-0.1515 1.48976,-0.45451c0.30295,-0.30299 0.45443,-0.79959 0.45443,-1.48978v-2.32302c0,-0.69017 -0.15148,-1.18676 -0.45443,-1.48978c-0.30317,-0.30299 -0.79961,-0.45449 -1.48976,-0.45449h-7.18376zM211.5663,196.61799v18.62218h-2.47467v-18.62218zM215.70719,209.36942c0,-0.3451 0.06313,-0.66494 0.1894,-0.95951c0.13467,-0.30302 0.31157,-0.56815 0.53027,-0.79538c0.22732,-0.22726 0.49235,-0.40401 0.79551,-0.53027c0.30295,-0.13467 0.62271,-0.202 0.95949,-0.202h6.41345v-2.60078h-8.11782v-2.48717h8.11782c0.34518,0 0.66925,0.06733 0.9722,0.202c0.30295,0.12627 0.56388,0.30302 0.7828,0.53027c0.22732,0.21883 0.40401,0.47974 0.53027,0.78276c0.13467,0.30299 0.2019,0.62704 0.2019,0.97213v10.9587h-2.48717v-2.27256c-0.02521,0.31135 -0.10924,0.6059 -0.25253,0.88364c-0.14307,0.27796 -0.32816,0.52187 -0.55548,0.73238c-0.2187,0.2019 -0.47123,0.36199 -0.75738,0.47964c-0.28614,0.11786 -0.58931,0.1769 -0.90907,0.1769h-3.939c-0.33678,0 -0.65654,-0.06313 -0.95949,-0.1894c-0.30317,-0.13467 -0.56819,-0.31135 -0.79551,-0.53027c-0.2187,-0.22732 -0.3956,-0.49235 -0.53027,-0.7953c-0.12627,-0.30317 -0.1894,-0.62723 -0.1894,-0.9722zM218.18186,212.753h6.41345v-3.38358h-6.41345zM232.14516,220.66893l2.81554,-6.64078l-5.27728,-12.23385h2.61343l3.92629,9.25427l3.9265,-9.25427h2.61343l-8.14325,18.87463z" fill="#ffffff" stroke="none" stroke-width="1"/><path d="M135.11593,228.88931h-1.04136l-3.62205,-5.69077v5.64358h-0.88989v-6.8082h1.04158l3.62183,5.69077v-5.69077h0.88989zM138.59103,223.8094c0.15471,0 0.31566,0.0125 0.48308,0.03771c0.1672,0.02219 0.33139,0.06636 0.49235,0.13273c0.16096,0.06938 0.31243,0.16397 0.45443,0.28399c0.14523,0.11678 0.273,0.26977 0.38354,0.45917c0.11054,0.19263 0.19715,0.42469 0.26029,0.69597c0.06313,0.26826 0.09481,0.58866 0.09481,0.96121c0,0.37233 -0.03167,0.69424 -0.09481,0.96574c-0.06313,0.26826 -0.14975,0.49709 -0.26029,0.68649c-0.11054,0.19263 -0.23831,0.34885 -0.38354,0.46886c-0.14199,0.1198 -0.29347,0.21288 -0.45443,0.27925c-0.16096,0.06938 -0.32514,0.11528 -0.49235,0.13725c-0.16742,0.02521 -0.32838,0.03792 -0.48308,0.03792c-0.15148,0 -0.31071,-0.01271 -0.47813,-0.03792c-0.16419,-0.02198 -0.32665,-0.06787 -0.48761,-0.13725c-0.16096,-0.06636 -0.31243,-0.15945 -0.45443,-0.27925c-0.14221,-0.12002 -0.26826,-0.27623 -0.3788,-0.46886c-0.11054,-0.1894 -0.19737,-0.41823 -0.2605,-0.68649c-0.06313,-0.27149 -0.09459,-0.5934 -0.09459,-0.96574c0,-0.37255 0.03146,-0.69295 0.09459,-0.96121c0.06313,-0.27128 0.14997,-0.50334 0.2605,-0.69597c0.11054,-0.1894 0.23659,-0.34238 0.3788,-0.45917c0.14199,-0.12002 0.29347,-0.21461 0.45443,-0.28399c0.16096,-0.06636 0.32342,-0.11054 0.48761,-0.13273c0.16419,-0.02521 0.32364,-0.03771 0.47813,-0.03771zM138.59103,224.47692c-0.17992,0 -0.35035,0.02844 -0.51131,0.08511c-0.15772,0.05688 -0.2967,0.15622 -0.4165,0.29843c-0.12325,0.14501 -0.22107,0.33915 -0.29369,0.5822c-0.0724,0.24305 -0.10881,0.55548 -0.10881,0.93751c0,0.3788 0.03641,0.69123 0.10881,0.93729c0.07261,0.24305 0.17044,0.43568 0.29369,0.57767c0.1198,0.14523 0.25878,0.24628 0.4165,0.30295c0.16096,0.05365 0.33139,0.08059 0.51131,0.08059c0.18315,0 0.35509,-0.02693 0.51605,-0.08059c0.16419,-0.05667 0.30791,-0.15772 0.43094,-0.30295c0.12303,-0.14199 0.21935,-0.33462 0.28873,-0.57767c0.07261,-0.24607 0.10903,-0.5585 0.10903,-0.93729c0,-0.38203 -0.03641,-0.69446 -0.10903,-0.93751c-0.06938,-0.24305 -0.1657,-0.43719 -0.28873,-0.5822c-0.12303,-0.14221 -0.26675,-0.24154 -0.43094,-0.29843c-0.16096,-0.05667 -0.3329,-0.08511 -0.51605,-0.08511zM149.93486,228.47755c-0.37556,0.15449 -0.76535,0.273 -1.16935,0.35509c-0.40099,0.08209 -0.79077,0.12303 -1.16957,0.12303c-0.49235,0 -0.92954,-0.06938 -1.31135,-0.20836c-0.3788,-0.13876 -0.69748,-0.35035 -0.95625,-0.63434c-0.25899,-0.2842 -0.45615,-0.64081 -0.5919,-1.07002c-0.13251,-0.43245 -0.19888,-0.94053 -0.19888,-1.52445c0,-0.63456 0.06787,-1.17883 0.20362,-1.63348c0.13876,-0.45443 0.33936,-0.82525 0.60116,-1.11247c0.26201,-0.29045 0.58392,-0.50355 0.96595,-0.6393c0.38504,-0.13575 0.82374,-0.2034 1.31609,-0.2034c0.30618,0 0.62809,0.03146 0.96595,0.09459c0.33764,0.0599 0.68476,0.14673 1.04158,0.26029l-0.25102,0.71019c-0.31868,-0.1073 -0.61861,-0.18767 -0.89959,-0.24133c-0.27774,-0.05365 -0.5585,-0.08059 -0.8427,-0.08059c-0.36608,0 -0.68649,0.05365 -0.96099,0.16096c-0.27472,0.1073 -0.50355,0.273 -0.68649,0.49709c-0.17992,0.22409 -0.31566,0.5098 -0.40724,0.85692c-0.08834,0.34734 -0.13251,0.76082 -0.13251,1.24046c0,0.4736 0.04094,0.88536 0.12303,1.23572c0.08533,0.35035 0.21461,0.64081 0.38828,0.87114c0.17367,0.22732 0.39452,0.39776 0.66278,0.51131c0.26826,0.11054 0.58543,0.1657 0.95173,0.1657c0.25878,0 0.51907,-0.02672 0.78108,-0.08037c0.26201,-0.05365 0.50183,-0.11678 0.71967,-0.1894v-1.88428h-1.14113v-0.71493h1.99805zM155.47889,228.7568l-0.78603,0.17518c-0.0599,-0.1894 -0.10256,-0.37233 -0.12777,-0.54923c-0.0125,-0.08209 -0.02844,-0.2493 -0.0474,-0.50183h-0.09933c-0.17367,0.3189 -0.38828,0.57293 -0.64382,0.76233c-0.28097,0.20836 -0.57767,0.31243 -0.89011,0.31243c-0.47037,0 -0.82848,-0.11355 -1.07476,-0.34087c-0.21138,-0.19263 -0.35833,-0.48761 -0.4402,-0.88536c-0.05365,-0.27149 -0.08059,-0.6755 -0.08059,-1.21202v-2.59921h0.81426v2.82653c0,0.47015 0.0459,0.80629 0.13747,1.0084c0.13553,0.29993 0.40875,0.44969 0.819,0.44969c0.29045,0 0.57444,-0.13876 0.85218,-0.4165c0.18617,-0.18638 0.38504,-0.45938 0.59642,-0.81922v-3.0489h0.81448v3.03942c0,0.41995 0.01099,0.78453 0.03318,1.09372c0.0125,0.19263 0.05365,0.42771 0.12303,0.70545zM157.36792,222.01023c0.14523,0 0.27149,0.05042 0.3788,0.15148c0.10407,0.11054 0.15622,0.23982 0.15622,0.38828c0,0.15148 -0.05214,0.27925 -0.15622,0.38354c-0.1073,0.1073 -0.23357,0.16096 -0.3788,0.16096c-0.15148,0 -0.28097,-0.05365 -0.38828,-0.16096c-0.1073,-0.10106 -0.16096,-0.22883 -0.16096,-0.38354c0,-0.15148 0.05365,-0.28097 0.16096,-0.38828c0.1073,-0.10106 0.2368,-0.15148 0.38828,-0.15148zM156.9512,223.91821h0.81448v4.92391h-0.81448zM162.34376,222.02445h0.81448v4.95688c0,0.55548 0.00776,0.92006 0.02349,1.09372c0.01594,0.21461 0.05214,0.44494 0.10903,0.69123l-0.78603,0.17518c-0.05365,-0.17669 -0.09308,-0.35509 -0.11829,-0.53501c-0.03146,-0.22086 -0.04891,-0.39129 -0.05214,-0.51131h-0.07089c-0.16419,0.34087 -0.34561,0.5919 -0.54449,0.75285c-0.23982,0.20513 -0.53652,0.30769 -0.89011,0.30769c-0.30941,0 -0.57595,-0.06636 -0.80004,-0.19888c-0.22409,-0.13575 -0.39927,-0.32342 -0.52553,-0.56345c-0.12325,-0.23982 -0.21461,-0.50334 -0.27472,-0.79056c-0.05667,-0.28722 -0.08511,-0.60439 -0.08511,-0.95173c0,-0.39129 0.03943,-0.74315 0.11829,-1.05559c0.08209,-0.31265 0.20685,-0.58866 0.37406,-0.8287c0.1672,-0.24305 0.39129,-0.42922 0.67227,-0.5585c0.28097,-0.13273 0.61064,-0.19888 0.98944,-0.19888c0.2967,0 0.64555,0.03943 1.04632,0.11829zM162.34376,226.84881v-2.20145c-0.3566,-0.09481 -0.68476,-0.14199 -0.9847,-0.14199c-0.25576,0 -0.47662,0.04719 -0.66278,0.14199c-0.18315,0.09157 -0.32665,0.22258 -0.43094,0.39302c-0.10407,0.1672 -0.17992,0.35509 -0.22711,0.56324c-0.0474,0.20836 -0.0711,0.44193 -0.0711,0.70071c0,0.1769 0.00323,0.33312 0.00948,0.46886c0.00948,0.13251 0.0237,0.27774 0.04266,0.43546c0.02198,0.15471 0.05516,0.28722 0.09933,0.39776c0.04417,0.11032 0.09955,0.2131 0.1657,0.30769c0.06636,0.09459 0.15148,0.1672 0.25576,0.21784c0.1073,0.04719 0.23034,0.07089 0.36932,0.07089c0.33441,0 0.62486,-0.13402 0.87093,-0.40228c0.1769,-0.19586 0.36457,-0.51303 0.56345,-0.95173zM168.47021,228.5674c-0.35035,0.13898 -0.68024,0.23831 -0.98944,0.29821c-0.30618,0.06012 -0.58091,0.09007 -0.82396,0.09007c-0.37233,0 -0.69748,-0.05839 -0.97522,-0.17518c-0.27774,-0.12002 -0.5098,-0.28722 -0.69597,-0.50183c-0.18315,-0.21461 -0.32191,-0.47037 -0.41672,-0.76707c-0.09136,-0.29972 -0.13725,-0.6296 -0.13725,-0.98944c0,-0.22086 0.01573,-0.44193 0.0474,-0.66278c0.03146,-0.22107 0.08209,-0.43094 0.15148,-0.62982c0.06938,-0.2019 0.15945,-0.38978 0.26977,-0.56324c0.11377,-0.17367 0.25102,-0.32364 0.41198,-0.4499c0.16096,-0.12627 0.34885,-0.2256 0.56345,-0.29821c0.21461,-0.07261 0.45917,-0.10881 0.73389,-0.10881c0.70372,0 1.23399,0.22086 1.5906,0.66278c0.35682,0.4387 0.53501,1.0683 0.53501,1.88902v0.26029h-3.46561c0,0.26524 0.02844,0.50032 0.08533,0.70545c0.05688,0.20211 0.1435,0.37406 0.26029,0.51605c0.12002,0.13898 0.26998,0.24477 0.4499,0.31739c0.18293,0.0724 0.39927,0.10881 0.64856,0.10881c0.13898,0 0.27623,-0.00948 0.41198,-0.02844c0.13876,-0.02198 0.273,-0.04891 0.40228,-0.08037c0.1295,-0.03491 0.25253,-0.07261 0.36932,-0.11377c0.12002,-0.04094 0.23206,-0.08037 0.33613,-0.11829zM167.91623,225.96819c-0.02521,-0.51131 -0.14824,-0.88364 -0.36932,-1.11721c-0.21784,-0.2368 -0.53027,-0.35509 -0.93729,-0.35509c-0.40724,0 -0.71816,0.11829 -0.93277,0.35509c-0.21138,0.23357 -0.33936,0.6059 -0.38354,1.11721zM178.45033,225.43792c0,1.1394 -0.25727,2.01055 -0.7716,2.61343c-0.51454,0.60288 -1.25317,0.90433 -2.21589,0.90433c-0.95302,0 -1.69014,-0.29993 -2.21093,-0.89959c-0.51756,-0.60288 -0.77634,-1.47554 -0.77634,-2.61817c0,-1.1394 0.26029,-2.00882 0.78108,-2.60869c0.52079,-0.59965 1.25619,-0.89937 2.20619,-0.89937c0.96272,0 1.70135,0.30295 2.21589,0.90885c0.51433,0.60288 0.7716,1.46929 0.7716,2.59921zM177.53652,225.43792c0,-0.87739 -0.17345,-1.55763 -0.52079,-2.0405c-0.34389,-0.48287 -0.86317,-0.72441 -1.55763,-0.72441c-0.69748,0 -1.21654,0.24456 -1.55763,0.73389c-0.34087,0.4861 -0.51131,1.16311 -0.51131,2.03102c0,0.4262 0.03965,0.80801 0.11851,1.14587c0.08209,0.33441 0.20513,0.62486 0.36932,0.87114c0.1672,0.24305 0.38332,0.43072 0.64856,0.56324c0.26826,0.1295 0.57918,0.19414 0.93255,0.19414c0.69446,0 1.21374,-0.24133 1.55763,-0.72441c0.34734,-0.48588 0.52079,-1.16935 0.52079,-2.04998zM180.65178,225.05912c0.09804,-0.19565 0.20211,-0.37233 0.31265,-0.53006c0.11355,-0.15794 0.23831,-0.29196 0.37406,-0.4025c0.12303,-0.1073 0.25878,-0.18617 0.40702,-0.2368c0.14846,-0.05365 0.31717,-0.08037 0.50657,-0.08037c0.06313,0 0.13575,0.00302 0.21784,0.00948c0.08533,0.00625 0.1657,0.01724 0.24154,0.03297c-0.01271,0.15794 -0.02844,0.30618 -0.0474,0.44516c-0.01573,0.13876 -0.03792,0.27925 -0.06636,0.42124c-0.15772,-0.02823 -0.30295,-0.04891 -0.43546,-0.06141c-0.1295,-0.01271 -0.25253,-0.00948 -0.36932,0.00948c-0.13898,0.02521 -0.2605,0.07261 -0.36457,0.14199c-0.10106,0.06636 -0.19565,0.15622 -0.28399,0.26977c-0.08533,0.11054 -0.16893,0.24477 -0.25102,0.4025c-0.08209,0.15471 -0.17194,0.3329 -0.26977,0.53501v2.82653h-0.81448v-3.03489c0,-0.19888 -0.00302,-0.37406 -0.00948,-0.52553c-0.00302,-0.15148 -0.0125,-0.29498 -0.02823,-0.43072c-0.01271,-0.13898 -0.03318,-0.27472 -0.06162,-0.40724c-0.02844,-0.13575 -0.06636,-0.28571 -0.11355,-0.44969c0.13251,-0.03491 0.2618,-0.06636 0.38806,-0.09481c0.1295,-0.02844 0.2605,-0.05516 0.39302,-0.08037c0.04417,0.12627 0.07886,0.23831 0.10407,0.33613c0.02844,0.09782 0.05064,0.19414 0.06636,0.28873c0.01573,0.09157 0.02693,0.18617 0.03318,0.28399c0.00948,0.09481 0.01896,0.20534 0.02844,0.33139zM188.672,222.03393c0.29993,0 0.58241,0.03469 0.84744,0.10407c0.26826,0.0696 0.50506,0.17992 0.71019,0.33139c0.20836,0.15471 0.37082,0.35035 0.48761,0.58715c0.12002,0.2368 0.17992,0.51605 0.17992,0.83796c0,0.32191 -0.0599,0.60138 -0.17992,0.83796c-0.11678,0.2368 -0.27925,0.43245 -0.48761,0.58715c-0.16096,0.12002 -0.34087,0.2131 -0.53975,0.27925c-0.19565,0.06636 -0.40551,0.11204 -0.6296,0.13747l-0.00474,0.00927c0.09157,0.06012 0.19263,0.14523 0.30295,0.25576c0.11054,0.1073 0.22581,0.23508 0.34561,0.38354c0.12002,0.14824 0.24305,0.3092 0.36932,0.48287c0.12627,0.17044 0.25404,0.35035 0.38354,0.53975l0.9847,1.4346h-1.04158l-1.07002,-1.65718c-0.19241,-0.30295 -0.35983,-0.54751 -0.50183,-0.73389c-0.13876,-0.18617 -0.27128,-0.3329 -0.39754,-0.4402c-0.12325,-0.1073 -0.24951,-0.17992 -0.3788,-0.21784c-0.1295,-0.03792 -0.27946,-0.05667 -0.4499,-0.05667h-0.17992v3.10578h-0.88062v-6.8082zM188.672,225.04512c0.19888,0 0.3803,-0.02219 0.54449,-0.06636c0.16419,-0.04417 0.30467,-0.11204 0.42146,-0.20362c0.1198,-0.09459 0.21288,-0.21461 0.27925,-0.35983c0.06636,-0.14523 0.09933,-0.31868 0.09933,-0.52079c0,-0.2019 -0.03297,-0.37556 -0.09933,-0.52079c-0.06636,-0.14523 -0.15945,-0.26352 -0.27925,-0.35509c-0.11678,-0.09459 -0.25727,-0.16397 -0.42146,-0.20836c-0.16419,-0.04417 -0.34561,-0.06615 -0.54449,-0.06615h-1.24994v2.301zM196.57392,228.7568l-0.78603,0.17518c-0.0599,-0.1894 -0.10256,-0.37233 -0.12777,-0.54923c-0.01271,-0.08209 -0.02844,-0.2493 -0.0474,-0.50183h-0.09933c-0.17367,0.3189 -0.38828,0.57293 -0.64404,0.76233c-0.28076,0.20836 -0.57746,0.31243 -0.88989,0.31243c-0.47037,0 -0.8287,-0.11355 -1.07476,-0.34087c-0.21159,-0.19263 -0.35833,-0.48761 -0.44042,-0.88536c-0.05365,-0.27149 -0.08037,-0.6755 -0.08037,-1.21202v-2.59921h0.81426v2.82653c0,0.47015 0.04568,0.80629 0.13725,1.0084c0.13575,0.29993 0.40875,0.44969 0.81922,0.44969c0.29024,0 0.57444,-0.13876 0.85218,-0.4165c0.18617,-0.18638 0.38504,-0.45938 0.59642,-0.81922v-3.0489h0.81426v3.03942c0,0.41995 0.0112,0.78453 0.03318,1.09372c0.01271,0.19263 0.05365,0.42771 0.12325,0.70545zM198.66634,226.9294c0,0.25878 0.00323,0.47662 0.00948,0.6533c0.00646,0.17367 0.01422,0.32665 0.0237,0.45917c0.00948,0.13251 0.0237,0.25253 0.04266,0.35983c0.02219,0.1073 0.04891,0.22581 0.08059,0.35509c-0.13273,0.03469 -0.26524,0.06636 -0.39776,0.09481c-0.13251,0.03146 -0.26524,0.05839 -0.39776,0.08037c-0.06313,-0.20513 -0.10881,-0.39302 -0.13725,-0.56345c-0.02521,-0.17044 -0.03792,-0.33764 -0.03792,-0.50183v-5.83276h0.81426zM203.92165,228.5674c-0.35035,0.13898 -0.68024,0.23831 -0.98944,0.29821c-0.30618,0.06012 -0.58069,0.09007 -0.82374,0.09007c-0.37255,0 -0.69769,-0.05839 -0.97543,-0.17518c-0.27774,-0.12002 -0.5098,-0.28722 -0.69597,-0.50183c-0.18293,-0.21461 -0.32191,-0.47037 -0.4165,-0.76707c-0.09157,-0.29972 -0.13747,-0.6296 -0.13747,-0.98944c0,-0.22086 0.01594,-0.44193 0.0474,-0.66278c0.03167,-0.22107 0.08209,-0.43094 0.15148,-0.62982c0.0696,-0.2019 0.15945,-0.38978 0.26998,-0.56324c0.11355,-0.17367 0.25081,-0.32364 0.41176,-0.4499c0.16096,-0.12627 0.34885,-0.2256 0.56345,-0.29821c0.21461,-0.07261 0.45917,-0.10881 0.73389,-0.10881c0.70372,0 1.23399,0.22086 1.59081,0.66278c0.3566,0.4387 0.53501,1.0683 0.53501,1.88902v0.26029h-3.46561c0,0.26524 0.02823,0.50032 0.08511,0.70545c0.05688,0.20211 0.14372,0.37406 0.2605,0.51605c0.1198,0.13898 0.26977,0.24477 0.44969,0.31739c0.18315,0.0724 0.39927,0.10881 0.64856,0.10881c0.13898,0 0.27623,-0.00948 0.41198,-0.02844c0.13876,-0.02198 0.273,-0.04891 0.4025,-0.08037c0.12928,-0.03491 0.25231,-0.07261 0.3691,-0.11377c0.12002,-0.04094 0.23206,-0.08037 0.33613,-0.11829zM203.36767,225.96819c-0.02521,-0.51131 -0.14824,-0.88364 -0.36932,-1.11721c-0.21762,-0.2368 -0.53027,-0.35509 -0.93729,-0.35509c-0.40724,0 -0.71816,0.11829 -0.93277,0.35509c-0.21138,0.23357 -0.33915,0.6059 -0.38354,1.11721zM206.91861,223.8094c0.25878,0 0.51756,0.02672 0.77634,0.08037c0.26201,0.05365 0.50506,0.12777 0.72915,0.22258c-0.04417,0.10106 -0.08985,0.20039 -0.13725,0.29821c-0.0474,0.09782 -0.09955,0.19414 -0.15622,0.28894c-0.07886,-0.03167 -0.16742,-0.06313 -0.26524,-0.09481c-0.09459,-0.03146 -0.19565,-0.05839 -0.30295,-0.08037c-0.10407,-0.02219 -0.2131,-0.03965 -0.32665,-0.05214c-0.11054,-0.01573 -0.21935,-0.0237 -0.32665,-0.0237c-0.11678,0 -0.23034,0.01271 -0.34087,0.03792c-0.1073,0.02198 -0.20362,0.0599 -0.28894,0.11355c-0.08188,0.05365 -0.14824,0.12476 -0.19866,0.2131c-0.05064,0.08511 -0.07585,0.19241 -0.07585,0.32191c0,0.13251 0.02844,0.24456 0.08533,0.33613c0.05667,0.08834 0.13402,0.16246 0.23185,0.22258c0.09782,0.0599 0.21159,0.11032 0.34087,0.15148c0.13273,0.04094 0.273,0.07886 0.42146,0.11355c0.23034,0.05688 0.44494,0.12152 0.64382,0.19414c0.19888,0.06938 0.37082,0.16096 0.51605,0.27472c0.14523,0.11355 0.25878,0.25404 0.34087,0.42124c0.08209,0.1672 0.12303,0.37406 0.12303,0.62034c0,0.25878 -0.05193,0.48114 -0.15622,0.66753c-0.10084,0.18617 -0.23982,0.34087 -0.4165,0.46391c-0.17367,0.12002 -0.37729,0.20836 -0.61086,0.26503c-0.23357,0.06012 -0.48287,0.09007 -0.7479,0.09007c-0.13898,0 -0.28248,-0.00948 -0.43094,-0.02844c-0.14523,-0.01573 -0.29045,-0.04094 -0.43546,-0.07563c-0.14221,-0.03167 -0.28248,-0.0711 -0.42146,-0.11851c-0.13876,-0.04719 -0.26977,-0.09933 -0.39302,-0.15622c0.04417,-0.10106 0.09007,-0.19888 0.13747,-0.29347c0.05042,-0.09782 0.10256,-0.19414 0.15622,-0.28873c0.10407,0.04417 0.21461,0.08662 0.33139,0.12777c0.11678,0.03792 0.23659,0.07089 0.35983,0.09933c0.12303,0.02844 0.24456,0.05214 0.36457,0.0711c0.1198,0.01573 0.23508,0.0237 0.34561,0.0237c0.13876,0 0.273,-0.01594 0.40228,-0.0474c0.13251,-0.03167 0.2493,-0.08059 0.35035,-0.14673c0.10429,-0.06938 0.18617,-0.15794 0.24628,-0.26524c0.06313,-0.1073 0.09459,-0.23659 0.09459,-0.38806c0,-0.14221 -0.02995,-0.25899 -0.08985,-0.35035c-0.05688,-0.09157 -0.13424,-0.16742 -0.23206,-0.22732c-0.09782,-0.06313 -0.2131,-0.11355 -0.34561,-0.15148c-0.1295,-0.04115 -0.26675,-0.07886 -0.41198,-0.11377c-0.22086,-0.05365 -0.43072,-0.11506 -0.6296,-0.18466c-0.19565,-0.06938 -0.36759,-0.15923 -0.51605,-0.26977c-0.14523,-0.11355 -0.26201,-0.25253 -0.35035,-0.41672c-0.08511,-0.1672 -0.12777,-0.37384 -0.12777,-0.62012c0,-0.23034 0.0474,-0.42922 0.14199,-0.59664c0.09459,-0.1672 0.22086,-0.30446 0.3788,-0.41176c0.16096,-0.1073 0.34561,-0.18617 0.55397,-0.2368c0.21138,-0.05365 0.43223,-0.08037 0.66278,-0.08037zM213.68415,222.01023c0.14523,0 0.27128,0.05042 0.3788,0.15148c0.10407,0.11054 0.15622,0.23982 0.15622,0.38828c0,0.15148 -0.05214,0.27925 -0.15622,0.38354c-0.10752,0.1073 -0.23357,0.16096 -0.3788,0.16096c-0.15148,0 -0.28097,-0.05365 -0.38828,-0.16096c-0.1073,-0.10106 -0.16096,-0.22883 -0.16096,-0.38354c0,-0.15148 0.05365,-0.28097 0.16096,-0.38828c0.1073,-0.10106 0.2368,-0.15148 0.38828,-0.15148zM213.27217,223.91821h0.81426v4.24217c0,0.57746 -0.05839,1.01615 -0.17518,1.31609c-0.11032,0.28722 -0.34238,0.62659 -0.69597,1.01788l-0.26977,0.29821l-0.54449,-0.44969c0.25878,-0.31243 0.43094,-0.54126 0.51605,-0.68649c0.00323,-0.00625 0.03943,-0.07412 0.10903,-0.20362c0.16397,-0.34087 0.24607,-0.75113 0.24607,-1.23098zM219.92415,228.7568l-0.78603,0.17518c-0.0599,-0.1894 -0.10256,-0.37233 -0.12777,-0.54923c-0.01271,-0.08209 -0.02844,-0.2493 -0.0474,-0.50183h-0.09933c-0.17367,0.3189 -0.38828,0.57293 -0.64382,0.76233c-0.28097,0.20836 -0.57767,0.31243 -0.89011,0.31243c-0.47037,0 -0.8287,-0.11355 -1.07476,-0.34087c-0.21159,-0.19263 -0.35833,-0.48761 -0.44042,-0.88536c-0.05365,-0.27149 -0.08037,-0.6755 -0.08037,-1.21202v-2.59921h0.81426v2.82653c0,0.47015 0.0459,0.80629 0.13725,1.0084c0.13575,0.29993 0.40875,0.44969 0.81922,0.44969c0.29024,0 0.57444,-0.13876 0.85218,-0.4165c0.18617,-0.18638 0.38504,-0.45938 0.59642,-0.81922v-3.0489h0.81448v3.03942c0,0.41995 0.01099,0.78453 0.03297,1.09372c0.01271,0.19263 0.05365,0.42771 0.12325,0.70545zM222.79787,223.8094c0.25878,0 0.51756,0.02672 0.77655,0.08037c0.2618,0.05365 0.50485,0.12777 0.72893,0.22258c-0.04417,0.10106 -0.08985,0.20039 -0.13725,0.29821c-0.0474,0.09782 -0.09933,0.19414 -0.15622,0.28894c-0.07886,-0.03167 -0.1672,-0.06313 -0.26503,-0.09481c-0.09481,-0.03146 -0.19586,-0.05839 -0.30317,-0.08037c-0.10407,-0.02219 -0.21288,-0.03965 -0.32665,-0.05214c-0.11032,-0.01573 -0.21935,-0.0237 -0.32665,-0.0237c-0.11678,0 -0.23034,0.01271 -0.34087,0.03792c-0.1073,0.02198 -0.20362,0.0599 -0.28873,0.11355c-0.08209,0.05365 -0.14846,0.12476 -0.19888,0.2131c-0.05042,0.08511 -0.07585,0.19241 -0.07585,0.32191c0,0.13251 0.02844,0.24456 0.08533,0.33613c0.05688,0.08834 0.13402,0.16246 0.23206,0.22258c0.09782,0.0599 0.21138,0.11032 0.34087,0.15148c0.13251,0.04094 0.273,0.07886 0.42124,0.11355c0.23034,0.05688 0.44516,0.12152 0.64382,0.19414c0.19888,0.06938 0.37104,0.16096 0.51605,0.27472c0.14523,0.11355 0.25899,0.25404 0.34087,0.42124c0.08209,0.1672 0.12325,0.37406 0.12325,0.62034c0,0.25878 -0.05214,0.48114 -0.15622,0.66753c-0.10106,0.18617 -0.24003,0.34087 -0.41672,0.46391c-0.17367,0.12002 -0.37707,0.20836 -0.61064,0.26503c-0.23357,0.06012 -0.48308,0.09007 -0.74811,0.09007c-0.13898,0 -0.28248,-0.00948 -0.43094,-0.02844c-0.14501,-0.01573 -0.29024,-0.04094 -0.43546,-0.07563c-0.14199,-0.03167 -0.28248,-0.0711 -0.42146,-0.11851c-0.13876,-0.04719 -0.26977,-0.09933 -0.3928,-0.15622c0.04417,-0.10106 0.08985,-0.19888 0.13725,-0.29347c0.05042,-0.09782 0.10256,-0.19414 0.15622,-0.28873c0.10407,0.04417 0.21461,0.08662 0.33139,0.12777c0.11678,0.03792 0.2368,0.07089 0.35983,0.09933c0.12303,0.02844 0.24456,0.05214 0.36457,0.0711c0.1198,0.01573 0.23508,0.0237 0.34561,0.0237c0.13876,0 0.273,-0.01594 0.40228,-0.0474c0.13273,-0.03167 0.24951,-0.08059 0.35035,-0.14673c0.10429,-0.06938 0.18638,-0.15794 0.24628,-0.26524c0.06313,-0.1073 0.09481,-0.23659 0.09481,-0.38806c0,-0.14221 -0.03017,-0.25899 -0.09007,-0.35035c-0.05688,-0.09157 -0.13424,-0.16742 -0.23206,-0.22732c-0.09782,-0.06313 -0.21288,-0.11355 -0.34561,-0.15148c-0.12928,-0.04115 -0.26654,-0.07886 -0.41176,-0.11377c-0.22107,-0.05365 -0.43094,-0.11506 -0.62982,-0.18466c-0.19565,-0.06938 -0.36759,-0.15923 -0.51605,-0.26977c-0.14501,-0.11355 -0.2618,-0.25253 -0.35035,-0.41672c-0.08511,-0.1672 -0.12777,-0.37384 -0.12777,-0.62012c0,-0.23034 0.0474,-0.42922 0.14199,-0.59664c0.09481,-0.1672 0.22107,-0.30446 0.3788,-0.41176c0.16096,-0.1073 0.34561,-0.18617 0.55397,-0.2368c0.21138,-0.05365 0.43245,-0.08037 0.66278,-0.08037zM226.29666,222.79152h0.81426v1.12669h1.65718v0.68649h-1.65718v2.82653c0,0.1894 0.00474,0.33441 0.01422,0.43546c0.01271,0.09782 0.04115,0.17518 0.08533,0.23206c0.08188,0.11355 0.24779,0.17044 0.49709,0.17044c0.13876,0 0.273,-0.01422 0.40228,-0.04266c0.13273,-0.02844 0.25425,-0.0599 0.36457,-0.09459c0.08834,0.19241 0.16893,0.40401 0.24154,0.63434c-0.37255,0.12627 -0.74811,0.1894 -1.12691,0.1894c-0.27451,0 -0.49536,-0.03167 -0.66278,-0.09459c-0.16397,-0.06012 -0.29347,-0.15945 -0.38828,-0.29843c-0.09782,-0.14523 -0.16246,-0.31868 -0.19392,-0.52079c-0.03167,-0.2019 -0.0474,-0.48136 -0.0474,-0.83796v-2.59921h-0.71019v-0.68649h0.71019zM237.15741,228.84212h-1.08424l-0.59168,-2.28678l-0.95173,2.28678h-1.06981l-1.25942,-4.92865h0.81426l1.03684,4.33676l1.14565,-2.84075l-0.38332,-1.49601h0.81426l1.06528,4.33676c0.34087,-0.78905 0.57918,-1.38245 0.71493,-1.78021c0.16397,-0.48287 0.24607,-0.89786 0.24607,-1.24498c0,-0.30317 -0.07412,-0.71191 -0.22236,-1.22624c0.28722,-0.07261 0.54751,-0.13101 0.78108,-0.17518c0.13251,0.32493 0.21612,0.67528 0.25102,1.05106c0.00948,0.09459 0.01422,0.19091 0.01422,0.28873c0,0.51756 -0.14523,1.12044 -0.43568,1.80844c-0.07886,0.18315 -0.16893,0.38052 -0.26977,0.5919c-0.09804,0.20836 -0.21482,0.45141 -0.35035,0.72915c-0.13273,0.27451 -0.22107,0.45766 -0.26524,0.54923zM241.58424,223.8094c0.15449,0 0.31545,0.0125 0.48287,0.03771c0.1672,0.02219 0.33139,0.06636 0.49235,0.13273c0.16096,0.06938 0.31243,0.16397 0.45443,0.28399c0.14523,0.11678 0.273,0.26977 0.38354,0.45917c0.11054,0.19263 0.19737,0.42469 0.2605,0.69597c0.06313,0.26826 0.09459,0.58866 0.09459,0.96121c0,0.37233 -0.03146,0.69424 -0.09459,0.96574c-0.06313,0.26826 -0.14997,0.49709 -0.2605,0.68649c-0.11054,0.19263 -0.23831,0.34885 -0.38354,0.46886c-0.14199,0.1198 -0.29347,0.21288 -0.45443,0.27925c-0.16096,0.06938 -0.32514,0.11528 -0.49235,0.13725c-0.16742,0.02521 -0.32838,0.03792 -0.48287,0.03792c-0.15169,0 -0.31092,-0.01271 -0.47834,-0.03792c-0.16397,-0.02198 -0.32665,-0.06787 -0.48761,-0.13725c-0.16096,-0.06636 -0.31243,-0.15945 -0.45443,-0.27925c-0.14199,-0.12002 -0.26826,-0.27623 -0.3788,-0.46886c-0.11054,-0.1894 -0.19737,-0.41823 -0.2605,-0.68649c-0.06292,-0.27149 -0.09459,-0.5934 -0.09459,-0.96574c0,-0.37255 0.03167,-0.69295 0.09459,-0.96121c0.06313,-0.27128 0.14997,-0.50334 0.2605,-0.69597c0.11054,-0.1894 0.2368,-0.34238 0.3788,-0.45917c0.14199,-0.12002 0.29347,-0.21461 0.45443,-0.28399c0.16096,-0.06636 0.32364,-0.11054 0.48761,-0.13273c0.16419,-0.02521 0.32364,-0.03771 0.47834,-0.03771zM241.58424,224.47692c-0.17992,0 -0.35035,0.02844 -0.51131,0.08511c-0.15794,0.05688 -0.2967,0.15622 -0.41672,0.29843c-0.12303,0.14501 -0.22086,0.33915 -0.29347,0.5822c-0.07261,0.24305 -0.10903,0.55548 -0.10903,0.93751c0,0.3788 0.03641,0.69123 0.10903,0.93729c0.07261,0.24305 0.17044,0.43568 0.29347,0.57767c0.12002,0.14523 0.25878,0.24628 0.41672,0.30295c0.16096,0.05365 0.33139,0.08059 0.51131,0.08059c0.18293,0 0.35509,-0.02693 0.51605,-0.08059c0.16397,-0.05667 0.30769,-0.15772 0.43072,-0.30295c0.12303,-0.14199 0.21935,-0.33462 0.28873,-0.57767c0.07261,-0.24607 0.10903,-0.5585 0.10903,-0.93729c0,-0.38203 -0.03641,-0.69446 -0.10903,-0.93751c-0.06938,-0.24305 -0.1657,-0.43719 -0.28873,-0.5822c-0.12303,-0.14221 -0.26675,-0.24154 -0.43072,-0.29843c-0.16096,-0.05667 -0.33312,-0.08511 -0.51605,-0.08511zM245.91152,225.05912c0.09782,-0.19565 0.2019,-0.37233 0.31243,-0.53006c0.11355,-0.15794 0.23831,-0.29196 0.37406,-0.4025c0.12303,-0.1073 0.25878,-0.18617 0.40702,-0.2368c0.14846,-0.05365 0.31717,-0.08037 0.50657,-0.08037c0.06313,0 0.13575,0.00302 0.21784,0.00948c0.08533,0.00625 0.1657,0.01724 0.24154,0.03297c-0.01271,0.15794 -0.02844,0.30618 -0.0474,0.44516c-0.01573,0.13876 -0.03792,0.27925 -0.06636,0.42124c-0.15772,-0.02823 -0.30295,-0.04891 -0.43546,-0.06141c-0.1295,-0.01271 -0.25253,-0.00948 -0.36932,0.00948c-0.13898,0.02521 -0.26029,0.07261 -0.36457,0.14199c-0.10106,0.06636 -0.19565,0.15622 -0.28399,0.26977c-0.08533,0.11054 -0.16893,0.24477 -0.25102,0.4025c-0.08209,0.15471 -0.17194,0.3329 -0.26977,0.53501v2.82653h-0.81448v-3.03489c0,-0.19888 -0.00302,-0.37406 -0.00927,-0.52553c-0.00323,-0.15148 -0.01271,-0.29498 -0.02844,-0.43072c-0.01271,-0.13898 -0.03318,-0.27472 -0.06162,-0.40724c-0.02844,-0.13575 -0.06636,-0.28571 -0.11355,-0.44969c0.13251,-0.03491 0.26201,-0.06636 0.38806,-0.09481c0.1295,-0.02844 0.2605,-0.05516 0.39302,-0.08037c0.04417,0.12627 0.07886,0.23831 0.10429,0.33613c0.02823,0.09782 0.05042,0.19414 0.06615,0.28873c0.01573,0.09157 0.02693,0.18617 0.03318,0.28399c0.00948,0.09481 0.01896,0.20534 0.02844,0.33139zM248.97937,222.02445h0.81426v4.09996l2.21567,-2.31501l0.53501,0.52079l-1.91746,1.97413l2.41929,2.5378h-1.01314l-2.23938,-2.36737v2.36737h-0.81426zM255.7212,223.8094c0.15471,0 0.31566,0.0125 0.48287,0.03771c0.16742,0.02219 0.33139,0.06636 0.49235,0.13273c0.16096,0.06938 0.31243,0.16397 0.45464,0.28399c0.14523,0.11678 0.273,0.26977 0.38332,0.45917c0.11054,0.19263 0.19737,0.42469 0.2605,0.69597c0.06313,0.26826 0.09459,0.58866 0.09459,0.96121c0,0.37233 -0.03146,0.69424 -0.09459,0.96574c-0.06313,0.26826 -0.14997,0.49709 -0.2605,0.68649c-0.11032,0.19263 -0.23809,0.34885 -0.38332,0.46886c-0.14221,0.1198 -0.29369,0.21288 -0.45464,0.27925c-0.16096,0.06938 -0.32493,0.11528 -0.49235,0.13725c-0.1672,0.02521 -0.32816,0.03792 -0.48287,0.03792c-0.15148,0 -0.31092,-0.01271 -0.47813,-0.03792c-0.16419,-0.02198 -0.32665,-0.06787 -0.48761,-0.13725c-0.16117,-0.06636 -0.31265,-0.15945 -0.45464,-0.27925c-0.14199,-0.12002 -0.26826,-0.27623 -0.3788,-0.46886c-0.11032,-0.1894 -0.19715,-0.41823 -0.26029,-0.68649c-0.06313,-0.27149 -0.09481,-0.5934 -0.09481,-0.96574c0,-0.37255 0.03167,-0.69295 0.09481,-0.96121c0.06313,-0.27128 0.14997,-0.50334 0.26029,-0.69597c0.11054,-0.1894 0.2368,-0.34238 0.3788,-0.45917c0.14199,-0.12002 0.29347,-0.21461 0.45464,-0.28399c0.16096,-0.06636 0.32342,-0.11054 0.48761,-0.13273c0.16397,-0.02521 0.32342,-0.03771 0.47813,-0.03771zM255.7212,224.47692c-0.17992,0 -0.35035,0.02844 -0.51131,0.08511c-0.15794,0.05688 -0.2967,0.15622 -0.41672,0.29843c-0.12303,0.14501 -0.22086,0.33915 -0.29347,0.5822c-0.07261,0.24305 -0.10881,0.55548 -0.10881,0.93751c0,0.3788 0.0362,0.69123 0.10881,0.93729c0.07261,0.24305 0.17044,0.43568 0.29347,0.57767c0.12002,0.14523 0.25878,0.24628 0.41672,0.30295c0.16096,0.05365 0.33139,0.08059 0.51131,0.08059c0.18315,0 0.35509,-0.02693 0.51605,-0.08059c0.16419,-0.05667 0.30769,-0.15772 0.43072,-0.30295c0.12325,-0.14199 0.21956,-0.33462 0.28894,-0.57767c0.07261,-0.24607 0.10881,-0.5585 0.10881,-0.93729c0,-0.38203 -0.0362,-0.69446 -0.10881,-0.93751c-0.06938,-0.24305 -0.1657,-0.43719 -0.28894,-0.5822c-0.12303,-0.14221 -0.26654,-0.24154 -0.43072,-0.29843c-0.16096,-0.05667 -0.3329,-0.08511 -0.51605,-0.08511zM263.23485,228.7568l-0.78603,0.17518c-0.0599,-0.1894 -0.10256,-0.37233 -0.12777,-0.54923c-0.01271,-0.08209 -0.02844,-0.2493 -0.0474,-0.50183h-0.09933c-0.17367,0.3189 -0.38828,0.57293 -0.64404,0.76233c-0.28076,0.20836 -0.57746,0.31243 -0.88989,0.31243c-0.47037,0 -0.8287,-0.11355 -1.07476,-0.34087c-0.21159,-0.19263 -0.35833,-0.48761 -0.44042,-0.88536c-0.05365,-0.27149 -0.08037,-0.6755 -0.08037,-1.21202v-2.59921h0.81426v2.82653c0,0.47015 0.04568,0.80629 0.13725,1.0084c0.13575,0.29993 0.40875,0.44969 0.81922,0.44969c0.29024,0 0.57444,-0.13876 0.85218,-0.4165c0.18617,-0.18638 0.38504,-0.45938 0.59642,-0.81922v-3.0489h0.81426v3.03942c0,0.41995 0.0112,0.78453 0.03318,1.09372c0.01271,0.19263 0.05365,0.42771 0.12325,0.70545zM265.08121,222.79152h0.81426v1.12669h1.65718v0.68649h-1.65718v2.82653c0,0.1894 0.00474,0.33441 0.01422,0.43546c0.01271,0.09782 0.04115,0.17518 0.08533,0.23206c0.08188,0.11355 0.24779,0.17044 0.49709,0.17044c0.13876,0 0.273,-0.01422 0.40228,-0.04266c0.13273,-0.02844 0.25425,-0.0599 0.36457,-0.09459c0.08834,0.19241 0.16893,0.40401 0.24154,0.63434c-0.37255,0.12627 -0.74811,0.1894 -1.12691,0.1894c-0.27451,0 -0.49536,-0.03167 -0.66278,-0.09459c-0.16397,-0.06012 -0.29347,-0.15945 -0.38828,-0.29843c-0.09782,-0.14523 -0.16246,-0.31868 -0.19392,-0.52079c-0.03167,-0.2019 -0.0474,-0.48136 -0.0474,-0.83796v-2.59921h-0.71019v-0.68649h0.71019z" fill="#ffffff" stroke="none" stroke-width="1"/></g></g></svg>