<svg version="1.1" xmlns="http://www.w3.org/2000/svg" xmlns:xlink="http://www.w3.org/1999/xlink" width="88" height="20" viewBox="0,0,88,20"><g transform="translate(-196,-170)"><g data-paper-data="{&quot;isPaintingLayer&quot;:true}" fill-rule="nonzero" stroke="none" stroke-width="1" stroke-linecap="butt" stroke-linejoin="miter" stroke-miterlimit="10" stroke-dasharray="" stroke-dashoffset="0" style="mix-blend-mode: normal"><path d="M284,172.23058v15.53882c0,1.2319 -0.9463,2.2306 -2.1136,2.2306h-83.77279c-1.16732,0 -2.11361,-0.9987 -2.11361,-2.2306v-15.53882c0,-1.23192 0.94629,-2.23058 2.11361,-2.23058h83.77279c1.1673,0 2.1136,0.99866 2.1136,2.23058z" fill="#5c8ce8"/><path d="M200.54395,179.70215c-0.1504,0 -0.29362,-0.02865 -0.42969,-0.08594c-0.13249,-0.06087 -0.24886,-0.13965 -0.34912,-0.23633c-0.10026,-0.10026 -0.17904,-0.21663 -0.23633,-0.34912c-0.05729,-0.13607 -0.08594,-0.2793 -0.08594,-0.42969v-2.20214c0,-0.15039 0.02865,-0.29183 0.08594,-0.42432c0.05729,-0.13607 0.13607,-0.25244 0.23633,-0.34912c0.10026,-0.10026 0.21663,-0.17904 0.34912,-0.23633c0.13607,-0.06087 0.27929,-0.09131 0.42969,-0.09131h3.73828c0.15039,0 0.29183,0.03044 0.42431,0.09131c0.13607,0.05729 0.25423,0.13607 0.3545,0.23633c0.10026,0.09668 0.17903,0.21305 0.23632,0.34912c0.05729,0.13249 0.08594,0.27393 0.08594,0.42432v0.99365h-1.10107v-0.99365h-3.73828v2.20214h3.73828c0.15039,0 0.29183,0.02865 0.42431,0.08594c0.13607,0.05729 0.25423,0.13607 0.3545,0.23633c0.10026,0.10026 0.17903,0.21842 0.23632,0.35449c0.05729,0.13249 0.08594,0.27393 0.08594,0.42432v2.19675c0,0.1504 -0.02865,0.2936 -0.08594,0.4297c-0.05729,0.1325 -0.13606,0.2489 -0.23632,0.3491c-0.10027,0.1003 -0.21843,0.1791 -0.3545,0.2364c-0.13248,0.0573 -0.27392,0.0859 -0.42431,0.0859h-3.84571c-0.15039,0 -0.29362,-0.0286 -0.42968,-0.0859c-0.13249,-0.0573 -0.24886,-0.1361 -0.34913,-0.2364c-0.10026,-0.1002 -0.17903,-0.2166 -0.23632,-0.3491c-0.05729,-0.1361 -0.08594,-0.2793 -0.08594,-0.4297v-0.9883h1.10107v0.9883h3.84571v-2.19675zM206.9302,177.27979h1.3965v-1.76172h1.0581v1.76172h1.8798v1.0581h-1.8798v3.60401h1.8798v1.0581h-1.8798c-0.1433,0 -0.2793,-0.0269 -0.4082,-0.0806c-0.1289,-0.0573 -0.2417,-0.1325 -0.3384,-0.2256c-0.0967,-0.0966 -0.1737,-0.2094 -0.231,-0.3383c-0.0537,-0.1289 -0.0805,-0.2668 -0.0805,-0.4136v-3.60401h-1.3965zM213.0317,180.5024c0,-0.1468 0.0269,-0.2828 0.0806,-0.4082c0.0573,-0.12887 0.1325,-0.24166 0.2256,-0.33834c0.0967,-0.09668 0.2095,-0.17188 0.3384,-0.22559c0.1289,-0.05729 0.2649,-0.08593 0.4082,-0.08593h2.7285v-1.10645h-3.4536v-1.0581h3.4536c0.1468,0 0.2847,0.02864 0.4136,0.08593c0.1289,0.05371 0.2399,0.12891 0.333,0.22559c0.0966,0.0931 0.1718,0.2041 0.2256,0.33301c0.0572,0.1289 0.0859,0.26676 0.0859,0.41357v4.66211h-1.0581v-0.9668c-0.0108,0.1325 -0.0466,0.2578 -0.1074,0.376c-0.0609,0.1181 -0.1397,0.222 -0.2364,0.3115c-0.0931,0.0859 -0.2005,0.154 -0.3222,0.2041c-0.1218,0.0501 -0.2507,0.0752 -0.3867,0.0752h-1.6758c-0.1433,0 -0.2793,-0.0269 -0.4082,-0.0806c-0.1289,-0.0573 -0.2417,-0.1325 -0.3384,-0.2256c-0.0931,-0.0966 -0.1683,-0.2094 -0.2256,-0.3383c-0.0537,-0.1289 -0.0806,-0.2668 -0.0806,-0.4136zM214.0845,181.9419h2.7285v-1.4395h-2.7285zM220.6909,178.33789v4.66211h-1.0527v-5.72021h1.0527v1.00976c0.0072,-0.13965 0.0394,-0.27034 0.0967,-0.39209c0.0573,-0.12532 0.1325,-0.23275 0.2256,-0.32226c0.0967,-0.0931 0.2077,-0.16472 0.333,-0.21485c0.1253,-0.05371 0.2596,-0.08056 0.4028,-0.08056h1.1226c0.1468,0 0.2829,0.02864 0.4082,0.08593c0.1289,0.05371 0.2417,0.12891 0.3384,0.22559c0.0966,0.0931 0.1718,0.2041 0.2256,0.33301c0.0572,0.1289 0.0859,0.26676 0.0859,0.41357v0.9668h-1.0581v-0.9668zM224.9126,177.27979h1.3965v-1.76172h1.0581v1.76172h1.8799v1.0581h-1.8799v3.60401h1.8799v1.0581h-1.8799c-0.1432,0 -0.2793,-0.0269 -0.4082,-0.0806c-0.1289,-0.0573 -0.2417,-0.1325 -0.3384,-0.2256c-0.0967,-0.0966 -0.1737,-0.2094 -0.231,-0.3383c-0.0537,-0.1289 -0.0805,-0.2668 -0.0805,-0.4136v-3.60401h-1.3965zM235.9609,183l-2.2021,-7.70215h1.1011l1.708,6.12845l1.7026,-6.12845h1.1011l1.7026,6.12845l1.708,-6.12845h1.1011l-2.2021,7.70215h-1.2085l-1.649,-5.77393l-1.6543,5.77393zM249.7109,181.9419c0,0.1468 -0.0286,0.2847 -0.0859,0.4136c-0.0537,0.1289 -0.1289,0.2417 -0.2256,0.3383c-0.0931,0.0931 -0.2041,0.1683 -0.333,0.2256c-0.1253,0.0537 -0.2614,0.0806 -0.4082,0.0806h-2.8413c-0.1432,0 -0.2793,-0.0269 -0.4082,-0.0806c-0.1289,-0.0573 -0.2417,-0.1325 -0.3384,-0.2256c-0.0931,-0.0966 -0.1683,-0.2094 -0.2256,-0.3383c-0.0537,-0.1289 -0.0805,-0.2668 -0.0805,-0.4136v-3.60401c0,-0.14681 0.0268,-0.28467 0.0805,-0.41357c0.0573,-0.12891 0.1325,-0.23991 0.2256,-0.33301c0.0967,-0.09668 0.2095,-0.17188 0.3384,-0.22559c0.1289,-0.05729 0.265,-0.08593 0.4082,-0.08593h2.8413c0.1468,0 0.2829,0.02864 0.4082,0.08593c0.1289,0.05371 0.2399,0.12891 0.333,0.22559c0.0967,0.0931 0.1719,0.2041 0.2256,0.33301c0.0573,0.1289 0.0859,0.26676 0.0859,0.41357zM245.8169,178.33789v3.60401h2.8413v-3.60401zM252.5308,178.33789v4.66211h-1.0528v-5.72021h1.0528v1.00976c0.0071,-0.13965 0.0393,-0.27034 0.0966,-0.39209c0.0573,-0.12532 0.1325,-0.23275 0.2256,-0.32226c0.0967,-0.0931 0.2077,-0.16472 0.333,-0.21485c0.1254,-0.05371 0.2596,-0.08056 0.4029,-0.08056h1.1225c0.1468,0 0.2829,0.02864 0.4082,0.08593c0.1289,0.05371 0.2417,0.12891 0.3384,0.22559c0.0967,0.0931 0.1719,0.2041 0.2256,0.33301c0.0573,0.1289 0.0859,0.26676 0.0859,0.41357v0.9668h-1.0581v-0.9668zM260.8667,183l-2.7285,-2.4438v2.4438h-1.0528v-7.92236h1.0528v4.458l2.5083,-2.25585h1.4878l-3.0723,2.76071l3.2925,2.9595zM268.0693,181.9419c0,0.1468 -0.0286,0.2847 -0.0859,0.4136c-0.0537,0.1289 -0.1289,0.2417 -0.2256,0.3383c-0.0931,0.0931 -0.2041,0.1683 -0.333,0.2256c-0.1253,0.0537 -0.2614,0.0806 -0.4082,0.0806h-2.8413c-0.1432,0 -0.2793,-0.0269 -0.4082,-0.0806c-0.1289,-0.0573 -0.2417,-0.1325 -0.3384,-0.2256c-0.0931,-0.0966 -0.1683,-0.2094 -0.2256,-0.3383c-0.0537,-0.1289 -0.0805,-0.2668 -0.0805,-0.4136v-3.60401c0,-0.14681 0.0268,-0.28467 0.0805,-0.41357c0.0573,-0.12891 0.1325,-0.23991 0.2256,-0.33301c0.0967,-0.09668 0.2095,-0.17188 0.3384,-0.22559c0.1289,-0.05729 0.265,-0.08593 0.4082,-0.08593h2.8413c0.1468,0 0.2829,0.02864 0.4082,0.08593c0.1289,0.05371 0.2399,0.12891 0.333,0.22559c0.0967,0.0931 0.1719,0.2041 0.2256,0.33301c0.0573,0.1289 0.0859,0.26676 0.0859,0.41357zM264.1753,178.33789v3.60401h2.8413v-3.60401zM269.8364,177.27979h1.0528v4.66211h2.9487v-4.66211h1.0581v5.72021h-1.0581v-0.9668c-0.0108,0.1325 -0.0466,0.2578 -0.1074,0.376c-0.0609,0.1181 -0.1397,0.222 -0.2364,0.3115c-0.0931,0.0859 -0.2005,0.154 -0.3222,0.2041c-0.1218,0.0501 -0.2507,0.0752 -0.3867,0.0752h-1.896c-0.1433,0 -0.2793,-0.0269 -0.4082,-0.0806c-0.1289,-0.0573 -0.2417,-0.1325 -0.3384,-0.2256c-0.0931,-0.0966 -0.1683,-0.2094 -0.2256,-0.3383c-0.0537,-0.1289 -0.0806,-0.2668 -0.0806,-0.4136zM276.3247,177.27979h1.3965v-1.76172h1.0581v1.76172h1.8799v1.0581h-1.8799v3.60401h1.8799v1.0581h-1.8799c-0.1432,0 -0.2793,-0.0269 -0.4082,-0.0806c-0.1289,-0.0573 -0.2417,-0.1325 -0.3384,-0.2256c-0.0967,-0.0966 -0.1737,-0.2094 -0.2309,-0.3383c-0.0538,-0.1289 -0.0806,-0.2668 -0.0806,-0.4136v-3.60401h-1.3965z" fill="#000000"/></g></g></svg>