<svg xmlns="http://www.w3.org/2000/svg" fill="none" viewBox="0 0 88 20" height="20" width="88">
<path fill="#467DE5" d="M85.8864 0H2.11361C0.946294 0 0 0.998662 0 2.23058V17.7694C0 19.0013 0.946294 20 2.11361 20H85.8864C87.0537 20 88 19.0013 88 17.7694V2.23058C88 0.998662 87.0537 0 85.8864 0Z"></path>
<path fill="white" d="M4.54395 9.70215C4.39355 9.70215 4.25033 9.6735 4.11426 9.61621C3.98177 9.55534 3.8654 9.47656 3.76514 9.37988C3.66488 9.27962 3.5861 9.16325 3.52881 9.03076C3.47152 8.89469 3.44287 8.75146 3.44287 8.60107V6.39893C3.44287 6.24854 3.47152 6.1071 3.52881 5.97461C3.5861 5.83854 3.66488 5.72217 3.76514 5.62549C3.8654 5.52523 3.98177 5.44645 4.11426 5.38916C4.25033 5.32829 4.39355 5.29785 4.54395 5.29785H8.28223C8.43262 5.29785 8.57406 5.32829 8.70654 5.38916C8.84261 5.44645 8.96077 5.52523 9.06104 5.62549C9.1613 5.72217 9.24007 5.83854 9.29736 5.97461C9.35465 6.1071 9.3833 6.24854 9.3833 6.39893V7.39258H8.28223V6.39893H4.54395V8.60107H8.28223C8.43262 8.60107 8.57406 8.62972 8.70654 8.68701C8.84261 8.7443 8.96077 8.82308 9.06104 8.92334C9.1613 9.0236 9.24007 9.14176 9.29736 9.27783C9.35465 9.41032 9.3833 9.55176 9.3833 9.70215V11.8989C9.3833 12.0493 9.35465 12.1925 9.29736 12.3286C9.24007 12.4611 9.1613 12.5775 9.06104 12.6777C8.96077 12.778 8.84261 12.8568 8.70654 12.9141C8.57406 12.9714 8.43262 13 8.28223 13H4.43652C4.28613 13 4.1429 12.9714 4.00684 12.9141C3.87435 12.8568 3.75798 12.778 3.65771 12.6777C3.55745 12.5775 3.47868 12.4611 3.42139 12.3286C3.3641 12.1925 3.33545 12.0493 3.33545 11.8989V10.9106H4.43652V11.8989H8.28223V9.70215H4.54395ZM10.9302 7.27979H12.3267V5.51807H13.3848V7.27979H15.2646V8.33789H13.3848V11.9419H15.2646V13H13.3848C13.2415 13 13.1055 12.9731 12.9766 12.9194C12.8477 12.8621 12.7349 12.7869 12.6382 12.6938C12.5415 12.5972 12.4645 12.4844 12.4072 12.3555C12.3535 12.2266 12.3267 12.0887 12.3267 11.9419V8.33789H10.9302V7.27979ZM17.0317 10.5024C17.0317 10.3556 17.0586 10.2196 17.1123 10.0942C17.1696 9.96533 17.2448 9.85254 17.3379 9.75586C17.4346 9.65918 17.5474 9.58398 17.6763 9.53027C17.8052 9.47298 17.9412 9.44434 18.0845 9.44434H20.813V8.33789H17.3594V7.27979H20.813C20.9598 7.27979 21.0977 7.30843 21.2266 7.36572C21.3555 7.41943 21.4665 7.49463 21.5596 7.59131C21.6562 7.68441 21.7314 7.79541 21.7852 7.92432C21.8424 8.05322 21.8711 8.19108 21.8711 8.33789V13H20.813V12.0332C20.8022 12.1657 20.7664 12.291 20.7056 12.4092C20.6447 12.5273 20.5659 12.6312 20.4692 12.7207C20.3761 12.8066 20.2687 12.8747 20.147 12.9248C20.0252 12.9749 19.8963 13 19.7603 13H18.0845C17.9412 13 17.8052 12.9731 17.6763 12.9194C17.5474 12.8621 17.4346 12.7869 17.3379 12.6938C17.2448 12.5972 17.1696 12.4844 17.1123 12.3555C17.0586 12.2266 17.0317 12.0887 17.0317 11.9419V10.5024ZM18.0845 11.9419H20.813V10.5024H18.0845V11.9419ZM24.6909 8.33789V13H23.6382V7.27979H24.6909V8.28955C24.6981 8.1499 24.7303 8.01921 24.7876 7.89746C24.8449 7.77214 24.9201 7.66471 25.0132 7.5752C25.1099 7.4821 25.2209 7.41048 25.3462 7.36035C25.4715 7.30664 25.6058 7.27979 25.749 7.27979H26.8716C27.0184 7.27979 27.1545 7.30843 27.2798 7.36572C27.4087 7.41943 27.5215 7.49463 27.6182 7.59131C27.7148 7.68441 27.79 7.79541 27.8438 7.92432C27.901 8.05322 27.9297 8.19108 27.9297 8.33789V9.30469H26.8716V8.33789H24.6909ZM28.9126 7.27979H30.3091V5.51807H31.3672V7.27979H33.2471V8.33789H31.3672V11.9419H33.2471V13H31.3672C31.224 13 31.0879 12.9731 30.959 12.9194C30.8301 12.8621 30.7173 12.7869 30.6206 12.6938C30.5239 12.5972 30.4469 12.4844 30.3896 12.3555C30.3359 12.2266 30.3091 12.0887 30.3091 11.9419V8.33789H28.9126V7.27979ZM39.9609 13L37.7588 5.29785H38.8599L40.5679 11.4263L42.2705 5.29785H43.3716L45.0742 11.4263L46.7822 5.29785H47.8833L45.6812 13H44.4727L42.8237 7.22607L41.1694 13H39.9609ZM53.7109 11.9419C53.7109 12.0887 53.6823 12.2266 53.625 12.3555C53.5713 12.4844 53.4961 12.5972 53.3994 12.6938C53.3063 12.7869 53.1953 12.8621 53.0664 12.9194C52.9411 12.9731 52.805 13 52.6582 13H49.8169C49.6737 13 49.5376 12.9731 49.4087 12.9194C49.2798 12.8621 49.167 12.7869 49.0703 12.6938C48.9772 12.5972 48.902 12.4844 48.8447 12.3555C48.791 12.2266 48.7642 12.0887 48.7642 11.9419V8.33789C48.7642 8.19108 48.791 8.05322 48.8447 7.92432C48.902 7.79541 48.9772 7.68441 49.0703 7.59131C49.167 7.49463 49.2798 7.41943 49.4087 7.36572C49.5376 7.30843 49.6737 7.27979 49.8169 7.27979H52.6582C52.805 7.27979 52.9411 7.30843 53.0664 7.36572C53.1953 7.41943 53.3063 7.49463 53.3994 7.59131C53.4961 7.68441 53.5713 7.79541 53.625 7.92432C53.6823 8.05322 53.7109 8.19108 53.7109 8.33789V11.9419ZM49.8169 8.33789V11.9419H52.6582V8.33789H49.8169ZM56.5308 8.33789V13H55.478V7.27979H56.5308V8.28955C56.5379 8.1499 56.5701 8.01921 56.6274 7.89746C56.6847 7.77214 56.7599 7.66471 56.853 7.5752C56.9497 7.4821 57.0607 7.41048 57.186 7.36035C57.3114 7.30664 57.4456 7.27979 57.5889 7.27979H58.7114C58.8582 7.27979 58.9943 7.30843 59.1196 7.36572C59.2485 7.41943 59.3613 7.49463 59.458 7.59131C59.5547 7.68441 59.6299 7.79541 59.6836 7.92432C59.7409 8.05322 59.7695 8.19108 59.7695 8.33789V9.30469H58.7114V8.33789H56.5308ZM64.8667 13L62.1382 10.5562V13H61.0854V5.07764H62.1382V9.53564L64.6465 7.27979H66.1343L63.062 10.0405L66.3545 13H64.8667ZM72.0693 11.9419C72.0693 12.0887 72.0407 12.2266 71.9834 12.3555C71.9297 12.4844 71.8545 12.5972 71.7578 12.6938C71.6647 12.7869 71.5537 12.8621 71.4248 12.9194C71.2995 12.9731 71.1634 13 71.0166 13H68.1753C68.0321 13 67.896 12.9731 67.7671 12.9194C67.6382 12.8621 67.5254 12.7869 67.4287 12.6938C67.3356 12.5972 67.2604 12.4844 67.2031 12.3555C67.1494 12.2266 67.1226 12.0887 67.1226 11.9419V8.33789C67.1226 8.19108 67.1494 8.05322 67.2031 7.92432C67.2604 7.79541 67.3356 7.68441 67.4287 7.59131C67.5254 7.49463 67.6382 7.41943 67.7671 7.36572C67.896 7.30843 68.0321 7.27979 68.1753 7.27979H71.0166C71.1634 7.27979 71.2995 7.30843 71.4248 7.36572C71.5537 7.41943 71.6647 7.49463 71.7578 7.59131C71.8545 7.68441 71.9297 7.79541 71.9834 7.92432C72.0407 8.05322 72.0693 8.19108 72.0693 8.33789V11.9419ZM68.1753 8.33789V11.9419H71.0166V8.33789H68.1753ZM73.8364 7.27979H74.8892V11.9419H77.8379V7.27979H78.896V13H77.8379V12.0332C77.8271 12.1657 77.7913 12.291 77.7305 12.4092C77.6696 12.5273 77.5908 12.6312 77.4941 12.7207C77.401 12.8066 77.2936 12.8747 77.1719 12.9248C77.0501 12.9749 76.9212 13 76.7852 13H74.8892C74.7459 13 74.6099 12.9731 74.481 12.9194C74.3521 12.8621 74.2393 12.7869 74.1426 12.6938C74.0495 12.5972 73.9743 12.4844 73.917 12.3555C73.8633 12.2266 73.8364 12.0887 73.8364 11.9419V7.27979ZM80.3247 7.27979H81.7212V5.51807H82.7793V7.27979H84.6592V8.33789H82.7793V11.9419H84.6592V13H82.7793C82.6361 13 82.5 12.9731 82.3711 12.9194C82.2422 12.8621 82.1294 12.7869 82.0327 12.6938C81.936 12.5972 81.859 12.4844 81.8018 12.3555C81.748 12.2266 81.7212 12.0887 81.7212 11.9419V8.33789H80.3247V7.27979Z"></path>
</svg>
