<svg xmlns="http://www.w3.org/2000/svg" fill="none" viewBox="0 0 14 18" height="18" width="14">
<path fill="black" d="M0.245117 12.7021H2.69873V13.6299C2.69873 14.2891 2.84521 14.7733 3.13818 15.0825C3.43115 15.3918 3.9113 15.5464 4.57861 15.5464H9.62012C10.2874 15.5464 10.7676 15.3918 11.0605 15.0825C11.3535 14.7733 11.5 14.2891 11.5 13.6299V12.2749C11.5 11.6076 11.3535 11.1234 11.0605 10.8223C10.7676 10.5212 10.2874 10.3706 9.62012 10.3706H4.44434V7.9292H9.54688C10.1572 7.90479 10.5926 7.74202 10.853 7.44092C11.1216 7.13167 11.2559 6.65967 11.2559 6.0249V4.87744C11.2559 4.21012 11.1053 3.72184 10.8042 3.4126C10.5112 3.10335 10.0352 2.94873 9.37598 2.94873H4.82275C4.16357 2.94873 3.6875 3.10335 3.39453 3.4126C3.10156 3.72184 2.95508 4.21012 2.95508 4.87744V5.80518H0.501465V4.75537C0.501465 1.9152 1.91748 0.495117 4.74951 0.495117H9.44922C10.8896 0.495117 11.9557 0.845052 12.6475 1.54492C13.3473 2.24479 13.6973 3.31494 13.6973 4.75537V5.07275C13.6973 6.05745 13.5223 6.87126 13.1724 7.51416C12.8306 8.14893 12.3301 8.62093 11.6709 8.93018C12.4115 9.1499 12.9771 9.58936 13.3677 10.2485C13.7583 10.9077 13.9536 11.7826 13.9536 12.873V13.752C13.9536 16.584 12.5376 18 9.70557 18H4.50537C1.6652 18 0.245117 16.584 0.245117 13.752V12.7021Z"></path>
</svg>
