<svg version="1.1" xmlns="http://www.w3.org/2000/svg" xmlns:xlink="http://www.w3.org/1999/xlink" width="260" height="140.19909" viewBox="0,0,260,140.19909"><g transform="translate(-110,-137.22977)"><g data-paper-data="{&quot;isPaintingLayer&quot;:true}" fill-rule="nonzero" stroke-linejoin="miter" stroke-miterlimit="10" stroke-dasharray="" stroke-dashoffset="0" style="mix-blend-mode: normal"><path d="M115,185.87898c0,0 35.85627,-35.9118 48.10001,-39.5c14.24476,-4.17462 141.46225,-6.74284 155,0c15.23192,7.58666 46.89999,40.5 46.89999,40.5" fill="none" stroke="#e48a39" stroke-width="10" stroke-linecap="round"/><g fill="#ffae4e" stroke="none" stroke-width="1" stroke-linecap="butt"><path d="M116.6142,266.53246v-31.36301h17.16875c5.07404,0 7.61105,2.54418 7.61105,7.63285v4.46187c0,5.08866 -2.53701,7.63285 -7.61105,7.63285h-12.68538v11.63545zM121.09756,250.41364h12.44469c1.19564,0 2.05594,-0.26248 2.58091,-0.78744c0.52466,-0.52497 0.78714,-1.38527 0.78714,-2.58091v-4.0241c0,-1.19564 -0.26248,-2.05594 -0.78714,-2.58091c-0.52497,-0.52497 -1.38527,-0.78744 -2.58091,-0.78744h-12.44469zM147.23366,243.23976h4.28659v18.98401h12.00723v-18.98401h4.30869v23.2927h-4.30869v-3.93692c-0.04359,0.53959 -0.18962,1.04992 -0.43746,1.53099c-0.24785,0.48136 -0.56856,0.9042 -0.96214,1.26851c-0.37924,0.34997 -0.81671,0.62708 -1.3124,0.83134c-0.49569,0.20395 -1.02066,0.30608 -1.57458,0.30608h-7.72064c-0.58318,0 -1.13741,-0.1093 -1.66207,-0.32818c-0.52497,-0.23322 -0.98423,-0.5393 -1.3781,-0.91853c-0.37894,-0.39358 -0.68502,-0.85284 -0.91853,-1.37779c-0.21859,-0.52497 -0.32787,-1.08635 -0.32787,-1.68417zM179.29662,234.27271v32.25975h-4.28688v-32.25975zM190.75708,234.27271v32.25975h-4.28688v-32.25975zM211.79705,235.16945h4.48338v26.87934h17.91259v-26.87934h4.48338v26.87934c0,0.61246 -0.11646,1.19564 -0.34997,1.74987c-0.23322,0.5393 -0.55392,1.01319 -0.96214,1.4214c-0.40851,0.40851 -0.88957,0.72921 -1.4435,0.96243c-0.53959,0.23322 -1.11562,0.34997 -1.72778,0.34997h-17.91259c-0.61246,0 -1.19564,-0.11675 -1.74957,-0.34997c-0.53959,-0.23322 -1.01349,-0.55392 -1.42169,-0.96243c-0.4082,-0.4082 -0.72892,-0.8821 -0.96243,-1.4214c-0.23322,-0.55423 -0.34968,-1.13741 -0.34968,-1.74987zM266.91204,262.22378c0,0.59782 -0.11675,1.15922 -0.34997,1.68417c-0.21859,0.52497 -0.52497,0.98423 -0.91853,1.37779c-0.37924,0.37924 -0.83104,0.68531 -1.356,0.91853c-0.52497,0.21888 -1.08635,0.32818 -1.68417,0.32818h-12.00723v9.40333h-4.28659v-32.69602h4.28659v3.93692c0.0439,-0.55423 0.18962,-1.06456 0.43746,-1.53099c0.24785,-0.48136 0.56139,-0.89674 0.94033,-1.24671c0.37924,-0.36461 0.81671,-0.64889 1.3124,-0.85313c0.51033,-0.20395 1.04992,-0.30608 1.61848,-0.30608h7.69854c0.59782,0 1.15922,0.11675 1.68417,0.34997c0.52497,0.21859 0.97676,0.52497 1.356,0.91853c0.39358,0.37924 0.69995,0.83104 0.91853,1.356c0.23322,0.52497 0.34997,1.08635 0.34997,1.68417zM262.60335,262.22378v-14.67534h-12.00723v14.67534zM308.37951,250.17296c0.65605,0.20395 1.25387,0.49569 1.79347,0.87494c0.53959,0.37894 0.99886,0.86747 1.37779,1.4653c0.37924,0.58318 0.67069,1.27568 0.87494,2.07775c0.20395,0.80178 0.30608,1.72031 0.30608,2.7556v1.57489c0,5.07404 -2.53701,7.61105 -7.61105,7.61105h-17.16875v-31.36301h16.27201c5.07404,0 7.61105,2.54418 7.61105,7.63285v0.56885c0,1.7642 -0.28428,3.2077 -0.85284,4.33018c-0.55423,1.10815 -1.42169,1.93202 -2.60271,2.47162zM292.34818,252.86316v9.27312h12.64148c1.18102,0 2.03385,-0.27681 2.55881,-0.83104c0.52497,-0.55392 0.78744,-1.42169 0.78744,-2.60271v-2.42773c0,-1.19535 -0.26248,-2.06312 -0.78744,-2.60241c-0.52497,-0.53959 -1.37779,-0.80925 -2.55881,-0.80925zM292.34818,239.56533v8.92345h12.05082c1.07889,-0.04359 1.8517,-0.33534 2.31843,-0.87464c0.48107,-0.55423 0.72174,-1.39989 0.72174,-2.53732v-2.05565c0,-1.19564 -0.26248,-2.07058 -0.78744,-2.6245c-0.52497,-0.55423 -1.37779,-0.83134 -2.55881,-0.83134zM319.00893,256.36231c0,-0.59782 0.1093,-1.15175 0.32787,-1.66207c0.23351,-0.52497 0.53959,-0.98423 0.91884,-1.37779c0.39358,-0.39387 0.85284,-0.69995 1.37779,-0.91853c0.52497,-0.23351 1.07889,-0.34997 1.66207,-0.34997h11.11049v-4.50548h-14.06288v-4.30869h14.06288c0.59782,0 1.15922,0.11675 1.68417,0.34997c0.52497,0.21859 0.97676,0.52497 1.356,0.91853c0.39358,0.37924 0.69995,0.83104 0.91853,1.356c0.23322,0.52497 0.34997,1.08635 0.34997,1.68417v18.98401h-4.30869v-3.93692c-0.04359,0.53959 -0.18932,1.04992 -0.43746,1.53099c-0.24785,0.48136 -0.56856,0.9042 -0.96214,1.26851c-0.37924,0.34997 -0.81671,0.62708 -1.3124,0.83134c-0.49569,0.20395 -1.02066,0.30608 -1.57458,0.30608h-6.8239c-0.58318,0 -1.13712,-0.1093 -1.66207,-0.32818c-0.52497,-0.23322 -0.98423,-0.5393 -1.37779,-0.91853c-0.37924,-0.39358 -0.68531,-0.85284 -0.91884,-1.37779c-0.21859,-0.52497 -0.32787,-1.08635 -0.32787,-1.68417zM323.29552,262.22378h11.11049v-5.86147h-11.11049zM350.19606,247.54845v18.98401h-4.2851v-23.2927h4.2851v4.1119c0.02986,-0.56885 0.16125,-1.10099 0.39416,-1.59668c0.23292,-0.51033 0.54049,-0.94779 0.91973,-1.3124c0.39416,-0.37894 0.84507,-0.67069 1.3557,-0.87464c0.51062,-0.21888 1.05709,-0.32818 1.63939,-0.32818h4.57177c0.59722,0 1.15265,0.11675 1.66328,0.34997c0.52258,0.21859 0.98243,0.52497 1.37661,0.91853c0.39416,0.37924 0.69875,0.83104 0.91973,1.356c0.23292,0.52497 0.34938,1.08635 0.34938,1.68417v3.93661h-4.30898v-3.93661z"/><path d="M116.6142,268.02553h-1.49307v-1.49307h1.49307zM115.12113,235.16945v-1.49307h1.49307v1.49307zM119.6045,254.89701v-1.49307h1.49307v1.49307zM122.59063,266.53246v1.49307h-1.49307v-1.49307zM121.09756,251.9067h-1.49307v-1.49307h1.49307zM119.6045,239.65282v-1.49307h1.49307v1.49307zM115.12113,266.53246v-31.36301h2.98613v31.36301zM116.6142,233.67639h17.16875v2.98613h-17.16875zM133.78294,233.67639c2.76814,0 5.11852,0.69517 6.76537,2.3471c1.64656,1.65103 2.33874,4.00559 2.33874,6.77881h-2.98613c0,-2.31515 -0.57633,-3.77716 -1.46709,-4.67031c-0.88987,-0.89255 -2.34531,-1.46948 -4.65089,-1.46948zM142.88705,242.80229v4.46187h-2.98613v-4.46187zM142.88705,247.26417c0,2.77322 -0.69219,5.12778 -2.33874,6.77881c-1.64685,1.65192 -3.99723,2.3471 -6.76537,2.3471v-2.98613c2.30558,0 3.76102,-0.57693 4.65089,-1.46948c0.89076,-0.89315 1.46709,-2.35516 1.46709,-4.67031zM133.78294,256.39008h-12.68538v-2.98613h12.68538zM122.59063,254.89701v11.63545h-2.98613v-11.63545zM121.09756,268.02553h-4.48338v-2.98613h4.48338zM121.09756,248.92058h12.44469v2.98613h-12.44469zM133.54225,248.92058c1.03171,0 1.41005,-0.235 1.52501,-0.35028l2.11149,2.11149c-0.93466,0.93466 -2.27692,1.22491 -3.6365,1.22491zM135.06728,248.5703c0.11526,-0.11497 0.34997,-0.4933 0.34997,-1.52501h2.98613c0,1.35958 -0.28995,2.70185 -1.22461,3.6365zM135.41725,247.04529v-4.0241h2.98613v4.0241zM135.41725,243.02117c0,-1.03171 -0.23471,-1.41005 -0.34997,-1.52501l2.11149,-2.11149c0.93466,0.93466 1.22461,2.27692 1.22461,3.6365zM135.06728,241.49616c-0.11497,-0.11526 -0.4933,-0.35028 -1.52501,-0.35028v-2.98613c1.35958,0 2.70185,0.28995 3.6365,1.22491zM133.54225,241.14589h-12.44469v-2.98613h12.44469zM122.59063,239.65282v10.76081h-2.98613v-10.76081zM145.7406,243.23976v-1.49307h1.49307v1.49307zM151.52024,241.7467h1.49307v1.49307h-1.49307zM151.52024,263.71684h-1.49307v-1.49307h1.49307zM165.02054,262.22378v1.49307h-1.49307v-1.49307zM162.0344,243.23976v-1.49307h1.49307v1.49307zM167.83616,241.7467h1.49307v1.49307h-1.49307zM169.32922,266.53246v1.49307h-1.49307v-1.49307zM163.52747,268.02553h-1.49307v-1.49307h1.49307zM162.03919,262.47491l2.98135,0.12064h-1.49307zM163.14226,266.49066l-0.00179,0.00149l-1.0126,-1.0971zM149.28394,267.58268l-0.03254,-0.01344l0.60678,-1.36496zM147.44448,266.36136l-0.02031,-0.01971l-0.01941,-0.02031l1.0753,-1.03559zM146.19718,264.51444l-0.01404,-0.03196l1.37839,-0.57453zM147.23366,241.7467h4.28659v2.98613h-4.28659zM153.01331,243.23976v18.98401h-2.98613v-18.98401zM151.52024,260.73071h12.00723v2.98613h-12.00723zM162.0344,262.22378v-18.98401h2.98613v18.98401zM163.52747,241.7467h4.30869v2.98613h-4.30869zM169.32922,243.23976v23.2927h-2.98613v-23.2927zM167.83616,268.02553h-4.30869v-2.98613h4.30869zM162.0344,266.53246v-3.93692h2.98613v3.93692zM165.01576,262.71619c-0.05972,0.73609 -0.2604,1.43783 -0.59842,2.09417l-2.65467,-1.36735c0.15767,-0.30608 0.24875,-0.625 0.27651,-0.9681zM164.41734,264.81036c-0.32669,0.63425 -0.7528,1.19684 -1.27508,1.6803l-2.02878,-2.19092c0.26487,-0.24546 0.48017,-0.52884 0.64918,-0.85672zM163.14047,266.49215c-0.51421,0.4748 -1.10367,0.84597 -1.75644,1.11472l-1.13712,-2.76127c0.33863,-0.13945 0.6241,-0.3225 0.86807,-0.54765zM161.38403,267.60687c-0.68233,0.281 -1.4008,0.41866 -2.14314,0.41866v-2.98613c0.3655,0 0.69667,-0.06629 1.00602,-0.1938zM159.24089,268.02553h-7.72064v-2.98613h7.72064zM151.52024,268.02553c-0.7752,0 -1.52472,-0.14632 -2.23631,-0.44284l1.14846,-2.7565c0.33803,0.14095 0.69667,0.21321 1.08784,0.21321zM149.25168,267.56865c-0.67547,-0.30011 -1.28195,-0.70174 -1.80721,-1.20729l2.07148,-2.15091c0.26218,0.25232 0.57423,0.46315 0.94839,0.62947zM147.40476,266.32135c-0.50585,-0.52497 -0.90719,-1.13145 -1.20759,-1.8069l2.72873,-1.21296c0.16633,0.37445 0.37715,0.68651 0.62978,0.9487zM146.18343,264.48219c-0.29832,-0.71607 -0.44284,-1.47365 -0.44284,-2.25841h2.98613c0,0.41119 0.07406,0.77609 0.21321,1.10994zM145.7406,262.22378v-18.98401h2.98613v18.98401zM179.29662,232.77965h1.49307v1.49307h-1.49307zM180.78968,266.53246v1.49307h-1.49307v-1.49307zM175.00974,268.02553h-1.49307v-1.49307h1.49307zM173.51667,234.27271v-1.49307h1.49307v1.49307zM180.78968,234.27271v32.25975h-2.98613v-32.25975zM179.29662,268.02553h-4.28688v-2.98613h4.28688zM173.51667,266.53246v-32.25975h2.98613v32.25975zM175.00974,232.77965h4.28688v2.98613h-4.28688zM190.75708,232.77965h1.49307v1.49307h-1.49307zM192.25015,266.53246v1.49307h-1.49307v-1.49307zM186.4702,268.02553h-1.49307v-1.49307h1.49307zM184.97713,234.27271v-1.49307h1.49307v1.49307zM192.25015,234.27271v32.25975h-2.98613v-32.25975zM190.75708,268.02553h-4.28688v-2.98613h4.28688zM184.97713,266.53246v-32.25975h2.98613v32.25975zM186.4702,232.77965h4.28688v2.98613h-4.28688zM210.30398,235.16945v-1.49307h1.49307v1.49307zM216.28043,233.67639h1.49307v1.49307h-1.49307zM216.28043,263.54186h-1.49307v-1.49307h1.49307zM235.68609,262.04879v1.49307h-1.49307v-1.49307zM232.69995,235.16945v-1.49307h1.49307v1.49307zM238.67639,233.67639h1.49307v1.49307h-1.49307zM239.70273,264.37797l-0.00567,0.01314l-1.37063,-0.59245zM235.32805,264.81216l0.01314,-0.00567l0.57961,1.37601zM213.95155,267.5585l-0.01344,-0.00538l0.59275,-1.37063zM212.05356,266.27595l1.05559,-1.0559zM210.77639,264.39111l-0.00567,-0.01314l1.37601,-0.57931zM211.79705,233.67639h4.48338v2.98613h-4.48338zM217.7735,235.16945v26.87934h-2.98613v-26.87934zM216.28043,260.55572h17.91259v2.98613h-17.91259zM232.69995,262.04879v-26.87934h2.98613v26.87934zM234.19302,233.67639h4.48338v2.98613h-4.48338zM240.16945,235.16945v26.87934h-2.98613v-26.87934zM240.16945,262.04879c0,0.80775 -0.15498,1.58833 -0.46674,2.32918l-2.75232,-1.15892c0.15468,-0.367 0.23292,-0.7531 0.23292,-1.17027zM239.69705,264.39111c-0.30667,0.7092 -0.73339,1.34107 -1.27717,1.88484l-2.11149,-2.11149c0.27263,-0.27263 0.48763,-0.58856 0.64769,-0.95855zM238.41989,266.27595c-0.55035,0.55035 -1.19504,0.97765 -1.91979,1.28254l-1.15892,-2.75201c0.38371,-0.16155 0.70114,-0.37595 0.96721,-0.64202zM236.51324,267.55283c-0.73428,0.31772 -1.51278,0.4727 -2.32022,0.4727v-2.98613c0.41717,0 0.79043,-0.07823 1.13503,-0.22725zM234.19302,268.02553h-17.91259v-2.98613h17.91259zM216.28043,268.02553c-0.80745,0 -1.58802,-0.15498 -2.32888,-0.46703l1.15862,-2.75201c0.36729,0.15468 0.7531,0.23292 1.17027,0.23292zM213.93811,267.55283c-0.7092,-0.30667 -1.34077,-0.7331 -1.88455,-1.27687l2.11149,-2.11149c0.27263,0.27263 0.58856,0.48763 0.95825,0.64769zM212.05356,266.27595c-0.54407,-0.54377 -0.97049,-1.17564 -1.27717,-1.88484l2.74096,-1.1852c0.15976,0.36998 0.37476,0.68591 0.64769,0.95855zM210.77072,264.37797c-0.31175,-0.74086 -0.46674,-1.52144 -0.46674,-2.32918h2.98613c0,0.41717 0.07823,0.80327 0.23292,1.17027zM210.30398,262.04879v-26.87934h2.98613v26.87934zM265.18397,263.33372l0.01344,-0.03225l1.36466,0.60648zM264.58763,264.23016l1.0559,1.05559zM264.894,267.56865l-0.03225,0.01433l-0.57423,-1.3787zM249.10305,266.53246v-1.49307h1.49307v1.49307zM252.08919,275.93579v1.49307h-1.49307v-1.49307zM246.30953,277.42884h-1.49307v-1.49307h1.49307zM244.81648,243.23976v-1.49307h1.49307v1.49307zM250.59612,241.7467h1.49307v1.49307h-1.49307zM252.08471,247.29403l-2.98165,-0.11735h1.49307zM252.36093,246.3292l-0.00866,0.01703l-1.31867,-0.70054zM253.00892,245.47518l-0.0218,0.0212l-1.01319,-1.0974zM252.71777,242.16536l0.01404,-0.00567l0.55452,1.38616zM263.71329,244.96784l-0.03225,-0.01344l0.60648,-1.36466zM264.60793,245.58387l-0.02031,-0.01971l-0.01971,-0.02031l1.07561,-1.03559zM265.1977,246.47075l-0.01433,-0.03196l1.3787,-0.57453zM264.09642,262.22378v1.49307h-1.49307v-1.49307zM262.60335,246.05539h1.49307v1.49307h-1.49307zM249.10305,247.54845v-1.49307h1.49307v1.49307zM250.59612,263.71684h-1.49307v-1.49307h1.49307zM268.4051,262.22378c0,0.79819 -0.15707,1.56682 -0.47868,2.29065l-2.72873,-1.21296c0.14483,-0.32608 0.22127,-0.67994 0.22127,-1.07769zM267.94015,264.48219c-0.29205,0.70085 -0.70622,1.32494 -1.24104,1.85946l-2.11149,-2.11149c0.25292,-0.25292 0.45091,-0.54765 0.59633,-0.89643zM266.69912,266.34165c-0.5175,0.5175 -1.12487,0.9248 -1.80512,1.227l-1.21296,-2.72873c0.36938,-0.16424 0.66621,-0.36938 0.90659,-0.60976zM264.86175,267.58268c-0.71607,0.29832 -1.47365,0.44284 -2.25841,0.44284v-2.98613c0.41089,0 0.77609,-0.07406 1.10994,-0.21321zM262.60335,268.02553h-12.00723v-2.98613h12.00723zM252.08919,266.53246v9.40333h-2.98613v-9.40333zM250.59612,277.42884h-4.28659v-2.98493h4.28659zM244.81648,275.93579v-32.69602h2.98613v32.69602zM246.30953,241.7467h4.28659v2.98613h-4.28659zM252.08919,243.23976v3.93692h-2.98613v-3.93692zM249.10783,247.05902c0.05883,-0.74713 0.2583,-1.45723 0.60708,-2.11388l2.63735,1.4008c-0.14722,0.27681 -0.23919,0.58707 -0.26756,0.9481zM249.70625,244.96186c0.32399,-0.62858 0.74145,-1.18609 1.25508,-1.65999l2.02549,2.19421c-0.24486,0.22576 -0.45389,0.49958 -0.6259,0.83313zM250.93923,243.32277c0.5166,-0.49689 1.11322,-0.8833 1.77854,-1.15743l1.13712,2.76127c-0.32608,0.13407 -0.60439,0.31653 -0.84597,0.54856zM252.7318,242.15967c0.69279,-0.27711 1.42109,-0.41298 2.173,-0.41298v2.98613c-0.3855,0 -0.73609,0.06838 -1.06396,0.19947zM254.90481,241.7467h7.69854v2.98613h-7.69854zM262.60335,241.7467c0.79819,0 1.56682,0.15707 2.29065,0.47868l-1.21296,2.72873c-0.32608,-0.14512 -0.67994,-0.22127 -1.07769,-0.22127zM264.86175,242.21163c0.70592,0.29383 1.33063,0.71399 1.85707,1.26104l-2.15091,2.07118c-0.23143,-0.24038 -0.51062,-0.43269 -0.85463,-0.57602zM266.67911,243.43296c0.54706,0.52645 0.96691,1.15116 1.26104,1.85707l-2.7562,1.14846c-0.14333,-0.344 -0.33564,-0.6232 -0.57602,-0.85463zM267.92642,245.25779c0.3216,0.72384 0.47868,1.49247 0.47868,2.29065h-2.98613c0,-0.39775 -0.07644,-0.7516 -0.22127,-1.07769zM268.4051,247.54845v14.67534h-2.98613v-14.67534zM261.11028,262.22378v-14.67534h2.98613v14.67534zM262.60335,249.04151h-12.00723v-2.98613h12.00723zM252.08919,247.54845v14.67534h-2.98613v-14.67534zM250.59612,260.73071h12.00723v2.98613h-12.00723zM307.93607,251.59853l-3.73027,-1.1604l3.55349,-1.62326l0.62023,1.35809zM310.29899,253.32691l-0.00926,-0.01404l1.26104,-0.79968zM287.952,268.02553h-1.49307v-1.49307h1.49307zM286.45894,235.16945v-1.49307h1.49307v1.49307zM309.64682,247.03364l0.00328,-0.00687l1.33211,0.67457zM290.85512,252.86316v-1.49307h1.49307v1.49307zM292.34818,263.62935h-1.49307v-1.49307h1.49307zM306.4645,260.27832l1.08396,1.02693zM290.85512,239.56533v-1.49307h1.49307v1.49307zM292.34818,249.98184h-1.49307v-1.49307h1.49307zM304.45962,249.98065l-0.03046,0.0012h-0.03016v-1.49307zM305.58808,246.63738l0.00179,-0.00239l1.12757,0.97915zM308.82295,248.74738c0.79789,0.24815 1.53666,0.60678 2.20854,1.07889l-1.71702,2.44295c-0.40731,-0.28607 -0.86418,-0.51062 -1.37839,-0.67069zM311.03149,249.82627c0.7116,0.49988 1.30374,1.13592 1.78034,1.88723l-2.52179,1.59907c-0.28189,-0.44433 -0.60827,-0.78506 -0.97557,-1.04336zM312.80256,251.69946c0.48315,0.74325 0.83313,1.59221 1.06994,2.52297l-2.89385,0.73667c-0.1711,-0.67277 -0.40462,-1.20908 -0.67964,-1.63221zM313.87249,254.22245c0.24127,0.9481 0.35236,1.99443 0.35236,3.12409h-2.98613c0,-0.94063 -0.09287,-1.73135 -0.26009,-2.38741zM314.22486,257.34653v1.57489h-2.98613v-1.57489zM314.22486,258.92142c0,2.76725 -0.69279,5.11673 -2.33993,6.76388c-1.64745,1.64745 -3.99693,2.34022 -6.76418,2.34022v-2.98613c2.30678,0 3.76282,-0.57573 4.65269,-1.46559c0.88957,-0.88957 1.4653,-2.3456 1.4653,-4.65239zM305.12075,268.02553h-17.16875v-2.98613h17.16875zM286.45894,266.53246v-31.36301h2.98613v31.36301zM287.952,233.67639h16.27201v2.98613h-16.27201zM304.22402,233.67639c2.76814,0 5.11852,0.69517 6.76568,2.3471c1.64625,1.65103 2.33844,4.00559 2.33844,6.77881h-2.98613c0,-2.31515 -0.57633,-3.77716 -1.46678,-4.67031c-0.89016,-0.89255 -2.34531,-1.46948 -4.6512,-1.46948zM313.32812,242.80229v0.56885h-2.98613v-0.56885zM313.32812,243.37116c0,1.90993 -0.30548,3.60635 -1.01409,5.00505l-2.66392,-1.34943c0.42911,-0.84686 0.69189,-2.03744 0.69189,-3.65562zM312.31761,248.36934c-0.71428,1.42857 -1.84244,2.48775 -3.31758,3.16171l-1.24073,-2.71619c0.88688,-0.40522 1.49367,-0.99348 1.88754,-1.78123zM293.84124,252.86316v9.27312h-2.98613v-9.27312zM292.34818,260.64322h12.64148v2.98613h-12.64148zM304.98966,260.64322c0.99169,0 1.35451,-0.2377 1.47485,-0.3649l2.16793,2.05386c-0.92958,0.98095 -2.27275,1.29717 -3.64277,1.29717zM306.4645,260.27832c0.1499,-0.15827 0.37834,-0.57423 0.37834,-1.57578h2.98613c0,1.36078 -0.29682,2.67976 -1.19654,3.62964zM306.84285,258.70253v-2.42773h2.98613v2.42773zM306.84285,256.27482c0,-1.02664 -0.23292,-1.42618 -0.36461,-1.56145l2.14015,-2.08223c0.91853,0.94362 1.21058,2.27931 1.21058,3.64367zM306.47824,254.71336c-0.11885,-0.12213 -0.48734,-0.35714 -1.48858,-0.35714v-2.98613c1.36048,0 2.69797,0.30428 3.62874,1.26104zM304.98966,254.35623h-12.64148v-2.98613h12.64148zM293.84124,239.56533v8.92345h-2.98613v-8.92345zM292.34818,246.99572h12.05082v2.98613h-12.05082zM304.33838,246.99691c0.87762,-0.03553 1.16518,-0.26189 1.2497,-0.35954l2.25841,1.95323c-0.84866,0.98154 -2.10642,1.33808 -3.38686,1.39004zM305.58987,246.63499c0.14572,-0.16753 0.35624,-0.59155 0.35624,-1.55816h2.98613c0,1.30822 -0.27084,2.57553 -1.08755,3.51617zM305.94611,245.07682v-2.05565h2.98613v2.05565zM305.94611,243.02117c0,-1.02215 -0.23112,-1.4423 -0.37834,-1.59788l2.16793,-2.05356c0.90241,0.95258 1.19654,2.28201 1.19654,3.65143zM305.56777,241.4233c-0.12034,-0.12721 -0.48315,-0.3649 -1.47485,-0.3649v-2.98613c1.37004,0 2.71349,0.31653 3.64277,1.29747zM304.09292,241.05839h-11.74475v-2.98613h11.74475zM317.96468,254.11195l0.00777,-0.01821l1.36436,0.60648zM319.18005,252.28684l0.01941,-0.02031l1.05619,1.0559zM322.23993,253.76826l-0.03225,0.01404l-0.57423,-1.37839zM335.89908,252.05392v1.49307h-1.49307v-1.49307zM334.40601,246.05539h1.49307v1.49307h-1.49307zM320.34313,249.04151h-1.49307v-1.49307h1.49307zM318.85008,243.23976v-1.49307h1.49307v1.49307zM335.51596,244.96784l-0.03225,-0.01344l0.60648,-1.36466zM336.41061,245.58387l-0.02031,-0.01971l-0.01971,-0.02031l1.07561,-1.03559zM337.00036,246.47075l-0.01433,-0.03196l1.3787,-0.57453zM340.20746,266.53246v1.49307h-1.49276v-1.49307zM334.40601,268.02553h-1.49307v-1.49307h1.49307zM332.91803,262.47491l2.98105,0.12064h-1.49307zM334.0208,266.49066l-0.00179,0.00149l-1.0126,-1.0971zM321.05922,267.58268l-0.03225,-0.01344l0.60648,-1.36496zM319.21976,266.36136l-0.02031,-0.01971l-0.01941,-0.02031l1.07561,-1.03559zM317.97245,264.51444l-0.01404,-0.03196l1.37839,-0.57453zM323.29552,263.71684h-1.49307v-1.49307h1.49307zM335.89908,262.22378v1.49307h-1.49307v-1.49307zM334.40601,254.86924h1.49307v1.49307h-1.49307zM321.80245,256.36231v-1.49307h1.49307v1.49307zM317.51586,256.36231c0,-0.78416 0.14453,-1.54025 0.44882,-2.25034l2.74455,1.17654c-0.13318,0.31055 -0.20724,0.66262 -0.20724,1.07381zM317.97245,254.09374c0.3004,-0.67547 0.70174,-1.28195 1.20759,-1.8069l2.15091,2.07118c-0.25232,0.26218 -0.46315,0.57423 -0.62978,0.9487zM319.19975,252.26653c0.53452,-0.53452 1.15832,-0.94899 1.85946,-1.24104l1.14846,2.7565c-0.34878,0.14543 -0.64351,0.3434 -0.89643,0.59603zM321.02697,251.03923c0.71877,-0.31921 1.47992,-0.47837 2.26856,-0.47837v2.98613c-0.37744,0 -0.72473,0.07406 -1.05559,0.22127zM323.29552,250.56085h11.11049v2.98613h-11.11049zM332.91294,252.05392v-4.50548h2.98613v4.50548zM334.40601,249.04151h-14.06288v-2.98613h14.06288zM318.85008,247.54845v-4.30869h2.98613v4.30869zM320.34313,241.7467h14.06288v2.98613h-14.06288zM334.40601,241.7467c0.79819,0 1.56682,0.15707 2.29065,0.47868l-1.21296,2.72873c-0.32608,-0.14512 -0.67994,-0.22127 -1.07769,-0.22127zM336.66442,242.21163c0.70592,0.29383 1.33063,0.71399 1.85737,1.26104l-2.1512,2.07118c-0.23143,-0.24038 -0.51062,-0.43269 -0.85463,-0.57602zM338.48178,243.43296c0.54706,0.52645 0.96721,1.15116 1.25985,1.85707l-2.755,1.14846c-0.14333,-0.344 -0.33564,-0.6232 -0.57602,-0.85463zM339.72969,245.25779c0.3225,0.72384 0.47778,1.49247 0.47778,2.29065h-2.98583c0,-0.39775 -0.07615,-0.7516 -0.22127,-1.07769zM340.20746,247.54845v18.98401h-2.98583v-18.98401zM338.7147,268.02553h-4.30869v-2.98613h4.30869zM332.91294,266.53246v-3.93692h2.98613v3.93692zM335.8943,262.71619c-0.05972,0.73609 -0.26009,1.43783 -0.59842,2.09417l-2.65437,-1.36735c0.15737,-0.30608 0.24844,-0.625 0.27651,-0.9681zM335.29588,264.81036c-0.32669,0.63425 -0.7528,1.19684 -1.27508,1.6803l-2.02878,-2.19092c0.26487,-0.24546 0.48017,-0.52884 0.64949,-0.85672zM334.01901,266.49215c-0.51421,0.4748 -1.10337,0.84597 -1.75644,1.11472l-1.13712,-2.76127c0.33863,-0.13945 0.6241,-0.3225 0.86807,-0.54765zM332.26257,267.60687c-0.68203,0.281 -1.4008,0.41866 -2.14314,0.41866v-2.98613c0.3655,0 0.69696,-0.06629 1.00602,-0.1938zM330.11942,268.02553h-6.8239v-2.98613h6.8239zM323.29552,268.02553c-0.7752,0 -1.52472,-0.14632 -2.23631,-0.44284l1.14846,-2.7565c0.33833,0.14095 0.69667,0.21321 1.08784,0.21321zM321.02697,267.56865c-0.67547,-0.30011 -1.28195,-0.70174 -1.80721,-1.20729l2.07148,-2.15091c0.26218,0.25232 0.57423,0.46315 0.9487,0.62947zM319.18005,266.32135c-0.50585,-0.52497 -0.90719,-1.13145 -1.20759,-1.8069l2.72873,-1.21296c0.16663,0.37445 0.37744,0.68651 0.62978,0.9487zM317.95872,264.48219c-0.29832,-0.71607 -0.44284,-1.47365 -0.44284,-2.25841h2.98613c0,0.41119 0.07406,0.77609 0.21321,1.10994zM317.51586,262.22378v-5.86147h2.98613v5.86147zM323.29552,260.73071h11.11049v2.98613h-11.11049zM332.91294,262.22378v-5.86147h2.98613v5.86147zM334.40601,257.85536h-11.11049v-2.98613h11.11049zM324.78859,256.36231v5.86147h-2.98613v-5.86147zM348.703,247.54845v-1.49307h1.49307v1.49307zM351.68913,266.53246v1.49307h-1.49307v-1.49307zM345.91097,268.02553h-1.49307v-1.49307h1.49307zM344.41791,243.23976v-1.49307h1.49307v1.49307zM350.19606,241.7467h1.49307v1.49307h-1.49307zM351.68913,247.42811l-2.98613,-0.07644h1.49307zM351.94892,246.3758l-0.00598,0.01493l-1.35272,-0.63574zM352.54615,245.51818l-0.00299,0.00089l-1.0332,-1.0765zM353.45393,244.94007l-0.03285,0.01433l-0.55542,-1.38645zM360.16376,244.96784l-0.02388,-0.00955l-0.02091,-0.01075l0.62112,-1.35779zM361.0805,245.58387l-0.02091,-0.01971l1.05709,-1.0559zM361.67176,246.47075l-0.01493,-0.03196l1.3796,-0.57453zM364.87886,251.48506v1.49307h-1.49307v-1.49307zM359.07681,252.97813h-1.49307v-1.49307h1.49307zM359.07681,246.05539h1.49307v1.49307h-1.49307zM351.68913,247.54845v18.98401h-2.98613v-18.98401zM350.19606,268.02553h-4.2851v-2.98613h4.2851zM344.41791,266.53246v-23.2927h2.98613v23.2927zM345.91097,241.7467h4.2851v2.98613h-4.2851zM351.68913,243.23976v4.1119h-2.98613v-4.1119zM348.70598,247.27522c0.03882,-0.7549 0.215,-1.47783 0.53452,-2.15598l2.70244,1.27149c-0.14931,0.31325 -0.23591,0.65456 -0.25382,1.03738zM349.23155,245.13416c0.30758,-0.66949 0.71966,-1.26463 1.24223,-1.76779l2.06939,2.1527c-0.23292,0.22576 -0.43299,0.50555 -0.59425,0.85672zM350.47378,243.36727c0.53452,-0.51361 1.14966,-0.91047 1.83647,-1.1858l1.11083,2.77262c-0.33445,0.13289 -0.62112,0.31952 -0.87494,0.56408zM352.2774,242.19551c0.70473,-0.30249 1.45424,-0.44882 2.22765,-0.44882v2.98613c-0.39119,0 -0.73758,0.07227 -1.05112,0.20724zM354.50504,241.7467h4.57177v2.98613h-4.57177zM359.07681,241.7467c0.79729,0 1.56473,0.15707 2.28141,0.48524l-1.23924,2.71559c-0.30459,-0.13826 -0.645,-0.21471 -1.04216,-0.21471zM361.31342,242.21163c0.70174,0.29205 1.32584,0.70622 1.86036,1.24104l-2.11417,2.11149c-0.25083,-0.25292 -0.54646,-0.45091 -0.89583,-0.59633zM363.15288,243.43296c0.54646,0.52645 0.9675,1.15116 1.26015,1.85707l-2.7562,1.14846c-0.14333,-0.344 -0.33445,-0.6232 -0.57633,-0.85463zM364.40109,245.25779c0.31952,0.72384 0.47778,1.49247 0.47778,2.29065h-2.98613c0,-0.39775 -0.07764,-0.7516 -0.22098,-1.07769zM364.87886,247.54845v3.93661h-2.98613v-3.93661zM363.38579,252.97813h-4.30898v-2.98613h4.30898zM357.58375,251.48506v-3.93661h2.98613v3.93661zM359.07681,249.04151h-8.88075v-2.98613h8.88075z"/></g></g></g></svg>