<svg version="1.1" xmlns="http://www.w3.org/2000/svg" xmlns:xlink="http://www.w3.org/1999/xlink" width="112.13136" height="29.2026" viewBox="0,0,112.13136,29.2026"><g transform="translate(-183.93432,-168.33859)"><g data-paper-data="{&quot;isPaintingLayer&quot;:true}" fill="#000000" fill-rule="nonzero" stroke="#000000" stroke-width="0.5" stroke-linecap="butt" stroke-linejoin="miter" stroke-miterlimit="10" stroke-dasharray="" stroke-dashoffset="0" style="mix-blend-mode: normal"><path d="M184.18432,169.20633h17.28184v3.08874h-7.09656v18.51733h-3.08874v-18.51733h-7.09654zM205.95612,177.73424v13.07816h-2.95313v-16.04634h2.95313v2.83259c0.02008,-0.39175 0.11049,-0.75837 0.27121,-1.09989c0.16072,-0.35158 0.37164,-0.65291 0.63281,-0.90402c0.27124,-0.26117 0.58265,-0.46206 0.93419,-0.60269c0.35153,-0.15068 0.72823,-0.22599 1.13009,-0.22599h3.14886c0.41183,0 0.79351,0.08035 1.14504,0.24107c0.36174,0.15068 0.67815,0.3616 0.94921,0.63281c0.2713,0.26117 0.48232,0.57254 0.63281,0.93414c0.16093,0.36162 0.24116,0.74834 0.24116,1.16016v2.71207h-2.96823v-2.71207zM221.85168,174.76604v16.04634h-2.96799v-16.04634zM218.73297,168.58859h3.26944v3.08874h-3.26944zM229.91254,177.73424v10.10996h7.65425v-2.71207h2.96799v2.71207c0,0.41183 -0.08023,0.79856 -0.24092,1.16016c-0.15073,0.3616 -0.36174,0.67803 -0.63281,0.94921c-0.2611,0.26117 -0.57252,0.47212 -0.93426,0.63283c-0.3615,0.15065 -0.74817,0.22599 -1.15999,0.22599h-7.65425c-0.40162,0 -0.7833,-0.07534 -1.14504,-0.22599c-0.3615,-0.16072 -0.67791,-0.37166 -0.94921,-0.63283c-0.2611,-0.27119 -0.47212,-0.58762 -0.63281,-0.94921c-0.15073,-0.3616 -0.22597,-0.74834 -0.22597,-1.16016v-10.10996c0,-0.41183 0.07524,-0.79854 0.22597,-1.16016c0.1607,-0.3616 0.37171,-0.67297 0.63281,-0.93414c0.2713,-0.27121 0.58771,-0.48213 0.94921,-0.63281c0.36174,-0.16072 0.74342,-0.24107 1.14504,-0.24107h7.65425c0.41183,0 0.79849,0.08035 1.15999,0.24107c0.36174,0.15068 0.67316,0.3616 0.93426,0.63281c0.27106,0.26117 0.48209,0.57254 0.63281,0.93414c0.1607,0.36162 0.24092,0.74834 0.24092,1.16016v2.71207h-2.96799v-2.71207zM259.06737,184.30346h-10.62223v3.54075h10.62223v2.9682h-10.62223c-0.40186,0 -0.78353,-0.07534 -1.14528,-0.22599c-0.3615,-0.16072 -0.67791,-0.37166 -0.94921,-0.63283c-0.2611,-0.27119 -0.47212,-0.58762 -0.63281,-0.94921c-0.15049,-0.3616 -0.22597,-0.74834 -0.22597,-1.16016v-10.10996c0,-0.41183 0.07548,-0.79854 0.22597,-1.16016c0.1607,-0.3616 0.37171,-0.67297 0.63281,-0.93414c0.2713,-0.27121 0.58771,-0.48213 0.94921,-0.63281c0.36174,-0.16072 0.74342,-0.24107 1.14528,-0.24107h7.65401c0.41183,0 0.79849,0.08035 1.15999,0.24107c0.36174,0.15068 0.67316,0.3616 0.93426,0.63281c0.2713,0.26117 0.48209,0.57254 0.63281,0.93414c0.1607,0.36162 0.24116,0.74834 0.24116,1.16016zM248.44514,177.73424v3.60101h7.65401v-3.60101zM278.21736,187.84418c0,0.41183 -0.08023,0.79856 -0.24092,1.16016c-0.15073,0.3616 -0.36174,0.67803 -0.63281,0.94921c-0.26134,0.26117 -0.57252,0.47212 -0.93426,0.63283c-0.3615,0.15065 -0.74841,0.22599 -1.16023,0.22599h-8.27163v6.47882h-2.95328v-22.52517h2.95328v2.71204c0.03014,-0.38168 0.13055,-0.73326 0.30122,-1.05467c0.1709,-0.33148 0.3869,-0.61776 0.648,-0.85882c0.2611,-0.25111 0.56255,-0.44698 0.90388,-0.58762c0.35177,-0.14062 0.72325,-0.21092 1.11513,-0.21092h5.3034c0.41183,0 0.79873,0.08035 1.16023,0.24107c0.36174,0.15068 0.67292,0.3616 0.93426,0.63281c0.27106,0.26117 0.48209,0.57254 0.63281,0.93414c0.1607,0.36162 0.24092,0.74834 0.24092,1.16016zM275.24913,187.84418v-10.10996h-8.27163v10.10996zM292.84746,187.84418v-3.72154h-7.03639c-0.41183,0 -0.79849,-0.07534 -1.15999,-0.22599c-0.36174,-0.16072 -0.67815,-0.37166 -0.94921,-0.63283c-0.2611,-0.27119 -0.47212,-0.5876 -0.63281,-0.94921c-0.15073,-0.3616 -0.22597,-0.74834 -0.22597,-1.16016v-3.42021c0,-0.41183 0.07524,-0.79854 0.22597,-1.16016c0.1607,-0.3616 0.37171,-0.67297 0.63281,-0.93414c0.27106,-0.27121 0.58747,-0.48213 0.94921,-0.63281c0.3615,-0.16072 0.74817,-0.24107 1.15999,-0.24107h9.38676v2.96818h-9.38676v3.42021h7.03639c0.41183,0 0.79351,0.08037 1.14504,0.24107c0.36174,0.15068 0.67815,0.36162 0.94921,0.63283c0.2713,0.26115 0.48232,0.57254 0.63281,0.93414c0.1607,0.3616 0.24116,0.74834 0.24116,1.16016v3.72154c0,0.41183 -0.08047,0.79856 -0.24116,1.16016c-0.15049,0.3616 -0.3615,0.67803 -0.63281,0.94921c-0.27106,0.26117 -0.58747,0.47212 -0.94921,0.63283c-0.35153,0.15065 -0.73322,0.22599 -1.14504,0.22599h-10.00438v-2.9682z"/></g></g></svg>