<svg version="1.1" xmlns="http://www.w3.org/2000/svg" xmlns:xlink="http://www.w3.org/1999/xlink" width="4.43968" height="5.40679" viewBox="0,0,4.43968,5.40679"><g transform="translate(-237.78016,-174.84321)"><g data-paper-data="{&quot;isPaintingLayer&quot;:true}" fill="#ffffff" fill-rule="nonzero" stroke="#ffffff" stroke-width="0.5" stroke-linecap="butt" stroke-linejoin="miter" stroke-miterlimit="10" stroke-dasharray="" stroke-dashoffset="0" style="mix-blend-mode: normal"><path d="M238.03016,177.85759c0,-0.12593 0.02186,-0.24265 0.06559,-0.35015c0.04664,-0.11057 0.10786,-0.20733 0.18365,-0.29026c0.0787,-0.08293 0.17053,-0.14743 0.27547,-0.19351c0.10494,-0.04914 0.21571,-0.07372 0.33231,-0.07372h2.22127v-0.94911h-2.81156v-0.90764h2.81156c0.11951,0 0.23175,0.02457 0.33669,0.07372c0.10494,0.04607 0.19531,0.11057 0.27109,0.19351c0.0787,0.07986 0.13992,0.17507 0.18365,0.28564c0.04664,0.11057 0.06996,0.22884 0.06996,0.35477v3.99914h-0.8614v-0.82931c-0.00874,0.11366 -0.03789,0.22115 -0.08746,0.32252c-0.04955,0.10136 -0.11368,0.19043 -0.19239,0.26723c-0.07579,0.07372 -0.16324,0.13208 -0.26235,0.17508c-0.0991,0.043 -0.20404,0.06451 -0.31482,0.06451h-1.36424c-0.1166,0 -0.22737,-0.02303 -0.33231,-0.06911c-0.10494,-0.04915 -0.19677,-0.11365 -0.27547,-0.19351c-0.07579,-0.08293 -0.137,-0.17968 -0.18365,-0.29026c-0.04372,-0.11056 -0.06559,-0.22883 -0.06559,-0.35475zM238.88717,179.09236h2.22127v-1.23476h-2.22127z"/></g></g></svg>