<svg version="1.1" xmlns="http://www.w3.org/2000/svg" xmlns:xlink="http://www.w3.org/1999/xlink" width="32.86459" height="37.62513" viewBox="0,0,32.86459,37.62513"><g transform="translate(-223.5677,-161.18743)"><g data-paper-data="{&quot;isPaintingLayer&quot;:true}" fill="#ffad4e" stroke="none" stroke-width="1" stroke-linecap="butt" stroke-linejoin="miter" stroke-miterlimit="10" stroke-dasharray="" stroke-dashoffset="0" style="mix-blend-mode: normal"><path d="M247.49782,166.24164l-10.64672,-1.56229l0.49683,-3.49192l10.64392,1.56201z" fill-rule="nonzero"/><path d="M256.4323,172.8467l-2.8715,2.10986c1.79925,3.00907 2.6273,6.6065 2.1024,10.30832c-1.23505,8.67785 -9.36676,14.66778 -18.20301,13.37128c-8.83625,-1.29678 -14.96941,-9.38001 -13.73436,-18.05786c1.23225,-8.67785 9.3836,-14.66548 18.20301,-13.37128c3.7613,0.55184 7.037,2.35171 9.47904,4.92043l2.8715,-2.10958c0.79998,0.86614 1.51575,1.82636 2.15292,2.82883zM237.67073,184.40728l3.54797,0.52077l1.49049,-10.47657l-3.54797,-0.52077zM232.33194,171.36599c-0.39578,-0.37675 -1.01892,-0.35592 -1.38944,0.0462c-0.37052,0.4024 -0.35087,1.0341 0.04491,1.41085l1.7375,1.65385c0.39578,0.37675 1.01892,0.3562 1.38944,-0.0462c0.37052,-0.4024 0.35087,-1.0341 -0.04491,-1.41085zM226.36998,177.70726c0.1207,-0.53674 0.65121,-0.8704 1.17891,-0.74521l2.45327,0.58123c0.5277,0.12519 0.85612,0.66193 0.73261,1.19896c-0.12351,0.53674 -0.65121,0.8704 -1.17891,0.74521l-2.45327,-0.58123c-0.5277,-0.12519 -0.85612,-0.66193 -0.73261,-1.19896zM226.90331,184.49997c-0.49964,0.21476 -0.73261,0.80026 -0.52209,1.30817c0.21333,0.50764 0.78875,0.74521 1.28839,0.53046l2.49256,-1.07034c0.49964,-0.21448 0.73261,-0.80026 0.52209,-1.30789c-0.21052,-0.50792 -0.78875,-0.7455 -1.28839,-0.53074z" fill-rule="evenodd"/></g></g></svg>