<svg version="1.1" xmlns="http://www.w3.org/2000/svg" xmlns:xlink="http://www.w3.org/1999/xlink" width="88" height="20" viewBox="0,0,88,20"><g transform="translate(-196,-170)"><g data-paper-data="{&quot;isPaintingLayer&quot;:true}" fill-rule="nonzero" stroke="none" stroke-width="1" stroke-linecap="butt" stroke-linejoin="miter" stroke-miterlimit="10" stroke-dasharray="" stroke-dashoffset="0" style="mix-blend-mode: normal"><path d="M284,172.23058v15.53882c0,1.2319 -0.9463,2.2306 -2.1136,2.2306h-83.77279c-1.16732,0 -2.11361,-0.9987 -2.11361,-2.2306v-15.53882c0,-1.23192 0.94629,-2.23058 2.11361,-2.23058h83.77279c1.1673,0 2.1136,0.99866 2.1136,2.23058z" fill="#35cddb"/><path d="M204.94128,175.36377c0,-0.18374 0.03494,-0.35655 0.10495,-0.51842c0.07001,-0.16625 0.16628,-0.30842 0.2887,-0.42654c0.12254,-0.12249 0.26476,-0.21875 0.42652,-0.28874c0.16628,-0.07437 0.34124,-0.11156 0.52499,-0.11156h5.10541c0.18375,0 0.35663,0.03719 0.51852,0.11156c0.16616,0.07 0.31057,0.16625 0.43312,0.28874c0.12242,0.11812 0.2187,0.2603 0.2887,0.42654c0.07001,0.16187 0.10495,0.33468 0.10495,0.51842v1.21401h-1.34529v-1.21401h-5.10541v6.71969h5.10541v-1.20747h1.34529v1.20747c0,0.18375 -0.03494,0.35871 -0.10495,0.52499c-0.07001,0.16188 -0.16628,0.3041 -0.2887,0.42652c-0.12254,0.12254 -0.26696,0.21882 -0.43312,0.28883c-0.16188,0.07001 -0.33476,0.10495 -0.51852,0.10495h-5.10541c-0.18375,0 -0.35871,-0.03494 -0.52499,-0.10495c-0.16176,-0.07001 -0.30398,-0.16628 -0.42652,-0.28883c-0.12242,-0.12242 -0.2187,-0.26464 -0.2887,-0.42652c-0.07001,-0.16628 -0.10495,-0.34124 -0.10495,-0.52499zM220.80216,182.13599c0,0.17936 -0.03506,0.34784 -0.10495,0.50532c-0.06573,0.15749 -0.15761,0.2953 -0.27563,0.41332c-0.11375,0.11375 -0.24936,0.20562 -0.40685,0.27563c-0.15321,0.06561 -0.31937,0.09847 -0.49873,0.09847h-3.47153c-0.17496,0 -0.34112,-0.03287 -0.49873,-0.09847c-0.15749,-0.07001 -0.2953,-0.16188 -0.41332,-0.27563c-0.11375,-0.11802 -0.20562,-0.25584 -0.27563,-0.41332c-0.06561,-0.15749 -0.09847,-0.32597 -0.09847,-0.50532v-4.40327c0,-0.17937 0.03287,-0.3478 0.09847,-0.50529c0.07001,-0.1575 0.16188,-0.29311 0.27563,-0.40686c0.11802,-0.11812 0.25584,-0.21 0.41332,-0.27562c0.15761,-0.07 0.32377,-0.10499 0.49873,-0.10499h3.47153c0.17936,0 0.34552,0.03499 0.49873,0.10499c0.15749,0.06562 0.2931,0.1575 0.40685,0.27562c0.11802,0.11375 0.2099,0.24936 0.27563,0.40686c0.06989,0.15749 0.10495,0.32592 0.10495,0.50529zM216.04447,177.73273v4.40327h3.47153v-4.40327zM229.14281,182.13599c0,0.17936 -0.03506,0.34784 -0.10507,0.50532c-0.06561,0.15749 -0.15749,0.2953 -0.27563,0.41332c-0.11375,0.11375 -0.24936,0.20562 -0.40685,0.27563c-0.15749,0.06561 -0.32585,0.09847 -0.50532,0.09847h-3.60263v2.8218h-1.28616v-9.81057h1.28616v1.18119c0.0132,-0.16625 0.05693,-0.31936 0.13122,-0.45935c0.07441,-0.14438 0.16848,-0.26906 0.28223,-0.37406c0.11375,-0.10937 0.24496,-0.19468 0.39378,-0.25592c0.15309,-0.06125 0.31497,-0.09186 0.48553,-0.09186h2.30988c0.17948,0 0.34784,0.03499 0.50532,0.10499c0.15749,0.06562 0.2931,0.1575 0.40685,0.27562c0.11815,0.11375 0.21002,0.24936 0.27563,0.40686c0.07001,0.15749 0.10507,0.32592 0.10507,0.50529zM227.84994,182.13599v-4.40327h-3.60263v4.40327zM231.76766,186.25055l1.46331,-3.45174l-2.74299,-6.35883h1.35836l2.04097,4.81012l2.04084,-4.81012h1.35836l-4.2327,9.81057zM242.79217,175.36377c0,-0.18374 0.03506,-0.35655 0.10507,-0.51842c0.07001,-0.16625 0.16616,-0.30842 0.2887,-0.42654c0.12254,-0.12249 0.26464,-0.21875 0.42652,-0.28874c0.16628,-0.07437 0.34124,-0.11156 0.52499,-0.11156h5.10541c0.18375,0 0.35651,0.03719 0.5184,0.11156c0.16628,0.07 0.3107,0.16625 0.43312,0.28874c0.12254,0.11812 0.21882,0.2603 0.2887,0.42654c0.07001,0.16187 0.10507,0.33468 0.10507,0.51842v1.21401h-1.34529v-1.21401h-5.10541v6.71969h5.10541v-1.20747h1.34529v1.20747c0,0.18375 -0.03506,0.35871 -0.10507,0.52499c-0.06989,0.16188 -0.16616,0.3041 -0.2887,0.42652c-0.12242,0.12254 -0.26683,0.21882 -0.43312,0.28883c-0.16188,0.07001 -0.33464,0.10495 -0.5184,0.10495h-5.10541c-0.18375,0 -0.35871,-0.03494 -0.52499,-0.10495c-0.16188,-0.07001 -0.30398,-0.16628 -0.42652,-0.28883c-0.12254,-0.12242 -0.2187,-0.26464 -0.2887,-0.42652c-0.07001,-0.16628 -0.10507,-0.34124 -0.10507,-0.52499zM258.65317,182.13599c0,0.17936 -0.03506,0.34784 -0.10507,0.50532c-0.06561,0.15749 -0.15749,0.2953 -0.27563,0.41332c-0.11375,0.11375 -0.24936,0.20562 -0.40685,0.27563c-0.15309,0.06561 -0.31937,0.09847 -0.49873,0.09847h-3.47141c-0.17496,0 -0.34124,-0.03287 -0.49873,-0.09847c-0.15749,-0.07001 -0.2953,-0.16188 -0.41345,-0.27563c-0.11375,-0.11802 -0.20562,-0.25584 -0.27563,-0.41332c-0.06561,-0.15749 -0.09835,-0.32597 -0.09835,-0.50532v-4.40327c0,-0.17937 0.03274,-0.3478 0.09835,-0.50529c0.07001,-0.1575 0.16188,-0.29311 0.27563,-0.40686c0.11815,-0.11812 0.25596,-0.21 0.41345,-0.27562c0.15749,-0.07 0.32377,-0.10499 0.49873,-0.10499h3.47141c0.17936,0 0.34564,0.03499 0.49873,0.10499c0.15749,0.06562 0.2931,0.1575 0.40685,0.27562c0.11815,0.11375 0.21002,0.24936 0.27563,0.40686c0.07001,0.15749 0.10507,0.32592 0.10507,0.50529zM253.89548,177.73273v4.40327h3.47141v-4.40327zM260.81204,177.73273c0,-0.17937 0.03287,-0.3478 0.09847,-0.50529c0.07001,-0.1575 0.16188,-0.29311 0.27563,-0.40686c0.11815,-0.11812 0.25596,-0.21 0.41345,-0.27562c0.15749,-0.07 0.32377,-0.10499 0.49873,-0.10499h3.60263v-2.69052h1.29275v9.67929h-1.29275v-1.18121c-0.01307,0.16188 -0.05681,0.31497 -0.13122,0.45939c-0.07441,0.14429 -0.17068,0.27123 -0.2887,0.38058c-0.11375,0.10495 -0.24509,0.18815 -0.39378,0.24936c-0.14869,0.06121 -0.3063,0.09188 -0.47246,0.09188h-2.31647c-0.17496,0 -0.34124,-0.03287 -0.49873,-0.09847c-0.15749,-0.07001 -0.2953,-0.16188 -0.41345,-0.27563c-0.11375,-0.11802 -0.20562,-0.25584 -0.27563,-0.41332c-0.06561,-0.15749 -0.09847,-0.32597 -0.09847,-0.50532zM262.09832,182.13599h3.60263v-4.40327h-3.60263zM275.05872,180.59388h-4.62635v1.54212h4.62635v1.29275h-4.62635c-0.17508,0 -0.34124,-0.03287 -0.49873,-0.09847c-0.15749,-0.07001 -0.2953,-0.16188 -0.41345,-0.27563c-0.11375,-0.11802 -0.20562,-0.25584 -0.27563,-0.41332c-0.06561,-0.15749 -0.09847,-0.32597 -0.09847,-0.50532v-4.40327c0,-0.17937 0.03287,-0.3478 0.09847,-0.50529c0.07001,-0.1575 0.16188,-0.29311 0.27563,-0.40686c0.11815,-0.11812 0.25596,-0.21 0.41345,-0.27562c0.15749,-0.07 0.32365,-0.10499 0.49873,-0.10499h3.3336c0.17936,0 0.34784,0.03499 0.50532,0.10499c0.15749,0.06562 0.2931,0.1575 0.40685,0.27562c0.11802,0.11375 0.2099,0.24936 0.27563,0.40686c0.06989,0.15749 0.10495,0.32592 0.10495,0.50529zM270.43237,177.73273v1.56837h3.3336v-1.56837z" fill="#ffffff"/></g></g></svg>