<svg version="1.1" xmlns="http://www.w3.org/2000/svg" xmlns:xlink="http://www.w3.org/1999/xlink" width="13.11959" height="17.55778" viewBox="0,0,13.11959,17.55778"><g transform="translate(-233.69022,-171.47111)"><g data-paper-data="{&quot;isPaintingLayer&quot;:true}" fill="#83a837" fill-rule="nonzero" stroke="#83a837" stroke-width="1" stroke-linecap="butt" stroke-linejoin="miter" stroke-miterlimit="10" stroke-dasharray="" stroke-dashoffset="0" style="mix-blend-mode: normal"><path d="M240.2622,171.97111c1.08922,0 2.03213,0.17883 2.82872,0.53648c0.81285,0.3414 1.43875,0.82911 1.87768,1.46313c0.43894,0.63402 0.65841,1.3981 0.65841,2.29224c0,0.82911 -0.20321,1.56067 -0.60964,2.1947c-0.39017,0.61777 -0.96729,1.08922 -1.73137,1.41436v0.02439c0.92665,0.3414 1.65821,0.85349 2.1947,1.53629c0.55274,0.66654 0.82911,1.49564 0.82911,2.48732c0,0.95916 -0.25198,1.78014 -0.75595,2.46294c-0.48771,0.68279 -1.18676,1.21115 -2.09715,1.58506c-0.89414,0.37391 -1.95897,0.56087 -3.1945,0.56087c-1.23553,0 -2.30849,-0.18696 -3.21889,-0.56087c-0.89414,-0.37391 -1.59323,-0.90226 -2.09715,-1.58506c-0.50397,-0.68279 -0.75595,-1.50377 -0.75595,-2.46294c0,-0.97542 0.26824,-1.80453 0.80472,-2.48732c0.53648,-0.68279 1.28434,-1.19489 2.24351,-1.53629v-0.02439c-0.73157,-0.30888 -1.30869,-0.77221 -1.73141,-1.38997c-0.42268,-0.63402 -0.63402,-1.37372 -0.63402,-2.21908c0,-0.89414 0.21947,-1.65821 0.65841,-2.29224c0.43894,-0.63402 1.06483,-1.12173 1.87768,-1.46313c0.81285,-0.35765 1.76389,-0.53648 2.8531,-0.53648zM240.2622,174.1658c-0.86162,0 -1.55254,0.21134 -2.07277,0.63402c-0.50397,0.42268 -0.75595,0.99981 -0.75595,1.73137c0,0.73157 0.26011,1.30869 0.78034,1.73137c0.52022,0.40643 1.20302,0.60964 2.04838,0.60964c0.84536,0 1.52003,-0.20321 2.024,-0.60964c0.52022,-0.42268 0.78034,-0.99981 0.78034,-1.73137c0,-0.73157 -0.25198,-1.30869 -0.75595,-1.73137c-0.50397,-0.42268 -1.18676,-0.63402 -2.04838,-0.63402zM240.2622,186.33417c0.71531,0 1.32495,-0.10567 1.82891,-0.31701c0.50397,-0.21134 0.89414,-0.52022 1.1705,-0.92665c0.27637,-0.40643 0.41455,-0.87788 0.41455,-1.41436c0,-0.569 -0.14631,-1.04858 -0.43894,-1.43875c-0.27637,-0.40643 -0.66654,-0.71531 -1.1705,-0.92665c-0.50397,-0.21134 -1.10548,-0.31701 -1.80453,-0.31701c-0.68279,0 -1.2843,0.10567 -1.80453,0.31701c-0.52022,0.21134 -0.92665,0.52022 -1.21928,0.92665c-0.27637,0.39017 -0.41455,0.86975 -0.41455,1.43875c0,0.53648 0.13818,1.00793 0.41455,1.41436c0.27637,0.40643 0.67467,0.71531 1.19489,0.92665c0.52022,0.21134 1.12986,0.31701 1.82891,0.31701z"/></g></g></svg>