<svg version="1.1" xmlns="http://www.w3.org/2000/svg" xmlns:xlink="http://www.w3.org/1999/xlink" width="378.93002" height="63.08948" viewBox="0,0,378.93002,63.08948"><g transform="translate(-50.53499,-133.45624)"><g data-paper-data="{&quot;isPaintingLayer&quot;:true}" fill-rule="nonzero" stroke-linecap="butt" stroke-linejoin="miter" stroke-miterlimit="10" stroke-dasharray="" stroke-dashoffset="0" style="mix-blend-mode: normal"><path d="M52.03499,195.04572v-37.59895h375.93002v37.59895z" fill="#353535" stroke="#737373" stroke-width="3"/><path d="M56.06404,150.9914h-2.40235v-16.80469h2.40235l10.10156,13.03125v-13.03125h2.40234v16.80469h-2.40234l-10.10156,-13.03124zM72.64606,145.54218c0,-0.32032 0.0586,-0.61718 0.17578,-0.89062c0.125,-0.28126 0.28906,-0.52734 0.4922,-0.73828c0.211,-0.21094 0.457,-0.375 0.7382,-0.4922c0.2814,-0.125 0.5782,-0.1875 0.8908,-0.1875h5.953v-2.41406h-7.53514v-2.30858h7.53514c0.3204,0 0.6212,0.0625 0.9024,0.1875c0.2812,0.11718 0.5234,0.28124 0.7266,0.49218c0.2108,0.20312 0.375,0.44532 0.4922,0.72656c0.125,0.28126 0.1874,0.58204 0.1874,0.90234v10.17188h-2.3086v-2.10938c-0.0234,0.28906 -0.1016,0.5625 -0.2344,0.82032c-0.1328,0.25782 -0.3046,0.48438 -0.5156,0.67968c-0.203,0.1875 -0.4374,0.33594 -0.703,0.44532c-0.2658,0.10938 -0.547,0.16406 -0.8438,0.16406h-3.6562c-0.3126,0 -0.6094,-0.0586 -0.8908,-0.17578c-0.2812,-0.125 -0.5272,-0.28906 -0.7382,-0.49218c-0.20314,-0.21094 -0.3672,-0.45704 -0.4922,-0.73828c-0.11718,-0.28126 -0.17578,-0.58204 -0.17578,-0.90236zM74.94304,148.6828h5.953v-3.14062h-5.953zM96.95084,140.81952v10.17188h-2.3086v-10.17188h-5.2852v10.17188h-2.297v-12.48046h2.297v2.20312c0.0156,-0.3047 0.086,-0.58984 0.2108,-0.85548c0.1252,-0.27342 0.2892,-0.5078 0.4922,-0.70312c0.211,-0.20312 0.4532,-0.35938 0.7266,-0.46874c0.2734,-0.1172 0.5664,-0.17578 0.879,-0.17578h2.9766c0.3046,0 0.5936,0.05858 0.8672,0.17578c0.2734,0.10936 0.5156,0.26562 0.7264,0.46874c0.211,0.19532 0.379,0.4297 0.504,0.70312c0.1328,0.26564 0.2032,0.55078 0.211,0.85548c0.0156,-0.3047 0.082,-0.58984 0.1992,-0.85548c0.125,-0.27342 0.289,-0.5078 0.4922,-0.70312c0.2108,-0.20312 0.453,-0.35938 0.7264,-0.46874c0.2736,-0.1172 0.5664,-0.17578 0.879,-0.17578h2.9766c0.3202,0 0.621,0.0625 0.9022,0.1875c0.2814,0.11718 0.5236,0.28124 0.7266,0.49218c0.211,0.20312 0.375,0.44532 0.4922,0.72656c0.125,0.28126 0.1876,0.58204 0.1876,0.90234v10.17188h-2.3086v-10.17188zM118.94684,145.9289h-8.2618v2.7539h8.2618v2.3086h-8.2618c-0.3124,0 -0.6092,-0.0586 -0.8906,-0.17578c-0.2812,-0.125 -0.5272,-0.28906 -0.7382,-0.49218c-0.2032,-0.21094 -0.3672,-0.45704 -0.4922,-0.73828c-0.1172,-0.28126 -0.1758,-0.58204 -0.1758,-0.90236v-7.86328c0,-0.3203 0.0586,-0.62108 0.1758,-0.90234c0.125,-0.28124 0.289,-0.52344 0.4922,-0.72656c0.211,-0.21094 0.457,-0.375 0.7382,-0.49218c0.2814,-0.125 0.5782,-0.1875 0.8906,-0.1875h5.9532c0.3204,0 0.6212,0.0625 0.9024,0.1875c0.2812,0.11718 0.5234,0.28124 0.7266,0.49218c0.2108,0.20312 0.375,0.44532 0.4922,0.72656c0.125,0.28126 0.1874,0.58204 0.1874,0.90234zM110.68504,140.81952v2.80078h5.9532v-2.80078zM133.59524,150.9914l-4.8046,-16.80469h2.4024l3.7264,13.37109l3.715,-13.37109h2.4022l3.7148,13.37109l3.7266,-13.37109h2.4024l-4.8046,16.80469h-2.6368l-3.5976,-12.59766l-3.6094,12.59766zM163.59524,148.6828c0,0.32032 -0.0624,0.6211 -0.1874,0.90236c-0.1172,0.28124 -0.2814,0.52734 -0.4922,0.73828c-0.2032,0.20312 -0.4454,0.36718 -0.7266,0.49218c-0.2734,0.11718 -0.5704,0.17578 -0.8906,0.17578h-6.1992c-0.3126,0 -0.6094,-0.0586 -0.8906,-0.17578c-0.2814,-0.125 -0.5274,-0.28906 -0.7384,-0.49218c-0.203,-0.21094 -0.3672,-0.45704 -0.4922,-0.73828c-0.1172,-0.28126 -0.1758,-0.58204 -0.1758,-0.90236v-7.86328c0,-0.3203 0.0586,-0.62108 0.1758,-0.90234c0.125,-0.28124 0.2892,-0.52344 0.4922,-0.72656c0.211,-0.21094 0.457,-0.375 0.7384,-0.49218c0.2812,-0.125 0.578,-0.1875 0.8906,-0.1875h6.1992c0.3202,0 0.6172,0.0625 0.8906,0.1875c0.2812,0.11718 0.5234,0.28124 0.7266,0.49218c0.2108,0.20312 0.375,0.44532 0.4922,0.72656c0.125,0.28126 0.1874,0.58204 0.1874,0.90234zM155.09924,140.81952v7.86328h6.1992v-7.86328zM169.74764,140.81952v10.17188h-2.2968v-12.48046h2.2968v2.20312c0.0156,-0.3047 0.086,-0.58984 0.211,-0.85548c0.125,-0.27342 0.289,-0.5078 0.4922,-0.70312c0.2108,-0.20312 0.453,-0.35938 0.7264,-0.46874c0.2736,-0.1172 0.5664,-0.17578 0.879,-0.17578h2.4492c0.3204,0 0.6172,0.0625 0.8906,0.1875c0.2812,0.11718 0.5274,0.28124 0.7384,0.49218c0.2108,0.20312 0.375,0.44532 0.492,0.72656c0.125,0.28126 0.1876,0.58204 0.1876,0.90234v2.10938h-2.3086v-2.10938zM187.93504,150.9914l-5.953,-5.33204v5.33204h-2.297v-17.28516h2.297v9.72656l5.4726,-4.92186h3.2462l-6.7032,6.02342l7.1836,6.45704zM203.65004,148.6828c0,0.32032 -0.0626,0.6211 -0.1876,0.90236c-0.1172,0.28124 -0.2812,0.52734 -0.4922,0.73828c-0.203,0.20312 -0.4452,0.36718 -0.7266,0.49218c-0.2734,0.11718 -0.5702,0.17578 -0.8906,0.17578h-6.1992c-0.3124,0 -0.6094,-0.0586 -0.8906,-0.17578c-0.2812,-0.125 -0.5274,-0.28906 -0.7382,-0.49218c-0.2032,-0.21094 -0.3672,-0.45704 -0.4922,-0.73828c-0.1172,-0.28126 -0.1758,-0.58204 -0.1758,-0.90236v-7.86328c0,-0.3203 0.0586,-0.62108 0.1758,-0.90234c0.125,-0.28124 0.289,-0.52344 0.4922,-0.72656c0.2108,-0.21094 0.457,-0.375 0.7382,-0.49218c0.2812,-0.125 0.5782,-0.1875 0.8906,-0.1875h6.1992c0.3204,0 0.6172,0.0625 0.8906,0.1875c0.2814,0.11718 0.5236,0.28124 0.7266,0.49218c0.211,0.20312 0.375,0.44532 0.4922,0.72656c0.125,0.28126 0.1876,0.58204 0.1876,0.90234zM195.15384,140.81952v7.86328h6.1992v-7.86328zM207.50544,138.51094h2.2968v10.17186h6.4336v-10.17186h2.3086v12.48046h-2.3086v-2.10938c-0.0234,0.28906 -0.1014,0.5625 -0.2344,0.82032c-0.1328,0.25782 -0.3046,0.48438 -0.5156,0.67968c-0.203,0.1875 -0.4374,0.33594 -0.703,0.44532c-0.2656,0.10938 -0.547,0.16406 -0.8438,0.16406h-4.1368c-0.3124,0 -0.6092,-0.0586 -0.8906,-0.17578c-0.2812,-0.125 -0.5272,-0.28906 -0.7382,-0.49218c-0.2032,-0.21094 -0.3672,-0.45704 -0.4922,-0.73828c-0.1172,-0.28126 -0.1758,-0.58204 -0.1758,-0.90236zM221.66164,138.51094h3.047v-3.84376h2.3086v3.84376h4.1014v2.30858h-4.1014v7.86328h4.1014v2.3086h-4.1014c-0.3126,0 -0.6094,-0.0586 -0.8908,-0.17578c-0.2812,-0.125 -0.5272,-0.28906 -0.7382,-0.49218c-0.211,-0.21094 -0.3788,-0.45704 -0.5038,-0.73828c-0.1172,-0.28126 -0.1758,-0.58204 -0.1758,-0.90236v-7.86328h-3.047zM234.97424,147.4875h3.5038v3.5039h-3.5038zM234.97424,138.51094h3.5038v3.5039h-3.5038z" fill="#ffffff" stroke="#ffffff" stroke-width="0.5"/></g></g></svg>