<svg version="1.1" xmlns="http://www.w3.org/2000/svg" xmlns:xlink="http://www.w3.org/1999/xlink" width="113.49" height="29.80255" viewBox="0,0,113.49,29.80255"><g transform="translate(-183.255,-165.09872)"><g data-paper-data="{&quot;isPaintingLayer&quot;:true}" fill-rule="nonzero" stroke="none" stroke-width="1" stroke-linecap="butt" stroke-linejoin="miter" stroke-miterlimit="10" stroke-dasharray="" stroke-dashoffset="0" style="mix-blend-mode: normal"><path d="M296.745,168.19627v23.60745c0,1.71067 -0.672,3.09755 -1.5,3.09755h-110.49c-0.82843,0 -1.5,-1.38688 -1.5,-3.09755v-23.60745c0,-1.71073 0.67157,-3.09755 1.5,-3.09755h110.49c0.828,0 1.5,1.38681 1.5,3.09755z" fill="#ff5959"/><path d="M216.32643,170.69492h13.96115v2.73874h-11.22233v5.47753h9.57904v2.73874h-9.57904v5.46415h11.22233v2.73877h-13.96115zM246.70683,189.85285h-2.63211v-11.5963h-7.33435v11.5963h-2.61871v-14.22819h2.61871v2.51164c0.01778,-0.34735 0.09795,-0.67242 0.2405,-0.97525c0.14228,-0.31172 0.32942,-0.57893 0.5609,-0.80159c0.2405,-0.23158 0.51657,-0.4097 0.82849,-0.53438c0.31164,-0.1336 0.64572,-0.20042 1.00195,-0.20042h4.70251c0.36527,0 0.7081,0.07128 1.02877,0.21377c0.32067,0.1336 0.59674,0.32064 0.82849,0.56112c0.24023,0.23155 0.42738,0.50765 0.5609,0.8283c0.14255,0.32064 0.21396,0.66356 0.21396,1.02871zM251.08867,178.25655c0,-0.36516 0.06676,-0.70807 0.20056,-1.02871c0.14228,-0.32064 0.32942,-0.59674 0.5609,-0.8283c0.2405,-0.24047 0.52122,-0.42751 0.84189,-0.56112c0.3204,-0.1425 0.65885,-0.21377 1.01509,-0.21377h7.33462v-5.47751h2.63184v19.7057h-2.63184v-2.40477c-0.02681,0.32956 -0.11574,0.64128 -0.26704,0.93519c-0.15158,0.29391 -0.34748,0.5522 -0.58798,0.77486c-0.23147,0.21377 -0.49879,0.383 -0.80167,0.50768c-0.30261,0.12468 -0.62328,0.18704 -0.96173,0.18704h-4.71619c-0.35624,0 -0.69469,-0.06679 -1.01509,-0.20039c-0.32067,-0.14252 -0.60139,-0.32953 -0.84189,-0.56112c-0.23147,-0.24047 -0.41862,-0.52103 -0.5609,-0.84167c-0.13379,-0.32061 -0.20056,-0.66353 -0.20056,-1.02869zM253.7071,187.22098h7.33462v-8.96443h-7.33462z" fill="#000000"/></g></g></svg>