<svg version="1.1" xmlns="http://www.w3.org/2000/svg" xmlns:xlink="http://www.w3.org/1999/xlink" width="110.00688" height="18.86086" viewBox="0,0,110.00688,18.86086"><g transform="translate(-184.99656,-28.96849)"><g data-paper-data="{&quot;isPaintingLayer&quot;:true}" fill="#ce8b4e" fill-rule="nonzero" stroke="none" stroke-width="1" stroke-linecap="butt" stroke-linejoin="miter" stroke-miterlimit="10" stroke-dasharray="" stroke-dashoffset="0" style="mix-blend-mode: normal"><path d="M184.99656,29.49276h13.36244v2.62134h-10.74109v5.2427h9.16828v2.62132h-9.16828v5.22989h10.74109v2.62135h-13.36244zM213.8953,34.21116l-4.94863,6.64927l5.17883,6.96892h-3.04329l-3.65721,-4.923l-3.66988,4.923h-3.04329l5.19153,-6.96892l-4.94858,-6.64927h3.03053l3.43969,4.60335l3.42702,-4.60335zM228.53638,42.30535h-9.0149v3.00497h9.0149v2.51903h-9.0149c-0.34097,0 -0.66491,-0.06392 -0.97183,-0.1918c-0.30692,-0.13641 -0.57535,-0.31541 -0.80554,-0.53706c-0.22155,-0.23016 -0.40067,-0.49869 -0.53711,-0.80559c-0.1278,-0.30687 -0.19169,-0.63508 -0.19169,-0.98458v-8.5801c0,-0.3495 0.0639,-0.67771 0.19169,-0.98461c0.13644,-0.3069 0.31556,-0.57116 0.53711,-0.79278c0.23019,-0.23016 0.49862,-0.40918 0.80554,-0.53706c0.30692,-0.13639 0.63086,-0.20461 0.97183,-0.20461h6.49589c0.34935,0 0.67774,0.06822 0.98466,0.20461c0.30666,0.12788 0.57116,0.3069 0.79271,0.53706c0.23019,0.22163 0.40905,0.48589 0.53711,0.79278c0.13644,0.3069 0.20453,0.63511 0.20453,0.98461zM219.52149,36.73022v3.05609h6.49589v-3.05609zM235.24963,36.73022v11.09913h-2.50644v-13.61819h2.50644v2.40396c0.01702,-0.33245 0.09375,-0.64359 0.23019,-0.93344c0.13618,-0.29836 0.3153,-0.55411 0.53685,-0.76722c0.23019,-0.22165 0.49443,-0.39214 0.79297,-0.51147c0.29828,-0.12788 0.61803,-0.19183 0.959,-0.19183h2.67247c0.34961,0 0.67355,0.06822 0.97183,0.20461c0.30692,0.12788 0.57535,0.3069 0.80554,0.53706c0.23019,0.22163 0.40932,0.48589 0.53711,0.79278c0.13644,0.3069 0.20453,0.63511 0.20453,0.98461v2.30165h-2.51901v-2.30165zM248.59914,36.73022v8.5801h6.49589v-2.30167h2.51901v2.30167c0,0.3495 -0.06809,0.67771 -0.20453,0.98458c-0.1278,0.3069 -0.30692,0.57543 -0.53711,0.80559c-0.22155,0.22165 -0.48578,0.40065 -0.79271,0.53706c-0.30692,0.12788 -0.63505,0.1918 -0.98466,0.1918h-6.49589c-0.34097,0 -0.66491,-0.06392 -0.97183,-0.1918c-0.30692,-0.13641 -0.57535,-0.31541 -0.80554,-0.53706c-0.22155,-0.23016 -0.40067,-0.49869 -0.53711,-0.80559c-0.1278,-0.30687 -0.19169,-0.63508 -0.19169,-0.98458v-8.5801c0,-0.3495 0.0639,-0.67771 0.19169,-0.98461c0.13644,-0.3069 0.31556,-0.57116 0.53711,-0.79278c0.23019,-0.23016 0.49862,-0.40918 0.80554,-0.53706c0.30692,-0.13639 0.63086,-0.20461 0.97183,-0.20461h6.49589c0.34961,0 0.67774,0.06822 0.98466,0.20461c0.30692,0.12788 0.57116,0.3069 0.79271,0.53706c0.23019,0.22163 0.40932,0.48589 0.53711,0.79278c0.13644,0.3069 0.20453,0.63511 0.20453,0.98461v2.30165h-2.51901v-2.30165zM264.46791,34.21116v13.61819h-2.51901v-13.61819zM261.82111,28.96849h2.7746v2.62135h-2.7746zM277.02471,45.31032v-3.15841h-5.97161c-0.34935,0 -0.67748,-0.06392 -0.9844,-0.1918c-0.30692,-0.13639 -0.57561,-0.31541 -0.80554,-0.53706c-0.22181,-0.23016 -0.40067,-0.49869 -0.53711,-0.80559c-0.12806,-0.30687 -0.19196,-0.63508 -0.19196,-0.98458v-2.90266c0,-0.3495 0.0639,-0.67771 0.19196,-0.98461c0.13644,-0.3069 0.3153,-0.57116 0.53711,-0.79278c0.22993,-0.23016 0.49862,-0.40918 0.80554,-0.53706c0.30692,-0.13639 0.63505,-0.20461 0.9844,-0.20461h7.96634v2.51906h-7.96634v2.90266h5.97161c0.34961,0 0.67355,0.06819 0.97183,0.20458c0.30692,0.12788 0.57535,0.3069 0.80554,0.53706c0.23019,0.22165 0.40932,0.48592 0.53711,0.79278c0.13644,0.3069 0.20453,0.63511 0.20453,0.98461v3.15841c0,0.3495 -0.06809,0.67771 -0.20453,0.98458c-0.1278,0.3069 -0.30692,0.57543 -0.53711,0.80559c-0.23019,0.22165 -0.49862,0.40065 -0.80554,0.53706c-0.29828,0.12788 -0.62222,0.1918 -0.97183,0.1918h-8.49062v-2.51903zM295.00344,42.30535h-9.0149v3.00497h9.0149v2.51903h-9.0149c-0.34097,0 -0.66491,-0.06392 -0.97183,-0.1918c-0.30692,-0.13641 -0.57535,-0.31541 -0.80554,-0.53706c-0.22181,-0.23016 -0.40067,-0.49869 -0.53711,-0.80559c-0.1278,-0.30687 -0.19196,-0.63508 -0.19196,-0.98458v-8.5801c0,-0.3495 0.06416,-0.67771 0.19196,-0.98461c0.13644,-0.3069 0.3153,-0.57116 0.53711,-0.79278c0.23019,-0.23016 0.49862,-0.40918 0.80554,-0.53706c0.30692,-0.13639 0.63086,-0.20461 0.97183,-0.20461h6.49563c0.34961,0 0.67774,0.06822 0.98466,0.20461c0.30692,0.12788 0.57116,0.3069 0.79297,0.53706c0.22993,0.22163 0.40905,0.48589 0.53685,0.79278c0.13644,0.3069 0.20479,0.63511 0.20479,0.98461zM285.98854,36.73022v3.05609h6.49563v-3.05609z"/></g></g></svg>