<svg version="1.1" xmlns="http://www.w3.org/2000/svg" xmlns:xlink="http://www.w3.org/1999/xlink" width="149.66648" height="22.39403" viewBox="0,0,149.66648,22.39403"><g transform="translate(-165.25857,-168.80333)"><g data-paper-data="{&quot;isPaintingLayer&quot;:true}" fill="#000000" fill-rule="nonzero" stroke="#000000" stroke-width="0.5" stroke-linecap="butt" stroke-linejoin="miter" stroke-miterlimit="10" stroke-dasharray="" stroke-dashoffset="0" style="mix-blend-mode: normal"><path d="M165.50857,169.05333h15.95485v3.1299h-12.82495v6.2598h10.94701v3.1299h-10.94701v9.37443h-3.1299zM199.6016,187.93957c0,0.41731 -0.08154,0.8092 -0.24438,1.17562c-0.15273,0.36642 -0.36632,0.68706 -0.64124,0.96187c-0.26458,0.26465 -0.58015,0.47841 -0.94647,0.64127c-0.35622,0.15266 -0.74323,0.22901 -1.16054,0.22901h-8.07657c-0.40714,0 -0.79391,-0.07634 -1.16035,-0.22901c-0.36642,-0.16286 -0.68704,-0.37662 -0.96187,-0.64127c-0.26465,-0.2748 -0.47838,-0.59545 -0.64124,-0.96187c-0.15269,-0.36642 -0.22903,-0.75831 -0.22903,-1.17562v-10.2447c0,-0.41731 0.07634,-0.80918 0.22903,-1.17562c0.16286,-0.36642 0.37659,-0.68194 0.64124,-0.94659c0.27483,-0.27483 0.59545,-0.48856 0.96187,-0.64124c0.36644,-0.16286 0.75321,-0.24428 1.16035,-0.24428h8.07657c0.41731,0 0.80432,0.08142 1.16054,0.24428c0.36632,0.15269 0.68189,0.36642 0.94647,0.64124c0.27492,0.26465 0.48851,0.58017 0.64124,0.94659c0.16284,0.36644 0.24438,0.75831 0.24438,1.17562zM188.5324,177.6949v10.2447h8.07657v-10.2447zM207.61715,177.6949v13.25246h-2.99239v-16.2602h2.99239v2.87035c0.02044,-0.39697 0.11209,-0.76848 0.27492,-1.11455c0.16284,-0.35627 0.37642,-0.66162 0.64124,-0.91607c0.27468,-0.26465 0.59025,-0.46821 0.94647,-0.61072c0.35622,-0.15269 0.73794,-0.22901 1.14515,-0.22901h3.19107c0.41731,0 0.80408,0.08142 1.1603,0.24428c0.36632,0.15269 0.68694,0.36642 0.96187,0.64124c0.27468,0.26465 0.48851,0.58017 0.64124,0.94659c0.16284,0.36644 0.24413,0.75831 0.24413,1.17562v2.74821h-3.00754v-2.74821zM234.32065,184.35166h-10.76381v3.58794h10.76381v3.00776h-10.76381c-0.40721,0 -0.79398,-0.07634 -1.16054,-0.22901c-0.36632,-0.16286 -0.68694,-0.37662 -0.96187,-0.64127c-0.26458,-0.2748 -0.47841,-0.59545 -0.64124,-0.96187c-0.15249,-0.36642 -0.22898,-0.75831 -0.22898,-1.17562v-10.2447c0,-0.41731 0.07649,-0.80918 0.22898,-1.17562c0.16284,-0.36642 0.37666,-0.68194 0.64124,-0.94659c0.27492,-0.27483 0.59554,-0.48856 0.96187,-0.64124c0.36656,-0.16286 0.75333,-0.24428 1.16054,-0.24428h7.75602c0.41731,0 0.80913,0.08142 1.17545,0.24428c0.36656,0.15269 0.68213,0.36642 0.94671,0.64124c0.27468,0.26465 0.48851,0.58017 0.64124,0.94659c0.16284,0.36644 0.24438,0.75831 0.24438,1.17562zM223.55684,177.6949v3.649h7.75602v-3.649zM239.34357,183.84783c0,-0.41731 0.07649,-0.8041 0.22898,-1.16035c0.16308,-0.36644 0.37666,-0.68706 0.64148,-0.96187c0.27468,-0.27483 0.5953,-0.48858 0.96187,-0.64127c0.36632,-0.16284 0.75309,-0.24428 1.1603,-0.24428h7.75602v-3.14517h-9.81733v-3.00774h9.81733c0.41731,0 0.80913,0.08142 1.17569,0.24428c0.36632,0.15269 0.68189,0.36642 0.94647,0.64124c0.27492,0.26465 0.48851,0.58017 0.64124,0.94659c0.16284,0.36644 0.24438,0.75831 0.24438,1.17562v13.25246h-3.00778v-2.74821c-0.03055,0.37662 -0.13229,0.73286 -0.30547,1.06876c-0.17294,0.3359 -0.39687,0.63107 -0.67179,0.88552c-0.26458,0.24428 -0.56981,0.43769 -0.91593,0.58017c-0.34612,0.14251 -0.71244,0.21376 -1.09945,0.21376h-4.76339c-0.40721,0 -0.79398,-0.07634 -1.1603,-0.22901c-0.36656,-0.16286 -0.68718,-0.37662 -0.96187,-0.64127c-0.26482,-0.2748 -0.47841,-0.59545 -0.64148,-0.96187c-0.15249,-0.36642 -0.22898,-0.75831 -0.22898,-1.17562zM242.3362,187.93957h7.75602v-4.09177h-7.75602zM261.11555,177.6949v13.25246h-2.99239v-16.2602h2.99239v2.87035c0.02044,-0.39697 0.11184,-0.76848 0.27468,-1.11455c0.16308,-0.35627 0.37666,-0.66162 0.64148,-0.91607c0.27468,-0.26465 0.59025,-0.46821 0.94647,-0.61072c0.35622,-0.15269 0.73794,-0.22901 1.14515,-0.22901h3.19083c0.41731,0 0.80432,0.08142 1.16054,0.24428c0.36632,0.15269 0.68694,0.36642 0.96187,0.64124c0.27468,0.26465 0.48851,0.58017 0.64124,0.94659c0.16284,0.36644 0.24413,0.75831 0.24413,1.17562v2.74821h-3.00778v-2.74821zM286.94859,177.6949v13.25246h-3.00778v-13.25246h-6.8858v13.25246h-2.99239v-16.2602h2.99239v2.87035c0.02044,-0.39697 0.11209,-0.76848 0.27492,-1.11455c0.16284,-0.35627 0.37666,-0.66162 0.64124,-0.91607c0.27492,-0.26465 0.59025,-0.46821 0.94671,-0.61072c0.35622,-0.15269 0.73794,-0.22901 1.14491,-0.22901h3.87801c0.39711,0 0.77377,0.07632 1.12999,0.22901c0.35622,0.14251 0.67179,0.34607 0.94647,0.61072c0.27492,0.25445 0.4938,0.5598 0.65664,0.91607c0.17294,0.34607 0.26458,0.71759 0.27468,1.11455c0.02044,-0.39697 0.10703,-0.76848 0.25953,-1.11455c0.16284,-0.35627 0.37666,-0.66162 0.64124,-0.91607c0.27492,-0.26465 0.59049,-0.46821 0.94671,-0.61072c0.35622,-0.15269 0.73794,-0.22901 1.14515,-0.22901h3.87801c0.41731,0 0.80913,0.08142 1.17545,0.24428c0.36656,0.15269 0.68213,0.36642 0.94671,0.64124c0.27492,0.26465 0.48851,0.58017 0.64124,0.94659c0.16284,0.36644 0.24438,0.75831 0.24438,1.17562v13.25246h-3.00778v-13.25246zM311.66726,187.93957v-3.77114h-7.13017c-0.41731,0 -0.80913,-0.07634 -1.17545,-0.22901c-0.36656,-0.16286 -0.68718,-0.37662 -0.96187,-0.64127c-0.26482,-0.2748 -0.47841,-0.59542 -0.64124,-0.96187c-0.15273,-0.36642 -0.22922,-0.75831 -0.22922,-1.17562v-3.4658c0,-0.41731 0.07649,-0.80918 0.22922,-1.17562c0.16284,-0.36642 0.37642,-0.68194 0.64124,-0.94659c0.27468,-0.27483 0.5953,-0.48856 0.96187,-0.64124c0.36632,-0.16286 0.75814,-0.24428 1.17545,-0.24428h9.51186v3.00774h-9.51186v3.4658h7.13017c0.41731,0 0.80408,0.08144 1.1603,0.24428c0.36632,0.15269 0.68694,0.36644 0.96187,0.64127c0.27492,0.26463 0.48851,0.58017 0.64124,0.94659c0.16284,0.36642 0.24438,0.75831 0.24438,1.17562v3.77114c0,0.41731 -0.08154,0.8092 -0.24438,1.17562c-0.15273,0.36642 -0.36632,0.68706 -0.64124,0.96187c-0.27492,0.26465 -0.59554,0.47841 -0.96187,0.64127c-0.35622,0.15266 -0.74299,0.22901 -1.1603,0.22901h-10.13795v-3.00776z"/></g></g></svg>