<svg version="1.1" xmlns="http://www.w3.org/2000/svg" xmlns:xlink="http://www.w3.org/1999/xlink" width="201.96708" height="124.69678" viewBox="0,0,201.96708,124.69678"><g transform="translate(-139.01649,-148.5)"><g data-paper-data="{&quot;isPaintingLayer&quot;:true}" fill-rule="nonzero" stroke-linecap="butt" stroke-linejoin="miter" stroke-miterlimit="10" stroke-dasharray="" stroke-dashoffset="0" style="mix-blend-mode: normal"><path d="M188.00002,192v-24h104v24z" fill="#ff9b40" stroke="#ffc85e" stroke-width="0"/><path d="M150.03336,206.06666c0,-13.12388 0,-45.97597 0,-52.83333c0,-2.45565 1.34398,-4.73333 3.41667,-4.73333c5.96328,0 17.95852,0 21.33333,0c1.73045,0 3.58333,1.65676 3.58333,3.56667c0,6.37012 0,42.00735 0,54.83333c0,2.8718 -2.06427,4.76667 -4.25,4.76667c-3.2308,0 -12.77334,0.09332 -18.83179,0.04394c-3.07436,-0.02506 -5.25154,-2.27869 -5.25154,-5.64394z" fill="#ff9b40" stroke="none" stroke-width="0"/><path d="M303.03333,206.06667c0,-13.12389 0,-45.97597 0,-52.83334c0,-2.45565 1.34398,-4.73333 3.41666,-4.73333c5.96328,0 17.95852,0 21.33334,0c1.73045,0 3.58334,1.65676 3.58334,3.56667c0,6.37012 0,42.00735 0,54.83334c0,2.8718 -2.06427,4.76666 -4.25,4.76666c-3.2308,0 -12.77334,0.09333 -18.83179,0.04395c-3.07435,-0.02506 -5.25154,-2.27869 -5.25154,-5.64395z" fill="#ff9b40" stroke="none" stroke-width="0"/><g fill="#ffae4e" stroke="none" stroke-width="1"><path d="M159.17795,266.28617c2.41103,0 4.26549,-0.64911 5.56336,-1.94709c1.29823,-1.29815 1.94733,-3.15264 1.94733,-5.56347v-10.87403c0,-1.18013 -0.16849,-2.2338 -0.50583,-3.16107c-0.33698,-0.92723 -0.83452,-1.71117 -1.49192,-2.35182c-0.64082,-0.6575 -1.42459,-1.15483 -2.35199,-1.49202c-0.92705,-0.33719 -1.98082,-0.50576 -3.16096,-0.50576h-13.25118v25.89524zM140.74285,271.47042v-36.26364h18.4351c1.9387,0 3.68371,0.30346 5.23467,0.91037c1.56789,0.59008 2.89994,1.44144 3.99583,2.55414c1.11247,1.09582 1.96391,2.42768 2.55397,3.99555c0.60699,1.56792 0.91048,3.31282 0.91048,5.23474v10.87403c0,1.92192 -0.30349,3.66682 -0.91048,5.23474c-0.59008,1.56802 -1.4415,2.90802 -2.55397,4.02083c-1.09589,1.09589 -2.42794,1.94733 -3.99583,2.55433c-1.55096,0.59008 -3.29597,0.88493 -5.23467,0.88493zM179.6871,244.53822h4.95638v21.95027h13.88337v-21.95027h4.98193v26.93219h-4.98193v-4.55206c-0.05076,0.62391 -0.21925,1.21398 -0.50583,1.77021c-0.28658,0.55658 -0.6574,1.04548 -1.11281,1.46672c-0.43815,0.40466 -0.94397,0.72508 -1.51713,0.96124c-0.57315,0.23582 -1.18013,0.35389 -1.82096,0.35389h-8.92666c-0.67432,0 -1.31514,-0.12637 -1.92178,-0.37945c-0.60699,-0.26966 -1.13801,-0.62356 -1.59343,-1.06206c-0.43815,-0.45506 -0.7924,-0.98609 -1.06206,-1.59308c-0.25273,-0.60699 -0.37912,-1.2561 -0.37912,-1.94733zM233.1469,249.52004v21.95037h-4.98193v-21.95037h-11.40502v21.95037h-4.95673v-26.93219h4.95673v4.75421c0.0335,-0.6575 0.1854,-1.27284 0.45506,-1.84606c0.26966,-0.59008 0.62391,-1.09582 1.06206,-1.51729c0.45506,-0.43832 0.97781,-0.77551 1.56789,-1.01154c0.59008,-0.25288 1.22226,-0.37932 1.89658,-0.37932h6.42344c0.6574,0 1.2813,0.12644 1.87138,0.37932c0.59008,0.23603 1.11247,0.57322 1.56789,1.01154c0.45506,0.42147 0.8176,0.92723 1.08726,1.51729c0.28658,0.57322 0.4385,1.18857 0.45542,1.84606c0.0335,-0.6575 0.17678,-1.27284 0.42986,-1.84606c0.26966,-0.59008 0.62356,-1.09582 1.06206,-1.51729c0.45506,-0.43832 0.97781,-0.77551 1.56789,-1.01154c0.59008,-0.25288 1.22226,-0.37932 1.89658,-0.37932h6.42309c0.69124,0 1.34034,0.13486 1.94733,0.40459c0.60699,0.25292 1.12973,0.60696 1.56789,1.06212c0.45542,0.43832 0.80931,0.96096 1.06206,1.56789c0.27,0.60692 0.40466,1.25599 0.40466,1.94723v21.95037h-4.98193v-21.95037zM281.64998,266.48849c0,0.69124 -0.135,1.34034 -0.40466,1.94733c-0.25273,0.60699 -0.60699,1.13801 -1.06206,1.59308c-0.4385,0.4385 -0.9609,0.7924 -1.56789,1.06206c-0.60699,0.25308 -1.2561,0.37945 -1.94733,0.37945h-13.88337c-0.67432,0 -1.31479,-0.12637 -1.92178,-0.37945c-0.60699,-0.26966 -1.13801,-0.62356 -1.59308,-1.06206c-0.4385,-0.45506 -0.7924,-0.98609 -1.06206,-1.59308c-0.25308,-0.60699 -0.37945,-1.2561 -0.37945,-1.94733v-32.31854h4.95638v15.12248c0.03383,-0.6575 0.1854,-1.27284 0.45542,-1.84606c0.26966,-0.59008 0.62356,-1.09582 1.06206,-1.51729c0.45506,-0.43832 0.97781,-0.77551 1.56789,-1.01154c0.59008,-0.25288 1.22226,-0.37932 1.89658,-0.37932h8.90145c0.69124,0 1.34034,0.13486 1.94733,0.40459c0.60699,0.25292 1.12939,0.60696 1.56789,1.06212c0.45506,0.43832 0.80931,0.96096 1.06206,1.56789c0.26966,0.60692 0.40466,1.25599 0.40466,1.94723zM262.78468,249.52004v16.96845h13.88337v-16.96845zM312.72961,260.5458h-17.82845v5.94267h17.82845v4.98193h-17.82845c-0.67432,0 -1.31514,-0.12637 -1.92178,-0.37945c-0.60699,-0.26966 -1.13801,-0.62356 -1.59343,-1.06206c-0.43815,-0.45506 -0.7924,-0.98609 -1.06206,-1.59308c-0.25273,-0.60699 -0.37945,-1.2561 -0.37945,-1.94733v-16.96845c0,-0.69124 0.12671,-1.34031 0.37945,-1.94723c0.26966,-0.60692 0.62391,-1.12956 1.06206,-1.56789c0.45542,-0.45517 0.98644,-0.80921 1.59343,-1.06212c0.60664,-0.26973 1.24746,-0.40459 1.92178,-0.40459h12.84652c0.69124,0 1.34034,0.13486 1.94733,0.40459c0.60664,0.25292 1.12939,0.60696 1.56789,1.06212c0.45506,0.43832 0.80898,0.96096 1.06206,1.56789c0.26966,0.60692 0.40466,1.25599 0.40466,1.94723zM294.90117,249.52004v6.04394h12.84652v-6.04394zM326.006,234.16995v37.30046h-4.95673v-37.30046zM339.2572,234.16995v37.30046h-4.95673v-37.30046z"/><path d="M163.52079,263.11836l1.22054,1.22071zM163.48624,243.62514l-0.03211,-0.03128l1.23676,-1.20517zM161.74918,242.5191l0.58972,-1.62243zM144.20041,240.39092v-1.72636h1.72636v1.72636zM145.92676,268.01252h-1.72636v-1.72636h1.72636zM140.74285,273.19678h-1.72636v-1.72636h1.72636zM139.01649,235.20676v-1.72636h1.72636v1.72636zM163.8046,237.73287l-0.02107,-0.00794l0.62909,-1.60779zM167.19689,239.90129l-0.01865,-0.01851l1.2302,-1.21149zM169.35242,243.29007l-0.00587,-0.01509l1.61588,-0.60812zM169.34655,263.40224l0.00587,-0.01515l1.61,0.62324zM165.03584,272.19514l-0.00932,0.00379l-0.6139,-1.61345zM159.17795,264.55995c2.10201,0 3.46031,-0.55916 4.34283,-1.44158l2.44141,2.44135c-1.71393,1.71393 -4.06454,2.4528 -6.78425,2.4528zM163.52079,263.11836c0.88251,-0.88241 1.4415,-2.24082 1.4415,-4.34276h3.45272c0,2.71974 -0.73888,5.07032 -2.4528,6.78411zM164.96229,258.7756v-10.87403h3.45272v10.87403zM164.96229,247.90158c0,-1.01734 -0.14536,-1.86595 -0.4019,-2.5711l3.24487,-1.17993c0.41813,1.14934 0.60976,2.40809 0.60976,3.75103zM164.5604,245.33048c-0.25516,-0.70167 -0.61666,-1.25935 -1.07414,-1.70533l2.40931,-2.47293c0.85731,0.83531 1.49054,1.84551 1.9097,2.99834zM163.45449,243.59345c-0.44608,-0.45772 -1.00371,-0.8192 -1.7053,-1.07435l1.17979,-3.24487c1.15287,0.41923 2.16312,1.05238 2.99834,1.9097zM161.74918,242.5191c-0.7054,-0.25643 -1.55373,-0.40183 -2.57124,-0.40183v-3.45272c1.34311,0 2.60162,0.19173 3.75103,0.60968zM159.17795,242.11727h-13.25118v-3.45272h13.25118zM147.65314,240.39092v25.89524h-3.45272v-25.89524zM145.92676,264.55995h13.25118v3.45258h-13.25118zM139.01649,271.47042v-36.26364h3.45272v36.26364zM140.74285,233.48041h18.4351v3.45272h-18.4351zM159.17795,233.48041c2.11927,0 4.0825,0.33198 5.86375,1.02908l-1.25817,3.21531c-1.32032,-0.51673 -2.84712,-0.79167 -4.60559,-0.79167zM165.02065,234.50141c1.78471,0.67169 3.3336,1.65482 4.61766,2.9585l-2.46005,2.42273c-0.90772,-0.9217 -2.0226,-1.64131 -3.37365,-2.14977zM169.61966,237.4413c1.30375,1.28393 2.28674,2.83279 2.95863,4.61749l-3.23174,1.21615c-0.50823,-1.35104 -1.22779,-2.4659 -2.14967,-3.37365zM172.57242,242.04366c0.694,1.79296 1.02684,3.75304 1.02684,5.85792h-3.45272c0,-1.73896 -0.27415,-3.26872 -0.79413,-4.61152zM173.59926,247.90158v10.87403h-3.45272v-10.87403zM173.59926,258.7756c0,2.10488 -0.33284,4.06495 -1.02684,5.85809l-3.22001,-1.24657c0.51998,-1.3428 0.79413,-2.87252 0.79413,-4.61152zM172.57829,264.6185c-0.6712,1.78264 -1.65178,3.33602 -2.94931,4.63354l-2.44141,-2.44141c0.92775,-0.92809 1.65005,-2.0554 2.15899,-3.40838zM169.62899,269.25204c-1.27958,1.27958 -2.82018,2.25704 -4.59316,2.9431l-1.24642,-3.21966c1.36313,-0.52757 2.4863,-1.25299 3.39817,-2.16485zM165.02651,272.19894c-1.77712,0.67605 -3.7348,0.99783 -5.84855,0.99783v-3.45272c1.76365,0 3.29597,-0.26828 4.62077,-0.77237zM159.17795,273.19678h-18.4351v-3.45272h18.4351zM177.96074,244.53822v-1.72636h1.72636v1.72636zM184.64346,242.81186h1.72636v1.72636h-1.72636zM184.64346,268.21485h-1.72636v-1.72636h1.72636zM200.25322,266.48849v1.72636h-1.72636v-1.72636zM196.80049,244.53822v-1.72636h1.72636v1.72636zM203.50878,242.81186h1.72636v1.72636h-1.72636zM205.23513,271.47042v1.72636h-1.72636v-1.72636zM198.52685,273.19678h-1.72636v-1.72636h1.72636zM196.80601,266.77886l3.4472,0.13949h-1.72636zM198.08145,271.42207l-0.00207,0.00173l-1.17116,-1.26853zM182.05773,272.68474l-0.03763,-0.01554l0.70159,-1.57824zM179.93086,271.27257l-0.02348,-0.02279l-0.02244,-0.02348l1.24333,-1.19741zM178.48866,269.13707l-0.01622,-0.03695l1.59377,-0.6643zM179.6871,242.81186h4.95638v3.45272h-4.95638zM186.36983,244.53822v21.95027h-3.45272v-21.95027zM184.64346,264.76213h13.88337v3.45272h-13.88337zM196.80049,266.48849v-21.95027h3.45272v21.95027zM198.52685,242.81186h4.98193v3.45272h-4.98193zM205.23513,244.53822v26.93219h-3.45272v-26.93219zM203.50878,273.19678h-4.98193v-3.45272h4.98193zM196.80049,271.47042v-4.55206h3.45272v4.55206zM200.24769,267.05784c-0.06906,0.8511 -0.30108,1.66248 -0.69193,2.4214l-3.06947,-1.581c0.18231,-0.35389 0.28761,-0.72265 0.31972,-1.11937zM199.55577,269.47923c-0.37773,0.73335 -0.87044,1.38385 -1.47431,1.94285l-2.34612,-2.53326c0.30661,-0.28381 0.55554,-0.61148 0.75096,-0.99059zM198.07937,271.4238c-0.59456,0.54898 -1.27612,0.97816 -2.03089,1.28889l-1.31479,-3.19272c0.39155,-0.16124 0.72162,-0.37289 1.00371,-0.63323zM196.04849,272.71271c-0.78895,0.3249 -1.61967,0.48407 -2.47836,0.48407v-3.45272c0.42295,0 0.80586,-0.07665 1.16357,-0.22408zM193.57011,273.19678h-8.92666v-3.45272h8.92666zM184.64346,273.19678c-0.89632,0 -1.7633,-0.16918 -2.58573,-0.51204l1.32791,-3.1872c0.39084,0.16297 0.80552,0.24652 1.25783,0.24652zM182.02044,272.66851c-0.781,-0.347 -1.48224,-0.81138 -2.08959,-1.39594l2.39515,-2.487c0.30315,0.29175 0.66395,0.53552 1.09658,0.72783zM179.88492,271.22631c-0.5849,-0.60699 -1.04893,-1.30823 -1.39628,-2.08923l3.15509,-1.40249c0.19231,0.43297 0.43608,0.79378 0.72818,1.09693zM178.47278,269.09977c-0.34492,-0.82797 -0.51204,-1.70391 -0.51204,-2.61129h3.45272c0,0.47544 0.08563,0.89736 0.24652,1.28337zM177.96074,266.48849v-21.95027h3.45272v21.95027zM231.42054,249.52004v-1.72636h1.72636v1.72636zM234.87326,271.47042v1.72636h-1.72636v-1.72636zM228.16498,273.19678h-1.72636v-1.72636h1.72636zM228.16498,247.79368h1.72636v1.72636h-1.72636zM215.03359,249.52004v-1.72636h1.72636v1.72636zM218.48632,271.47042v1.72636h-1.72636v-1.72636zM211.80324,273.19678h-1.72636v-1.72636h1.72636zM210.07688,244.53822v-1.72636h1.72636v1.72636zM216.75997,242.81186h1.72636v1.72636h-1.72636zM218.4839,249.38087l-3.4503,-0.08843h1.72636zM218.78497,248.16413l-0.00794,0.01736l-1.562,-0.73512zM219.47449,247.17261l-0.00069,0.0009l-1.19671,-1.24443zM220.52515,246.5043l-0.03868,0.01662l-0.64152,-1.60337zM229.39518,246.52042l-0.03902,-0.01564l0.68018,-1.58725zM230.43134,247.19581l-0.02486,-0.02296l1.19774,-1.24377zM231.14743,248.21844l-0.01347,-0.02693l-0.01243,-0.02738l1.56995,-0.71775zM234.87085,249.38087l-3.44995,-0.04417l1.72601,-0.04426zM231.99715,246.74955l0.00932,-0.02099l1.5703,0.71783zM235.83623,247.17261l-0.00104,0.0009l-1.19637,-1.24443zM236.88653,246.5043l-0.03868,0.01662l-0.64116,-1.60337zM245.80974,246.53638l-0.03729,-0.01554l0.70124,-1.57803zM246.84417,247.24847l-0.02348,-0.02259l-0.02244,-0.02348l1.24333,-1.19747zM247.52608,248.27396l-0.01622,-0.03698l1.59377,-0.66417zM251.23465,271.47042v1.72636h-1.72636v-1.72636zM244.52638,273.19678h-1.72636v-1.72636h1.72636zM244.52638,247.79368h1.72636v1.72636h-1.72636zM234.87326,249.52004v21.95037h-3.45272v-21.95037zM233.1469,273.19678h-4.98193v-3.45272h4.98193zM226.43861,271.47042v-21.95037h3.45272v21.95037zM228.16498,251.2464h-11.40502v-3.45272h11.40502zM218.48632,249.52004v21.95037h-3.45272v-21.95037zM216.75997,273.19678h-4.95673v-3.45272h4.95673zM210.07688,271.47042v-26.93219h3.45272v26.93219zM211.80324,242.81186h4.95673v3.45272h-4.95673zM218.48632,244.53822v4.75421h-3.45272v-4.75421zM215.03568,249.20401c0.04488,-0.87257 0.24825,-1.70858 0.61734,-2.49273l3.12402,1.47017c-0.17056,0.36227 -0.27034,0.75697 -0.29314,1.19941zM215.64507,246.72863c0.35389,-0.77421 0.83038,-1.46211 1.43564,-2.04398l2.39308,2.48885c-0.27173,0.2611 -0.50306,0.58468 -0.68881,0.99063zM217.07968,244.68555c0.61666,-0.5938 1.32826,-1.05259 2.12411,-1.37091l1.28235,3.20578c-0.38429,0.15375 -0.71783,0.3693 -1.01164,0.65218zM219.16512,243.33077c0.81554,-0.34962 1.68044,-0.5189 2.57642,-0.5189v3.45272c-0.4523,0 -0.85212,0.08355 -1.2164,0.23973zM221.74154,242.81186h6.42344v3.45272h-6.42344zM228.16498,242.81186c0.88528,0 1.7412,0.17167 2.55121,0.5189l-1.36002,3.17353c-0.36978,-0.15852 -0.76166,-0.23973 -1.19118,-0.23973zM230.67751,243.31465c0.7955,0.3183 1.50746,0.7771 2.12411,1.37091l-2.39481,2.48706c-0.29383,-0.28288 -0.62737,-0.49843 -1.01164,-0.65218zM232.77712,244.66234c0.63012,0.58351 1.12421,1.27847 1.48467,2.06628l-3.14025,1.4355c-0.17954,-0.39229 -0.41018,-0.70888 -0.6902,-0.96832zM234.23555,246.67435c0.40293,0.80558 0.6139,1.67022 0.63703,2.57383l-3.45168,0.08853c-0.01036,-0.4114 -0.10289,-0.77749 -0.27346,-1.11826zM231.42262,249.20401c0.04385,-0.85662 0.23271,-1.6793 0.57453,-2.45447l3.15889,1.39365c-0.16366,0.37124 -0.26171,0.77927 -0.2852,1.23767zM232.00646,246.72863c0.35389,-0.77421 0.83072,-1.46211 1.43564,-2.04398l2.39308,2.48885c-0.27138,0.2611 -0.50306,0.58468 -0.68847,0.99063zM233.4414,244.68555c0.61666,-0.5938 1.32826,-1.05259 2.12411,-1.37091l1.28235,3.20578c-0.38429,0.15375 -0.71783,0.3693 -1.01164,0.65218zM235.52651,243.33077c0.81588,-0.34962 1.68078,-0.5189 2.57676,-0.5189v3.45272c-0.45265,0 -0.85212,0.08355 -1.21674,0.23973zM238.10328,242.81186h6.42309v3.45272h-6.42309zM244.52638,242.81186c0.92291,0 1.81198,0.18155 2.64858,0.55339l-1.40249,3.15513c-0.37703,-0.16763 -0.78618,-0.25581 -1.24608,-0.25581zM247.13765,243.34927c0.81622,0.34006 1.53853,0.82576 2.14759,1.45818l-2.487,2.39495c-0.26793,-0.27795 -0.59076,-0.50034 -0.98851,-0.66602zM249.23897,244.76141c0.63254,0.60899 1.11833,1.33127 1.45843,2.14744l-3.1872,1.32795c-0.16573,-0.39768 -0.38809,-0.72066 -0.66602,-0.98834zM250.68118,246.87167c0.37186,0.83669 0.55347,1.72568 0.55347,2.64837h-3.45272c0,-0.45973 -0.08805,-0.86891 -0.25585,-1.24608zM251.23465,249.52004v21.95037h-3.45272v-21.95037zM249.50829,273.19678h-4.98193v-3.45272h4.98193zM242.8,271.47042v-21.95037h3.45272v21.95037zM244.52638,251.2464h-11.37946v-3.45272h11.37946zM279.6519,267.77186l0.01554,-0.03729l1.57789,0.70124zM278.96238,268.80836l1.22088,1.22054zM279.31664,272.66851l-0.03695,0.01657l-0.6643,-1.59412zM260.19894,272.68474l-0.03729,-0.01554l0.70124,-1.57824zM258.07207,271.27257l-0.02313,-0.02279l-0.02279,-0.02348l1.24367,-1.19741zM256.62987,269.13707l-0.01622,-0.03695l1.59412,-0.6643zM256.10195,234.16995v-1.72638h1.72636v1.72638zM262.78468,232.44358h1.72636v1.72638h-1.72636zM264.50896,249.38087l-3.45065,-0.08843h1.72636zM264.81003,248.16413l-0.00794,0.01736l-1.562,-0.73512zM265.49956,247.17261l-0.00104,0.0009l-1.19637,-1.24443zM266.55021,246.5043l-0.03902,0.01662l-0.64116,-1.60337zM277.95142,246.53638l-0.03729,-0.01554l0.70124,-1.57803zM278.98586,247.24847l-0.02348,-0.02259l-0.02279,-0.02348l1.24367,-1.19747zM279.66779,248.27396l-0.01622,-0.03698l1.59377,-0.66417zM261.05833,249.52004v-1.72636h1.72636v1.72636zM262.78468,268.21485h-1.72636v-1.72636h1.72636zM278.39442,266.48849v1.72636h-1.72636v-1.72636zM276.66806,247.79368h1.72636v1.72636h-1.72636zM283.37634,266.48849c0,0.92291 -0.18161,1.81164 -0.55347,2.64858l-3.15509,-1.40249c0.1678,-0.37703 0.25585,-0.78618 0.25585,-1.24608zM282.8391,269.09977c-0.33802,0.81035 -0.81691,1.53196 -1.43495,2.15001l-2.44176,-2.44141c0.29245,-0.29245 0.52136,-0.63323 0.68951,-1.0365zM281.40415,271.24979c-0.5987,0.59835 -1.30098,1.06931 -2.08751,1.41872l-1.40249,-3.15509c0.42745,-0.1899 0.7703,-0.42711 1.04825,-0.70504zM279.27935,272.68474c-0.82797,0.34492 -1.70391,0.51204 -2.61129,0.51204v-3.45272c0.47544,0 0.89736,-0.08563 1.28337,-0.24652zM276.66806,273.19678h-13.88337v-3.45272h13.88337zM262.78468,273.19678c-0.89632,0 -1.76296,-0.16918 -2.58573,-0.51204l1.32791,-3.1872c0.39119,0.16297 0.80552,0.24652 1.25783,0.24652zM260.16164,272.66851c-0.781,-0.347 -1.48224,-0.81138 -2.08959,-1.39594l2.39515,-2.487c0.30315,0.29175 0.66395,0.53552 1.09693,0.72783zM258.02615,271.22631c-0.58454,-0.60699 -1.04893,-1.30823 -1.39628,-2.08923l3.15544,-1.40249c0.19231,0.43297 0.43608,0.79378 0.72783,1.09693zM256.61398,269.09977c-0.34492,-0.82797 -0.51204,-1.70391 -0.51204,-2.61129h3.45272c0,0.47544 0.08563,0.89736 0.24652,1.28337zM256.10195,266.48849v-32.31854h3.45272v32.31854zM257.8283,232.44358h4.95638v3.45274h-4.95638zM264.51104,234.16995v15.12248h-3.45272v-15.12248zM261.06074,249.20401c0.04488,-0.87257 0.24825,-1.70858 0.61734,-2.49273l3.12402,1.47017c-0.17056,0.36227 -0.27034,0.75697 -0.29314,1.19941zM261.6698,246.72863c0.35389,-0.77421 0.83072,-1.46211 1.43564,-2.04398l2.39308,2.48885c-0.27138,0.2611 -0.50271,0.58468 -0.68847,0.99063zM263.10475,244.68555c0.61666,-0.5938 1.32826,-1.05259 2.12411,-1.37091l1.28235,3.20578c-0.38429,0.15375 -0.71783,0.3693 -1.01164,0.65218zM265.18984,243.33077c0.81588,-0.34962 1.68078,-0.5189 2.57676,-0.5189v3.45272c-0.45265,0 -0.85212,0.08355 -1.2164,0.23973zM267.7666,242.81186h8.90145v3.45272h-8.90145zM276.66806,242.81186c0.92291,0 1.81164,0.18155 2.64858,0.55339l-1.40249,3.15513c-0.37703,-0.16763 -0.78618,-0.25581 -1.24608,-0.25581zM279.27935,243.34927c0.81622,0.34006 1.53853,0.82576 2.14759,1.45818l-2.48734,2.39495c-0.26759,-0.27795 -0.59042,-0.50034 -0.98817,-0.66602zM281.38067,244.76141c0.63254,0.60899 1.11833,1.33127 1.45843,2.14744l-3.1872,1.32795c-0.16573,-0.39768 -0.38809,-0.72066 -0.66602,-0.98834zM282.82287,246.87167c0.37186,0.83669 0.55347,1.72568 0.55347,2.64837h-3.45272c0,-0.45973 -0.08805,-0.86891 -0.25585,-1.24608zM283.37634,249.52004v16.96845h-3.45272v-16.96845zM264.51104,249.52004v16.96845h-3.45272v-16.96845zM262.78468,264.76213h13.88337v3.45272h-13.88337zM274.94169,266.48849v-16.96845h3.45272v16.96845zM276.66806,251.2464h-13.88337v-3.45272h13.88337zM314.45598,260.5458v1.72636h-1.72636v-1.72636zM293.17481,260.5458v-1.72636h1.72636v1.72636zM294.90117,268.21485h-1.72636v-1.72636h1.72636zM312.72961,264.76213h1.72636v1.72636h-1.72636zM314.45598,271.47042v1.72636h-1.72636v-1.72636zM292.31508,272.68474l-0.03729,-0.01554l0.70159,-1.57824zM290.18856,271.27257l-0.02348,-0.02279l-0.02244,-0.02348l1.24333,-1.19741zM288.74636,269.13707l-0.01657,-0.03695l1.59412,-0.6643zM288.73047,246.90885l0.01554,-0.03735l1.57789,0.70132zM293.68028,246.52039l-0.03695,0.01643l-0.66395,-1.59402zM309.03108,246.53638l-0.03763,-0.01554l0.70159,-1.57803zM310.06515,247.24847l-0.02348,-0.02259l-0.02244,-0.02348l1.24367,-1.19747zM310.74742,248.27396l-0.01657,-0.03698l1.59412,-0.66417zM293.17481,249.52004v-1.72636h1.72636v1.72636zM294.90117,257.29035h-1.72636v-1.72636h1.72636zM309.47405,255.56398v1.72636h-1.72636v-1.72636zM307.74769,247.79368h1.72636v1.72636h-1.72636zM312.72961,262.27217h-17.82845v-3.45272h17.82845zM296.62752,260.5458v5.94267h-3.45272v-5.94267zM294.90117,264.76213h17.82845v3.45272h-17.82845zM314.45598,266.48849v4.98193h-3.45272v-4.98193zM312.72961,273.19678h-17.82845v-3.45272h17.82845zM294.90117,273.19678c-0.89632,0 -1.7633,-0.16918 -2.58608,-0.51204l1.32826,-3.1872c0.39084,0.16297 0.80552,0.24652 1.25783,0.24652zM292.27814,272.66851c-0.781,-0.347 -1.48224,-0.81138 -2.08959,-1.39594l2.39481,-2.487c0.30349,0.29175 0.6643,0.53552 1.09693,0.72783zM290.14262,271.22631c-0.5849,-0.60699 -1.04928,-1.30823 -1.39628,-2.08923l3.15509,-1.40249c0.19231,0.43297 0.43608,0.79378 0.72818,1.09693zM288.73047,269.09977c-0.34527,-0.82797 -0.51239,-1.70391 -0.51239,-2.61129h3.45272c0,0.47544 0.08597,0.89736 0.24652,1.28337zM288.2181,266.48849v-16.96845h3.45272v16.96845zM288.2181,249.52004c0,-0.90727 0.16711,-1.78318 0.51239,-2.61119l3.18685,1.32795c-0.16054,0.38584 -0.24652,0.80804 -0.24652,1.28323zM288.74636,246.87167c0.34976,-0.7866 0.82037,-1.48889 1.41907,-2.08745l2.44141,2.44145c-0.27829,0.27809 -0.51549,0.62108 -0.7054,1.04828zM290.16543,244.78423c0.61803,-0.61811 1.33931,-1.09724 2.14967,-1.43495l1.32826,3.1871c-0.40362,0.16808 -0.74441,0.39699 -1.0365,0.6893zM292.27814,243.36526c0.83107,-0.36937 1.71082,-0.55339 2.62302,-0.55339v3.45272c-0.43677,0 -0.83797,0.0857 -1.22088,0.25581zM294.90117,242.81186h12.84652v3.45272h-12.84652zM307.74769,242.81186c0.92257,0 1.81164,0.18155 2.64824,0.55339l-1.40215,3.15513c-0.37703,-0.16763 -0.78652,-0.25581 -1.24608,-0.25581zM310.35899,243.34927c0.81622,0.34006 1.53818,0.82576 2.14724,1.45818l-2.487,2.39495c-0.26759,-0.27795 -0.59076,-0.50034 -0.98817,-0.66602zM312.4603,244.76141c0.63254,0.60899 1.11799,1.33127 1.45809,2.14744l-3.1872,1.32795c-0.16539,-0.39768 -0.38809,-0.72066 -0.66602,-0.98834zM313.90251,246.87167c0.37186,0.83669 0.55347,1.72568 0.55347,2.64837h-3.45272c0,-0.45973 -0.08839,-0.86891 -0.25585,-1.24608zM314.45598,249.52004v11.02576h-3.45272v-11.02576zM296.62752,249.52004v6.04394h-3.45272v-6.04394zM294.90117,253.83763h12.84652v3.45272h-12.84652zM306.02132,255.56398v-6.04394h3.45272v6.04394zM307.74769,251.2464h-12.84652v-3.45272h12.84652zM326.006,232.44358h1.72636v1.72638h-1.72636zM327.73237,271.47042v1.72636h-1.72636v-1.72636zM321.04928,273.19678h-1.72636v-1.72636h1.72636zM319.32292,234.16995v-1.72638h1.72636v1.72638zM327.73237,234.16995v37.30046h-3.45272v-37.30046zM326.006,273.19678h-4.95673v-3.45272h4.95673zM319.32292,271.47042v-37.30046h3.45272v37.30046zM321.04928,232.44358h4.95673v3.45274h-4.95673zM339.2572,232.44358h1.72636v1.72638h-1.72636zM340.98356,271.47042v1.72636h-1.72636v-1.72636zM334.30048,273.19678h-1.72636v-1.72636h1.72636zM332.57411,234.16995v-1.72638h1.72636v1.72638zM340.98356,234.16995v37.30046h-3.45272v-37.30046zM339.2572,273.19678h-4.95673v-3.45272h4.95673zM332.57411,271.47042v-37.30046h3.45272v37.30046zM334.30048,232.44358h4.95673v3.45274h-4.95673z"/></g></g></g></svg>