<svg version="1.1" xmlns="http://www.w3.org/2000/svg" xmlns:xlink="http://www.w3.org/1999/xlink" width="398.19232" height="23.06918" viewBox="0,0,398.19232,23.06918"><g transform="translate(-40.90384,-168.46542)"><g data-paper-data="{&quot;isPaintingLayer&quot;:true}" fill-rule="nonzero" stroke="none" stroke-width="1" stroke-linecap="butt" stroke-linejoin="miter" stroke-miterlimit="10" stroke-dasharray="" stroke-dashoffset="0" style="mix-blend-mode: normal"><path d="M40.92876,180.00001c0,-6.37254 3.66293,-11.53458 8.18121,-11.53458h225.38067c1.36185,0 2.46713,1.55489 2.46713,3.47846v16.11224c0,1.92012 -1.10528,3.47846 -2.46713,3.47846h-225.38067c-4.51828,0 -8.18121,-5.16554 -8.18121,-11.53458z" fill="#b5e74e"/><path d="M430.931,191.53456h-383.01083c-0.72076,0 -6.94186,-2.89844 -7.01568,-11.8631c-0.07531,-9.14532 6.37722,-11.20604 7.01568,-11.20604h383.01083c4.50856,0 8.16516,5.16203 8.16516,11.53458c0,6.36907 -3.6566,11.53458 -8.16516,11.53458z" fill="#6e6e6e"/><path d="M40.92876,180.00001c0,-6.37254 3.27117,-11.53458 7.30621,-11.53458l190.75,0.03163l-0.0661,22.90588l-190.6839,0.13166c-4.03504,0 -7.30621,-5.16554 -7.30621,-11.53458z" fill="#b5e74e"/></g></g></svg>