<svg version="1.1" xmlns="http://www.w3.org/2000/svg" xmlns:xlink="http://www.w3.org/1999/xlink" width="18.3062" height="23.80625" viewBox="0,0,18.3062,23.80625"><g transform="translate(-230.8469,-155.72708)"><g data-paper-data="{&quot;isPaintingLayer&quot;:true}" fill="#2675f0" fill-rule="nonzero" stroke="none" stroke-width="1" stroke-linecap="butt" stroke-linejoin="miter" stroke-miterlimit="10" stroke-dasharray="" stroke-dashoffset="0" style="mix-blend-mode: normal"><path d="M248.4531,173.39583c-0.0313,1.8229 -0.4896,3.1875 -1.375,4.0937c-0.8854,0.8959 -2.2396,1.3438 -4.0625,1.3438h-6.0156c-3.6354,0 -5.4532,-1.8125 -5.4532,-5.4375v-1.3437h3.1407v1.1874c0,0.8438 0.1875,1.4636 0.5625,1.8594c0.375,0.3959 0.9896,0.5938 1.8437,0.5938h5.8125c0.8542,0 1.4688,-0.1979 1.8438,-0.5938c0.375,-0.3958 0.5625,-1.0156 0.5625,-1.8594v-3.0156c0,-0.8437 -0.1875,-1.4583 -0.5625,-1.8437c-0.375,-0.3959 -0.9896,-0.5938 -1.8438,-0.5938h-10.7187v-11.35935h15.6875v3.20313h-12.4844v5.03124h7.625c1.8333,0 3.1979,0.44792 4.0938,1.34378c0.8958,0.8854 1.3437,2.25 1.3437,4.0937z"/><path d="M249.1531,173.39583v0.012l-0.7,-0.012zM247.5788,177.97873l-0.0028,0.0029l-0.4979,-0.4921zM230.8469,172.05213v-0.7h0.6999v0.7zM234.6875,171.35213h0.7v0.7h-0.7zM244.2418,174.61753l0.5082,0.4814zM244.2483,168.86833l-0.0065,-0.0067l0.5082,-0.4814zM232.1875,168.48643h-0.7v-0.7h0.7zM231.4875,156.42708v-0.7h0.7v0.7zM247.875,155.72708h0.7v0.7h-0.7zM248.575,159.63021v0.69999h-0.7v-0.69999zM234.6906,159.63021v-0.7h0.7v0.7zM235.3906,165.36145h-0.7v-0.7h0.7zM246.6173,166.50303l-0.0029,-0.0028l0.495,-0.495zM249.153,173.40783c-0.033,1.9235 -0.5183,3.4902 -1.5742,4.5709l-1.0014,-0.9783c0.715,-0.7318 1.1463,-1.8942 1.1758,-3.6166zM247.576,177.98163c-1.0661,1.0787 -2.6344,1.5517 -4.5604,1.5517v-1.4c1.7199,0 2.8599,-0.4228 3.5646,-1.1358zM243.0156,179.53333h-6.0156v-1.4h6.0156zM237,179.53333c-1.9251,0 -3.4976,-0.4803 -4.5841,-1.5637c-1.0869,-1.0837 -1.569,-2.6529 -1.569,-4.5738h1.3999c0,1.7041 0.4268,2.8537 1.1576,3.5824c0.7312,0.7292 1.8853,1.1551 3.5956,1.1551zM230.8469,173.39583v-1.3437h1.3999v1.3437zM231.5468,171.35213h3.1407v1.3999h-3.1407zM235.3875,172.05213v1.1874h-1.4v-1.1874zM235.3875,173.23953c0,0.7596 0.1715,1.1677 0.3706,1.378l-1.0163,0.9628c-0.5508,-0.5814 -0.7543,-1.4128 -0.7543,-2.3408zM235.7581,174.61753c0.1841,0.1943 0.5671,0.3752 1.3356,0.3752v1.4c-0.9397,0 -1.7859,-0.2149 -2.3519,-0.8124zM237.0937,174.99273h5.8125v1.4h-5.8125zM242.9062,174.99273c0.7686,0 1.1516,-0.1809 1.3356,-0.3752l1.0163,0.9628c-0.5659,0.5975 -1.4121,0.8124 -2.3519,0.8124zM244.2418,174.61753c0.1992,-0.2103 0.3707,-0.6184 0.3707,-1.378h1.4c0,0.928 -0.2035,1.7594 -0.7544,2.3408zM244.6125,173.23953v-3.0156h1.4v3.0156zM244.6125,170.22393c0,-0.7616 -0.1724,-1.1584 -0.3642,-1.3556l1.0034,-0.9763c0.5581,0.5737 0.7608,1.4061 0.7608,2.3319zM244.2418,168.86163c-0.184,-0.1943 -0.567,-0.3752 -1.3356,-0.3752v-1.4c0.9398,0 1.786,0.2149 2.3519,0.8124zM242.9062,168.48643h-10.7187v-1.4h10.7187zM231.4875,167.78643v-11.35935h1.4v11.35935zM232.1875,155.72708h15.6875v1.4h-15.6875zM248.575,156.42708v3.20313h-1.4v-3.20313zM247.875,160.3302h-12.4844v-1.39999h12.4844zM236.0906,159.63021v5.03124h-1.4v-5.03124zM235.3906,163.96146h7.625v1.39999h-7.625zM243.0156,163.96146c1.9358,0 3.5126,0.47267 4.5887,1.54877l-0.9899,0.9899c-0.7156,-0.71552 -1.8679,-1.13868 -3.5988,-1.13868zM247.6014,165.50734c1.08,1.06739 1.5517,2.64749 1.5517,4.59159h-1.4c0,-1.7434 -0.4241,-2.8924 -1.1358,-3.5959zM249.1531,170.09893v3.2969h-1.4v-3.2969z"/></g></g></svg>