<svg version="1.1" xmlns="http://www.w3.org/2000/svg" xmlns:xlink="http://www.w3.org/1999/xlink" width="68.52851" height="11.25815" viewBox="0,0,68.52851,11.25815"><g transform="translate(-205.48812,-174.34762)"><g data-paper-data="{&quot;isPaintingLayer&quot;:true}" stroke-linecap="butt" stroke-linejoin="miter" stroke-miterlimit="10" stroke-dasharray="" stroke-dashoffset="0" style="mix-blend-mode: normal"><path d="M205.50613,185.58743v-11.06801h68.5105v11.06801z" fill="#ffffff" fill-rule="nonzero" stroke="#eaeaea" stroke-width="0"/><path d="M223.41798,179.92744h5.10952c0.16103,0 0.28958,0.13002 0.28958,0.28984c0,0.16117 -0.12855,0.28984 -0.28958,0.28984h-5.10952z" fill="#877c57" fill-rule="evenodd" stroke="#877c57" stroke-width="0.5"/><path d="M226.01063,182.31927c-0.0866,0.13408 -0.26522,0.17472 -0.39919,0.08804l-0.03111,-0.02032l-0.08661,-0.05553c-0.07442,-0.0474 -0.17996,-0.11648 -0.30851,-0.1991c-0.2544,-0.16658 -0.59404,-0.39006 -0.93369,-0.62031c-0.33964,-0.23024 -0.68199,-0.46996 -0.9418,-0.66499c-0.12855,-0.09751 -0.24357,-0.18824 -0.32611,-0.26409c-0.04195,-0.03792 -0.08255,-0.07721 -0.11503,-0.11784c-0.01624,-0.01896 -0.03653,-0.04605 -0.05277,-0.07721c-0.01488,-0.02573 -0.04466,-0.0853 -0.04331,-0.16386c0,-0.0772 0.02842,-0.13545 0.04196,-0.15983c0.01624,-0.02979 0.03518,-0.05553 0.05141,-0.07584c0.03112,-0.04063 0.07172,-0.08125 0.11231,-0.12053c0.08254,-0.0799 0.19621,-0.17472 0.32476,-0.27901c0.25981,-0.20857 0.60217,-0.46589 0.94181,-0.71374c0.33964,-0.24785 0.67928,-0.48894 0.93367,-0.66772c0.1272,-0.09074 0.23275,-0.16386 0.30718,-0.21668l0.08659,-0.0596l0.02978,-0.02166l0.16509,0.23836l0.16507,0.23836l-0.02976,0.02032l-0.08525,0.0596c-0.07443,0.05146 -0.17997,0.12596 -0.30582,0.21399c-0.25304,0.17878 -0.58997,0.41849 -0.92555,0.66363c-0.33694,0.2465 -0.67117,0.49571 -0.9188,0.69616c-0.08525,0.06907 -0.15833,0.13002 -0.21651,0.18149c0.05683,0.04605 0.12584,0.10157 0.20703,0.16251c0.24763,0.18691 0.58186,0.41985 0.9188,0.64739c0.33558,0.22889 0.67252,0.451 0.92556,0.61487c0.12719,0.08262 0.23139,0.1517 0.30582,0.1991l0.08524,0.05419l0.02978,0.01895c0.13396,0.08668 0.17456,0.26546 0.08795,0.4009zM226.00521,177.98259c0.09067,0.13273 0.05819,0.31285 -0.07307,0.40359l-0.16507,-0.23836l-0.16509,-0.23836c0.13261,-0.09074 0.31257,-0.05824 0.40323,0.07313z" fill="#877c57" fill-rule="evenodd" stroke="#877c57" stroke-width="0.5"/><path d="M231.80712,183.77859v-7.39813h4.4649v0.79472h-3.56903v2.49976h3.33783v0.79472h-3.33783v2.51422h3.62681v0.79472zM238.40693,178.22998l1.32935,2.26857l1.32935,-2.26857h0.98257l-1.79175,2.77429l1.79175,2.77431h-0.98257l-1.32935,-2.15297l-1.32935,2.15297h-0.98257l1.76284,-2.77431l-1.76284,-2.77429zM243.26467,183.77859v-5.54861h0.85256v5.54861zM243.69813,177.30521c-0.16615,0 -0.30947,-0.05659 -0.42984,-0.16979c-0.118,-0.11318 -0.177,-0.24925 -0.177,-0.4082c0,-0.15894 0.059,-0.29499 0.177,-0.40819c0.12037,-0.11318 0.26369,-0.16978 0.42984,-0.16978c0.16615,0 0.30823,0.0566 0.42634,0.16978c0.12037,0.11319 0.18062,0.24925 0.18062,0.40819c0,0.15895 -0.06024,0.29502 -0.18062,0.4082c-0.11811,0.11319 -0.26019,0.16979 -0.42634,0.16979zM248.09172,178.22998v0.72247h-2.87552v-0.72247zM246.05429,176.90063h0.85256v5.28851c0,0.24083 0.03492,0.42145 0.10477,0.54185c0.07223,0.11802 0.16377,0.19748 0.27454,0.23842c0.11314,0.03853 0.23239,0.0578 0.35762,0.0578c0.09393,0 0.17101,-0.00482 0.23114,-0.01446c0.06025,-0.01203 0.10839,-0.02166 0.14456,-0.02889l0.17338,0.76582c-0.05787,0.02167 -0.13846,0.04334 -0.24211,0.06502c-0.10353,0.02409 -0.23476,0.03612 -0.39368,0.03612c-0.24086,0 -0.47686,-0.05178 -0.708,-0.15533c-0.22888,-0.10356 -0.41911,-0.26129 -0.57079,-0.47322c-0.14931,-0.21193 -0.22402,-0.47923 -0.22402,-0.80194z" fill="#877c57" fill-rule="nonzero" stroke="#877c57" stroke-width="0.5"/><path d="M211.27879,174.34762l-3.61254,11.24975l-2.13871,0.0084l-0.03942,-11.2384z" fill="#e7e7e7" fill-rule="nonzero" stroke="none" stroke-width="1"/><path d="M210.75431,185.37117l2.73195,-10.89231l3.67893,0.01698l-3.34416,11.06904z" fill="#dadada" fill-rule="nonzero" stroke="none" stroke-width="1"/></g></g></svg>