<svg version="1.1" xmlns="http://www.w3.org/2000/svg" xmlns:xlink="http://www.w3.org/1999/xlink" width="76.66107" height="13.35888" viewBox="0,0,76.66107,13.35888"><g transform="translate(-209.78706,-174.21355)"><g data-paper-data="{&quot;isPaintingLayer&quot;:true}" fill="#87bf3d" fill-rule="nonzero" stroke="#87bf3d" stroke-width="0.5" stroke-linecap="butt" stroke-linejoin="miter" stroke-miterlimit="10" stroke-dasharray="" stroke-dashoffset="0" style="mix-blend-mode: normal"><path d="M210.03706,184.41992v-9.67961h5.29881c1.56602,0 2.34903,0.78526 2.34903,2.35577v1.37701c0,1.57052 -0.78301,2.35578 -2.34903,2.35578h-3.91505v3.59104zM211.42082,179.44512h3.84079c0.369,0 0.63451,-0.081 0.79651,-0.243c0.162,-0.162 0.243,-0.42751 0.243,-0.79651v-1.24202c0,-0.369 -0.081,-0.6345 -0.243,-0.7965c-0.162,-0.162 -0.42751,-0.243 -0.79651,-0.243h-3.84079zM219.4872,177.2311h1.32297v5.85906h3.70579v-5.85906h1.32979v7.18883h-1.32979v-1.21501c-0.01346,0.1665 -0.05852,0.324 -0.13502,0.47247c-0.07649,0.14856 -0.17547,0.27906 -0.29694,0.3915c-0.11704,0.10801 -0.25206,0.19354 -0.40505,0.25658c-0.15299,0.06295 -0.31501,0.09447 -0.48596,0.09447h-2.38282c-0.17999,0 -0.35104,-0.03373 -0.51297,-0.10128c-0.16202,-0.07198 -0.30376,-0.16644 -0.42532,-0.28349c-0.11695,-0.12147 -0.21142,-0.26321 -0.28349,-0.42523c-0.06746,-0.16201 -0.10119,-0.33526 -0.10119,-0.51976zM229.3828,174.46356v9.95636h-1.32306v-9.95636zM232.91985,174.46356v9.95636h-1.32306v-9.95636zM239.41342,174.74032h1.38371v8.29585h5.52837v-8.29585h1.38371v8.29585c0,0.18899 -0.03594,0.369 -0.10801,0.54003c-0.07198,0.16644 -0.17096,0.3127 -0.29694,0.43869c-0.12608,0.12608 -0.27455,0.22506 -0.44551,0.29703c-0.16653,0.07198 -0.34431,0.10801 -0.53324,0.10801h-5.52837c-0.18902,0 -0.36901,-0.03603 -0.53997,-0.10801c-0.16653,-0.07198 -0.31279,-0.17096 -0.43878,-0.29703c-0.12598,-0.12598 -0.22497,-0.27224 -0.29703,-0.43869c-0.07198,-0.17102 -0.10792,-0.35103 -0.10792,-0.54003zM256.42358,183.09016c0,0.1845 -0.03603,0.35775 -0.10801,0.51976c-0.06746,0.16202 -0.16202,0.30376 -0.28349,0.42523c-0.11704,0.11704 -0.25648,0.21151 -0.4185,0.28349c-0.16202,0.06755 -0.33528,0.10128 -0.51979,0.10128h-3.70579v2.90252h-1.32297v-10.09134h1.32297v1.21501c0.01355,-0.171 0.05852,-0.32851 0.13502,-0.47251c0.07649,-0.1485 0.17326,-0.27675 0.29022,-0.38475c0.11704,-0.1125 0.25206,-0.20025 0.40505,-0.26325c0.1575,-0.063 0.32404,-0.0945 0.49951,-0.0945h2.376c0.18451,0 0.35777,0.036 0.51979,0.10799c0.16202,0.06751 0.30146,0.16201 0.4185,0.28351c0.12147,0.117 0.21603,0.2565 0.28349,0.4185c0.07198,0.162 0.10801,0.33525 0.10801,0.51976zM255.09379,183.09016v-4.5293h-3.70579v4.5293zM269.2217,179.37086c0.20248,0.063 0.38698,0.15301 0.55352,0.27c0.16653,0.11701 0.30828,0.26776 0.42523,0.45226c0.11704,0.18 0.20699,0.39375 0.27003,0.64126c0.06295,0.2475 0.09447,0.531 0.09447,0.85051v0.486c0,1.56603 -0.783,2.34903 -2.349,2.34903h-5.2988v-9.67961h5.02204c1.566,0 2.349,0.78526 2.349,2.35577v0.1755c0,0.54451 -0.08774,0.99001 -0.26321,1.33652c-0.17105,0.342 -0.43878,0.59625 -0.80328,0.76275zM264.27395,180.20112v2.86203h3.90154c0.3645,0 0.62771,-0.0855 0.78973,-0.2565c0.16202,-0.171 0.24303,-0.43875 0.24303,-0.80326v-0.74926c0,-0.369 -0.08101,-0.63676 -0.24303,-0.80326c-0.16202,-0.1665 -0.42523,-0.24976 -0.78973,-0.24976zM264.27395,176.09708v2.75403h3.71925c0.33298,-0.0135 0.57149,-0.10351 0.71554,-0.27c0.14847,-0.171 0.22275,-0.432 0.22275,-0.78301v-0.63451c0,-0.369 -0.08101,-0.639 -0.24303,-0.81c-0.16202,-0.171 -0.42523,-0.2565 -0.78973,-0.2565zM272.50226,181.28114c0,-0.18451 0.03373,-0.3555 0.10119,-0.51301c0.07207,-0.162 0.16653,-0.30375 0.28358,-0.42526c0.12147,-0.1215 0.26321,-0.216 0.42523,-0.28351c0.16202,-0.072 0.33298,-0.10799 0.51297,-0.10799h3.42903v-1.39052h-4.34023v-1.32976h4.34023c0.18451,0 0.35777,0.036 0.51979,0.10799c0.16202,0.06751 0.30146,0.16201 0.4185,0.28351c0.12147,0.117 0.21603,0.2565 0.28349,0.4185c0.07198,0.162 0.10801,0.33525 0.10801,0.51976v5.85906h-1.32979v-1.21501c-0.01346,0.1665 -0.05843,0.324 -0.13502,0.47247c-0.07649,0.14856 -0.17547,0.27906 -0.29694,0.3915c-0.11704,0.10801 -0.25206,0.19354 -0.40505,0.25658c-0.15299,0.06295 -0.31501,0.09447 -0.48596,0.09447h-2.10606c-0.17999,0 -0.35095,-0.03373 -0.51297,-0.10128c-0.16202,-0.07198 -0.30376,-0.16644 -0.42523,-0.28349c-0.11704,-0.12147 -0.21151,-0.26321 -0.28358,-0.42523c-0.06746,-0.16201 -0.10119,-0.33526 -0.10119,-0.51976zM273.82524,183.09016h3.42903v-1.80902h-3.42903zM282.12784,178.56086v5.85906h-1.32297v-7.18883h1.32297v1.26901c0.00903,-0.1755 0.04949,-0.33975 0.12147,-0.49276c0.07207,-0.1575 0.16653,-0.2925 0.28358,-0.405c0.12147,-0.117 0.261,-0.207 0.4185,-0.27c0.1575,-0.0675 0.32625,-0.10125 0.50624,-0.10125h1.41071c0.18451,0 0.35556,0.036 0.51306,0.10799c0.16202,0.06751 0.30376,0.16201 0.42523,0.28351c0.12147,0.117 0.21603,0.2565 0.28349,0.4185c0.07207,0.162 0.10801,0.33525 0.10801,0.51976v1.21501h-1.32979v-1.21501z"/></g></g></svg>