<svg version="1.1" xmlns="http://www.w3.org/2000/svg" xmlns:xlink="http://www.w3.org/1999/xlink" width="8.44688" height="23.80625" viewBox="0,0,8.44688,23.80625"><g transform="translate(-235.77661,-155.89375)"><g data-paper-data="{&quot;isPaintingLayer&quot;:true}" fill="#000000" fill-rule="nonzero" stroke="none" stroke-width="1" stroke-linecap="butt" stroke-linejoin="miter" stroke-miterlimit="10" stroke-dasharray="" stroke-dashoffset="0" style="mix-blend-mode: normal"><path d="M243.5235,156.59375v22.40625h-3.20312v-19.20312h-3.84375v-3.20313z"/><path d="M243.5235,155.89375h0.7v0.7h-0.7zM244.2235,179v0.7h-0.7v-0.7zM240.32038,179.7h-0.7v-0.7h0.7zM240.32038,159.09688h0.69999v0.7h-0.69999zM236.47662,160.49687h-0.7v-0.69999h0.7zM235.77662,156.59375v-0.7h0.7v0.7zM244.2235,156.59375v22.40625h-1.4v-22.40625zM243.5235,179.7h-3.20312v-1.4h3.20312zM239.62038,179v-19.20312h1.39999v19.20312zM240.32038,160.49687h-3.84375v-1.39999h3.84375zM235.77662,159.79688v-3.20313h1.39999v3.20313zM236.47662,155.89375h7.04688v1.4h-7.04687z"/><path d="M243.5235,155.89375h0.7v0.7h-0.7zM244.2235,179v0.7h-0.7v-0.7zM240.32038,179.7h-0.7v-0.7h0.7zM240.32038,159.09688h0.69999v0.7h-0.69999zM236.47662,160.49687h-0.7v-0.69999h0.7zM235.77662,156.59375v-0.7h0.7v0.7zM244.2235,156.59375v22.40625h-1.4v-22.40625zM243.5235,179.7h-3.20312v-1.4h3.20312zM239.62038,179v-19.20312h1.39999v19.20312zM240.32038,160.49687h-3.84375v-1.39999h3.84375zM235.77662,159.79688v-3.20313h1.39999v3.20313zM236.47662,155.89375h7.04688v1.4h-7.04687z"/><path d="M243.5235,155.89375h0.7v0.7h-0.7zM244.2235,179v0.7h-0.7v-0.7zM240.32038,179.7h-0.7v-0.7h0.7zM240.32038,159.09688h0.69999v0.7h-0.69999zM236.47662,160.49687h-0.7v-0.69999h0.7zM235.77662,156.59375v-0.7h0.7v0.7zM244.2235,156.59375v22.40625h-1.4v-22.40625zM243.5235,179.7h-3.20312v-1.4h3.20312zM239.62038,179v-19.20312h1.39999v19.20312zM240.32038,160.49687h-3.84375v-1.39999h3.84375zM235.77662,159.79688v-3.20313h1.39999v3.20313zM236.47662,155.89375h7.04688v1.4h-7.04687z"/><path d="M243.5235,155.89375h0.7v0.7h-0.7zM244.2235,179v0.7h-0.7v-0.7zM240.32038,179.7h-0.7v-0.7h0.7zM240.32038,159.09688h0.69999v0.7h-0.69999zM236.47662,160.49687h-0.7v-0.69999h0.7zM235.77662,156.59375v-0.7h0.7v0.7zM244.2235,156.59375v22.40625h-1.4v-22.40625zM243.5235,179.7h-3.20312v-1.4h3.20312zM239.62038,179v-19.20312h1.39999v19.20312zM240.32038,160.49687h-3.84375v-1.39999h3.84375zM235.77662,159.79688v-3.20313h1.39999v3.20313zM236.47662,155.89375h7.04688v1.4h-7.04687z"/><path d="M243.5235,155.89375h0.7v0.7h-0.7zM244.2235,179v0.7h-0.7v-0.7zM240.32038,179.7h-0.7v-0.7h0.7zM240.32038,159.09688h0.69999v0.7h-0.69999zM236.47662,160.49687h-0.7v-0.69999h0.7zM235.77662,156.59375v-0.7h0.7v0.7zM244.2235,156.59375v22.40625h-1.4v-22.40625zM243.5235,179.7h-3.20312v-1.4h3.20312zM239.62038,179v-19.20312h1.39999v19.20312zM240.32038,160.49687h-3.84375v-1.39999h3.84375zM235.77662,159.79688v-3.20313h1.39999v3.20313zM236.47662,155.89375h7.04688v1.4h-7.04687z"/><path d="M243.5235,155.89375h0.7v0.7h-0.7zM244.2235,179v0.7h-0.7v-0.7zM240.32038,179.7h-0.7v-0.7h0.7zM240.32038,159.09688h0.69999v0.7h-0.69999zM236.47662,160.49687h-0.7v-0.69999h0.7zM235.77662,156.59375v-0.7h0.7v0.7zM244.2235,156.59375v22.40625h-1.4v-22.40625zM243.5235,179.7h-3.20312v-1.4h3.20312zM239.62038,179v-19.20312h1.39999v19.20312zM240.32038,160.49687h-3.84375v-1.39999h3.84375zM235.77662,159.79688v-3.20313h1.39999v3.20313zM236.47662,155.89375h7.04688v1.4h-7.04687z"/><path d="M243.5235,155.89375h0.7v0.7h-0.7zM244.2235,179v0.7h-0.7v-0.7zM240.32038,179.7h-0.7v-0.7h0.7zM240.32038,159.09688h0.69999v0.7h-0.69999zM236.47662,160.49687h-0.7v-0.69999h0.7zM235.77662,156.59375v-0.7h0.7v0.7zM244.2235,156.59375v22.40625h-1.4v-22.40625zM243.5235,179.7h-3.20312v-1.4h3.20312zM239.62038,179v-19.20312h1.39999v19.20312zM240.32038,160.49687h-3.84375v-1.39999h3.84375zM235.77662,159.79688v-3.20313h1.39999v3.20313zM236.47662,155.89375h7.04688v1.4h-7.04687z"/><path d="M243.5235,155.89375h0.7v0.7h-0.7zM244.2235,179v0.7h-0.7v-0.7zM240.32038,179.7h-0.7v-0.7h0.7zM240.32038,159.09688h0.69999v0.7h-0.69999zM236.47662,160.49687h-0.7v-0.69999h0.7zM235.77662,156.59375v-0.7h0.7v0.7zM244.2235,156.59375v22.40625h-1.4v-22.40625zM243.5235,179.7h-3.20312v-1.4h3.20312zM239.62038,179v-19.20312h1.39999v19.20312zM240.32038,160.49687h-3.84375v-1.39999h3.84375zM235.77662,159.79688v-3.20313h1.39999v3.20313zM236.47662,155.89375h7.04688v1.4h-7.04687z"/><path d="M243.5235,155.89375h0.7v0.7h-0.7zM244.2235,179v0.7h-0.7v-0.7zM240.32038,179.7h-0.7v-0.7h0.7zM240.32038,159.09688h0.69999v0.7h-0.69999zM236.47662,160.49687h-0.7v-0.69999h0.7zM235.77662,156.59375v-0.7h0.7v0.7zM244.2235,156.59375v22.40625h-1.4v-22.40625zM243.5235,179.7h-3.20312v-1.4h3.20312zM239.62038,179v-19.20312h1.39999v19.20312zM240.32038,160.49687h-3.84375v-1.39999h3.84375zM235.77662,159.79688v-3.20313h1.39999v3.20313zM236.47662,155.89375h7.04688v1.4h-7.04687z"/><path d="M243.5235,155.89375h0.7v0.7h-0.7zM244.2235,179v0.7h-0.7v-0.7zM240.32038,179.7h-0.7v-0.7h0.7zM240.32038,159.09688h0.69999v0.7h-0.69999zM236.47662,160.49687h-0.7v-0.69999h0.7zM235.77662,156.59375v-0.7h0.7v0.7zM244.2235,156.59375v22.40625h-1.4v-22.40625zM243.5235,179.7h-3.20312v-1.4h3.20312zM239.62038,179v-19.20312h1.39999v19.20312zM240.32038,160.49687h-3.84375v-1.39999h3.84375zM235.77662,159.79688v-3.20313h1.39999v3.20313zM236.47662,155.89375h7.04688v1.4h-7.04687z"/><path d="M243.5235,155.89375h0.7v0.7h-0.7zM244.2235,179v0.7h-0.7v-0.7zM240.32038,179.7h-0.7v-0.7h0.7zM240.32038,159.09688h0.69999v0.7h-0.69999zM236.47662,160.49687h-0.7v-0.69999h0.7zM235.77662,156.59375v-0.7h0.7v0.7zM244.2235,156.59375v22.40625h-1.4v-22.40625zM243.5235,179.7h-3.20312v-1.4h3.20312zM239.62038,179v-19.20312h1.39999v19.20312zM240.32038,160.49687h-3.84375v-1.39999h3.84375zM235.77662,159.79688v-3.20313h1.39999v3.20313zM236.47662,155.89375h7.04688v1.4h-7.04687z"/><path d="M243.5235,155.89375h0.7v0.7h-0.7zM244.2235,179v0.7h-0.7v-0.7zM240.32038,179.7h-0.7v-0.7h0.7zM240.32038,159.09688h0.69999v0.7h-0.69999zM236.47662,160.49687h-0.7v-0.69999h0.7zM235.77662,156.59375v-0.7h0.7v0.7zM244.2235,156.59375v22.40625h-1.4v-22.40625zM243.5235,179.7h-3.20312v-1.4h3.20312zM239.62038,179v-19.20312h1.39999v19.20312zM240.32038,160.49687h-3.84375v-1.39999h3.84375zM235.77662,159.79688v-3.20313h1.39999v3.20313zM236.47662,155.89375h7.04688v1.4h-7.04687z"/></g></g></svg>