<svg version="1.1" xmlns="http://www.w3.org/2000/svg" xmlns:xlink="http://www.w3.org/1999/xlink" width="320.00001" height="76.45562" viewBox="0,0,320.00001,76.45562"><g transform="translate(-80,-142.67049)"><g data-paper-data="{&quot;isPaintingLayer&quot;:true}" fill-rule="nonzero" stroke-linecap="butt" stroke-linejoin="miter" stroke-miterlimit="10" stroke-dasharray="" stroke-dashoffset="0" style="mix-blend-mode: normal"><path d="M98.83594,217.62611c-9.57438,0 -17.33594,-6.0389 -17.33594,-14.219c0,-12.8911 0,-31.0998 0,-39.37135c0,-8.23171 7.76156,-19.86527 17.33594,-19.86527h282.32813c9.57438,0 17.33594,10.0618 17.33594,17.56547c0,7.83581 0,25.65192 0,39.07736c0,9.50732 -7.76156,16.81278 -17.33594,16.81278z" fill="#4d4d4d" stroke="#59ed4a" stroke-width="3"/><path d="M81.5,160.17049c0,-8.83656 7.16344,-16 16,-16c0,0 127.48054,0 179.40395,0c39.83557,0 105.59605,0 105.59605,0c8.837,0 16,7.16344 16,16v20h-317z" fill="#59ed4a" stroke="none" stroke-width="1"/><path d="M108.9302,151.19161l-8.7729,-1.29555l0.4091,-2.89606l8.7729,1.29556z" fill="#000000" stroke="none" stroke-width="1"/><path d="M115.6593,166.9677c-1.0165,7.1967 -7.7186,12.1643 -15,11.089c-7.2815,-1.0753 -12.33502,-7.7789 -11.31848,-14.9756c1.01654,-7.1967 7.73328,-12.16209 15.00008,-11.08894c3.0997,0.45777 5.7996,1.95036 7.8123,4.08064l2.3666,-1.7496c0.6598,0.7183 1.2488,1.5148 1.7733,2.3462l-2.3667,1.7495c1.4834,2.4956 2.1666,5.479 1.7329,8.5488zM104.9849,158.0002l-2.9243,-0.4319l-1.2272,8.6882l2.9243,0.4319z" fill="#000000" stroke="none" stroke-width="1"/><g stroke="none" stroke-width="1"><path d="M364.99926,162.17049c0,-7.93299 6.43095,-14.36394 14.36394,-14.36394c7.93298,0 14.36393,6.43095 14.36393,14.36394c0,7.93299 -6.43095,14.36393 -14.36393,14.36393c-7.93298,0 -14.36394,-6.43095 -14.36394,-14.36393z" fill="#4d4d4d"/><g fill="#ff0000"><path d="M385.87974,153.83886v1.9827h-13.03309v-1.98274c0,-0.34858 0.24721,-0.63117 0.55222,-0.63117h3.79006v-0.81885c0,-0.11629 0.08256,-0.21061 0.18423,-0.21061h3.98006c0.10179,0 0.18424,0.09433 0.18424,0.21061v0.8189h3.79008c0.30502,0 0.5522,0.28258 0.5522,0.63116z"/><path d="M373.66293,157.04455h11.14731l-0.58667,14.15448c-0.01974,0.53859 -0.40769,0.96376 -0.87932,0.96376h-8.21539c-0.47166,0 -0.8595,-0.42517 -0.87923,-0.96376zM381.09498,168.647c0,0.2257 0.16013,0.40856 0.35748,0.40856h0.57169c0.19747,0 0.35748,-0.18286 0.35748,-0.40856v-8.08673c0,-0.22559 -0.16013,-0.40846 -0.35748,-0.40846h-0.57169c-0.19747,0 -0.35748,0.18292 -0.35748,0.40846zM378.59328,168.647c0,0.2257 0.16013,0.40856 0.35748,0.40856h0.57168c0.19747,0 0.35735,-0.18286 0.35735,-0.40856v-8.08673c0,-0.22559 -0.16,-0.40846 -0.35735,-0.40846h-0.57168c-0.19747,0 -0.35748,0.18292 -0.35748,0.40846zM376.09154,168.647c0,0.2257 0.16005,0.40856 0.3574,0.40856h0.5718c0.19735,0 0.35735,-0.18286 0.35735,-0.40856v-8.08673c0,-0.22559 -0.16,-0.40846 -0.35735,-0.40846h-0.5718c-0.19738,0 -0.3574,0.18292 -0.3574,0.40846z"/></g></g></g></g></svg>