<svg version="1.1" xmlns="http://www.w3.org/2000/svg" xmlns:xlink="http://www.w3.org/1999/xlink" width="87.62291" height="34.25" viewBox="0,0,87.62291,34.25"><g transform="translate(-196.18854,-162.875)"><g data-paper-data="{&quot;isPaintingLayer&quot;:true}" fill-rule="nonzero" stroke="none" stroke-width="1" stroke-linecap="butt" stroke-linejoin="miter" stroke-miterlimit="10" stroke-dasharray="" stroke-dashoffset="0" style="mix-blend-mode: normal"><path d="M283.81146,166.69488v26.61022c0,2.10962 -1.62055,3.8199 -3.61954,3.8199h-80.38382c-1.99904,0 -3.61955,-1.71028 -3.61955,-3.8199v-26.61022c0,-2.10966 1.62052,-3.81988 3.61955,-3.81988h80.38382c1.99899,0 3.61954,1.71021 3.61954,3.81988z" fill="#7ce647"/><path d="M221.23985,173.59835c-0.22278,0 -0.43493,-0.04244 -0.63648,-0.1273c-0.19625,-0.09016 -0.36862,-0.20686 -0.51714,-0.35006c-0.14851,-0.14851 -0.2652,-0.32088 -0.35006,-0.51714c-0.08486,-0.20155 -0.1273,-0.41371 -0.1273,-0.63648v-3.26193c0,-0.22277 0.04244,-0.43227 0.1273,-0.62853c0.08486,-0.20155 0.20155,-0.37393 0.35006,-0.51714c0.14851,-0.14851 0.32088,-0.2652 0.51714,-0.35006c0.20155,-0.09016 0.4137,-0.13525 0.63648,-0.13525h5.53734c0.22277,0 0.43227,0.04509 0.62851,0.13525c0.20155,0.08486 0.37658,0.20155 0.5251,0.35006c0.14851,0.14321 0.26519,0.31558 0.35005,0.51714c0.08486,0.19625 0.1273,0.40576 0.1273,0.62853v1.47185h-1.63096v-1.47185h-5.53734v3.26193h5.53734c0.22277,0 0.43227,0.04244 0.62851,0.1273c0.20155,0.08486 0.37658,0.20155 0.5251,0.35006c0.14851,0.14851 0.26519,0.32354 0.35005,0.52509c0.08486,0.19625 0.1273,0.40576 0.1273,0.62853v3.25394c0,0.22278 -0.04244,0.4349 -0.1273,0.63649c-0.08486,0.19627 -0.20154,0.36868 -0.35005,0.51711c-0.14853,0.14857 -0.32355,0.26529 -0.5251,0.35017c-0.19624,0.08488 -0.40575,0.12724 -0.62851,0.12724h-5.69647c-0.22277,0 -0.43493,-0.04236 -0.63647,-0.12724c-0.19625,-0.08488 -0.36862,-0.2016 -0.51715,-0.35017c-0.14851,-0.14842 -0.26519,-0.32084 -0.35005,-0.51711c-0.08486,-0.2016 -0.1273,-0.41371 -0.1273,-0.63649v-1.46392h1.63096v1.46392h5.69647v-3.25394zM230.6995,170.01022h2.06857v-2.60955h1.56731v2.60955h2.78446v1.56731h-2.78446v5.33845h2.78446v1.56731h-2.78446c-0.21226,0 -0.41371,-0.03985 -0.60465,-0.11939c-0.19093,-0.08488 -0.35802,-0.19627 -0.50126,-0.33417c-0.14324,-0.14309 -0.25729,-0.31017 -0.34217,-0.50111c-0.07954,-0.19093 -0.11924,-0.3952 -0.11924,-0.61265v-5.33845h-2.06857zM239.73737,174.78372c0,-0.21745 0.03985,-0.4189 0.11939,-0.60465c0.08488,-0.19089 0.19627,-0.35796 0.33417,-0.50117c0.14324,-0.14321 0.31032,-0.2546 0.50126,-0.33416c0.19093,-0.08486 0.39238,-0.12728 0.60465,-0.12728h4.0416v-1.63893h-5.11566v-1.56731h5.11566c0.21745,0 0.42171,0.04242 0.61265,0.12728c0.19093,0.07956 0.35535,0.19095 0.49326,0.33416c0.14309,0.1379 0.25448,0.30232 0.33417,0.49327c0.08473,0.19093 0.12724,0.39514 0.12724,0.6126v6.90577h-1.56731v-1.43208c-0.016,0.19627 -0.06903,0.38187 -0.15909,0.55695c-0.09021,0.17494 -0.20693,0.32884 -0.35017,0.46141c-0.1379,0.12724 -0.29699,0.22811 -0.47726,0.30232c-0.18042,0.07421 -0.37135,0.11139 -0.5728,0.11139h-2.48229c-0.21226,0 -0.41371,-0.03985 -0.60465,-0.11939c-0.19093,-0.08488 -0.35802,-0.19627 -0.50126,-0.33417c-0.1379,-0.14309 -0.2493,-0.31017 -0.33417,-0.50111c-0.07954,-0.19093 -0.11939,-0.3952 -0.11939,-0.61265zM241.29684,176.916h4.0416v-2.13226h-4.0416zM251.08259,171.57753v6.90577h-1.55932c0,0 0,-2.92922 0,-4.36164c0,-1.39072 0,-4.11144 0,-4.11144h1.55932v1.49571c0.01067,-0.20686 0.05836,-0.40044 0.14324,-0.58078c0.08488,-0.18563 0.19627,-0.34476 0.33417,-0.47735c0.14324,-0.1379 0.30766,-0.24399 0.49326,-0.31825c0.1856,-0.07956 0.38453,-0.11933 0.59665,-0.11933h1.66286c0.21745,0 0.41905,0.04242 0.60465,0.12728c0.19093,0.07956 0.35802,0.19095 0.50126,0.33416c0.14309,0.1379 0.25448,0.30232 0.33417,0.49327c0.08473,0.19093 0.12724,0.39514 0.12724,0.6126v1.43208h-1.56731v-1.43208zM257.336,170.01022h2.06857v-2.60955h1.56731v2.60955h2.78461v1.56731h-2.78461v5.33845h2.78461v1.56731h-2.78461c-0.21212,0 -0.41371,-0.03985 -0.60465,-0.11939c-0.19093,-0.08488 -0.35802,-0.19627 -0.50126,-0.33417c-0.14324,-0.14309 -0.25729,-0.31017 -0.34217,-0.50111c-0.07954,-0.19093 -0.11924,-0.3952 -0.11924,-0.61265v-5.33845h-2.06857zM208.52617,192.92553l-3.26187,-11.40884h1.63101l2.52998,9.07779l2.52198,-9.07779h1.63101l2.52198,9.07779l2.52998,-9.07779h1.63101l-3.26187,11.40884h-1.7901l-2.44259,-8.55266l-2.45044,8.55266zM228.89341,191.35823c0,0.21745 -0.04236,0.42171 -0.12724,0.61265c-0.07954,0.19093 -0.19093,0.35802 -0.33417,0.50111c-0.1379,0.1379 -0.30232,0.2493 -0.49326,0.33417c-0.1856,0.07954 -0.3872,0.11939 -0.60465,0.11939h-4.20869c-0.21212,0 -0.41371,-0.03985 -0.60465,-0.11939c-0.19093,-0.08488 -0.35802,-0.19627 -0.50126,-0.33417c-0.1379,-0.14309 -0.2493,-0.31017 -0.33417,-0.50111c-0.07954,-0.19093 -0.11924,-0.3952 -0.11924,-0.61265v-5.33845c0,-0.21746 0.0397,-0.42167 0.11924,-0.6126c0.08488,-0.19095 0.19627,-0.35537 0.33417,-0.49327c0.14324,-0.14321 0.31032,-0.2546 0.50126,-0.33416c0.19093,-0.08486 0.39253,-0.12728 0.60465,-0.12728h4.20869c0.21745,0 0.41905,0.04242 0.60465,0.12728c0.19093,0.07956 0.35535,0.19095 0.49326,0.33416c0.14324,0.1379 0.25463,0.30232 0.33417,0.49327c0.08488,0.19093 0.12724,0.39514 0.12724,0.6126zM223.12541,186.01976v5.33845h4.20869v-5.33845zM233.0704,186.01976v6.90577h-1.55946v-8.47308h1.55946v1.49571c0.01052,-0.20686 0.05821,-0.40044 0.14309,-0.58078c0.08488,-0.18563 0.19627,-0.34476 0.33417,-0.47735c0.14324,-0.1379 0.30766,-0.24399 0.49326,-0.31825c0.18575,-0.07956 0.38453,-0.11933 0.5968,-0.11933h1.66271c0.21745,0 0.41905,0.04242 0.60465,0.12728c0.19093,0.07956 0.35802,0.19095 0.50126,0.33416c0.14324,0.1379 0.25463,0.30232 0.33417,0.49327c0.08488,0.19093 0.12724,0.39514 0.12724,0.6126v1.43208h-1.56731v-1.43208zM245.41798,192.92553l-4.0416,-3.61989v3.61989h-1.55946v-11.73503h1.55946v6.60343l3.71543,-3.34149h2.20381l-4.55086,4.08931l4.87703,4.38377zM256.08686,191.35823c0,0.21745 -0.04236,0.42171 -0.12724,0.61265c-0.07954,0.19093 -0.19093,0.35802 -0.33417,0.50111c-0.1379,0.1379 -0.30232,0.2493 -0.49326,0.33417c-0.1856,0.07954 -0.3872,0.11939 -0.60465,0.11939h-4.20869c-0.21212,0 -0.41371,-0.03985 -0.60465,-0.11939c-0.19093,-0.08488 -0.35802,-0.19627 -0.50126,-0.33417c-0.1379,-0.14309 -0.2493,-0.31017 -0.33417,-0.50111c-0.07954,-0.19093 -0.11924,-0.3952 -0.11924,-0.61265v-5.33845c0,-0.21746 0.0397,-0.42167 0.11924,-0.6126c0.08488,-0.19095 0.19627,-0.35537 0.33417,-0.49327c0.14324,-0.14321 0.31032,-0.2546 0.50126,-0.33416c0.19093,-0.08486 0.39253,-0.12728 0.60465,-0.12728h4.20869c0.21745,0 0.41905,0.04242 0.60465,0.12728c0.19093,0.07956 0.35535,0.19095 0.49326,0.33416c0.14324,0.1379 0.25463,0.30232 0.33417,0.49327c0.08488,0.19093 0.12724,0.39514 0.12724,0.6126zM250.31886,186.01976v5.33845h4.20869v-5.33845zM258.70439,184.45244h1.55946v6.90577h4.36777v-6.90577h1.56731v8.47308h-1.56731v-1.43208c-0.016,0.19627 -0.06903,0.38187 -0.15909,0.55695c-0.09021,0.17494 -0.20693,0.32884 -0.35017,0.46141c-0.1379,0.12724 -0.29699,0.22811 -0.47726,0.30232c-0.18042,0.07421 -0.37135,0.11139 -0.5728,0.11139h-2.80846c-0.21226,0 -0.41371,-0.03985 -0.60465,-0.11939c-0.19093,-0.08488 -0.35802,-0.19627 -0.50126,-0.33417c-0.1379,-0.14309 -0.2493,-0.31017 -0.33417,-0.50111c-0.07954,-0.19093 -0.11939,-0.3952 -0.11939,-0.61265zM268.31521,184.45244h2.06857v-2.60955h1.56731v2.60955h2.78461v1.56731h-2.78461v5.33845h2.78461v1.56731h-2.78461c-0.21212,0 -0.41371,-0.03985 -0.60465,-0.11939c-0.19093,-0.08488 -0.35802,-0.19627 -0.50126,-0.33417c-0.14324,-0.14309 -0.25729,-0.31017 -0.34202,-0.50111c-0.07969,-0.19093 -0.11939,-0.3952 -0.11939,-0.61265v-5.33845h-2.06857z" fill="#ffffff"/></g></g></svg>