<svg version="1.1" xmlns="http://www.w3.org/2000/svg" xmlns:xlink="http://www.w3.org/1999/xlink" width="222.15772" height="44.8026" viewBox="0,0,222.15772,44.8026"><g transform="translate(-102.71415,-191.33856)"><g data-paper-data="{&quot;isPaintingLayer&quot;:true}" fill-rule="nonzero" stroke="none" stroke-width="1" stroke-linecap="butt" stroke-linejoin="miter" stroke-miterlimit="10" stroke-dasharray="" stroke-dashoffset="0" style="mix-blend-mode: normal"><path d="M133.08914,191.33856h191.78273v44.8026h-222.15772z" fill="#ff914d"/><path d="M136.45392,199.53842h16.28128v3.19398h-13.0875v6.3879h11.17114v3.19396h-11.17114v9.56636h-3.19377zM159.94891,208.35688v13.52375h-3.05363v-16.59308h3.05363v2.92911c0.02075,-0.4051 0.11434,-0.78422 0.28053,-1.13737c0.16619,-0.36354 0.38423,-0.67514 0.65439,-0.93482c0.28027,-0.27005 0.60227,-0.47781 0.96577,-0.62323c0.36375,-0.15579 0.75304,-0.23371 1.16865,-0.23371h3.25625c0.42597,0 0.82058,0.08309 1.18408,0.24928c0.37386,0.15582 0.70118,0.37395 0.98171,0.65439c0.28027,0.27005 0.49858,0.59203 0.65439,0.96598c0.16619,0.37391 0.24916,0.77381 0.24916,1.19967v2.80446h-3.06933v-2.80446zM187.1987,215.14989h-10.98395v3.66141h10.98395v3.06933h-10.98395c-0.41561,0 -0.81021,-0.07791 -1.18407,-0.23373c-0.37413,-0.16619 -0.70118,-0.38422 -0.98171,-0.65438c-0.26989,-0.28053 -0.4882,-0.6076 -0.65439,-0.98146c-0.15582,-0.37413 -0.23373,-0.77404 -0.23373,-1.19976v-10.45443c0,-0.42587 0.07791,-0.82576 0.23373,-1.19967c0.16619,-0.37394 0.3845,-0.69593 0.65439,-0.96598c0.28053,-0.28045 0.60759,-0.49857 0.98171,-0.65438c0.37386,-0.16619 0.76846,-0.24928 1.18407,-0.24928h7.91461c0.42597,0 0.8259,0.08309 1.19976,0.24928c0.37386,0.15582 0.69586,0.37394 0.96603,0.65438c0.28053,0.27005 0.49858,0.59204 0.65439,0.96598c0.16619,0.37391 0.24916,0.77381 0.24916,1.19967zM176.21476,208.35688v3.72369h7.91461v-3.72369zM206.36264,215.14989h-10.98422v3.66141h10.98422v3.06933h-10.98422c-0.41533,0 -0.81021,-0.07791 -1.18408,-0.23373c-0.37386,-0.16619 -0.70118,-0.38422 -0.98145,-0.65438c-0.27016,-0.28053 -0.4882,-0.6076 -0.65439,-0.98146c-0.15582,-0.37413 -0.23373,-0.77404 -0.23373,-1.19976v-10.45443c0,-0.42587 0.07791,-0.82576 0.23373,-1.19967c0.16619,-0.37394 0.38423,-0.69593 0.65439,-0.96598c0.28027,-0.28045 0.60759,-0.49857 0.98145,-0.65438c0.37386,-0.16619 0.76873,-0.24928 1.18408,-0.24928h7.91488c0.42571,0 0.82563,0.08309 1.19976,0.24928c0.37386,0.15582 0.69586,0.37394 0.96577,0.65438c0.28053,0.27005 0.49858,0.59204 0.65439,0.96598c0.16619,0.37391 0.24941,0.77381 0.24941,1.19967zM195.37843,208.35688v3.72369h7.91488v-3.72369zM211.8001,221.88063v-22.34221h12.2305c3.61469,0 5.42204,1.81251 5.42204,5.43754v3.17837c0,3.625 -1.80735,5.43752 -5.42204,5.43752h-9.03646v8.28877zM214.99415,210.3979h8.86523c0.85169,0 1.46433,-0.18696 1.83846,-0.56089c0.37386,-0.37391 0.56079,-0.98674 0.56079,-1.83848v-2.86676c0,-0.85172 -0.18693,-1.46454 -0.56079,-1.83849c-0.37413,-0.37391 -0.98677,-0.56087 -1.83846,-0.56087h-8.86523zM236.66635,198.89965v22.98099h-3.0539v-22.98099zM241.77648,214.63574c0,-0.42587 0.07791,-0.82058 0.23373,-1.1841c0.16619,-0.37394 0.38449,-0.70113 0.65438,-0.98155c0.28053,-0.28045 0.6076,-0.49857 0.98172,-0.65438c0.37386,-0.16619 0.76846,-0.24929 1.18407,-0.24929h7.91462v-3.20953h-10.01792v-3.06933h10.01792c0.42597,0 0.8259,0.08309 1.19976,0.24928c0.37386,0.15582 0.69587,0.37395 0.96603,0.65439c0.28053,0.27005 0.49858,0.59203 0.65439,0.96598c0.16619,0.37391 0.24916,0.77381 0.24916,1.19967v13.52375h-3.06933v-2.80449c-0.03111,0.38422 -0.13481,0.74772 -0.31164,1.09047c-0.17656,0.34302 -0.40497,0.64402 -0.6855,0.90381c-0.26989,0.24916 -0.58152,0.44671 -0.93465,0.5919c-0.35312,0.14544 -0.72725,0.21831 -1.12186,0.21831h-4.86098c-0.41561,0 -0.81021,-0.07791 -1.18407,-0.23373c-0.37413,-0.16619 -0.70118,-0.38422 -0.98171,-0.65438c-0.26989,-0.28053 -0.4882,-0.6076 -0.65439,-0.98146c-0.15582,-0.37413 -0.23373,-0.77404 -0.23373,-1.19976zM244.83038,218.8113h7.91462v-4.17556h-7.91462zM262.06201,228.58007l3.47456,-8.19515l-6.51251,-15.09736h3.22514l4.8453,11.42037l4.84555,-11.42037h3.22514l-10.0493,23.29252z" fill="#ffffff"/></g></g></svg>