<svg version="1.1" xmlns="http://www.w3.org/2000/svg" xmlns:xlink="http://www.w3.org/1999/xlink" width="83.56954" height="92.24195" viewBox="0,0,83.56954,92.24195"><g transform="translate(-205.5,-136.25805)"><g data-paper-data="{&quot;isPaintingLayer&quot;:true}" fill="#a0a0a0" fill-rule="nonzero" stroke-linecap="butt" stroke-linejoin="miter" stroke-miterlimit="10" stroke-dasharray="" stroke-dashoffset="0" style="mix-blend-mode: normal"><path d="M223.74194,142.59436c0.26614,0.08284 0.50866,0.20116 0.72756,0.35486c0.21879,0.15381 0.40508,0.35197 0.55889,0.59449c0.15381,0.23664 0.27213,0.51753 0.35497,0.84289c0.08273,0.32525 0.1242,0.69795 0.1242,1.1179v0.63874c0,2.05837 -1.02919,3.08756 -3.08756,3.08756h-6.96467v-12.72275h6.60094c2.05827,0 3.08745,1.03214 3.08745,3.0964v0.23068c0,0.7157 -0.11533,1.30126 -0.34598,1.7567c-0.22477,0.44952 -0.57675,0.78374 -1.0558,1.00254zM217.23859,143.68565v3.76178h5.12818c0.47905,0 0.82514,-0.11233 1.03806,-0.33711c0.21291,-0.22477 0.31937,-0.57664 0.31937,-1.0558v-0.98483c0,-0.48493 -0.10645,-0.8369 -0.31937,-1.0558c-0.21291,-0.21879 -0.559,-0.32824 -1.03806,-0.32824zM217.23859,138.29136v3.6199h4.88866c0.43769,-0.01774 0.75119,-0.13606 0.94037,-0.35494c0.19528,-0.22476 0.29286,-0.56782 0.29286,-1.02918v-0.83399c0,-0.48502 -0.10645,-0.8399 -0.31948,-1.06466c-0.21291,-0.22477 -0.5589,-0.33715 -1.03795,-0.33715zM228.05386,139.78189h1.7389v7.70103h4.87092v-7.70103h1.74777v9.4489h-1.74777v-1.59695c-0.01774,0.21879 -0.07696,0.42582 -0.17743,0.62099c-0.10058,0.19517 -0.23077,0.36672 -0.39045,0.51465c-0.15381,0.14194 -0.33123,0.25428 -0.53228,0.33711c-0.20116,0.08284 -0.41407,0.1242 -0.63885,0.1242h-3.13191c-0.23653,0 -0.46131,-0.04435 -0.67422,-0.13307c-0.21291,-0.0947 -0.39932,-0.2189 -0.559,-0.3726c-0.1537,-0.15979 -0.278,-0.34608 -0.3726,-0.559c-0.08872,-0.21291 -0.13307,-0.44069 -0.13307,-0.6832zM241.06047,141.52971v7.70108h-1.7389v-9.4489h1.7389v1.66797c0.01187,-0.23068 0.06509,-0.44656 0.15969,-0.64766c0.0947,-0.20702 0.2189,-0.38446 0.3727,-0.53234c0.15968,-0.15378 0.34299,-0.27208 0.55002,-0.35488c0.20704,-0.08872 0.42882,-0.13309 0.66546,-0.13309h1.85423c0.24252,0 0.46729,0.04732 0.67433,0.14196c0.21291,0.08872 0.39921,0.21294 0.559,0.37263c0.15968,0.15378 0.28388,0.33714 0.3726,0.55008c0.0946,0.21293 0.14194,0.44065 0.14194,0.68316v1.59704h-1.74787v-1.59704zM256.94172,149.23079h-1.74777v-7.70108h-4.87092v7.70108h-1.7389v-9.4489h1.7389v1.66797c0.01187,-0.23068 0.06509,-0.44656 0.15979,-0.64766c0.0946,-0.20702 0.21879,-0.38446 0.3726,-0.53234c0.15968,-0.15378 0.3431,-0.27208 0.55003,-0.35488c0.20704,-0.08872 0.42882,-0.13309 0.66546,-0.13309h3.12304c0.24252,0 0.47018,0.04732 0.6831,0.14196c0.21302,0.08872 0.39632,0.21294 0.55013,0.37263c0.15968,0.15378 0.28388,0.33714 0.3726,0.55008c0.0947,0.21293 0.14194,0.44065 0.14194,0.68316zM268.02313,147.48292c0,0.24252 -0.04734,0.47029 -0.14194,0.6832c-0.08872,0.21291 -0.21291,0.3992 -0.3726,0.559c-0.15381,0.1537 -0.33722,0.2779 -0.55014,0.3726c-0.20704,0.08872 -0.43181,0.13307 -0.67422,0.13307h-4.69349c-0.23653,0 -0.46131,-0.04435 -0.67423,-0.13307c-0.21291,-0.0947 -0.39932,-0.2189 -0.559,-0.3726c-0.1537,-0.15979 -0.278,-0.34608 -0.3726,-0.559c-0.08872,-0.21291 -0.13307,-0.44069 -0.13307,-0.6832v-5.95321c0,-0.24251 0.04436,-0.47022 0.13307,-0.68316c0.0946,-0.21293 0.2189,-0.39629 0.3726,-0.55008c0.15968,-0.15969 0.34608,-0.28391 0.559,-0.37263c0.21291,-0.09464 0.4377,-0.14196 0.67423,-0.14196h4.69349c0.24241,0 0.46719,0.04732 0.67422,0.14196c0.21291,0.08872 0.39633,0.21294 0.55014,0.37263c0.15968,0.15378 0.28388,0.33714 0.3726,0.55008c0.0946,0.21293 0.14194,0.44065 0.14194,0.68316zM261.59075,141.52971v5.95321h4.69349v-5.95321zM270.94213,139.78189h1.7389v7.70103h4.87081v-7.70103h1.74787v9.4489h-1.74787v-1.59695c-0.01774,0.21879 -0.07685,0.42582 -0.17743,0.62099c-0.10047,0.19517 -0.23066,0.36672 -0.39034,0.51465c-0.15381,0.14194 -0.33123,0.25428 -0.53239,0.33711c-0.20105,0.08284 -0.41396,0.1242 -0.63874,0.1242h-3.13191c-0.23653,0 -0.46131,-0.04435 -0.67423,-0.13307c-0.21302,-0.0947 -0.39932,-0.2189 -0.559,-0.3726c-0.15381,-0.15979 -0.278,-0.34608 -0.3726,-0.559c-0.08872,-0.21291 -0.13307,-0.44069 -0.13307,-0.6832zM281.65971,139.78189h2.30677v-2.91009h1.74787v2.91009h3.10519v1.74782h-3.10519v5.95321h3.10519v1.74787h-3.10519c-0.23664,0 -0.46142,-0.04435 -0.67433,-0.13307c-0.21291,-0.0947 -0.39921,-0.2189 -0.55889,-0.3726c-0.15979,-0.15979 -0.28688,-0.34608 -0.38158,-0.559c-0.08872,-0.21291 -0.13307,-0.44069 -0.13307,-0.6832v-5.95321h-2.30677z" stroke="#a0a0a0" stroke-width="0.5"/><g stroke="none" stroke-width="1"><path d="M244.068,207.4487l5.2429,-5.1074c2.4067,2.3528 3.4638,10.2454 3.4638,13.582c0,6.93 -5.802,12.5767 -12.8933,12.5767c-7.0913,0 -12.8933,-5.6467 -12.8933,-12.5767c0,-3.3366 1.3323,-6.4594 3.7391,-8.855l9.1542,-8.9405z"/><path d="M263.4496,185.4634c0.9764,0 1.8574,-2.1179 2.9596,-4.487c1.7081,-3.6714 0,-10.0857 0,-11.3489c0,-1.0714 5.0389,7.9025 7.2534,17.7891c1.4723,6.5735 0.695,13.9199 0,17.6412c-1.8051,9.5822 -7.822,17.7528 -15.9448,22.6723c2.3208,-3.3795 3.6531,-7.4006 3.6531,-11.7639c0,-5.6895 -7.9771,-19.3038 -12.06,-23.2821l-2.6682,5.8715l-6.7606,-12.4056l-15.1711,14.8011c-4.0829,4.0212 -6.3177,9.3256 -6.3177,14.9723c0,4.4489 1.4183,8.5983 3.825,11.9778c-10.0138,-5.9461 -16.7183,-16.8545 -16.7183,-29.3456c0,-8.1111 6.419,-23.4775 6.419,-23.4775c0,0 1.0429,2.9929 2.5221,4.2228c1.2875,1.0705 3.9522,1.6755 3.9522,1.6755c0,0 2.1218,-9.6041 6.3177,-15.3597c4.196,-5.7557 15.1711,-14.1167 15.1711,-14.1167v14.1167c0,8.085 4.9796,12.0291 10.0509,5.7408l2.6647,-8.2407c0,0 10.8519,10.8801 10.8519,22.3466z"/></g></g></g></svg>