<svg version="1.1" xmlns="http://www.w3.org/2000/svg" xmlns:xlink="http://www.w3.org/1999/xlink" width="50.25" height="15.25" viewBox="0,0,50.25,15.25"><g transform="translate(-214.78708,-172.55835)"><g data-paper-data="{&quot;isPaintingLayer&quot;:true}" fill-rule="nonzero" stroke-linecap="butt" stroke-linejoin="miter" stroke-miterlimit="10" stroke-dasharray="" stroke-dashoffset="0" style="mix-blend-mode: normal"><path d="M214.78708,187.80835v-15.25h50.25v15.25z" fill="#2cb1df" stroke="#898989" stroke-width="0"/><path d="M225.09668,178.75195c0.19043,0.05925 0.36393,0.14388 0.52051,0.25391c0.15657,0.11003 0.28987,0.25179 0.3999,0.42529c0.11003,0.16927 0.19466,0.37028 0.25391,0.60303c0.05924,0.23275 0.08886,0.49935 0.08886,0.7998v0.45704c0,1.47265 -0.73632,2.20898 -2.20898,2.20898h-4.98291v-9.10254h4.72265c1.47266,0 2.20899,0.73844 2.20899,2.21533v0.16504c0,0.51205 -0.08252,0.93099 -0.24756,1.25684c-0.16081,0.32161 -0.4126,0.56071 -0.75537,0.71728zM220.44385,179.53271v2.69141h3.66894c0.34278,0 0.59033,-0.0804 0.74268,-0.24121c0.15234,-0.16081 0.22851,-0.4126 0.22851,-0.75537v-0.70459c0,-0.34701 -0.07617,-0.5988 -0.22851,-0.75537c-0.15235,-0.15658 -0.3999,-0.23487 -0.74268,-0.23487zM220.44385,175.67334v2.58984h3.49756c0.31315,-0.01269 0.53743,-0.09733 0.67285,-0.2539c0.13965,-0.16081 0.20947,-0.40625 0.20947,-0.73633v-0.59668c0,-0.34701 -0.07617,-0.60091 -0.22852,-0.76172c-0.15234,-0.16081 -0.3999,-0.24121 -0.74267,-0.24121zM229.4956,176.73975v6.76025h-1.25048v-6.76025zM228.18164,174.13721h1.37746v1.30127h-1.37746zM232.8916,177.99023v4.25928h3.2246v-1.14258h1.2505v1.14258c0,0.1735 -0.0339,0.33643 -0.1016,0.48877c-0.0634,0.15234 -0.1523,0.28565 -0.2666,0.3999c-0.11,0.11003 -0.2412,0.1989 -0.3935,0.26661c-0.1524,0.06347 -0.3153,0.09521 -0.4888,0.09521h-3.2246c-0.1693,0 -0.3301,-0.03174 -0.4824,-0.09521c-0.1524,-0.06771 -0.2857,-0.15658 -0.3999,-0.26661c-0.11,-0.11425 -0.1989,-0.24756 -0.2666,-0.3999c-0.0635,-0.15234 -0.0952,-0.31527 -0.0952,-0.48877v-4.25928c0,-0.1735 0.0317,-0.33642 0.0952,-0.48877c0.0677,-0.15234 0.1566,-0.28352 0.2666,-0.39355c0.1142,-0.11426 0.2475,-0.20312 0.3999,-0.2666c0.1523,-0.06771 0.3131,-0.10156 0.4824,-0.10156h3.2246c0.1735,0 0.3364,0.03385 0.4888,0.10156c0.1523,0.06348 0.2835,0.15234 0.3935,0.2666c0.1143,0.11003 0.2032,0.24121 0.2666,0.39355c0.0677,0.15235 0.1016,0.31527 0.1016,0.48877v1.14258h-1.2505v-1.14258zM245.1743,180.75781h-4.4751v1.4917h4.4751v1.25049h-4.4751c-0.1693,0 -0.3301,-0.03174 -0.4824,-0.09521c-0.1523,-0.06771 -0.2856,-0.15658 -0.3999,-0.26661c-0.11,-0.11425 -0.1989,-0.24756 -0.2666,-0.3999c-0.0635,-0.15234 -0.0952,-0.31527 -0.0952,-0.48877v-4.25928c0,-0.1735 0.0317,-0.33642 0.0952,-0.48877c0.0677,-0.15234 0.1566,-0.28352 0.2666,-0.39355c0.1143,-0.11426 0.2476,-0.20312 0.3999,-0.2666c0.1523,-0.06771 0.3131,-0.10156 0.4824,-0.10156h3.2246c0.1735,0 0.3365,0.03385 0.4888,0.10156c0.1523,0.06348 0.2835,0.15234 0.3936,0.2666c0.1142,0.11003 0.2031,0.24121 0.2666,0.39355c0.0677,0.15235 0.1015,0.31527 0.1015,0.48877zM240.6992,177.99023v1.51709h3.2246v-1.51709zM253.2422,182.24951c0,0.1735 -0.0339,0.33643 -0.1016,0.48877c-0.0635,0.15234 -0.1523,0.28565 -0.2666,0.3999c-0.11,0.11003 -0.2412,0.1989 -0.3935,0.26661c-0.1524,0.06347 -0.3153,0.09521 -0.4888,0.09521h-3.4849v2.7295h-1.2441v-9.48975h1.2441v1.14257c0.0127,-0.1608 0.055,-0.30892 0.127,-0.44433c0.0719,-0.13965 0.1629,-0.26026 0.2729,-0.36182c0.1101,-0.10579 0.237,-0.18831 0.3809,-0.24756c0.1481,-0.05924 0.3047,-0.08886 0.4697,-0.08886h2.2344c0.1735,0 0.3364,0.03385 0.4888,0.10156c0.1523,0.06348 0.2835,0.15234 0.3935,0.2666c0.1143,0.11003 0.2031,0.24121 0.2666,0.39355c0.0677,0.15235 0.1016,0.31527 0.1016,0.48877zM251.9917,182.24951v-4.25928h-3.4849v4.25928zM259.4058,182.24951v-1.56787h-2.9644c-0.1735,0 -0.3364,-0.03174 -0.4888,-0.09521c-0.1523,-0.06771 -0.2856,-0.15658 -0.3999,-0.26661c-0.11,-0.11425 -0.1989,-0.24755 -0.2666,-0.3999c-0.0634,-0.15234 -0.0952,-0.31527 -0.0952,-0.48877v-1.44092c0,-0.1735 0.0318,-0.33642 0.0952,-0.48877c0.0677,-0.15234 0.1566,-0.28352 0.2666,-0.39355c0.1143,-0.11426 0.2476,-0.20312 0.3999,-0.2666c0.1524,-0.06771 0.3153,-0.10156 0.4888,-0.10156h3.9546v1.25048h-3.9546v1.44092h2.9644c0.1735,0 0.3343,0.03386 0.4824,0.10156c0.1523,0.06348 0.2856,0.15235 0.3999,0.26661c0.1142,0.11002 0.2031,0.24121 0.2666,0.39355c0.0677,0.15234 0.1015,0.31527 0.1015,0.48877v1.56787c0,0.1735 -0.0338,0.33643 -0.1015,0.48877c-0.0635,0.15234 -0.1524,0.28565 -0.2666,0.3999c-0.1143,0.11003 -0.2476,0.1989 -0.3999,0.26661c-0.1481,0.06347 -0.3089,0.09521 -0.4824,0.09521h-4.2149v-1.25049z" fill="#ffffff" stroke="none" stroke-width="1"/></g></g></svg>