<svg version="1.1" xmlns="http://www.w3.org/2000/svg" xmlns:xlink="http://www.w3.org/1999/xlink" width="286.26666" height="166.32127" viewBox="0,0,286.26666,166.32127"><g transform="translate(-96.86667,-103.88749)"><g data-paper-data="{&quot;isPaintingLayer&quot;:true}" fill-rule="nonzero" stroke-linecap="butt" stroke-linejoin="miter" stroke-miterlimit="10" stroke-dasharray="" stroke-dashoffset="0" style="mix-blend-mode: normal"><g fill="#ee811f" stroke-width="0"><path d="M151,152v-12h104v12z" stroke="#ffc85e"/><path d="M123.03334,180.68726c0,-17.48294 0,-61.24675 0,-70.38176c0,-3.27129 1.34398,-6.30549 3.41667,-6.30549c5.96328,0 17.95852,0 21.33333,0c1.73045,0 3.58333,2.20705 3.58333,4.75133c0,8.48594 0,55.95996 0,73.04605c0,3.82566 -2.06427,6.3499 -4.25,6.3499c-3.2308,0 -12.77334,0.12432 -18.83179,0.05853c-3.07436,-0.03338 -5.25154,-3.03555 -5.25154,-7.51856z" stroke="none"/><path d="M253.03335,180.57474c0,-17.48293 0,-61.24675 0,-70.38176c0,-3.27129 1.34398,-6.30549 3.41667,-6.30549c5.96328,0 17.95852,0 21.33333,0c1.73045,0 3.58333,2.20705 3.58333,4.75133c0,8.48594 0,55.95996 0,73.04605c0,3.82566 -2.06427,6.34991 -4.25,6.34991c-3.2308,0 -12.77334,0.12431 -18.83179,0.05854c-3.07436,-0.03339 -5.25154,-3.03554 -5.25154,-7.51855z" stroke="none"/><path d="M108.86667,173.06666c0,-13.12388 0,-45.97597 0,-52.83333c0,-2.45565 1.34398,-4.73333 3.41667,-4.73333c5.96328,0 17.95852,0 21.33333,0c1.73045,0 3.58333,1.65676 3.58333,3.56667c0,6.37012 0,42.00735 0,54.83333c0,2.8718 -2.06427,4.76667 -4.25,4.76667c-3.2308,0 -12.77334,0.09332 -18.83179,0.04394c-3.07436,-0.02506 -5.25154,-2.27869 -5.25154,-5.64394z" stroke="none"/><path d="M267.2,171.81666c0,-13.12388 0,-45.97597 0,-52.83333c0,-2.45565 1.34398,-4.73333 3.41667,-4.73333c5.96328,0 17.95852,0 21.33333,0c1.73045,0 3.58333,1.65676 3.58333,3.56667c0,6.37012 0,42.00735 0,54.83333c0,2.8718 -2.06427,4.76667 -4.25,4.76667c-3.2308,0 -12.77334,0.09332 -18.83179,0.04394c-3.07436,-0.02506 -5.25154,-2.27869 -5.25154,-5.64394z" stroke="none"/></g><g fill="#ff9b40" stroke-width="0"><path d="M212.33334,216v-24h104v24z" stroke="#ffc85e"/><path d="M174.36669,230.06666c0,-13.12388 0,-45.97597 0,-52.83333c0,-2.45565 1.34398,-4.73333 3.41667,-4.73333c5.96328,0 17.95852,0 21.33333,0c1.73045,0 3.58333,1.65676 3.58333,3.56667c0,6.37012 0,42.00735 0,54.83333c0,2.8718 -2.06427,4.76667 -4.25,4.76667c-3.2308,0 -12.77334,0.09332 -18.83179,0.04394c-3.07436,-0.02506 -5.25154,-2.27869 -5.25154,-5.64394z" stroke="none"/><path d="M327.36668,230.06667c0,-13.12389 0,-45.97597 0,-52.83334c0,-2.45565 1.34398,-4.73333 3.41666,-4.73333c5.96328,0 17.95852,0 21.33334,0c1.73045,0 3.58334,1.65676 3.58334,3.56667c0,6.37012 0,42.00735 0,54.83334c0,2.8718 -2.06427,4.76666 -4.25,4.76666c-3.2308,0 -12.77334,0.09333 -18.83179,0.04395c-3.07435,-0.02506 -5.25154,-2.27869 -5.25154,-5.64395z" stroke="none"/></g><g fill="#ffae4e" stroke="none" stroke-width="1"><path d="M110.99453,263.56013c1.68949,0 2.98897,-0.45485 3.89844,-1.36457c0.9097,-0.9097 1.36457,-2.21137 1.36457,-3.90014v-7.61882c0,-0.82745 -0.11807,-1.56538 -0.35444,-2.21621c-0.23615,-0.6484 -0.58479,-1.19762 -1.04544,-1.64763c-0.44906,-0.45969 -0.99827,-0.80809 -1.64813,-1.04519c-0.64962,-0.2371 -1.38803,-0.35324 -2.215,-0.35324h-9.28558v18.14582zM98.07639,267.19171v-25.41139h12.91812c1.35851,0 2.58131,0.21291 3.66811,0.63873c1.09867,0.41373 2.03208,1.0089 2.80002,1.78797c0.77954,0.76938 1.37617,1.70329 1.78967,2.80171c0.42534,1.09842 0.638,2.32024 0.638,3.66788v7.61882c0,1.34763 -0.21266,2.56944 -0.638,3.66788c-0.41348,1.09842 -1.01012,2.03959 -1.78967,2.81866c-0.76793,0.76697 -1.70135,1.36457 -2.80002,1.79039c-1.08682,0.41373 -2.30961,0.61937 -3.66811,0.61937zM125.36601,248.32007h3.47311v15.38039h9.72858v-15.38039h3.49101v18.87164h-3.49101v-3.18882c-0.03556,0.4355 -0.15364,0.84923 -0.35444,1.23876c-0.20082,0.38954 -0.46067,0.73309 -0.77979,1.02827c-0.30703,0.28308 -0.66147,0.50808 -1.0631,0.67261c-0.40162,0.16694 -0.82697,0.24921 -1.27601,0.24921h-6.25523c-0.47252,0 -0.92156,-0.08952 -1.34667,-0.26613c-0.42534,-0.18871 -0.79744,-0.43792 -1.11657,-0.74277c-0.30703,-0.31937 -0.55526,-0.69196 -0.74423,-1.11778c-0.1771,-0.42582 -0.26565,-0.88068 -0.26565,-1.36457zM162.82719,251.81132v15.38039h-3.49101v-15.38039h-7.9919v15.38039h-3.47335v-18.87164h3.47335v3.33157c0.02347,-0.46212 0.12992,-0.89278 0.31888,-1.2944c0.18896,-0.41373 0.4372,-0.76697 0.74423,-1.06213c0.31888,-0.30727 0.68519,-0.54438 1.09867,-0.7089c0.41348,-0.17904 0.85648,-0.26613 1.329,-0.26613h4.50113c0.46067,0 0.89786,0.0871 1.31135,0.26613c0.41348,0.16453 0.77954,0.40162 1.09867,0.7089c0.31888,0.29517 0.57292,0.6484 0.76188,1.06213c0.20082,0.40162 0.30727,0.83228 0.31911,1.2944c0.02347,-0.46212 0.12386,-0.89278 0.30121,-1.2944c0.18896,-0.41373 0.43695,-0.76697 0.74423,-1.06213c0.31888,-0.30727 0.68519,-0.54438 1.09867,-0.7089c0.41348,-0.17904 0.85648,-0.26613 1.329,-0.26613h4.50089c0.48438,0 0.93923,0.09437 1.36457,0.28308c0.42534,0.17662 0.79164,0.42582 1.09867,0.74519c0.31911,0.30485 0.56712,0.67261 0.74423,1.09842c0.1892,0.4234 0.28356,0.87826 0.28356,1.36457v15.38039h-3.49101v-15.38039zM196.81503,263.70046c0,0.48389 -0.09459,0.93874 -0.28356,1.36457c-0.1771,0.42582 -0.42534,0.79842 -0.74423,1.11778c-0.30727,0.30485 -0.67333,0.55406 -1.09867,0.74277c-0.42534,0.17662 -0.8802,0.26613 -1.36457,0.26613h-9.72858c-0.47252,0 -0.92132,-0.08952 -1.34667,-0.26613c-0.42534,-0.18871 -0.79744,-0.43792 -1.11632,-0.74277c-0.30727,-0.31937 -0.55526,-0.69196 -0.74423,-1.11778c-0.17734,-0.42582 -0.2659,-0.88068 -0.2659,-1.36457v-22.64598h3.47311v10.59716c0.02371,-0.46212 0.12992,-0.89278 0.31911,-1.2944c0.18896,-0.41373 0.43695,-0.76697 0.74423,-1.06213c0.31888,-0.30727 0.68519,-0.54438 1.09867,-0.7089c0.41348,-0.17904 0.85648,-0.26613 1.329,-0.26613h6.23757c0.48438,0 0.93923,0.09437 1.36457,0.28308c0.42534,0.17662 0.79141,0.42582 1.09867,0.74519c0.31888,0.30485 0.56712,0.67261 0.74423,1.09842c0.18896,0.4234 0.28356,0.87826 0.28356,1.36457zM183.59544,251.81132v11.88913h9.72858v-11.88913zM218.59364,259.53661h-12.49302v4.16385h12.49302v3.49125h-12.49302c-0.47252,0 -0.92156,-0.08952 -1.34667,-0.26613c-0.42534,-0.18871 -0.79744,-0.43792 -1.11657,-0.74277c-0.30703,-0.31937 -0.55526,-0.69196 -0.74423,-1.11778c-0.1771,-0.42582 -0.2659,-0.88068 -0.2659,-1.36457v-11.88913c0,-0.48631 0.08879,-0.94116 0.2659,-1.36457c0.18896,-0.42582 0.4372,-0.79357 0.74423,-1.09842c0.31911,-0.31937 0.69124,-0.56858 1.11657,-0.74519c0.4251,-0.18871 0.87414,-0.28308 1.34667,-0.28308h9.00202c0.48438,0 0.93923,0.09437 1.36457,0.28308c0.4251,0.17662 0.79141,0.42582 1.09867,0.74519c0.31888,0.30485 0.56688,0.67261 0.74423,1.09842c0.18896,0.4234 0.28356,0.87826 0.28356,1.36457zM206.1006,251.81132v4.23402h9.00202v-4.23402zM227.89687,241.05448v26.13723h-3.47335v-26.13723zM237.18244,241.05448v26.13723h-3.47335v-26.13723zM241.54154,268.99903l9.62237,-29.02604h3.50867l-9.79946,29.02604zM275.95496,253.93559c0.53155,0.16694 1.01593,0.40405 1.45312,0.7089c0.43695,0.30727 0.80907,0.70406 1.11632,1.18794c0.30679,0.47179 0.54389,1.0331 0.70842,1.68394c0.16694,0.65083 0.24921,1.3936 0.24921,2.23314v1.27505c0,4.11063 -2.05629,6.16716 -6.1674,6.16716h-13.91083v-25.41139h13.18427c4.11111,0 6.1657,2.06137 6.1657,6.18409v0.46212c0,1.42747 -0.22937,2.59848 -0.69026,3.50819c-0.4488,0.89762 -1.15166,1.56538 -2.10854,2.00087zM262.9657,256.11551v7.51478h10.24246c0.95688,0 1.64813,-0.22501 2.07322,-0.67261c0.42534,-0.45001 0.638,-1.15408 0.638,-2.10975v-1.967c0,-0.96777 -0.21266,-1.67184 -0.638,-2.10975c-0.4251,-0.4355 -1.11632,-0.65567 -2.07322,-0.65567zM262.9657,245.34173v7.23171h9.76414c0.87414,-0.0363 1.5003,-0.2734 1.87821,-0.7089c0.39001,-0.45001 0.58479,-1.13472 0.58479,-2.05652v-1.66699c0,-0.96777 -0.21266,-1.67667 -0.63777,-2.12427c-0.42534,-0.45001 -1.11657,-0.67503 -2.07346,-0.67503zM284.56769,258.95109c0,-0.48389 0.0871,-0.9339 0.26613,-1.34521c0.18871,-0.42582 0.4355,-0.79842 0.74277,-1.11778c0.31937,-0.31937 0.69196,-0.56615 1.11778,-0.74277c0.4234,-0.19114 0.87342,-0.2855 1.34521,-0.2855h9.00273v-3.64852h-11.39315v-3.49125h11.39315c0.48389,0 0.93874,0.09437 1.36457,0.28308c0.42582,0.17662 0.79116,0.42582 1.09842,0.74519c0.31937,0.30485 0.56615,0.67261 0.74519,1.09842c0.18871,0.4234 0.28308,0.87826 0.28308,1.36457v15.38039h-3.49125v-3.18882c-0.0363,0.4355 -0.15243,0.84923 -0.35324,1.23876c-0.20323,0.38954 -0.46212,0.73309 -0.78149,1.02827c-0.30727,0.28308 -0.66051,0.50808 -1.06213,0.67261c-0.40162,0.16694 -0.82745,0.24921 -1.27746,0.24921h-5.52843c-0.47179,0 -0.92181,-0.08952 -1.34521,-0.26613c-0.42582,-0.18871 -0.79842,-0.43792 -1.11778,-0.74277c-0.30727,-0.31937 -0.55406,-0.69196 -0.74277,-1.11778c-0.17904,-0.42582 -0.26613,-0.88068 -0.26613,-1.36457zM288.03959,263.70046h9.00273v-4.74937h-9.00273zM309.83633,251.81132v15.38039h-3.4719v-18.87164h3.4719v3.33157c0.02419,-0.46212 0.13065,-0.89278 0.31937,-1.2944c0.18871,-0.41373 0.43792,-0.76697 0.74519,-1.06213c0.31695,-0.30727 0.6847,-0.54438 1.09842,-0.7089c0.41373,-0.17904 0.85648,-0.26613 1.32827,-0.26613h3.70416c0.48389,0 0.93148,0.09437 1.34521,0.28308c0.42582,0.17662 0.79842,0.42582 1.11778,0.74519c0.31937,0.30485 0.56615,0.67261 0.74277,1.09842c0.19114,0.4234 0.2855,0.87826 0.2855,1.36457v3.18882h-3.49125v-3.18882zM341.55522,263.70046c0,0.48389 -0.09437,0.93874 -0.28308,1.36457c-0.17662,0.42582 -0.42582,0.79842 -0.74277,1.11778c-0.30727,0.30485 -0.67503,0.55406 -1.09842,0.74277c-0.42582,0.17662 -0.88068,0.26613 -1.36457,0.26613h-9.72858c-0.47421,0 -0.92181,-0.08952 -1.34763,-0.26613c-0.42582,-0.18871 -0.79842,-0.43792 -1.11778,-0.74277c-0.30485,-0.31937 -0.55406,-0.69196 -0.74277,-1.11778c-0.17662,-0.42582 -0.26613,-0.88068 -0.26613,-1.36457v-22.64598h3.47432v10.59716c0.02178,-0.46212 0.12824,-0.89278 0.31695,-1.2944c0.19114,-0.41373 0.43792,-0.76697 0.74519,-1.06213c0.31937,-0.30727 0.6847,-0.54438 1.09842,-0.7089c0.41373,-0.17904 0.85648,-0.26613 1.32827,-0.26613h6.23974c0.48389,0 0.93874,0.09437 1.36457,0.28308c0.4234,0.17662 0.79116,0.42582 1.09842,0.74519c0.31695,0.30485 0.56615,0.67261 0.74277,1.09842c0.18871,0.4234 0.28308,0.87826 0.28308,1.36457zM328.3378,251.81132v11.88913h9.72858v-11.88913zM363.33504,259.53661h-12.494v4.16385h12.494v3.49125h-12.494c-0.47179,0 -0.92181,-0.08952 -1.34521,-0.26613c-0.42582,-0.18871 -0.79842,-0.43792 -1.11778,-0.74277c-0.30727,-0.31937 -0.55406,-0.69196 -0.74277,-1.11778c-0.17904,-0.42582 -0.26613,-0.88068 -0.26613,-1.36457v-11.88913c0,-0.48631 0.0871,-0.94116 0.26613,-1.36457c0.18871,-0.42582 0.4355,-0.79357 0.74277,-1.09842c0.31937,-0.31937 0.69196,-0.56858 1.11778,-0.74519c0.4234,-0.18871 0.87342,-0.28308 1.34521,-0.28308h9.00273c0.48389,0 0.93874,0.09437 1.36457,0.28308c0.42582,0.17662 0.79116,0.42582 1.09842,0.74519c0.31937,0.30485 0.56615,0.67261 0.74519,1.09842c0.18871,0.4234 0.28308,0.87826 0.28308,1.36457zM350.84103,251.81132v4.23402h9.00273v-4.23402zM372.63778,241.05448v26.13723h-3.4719v-26.13723zM381.92361,241.05448v26.13723h-3.47432v-26.13723z"/><path d="M114.0377,261.33908l0.85528,0.85648zM114.0135,247.67891l-0.02249,-0.02178l0.86664,-0.84439zM112.79628,246.90469l0.41325,-1.13714zM100.49923,245.41432v-1.20972h1.20972v1.20972zM101.70895,264.76985h-1.20972v-1.20972h1.20972zM98.07639,268.40143h-1.20972v-1.20972h1.20972zM96.86667,241.78033v-1.20972h1.20972v1.20972zM114.23658,243.55135l-0.01476,-0.00727l0.44083,-1.12504zM116.61368,245.07075l-0.01307,-0.01452l0.86205,-0.84923zM118.12413,247.44423l-0.00411,-0.00968l1.1323,-0.42582zM118.12002,261.53748l0.00411,-0.00968l1.12818,0.4355zM115.09935,267.6998l-0.00654,0.00242l-0.43018,-1.12987zM110.99453,262.35041c1.47296,0 2.42476,-0.39195 3.04318,-1.01132l1.71079,1.71054c-1.20101,1.20246 -2.84816,1.72023 -4.75397,1.72023zM114.0377,261.33908c0.61842,-0.61937 1.01012,-1.57021 1.01012,-3.04366h2.41944c0,1.90653 -0.51776,3.55417 -1.71877,4.7542zM115.04781,258.29542v-7.61882h2.41944v7.61882zM115.04781,250.67661c0,-0.71374 -0.10186,-1.30892 -0.28163,-1.80248l2.27379,-0.82745c0.29299,0.80567 0.42727,1.68877 0.42727,2.62993zM114.76619,248.87412c-0.17879,-0.49115 -0.43211,-0.88309 -0.75269,-1.19521l1.68828,-1.73232c0.60075,0.5855 1.04448,1.2944 1.33819,2.10007zM113.99124,247.65715c-0.31259,-0.31937 -0.70333,-0.57341 -1.19497,-0.75245l0.82672,-2.27428c0.80785,0.29517 1.51578,0.73793 2.10104,1.33796zM112.79628,246.90469c-0.4943,-0.17904 -1.08874,-0.28065 -1.80176,-0.28065v-2.41944c0.94116,0 1.82306,0.13307 2.62849,0.42582zM110.99453,246.62405h-9.28558v-2.41944h9.28558zM102.91867,245.41432v18.14582h-2.41944v-18.14582zM101.70895,262.35041h9.28558v2.41944h-9.28558zM96.86667,267.19171v-25.41139h2.41944v25.41139zM98.07639,240.5706h12.91812v2.41944h-12.91812zM110.99453,240.5706c1.48505,0 2.86075,0.23227 4.10893,0.72099l-0.88164,2.2525c-0.9252,-0.3605 -1.99507,-0.55406 -3.22729,-0.55406zM115.0887,241.28676c1.25061,0.46937 2.33597,1.15891 3.23577,2.07346l-1.72385,1.69602c-0.63608,-0.646 -1.41731,-1.14924 -2.36403,-1.5049zM118.3114,243.3457c0.91358,0.90003 1.6024,1.98636 2.07322,3.23721l-2.2646,0.85164c-0.35614,-0.946 -0.86035,-1.72748 -1.50635,-2.3638zM120.38051,246.57081c0.48631,1.25811 0.71954,2.62993 0.71954,4.10579h-2.41944c0,-1.2194 -0.19211,-2.2912 -0.55647,-3.23237zM121.10005,250.67661v7.61882h-2.41944v-7.61882zM121.10005,258.29542c0,1.47586 -0.23324,2.8501 -0.71954,4.10579l-2.25637,-0.87342c0.36436,-0.94116 0.55647,-2.01298 0.55647,-3.23237zM120.38462,262.38912c-0.47035,1.25085 -1.15745,2.3396 -2.06669,3.24689l-1.71079,-1.71054c0.6501,-0.6484 1.15626,-1.43957 1.51288,-2.38799zM118.31793,265.63601c-0.89664,0.89762 -1.97621,1.58232 -3.21859,2.06378l-0.87342,-2.25734c0.95519,-0.36776 1.74224,-0.87826 2.38122,-1.51699zM115.09281,267.70222c-1.24528,0.47421 -2.61712,0.69922 -4.09829,0.69922v-2.41944c1.23585,0 2.30961,-0.18871 3.23794,-0.54195zM110.99453,268.40143h-12.91812v-2.41944h12.91812zM124.15628,248.32007v-1.20972h1.20972v1.20972zM128.83912,247.11035h1.20972v1.20972h-1.20972zM128.83912,264.91019h-1.20972v-1.20972h1.20972zM139.77742,263.70046v1.20972h-1.20972v-1.20972zM137.35798,248.32007v-1.20972h1.20972v1.20972zM142.05871,247.11035h1.20972v1.20972h-1.20972zM143.26843,267.19171v1.20972h-1.20972v-1.20972zM138.5677,268.40143h-1.20972v-1.20972h1.20972zM137.36184,263.90369l2.41557,0.0992h-1.20972zM138.25558,267.15783l-0.00145,0.00242l-0.82068,-0.89035zM127.02721,268.04336l-0.02637,-0.0121l0.49163,-1.10569zM125.53682,267.05381l-0.01646,-0.01694l-0.01572,-0.01694l0.87123,-0.83713zM124.52623,265.55617l-0.01137,-0.02662l1.11681,-0.46453zM125.36601,247.11035h3.47311v2.41944h-3.47311zM130.04884,248.32007v15.38039h-2.41944v-15.38039zM128.83912,262.49075h9.72858v2.41944h-9.72858zM137.35798,263.70046v-15.38039h2.41944v15.38039zM138.5677,247.11035h3.49101v2.41944h-3.49101zM143.26843,248.32007v18.87164h-2.41944v-18.87164zM142.05871,268.40143h-3.49101v-2.41944h3.49101zM137.35798,267.19171v-3.18882h2.41944v3.18882zM139.77354,264.09967c-0.04839,0.59761 -0.21097,1.16375 -0.48486,1.69602l-2.15088,-1.1081c0.12774,-0.24678 0.20154,-0.50567 0.22404,-0.78389zM139.28869,265.7957c-0.26469,0.51535 -0.60994,0.9702 -1.0331,1.36214l-1.644,-1.77587c0.21485,-0.19839 0.38929,-0.42824 0.52623,-0.69438zM138.25413,267.16027c-0.41663,0.3847 -0.89423,0.6847 -1.42311,0.90245l-0.92132,-2.23798c0.27436,-0.11372 0.50567,-0.2613 0.70333,-0.44275zM136.83101,268.06272c-0.55284,0.22743 -1.13496,0.33872 -1.73668,0.33872v-2.41944c0.29638,0 0.5647,-0.05322 0.81535,-0.15727zM135.09435,268.40143h-6.25523v-2.41944h6.25523zM128.83912,268.40143c-0.62809,0 -1.2356,-0.11855 -1.81191,-0.35808l0.93052,-2.23314c0.27388,0.11372 0.56446,0.17178 0.88141,0.17178zM127.00107,268.03126c-0.54728,-0.24436 -1.03866,-0.56858 -1.46425,-0.97745l1.67837,-1.74441c0.21242,0.20566 0.46526,0.37743 0.76841,0.51051zM125.50464,267.01994c-0.40985,-0.42582 -0.73503,-0.91697 -0.97843,-1.46376l2.21088,-0.98228c0.13476,0.30243 0.30557,0.55647 0.51026,0.76938zM124.51509,265.52955c-0.2417,-0.57825 -0.35881,-1.19278 -0.35881,-1.8291h2.41944c0,0.33388 0.06,0.62905 0.17275,0.90003zM124.15628,263.70046v-15.38039h2.41944v15.38039zM161.61746,251.81132v-1.20972h1.20972v1.20972zM164.03691,267.19171v1.20972h-1.20972v-1.20972zM159.33619,268.40143h-1.20972v-1.20972h1.20972zM159.33619,250.60161h1.20972v1.20972h-1.20972zM150.13456,251.81132v-1.20972h1.20972v1.20972zM152.554,267.19171v1.20972h-1.20972v-1.20972zM147.87094,268.40143h-1.20972v-1.20972h1.20972zM146.66121,248.32007v-1.20972h1.20972v1.20972zM151.34428,247.11035h1.20972v1.20972h-1.20972zM152.5523,251.71213l-2.41775,-0.06048h1.20972zM152.76328,250.86048l-0.00557,0.0121l-1.09455,-0.51535zM153.24644,250.1661h-0.00049l-0.83858,-0.871zM153.98267,249.69673l-0.02709,0.0121l-0.44953,-1.12263zM160.19823,249.70884l-0.02735,-0.0121l0.47664,-1.11052zM160.92431,250.18062l-0.01742,-0.01452l0.8393,-0.871zM161.42609,250.8992l-0.00944,-0.01935l-0.00872,-0.01935l1.10012,-0.50324zM164.03522,251.71213l-2.4175,-0.03145l1.20949,-0.02903zM162.02152,249.86851l0.00654,-0.01452l1.10036,0.50324zM164.71169,250.1661h-0.00073l-0.83834,-0.871zM165.44769,249.69673l-0.02709,0.0121l-0.44929,-1.12263zM171.70049,249.71851l-0.02613,-0.00968l0.49139,-1.10569zM172.42536,250.21933l-0.01646,-0.01694l-0.01572,-0.01694l0.87123,-0.83713zM172.9032,250.9379l-0.01137,-0.02662l1.11681,-0.46453zM175.50192,267.19171v1.20972h-1.20972v-1.20972zM170.80118,268.40143h-1.20972v-1.20972h1.20972zM170.80118,250.60161h1.20972v1.20972h-1.20972zM164.03691,251.81132v15.38039h-2.41944v-15.38039zM162.82719,268.40143h-3.49101v-2.41944h3.49101zM158.12645,267.19171v-15.38039h2.41944v15.38039zM159.33619,253.02106h-7.9919v-2.41944h7.9919zM152.554,251.81132v15.38039h-2.41944v-15.38039zM151.34428,268.40143h-3.47335v-2.41944h3.47335zM146.66121,267.19171v-18.87164h2.41944v18.87164zM147.87094,247.11035h3.47335v2.41944h-3.47335zM152.554,248.32007v3.33157h-2.41944v-3.33157zM150.13601,251.58874c0.03145,-0.61212 0.17396,-1.19762 0.4326,-1.74684l2.18912,1.03067c-0.11952,0.25405 -0.18945,0.52986 -0.20541,0.83955zM150.56305,249.854c0.24799,-0.54195 0.58188,-1.02342 1.00601,-1.43232l1.67691,1.74441c-0.19041,0.18388 -0.35252,0.40889 -0.48268,0.69438zM151.56832,248.42169c0.43211,-0.41614 0.93075,-0.73551 1.48844,-0.96052l0.89858,2.24766c-0.26928,0.10646 -0.50299,0.25888 -0.7089,0.45728zM153.02967,247.47327c0.57147,-0.24436 1.17753,-0.36292 1.80538,-0.36292v2.41944c-0.31695,0 -0.59712,0.05807 -0.85237,0.16694zM154.83504,247.11035h4.50113v2.41944h-4.50113zM159.33619,247.11035c0.62035,0 1.22012,0.11855 1.78772,0.36292l-0.95303,2.22346c-0.25912,-0.11129 -0.53373,-0.16694 -0.83471,-0.16694zM161.09681,247.46117c0.55744,0.22501 1.05634,0.54438 1.48844,0.96052l-1.67812,1.74441c-0.20589,-0.19839 -0.43961,-0.35082 -0.7089,-0.45728zM162.56806,248.40717c0.44155,0.40889 0.78777,0.89519 1.04035,1.44683l-2.20048,1.00649c-0.12581,-0.27581 -0.28743,-0.49599 -0.48364,-0.67986zM163.59005,249.81529c0.28235,0.56615 0.43018,1.17101 0.44638,1.8049l-2.41871,0.06048c-0.00727,-0.28791 -0.0721,-0.54438 -0.19162,-0.78149zM161.61892,251.58874c0.03072,-0.60001 0.16307,-1.17584 0.4026,-1.72023l2.21356,0.97745c-0.11469,0.25888 -0.18339,0.5468 -0.19984,0.86616zM162.02805,249.854c0.24799,-0.54195 0.58211,-1.02342 1.00601,-1.43232l1.67691,1.74441c-0.19016,0.18388 -0.35252,0.40889 -0.48243,0.69438zM163.03357,248.42169c0.43211,-0.41614 0.93075,-0.73551 1.48844,-0.96052l0.89858,2.24766c-0.26928,0.10646 -0.50299,0.25888 -0.7089,0.45728zM164.49467,247.47327c0.57172,-0.24436 1.17779,-0.36292 1.80562,-0.36292v2.41944c-0.31719,0 -0.59712,0.05807 -0.85261,0.16694zM166.3003,247.11035h4.50089v2.41944h-4.50089zM170.80118,247.11035c0.64671,0 1.26972,0.12581 1.85595,0.38711l-0.98278,2.21137c-0.26421,-0.11855 -0.55091,-0.17904 -0.87318,-0.17904zM172.63101,247.48536c0.57196,0.23952 1.07811,0.58066 1.5049,1.02342l-1.74272,1.67667c-0.18775,-0.19356 -0.41397,-0.35082 -0.69269,-0.46696zM174.10349,248.47491c0.44323,0.42824 0.78366,0.9339 1.02197,1.5049l-2.23338,0.93148c-0.11614,-0.27824 -0.27194,-0.50567 -0.46671,-0.69196zM175.11408,249.95562c0.26058,0.5855 0.38784,1.20729 0.38784,1.85571h-2.41944c0,-0.3242 -0.0617,-0.6097 -0.17928,-0.87342zM175.50192,251.81132v15.38039h-2.41944v-15.38039zM174.2922,268.40143h-3.49101v-2.41944h3.49101zM169.59147,267.19171v-15.38039h2.41944v15.38039zM170.80118,253.02106h-7.974v-2.41944h7.974zM195.41489,264.6005l0.01089,-0.02662l1.10569,0.49115zM194.93172,265.32632l0.85551,0.85648zM195.17997,268.03126l-0.02589,0.0121l-0.46551,-1.11778zM181.78351,268.04336l-0.02613,-0.0121l0.49139,-1.10569zM180.29314,267.05381l-0.01621,-0.01694l-0.01597,-0.01694l0.87149,-0.83713zM179.28255,265.55617l-0.01137,-0.02662l1.11706,-0.46453zM178.91261,241.05448v-1.20972h1.20972v1.20972zM183.59544,239.84477h1.20972v1.20972h-1.20972zM184.80371,251.71213l-2.41799,-0.06048h1.20972zM185.01469,250.86048l-0.00557,0.0121l-1.09455,-0.51535zM185.49783,250.1661h-0.00073l-0.83834,-0.871zM186.23408,249.69673l-0.02735,0.0121l-0.44929,-1.12263zM194.22331,249.71851l-0.02613,-0.00968l0.49139,-1.10569zM194.94818,250.21933l-0.01646,-0.01694l-0.01597,-0.01694l0.87149,-0.83713zM195.42602,250.9379l-0.01137,-0.02662l1.11681,-0.46453zM182.38572,251.81132v-1.20972h1.20972v1.20972zM183.59544,264.91019h-1.20972v-1.20972h1.20972zM194.53374,263.70046v1.20972h-1.20972v-1.20972zM193.32401,250.60161h1.20972v1.20972h-1.20972zM198.02474,263.70046c0,0.646 -0.12726,1.2702 -0.38784,1.85571l-2.21088,-0.98228c0.11758,-0.26373 0.17928,-0.55163 0.17928,-0.87342zM197.64828,265.52955c-0.23686,0.56858 -0.57243,1.07423 -1.00552,1.50731l-1.71103,-1.71054c0.20493,-0.20566 0.36533,-0.44275 0.48316,-0.72582zM196.64276,267.03686c-0.41953,0.41857 -0.91164,0.75003 -1.46279,0.99439l-0.98278,-2.21137c0.29953,-0.13307 0.53978,-0.29759 0.73454,-0.49356zM195.15384,268.04336c-0.58019,0.24195 -1.19399,0.35808 -1.82982,0.35808v-2.41944c0.33316,0 0.62881,-0.06048 0.8993,-0.17178zM193.32401,268.40143h-9.72858v-2.41944h9.72858zM183.59544,268.40143c-0.62809,0 -1.23537,-0.11855 -1.81191,-0.35808l0.93052,-2.23314c0.27412,0.11372 0.56446,0.17178 0.88141,0.17178zM181.75739,268.03126c-0.54728,-0.24436 -1.03866,-0.56858 -1.46425,-0.97745l1.67837,-1.74441c0.21242,0.20566 0.46526,0.37743 0.76866,0.51051zM180.26096,267.01994c-0.40962,-0.42582 -0.73503,-0.91697 -0.97843,-1.46376l2.21113,-0.98228c0.13476,0.30243 0.30557,0.55647 0.51002,0.76938zM179.27141,265.52955c-0.2417,-0.57825 -0.35881,-1.19278 -0.35881,-1.8291h2.41944c0,0.33388 0.06,0.62905 0.17275,0.90003zM178.91261,263.70046v-22.64598h2.41944v22.64598zM180.12233,239.84477h3.47311v2.41944h-3.47311zM184.80516,241.05448v10.59716h-2.41944v-10.59716zM182.38741,251.58874c0.03145,-0.61212 0.17396,-1.19762 0.4326,-1.74684l2.18912,1.03067c-0.11952,0.25405 -0.18945,0.52986 -0.20541,0.83955zM182.81421,249.854c0.24799,-0.54195 0.58211,-1.02342 1.00601,-1.43232l1.67691,1.74441c-0.19016,0.18388 -0.35227,0.40889 -0.48243,0.69438zM183.81972,248.42169c0.43211,-0.41614 0.93075,-0.73551 1.48844,-0.96052l0.89858,2.24766c-0.26928,0.10646 -0.50299,0.25888 -0.7089,0.45728zM185.28083,247.47327c0.57172,-0.24436 1.17779,-0.36292 1.80562,-0.36292v2.41944c-0.31719,0 -0.59712,0.05807 -0.85237,0.16694zM187.08645,247.11035h6.23757v2.41944h-6.23757zM193.32401,247.11035c0.64671,0 1.26949,0.12581 1.85595,0.38711l-0.98278,2.21137c-0.26421,-0.11855 -0.55091,-0.17904 -0.87318,-0.17904zM195.15384,247.48536c0.57196,0.23952 1.07811,0.58066 1.5049,1.02342l-1.74297,1.67667c-0.18751,-0.19356 -0.41373,-0.35082 -0.69244,-0.46696zM196.6263,248.47491c0.44323,0.42824 0.78366,0.9339 1.02197,1.5049l-2.23338,0.93148c-0.11614,-0.27824 -0.27194,-0.50567 -0.46671,-0.69196zM197.63691,249.95562c0.26058,0.5855 0.38784,1.20729 0.38784,1.85571h-2.41944c0,-0.3242 -0.0617,-0.6097 -0.17928,-0.87342zM198.02474,251.81132v11.88913h-2.41944v-11.88913zM184.80516,251.81132v11.88913h-2.41944v-11.88913zM183.59544,262.49075h9.72858v2.41944h-9.72858zM192.11429,263.70046v-11.88913h2.41944v11.88913zM193.32401,253.02106h-9.72858v-2.41944h9.72858zM219.80335,259.53661v1.20972h-1.20972v-1.20972zM204.89088,259.53661v-1.20972h1.20972v1.20972zM206.1006,264.91019h-1.20972v-1.20972h1.20972zM218.59364,262.49075h1.20972v1.20972h-1.20972zM219.80335,267.19171v1.20972h-1.20972v-1.20972zM204.28844,268.04336l-0.02613,-0.0121l0.49163,-1.10569zM202.7983,267.05381l-0.01646,-0.01694l-0.01572,-0.01694l0.87123,-0.83713zM201.7877,265.55617l-0.01162,-0.02662l1.11706,-0.46453zM201.77657,249.9798l0.01089,-0.02662l1.10569,0.49356zM205.24509,249.70884l-0.02589,0.0121l-0.46526,-1.11778zM216.00192,249.71851l-0.02637,-0.00968l0.49163,-1.10569zM216.72655,250.21933l-0.01646,-0.01694l-0.01572,-0.01694l0.87149,-0.83713zM217.20463,250.9379l-0.01162,-0.02662l1.11706,-0.46453zM204.89088,251.81132v-1.20972h1.20972v1.20972zM206.1006,257.25506h-1.20972v-1.20972h1.20972zM216.31234,256.04535v1.20972h-1.20972v-1.20972zM215.10262,250.60161h1.20972v1.20972h-1.20972zM218.59364,260.74633h-12.49302v-2.41944h12.49302zM207.31032,259.53661v4.16385h-2.41944v-4.16385zM206.1006,262.49075h12.49302v2.41944h-12.49302zM219.80335,263.70046v3.49125h-2.41944v-3.49125zM218.59364,268.40143h-12.49302v-2.41944h12.49302zM206.1006,268.40143c-0.62809,0 -1.2356,-0.11855 -1.81216,-0.35808l0.93075,-2.23314c0.27388,0.11372 0.56446,0.17178 0.88141,0.17178zM204.26256,268.03126c-0.54728,-0.24436 -1.03866,-0.56858 -1.46425,-0.97745l1.67812,-1.74441c0.21266,0.20566 0.46551,0.37743 0.76866,0.51051zM202.76612,267.01994c-0.40985,-0.42582 -0.73527,-0.91697 -0.97843,-1.46376l2.21088,-0.98228c0.13476,0.30243 0.30557,0.55647 0.51026,0.76938zM201.77657,265.52955c-0.24195,-0.57825 -0.35905,-1.19278 -0.35905,-1.8291h2.41944c0,0.33388 0.06025,0.62905 0.17275,0.90003zM201.41753,263.70046v-11.88913h2.41944v11.88913zM201.41753,251.81132c0,-0.63632 0.11709,-1.25085 0.35905,-1.83151l2.23314,0.93148c-0.11251,0.27098 -0.17275,0.56615 -0.17275,0.90003zM201.7877,249.95562c0.24509,-0.55163 0.57486,-1.04519 0.99439,-1.46376l1.71079,1.71054c-0.195,0.19598 -0.36122,0.4355 -0.4943,0.73551zM202.7821,248.49185c0.43308,-0.43308 0.9385,-0.76938 1.50635,-1.00649l0.93075,2.23314c-0.28284,0.11855 -0.52163,0.27824 -0.72631,0.48389zM204.26256,247.49746c0.58236,-0.25888 1.19883,-0.38711 1.83805,-0.38711v2.41944c-0.30605,0 -0.58719,0.06048 -0.85551,0.17904zM206.1006,247.11035h9.00202v2.41944h-9.00202zM215.10262,247.11035c0.64648,0 1.26949,0.12581 1.85571,0.38711l-0.98254,2.21137c-0.26421,-0.11855 -0.55116,-0.17904 -0.87318,-0.17904zM216.93243,247.48536c0.57196,0.23952 1.07786,0.58066 1.50465,1.02342l-1.74272,1.67667c-0.18751,-0.19356 -0.41397,-0.35082 -0.69244,-0.46696zM218.40491,248.47491c0.44323,0.42824 0.78341,0.9339 1.02173,1.5049l-2.23338,0.93148c-0.11589,-0.27824 -0.27194,-0.50567 -0.46671,-0.69196zM219.41552,249.95562c0.26058,0.5855 0.38784,1.20729 0.38784,1.85571h-2.41944c0,-0.3242 -0.06194,-0.6097 -0.17928,-0.87342zM219.80335,251.81132v7.72528h-2.41944v-7.72528zM207.31032,251.81132v4.23402h-2.41944v-4.23402zM206.1006,254.83562h9.00202v2.41944h-9.00202zM213.8929,256.04535v-4.23402h2.41944v4.23402zM215.10262,253.02106h-9.00202v-2.41944h9.00202zM227.89687,239.84477h1.20972v1.20972h-1.20972zM229.10659,267.19171v1.20972h-1.20972v-1.20972zM224.42352,268.40143h-1.20972v-1.20972h1.20972zM223.21379,241.05448v-1.20972h1.20972v1.20972zM229.10659,241.05448v26.13723h-2.41944v-26.13723zM227.89687,268.40143h-3.47335v-2.41944h3.47335zM223.21379,267.19171v-26.13723h2.41944v26.13723zM224.42352,239.84477h3.47335v2.41944h-3.47335zM237.18244,239.84477h1.20972v1.20972h-1.20972zM238.39217,267.19171v1.20972h-1.20972v-1.20972zM233.7091,268.40143h-1.20972v-1.20972h1.20972zM232.49937,241.05448v-1.20972h1.20972v1.20972zM238.39217,241.05448v26.13723h-2.41944v-26.13723zM237.18244,268.40143h-3.47335v-2.41944h3.47335zM232.49937,267.19171v-26.13723h2.41944v26.13723zM233.7091,239.84477h3.47335v2.41944h-3.47335zM241.54154,270.20876h-1.67547l0.5272,-1.58956l1.14827,0.37985zM250.01563,239.59315l0.27485,-0.82988h0.87342v1.20972zM254.67258,238.76328h1.68514l-0.53905,1.59683l-1.14608,-0.38711zM246.0192,269.38615l-0.27776,0.82261h-0.86834v-1.20972zM240.39328,268.61919l9.62237,-29.02604l2.29653,0.75971l-9.62237,29.02604zM251.16391,238.76328h3.50867v2.41944h-3.50867zM255.81867,240.36011l-9.79946,29.02604l-2.29218,-0.77422l9.79922,-29.02604zM244.87312,270.20876h-3.33157v-2.41944h3.33157zM275.59543,255.09208l-3.02236,-0.94116l2.87913,-1.31375l0.50277,1.09842zM277.51017,256.49295l-0.00749,-0.0121l1.02173,-0.6484zM259.40381,268.40143h-1.20972v-1.20972h1.20972zM258.19408,241.78033v-1.20972h1.20972v1.20972zM276.98153,251.39276l0.00291,-0.00484l1.07907,0.5468zM261.75598,256.11551v-1.20972h1.20972v1.20972zM262.9657,264.84002h-1.20972v-1.20972h1.20972zM274.40338,262.1254l0.87801,0.83228zM261.75598,245.34173v-1.20972h1.20972v1.20972zM262.9657,253.78317h-1.20972v-1.20972h1.20972zM272.77872,253.78075l-0.02444,0.00242h-0.02444v-1.20972zM273.69303,251.07098h0.00169l0.91334,0.79357zM276.31425,252.78152c0.64648,0.20082 1.24505,0.49115 1.78917,0.87342l-1.39094,1.98152c-0.33001,-0.23227 -0.70019,-0.41373 -1.11706,-0.54438zM278.10343,253.65494c0.57656,0.40647 1.05681,0.92181 1.44151,1.52909l-2.04226,1.29683c-0.22815,-0.3605 -0.4926,-0.63632 -0.79019,-0.84439zM279.53767,255.17435c0.39195,0.60244 0.67503,1.28957 0.86858,2.04443l-2.34541,0.59518c-0.13887,-0.54438 -0.32783,-0.97987 -0.55066,-1.32102zM280.40625,257.21878c0.19356,0.76697 0.2855,1.61377 0.2855,2.53073h-2.42017c0,-0.76212 -0.07548,-1.40328 -0.21073,-1.93555zM280.69174,259.74951v1.27505h-2.42017v-1.27505zM280.69174,261.02455c0,2.24282 -0.56131,4.14692 -1.89685,5.48004c-1.33456,1.33553 -3.23843,1.89685 -5.48028,1.89685v-2.41944c1.86901,0 3.04874,-0.46696 3.76949,-1.18794c0.72099,-0.72099 1.18746,-1.89926 1.18746,-3.76949zM273.31462,268.40143h-13.91083v-2.41944h13.91083zM258.19408,267.19171v-25.41139h2.41944v25.41139zM259.40381,240.5706h13.18427v2.41944h-13.18427zM272.58807,240.5706c2.24282,0 4.14717,0.56373 5.48149,1.90168c1.33505,1.33796 1.89394,3.24447 1.89394,5.49213h-2.41848c0,-1.87506 -0.46696,-3.06059 -1.18867,-3.78401c-0.72099,-0.72342 -1.90023,-1.19037 -3.76828,-1.19037zM279.96349,247.96441v0.46212h-2.41848v-0.46212zM279.96349,248.42653c0,1.54602 -0.24678,2.92026 -0.82019,4.05499l-2.15887,-1.09359c0.34743,-0.68712 0.56058,-1.65006 0.56058,-2.96139zM279.14572,252.47425c-0.57873,1.15891 -1.49303,2.01782 -2.68824,2.56219l-1.00527,-2.19927c0.71857,-0.32904 1.2102,-0.80567 1.52933,-1.44441zM264.17542,256.11551v7.51478h-2.41944v-7.51478zM262.9657,262.42058h10.24246v2.41944h-10.24246zM273.20817,262.42058c0.80374,0 1.09746,-0.19356 1.19521,-0.29517l1.75627,1.66216c-0.75293,0.79599 -1.84119,1.05246 -2.95147,1.05246zM274.40338,262.1254c0.12146,-0.12824 0.3063,-0.46696 0.3063,-1.27746h2.41944c0,1.10326 -0.24025,2.17024 -0.96946,2.93962zM274.70967,260.84793v-1.967h2.41944v1.967zM274.70967,258.88093c0,-0.83228 -0.18871,-1.15649 -0.29517,-1.26536l1.73401,-1.68635c0.74398,0.76454 0.9806,1.84603 0.9806,2.95171zM274.4145,257.61556c-0.09654,-0.0992 -0.39485,-0.29034 -1.20633,-0.29034v-2.41944c1.10255,0 2.18621,0.24678 2.94034,1.02342zM273.20817,257.32523h-10.24246v-2.41944h10.24246zM264.17542,245.34173v7.23171h-2.41944v-7.23171zM262.9657,251.36373h9.76414v2.41944h-9.76414zM272.68072,251.36373c0.71084,-0.02903 0.94407,-0.21291 1.0123,-0.29276l1.83006,1.58473c-0.68761,0.79357 -1.70692,1.08391 -2.74438,1.12504zM273.69471,251.07098c0.11783,-0.13549 0.28839,-0.47904 0.28839,-1.26295h2.41944c0,1.05971 -0.2192,2.08556 -0.88116,2.84768zM273.98312,249.80803v-1.66699h2.41944v1.66699zM273.98312,248.14103c0,-0.82745 -0.18702,-1.16859 -0.3063,-1.2944l1.75627,-1.66216c0.7314,0.77181 0.96946,1.84846 0.96946,2.95655zM273.67682,246.84663c-0.09774,-0.10162 -0.39146,-0.29517 -1.19521,-0.29517v-2.41944c1.11028,0 2.19855,0.25646 2.95147,1.05246zM272.48162,246.55146h-9.5159v-2.41944h9.5159zM283.72088,257.12925l0.00727,-0.01452l1.10569,0.49115zM284.70559,255.64856l0.01694,-0.01452l0.85406,0.85406zM287.18552,256.84861l-0.02662,0.0121l-0.46453,-1.11536zM298.25205,255.45985v1.20972h-1.20972v-1.20972zM297.04233,250.60161h1.20972v1.20972h-1.20972zM285.64918,253.02106h-1.20972v-1.20972h1.20972zM284.43945,248.32007v-1.20972h1.20972v1.20972zM297.94236,249.71851l-0.02662,-0.00968l0.49115,-1.10569zM298.66578,250.21933l-0.01694,-0.01694l-0.01452,-0.01694l0.871,-0.83713zM299.14482,250.9379l-0.0121,-0.02662l1.11778,-0.46453zM301.74331,267.19171v1.20972h-1.20972v-1.20972zM297.04233,268.40143h-1.20972v-1.20972h1.20972zM295.83745,263.90369l2.41461,0.0992h-1.20972zM296.73022,267.15783l-0.00242,0.00242l-0.82019,-0.89035zM286.22743,268.04336l-0.02419,-0.0121l0.49115,-1.10569zM284.73704,267.05381l-0.01452,-0.01694l-0.01694,-0.01694l0.871,-0.83713zM283.72814,265.55617l-0.0121,-0.02662l1.11778,-0.46453zM288.03959,264.91019h-1.20972v-1.20972h1.20972zM298.25205,263.70046v1.20972h-1.20972v-1.20972zM297.04233,257.74137h1.20972v1.20972h-1.20972zM286.82987,258.95109v-1.20972h1.20972v1.20972zM283.35797,258.95109c0,-0.63389 0.11614,-1.24843 0.36292,-1.82183l2.22346,0.95325c-0.10646,0.25162 -0.16694,0.53711 -0.16694,0.86858zM283.72814,257.11474c0.24195,-0.54921 0.56858,-1.04035 0.97745,-1.46619l1.742,1.6791c-0.20323,0.21291 -0.37501,0.46453 -0.50808,0.76938zM284.72253,255.63405c0.43308,-0.43308 0.93874,-0.76938 1.5049,-1.00649l0.93148,2.23314c-0.28308,0.11855 -0.52259,0.27824 -0.72582,0.48389zM286.20322,254.63965c0.58066,-0.25888 1.19762,-0.38954 1.83635,-0.38954v2.41944c-0.30485,0 -0.5855,0.06048 -0.85406,0.17904zM288.03959,254.25012h9.00273v2.41944h-9.00273zM295.83261,255.45985v-3.64852h2.41944v3.64852zM297.04233,253.02106h-11.39315v-2.41944h11.39315zM284.43945,251.81132v-3.49125h2.41944v3.49125zM285.64918,247.11035h11.39315v2.41944h-11.39315zM297.04233,247.11035c0.646,0 1.2702,0.12581 1.85571,0.38711l-0.98228,2.21137c-0.26373,-0.11855 -0.55163,-0.17904 -0.87342,-0.17904zM298.87143,247.48536c0.57341,0.23952 1.07907,0.58066 1.5049,1.02342l-1.742,1.67667c-0.18871,-0.19356 -0.41373,-0.35082 -0.69196,-0.46696zM300.34486,248.47491c0.44275,0.42824 0.78389,0.9339 1.021,1.5049l-2.23314,0.93148c-0.11614,-0.27824 -0.27098,-0.50567 -0.46696,-0.69196zM301.35618,249.95562c0.25888,0.5855 0.38711,1.20729 0.38711,1.85571h-2.41944c0,-0.3242 -0.0629,-0.6097 -0.17904,-0.87342zM301.74331,251.81132v15.38039h-2.41944v-15.38039zM300.53357,268.40143h-3.49125v-2.41944h3.49125zM295.83261,267.19171v-3.18882h2.41944v3.18882zM298.24722,264.09967c-0.04839,0.59761 -0.21049,1.16375 -0.48389,1.69602l-2.15088,-1.1081c0.12824,-0.24678 0.20082,-0.50567 0.22501,-0.78389zM297.76332,265.7957c-0.26373,0.51535 -0.6097,0.9702 -1.0331,1.36214l-1.6428,-1.77587c0.21291,-0.19839 0.38711,-0.42824 0.52502,-0.69438zM296.7278,267.16027c-0.41614,0.3847 -0.89278,0.6847 -1.42263,0.90245l-0.92181,-2.23798c0.27581,-0.11372 0.50567,-0.2613 0.70406,-0.44275zM295.30517,268.06272c-0.55163,0.22743 -1.13472,0.33872 -1.73715,0.33872v-2.41944c0.29759,0 0.56615,-0.05322 0.81535,-0.15727zM293.56801,268.40143h-5.52843v-2.41944h5.52843zM288.03959,268.40143c-0.62663,0 -1.23391,-0.11855 -1.81216,-0.35808l0.93148,-2.23314c0.2734,0.11372 0.56373,0.17178 0.88068,0.17178zM286.20322,268.03126c-0.54921,-0.24436 -1.04035,-0.56858 -1.46619,-0.97745l1.6791,-1.74441c0.21291,0.20566 0.46453,0.37743 0.76938,0.51051zM284.70559,267.01994c-0.40889,-0.42582 -0.73551,-0.91697 -0.97745,-1.46376l2.21137,-0.98228c0.13307,0.30243 0.30485,0.55647 0.50808,0.76938zM283.71604,265.52955c-0.24195,-0.57825 -0.35808,-1.19278 -0.35808,-1.8291h2.41944c0,0.33388 0.06048,0.62905 0.17178,0.90003zM283.35797,263.70046v-4.74937h2.41944v4.74937zM288.03959,262.49075h9.00273v2.41944h-9.00273zM295.83261,263.70046v-4.74937h2.41944v4.74937zM297.04233,260.16081h-9.00273v-2.41944h9.00273zM289.24931,258.95109v4.74937h-2.41944v-4.74937zM308.62661,251.81132v-1.20972h1.20972v1.20972zM311.04605,267.19171v1.20972h-1.20972v-1.20972zM306.36444,268.40143h-1.20972v-1.20972h1.20972zM305.15471,248.32007v-1.20972h1.20972v1.20972zM309.83633,247.11035h1.20972v1.20972h-1.20972zM311.04364,251.71213l-2.41703,-0.06048h1.20972zM311.25655,250.86048l-0.00727,0.0121l-1.09359,-0.51535zM311.73801,250.1661v0l-0.83713,-0.871zM312.47594,249.69673l-0.02903,0.0121l-0.44761,-1.12263zM317.91244,249.71851l-0.01935,-0.00727l-0.01935,-0.00727l0.50324,-1.10084zM318.65521,250.21933l-0.01694,-0.01694l0.85648,-0.85406zM319.13183,250.9379l-0.00968,-0.02662l1.11536,-0.46453zM321.73273,255.00015v1.20972h-1.20972v-1.20972zM317.03176,256.20987h-1.20972v-1.20972h1.20972zM317.03176,250.60161h1.20972v1.20972h-1.20972zM311.04605,251.81132v15.38039h-2.41944v-15.38039zM309.83633,268.40143h-3.4719v-2.41944h3.4719zM305.15471,267.19171v-18.87164h2.41944v18.87164zM306.36444,247.11035h3.4719v2.41944h-3.4719zM311.04605,248.32007v3.33157h-2.41944v-3.33157zM308.62904,251.58874c0.03145,-0.61212 0.1742,-1.19762 0.43066,-1.74684l2.18959,1.03067c-0.11855,0.25405 -0.18871,0.52986 -0.20566,0.83955zM309.05486,249.854c0.24921,-0.54195 0.58309,-1.02342 1.00649,-1.43232l1.67667,1.74441c-0.19114,0.18388 -0.35324,0.40889 -0.48147,0.69438zM310.06134,248.42169c0.43066,-0.41614 0.92907,-0.73551 1.48796,-0.96052l0.89762,2.24766c-0.26856,0.10646 -0.50324,0.25888 -0.7089,0.45728zM311.52268,247.47327c0.57098,-0.24436 1.17584,-0.36292 1.8049,-0.36292v2.41944c-0.31695,0 -0.59761,0.05807 -0.85164,0.16694zM313.3276,247.11035h3.70416v2.41944h-3.70416zM317.03176,247.11035c0.646,0 1.26779,0.12581 1.84846,0.39195l-1.00649,2.2017c-0.24436,-0.11372 -0.52018,-0.1742 -0.84196,-0.1742zM318.84392,247.48536c0.56615,0.2371 1.07181,0.57341 1.5049,1.00649l-1.71054,1.71054c-0.20323,-0.20566 -0.44275,-0.36533 -0.72582,-0.48389zM320.3343,248.47491c0.44275,0.42824 0.78149,0.9339 1.021,1.5049l-2.23314,0.93148c-0.11614,-0.27824 -0.2734,-0.50567 -0.46696,-0.69196zM321.34319,249.95562c0.2613,0.5855 0.38954,1.20729 0.38954,1.85571h-2.41944c0,-0.3242 -0.0629,-0.6097 -0.18146,-0.87342zM321.73273,251.81132v3.18882h-2.41944v-3.18882zM320.52301,256.20987h-3.49125v-2.41944h3.49125zM315.82203,255.00015v-3.18882h2.41944v3.18882zM317.03176,253.02106h-7.19542v-2.41944h7.19542zM340.15679,264.6005l0.00968,-0.02662l1.10569,0.49115zM339.67289,265.32632l0.85648,0.85648zM339.9221,268.03126l-0.02662,0.0121l-0.46453,-1.11778zM326.52564,268.04336l-0.02662,-0.0121l0.49115,-1.10569zM325.03527,267.05381l-0.01694,-0.01694l-0.01694,-0.01694l0.871,-0.83713zM324.02395,265.55617l-0.0121,-0.02662l1.11778,-0.46453zM323.65376,241.05448v-1.20972h1.20972v1.20972zM328.3378,239.84477h1.20972v1.20972h-1.20972zM329.54511,251.71213l-2.41703,-0.06048h1.20972zM329.75561,250.86048l-0.00484,0.0121l-1.09601,-0.51535zM330.23948,250.1661v0l-0.83955,-0.871zM330.975,249.69673l-0.02662,0.0121l-0.45001,-1.12263zM338.96399,249.71851l-0.02662,-0.00968l0.49356,-1.10569zM339.68983,250.21933l-0.01694,-0.01694l-0.01694,-0.01694l0.87342,-0.83713zM340.16646,250.9379l-0.00968,-0.02662l1.11536,-0.46453zM327.12808,251.81132v-1.20972h1.20972v1.20972zM328.3378,264.91019h-1.20972v-1.20972h1.20972zM339.2761,263.70046v1.20972h-1.20972v-1.20972zM338.06639,250.60161h1.20972v1.20972h-1.20972zM342.76494,263.70046c0,0.646 -0.12581,1.2702 -0.38711,1.85571l-2.21137,-0.98228c0.11855,-0.26373 0.17904,-0.55163 0.17904,-0.87342zM342.38992,265.52955c-0.2371,0.56858 -0.57341,1.07423 -1.00649,1.50731l-1.71054,-1.71054c0.20566,-0.20566 0.36533,-0.44275 0.48389,-0.72582zM341.38344,267.03686c-0.41857,0.41857 -0.91213,0.75003 -1.46134,0.99439l-0.98472,-2.21137c0.30002,-0.13307 0.54195,-0.29759 0.73551,-0.49356zM339.89548,268.04336c-0.58066,0.24195 -1.19521,0.35808 -1.8291,0.35808v-2.41944c0.33147,0 0.62663,-0.06048 0.89762,-0.17178zM338.06639,268.40143h-9.72858v-2.41944h9.72858zM328.3378,268.40143c-0.62905,0 -1.23633,-0.11855 -1.81216,-0.35808l0.92907,-2.23314c0.2734,0.11372 0.56615,0.17178 0.88309,0.17178zM326.49903,268.03126c-0.5468,-0.24436 -1.03794,-0.56858 -1.46376,-0.97745l1.67667,-1.74441c0.21291,0.20566 0.46696,0.37743 0.76938,0.51051zM325.0014,267.01994c-0.40889,-0.42582 -0.73309,-0.91697 -0.97745,-1.46376l2.21137,-0.98228c0.13307,0.30243 0.30485,0.55647 0.51051,0.76938zM324.01185,265.52955c-0.24195,-0.57825 -0.35808,-1.19278 -0.35808,-1.8291h2.41944c0,0.33388 0.06048,0.62905 0.17178,0.90003zM323.65376,263.70046v-22.64598h2.41944v22.64598zM324.86349,239.84477h3.47432v2.41944h-3.47432zM329.54753,241.05448v10.59716h-2.41944v-10.59716zM327.12808,251.58874c0.03145,-0.61212 0.1742,-1.19762 0.43308,-1.74684l2.18959,1.03067c-0.12097,0.25405 -0.19114,0.52986 -0.20566,0.83955zM327.55632,249.854c0.24678,-0.54195 0.58066,-1.02342 1.00407,-1.43232l1.6791,1.74441c-0.19114,0.18388 -0.35324,0.40889 -0.48389,0.69438zM328.5604,248.42169c0.43308,-0.41614 0.93148,-0.73551 1.48796,-0.96052l0.90003,2.24766c-0.27098,0.10646 -0.50324,0.25888 -0.7089,0.45728zM330.02174,247.47327c0.57098,-0.24436 1.17826,-0.36292 1.8049,-0.36292v2.41944c-0.31695,0 -0.59518,0.05807 -0.85164,0.16694zM331.82664,247.11035h6.23974v2.41944h-6.23974zM338.06639,247.11035c0.646,0 1.26779,0.12581 1.85571,0.38711l-0.98472,2.21137c-0.26373,-0.11855 -0.54921,-0.17904 -0.871,-0.17904zM339.89548,247.48536c0.57098,0.23952 1.07665,0.58066 1.5049,1.02342l-1.74441,1.67667c-0.18631,-0.19356 -0.41373,-0.35082 -0.69196,-0.46696zM341.3665,248.47491c0.44517,0.42824 0.78389,0.9339 1.02342,1.5049l-2.23314,0.93148c-0.11614,-0.27824 -0.2734,-0.50567 -0.46696,-0.69196zM342.37783,249.95562c0.2613,0.5855 0.38711,1.20729 0.38711,1.85571h-2.41944c0,-0.3242 -0.06048,-0.6097 -0.17904,-0.87342zM342.76494,251.81132v11.88913h-2.41944v-11.88913zM329.54753,251.81132v11.88913h-2.41944v-11.88913zM328.3378,262.49075h9.72858v2.41944h-9.72858zM336.85666,263.70046v-11.88913h2.41944v11.88913zM338.06639,253.02106h-9.72858v-2.41944h9.72858zM364.54475,259.53661v1.20972h-1.20972v-1.20972zM349.63131,259.53661v-1.20972h1.20972v1.20972zM350.84103,264.91019h-1.20972v-1.20972h1.20972zM363.33504,262.49075h1.20972v1.20972h-1.20972zM364.54475,267.19171v1.20972h-1.20972v-1.20972zM349.02887,268.04336l-0.02419,-0.0121l0.49115,-1.10569zM347.53849,267.05381l-0.01452,-0.01694l-0.01694,-0.01694l0.871,-0.83713zM346.52959,265.55617l-0.0121,-0.02662l1.11778,-0.46453zM346.51749,249.9798l0.0121,-0.02662l1.10569,0.49356zM349.98697,249.70884l-0.02662,0.0121l-0.46453,-1.11778zM360.7438,249.71851l-0.02662,-0.00968l0.49115,-1.10569zM361.46722,250.21933l-0.01694,-0.01694l-0.01452,-0.01694l0.871,-0.83713zM361.94627,250.9379l-0.0121,-0.02662l1.11778,-0.46453zM349.63131,251.81132v-1.20972h1.20972v1.20972zM350.84103,257.25506h-1.20972v-1.20972h1.20972zM361.0535,256.04535v1.20972h-1.20972v-1.20972zM359.84378,250.60161h1.20972v1.20972h-1.20972zM363.33504,260.74633h-12.494v-2.41944h12.494zM352.05075,259.53661v4.16385h-2.41944v-4.16385zM350.84103,262.49075h12.494v2.41944h-12.494zM364.54475,263.70046v3.49125h-2.41944v-3.49125zM363.33504,268.40143h-12.494v-2.41944h12.494zM350.84103,268.40143c-0.62663,0 -1.23391,-0.11855 -1.81216,-0.35808l0.93148,-2.23314c0.2734,0.11372 0.56373,0.17178 0.88068,0.17178zM349.00468,268.03126c-0.54921,-0.24436 -1.04035,-0.56858 -1.46619,-0.97745l1.6791,-1.74441c0.21291,0.20566 0.46453,0.37743 0.76938,0.51051zM347.50705,267.01994c-0.40889,-0.42582 -0.73551,-0.91697 -0.97745,-1.46376l2.21137,-0.98228c0.13307,0.30243 0.30485,0.55647 0.50808,0.76938zM346.51749,265.52955c-0.24195,-0.57825 -0.35808,-1.19278 -0.35808,-1.8291h2.41944c0,0.33388 0.06048,0.62905 0.17178,0.90003zM346.15942,263.70046v-11.88913h2.41944v11.88913zM346.15942,251.81132c0,-0.63632 0.11614,-1.25085 0.35808,-1.83151l2.23314,0.93148c-0.11129,0.27098 -0.17178,0.56615 -0.17178,0.90003zM346.52959,249.95562c0.24436,-0.55163 0.57341,-1.04519 0.99439,-1.46376l1.71054,1.71054c-0.19598,0.19598 -0.3605,0.4355 -0.49356,0.73551zM347.52397,248.49185c0.43308,-0.43308 0.93874,-0.76938 1.5049,-1.00649l0.93148,2.23314c-0.28308,0.11855 -0.52259,0.27824 -0.72582,0.48389zM349.00468,247.49746c0.58066,-0.25888 1.19762,-0.38711 1.83635,-0.38711v2.41944c-0.30485,0 -0.5855,0.06048 -0.85406,0.17904zM350.84103,247.11035h9.00273v2.41944h-9.00273zM359.84378,247.11035c0.646,0 1.2702,0.12581 1.85571,0.38711l-0.98228,2.21137c-0.26373,-0.11855 -0.55163,-0.17904 -0.87342,-0.17904zM361.67287,247.48536c0.57341,0.23952 1.07907,0.58066 1.5049,1.02342l-1.742,1.67667c-0.18871,-0.19356 -0.41373,-0.35082 -0.69196,-0.46696zM363.14631,248.47491c0.44275,0.42824 0.78389,0.9339 1.021,1.5049l-2.23314,0.93148c-0.11614,-0.27824 -0.27098,-0.50567 -0.46696,-0.69196zM364.15765,249.95562c0.25888,0.5855 0.38711,1.20729 0.38711,1.85571h-2.41944c0,-0.3242 -0.0629,-0.6097 -0.17904,-0.87342zM364.54475,251.81132v7.72528h-2.41944v-7.72528zM352.05075,251.81132v4.23402h-2.41944v-4.23402zM350.84103,254.83562h9.00273v2.41944h-9.00273zM358.63406,256.04535v-4.23402h2.41944v4.23402zM359.84378,253.02106h-9.00273v-2.41944h9.00273zM372.63778,239.84477h1.20972v1.20972h-1.20972zM373.84751,267.19171v1.20972h-1.20972v-1.20972zM369.16588,268.40143h-1.20972v-1.20972h1.20972zM367.95616,241.05448v-1.20972h1.20972v1.20972zM373.84751,241.05448v26.13723h-2.41944v-26.13723zM372.63778,268.40143h-3.4719v-2.41944h3.4719zM367.95616,267.19171v-26.13723h2.41944v26.13723zM369.16588,239.84477h3.4719v2.41944h-3.4719zM381.92361,239.84477h1.20972v1.20972h-1.20972zM383.13332,267.19171v1.20972h-1.20972v-1.20972zM378.44928,268.40143h-1.20972v-1.20972h1.20972zM377.23956,241.05448v-1.20972h1.20972v1.20972zM383.13332,241.05448v26.13723h-2.41944v-26.13723zM381.92361,268.40143h-3.47432v-2.41944h3.47432zM377.23956,267.19171v-26.13723h2.41944v26.13723zM378.44928,239.84477h3.47432v2.41944h-3.47432z"/></g></g></g></svg>