<svg version="1.1" xmlns="http://www.w3.org/2000/svg" xmlns:xlink="http://www.w3.org/1999/xlink" width="75.01664" height="11.30322" viewBox="0,0,75.01664,11.30322"><g transform="translate(-209.51815,-174.34839)"><g data-paper-data="{&quot;isPaintingLayer&quot;:true}" fill="#87bf3d" fill-rule="nonzero" stroke="#87bf3d" stroke-width="0.5" stroke-linecap="butt" stroke-linejoin="miter" stroke-miterlimit="10" stroke-dasharray="" stroke-dashoffset="0" style="mix-blend-mode: normal"><path d="M211.41611,180.90454c-0.20508,0 -0.40039,-0.03906 -0.58594,-0.11719c-0.18066,-0.08301 -0.33935,-0.19043 -0.47607,-0.32226c-0.13672,-0.13672 -0.24414,-0.29541 -0.32226,-0.47608c-0.07812,-0.18554 -0.11719,-0.38086 -0.11719,-0.58594v-3.00292c0,-0.20508 0.03906,-0.39795 0.11719,-0.57862c0.07813,-0.18554 0.18555,-0.34424 0.32226,-0.47607c0.13672,-0.13672 0.29541,-0.24414 0.47607,-0.32227c0.18555,-0.08301 0.38086,-0.12451 0.58594,-0.12451h5.09766c0.20508,0 0.39795,0.0415 0.57861,0.12451c0.18555,0.07813 0.34668,0.18555 0.4834,0.32227c0.13672,0.13183 0.24414,0.29053 0.32226,0.47607c0.07813,0.18067 0.11719,0.37354 0.11719,0.57862v1.35498h-1.50146v-1.35498h-5.09766v3.00292h5.09766c0.20508,0 0.39795,0.03907 0.57861,0.11719c0.18555,0.07813 0.34668,0.18555 0.4834,0.32227c0.13672,0.13672 0.24414,0.29785 0.32226,0.4834c0.07813,0.18066 0.11719,0.37353 0.11719,0.57861v2.99561c0,0.20507 -0.03906,0.40039 -0.11719,0.58596c-0.07812,0.1806 -0.18554,0.3393 -0.32226,0.476c-0.13672,0.1368 -0.29785,0.2442 -0.4834,0.3223c-0.18066,0.0781 -0.37353,0.1172 -0.57861,0.1172h-5.24414c-0.20508,0 -0.40039,-0.0391 -0.58594,-0.1172c-0.18067,-0.0781 -0.33936,-0.1855 -0.47608,-0.3223c-0.13672,-0.1367 -0.24414,-0.2954 -0.32227,-0.476c-0.07812,-0.18557 -0.11719,-0.38089 -0.11719,-0.58596v-1.34766h1.50147v1.34766h5.24414v-2.99561zM227.47809,185.40161h-1.4428v-6.35742h-4.021v6.35742h-1.4356v-10.80322h1.4356v4.37988c0.0097,-0.19043 0.0537,-0.36865 0.1318,-0.53467c0.0781,-0.1709 0.1807,-0.31738 0.3076,-0.43945c0.1319,-0.12695 0.2832,-0.22461 0.4541,-0.29297c0.1709,-0.07324 0.354,-0.10986 0.5493,-0.10986h2.5782c0.2002,0 0.3881,0.03906 0.5639,0.11718c0.1758,0.07325 0.3272,0.17579 0.4541,0.30762c0.1319,0.12695 0.2344,0.27832 0.3076,0.4541c0.0782,0.17578 0.1172,0.36377 0.1172,0.56397zM236.62609,183.95874c0,0.20019 -0.0391,0.38818 -0.1172,0.56397c-0.0732,0.1758 -0.1758,0.3296 -0.3076,0.4614c-0.127,0.127 -0.2783,0.2295 -0.4541,0.3076c-0.1709,0.0733 -0.3565,0.1099 -0.5567,0.1099h-3.8745c-0.1953,0 -0.3808,-0.0366 -0.5566,-0.1099c-0.1758,-0.0781 -0.3296,-0.1806 -0.4614,-0.3076c-0.127,-0.1318 -0.2295,-0.2856 -0.3077,-0.4614c-0.0732,-0.17579 -0.1098,-0.36378 -0.1098,-0.56397v-4.91455c0,-0.2002 0.0366,-0.38819 0.1098,-0.56397c0.0782,-0.17578 0.1807,-0.32715 0.3077,-0.4541c0.1318,-0.13183 0.2856,-0.23437 0.4614,-0.30762c0.1758,-0.07812 0.3613,-0.11718 0.5566,-0.11718h3.8745c0.2002,0 0.3858,0.03906 0.5567,0.11718c0.1758,0.07325 0.3271,0.17579 0.4541,0.30762c0.1318,0.12695 0.2344,0.27832 0.3076,0.4541c0.0781,0.17578 0.1172,0.36377 0.1172,0.56397zM231.31599,179.04419v4.91455h3.8745v-4.91455zM239.03579,177.60132h1.4355v6.35742h4.021v-6.35742h1.4429v7.80029h-1.4429v-1.31836c-0.0147,0.18066 -0.0635,0.35156 -0.1465,0.51266c-0.083,0.1612 -0.1904,0.3028 -0.3223,0.4248c-0.1269,0.1172 -0.2734,0.21 -0.4394,0.2784c-0.166,0.0683 -0.3418,0.1025 -0.5274,0.1025h-2.5854c-0.1953,0 -0.3809,-0.0366 -0.5566,-0.1099c-0.1758,-0.0781 -0.3296,-0.1806 -0.4615,-0.3076c-0.1269,-0.1318 -0.2295,-0.2856 -0.3076,-0.4614c-0.0732,-0.17579 -0.1098,-0.36378 -0.1098,-0.56397zM249.77309,174.59839v10.80322h-1.4356v-10.80322zM252.17539,179.04419c0,-0.2002 0.0366,-0.38819 0.1099,-0.56397c0.0781,-0.17578 0.1806,-0.32715 0.3076,-0.4541c0.1318,-0.13183 0.2856,-0.23437 0.4614,-0.30762c0.1758,-0.07812 0.3613,-0.11718 0.5566,-0.11718h4.021v-3.00293h1.4429v10.80322h-1.4429v-1.31836c-0.0146,0.18066 -0.0634,0.35156 -0.1464,0.51266c-0.0831,0.1612 -0.1905,0.3028 -0.3223,0.4248c-0.127,0.1172 -0.2734,0.21 -0.4395,0.2784c-0.166,0.0683 -0.3418,0.1025 -0.5273,0.1025h-2.5855c-0.1953,0 -0.3808,-0.0366 -0.5566,-0.1099c-0.1758,-0.0781 -0.3296,-0.1806 -0.4614,-0.3076c-0.127,-0.1318 -0.2295,-0.2856 -0.3076,-0.4614c-0.0733,-0.17579 -0.1099,-0.36378 -0.1099,-0.56397zM253.61089,183.95874h4.021v-4.91455h-4.021zM268.07629,182.23755h-5.1636v1.72119h5.1636v1.44287h-5.1636c-0.1953,0 -0.3809,-0.0366 -0.5566,-0.1099c-0.1758,-0.0781 -0.3296,-0.1806 -0.4615,-0.3076c-0.1269,-0.1318 -0.2295,-0.2856 -0.3076,-0.4614c-0.0732,-0.17579 -0.1098,-0.36378 -0.1098,-0.56397v-4.91455c0,-0.2002 0.0366,-0.38819 0.1098,-0.56397c0.0781,-0.17578 0.1807,-0.32715 0.3076,-0.4541c0.1319,-0.13183 0.2857,-0.23437 0.4615,-0.30762c0.1757,-0.07812 0.3613,-0.11718 0.5566,-0.11718h3.7207c0.2002,0 0.3882,0.03906 0.564,0.11718c0.1758,0.07325 0.3271,0.17579 0.4541,0.30762c0.1318,0.12695 0.2343,0.27832 0.3076,0.4541c0.0781,0.17578 0.1172,0.36377 0.1172,0.56397zM262.91269,179.04419v1.75049h3.7207v-1.75049zM271.92149,179.04419v6.35742h-1.4356v-7.80029h1.4356v1.37695c0.0098,-0.19043 0.0537,-0.36865 0.1318,-0.53467c0.0782,-0.1709 0.1807,-0.31738 0.3076,-0.43945c0.1319,-0.12695 0.2832,-0.22461 0.4541,-0.29297c0.1709,-0.07324 0.3541,-0.10986 0.5494,-0.10986h1.5307c0.2002,0 0.3858,0.03906 0.5567,0.11718c0.1757,0.07325 0.3296,0.17579 0.4614,0.30762c0.1318,0.12695 0.2344,0.27832 0.3076,0.4541c0.0781,0.17578 0.1172,0.36377 0.1172,0.56397v1.31836h-1.4429v-1.31836zM282.84189,183.95874v-1.80908h-3.4204c-0.2002,0 -0.3882,-0.03662 -0.564,-0.10987c-0.1758,-0.07812 -0.3296,-0.18066 -0.4614,-0.30761c-0.127,-0.13184 -0.2295,-0.28565 -0.3076,-0.46143c-0.0733,-0.17578 -0.1099,-0.36377 -0.1099,-0.56396v-1.6626c0,-0.2002 0.0366,-0.38819 0.1099,-0.56397c0.0781,-0.17578 0.1806,-0.32715 0.3076,-0.4541c0.1318,-0.13183 0.2856,-0.23437 0.4614,-0.30762c0.1758,-0.07812 0.3638,-0.11718 0.564,-0.11718h4.563v1.44287h-4.563v1.6626h3.4204c0.2002,0 0.3857,0.03906 0.5566,0.11718c0.1758,0.07325 0.3296,0.17578 0.4615,0.30762c0.1318,0.12695 0.2343,0.27832 0.3076,0.4541c0.0781,0.17578 0.1172,0.36377 0.1172,0.56397v1.80908c0,0.20019 -0.0391,0.38818 -0.1172,0.56397c-0.0733,0.1758 -0.1758,0.3296 -0.3076,0.4614c-0.1319,0.127 -0.2857,0.2295 -0.4615,0.3076c-0.1709,0.0733 -0.3564,0.1099 -0.5566,0.1099h-4.8633v-1.44287z"/></g></g></svg>