<svg version="1.1" xmlns="http://www.w3.org/2000/svg" xmlns:xlink="http://www.w3.org/1999/xlink" width="86.17373" height="21.29753" viewBox="0,0,86.17373,21.29753"><g transform="translate(-199.35536,-169.35123)"><g data-paper-data="{&quot;isPaintingLayer&quot;:true}" fill-rule="nonzero" stroke-linecap="butt" stroke-linejoin="miter" stroke-miterlimit="10" stroke-dasharray="" stroke-dashoffset="0" style="mix-blend-mode: normal"><path d="M225.5,189.64876c-4.41828,0 -8,-4.78211 -8,-9.55008c0,-4.92009 3.58172,-9.74745 8,-9.74745h29c4.41828,0 8,4.8355 8,9.96674c0,4.69627 -3.58172,9.33079 -8,9.33079z" fill="none" stroke="#ffffff" stroke-width="2"/><g fill="#ffffff" stroke="none" stroke-width="1"><path d="M210.09512,170.35123c0.53964,0 0.97659,0.43213 0.97659,0.96488v4.82438h-0.00965l0.00965,0.00965l-3.90568,3.84986l3.90361,3.86226l0.00276,0.00965v4.81198c0,0.53275 -0.43764,0.96488 -0.97659,0.96488h-9.76386c-0.53964,0 -0.97659,-0.43213 -0.97659,-0.96488l0.00482,-4.81956l-0.00207,-0.00758l3.90293,-3.85675l-3.90568,-3.84986v-0.0193v-4.81473c0,-0.53275 0.43695,-0.96488 0.97659,-0.96488zM205.21353,180.48244l-3.90568,3.85951v2.41219c0,0.53275 0.43764,0.96488 0.97659,0.96488h5.85818c0.53964,0 0.97659,-0.43213 0.97659,-0.96488v-2.41219zM209.11921,175.65806v-2.41219c0,-0.53275 -0.43764,-0.96488 -0.97659,-0.96488h-5.85818c-0.53964,0 -0.97659,0.43213 -0.97659,0.96488v2.41219l3.90568,3.85951z"/><path d="M200.76752,175.48162c0,0 2.57553,1.49763 4.38054,1.45834c2.03107,-0.04411 4.76098,-2.07035 4.76098,-2.07035l-3.71409,4.98772l-1.99936,-0.47072l-3.42807,-3.90568zM204.83172,184.75408c0.19573,-0.2426 0.5679,-0.2426 0.76363,0l2.46388,3.05659h-5.69139z"/><path d="M205.01987,180.28257h0.31772v4.73892h-0.31772z"/></g><path d="M280.9755,172.94353l-5.42561,-0.80123l0.25301,-1.79107l5.42561,0.80124z" fill="#ffffff" stroke="none" stroke-width="1"/><path d="M285.13712,182.70027c-0.62866,4.45081 -4.77358,7.52303 -9.27677,6.858c-4.50325,-0.66502 -7.62861,-4.81087 -6.99993,-9.26168c0.62868,-4.45081 4.78266,-7.52166 9.27682,-6.85797c1.91701,0.28311 3.58677,1.2062 4.83153,2.52368l1.46363,-1.08204c0.40805,0.44423 0.77232,0.93683 1.0967,1.45101l-1.46369,1.08198c0.91741,1.54341 1.33994,3.38849 1.07171,5.28702zM278.53553,177.15431l-1.80854,-0.26711l-0.75896,5.37323l1.80854,0.26711z" fill="#ffffff" stroke="none" stroke-width="1"/></g></g></svg>