<svg version="1.1" xmlns="http://www.w3.org/2000/svg" xmlns:xlink="http://www.w3.org/1999/xlink" width="37.66724" height="42.13784" viewBox="0,0,37.66724,42.13784"><g transform="translate(-221.16638,-160.87639)"><g data-paper-data="{&quot;isPaintingLayer&quot;:true}" fill="#000000" fill-rule="nonzero" stroke="none" stroke-width="1" stroke-linecap="butt" stroke-linejoin="miter" stroke-miterlimit="10" stroke-dasharray="" stroke-dashoffset="0" style="mix-blend-mode: normal"><path d="M244.03969,176.51239c0.23548,0.18061 0.29647,0.50316 0.14909,0.78707l-2.37513,4.28311c-0.14909,0.28372 -0.4591,0.387 -0.73015,0.28372l-2.9579,-1.23851c-0.60648,0.49027 -1.27397,0.90322 -2.00413,1.21272l-0.44555,3.27695c-0.03727,0.30967 -0.28461,0.52895 -0.58108,0.52895h-4.75025c-0.29816,0 -0.53195,-0.21929 -0.59463,-0.52895l-0.44556,-3.27695c-0.73015,-0.30949 -1.38578,-0.72245 -2.00412,-1.21272l-2.95621,1.23851c-0.27275,0.0904 -0.58277,0 -0.73015,-0.28372l-2.37514,-4.28311c-0.13723,-0.25812 -0.07453,-0.60645 0.14739,-0.78707l2.51235,-2.03827c-0.06268,-0.387 -0.08639,-0.81283 -0.08639,-1.21272c0,-0.39989 0.04914,-0.82573 0.11011,-1.21273l-2.51066,-2.03827c-0.24734,-0.18078 -0.29647,-0.51605 -0.14908,-0.78707l2.36327,-4.28312c0.14909,-0.28389 0.45741,-0.38701 0.73015,-0.28389l2.95621,1.23851c0.60648,-0.47722 1.27566,-0.90306 2.00582,-1.21273l0.44385,-3.27678c0.05082,-0.30967 0.28461,-0.52894 0.58277,-0.52894h4.75026c0.29647,0 0.5438,0.21928 0.59463,0.52894l0.44385,3.27678c0.73015,0.30967 1.38578,0.72245 2.00582,1.21273l2.95621,-1.23851c0.27275,-0.09023 0.58108,0 0.73015,0.28389l2.37513,4.28312c0.13553,0.25812 0.07454,0.60627 -0.14908,0.78707l-2.51066,2.03827c0.06098,0.387 0.0864,0.79996 0.0864,1.21273c0,0.42566 -0.02541,0.82572 -0.07454,1.21272zM237.17351,173.2614c0,-2.5545 -2.00412,-4.64433 -4.45379,-4.64433c-2.44967,0 -4.45379,2.08983 -4.45379,4.64433c0,2.55433 2.00412,4.64433 4.45379,4.64433c2.44967,0 4.45379,-2.09 4.45379,-4.64433z"/><path d="M258.60114,193.88021c0.23548,0.18061 0.29647,0.50316 0.14909,0.78707l-2.37514,4.28312c-0.14909,0.28372 -0.4591,0.387 -0.73015,0.28372l-2.9579,-1.23851c-0.60648,0.49027 -1.27397,0.90323 -2.00413,1.21272l-0.44555,3.27695c-0.03727,0.30967 -0.28461,0.52894 -0.58108,0.52894h-4.75025c-0.29816,0 -0.53195,-0.21928 -0.59463,-0.52894l-0.44555,-3.27695c-0.73015,-0.30949 -1.38578,-0.72245 -2.00413,-1.21272l-2.95621,1.23851c-0.27275,0.0904 -0.58277,0 -0.73015,-0.28372l-2.37513,-4.28312c-0.13723,-0.25812 -0.07454,-0.60645 0.14739,-0.78707l2.51236,-2.03827c-0.06268,-0.387 -0.0864,-0.81284 -0.0864,-1.21273c0,-0.39989 0.04914,-0.82572 0.11011,-1.21272l-2.51066,-2.03827c-0.24734,-0.18078 -0.29647,-0.51605 -0.14909,-0.78707l2.36328,-4.28311c0.14909,-0.28389 0.45741,-0.387 0.73015,-0.28389l2.95621,1.23851c0.60648,-0.47722 1.27566,-0.90306 2.00582,-1.21272l0.44385,-3.27678c0.05082,-0.30967 0.28461,-0.52895 0.58277,-0.52895h4.75026c0.29647,0 0.5438,0.21929 0.59463,0.52895l0.44385,3.27678c0.73015,0.30967 1.38578,0.72245 2.00582,1.21272l2.95621,-1.23851c0.27275,-0.09023 0.58108,0 0.73015,0.28389l2.37513,4.28311c0.13552,0.25812 0.07454,0.60627 -0.14908,0.78707l-2.51066,2.03827c0.06099,0.387 0.08639,0.79995 0.08639,1.21272c0,0.42566 -0.0254,0.82573 -0.07453,1.21273zM251.73496,190.62922c0,-2.5545 -2.00413,-4.64433 -4.45379,-4.64433c-2.44967,0 -4.45379,2.08983 -4.45379,4.64433c0,2.55433 2.00412,4.64433 4.45379,4.64433c2.44967,0 4.45379,-2.09 4.45379,-4.64433z"/></g></g></svg>