<svg version="1.1" xmlns="http://www.w3.org/2000/svg" xmlns:xlink="http://www.w3.org/1999/xlink" width="71.07098" height="22.07299" viewBox="0,0,71.07098,22.07299"><g transform="translate(-204.46451,-168.96351)"><g data-paper-data="{&quot;isPaintingLayer&quot;:true}" fill="#000000" fill-rule="nonzero" stroke="#000000" stroke-width="0.5" stroke-linecap="butt" stroke-linejoin="miter" stroke-miterlimit="10" stroke-dasharray="" stroke-dashoffset="0" style="mix-blend-mode: normal"><path d="M204.71451,172.29752c0,-0.42122 0.08022,-0.81739 0.24069,-1.18846c0.16047,-0.38112 0.38112,-0.70706 0.66194,-0.97786c0.28082,-0.28082 0.60677,-0.50147 0.97786,-0.66194c0.3811,-0.1705 0.78227,-0.25575 1.20351,-0.25575h11.70415c0.42125,0 0.81739,0.08525 1.18848,0.25575c0.38112,0.16047 0.71209,0.38112 0.99289,0.66194c0.28082,0.27079 0.50147,0.59674 0.66194,0.97786c0.16047,0.37107 0.24069,0.76724 0.24069,1.18846v2.78314h-3.08401v-2.78314h-11.70415v15.40498h11.70415v-2.76808h3.08401v2.76808c0,0.42122 -0.08022,0.82241 -0.24069,1.20351c-0.16047,0.37109 -0.38112,0.69704 -0.66194,0.97786c-0.2808,0.28082 -0.61176,0.50147 -0.99289,0.66194c-0.37109,0.16047 -0.76724,0.24069 -1.18848,0.24069h-11.70415c-0.42125,0 -0.82241,-0.08022 -1.20351,-0.24069c-0.37109,-0.16047 -0.69704,-0.38112 -0.97786,-0.66194c-0.28082,-0.28082 -0.50147,-0.60677 -0.66194,-0.97786c-0.16047,-0.3811 -0.24069,-0.78229 -0.24069,-1.20351zM241.07578,187.82282c0,0.4112 -0.08034,0.79734 -0.2408,1.15838c-0.15049,0.36105 -0.36119,0.67699 -0.63184,0.94776c-0.2607,0.26077 -0.57164,0.47139 -0.93283,0.63187c-0.351,0.15043 -0.73209,0.22565 -1.14329,0.22565h-7.95821c-0.40124,0 -0.78233,-0.07522 -1.14329,-0.22565c-0.36119,-0.16047 -0.67711,-0.37109 -0.94776,-0.63187c-0.26082,-0.27077 -0.47142,-0.58672 -0.63189,-0.94776c-0.15045,-0.36105 -0.22567,-0.74719 -0.22567,-1.15838v-10.09448c0,-0.4112 0.07522,-0.79731 0.22567,-1.15838c0.16047,-0.36105 0.37107,-0.67194 0.63189,-0.93271c0.27065,-0.27079 0.58657,-0.48139 0.94776,-0.63184c0.36095,-0.16047 0.74205,-0.24069 1.14329,-0.24069h7.95821c0.4112,0 0.79229,0.08022 1.14329,0.24069c0.36119,0.15045 0.67213,0.36105 0.93283,0.63184c0.27065,0.26077 0.48135,0.57167 0.63184,0.93271c0.16045,0.36107 0.2408,0.74719 0.2408,1.15838zM230.16882,177.72837v10.09448h7.95821v-10.09448zM248.97379,177.72837v13.05813h-2.94875v-16.02177h2.94875v2.82825c0.01991,-0.39114 0.11021,-0.75721 0.27065,-1.09821c0.16045,-0.35104 0.37114,-0.65192 0.63184,-0.90263c0.27089,-0.26077 0.58183,-0.46134 0.93283,-0.60177c0.351,-0.15045 0.72711,-0.22565 1.12836,-0.22565h3.14404c0.4112,0 0.79229,0.08022 1.14329,0.24069c0.36119,0.15045 0.67711,0.36105 0.94776,0.63184c0.27089,0.26077 0.48158,0.57167 0.63184,0.93271c0.16068,0.36107 0.2408,0.74719 0.2408,1.15838v2.70791h-2.96368v-2.70791zM275.28549,184.28752h-10.60597v3.53532h10.60597v2.96366h-10.60597c-0.401,0 -0.78233,-0.07522 -1.14329,-0.22565c-0.36095,-0.16047 -0.67687,-0.37109 -0.94776,-0.63187c-0.2607,-0.27077 -0.47139,-0.58672 -0.63184,-0.94776c-0.15049,-0.36105 -0.22562,-0.74719 -0.22562,-1.15838v-10.09448c0,-0.4112 0.07513,-0.79731 0.22562,-1.15838c0.16045,-0.36105 0.37114,-0.67194 0.63184,-0.93271c0.27089,-0.27079 0.58681,-0.48139 0.94776,-0.63184c0.36095,-0.16047 0.74229,-0.24069 1.14329,-0.24069h7.64229c0.4112,0 0.7975,0.08022 1.15845,0.24069c0.36095,0.15045 0.67189,0.36105 0.93283,0.63184c0.27065,0.26077 0.48135,0.57167 0.63184,0.93271c0.16045,0.36107 0.24056,0.74719 0.24056,1.15838zM264.67952,177.72837v3.5955h7.64229v-3.5955z"/></g></g></svg>