<svg version="1.1" xmlns="http://www.w3.org/2000/svg" xmlns:xlink="http://www.w3.org/1999/xlink" width="263.42964" height="22.63965" viewBox="0,0,263.42964,22.63965"><g transform="translate(-240.37177,-168.68018)"><g data-paper-data="{&quot;isPaintingLayer&quot;:true}" fill="#83a837" fill-rule="nonzero" stroke="none" stroke-width="1" stroke-linecap="butt" stroke-linejoin="miter" stroke-miterlimit="10" stroke-dasharray="" stroke-dashoffset="0" style="mix-blend-mode: normal"><path d="M240.37177,169.85476h13.20837v2.36069h-5.42383v14.15266h-2.3607v-14.15266h-5.42384zM258.56641,174.10401v12.26411h-2.26859v-12.26411zM256.18268,169.38262h2.49887v2.36071h-2.49887zM272.18945,176.3726v9.99552h-2.26877v-9.99552h-5.19344v9.99552h-2.25706v-12.26411h2.25706v2.16495c0.01536,-0.29941 0.08446,-0.57964 0.20728,-0.84064c0.12285,-0.2687 0.28406,-0.49901 0.48365,-0.69096c0.20728,-0.1996 0.44526,-0.35313 0.71389,-0.46062c0.26886,-0.11514 0.55658,-0.17274 0.8637,-0.17274h2.92493c0.29952,0 0.58357,0.0576 0.85217,0.17274c0.26886,0.10749 0.50679,0.26102 0.71407,0.46062c0.20728,0.19195 0.37236,0.42226 0.49526,0.69096c0.1305,0.261 0.19942,0.54122 0.20728,0.84064c0.0152,-0.29941 0.08045,-0.57964 0.19575,-0.84064c0.12264,-0.2687 0.28406,-0.49901 0.48347,-0.69096c0.20728,-0.1996 0.44547,-0.35313 0.71407,-0.46062c0.26859,-0.11514 0.55658,-0.17274 0.8637,-0.17274h2.92493c0.31471,0 0.6103,0.06142 0.88676,0.18427c0.27619,0.11514 0.51439,0.27638 0.71381,0.48365c0.20728,0.1996 0.3687,0.43759 0.48373,0.71396c0.1229,0.27638 0.18422,0.57194 0.18422,0.8867v9.99552h-2.26851v-9.99552zM293.80412,181.39338h-8.11863v2.70618h8.11863v2.26856h-8.11863c-0.30685,0 -0.59877,-0.05757 -0.87496,-0.17274c-0.27646,-0.12282 -0.51832,-0.28406 -0.7256,-0.48365c-0.19968,-0.20728 -0.36083,-0.44912 -0.48373,-0.72547c-0.11504,-0.27638 -0.17269,-0.57196 -0.17269,-0.8867v-7.72696c0,-0.31477 0.05765,-0.61033 0.17269,-0.8867c0.1229,-0.27638 0.28406,-0.51437 0.48373,-0.71396c0.20728,-0.20728 0.44914,-0.36851 0.7256,-0.48365c0.27619,-0.12285 0.56811,-0.18427 0.87496,-0.18427h5.85012c0.31471,0 0.6103,0.06142 0.88649,0.18427c0.27646,0.11514 0.51439,0.27638 0.71407,0.48365c0.20728,0.1996 0.36843,0.43759 0.48373,0.71396c0.1229,0.27638 0.18422,0.57194 0.18422,0.8867zM285.68548,176.3726v2.75222h5.85012v-2.75222zM299.84973,176.3726v9.99552h-2.25698v-12.26411h2.25698v2.16495c0.01546,-0.29941 0.08438,-0.57964 0.20728,-0.84064c0.1229,-0.2687 0.28406,-0.49901 0.48373,-0.69096c0.20728,-0.1996 0.44521,-0.35313 0.71407,-0.46062c0.26859,-0.11514 0.55658,-0.17274 0.86343,-0.17274h2.40687c0.31471,0 0.60637,0.06142 0.87523,0.18427c0.27646,0.11514 0.51806,0.27638 0.72534,0.48365c0.20728,0.1996 0.3687,0.43759 0.48373,0.71396c0.1229,0.27638 0.18422,0.57194 0.18422,0.8867v2.07279h-2.26851v-2.07279zM315.4995,169.85476h13.20831v2.36069h-5.42378v14.15266h-2.36075v-14.15266h-5.42378zM333.69397,174.10401v12.26411h-2.26851v-12.26411zM331.31042,169.38262h2.49885v2.36071h-2.49885zM347.31709,176.3726v9.99552h-2.26851v-9.99552h-5.1937v9.99552h-2.25698v-12.26411h2.25698v2.16495c0.01546,-0.29941 0.08438,-0.57964 0.20728,-0.84064c0.1229,-0.2687 0.28406,-0.49901 0.48373,-0.69096c0.20728,-0.1996 0.44521,-0.35313 0.71407,-0.46062c0.26859,-0.11514 0.55658,-0.17274 0.86343,-0.17274h2.92519c0.29925,0 0.58331,0.0576 0.85217,0.17274c0.26859,0.10749 0.50653,0.26102 0.71381,0.46062c0.20728,0.19195 0.37236,0.42226 0.49526,0.69096c0.1305,0.261 0.19942,0.54122 0.20728,0.84064c0.0152,-0.29941 0.08045,-0.57964 0.19575,-0.84064c0.1229,-0.2687 0.28406,-0.49901 0.48373,-0.69096c0.20728,-0.1996 0.44521,-0.35313 0.71381,-0.46062c0.26886,-0.11514 0.55658,-0.17274 0.8637,-0.17274h2.92493c0.31471,0 0.6103,0.06142 0.88676,0.18427c0.27646,0.11514 0.51439,0.27638 0.71407,0.48365c0.20728,0.1996 0.36843,0.43759 0.48347,0.71396c0.1229,0.27638 0.18422,0.57194 0.18422,0.8867v9.99552h-2.26851v-9.99552zM368.93176,181.39338h-8.11837v2.70618h8.11837v2.26856h-8.11837c-0.30712,0 -0.59877,-0.05757 -0.87523,-0.17274c-0.27646,-0.12282 -0.51832,-0.28406 -0.7256,-0.48365c-0.19942,-0.20728 -0.36083,-0.44912 -0.48347,-0.72547c-0.1153,-0.27638 -0.17295,-0.57196 -0.17295,-0.8867v-7.72696c0,-0.31477 0.05765,-0.61033 0.17295,-0.8867c0.12264,-0.27638 0.28406,-0.51437 0.48347,-0.71396c0.20728,-0.20728 0.44914,-0.36851 0.7256,-0.48365c0.27646,-0.12285 0.56811,-0.18427 0.87523,-0.18427h5.84986c0.31471,0 0.6103,0.06142 0.88676,0.18427c0.27619,0.11514 0.51439,0.27638 0.71381,0.48365c0.20728,0.1996 0.3687,0.43759 0.48373,0.71396c0.1229,0.27638 0.18422,0.57194 0.18422,0.8867zM360.81338,176.3726v2.75222h5.84986v-2.75222zM385.66403,189.0858v2.23403h-0.33411c-0.87523,0 -1.66974,-0.1382 -2.38355,-0.41455c-0.71407,-0.2687 -1.32437,-0.65639 -1.83116,-1.16308c-0.49893,-0.49901 -0.88676,-1.10551 -1.16295,-1.81947c-0.26886,-0.71396 -0.40302,-1.50853 -0.40302,-2.38373v-11.078c0,-0.87517 0.13417,-1.66974 0.40302,-2.38371c0.27619,-0.71396 0.66402,-1.32046 1.16295,-1.81947c0.50679,-0.50669 1.11709,-0.89438 1.83116,-1.16308c0.71381,-0.27637 1.50832,-0.41456 2.38355,-0.41456h0.33411v2.24553h-0.33411c-0.53745,0 -1.01725,0.07678 -1.43941,0.23031c-0.42215,0.15356 -0.77932,0.38002 -1.07097,0.67943c-0.29165,0.29173 -0.51806,0.64872 -0.67948,1.07095c-0.15356,0.42226 -0.23034,0.90206 -0.23034,1.43946v11.31981c0,1.09015 0.29559,1.93079 0.88676,2.52193c0.59877,0.5988 1.44334,0.89821 2.53344,0.89821zM391.57154,179.29755c-0.32258,0 -0.62969,-0.06142 -0.92135,-0.18424c-0.28406,-0.13052 -0.53352,-0.29941 -0.7484,-0.50669c-0.21514,-0.21498 -0.38389,-0.46447 -0.50679,-0.74853c-0.1229,-0.29173 -0.18422,-0.5988 -0.18422,-0.92124v-4.7214c0,-0.32244 0.06132,-0.62568 0.18422,-0.90974c0.1229,-0.29171 0.29165,-0.54122 0.50679,-0.7485c0.21488,-0.21496 0.46434,-0.38385 0.7484,-0.50669c0.29165,-0.13051 0.59877,-0.19576 0.92135,-0.19576h8.01487c0.32231,0 0.6255,0.06526 0.90955,0.19576c0.29192,0.12283 0.54505,0.29173 0.76019,0.50669c0.21488,0.20728 0.38363,0.4568 0.50653,0.7485c0.1229,0.28406 0.18422,0.58729 0.18422,0.90974v2.13039h-2.36049v-2.13039h-8.01487v4.7214h8.01487c0.32231,0 0.6255,0.06142 0.90955,0.18424c0.29192,0.12285 0.54505,0.29173 0.76019,0.50669c0.21488,0.21495 0.38363,0.4683 0.50653,0.76003c0.1229,0.28406 0.18422,0.58729 0.18422,0.90974v4.70987c0,0.32244 -0.06132,0.62953 -0.18422,0.92124c-0.1229,0.28406 -0.29165,0.53357 -0.50653,0.74853c-0.21514,0.21495 -0.46827,0.38384 -0.76019,0.50669c-0.28406,0.12282 -0.58724,0.18424 -0.90955,0.18424h-8.2452c-0.32258,0 -0.62969,-0.06142 -0.92135,-0.18424c-0.28406,-0.12285 -0.53352,-0.29173 -0.7484,-0.50669c-0.21514,-0.21495 -0.38389,-0.46447 -0.50679,-0.74853c-0.1229,-0.29171 -0.18422,-0.5988 -0.18422,-0.92124v-2.11886h2.36075v2.11886h8.2452v-4.70987zM416.353,181.39338h-8.11863v2.70618h8.11863v2.26856h-8.11863c-0.30685,0 -0.59877,-0.05757 -0.87496,-0.17274c-0.27646,-0.12282 -0.51832,-0.28406 -0.7256,-0.48365c-0.19968,-0.20728 -0.36083,-0.44912 -0.48373,-0.72547c-0.11504,-0.27638 -0.17269,-0.57196 -0.17269,-0.8867v-7.72696c0,-0.31477 0.05765,-0.61033 0.17269,-0.8867c0.1229,-0.27638 0.28406,-0.51437 0.48373,-0.71396c0.20728,-0.20728 0.44914,-0.36851 0.7256,-0.48365c0.27619,-0.12285 0.56811,-0.18427 0.87496,-0.18427h5.85012c0.31471,0 0.6103,0.06142 0.88649,0.18427c0.27646,0.11514 0.51439,0.27638 0.71407,0.48365c0.20728,0.1996 0.36843,0.43759 0.48373,0.71396c0.1229,0.27638 0.18422,0.57194 0.18422,0.8867zM408.23437,176.3726v2.75222h5.85012v-2.75222zM422.39861,176.3726v7.72696h5.84986v-2.07282h2.26877v2.07282c0,0.31474 -0.06158,0.61033 -0.18422,0.8867c-0.1153,0.27635 -0.27646,0.51819 -0.48373,0.72547c-0.19968,0.1996 -0.43761,0.36083 -0.71407,0.48365c-0.27619,0.11517 -0.57178,0.17274 -0.88676,0.17274h-5.84986c-0.30712,0 -0.59877,-0.05757 -0.87523,-0.17274c-0.27619,-0.12282 -0.51806,-0.28406 -0.72534,-0.48365c-0.19968,-0.20728 -0.36083,-0.44912 -0.48373,-0.72547c-0.11504,-0.27638 -0.17269,-0.57196 -0.17269,-0.8867v-7.72696c0,-0.31477 0.05765,-0.61033 0.17269,-0.8867c0.1229,-0.27638 0.28406,-0.51437 0.48373,-0.71396c0.20728,-0.20728 0.44914,-0.36851 0.72534,-0.48365c0.27646,-0.12285 0.56811,-0.18427 0.87523,-0.18427h5.84986c0.31498,0 0.61056,0.06142 0.88676,0.18427c0.27646,0.11514 0.51439,0.27638 0.71407,0.48365c0.20728,0.1996 0.36843,0.43759 0.48373,0.71396c0.12264,0.27638 0.18422,0.57194 0.18422,0.8867v2.07279h-2.26877v-2.07279zM444.91156,184.09955c0,0.31474 -0.06132,0.61033 -0.18422,0.8867c-0.11504,0.27635 -0.27646,0.51819 -0.48373,0.72547c-0.19942,0.1996 -0.43735,0.36083 -0.71381,0.48365c-0.26886,0.11517 -0.56051,0.17274 -0.87523,0.17274h-6.09173c-0.30712,0 -0.59877,-0.05757 -0.87523,-0.17274c-0.27646,-0.12282 -0.51806,-0.28406 -0.72534,-0.48365c-0.19968,-0.20728 -0.36083,-0.44912 -0.48373,-0.72547c-0.1153,-0.27638 -0.17269,-0.57196 -0.17269,-0.8867v-7.72696c0,-0.31477 0.05739,-0.61033 0.17269,-0.8867c0.1229,-0.27638 0.28406,-0.51437 0.48373,-0.71396c0.20728,-0.20728 0.44888,-0.36851 0.72534,-0.48365c0.27646,-0.12285 0.56811,-0.18427 0.87523,-0.18427h6.09173c0.31471,0 0.60637,0.06142 0.87523,0.18427c0.27646,0.11514 0.51439,0.27638 0.71381,0.48365c0.20728,0.1996 0.3687,0.43759 0.48373,0.71396c0.1229,0.27638 0.18422,0.57194 0.18422,0.8867zM436.56285,176.3726v7.72696h6.09173v-7.72696zM459.54801,186.36812h-2.26851v-9.99552h-6.32206v9.99552h-2.25724v-12.26411h2.25724v2.16495c0.0152,-0.29941 0.08438,-0.57964 0.20728,-0.84064c0.12264,-0.2687 0.28406,-0.49901 0.48347,-0.69096c0.20728,-0.1996 0.44547,-0.35313 0.71407,-0.46062c0.26859,-0.11514 0.55658,-0.17274 0.8637,-0.17274h4.05355c0.31471,0 0.6103,0.06142 0.88649,0.18427c0.27646,0.11514 0.51439,0.27638 0.71407,0.48365c0.20728,0.1996 0.36843,0.43759 0.48373,0.71396c0.12264,0.27638 0.18422,0.57194 0.18422,0.8867zM463.3251,176.3726c0,-0.31477 0.05765,-0.61033 0.17269,-0.8867c0.1229,-0.27638 0.28406,-0.51437 0.48373,-0.71396c0.20728,-0.20728 0.44914,-0.36851 0.72534,-0.48365c0.27646,-0.12285 0.56811,-0.18427 0.87523,-0.18427h6.32206v-4.72138h2.26851v16.98549h-2.26851v-2.07282c-0.02306,0.28406 -0.09984,0.55275 -0.23034,0.8061c-0.1305,0.25334 -0.29925,0.47598 -0.50653,0.6679c-0.19968,0.18427 -0.43001,0.33012 -0.69101,0.43761c-0.261,0.10746 -0.53745,0.16121 -0.82911,0.16121h-4.06508c-0.30712,0 -0.59877,-0.05757 -0.87523,-0.17274c-0.27619,-0.12282 -0.51806,-0.28406 -0.72534,-0.48365c-0.19968,-0.20728 -0.36083,-0.44912 -0.48373,-0.72547c-0.11504,-0.27638 -0.17269,-0.57196 -0.17269,-0.8867zM465.58209,184.09955h6.32206v-7.72696h-6.32206zM485.35432,184.09955v-2.84435h-5.37766c-0.31471,0 -0.6103,-0.05757 -0.88676,-0.17274c-0.27646,-0.12282 -0.51832,-0.28406 -0.7256,-0.48365c-0.19942,-0.20728 -0.36083,-0.44912 -0.48347,-0.72549c-0.1153,-0.27635 -0.17269,-0.57194 -0.17269,-0.88668v-2.61404c0,-0.31477 0.05739,-0.61033 0.17269,-0.8867c0.12264,-0.27638 0.28406,-0.51437 0.48347,-0.71396c0.20728,-0.20728 0.44914,-0.36851 0.7256,-0.48365c0.27646,-0.12285 0.57204,-0.18427 0.88676,-0.18427h7.17423v2.26859h-7.17423v2.61404h5.37766c0.31471,0 0.60663,0.0614 0.87523,0.18424c0.27646,0.11514 0.51832,0.27638 0.7256,0.48365c0.20728,0.1996 0.36843,0.43759 0.48347,0.71396c0.1229,0.27638 0.18422,0.57194 0.18422,0.8867v2.84435c0,0.31474 -0.06132,0.61033 -0.18422,0.8867c-0.11504,0.27635 -0.27619,0.51819 -0.48347,0.72547c-0.20728,0.1996 -0.44914,0.36083 -0.7256,0.48365c-0.26859,0.11517 -0.56051,0.17274 -0.87523,0.17274h-7.64617v-2.26856zM491.0315,189.0858c1.0901,0 1.93074,-0.29941 2.52191,-0.89821c0.59877,-0.59114 0.89829,-1.43178 0.89829,-2.52193v-11.31981c0,-0.5374 -0.07678,-1.0172 -0.23034,-1.43946c-0.15356,-0.42223 -0.37996,-0.77921 -0.67948,-1.07095c-0.29165,-0.29941 -0.64856,-0.52587 -1.07097,-0.67943c-0.42215,-0.15353 -0.90195,-0.23031 -1.43941,-0.23031h-0.33384v-2.24553h0.33384c0.87523,0 1.66974,0.13819 2.38381,0.41456c0.71407,0.2687 1.32044,0.65639 1.81937,1.16308c0.49919,0.49901 0.88282,1.10551 1.15168,1.81947c0.27646,0.71396 0.41455,1.50853 0.41455,2.38371v11.078c0,0.8752 -0.1381,1.66977 -0.41455,2.38373c-0.26886,0.71396 -0.65249,1.32046 -1.15168,1.81947c-0.49893,0.50669 -1.1053,0.89438 -1.81937,1.16308c-0.71407,0.27635 -1.50859,0.41455 -2.38381,0.41455h-0.33384v-2.23403zM500.3592,182.92497h3.4422v3.44315h-3.4422zM500.3592,174.10401h3.4422v3.44317h-3.4422z"/></g></g></svg>