<svg version="1.1" xmlns="http://www.w3.org/2000/svg" xmlns:xlink="http://www.w3.org/1999/xlink" width="72.63673" height="22.26684" viewBox="0,0,72.63673,22.26684"><g transform="translate(-203.88268,-168.86658)"><g data-paper-data="{&quot;isPaintingLayer&quot;:true}" fill="#000000" fill-rule="nonzero" stroke="#000000" stroke-width="0.5" stroke-linecap="butt" stroke-linejoin="miter" stroke-miterlimit="10" stroke-dasharray="" stroke-dashoffset="0" style="mix-blend-mode: normal"><path d="M217.9159,179.84501c0.44272,0.13774 0.84608,0.3345 1.2101,0.59029c0.364,0.2558 0.6739,0.58537 0.92969,0.98872c0.2558,0.39352 0.45255,0.86084 0.59029,1.40194c0.13773,0.5411 0.20658,1.1609 0.20658,1.85939v1.06253c0,3.42366 -1.71181,5.1355 -5.13549,5.1355h-11.58439v-21.16181h10.97933c3.42367,0 5.13551,1.71675 5.13551,5.15025v0.38368c0,1.19043 -0.19184,2.16439 -0.57553,2.92193c-0.37385,0.74769 -0.95923,1.30355 -1.75611,1.66755zM207.09889,181.66016v6.25706h8.52964c0.7969,0 1.37241,-0.18692 1.7266,-0.56078c0.35417,-0.37385 0.53124,-0.95922 0.53124,-1.7561v-1.63805c0,-0.80673 -0.17708,-1.39211 -0.53124,-1.75611c-0.35418,-0.36402 -0.9297,-0.54603 -1.7266,-0.54603zM207.09889,172.6878v6.02093h8.13121c0.72802,-0.0295 1.24943,-0.22628 1.56426,-0.59028c0.32466,-0.37385 0.48698,-0.94446 0.48698,-1.71184v-1.38717c0,-0.80673 -0.17708,-1.39701 -0.53127,-1.77086c-0.35417,-0.37385 -0.9297,-0.56078 -1.72658,-0.56078zM225.08789,184.02133c0,-0.40336 0.07379,-0.77721 0.22137,-1.12154c0.1574,-0.35418 0.364,-0.66409 0.6198,-0.9297c0.26561,-0.26563 0.57553,-0.47224 0.9297,-0.61982c0.35417,-0.1574 0.728,-0.23611 1.12159,-0.23611h7.49663v-3.03999h-9.48889v-2.90714h9.48889c0.40336,0 0.78207,0.07869 1.13638,0.2361c0.35408,0.14758 0.65909,0.35417 0.91482,0.6198c0.26573,0.2558 0.47217,0.56077 0.6198,0.91493c0.1574,0.35418 0.2362,0.73294 0.2362,1.1363v12.80925h-2.90719v-2.6563c-0.02953,0.36402 -0.12786,0.70835 -0.29525,1.03301c-0.16715,0.32466 -0.38359,0.60996 -0.64932,0.85591c-0.25573,0.23611 -0.55075,0.42305 -0.88529,0.56077c-0.33455,0.13774 -0.68861,0.20661 -1.06268,0.20661h-4.60408c-0.3936,0 -0.76743,-0.07379 -1.12159,-0.22134c-0.35417,-0.15741 -0.66409,-0.36402 -0.9297,-0.61982c-0.2558,-0.26561 -0.4624,-0.57553 -0.6198,-0.9297c-0.14758,-0.35417 -0.22137,-0.73295 -0.22137,-1.1363zM227.98035,187.97622h7.49663v-3.95492h-7.49663zM246.13164,178.07417v9.90208h7.49663v-2.6563h2.90719v2.6563c0,0.40336 -0.0788,0.78214 -0.2362,1.1363c-0.14739,0.35417 -0.35408,0.66409 -0.6198,0.9297c-0.25573,0.2558 -0.56074,0.46241 -0.91482,0.61982c-0.3543,0.14756 -0.73301,0.22134 -1.13638,0.22134h-7.49663c-0.3936,0 -0.76743,-0.07379 -1.12149,-0.22134c-0.35431,-0.15741 -0.6642,-0.36402 -0.92969,-0.61982c-0.25596,-0.26561 -0.46241,-0.57553 -0.6198,-0.9297c-0.14763,-0.35417 -0.22133,-0.73295 -0.22133,-1.1363v-9.90208c0,-0.40336 0.0737,-0.78212 0.22133,-1.1363c0.1574,-0.35417 0.36384,-0.65914 0.6198,-0.91493c0.26549,-0.26563 0.5754,-0.47222 0.92969,-0.6198c0.35408,-0.15741 0.7279,-0.2361 1.12149,-0.2361h7.49663c0.40336,0 0.78207,0.07869 1.13638,0.2361c0.35408,0.14758 0.65909,0.35417 0.91482,0.6198c0.26573,0.2558 0.47241,0.56077 0.6198,0.91493c0.1574,0.35418 0.2362,0.73294 0.2362,1.1363v2.6563h-2.90719v-2.6563zM271.77956,190.88342l-7.49663,-6.71451v6.71451h-2.89231v-21.76684h2.89231v12.24845l6.89171,-6.198h4.08774l-8.4412,7.58518l9.04613,8.13121z"/></g></g></svg>