<svg version="1.1" xmlns="http://www.w3.org/2000/svg" xmlns:xlink="http://www.w3.org/1999/xlink" width="538.69704" height="398.64044" viewBox="0,0,538.69704,398.64044"><g transform="translate(29.37813,18.57019)"><g data-paper-data="{&quot;isPaintingLayer&quot;:true}" fill-rule="nonzero" stroke-linejoin="miter" stroke-miterlimit="10" stroke-dasharray="" stroke-dashoffset="0" style="mix-blend-mode: normal"><path d="M-19.73481,359.95593v-378.52612h507.6484v378.52612z" fill="#ffffff" stroke="none" stroke-width="0" stroke-linecap="butt"/><path d="M21.81539,181.34289l18.61965,14.57133l-4.78469,10.08419l-5.43801,7.14625l-5.38292,7.0736l-7.19325,5.65751l-18.61965,-14.57249l2.4412,-7.32164l5.60734,-8.18326l7.08149,-8.49153z" fill-opacity="0.7" fill="#d9d9d9" stroke="none" stroke-width="1" stroke-linecap="butt"/><path d="M107.35977,260.25293l-6.30463,9.10121l-6.38397,7.57476l-6.36538,4.25059l-18.61965,-14.5702l3.57214,-8.49201l5.38269,-7.0736l5.43801,-7.14487l8.40602,-7.25062l18.61965,14.5702z" fill="#d9d9d9" stroke="none" stroke-width="1" stroke-linecap="butt"/><path d="M22.61959,217.96203l10.59161,-13.91879l53.15256,41.59638l-10.59161,13.91879z" fill="#e7e7e7" stroke="none" stroke-width="1" stroke-linecap="butt"/><path d="M40.15572,241.7609l-32.58632,91.69933c-0.66669,1.87586 -3.28787,2.63449 -5.85466,1.69655l-7.34195,-2.68278c-2.56678,-0.93794 -4.10712,-3.21842 -3.44066,-5.09428l32.58655,-91.69933c0.66669,-1.87586 3.28765,-2.63681 5.85443,-1.69886l7.34195,2.68507c2.56678,0.93794 4.10735,3.21842 3.44066,5.09428z" fill="#e7e7e7" stroke="none" stroke-width="1" stroke-linecap="butt"/><path d="M15.24891,244.17703l-12.66888,35.65077l-12.66888,35.65077c-0.66669,1.87586 -3.28765,2.63681 -5.85443,1.69886l-7.34218,-2.68278c-2.56656,-0.93794 -4.10712,-3.22071 -3.44044,-5.09657l25.33776,-71.30152c0.66669,-1.87586 3.28787,-2.63449 5.85443,-1.69655l7.34218,2.68278c2.56678,0.93794 4.10712,3.21842 3.44044,5.09428z" fill="#e7e7e7" stroke="none" stroke-width="1" stroke-linecap="butt"/><path d="M161.33668,277.78866l7.4154,2.46899c2.5933,0.86207 4.19598,3.09657 3.58393,4.99084l-29.96763,92.61429c-0.61296,1.89427 -3.21148,2.73104 -5.80365,1.86668l-7.4154,-2.46668c-2.59217,-0.86207 -4.19689,-3.09886 -3.58393,-4.99313l29.96763,-92.61198c0.61296,-1.89427 3.21148,-2.73104 5.80365,-1.86897z" fill="#e7e7e7" stroke="none" stroke-width="1" stroke-linecap="butt"/><path d="M179.50169,295.23935l7.41495,2.46668c2.59104,0.86438 4.19598,3.09886 3.58393,4.99313l-23.30188,72.01187c-0.61296,1.89427 -3.21148,2.73104 -5.80388,1.86897l-7.41517,-2.46899c-2.5924,-0.86207 -4.19689,-3.09657 -3.58393,-4.99084l11.65083,-36.00708l11.64969,-36.00479c0.61432,-1.89656 3.21216,-2.73104 5.80547,-1.86897z" fill="#e7e7e7" stroke="none" stroke-width="1" stroke-linecap="butt"/><path d="M25.30134,300.46353l8.68691,-26.14846l106.32729,36.32743l-8.68691,26.14846z" fill="#d9d9d9" stroke="none" stroke-width="1" stroke-linecap="butt"/><path d="M-29.37812,281.50219l8.8805,-26.25848l6.82891,2.37514l-8.8805,26.25848z" fill="#d9d9d9" stroke="none" stroke-width="1" stroke-linecap="butt"/><path d="M179.61498,350.86536l8.04516,-26.5339l6.90055,2.15174l-8.04516,26.5339z" fill="#d9d9d9" stroke="none" stroke-width="1" stroke-linecap="butt"/><path d="M398.34346,275.96781l2.86986,-20.31045c0.24936,-1.77703 0.08387,-3.57933 -0.37403,-5.31267c-1.79763,-6.82533 -5.4949,-25.17944 4.35693,-32.57718c8.27182,-6.21153 21.78013,-7.76096 21.78013,-7.76096l67.9677,26.57026c0,0 10.79486,8.12647 12.37487,21.11045c1.66389,13.67823 -16.67966,23.25759 -22.81836,26.06221c-1.29212,0.59082 -2.4981,1.34714 -3.54086,2.31956l-16.77714,15.63457" fill="none" stroke="#d9d9d9" stroke-width="4" stroke-linecap="round"/><path d="M481.0232,329.32228c-5.88481,23.45759 -22.30151,43.99332 -41.07803,45.89448l-32.61126,-12.74949l-35.61486,-13.92192c-10.01959,-13.57479 -8.53932,-40.06918 2.9288,-60.80721c15.40115,-27.84381 42.12759,-38.87377 71.50175,-27.39094c29.37416,11.48283 42.63311,38.03469 34.8736,68.97507z" fill="#eeeeee" stroke="none" stroke-width="1" stroke-linecap="butt"/><path d="M403.26714,294.06234l-1.47347,3.87359l-4.23452,-1.65518l1.47347,-3.87359c0.22215,-0.58621 0.54178,-1.09656 0.95889,-1.52645c0.42164,-0.44367 0.89768,-0.77931 1.42813,-1.0069c0.53272,-0.23909 1.09717,-0.37242 1.69109,-0.39541c0.61432,-0.03448 1.21051,0.06207 1.78856,0.28966l13.4063,5.23911c0.57805,0.22759 1.07677,0.55863 1.49614,0.99541c0.43751,0.42758 0.76847,0.91035 0.99289,1.44599c0.24256,0.52875 0.37177,1.09887 0.3899,1.71725c0.03854,0.60691 -0.0544,1.20459 -0.27656,1.79081l-2.08779,5.48969c-0.22215,0.58621 -0.47604,1.08735 -0.76167,1.50575c-0.28563,0.4184 -0.62339,0.76781 -1.01556,1.04598c-0.37177,0.27357 -0.79794,0.48275 -1.28305,0.6299c-0.48284,0.14712 -1.04276,0.25058 -1.67975,0.30576l-17.31892,1.24139l-1.64802,4.33565l13.94354,5.45061l1.4644,-3.85289l4.23452,1.65518l-3.09655,8.14717l-22.41259,-8.76097l3.00134,-7.89659c0.22442,-0.58621 0.47831,-1.08735 0.76394,-1.50575c0.29923,-0.4138 0.63472,-0.75403 1.00649,-1.02528c0.37177,-0.27357 0.80021,-0.48275 1.28305,-0.6299c0.50098,-0.15632 1.05636,-0.26207 1.66162,-0.31265l17.34612,-1.25517l2.36435,-6.22302zM442.29363,330.51538c-0.97022,2.4276 -2.27141,4.02071 -3.90356,4.77703c-1.62762,0.74254 -3.64513,0.64368 -6.05482,-0.29884l-7.9522,-3.10807c-4.80577,-1.87817 -6.28604,-5.24831 -4.43854,-10.10811l0.6846,-1.80001l4.15291,1.62299l-0.60526,1.5908c-0.43071,1.13103 -0.49871,2.05977 -0.20402,2.78393c0.29243,0.72415 1.00423,1.30805 2.1354,1.74944l7.68244,3.00232c1.1289,0.44138 2.04245,0.49425 2.74065,0.15632c0.6982,-0.33563 1.26038,-1.06897 1.69109,-2.2l1.53694,-4.0437c0.43071,-1.13103 0.49418,-2.05288 0.19495,-2.76323c-0.29243,-0.72415 -1.00423,-1.30577 -2.13313,-1.74713l-14.17023,-5.54026l5.78733,-15.22766l20.73963,8.1058l-1.63215,4.29428l-16.50511,-6.45062l-2.56384,6.74486l10.08079,3.94026c2.42329,0.94712 3.99877,2.25289 4.72643,3.91727c0.7322,1.64829 0.63019,3.71037 -0.31056,6.18163z" fill="#d9d9d9" stroke="none" stroke-width="1" stroke-linecap="butt"/><path d="M0.00003,37.08435v-33.6322h480v33.6322z" fill="#0693a9" stroke="none" stroke-width="1" stroke-linecap="butt"/><path d="M0.00003,33.08435v-33.6322h480v33.6322z" fill="#22ebed" stroke="none" stroke-width="1" stroke-linecap="butt"/><path d="M38.82417,13.30793c1.18155,0 2.13932,0.97134 2.13932,2.16951c0,1.19819 -0.95778,2.16951 -2.13932,2.16951zM38.82417,17.64694h-25.30948v-4.33902h25.30948z" fill="#ffffff" stroke="none" stroke-width="1" stroke-linecap="butt"/><path d="M21.57874,22.75993c0,0 -9.99984,-6.48176 -9.99471,-7.25246c0.00492,-0.77069 9.99684,-7.77888 9.99684,-7.77888" fill="none" stroke="#ffffff" stroke-width="5" stroke-linecap="round"/></g></g></svg>