<svg version="1.1" xmlns="http://www.w3.org/2000/svg" xmlns:xlink="http://www.w3.org/1999/xlink" width="113.49" height="29.45322" viewBox="0,0,113.49,29.45322"><g transform="translate(-183.255,-165.27341)"><g data-paper-data="{&quot;isPaintingLayer&quot;:true}" fill-rule="nonzero" stroke="none" stroke-width="1" stroke-linecap="butt" stroke-linejoin="miter" stroke-miterlimit="10" stroke-dasharray="" stroke-dashoffset="0" style="mix-blend-mode: normal"><path d="M296.74501,168.33465v23.33074c0,1.69062 -0.672,3.06124 -1.5,3.06124h-110.49c-0.82843,0 -1.5,-1.37062 -1.5,-3.06124v-23.33074c0,-1.69068 0.67157,-3.06124 1.5,-3.06124h110.49c0.828,0 1.5,1.37056 1.5,3.06124z" fill="#ffad4e"/><path d="M211.29035,181.15544c-0.31241,0 -0.61334,-0.05975 -0.89588,-0.1792c-0.27795,-0.12864 -0.52145,-0.29171 -0.73049,-0.49386c-0.20904,-0.20904 -0.37214,-0.45254 -0.49389,-0.73049c-0.11945,-0.28255 -0.17918,-0.58118 -0.17918,-0.89588v-4.59885c0,-0.31471 0.05973,-0.60876 0.17918,-0.88672c0.12175,-0.28485 0.28485,-0.52604 0.49389,-0.72819c0.20904,-0.20904 0.45254,-0.37441 0.73049,-0.49386c0.28255,-0.12634 0.58347,-0.19069 0.89588,-0.19069h7.80798c0.31241,0 0.60874,0.06434 0.8844,0.19069c0.28485,0.11945 0.53294,0.28482 0.74198,0.49386c0.20904,0.20215 0.37443,0.44335 0.49389,0.72819c0.11945,0.27795 0.17918,0.57201 0.17918,0.88672v2.07432h-2.29944v-2.07432h-7.80798v4.59885h7.80798c0.31241,0 0.60874,0.05975 0.8844,0.1792c0.28485,0.11945 0.53294,0.28482 0.74198,0.49386c0.20904,0.20904 0.37443,0.45483 0.49389,0.73968c0.11945,0.27566 0.17918,0.57199 0.17918,0.8867v4.58741c0,0.31473 -0.05973,0.61336 -0.17918,0.89591c-0.11945,0.27795 -0.28485,0.52145 -0.49389,0.73049c-0.20904,0.20904 -0.45713,0.37443 -0.74198,0.49389c-0.27566,0.11945 -0.57199,0.17918 -0.8844,0.17918h-8.0308c-0.31471,0 -0.61334,-0.05973 -0.89818,-0.17918c-0.27566,-0.11945 -0.51915,-0.28485 -0.72819,-0.49389c-0.20904,-0.20904 -0.37443,-0.45254 -0.49389,-0.73049c-0.11945,-0.28255 -0.17918,-0.58118 -0.17918,-0.89591v-2.06515h2.29944v2.06515h8.0308v-4.58741zM224.62754,176.09714h2.91737v-3.68002h2.20755v3.68002h3.92581v2.20987h-3.92581v7.52543h3.92581v2.20987h-3.92581c-0.29863,0 -0.58118,-0.05743 -0.85224,-0.16769c-0.26877,-0.11945 -0.50307,-0.27795 -0.70522,-0.47091c-0.20215,-0.20215 -0.36295,-0.43875 -0.4824,-0.70752c-0.11256,-0.26877 -0.16769,-0.5582 -0.16769,-0.86375v-7.52543h-2.91737zM237.36978,182.82546c0,-0.30552 0.05513,-0.59036 0.16769,-0.85224c0.11945,-0.26877 0.27795,-0.50305 0.47091,-0.7052c0.20215,-0.20215 0.43875,-0.36065 0.70752,-0.47091c0.26877,-0.12175 0.55361,-0.1815 0.85224,-0.1815h5.69691v-2.3086h-7.21072v-2.20987h7.21072c0.30782,0 0.59496,0.05973 0.86372,0.17918c0.27106,0.11256 0.50078,0.26879 0.69603,0.47094c0.20215,0.19296 0.35835,0.42495 0.47091,0.69601c0.11945,0.26877 0.17918,0.55593 0.17918,0.86375v9.7353h-2.20985v-2.01919c-0.02067,0.27566 -0.09648,0.53753 -0.22282,0.78562c-0.12864,0.24579 -0.29174,0.46402 -0.49389,0.65009c-0.19526,0.17918 -0.41808,0.3216 -0.67306,0.42497c-0.25498,0.10567 -0.52375,0.1585 -0.80859,0.1585h-3.49854c-0.29863,0 -0.58347,-0.05743 -0.85224,-0.16769c-0.26877,-0.11945 -0.50537,-0.27795 -0.70752,-0.47091c-0.19296,-0.20215 -0.35146,-0.43875 -0.47091,-0.70752c-0.11256,-0.26877 -0.16769,-0.5582 -0.16769,-0.86375zM239.56814,185.83244h5.69691v-3.00698h-5.69691zM253.36476,178.30701v9.7353h-2.19836v-11.94517h2.19836v2.10877c0.01378,-0.29174 0.0827,-0.56507 0.20215,-0.82006c0.11945,-0.26187 0.27566,-0.4847 0.47091,-0.67306c0.20215,-0.19296 0.43416,-0.34459 0.69374,-0.44797c0.26187,-0.11256 0.54212,-0.16769 0.84305,-0.16769h2.34308c0.30782,0 0.59036,0.05973 0.85224,0.17918c0.26877,0.11256 0.50537,0.26879 0.70752,0.47094c0.20215,0.19296 0.35835,0.42495 0.47091,0.69601c0.11945,0.26877 0.17918,0.55593 0.17918,0.86375v2.01687h-2.20985v-2.01687zM262.18118,176.09714h2.91507v-3.68002h2.20985v3.68002h3.92581v2.20987h-3.92581v7.52543h3.92581v2.20987h-3.92581c-0.29863,0 -0.58347,-0.05743 -0.85224,-0.16769c-0.26877,-0.11945 -0.50537,-0.27795 -0.70752,-0.47091c-0.20215,-0.20215 -0.36295,-0.43875 -0.4824,-0.70752c-0.11026,-0.26877 -0.16769,-0.5582 -0.16769,-0.86375v-7.52543h-2.91507z" fill="#ffffff"/></g></g></svg>