<svg version="1.1" xmlns="http://www.w3.org/2000/svg" xmlns:xlink="http://www.w3.org/1999/xlink" width="156.96646" height="24.67371" viewBox="0,0,156.96646,24.67371"><g transform="translate(-161.56054,-167.60053)"><g data-paper-data="{&quot;isPaintingLayer&quot;:true}" fill-rule="nonzero" stroke="none" stroke-width="1" stroke-linecap="butt" stroke-linejoin="miter" stroke-miterlimit="10" stroke-dasharray="" stroke-dashoffset="0" style="mix-blend-mode: normal"><path d="M318.527,171.05123v17.77236c0,1.90578 -1.212,3.45065 -2.706,3.45065h-151.55413c-1.49466,0 -2.70633,-1.54488 -2.70633,-3.45065v-17.77236c0,-1.90576 1.21167,-3.4507 2.70633,-3.4507h151.55413c1.494,0 2.706,1.54493 2.706,3.4507z" fill="#bee371"/><g fill="#000000"><path d="M206.06368,176.25402c0,-0.21027 0.03855,-0.40607 0.11831,-0.59216c0.08209,-0.18852 0.19077,-0.35284 0.33067,-0.48577c0.14009,-0.14019 0.30194,-0.25139 0.48539,-0.33115c0.19077,-0.08459 0.39117,-0.12808 0.60138,-0.12808h5.82433c0.21004,0 0.40562,0.04349 0.59157,0.12808c0.18845,0.07977 0.35262,0.19096 0.49271,0.33115c0.13991,0.13293 0.25108,0.29725 0.33067,0.48577c0.07977,0.18609 0.11831,0.38189 0.11831,0.59216v1.38729h-1.53326v-1.38729h-5.82433v7.67358h5.82433v-1.37747h1.53326v1.37747c0,0.2104 -0.03855,0.41098 -0.11831,0.59942c-0.07959,0.18613 -0.19077,0.34816 -0.33067,0.48825c-0.14009,0.14026 -0.30426,0.24894 -0.49271,0.32871c-0.18595,0.07977 -0.38153,0.12081 -0.59157,0.12081h-5.82433c-0.21022,0 -0.41062,-0.04104 -0.60138,-0.12081c-0.18345,-0.07977 -0.34531,-0.18845 -0.48539,-0.32871c-0.13991,-0.14009 -0.24858,-0.30212 -0.33067,-0.48825c-0.07977,-0.18845 -0.11831,-0.38903 -0.11831,-0.59942zM224.15964,183.98809c0,0.2054 -0.04104,0.39634 -0.12063,0.57765c-0.07495,0.17881 -0.17881,0.33603 -0.3139,0.47129c-0.13045,0.13045 -0.28499,0.23449 -0.46362,0.31425c-0.17399,0.07495 -0.36476,0.1135 -0.56998,0.1135h-3.96021c-0.2004,0 -0.38867,-0.03855 -0.5698,-0.1135c-0.17863,-0.07977 -0.33567,-0.18381 -0.47094,-0.31425c-0.13027,-0.13527 -0.23413,-0.29248 -0.3139,-0.47129c-0.07477,-0.18131 -0.1135,-0.37225 -0.1135,-0.57765v-5.02957c0,-0.20303 0.03872,-0.39636 0.1135,-0.57521c0.07977,-0.18127 0.18363,-0.33597 0.3139,-0.46649c0.13527,-0.13293 0.2923,-0.23925 0.47094,-0.31417c0.18113,-0.07977 0.3694,-0.11842 0.5698,-0.11842h3.96021c0.20522,0 0.39599,0.03865 0.56998,0.11842c0.17863,0.07491 0.33317,0.18124 0.46362,0.31417c0.13509,0.13052 0.23895,0.28522 0.3139,0.46649c0.07959,0.17884 0.12063,0.37218 0.12063,0.57521zM218.7313,178.95851v5.02957h3.96021v-5.02957zM233.67615,185.46478h-1.47527v-6.50627h-4.10994v6.50627h-1.46813v-7.98055h1.46813v1.4066c0.00964,-0.19335 0.0555,-0.37703 0.13527,-0.54621c0.07959,-0.17403 0.18345,-0.32384 0.3139,-0.44952c0.13509,-0.13052 0.28963,-0.22963 0.46362,-0.29971c0.17381,-0.07493 0.36208,-0.11116 0.56266,-0.11116h2.63449c0.20522,0 0.39599,0.03865 0.57711,0.11842c0.17863,0.07491 0.33317,0.18124 0.46362,0.31417c0.13509,0.13052 0.23895,0.28522 0.3139,0.46649c0.07959,0.17884 0.12063,0.37218 0.12063,0.57521zM235.66839,177.48423h1.9462v-2.45802h1.47544v2.45802h2.62004v1.47428h-2.62004v5.02957h2.62004v1.47669h-2.62004c-0.2004,0 -0.39117,-0.03855 -0.5698,-0.1135c-0.17881,-0.07977 -0.33817,-0.18381 -0.47094,-0.31425c-0.13527,-0.13527 -0.24394,-0.29248 -0.32353,-0.47129c-0.07495,-0.18131 -0.11118,-0.37225 -0.11118,-0.57765v-5.02957h-1.9462zM245.72346,177.48423v7.98055h-1.47544v-7.98055zM244.17307,174.40992h1.62517v1.53715h-1.62517zM255.31474,185.46478h-1.47544v-6.50627h-4.11226v6.50627h-1.46581v-7.98055h1.46581v1.4066c0.01196,-0.19335 0.0555,-0.37703 0.13527,-0.54621c0.07959,-0.17403 0.18595,-0.32384 0.31622,-0.44952c0.13295,-0.13052 0.28749,-0.22963 0.46362,-0.29971c0.17399,-0.07493 0.36226,-0.11116 0.56034,-0.11116h2.63681c0.2029,0 0.39599,0.03865 0.57479,0.11842c0.18113,0.07491 0.33567,0.18124 0.46594,0.31417c0.13527,0.13052 0.23913,0.28522 0.3139,0.46649c0.07977,0.17884 0.12081,0.37218 0.12081,0.57521zM257.7706,177.48423h1.46563v6.50386h4.10994v-6.50386h1.47544v7.98055h-1.47544v-1.34856c-0.01445,0.18363 -0.06282,0.35762 -0.14972,0.52447c-0.08459,0.16435 -0.19309,0.30944 -0.32835,0.43257c-0.13045,0.12081 -0.28017,0.21521 -0.44916,0.28517c-0.16899,0.07013 -0.35012,0.10636 -0.53857,0.10636h-2.64413c-0.1979,0 -0.38867,-0.03855 -0.56748,-0.1135c-0.18113,-0.07977 -0.33799,-0.18381 -0.47326,-0.31425c-0.12795,-0.13527 -0.23413,-0.29248 -0.3139,-0.47129c-0.07477,-0.18131 -0.111,-0.37225 -0.111,-0.57765zM274.02422,182.22623h-5.27862v1.76186h5.27862v1.47669h-5.27862c-0.2004,0 -0.38885,-0.03855 -0.56998,-0.1135c-0.17863,-0.07977 -0.33567,-0.18381 -0.47076,-0.31425c-0.13045,-0.13527 -0.23431,-0.29248 -0.31408,-0.47129c-0.07477,-0.18131 -0.11332,-0.37225 -0.11332,-0.57765v-5.02957c0,-0.20303 0.03855,-0.39636 0.11332,-0.57521c0.07977,-0.18127 0.18363,-0.33597 0.31408,-0.46649c0.13509,-0.13293 0.29213,-0.23925 0.47076,-0.31417c0.18113,-0.07977 0.36957,-0.11842 0.56998,-0.11842h3.80318c0.20522,0 0.39599,0.03865 0.57711,0.11842c0.17863,0.07491 0.33317,0.18124 0.46362,0.31417c0.13527,0.13052 0.23913,0.28522 0.3139,0.46649c0.07977,0.17884 0.12081,0.37218 0.12081,0.57521zM268.7456,178.95851v1.79102h3.80318v-1.79102z"/><path d="M206.35081,175.73199l-0.0025,0.00239l-0.1665,-0.07251zM206.64062,175.30418l-0.0025,0.00243l-0.12545,-0.1305zM213.94521,175.01174l-0.00732,-0.00241l0.07727,-0.16435zM214.38224,175.30661l-0.00232,-0.00243l0.12795,-0.12808zM215.13816,177.64132v0.18129h-0.18113v-0.18129zM213.42359,177.82261h-0.18113v-0.18129h0.18113zM213.42359,176.07274h0.18113v0.18129h-0.18113zM207.41814,176.25403v-0.18129h0.18113v0.18129zM207.59926,184.1089h-0.18113v-0.18131h0.18113zM213.60472,183.92759v0.18131h-0.18113v-0.18131zM213.24246,182.55012v-0.18131h0.18113v0.18131zM214.95703,182.36881h0.18113v0.18131h-0.18113zM215.00521,184.59714v0.0025l-0.1665,-0.07263zM206.01764,184.59964l-0.0025,-0.0025l0.16667,-0.07013zM205.88237,176.25403c0,-0.23443 0.04336,-0.45439 0.13527,-0.66466l0.33067,0.14501c-0.06995,0.16193 -0.10368,0.33356 -0.10368,0.51965zM206.01514,175.5918c0.0894,-0.21027 0.21254,-0.39395 0.37189,-0.54621l0.25108,0.26102c-0.12063,0.11601 -0.21735,0.25619 -0.28731,0.42538zM206.38454,175.04798c0.15704,-0.15709 0.33817,-0.28035 0.54339,-0.36979l0.1424,0.33355c-0.16418,0.07008 -0.30658,0.16919 -0.42971,0.29245zM206.92561,174.68064c0.21236,-0.09669 0.43703,-0.14501 0.67366,-0.14501v0.36253c-0.18595,0 -0.36226,0.03865 -0.52893,0.11358zM207.59926,174.53563h5.82433v0.36253h-5.82433zM213.42359,174.53563c0.23431,0 0.45648,0.04832 0.66652,0.14501l-0.15222,0.32869c-0.15936,-0.07251 -0.33085,-0.11118 -0.5143,-0.11118zM214.08529,174.67819c0.21004,0.08944 0.39349,0.2127 0.55053,0.36979l-0.2559,0.2562c-0.12081,-0.12326 -0.26572,-0.21994 -0.43471,-0.29245zM214.63332,175.04559c0.15936,0.15226 0.28267,0.33594 0.37189,0.54621l-0.33317,0.14019c-0.07245,-0.16919 -0.16899,-0.30936 -0.28981,-0.42538zM215.00521,175.58937c0.0894,0.21027 0.13295,0.43023 0.13295,0.66466h-0.36226c0,-0.18609 -0.03391,-0.36012 -0.10386,-0.52204zM215.13816,176.25403v1.38729h-0.36226v-1.38729zM214.95703,177.82261h-1.53344v-0.36256h1.53344zM213.24246,177.64132v-1.38729h0.36226v1.38729zM213.42359,176.43531h-5.82433v-0.36256h5.82433zM207.78039,176.25403v7.67356h-0.36226v-7.67356zM207.59926,183.74646h5.82433v0.36244h-5.82433zM213.24246,183.92759v-1.37747h0.36226v1.37747zM213.42359,182.36881h1.53344v0.36244h-1.53344zM215.13816,182.55012v1.37747h-0.36226v-1.37747zM215.13816,183.92759c0,0.23449 -0.04354,0.45684 -0.13295,0.66955l-0.33317,-0.14009c0.06995,-0.16685 0.10386,-0.34334 0.10386,-0.52947zM215.00521,184.59964c-0.08923,0.2054 -0.21236,0.38671 -0.3694,0.54374l-0.2559,-0.25626c0.12313,-0.12313 0.22217,-0.26821 0.29213,-0.43257zM214.63582,185.14339c-0.15704,0.15704 -0.34049,0.28035 -0.55053,0.36743l-0.14009,-0.33353c0.16899,-0.07013 0.3139,-0.16917 0.43471,-0.29016zM214.08529,185.51082c-0.20772,0.0894 -0.42989,0.13527 -0.6617,0.13527v-0.36244c0.18595,0 0.35976,-0.03623 0.52162,-0.10636zM213.42359,185.64609h-5.82433v-0.36244h5.82433zM207.59926,185.64609c-0.23431,0 -0.4588,-0.04586 -0.67134,-0.13527l0.1424,-0.33353c0.16667,0.07013 0.34049,0.10636 0.52893,0.10636zM206.92793,185.51082c-0.20522,-0.0894 -0.38635,-0.21272 -0.54339,-0.36743l0.25608,-0.25626c0.12313,0.12331 0.26554,0.22003 0.42971,0.29016zM206.38454,185.14339c-0.15686,-0.15704 -0.27999,-0.33835 -0.3669,-0.54374l0.33067,-0.14508c0.07245,0.16435 0.16917,0.30944 0.2923,0.43257zM206.01514,184.59714c-0.0894,-0.21272 -0.13277,-0.43507 -0.13277,-0.66955h0.36226c0,0.18613 0.03373,0.36262 0.10618,0.52947zM205.88237,183.92759v-7.67356h0.36226v7.67356zM223.87215,184.4956l0.0025,-0.00482l0.16418,0.07495zM218.09369,185.51796h-0.00482l0.07245,-0.16667zM217.56493,185.16748l-0.00482,-0.00482l0.13027,-0.12563zM217.20999,184.63819v-0.00482l0.1665,-0.06763zM217.20999,178.31321v-0.00484l0.1665,0.07495zM218.23627,177.76943h-0.005l-0.06995,-0.16676zM223.19118,177.76943l-0.00482,-0.00243l0.07495,-0.16434zM223.5993,178.04735l-0.00482,-0.00484l0.13045,-0.12568zM223.87465,178.45583l-0.0025,-0.00244l0.16667,-0.07006zM218.55017,178.95853v-0.18127h0.18113v0.18127zM218.7313,184.16939h-0.18113v-0.18131h0.18113zM222.87246,183.98809v0.18131h-0.18113v-0.18131zM222.69134,178.77726h0.18113v0.18127h-0.18113zM224.34059,183.98809c0,0.22967 -0.04586,0.4472 -0.13509,0.6501l-0.33085,-0.1474c0.06763,-0.15472 0.10386,-0.32139 0.10386,-0.5027zM224.20782,184.63337c-0.08441,0.20308 -0.2029,0.37957 -0.35494,0.53179l-0.2559,-0.25626c0.11831,-0.11831 0.21004,-0.25608 0.27517,-0.4133zM223.85288,185.16516c-0.14722,0.1474 -0.32121,0.2634 -0.52162,0.3528l-0.1449,-0.33103c0.16186,-0.07245 0.29712,-0.16435 0.41062,-0.27803zM223.33127,185.51796c-0.1979,0.08459 -0.41294,0.12813 -0.63993,0.12813v-0.36244c0.18363,0 0.3478,-0.03391 0.49753,-0.09922zM222.69134,185.64609h-3.96004v-0.36244h3.96004zM218.7313,185.64609c-0.22217,0 -0.43721,-0.04354 -0.63761,-0.12813l0.13759,-0.33353c0.15704,0.06531 0.32371,0.09922 0.50002,0.09922zM218.08887,185.51796c-0.1979,-0.0894 -0.37421,-0.2054 -0.52394,-0.35048l0.25108,-0.2609c0.11831,0.1135 0.2584,0.2079 0.42026,0.28035zM217.56012,185.16266c-0.1449,-0.14972 -0.2609,-0.32621 -0.35012,-0.52447l0.33067,-0.1474c0.07245,0.16203 0.16667,0.30212 0.28017,0.42061zM217.20999,184.63337c-0.08459,-0.2029 -0.12813,-0.41811 -0.12813,-0.64528h0.36226c0,0.18131 0.03391,0.35048 0.09904,0.50752zM217.08186,183.98809v-5.02955h0.36226v5.02955zM217.08186,178.95853c0,-0.22719 0.04354,-0.44229 0.12813,-0.64532l0.33317,0.13778c-0.06514,0.15709 -0.09904,0.32626 -0.09904,0.50754zM217.20999,178.30838c0.08923,-0.19817 0.20522,-0.37218 0.35244,-0.51962l0.25608,0.2562c-0.1135,0.11358 -0.2054,0.25135 -0.27785,0.41087zM217.56244,177.78876c0.15222,-0.15226 0.32853,-0.26827 0.53125,-0.35285l0.13759,0.33353c-0.15686,0.06767 -0.29445,0.15952 -0.41276,0.27553zM218.08887,177.4383c0.2029,-0.09183 0.41776,-0.13534 0.64243,-0.13534v0.36254c-0.17399,0 -0.33817,0.03383 -0.49503,0.10393zM218.7313,177.30296h3.96004v0.36254h-3.96004zM222.69134,177.30296c0.22949,0 0.44435,0.04351 0.64475,0.13534l-0.14972,0.32871c-0.14972,-0.06767 -0.3139,-0.1015 -0.49503,-0.1015zM223.33127,177.43591c0.2004,0.08459 0.37671,0.20303 0.52411,0.35528l-0.2609,0.25133c-0.111,-0.11601 -0.24626,-0.20542 -0.4033,-0.27309zM223.85038,177.78637c0.15454,0.14985 0.27303,0.32384 0.35744,0.52684l-0.33567,0.14017c-0.06514,-0.15709 -0.15686,-0.29243 -0.27285,-0.40603zM224.2055,178.30838c0.08923,0.20545 0.13509,0.42297 0.13509,0.65016h-0.36208c0,-0.17886 -0.03623,-0.34561 -0.10386,-0.5027zM224.34059,178.95853v5.02955h-0.36208v-5.02955zM218.91225,178.95853v5.02955h-0.36208v-5.02955zM218.7313,183.80678h3.96004v0.36262h-3.96004zM222.51021,183.98809v-5.02955h0.36226v5.02955zM222.69134,179.13982h-3.96004v-0.36256h3.96004zM233.8571,185.46478v0.18131h-0.18095v-0.18131zM232.2007,185.64609h-0.18113v-0.18131h0.18113zM232.2007,178.77726h0.18113v0.18127h-0.18113zM227.90964,178.95853v-0.18127h0.18113v0.18127zM228.2719,185.46478v0.18131h-0.18113v-0.18131zM226.62264,185.64609h-0.18113v-0.18131h0.18113zM226.44151,177.48425v-0.18129h0.18113v0.18129zM228.09077,177.30296h0.18113v0.18129h-0.18113zM228.2719,178.90055l-0.36226,-0.00971h0.18113zM228.39021,178.41957l-0.0025,0.00241l-0.16168,-0.07734zM229.076,177.76217l-0.00482,0.00243l-0.06763,-0.16919zM232.70769,177.76943h-0.00482l0.07495,-0.16676zM233.11581,178.04735l-0.00482,-0.00484l0.13045,-0.12568zM233.39116,178.45583l-0.0025,-0.00244l0.16667,-0.07006zM233.67615,185.64609h-1.47544v-0.36244h1.47544zM232.01957,185.46478v-6.50625h0.36226v6.50625zM232.2007,179.13982h-4.10994v-0.36256h4.10994zM228.2719,178.95853v6.50625h-0.36226v-6.50625zM228.09077,185.64609h-1.46813v-0.36244h1.46813zM226.44151,185.46478v-7.98053h0.36226v7.98053zM226.62264,177.30296h1.46813v0.36254h-1.46813zM228.2719,177.48425v1.4066h-0.36226v-1.4066zM227.90964,178.88362c0.01213,-0.21752 0.06032,-0.42297 0.15222,-0.61632l0.32585,0.15468c-0.06745,0.14742 -0.10868,0.30697 -0.11582,0.47857zM228.05936,178.26974c0.0894,-0.19335 0.20772,-0.36254 0.35494,-0.50515l0.25126,0.26104c-0.1135,0.10875 -0.2054,0.23925 -0.27535,0.39393zM228.4143,177.7646c0.15222,-0.14501 0.32603,-0.2586 0.52162,-0.33836l0.13527,0.33836c-0.15222,0.06042 -0.28731,0.14744 -0.40562,0.26104zM228.9336,177.42864c0.1979,-0.0846 0.40794,-0.12568 0.63261,-0.12568v0.36254c-0.17631,0 -0.34049,0.03141 -0.49021,0.09667zM229.56621,177.30296h2.63449v0.36254h-2.63449zM232.2007,177.30296c0.22931,0 0.44667,0.04351 0.64957,0.13534l-0.1474,0.33114c-0.15454,-0.0701 -0.32104,-0.10393 -0.50216,-0.10393zM232.84777,177.43591c0.2004,0.08459 0.37671,0.20303 0.52411,0.35528l-0.2609,0.25133c-0.111,-0.11601 -0.24626,-0.20542 -0.4033,-0.27309zM233.36707,177.78637c0.15454,0.14985 0.27285,0.32384 0.35494,0.52684l-0.33335,0.14017c-0.06514,-0.15709 -0.15686,-0.29243 -0.27285,-0.40603zM233.72201,178.30838c0.08923,0.20545 0.13509,0.42297 0.13509,0.65016h-0.36208c0,-0.17886 -0.03623,-0.34561 -0.10386,-0.5027zM233.8571,178.95853v6.50625h-0.36208v-6.50625zM235.48708,177.48425v-0.18129h0.18113v0.18129zM237.79554,177.48425v0.18125h-0.18095v-0.18125zM237.43346,175.02623v-0.18125h0.18113v0.18125zM239.08986,174.84497h0.18113v0.18125h-0.18113zM239.08986,177.6655h-0.18095v-0.18125h0.18095zM241.70989,177.30296h0.18113v0.18129h-0.18113zM241.89102,178.95853v0.18129h-0.18113v-0.18129zM238.9089,178.95853v-0.18127h0.18095v0.18127zM239.08986,184.16939h-0.18095v-0.18131h0.18095zM241.70989,183.80678h0.18113v0.18131h-0.18113zM241.89102,185.46478v0.18131h-0.18113v-0.18131zM238.44993,185.51796h-0.00482l0.07495,-0.16667zM237.92367,185.16748l-0.0025,-0.00232l0.12795,-0.12813zM237.56141,184.63819l-0.0025,-0.00482l0.16667,-0.06763zM237.61459,178.77726h0.18095v0.18127h-0.18095zM235.66821,179.13982h-0.18113v-0.18129h0.18113zM235.66821,177.30296h1.94638v0.36254h-1.94638zM237.43346,177.48425v-2.45802h0.36208v2.45802zM237.61459,174.84497h1.47527v0.36254h-1.47527zM239.27098,175.02623v2.45802h-0.36208v-2.45802zM239.08986,177.30296h2.62004v0.36254h-2.62004zM241.89102,177.48425v1.47428h-0.36226v-1.47428zM241.70989,179.13982h-2.62004v-0.36256h2.62004zM239.27098,178.95853v5.02955h-0.36208v-5.02955zM239.08986,183.80678h2.62004v0.36262h-2.62004zM241.89102,183.98809v1.47669h-0.36226v-1.47669zM241.70989,185.64609h-2.62004v-0.36244h2.62004zM239.08986,185.64609c-0.22449,0 -0.43703,-0.04354 -0.63993,-0.12813l0.14009,-0.33353c0.15704,0.06531 0.32371,0.09922 0.49984,0.09922zM238.44511,185.51796c-0.1979,-0.0894 -0.37172,-0.2054 -0.52144,-0.35048l0.25108,-0.2609c0.11831,0.1135 0.2584,0.2079 0.41776,0.28035zM237.92117,185.16516c-0.15204,-0.15222 -0.27285,-0.32621 -0.35976,-0.52697l0.33085,-0.1474c0.06995,0.15954 0.1665,0.2998 0.28499,0.41811zM237.55891,184.63337c-0.08441,-0.2029 -0.12545,-0.41811 -0.12545,-0.64528h0.36208c0,0.18131 0.03141,0.35048 0.09672,0.50752zM237.43346,183.98809v-5.02955h0.36208v5.02955zM237.61459,179.13982h-1.94638v-0.36256h1.94638zM235.48708,178.95853v-1.47428h0.36226v1.47428zM245.72329,177.30296h0.18113v0.18129h-0.18113zM245.90441,185.46478v0.18131h-0.18113v-0.18131zM244.24784,185.64609h-0.18113v-0.18131h0.18113zM244.06671,177.48425v-0.18129h0.18113v0.18129zM243.99176,174.40994v-0.18125h0.18131v0.18125zM245.79806,174.22869h0.18113v0.18125h-0.18113zM245.97919,175.9471v0.18125h-0.18113v-0.18125zM244.17307,176.12835h-0.18131v-0.18125h0.18131zM245.90441,177.48425v7.98053h-0.36226v-7.98053zM245.72329,185.64609h-1.47544v-0.36244h1.47544zM244.06671,185.46478v-7.98053h0.36226v7.98053zM244.24784,177.30296h1.47544v0.36254h-1.47544zM244.17307,174.22869h1.62499v0.36251h-1.62499zM245.97919,174.40994v1.53715h-0.36226v-1.53715zM245.79806,176.12835h-1.62499v-0.36254h1.62499zM243.99176,175.9471v-1.53715h0.36226v1.53715zM255.49569,185.46478v0.18131h-0.18113v-0.18131zM253.83912,185.64609h-0.18095v-0.18131h0.18095zM253.83912,178.77726h0.18113v0.18127h-0.18113zM249.54573,178.95853v-0.18127h0.18113v0.18127zM249.90799,185.46478v0.18131h-0.18113v-0.18131zM248.26106,185.64609h-0.18095v-0.18131h0.18095zM248.08011,177.48425v-0.18129h0.18095v0.18129zM249.72686,177.30296h0.18113v0.18129h-0.18113zM249.90799,178.90055l-0.36226,-0.00971h0.18113zM250.02863,178.41957l-0.00232,0.00241l-0.16418,-0.07734zM250.7121,177.76217l-0.00232,0.00243l-0.06763,-0.16919zM254.34628,177.76943h-0.00482l0.07245,-0.16676zM254.7544,178.04735l-0.00482,-0.00484l0.13027,-0.12568zM255.02726,178.45583v-0.00244l0.16667,-0.07006zM255.31456,185.64609h-1.47544v-0.36244h1.47544zM253.65817,185.46478v-6.50625h0.36208v6.50625zM253.83912,179.13982h-4.11226v-0.36256h4.11226zM249.90799,178.95853v6.50625h-0.36226v-6.50625zM249.72686,185.64609h-1.46581v-0.36244h1.46581zM248.08011,185.46478v-7.98053h0.36208v7.98053zM248.26106,177.30296h1.46581v0.36254h-1.46581zM249.90799,177.48425v1.4066h-0.36226v-1.4066zM249.54823,178.88362c0.00964,-0.21752 0.06032,-0.42297 0.14972,-0.61632l0.32835,0.15468c-0.06995,0.14742 -0.10868,0.30697 -0.11831,0.47857zM249.69795,178.26974c0.08923,-0.19335 0.20772,-0.36254 0.35494,-0.50515l0.25108,0.26104c-0.1135,0.10875 -0.20522,0.23925 -0.27535,0.39393zM250.0529,177.7646c0.14972,-0.14501 0.32603,-0.2586 0.52162,-0.33836l0.13527,0.33836c-0.15454,0.06042 -0.28981,0.14744 -0.4058,0.26104zM250.56969,177.42864c0.1979,-0.0846 0.41044,-0.12568 0.63261,-0.12568v0.36254c-0.17631,0 -0.33817,0.03141 -0.49021,0.09667zM251.20231,177.30296h2.63681v0.36254h-2.63681zM253.83912,177.30296c0.22949,0 0.44684,0.04351 0.64957,0.13534l-0.14722,0.33114c-0.15454,-0.0701 -0.32353,-0.10393 -0.50234,-0.10393zM254.48387,177.43591c0.2029,0.08459 0.37921,0.20303 0.52643,0.35528l-0.26072,0.25133c-0.1135,-0.11601 -0.24626,-0.20542 -0.4033,-0.27309zM255.00548,177.78637c0.15222,0.14985 0.27053,0.32384 0.35494,0.52684l-0.33317,0.14017c-0.06763,-0.15709 -0.15704,-0.29243 -0.27285,-0.40603zM255.35811,178.30838c0.09172,0.20545 0.13759,0.42297 0.13759,0.65016h-0.36226c0,-0.17886 -0.03623,-0.34561 -0.10618,-0.5027zM255.49569,178.95853v6.50625h-0.36226v-6.50625zM257.5893,177.48425v-0.18129h0.18113v0.18129zM259.23623,177.30296h0.18095v0.18129h-0.18095zM259.23623,184.16939h-0.18113v-0.18131h0.18113zM263.52712,183.98809v0.18131h-0.18113v-0.18131zM263.16486,177.48425v-0.18129h0.18113v0.18129zM264.82143,177.30296h0.18113v0.18129h-0.18113zM265.00256,185.46478v0.18131h-0.18113v-0.18131zM263.34599,185.64609h-0.18113v-0.18131h0.18113zM263.16736,184.10176l0.35976,0.01445h-0.18113zM258.59862,185.51796h-0.00482l0.07495,-0.16667zM258.06987,185.16748l-0.00482,-0.00482l0.13027,-0.12563zM257.71725,184.63819l-0.00232,-0.00482l0.1665,-0.06763zM257.77042,177.30296h1.46581v0.36254h-1.46581zM259.41718,177.48425v6.50384h-0.36208v-6.50384zM259.23623,183.80678h4.10976v0.36262h-4.10976zM263.16486,183.98809v-6.50384h0.36226v6.50384zM263.34599,177.30296h1.47544v0.36254h-1.47544zM265.00256,177.48425v7.98053h-0.36226v-7.98053zM264.82143,185.64609h-1.47544v-0.36244h1.47544zM263.16486,185.46478v-1.34856h0.36226v1.34856zM263.52712,184.13067c-0.01677,0.2079 -0.07245,0.40616 -0.16899,0.5921l-0.32121,-0.16667c0.07245,-0.14258 0.11599,-0.2948 0.13045,-0.45434zM263.35812,184.72277c-0.09422,0.18381 -0.21735,0.34566 -0.36708,0.48593l-0.24626,-0.26839c0.11831,-0.10868 0.21735,-0.23681 0.29213,-0.38421zM262.99105,185.2087c-0.14722,0.13295 -0.3139,0.23913 -0.50216,0.31889l-0.14009,-0.33585c0.15204,-0.06282 0.28249,-0.14508 0.39599,-0.25144zM262.48888,185.52759c-0.19326,0.07745 -0.39616,0.11849 -0.60852,0.11849v-0.36244c0.1665,0 0.32353,-0.03141 0.46844,-0.0919zM261.88036,185.64609h-2.64413v-0.36244h2.64413zM259.23623,185.64609c-0.22217,0 -0.43471,-0.04354 -0.63761,-0.12813l0.13759,-0.33353c0.15704,0.06531 0.32371,0.09922 0.50002,0.09922zM258.5938,185.51796c-0.1979,-0.0894 -0.37189,-0.2054 -0.52394,-0.35048l0.25108,-0.2609c0.11831,0.1135 0.2584,0.2079 0.42026,0.28035zM258.06505,185.16266c-0.1449,-0.14972 -0.2609,-0.32621 -0.3478,-0.52447l0.33085,-0.1474c0.06995,0.16203 0.16418,0.30212 0.27767,0.42061zM257.71493,184.63337c-0.08459,-0.2029 -0.12563,-0.41811 -0.12563,-0.64528h0.36226c0,0.18131 0.03141,0.35048 0.09654,0.50752zM257.5893,183.98809v-6.50384h0.36226v6.50384zM274.20517,182.22623v0.18131h-0.18113v-0.18131zM268.56429,182.22623v-0.18131h0.18113v0.18131zM268.74542,184.16939h-0.18113v-0.18131h0.18113zM274.02404,183.80678h0.18113v0.18131h-0.18113zM274.20517,185.46478v0.18131h-0.18113v-0.18131zM268.10549,185.51796h-0.00232l0.07227,-0.16667zM267.57906,185.16748l-0.00482,-0.00482l0.13045,-0.12563zM267.22412,184.63819v-0.00482l0.16667,-0.06763zM267.22412,178.31321v-0.00484l0.16667,0.07495zM268.25039,177.76943h-0.00482l-0.07013,-0.16676zM273.05576,177.76943h-0.00482l0.07477,-0.16676zM273.46388,178.04735l-0.00482,-0.00484l0.13027,-0.12568zM273.73905,178.45583l-0.00232,-0.00244l0.16667,-0.07006zM268.56429,178.95853v-0.18127h0.18113v0.18127zM268.74542,180.93066h-0.18113v-0.18113h0.18113zM272.72973,180.74953v0.18113h-0.18113v-0.18113zM272.5486,178.77726h0.18113v0.18127h-0.18113zM274.02404,182.40753h-5.27862v-0.36262h5.27862zM268.92655,182.22623v1.76186h-0.36226v-1.76186zM268.74542,183.80678h5.27862v0.36262h-5.27862zM274.20517,183.98809v1.47669h-0.36226v-1.47669zM274.02404,185.64609h-5.27862v-0.36244h5.27862zM268.74542,185.64609c-0.22217,0 -0.43703,-0.04354 -0.63993,-0.12813l0.14009,-0.33353c0.15686,0.06531 0.32353,0.09922 0.49984,0.09922zM268.10317,185.51796c-0.19808,-0.0894 -0.37439,-0.2054 -0.52411,-0.35048l0.25126,-0.2609c0.11831,0.1135 0.25822,0.2079 0.42008,0.28035zM267.57424,185.16266c-0.1449,-0.14972 -0.26072,-0.32621 -0.35012,-0.52447l0.33085,-0.1474c0.07245,0.16203 0.16667,0.30212 0.28017,0.42061zM267.22412,184.63337c-0.08459,-0.2029 -0.12795,-0.41811 -0.12795,-0.64528h0.36226c0,0.18131 0.03373,0.35048 0.09886,0.50752zM267.09616,183.98809v-5.02955h0.36226v5.02955zM267.09616,178.95853c0,-0.22719 0.04336,-0.44229 0.12795,-0.64532l0.33317,0.13778c-0.06514,0.15709 -0.09886,0.32626 -0.09886,0.50754zM267.22412,178.30838c0.0894,-0.19817 0.20522,-0.37218 0.35262,-0.51962l0.2559,0.2562c-0.1135,0.11358 -0.20522,0.25135 -0.27767,0.41087zM267.57674,177.78876c0.15204,-0.15226 0.32835,-0.26827 0.52875,-0.35285l0.14009,0.33353c-0.15704,0.06767 -0.29462,0.15952 -0.41294,0.27553zM268.10317,177.4383c0.20272,-0.09183 0.41776,-0.13534 0.64225,-0.13534v0.36254c-0.17381,0 -0.34049,0.03383 -0.49503,0.10393zM268.74542,177.30296h3.80318v0.36254h-3.80318zM272.5486,177.30296c0.22949,0 0.44684,0.04351 0.64957,0.13534l-0.14722,0.33114c-0.15454,-0.0701 -0.32121,-0.10393 -0.50234,-0.10393zM273.19584,177.43591c0.2004,0.08459 0.37671,0.20303 0.52394,0.35528l-0.26072,0.25133c-0.11118,-0.11601 -0.24626,-0.20542 -0.4033,-0.27309zM273.71496,177.78637c0.15454,0.14985 0.27285,0.32384 0.35744,0.52684l-0.33567,0.14017c-0.06531,-0.15709 -0.15704,-0.29243 -0.27285,-0.40603zM274.0699,178.30838c0.0894,0.20545 0.13527,0.42297 0.13527,0.65016h-0.36226c0,-0.17886 -0.03623,-0.34561 -0.10386,-0.5027zM274.20517,178.95853v3.26769h-0.36226v-3.26769zM268.92655,178.95853v1.791h-0.36226v-1.791zM268.74542,180.56823h3.80318v0.36244h-3.80318zM272.36747,180.74953v-1.791h0.36226v1.791zM272.5486,179.13982h-3.80318v-0.36256h3.80318z"/></g></g></g></svg>