<svg version="1.1" xmlns="http://www.w3.org/2000/svg" xmlns:xlink="http://www.w3.org/1999/xlink" width="459.07043" height="488.85745" viewBox="0,0,459.07043,488.85745"><g transform="translate(-58.91999,30.39039)"><g data-paper-data="{&quot;isPaintingLayer&quot;:true}" fill-rule="nonzero" stroke-width="0" stroke-linecap="butt" stroke-linejoin="miter" stroke-miterlimit="10" stroke-dasharray="" stroke-dashoffset="0" style="mix-blend-mode: normal"><path d="M58.91999,458.46706v-488.85745h459.07043v488.85745z" fill="#ffffff" stroke="#acacac"/><path d="M194.84092,38.74511l140.31246,0.00027c10.14749,0.00007 19.24015,6.26372 22.8493,15.74037l31.62069,83.02834c-24.0842,-19.84055 -70.10409,-24.29553 -83.38873,-24.29553c-38.31246,0 -37.07796,0 -83.12567,0z" fill="#ff914d" stroke="#ff914d"/><path d="M407.53393,389.92069l-124.37154,1.28718c-9.15246,0.09469 -17.59114,-4.9266 -21.86796,-13.01253l-42.68332,-80.6955c24.08461,19.84055 62.22002,26.57086 75.50468,26.57086c38.31246,0 42.44654,0.22289 88.49459,0.22289z" fill="#ff914d" stroke="#ff914d"/><path d="M143.63492,158.39028c-6.7367,-24.08513 11.38432,-47.94663 36.41194,-47.94663h40.48649c0,0 18.54122,20.51265 23.60452,36.47649c4.8151,15.1822 11.59708,47.91427 11.59708,47.91427c0,0 -11.94466,-4.27344 -15.2591,-6.14033c-10.44974,-5.8866 -31.11134,-4.62798 -49.63776,-1.76606c-20.65968,3.19133 -41.57622,-8.41989 -47.20318,-28.53778z" fill="#ff914d" stroke="#e99a00"/><path d="M165.09848,267.56346c-18.0698,-3.85279 -26.99821,-23.04747 -18.1316,-38.98053l1.23187,-2.21342c6.13591,-11.02622 17.06797,-19.48186 29.96999,-19.89003c3.74501,-0.11829 7.48435,0.01328 10.69953,0.59644c13.3706,2.426 45.56156,6.6995 30.93471,15.06653c-6.87336,3.93189 -13.55756,15.437 -18.71297,26.52903c-6.24793,13.44383 -21.24212,22.03645 -35.99153,18.8919z" fill="#ff914d" stroke="#a16e50"/><path d="M164.1113,376.93784c-9.33511,-15.33351 -1.48269,-34.77817 15.79364,-39.10867l5.88593,-1.47551c12.18902,-3.05554 25.6739,-1.21223 34.87956,7.59834c2.59046,2.47886 4.97878,5.11716 6.67274,7.70022c7.12156,10.86117 25.5026,35.95084 9.02645,31.51536c-8.40291,-2.26204 -23.6845,1.65616 -36.64321,6.03877c-13.13656,4.44313 -28.32714,-0.29782 -35.61502,-12.26851z" fill="#ff914d" stroke="#e99a00"/><path d="M256.13518,195.06609h136.50619c8.20686,0 15.61242,4.9205 18.78718,12.48263l25.64725,61.09113l-95.20427,-8.69572h-61.1976z" fill="#ff914d" stroke="#ff914d"/><path d="M359.49529,260.17137l76.81682,7.39705l12.60057,32.8645l-38.54809,4.26704c-3.32667,0.36859 -6.45918,1.75125 -8.97201,3.96043l-19.08413,16.77894z" fill="#ff914d" stroke="#e99a00"/></g></g></svg>