<svg version="1.1" xmlns="http://www.w3.org/2000/svg" xmlns:xlink="http://www.w3.org/1999/xlink" width="113.49" height="30" viewBox="0,0,113.49,30"><g transform="translate(-183.255,-165)"><g data-paper-data="{&quot;isPaintingLayer&quot;:true}" fill-rule="nonzero" stroke="none" stroke-width="1" stroke-linecap="butt" stroke-linejoin="miter" stroke-miterlimit="10" stroke-dasharray="" stroke-dashoffset="0" style="mix-blend-mode: normal"><path d="M296.745,168.11807v23.76383c0,1.7221 -0.672,3.1181 -1.5,3.1181h-110.49c-0.82843,0 -1.5,-1.396 -1.5,-3.1181v-23.76383c0,-1.72206 0.67157,-3.11807 1.5,-3.11807h110.49c0.828,0 1.5,1.39601 1.5,3.11807z" fill="#f0867a"/><path d="M188.24609,172.99756c0,-0.3418 0.06511,-0.66325 0.19532,-0.96436c0.1302,-0.30924 0.30924,-0.57373 0.53711,-0.79345c0.22786,-0.22787 0.49235,-0.4069 0.79345,-0.53711c0.30925,-0.13835 0.63477,-0.20752 0.97657,-0.20752h9.49706c0.3418,0 0.6633,0.06917 0.9644,0.20752c0.3092,0.13021 0.5778,0.30924 0.8056,0.53711c0.2279,0.21972 0.4069,0.48421 0.5371,0.79345c0.1302,0.30111 0.1953,0.62256 0.1953,0.96436v2.25834h-2.5024v-2.25834h-9.49706v12.50004h9.49706v-2.2461h2.5024v2.2461c0,0.3418 -0.0651,0.6673 -0.1953,0.9765c-0.1302,0.3011 -0.3092,0.5656 -0.5371,0.7935c-0.2278,0.2278 -0.4964,0.4069 -0.8056,0.5371c-0.3011,0.1302 -0.6226,0.1953 -0.9644,0.1953h-9.49706c-0.3418,0 -0.66732,-0.0651 -0.97657,-0.1953c-0.3011,-0.1302 -0.56559,-0.3093 -0.79345,-0.5371c-0.22787,-0.2279 -0.40691,-0.4924 -0.53711,-0.7935c-0.13021,-0.3092 -0.19532,-0.6347 -0.19532,-0.9765zM217.7505,185.5952c0,0.3337 -0.0651,0.647 -0.1953,0.94c-0.1221,0.2929 -0.293,0.5493 -0.5127,0.769c-0.2116,0.2116 -0.4639,0.3825 -0.7569,0.5127c-0.2848,0.1221 -0.594,0.1831 -0.9277,0.1831h-6.4575c-0.3255,0 -0.6348,-0.061 -0.9277,-0.1831c-0.293,-0.1302 -0.5494,-0.3011 -0.7691,-0.5127c-0.2116,-0.2197 -0.3825,-0.4761 -0.5127,-0.769c-0.1221,-0.293 -0.1831,-0.6063 -0.1831,-0.94v-8.1909c0,-0.3337 0.061,-0.647 0.1831,-0.9399c0.1302,-0.293 0.3011,-0.5453 0.5127,-0.7569c0.2197,-0.2197 0.4761,-0.3906 0.7691,-0.5127c0.2929,-0.1302 0.6022,-0.19529 0.9277,-0.19529h6.4575c0.3337,0 0.6429,0.06509 0.9277,0.19529c0.293,0.1221 0.5453,0.293 0.7569,0.5127c0.2197,0.2116 0.3906,0.4639 0.5127,0.7569c0.1302,0.2929 0.1953,0.6062 0.1953,0.9399zM208.9004,177.4043v8.1909h6.4575v-8.1909zM233.2656,188h-2.4048v-10.5957h-6.7016v10.5957h-2.3926v-13.00049h2.3926v2.29489c0.0163,-0.3173 0.0895,-0.6144 0.2197,-0.8911c0.1302,-0.2848 0.3011,-0.529 0.5127,-0.7324c0.2197,-0.2116 0.472,-0.3744 0.7568,-0.4883c0.2849,-0.1221 0.59,-0.18309 0.9156,-0.18309h4.2968c0.3337,0 0.647,0.06509 0.94,0.19529c0.293,0.1221 0.5452,0.293 0.7568,0.5127c0.2197,0.2116 0.3906,0.4639 0.5127,0.7569c0.1302,0.2929 0.1953,0.6062 0.1953,0.9399zM242.0913,172.39941v2.6001h4.2725v2.40479h-4.2725v10.5957h-2.4048v-10.5957h-3.1738v-2.40479h3.1738v-2.6001c0,-0.33365 0.0611,-0.6429 0.1831,-0.92773c0.1302,-0.29297 0.3052,-0.54932 0.5249,-0.76904c0.2198,-0.21973 0.4761,-0.39063 0.7691,-0.5127c0.2929,-0.13021 0.6022,-0.19531 0.9277,-0.19531h4.2725v2.40478zM252.1499,174.99951v13.00049h-2.4048v-13.00049zM249.623,169.99463h2.649v2.50244h-2.649zM258.6807,177.4043v10.5957h-2.3926v-13.00049h2.3926v2.29489c0.0162,-0.3173 0.0895,-0.6144 0.2197,-0.8911c0.1302,-0.2848 0.3011,-0.529 0.5127,-0.7324c0.2197,-0.2116 0.472,-0.3744 0.7568,-0.4883c0.2849,-0.1221 0.59,-0.18309 0.9155,-0.18309h2.5513c0.3337,0 0.6429,0.06509 0.9278,0.19529c0.2929,0.1221 0.5493,0.293 0.769,0.5127c0.2197,0.2116 0.3906,0.4639 0.5127,0.7569c0.1302,0.2929 0.1953,0.6062 0.1953,0.9399v2.1973h-2.4048v-2.1973zM279.335,177.4043v10.5957h-2.4048v-10.5957h-5.5054v10.5957h-2.3926v-13.00049h2.3926v2.29489c0.0163,-0.3173 0.0895,-0.6144 0.2197,-0.8911c0.1302,-0.2848 0.3011,-0.529 0.5127,-0.7324c0.2198,-0.2116 0.472,-0.3744 0.7569,-0.4883c0.2848,-0.1221 0.59,-0.18309 0.9155,-0.18309h3.1006c0.3174,0 0.6185,0.06099 0.9033,0.18309c0.2848,0.1139 0.5371,0.2767 0.7568,0.4883c0.2198,0.2034 0.3947,0.4476 0.5249,0.7324c0.1384,0.2767 0.2116,0.5738 0.2198,0.8911c0.0162,-0.3173 0.0854,-0.6144 0.2075,-0.8911c0.1302,-0.2848 0.3011,-0.529 0.5127,-0.7324c0.2197,-0.2116 0.472,-0.3744 0.7568,-0.4883c0.2848,-0.1221 0.59,-0.18309 0.9155,-0.18309h3.1005c0.334,0 0.647,0.06509 0.94,0.19529c0.293,0.1221 0.545,0.293 0.757,0.5127c0.22,0.2116 0.391,0.4639 0.513,0.7569c0.13,0.2929 0.195,0.6062 0.195,0.9399v10.5957h-2.405v-10.5957z" fill="#000000"/></g></g></svg>