<svg version="1.1" xmlns="http://www.w3.org/2000/svg" xmlns:xlink="http://www.w3.org/1999/xlink" width="18.5281" height="23.80625" viewBox="0,0,18.5281,23.80625"><g transform="translate(-230.73595,-155.72708)"><g data-paper-data="{&quot;isPaintingLayer&quot;:true}" fill="#ff5f24" fill-rule="nonzero" stroke="none" stroke-width="1" stroke-linecap="butt" stroke-linejoin="miter" stroke-miterlimit="10" stroke-dasharray="" stroke-dashoffset="0" style="mix-blend-mode: normal"><path d="M230.73595,171.11453l11.0469,-14.68745h3.7656v14.68745h3.0157v3.0782h-3.0157v4.6406h-3.2031v-4.6406h-11.6094zM242.34535,171.11453v-10.81245l-8.125,10.81245z"/><path d="M230.73595,171.11453zM241.22345,156.00632l0.21,-0.27924h0.3494v0.7zM245.54845,155.72708h0.7v0.7h-0.7zM245.54845,171.81453h-0.7v-0.7h0.7zM248.56415,170.41463h0.6999v0.6999h-0.6999zM249.26405,174.19273v0.7h-0.6999v-0.7zM244.84845,174.19273v-0.7h0.7v0.7zM246.24845,178.83333v0.7h-0.7v-0.7zM242.34535,179.53333h-0.7v-0.7h0.7zM242.34535,173.49273h0.7v0.7h-0.7zM230.73595,174.89273v-0.7zM243.04535,171.11453v0.7h-0.7v-0.7zM241.78575,159.88156l1.2596,-1.67625v2.09677h-0.7zM234.22035,171.81453h-1.4016l0.842,-1.1205l0.5596,0.4205zM241.22345,156.00632l1.1188,0.84152l-11.0468,14.68749zM241.78285,155.72708h3.7656v1.4h-3.7656zM246.24845,156.42708v14.68745h-1.4v-14.68745zM245.54845,170.41463h3.0157v1.3999h-3.0157zM249.26405,171.11453v3.0782h-1.3999v-3.0782zM248.56415,174.89273h-3.0157v-1.4h3.0157zM246.24845,174.19273v4.6406h-1.4v-4.6406zM245.54845,179.53333h-3.2031v-1.4h3.2031zM241.64535,178.83333v-4.6406h1.4v4.6406zM242.34535,174.89273h-11.6094v-1.4h11.6094zM231.43595,171.11453v3.0782zM241.64535,171.11453v-10.81245h1.4v10.81245zM242.90495,160.7226l-8.125,10.81253l-1.1192,-0.8411l8.125,-10.81247zM234.22035,170.41463h8.125v1.3999h-8.125z"/></g></g></svg>