<svg version="1.1" xmlns="http://www.w3.org/2000/svg" xmlns:xlink="http://www.w3.org/1999/xlink" width="12.74176" height="17.33814" viewBox="0,0,12.74176,17.33814"><g transform="translate(-233.61077,-171.33093)"><g data-paper-data="{&quot;isPaintingLayer&quot;:true}" fill="#83a837" fill-rule="nonzero" stroke="#83a837" stroke-width="1" stroke-linecap="butt" stroke-linejoin="miter" stroke-miterlimit="10" stroke-dasharray="" stroke-dashoffset="0" style="mix-blend-mode: normal"><path d="M234.65958,188.16907v-1.90207c1.54442,-1.10548 2.83685,-2.0809 3.8773,-2.9261c1.05671,-0.84536 1.90207,-1.6257 2.53609,-2.34101c0.63402,-0.71531 1.08922,-1.38997 1.36559,-2.024c0.29263,-0.65028 0.43894,-1.30869 0.43894,-1.97523c0,-0.86162 -0.26824,-1.56067 -0.80472,-2.09715c-0.53648,-0.53648 -1.2843,-0.80472 -2.24347,-0.80472c-1.00793,0 -1.81266,0.3414 -2.41417,1.02419c-0.58525,0.66654 -0.91852,1.58506 -0.99981,2.75556l-2.26785,-1.04858c0.1138,-1.02419 0.41455,-1.9102 0.90226,-2.65802c0.48771,-0.74782 1.14612,-1.32495 1.97523,-1.73137c0.84536,-0.40643 1.82078,-0.60964 2.92626,-0.60964c0.91039,0 1.70699,0.13006 2.38978,0.39017c0.69905,0.26011 1.2843,0.62589 1.75576,1.09735c0.47145,0.4552 0.82911,0.99168 1.07296,1.60944c0.26011,0.61777 0.39017,1.27617 0.39017,1.97523c0,1.02419 -0.25198,2.01587 -0.75595,2.97503c-0.50397,0.94291 -1.30056,1.9102 -2.38978,2.90188c-1.08922,0.99151 -2.51984,2.05635 -4.29185,3.19434v0.04877c0.19508,-0.03251 0.46332,-0.04877 0.80472,-0.04877c0.3414,-0.01626 0.68279,-0.02439 1.02419,-0.02439c0.3414,-0.01626 0.61777,-0.02439 0.82911,-0.02439h5.07219v2.24347z"/></g></g></svg>