<svg version="1.1" xmlns="http://www.w3.org/2000/svg" xmlns:xlink="http://www.w3.org/1999/xlink" width="17.46005" height="22.21628" viewBox="0,0,17.46005,22.21628"><g transform="translate(-231.26997,-168.89186)"><g data-paper-data="{&quot;isPaintingLayer&quot;:true}" fill="#ffffff" fill-rule="nonzero" stroke="none" stroke-width="1" stroke-linecap="butt" stroke-linejoin="miter" stroke-miterlimit="10" stroke-dasharray="" stroke-dashoffset="0" style="mix-blend-mode: normal"><path d="M248.73002,187.93222c0,0.43379 -0.08262,0.8469 -0.24786,1.23932c-0.16524,0.38214 -0.39242,0.71783 -0.68166,1.00707c-0.28924,0.28911 -0.63,0.51642 -1.02255,0.68166c-0.38214,0.16524 -0.79004,0.24786 -1.22384,0.24786h-11.10817c-0.43379,0 -0.84693,-0.08262 -1.23941,-0.24786c-0.38214,-0.16524 -0.71782,-0.39255 -1.00701,-0.68166c-0.2892,-0.28924 -0.51642,-0.62493 -0.68167,-1.00707c-0.16526,-0.39242 -0.24788,-0.80553 -0.24788,-1.23932v-15.8644c0,-0.43379 0.08262,-0.84176 0.24788,-1.22392c0.16526,-0.39247 0.39248,-0.72815 0.68167,-1.00701c0.28919,-0.2892 0.62486,-0.51642 1.00701,-0.68167c0.39248,-0.17559 0.80562,-0.26337 1.23941,-0.26337h11.10817c0.43379,0 0.8417,0.08779 1.22384,0.26337c0.39255,0.16526 0.73331,0.39247 1.02255,0.68167c0.28924,0.27886 0.51642,0.61453 0.68166,1.00701c0.16524,0.38215 0.24786,0.79012 0.24786,1.22392zM234.44594,172.06783v15.8644h11.10817v-15.8644z"/></g></g></svg>