<svg xmlns="http://www.w3.org/2000/svg" fill="none" viewBox="0 0 104 27" height="27" width="104">
<path fill="#FF5C5C" d="M101.502 0H2.4979C1.11835 0 0 1.19432 0 2.66758V21.2507C0 22.724 1.11835 23.9183 2.4979 23.9183H101.502C102.882 23.9183 104 22.724 104 21.2507V2.66758C104 1.19432 102.882 0 101.502 0Z"></path>
<mask fill="black" height="20" width="88" y="1.33008" x="8" maskUnits="userSpaceOnUse" id="path-2-outside-1_275_50">
<rect height="20" width="88" y="1.33008" x="8" fill="white"></rect>
<path d="M38.166 7.4292C38.585 7.4292 38.9072 7.31641 39.1328 7.09082C39.3584 6.86523 39.4712 6.54297 39.4712 6.12402V4.23438C39.4712 4.0293 39.4419 3.84619 39.3833 3.68506C39.3247 3.52393 39.2383 3.3877 39.124 3.27637C39.0127 3.16211 38.8765 3.07568 38.7153 3.01709C38.5542 2.9585 38.3711 2.9292 38.166 2.9292H35.8633V7.4292H38.166ZM34.9624 8.33008V2.02832H38.166C38.5029 2.02832 38.8062 2.08105 39.0757 2.18652C39.3481 2.28906 39.5796 2.43701 39.77 2.63037C39.9634 2.8208 40.1113 3.05225 40.2139 3.32471C40.3193 3.59717 40.3721 3.90039 40.3721 4.23438V6.12402C40.3721 6.45801 40.3193 6.76123 40.2139 7.03369C40.1113 7.30615 39.9634 7.53906 39.77 7.73242C39.5796 7.92285 39.3481 8.0708 39.0757 8.17627C38.8062 8.27881 38.5029 8.33008 38.166 8.33008H34.9624ZM42.6396 3.6499V8.33008H41.7739V3.6499H42.6396ZM41.73 1.84814H42.6836V2.74902H41.73V1.84814ZM46.9551 7.46436V6.37891H44.9028C44.7827 6.37891 44.6699 6.35693 44.5645 6.31299C44.459 6.26611 44.3667 6.20459 44.2876 6.12842C44.2114 6.04932 44.1499 5.95703 44.103 5.85156C44.0591 5.74609 44.0371 5.6333 44.0371 5.51318V4.51562C44.0371 4.39551 44.0591 4.28271 44.103 4.17725C44.1499 4.07178 44.2114 3.98096 44.2876 3.90479C44.3667 3.82568 44.459 3.76416 44.5645 3.72021C44.6699 3.67334 44.7827 3.6499 44.9028 3.6499H47.6406V4.51562H44.9028V5.51318H46.9551C47.0752 5.51318 47.1865 5.53662 47.2891 5.5835C47.3945 5.62744 47.4868 5.68896 47.5659 5.76807C47.645 5.84424 47.7065 5.93506 47.7505 6.04053C47.7974 6.146 47.8208 6.25879 47.8208 6.37891V7.46436C47.8208 7.58447 47.7974 7.69727 47.7505 7.80273C47.7065 7.9082 47.645 8.00049 47.5659 8.07959C47.4868 8.15576 47.3945 8.21729 47.2891 8.26416C47.1865 8.30811 47.0752 8.33008 46.9551 8.33008H44.0371V7.46436H46.9551ZM49.1743 6.28662C49.1743 6.1665 49.1963 6.05518 49.2402 5.95264C49.2871 5.84717 49.3486 5.75488 49.4248 5.67578C49.5039 5.59668 49.5962 5.53516 49.7017 5.49121C49.8071 5.44434 49.9185 5.4209 50.0356 5.4209H52.2681V4.51562H49.4424V3.6499H52.2681C52.3882 3.6499 52.501 3.67334 52.6064 3.72021C52.7119 3.76416 52.8027 3.82568 52.8789 3.90479C52.958 3.98096 53.0195 4.07178 53.0635 4.17725C53.1104 4.28271 53.1338 4.39551 53.1338 4.51562V8.33008H52.2681V7.53906C52.2593 7.64746 52.23 7.75 52.1802 7.84668C52.1304 7.94336 52.0659 8.02832 51.9868 8.10156C51.9106 8.17188 51.8228 8.22754 51.7231 8.26855C51.6235 8.30957 51.5181 8.33008 51.4067 8.33008H50.0356C49.9185 8.33008 49.8071 8.30811 49.7017 8.26416C49.5962 8.21729 49.5039 8.15576 49.4248 8.07959C49.3486 8.00049 49.2871 7.9082 49.2402 7.80273C49.1963 7.69727 49.1743 7.58447 49.1743 7.46436V6.28662ZM50.0356 7.46436H52.2681V6.28662H50.0356V7.46436ZM58.7192 7.46436C58.7192 7.58447 58.6958 7.69727 58.6489 7.80273C58.605 7.9082 58.5435 8.00049 58.4644 8.07959C58.3882 8.15576 58.2974 8.21729 58.1919 8.26416C58.0864 8.30811 57.9736 8.33008 57.8535 8.33008H55.4409C55.3237 8.33008 55.2124 8.30811 55.1069 8.26416C55.0015 8.21729 54.9092 8.15576 54.8301 8.07959C54.7539 8.00049 54.6924 7.9082 54.6455 7.80273C54.6016 7.69727 54.5796 7.58447 54.5796 7.46436V1.84814H55.4409V4.47607C55.4468 4.36182 55.4731 4.25488 55.52 4.15527C55.5669 4.05273 55.6284 3.96484 55.7046 3.8916C55.7837 3.81543 55.8745 3.75684 55.9771 3.71582C56.0796 3.67188 56.1895 3.6499 56.3066 3.6499H57.8535C57.9736 3.6499 58.0864 3.67334 58.1919 3.72021C58.2974 3.76416 58.3882 3.82568 58.4644 3.90479C58.5435 3.98096 58.605 4.07178 58.6489 4.17725C58.6958 4.28271 58.7192 4.39551 58.7192 4.51562V7.46436ZM55.4409 4.51562V7.46436H57.8535V4.51562H55.4409ZM61.022 1.84814V8.33008H60.1606V1.84814H61.022ZM66.4229 6.43164H63.3247V7.46436H66.4229V8.33008H63.3247C63.2075 8.33008 63.0962 8.30811 62.9907 8.26416C62.8853 8.21729 62.793 8.15576 62.7139 8.07959C62.6377 8.00049 62.5762 7.9082 62.5293 7.80273C62.4854 7.69727 62.4634 7.58447 62.4634 7.46436V4.51562C62.4634 4.39551 62.4854 4.28271 62.5293 4.17725C62.5762 4.07178 62.6377 3.98096 62.7139 3.90479C62.793 3.82568 62.8853 3.76416 62.9907 3.72021C63.0962 3.67334 63.2075 3.6499 63.3247 3.6499H65.5571C65.6772 3.6499 65.79 3.67334 65.8955 3.72021C66.001 3.76416 66.0918 3.82568 66.168 3.90479C66.2471 3.98096 66.3086 4.07178 66.3525 4.17725C66.3994 4.28271 66.4229 4.39551 66.4229 4.51562V6.43164ZM63.3247 4.51562V5.56592H65.5571V4.51562H63.3247ZM11.6934 13.0283L14.1235 19.3301H13.2227L12.6646 17.8799H9.82129L9.26318 19.3301H8.3623L10.7925 13.0283H11.6934ZM10.1641 16.979H12.3174L11.2451 14.2017L10.1641 16.979ZM15.1167 15.5156C15.1167 15.3955 15.1387 15.2827 15.1826 15.1772C15.2295 15.0718 15.291 14.981 15.3672 14.9048C15.4463 14.8257 15.5386 14.7642 15.644 14.7202C15.7495 14.6733 15.8608 14.6499 15.978 14.6499H18.3906V12.8481H19.2563V19.3301H18.3906V18.5391C18.3818 18.6475 18.3525 18.75 18.3027 18.8467C18.2529 18.9434 18.1885 19.0283 18.1094 19.1016C18.0332 19.1719 17.9453 19.2275 17.8457 19.2686C17.7461 19.3096 17.6406 19.3301 17.5293 19.3301H15.978C15.8608 19.3301 15.7495 19.3081 15.644 19.2642C15.5386 19.2173 15.4463 19.1558 15.3672 19.0796C15.291 19.0005 15.2295 18.9082 15.1826 18.8027C15.1387 18.6973 15.1167 18.5845 15.1167 18.4644V15.5156ZM15.978 18.4644H18.3906V15.5156H15.978V18.4644ZM22.0293 19.3301L20.1572 14.6499H21.0581L22.4775 18.293L23.9014 14.6499H24.8022L22.9302 19.3301H22.0293ZM25.7075 17.2866C25.7075 17.1665 25.7295 17.0552 25.7734 16.9526C25.8203 16.8472 25.8818 16.7549 25.958 16.6758C26.0371 16.5967 26.1294 16.5352 26.2349 16.4912C26.3403 16.4443 26.4517 16.4209 26.5688 16.4209H28.8013V15.5156H25.9756V14.6499H28.8013C28.9214 14.6499 29.0342 14.6733 29.1396 14.7202C29.2451 14.7642 29.3359 14.8257 29.4121 14.9048C29.4912 14.981 29.5527 15.0718 29.5967 15.1772C29.6436 15.2827 29.667 15.3955 29.667 15.5156V19.3301H28.8013V18.5391C28.7925 18.6475 28.7632 18.75 28.7134 18.8467C28.6636 18.9434 28.5991 19.0283 28.52 19.1016C28.4438 19.1719 28.356 19.2275 28.2563 19.2686C28.1567 19.3096 28.0513 19.3301 27.9399 19.3301H26.5688C26.4517 19.3301 26.3403 19.3081 26.2349 19.2642C26.1294 19.2173 26.0371 19.1558 25.958 19.0796C25.8818 19.0005 25.8203 18.9082 25.7734 18.8027C25.7295 18.6973 25.7075 18.5845 25.7075 18.4644V17.2866ZM26.5688 18.4644H28.8013V17.2866H26.5688V18.4644ZM35.2524 19.3301H34.3867V15.5156H31.9741V19.3301H31.1128V14.6499H31.9741V15.4761C31.98 15.3618 32.0063 15.2549 32.0532 15.1553C32.1001 15.0527 32.1616 14.9648 32.2378 14.8916C32.3169 14.8154 32.4077 14.7568 32.5103 14.7158C32.6128 14.6719 32.7227 14.6499 32.8398 14.6499H34.3867C34.5068 14.6499 34.6196 14.6733 34.7251 14.7202C34.8306 14.7642 34.9214 14.8257 34.9976 14.9048C35.0767 14.981 35.1382 15.0718 35.1821 15.1772C35.229 15.2827 35.2524 15.3955 35.2524 15.5156V19.3301ZM37.5552 15.5156V18.4644H39.7876V17.6733H40.6533V18.4644C40.6533 18.5845 40.6299 18.6973 40.583 18.8027C40.5391 18.9082 40.4775 19.0005 40.3984 19.0796C40.3223 19.1558 40.2314 19.2173 40.126 19.2642C40.0205 19.3081 39.9077 19.3301 39.7876 19.3301H37.5552C37.438 19.3301 37.3267 19.3081 37.2212 19.2642C37.1157 19.2173 37.0234 19.1558 36.9443 19.0796C36.8682 19.0005 36.8066 18.9082 36.7598 18.8027C36.7158 18.6973 36.6938 18.5845 36.6938 18.4644V15.5156C36.6938 15.3955 36.7158 15.2827 36.7598 15.1772C36.8066 15.0718 36.8682 14.981 36.9443 14.9048C37.0234 14.8257 37.1157 14.7642 37.2212 14.7202C37.3267 14.6733 37.438 14.6499 37.5552 14.6499H39.7876C39.9077 14.6499 40.0205 14.6733 40.126 14.7202C40.2314 14.7642 40.3223 14.8257 40.3984 14.9048C40.4775 14.981 40.5391 15.0718 40.583 15.1772C40.6299 15.2827 40.6533 15.3955 40.6533 15.5156V16.3066H39.7876V15.5156H37.5552ZM46.0586 17.4316H42.9604V18.4644H46.0586V19.3301H42.9604C42.8433 19.3301 42.7319 19.3081 42.6265 19.2642C42.521 19.2173 42.4287 19.1558 42.3496 19.0796C42.2734 19.0005 42.2119 18.9082 42.165 18.8027C42.1211 18.6973 42.0991 18.5845 42.0991 18.4644V15.5156C42.0991 15.3955 42.1211 15.2827 42.165 15.1772C42.2119 15.0718 42.2734 14.981 42.3496 14.9048C42.4287 14.8257 42.521 14.7642 42.6265 14.7202C42.7319 14.6733 42.8433 14.6499 42.9604 14.6499H45.1929C45.313 14.6499 45.4258 14.6733 45.5312 14.7202C45.6367 14.7642 45.7275 14.8257 45.8037 14.9048C45.8828 14.981 45.9443 15.0718 45.9883 15.1772C46.0352 15.2827 46.0586 15.3955 46.0586 15.5156V17.4316ZM42.9604 15.5156V16.5659H45.1929V15.5156H42.9604ZM47.5044 15.5156C47.5044 15.3955 47.5264 15.2827 47.5703 15.1772C47.6172 15.0718 47.6787 14.981 47.7549 14.9048C47.834 14.8257 47.9263 14.7642 48.0317 14.7202C48.1372 14.6733 48.2485 14.6499 48.3657 14.6499H50.7783V12.8481H51.644V19.3301H50.7783V18.5391C50.7695 18.6475 50.7402 18.75 50.6904 18.8467C50.6406 18.9434 50.5762 19.0283 50.4971 19.1016C50.4209 19.1719 50.333 19.2275 50.2334 19.2686C50.1338 19.3096 50.0283 19.3301 49.917 19.3301H48.3657C48.2485 19.3301 48.1372 19.3081 48.0317 19.2642C47.9263 19.2173 47.834 19.1558 47.7549 19.0796C47.6787 19.0005 47.6172 18.9082 47.5703 18.8027C47.5264 18.6973 47.5044 18.5845 47.5044 18.4644V15.5156ZM48.3657 18.4644H50.7783V15.5156H48.3657V18.4644ZM55.8716 13.9292C55.8716 13.8062 55.895 13.6904 55.9419 13.582C55.9888 13.4707 56.0532 13.3755 56.1353 13.2964C56.2173 13.2144 56.3125 13.1499 56.4209 13.103C56.5322 13.0532 56.6494 13.0283 56.7725 13.0283H60.1914C60.3145 13.0283 60.4302 13.0532 60.5386 13.103C60.6499 13.1499 60.7466 13.2144 60.8286 13.2964C60.9106 13.3755 60.9751 13.4707 61.022 13.582C61.0688 13.6904 61.0923 13.8062 61.0923 13.9292V14.7422H60.1914V13.9292H56.7725V18.4292H60.1914V16.8999H58.4819V15.999H61.0923V18.4292C61.0923 18.5522 61.0688 18.6694 61.022 18.7808C60.9751 18.8892 60.9106 18.9844 60.8286 19.0664C60.7466 19.1484 60.6499 19.2129 60.5386 19.2598C60.4302 19.3066 60.3145 19.3301 60.1914 19.3301H56.7725C56.6494 19.3301 56.5322 19.3066 56.4209 19.2598C56.3125 19.2129 56.2173 19.1484 56.1353 19.0664C56.0532 18.9844 55.9888 18.8892 55.9419 18.7808C55.895 18.6694 55.8716 18.5522 55.8716 18.4292V13.9292ZM63.4829 15.5156V19.3301H62.6216V14.6499H63.4829V15.4761C63.4888 15.3618 63.5151 15.2549 63.562 15.1553C63.6089 15.0527 63.6704 14.9648 63.7466 14.8916C63.8257 14.8154 63.9165 14.7568 64.019 14.7158C64.1216 14.6719 64.2314 14.6499 64.3486 14.6499H65.2671C65.3872 14.6499 65.4985 14.6733 65.6011 14.7202C65.7065 14.7642 65.7988 14.8257 65.8779 14.9048C65.957 14.981 66.0186 15.0718 66.0625 15.1772C66.1094 15.2827 66.1328 15.3955 66.1328 15.5156V16.3066H65.2671V15.5156H63.4829ZM67.2095 17.2866C67.2095 17.1665 67.2314 17.0552 67.2754 16.9526C67.3223 16.8472 67.3838 16.7549 67.46 16.6758C67.5391 16.5967 67.6313 16.5352 67.7368 16.4912C67.8423 16.4443 67.9536 16.4209 68.0708 16.4209H70.3032V15.5156H67.4775V14.6499H70.3032C70.4233 14.6499 70.5361 14.6733 70.6416 14.7202C70.7471 14.7642 70.8379 14.8257 70.9141 14.9048C70.9932 14.981 71.0547 15.0718 71.0986 15.1772C71.1455 15.2827 71.1689 15.3955 71.1689 15.5156V19.3301H70.3032V18.5391C70.2944 18.6475 70.2651 18.75 70.2153 18.8467C70.1655 18.9434 70.1011 19.0283 70.022 19.1016C69.9458 19.1719 69.8579 19.2275 69.7583 19.2686C69.6587 19.3096 69.5532 19.3301 69.4419 19.3301H68.0708C67.9536 19.3301 67.8423 19.3081 67.7368 19.2642C67.6313 19.2173 67.5391 19.1558 67.46 19.0796C67.3838 19.0005 67.3223 18.9082 67.2754 18.8027C67.2314 18.6973 67.2095 18.5845 67.2095 18.4644V17.2866ZM68.0708 18.4644H70.3032V17.2866H68.0708V18.4644ZM76.7544 18.4644C76.7544 18.5845 76.731 18.6973 76.6841 18.8027C76.6401 18.9082 76.5786 19.0005 76.4995 19.0796C76.4233 19.1558 76.3325 19.2173 76.2271 19.2642C76.1216 19.3081 76.0088 19.3301 75.8887 19.3301H73.4761V21.2197H72.6147V14.6499H73.4761V15.4409C73.4849 15.3296 73.5142 15.2271 73.564 15.1333C73.6138 15.0366 73.6768 14.9531 73.7529 14.8828C73.8291 14.8096 73.917 14.7524 74.0166 14.7114C74.1191 14.6704 74.2275 14.6499 74.3418 14.6499H75.8887C76.0088 14.6499 76.1216 14.6733 76.2271 14.7202C76.3325 14.7642 76.4233 14.8257 76.4995 14.9048C76.5786 14.981 76.6401 15.0718 76.6841 15.1772C76.731 15.2827 76.7544 15.3955 76.7544 15.5156V18.4644ZM75.8887 18.4644V15.5156H73.4761V18.4644H75.8887ZM82.3354 19.3301H81.4697V15.5156H79.0571V19.3301H78.1958V12.8481H79.0571V15.4761C79.063 15.3618 79.0894 15.2549 79.1362 15.1553C79.1831 15.0527 79.2446 14.9648 79.3208 14.8916C79.3999 14.8154 79.4907 14.7568 79.5933 14.7158C79.6958 14.6719 79.8057 14.6499 79.9229 14.6499H81.4697C81.5898 14.6499 81.7026 14.6733 81.8081 14.7202C81.9136 14.7642 82.0044 14.8257 82.0806 14.9048C82.1597 14.981 82.2212 15.0718 82.2651 15.1772C82.312 15.2827 82.3354 15.3955 82.3354 15.5156V19.3301ZM84.6865 14.6499V19.3301H83.8208V14.6499H84.6865ZM83.7769 12.8481H84.7305V13.749H83.7769V12.8481ZM87.0376 15.5156V18.4644H89.27V17.6733H90.1357V18.4644C90.1357 18.5845 90.1123 18.6973 90.0654 18.8027C90.0215 18.9082 89.96 19.0005 89.8809 19.0796C89.8047 19.1558 89.7139 19.2173 89.6084 19.2642C89.5029 19.3081 89.3901 19.3301 89.27 19.3301H87.0376C86.9204 19.3301 86.8091 19.3081 86.7036 19.2642C86.5981 19.2173 86.5059 19.1558 86.4268 19.0796C86.3506 19.0005 86.2891 18.9082 86.2422 18.8027C86.1982 18.6973 86.1763 18.5845 86.1763 18.4644V15.5156C86.1763 15.3955 86.1982 15.2827 86.2422 15.1772C86.2891 15.0718 86.3506 14.981 86.4268 14.9048C86.5059 14.8257 86.5981 14.7642 86.7036 14.7202C86.8091 14.6733 86.9204 14.6499 87.0376 14.6499H89.27C89.3901 14.6499 89.5029 14.6733 89.6084 14.7202C89.7139 14.7642 89.8047 14.8257 89.8809 14.9048C89.96 14.981 90.0215 15.0718 90.0654 15.1772C90.1123 15.2827 90.1357 15.3955 90.1357 15.5156V16.3066H89.27V15.5156H87.0376ZM94.4072 18.4644V17.3789H92.355C92.2349 17.3789 92.1221 17.3569 92.0166 17.313C91.9111 17.2661 91.8188 17.2046 91.7397 17.1284C91.6636 17.0493 91.6021 16.957 91.5552 16.8516C91.5112 16.7461 91.4893 16.6333 91.4893 16.5132V15.5156C91.4893 15.3955 91.5112 15.2827 91.5552 15.1772C91.6021 15.0718 91.6636 14.981 91.7397 14.9048C91.8188 14.8257 91.9111 14.7642 92.0166 14.7202C92.1221 14.6733 92.2349 14.6499 92.355 14.6499H95.0928V15.5156H92.355V16.5132H94.4072C94.5273 16.5132 94.6387 16.5366 94.7412 16.5835C94.8467 16.6274 94.939 16.689 95.0181 16.7681C95.0972 16.8442 95.1587 16.9351 95.2026 17.0405C95.2495 17.146 95.2729 17.2588 95.2729 17.3789V18.4644C95.2729 18.5845 95.2495 18.6973 95.2026 18.8027C95.1587 18.9082 95.0972 19.0005 95.0181 19.0796C94.939 19.1558 94.8467 19.2173 94.7412 19.2642C94.6387 19.3081 94.5273 19.3301 94.4072 19.3301H91.4893V18.4644H94.4072Z"></path>
</mask>
<path fill="white" d="M38.166 7.4292C38.585 7.4292 38.9072 7.31641 39.1328 7.09082C39.3584 6.86523 39.4712 6.54297 39.4712 6.12402V4.23438C39.4712 4.0293 39.4419 3.84619 39.3833 3.68506C39.3247 3.52393 39.2383 3.3877 39.124 3.27637C39.0127 3.16211 38.8765 3.07568 38.7153 3.01709C38.5542 2.9585 38.3711 2.9292 38.166 2.9292H35.8633V7.4292H38.166ZM34.9624 8.33008V2.02832H38.166C38.5029 2.02832 38.8062 2.08105 39.0757 2.18652C39.3481 2.28906 39.5796 2.43701 39.77 2.63037C39.9634 2.8208 40.1113 3.05225 40.2139 3.32471C40.3193 3.59717 40.3721 3.90039 40.3721 4.23438V6.12402C40.3721 6.45801 40.3193 6.76123 40.2139 7.03369C40.1113 7.30615 39.9634 7.53906 39.77 7.73242C39.5796 7.92285 39.3481 8.0708 39.0757 8.17627C38.8062 8.27881 38.5029 8.33008 38.166 8.33008H34.9624ZM42.6396 3.6499V8.33008H41.7739V3.6499H42.6396ZM41.73 1.84814H42.6836V2.74902H41.73V1.84814ZM46.9551 7.46436V6.37891H44.9028C44.7827 6.37891 44.6699 6.35693 44.5645 6.31299C44.459 6.26611 44.3667 6.20459 44.2876 6.12842C44.2114 6.04932 44.1499 5.95703 44.103 5.85156C44.0591 5.74609 44.0371 5.6333 44.0371 5.51318V4.51562C44.0371 4.39551 44.0591 4.28271 44.103 4.17725C44.1499 4.07178 44.2114 3.98096 44.2876 3.90479C44.3667 3.82568 44.459 3.76416 44.5645 3.72021C44.6699 3.67334 44.7827 3.6499 44.9028 3.6499H47.6406V4.51562H44.9028V5.51318H46.9551C47.0752 5.51318 47.1865 5.53662 47.2891 5.5835C47.3945 5.62744 47.4868 5.68896 47.5659 5.76807C47.645 5.84424 47.7065 5.93506 47.7505 6.04053C47.7974 6.146 47.8208 6.25879 47.8208 6.37891V7.46436C47.8208 7.58447 47.7974 7.69727 47.7505 7.80273C47.7065 7.9082 47.645 8.00049 47.5659 8.07959C47.4868 8.15576 47.3945 8.21729 47.2891 8.26416C47.1865 8.30811 47.0752 8.33008 46.9551 8.33008H44.0371V7.46436H46.9551ZM49.1743 6.28662C49.1743 6.1665 49.1963 6.05518 49.2402 5.95264C49.2871 5.84717 49.3486 5.75488 49.4248 5.67578C49.5039 5.59668 49.5962 5.53516 49.7017 5.49121C49.8071 5.44434 49.9185 5.4209 50.0356 5.4209H52.2681V4.51562H49.4424V3.6499H52.2681C52.3882 3.6499 52.501 3.67334 52.6064 3.72021C52.7119 3.76416 52.8027 3.82568 52.8789 3.90479C52.958 3.98096 53.0195 4.07178 53.0635 4.17725C53.1104 4.28271 53.1338 4.39551 53.1338 4.51562V8.33008H52.2681V7.53906C52.2593 7.64746 52.23 7.75 52.1802 7.84668C52.1304 7.94336 52.0659 8.02832 51.9868 8.10156C51.9106 8.17188 51.8228 8.22754 51.7231 8.26855C51.6235 8.30957 51.5181 8.33008 51.4067 8.33008H50.0356C49.9185 8.33008 49.8071 8.30811 49.7017 8.26416C49.5962 8.21729 49.5039 8.15576 49.4248 8.07959C49.3486 8.00049 49.2871 7.9082 49.2402 7.80273C49.1963 7.69727 49.1743 7.58447 49.1743 7.46436V6.28662ZM50.0356 7.46436H52.2681V6.28662H50.0356V7.46436ZM58.7192 7.46436C58.7192 7.58447 58.6958 7.69727 58.6489 7.80273C58.605 7.9082 58.5435 8.00049 58.4644 8.07959C58.3882 8.15576 58.2974 8.21729 58.1919 8.26416C58.0864 8.30811 57.9736 8.33008 57.8535 8.33008H55.4409C55.3237 8.33008 55.2124 8.30811 55.1069 8.26416C55.0015 8.21729 54.9092 8.15576 54.8301 8.07959C54.7539 8.00049 54.6924 7.9082 54.6455 7.80273C54.6016 7.69727 54.5796 7.58447 54.5796 7.46436V1.84814H55.4409V4.47607C55.4468 4.36182 55.4731 4.25488 55.52 4.15527C55.5669 4.05273 55.6284 3.96484 55.7046 3.8916C55.7837 3.81543 55.8745 3.75684 55.9771 3.71582C56.0796 3.67188 56.1895 3.6499 56.3066 3.6499H57.8535C57.9736 3.6499 58.0864 3.67334 58.1919 3.72021C58.2974 3.76416 58.3882 3.82568 58.4644 3.90479C58.5435 3.98096 58.605 4.07178 58.6489 4.17725C58.6958 4.28271 58.7192 4.39551 58.7192 4.51562V7.46436ZM55.4409 4.51562V7.46436H57.8535V4.51562H55.4409ZM61.022 1.84814V8.33008H60.1606V1.84814H61.022ZM66.4229 6.43164H63.3247V7.46436H66.4229V8.33008H63.3247C63.2075 8.33008 63.0962 8.30811 62.9907 8.26416C62.8853 8.21729 62.793 8.15576 62.7139 8.07959C62.6377 8.00049 62.5762 7.9082 62.5293 7.80273C62.4854 7.69727 62.4634 7.58447 62.4634 7.46436V4.51562C62.4634 4.39551 62.4854 4.28271 62.5293 4.17725C62.5762 4.07178 62.6377 3.98096 62.7139 3.90479C62.793 3.82568 62.8853 3.76416 62.9907 3.72021C63.0962 3.67334 63.2075 3.6499 63.3247 3.6499H65.5571C65.6772 3.6499 65.79 3.67334 65.8955 3.72021C66.001 3.76416 66.0918 3.82568 66.168 3.90479C66.2471 3.98096 66.3086 4.07178 66.3525 4.17725C66.3994 4.28271 66.4229 4.39551 66.4229 4.51562V6.43164ZM63.3247 4.51562V5.56592H65.5571V4.51562H63.3247ZM11.6934 13.0283L14.1235 19.3301H13.2227L12.6646 17.8799H9.82129L9.26318 19.3301H8.3623L10.7925 13.0283H11.6934ZM10.1641 16.979H12.3174L11.2451 14.2017L10.1641 16.979ZM15.1167 15.5156C15.1167 15.3955 15.1387 15.2827 15.1826 15.1772C15.2295 15.0718 15.291 14.981 15.3672 14.9048C15.4463 14.8257 15.5386 14.7642 15.644 14.7202C15.7495 14.6733 15.8608 14.6499 15.978 14.6499H18.3906V12.8481H19.2563V19.3301H18.3906V18.5391C18.3818 18.6475 18.3525 18.75 18.3027 18.8467C18.2529 18.9434 18.1885 19.0283 18.1094 19.1016C18.0332 19.1719 17.9453 19.2275 17.8457 19.2686C17.7461 19.3096 17.6406 19.3301 17.5293 19.3301H15.978C15.8608 19.3301 15.7495 19.3081 15.644 19.2642C15.5386 19.2173 15.4463 19.1558 15.3672 19.0796C15.291 19.0005 15.2295 18.9082 15.1826 18.8027C15.1387 18.6973 15.1167 18.5845 15.1167 18.4644V15.5156ZM15.978 18.4644H18.3906V15.5156H15.978V18.4644ZM22.0293 19.3301L20.1572 14.6499H21.0581L22.4775 18.293L23.9014 14.6499H24.8022L22.9302 19.3301H22.0293ZM25.7075 17.2866C25.7075 17.1665 25.7295 17.0552 25.7734 16.9526C25.8203 16.8472 25.8818 16.7549 25.958 16.6758C26.0371 16.5967 26.1294 16.5352 26.2349 16.4912C26.3403 16.4443 26.4517 16.4209 26.5688 16.4209H28.8013V15.5156H25.9756V14.6499H28.8013C28.9214 14.6499 29.0342 14.6733 29.1396 14.7202C29.2451 14.7642 29.3359 14.8257 29.4121 14.9048C29.4912 14.981 29.5527 15.0718 29.5967 15.1772C29.6436 15.2827 29.667 15.3955 29.667 15.5156V19.3301H28.8013V18.5391C28.7925 18.6475 28.7632 18.75 28.7134 18.8467C28.6636 18.9434 28.5991 19.0283 28.52 19.1016C28.4438 19.1719 28.356 19.2275 28.2563 19.2686C28.1567 19.3096 28.0513 19.3301 27.9399 19.3301H26.5688C26.4517 19.3301 26.3403 19.3081 26.2349 19.2642C26.1294 19.2173 26.0371 19.1558 25.958 19.0796C25.8818 19.0005 25.8203 18.9082 25.7734 18.8027C25.7295 18.6973 25.7075 18.5845 25.7075 18.4644V17.2866ZM26.5688 18.4644H28.8013V17.2866H26.5688V18.4644ZM35.2524 19.3301H34.3867V15.5156H31.9741V19.3301H31.1128V14.6499H31.9741V15.4761C31.98 15.3618 32.0063 15.2549 32.0532 15.1553C32.1001 15.0527 32.1616 14.9648 32.2378 14.8916C32.3169 14.8154 32.4077 14.7568 32.5103 14.7158C32.6128 14.6719 32.7227 14.6499 32.8398 14.6499H34.3867C34.5068 14.6499 34.6196 14.6733 34.7251 14.7202C34.8306 14.7642 34.9214 14.8257 34.9976 14.9048C35.0767 14.981 35.1382 15.0718 35.1821 15.1772C35.229 15.2827 35.2524 15.3955 35.2524 15.5156V19.3301ZM37.5552 15.5156V18.4644H39.7876V17.6733H40.6533V18.4644C40.6533 18.5845 40.6299 18.6973 40.583 18.8027C40.5391 18.9082 40.4775 19.0005 40.3984 19.0796C40.3223 19.1558 40.2314 19.2173 40.126 19.2642C40.0205 19.3081 39.9077 19.3301 39.7876 19.3301H37.5552C37.438 19.3301 37.3267 19.3081 37.2212 19.2642C37.1157 19.2173 37.0234 19.1558 36.9443 19.0796C36.8682 19.0005 36.8066 18.9082 36.7598 18.8027C36.7158 18.6973 36.6938 18.5845 36.6938 18.4644V15.5156C36.6938 15.3955 36.7158 15.2827 36.7598 15.1772C36.8066 15.0718 36.8682 14.981 36.9443 14.9048C37.0234 14.8257 37.1157 14.7642 37.2212 14.7202C37.3267 14.6733 37.438 14.6499 37.5552 14.6499H39.7876C39.9077 14.6499 40.0205 14.6733 40.126 14.7202C40.2314 14.7642 40.3223 14.8257 40.3984 14.9048C40.4775 14.981 40.5391 15.0718 40.583 15.1772C40.6299 15.2827 40.6533 15.3955 40.6533 15.5156V16.3066H39.7876V15.5156H37.5552ZM46.0586 17.4316H42.9604V18.4644H46.0586V19.3301H42.9604C42.8433 19.3301 42.7319 19.3081 42.6265 19.2642C42.521 19.2173 42.4287 19.1558 42.3496 19.0796C42.2734 19.0005 42.2119 18.9082 42.165 18.8027C42.1211 18.6973 42.0991 18.5845 42.0991 18.4644V15.5156C42.0991 15.3955 42.1211 15.2827 42.165 15.1772C42.2119 15.0718 42.2734 14.981 42.3496 14.9048C42.4287 14.8257 42.521 14.7642 42.6265 14.7202C42.7319 14.6733 42.8433 14.6499 42.9604 14.6499H45.1929C45.313 14.6499 45.4258 14.6733 45.5312 14.7202C45.6367 14.7642 45.7275 14.8257 45.8037 14.9048C45.8828 14.981 45.9443 15.0718 45.9883 15.1772C46.0352 15.2827 46.0586 15.3955 46.0586 15.5156V17.4316ZM42.9604 15.5156V16.5659H45.1929V15.5156H42.9604ZM47.5044 15.5156C47.5044 15.3955 47.5264 15.2827 47.5703 15.1772C47.6172 15.0718 47.6787 14.981 47.7549 14.9048C47.834 14.8257 47.9263 14.7642 48.0317 14.7202C48.1372 14.6733 48.2485 14.6499 48.3657 14.6499H50.7783V12.8481H51.644V19.3301H50.7783V18.5391C50.7695 18.6475 50.7402 18.75 50.6904 18.8467C50.6406 18.9434 50.5762 19.0283 50.4971 19.1016C50.4209 19.1719 50.333 19.2275 50.2334 19.2686C50.1338 19.3096 50.0283 19.3301 49.917 19.3301H48.3657C48.2485 19.3301 48.1372 19.3081 48.0317 19.2642C47.9263 19.2173 47.834 19.1558 47.7549 19.0796C47.6787 19.0005 47.6172 18.9082 47.5703 18.8027C47.5264 18.6973 47.5044 18.5845 47.5044 18.4644V15.5156ZM48.3657 18.4644H50.7783V15.5156H48.3657V18.4644ZM55.8716 13.9292C55.8716 13.8062 55.895 13.6904 55.9419 13.582C55.9888 13.4707 56.0532 13.3755 56.1353 13.2964C56.2173 13.2144 56.3125 13.1499 56.4209 13.103C56.5322 13.0532 56.6494 13.0283 56.7725 13.0283H60.1914C60.3145 13.0283 60.4302 13.0532 60.5386 13.103C60.6499 13.1499 60.7466 13.2144 60.8286 13.2964C60.9106 13.3755 60.9751 13.4707 61.022 13.582C61.0688 13.6904 61.0923 13.8062 61.0923 13.9292V14.7422H60.1914V13.9292H56.7725V18.4292H60.1914V16.8999H58.4819V15.999H61.0923V18.4292C61.0923 18.5522 61.0688 18.6694 61.022 18.7808C60.9751 18.8892 60.9106 18.9844 60.8286 19.0664C60.7466 19.1484 60.6499 19.2129 60.5386 19.2598C60.4302 19.3066 60.3145 19.3301 60.1914 19.3301H56.7725C56.6494 19.3301 56.5322 19.3066 56.4209 19.2598C56.3125 19.2129 56.2173 19.1484 56.1353 19.0664C56.0532 18.9844 55.9888 18.8892 55.9419 18.7808C55.895 18.6694 55.8716 18.5522 55.8716 18.4292V13.9292ZM63.4829 15.5156V19.3301H62.6216V14.6499H63.4829V15.4761C63.4888 15.3618 63.5151 15.2549 63.562 15.1553C63.6089 15.0527 63.6704 14.9648 63.7466 14.8916C63.8257 14.8154 63.9165 14.7568 64.019 14.7158C64.1216 14.6719 64.2314 14.6499 64.3486 14.6499H65.2671C65.3872 14.6499 65.4985 14.6733 65.6011 14.7202C65.7065 14.7642 65.7988 14.8257 65.8779 14.9048C65.957 14.981 66.0186 15.0718 66.0625 15.1772C66.1094 15.2827 66.1328 15.3955 66.1328 15.5156V16.3066H65.2671V15.5156H63.4829ZM67.2095 17.2866C67.2095 17.1665 67.2314 17.0552 67.2754 16.9526C67.3223 16.8472 67.3838 16.7549 67.46 16.6758C67.5391 16.5967 67.6313 16.5352 67.7368 16.4912C67.8423 16.4443 67.9536 16.4209 68.0708 16.4209H70.3032V15.5156H67.4775V14.6499H70.3032C70.4233 14.6499 70.5361 14.6733 70.6416 14.7202C70.7471 14.7642 70.8379 14.8257 70.9141 14.9048C70.9932 14.981 71.0547 15.0718 71.0986 15.1772C71.1455 15.2827 71.1689 15.3955 71.1689 15.5156V19.3301H70.3032V18.5391C70.2944 18.6475 70.2651 18.75 70.2153 18.8467C70.1655 18.9434 70.1011 19.0283 70.022 19.1016C69.9458 19.1719 69.8579 19.2275 69.7583 19.2686C69.6587 19.3096 69.5532 19.3301 69.4419 19.3301H68.0708C67.9536 19.3301 67.8423 19.3081 67.7368 19.2642C67.6313 19.2173 67.5391 19.1558 67.46 19.0796C67.3838 19.0005 67.3223 18.9082 67.2754 18.8027C67.2314 18.6973 67.2095 18.5845 67.2095 18.4644V17.2866ZM68.0708 18.4644H70.3032V17.2866H68.0708V18.4644ZM76.7544 18.4644C76.7544 18.5845 76.731 18.6973 76.6841 18.8027C76.6401 18.9082 76.5786 19.0005 76.4995 19.0796C76.4233 19.1558 76.3325 19.2173 76.2271 19.2642C76.1216 19.3081 76.0088 19.3301 75.8887 19.3301H73.4761V21.2197H72.6147V14.6499H73.4761V15.4409C73.4849 15.3296 73.5142 15.2271 73.564 15.1333C73.6138 15.0366 73.6768 14.9531 73.7529 14.8828C73.8291 14.8096 73.917 14.7524 74.0166 14.7114C74.1191 14.6704 74.2275 14.6499 74.3418 14.6499H75.8887C76.0088 14.6499 76.1216 14.6733 76.2271 14.7202C76.3325 14.7642 76.4233 14.8257 76.4995 14.9048C76.5786 14.981 76.6401 15.0718 76.6841 15.1772C76.731 15.2827 76.7544 15.3955 76.7544 15.5156V18.4644ZM75.8887 18.4644V15.5156H73.4761V18.4644H75.8887ZM82.3354 19.3301H81.4697V15.5156H79.0571V19.3301H78.1958V12.8481H79.0571V15.4761C79.063 15.3618 79.0894 15.2549 79.1362 15.1553C79.1831 15.0527 79.2446 14.9648 79.3208 14.8916C79.3999 14.8154 79.4907 14.7568 79.5933 14.7158C79.6958 14.6719 79.8057 14.6499 79.9229 14.6499H81.4697C81.5898 14.6499 81.7026 14.6733 81.8081 14.7202C81.9136 14.7642 82.0044 14.8257 82.0806 14.9048C82.1597 14.981 82.2212 15.0718 82.2651 15.1772C82.312 15.2827 82.3354 15.3955 82.3354 15.5156V19.3301ZM84.6865 14.6499V19.3301H83.8208V14.6499H84.6865ZM83.7769 12.8481H84.7305V13.749H83.7769V12.8481ZM87.0376 15.5156V18.4644H89.27V17.6733H90.1357V18.4644C90.1357 18.5845 90.1123 18.6973 90.0654 18.8027C90.0215 18.9082 89.96 19.0005 89.8809 19.0796C89.8047 19.1558 89.7139 19.2173 89.6084 19.2642C89.5029 19.3081 89.3901 19.3301 89.27 19.3301H87.0376C86.9204 19.3301 86.8091 19.3081 86.7036 19.2642C86.5981 19.2173 86.5059 19.1558 86.4268 19.0796C86.3506 19.0005 86.2891 18.9082 86.2422 18.8027C86.1982 18.6973 86.1763 18.5845 86.1763 18.4644V15.5156C86.1763 15.3955 86.1982 15.2827 86.2422 15.1772C86.2891 15.0718 86.3506 14.981 86.4268 14.9048C86.5059 14.8257 86.5981 14.7642 86.7036 14.7202C86.8091 14.6733 86.9204 14.6499 87.0376 14.6499H89.27C89.3901 14.6499 89.5029 14.6733 89.6084 14.7202C89.7139 14.7642 89.8047 14.8257 89.8809 14.9048C89.96 14.981 90.0215 15.0718 90.0654 15.1772C90.1123 15.2827 90.1357 15.3955 90.1357 15.5156V16.3066H89.27V15.5156H87.0376ZM94.4072 18.4644V17.3789H92.355C92.2349 17.3789 92.1221 17.3569 92.0166 17.313C91.9111 17.2661 91.8188 17.2046 91.7397 17.1284C91.6636 17.0493 91.6021 16.957 91.5552 16.8516C91.5112 16.7461 91.4893 16.6333 91.4893 16.5132V15.5156C91.4893 15.3955 91.5112 15.2827 91.5552 15.1772C91.6021 15.0718 91.6636 14.981 91.7397 14.9048C91.8188 14.8257 91.9111 14.7642 92.0166 14.7202C92.1221 14.6733 92.2349 14.6499 92.355 14.6499H95.0928V15.5156H92.355V16.5132H94.4072C94.5273 16.5132 94.6387 16.5366 94.7412 16.5835C94.8467 16.6274 94.939 16.689 95.0181 16.7681C95.0972 16.8442 95.1587 16.9351 95.2026 17.0405C95.2495 17.146 95.2729 17.2588 95.2729 17.3789V18.4644C95.2729 18.5845 95.2495 18.6973 95.2026 18.8027C95.1587 18.9082 95.0972 19.0005 95.0181 19.0796C94.939 19.1558 94.8467 19.2173 94.7412 19.2642C94.6387 19.3081 94.5273 19.3301 94.4072 19.3301H91.4893V18.4644H94.4072Z"></path>
<path mask="url(#path-2-outside-1_275_50)" fill="white" d="M39.124 3.27637L39.0524 3.34618L39.0542 3.34799L39.124 3.27637ZM35.8633 2.9292V2.8292H35.7633V2.9292H35.8633ZM35.8633 7.4292H35.7633V7.5292H35.8633V7.4292ZM34.9624 8.33008H34.8624V8.43008H34.9624V8.33008ZM34.9624 2.02832V1.92832H34.8624V2.02832H34.9624ZM39.0757 2.18652L39.0392 2.27966L39.0405 2.28011L39.0757 2.18652ZM39.77 2.63037L39.6988 2.70055L39.6999 2.70162L39.77 2.63037ZM40.2139 3.32471L40.1203 3.35993L40.1206 3.36081L40.2139 3.32471ZM40.2139 7.03369L40.1206 6.99759L40.1203 6.99847L40.2139 7.03369ZM39.0757 8.17627L39.1112 8.26974L39.1118 8.26953L39.0757 8.17627ZM38.166 7.5292C38.6029 7.5292 38.9539 7.4112 39.2035 7.16153L39.0621 7.02011C38.8606 7.22161 38.5671 7.3292 38.166 7.3292V7.5292ZM39.2035 7.16153C39.4532 6.91186 39.5712 6.56086 39.5712 6.12402H39.3712C39.3712 6.52507 39.2636 6.81861 39.0621 7.02011L39.2035 7.16153ZM39.5712 6.12402V4.23438H39.3712V6.12402H39.5712ZM39.5712 4.23438C39.5712 4.01987 39.5406 3.82488 39.4773 3.65088L39.2893 3.71923C39.3432 3.8675 39.3712 4.03873 39.3712 4.23438H39.5712ZM39.4773 3.65088C39.4139 3.47669 39.3196 3.32735 39.1938 3.20474L39.0542 3.34799C39.1569 3.44804 39.2355 3.57117 39.2893 3.71923L39.4773 3.65088ZM39.1956 3.20658C39.073 3.08075 38.9237 2.98646 38.7495 2.92311L38.6812 3.11107C38.8292 3.16491 38.9523 3.24347 39.0524 3.34615L39.1956 3.20658ZM38.7495 2.92311C38.5755 2.85984 38.3805 2.8292 38.166 2.8292V3.0292C38.3617 3.0292 38.5329 3.05715 38.6812 3.11107L38.7495 2.92311ZM38.166 2.8292H35.8633V3.0292H38.166V2.8292ZM35.7633 2.9292V7.4292H35.9633V2.9292H35.7633ZM35.8633 7.5292H38.166V7.3292H35.8633V7.5292ZM35.0624 8.33008V2.02832H34.8624V8.33008H35.0624ZM34.9624 2.12832H38.166V1.92832H34.9624V2.12832ZM38.166 2.12832C38.4925 2.12832 38.7831 2.1794 39.0392 2.27965L39.1121 2.0934C38.8292 1.98271 38.5134 1.92832 38.166 1.92832V2.12832ZM39.0405 2.28011C39.3004 2.37793 39.5192 2.51824 39.6988 2.70054L39.8413 2.5602C39.6399 2.35578 39.3959 2.2002 39.1109 2.09293L39.0405 2.28011ZM39.6999 2.70162C39.8821 2.88115 40.0225 3.10003 40.1203 3.35993L40.3075 3.28948C40.2002 3.00446 40.0446 2.76045 39.8402 2.55912L39.6999 2.70162ZM40.1206 3.36081C40.221 3.62023 40.2721 3.91099 40.2721 4.23438H40.4721C40.4721 3.88979 40.4176 3.57411 40.3071 3.28861L40.1206 3.36081ZM40.2721 4.23438V6.12402H40.4721V4.23438H40.2721ZM40.2721 6.12402C40.2721 6.44741 40.221 6.73817 40.1206 6.99759L40.3071 7.06979C40.4176 6.78429 40.4721 6.46861 40.4721 6.12402H40.2721ZM40.1203 6.99847C40.0224 7.25848 39.882 7.47906 39.6993 7.66171L39.8407 7.80313C40.0448 7.59907 40.2002 7.35382 40.3075 7.06891L40.1203 6.99847ZM39.6993 7.66171C39.5195 7.84149 39.3002 7.98214 39.0396 8.08301L39.1118 8.26953C39.3961 8.15946 39.6396 8.00422 39.8407 7.80313L39.6993 7.66171ZM39.0401 8.0828C38.7837 8.18036 38.4928 8.23008 38.166 8.23008V8.43008C38.5131 8.43008 38.8286 8.37725 39.1112 8.26973L39.0401 8.0828ZM38.166 8.23008H34.9624V8.43008H38.166V8.23008ZM42.6396 3.6499H42.7396V3.5499H42.6396V3.6499ZM42.6396 8.33008V8.43008H42.7396V8.33008H42.6396ZM41.7739 8.33008H41.6739V8.43008H41.7739V8.33008ZM41.7739 3.6499V3.5499H41.6739V3.6499H41.7739ZM41.73 1.84814V1.74814H41.63V1.84814H41.73ZM42.6836 1.84814H42.7836V1.74814H42.6836V1.84814ZM42.6836 2.74902V2.84902H42.7836V2.74902H42.6836ZM41.73 2.74902H41.63V2.84902H41.73V2.74902ZM42.5396 3.6499V8.33008H42.7396V3.6499H42.5396ZM42.6396 8.23008H41.7739V8.43008H42.6396V8.23008ZM41.8739 8.33008V3.6499H41.6739V8.33008H41.8739ZM41.7739 3.7499H42.6396V3.5499H41.7739V3.7499ZM41.73 1.94814H42.6836V1.74814H41.73V1.94814ZM42.5836 1.84814V2.74902H42.7836V1.84814H42.5836ZM42.6836 2.64902H41.73V2.84902H42.6836V2.64902ZM41.83 2.74902V1.84814H41.63V2.74902H41.83ZM46.9551 7.46436V7.56436H47.0551V7.46436H46.9551ZM46.9551 6.37891H47.0551V6.27891H46.9551V6.37891ZM44.5645 6.31299L44.5238 6.40439L44.526 6.4053L44.5645 6.31299ZM44.2876 6.12842L44.2155 6.19783L44.2182 6.20045L44.2876 6.12842ZM44.103 5.85156L44.0107 5.89003L44.0116 5.89218L44.103 5.85156ZM44.103 4.17725L44.0116 4.13662L44.0107 4.13878L44.103 4.17725ZM44.5645 3.72021L44.6029 3.81255L44.6051 3.8116L44.5645 3.72021ZM47.6406 3.6499H47.7406V3.5499H47.6406V3.6499ZM47.6406 4.51562V4.61563H47.7406V4.51562H47.6406ZM44.9028 4.51562V4.41562H44.8028V4.51562H44.9028ZM44.9028 5.51318H44.8028V5.61318H44.9028V5.51318ZM47.2891 5.5835L47.2475 5.6745L47.2506 5.6758L47.2891 5.5835ZM47.5659 5.76807L47.4952 5.83879L47.4966 5.8401L47.5659 5.76807ZM47.7505 6.04053L47.6582 6.079L47.6591 6.08114L47.7505 6.04053ZM47.7505 7.80273L47.6591 7.76211L47.6582 7.76427L47.7505 7.80273ZM47.5659 8.07959L47.6353 8.15163L47.6366 8.1503L47.5659 8.07959ZM47.2891 8.26416L47.3285 8.35608L47.3297 8.35554L47.2891 8.26416ZM44.0371 8.33008H43.9371V8.43008H44.0371V8.33008ZM44.0371 7.46436V7.36436H43.9371V7.46436H44.0371ZM47.0551 7.46436V6.37891H46.8551V7.46436H47.0551ZM46.9551 6.27891H44.9028V6.47891H46.9551V6.27891ZM44.9028 6.27891C44.7952 6.27891 44.6956 6.25929 44.6029 6.22068L44.526 6.4053C44.6443 6.45458 44.7702 6.47891 44.9028 6.47891V6.27891ZM44.6051 6.22161C44.5097 6.17922 44.4273 6.12408 44.357 6.05639L44.2182 6.20045C44.3061 6.2851 44.4083 6.35301 44.5238 6.40437L44.6051 6.22161ZM44.3596 6.05905C44.2919 5.98876 44.2368 5.90633 44.1944 5.81095L44.0116 5.89218C44.063 6.00773 44.1309 6.10987 44.2156 6.19778L44.3596 6.05905ZM44.1953 5.8131C44.1567 5.72044 44.1371 5.62079 44.1371 5.51318H43.9371C43.9371 5.64582 43.9614 5.77175 44.0107 5.89002L44.1953 5.8131ZM44.1371 5.51318V4.51562H43.9371V5.51318H44.1371ZM44.1371 4.51562C44.1371 4.40802 44.1567 4.30837 44.1953 4.21571L44.0107 4.13878C43.9614 4.25706 43.9371 4.38299 43.9371 4.51562H44.1371ZM44.1944 4.21786C44.2367 4.1228 44.2914 4.04239 44.3583 3.9755L44.2169 3.83407C44.1314 3.91953 44.0631 4.02075 44.0116 4.13663L44.1944 4.21786ZM44.3583 3.9755C44.428 3.90583 44.5092 3.85155 44.6029 3.81252L44.526 3.62791C44.4087 3.67677 44.3054 3.74554 44.2169 3.83407L44.3583 3.9755ZM44.6051 3.8116C44.6972 3.77064 44.7961 3.7499 44.9028 3.7499V3.5499C44.7693 3.5499 44.6426 3.57604 44.5238 3.62883L44.6051 3.8116ZM44.9028 3.7499H47.6406V3.5499H44.9028V3.7499ZM47.5406 3.6499V4.51562H47.7406V3.6499H47.5406ZM47.6406 4.41562H44.9028V4.61563H47.6406V4.41562ZM44.8028 4.51562V5.51318H45.0028V4.51562H44.8028ZM44.9028 5.61318H46.9551V5.41318H44.9028V5.61318ZM46.9551 5.61318C47.0618 5.61318 47.1588 5.63392 47.2475 5.67444L47.3306 5.49255C47.2142 5.43932 47.0886 5.41318 46.9551 5.41318V5.61318ZM47.2506 5.6758C47.3443 5.71484 47.4255 5.76911 47.4952 5.83878L47.6366 5.69736C47.5481 5.60882 47.4448 5.54005 47.3275 5.49119L47.2506 5.6758ZM47.4966 5.8401C47.5654 5.90638 47.6193 5.98564 47.6582 6.07899L47.8428 6.00207C47.7938 5.88448 47.7246 5.78209 47.6353 5.69603L47.4966 5.8401ZM47.6591 6.08114C47.7001 6.1733 47.7208 6.2722 47.7208 6.37891H47.9208C47.9208 6.24538 47.8947 6.11869 47.8419 5.99991L47.6591 6.08114ZM47.7208 6.37891V7.46436H47.9208V6.37891H47.7208ZM47.7208 7.46436C47.7208 7.57106 47.7001 7.66996 47.6591 7.76212L47.8419 7.84335C47.8947 7.72457 47.9208 7.59788 47.9208 7.46436H47.7208ZM47.6582 7.76427C47.6191 7.85795 47.5649 7.93921 47.4952 8.00888L47.6366 8.1503C47.7252 8.06176 47.7939 7.95846 47.8428 7.8412L47.6582 7.76427ZM47.4966 8.00756C47.4263 8.07525 47.3438 8.13039 47.2484 8.17278L47.3297 8.35554C47.4452 8.30418 47.5474 8.23627 47.6353 8.15162L47.4966 8.00756ZM47.2497 8.17225C47.1605 8.21046 47.0627 8.23008 46.9551 8.23008V8.43008C47.0877 8.43008 47.2125 8.40575 47.3285 8.35607L47.2497 8.17225ZM46.9551 8.23008H44.0371V8.43008H46.9551V8.23008ZM44.1371 8.33008V7.46436H43.9371V8.33008H44.1371ZM44.0371 7.56436H46.9551V7.36436H44.0371V7.56436ZM49.2402 5.95264L49.1488 5.91202L49.1483 5.91324L49.2402 5.95264ZM49.4248 5.67578L49.3541 5.60506L49.3528 5.60642L49.4248 5.67578ZM49.7017 5.49121L49.7401 5.58354L49.7423 5.58259L49.7017 5.49121ZM52.2681 5.4209V5.5209H52.3681V5.4209H52.2681ZM52.2681 4.51562H52.3681V4.41562H52.2681V4.51562ZM49.4424 4.51562H49.3424V4.61563H49.4424V4.51562ZM49.4424 3.6499V3.5499H49.3424V3.6499H49.4424ZM52.6064 3.72021L52.5658 3.81162L52.568 3.81252L52.6064 3.72021ZM52.8789 3.90479L52.8068 3.9742L52.8095 3.97682L52.8789 3.90479ZM53.0635 4.17725L52.9711 4.21572L52.9721 4.21786L53.0635 4.17725ZM53.1338 8.33008V8.43008H53.2338V8.33008H53.1338ZM52.2681 8.33008H52.1681V8.43008H52.2681V8.33008ZM52.2681 7.53906H52.3681L52.1684 7.53098L52.2681 7.53906ZM51.9868 8.10156L52.0546 8.17504L52.0548 8.17494L51.9868 8.10156ZM49.7017 8.26416L49.661 8.35557L49.6632 8.35647L49.7017 8.26416ZM49.4248 8.07959L49.3527 8.149L49.3554 8.15162L49.4248 8.07959ZM49.2402 7.80273L49.1479 7.84121L49.1489 7.84335L49.2402 7.80273ZM50.0356 7.46436H49.9356V7.56436H50.0356V7.46436ZM52.2681 7.46436V7.56436H52.3681V7.46436H52.2681ZM52.2681 6.28662H52.3681V6.18662H52.2681V6.28662ZM50.0356 6.28662V6.18662H49.9356V6.28662H50.0356ZM49.2743 6.28662C49.2743 6.179 49.2939 6.08119 49.3321 5.99203L49.1483 5.91324C49.0986 6.02916 49.0743 6.15401 49.0743 6.28662H49.2743ZM49.3316 5.99325C49.374 5.89787 49.4291 5.81544 49.4968 5.74515L49.3528 5.60642C49.2681 5.69432 49.2002 5.79647 49.1489 5.91202L49.3316 5.99325ZM49.4955 5.74649C49.5652 5.67683 49.6464 5.62255 49.7401 5.58352L49.6632 5.3989C49.5459 5.44776 49.4426 5.51653 49.3541 5.60507L49.4955 5.74649ZM49.7423 5.58259C49.8348 5.54149 49.9322 5.5209 50.0356 5.5209V5.3209C49.9047 5.3209 49.7795 5.34718 49.661 5.39983L49.7423 5.58259ZM50.0356 5.5209H52.2681V5.3209H50.0356V5.5209ZM52.3681 5.4209V4.51562H52.1681V5.4209H52.3681ZM52.2681 4.41562H49.4424V4.61563H52.2681V4.41562ZM49.5424 4.51562V3.6499H49.3424V4.51562H49.5424ZM49.4424 3.7499H52.2681V3.5499H49.4424V3.7499ZM52.2681 3.7499C52.3748 3.7499 52.4737 3.77064 52.5658 3.8116L52.6471 3.62883C52.5283 3.57604 52.4016 3.5499 52.2681 3.5499V3.7499ZM52.568 3.81252C52.6613 3.85142 52.7406 3.90531 52.8069 3.97415L52.9509 3.83542C52.8649 3.74605 52.7625 3.6769 52.6449 3.62791L52.568 3.81252ZM52.8095 3.97682C52.8784 4.0431 52.9323 4.12236 52.9712 4.21571L53.1558 4.13878C53.1068 4.0212 53.0376 3.91881 52.9483 3.83275L52.8095 3.97682ZM52.9721 4.21786C53.0131 4.31002 53.0338 4.40892 53.0338 4.51562H53.2338C53.2338 4.3821 53.2076 4.25541 53.1549 4.13663L52.9721 4.21786ZM53.0338 4.51562V8.33008H53.2338V4.51562H53.0338ZM53.1338 8.23008H52.2681V8.43008H53.1338V8.23008ZM52.3681 8.33008V7.53906H52.1681V8.33008H52.3681ZM52.1684 7.53098C52.1607 7.62622 52.135 7.71594 52.0913 7.80088L52.2691 7.89248C52.3249 7.78406 52.3579 7.6687 52.3677 7.54714L52.1684 7.53098ZM52.0913 7.80088C52.0468 7.88731 51.9894 7.96292 51.9189 8.02819L52.0548 8.17494C52.1425 8.09372 52.214 7.9994 52.2691 7.89248L52.0913 7.80088ZM51.919 8.02808C51.8519 8.09004 51.7741 8.13941 51.6851 8.17609L51.7612 8.36102C51.8714 8.31567 51.9694 8.25371 52.0546 8.17504L51.919 8.02808ZM51.6851 8.17609C51.5979 8.21196 51.5055 8.23008 51.4067 8.23008V8.43008C51.5307 8.43008 51.6491 8.40718 51.7612 8.36102L51.6851 8.17609ZM51.4067 8.23008H50.0356V8.43008H51.4067V8.23008ZM50.0356 8.23008C49.9313 8.23008 49.8331 8.21059 49.7401 8.17185L49.6632 8.35647C49.7812 8.40562 49.9056 8.43008 50.0356 8.43008V8.23008ZM49.7423 8.17278C49.6469 8.13039 49.5645 8.07525 49.4942 8.00756L49.3554 8.15162C49.4433 8.23627 49.5455 8.30418 49.661 8.35554L49.7423 8.17278ZM49.4968 8.01023C49.4291 7.93993 49.374 7.8575 49.3316 7.76212L49.1489 7.84335C49.2002 7.95891 49.2681 8.06105 49.3528 8.14895L49.4968 8.01023ZM49.3325 7.76427C49.2939 7.67161 49.2743 7.57196 49.2743 7.46436H49.0743C49.0743 7.59699 49.0986 7.72292 49.1479 7.8412L49.3325 7.76427ZM49.2743 7.46436V6.28662H49.0743V7.46436H49.2743ZM50.0356 7.56436H52.2681V7.36436H50.0356V7.56436ZM52.3681 7.46436V6.28662H52.1681V7.46436H52.3681ZM52.2681 6.18662H50.0356V6.38662H52.2681V6.18662ZM49.9356 6.28662V7.46436H50.1356V6.28662H49.9356ZM58.6489 7.80273L58.5575 7.76211L58.5566 7.76427L58.6489 7.80273ZM58.1919 8.26416L58.2304 8.35649L58.2325 8.35554L58.1919 8.26416ZM55.1069 8.26416L55.0663 8.35557L55.0685 8.35647L55.1069 8.26416ZM54.8301 8.07959L54.758 8.149L54.7607 8.15162L54.8301 8.07959ZM54.6455 7.80273L54.5532 7.84121L54.5541 7.84335L54.6455 7.80273ZM54.5796 1.84814V1.74814H54.4796V1.84814H54.5796ZM55.4409 1.84814H55.5409V1.74814H55.4409V1.84814ZM55.4409 4.47607H55.3409L55.5408 4.4812L55.4409 4.47607ZM55.52 4.15527L55.6105 4.19786L55.611 4.19685L55.52 4.15527ZM55.7046 3.8916L55.7739 3.96368L55.774 3.96363L55.7046 3.8916ZM55.9771 3.71582L56.0142 3.8087L56.0164 3.80773L55.9771 3.71582ZM58.1919 3.72021L58.1513 3.81162L58.1534 3.81252L58.1919 3.72021ZM58.4644 3.90479L58.3923 3.9742L58.395 3.97682L58.4644 3.90479ZM58.6489 4.17725L58.5566 4.21572L58.5575 4.21786L58.6489 4.17725ZM55.4409 4.51562V4.41562H55.3409V4.51562H55.4409ZM55.4409 7.46436H55.3409V7.56436H55.4409V7.46436ZM57.8535 7.46436V7.56436H57.9535V7.46436H57.8535ZM57.8535 4.51562H57.9535V4.41562H57.8535V4.51562ZM58.6192 7.46436C58.6192 7.57106 58.5985 7.66996 58.5575 7.76212L58.7403 7.84335C58.7931 7.72457 58.8192 7.59788 58.8192 7.46436H58.6192ZM58.5566 7.76427C58.5176 7.85795 58.4633 7.93921 58.3936 8.00888L58.5351 8.1503C58.6236 8.06176 58.6924 7.95846 58.7412 7.8412L58.5566 7.76427ZM58.3936 8.00888C58.3268 8.07577 58.2463 8.13053 58.1513 8.17278L58.2325 8.35554C58.3484 8.30404 58.4496 8.23575 58.5351 8.1503L58.3936 8.00888ZM58.1534 8.17185C58.0608 8.21046 57.9611 8.23008 57.8535 8.23008V8.43008C57.9861 8.43008 58.1121 8.40575 58.2304 8.35647L58.1534 8.17185ZM57.8535 8.23008H55.4409V8.43008H57.8535V8.23008ZM55.4409 8.23008C55.3366 8.23008 55.2384 8.21059 55.1454 8.17185L55.0685 8.35647C55.1864 8.40562 55.3109 8.43008 55.4409 8.43008V8.23008ZM55.1475 8.17278C55.0522 8.13039 54.9697 8.07525 54.8994 8.00756L54.7607 8.15162C54.8486 8.23627 54.9508 8.30418 55.0663 8.35554L55.1475 8.17278ZM54.9021 8.01023C54.8344 7.93993 54.7793 7.8575 54.7369 7.76212L54.5541 7.84335C54.6055 7.95891 54.6734 8.06105 54.758 8.14895L54.9021 8.01023ZM54.7378 7.76427C54.6992 7.67161 54.6796 7.57196 54.6796 7.46436H54.4796C54.4796 7.59699 54.5039 7.72292 54.5532 7.8412L54.7378 7.76427ZM54.6796 7.46436V1.84814H54.4796V7.46436H54.6796ZM54.5796 1.94814H55.4409V1.74814H54.5796V1.94814ZM55.3409 1.84814V4.47607H55.5409V1.84814H55.3409ZM55.5408 4.4812C55.546 4.3794 55.5694 4.28524 55.6105 4.19785L55.4295 4.11269C55.3769 4.22452 55.3475 4.34424 55.341 4.47095L55.5408 4.4812ZM55.611 4.19685C55.653 4.10498 55.7074 4.02764 55.7739 3.96368L55.6353 3.81952C55.5494 3.90205 55.4808 4.00049 55.4291 4.1137L55.611 4.19685ZM55.774 3.96363C55.8437 3.89647 55.9236 3.84492 56.0142 3.80867L55.9399 3.62297C55.8255 3.66875 55.7237 3.73439 55.6352 3.81957L55.774 3.96363ZM56.0164 3.80773C56.1059 3.76939 56.2023 3.7499 56.3066 3.7499V3.5499C56.1766 3.5499 56.0533 3.57436 55.9377 3.62391L56.0164 3.80773ZM56.3066 3.7499H57.8535V3.5499H56.3066V3.7499ZM57.8535 3.7499C57.9602 3.7499 58.0591 3.77064 58.1513 3.8116L58.2325 3.62883C58.1137 3.57604 57.987 3.5499 57.8535 3.5499V3.7499ZM58.1534 3.81252C58.2468 3.85142 58.326 3.90531 58.3923 3.97415L58.5364 3.83542C58.4503 3.74605 58.3479 3.6769 58.2304 3.62791L58.1534 3.81252ZM58.395 3.97682C58.4638 4.0431 58.5177 4.12236 58.5566 4.21571L58.7412 4.13878C58.6922 4.0212 58.6231 3.91881 58.5337 3.83275L58.395 3.97682ZM58.5575 4.21786C58.5985 4.31002 58.6192 4.40892 58.6192 4.51562H58.8192C58.8192 4.3821 58.7931 4.25541 58.7403 4.13663L58.5575 4.21786ZM58.6192 4.51562V7.46436H58.8192V4.51562H58.6192ZM55.3409 4.51562V7.46436H55.5409V4.51562H55.3409ZM55.4409 7.56436H57.8535V7.36436H55.4409V7.56436ZM57.9535 7.46436V4.51562H57.7535V7.46436H57.9535ZM57.8535 4.41562H55.4409V4.61563H57.8535V4.41562ZM61.022 1.84814H61.122V1.74814H61.022V1.84814ZM61.022 8.33008V8.43008H61.122V8.33008H61.022ZM60.1606 8.33008H60.0606V8.43008H60.1606V8.33008ZM60.1606 1.84814V1.74814H60.0606V1.84814H60.1606ZM60.922 1.84814V8.33008H61.122V1.84814H60.922ZM61.022 8.23008H60.1606V8.43008H61.022V8.23008ZM60.2606 8.33008V1.84814H60.0606V8.33008H60.2606ZM60.1606 1.94814H61.022V1.74814H60.1606V1.94814ZM66.4229 6.43164V6.53164H66.5229V6.43164H66.4229ZM63.3247 6.43164V6.33164H63.2247V6.43164H63.3247ZM63.3247 7.46436H63.2247V7.56436H63.3247V7.46436ZM66.4229 7.46436H66.5229V7.36436H66.4229V7.46436ZM66.4229 8.33008V8.43008H66.5229V8.33008H66.4229ZM62.9907 8.26416L62.9501 8.35557L62.9523 8.35647L62.9907 8.26416ZM62.7139 8.07959L62.6418 8.149L62.6445 8.15162L62.7139 8.07959ZM62.5293 7.80273L62.437 7.84121L62.4379 7.84335L62.5293 7.80273ZM62.5293 4.17725L62.4379 4.13662L62.437 4.13878L62.5293 4.17725ZM62.9907 3.72021L63.0292 3.81255L63.0313 3.8116L62.9907 3.72021ZM65.8955 3.72021L65.8549 3.81162L65.857 3.81252L65.8955 3.72021ZM66.168 3.90479L66.0959 3.9742L66.0986 3.97682L66.168 3.90479ZM66.3525 4.17725L66.2602 4.21572L66.2612 4.21786L66.3525 4.17725ZM63.3247 4.51562V4.41562H63.2247V4.51562H63.3247ZM63.3247 5.56592H63.2247V5.66592H63.3247V5.56592ZM65.5571 5.56592V5.66592H65.6571V5.56592H65.5571ZM65.5571 4.51562H65.6571V4.41562H65.5571V4.51562ZM66.4229 6.33164H63.3247V6.53164H66.4229V6.33164ZM63.2247 6.43164V7.46436H63.4247V6.43164H63.2247ZM63.3247 7.56436H66.4229V7.36436H63.3247V7.56436ZM66.3229 7.46436V8.33008H66.5229V7.46436H66.3229ZM66.4229 8.23008H63.3247V8.43008H66.4229V8.23008ZM63.3247 8.23008C63.2204 8.23008 63.1222 8.21059 63.0292 8.17185L62.9523 8.35647C63.0702 8.40562 63.1947 8.43008 63.3247 8.43008V8.23008ZM63.0313 8.17278C62.936 8.13039 62.8535 8.07525 62.7832 8.00756L62.6445 8.15162C62.7324 8.23627 62.8346 8.30418 62.9501 8.35554L63.0313 8.17278ZM62.7859 8.01023C62.7182 7.93993 62.6631 7.8575 62.6207 7.76212L62.4379 7.84335C62.4893 7.95891 62.5572 8.06105 62.6418 8.14895L62.7859 8.01023ZM62.6216 7.76427C62.583 7.67161 62.5634 7.57196 62.5634 7.46436H62.3634C62.3634 7.59699 62.3877 7.72292 62.437 7.8412L62.6216 7.76427ZM62.5634 7.46436V4.51562H62.3634V7.46436H62.5634ZM62.5634 4.51562C62.5634 4.40802 62.583 4.30837 62.6216 4.21571L62.437 4.13878C62.3877 4.25706 62.3634 4.38299 62.3634 4.51562H62.5634ZM62.6207 4.21786C62.6629 4.1228 62.7177 4.04239 62.7846 3.9755L62.6432 3.83407C62.5577 3.91953 62.4894 4.02075 62.4379 4.13663L62.6207 4.21786ZM62.7846 3.9755C62.8542 3.90583 62.9355 3.85155 63.0292 3.81252L62.9523 3.62791C62.835 3.67677 62.7317 3.74554 62.6432 3.83407L62.7846 3.9755ZM63.0313 3.8116C63.1238 3.77049 63.2213 3.7499 63.3247 3.7499V3.5499C63.1937 3.5499 63.0686 3.57619 62.9501 3.62883L63.0313 3.8116ZM63.3247 3.7499H65.5571V3.5499H63.3247V3.7499ZM65.5571 3.7499C65.6638 3.7499 65.7627 3.77064 65.8549 3.8116L65.9361 3.62883C65.8173 3.57604 65.6907 3.5499 65.5571 3.5499V3.7499ZM65.857 3.81252C65.9504 3.85142 66.0297 3.90531 66.0959 3.97415L66.24 3.83542C66.1539 3.74605 66.0516 3.6769 65.934 3.62791L65.857 3.81252ZM66.0986 3.97682C66.1674 4.0431 66.2213 4.12236 66.2602 4.21571L66.4448 4.13878C66.3959 4.0212 66.3267 3.91881 66.2373 3.83275L66.0986 3.97682ZM66.2612 4.21786C66.3021 4.31002 66.3229 4.40892 66.3229 4.51562H66.5229C66.5229 4.3821 66.4967 4.25541 66.4439 4.13663L66.2612 4.21786ZM66.3229 4.51562V6.43164H66.5229V4.51562H66.3229ZM63.2247 4.51562V5.56592H63.4247V4.51562H63.2247ZM63.3247 5.66592H65.5571V5.46592H63.3247V5.66592ZM65.6571 5.56592V4.51562H65.4571V5.56592H65.6571ZM65.5571 4.41562H63.3247V4.61563H65.5571V4.41562ZM11.6934 13.0283L11.7867 12.9923L11.762 12.9283H11.6934V13.0283ZM14.1235 19.3301V19.4301H14.2693L14.2168 19.2941L14.1235 19.3301ZM13.2227 19.3301L13.1293 19.366L13.154 19.4301H13.2227V19.3301ZM12.6646 17.8799L12.7579 17.844L12.7332 17.7799H12.6646V17.8799ZM9.82129 17.8799V17.7799H9.75262L9.72796 17.844L9.82129 17.8799ZM9.26318 19.3301V19.4301H9.33185L9.35651 19.366L9.26318 19.3301ZM8.3623 19.3301L8.269 19.2941L8.21656 19.4301H8.3623V19.3301ZM10.7925 13.0283V12.9283H10.7239L10.6992 12.9923L10.7925 13.0283ZM10.1641 16.979L10.0709 16.9427L10.0178 17.079H10.1641V16.979ZM12.3174 16.979V17.079H12.4632L12.4107 16.943L12.3174 16.979ZM11.2451 14.2017L11.3384 14.1656L11.2455 13.925L11.1519 14.1654L11.2451 14.2017ZM11.6001 13.0643L14.0302 19.3661L14.2168 19.2941L11.7867 12.9923L11.6001 13.0643ZM14.1235 19.2301H13.2227V19.4301H14.1235V19.2301ZM13.316 19.2942L12.7579 17.844L12.5712 17.9158L13.1293 19.366L13.316 19.2942ZM12.6646 17.7799H9.82129V17.9799H12.6646V17.7799ZM9.72796 17.844L9.16986 19.2942L9.35651 19.366L9.91462 17.9158L9.72796 17.844ZM9.26318 19.2301H8.3623V19.4301H9.26318V19.2301ZM8.45561 19.3661L10.8858 13.0643L10.6992 12.9923L8.269 19.2941L8.45561 19.3661ZM10.7925 13.1283H11.6934V12.9283H10.7925V13.1283ZM10.1641 17.079H12.3174V16.879H10.1641V17.079ZM12.4107 16.943L11.3384 14.1656L11.1518 14.2377L12.2241 17.015L12.4107 16.943ZM11.1519 14.1654L10.0709 16.9427L10.2573 17.0153L11.3383 14.2379L11.1519 14.1654ZM15.1826 15.1772L15.0912 15.1366L15.0903 15.1388L15.1826 15.1772ZM15.644 14.7202L15.6825 14.8125L15.6847 14.8116L15.644 14.7202ZM18.3906 14.6499V14.7499H18.4906V14.6499H18.3906ZM18.3906 12.8481V12.7481H18.2906V12.8481H18.3906ZM19.2563 12.8481H19.3563V12.7481H19.2563V12.8481ZM19.2563 19.3301V19.4301H19.3563V19.3301H19.2563ZM18.3906 19.3301H18.2906V19.4301H18.3906V19.3301ZM18.3906 18.5391H18.4906L18.291 18.531L18.3906 18.5391ZM18.1094 19.1016L18.1772 19.175L18.1773 19.1749L18.1094 19.1016ZM15.644 19.2642L15.6034 19.3556L15.6056 19.3565L15.644 19.2642ZM15.3672 19.0796L15.2951 19.149L15.2978 19.1516L15.3672 19.0796ZM15.1826 18.8027L15.0903 18.8412L15.0912 18.8433L15.1826 18.8027ZM15.978 18.4644H15.878V18.5644H15.978V18.4644ZM18.3906 18.4644V18.5644H18.4906V18.4644H18.3906ZM18.3906 15.5156H18.4906V15.4156H18.3906V15.5156ZM15.978 15.5156V15.4156H15.878V15.5156H15.978ZM15.2167 15.5156C15.2167 15.408 15.2363 15.3084 15.2749 15.2157L15.0903 15.1388C15.041 15.2571 15.0167 15.383 15.0167 15.5156H15.2167ZM15.274 15.2179C15.3162 15.1228 15.371 15.0424 15.4379 14.9755L15.2965 14.8341C15.211 14.9195 15.1427 15.0208 15.0912 15.1366L15.274 15.2179ZM15.4379 14.9755C15.5076 14.9058 15.5888 14.8516 15.6825 14.8125L15.6056 14.6279C15.4883 14.6768 15.385 14.7455 15.2965 14.8341L15.4379 14.9755ZM15.6847 14.8116C15.7771 14.7705 15.8746 14.7499 15.978 14.7499V14.5499C15.8471 14.5499 15.7219 14.5762 15.6034 14.6288L15.6847 14.8116ZM15.978 14.7499H18.3906V14.5499H15.978V14.7499ZM18.4906 14.6499V12.8481H18.2906V14.6499H18.4906ZM18.3906 12.9481H19.2563V12.7481H18.3906V12.9481ZM19.1563 12.8481V19.3301H19.3563V12.8481H19.1563ZM19.2563 19.2301H18.3906V19.4301H19.2563V19.2301ZM18.4906 19.3301V18.5391H18.2906V19.3301H18.4906ZM18.291 18.531C18.2832 18.6262 18.2576 18.7159 18.2138 18.8009L18.3916 18.8925C18.4475 18.7841 18.4804 18.6687 18.4903 18.5471L18.291 18.531ZM18.2138 18.8009C18.1693 18.8873 18.1119 18.9629 18.0414 19.0282L18.1773 19.1749C18.265 19.0937 18.3365 18.9994 18.3916 18.8925L18.2138 18.8009ZM18.0415 19.0281C17.9744 19.09 17.8967 19.1394 17.8076 19.1761L17.8838 19.361C17.9939 19.3157 18.092 19.2537 18.1772 19.175L18.0415 19.0281ZM17.8076 19.1761C17.7205 19.212 17.628 19.2301 17.5293 19.2301V19.4301C17.6532 19.4301 17.7717 19.4072 17.8838 19.361L17.8076 19.1761ZM17.5293 19.2301H15.978V19.4301H17.5293V19.2301ZM15.978 19.2301C15.8737 19.2301 15.7755 19.2106 15.6825 19.1719L15.6056 19.3565C15.7236 19.4056 15.848 19.4301 15.978 19.4301V19.2301ZM15.6847 19.1728C15.5893 19.1304 15.5068 19.0753 15.4366 19.0076L15.2978 19.1516C15.3857 19.2363 15.4879 19.3042 15.6034 19.3555L15.6847 19.1728ZM15.4392 19.0102C15.3715 18.9399 15.3164 18.8575 15.274 18.7621L15.0912 18.8433C15.1426 18.9589 15.2105 19.061 15.2952 19.149L15.4392 19.0102ZM15.2749 18.7643C15.2363 18.6716 15.2167 18.572 15.2167 18.4644H15.0167C15.0167 18.597 15.041 18.7229 15.0903 18.8412L15.2749 18.7643ZM15.2167 18.4644V15.5156H15.0167V18.4644H15.2167ZM15.978 18.5644H18.3906V18.3644H15.978V18.5644ZM18.4906 18.4644V15.5156H18.2906V18.4644H18.4906ZM18.3906 15.4156H15.978V15.6156H18.3906V15.4156ZM15.878 15.5156V18.4644H16.078V15.5156H15.878ZM22.0293 19.3301L21.9364 19.3672L21.9616 19.4301H22.0293V19.3301ZM20.1572 14.6499V14.5499H20.0095L20.0644 14.687L20.1572 14.6499ZM21.0581 14.6499L21.1513 14.6136L21.1265 14.5499H21.0581V14.6499ZM22.4775 18.293L22.3844 18.3293L22.4774 18.568L22.5707 18.3294L22.4775 18.293ZM23.9014 14.6499V14.5499H23.8331L23.8082 14.6135L23.9014 14.6499ZM24.8022 14.6499L24.8951 14.687L24.9499 14.5499H24.8022V14.6499ZM22.9302 19.3301V19.4301H22.9979L23.023 19.3672L22.9302 19.3301ZM22.1221 19.2929L20.2501 14.6128L20.0644 14.687L21.9364 19.3672L22.1221 19.2929ZM20.1572 14.7499H21.0581V14.5499H20.1572V14.7499ZM20.9649 14.6862L22.3844 18.3293L22.5707 18.2567L21.1513 14.6136L20.9649 14.6862ZM22.5707 18.3294L23.9945 14.6863L23.8082 14.6135L22.3844 18.2566L22.5707 18.3294ZM23.9014 14.7499H24.8022V14.5499H23.9014V14.7499ZM24.7094 14.6128L22.8373 19.2929L23.023 19.3672L24.8951 14.687L24.7094 14.6128ZM22.9302 19.2301H22.0293V19.4301H22.9302V19.2301ZM25.7734 16.9526L25.682 16.912L25.6815 16.9132L25.7734 16.9526ZM25.958 16.6758L25.8873 16.6051L25.886 16.6064L25.958 16.6758ZM26.2349 16.4912L26.2733 16.5835L26.2755 16.5826L26.2349 16.4912ZM28.8013 16.4209V16.5209H28.9013V16.4209H28.8013ZM28.8013 15.5156H28.9013V15.4156H28.8013V15.5156ZM25.9756 15.5156H25.8756V15.6156H25.9756V15.5156ZM25.9756 14.6499V14.5499H25.8756V14.6499H25.9756ZM29.1396 14.7202L29.099 14.8116L29.1012 14.8125L29.1396 14.7202ZM29.4121 14.9048L29.34 14.9742L29.3427 14.9768L29.4121 14.9048ZM29.5967 15.1772L29.5043 15.2157L29.5053 15.2179L29.5967 15.1772ZM29.667 19.3301V19.4301H29.767V19.3301H29.667ZM28.8013 19.3301H28.7013V19.4301H28.8013V19.3301ZM28.8013 18.5391H28.9013L28.7016 18.531L28.8013 18.5391ZM28.52 19.1016L28.5878 19.175L28.588 19.1749L28.52 19.1016ZM26.2349 19.2642L26.1942 19.3556L26.1964 19.3565L26.2349 19.2642ZM25.958 19.0796L25.8859 19.149L25.8886 19.1516L25.958 19.0796ZM25.7734 18.8027L25.6811 18.8412L25.6821 18.8433L25.7734 18.8027ZM26.5688 18.4644H26.4688V18.5644H26.5688V18.4644ZM28.8013 18.4644V18.5644H28.9013V18.4644H28.8013ZM28.8013 17.2866H28.9013V17.1866H28.8013V17.2866ZM26.5688 17.2866V17.1866H26.4688V17.2866H26.5688ZM25.8075 17.2866C25.8075 17.179 25.8271 17.0812 25.8654 16.992L25.6815 16.9132C25.6318 17.0292 25.6075 17.154 25.6075 17.2866H25.8075ZM25.8648 16.9933C25.9072 16.8979 25.9623 16.8154 26.03 16.7451L25.886 16.6064C25.8013 16.6943 25.7334 16.7965 25.6821 16.912L25.8648 16.9933ZM26.0287 16.7465C26.0984 16.6768 26.1796 16.6226 26.2733 16.5835L26.1964 16.3989C26.0791 16.4478 25.9758 16.5165 25.8873 16.6051L26.0287 16.7465ZM26.2755 16.5826C26.368 16.5415 26.4654 16.5209 26.5688 16.5209V16.3209C26.4379 16.3209 26.3127 16.3472 26.1942 16.3998L26.2755 16.5826ZM26.5688 16.5209H28.8013V16.3209H26.5688V16.5209ZM28.9013 16.4209V15.5156H28.7013V16.4209H28.9013ZM28.8013 15.4156H25.9756V15.6156H28.8013V15.4156ZM26.0756 15.5156V14.6499H25.8756V15.5156H26.0756ZM25.9756 14.7499H28.8013V14.5499H25.9756V14.7499ZM28.8013 14.7499C28.908 14.7499 29.0069 14.7706 29.099 14.8116L29.1803 14.6288C29.0615 14.576 28.9348 14.5499 28.8013 14.5499V14.7499ZM29.1012 14.8125C29.1945 14.8514 29.2738 14.9053 29.3401 14.9741L29.4841 14.8354C29.3981 14.7461 29.2957 14.6769 29.1781 14.6279L29.1012 14.8125ZM29.3427 14.9768C29.4116 15.0431 29.4655 15.1224 29.5044 15.2157L29.689 15.1388C29.64 15.0212 29.5708 14.9188 29.4815 14.8328L29.3427 14.9768ZM29.5053 15.2179C29.5463 15.31 29.567 15.4089 29.567 15.5156H29.767C29.767 15.3821 29.7409 15.2554 29.6881 15.1366L29.5053 15.2179ZM29.567 15.5156V19.3301H29.767V15.5156H29.567ZM29.667 19.2301H28.8013V19.4301H29.667V19.2301ZM28.9013 19.3301V18.5391H28.7013V19.3301H28.9013ZM28.7016 18.531C28.6939 18.6262 28.6682 18.7159 28.6245 18.8009L28.8023 18.8925C28.8581 18.7841 28.8911 18.6687 28.9009 18.5471L28.7016 18.531ZM28.6245 18.8009C28.58 18.8873 28.5226 18.9629 28.4521 19.0282L28.588 19.1749C28.6757 19.0937 28.7472 18.9994 28.8023 18.8925L28.6245 18.8009ZM28.4522 19.0281C28.3851 19.09 28.3074 19.1394 28.2183 19.1761L28.2944 19.361C28.4046 19.3157 28.5026 19.2537 28.5878 19.175L28.4522 19.0281ZM28.2183 19.1761C28.1311 19.212 28.0387 19.2301 27.9399 19.2301V19.4301C28.0639 19.4301 28.1823 19.4072 28.2944 19.361L28.2183 19.1761ZM27.9399 19.2301H26.5688V19.4301H27.9399V19.2301ZM26.5688 19.2301C26.4645 19.2301 26.3663 19.2106 26.2733 19.1719L26.1964 19.3565C26.3144 19.4056 26.4388 19.4301 26.5688 19.4301V19.2301ZM26.2755 19.1728C26.1801 19.1304 26.0977 19.0753 26.0274 19.0076L25.8886 19.1516C25.9766 19.2363 26.0787 19.3042 26.1942 19.3555L26.2755 19.1728ZM26.03 19.0102C25.9623 18.9399 25.9072 18.8575 25.8648 18.7621L25.6821 18.8433C25.7334 18.9589 25.8013 19.061 25.886 19.149L26.03 19.0102ZM25.8657 18.7643C25.8271 18.6716 25.8075 18.572 25.8075 18.4644H25.6075C25.6075 18.597 25.6318 18.7229 25.6811 18.8412L25.8657 18.7643ZM25.8075 18.4644V17.2866H25.6075V18.4644H25.8075ZM26.5688 18.5644H28.8013V18.3644H26.5688V18.5644ZM28.9013 18.4644V17.2866H28.7013V18.4644H28.9013ZM28.8013 17.1866H26.5688V17.3866H28.8013V17.1866ZM26.4688 17.2866V18.4644H26.6688V17.2866H26.4688ZM35.2524 19.3301V19.4301H35.3524V19.3301H35.2524ZM34.3867 19.3301H34.2867V19.4301H34.3867V19.3301ZM34.3867 15.5156H34.4867V15.4156H34.3867V15.5156ZM31.9741 15.5156V15.4156H31.8741V15.5156H31.9741ZM31.9741 19.3301V19.4301H32.0741V19.3301H31.9741ZM31.1128 19.3301H31.0128V19.4301H31.1128V19.3301ZM31.1128 14.6499V14.5499H31.0128V14.6499H31.1128ZM31.9741 14.6499H32.0741V14.5499H31.9741V14.6499ZM31.9741 15.4761H31.8741L32.074 15.4812L31.9741 15.4761ZM32.0532 15.1553L32.1437 15.1979L32.1442 15.1968L32.0532 15.1553ZM32.2378 14.8916L32.3071 14.9637L32.3072 14.9636L32.2378 14.8916ZM32.5103 14.7158L32.5474 14.8087L32.5496 14.8077L32.5103 14.7158ZM34.7251 14.7202L34.6845 14.8116L34.6866 14.8125L34.7251 14.7202ZM34.9976 14.9048L34.9255 14.9742L34.9282 14.9768L34.9976 14.9048ZM35.1821 15.1772L35.0898 15.2157L35.0907 15.2179L35.1821 15.1772ZM35.2524 19.2301H34.3867V19.4301H35.2524V19.2301ZM34.4867 19.3301V15.5156H34.2867V19.3301H34.4867ZM34.3867 15.4156H31.9741V15.6156H34.3867V15.4156ZM31.8741 15.5156V19.3301H32.0741V15.5156H31.8741ZM31.9741 19.2301H31.1128V19.4301H31.9741V19.2301ZM31.2128 19.3301V14.6499H31.0128V19.3301H31.2128ZM31.1128 14.7499H31.9741V14.5499H31.1128V14.7499ZM31.8741 14.6499V15.4761H32.0741V14.6499H31.8741ZM32.074 15.4812C32.0792 15.3794 32.1026 15.2852 32.1437 15.1979L31.9627 15.1127C31.9101 15.2245 31.8808 15.3442 31.8743 15.471L32.074 15.4812ZM32.1442 15.1968C32.1862 15.105 32.2406 15.0276 32.3071 14.9637L32.1685 14.8195C32.0827 14.902 32.014 15.0005 31.9623 15.1137L32.1442 15.1968ZM32.3072 14.9636C32.3769 14.8965 32.4568 14.8449 32.5474 14.8087L32.4731 14.623C32.3587 14.6688 32.2569 14.7344 32.1684 14.8196L32.3072 14.9636ZM32.5496 14.8077C32.6391 14.7694 32.7355 14.7499 32.8398 14.7499V14.5499C32.7098 14.5499 32.5865 14.5744 32.4709 14.6239L32.5496 14.8077ZM32.8398 14.7499H34.3867V14.5499H32.8398V14.7499ZM34.3867 14.7499C34.4934 14.7499 34.5923 14.7706 34.6845 14.8116L34.7657 14.6288C34.6469 14.576 34.5202 14.5499 34.3867 14.5499V14.7499ZM34.6866 14.8125C34.78 14.8514 34.8592 14.9053 34.9255 14.9741L35.0696 14.8354C34.9835 14.7461 34.8811 14.6769 34.7636 14.6279L34.6866 14.8125ZM34.9282 14.9768C34.997 15.0431 35.0509 15.1224 35.0898 15.2157L35.2744 15.1388C35.2254 15.0212 35.1563 14.9188 35.0669 14.8328L34.9282 14.9768ZM35.0907 15.2179C35.1317 15.31 35.1524 15.4089 35.1524 15.5156H35.3524C35.3524 15.3821 35.3263 15.2554 35.2735 15.1366L35.0907 15.2179ZM35.1524 15.5156V19.3301H35.3524V15.5156H35.1524ZM37.5552 15.5156V15.4156H37.4552V15.5156H37.5552ZM37.5552 18.4644H37.4552V18.5644H37.5552V18.4644ZM39.7876 18.4644V18.5644H39.8876V18.4644H39.7876ZM39.7876 17.6733V17.5733H39.6876V17.6733H39.7876ZM40.6533 17.6733H40.7533V17.5733H40.6533V17.6733ZM40.583 18.8027L40.4916 18.7621L40.4907 18.7643L40.583 18.8027ZM40.126 19.2642L40.1644 19.3565L40.1666 19.3555L40.126 19.2642ZM37.2212 19.2642L37.1806 19.3556L37.1827 19.3565L37.2212 19.2642ZM36.9443 19.0796L36.8723 19.149L36.875 19.1516L36.9443 19.0796ZM36.7598 18.8027L36.6674 18.8412L36.6684 18.8433L36.7598 18.8027ZM36.7598 15.1772L36.6684 15.1366L36.6675 15.1388L36.7598 15.1772ZM37.2212 14.7202L37.2597 14.8125L37.2618 14.8116L37.2212 14.7202ZM40.126 14.7202L40.0854 14.8116L40.0875 14.8125L40.126 14.7202ZM40.3984 14.9048L40.3264 14.9742L40.3291 14.9768L40.3984 14.9048ZM40.583 15.1772L40.4907 15.2157L40.4916 15.2179L40.583 15.1772ZM40.6533 16.3066V16.4066H40.7533V16.3066H40.6533ZM39.7876 16.3066H39.6876V16.4066H39.7876V16.3066ZM39.7876 15.5156H39.8876V15.4156H39.7876V15.5156ZM37.4552 15.5156V18.4644H37.6552V15.5156H37.4552ZM37.5552 18.5644H39.7876V18.3644H37.5552V18.5644ZM39.8876 18.4644V17.6733H39.6876V18.4644H39.8876ZM39.7876 17.7733H40.6533V17.5733H39.7876V17.7733ZM40.5533 17.6733V18.4644H40.7533V17.6733H40.5533ZM40.5533 18.4644C40.5533 18.5711 40.5326 18.67 40.4916 18.7621L40.6744 18.8433C40.7272 18.7246 40.7533 18.5979 40.7533 18.4644H40.5533ZM40.4907 18.7643C40.4517 18.8579 40.3974 18.9392 40.3277 19.0089L40.4691 19.1503C40.5577 19.0618 40.6265 18.9585 40.6753 18.8412L40.4907 18.7643ZM40.3277 19.0089C40.2608 19.0758 40.1804 19.1305 40.0854 19.1728L40.1666 19.3555C40.2825 19.304 40.3837 19.2358 40.4691 19.1503L40.3277 19.0089ZM40.0875 19.1719C39.9949 19.2105 39.8952 19.2301 39.7876 19.2301V19.4301C39.9202 19.4301 40.0462 19.4057 40.1644 19.3565L40.0875 19.1719ZM39.7876 19.2301H37.5552V19.4301H39.7876V19.2301ZM37.5552 19.2301C37.4508 19.2301 37.3526 19.2106 37.2597 19.1719L37.1827 19.3565C37.3007 19.4056 37.4251 19.4301 37.5552 19.4301V19.2301ZM37.2618 19.1728C37.1664 19.1304 37.084 19.0753 37.0137 19.0076L36.875 19.1516C36.9629 19.2363 37.065 19.3042 37.1806 19.3555L37.2618 19.1728ZM37.0164 19.0102C36.9487 18.9399 36.8935 18.8575 36.8511 18.7621L36.6684 18.8433C36.7197 18.9589 36.7877 19.061 36.8723 19.149L37.0164 19.0102ZM36.8521 18.7643C36.8135 18.6716 36.7938 18.572 36.7938 18.4644H36.5938C36.5938 18.597 36.6182 18.7229 36.6675 18.8412L36.8521 18.7643ZM36.7938 18.4644V15.5156H36.5938V18.4644H36.7938ZM36.7938 15.5156C36.7938 15.408 36.8135 15.3084 36.8521 15.2157L36.6675 15.1388C36.6182 15.2571 36.5938 15.383 36.5938 15.5156H36.7938ZM36.8511 15.2179C36.8934 15.1228 36.9482 15.0424 37.015 14.9755L36.8736 14.8341C36.7882 14.9195 36.7199 15.0208 36.6684 15.1366L36.8511 15.2179ZM37.015 14.9755C37.0847 14.9058 37.166 14.8516 37.2597 14.8125L37.1827 14.6279C37.0655 14.6768 36.9622 14.7455 36.8736 14.8341L37.015 14.9755ZM37.2618 14.8116C37.3543 14.7705 37.4518 14.7499 37.5552 14.7499V14.5499C37.4242 14.5499 37.299 14.5762 37.1806 14.6288L37.2618 14.8116ZM37.5552 14.7499H39.7876V14.5499H37.5552V14.7499ZM39.7876 14.7499C39.8943 14.7499 39.9932 14.7706 40.0854 14.8116L40.1666 14.6288C40.0478 14.576 39.9211 14.5499 39.7876 14.5499V14.7499ZM40.0875 14.8125C40.1809 14.8514 40.2601 14.9053 40.3264 14.9741L40.4705 14.8354C40.3844 14.7461 40.282 14.6769 40.1644 14.6279L40.0875 14.8125ZM40.3291 14.9768C40.3979 15.0431 40.4518 15.1224 40.4907 15.2157L40.6753 15.1388C40.6263 15.0212 40.5572 14.9188 40.4678 14.8328L40.3291 14.9768ZM40.4916 15.2179C40.5326 15.31 40.5533 15.4089 40.5533 15.5156H40.7533C40.7533 15.3821 40.7272 15.2554 40.6744 15.1366L40.4916 15.2179ZM40.5533 15.5156V16.3066H40.7533V15.5156H40.5533ZM40.6533 16.2066H39.7876V16.4066H40.6533V16.2066ZM39.8876 16.3066V15.5156H39.6876V16.3066H39.8876ZM39.7876 15.4156H37.5552V15.6156H39.7876V15.4156ZM46.0586 17.4316V17.5316H46.1586V17.4316H46.0586ZM42.9604 17.4316V17.3316H42.8604V17.4316H42.9604ZM42.9604 18.4644H42.8604V18.5644H42.9604V18.4644ZM46.0586 18.4644H46.1586V18.3644H46.0586V18.4644ZM46.0586 19.3301V19.4301H46.1586V19.3301H46.0586ZM42.6265 19.2642L42.5858 19.3556L42.588 19.3565L42.6265 19.2642ZM42.3496 19.0796L42.2775 19.149L42.2802 19.1516L42.3496 19.0796ZM42.165 18.8027L42.0727 18.8412L42.0737 18.8433L42.165 18.8027ZM42.165 15.1772L42.0736 15.1366L42.0727 15.1388L42.165 15.1772ZM42.6265 14.7202L42.6649 14.8125L42.6671 14.8116L42.6265 14.7202ZM45.5312 14.7202L45.4906 14.8116L45.4928 14.8125L45.5312 14.7202ZM45.8037 14.9048L45.7316 14.9742L45.7343 14.9768L45.8037 14.9048ZM45.9883 15.1772L45.8959 15.2157L45.8969 15.2179L45.9883 15.1772ZM42.9604 15.5156V15.4156H42.8604V15.5156H42.9604ZM42.9604 16.5659H42.8604V16.6659H42.9604V16.5659ZM45.1929 16.5659V16.6659H45.2929V16.5659H45.1929ZM45.1929 15.5156H45.2929V15.4156H45.1929V15.5156ZM46.0586 17.3316H42.9604V17.5316H46.0586V17.3316ZM42.8604 17.4316V18.4644H43.0604V17.4316H42.8604ZM42.9604 18.5644H46.0586V18.3644H42.9604V18.5644ZM45.9586 18.4644V19.3301H46.1586V18.4644H45.9586ZM46.0586 19.2301H42.9604V19.4301H46.0586V19.2301ZM42.9604 19.2301C42.8561 19.2301 42.7579 19.2106 42.6649 19.1719L42.588 19.3565C42.706 19.4056 42.8304 19.4301 42.9604 19.4301V19.2301ZM42.6671 19.1728C42.5717 19.1304 42.4893 19.0753 42.419 19.0076L42.2802 19.1516C42.3682 19.2363 42.4703 19.3042 42.5859 19.3555L42.6671 19.1728ZM42.4216 19.0102C42.3539 18.9399 42.2988 18.8575 42.2564 18.7621L42.0737 18.8433C42.125 18.9589 42.1929 19.061 42.2776 19.149L42.4216 19.0102ZM42.2573 18.7643C42.2187 18.6716 42.1991 18.572 42.1991 18.4644H41.9991C41.9991 18.597 42.0234 18.7229 42.0727 18.8412L42.2573 18.7643ZM42.1991 18.4644V15.5156H41.9991V18.4644H42.1991ZM42.1991 15.5156C42.1991 15.408 42.2187 15.3084 42.2573 15.2157L42.0727 15.1388C42.0234 15.2571 41.9991 15.383 41.9991 15.5156H42.1991ZM42.2564 15.2179C42.2987 15.1228 42.3534 15.0424 42.4203 14.9755L42.2789 14.8341C42.1934 14.9195 42.1252 15.0208 42.0737 15.1366L42.2564 15.2179ZM42.4203 14.9755C42.49 14.9058 42.5713 14.8516 42.6649 14.8125L42.588 14.6279C42.4707 14.6768 42.3674 14.7455 42.2789 14.8341L42.4203 14.9755ZM42.6671 14.8116C42.7596 14.7705 42.857 14.7499 42.9604 14.7499V14.5499C42.8295 14.5499 42.7043 14.5762 42.5859 14.6288L42.6671 14.8116ZM42.9604 14.7499H45.1929V14.5499H42.9604V14.7499ZM45.1929 14.7499C45.2996 14.7499 45.3985 14.7706 45.4906 14.8116L45.5719 14.6288C45.4531 14.576 45.3264 14.5499 45.1929 14.5499V14.7499ZM45.4928 14.8125C45.5861 14.8514 45.6654 14.9053 45.7317 14.9741L45.8757 14.8354C45.7897 14.7461 45.6873 14.6769 45.5697 14.6279L45.4928 14.8125ZM45.7343 14.9768C45.8032 15.0431 45.8571 15.1224 45.896 15.2157L46.0806 15.1388C46.0316 15.0212 45.9624 14.9188 45.8731 14.8328L45.7343 14.9768ZM45.8969 15.2179C45.9379 15.31 45.9586 15.4089 45.9586 15.5156H46.1586C46.1586 15.3821 46.1325 15.2554 46.0797 15.1366L45.8969 15.2179ZM45.9586 15.5156V17.4316H46.1586V15.5156H45.9586ZM42.8604 15.5156V16.5659H43.0604V15.5156H42.8604ZM42.9604 16.6659H45.1929V16.4659H42.9604V16.6659ZM45.2929 16.5659V15.5156H45.0929V16.5659H45.2929ZM45.1929 15.4156H42.9604V15.6156H45.1929V15.4156ZM47.5703 15.1772L47.4789 15.1366L47.478 15.1388L47.5703 15.1772ZM48.0317 14.7202L48.0702 14.8125L48.0724 14.8116L48.0317 14.7202ZM50.7783 14.6499V14.7499H50.8783V14.6499H50.7783ZM50.7783 12.8481V12.7481H50.6783V12.8481H50.7783ZM51.644 12.8481H51.744V12.7481H51.644V12.8481ZM51.644 19.3301V19.4301H51.744V19.3301H51.644ZM50.7783 19.3301H50.6783V19.4301H50.7783V19.3301ZM50.7783 18.5391H50.8783L50.6786 18.531L50.7783 18.5391ZM50.4971 19.1016L50.5649 19.175L50.565 19.1749L50.4971 19.1016ZM48.0317 19.2642L47.9911 19.3556L47.9933 19.3565L48.0317 19.2642ZM47.7549 19.0796L47.6828 19.149L47.6855 19.1516L47.7549 19.0796ZM47.5703 18.8027L47.478 18.8412L47.4789 18.8433L47.5703 18.8027ZM48.3657 18.4644H48.2657V18.5644H48.3657V18.4644ZM50.7783 18.4644V18.5644H50.8783V18.4644H50.7783ZM50.7783 15.5156H50.8783V15.4156H50.7783V15.5156ZM48.3657 15.5156V15.4156H48.2657V15.5156H48.3657ZM47.6044 15.5156C47.6044 15.408 47.624 15.3084 47.6626 15.2157L47.478 15.1388C47.4287 15.2571 47.4044 15.383 47.4044 15.5156H47.6044ZM47.6617 15.2179C47.7039 15.1228 47.7587 15.0424 47.8256 14.9755L47.6842 14.8341C47.5987 14.9195 47.5304 15.0208 47.4789 15.1366L47.6617 15.2179ZM47.8256 14.9755C47.8953 14.9058 47.9765 14.8516 48.0702 14.8125L47.9933 14.6279C47.876 14.6768 47.7727 14.7455 47.6842 14.8341L47.8256 14.9755ZM48.0724 14.8116C48.1648 14.7705 48.2623 14.7499 48.3657 14.7499V14.5499C48.2348 14.5499 48.1096 14.5762 47.9911 14.6288L48.0724 14.8116ZM48.3657 14.7499H50.7783V14.5499H48.3657V14.7499ZM50.8783 14.6499V12.8481H50.6783V14.6499H50.8783ZM50.7783 12.9481H51.644V12.7481H50.7783V12.9481ZM51.544 12.8481V19.3301H51.744V12.8481H51.544ZM51.644 19.2301H50.7783V19.4301H51.644V19.2301ZM50.8783 19.3301V18.5391H50.6783V19.3301H50.8783ZM50.6786 18.531C50.6709 18.6262 50.6453 18.7159 50.6015 18.8009L50.7793 18.8925C50.8352 18.7841 50.8681 18.6687 50.878 18.5471L50.6786 18.531ZM50.6015 18.8009C50.557 18.8873 50.4996 18.9629 50.4291 19.0282L50.565 19.1749C50.6527 19.0937 50.7242 18.9994 50.7793 18.8925L50.6015 18.8009ZM50.4292 19.0281C50.3621 19.09 50.2844 19.1394 50.1953 19.1761L50.2715 19.361C50.3816 19.3157 50.4797 19.2537 50.5649 19.175L50.4292 19.0281ZM50.1953 19.1761C50.1082 19.212 50.0157 19.2301 49.917 19.2301V19.4301C50.0409 19.4301 50.1594 19.4072 50.2715 19.361L50.1953 19.1761ZM49.917 19.2301H48.3657V19.4301H49.917V19.2301ZM48.3657 19.2301C48.2614 19.2301 48.1632 19.2106 48.0702 19.1719L47.9933 19.3565C48.1112 19.4056 48.2357 19.4301 48.3657 19.4301V19.2301ZM48.0724 19.1728C47.977 19.1304 47.8945 19.0753 47.8242 19.0076L47.6855 19.1516C47.7734 19.2363 47.8756 19.3042 47.9911 19.3555L48.0724 19.1728ZM47.8269 19.0102C47.7592 18.9399 47.7041 18.8575 47.6617 18.7621L47.4789 18.8433C47.5303 18.9589 47.5982 19.061 47.6829 19.149L47.8269 19.0102ZM47.6626 18.7643C47.624 18.6716 47.6044 18.572 47.6044 18.4644H47.4044C47.4044 18.597 47.4287 18.7229 47.478 18.8412L47.6626 18.7643ZM47.6044 18.4644V15.5156H47.4044V18.4644H47.6044ZM48.3657 18.5644H50.7783V18.3644H48.3657V18.5644ZM50.8783 18.4644V15.5156H50.6783V18.4644H50.8783ZM50.7783 15.4156H48.3657V15.6156H50.7783V15.4156ZM48.2657 15.5156V18.4644H48.4657V15.5156H48.2657ZM55.9419 13.582L56.0337 13.6217L56.0341 13.6208L55.9419 13.582ZM56.1353 13.2964L56.2047 13.3684L56.206 13.3671L56.1353 13.2964ZM56.4209 13.103L56.4606 13.1948L56.4617 13.1943L56.4209 13.103ZM60.5386 13.103L60.4968 13.1939L60.4998 13.1952L60.5386 13.103ZM60.8286 13.2964L60.7579 13.3671L60.7592 13.3684L60.8286 13.2964ZM61.022 13.582L60.9298 13.6208L60.9302 13.6217L61.022 13.582ZM61.0923 14.7422V14.8422H61.1923V14.7422H61.0923ZM60.1914 14.7422H60.0914V14.8422H60.1914V14.7422ZM60.1914 13.9292H60.2914V13.8292H60.1914V13.9292ZM56.7725 13.9292V13.8292H56.6725V13.9292H56.7725ZM56.7725 18.4292H56.6725V18.5292H56.7725V18.4292ZM60.1914 18.4292V18.5292H60.2914V18.4292H60.1914ZM60.1914 16.8999H60.2914V16.7999H60.1914V16.8999ZM58.4819 16.8999H58.3819V16.9999H58.4819V16.8999ZM58.4819 15.999V15.899H58.3819V15.999H58.4819ZM61.0923 15.999H61.1923V15.899H61.0923V15.999ZM61.022 18.7808L61.1138 18.8205L61.1141 18.8196L61.022 18.7808ZM60.5386 19.2598L60.4998 19.1676L60.4989 19.168L60.5386 19.2598ZM56.4209 19.2598L56.3812 19.3516L56.3821 19.3519L56.4209 19.2598ZM55.9419 18.7808L55.8497 18.8196L55.8501 18.8205L55.9419 18.7808ZM55.9716 13.9292C55.9716 13.8192 55.9925 13.7171 56.0337 13.6217L55.8501 13.5423C55.7976 13.6638 55.7716 13.7931 55.7716 13.9292H55.9716ZM56.0341 13.6208C56.076 13.5212 56.133 13.4375 56.2047 13.3684L56.0658 13.2244C55.9735 13.3135 55.9015 13.4202 55.8497 13.5432L56.0341 13.6208ZM56.206 13.3671C56.2789 13.2941 56.3636 13.2368 56.4606 13.1948L56.3812 13.0112C56.2614 13.063 56.1557 13.1346 56.0645 13.2257L56.206 13.3671ZM56.4617 13.1943C56.5601 13.1503 56.6634 13.1283 56.7725 13.1283V12.9283C56.6355 12.9283 56.5044 12.9561 56.3801 13.0117L56.4617 13.1943ZM56.7725 13.1283H60.1914V12.9283H56.7725V13.1283ZM60.1914 13.1283C60.3005 13.1283 60.4019 13.1503 60.4968 13.1939L60.5803 13.0122C60.4584 12.9561 60.3284 12.9283 60.1914 12.9283V13.1283ZM60.4998 13.1952C60.5997 13.2373 60.6854 13.2946 60.7579 13.3671L60.8993 13.2257C60.8078 13.1341 60.7001 13.0625 60.5774 13.0109L60.4998 13.1952ZM60.7592 13.3684C60.8309 13.4375 60.8879 13.5212 60.9298 13.6208L61.1141 13.5432C61.0623 13.4202 60.9904 13.3135 60.898 13.2244L60.7592 13.3684ZM60.9302 13.6217C60.9714 13.7171 60.9923 13.8192 60.9923 13.9292H61.1923C61.1923 13.7931 61.1663 13.6638 61.1138 13.5423L60.9302 13.6217ZM60.9923 13.9292V14.7422H61.1923V13.9292H60.9923ZM61.0923 14.6422H60.1914V14.8422H61.0923V14.6422ZM60.2914 14.7422V13.9292H60.0914V14.7422H60.2914ZM60.1914 13.8292H56.7725V14.0292H60.1914V13.8292ZM56.6725 13.9292V18.4292H56.8725V13.9292H56.6725ZM56.7725 18.5292H60.1914V18.3292H56.7725V18.5292ZM60.2914 18.4292V16.8999H60.0914V18.4292H60.2914ZM60.1914 16.7999H58.4819V16.9999H60.1914V16.7999ZM58.5819 16.8999V15.999H58.3819V16.8999H58.5819ZM58.4819 16.099H61.0923V15.899H58.4819V16.099ZM60.9923 15.999V18.4292H61.1923V15.999H60.9923ZM60.9923 18.4292C60.9923 18.5392 60.9714 18.6431 60.9298 18.742L61.1141 18.8196C61.1663 18.6957 61.1923 18.5653 61.1923 18.4292H60.9923ZM60.9302 18.7411C60.8882 18.8381 60.8309 18.9227 60.7579 18.9957L60.8993 19.1371C60.9904 19.046 61.062 18.9402 61.1138 18.8205L60.9302 18.7411ZM60.7579 18.9957C60.6854 19.0682 60.5997 19.1255 60.4998 19.1676L60.5774 19.3519C60.7001 19.3002 60.8078 19.2287 60.8993 19.1371L60.7579 18.9957ZM60.4989 19.168C60.4035 19.2092 60.3014 19.2301 60.1914 19.2301V19.4301C60.3275 19.4301 60.4568 19.4041 60.5783 19.3516L60.4989 19.168ZM60.1914 19.2301H56.7725V19.4301H60.1914V19.2301ZM56.7725 19.2301C56.6625 19.2301 56.5585 19.2092 56.4597 19.1676L56.3821 19.3519C56.5059 19.4041 56.6363 19.4301 56.7725 19.4301V19.2301ZM56.4606 19.168C56.3636 19.126 56.2789 19.0686 56.206 18.9957L56.0645 19.1371C56.1557 19.2282 56.2614 19.2998 56.3812 19.3516L56.4606 19.168ZM56.206 18.9957C56.133 18.9227 56.0756 18.8381 56.0337 18.7411L55.8501 18.8205C55.9019 18.9402 55.9734 19.046 56.0645 19.1371L56.206 18.9957ZM56.0341 18.742C55.9925 18.6431 55.9716 18.5392 55.9716 18.4292H55.7716C55.7716 18.5653 55.7976 18.6957 55.8497 18.8196L56.0341 18.742ZM55.9716 18.4292V13.9292H55.7716V18.4292H55.9716ZM63.4829 15.5156V15.4156H63.3829V15.5156H63.4829ZM63.4829 19.3301V19.4301H63.5829V19.3301H63.4829ZM62.6216 19.3301H62.5216V19.4301H62.6216V19.3301ZM62.6216 14.6499V14.5499H62.5216V14.6499H62.6216ZM63.4829 14.6499H63.5829V14.5499H63.4829V14.6499ZM63.4829 15.4761H63.3829L63.5828 15.4812L63.4829 15.4761ZM63.562 15.1553L63.6525 15.1979L63.653 15.1968L63.562 15.1553ZM63.7466 14.8916L63.8159 14.9637L63.8159 14.9636L63.7466 14.8916ZM64.019 14.7158L64.0562 14.8087L64.0584 14.8077L64.019 14.7158ZM65.6011 14.7202L65.5595 14.8112L65.5626 14.8125L65.6011 14.7202ZM65.8779 14.9048L65.8072 14.9755L65.8086 14.9768L65.8779 14.9048ZM66.0625 15.1772L65.9702 15.2157L65.9711 15.2179L66.0625 15.1772ZM66.1328 16.3066V16.4066H66.2328V16.3066H66.1328ZM65.2671 16.3066H65.1671V16.4066H65.2671V16.3066ZM65.2671 15.5156H65.3671V15.4156H65.2671V15.5156ZM63.3829 15.5156V19.3301H63.5829V15.5156H63.3829ZM63.4829 19.2301H62.6216V19.4301H63.4829V19.2301ZM62.7216 19.3301V14.6499H62.5216V19.3301H62.7216ZM62.6216 14.7499H63.4829V14.5499H62.6216V14.7499ZM63.3829 14.6499V15.4761H63.5829V14.6499H63.3829ZM63.5828 15.4812C63.588 15.3794 63.6114 15.2852 63.6525 15.1979L63.4715 15.1127C63.4189 15.2245 63.3895 15.3442 63.383 15.471L63.5828 15.4812ZM63.653 15.1968C63.695 15.105 63.7494 15.0276 63.8159 14.9637L63.6773 14.8195C63.5914 14.902 63.5228 15.0005 63.4711 15.1137L63.653 15.1968ZM63.8159 14.9636C63.8857 14.8965 63.9656 14.8449 64.0562 14.8087L63.9819 14.623C63.8675 14.6688 63.7657 14.7344 63.6772 14.8196L63.8159 14.9636ZM64.0584 14.8077C64.1479 14.7694 64.2443 14.7499 64.3486 14.7499V14.5499C64.2186 14.5499 64.0953 14.5744 63.9797 14.6239L64.0584 14.8077ZM64.3486 14.7499H65.2671V14.5499H64.3486V14.7499ZM65.2671 14.7499C65.3738 14.7499 65.4708 14.7706 65.5595 14.8112L65.6427 14.6293C65.5262 14.576 65.4006 14.5499 65.2671 14.5499V14.7499ZM65.5626 14.8125C65.6563 14.8516 65.7376 14.9058 65.8072 14.9755L65.9486 14.8341C65.8601 14.7455 65.7568 14.6768 65.6395 14.6279L65.5626 14.8125ZM65.8086 14.9768C65.8774 15.0431 65.9313 15.1224 65.9702 15.2157L66.1548 15.1388C66.1058 15.0212 66.0367 14.9188 65.9473 14.8328L65.8086 14.9768ZM65.9711 15.2179C66.0121 15.31 66.0328 15.4089 66.0328 15.5156H66.2328C66.2328 15.3821 66.2067 15.2554 66.1539 15.1366L65.9711 15.2179ZM66.0328 15.5156V16.3066H66.2328V15.5156H66.0328ZM66.1328 16.2066H65.2671V16.4066H66.1328V16.2066ZM65.3671 16.3066V15.5156H65.1671V16.3066H65.3671ZM65.2671 15.4156H63.4829V15.6156H65.2671V15.4156ZM67.2754 16.9526L67.184 16.912L67.1835 16.9132L67.2754 16.9526ZM67.46 16.6758L67.3892 16.6051L67.3879 16.6064L67.46 16.6758ZM67.7368 16.4912L67.7753 16.5835L67.7774 16.5826L67.7368 16.4912ZM70.3032 16.4209V16.5209H70.4032V16.4209H70.3032ZM70.3032 15.5156H70.4032V15.4156H70.3032V15.5156ZM67.4775 15.5156H67.3775V15.6156H67.4775V15.5156ZM67.4775 14.6499V14.5499H67.3775V14.6499H67.4775ZM70.6416 14.7202L70.601 14.8116L70.6031 14.8125L70.6416 14.7202ZM70.9141 14.9048L70.842 14.9742L70.8447 14.9768L70.9141 14.9048ZM71.0986 15.1772L71.0063 15.2157L71.0073 15.2179L71.0986 15.1772ZM71.1689 19.3301V19.4301H71.2689V19.3301H71.1689ZM70.3032 19.3301H70.2032V19.4301H70.3032V19.3301ZM70.3032 18.5391H70.4032L70.2035 18.531L70.3032 18.5391ZM70.022 19.1016L70.0898 19.175L70.0899 19.1749L70.022 19.1016ZM67.7368 19.2642L67.6962 19.3556L67.6984 19.3565L67.7368 19.2642ZM67.46 19.0796L67.3879 19.149L67.3906 19.1516L67.46 19.0796ZM67.2754 18.8027L67.1831 18.8412L67.184 18.8433L67.2754 18.8027ZM68.0708 18.4644H67.9708V18.5644H68.0708V18.4644ZM70.3032 18.4644V18.5644H70.4032V18.4644H70.3032ZM70.3032 17.2866H70.4032V17.1866H70.3032V17.2866ZM68.0708 17.2866V17.1866H67.9708V17.2866H68.0708ZM67.3095 17.2866C67.3095 17.179 67.3291 17.0812 67.3673 16.992L67.1835 16.9132C67.1338 17.0292 67.1095 17.154 67.1095 17.2866H67.3095ZM67.3668 16.9933C67.4092 16.8979 67.4643 16.8154 67.532 16.7451L67.3879 16.6064C67.3033 16.6943 67.2354 16.7965 67.184 16.912L67.3668 16.9933ZM67.5307 16.7465C67.6003 16.6768 67.6816 16.6226 67.7753 16.5835L67.6984 16.3989C67.5811 16.4478 67.4778 16.5165 67.3893 16.6051L67.5307 16.7465ZM67.7774 16.5826C67.8699 16.5415 67.9674 16.5209 68.0708 16.5209V16.3209C67.9398 16.3209 67.8147 16.3472 67.6962 16.3998L67.7774 16.5826ZM68.0708 16.5209H70.3032V16.3209H68.0708V16.5209ZM70.4032 16.4209V15.5156H70.2032V16.4209H70.4032ZM70.3032 15.4156H67.4775V15.6156H70.3032V15.4156ZM67.5775 15.5156V14.6499H67.3775V15.5156H67.5775ZM67.4775 14.7499H70.3032V14.5499H67.4775V14.7499ZM70.3032 14.7499C70.4099 14.7499 70.5088 14.7706 70.601 14.8116L70.6822 14.6288C70.5634 14.576 70.4367 14.5499 70.3032 14.5499V14.7499ZM70.6031 14.8125C70.6965 14.8514 70.7757 14.9053 70.842 14.9741L70.9861 14.8354C70.9 14.7461 70.7977 14.6769 70.6801 14.6279L70.6031 14.8125ZM70.8447 14.9768C70.9135 15.0431 70.9674 15.1224 71.0063 15.2157L71.1909 15.1388C71.1419 15.0212 71.0728 14.9188 70.9834 14.8328L70.8447 14.9768ZM71.0073 15.2179C71.0482 15.31 71.0689 15.4089 71.0689 15.5156H71.2689C71.2689 15.3821 71.2428 15.2554 71.19 15.1366L71.0073 15.2179ZM71.0689 15.5156V19.3301H71.2689V15.5156H71.0689ZM71.1689 19.2301H70.3032V19.4301H71.1689V19.2301ZM70.4032 19.3301V18.5391H70.2032V19.3301H70.4032ZM70.2035 18.531C70.1958 18.6262 70.1702 18.7159 70.1264 18.8009L70.3042 18.8925C70.3601 18.7841 70.393 18.6687 70.4029 18.5471L70.2035 18.531ZM70.1264 18.8009C70.0819 18.8873 70.0245 18.9629 69.954 19.0282L70.0899 19.1749C70.1776 19.0937 70.2491 18.9994 70.3042 18.8925L70.1264 18.8009ZM69.9541 19.0281C69.887 19.09 69.8093 19.1394 69.7202 19.1761L69.7964 19.361C69.9065 19.3157 70.0046 19.2537 70.0898 19.175L69.9541 19.0281ZM69.7202 19.1761C69.6331 19.212 69.5406 19.2301 69.4419 19.2301V19.4301C69.5658 19.4301 69.6843 19.4072 69.7964 19.361L69.7202 19.1761ZM69.4419 19.2301H68.0708V19.4301H69.4419V19.2301ZM68.0708 19.2301C67.9665 19.2301 67.8682 19.2106 67.7753 19.1719L67.6984 19.3565C67.8163 19.4056 67.9408 19.4301 68.0708 19.4301V19.2301ZM67.7774 19.1728C67.682 19.1304 67.5996 19.0753 67.5293 19.0076L67.3906 19.1516C67.4785 19.2363 67.5806 19.3042 67.6962 19.3555L67.7774 19.1728ZM67.532 19.0102C67.4643 18.9399 67.4092 18.8575 67.3668 18.7621L67.184 18.8433C67.2354 18.9589 67.3033 19.061 67.3879 19.149L67.532 19.0102ZM67.3677 18.7643C67.3291 18.6716 67.3095 18.572 67.3095 18.4644H67.1095C67.1095 18.597 67.1338 18.7229 67.1831 18.8412L67.3677 18.7643ZM67.3095 18.4644V17.2866H67.1095V18.4644H67.3095ZM68.0708 18.5644H70.3032V18.3644H68.0708V18.5644ZM70.4032 18.4644V17.2866H70.2032V18.4644H70.4032ZM70.3032 17.1866H68.0708V17.3866H70.3032V17.1866ZM67.9708 17.2866V18.4644H68.1708V17.2866H67.9708ZM76.6841 18.8027L76.5927 18.7621L76.5918 18.7643L76.6841 18.8027ZM76.2271 19.2642L76.2655 19.3565L76.2677 19.3555L76.2271 19.2642ZM73.4761 19.3301V19.2301H73.3761V19.3301H73.4761ZM73.4761 21.2197V21.3197H73.5761V21.2197H73.4761ZM72.6147 21.2197H72.5147V21.3197H72.6147V21.2197ZM72.6147 14.6499V14.5499H72.5147V14.6499H72.6147ZM73.4761 14.6499H73.5761V14.5499H73.4761V14.6499ZM73.4761 15.4409H73.3761L73.5758 15.4488L73.4761 15.4409ZM73.564 15.1333L73.6523 15.1802L73.6529 15.1791L73.564 15.1333ZM73.7529 14.8828L73.8208 14.9563L73.8222 14.9549L73.7529 14.8828ZM74.0166 14.7114L73.9795 14.6186L73.9785 14.619L74.0166 14.7114ZM76.2271 14.7202L76.1864 14.8116L76.1886 14.8125L76.2271 14.7202ZM76.4995 14.9048L76.4274 14.9742L76.4301 14.9768L76.4995 14.9048ZM76.6841 15.1772L76.5917 15.2157L76.5927 15.2179L76.6841 15.1772ZM75.8887 18.4644V18.5644H75.9887V18.4644H75.8887ZM75.8887 15.5156H75.9887V15.4156H75.8887V15.5156ZM73.4761 15.5156V15.4156H73.3761V15.5156H73.4761ZM73.4761 18.4644H73.3761V18.5644H73.4761V18.4644ZM76.6544 18.4644C76.6544 18.5711 76.6337 18.67 76.5927 18.7621L76.7755 18.8433C76.8283 18.7246 76.8544 18.5979 76.8544 18.4644H76.6544ZM76.5918 18.7643C76.5527 18.8579 76.4985 18.9392 76.4288 19.0089L76.5702 19.1503C76.6588 19.0618 76.7275 18.9585 76.7764 18.8412L76.5918 18.7643ZM76.4288 19.0089C76.3619 19.0758 76.2815 19.1305 76.1864 19.1728L76.2677 19.3555C76.3835 19.304 76.4848 19.2358 76.5702 19.1503L76.4288 19.0089ZM76.1886 19.1719C76.0959 19.2105 75.9963 19.2301 75.8887 19.2301V19.4301C76.0213 19.4301 76.1472 19.4057 76.2655 19.3565L76.1886 19.1719ZM75.8887 19.2301H73.4761V19.4301H75.8887V19.2301ZM73.3761 19.3301V21.2197H73.5761V19.3301H73.3761ZM73.4761 21.1197H72.6147V21.3197H73.4761V21.1197ZM72.7147 21.2197V14.6499H72.5147V21.2197H72.7147ZM72.6147 14.7499H73.4761V14.5499H72.6147V14.7499ZM73.3761 14.6499V15.4409H73.5761V14.6499H73.3761ZM73.5758 15.4488C73.5835 15.3504 73.6092 15.2612 73.6523 15.1802L73.4757 15.0864C73.4191 15.1929 73.3862 15.3088 73.3764 15.433L73.5758 15.4488ZM73.6529 15.1791C73.6976 15.0923 73.7536 15.0183 73.8208 14.9563L73.6851 14.8093C73.5999 14.888 73.53 14.981 73.4751 15.0875L73.6529 15.1791ZM73.8222 14.9549C73.8892 14.8905 73.9664 14.8402 74.0547 14.8039L73.9785 14.619C73.8675 14.6647 73.769 14.7286 73.6836 14.8107L73.8222 14.9549ZM74.0537 14.8043C74.1441 14.7681 74.2398 14.7499 74.3418 14.7499V14.5499C74.2153 14.5499 74.0942 14.5727 73.9795 14.6186L74.0537 14.8043ZM74.3418 14.7499H75.8887V14.5499H74.3418V14.7499ZM75.8887 14.7499C75.9954 14.7499 76.0943 14.7706 76.1864 14.8116L76.2677 14.6288C76.1489 14.576 76.0222 14.5499 75.8887 14.5499V14.7499ZM76.1886 14.8125C76.2819 14.8514 76.3612 14.9053 76.4275 14.9741L76.5715 14.8354C76.4855 14.7461 76.3831 14.6769 76.2655 14.6279L76.1886 14.8125ZM76.4301 14.9768C76.499 15.0431 76.5529 15.1224 76.5918 15.2157L76.7764 15.1388C76.7274 15.0212 76.6582 14.9188 76.5689 14.8328L76.4301 14.9768ZM76.5927 15.2179C76.6337 15.31 76.6544 15.4089 76.6544 15.5156H76.8544C76.8544 15.3821 76.8283 15.2554 76.7755 15.1366L76.5927 15.2179ZM76.6544 15.5156V18.4644H76.8544V15.5156H76.6544ZM75.9887 18.4644V15.5156H75.7887V18.4644H75.9887ZM75.8887 15.4156H73.4761V15.6156H75.8887V15.4156ZM73.3761 15.5156V18.4644H73.5761V15.5156H73.3761ZM73.4761 18.5644H75.8887V18.3644H73.4761V18.5644ZM82.3354 19.3301V19.4301H82.4354V19.3301H82.3354ZM81.4697 19.3301H81.3697V19.4301H81.4697V19.3301ZM81.4697 15.5156H81.5697V15.4156H81.4697V15.5156ZM79.0571 15.5156V15.4156H78.9571V15.5156H79.0571ZM79.0571 19.3301V19.4301H79.1571V19.3301H79.0571ZM78.1958 19.3301H78.0958V19.4301H78.1958V19.3301ZM78.1958 12.8481V12.7481H78.0958V12.8481H78.1958ZM79.0571 12.8481H79.1571V12.7481H79.0571V12.8481ZM79.0571 15.4761H78.9571L79.157 15.4812L79.0571 15.4761ZM79.1362 15.1553L79.2267 15.1979L79.2272 15.1968L79.1362 15.1553ZM79.3208 14.8916L79.3901 14.9637L79.3902 14.9636L79.3208 14.8916ZM79.5933 14.7158L79.6304 14.8087L79.6327 14.8077L79.5933 14.7158ZM81.8081 14.7202L81.7675 14.8116L81.7696 14.8125L81.8081 14.7202ZM82.0806 14.9048L82.0085 14.9742L82.0112 14.9768L82.0806 14.9048ZM82.2651 15.1772L82.1728 15.2157L82.1738 15.2179L82.2651 15.1772ZM82.3354 19.2301H81.4697V19.4301H82.3354V19.2301ZM81.5697 19.3301V15.5156H81.3697V19.3301H81.5697ZM81.4697 15.4156H79.0571V15.6156H81.4697V15.4156ZM78.9571 15.5156V19.3301H79.1571V15.5156H78.9571ZM79.0571 19.2301H78.1958V19.4301H79.0571V19.2301ZM78.2958 19.3301V12.8481H78.0958V19.3301H78.2958ZM78.1958 12.9481H79.0571V12.7481H78.1958V12.9481ZM78.9571 12.8481V15.4761H79.1571V12.8481H78.9571ZM79.157 15.4812C79.1622 15.3794 79.1856 15.2852 79.2267 15.1979L79.0457 15.1127C78.9931 15.2245 78.9638 15.3442 78.9573 15.471L79.157 15.4812ZM79.2272 15.1968C79.2692 15.105 79.3236 15.0276 79.3901 14.9637L79.2515 14.8195C79.1657 14.902 79.097 15.0005 79.0453 15.1137L79.2272 15.1968ZM79.3902 14.9636C79.4599 14.8965 79.5398 14.8449 79.6304 14.8087L79.5561 14.623C79.4417 14.6688 79.3399 14.7344 79.2514 14.8196L79.3902 14.9636ZM79.6327 14.8077C79.7221 14.7694 79.8185 14.7499 79.9229 14.7499V14.5499C79.7928 14.5499 79.6695 14.5744 79.5539 14.6239L79.6327 14.8077ZM79.9229 14.7499H81.4697V14.5499H79.9229V14.7499ZM81.4697 14.7499C81.5764 14.7499 81.6753 14.7706 81.7675 14.8116L81.8487 14.6288C81.7299 14.576 81.6033 14.5499 81.4697 14.5499V14.7499ZM81.7696 14.8125C81.863 14.8514 81.9422 14.9053 82.0085 14.9741L82.1526 14.8354C82.0665 14.7461 81.9642 14.6769 81.8466 14.6279L81.7696 14.8125ZM82.0112 14.9768C82.08 15.0431 82.1339 15.1224 82.1728 15.2157L82.3574 15.1388C82.3084 15.0212 82.2393 14.9188 82.1499 14.8328L82.0112 14.9768ZM82.1738 15.2179C82.2147 15.31 82.2354 15.4089 82.2354 15.5156H82.4354C82.4354 15.3821 82.4093 15.2554 82.3565 15.1366L82.1738 15.2179ZM82.2354 15.5156V19.3301H82.4354V15.5156H82.2354ZM84.6865 14.6499H84.7865V14.5499H84.6865V14.6499ZM84.6865 19.3301V19.4301H84.7865V19.3301H84.6865ZM83.8208 19.3301H83.7208V19.4301H83.8208V19.3301ZM83.8208 14.6499V14.5499H83.7208V14.6499H83.8208ZM83.7769 12.8481V12.7481H83.6769V12.8481H83.7769ZM84.7305 12.8481H84.8305V12.7481H84.7305V12.8481ZM84.7305 13.749V13.849H84.8305V13.749H84.7305ZM83.7769 13.749H83.6769V13.849H83.7769V13.749ZM84.5865 14.6499V19.3301H84.7865V14.6499H84.5865ZM84.6865 19.2301H83.8208V19.4301H84.6865V19.2301ZM83.9208 19.3301V14.6499H83.7208V19.3301H83.9208ZM83.8208 14.7499H84.6865V14.5499H83.8208V14.7499ZM83.7769 12.9481H84.7305V12.7481H83.7769V12.9481ZM84.6305 12.8481V13.749H84.8305V12.8481H84.6305ZM84.7305 13.649H83.7769V13.849H84.7305V13.649ZM83.8769 13.749V12.8481H83.6769V13.749H83.8769ZM87.0376 15.5156V15.4156H86.9376V15.5156H87.0376ZM87.0376 18.4644H86.9376V18.5644H87.0376V18.4644ZM89.27 18.4644V18.5644H89.37V18.4644H89.27ZM89.27 17.6733V17.5733H89.17V17.6733H89.27ZM90.1357 17.6733H90.2357V17.5733H90.1357V17.6733ZM90.0654 18.8027L89.974 18.7621L89.9731 18.7643L90.0654 18.8027ZM89.6084 19.2642L89.6469 19.3565L89.649 19.3555L89.6084 19.2642ZM86.7036 19.2642L86.663 19.3556L86.6652 19.3565L86.7036 19.2642ZM86.4268 19.0796L86.3547 19.149L86.3574 19.1516L86.4268 19.0796ZM86.2422 18.8027L86.1499 18.8412L86.1508 18.8433L86.2422 18.8027ZM86.2422 15.1772L86.1508 15.1366L86.1499 15.1388L86.2422 15.1772ZM86.7036 14.7202L86.7421 14.8125L86.7442 14.8116L86.7036 14.7202ZM89.6084 14.7202L89.5678 14.8116L89.5699 14.8125L89.6084 14.7202ZM89.8809 14.9048L89.8088 14.9742L89.8115 14.9768L89.8809 14.9048ZM90.0654 15.1772L89.9731 15.2157L89.974 15.2179L90.0654 15.1772ZM90.1357 16.3066V16.4066H90.2357V16.3066H90.1357ZM89.27 16.3066H89.17V16.4066H89.27V16.3066ZM89.27 15.5156H89.37V15.4156H89.27V15.5156ZM86.9376 15.5156V18.4644H87.1376V15.5156H86.9376ZM87.0376 18.5644H89.27V18.3644H87.0376V18.5644ZM89.37 18.4644V17.6733H89.17V18.4644H89.37ZM89.27 17.7733H90.1357V17.5733H89.27V17.7733ZM90.0357 17.6733V18.4644H90.2357V17.6733H90.0357ZM90.0357 18.4644C90.0357 18.5711 90.015 18.67 89.974 18.7621L90.1568 18.8433C90.2096 18.7246 90.2357 18.5979 90.2357 18.4644H90.0357ZM89.9731 18.7643C89.9341 18.8579 89.8798 18.9392 89.8101 19.0089L89.9516 19.1503C90.0401 19.0618 90.1089 18.9585 90.1577 18.8412L89.9731 18.7643ZM89.8101 19.0089C89.7433 19.0758 89.6628 19.1305 89.5678 19.1728L89.649 19.3555C89.7649 19.304 89.8661 19.2358 89.9516 19.1503L89.8101 19.0089ZM89.5699 19.1719C89.4773 19.2105 89.3776 19.2301 89.27 19.2301V19.4301C89.4027 19.4301 89.5286 19.4057 89.6469 19.3565L89.5699 19.1719ZM89.27 19.2301H87.0376V19.4301H89.27V19.2301ZM87.0376 19.2301C86.9333 19.2301 86.835 19.2106 86.7421 19.1719L86.6652 19.3565C86.7831 19.4056 86.9076 19.4301 87.0376 19.4301V19.2301ZM86.7442 19.1728C86.6488 19.1304 86.5664 19.0753 86.4961 19.0076L86.3574 19.1516C86.4453 19.2363 86.5474 19.3042 86.663 19.3555L86.7442 19.1728ZM86.4988 19.0102C86.4311 18.9399 86.376 18.8575 86.3336 18.7621L86.1508 18.8433C86.2022 18.9589 86.2701 19.061 86.3547 19.149L86.4988 19.0102ZM86.3345 18.7643C86.2959 18.6716 86.2763 18.572 86.2763 18.4644H86.0763C86.0763 18.597 86.1006 18.7229 86.1499 18.8412L86.3345 18.7643ZM86.2763 18.4644V15.5156H86.0763V18.4644H86.2763ZM86.2763 15.5156C86.2763 15.408 86.2959 15.3084 86.3345 15.2157L86.1499 15.1388C86.1006 15.2571 86.0763 15.383 86.0763 15.5156H86.2763ZM86.3336 15.2179C86.3758 15.1228 86.4306 15.0424 86.4975 14.9755L86.356 14.8341C86.2706 14.9195 86.2023 15.0208 86.1508 15.1366L86.3336 15.2179ZM86.4975 14.9755C86.5671 14.9058 86.6484 14.8516 86.7421 14.8125L86.6652 14.6279C86.5479 14.6768 86.4446 14.7455 86.356 14.8341L86.4975 14.9755ZM86.7442 14.8116C86.8367 14.7705 86.9342 14.7499 87.0376 14.7499V14.5499C86.9066 14.5499 86.7815 14.5762 86.663 14.6288L86.7442 14.8116ZM87.0376 14.7499H89.27V14.5499H87.0376V14.7499ZM89.27 14.7499C89.3767 14.7499 89.4756 14.7706 89.5678 14.8116L89.649 14.6288C89.5302 14.576 89.4035 14.5499 89.27 14.5499V14.7499ZM89.5699 14.8125C89.6633 14.8514 89.7425 14.9053 89.8088 14.9741L89.9529 14.8354C89.8668 14.7461 89.7644 14.6769 89.6469 14.6279L89.5699 14.8125ZM89.8115 14.9768C89.8803 15.0431 89.9342 15.1224 89.9731 15.2157L90.1577 15.1388C90.1087 15.0212 90.0396 14.9188 89.9502 14.8328L89.8115 14.9768ZM89.974 15.2179C90.015 15.31 90.0357 15.4089 90.0357 15.5156H90.2357C90.2357 15.3821 90.2096 15.2554 90.1568 15.1366L89.974 15.2179ZM90.0357 15.5156V16.3066H90.2357V15.5156H90.0357ZM90.1357 16.2066H89.27V16.4066H90.1357V16.2066ZM89.37 16.3066V15.5156H89.17V16.3066H89.37ZM89.27 15.4156H87.0376V15.6156H89.27V15.4156ZM94.4072 18.4644V18.5644H94.5072V18.4644H94.4072ZM94.4072 17.3789H94.5072V17.2789H94.4072V17.3789ZM92.0166 17.313L91.976 17.4044L91.9781 17.4053L92.0166 17.313ZM91.7397 17.1284L91.6677 17.1978L91.6704 17.2004L91.7397 17.1284ZM91.5552 16.8516L91.4628 16.89L91.4638 16.8922L91.5552 16.8516ZM91.5552 15.1772L91.4638 15.1366L91.4629 15.1388L91.5552 15.1772ZM92.0166 14.7202L92.0551 14.8125L92.0572 14.8116L92.0166 14.7202ZM95.0928 14.6499H95.1928V14.5499H95.0928V14.6499ZM95.0928 15.5156V15.6156H95.1928V15.5156H95.0928ZM92.355 15.5156V15.4156H92.255V15.5156H92.355ZM92.355 16.5132H92.255V16.6132H92.355V16.5132ZM94.7412 16.5835L94.6996 16.6745L94.7027 16.6758L94.7412 16.5835ZM95.0181 16.7681L94.9473 16.8388L94.9487 16.8401L95.0181 16.7681ZM95.2026 17.0405L95.1103 17.079L95.1113 17.0811L95.2026 17.0405ZM95.2026 18.8027L95.1112 18.7621L95.1103 18.7643L95.2026 18.8027ZM95.0181 19.0796L95.0874 19.1516L95.0888 19.1503L95.0181 19.0796ZM94.7412 19.2642L94.7806 19.3561L94.7818 19.3555L94.7412 19.2642ZM91.4893 19.3301H91.3893V19.4301H91.4893V19.3301ZM91.4893 18.4644V18.3644H91.3893V18.4644H91.4893ZM94.5072 18.4644V17.3789H94.3072V18.4644H94.5072ZM94.4072 17.2789H92.355V17.4789H94.4072V17.2789ZM92.355 17.2789C92.2474 17.2789 92.1477 17.2593 92.0551 17.2207L91.9781 17.4053C92.0964 17.4546 92.2223 17.4789 92.355 17.4789V17.2789ZM92.0572 17.2216C91.9618 17.1792 91.8794 17.1241 91.8091 17.0564L91.6704 17.2004C91.7583 17.2851 91.8604 17.353 91.976 17.4044L92.0572 17.2216ZM91.8118 17.0591C91.7441 16.9888 91.6889 16.9063 91.6466 16.8109L91.4638 16.8922C91.5152 17.0077 91.5831 17.1099 91.6677 17.1978L91.8118 17.0591ZM91.6475 16.8131C91.6089 16.7204 91.5893 16.6208 91.5893 16.5132H91.3893C91.3893 16.6458 91.4136 16.7717 91.4629 16.89L91.6475 16.8131ZM91.5893 16.5132V15.5156H91.3893V16.5132H91.5893ZM91.5893 15.5156C91.5893 15.408 91.6089 15.3084 91.6475 15.2157L91.4629 15.1388C91.4136 15.2571 91.3893 15.383 91.3893 15.5156H91.5893ZM91.6466 15.2179C91.6888 15.1228 91.7436 15.0424 91.8105 14.9755L91.669 14.8341C91.5836 14.9195 91.5153 15.0208 91.4638 15.1366L91.6466 15.2179ZM91.8105 14.9755C91.8801 14.9058 91.9614 14.8516 92.0551 14.8125L91.9781 14.6279C91.8609 14.6768 91.7576 14.7455 91.669 14.8341L91.8105 14.9755ZM92.0572 14.8116C92.1494 14.7706 92.2483 14.7499 92.355 14.7499V14.5499C92.2215 14.5499 92.0948 14.576 91.976 14.6288L92.0572 14.8116ZM92.355 14.7499H95.0928V14.5499H92.355V14.7499ZM94.9928 14.6499V15.5156H95.1928V14.6499H94.9928ZM95.0928 15.4156H92.355V15.6156H95.0928V15.4156ZM92.255 15.5156V16.5132H92.455V15.5156H92.255ZM92.355 16.6132H94.4072V16.4132H92.355V16.6132ZM94.4072 16.6132C94.514 16.6132 94.611 16.6339 94.6996 16.6744L94.7828 16.4925C94.6664 16.4393 94.5407 16.4132 94.4072 16.4132V16.6132ZM94.7027 16.6758C94.7964 16.7148 94.8777 16.7691 94.9474 16.8388L95.0888 16.6974C95.0002 16.6088 94.8969 16.54 94.7797 16.4912L94.7027 16.6758ZM94.9487 16.8401C95.0175 16.9064 95.0714 16.9856 95.1103 17.079L95.2949 17.0021C95.2459 16.8845 95.1768 16.7821 95.0874 16.696L94.9487 16.8401ZM95.1113 17.0811C95.1522 17.1733 95.1729 17.2722 95.1729 17.3789H95.3729C95.3729 17.2454 95.3468 17.1187 95.294 16.9999L95.1113 17.0811ZM95.1729 17.3789V18.4644H95.3729V17.3789H95.1729ZM95.1729 18.4644C95.1729 18.5711 95.1522 18.67 95.1113 18.7621L95.294 18.8433C95.3468 18.7246 95.3729 18.5979 95.3729 18.4644H95.1729ZM95.1103 18.7643C95.0713 18.8579 95.017 18.9392 94.9474 19.0089L95.0888 19.1503C95.1773 19.0618 95.2461 18.9585 95.2949 18.8412L95.1103 18.7643ZM94.9487 19.0076C94.8784 19.0753 94.796 19.1304 94.7006 19.1728L94.7818 19.3555C94.8974 19.3042 94.9995 19.2363 95.0874 19.1516L94.9487 19.0076ZM94.7018 19.1722C94.6127 19.2105 94.5149 19.2301 94.4072 19.2301V19.4301C94.5398 19.4301 94.6647 19.4058 94.7806 19.3561L94.7018 19.1722ZM94.4072 19.2301H91.4893V19.4301H94.4072V19.2301ZM91.5893 19.3301V18.4644H91.3893V19.3301H91.5893ZM91.4893 18.5644H94.4072V18.3644H91.4893V18.5644Z"></path>
</svg>
