<svg version="1.1" xmlns="http://www.w3.org/2000/svg" xmlns:xlink="http://www.w3.org/1999/xlink" width="34.6845" height="44.87248" viewBox="0,0,34.6845,44.87248"><g transform="translate(-222.65776,-148.02841)"><g data-paper-data="{&quot;isPaintingLayer&quot;:true}" fill="#ffffff" fill-rule="nonzero" stroke="none" stroke-width="1" stroke-linecap="butt" stroke-linejoin="miter" stroke-miterlimit="10" stroke-dasharray="" stroke-dashoffset="0" style="mix-blend-mode: normal"><path d="M226.4381,160.18882c-0.43137,0 -0.8576,-0.05135 -1.27869,-0.15406c-0.42109,-0.11298 -0.79597,-0.24649 -1.12463,-0.40055c-0.32866,-0.16433 -0.57515,-0.32866 -0.73948,-0.49299l0.81651,-1.46356c0.11298,0.09244 0.28758,0.21568 0.5238,0.36974c0.24649,0.14379 0.52894,0.27217 0.84732,0.38515c0.31839,0.11298 0.63678,0.16946 0.95517,0.16946c0.5238,0 0.9603,-0.12325 1.3095,-0.36974c0.35947,-0.24649 0.53921,-0.60597 0.53921,-1.07841c0,-0.39028 -0.10271,-0.71381 -0.30812,-0.97057c-0.20541,-0.25677 -0.47758,-0.48272 -0.81651,-0.67786c-0.32866,-0.19514 -0.68813,-0.38001 -1.07841,-0.55461c-0.38001,-0.18487 -0.74462,-0.39028 -1.09382,-0.61624c-0.40055,-0.26704 -0.74975,-0.62137 -1.0476,-1.06301c-0.29785,-0.44164 -0.44677,-1.01165 -0.44677,-1.71006c0,-0.68813 0.15406,-1.25301 0.46218,-1.69465c0.31839,-0.44164 0.73435,-0.7703 1.24788,-0.98598c0.5238,-0.22595 1.09382,-0.33893 1.71006,-0.33893c0.49299,0 0.91408,0.05135 1.26328,0.15406c0.3492,0.10271 0.64191,0.22595 0.87814,0.36974c0.23622,0.14379 0.42109,0.27217 0.55461,0.38515l-0.81651,1.40194c-0.1746,-0.18487 -0.4365,-0.35434 -0.7857,-0.50839c-0.3492,-0.16433 -0.73948,-0.24649 -1.17085,-0.24649c-0.50326,0 -0.90381,0.11811 -1.20166,0.35434c-0.29785,0.22595 -0.44677,0.56488 -0.44677,1.01679c0,0.40055 0.13352,0.74462 0.40055,1.0322c0.26704,0.27731 0.60597,0.53407 1.01679,0.7703c0.42109,0.22595 0.85246,0.45704 1.2941,0.69327c0.44164,0.23622 0.83192,0.51353 1.17085,0.83192c0.27731,0.24649 0.51353,0.55461 0.70867,0.92435c0.19514,0.36974 0.29271,0.7857 0.29271,1.24788c0,0.6984 -0.16433,1.28896 -0.49299,1.77168c-0.31839,0.48272 -0.74975,0.84732 -1.2941,1.09382c-0.54434,0.23622 -1.16058,0.35434 -1.84871,0.35434zM235.11873,160.18882c-0.88327,0 -1.60221,-0.16946 -2.15683,-0.50839c-0.55461,-0.3492 -0.9603,-0.80624 -1.21707,-1.37113c-0.25677,-0.56488 -0.38515,-1.16571 -0.38515,-1.80249c0,-0.7703 0.15406,-1.43275 0.46218,-1.98736c0.31839,-0.55461 0.75489,-0.98084 1.3095,-1.27869c0.55461,-0.30812 1.18112,-0.46218 1.87952,-0.46218c1.1195,0 1.93601,0.31325 2.44954,0.93976c0.51353,0.61624 0.7703,1.44815 0.7703,2.49576c0,0.27731 -0.01541,0.56488 -0.04622,0.86273h-5.08395c0.11298,0.63678 0.33893,1.09382 0.67786,1.37113c0.3492,0.26704 0.81138,0.40055 1.38653,0.40055c0.55461,0 0.99111,-0.05135 1.3095,-0.15406c0.31839,-0.10271 0.58029,-0.20541 0.7857,-0.30812l0.50839,1.18625c-0.20541,0.13352 -0.5238,0.27217 -0.95517,0.41596c-0.43137,0.13352 -0.99625,0.20028 -1.69465,0.20028zM233.10055,155.92138h3.51255c0.01027,-0.66759 -0.13865,-1.12463 -0.44677,-1.37113c-0.30812,-0.24649 -0.70867,-0.36974 -1.20166,-0.36974c-0.51353,0 -0.93462,0.13865 -1.26328,0.41596c-0.31839,0.26704 -0.51867,0.70867 -0.60083,1.32491zM239.82456,160.03474v-7.07131h1.63303l0.01541,1.2941c0.18487,-0.42109 0.48272,-0.7703 0.89354,-1.0476c0.42109,-0.28758 0.92435,-0.43137 1.50978,-0.43137c0.76002,0 1.33004,0.15919 1.71006,0.47758c0.38001,0.30812 0.63164,0.74975 0.75489,1.32491c0.13352,0.57515 0.20028,1.25815 0.20028,2.04899v3.4047h-1.66384v-3.35849c0,-0.82165 -0.08216,-1.44815 -0.24649,-1.87952c-0.15406,-0.43137 -0.51867,-0.64705 -1.09382,-0.64705c-0.29785,0 -0.60597,0.09244 -0.92435,0.27731c-0.31839,0.18487 -0.58542,0.45191 -0.80111,0.80111c-0.21568,0.3492 -0.32352,0.78057 -0.32352,1.2941v3.51255zM250.86443,160.18882c-0.32866,0 -0.67272,-0.03081 -1.0322,-0.09244c-0.3492,-0.06162 -0.67272,-0.13865 -0.97057,-0.23109c-0.28758,-0.10271 -0.50839,-0.21055 -0.66245,-0.32352l0.55461,-1.3095c0.1746,0.12325 0.4365,0.2619 0.7857,0.41596c0.35947,0.15406 0.80111,0.23109 1.32491,0.23109c0.46218,0 0.77543,-0.06676 0.93976,-0.20028c0.16433,-0.14379 0.24649,-0.30812 0.24649,-0.49299c0,-0.19514 -0.07189,-0.34407 -0.21568,-0.44677c-0.13352,-0.11298 -0.32866,-0.21568 -0.58542,-0.30812c-0.25677,-0.09244 -0.55975,-0.20541 -0.90895,-0.33893c-0.33893,-0.14379 -0.66245,-0.30812 -0.97057,-0.49299c-0.30812,-0.19514 -0.55975,-0.43137 -0.75489,-0.70867c-0.18487,-0.28758 -0.27731,-0.63678 -0.27731,-1.0476c0,-0.66759 0.25677,-1.17598 0.7703,-1.52518c0.51353,-0.35947 1.19139,-0.53921 2.03358,-0.53921c0.43137,0 0.84732,0.04622 1.24788,0.13865c0.41082,0.09244 0.71894,0.21055 0.92435,0.35434l-0.60083,1.32491c-0.12325,-0.12325 -0.32866,-0.23622 -0.61624,-0.33893c-0.27731,-0.10271 -0.6111,-0.15406 -1.00138,-0.15406c-0.72921,0 -1.09382,0.22082 -1.09382,0.66245c0,0.21568 0.07703,0.39028 0.23109,0.5238c0.16433,0.12325 0.37488,0.23109 0.63164,0.32352c0.26704,0.08216 0.55461,0.18487 0.86273,0.30812c0.62651,0.24649 1.10409,0.53407 1.43275,0.86273c0.33893,0.31839 0.50839,0.74462 0.50839,1.27869c0,0.48272 -0.12838,0.88327 -0.38515,1.20166c-0.25677,0.31839 -0.60083,0.55461 -1.0322,0.70867c-0.42109,0.14379 -0.88327,0.21568 -1.38653,0.21568zM255.71952,160.18882c-0.30812,0 -0.57002,-0.10271 -0.7857,-0.30812c-0.21568,-0.21568 -0.32352,-0.47758 -0.32352,-0.7857c0,-0.31839 0.10271,-0.58029 0.30812,-0.7857c0.21568,-0.21568 0.48272,-0.32352 0.80111,-0.32352c0.32866,0 0.59569,0.10784 0.80111,0.32352c0.20541,0.20541 0.30812,0.46731 0.30812,0.7857c0,0.30812 -0.10784,0.57002 -0.32352,0.7857c-0.20541,0.20541 -0.46731,0.30812 -0.7857,0.30812z"/><path d="M225.03772,160.53367l-0.01142,-0.00279l0.13311,-0.49612zM223.81682,160.09919l-0.01178,-0.00553l0.22974,-0.45946zM222.93218,159.50435l-0.27441,-0.27441l0.18907,-0.3389l0.44846,0.25019zM223.66334,157.42747l0.29887,-0.53571l0.47478,0.38845l-0.32518,0.39746zM224.37686,158.49096l-0.01106,-0.00644l-0.01072,-0.007l0.28052,-0.43013zM225.31121,158.91652v0l0.17172,-0.48397zM227.45146,157.81274l0.0057,-0.00402l0.29044,0.42356zM227.57769,156.50409v0l0.401,-0.3208zM226.90594,155.95047l-0.00597,-0.00344l0.26221,-0.4416zM225.87405,155.41958l-0.01506,-0.00674l0.22477,-0.46202zM224.71096,154.76573l-0.00591,-0.00382l0.28489,-0.42733zM223.51659,153.55871v0l0.42575,-0.28713zM223.53658,149.57304l0.00455,-0.00652l0.41661,0.30035zM225.40903,149.35241l-0.00454,0.00197l-0.19887,-0.47349zM228.32387,148.20335v0l-0.1449,0.49266zM229.94342,149.05889l0.32883,0.27825l-0.21678,0.37222l-0.44376,-0.25844zM229.23896,151.11129l-0.34561,0.5934l-0.47149,-0.49924l0.37334,-0.35261zM227.80222,150.81429l-0.01145,-0.00505l0.21873,-0.4648zM225.9561,150.85464l-0.00866,0.00686l-0.31045,-0.40922zM225.22086,152.85746l-0.00645,-0.00671l0.37637,-0.34949zM226.36475,153.72408l-0.01328,-0.00714l0.2561,-0.44537zM227.65944,154.41768v0l0.24222,-0.45283zM228.73134,155.18058l-0.01056,-0.00938l0.35173,-0.37443zM229.32701,155.96079v0l0.45417,-0.2397zM229.15222,158.45792l0.00414,-0.0063l0.42454,0.28905zM228.49864,160.30229l-0.00738,0.00334l-0.20445,-0.47115zM226.4381,160.70235c-0.47257,0 -0.93964,-0.05632 -1.40038,-0.16868l0.24338,-0.99782c0.38145,0.09305 0.76684,0.13944 1.157,0.13944zM225.02634,160.53076c-0.44465,-0.11929 -0.84873,-0.26245 -1.20952,-0.43155l0.43592,-0.92997c0.29653,0.13901 0.6422,0.26289 1.03974,0.36955zM223.80513,160.09354c-0.35283,-0.17641 -0.6537,-0.36993 -0.87295,-0.58919l0.72623,-0.72623c0.10942,0.1094 0.30153,0.24454 0.60602,0.39679zM222.84684,158.89103l0.8165,-1.46356l0.89693,0.50038l-0.81651,1.46356zM224.43699,157.28018c0.09103,0.07448 0.24696,0.18564 0.47914,0.33706l-0.56105,0.86027c-0.24026,-0.1567 -0.43354,-0.29203 -0.56846,-0.40242zM224.89436,157.60384c0.21431,0.12501 0.46678,0.24061 0.7603,0.34475l-0.34345,0.96794c-0.34326,-0.12181 -0.65568,-0.26298 -0.93435,-0.42555zM225.65466,157.94858c0.26664,0.09461 0.52705,0.1399 0.78344,0.1399v1.02706c-0.38039,0 -0.75676,-0.06768 -1.12689,-0.19903zM226.4381,158.08847c0.442,0 0.7687,-0.10305 1.01337,-0.27575l0.59227,0.83907c-0.45374,0.32029 -1.00003,0.46373 -1.60564,0.46373zM227.45718,157.80874c0.20656,-0.14163 0.31609,-0.33501 0.31609,-0.65489h1.02706c0,0.62502 -0.24994,1.15058 -0.76232,1.50194zM227.77328,157.15384c0,-0.29634 -0.07602,-0.50032 -0.19559,-0.64977l0.802,-0.6416c0.29126,0.36408 0.42065,0.80715 0.42065,1.29137zM227.57769,156.50409c-0.15853,-0.19817 -0.37811,-0.38457 -0.67175,-0.55362l0.51247,-0.89008c0.38422,0.22123 0.70898,0.48674 0.96128,0.8021zM226.9,155.94699c-0.30986,-0.18398 -0.65158,-0.35995 -1.02595,-0.52741l0.41942,-0.93753c0.4062,0.18174 0.78342,0.37551 1.13088,0.58181zM225.85911,155.4126c-0.39843,-0.19382 -0.7812,-0.40944 -1.14815,-0.64688l0.55797,-0.86229c0.33145,0.21447 0.67789,0.40968 1.03949,0.5856zM224.70509,154.76186c-0.46183,-0.30788 -0.85725,-0.71198 -1.1885,-1.20315l0.8515,-0.57426c0.26445,0.3921 0.56743,0.69667 0.90671,0.92285zM223.51659,153.55871c-0.37041,-0.54922 -0.53455,-1.22788 -0.53455,-1.99719h1.02706c0,0.6275 0.13371,1.08887 0.35899,1.42292zM222.98204,151.56151c0,-0.76403 0.17152,-1.43948 0.55454,-1.98847l0.84233,0.58765c-0.23321,0.33427 -0.36981,0.78859 -0.36981,1.40082zM223.54118,149.56653c0.37497,-0.52012 0.86705,-0.90775 1.46559,-1.15912l0.39771,0.94692c-0.42852,0.17999 -0.76836,0.44968 -1.03018,0.81283zM225.00222,148.40936c0.59306,-0.25582 1.23295,-0.38094 1.91346,-0.38094v1.02706c-0.55196,0 -1.0521,0.10084 -1.50665,0.29692zM226.91568,148.02844c0.52592,0 0.99863,0.05447 1.40819,0.17493l-0.2898,0.98533c-0.28884,-0.08495 -0.65833,-0.13319 -1.11838,-0.13319zM228.32387,148.20335c0.37941,0.11159 0.716,0.25074 1.00024,0.42375l-0.534,0.87731c-0.18821,-0.11457 -0.43705,-0.22191 -0.75604,-0.31574zM229.3241,148.62711c0.24754,0.15067 0.45732,0.2947 0.61932,0.43178l-0.66341,0.78406c-0.10503,-0.08887 -0.265,-0.20161 -0.48991,-0.33852zM230.05547,149.70935l-0.81651,1.40194l-0.88752,-0.51689l0.81651,-1.40194zM228.42186,151.20546c-0.11017,-0.11666 -0.30464,-0.25219 -0.61964,-0.39116l0.41456,-0.93969c0.3834,0.16916 0.71273,0.37255 0.95176,0.62563zM227.79084,150.8091c-0.27313,-0.12854 -0.58746,-0.19762 -0.95219,-0.19762v-1.02706c0.498,0 0.96424,0.09524 1.38951,0.29537zM226.83865,150.61148c-0.42501,0 -0.70112,0.09927 -0.88255,0.24316l-0.63822,-0.8047c0.41426,-0.32856 0.93926,-0.46552 1.52077,-0.46552zM225.94737,150.8614c-0.14266,0.10822 -0.24362,0.27886 -0.24362,0.60766h-1.02706c0,-0.57502 0.19689,-1.08223 0.64992,-1.42592zM225.70375,151.46908c0,0.2739 0.0865,0.49232 0.26334,0.68276l-0.75263,0.69888c-0.35723,-0.38472 -0.53777,-0.85443 -0.53777,-1.38164zM225.96069,152.14506c0.22674,0.23547 0.52473,0.46389 0.90285,0.68132l-0.51196,0.89036c-0.44352,-0.25502 -0.82339,-0.54013 -1.13072,-0.85927zM226.85038,152.81904c0.42087,0.22585 0.85205,0.45682 1.2935,0.69294l-0.48443,0.90566c-0.44182,-0.23633 -0.87338,-0.46753 -1.29469,-0.69359zM228.14387,153.512c0.47834,0.25587 0.90602,0.55893 1.28023,0.91047l-0.70319,0.74856c-0.30365,-0.28523 -0.65653,-0.53679 -1.06147,-0.75337zM229.41368,154.41294c0.32874,0.29222 0.60141,0.65116 0.82167,1.06847l-0.90833,0.4794c-0.17003,-0.32217 -0.36981,-0.57947 -0.59568,-0.78024zM230.23534,155.48142c0.23811,0.45117 0.35208,0.95084 0.35208,1.48758h-1.02706c0,-0.38761 -0.08117,-0.71987 -0.23335,-1.00818zM230.58742,156.96899c0,0.78093 -0.18477,1.4772 -0.58204,2.06069l-0.84897,-0.57803c0.26005,-0.38195 0.40394,-0.86679 0.40394,-1.48266zM230.00958,159.02342c-0.37359,0.56642 -0.88141,0.9938 -1.51094,1.27888l-0.42366,-0.93562c0.45915,-0.20791 0.81407,-0.50975 1.07725,-0.90876zM228.49124,160.30557c-0.61834,0.26834 -1.3058,0.39679 -2.05314,0.39679v-1.02706c0.62892,0 1.17393,-0.10777 1.64427,-0.31188zM232.69411,160.11861l-0.00585,-0.00358l0.27364,-0.4346zM232.21233,158.09679l-0.4675,0.2125zM231.37295,154.27006l0.00351,-0.00632l0.4454,0.2557zM233.38075,153.68965l-0.0064,0.00356l-0.24299,-0.45247zM237.06591,154.0471l-0.00267,-0.00322l0.39718,-0.32554zM238.69531,157.12966l-0.04766,0.46069h-0.46315v-0.51353zM232.59491,157.16654l-0.10702,-0.60324h0.61266v0.51353zM233.46646,158.85589l-0.01342,-0.01027l0.32537,-0.39766zM237.03048,157.92701l0.48713,-0.24357l0.21454,0.50059l-0.472,0.2023zM238.24054,159.3703l0.17027,0.3973l-0.36242,0.23556l-0.27986,-0.43056zM236.97577,160.47571l-0.01053,0.00351l-0.15187,-0.49068zM233.10055,156.4349h-0.58655l0.07753,-0.5814l0.50903,0.06787zM237.12656,155.92926l-0.00777,0.50564h-0.50569v-0.51353zM235.84552,154.95126v0l0.3208,-0.401zM234.03254,154.98897l-0.00116,0.00098l-0.32999,-0.39347zM235.11873,160.70235c-0.94503,0 -1.76538,-0.18088 -2.42462,-0.58375l0.53556,-0.87636c0.45001,0.275 1.06753,0.43304 1.88905,0.43304zM232.68827,160.11497c-0.63452,-0.39953 -1.11025,-0.93166 -1.41094,-1.59319l0.935,-0.425c0.21284,0.46824 0.54848,0.85018 1.02317,1.14906zM231.27733,158.52181c-0.2879,-0.63339 -0.43118,-1.30688 -0.43118,-2.01499h1.02706c0,0.56545 0.11349,1.09361 0.33912,1.58999zM230.84615,156.50681c0,-0.83899 0.16811,-1.5911 0.5268,-2.23675l0.89782,0.49877c-0.25755,0.46358 -0.39756,1.03637 -0.39756,1.73797zM231.37649,154.26378c0.36536,-0.63642 0.87137,-1.13144 1.5119,-1.47544l0.48594,0.90484c-0.4687,0.2517 -0.83568,0.60913 -1.10712,1.08194zM232.88198,152.79186c0.6384,-0.35466 1.35224,-0.5268 2.12891,-0.5268v1.02706c-0.62014,0 -1.15931,0.13598 -1.63013,0.39756zM235.01088,152.26504c1.21143,0 2.20219,0.34145 2.8467,1.12775l-0.79433,0.65109c-0.38256,-0.46671 -1.02482,-0.75177 -2.05237,-0.75177zM237.85492,153.38958c0.61134,0.73359 0.88933,1.69405 0.88933,2.82452h-1.02706c0,-0.96473 -0.23554,-1.66812 -0.65128,-2.16699zM238.74425,156.21409c0,0.29629 -0.01647,0.60155 -0.04894,0.91557l-1.02162,-0.10568c0.02913,-0.28167 0.0435,-0.55157 0.0435,-0.80989zM238.1845,157.59035h-5.08395v-1.02706h5.08395zM233.60619,156.98711c0.10147,0.57199 0.2898,0.89353 0.49741,1.06338l-0.65037,0.79491c-0.47026,-0.38475 -0.73383,-0.9773 -0.85831,-1.67887zM234.09035,158.04002c0.23544,0.18003 0.57736,0.29495 1.0746,0.29495v1.02706c-0.65307,0 -1.2355,-0.15211 -1.69848,-0.50615zM235.16494,158.33497c0.53138,0 0.90688,-0.05024 1.15185,-0.12926l0.31531,0.97745c-0.39182,0.1264 -0.88931,0.17886 -1.46716,0.17886zM236.31679,158.20573c0.30375,-0.098 0.53938,-0.19155 0.71369,-0.27871l0.45932,0.91864c-0.2365,0.11825 -0.52469,0.23011 -0.8577,0.33753zM237.73215,158.18401l0.50839,1.18625l-0.94402,0.40459l-0.50839,-1.18625zM238.0484,160.00313c-0.26086,0.16957 -0.62873,0.3246 -1.07263,0.47257l-0.32479,-0.97434c0.41884,-0.13961 0.68774,-0.26188 0.83769,-0.35935zM236.96521,160.47912c-0.4997,0.15466 -1.12148,0.22323 -1.84648,0.22323v-1.02706c0.6718,0 1.17978,-0.06494 1.5428,-0.17732zM233.10055,155.40785h3.51255v1.02706h-3.51255zM236.09962,155.91349c0.00948,-0.61636 -0.13487,-0.86686 -0.25409,-0.96224l0.6416,-0.802c0.49699,0.39761 0.65049,1.06119 0.63943,1.78002zM235.84552,154.95126c-0.19627,-0.157 -0.47472,-0.25721 -0.88086,-0.25721v-1.02706c0.57983,0 1.10248,0.14629 1.52246,0.48227zM234.96467,154.69404c-0.41694,0 -0.71333,0.11031 -0.93213,0.29492l-0.66232,-0.78498c0.43852,-0.37 0.98432,-0.537 1.59444,-0.537zM234.03138,154.98994c-0.18119,0.15195 -0.34838,0.4486 -0.4218,0.99931l-1.01806,-0.13574c0.09089,-0.68178 0.32426,-1.26839 0.77985,-1.6505zM239.82456,160.54827h-0.51353v-0.51353h0.51353zM239.31103,152.96345v-0.51353h0.51353v0.51353zM241.45759,152.44992h0.50754l0.00599,0.50742l-0.51353,0.00611zM241.94321,154.46399l-0.98358,-0.20033l0.51336,-0.00611zM242.65617,153.63402l-0.00223,0.00157l-0.28741,-0.42565zM245.26302,153.65506l-0.0065,-0.0052l0.32986,-0.39369zM245.84108,154.69718l-0.00188,-0.00851l0.50206,-0.10762zM247.05506,160.03474v0.51353h-0.51353v-0.51353zM244.8777,160.54827h-0.51353v-0.51353h0.51353zM244.15139,154.97957l-0.00377,-0.01007l0.48357,-0.17275zM242.35524,153.9829v0l0.25779,0.4441zM242.24894,155.49799v0l-0.43701,-0.26986zM242.00193,160.03474v0.51353h-0.51353v-0.51353zM239.31103,160.03474v-7.07131h1.02706v7.07131zM239.82456,152.44992h1.63303v1.02706h-1.63303zM241.97112,152.95735l0.01541,1.2941l-1.02689,0.01222l-0.01541,-1.2941zM241.00277,154.05111c0.22698,-0.51692 0.59176,-0.93959 1.07653,-1.26679l0.57464,0.85126c-0.33688,0.22741 -0.56779,0.50314 -0.71073,0.82841zM242.0769,152.78588c0.51867,-0.35416 1.12651,-0.52082 1.79941,-0.52082v1.02706c-0.49778,0 -0.89645,0.12092 -1.22015,0.34191zM243.87631,152.26504c0.81925,0 1.52929,0.1697 2.03991,0.59748l-0.65954,0.78728c-0.24958,-0.20901 -0.6794,-0.35769 -1.38037,-0.35769zM245.90989,152.85727c0.48854,0.3961 0.79084,0.95046 0.9336,1.6162l-1.00429,0.2152c-0.1039,-0.48457 -0.30469,-0.81348 -0.57618,-1.03362zM246.84161,154.46495c0.14464,0.62358 0.21346,1.34747 0.21346,2.16511h-1.02706c0,-0.76403 -0.0647,-1.40613 -0.18692,-1.93286zM247.05506,156.63007v3.4047h-1.02706v-3.4047zM246.54153,160.54827h-1.66384v-1.02706h1.66384zM244.36417,160.03474v-3.35849h1.02706v3.35849zM244.36417,156.67628c0,-0.8001 -0.08165,-1.35257 -0.21277,-1.6967l0.95979,-0.36563c0.19754,0.5186 0.28005,1.21914 0.28005,2.06234zM244.14763,154.96947c-0.04023,-0.1126 -0.09637,-0.17436 -0.1669,-0.21601c-0.0796,-0.04716 -0.21602,-0.09023 -0.44335,-0.09023v-1.02706c0.348,0 0.68145,0.06477 0.96629,0.2333c0.29425,0.17404 0.49744,0.4358 0.61127,0.75456zM243.53738,154.66323c-0.18812,0 -0.40809,0.05782 -0.66639,0.20788l-0.51576,-0.8882c0.3783,-0.21969 0.77475,-0.34674 1.18215,-0.34674zM242.87099,154.87112c-0.23725,0.13771 -0.44557,0.34119 -0.62206,0.62687l-0.87386,-0.53972c0.25488,-0.41272 0.58063,-0.74332 0.98016,-0.97535zM242.24894,155.49799c-0.1544,0.24999 -0.24701,0.58222 -0.24701,1.02424h-1.02706c0,-0.58506 0.12325,-1.11554 0.40021,-1.56396zM242.00193,156.52221v3.51255h-1.02706v-3.51255zM241.4884,160.54827h-1.66384v-1.02706h1.66384zM249.74545,160.60253l-0.00257,-0.00043l0.08935,-0.50572zM248.70949,160.35575l-0.02071,-0.00642l0.17289,-0.48404zM247.89554,159.95586l-0.32763,-0.24026l0.15834,-0.37412l0.47296,0.20028zM248.28086,158.03197l0.24855,-0.58669l0.52055,0.36743l-0.29614,0.41954zM249.33719,159.12023l-0.00496,-0.00214l0.20729,-0.46986zM252.14226,159.06551l-0.01404,0.01236l-0.32404,-0.39882zM251.53647,158.15715l-0.01712,-0.01224l-0.01609,-0.01361l0.33174,-0.39203zM251.42349,156.94798v0l-0.17392,0.48318zM250.15713,157.5719l-0.01729,-0.00662l0.20079,-0.47305zM249.10576,157.03958l-0.01061,-0.00638l0.27491,-0.43397zM248.1951,156.18612l-0.01232,-0.0176l0.43239,-0.27794zM249.40258,153.7385l-0.00565,0.00399l-0.28878,-0.42469zM252.27681,153.41823l-0.00274,-0.00062l0.11554,-0.50038zM253.60839,152.85088l0.34937,0.24449l-0.17614,0.3883l-0.46765,-0.21209zM253.18079,154.80856l-0.30641,0.67551l-0.52449,-0.52449l0.36324,-0.36312zM251.92419,154.74114l-0.00565,-0.00202l0.17837,-0.48159zM249.92467,155.70057l-0.01455,-0.01089l-0.01369,-0.01186l0.33636,-0.38807zM250.71345,156.10409l-0.02311,-0.0071l0.17409,-0.48371zM251.53904,156.39926l-0.00257,-0.00106l0.19069,-0.47681zM252.80831,157.15839l-0.01181,-0.01097l0.36341,-0.36331zM252.88346,158.94207v0l0.3997,0.32238zM252.42368,160.45675l-0.00685,0.00241l-0.16587,-0.48602zM250.86443,160.70235c-0.36067,0 -0.73401,-0.03381 -1.11898,-0.09981l0.17357,-1.0123c0.33379,0.05724 0.64876,0.08506 0.94541,0.08506zM249.74288,160.60212c-0.36752,-0.06489 -0.71244,-0.14672 -1.03339,-0.24636l0.30435,-0.98091c0.27457,0.08523 0.57687,0.15747 0.90758,0.21582zM248.68895,160.34891c-0.31,-0.1107 -0.58269,-0.2385 -0.7934,-0.39302l0.60733,-0.82822c0.0974,0.07143 0.26635,0.15931 0.5315,0.25403zM247.72625,159.34149l0.55461,-1.3095l0.94575,0.40055l-0.55461,1.3095zM249.04996,157.81274c0.13318,0.09396 0.35862,0.21644 0.69686,0.36565l-0.41459,0.93969c-0.36016,-0.1589 -0.65852,-0.31373 -0.87454,-0.46627zM249.74185,158.17622c0.27782,0.11905 0.64602,0.18956 1.12258,0.18956v1.02706c-0.57105,0 -1.08612,-0.08355 -1.52724,-0.27262zM250.86443,158.36578c0.20935,0 0.36478,-0.01541 0.4745,-0.03879c0.11435,-0.02438 0.14636,-0.05055 0.14139,-0.04651l0.64773,0.7971c-0.16929,0.13756 -0.37625,0.21152 -0.57498,0.25391c-0.20353,0.04338 -0.43599,0.06135 -0.68864,0.06135zM251.46595,158.29259c0.07515,-0.0657 0.07121,-0.09687 0.07121,-0.10652h1.02706c0,0.36009 -0.16827,0.65758 -0.42195,0.87945zM251.53716,158.18605c0,-0.01731 -0.00171,-0.02773 -0.00274,-0.03266c-0.00086,-0.00466 -0.00137,-0.00481 -0.00017,-0.00214c0.00137,0.00282 0.00325,0.00575 0.00514,0.00793c0.00171,0.00204 0.00154,0.00115 -0.00291,-0.00202l0.59706,-0.83575c0.29425,0.21024 0.43068,0.5238 0.43068,0.86465zM251.50326,158.13132c-0.06813,-0.05767 -0.19993,-0.13497 -0.4276,-0.21697l0.34783,-0.96636c0.28569,0.10288 0.54434,0.23097 0.74325,0.39927zM251.07566,157.91435c-0.26087,-0.09391 -0.56711,-0.20813 -0.91853,-0.34244l0.36683,-0.95934c0.34715,0.13273 0.64688,0.24446 0.89953,0.33542zM250.14001,157.56498c-0.36033,-0.15286 -0.70508,-0.32794 -1.03425,-0.52538l0.52842,-0.8807c0.28723,0.17231 0.58936,0.32589 0.90689,0.4606zM249.09532,157.0331c-0.36084,-0.2285 -0.66331,-0.51041 -0.90022,-0.84698l0.83996,-0.59107c0.15355,0.21804 0.35434,0.40858 0.60973,0.57036zM248.18312,156.16825c-0.24804,-0.38582 -0.35879,-0.83608 -0.35879,-1.3253h1.02706c0,0.33243 0.07395,0.58056 0.19565,0.7699zM247.82433,154.84295c0,-0.82254 0.32883,-1.49684 0.99505,-1.94984l0.57755,0.84931c-0.36101,0.2454 -0.54554,0.58789 -0.54554,1.10053zM248.81356,152.89709c0.62514,-0.43751 1.41614,-0.63204 2.32817,-0.63204v1.02706c-0.77235,0 -1.33706,0.16495 -1.73916,0.44638zM251.14174,152.26504c0.46834,0 0.92316,0.05021 1.36325,0.1518l-0.23092,1.00077c-0.36084,-0.08328 -0.73794,-0.12551 -1.13233,-0.12551zM252.50225,152.41624c0.43787,0.0985 0.82096,0.23504 1.10614,0.43463l-0.58902,0.8414c-0.12564,-0.08798 -0.35862,-0.18766 -0.74256,-0.27404zM253.78162,153.48367l-0.60083,1.32491l-0.93531,-0.42418l0.60083,-1.32491zM252.3499,154.95959c-0.04314,-0.0432 -0.16364,-0.12486 -0.42572,-0.21844l0.34543,-0.96722c0.31308,0.11183 0.6034,0.25613 0.80658,0.45942zM251.91854,154.73908c-0.20524,-0.076 -0.47536,-0.12208 -0.82302,-0.12208v-1.02706c0.43273,0 0.83038,0.05663 1.17975,0.18603zM251.09552,154.61702c-0.32952,0 -0.49093,0.05288 -0.55444,0.09134c-0.02414,0.01462 -0.02431,0.02112 -0.02123,0.01537c0.00274,-0.00491 -0.00462,0.00375 -0.00462,0.04221h-1.02706c0,-0.39253 0.17837,-0.7286 0.52089,-0.9361c0.3011,-0.18235 0.68676,-0.23989 1.08646,-0.23989zM250.51523,154.76594c0,0.07657 0.01951,0.10601 0.05392,0.13573l-0.67272,0.77615c-0.27388,-0.23732 -0.40826,-0.55708 -0.40826,-0.91188zM250.54091,154.87892c0.11246,0.08441 0.27405,0.17073 0.49744,0.25117l-0.34783,0.96636c-0.29014,-0.10443 -0.54982,-0.23379 -0.76584,-0.39588zM251.01541,155.12246c0.28261,0.08696 0.58354,0.19461 0.90244,0.32214l-0.38138,0.95359c-0.29751,-0.11897 -0.57173,-0.21674 -0.82302,-0.2941zM251.91511,155.4435c0.66502,0.26166 1.21227,0.58183 1.60786,0.97749l-0.7263,0.72623c-0.26156,-0.26166 -0.66964,-0.51665 -1.25764,-0.74797zM253.51151,156.40983c0.4579,0.43018 0.67033,1.0002 0.67033,1.65297h-1.02706c0,-0.41538 -0.1265,-0.69782 -0.34646,-0.90441zM254.18184,158.06282c0,0.57798 -0.15577,1.09853 -0.49898,1.52404l-0.7994,-0.64475c0.17032,-0.21127 0.27132,-0.49182 0.27132,-0.87928zM253.68286,159.58684c-0.32301,0.40059 -0.74975,0.68796 -1.25918,0.8699l-0.34543,-0.96722c0.35314,-0.12617 0.6147,-0.31125 0.80522,-0.54744zM252.41683,160.45912c-0.48101,0.16426 -1.00001,0.24324 -1.5524,0.24324v-1.02706c0.45413,0 0.85931,-0.06481 1.22049,-0.18812zM254.57965,160.25257l-0.00907,-0.00863l0.36324,-0.36324zM255.28147,158.67243v0l-0.36307,-0.36312zM256.15756,158.67243l-0.0089,-0.00885l0.37197,-0.35427zM256.86828,160.24382v0l-0.36307,-0.36312zM255.71952,160.70235c-0.43496,0 -0.82507,-0.15002 -1.13987,-0.44978l0.70833,-0.74373c0.11657,0.11106 0.25026,0.16645 0.43154,0.16645zM254.57075,160.24382c-0.31308,-0.31308 -0.47399,-0.70605 -0.47399,-1.14882h1.02706c0,0.17347 0.05478,0.3043 0.17306,0.42258zM254.09676,159.095c0,-0.4402 0.14704,-0.8374 0.45858,-1.14882l0.72613,0.72623c-0.09928,0.0994 -0.15765,0.226 -0.15765,0.42258zM254.55534,157.94618c0.31651,-0.31659 0.7162,-0.47394 1.16417,-0.47394v1.02706c-0.18881,0 -0.32318,0.05834 -0.43804,0.17311zM255.71952,157.47224c0.4531,0 0.86016,0.15435 1.17307,0.48289l-0.74376,0.70833c-0.09791,-0.10283 -0.2251,-0.16416 -0.42931,-0.16416zM256.88369,157.94618c0.31154,0.31142 0.45858,0.70862 0.45858,1.14882h-1.02706c0,-0.19658 -0.05837,-0.32318 -0.15765,-0.42258zM257.34227,159.095c0,0.44277 -0.16091,0.83574 -0.47399,1.14882l-0.72613,-0.72623c0.11828,-0.11828 0.17306,-0.24911 0.17306,-0.42258zM256.86828,160.24382c-0.31137,0.31144 -0.7085,0.45853 -1.14877,0.45853v-1.02706c0.19668,0 0.32318,-0.05832 0.42264,-0.15771z"/><g><path d="M250.11179,168.22064v23.55873h-3.36786v-10.08698h-13.48786v10.08698h-3.36786v-23.55873h3.36786v10.1038h13.48786v-10.1038z"/><path d="M250.11179,167.09912h1.12153v1.12153h-1.12153zM251.23331,191.77937v1.12153h-1.12153v-1.12153zM246.74392,192.90089h-1.12153v-1.12153h1.12153zM246.74392,180.57086h1.12153v1.12153h-1.12153zM232.13455,181.69238v-1.12153h1.12153v1.12153zM234.37759,191.77937v1.12153h-1.12153v-1.12153zM229.8882,192.90089h-1.12153v-1.12153h1.12153zM228.76668,168.22064v-1.12153h1.12153v1.12153zM233.25607,167.09912h1.12153v1.12153h-1.12153zM233.25607,179.44597h-1.12153v-1.12153h1.12153zM247.86544,178.32445v1.12153h-1.12153v-1.12153zM245.6224,168.22064v-1.12153h1.12153v1.12153zM251.23331,168.22064v23.55873h-2.24305v-23.55873zM250.11179,192.90089h-3.36786v-2.24305h3.36786zM245.6224,191.77937v-10.08698h2.24305v10.08698zM246.74392,182.81391h-13.48786v-2.24305h13.48786zM234.37759,181.69238v10.08698h-2.24305v-10.08698zM233.25607,192.90089h-3.36786v-2.24305h3.36786zM228.76668,191.77937v-23.55873h2.24305v23.55873zM229.8882,167.09912h3.36786v2.24305h-3.36786zM234.37759,168.22064v10.1038h-2.24305v-10.1038zM233.25607,177.20293h13.48786v2.24305h-13.48786zM245.6224,178.32445v-10.1038h2.24305v10.1038zM246.74392,167.09912h3.36786v2.24305h-3.36786z"/></g></g></g></svg>